<?xml version="1.0" encoding="utf-8"?>
<svg xmlns="http://www.w3.org/2000/svg" xmlns:xlink="http://www.w3.org/1999/xlink" width="600" height="400" viewBox="0 0 2400 1600">
<defs>
  <clipPath id="clip060">
    <rect x="0" y="0" width="2400" height="1600"/>
  </clipPath>
</defs>
<path clip-path="url(#clip060)" d="M0 1600 L2400 1600 L2400 0 L0 0  Z" fill="#ffffff" fill-rule="evenodd" fill-opacity="1"/>
<defs>
  <clipPath id="clip061">
    <rect x="480" y="0" width="1681" height="1600"/>
  </clipPath>
</defs>
<path clip-path="url(#clip060)" d="M288.593 1410.9 L2352.76 1410.9 L2352.76 47.2441 L288.593 47.2441  Z" fill="#ffffff" fill-rule="evenodd" fill-opacity="1"/>
<defs>
  <clipPath id="clip062">
    <rect x="288" y="47" width="2065" height="1365"/>
  </clipPath>
</defs>
<polyline clip-path="url(#clip062)" style="stroke:#000000; stroke-linecap:round; stroke-linejoin:round; stroke-width:2; stroke-opacity:0.1; fill:none" points="347.012,1410.9 347.012,47.2441 "/>
<polyline clip-path="url(#clip062)" style="stroke:#000000; stroke-linecap:round; stroke-linejoin:round; stroke-width:2; stroke-opacity:0.1; fill:none" points="888.346,1410.9 888.346,47.2441 "/>
<polyline clip-path="url(#clip062)" style="stroke:#000000; stroke-linecap:round; stroke-linejoin:round; stroke-width:2; stroke-opacity:0.1; fill:none" points="1429.68,1410.9 1429.68,47.2441 "/>
<polyline clip-path="url(#clip062)" style="stroke:#000000; stroke-linecap:round; stroke-linejoin:round; stroke-width:2; stroke-opacity:0.1; fill:none" points="1971.01,1410.9 1971.01,47.2441 "/>
<polyline clip-path="url(#clip062)" style="stroke:#000000; stroke-linecap:round; stroke-linejoin:round; stroke-width:2; stroke-opacity:0.1; fill:none" points="288.593,802.707 2352.76,802.707 "/>
<polyline clip-path="url(#clip062)" style="stroke:#000000; stroke-linecap:round; stroke-linejoin:round; stroke-width:2; stroke-opacity:0.1; fill:none" points="288.593,91.3877 2352.76,91.3877 "/>
<polyline clip-path="url(#clip060)" style="stroke:#000000; stroke-linecap:round; stroke-linejoin:round; stroke-width:4; stroke-opacity:1; fill:none" points="288.593,1410.9 2352.76,1410.9 "/>
<polyline clip-path="url(#clip060)" style="stroke:#000000; stroke-linecap:round; stroke-linejoin:round; stroke-width:4; stroke-opacity:1; fill:none" points="347.012,1410.9 347.012,1392 "/>
<polyline clip-path="url(#clip060)" style="stroke:#000000; stroke-linecap:round; stroke-linejoin:round; stroke-width:4; stroke-opacity:1; fill:none" points="888.346,1410.9 888.346,1392 "/>
<polyline clip-path="url(#clip060)" style="stroke:#000000; stroke-linecap:round; stroke-linejoin:round; stroke-width:4; stroke-opacity:1; fill:none" points="1429.68,1410.9 1429.68,1392 "/>
<polyline clip-path="url(#clip060)" style="stroke:#000000; stroke-linecap:round; stroke-linejoin:round; stroke-width:4; stroke-opacity:1; fill:none" points="1971.01,1410.9 1971.01,1392 "/>
<path clip-path="url(#clip060)" d="M293.62 1485.02 L301.259 1485.02 L301.259 1458.66 L292.949 1460.32 L292.949 1456.06 L301.213 1454.4 L305.889 1454.4 L305.889 1485.02 L313.527 1485.02 L313.527 1488.96 L293.62 1488.96 L293.62 1485.02 Z" fill="#000000" fill-rule="nonzero" fill-opacity="1" /><path clip-path="url(#clip060)" d="M332.972 1457.48 Q329.361 1457.48 327.532 1461.04 Q325.726 1464.58 325.726 1471.71 Q325.726 1478.82 327.532 1482.38 Q329.361 1485.92 332.972 1485.92 Q336.606 1485.92 338.412 1482.38 Q340.24 1478.82 340.24 1471.71 Q340.24 1464.58 338.412 1461.04 Q336.606 1457.48 332.972 1457.48 M332.972 1453.77 Q338.782 1453.77 341.837 1458.38 Q344.916 1462.96 344.916 1471.71 Q344.916 1480.44 341.837 1485.04 Q338.782 1489.63 332.972 1489.63 Q327.162 1489.63 324.083 1485.04 Q321.027 1480.44 321.027 1471.71 Q321.027 1462.96 324.083 1458.38 Q327.162 1453.77 332.972 1453.77 Z" fill="#000000" fill-rule="nonzero" fill-opacity="1" /><path clip-path="url(#clip060)" d="M354.621 1435.97 Q351.687 1435.97 350.201 1438.86 Q348.734 1441.74 348.734 1447.53 Q348.734 1453.31 350.201 1456.2 Q351.687 1459.08 354.621 1459.08 Q357.574 1459.08 359.041 1456.2 Q360.527 1453.31 360.527 1447.53 Q360.527 1441.74 359.041 1438.86 Q357.574 1435.97 354.621 1435.97 M354.621 1432.96 Q359.342 1432.96 361.824 1436.7 Q364.326 1440.43 364.326 1447.53 Q364.326 1454.62 361.824 1458.37 Q359.342 1462.09 354.621 1462.09 Q349.9 1462.09 347.399 1458.37 Q344.916 1454.62 344.916 1447.53 Q344.916 1440.43 347.399 1436.7 Q349.9 1432.96 354.621 1432.96 Z" fill="#000000" fill-rule="nonzero" fill-opacity="1" /><path clip-path="url(#clip060)" d="M371.002 1456.77 L374.971 1456.77 L374.971 1461.55 L371.002 1461.55 L371.002 1456.77 Z" fill="#000000" fill-rule="nonzero" fill-opacity="1" /><path clip-path="url(#clip060)" d="M391.371 1435.97 Q388.437 1435.97 386.951 1438.86 Q385.484 1441.74 385.484 1447.53 Q385.484 1453.31 386.951 1456.2 Q388.437 1459.08 391.371 1459.08 Q394.324 1459.08 395.791 1456.2 Q397.277 1453.31 397.277 1447.53 Q397.277 1441.74 395.791 1438.86 Q394.324 1435.97 391.371 1435.97 M391.371 1432.96 Q396.092 1432.96 398.575 1436.7 Q401.076 1440.43 401.076 1447.53 Q401.076 1454.62 398.575 1458.37 Q396.092 1462.09 391.371 1462.09 Q386.651 1462.09 384.149 1458.37 Q381.667 1454.62 381.667 1447.53 Q381.667 1440.43 384.149 1436.7 Q386.651 1432.96 391.371 1432.96 Z" fill="#000000" fill-rule="nonzero" fill-opacity="1" /><path clip-path="url(#clip060)" d="M835.217 1485.02 L842.856 1485.02 L842.856 1458.66 L834.546 1460.32 L834.546 1456.06 L842.81 1454.4 L847.486 1454.4 L847.486 1485.02 L855.124 1485.02 L855.124 1488.96 L835.217 1488.96 L835.217 1485.02 Z" fill="#000000" fill-rule="nonzero" fill-opacity="1" /><path clip-path="url(#clip060)" d="M874.569 1457.48 Q870.958 1457.48 869.129 1461.04 Q867.323 1464.58 867.323 1471.71 Q867.323 1478.82 869.129 1482.38 Q870.958 1485.92 874.569 1485.92 Q878.203 1485.92 880.008 1482.38 Q881.837 1478.82 881.837 1471.71 Q881.837 1464.58 880.008 1461.04 Q878.203 1457.48 874.569 1457.48 M874.569 1453.77 Q880.379 1453.77 883.434 1458.38 Q886.513 1462.96 886.513 1471.71 Q886.513 1480.44 883.434 1485.04 Q880.379 1489.63 874.569 1489.63 Q868.759 1489.63 865.68 1485.04 Q862.624 1480.44 862.624 1471.71 Q862.624 1462.96 865.68 1458.38 Q868.759 1453.77 874.569 1453.77 Z" fill="#000000" fill-rule="nonzero" fill-opacity="1" /><path clip-path="url(#clip060)" d="M896.218 1435.97 Q893.284 1435.97 891.798 1438.86 Q890.331 1441.74 890.331 1447.53 Q890.331 1453.31 891.798 1456.2 Q893.284 1459.08 896.218 1459.08 Q899.171 1459.08 900.638 1456.2 Q902.124 1453.31 902.124 1447.53 Q902.124 1441.74 900.638 1438.86 Q899.171 1435.97 896.218 1435.97 M896.218 1432.96 Q900.939 1432.96 903.421 1436.7 Q905.923 1440.43 905.923 1447.53 Q905.923 1454.62 903.421 1458.37 Q900.939 1462.09 896.218 1462.09 Q891.497 1462.09 888.996 1458.37 Q886.513 1454.62 886.513 1447.53 Q886.513 1440.43 888.996 1436.7 Q891.497 1432.96 896.218 1432.96 Z" fill="#000000" fill-rule="nonzero" fill-opacity="1" /><path clip-path="url(#clip060)" d="M912.599 1456.77 L916.568 1456.77 L916.568 1461.55 L912.599 1461.55 L912.599 1456.77 Z" fill="#000000" fill-rule="nonzero" fill-opacity="1" /><path clip-path="url(#clip060)" d="M936.354 1446.41 Q939.081 1446.99 940.604 1448.83 Q942.146 1450.68 942.146 1453.38 Q942.146 1457.54 939.288 1459.82 Q936.429 1462.09 931.163 1462.09 Q929.395 1462.09 927.514 1461.73 Q925.652 1461.4 923.658 1460.7 L923.658 1457.03 Q925.238 1457.95 927.119 1458.42 Q929 1458.89 931.05 1458.89 Q934.623 1458.89 936.485 1457.48 Q938.366 1456.07 938.366 1453.38 Q938.366 1450.9 936.617 1449.51 Q934.887 1448.1 931.783 1448.1 L928.511 1448.1 L928.511 1444.98 L931.934 1444.98 Q934.736 1444.98 936.222 1443.87 Q937.708 1442.74 937.708 1440.63 Q937.708 1438.47 936.166 1437.32 Q934.642 1436.16 931.783 1436.16 Q930.222 1436.16 928.436 1436.49 Q926.649 1436.83 924.505 1437.55 L924.505 1434.16 Q926.668 1433.56 928.548 1433.26 Q930.448 1432.96 932.122 1432.96 Q936.448 1432.96 938.968 1434.93 Q941.488 1436.89 941.488 1440.24 Q941.488 1442.57 940.153 1444.19 Q938.817 1445.79 936.354 1446.41 Z" fill="#000000" fill-rule="nonzero" fill-opacity="1" /><path clip-path="url(#clip060)" d="M1376.22 1485.02 L1383.86 1485.02 L1383.86 1458.66 L1375.55 1460.32 L1375.55 1456.06 L1383.81 1454.4 L1388.49 1454.4 L1388.49 1485.02 L1396.13 1485.02 L1396.13 1488.96 L1376.22 1488.96 L1376.22 1485.02 Z" fill="#000000" fill-rule="nonzero" fill-opacity="1" /><path clip-path="url(#clip060)" d="M1415.57 1457.48 Q1411.96 1457.48 1410.13 1461.04 Q1408.33 1464.58 1408.33 1471.71 Q1408.33 1478.82 1410.13 1482.38 Q1411.96 1485.92 1415.57 1485.92 Q1419.21 1485.92 1421.01 1482.38 Q1422.84 1478.82 1422.84 1471.71 Q1422.84 1464.58 1421.01 1461.04 Q1419.21 1457.48 1415.57 1457.48 M1415.57 1453.77 Q1421.38 1453.77 1424.44 1458.38 Q1427.52 1462.96 1427.52 1471.71 Q1427.52 1480.44 1424.44 1485.04 Q1421.38 1489.63 1415.57 1489.63 Q1409.76 1489.63 1406.68 1485.04 Q1403.63 1480.44 1403.63 1471.71 Q1403.63 1462.96 1406.68 1458.38 Q1409.76 1453.77 1415.57 1453.77 Z" fill="#000000" fill-rule="nonzero" fill-opacity="1" /><path clip-path="url(#clip060)" d="M1437.22 1435.97 Q1434.29 1435.97 1432.8 1438.86 Q1431.34 1441.74 1431.34 1447.53 Q1431.34 1453.31 1432.8 1456.2 Q1434.29 1459.08 1437.22 1459.08 Q1440.18 1459.08 1441.64 1456.2 Q1443.13 1453.31 1443.13 1447.53 Q1443.13 1441.74 1441.64 1438.86 Q1440.18 1435.97 1437.22 1435.97 M1437.22 1432.96 Q1441.94 1432.96 1444.43 1436.7 Q1446.93 1440.43 1446.93 1447.53 Q1446.93 1454.62 1444.43 1458.37 Q1441.94 1462.09 1437.22 1462.09 Q1432.5 1462.09 1430 1458.37 Q1427.52 1454.62 1427.52 1447.53 Q1427.52 1440.43 1430 1436.7 Q1432.5 1432.96 1437.22 1432.96 Z" fill="#000000" fill-rule="nonzero" fill-opacity="1" /><path clip-path="url(#clip060)" d="M1453.6 1456.77 L1457.57 1456.77 L1457.57 1461.55 L1453.6 1461.55 L1453.6 1456.77 Z" fill="#000000" fill-rule="nonzero" fill-opacity="1" /><path clip-path="url(#clip060)" d="M1474.44 1445.99 Q1471.89 1445.99 1470.38 1447.74 Q1468.89 1449.49 1468.89 1452.54 Q1468.89 1455.57 1470.38 1457.33 Q1471.89 1459.08 1474.44 1459.08 Q1477 1459.08 1478.49 1457.33 Q1479.99 1455.57 1479.99 1452.54 Q1479.99 1449.49 1478.49 1447.74 Q1477 1445.99 1474.44 1445.99 M1481.98 1434.09 L1481.98 1437.55 Q1480.56 1436.87 1479.09 1436.51 Q1477.64 1436.16 1476.21 1436.16 Q1472.45 1436.16 1470.46 1438.69 Q1468.48 1441.23 1468.2 1446.37 Q1469.31 1444.73 1470.98 1443.87 Q1472.66 1442.98 1474.67 1442.98 Q1478.9 1442.98 1481.35 1445.56 Q1483.81 1448.12 1483.81 1452.54 Q1483.81 1456.86 1481.25 1459.48 Q1478.69 1462.09 1474.44 1462.09 Q1469.57 1462.09 1467 1458.37 Q1464.42 1454.62 1464.42 1447.53 Q1464.42 1440.88 1467.58 1436.93 Q1470.74 1432.96 1476.06 1432.96 Q1477.49 1432.96 1478.94 1433.24 Q1480.41 1433.52 1481.98 1434.09 Z" fill="#000000" fill-rule="nonzero" fill-opacity="1" /><path clip-path="url(#clip060)" d="M1917.7 1485.02 L1925.34 1485.02 L1925.34 1458.66 L1917.02 1460.32 L1917.02 1456.06 L1925.29 1454.4 L1929.96 1454.4 L1929.96 1485.02 L1937.6 1485.02 L1937.6 1488.96 L1917.7 1488.96 L1917.7 1485.02 Z" fill="#000000" fill-rule="nonzero" fill-opacity="1" /><path clip-path="url(#clip060)" d="M1957.05 1457.48 Q1953.44 1457.48 1951.61 1461.04 Q1949.8 1464.58 1949.8 1471.71 Q1949.8 1478.82 1951.61 1482.38 Q1953.44 1485.92 1957.05 1485.92 Q1960.68 1485.92 1962.49 1482.38 Q1964.32 1478.82 1964.32 1471.71 Q1964.32 1464.58 1962.49 1461.04 Q1960.68 1457.48 1957.05 1457.48 M1957.05 1453.77 Q1962.86 1453.77 1965.91 1458.38 Q1968.99 1462.96 1968.99 1471.71 Q1968.99 1480.44 1965.91 1485.04 Q1962.86 1489.63 1957.05 1489.63 Q1951.24 1489.63 1948.16 1485.04 Q1945.1 1480.44 1945.1 1471.71 Q1945.1 1462.96 1948.16 1458.38 Q1951.24 1453.77 1957.05 1453.77 Z" fill="#000000" fill-rule="nonzero" fill-opacity="1" /><path clip-path="url(#clip060)" d="M1978.7 1435.97 Q1975.76 1435.97 1974.28 1438.86 Q1972.81 1441.74 1972.81 1447.53 Q1972.81 1453.31 1974.28 1456.2 Q1975.76 1459.08 1978.7 1459.08 Q1981.65 1459.08 1983.12 1456.2 Q1984.6 1453.31 1984.6 1447.53 Q1984.6 1441.74 1983.12 1438.86 Q1981.65 1435.97 1978.7 1435.97 M1978.7 1432.96 Q1983.42 1432.96 1985.9 1436.7 Q1988.4 1440.43 1988.4 1447.53 Q1988.4 1454.62 1985.9 1458.37 Q1983.42 1462.09 1978.7 1462.09 Q1973.98 1462.09 1971.47 1458.37 Q1968.99 1454.62 1968.99 1447.53 Q1968.99 1440.43 1971.47 1436.7 Q1973.98 1432.96 1978.7 1432.96 Z" fill="#000000" fill-rule="nonzero" fill-opacity="1" /><path clip-path="url(#clip060)" d="M1995.08 1456.77 L1999.05 1456.77 L1999.05 1461.55 L1995.08 1461.55 L1995.08 1456.77 Z" fill="#000000" fill-rule="nonzero" fill-opacity="1" /><path clip-path="url(#clip060)" d="M2007.44 1460.96 L2007.44 1457.5 Q2008.86 1458.18 2010.33 1458.54 Q2011.8 1458.89 2013.21 1458.89 Q2016.97 1458.89 2018.95 1456.37 Q2020.94 1453.84 2021.22 1448.68 Q2020.13 1450.3 2018.46 1451.16 Q2016.78 1452.03 2014.75 1452.03 Q2010.54 1452.03 2008.07 1449.49 Q2005.63 1446.93 2005.63 1442.51 Q2005.63 1438.19 2008.19 1435.57 Q2010.75 1432.96 2015 1432.96 Q2019.87 1432.96 2022.43 1436.7 Q2025 1440.43 2025 1447.53 Q2025 1454.17 2021.84 1458.14 Q2018.7 1462.09 2013.38 1462.09 Q2011.95 1462.09 2010.48 1461.81 Q2009.02 1461.53 2007.44 1460.96 M2015 1449.06 Q2017.55 1449.06 2019.04 1447.31 Q2020.54 1445.56 2020.54 1442.51 Q2020.54 1439.48 2019.04 1437.74 Q2017.55 1435.97 2015 1435.97 Q2012.44 1435.97 2010.93 1437.74 Q2009.45 1439.48 2009.45 1442.51 Q2009.45 1445.56 2010.93 1447.31 Q2012.44 1449.06 2015 1449.06 Z" fill="#000000" fill-rule="nonzero" fill-opacity="1" /><path clip-path="url(#clip060)" d="M1302.69 1526.67 L1311.35 1526.67 L1332.42 1566.42 L1332.42 1526.67 L1338.66 1526.67 L1338.66 1574.19 L1330 1574.19 L1308.93 1534.43 L1308.93 1574.19 L1302.69 1574.19 L1302.69 1526.67 Z" fill="#000000" fill-rule="nonzero" fill-opacity="1" /><polyline clip-path="url(#clip060)" style="stroke:#000000; stroke-linecap:round; stroke-linejoin:round; stroke-width:4; stroke-opacity:1; fill:none" points="288.593,1410.9 288.593,47.2441 "/>
<polyline clip-path="url(#clip060)" style="stroke:#000000; stroke-linecap:round; stroke-linejoin:round; stroke-width:4; stroke-opacity:1; fill:none" points="288.593,802.707 307.49,802.707 "/>
<polyline clip-path="url(#clip060)" style="stroke:#000000; stroke-linecap:round; stroke-linejoin:round; stroke-width:4; stroke-opacity:1; fill:none" points="288.593,91.3877 307.49,91.3877 "/>
<path clip-path="url(#clip060)" d="M114.931 822.499 L122.57 822.499 L122.57 796.134 L114.26 797.801 L114.26 793.541 L122.524 791.875 L127.2 791.875 L127.2 822.499 L134.839 822.499 L134.839 826.435 L114.931 826.435 L114.931 822.499 Z" fill="#000000" fill-rule="nonzero" fill-opacity="1" /><path clip-path="url(#clip060)" d="M154.283 794.953 Q150.672 794.953 148.843 798.518 Q147.038 802.06 147.038 809.189 Q147.038 816.296 148.843 819.861 Q150.672 823.402 154.283 823.402 Q157.917 823.402 159.723 819.861 Q161.552 816.296 161.552 809.189 Q161.552 802.06 159.723 798.518 Q157.917 794.953 154.283 794.953 M154.283 791.25 Q160.093 791.25 163.149 795.856 Q166.227 800.439 166.227 809.189 Q166.227 817.916 163.149 822.523 Q160.093 827.106 154.283 827.106 Q148.473 827.106 145.394 822.523 Q142.339 817.916 142.339 809.189 Q142.339 800.439 145.394 795.856 Q148.473 791.25 154.283 791.25 Z" fill="#000000" fill-rule="nonzero" fill-opacity="1" /><path clip-path="url(#clip060)" d="M166.227 785.351 L190.339 785.351 L190.339 788.548 L166.227 788.548 L166.227 785.351 Z" fill="#000000" fill-rule="nonzero" fill-opacity="1" /><path clip-path="url(#clip060)" d="M206.664 773.446 Q203.73 773.446 202.244 776.342 Q200.777 779.22 200.777 785.012 Q200.777 790.786 202.244 793.683 Q203.73 796.56 206.664 796.56 Q209.617 796.56 211.084 793.683 Q212.57 790.786 212.57 785.012 Q212.57 779.22 211.084 776.342 Q209.617 773.446 206.664 773.446 M206.664 770.436 Q211.385 770.436 213.868 774.179 Q216.369 777.903 216.369 785.012 Q216.369 792.103 213.868 795.846 Q211.385 799.57 206.664 799.57 Q201.943 799.57 199.442 795.846 Q196.959 792.103 196.959 785.012 Q196.959 777.903 199.442 774.179 Q201.943 770.436 206.664 770.436 Z" fill="#000000" fill-rule="nonzero" fill-opacity="1" /><path clip-path="url(#clip060)" d="M223.046 794.247 L227.014 794.247 L227.014 799.024 L223.046 799.024 L223.046 794.247 Z" fill="#000000" fill-rule="nonzero" fill-opacity="1" /><path clip-path="url(#clip060)" d="M246.8 783.884 Q249.527 784.467 251.051 786.31 Q252.593 788.153 252.593 790.862 Q252.593 795.018 249.734 797.294 Q246.875 799.57 241.609 799.57 Q239.841 799.57 237.96 799.212 Q236.098 798.874 234.105 798.178 L234.105 794.51 Q235.685 795.432 237.565 795.902 Q239.446 796.372 241.496 796.372 Q245.07 796.372 246.932 794.962 Q248.812 793.551 248.812 790.862 Q248.812 788.379 247.063 786.987 Q245.333 785.577 242.23 785.577 L238.957 785.577 L238.957 782.455 L242.38 782.455 Q245.182 782.455 246.668 781.345 Q248.154 780.216 248.154 778.11 Q248.154 775.947 246.612 774.8 Q245.088 773.634 242.23 773.634 Q240.669 773.634 238.882 773.972 Q237.095 774.311 234.951 775.026 L234.951 771.64 Q237.114 771.038 238.995 770.737 Q240.894 770.436 242.568 770.436 Q246.894 770.436 249.414 772.411 Q251.934 774.367 251.934 777.715 Q251.934 780.047 250.599 781.665 Q249.264 783.263 246.8 783.884 Z" fill="#000000" fill-rule="nonzero" fill-opacity="1" /><path clip-path="url(#clip060)" d="M145.137 111.18 L152.776 111.18 L152.776 84.8146 L144.465 86.4812 L144.465 82.222 L152.729 80.5553 L157.405 80.5553 L157.405 111.18 L165.044 111.18 L165.044 115.115 L145.137 115.115 L145.137 111.18 Z" fill="#000000" fill-rule="nonzero" fill-opacity="1" /><path clip-path="url(#clip060)" d="M184.488 83.634 Q180.877 83.634 179.049 87.1988 Q177.243 90.7405 177.243 97.87 Q177.243 104.976 179.049 108.541 Q180.877 112.083 184.488 112.083 Q188.123 112.083 189.928 108.541 Q191.757 104.976 191.757 97.87 Q191.757 90.7405 189.928 87.1988 Q188.123 83.634 184.488 83.634 M184.488 79.9303 Q190.299 79.9303 193.354 84.5368 Q196.433 89.1201 196.433 97.87 Q196.433 106.597 193.354 111.203 Q190.299 115.787 184.488 115.787 Q178.678 115.787 175.6 111.203 Q172.544 106.597 172.544 97.87 Q172.544 89.1201 175.6 84.5368 Q178.678 79.9303 184.488 79.9303 Z" fill="#000000" fill-rule="nonzero" fill-opacity="1" /><path clip-path="url(#clip060)" d="M206.138 62.1264 Q203.204 62.1264 201.718 65.0228 Q200.251 67.9003 200.251 73.6931 Q200.251 79.4671 201.718 82.3635 Q203.204 85.2411 206.138 85.2411 Q209.09 85.2411 210.557 82.3635 Q212.043 79.4671 212.043 73.6931 Q212.043 67.9003 210.557 65.0228 Q209.09 62.1264 206.138 62.1264 M206.138 59.1171 Q210.858 59.1171 213.341 62.8599 Q215.842 66.5838 215.842 73.6931 Q215.842 80.7837 213.341 84.5264 Q210.858 88.2504 206.138 88.2504 Q201.417 88.2504 198.915 84.5264 Q196.433 80.7837 196.433 73.6931 Q196.433 66.5838 198.915 62.8599 Q201.417 59.1171 206.138 59.1171 Z" fill="#000000" fill-rule="nonzero" fill-opacity="1" /><path clip-path="url(#clip060)" d="M222.519 82.9278 L226.488 82.9278 L226.488 87.7049 L222.519 87.7049 L222.519 82.9278 Z" fill="#000000" fill-rule="nonzero" fill-opacity="1" /><path clip-path="url(#clip060)" d="M242.888 62.1264 Q239.954 62.1264 238.468 65.0228 Q237.001 67.9003 237.001 73.6931 Q237.001 79.4671 238.468 82.3635 Q239.954 85.2411 242.888 85.2411 Q245.841 85.2411 247.308 82.3635 Q248.794 79.4671 248.794 73.6931 Q248.794 67.9003 247.308 65.0228 Q245.841 62.1264 242.888 62.1264 M242.888 59.1171 Q247.609 59.1171 250.091 62.8599 Q252.593 66.5838 252.593 73.6931 Q252.593 80.7837 250.091 84.5264 Q247.609 88.2504 242.888 88.2504 Q238.167 88.2504 235.666 84.5264 Q233.183 80.7837 233.183 73.6931 Q233.183 66.5838 235.666 62.8599 Q238.167 59.1171 242.888 59.1171 Z" fill="#000000" fill-rule="nonzero" fill-opacity="1" /><path clip-path="url(#clip060)" d="M18.0438 1036.52 L24.314 1036.52 Q22.5634 1040.18 21.704 1043.42 Q20.8447 1046.67 20.8447 1049.7 Q20.8447 1054.95 22.8817 1057.81 Q24.9187 1060.64 28.6745 1060.64 Q31.8255 1060.64 33.4488 1058.77 Q35.0402 1056.86 36.0269 1051.57 L36.8226 1047.69 Q38.1912 1040.5 41.6605 1037.09 Q45.098 1033.65 50.8908 1033.65 Q57.7976 1033.65 61.3624 1038.3 Q64.9272 1042.92 64.9272 1051.86 Q64.9272 1055.23 64.1633 1059.05 Q63.3994 1062.84 61.9035 1066.91 L55.2831 1066.91 Q57.4793 1063 58.5933 1059.24 Q59.7073 1055.49 59.7073 1051.86 Q59.7073 1046.35 57.543 1043.36 Q55.3786 1040.37 51.3682 1040.37 Q47.8671 1040.37 45.8937 1042.53 Q43.9204 1044.67 42.9337 1049.57 L42.1698 1053.48 Q40.7375 1060.68 37.682 1063.89 Q34.6264 1067.11 29.1837 1067.11 Q22.8817 1067.11 19.2532 1062.68 Q15.6248 1058.23 15.6248 1050.43 Q15.6248 1047.09 16.2295 1043.62 Q16.8343 1040.15 18.0438 1036.52 Z" fill="#000000" fill-rule="nonzero" fill-opacity="1" /><path clip-path="url(#clip060)" d="M18.2347 1018.09 L28.3562 1018.09 L28.3562 1006.03 L32.9077 1006.03 L32.9077 1018.09 L52.2594 1018.09 Q56.6199 1018.09 57.8613 1016.91 Q59.1026 1015.7 59.1026 1012.04 L59.1026 1006.03 L64.0042 1006.03 L64.0042 1012.04 Q64.0042 1018.82 61.4897 1021.4 Q58.9434 1023.98 52.2594 1023.98 L32.9077 1023.98 L32.9077 1028.27 L28.3562 1028.27 L28.3562 1023.98 L18.2347 1023.98 L18.2347 1018.09 Z" fill="#000000" fill-rule="nonzero" fill-opacity="1" /><path clip-path="url(#clip060)" d="M46.0847 982.123 Q46.0847 989.221 47.7079 991.958 Q49.3312 994.695 53.2461 994.695 Q56.3653 994.695 58.2114 992.658 Q60.0256 990.59 60.0256 987.057 Q60.0256 982.187 56.5881 979.259 Q53.1188 976.298 47.3897 976.298 L46.0847 976.298 L46.0847 982.123 M43.6657 970.442 L64.0042 970.442 L64.0042 976.298 L58.5933 976.298 Q61.8398 978.304 63.3994 981.296 Q64.9272 984.287 64.9272 988.616 Q64.9272 994.091 61.8716 997.337 Q58.7843 1000.55 53.6281 1000.55 Q47.6125 1000.55 44.5569 996.541 Q41.5014 992.499 41.5014 984.51 L41.5014 976.298 L40.9285 976.298 Q36.8862 976.298 34.6901 978.972 Q32.4621 981.614 32.4621 986.42 Q32.4621 989.476 33.1941 992.372 Q33.9262 995.268 35.3903 997.942 L29.9795 997.942 Q28.7381 994.727 28.1334 991.704 Q27.4968 988.68 27.4968 985.815 Q27.4968 978.081 31.5072 974.261 Q35.5176 970.442 43.6657 970.442 Z" fill="#000000" fill-rule="nonzero" fill-opacity="1" /><path clip-path="url(#clip060)" d="M42.4881 928.747 L64.0042 928.747 L64.0042 934.603 L42.679 934.603 Q37.6183 934.603 35.1038 936.576 Q32.5894 938.55 32.5894 942.497 Q32.5894 947.239 35.6131 949.976 Q38.6368 952.714 43.8567 952.714 L64.0042 952.714 L64.0042 958.602 L28.3562 958.602 L28.3562 952.714 L33.8944 952.714 Q30.6797 950.613 29.0883 947.78 Q27.4968 944.916 27.4968 941.192 Q27.4968 935.049 31.3163 931.898 Q35.1038 928.747 42.4881 928.747 Z" fill="#000000" fill-rule="nonzero" fill-opacity="1" /><path clip-path="url(#clip060)" d="M33.7671 893.608 L14.479 893.608 L14.479 887.752 L64.0042 887.752 L64.0042 893.608 L58.657 893.608 Q61.8398 895.454 63.3994 898.287 Q64.9272 901.088 64.9272 905.034 Q64.9272 911.496 59.771 915.57 Q54.6147 919.612 46.212 919.612 Q37.8093 919.612 32.6531 915.57 Q27.4968 911.496 27.4968 905.034 Q27.4968 901.088 29.0564 898.287 Q30.5842 895.454 33.7671 893.608 M46.212 913.564 Q52.6732 913.564 56.3653 910.923 Q60.0256 908.249 60.0256 903.602 Q60.0256 898.955 56.3653 896.282 Q52.6732 893.608 46.212 893.608 Q39.7508 893.608 36.0905 896.282 Q32.3984 898.955 32.3984 903.602 Q32.3984 908.249 36.0905 910.923 Q39.7508 913.564 46.212 913.564 Z" fill="#000000" fill-rule="nonzero" fill-opacity="1" /><path clip-path="url(#clip060)" d="M46.0847 859.488 Q46.0847 866.586 47.7079 869.323 Q49.3312 872.06 53.2461 872.06 Q56.3653 872.06 58.2114 870.023 Q60.0256 867.954 60.0256 864.421 Q60.0256 859.551 56.5881 856.623 Q53.1188 853.663 47.3897 853.663 L46.0847 853.663 L46.0847 859.488 M43.6657 847.807 L64.0042 847.807 L64.0042 853.663 L58.5933 853.663 Q61.8398 855.668 63.3994 858.66 Q64.9272 861.652 64.9272 865.981 Q64.9272 871.455 61.8716 874.702 Q58.7843 877.917 53.6281 877.917 Q47.6125 877.917 44.5569 873.906 Q41.5014 869.864 41.5014 861.875 L41.5014 853.663 L40.9285 853.663 Q36.8862 853.663 34.6901 856.337 Q32.4621 858.979 32.4621 863.785 Q32.4621 866.84 33.1941 869.737 Q33.9262 872.633 35.3903 875.307 L29.9795 875.307 Q28.7381 872.092 28.1334 869.068 Q27.4968 866.044 27.4968 863.18 Q27.4968 855.446 31.5072 851.626 Q35.5176 847.807 43.6657 847.807 Z" fill="#000000" fill-rule="nonzero" fill-opacity="1" /><path clip-path="url(#clip060)" d="M33.8307 815.087 Q33.2578 816.074 33.0032 817.251 Q32.7167 818.397 32.7167 819.798 Q32.7167 824.763 35.9632 827.436 Q39.1779 830.078 45.2253 830.078 L64.0042 830.078 L64.0042 835.966 L28.3562 835.966 L28.3562 830.078 L33.8944 830.078 Q30.6479 828.232 29.0883 825.272 Q27.4968 822.312 27.4968 818.079 Q27.4968 817.474 27.5923 816.742 Q27.656 816.01 27.8151 815.119 L33.8307 815.087 Z" fill="#000000" fill-rule="nonzero" fill-opacity="1" /><path clip-path="url(#clip060)" d="M33.7671 786.632 L14.479 786.632 L14.479 780.776 L64.0042 780.776 L64.0042 786.632 L58.657 786.632 Q61.8398 788.478 63.3994 791.311 Q64.9272 794.112 64.9272 798.059 Q64.9272 804.52 59.771 808.594 Q54.6147 812.636 46.212 812.636 Q37.8093 812.636 32.6531 808.594 Q27.4968 804.52 27.4968 798.059 Q27.4968 794.112 29.0564 791.311 Q30.5842 788.478 33.7671 786.632 M46.212 806.589 Q52.6732 806.589 56.3653 803.947 Q60.0256 801.273 60.0256 796.626 Q60.0256 791.979 56.3653 789.306 Q52.6732 786.632 46.212 786.632 Q39.7508 786.632 36.0905 789.306 Q32.3984 791.979 32.3984 796.626 Q32.3984 801.273 36.0905 803.947 Q39.7508 806.589 46.212 806.589 Z" fill="#000000" fill-rule="nonzero" fill-opacity="1" /><path clip-path="url(#clip060)" d="M33.7671 724.535 L14.479 724.535 L14.479 718.678 L64.0042 718.678 L64.0042 724.535 L58.657 724.535 Q61.8398 726.381 63.3994 729.214 Q64.9272 732.015 64.9272 735.961 Q64.9272 742.422 59.771 746.496 Q54.6147 750.539 46.212 750.539 Q37.8093 750.539 32.6531 746.496 Q27.4968 742.422 27.4968 735.961 Q27.4968 732.015 29.0564 729.214 Q30.5842 726.381 33.7671 724.535 M46.212 744.491 Q52.6732 744.491 56.3653 741.85 Q60.0256 739.176 60.0256 734.529 Q60.0256 729.882 56.3653 727.208 Q52.6732 724.535 46.212 724.535 Q39.7508 724.535 36.0905 727.208 Q32.3984 729.882 32.3984 734.529 Q32.3984 739.176 36.0905 741.85 Q39.7508 744.491 46.212 744.491 Z" fill="#000000" fill-rule="nonzero" fill-opacity="1" /><path clip-path="url(#clip060)" d="M44.7161 676.124 L47.5806 676.124 L47.5806 703.051 Q53.6281 702.669 56.8109 699.422 Q59.9619 696.144 59.9619 690.319 Q59.9619 686.945 59.1344 683.794 Q58.3069 680.611 56.6518 677.492 L62.1899 677.492 Q63.5267 680.643 64.227 683.953 Q64.9272 687.264 64.9272 690.669 Q64.9272 699.199 59.9619 704.196 Q54.9967 709.162 46.5303 709.162 Q37.7774 709.162 32.6531 704.451 Q27.4968 699.709 27.4968 691.688 Q27.4968 684.495 32.1438 680.325 Q36.7589 676.124 44.7161 676.124 M42.9973 681.98 Q38.1912 682.044 35.3266 684.685 Q32.4621 687.295 32.4621 691.624 Q32.4621 696.526 35.2312 699.486 Q38.0002 702.414 43.0292 702.86 L42.9973 681.98 Z" fill="#000000" fill-rule="nonzero" fill-opacity="1" /><path clip-path="url(#clip060)" d="M28.3562 670.713 L28.3562 664.506 L58.275 653.366 L28.3562 642.226 L28.3562 636.02 L64.0042 649.388 L64.0042 657.345 L28.3562 670.713 Z" fill="#000000" fill-rule="nonzero" fill-opacity="1" /><path clip-path="url(#clip060)" d="M28.3562 627.935 L28.3562 622.079 L64.0042 622.079 L64.0042 627.935 L28.3562 627.935 M14.479 627.935 L14.479 622.079 L21.895 622.079 L21.895 627.935 L14.479 627.935 Z" fill="#000000" fill-rule="nonzero" fill-opacity="1" /><path clip-path="url(#clip060)" d="M46.0847 593.624 Q46.0847 600.722 47.7079 603.459 Q49.3312 606.196 53.2461 606.196 Q56.3653 606.196 58.2114 604.159 Q60.0256 602.09 60.0256 598.557 Q60.0256 593.688 56.5881 590.759 Q53.1188 587.799 47.3897 587.799 L46.0847 587.799 L46.0847 593.624 M43.6657 581.943 L64.0042 581.943 L64.0042 587.799 L58.5933 587.799 Q61.8398 589.805 63.3994 592.797 Q64.9272 595.788 64.9272 600.117 Q64.9272 605.592 61.8716 608.838 Q58.7843 612.053 53.6281 612.053 Q47.6125 612.053 44.5569 608.042 Q41.5014 604 41.5014 596.011 L41.5014 587.799 L40.9285 587.799 Q36.8862 587.799 34.6901 590.473 Q32.4621 593.115 32.4621 597.921 Q32.4621 600.976 33.1941 603.873 Q33.9262 606.769 35.3903 609.443 L29.9795 609.443 Q28.7381 606.228 28.1334 603.204 Q27.4968 600.181 27.4968 597.316 Q27.4968 589.582 31.5072 585.762 Q35.5176 581.943 43.6657 581.943 Z" fill="#000000" fill-rule="nonzero" fill-opacity="1" /><path clip-path="url(#clip060)" d="M18.2347 564.087 L28.3562 564.087 L28.3562 552.024 L32.9077 552.024 L32.9077 564.087 L52.2594 564.087 Q56.6199 564.087 57.8613 562.91 Q59.1026 561.7 59.1026 558.04 L59.1026 552.024 L64.0042 552.024 L64.0042 558.04 Q64.0042 564.819 61.4897 567.397 Q58.9434 569.975 52.2594 569.975 L32.9077 569.975 L32.9077 574.272 L28.3562 574.272 L28.3562 569.975 L18.2347 569.975 L18.2347 564.087 Z" fill="#000000" fill-rule="nonzero" fill-opacity="1" /><path clip-path="url(#clip060)" d="M28.3562 544.322 L28.3562 538.465 L64.0042 538.465 L64.0042 544.322 L28.3562 544.322 M14.479 544.322 L14.479 538.465 L21.895 538.465 L21.895 544.322 L14.479 544.322 Z" fill="#000000" fill-rule="nonzero" fill-opacity="1" /><path clip-path="url(#clip060)" d="M32.4621 512.398 Q32.4621 517.108 36.1542 519.846 Q39.8145 522.583 46.212 522.583 Q52.6095 522.583 56.3017 519.877 Q59.9619 517.14 59.9619 512.398 Q59.9619 507.719 56.2698 504.982 Q52.5777 502.244 46.212 502.244 Q39.8781 502.244 36.186 504.982 Q32.4621 507.719 32.4621 512.398 M27.4968 512.398 Q27.4968 504.759 32.4621 500.398 Q37.4273 496.038 46.212 496.038 Q54.9649 496.038 59.9619 500.398 Q64.9272 504.759 64.9272 512.398 Q64.9272 520.068 59.9619 524.429 Q54.9649 528.757 46.212 528.757 Q37.4273 528.757 32.4621 524.429 Q27.4968 520.068 27.4968 512.398 Z" fill="#000000" fill-rule="nonzero" fill-opacity="1" /><path clip-path="url(#clip060)" d="M42.4881 456.698 L64.0042 456.698 L64.0042 462.554 L42.679 462.554 Q37.6183 462.554 35.1038 464.528 Q32.5894 466.501 32.5894 470.448 Q32.5894 475.19 35.6131 477.927 Q38.6368 480.665 43.8567 480.665 L64.0042 480.665 L64.0042 486.553 L28.3562 486.553 L28.3562 480.665 L33.8944 480.665 Q30.6797 478.564 29.0883 475.731 Q27.4968 472.867 27.4968 469.143 Q27.4968 463 31.3163 459.849 Q35.1038 456.698 42.4881 456.698 Z" fill="#000000" fill-rule="nonzero" fill-opacity="1" /><path clip-path="url(#clip060)" d="M33.0032 410.483 Q33.0032 415.321 36.5043 417.931 Q40.1646 420.668 46.212 420.668 Q52.6095 420.668 56.3017 417.962 Q59.9619 415.225 59.9619 410.483 Q59.9619 405.804 56.2698 403.067 Q52.5777 400.329 46.212 400.329 Q40.3874 400.329 36.5043 403.067 Q33.0032 405.581 33.0032 410.483 M28.3562 410.483 L28.3562 391.035 L34.2127 391.035 L34.2127 397.592 Q39.1779 394.123 46.212 394.123 Q54.9649 394.123 59.9301 398.483 Q64.9272 402.844 64.9272 410.483 Q64.9272 418.153 59.9301 422.482 Q54.9649 426.843 46.212 426.843 Q37.3955 426.843 32.4621 422.482 Q28.3562 418.885 28.3562 410.483 Z" fill="#000000" fill-rule="nonzero" fill-opacity="1" /><polyline clip-path="url(#clip062)" style="stroke:#009af9; stroke-linecap:round; stroke-linejoin:round; stroke-width:4; stroke-opacity:1; fill:none" points="347.012,1372.3 890.205,1014.29 1207.95,805.712 1433.4,658.341 1608.27,542.253 1751.14,449.692 1871.95,367.959 1976.59,298.733 2068.89,239.184 2151.46,188.609 2226.15,135.805 2294.34,85.838 "/>
</svg>
