<?xml version="1.0" encoding="utf-8"?>
<svg xmlns="http://www.w3.org/2000/svg" xmlns:xlink="http://www.w3.org/1999/xlink" width="600" height="400" viewBox="0 0 2400 1600">
<defs>
  <clipPath id="clip340">
    <rect x="0" y="0" width="2400" height="1600"/>
  </clipPath>
</defs>
<path clip-path="url(#clip340)" d="M0 1600 L2400 1600 L2400 0 L0 0  Z" fill="#ffffff" fill-rule="evenodd" fill-opacity="1"/>
<defs>
  <clipPath id="clip341">
    <rect x="480" y="0" width="1681" height="1600"/>
  </clipPath>
</defs>
<path clip-path="url(#clip340)" d="M169.121 686.448 L2352.76 686.448 L2352.76 47.2441 L169.121 47.2441  Z" fill="#ffffff" fill-rule="evenodd" fill-opacity="1"/>
<defs>
  <clipPath id="clip342">
    <rect x="169" y="47" width="2185" height="640"/>
  </clipPath>
</defs>
<polyline clip-path="url(#clip342)" style="stroke:#000000; stroke-linecap:round; stroke-linejoin:round; stroke-width:2; stroke-opacity:0.1; fill:none" points="532.153,686.448 532.153,47.2441 "/>
<polyline clip-path="url(#clip342)" style="stroke:#000000; stroke-linecap:round; stroke-linejoin:round; stroke-width:2; stroke-opacity:0.1; fill:none" points="896.546,686.448 896.546,47.2441 "/>
<polyline clip-path="url(#clip342)" style="stroke:#000000; stroke-linecap:round; stroke-linejoin:round; stroke-width:2; stroke-opacity:0.1; fill:none" points="1260.94,686.448 1260.94,47.2441 "/>
<polyline clip-path="url(#clip342)" style="stroke:#000000; stroke-linecap:round; stroke-linejoin:round; stroke-width:2; stroke-opacity:0.1; fill:none" points="1625.33,686.448 1625.33,47.2441 "/>
<polyline clip-path="url(#clip342)" style="stroke:#000000; stroke-linecap:round; stroke-linejoin:round; stroke-width:2; stroke-opacity:0.1; fill:none" points="1989.72,686.448 1989.72,47.2441 "/>
<polyline clip-path="url(#clip342)" style="stroke:#000000; stroke-linecap:round; stroke-linejoin:round; stroke-width:2; stroke-opacity:0.1; fill:none" points="169.121,686.448 2352.76,686.448 "/>
<polyline clip-path="url(#clip342)" style="stroke:#000000; stroke-linecap:round; stroke-linejoin:round; stroke-width:2; stroke-opacity:0.1; fill:none" points="169.121,500.633 2352.76,500.633 "/>
<polyline clip-path="url(#clip342)" style="stroke:#000000; stroke-linecap:round; stroke-linejoin:round; stroke-width:2; stroke-opacity:0.1; fill:none" points="169.121,314.818 2352.76,314.818 "/>
<polyline clip-path="url(#clip342)" style="stroke:#000000; stroke-linecap:round; stroke-linejoin:round; stroke-width:2; stroke-opacity:0.1; fill:none" points="169.121,129.003 2352.76,129.003 "/>
<polyline clip-path="url(#clip340)" style="stroke:#000000; stroke-linecap:round; stroke-linejoin:round; stroke-width:4; stroke-opacity:1; fill:none" points="169.121,686.448 2352.76,686.448 "/>
<polyline clip-path="url(#clip340)" style="stroke:#000000; stroke-linecap:round; stroke-linejoin:round; stroke-width:4; stroke-opacity:1; fill:none" points="532.153,686.448 532.153,667.55 "/>
<polyline clip-path="url(#clip340)" style="stroke:#000000; stroke-linecap:round; stroke-linejoin:round; stroke-width:4; stroke-opacity:1; fill:none" points="896.546,686.448 896.546,667.55 "/>
<polyline clip-path="url(#clip340)" style="stroke:#000000; stroke-linecap:round; stroke-linejoin:round; stroke-width:4; stroke-opacity:1; fill:none" points="1260.94,686.448 1260.94,667.55 "/>
<polyline clip-path="url(#clip340)" style="stroke:#000000; stroke-linecap:round; stroke-linejoin:round; stroke-width:4; stroke-opacity:1; fill:none" points="1625.33,686.448 1625.33,667.55 "/>
<polyline clip-path="url(#clip340)" style="stroke:#000000; stroke-linecap:round; stroke-linejoin:round; stroke-width:4; stroke-opacity:1; fill:none" points="1989.72,686.448 1989.72,667.55 "/>
<path clip-path="url(#clip340)" d="M454.862 744.913 L462.501 744.913 L462.501 718.547 L454.191 720.214 L454.191 715.955 L462.455 714.288 L467.131 714.288 L467.131 744.913 L474.77 744.913 L474.77 748.848 L454.862 748.848 L454.862 744.913 Z" fill="#000000" fill-rule="nonzero" fill-opacity="1" /><path clip-path="url(#clip340)" d="M484.214 742.968 L489.098 742.968 L489.098 748.848 L484.214 748.848 L484.214 742.968 Z" fill="#000000" fill-rule="nonzero" fill-opacity="1" /><path clip-path="url(#clip340)" d="M509.862 729.704 Q506.714 729.704 504.862 731.857 Q503.033 734.01 503.033 737.76 Q503.033 741.487 504.862 743.663 Q506.714 745.815 509.862 745.815 Q513.01 745.815 514.839 743.663 Q516.691 741.487 516.691 737.76 Q516.691 734.01 514.839 731.857 Q513.01 729.704 509.862 729.704 M519.144 715.052 L519.144 719.311 Q517.385 718.478 515.579 718.038 Q513.797 717.598 512.038 717.598 Q507.408 717.598 504.955 720.723 Q502.524 723.848 502.177 730.167 Q503.543 728.154 505.603 727.089 Q507.663 726.001 510.14 726.001 Q515.348 726.001 518.357 729.172 Q521.39 732.32 521.39 737.76 Q521.39 743.084 518.242 746.302 Q515.093 749.519 509.862 749.519 Q503.867 749.519 500.695 744.936 Q497.524 740.329 497.524 731.603 Q497.524 723.408 501.413 718.547 Q505.302 713.663 511.853 713.663 Q513.612 713.663 515.394 714.01 Q517.2 714.357 519.144 715.052 Z" fill="#000000" fill-rule="nonzero" fill-opacity="1" /><path clip-path="url(#clip340)" d="M529.584 748.13 L529.584 743.871 Q531.343 744.704 533.149 745.144 Q534.954 745.584 536.69 745.584 Q541.32 745.584 543.751 742.482 Q546.204 739.357 546.552 733.015 Q545.209 735.005 543.149 736.07 Q541.089 737.135 538.589 737.135 Q533.403 737.135 530.371 734.01 Q527.362 730.862 527.362 725.422 Q527.362 720.098 530.51 716.88 Q533.658 713.663 538.89 713.663 Q544.885 713.663 548.033 718.269 Q551.204 722.853 551.204 731.603 Q551.204 739.774 547.315 744.658 Q543.45 749.519 536.899 749.519 Q535.14 749.519 533.334 749.172 Q531.528 748.825 529.584 748.13 M538.89 733.478 Q542.038 733.478 543.866 731.325 Q545.718 729.172 545.718 725.422 Q545.718 721.695 543.866 719.542 Q542.038 717.367 538.89 717.367 Q535.741 717.367 533.89 719.542 Q532.061 721.695 532.061 725.422 Q532.061 729.172 533.89 731.325 Q535.741 733.478 538.89 733.478 Z" fill="#000000" fill-rule="nonzero" fill-opacity="1" /><path clip-path="url(#clip340)" d="M570.186 729.704 Q567.038 729.704 565.186 731.857 Q563.357 734.01 563.357 737.76 Q563.357 741.487 565.186 743.663 Q567.038 745.815 570.186 745.815 Q573.334 745.815 575.163 743.663 Q577.014 741.487 577.014 737.76 Q577.014 734.01 575.163 731.857 Q573.334 729.704 570.186 729.704 M579.468 715.052 L579.468 719.311 Q577.709 718.478 575.903 718.038 Q574.121 717.598 572.362 717.598 Q567.732 717.598 565.278 720.723 Q562.848 723.848 562.501 730.167 Q563.866 728.154 565.926 727.089 Q567.987 726.001 570.463 726.001 Q575.672 726.001 578.681 729.172 Q581.713 732.32 581.713 737.76 Q581.713 743.084 578.565 746.302 Q575.417 749.519 570.186 749.519 Q564.19 749.519 561.019 744.936 Q557.848 740.329 557.848 731.603 Q557.848 723.408 561.737 718.547 Q565.626 713.663 572.176 713.663 Q573.936 713.663 575.718 714.01 Q577.524 714.357 579.468 715.052 Z" fill="#000000" fill-rule="nonzero" fill-opacity="1" /><path clip-path="url(#clip340)" d="M593.797 744.913 L610.116 744.913 L610.116 748.848 L588.172 748.848 L588.172 744.913 Q590.834 742.158 595.417 737.528 Q600.023 732.876 601.204 731.533 Q603.449 729.01 604.329 727.274 Q605.232 725.515 605.232 723.825 Q605.232 721.07 603.287 719.334 Q601.366 717.598 598.264 717.598 Q596.065 717.598 593.611 718.362 Q591.181 719.126 588.403 720.677 L588.403 715.955 Q591.227 714.82 593.681 714.242 Q596.135 713.663 598.172 713.663 Q603.542 713.663 606.736 716.348 Q609.931 719.033 609.931 723.524 Q609.931 725.654 609.121 727.575 Q608.334 729.473 606.227 732.066 Q605.648 732.737 602.547 735.954 Q599.445 739.149 593.797 744.913 Z" fill="#000000" fill-rule="nonzero" fill-opacity="1" /><path clip-path="url(#clip340)" d="M818.954 744.913 L826.593 744.913 L826.593 718.547 L818.283 720.214 L818.283 715.955 L826.546 714.288 L831.222 714.288 L831.222 744.913 L838.861 744.913 L838.861 748.848 L818.954 748.848 L818.954 744.913 Z" fill="#000000" fill-rule="nonzero" fill-opacity="1" /><path clip-path="url(#clip340)" d="M848.306 742.968 L853.19 742.968 L853.19 748.848 L848.306 748.848 L848.306 742.968 Z" fill="#000000" fill-rule="nonzero" fill-opacity="1" /><path clip-path="url(#clip340)" d="M873.954 729.704 Q870.805 729.704 868.954 731.857 Q867.125 734.01 867.125 737.76 Q867.125 741.487 868.954 743.663 Q870.805 745.815 873.954 745.815 Q877.102 745.815 878.93 743.663 Q880.782 741.487 880.782 737.76 Q880.782 734.01 878.93 731.857 Q877.102 729.704 873.954 729.704 M883.236 715.052 L883.236 719.311 Q881.477 718.478 879.671 718.038 Q877.889 717.598 876.129 717.598 Q871.5 717.598 869.046 720.723 Q866.616 723.848 866.268 730.167 Q867.634 728.154 869.694 727.089 Q871.755 726.001 874.231 726.001 Q879.44 726.001 882.449 729.172 Q885.481 732.32 885.481 737.76 Q885.481 743.084 882.333 746.302 Q879.185 749.519 873.954 749.519 Q867.958 749.519 864.787 744.936 Q861.616 740.329 861.616 731.603 Q861.616 723.408 865.505 718.547 Q869.393 713.663 875.944 713.663 Q877.704 713.663 879.486 714.01 Q881.291 714.357 883.236 715.052 Z" fill="#000000" fill-rule="nonzero" fill-opacity="1" /><path clip-path="url(#clip340)" d="M893.676 748.13 L893.676 743.871 Q895.435 744.704 897.24 745.144 Q899.046 745.584 900.782 745.584 Q905.412 745.584 907.842 742.482 Q910.296 739.357 910.643 733.015 Q909.301 735.005 907.24 736.07 Q905.18 737.135 902.68 737.135 Q897.495 737.135 894.463 734.01 Q891.453 730.862 891.453 725.422 Q891.453 720.098 894.602 716.88 Q897.75 713.663 902.981 713.663 Q908.977 713.663 912.125 718.269 Q915.296 722.853 915.296 731.603 Q915.296 739.774 911.407 744.658 Q907.541 749.519 900.99 749.519 Q899.231 749.519 897.426 749.172 Q895.62 748.825 893.676 748.13 M902.981 733.478 Q906.129 733.478 907.958 731.325 Q909.81 729.172 909.81 725.422 Q909.81 721.695 907.958 719.542 Q906.129 717.367 902.981 717.367 Q899.833 717.367 897.981 719.542 Q896.153 721.695 896.153 725.422 Q896.153 729.172 897.981 731.325 Q899.833 733.478 902.981 733.478 Z" fill="#000000" fill-rule="nonzero" fill-opacity="1" /><path clip-path="url(#clip340)" d="M934.277 729.704 Q931.129 729.704 929.277 731.857 Q927.449 734.01 927.449 737.76 Q927.449 741.487 929.277 743.663 Q931.129 745.815 934.277 745.815 Q937.425 745.815 939.254 743.663 Q941.106 741.487 941.106 737.76 Q941.106 734.01 939.254 731.857 Q937.425 729.704 934.277 729.704 M943.56 715.052 L943.56 719.311 Q941.8 718.478 939.995 718.038 Q938.212 717.598 936.453 717.598 Q931.824 717.598 929.37 720.723 Q926.939 723.848 926.592 730.167 Q927.958 728.154 930.018 727.089 Q932.078 726.001 934.555 726.001 Q939.763 726.001 942.773 729.172 Q945.805 732.32 945.805 737.76 Q945.805 743.084 942.657 746.302 Q939.509 749.519 934.277 749.519 Q928.282 749.519 925.111 744.936 Q921.939 740.329 921.939 731.603 Q921.939 723.408 925.828 718.547 Q929.717 713.663 936.268 713.663 Q938.027 713.663 939.81 714.01 Q941.615 714.357 943.56 715.052 Z" fill="#000000" fill-rule="nonzero" fill-opacity="1" /><path clip-path="url(#clip340)" d="M953.907 714.288 L972.263 714.288 L972.263 718.223 L958.189 718.223 L958.189 726.695 Q959.208 726.348 960.226 726.186 Q961.245 726.001 962.263 726.001 Q968.05 726.001 971.43 729.172 Q974.81 732.343 974.81 737.76 Q974.81 743.339 971.337 746.44 Q967.865 749.519 961.546 749.519 Q959.37 749.519 957.101 749.149 Q954.856 748.778 952.449 748.038 L952.449 743.339 Q954.532 744.473 956.754 745.028 Q958.976 745.584 961.453 745.584 Q965.458 745.584 967.796 743.478 Q970.134 741.371 970.134 737.76 Q970.134 734.149 967.796 732.042 Q965.458 729.936 961.453 729.936 Q959.578 729.936 957.703 730.353 Q955.851 730.769 953.907 731.649 L953.907 714.288 Z" fill="#000000" fill-rule="nonzero" fill-opacity="1" /><path clip-path="url(#clip340)" d="M1182.9 744.913 L1190.53 744.913 L1190.53 718.547 L1182.22 720.214 L1182.22 715.955 L1190.49 714.288 L1195.16 714.288 L1195.16 744.913 L1202.8 744.913 L1202.8 748.848 L1182.9 748.848 L1182.9 744.913 Z" fill="#000000" fill-rule="nonzero" fill-opacity="1" /><path clip-path="url(#clip340)" d="M1212.25 742.968 L1217.13 742.968 L1217.13 748.848 L1212.25 748.848 L1212.25 742.968 Z" fill="#000000" fill-rule="nonzero" fill-opacity="1" /><path clip-path="url(#clip340)" d="M1237.89 729.704 Q1234.75 729.704 1232.89 731.857 Q1231.07 734.01 1231.07 737.76 Q1231.07 741.487 1232.89 743.663 Q1234.75 745.815 1237.89 745.815 Q1241.04 745.815 1242.87 743.663 Q1244.72 741.487 1244.72 737.76 Q1244.72 734.01 1242.87 731.857 Q1241.04 729.704 1237.89 729.704 M1247.18 715.052 L1247.18 719.311 Q1245.42 718.478 1243.61 718.038 Q1241.83 717.598 1240.07 717.598 Q1235.44 717.598 1232.99 720.723 Q1230.56 723.848 1230.21 730.167 Q1231.58 728.154 1233.64 727.089 Q1235.7 726.001 1238.17 726.001 Q1243.38 726.001 1246.39 729.172 Q1249.42 732.32 1249.42 737.76 Q1249.42 743.084 1246.27 746.302 Q1243.13 749.519 1237.89 749.519 Q1231.9 749.519 1228.73 744.936 Q1225.56 740.329 1225.56 731.603 Q1225.56 723.408 1229.45 718.547 Q1233.33 713.663 1239.89 713.663 Q1241.64 713.663 1243.43 714.01 Q1245.23 714.357 1247.18 715.052 Z" fill="#000000" fill-rule="nonzero" fill-opacity="1" /><path clip-path="url(#clip340)" d="M1257.62 748.13 L1257.62 743.871 Q1259.38 744.704 1261.18 745.144 Q1262.99 745.584 1264.72 745.584 Q1269.35 745.584 1271.78 742.482 Q1274.24 739.357 1274.58 733.015 Q1273.24 735.005 1271.18 736.07 Q1269.12 737.135 1266.62 737.135 Q1261.44 737.135 1258.4 734.01 Q1255.39 730.862 1255.39 725.422 Q1255.39 720.098 1258.54 716.88 Q1261.69 713.663 1266.92 713.663 Q1272.92 713.663 1276.07 718.269 Q1279.24 722.853 1279.24 731.603 Q1279.24 739.774 1275.35 744.658 Q1271.48 749.519 1264.93 749.519 Q1263.17 749.519 1261.37 749.172 Q1259.56 748.825 1257.62 748.13 M1266.92 733.478 Q1270.07 733.478 1271.9 731.325 Q1273.75 729.172 1273.75 725.422 Q1273.75 721.695 1271.9 719.542 Q1270.07 717.367 1266.92 717.367 Q1263.77 717.367 1261.92 719.542 Q1260.09 721.695 1260.09 725.422 Q1260.09 729.172 1261.92 731.325 Q1263.77 733.478 1266.92 733.478 Z" fill="#000000" fill-rule="nonzero" fill-opacity="1" /><path clip-path="url(#clip340)" d="M1298.22 729.704 Q1295.07 729.704 1293.22 731.857 Q1291.39 734.01 1291.39 737.76 Q1291.39 741.487 1293.22 743.663 Q1295.07 745.815 1298.22 745.815 Q1301.37 745.815 1303.2 743.663 Q1305.05 741.487 1305.05 737.76 Q1305.05 734.01 1303.2 731.857 Q1301.37 729.704 1298.22 729.704 M1307.5 715.052 L1307.5 719.311 Q1305.74 718.478 1303.94 718.038 Q1302.15 717.598 1300.39 717.598 Q1295.76 717.598 1293.31 720.723 Q1290.88 723.848 1290.53 730.167 Q1291.9 728.154 1293.96 727.089 Q1296.02 726.001 1298.5 726.001 Q1303.7 726.001 1306.71 729.172 Q1309.75 732.32 1309.75 737.76 Q1309.75 743.084 1306.6 746.302 Q1303.45 749.519 1298.22 749.519 Q1292.22 749.519 1289.05 744.936 Q1285.88 740.329 1285.88 731.603 Q1285.88 723.408 1289.77 718.547 Q1293.66 713.663 1300.21 713.663 Q1301.97 713.663 1303.75 714.01 Q1305.56 714.357 1307.5 715.052 Z" fill="#000000" fill-rule="nonzero" fill-opacity="1" /><path clip-path="url(#clip340)" d="M1327.8 732.436 Q1324.47 732.436 1322.55 734.218 Q1320.65 736.001 1320.65 739.126 Q1320.65 742.251 1322.55 744.033 Q1324.47 745.815 1327.8 745.815 Q1331.13 745.815 1333.06 744.033 Q1334.98 742.228 1334.98 739.126 Q1334.98 736.001 1333.06 734.218 Q1331.16 732.436 1327.8 732.436 M1323.13 730.445 Q1320.12 729.704 1318.43 727.644 Q1316.76 725.584 1316.76 722.621 Q1316.76 718.478 1319.7 716.07 Q1322.66 713.663 1327.8 713.663 Q1332.96 713.663 1335.9 716.07 Q1338.84 718.478 1338.84 722.621 Q1338.84 725.584 1337.15 727.644 Q1335.49 729.704 1332.5 730.445 Q1335.88 731.232 1337.76 733.524 Q1339.65 735.816 1339.65 739.126 Q1339.65 744.149 1336.57 746.834 Q1333.52 749.519 1327.8 749.519 Q1322.08 749.519 1319.01 746.834 Q1315.95 744.149 1315.95 739.126 Q1315.95 735.816 1317.85 733.524 Q1319.75 731.232 1323.13 730.445 M1321.41 723.061 Q1321.41 725.746 1323.08 727.251 Q1324.77 728.755 1327.8 728.755 Q1330.81 728.755 1332.5 727.251 Q1334.21 725.746 1334.21 723.061 Q1334.21 720.376 1332.5 718.871 Q1330.81 717.367 1327.8 717.367 Q1324.77 717.367 1323.08 718.871 Q1321.41 720.376 1321.41 723.061 Z" fill="#000000" fill-rule="nonzero" fill-opacity="1" /><path clip-path="url(#clip340)" d="M1547.85 744.913 L1555.49 744.913 L1555.49 718.547 L1547.18 720.214 L1547.18 715.955 L1555.45 714.288 L1560.12 714.288 L1560.12 744.913 L1567.76 744.913 L1567.76 748.848 L1547.85 748.848 L1547.85 744.913 Z" fill="#000000" fill-rule="nonzero" fill-opacity="1" /><path clip-path="url(#clip340)" d="M1577.21 742.968 L1582.09 742.968 L1582.09 748.848 L1577.21 748.848 L1577.21 742.968 Z" fill="#000000" fill-rule="nonzero" fill-opacity="1" /><path clip-path="url(#clip340)" d="M1602.85 729.704 Q1599.71 729.704 1597.85 731.857 Q1596.03 734.01 1596.03 737.76 Q1596.03 741.487 1597.85 743.663 Q1599.71 745.815 1602.85 745.815 Q1606 745.815 1607.83 743.663 Q1609.68 741.487 1609.68 737.76 Q1609.68 734.01 1607.83 731.857 Q1606 729.704 1602.85 729.704 M1612.14 715.052 L1612.14 719.311 Q1610.38 718.478 1608.57 718.038 Q1606.79 717.598 1605.03 717.598 Q1600.4 717.598 1597.95 720.723 Q1595.52 723.848 1595.17 730.167 Q1596.54 728.154 1598.6 727.089 Q1600.66 726.001 1603.13 726.001 Q1608.34 726.001 1611.35 729.172 Q1614.38 732.32 1614.38 737.76 Q1614.38 743.084 1611.23 746.302 Q1608.09 749.519 1602.85 749.519 Q1596.86 749.519 1593.69 744.936 Q1590.52 740.329 1590.52 731.603 Q1590.52 723.408 1594.41 718.547 Q1598.29 713.663 1604.85 713.663 Q1606.6 713.663 1608.39 714.01 Q1610.19 714.357 1612.14 715.052 Z" fill="#000000" fill-rule="nonzero" fill-opacity="1" /><path clip-path="url(#clip340)" d="M1622.58 748.13 L1622.58 743.871 Q1624.34 744.704 1626.14 745.144 Q1627.95 745.584 1629.68 745.584 Q1634.31 745.584 1636.74 742.482 Q1639.2 739.357 1639.54 733.015 Q1638.2 735.005 1636.14 736.07 Q1634.08 737.135 1631.58 737.135 Q1626.4 737.135 1623.36 734.01 Q1620.35 730.862 1620.35 725.422 Q1620.35 720.098 1623.5 716.88 Q1626.65 713.663 1631.88 713.663 Q1637.88 713.663 1641.03 718.269 Q1644.2 722.853 1644.2 731.603 Q1644.2 739.774 1640.31 744.658 Q1636.44 749.519 1629.89 749.519 Q1628.13 749.519 1626.33 749.172 Q1624.52 748.825 1622.58 748.13 M1631.88 733.478 Q1635.03 733.478 1636.86 731.325 Q1638.71 729.172 1638.71 725.422 Q1638.71 721.695 1636.86 719.542 Q1635.03 717.367 1631.88 717.367 Q1628.73 717.367 1626.88 719.542 Q1625.05 721.695 1625.05 725.422 Q1625.05 729.172 1626.88 731.325 Q1628.73 733.478 1631.88 733.478 Z" fill="#000000" fill-rule="nonzero" fill-opacity="1" /><path clip-path="url(#clip340)" d="M1651.42 714.288 L1673.64 714.288 L1673.64 716.279 L1661.09 748.848 L1656.21 748.848 L1668.02 718.223 L1651.42 718.223 L1651.42 714.288 Z" fill="#000000" fill-rule="nonzero" fill-opacity="1" /><path clip-path="url(#clip340)" d="M1683.57 744.913 L1691.21 744.913 L1691.21 718.547 L1682.9 720.214 L1682.9 715.955 L1691.16 714.288 L1695.84 714.288 L1695.84 744.913 L1703.48 744.913 L1703.48 748.848 L1683.57 748.848 L1683.57 744.913 Z" fill="#000000" fill-rule="nonzero" fill-opacity="1" /><path clip-path="url(#clip340)" d="M1911.39 744.913 L1919.03 744.913 L1919.03 718.547 L1910.72 720.214 L1910.72 715.955 L1918.98 714.288 L1923.66 714.288 L1923.66 744.913 L1931.3 744.913 L1931.3 748.848 L1911.39 748.848 L1911.39 744.913 Z" fill="#000000" fill-rule="nonzero" fill-opacity="1" /><path clip-path="url(#clip340)" d="M1940.74 742.968 L1945.63 742.968 L1945.63 748.848 L1940.74 748.848 L1940.74 742.968 Z" fill="#000000" fill-rule="nonzero" fill-opacity="1" /><path clip-path="url(#clip340)" d="M1966.39 729.704 Q1963.24 729.704 1961.39 731.857 Q1959.56 734.01 1959.56 737.76 Q1959.56 741.487 1961.39 743.663 Q1963.24 745.815 1966.39 745.815 Q1969.54 745.815 1971.37 743.663 Q1973.22 741.487 1973.22 737.76 Q1973.22 734.01 1971.37 731.857 Q1969.54 729.704 1966.39 729.704 M1975.67 715.052 L1975.67 719.311 Q1973.91 718.478 1972.11 718.038 Q1970.33 717.598 1968.57 717.598 Q1963.94 717.598 1961.48 720.723 Q1959.05 723.848 1958.71 730.167 Q1960.07 728.154 1962.13 727.089 Q1964.19 726.001 1966.67 726.001 Q1971.88 726.001 1974.89 729.172 Q1977.92 732.32 1977.92 737.76 Q1977.92 743.084 1974.77 746.302 Q1971.62 749.519 1966.39 749.519 Q1960.4 749.519 1957.22 744.936 Q1954.05 740.329 1954.05 731.603 Q1954.05 723.408 1957.94 718.547 Q1961.83 713.663 1968.38 713.663 Q1970.14 713.663 1971.92 714.01 Q1973.73 714.357 1975.67 715.052 Z" fill="#000000" fill-rule="nonzero" fill-opacity="1" /><path clip-path="url(#clip340)" d="M1986.11 748.13 L1986.11 743.871 Q1987.87 744.704 1989.68 745.144 Q1991.48 745.584 1993.22 745.584 Q1997.85 745.584 2000.28 742.482 Q2002.73 739.357 2003.08 733.015 Q2001.74 735.005 1999.68 736.07 Q1997.62 737.135 1995.12 737.135 Q1989.93 737.135 1986.9 734.01 Q1983.89 730.862 1983.89 725.422 Q1983.89 720.098 1987.04 716.88 Q1990.19 713.663 1995.42 713.663 Q2001.41 713.663 2004.56 718.269 Q2007.73 722.853 2007.73 731.603 Q2007.73 739.774 2003.84 744.658 Q1999.98 749.519 1993.43 749.519 Q1991.67 749.519 1989.86 749.172 Q1988.06 748.825 1986.11 748.13 M1995.42 733.478 Q1998.57 733.478 2000.39 731.325 Q2002.25 729.172 2002.25 725.422 Q2002.25 721.695 2000.39 719.542 Q1998.57 717.367 1995.42 717.367 Q1992.27 717.367 1990.42 719.542 Q1988.59 721.695 1988.59 725.422 Q1988.59 729.172 1990.42 731.325 Q1992.27 733.478 1995.42 733.478 Z" fill="#000000" fill-rule="nonzero" fill-opacity="1" /><path clip-path="url(#clip340)" d="M2014.96 714.288 L2037.18 714.288 L2037.18 716.279 L2024.63 748.848 L2019.75 748.848 L2031.55 718.223 L2014.96 718.223 L2014.96 714.288 Z" fill="#000000" fill-rule="nonzero" fill-opacity="1" /><path clip-path="url(#clip340)" d="M2059.14 718.362 L2047.34 736.811 L2059.14 736.811 L2059.14 718.362 M2057.92 714.288 L2063.8 714.288 L2063.8 736.811 L2068.73 736.811 L2068.73 740.7 L2063.8 740.7 L2063.8 748.848 L2059.14 748.848 L2059.14 740.7 L2043.54 740.7 L2043.54 736.186 L2057.92 714.288 Z" fill="#000000" fill-rule="nonzero" fill-opacity="1" /><polyline clip-path="url(#clip340)" style="stroke:#000000; stroke-linecap:round; stroke-linejoin:round; stroke-width:4; stroke-opacity:1; fill:none" points="169.121,686.448 169.121,47.2441 "/>
<polyline clip-path="url(#clip340)" style="stroke:#000000; stroke-linecap:round; stroke-linejoin:round; stroke-width:4; stroke-opacity:1; fill:none" points="169.121,686.448 188.019,686.448 "/>
<polyline clip-path="url(#clip340)" style="stroke:#000000; stroke-linecap:round; stroke-linejoin:round; stroke-width:4; stroke-opacity:1; fill:none" points="169.121,500.633 188.019,500.633 "/>
<polyline clip-path="url(#clip340)" style="stroke:#000000; stroke-linecap:round; stroke-linejoin:round; stroke-width:4; stroke-opacity:1; fill:none" points="169.121,314.818 188.019,314.818 "/>
<polyline clip-path="url(#clip340)" style="stroke:#000000; stroke-linecap:round; stroke-linejoin:round; stroke-width:4; stroke-opacity:1; fill:none" points="169.121,129.003 188.019,129.003 "/>
<path clip-path="url(#clip340)" d="M121.177 672.247 Q117.566 672.247 115.737 675.811 Q113.932 679.353 113.932 686.483 Q113.932 693.589 115.737 697.154 Q117.566 700.695 121.177 700.695 Q124.811 700.695 126.617 697.154 Q128.445 693.589 128.445 686.483 Q128.445 679.353 126.617 675.811 Q124.811 672.247 121.177 672.247 M121.177 668.543 Q126.987 668.543 130.043 673.149 Q133.121 677.733 133.121 686.483 Q133.121 695.209 130.043 699.816 Q126.987 704.399 121.177 704.399 Q115.367 704.399 112.288 699.816 Q109.233 695.209 109.233 686.483 Q109.233 677.733 112.288 673.149 Q115.367 668.543 121.177 668.543 Z" fill="#000000" fill-rule="nonzero" fill-opacity="1" /><path clip-path="url(#clip340)" d="M81.0614 483.353 L99.4178 483.353 L99.4178 487.288 L85.3438 487.288 L85.3438 495.76 Q86.3623 495.413 87.3808 495.251 Q88.3993 495.066 89.4178 495.066 Q95.2049 495.066 98.5845 498.237 Q101.964 501.408 101.964 506.825 Q101.964 512.404 98.4919 515.505 Q95.0197 518.584 88.7003 518.584 Q86.5243 518.584 84.2558 518.214 Q82.0105 517.843 79.6031 517.103 L79.6031 512.404 Q81.6864 513.538 83.9086 514.093 Q86.1308 514.649 88.6077 514.649 Q92.6123 514.649 94.9502 512.542 Q97.2882 510.436 97.2882 506.825 Q97.2882 503.214 94.9502 501.107 Q92.6123 499.001 88.6077 499.001 Q86.7327 499.001 84.8577 499.418 Q83.0058 499.834 81.0614 500.714 L81.0614 483.353 Z" fill="#000000" fill-rule="nonzero" fill-opacity="1" /><path clip-path="url(#clip340)" d="M121.177 486.432 Q117.566 486.432 115.737 489.996 Q113.932 493.538 113.932 500.668 Q113.932 507.774 115.737 511.339 Q117.566 514.88 121.177 514.88 Q124.811 514.88 126.617 511.339 Q128.445 507.774 128.445 500.668 Q128.445 493.538 126.617 489.996 Q124.811 486.432 121.177 486.432 M121.177 482.728 Q126.987 482.728 130.043 487.334 Q133.121 491.918 133.121 500.668 Q133.121 509.394 130.043 514.001 Q126.987 518.584 121.177 518.584 Q115.367 518.584 112.288 514.001 Q109.233 509.394 109.233 500.668 Q109.233 491.918 112.288 487.334 Q115.367 482.728 121.177 482.728 Z" fill="#000000" fill-rule="nonzero" fill-opacity="1" /><path clip-path="url(#clip340)" d="M51.6634 328.163 L59.3023 328.163 L59.3023 301.797 L50.9921 303.464 L50.9921 299.204 L59.256 297.538 L63.9319 297.538 L63.9319 328.163 L71.5707 328.163 L71.5707 332.098 L51.6634 332.098 L51.6634 328.163 Z" fill="#000000" fill-rule="nonzero" fill-opacity="1" /><path clip-path="url(#clip340)" d="M91.0151 300.616 Q87.404 300.616 85.5753 304.181 Q83.7697 307.723 83.7697 314.852 Q83.7697 321.959 85.5753 325.524 Q87.404 329.065 91.0151 329.065 Q94.6493 329.065 96.4548 325.524 Q98.2835 321.959 98.2835 314.852 Q98.2835 307.723 96.4548 304.181 Q94.6493 300.616 91.0151 300.616 M91.0151 296.913 Q96.8252 296.913 99.8808 301.519 Q102.959 306.103 102.959 314.852 Q102.959 323.579 99.8808 328.186 Q96.8252 332.769 91.0151 332.769 Q85.2049 332.769 82.1262 328.186 Q79.0707 323.579 79.0707 314.852 Q79.0707 306.103 82.1262 301.519 Q85.2049 296.913 91.0151 296.913 Z" fill="#000000" fill-rule="nonzero" fill-opacity="1" /><path clip-path="url(#clip340)" d="M121.177 300.616 Q117.566 300.616 115.737 304.181 Q113.932 307.723 113.932 314.852 Q113.932 321.959 115.737 325.524 Q117.566 329.065 121.177 329.065 Q124.811 329.065 126.617 325.524 Q128.445 321.959 128.445 314.852 Q128.445 307.723 126.617 304.181 Q124.811 300.616 121.177 300.616 M121.177 296.913 Q126.987 296.913 130.043 301.519 Q133.121 306.103 133.121 314.852 Q133.121 323.579 130.043 328.186 Q126.987 332.769 121.177 332.769 Q115.367 332.769 112.288 328.186 Q109.233 323.579 109.233 314.852 Q109.233 306.103 112.288 301.519 Q115.367 296.913 121.177 296.913 Z" fill="#000000" fill-rule="nonzero" fill-opacity="1" /><path clip-path="url(#clip340)" d="M51.6634 142.348 L59.3023 142.348 L59.3023 115.982 L50.9921 117.649 L50.9921 113.389 L59.256 111.723 L63.9319 111.723 L63.9319 142.348 L71.5707 142.348 L71.5707 146.283 L51.6634 146.283 L51.6634 142.348 Z" fill="#000000" fill-rule="nonzero" fill-opacity="1" /><path clip-path="url(#clip340)" d="M81.0614 111.723 L99.4178 111.723 L99.4178 115.658 L85.3438 115.658 L85.3438 124.13 Q86.3623 123.783 87.3808 123.621 Q88.3993 123.436 89.4178 123.436 Q95.2049 123.436 98.5845 126.607 Q101.964 129.778 101.964 135.195 Q101.964 140.773 98.4919 143.875 Q95.0197 146.954 88.7003 146.954 Q86.5243 146.954 84.2558 146.584 Q82.0105 146.213 79.6031 145.473 L79.6031 140.773 Q81.6864 141.908 83.9086 142.463 Q86.1308 143.019 88.6077 143.019 Q92.6123 143.019 94.9502 140.912 Q97.2882 138.806 97.2882 135.195 Q97.2882 131.584 94.9502 129.477 Q92.6123 127.371 88.6077 127.371 Q86.7327 127.371 84.8577 127.787 Q83.0058 128.204 81.0614 129.084 L81.0614 111.723 Z" fill="#000000" fill-rule="nonzero" fill-opacity="1" /><path clip-path="url(#clip340)" d="M121.177 114.801 Q117.566 114.801 115.737 118.366 Q113.932 121.908 113.932 129.037 Q113.932 136.144 115.737 139.709 Q117.566 143.25 121.177 143.25 Q124.811 143.25 126.617 139.709 Q128.445 136.144 128.445 129.037 Q128.445 121.908 126.617 118.366 Q124.811 114.801 121.177 114.801 M121.177 111.098 Q126.987 111.098 130.043 115.704 Q133.121 120.287 133.121 129.037 Q133.121 137.764 130.043 142.371 Q126.987 146.954 121.177 146.954 Q115.367 146.954 112.288 142.371 Q109.233 137.764 109.233 129.037 Q109.233 120.287 112.288 115.704 Q115.367 111.098 121.177 111.098 Z" fill="#000000" fill-rule="nonzero" fill-opacity="1" /><path clip-path="url(#clip342)" d="M289.225 682.732 L289.225 686.448 L410.689 686.448 L410.689 682.732 L289.225 682.732 L289.225 682.732  Z" fill="#009af9" fill-rule="evenodd" fill-opacity="1"/>
<polyline clip-path="url(#clip342)" style="stroke:#000000; stroke-linecap:round; stroke-linejoin:round; stroke-width:4; stroke-opacity:1; fill:none" points="289.225,682.732 289.225,686.448 410.689,686.448 410.689,682.732 289.225,682.732 "/>
<path clip-path="url(#clip342)" d="M410.689 664.15 L410.689 686.448 L532.153 686.448 L532.153 664.15 L410.689 664.15 L410.689 664.15  Z" fill="#009af9" fill-rule="evenodd" fill-opacity="1"/>
<polyline clip-path="url(#clip342)" style="stroke:#000000; stroke-linecap:round; stroke-linejoin:round; stroke-width:4; stroke-opacity:1; fill:none" points="410.689,664.15 410.689,686.448 532.153,686.448 532.153,664.15 410.689,664.15 "/>
<path clip-path="url(#clip342)" d="M532.153 623.271 L532.153 686.448 L653.618 686.448 L653.618 623.271 L532.153 623.271 L532.153 623.271  Z" fill="#009af9" fill-rule="evenodd" fill-opacity="1"/>
<polyline clip-path="url(#clip342)" style="stroke:#000000; stroke-linecap:round; stroke-linejoin:round; stroke-width:4; stroke-opacity:1; fill:none" points="532.153,623.271 532.153,686.448 653.618,686.448 653.618,623.271 532.153,623.271 "/>
<path clip-path="url(#clip342)" d="M653.618 541.512 L653.618 686.448 L775.082 686.448 L775.082 541.512 L653.618 541.512 L653.618 541.512  Z" fill="#009af9" fill-rule="evenodd" fill-opacity="1"/>
<polyline clip-path="url(#clip342)" style="stroke:#000000; stroke-linecap:round; stroke-linejoin:round; stroke-width:4; stroke-opacity:1; fill:none" points="653.618,541.512 653.618,686.448 775.082,686.448 775.082,541.512 653.618,541.512 "/>
<path clip-path="url(#clip342)" d="M775.082 374.279 L775.082 686.448 L896.546 686.448 L896.546 374.279 L775.082 374.279 L775.082 374.279  Z" fill="#009af9" fill-rule="evenodd" fill-opacity="1"/>
<polyline clip-path="url(#clip342)" style="stroke:#000000; stroke-linecap:round; stroke-linejoin:round; stroke-width:4; stroke-opacity:1; fill:none" points="775.082,374.279 775.082,686.448 896.546,686.448 896.546,374.279 775.082,374.279 "/>
<path clip-path="url(#clip342)" d="M896.546 266.506 L896.546 686.448 L1018.01 686.448 L1018.01 266.506 L896.546 266.506 L896.546 266.506  Z" fill="#009af9" fill-rule="evenodd" fill-opacity="1"/>
<polyline clip-path="url(#clip342)" style="stroke:#000000; stroke-linecap:round; stroke-linejoin:round; stroke-width:4; stroke-opacity:1; fill:none" points="896.546,266.506 896.546,686.448 1018.01,686.448 1018.01,266.506 896.546,266.506 "/>
<path clip-path="url(#clip342)" d="M1018.01 47.2441 L1018.01 686.448 L1139.47 686.448 L1139.47 47.2441 L1018.01 47.2441 L1018.01 47.2441  Z" fill="#009af9" fill-rule="evenodd" fill-opacity="1"/>
<polyline clip-path="url(#clip342)" style="stroke:#000000; stroke-linecap:round; stroke-linejoin:round; stroke-width:4; stroke-opacity:1; fill:none" points="1018.01,47.2441 1018.01,686.448 1139.47,686.448 1139.47,47.2441 1018.01,47.2441 "/>
<path clip-path="url(#clip342)" d="M1139.47 88.1234 L1139.47 686.448 L1260.94 686.448 L1260.94 88.1234 L1139.47 88.1234 L1139.47 88.1234  Z" fill="#009af9" fill-rule="evenodd" fill-opacity="1"/>
<polyline clip-path="url(#clip342)" style="stroke:#000000; stroke-linecap:round; stroke-linejoin:round; stroke-width:4; stroke-opacity:1; fill:none" points="1139.47,88.1234 1139.47,686.448 1260.94,686.448 1260.94,88.1234 1139.47,88.1234 "/>
<path clip-path="url(#clip342)" d="M1260.94 114.138 L1260.94 686.448 L1382.4 686.448 L1382.4 114.138 L1260.94 114.138 L1260.94 114.138  Z" fill="#009af9" fill-rule="evenodd" fill-opacity="1"/>
<polyline clip-path="url(#clip342)" style="stroke:#000000; stroke-linecap:round; stroke-linejoin:round; stroke-width:4; stroke-opacity:1; fill:none" points="1260.94,114.138 1260.94,686.448 1382.4,686.448 1382.4,114.138 1260.94,114.138 "/>
<path clip-path="url(#clip342)" d="M1382.4 225.627 L1382.4 686.448 L1503.87 686.448 L1503.87 225.627 L1382.4 225.627 L1382.4 225.627  Z" fill="#009af9" fill-rule="evenodd" fill-opacity="1"/>
<polyline clip-path="url(#clip342)" style="stroke:#000000; stroke-linecap:round; stroke-linejoin:round; stroke-width:4; stroke-opacity:1; fill:none" points="1382.4,225.627 1382.4,686.448 1503.87,686.448 1503.87,225.627 1382.4,225.627 "/>
<path clip-path="url(#clip342)" d="M1503.87 411.442 L1503.87 686.448 L1625.33 686.448 L1625.33 411.442 L1503.87 411.442 L1503.87 411.442  Z" fill="#009af9" fill-rule="evenodd" fill-opacity="1"/>
<polyline clip-path="url(#clip342)" style="stroke:#000000; stroke-linecap:round; stroke-linejoin:round; stroke-width:4; stroke-opacity:1; fill:none" points="1503.87,411.442 1503.87,686.448 1625.33,686.448 1625.33,411.442 1503.87,411.442 "/>
<path clip-path="url(#clip342)" d="M1625.33 571.243 L1625.33 686.448 L1746.8 686.448 L1746.8 571.243 L1625.33 571.243 L1625.33 571.243  Z" fill="#009af9" fill-rule="evenodd" fill-opacity="1"/>
<polyline clip-path="url(#clip342)" style="stroke:#000000; stroke-linecap:round; stroke-linejoin:round; stroke-width:4; stroke-opacity:1; fill:none" points="1625.33,571.243 1625.33,686.448 1746.8,686.448 1746.8,571.243 1625.33,571.243 "/>
<path clip-path="url(#clip342)" d="M1746.8 623.271 L1746.8 686.448 L1868.26 686.448 L1868.26 623.271 L1746.8 623.271 L1746.8 623.271  Z" fill="#009af9" fill-rule="evenodd" fill-opacity="1"/>
<polyline clip-path="url(#clip342)" style="stroke:#000000; stroke-linecap:round; stroke-linejoin:round; stroke-width:4; stroke-opacity:1; fill:none" points="1746.8,623.271 1746.8,686.448 1868.26,686.448 1868.26,623.271 1746.8,623.271 "/>
<path clip-path="url(#clip342)" d="M1868.26 667.866 L1868.26 686.448 L1989.72 686.448 L1989.72 667.866 L1868.26 667.866 L1868.26 667.866  Z" fill="#009af9" fill-rule="evenodd" fill-opacity="1"/>
<polyline clip-path="url(#clip342)" style="stroke:#000000; stroke-linecap:round; stroke-linejoin:round; stroke-width:4; stroke-opacity:1; fill:none" points="1868.26,667.866 1868.26,686.448 1989.72,686.448 1989.72,667.866 1868.26,667.866 "/>
<path clip-path="url(#clip342)" d="M1989.72 682.732 L1989.72 686.448 L2111.19 686.448 L2111.19 682.732 L1989.72 682.732 L1989.72 682.732  Z" fill="#009af9" fill-rule="evenodd" fill-opacity="1"/>
<polyline clip-path="url(#clip342)" style="stroke:#000000; stroke-linecap:round; stroke-linejoin:round; stroke-width:4; stroke-opacity:1; fill:none" points="1989.72,682.732 1989.72,686.448 2111.19,686.448 2111.19,682.732 1989.72,682.732 "/>
<path clip-path="url(#clip342)" d="M2111.19 682.732 L2111.19 686.448 L2232.65 686.448 L2232.65 682.732 L2111.19 682.732 L2111.19 682.732  Z" fill="#009af9" fill-rule="evenodd" fill-opacity="1"/>
<polyline clip-path="url(#clip342)" style="stroke:#000000; stroke-linecap:round; stroke-linejoin:round; stroke-width:4; stroke-opacity:1; fill:none" points="2111.19,682.732 2111.19,686.448 2232.65,686.448 2232.65,682.732 2111.19,682.732 "/>
<circle clip-path="url(#clip342)" style="fill:#009af9; stroke:none; fill-opacity:0" cx="349.957" cy="682.732" r="2"/>
<circle clip-path="url(#clip342)" style="fill:#009af9; stroke:none; fill-opacity:0" cx="471.421" cy="664.15" r="2"/>
<circle clip-path="url(#clip342)" style="fill:#009af9; stroke:none; fill-opacity:0" cx="592.886" cy="623.271" r="2"/>
<circle clip-path="url(#clip342)" style="fill:#009af9; stroke:none; fill-opacity:0" cx="714.35" cy="541.512" r="2"/>
<circle clip-path="url(#clip342)" style="fill:#009af9; stroke:none; fill-opacity:0" cx="835.814" cy="374.279" r="2"/>
<circle clip-path="url(#clip342)" style="fill:#009af9; stroke:none; fill-opacity:0" cx="957.278" cy="266.506" r="2"/>
<circle clip-path="url(#clip342)" style="fill:#009af9; stroke:none; fill-opacity:0" cx="1078.74" cy="47.2441" r="2"/>
<circle clip-path="url(#clip342)" style="fill:#009af9; stroke:none; fill-opacity:0" cx="1200.21" cy="88.1234" r="2"/>
<circle clip-path="url(#clip342)" style="fill:#009af9; stroke:none; fill-opacity:0" cx="1321.67" cy="114.138" r="2"/>
<circle clip-path="url(#clip342)" style="fill:#009af9; stroke:none; fill-opacity:0" cx="1443.13" cy="225.627" r="2"/>
<circle clip-path="url(#clip342)" style="fill:#009af9; stroke:none; fill-opacity:0" cx="1564.6" cy="411.442" r="2"/>
<circle clip-path="url(#clip342)" style="fill:#009af9; stroke:none; fill-opacity:0" cx="1686.06" cy="571.243" r="2"/>
<circle clip-path="url(#clip342)" style="fill:#009af9; stroke:none; fill-opacity:0" cx="1807.53" cy="623.271" r="2"/>
<circle clip-path="url(#clip342)" style="fill:#009af9; stroke:none; fill-opacity:0" cx="1928.99" cy="667.866" r="2"/>
<circle clip-path="url(#clip342)" style="fill:#009af9; stroke:none; fill-opacity:0" cx="2050.46" cy="682.732" r="2"/>
<circle clip-path="url(#clip342)" style="fill:#009af9; stroke:none; fill-opacity:0" cx="2171.92" cy="682.732" r="2"/>
<path clip-path="url(#clip340)" d="M2019.45 172.231 L2279.97 172.231 L2279.97 68.5509 L2019.45 68.5509  Z" fill="#ffffff" fill-rule="evenodd" fill-opacity="1"/>
<polyline clip-path="url(#clip340)" style="stroke:#000000; stroke-linecap:round; stroke-linejoin:round; stroke-width:4; stroke-opacity:1; fill:none" points="2019.45,172.231 2279.97,172.231 2279.97,68.5509 2019.45,68.5509 2019.45,172.231 "/>
<path clip-path="url(#clip340)" d="M2043.71 141.127 L2189.29 141.127 L2189.29 99.6549 L2043.71 99.6549 L2043.71 141.127  Z" fill="#009af9" fill-rule="evenodd" fill-opacity="1"/>
<polyline clip-path="url(#clip340)" style="stroke:#000000; stroke-linecap:round; stroke-linejoin:round; stroke-width:4; stroke-opacity:1; fill:none" points="2043.71,141.127 2189.29,141.127 2189.29,99.6549 2043.71,99.6549 2043.71,141.127 "/>
<path clip-path="url(#clip340)" d="M2235.27 122.023 L2235.27 137.671 L2231.01 137.671 L2231.01 122.162 Q2231.01 118.481 2229.57 116.652 Q2228.14 114.824 2225.27 114.824 Q2221.82 114.824 2219.83 117.023 Q2217.84 119.222 2217.84 123.018 L2217.84 137.671 L2213.55 137.671 L2213.55 111.745 L2217.84 111.745 L2217.84 115.773 Q2219.36 113.435 2221.42 112.278 Q2223.51 111.12 2226.21 111.12 Q2230.68 111.12 2232.97 113.898 Q2235.27 116.652 2235.27 122.023 Z" fill="#000000" fill-rule="nonzero" fill-opacity="1" /><path clip-path="url(#clip340)" d="M2242.9 135.125 L2247.63 135.125 L2247.63 120.981 L2242.46 121.93 L2242.46 119.245 L2247.79 118.342 L2250.96 118.342 L2250.96 135.125 L2255.71 135.125 L2255.71 137.671 L2242.9 137.671 L2242.9 135.125 Z" fill="#000000" fill-rule="nonzero" fill-opacity="1" /><path clip-path="url(#clip340)" d="M169.121 1486.45 L2352.76 1486.45 L2352.76 847.244 L169.121 847.244  Z" fill="#ffffff" fill-rule="evenodd" fill-opacity="1"/>
<defs>
  <clipPath id="clip343">
    <rect x="169" y="847" width="2185" height="640"/>
  </clipPath>
</defs>
<polyline clip-path="url(#clip343)" style="stroke:#000000; stroke-linecap:round; stroke-linejoin:round; stroke-width:2; stroke-opacity:0.1; fill:none" points="497.449,1486.45 497.449,847.244 "/>
<polyline clip-path="url(#clip343)" style="stroke:#000000; stroke-linecap:round; stroke-linejoin:round; stroke-width:2; stroke-opacity:0.1; fill:none" points="913.898,1486.45 913.898,847.244 "/>
<polyline clip-path="url(#clip343)" style="stroke:#000000; stroke-linecap:round; stroke-linejoin:round; stroke-width:2; stroke-opacity:0.1; fill:none" points="1330.35,1486.45 1330.35,847.244 "/>
<polyline clip-path="url(#clip343)" style="stroke:#000000; stroke-linecap:round; stroke-linejoin:round; stroke-width:2; stroke-opacity:0.1; fill:none" points="1746.8,1486.45 1746.8,847.244 "/>
<polyline clip-path="url(#clip343)" style="stroke:#000000; stroke-linecap:round; stroke-linejoin:round; stroke-width:2; stroke-opacity:0.1; fill:none" points="2163.24,1486.45 2163.24,847.244 "/>
<polyline clip-path="url(#clip343)" style="stroke:#000000; stroke-linecap:round; stroke-linejoin:round; stroke-width:2; stroke-opacity:0.1; fill:none" points="169.121,1486.45 2352.76,1486.45 "/>
<polyline clip-path="url(#clip343)" style="stroke:#000000; stroke-linecap:round; stroke-linejoin:round; stroke-width:2; stroke-opacity:0.1; fill:none" points="169.121,1339.84 2352.76,1339.84 "/>
<polyline clip-path="url(#clip343)" style="stroke:#000000; stroke-linecap:round; stroke-linejoin:round; stroke-width:2; stroke-opacity:0.1; fill:none" points="169.121,1193.24 2352.76,1193.24 "/>
<polyline clip-path="url(#clip343)" style="stroke:#000000; stroke-linecap:round; stroke-linejoin:round; stroke-width:2; stroke-opacity:0.1; fill:none" points="169.121,1046.63 2352.76,1046.63 "/>
<polyline clip-path="url(#clip343)" style="stroke:#000000; stroke-linecap:round; stroke-linejoin:round; stroke-width:2; stroke-opacity:0.1; fill:none" points="169.121,900.022 2352.76,900.022 "/>
<polyline clip-path="url(#clip340)" style="stroke:#000000; stroke-linecap:round; stroke-linejoin:round; stroke-width:4; stroke-opacity:1; fill:none" points="169.121,1486.45 2352.76,1486.45 "/>
<polyline clip-path="url(#clip340)" style="stroke:#000000; stroke-linecap:round; stroke-linejoin:round; stroke-width:4; stroke-opacity:1; fill:none" points="497.449,1486.45 497.449,1467.55 "/>
<polyline clip-path="url(#clip340)" style="stroke:#000000; stroke-linecap:round; stroke-linejoin:round; stroke-width:4; stroke-opacity:1; fill:none" points="913.898,1486.45 913.898,1467.55 "/>
<polyline clip-path="url(#clip340)" style="stroke:#000000; stroke-linecap:round; stroke-linejoin:round; stroke-width:4; stroke-opacity:1; fill:none" points="1330.35,1486.45 1330.35,1467.55 "/>
<polyline clip-path="url(#clip340)" style="stroke:#000000; stroke-linecap:round; stroke-linejoin:round; stroke-width:4; stroke-opacity:1; fill:none" points="1746.8,1486.45 1746.8,1467.55 "/>
<polyline clip-path="url(#clip340)" style="stroke:#000000; stroke-linecap:round; stroke-linejoin:round; stroke-width:4; stroke-opacity:1; fill:none" points="2163.24,1486.45 2163.24,1467.55 "/>
<path clip-path="url(#clip340)" d="M419.857 1544.91 L427.496 1544.91 L427.496 1518.55 L419.186 1520.21 L419.186 1515.95 L427.45 1514.29 L432.126 1514.29 L432.126 1544.91 L439.765 1544.91 L439.765 1548.85 L419.857 1548.85 L419.857 1544.91 Z" fill="#000000" fill-rule="nonzero" fill-opacity="1" /><path clip-path="url(#clip340)" d="M449.209 1542.97 L454.093 1542.97 L454.093 1548.85 L449.209 1548.85 L449.209 1542.97 Z" fill="#000000" fill-rule="nonzero" fill-opacity="1" /><path clip-path="url(#clip340)" d="M463.098 1514.29 L485.32 1514.29 L485.32 1516.28 L472.774 1548.85 L467.889 1548.85 L479.695 1518.22 L463.098 1518.22 L463.098 1514.29 Z" fill="#000000" fill-rule="nonzero" fill-opacity="1" /><path clip-path="url(#clip340)" d="M494.486 1514.29 L512.843 1514.29 L512.843 1518.22 L498.769 1518.22 L498.769 1526.7 Q499.787 1526.35 500.806 1526.19 Q501.824 1526 502.843 1526 Q508.63 1526 512.01 1529.17 Q515.389 1532.34 515.389 1537.76 Q515.389 1543.34 511.917 1546.44 Q508.445 1549.52 502.125 1549.52 Q499.949 1549.52 497.681 1549.15 Q495.436 1548.78 493.028 1548.04 L493.028 1543.34 Q495.111 1544.47 497.334 1545.03 Q499.556 1545.58 502.033 1545.58 Q506.037 1545.58 508.375 1543.48 Q510.713 1541.37 510.713 1537.76 Q510.713 1534.15 508.375 1532.04 Q506.037 1529.94 502.033 1529.94 Q500.158 1529.94 498.283 1530.35 Q496.431 1530.77 494.486 1531.65 L494.486 1514.29 Z" fill="#000000" fill-rule="nonzero" fill-opacity="1" /><path clip-path="url(#clip340)" d="M534.602 1517.37 Q530.991 1517.37 529.162 1520.93 Q527.357 1524.47 527.357 1531.6 Q527.357 1538.71 529.162 1542.27 Q530.991 1545.82 534.602 1545.82 Q538.236 1545.82 540.042 1542.27 Q541.87 1538.71 541.87 1531.6 Q541.87 1524.47 540.042 1520.93 Q538.236 1517.37 534.602 1517.37 M534.602 1513.66 Q540.412 1513.66 543.468 1518.27 Q546.546 1522.85 546.546 1531.6 Q546.546 1540.33 543.468 1544.94 Q540.412 1549.52 534.602 1549.52 Q528.792 1549.52 525.713 1544.94 Q522.658 1540.33 522.658 1531.6 Q522.658 1522.85 525.713 1518.27 Q528.792 1513.66 534.602 1513.66 Z" fill="#000000" fill-rule="nonzero" fill-opacity="1" /><path clip-path="url(#clip340)" d="M554.81 1514.29 L573.167 1514.29 L573.167 1518.22 L559.093 1518.22 L559.093 1526.7 Q560.111 1526.35 561.13 1526.19 Q562.148 1526 563.167 1526 Q568.954 1526 572.333 1529.17 Q575.713 1532.34 575.713 1537.76 Q575.713 1543.34 572.241 1546.44 Q568.768 1549.52 562.449 1549.52 Q560.273 1549.52 558.005 1549.15 Q555.759 1548.78 553.352 1548.04 L553.352 1543.34 Q555.435 1544.47 557.657 1545.03 Q559.88 1545.58 562.356 1545.58 Q566.361 1545.58 568.699 1543.48 Q571.037 1541.37 571.037 1537.76 Q571.037 1534.15 568.699 1532.04 Q566.361 1529.94 562.356 1529.94 Q560.481 1529.94 558.607 1530.35 Q556.755 1530.77 554.81 1531.65 L554.81 1514.29 Z" fill="#000000" fill-rule="nonzero" fill-opacity="1" /><path clip-path="url(#clip340)" d="M835.855 1544.91 L843.493 1544.91 L843.493 1518.55 L835.183 1520.21 L835.183 1515.95 L843.447 1514.29 L848.123 1514.29 L848.123 1544.91 L855.762 1544.91 L855.762 1548.85 L835.855 1548.85 L835.855 1544.91 Z" fill="#000000" fill-rule="nonzero" fill-opacity="1" /><path clip-path="url(#clip340)" d="M865.206 1542.97 L870.09 1542.97 L870.09 1548.85 L865.206 1548.85 L865.206 1542.97 Z" fill="#000000" fill-rule="nonzero" fill-opacity="1" /><path clip-path="url(#clip340)" d="M879.095 1514.29 L901.317 1514.29 L901.317 1516.28 L888.771 1548.85 L883.887 1548.85 L895.692 1518.22 L879.095 1518.22 L879.095 1514.29 Z" fill="#000000" fill-rule="nonzero" fill-opacity="1" /><path clip-path="url(#clip340)" d="M910.484 1514.29 L928.84 1514.29 L928.84 1518.22 L914.766 1518.22 L914.766 1526.7 Q915.785 1526.35 916.803 1526.19 Q917.822 1526 918.84 1526 Q924.627 1526 928.007 1529.17 Q931.386 1532.34 931.386 1537.76 Q931.386 1543.34 927.914 1546.44 Q924.442 1549.52 918.123 1549.52 Q915.947 1549.52 913.678 1549.15 Q911.433 1548.78 909.025 1548.04 L909.025 1543.34 Q911.109 1544.47 913.331 1545.03 Q915.553 1545.58 918.03 1545.58 Q922.035 1545.58 924.373 1543.48 Q926.711 1541.37 926.711 1537.76 Q926.711 1534.15 924.373 1532.04 Q922.035 1529.94 918.03 1529.94 Q916.155 1529.94 914.28 1530.35 Q912.428 1530.77 910.484 1531.65 L910.484 1514.29 Z" fill="#000000" fill-rule="nonzero" fill-opacity="1" /><path clip-path="url(#clip340)" d="M950.599 1517.37 Q946.988 1517.37 945.159 1520.93 Q943.354 1524.47 943.354 1531.6 Q943.354 1538.71 945.159 1542.27 Q946.988 1545.82 950.599 1545.82 Q954.234 1545.82 956.039 1542.27 Q957.868 1538.71 957.868 1531.6 Q957.868 1524.47 956.039 1520.93 Q954.234 1517.37 950.599 1517.37 M950.599 1513.66 Q956.409 1513.66 959.465 1518.27 Q962.544 1522.85 962.544 1531.6 Q962.544 1540.33 959.465 1544.94 Q956.409 1549.52 950.599 1549.52 Q944.789 1549.52 941.71 1544.94 Q938.655 1540.33 938.655 1531.6 Q938.655 1522.85 941.71 1518.27 Q944.789 1513.66 950.599 1513.66 Z" fill="#000000" fill-rule="nonzero" fill-opacity="1" /><path clip-path="url(#clip340)" d="M980.761 1532.44 Q977.428 1532.44 975.507 1534.22 Q973.608 1536 973.608 1539.13 Q973.608 1542.25 975.507 1544.03 Q977.428 1545.82 980.761 1545.82 Q984.094 1545.82 986.016 1544.03 Q987.937 1542.23 987.937 1539.13 Q987.937 1536 986.016 1534.22 Q984.118 1532.44 980.761 1532.44 M976.085 1530.45 Q973.076 1529.7 971.386 1527.64 Q969.72 1525.58 969.72 1522.62 Q969.72 1518.48 972.659 1516.07 Q975.622 1513.66 980.761 1513.66 Q985.923 1513.66 988.863 1516.07 Q991.803 1518.48 991.803 1522.62 Q991.803 1525.58 990.113 1527.64 Q988.446 1529.7 985.46 1530.45 Q988.84 1531.23 990.715 1533.52 Q992.613 1535.82 992.613 1539.13 Q992.613 1544.15 989.534 1546.83 Q986.479 1549.52 980.761 1549.52 Q975.044 1549.52 971.965 1546.83 Q968.909 1544.15 968.909 1539.13 Q968.909 1535.82 970.807 1533.52 Q972.706 1531.23 976.085 1530.45 M974.372 1523.06 Q974.372 1525.75 976.039 1527.25 Q977.729 1528.76 980.761 1528.76 Q983.77 1528.76 985.46 1527.25 Q987.173 1525.75 987.173 1523.06 Q987.173 1520.38 985.46 1518.87 Q983.77 1517.37 980.761 1517.37 Q977.729 1517.37 976.039 1518.87 Q974.372 1520.38 974.372 1523.06 Z" fill="#000000" fill-rule="nonzero" fill-opacity="1" /><path clip-path="url(#clip340)" d="M1252.87 1544.91 L1260.51 1544.91 L1260.51 1518.55 L1252.2 1520.21 L1252.2 1515.95 L1260.46 1514.29 L1265.14 1514.29 L1265.14 1544.91 L1272.78 1544.91 L1272.78 1548.85 L1252.87 1548.85 L1252.87 1544.91 Z" fill="#000000" fill-rule="nonzero" fill-opacity="1" /><path clip-path="url(#clip340)" d="M1282.22 1542.97 L1287.11 1542.97 L1287.11 1548.85 L1282.22 1548.85 L1282.22 1542.97 Z" fill="#000000" fill-rule="nonzero" fill-opacity="1" /><path clip-path="url(#clip340)" d="M1296.11 1514.29 L1318.33 1514.29 L1318.33 1516.28 L1305.79 1548.85 L1300.9 1548.85 L1312.71 1518.22 L1296.11 1518.22 L1296.11 1514.29 Z" fill="#000000" fill-rule="nonzero" fill-opacity="1" /><path clip-path="url(#clip340)" d="M1327.5 1514.29 L1345.86 1514.29 L1345.86 1518.22 L1331.78 1518.22 L1331.78 1526.7 Q1332.8 1526.35 1333.82 1526.19 Q1334.84 1526 1335.86 1526 Q1341.64 1526 1345.02 1529.17 Q1348.4 1532.34 1348.4 1537.76 Q1348.4 1543.34 1344.93 1546.44 Q1341.46 1549.52 1335.14 1549.52 Q1332.96 1549.52 1330.69 1549.15 Q1328.45 1548.78 1326.04 1548.04 L1326.04 1543.34 Q1328.12 1544.47 1330.35 1545.03 Q1332.57 1545.58 1335.05 1545.58 Q1339.05 1545.58 1341.39 1543.48 Q1343.73 1541.37 1343.73 1537.76 Q1343.73 1534.15 1341.39 1532.04 Q1339.05 1529.94 1335.05 1529.94 Q1333.17 1529.94 1331.3 1530.35 Q1329.44 1530.77 1327.5 1531.65 L1327.5 1514.29 Z" fill="#000000" fill-rule="nonzero" fill-opacity="1" /><path clip-path="url(#clip340)" d="M1358.43 1544.91 L1366.06 1544.91 L1366.06 1518.55 L1357.75 1520.21 L1357.75 1515.95 L1366.02 1514.29 L1370.69 1514.29 L1370.69 1544.91 L1378.33 1544.91 L1378.33 1548.85 L1358.43 1548.85 L1358.43 1544.91 Z" fill="#000000" fill-rule="nonzero" fill-opacity="1" /><path clip-path="url(#clip340)" d="M1388.59 1544.91 L1396.23 1544.91 L1396.23 1518.55 L1387.92 1520.21 L1387.92 1515.95 L1396.18 1514.29 L1400.86 1514.29 L1400.86 1544.91 L1408.49 1544.91 L1408.49 1548.85 L1388.59 1548.85 L1388.59 1544.91 Z" fill="#000000" fill-rule="nonzero" fill-opacity="1" /><path clip-path="url(#clip340)" d="M1668.46 1544.91 L1676.1 1544.91 L1676.1 1518.55 L1667.79 1520.21 L1667.79 1515.95 L1676.06 1514.29 L1680.73 1514.29 L1680.73 1544.91 L1688.37 1544.91 L1688.37 1548.85 L1668.46 1548.85 L1668.46 1544.91 Z" fill="#000000" fill-rule="nonzero" fill-opacity="1" /><path clip-path="url(#clip340)" d="M1697.81 1542.97 L1702.7 1542.97 L1702.7 1548.85 L1697.81 1548.85 L1697.81 1542.97 Z" fill="#000000" fill-rule="nonzero" fill-opacity="1" /><path clip-path="url(#clip340)" d="M1711.7 1514.29 L1733.93 1514.29 L1733.93 1516.28 L1721.38 1548.85 L1716.49 1548.85 L1728.3 1518.22 L1711.7 1518.22 L1711.7 1514.29 Z" fill="#000000" fill-rule="nonzero" fill-opacity="1" /><path clip-path="url(#clip340)" d="M1743.09 1514.29 L1761.45 1514.29 L1761.45 1518.22 L1747.37 1518.22 L1747.37 1526.7 Q1748.39 1526.35 1749.41 1526.19 Q1750.43 1526 1751.45 1526 Q1757.24 1526 1760.61 1529.17 Q1763.99 1532.34 1763.99 1537.76 Q1763.99 1543.34 1760.52 1546.44 Q1757.05 1549.52 1750.73 1549.52 Q1748.55 1549.52 1746.29 1549.15 Q1744.04 1548.78 1741.63 1548.04 L1741.63 1543.34 Q1743.72 1544.47 1745.94 1545.03 Q1748.16 1545.58 1750.64 1545.58 Q1754.64 1545.58 1756.98 1543.48 Q1759.32 1541.37 1759.32 1537.76 Q1759.32 1534.15 1756.98 1532.04 Q1754.64 1529.94 1750.64 1529.94 Q1748.76 1529.94 1746.89 1530.35 Q1745.04 1530.77 1743.09 1531.65 L1743.09 1514.29 Z" fill="#000000" fill-rule="nonzero" fill-opacity="1" /><path clip-path="url(#clip340)" d="M1774.02 1544.91 L1781.66 1544.91 L1781.66 1518.55 L1773.35 1520.21 L1773.35 1515.95 L1781.61 1514.29 L1786.29 1514.29 L1786.29 1544.91 L1793.92 1544.91 L1793.92 1548.85 L1774.02 1548.85 L1774.02 1544.91 Z" fill="#000000" fill-rule="nonzero" fill-opacity="1" /><path clip-path="url(#clip340)" d="M1816.22 1518.36 L1804.41 1536.81 L1816.22 1536.81 L1816.22 1518.36 M1814.99 1514.29 L1820.87 1514.29 L1820.87 1536.81 L1825.8 1536.81 L1825.8 1540.7 L1820.87 1540.7 L1820.87 1548.85 L1816.22 1548.85 L1816.22 1540.7 L1800.61 1540.7 L1800.61 1536.19 L1814.99 1514.29 Z" fill="#000000" fill-rule="nonzero" fill-opacity="1" /><path clip-path="url(#clip340)" d="M2085.61 1544.91 L2093.24 1544.91 L2093.24 1518.55 L2084.93 1520.21 L2084.93 1515.95 L2093.2 1514.29 L2097.87 1514.29 L2097.87 1544.91 L2105.51 1544.91 L2105.51 1548.85 L2085.61 1548.85 L2085.61 1544.91 Z" fill="#000000" fill-rule="nonzero" fill-opacity="1" /><path clip-path="url(#clip340)" d="M2114.96 1542.97 L2119.84 1542.97 L2119.84 1548.85 L2114.96 1548.85 L2114.96 1542.97 Z" fill="#000000" fill-rule="nonzero" fill-opacity="1" /><path clip-path="url(#clip340)" d="M2128.85 1514.29 L2151.07 1514.29 L2151.07 1516.28 L2138.52 1548.85 L2133.64 1548.85 L2145.44 1518.22 L2128.85 1518.22 L2128.85 1514.29 Z" fill="#000000" fill-rule="nonzero" fill-opacity="1" /><path clip-path="url(#clip340)" d="M2160.23 1514.29 L2178.59 1514.29 L2178.59 1518.22 L2164.52 1518.22 L2164.52 1526.7 Q2165.54 1526.35 2166.55 1526.19 Q2167.57 1526 2168.59 1526 Q2174.38 1526 2177.76 1529.17 Q2181.14 1532.34 2181.14 1537.76 Q2181.14 1543.34 2177.67 1546.44 Q2174.19 1549.52 2167.87 1549.52 Q2165.7 1549.52 2163.43 1549.15 Q2161.18 1548.78 2158.78 1548.04 L2158.78 1543.34 Q2160.86 1544.47 2163.08 1545.03 Q2165.3 1545.58 2167.78 1545.58 Q2171.79 1545.58 2174.12 1543.48 Q2176.46 1541.37 2176.46 1537.76 Q2176.46 1534.15 2174.12 1532.04 Q2171.79 1529.94 2167.78 1529.94 Q2165.91 1529.94 2164.03 1530.35 Q2162.18 1530.77 2160.23 1531.65 L2160.23 1514.29 Z" fill="#000000" fill-rule="nonzero" fill-opacity="1" /><path clip-path="url(#clip340)" d="M2191.16 1544.91 L2198.8 1544.91 L2198.8 1518.55 L2190.49 1520.21 L2190.49 1515.95 L2198.75 1514.29 L2203.43 1514.29 L2203.43 1544.91 L2211.07 1544.91 L2211.07 1548.85 L2191.16 1548.85 L2191.16 1544.91 Z" fill="#000000" fill-rule="nonzero" fill-opacity="1" /><path clip-path="url(#clip340)" d="M2219.33 1514.29 L2241.55 1514.29 L2241.55 1516.28 L2229.01 1548.85 L2224.12 1548.85 L2235.93 1518.22 L2219.33 1518.22 L2219.33 1514.29 Z" fill="#000000" fill-rule="nonzero" fill-opacity="1" /><polyline clip-path="url(#clip340)" style="stroke:#000000; stroke-linecap:round; stroke-linejoin:round; stroke-width:4; stroke-opacity:1; fill:none" points="169.121,1486.45 169.121,847.244 "/>
<polyline clip-path="url(#clip340)" style="stroke:#000000; stroke-linecap:round; stroke-linejoin:round; stroke-width:4; stroke-opacity:1; fill:none" points="169.121,1486.45 188.019,1486.45 "/>
<polyline clip-path="url(#clip340)" style="stroke:#000000; stroke-linecap:round; stroke-linejoin:round; stroke-width:4; stroke-opacity:1; fill:none" points="169.121,1339.84 188.019,1339.84 "/>
<polyline clip-path="url(#clip340)" style="stroke:#000000; stroke-linecap:round; stroke-linejoin:round; stroke-width:4; stroke-opacity:1; fill:none" points="169.121,1193.24 188.019,1193.24 "/>
<polyline clip-path="url(#clip340)" style="stroke:#000000; stroke-linecap:round; stroke-linejoin:round; stroke-width:4; stroke-opacity:1; fill:none" points="169.121,1046.63 188.019,1046.63 "/>
<polyline clip-path="url(#clip340)" style="stroke:#000000; stroke-linecap:round; stroke-linejoin:round; stroke-width:4; stroke-opacity:1; fill:none" points="169.121,900.022 188.019,900.022 "/>
<path clip-path="url(#clip340)" d="M121.177 1472.25 Q117.566 1472.25 115.737 1475.81 Q113.932 1479.35 113.932 1486.48 Q113.932 1493.59 115.737 1497.15 Q117.566 1500.7 121.177 1500.7 Q124.811 1500.7 126.617 1497.15 Q128.445 1493.59 128.445 1486.48 Q128.445 1479.35 126.617 1475.81 Q124.811 1472.25 121.177 1472.25 M121.177 1468.54 Q126.987 1468.54 130.043 1473.15 Q133.121 1477.73 133.121 1486.48 Q133.121 1495.21 130.043 1499.82 Q126.987 1504.4 121.177 1504.4 Q115.367 1504.4 112.288 1499.82 Q109.233 1495.21 109.233 1486.48 Q109.233 1477.73 112.288 1473.15 Q115.367 1468.54 121.177 1468.54 Z" fill="#000000" fill-rule="nonzero" fill-opacity="1" /><path clip-path="url(#clip340)" d="M86.0382 1353.19 L102.358 1353.19 L102.358 1357.12 L80.4133 1357.12 L80.4133 1353.19 Q83.0753 1350.43 87.6586 1345.8 Q92.2651 1341.15 93.4456 1339.81 Q95.691 1337.28 96.5706 1335.55 Q97.4734 1333.79 97.4734 1332.1 Q97.4734 1329.34 95.5289 1327.61 Q93.6076 1325.87 90.5058 1325.87 Q88.3067 1325.87 85.8531 1326.64 Q83.4225 1327.4 80.6447 1328.95 L80.6447 1324.23 Q83.4688 1323.09 85.9225 1322.52 Q88.3762 1321.94 90.4132 1321.94 Q95.7836 1321.94 98.978 1324.62 Q102.172 1327.31 102.172 1331.8 Q102.172 1333.93 101.362 1335.85 Q100.575 1337.75 98.4687 1340.34 Q97.89 1341.01 94.7882 1344.23 Q91.6864 1347.42 86.0382 1353.19 Z" fill="#000000" fill-rule="nonzero" fill-opacity="1" /><path clip-path="url(#clip340)" d="M112.219 1322.56 L130.575 1322.56 L130.575 1326.5 L116.501 1326.5 L116.501 1334.97 Q117.52 1334.62 118.538 1334.46 Q119.557 1334.27 120.575 1334.27 Q126.362 1334.27 129.742 1337.45 Q133.121 1340.62 133.121 1346.03 Q133.121 1351.61 129.649 1354.71 Q126.177 1357.79 119.857 1357.79 Q117.682 1357.79 115.413 1357.42 Q113.168 1357.05 110.76 1356.31 L110.76 1351.61 Q112.844 1352.75 115.066 1353.3 Q117.288 1353.86 119.765 1353.86 Q123.77 1353.86 126.107 1351.75 Q128.445 1349.64 128.445 1346.03 Q128.445 1342.42 126.107 1340.32 Q123.77 1338.21 119.765 1338.21 Q117.89 1338.21 116.015 1338.63 Q114.163 1339.04 112.219 1339.92 L112.219 1322.56 Z" fill="#000000" fill-rule="nonzero" fill-opacity="1" /><path clip-path="url(#clip340)" d="M81.0614 1175.96 L99.4178 1175.96 L99.4178 1179.89 L85.3438 1179.89 L85.3438 1188.36 Q86.3623 1188.02 87.3808 1187.85 Q88.3993 1187.67 89.4178 1187.67 Q95.2049 1187.67 98.5845 1190.84 Q101.964 1194.01 101.964 1199.43 Q101.964 1205.01 98.4919 1208.11 Q95.0197 1211.19 88.7003 1211.19 Q86.5243 1211.19 84.2558 1210.82 Q82.0105 1210.45 79.6031 1209.7 L79.6031 1205.01 Q81.6864 1206.14 83.9086 1206.7 Q86.1308 1207.25 88.6077 1207.25 Q92.6123 1207.25 94.9502 1205.14 Q97.2882 1203.04 97.2882 1199.43 Q97.2882 1195.82 94.9502 1193.71 Q92.6123 1191.6 88.6077 1191.6 Q86.7327 1191.6 84.8577 1192.02 Q83.0058 1192.44 81.0614 1193.32 L81.0614 1175.96 Z" fill="#000000" fill-rule="nonzero" fill-opacity="1" /><path clip-path="url(#clip340)" d="M121.177 1179.03 Q117.566 1179.03 115.737 1182.6 Q113.932 1186.14 113.932 1193.27 Q113.932 1200.38 115.737 1203.94 Q117.566 1207.48 121.177 1207.48 Q124.811 1207.48 126.617 1203.94 Q128.445 1200.38 128.445 1193.27 Q128.445 1186.14 126.617 1182.6 Q124.811 1179.03 121.177 1179.03 M121.177 1175.33 Q126.987 1175.33 130.043 1179.94 Q133.121 1184.52 133.121 1193.27 Q133.121 1202 130.043 1206.6 Q126.987 1211.19 121.177 1211.19 Q115.367 1211.19 112.288 1206.6 Q109.233 1202 109.233 1193.27 Q109.233 1184.52 112.288 1179.94 Q115.367 1175.33 121.177 1175.33 Z" fill="#000000" fill-rule="nonzero" fill-opacity="1" /><path clip-path="url(#clip340)" d="M80.8299 1029.35 L103.052 1029.35 L103.052 1031.34 L90.5058 1063.91 L85.6216 1063.91 L97.4271 1033.28 L80.8299 1033.28 L80.8299 1029.35 Z" fill="#000000" fill-rule="nonzero" fill-opacity="1" /><path clip-path="url(#clip340)" d="M112.219 1029.35 L130.575 1029.35 L130.575 1033.28 L116.501 1033.28 L116.501 1041.76 Q117.52 1041.41 118.538 1041.25 Q119.557 1041.06 120.575 1041.06 Q126.362 1041.06 129.742 1044.23 Q133.121 1047.4 133.121 1052.82 Q133.121 1058.4 129.649 1061.5 Q126.177 1064.58 119.857 1064.58 Q117.682 1064.58 115.413 1064.21 Q113.168 1063.84 110.76 1063.1 L110.76 1058.4 Q112.844 1059.53 115.066 1060.09 Q117.288 1060.64 119.765 1060.64 Q123.77 1060.64 126.107 1058.54 Q128.445 1056.43 128.445 1052.82 Q128.445 1049.21 126.107 1047.1 Q123.77 1045 119.765 1045 Q117.89 1045 116.015 1045.41 Q114.163 1045.83 112.219 1046.71 L112.219 1029.35 Z" fill="#000000" fill-rule="nonzero" fill-opacity="1" /><path clip-path="url(#clip340)" d="M51.6634 913.367 L59.3023 913.367 L59.3023 887.002 L50.9921 888.668 L50.9921 884.409 L59.256 882.742 L63.9319 882.742 L63.9319 913.367 L71.5707 913.367 L71.5707 917.302 L51.6634 917.302 L51.6634 913.367 Z" fill="#000000" fill-rule="nonzero" fill-opacity="1" /><path clip-path="url(#clip340)" d="M91.0151 885.821 Q87.404 885.821 85.5753 889.386 Q83.7697 892.928 83.7697 900.057 Q83.7697 907.164 85.5753 910.728 Q87.404 914.27 91.0151 914.27 Q94.6493 914.27 96.4548 910.728 Q98.2835 907.164 98.2835 900.057 Q98.2835 892.928 96.4548 889.386 Q94.6493 885.821 91.0151 885.821 M91.0151 882.117 Q96.8252 882.117 99.8808 886.724 Q102.959 891.307 102.959 900.057 Q102.959 908.784 99.8808 913.39 Q96.8252 917.974 91.0151 917.974 Q85.2049 917.974 82.1262 913.39 Q79.0707 908.784 79.0707 900.057 Q79.0707 891.307 82.1262 886.724 Q85.2049 882.117 91.0151 882.117 Z" fill="#000000" fill-rule="nonzero" fill-opacity="1" /><path clip-path="url(#clip340)" d="M121.177 885.821 Q117.566 885.821 115.737 889.386 Q113.932 892.928 113.932 900.057 Q113.932 907.164 115.737 910.728 Q117.566 914.27 121.177 914.27 Q124.811 914.27 126.617 910.728 Q128.445 907.164 128.445 900.057 Q128.445 892.928 126.617 889.386 Q124.811 885.821 121.177 885.821 M121.177 882.117 Q126.987 882.117 130.043 886.724 Q133.121 891.307 133.121 900.057 Q133.121 908.784 130.043 913.39 Q126.987 917.974 121.177 917.974 Q115.367 917.974 112.288 913.39 Q109.233 908.784 109.233 900.057 Q109.233 891.307 112.288 886.724 Q115.367 882.117 121.177 882.117 Z" fill="#000000" fill-rule="nonzero" fill-opacity="1" /><path clip-path="url(#clip343)" d="M289.225 1480.58 L289.225 1486.45 L358.633 1486.45 L358.633 1480.58 L289.225 1480.58 L289.225 1480.58  Z" fill="#009af9" fill-rule="evenodd" fill-opacity="1"/>
<polyline clip-path="url(#clip343)" style="stroke:#000000; stroke-linecap:round; stroke-linejoin:round; stroke-width:4; stroke-opacity:1; fill:none" points="289.225,1480.58 289.225,1486.45 358.633,1486.45 358.633,1480.58 289.225,1480.58 "/>
<path clip-path="url(#clip343)" d="M358.633 1486.45 L358.633 1486.45 L428.041 1486.45 L428.041 1486.45 L358.633 1486.45 L358.633 1486.45  Z" fill="#009af9" fill-rule="evenodd" fill-opacity="1"/>
<polyline clip-path="url(#clip343)" style="stroke:#000000; stroke-linecap:round; stroke-linejoin:round; stroke-width:4; stroke-opacity:1; fill:none" points="358.633,1486.45 358.633,1486.45 428.041,1486.45 358.633,1486.45 "/>
<path clip-path="url(#clip343)" d="M428.041 1480.58 L428.041 1486.45 L497.449 1486.45 L497.449 1480.58 L428.041 1480.58 L428.041 1480.58  Z" fill="#009af9" fill-rule="evenodd" fill-opacity="1"/>
<polyline clip-path="url(#clip343)" style="stroke:#000000; stroke-linecap:round; stroke-linejoin:round; stroke-width:4; stroke-opacity:1; fill:none" points="428.041,1480.58 428.041,1486.45 497.449,1486.45 497.449,1480.58 428.041,1480.58 "/>
<path clip-path="url(#clip343)" d="M497.449 1480.58 L497.449 1486.45 L566.858 1486.45 L566.858 1480.58 L497.449 1480.58 L497.449 1480.58  Z" fill="#009af9" fill-rule="evenodd" fill-opacity="1"/>
<polyline clip-path="url(#clip343)" style="stroke:#000000; stroke-linecap:round; stroke-linejoin:round; stroke-width:4; stroke-opacity:1; fill:none" points="497.449,1480.58 497.449,1486.45 566.858,1486.45 566.858,1480.58 497.449,1480.58 "/>
<path clip-path="url(#clip343)" d="M566.858 1480.58 L566.858 1486.45 L636.266 1486.45 L636.266 1480.58 L566.858 1480.58 L566.858 1480.58  Z" fill="#009af9" fill-rule="evenodd" fill-opacity="1"/>
<polyline clip-path="url(#clip343)" style="stroke:#000000; stroke-linecap:round; stroke-linejoin:round; stroke-width:4; stroke-opacity:1; fill:none" points="566.858,1480.58 566.858,1486.45 636.266,1486.45 636.266,1480.58 566.858,1480.58 "/>
<path clip-path="url(#clip343)" d="M636.266 1457.13 L636.266 1486.45 L705.674 1486.45 L705.674 1457.13 L636.266 1457.13 L636.266 1457.13  Z" fill="#009af9" fill-rule="evenodd" fill-opacity="1"/>
<polyline clip-path="url(#clip343)" style="stroke:#000000; stroke-linecap:round; stroke-linejoin:round; stroke-width:4; stroke-opacity:1; fill:none" points="636.266,1457.13 636.266,1486.45 705.674,1486.45 705.674,1457.13 636.266,1457.13 "/>
<path clip-path="url(#clip343)" d="M705.674 1451.26 L705.674 1486.45 L775.082 1486.45 L775.082 1451.26 L705.674 1451.26 L705.674 1451.26  Z" fill="#009af9" fill-rule="evenodd" fill-opacity="1"/>
<polyline clip-path="url(#clip343)" style="stroke:#000000; stroke-linecap:round; stroke-linejoin:round; stroke-width:4; stroke-opacity:1; fill:none" points="705.674,1451.26 705.674,1486.45 775.082,1486.45 775.082,1451.26 705.674,1451.26 "/>
<path clip-path="url(#clip343)" d="M775.082 1398.48 L775.082 1486.45 L844.49 1486.45 L844.49 1398.48 L775.082 1398.48 L775.082 1398.48  Z" fill="#009af9" fill-rule="evenodd" fill-opacity="1"/>
<polyline clip-path="url(#clip343)" style="stroke:#000000; stroke-linecap:round; stroke-linejoin:round; stroke-width:4; stroke-opacity:1; fill:none" points="775.082,1398.48 775.082,1486.45 844.49,1486.45 844.49,1398.48 775.082,1398.48 "/>
<path clip-path="url(#clip343)" d="M844.49 1339.84 L844.49 1486.45 L913.898 1486.45 L913.898 1339.84 L844.49 1339.84 L844.49 1339.84  Z" fill="#009af9" fill-rule="evenodd" fill-opacity="1"/>
<polyline clip-path="url(#clip343)" style="stroke:#000000; stroke-linecap:round; stroke-linejoin:round; stroke-width:4; stroke-opacity:1; fill:none" points="844.49,1339.84 844.49,1486.45 913.898,1486.45 913.898,1339.84 844.49,1339.84 "/>
<path clip-path="url(#clip343)" d="M913.898 1234.28 L913.898 1486.45 L983.306 1486.45 L983.306 1234.28 L913.898 1234.28 L913.898 1234.28  Z" fill="#009af9" fill-rule="evenodd" fill-opacity="1"/>
<polyline clip-path="url(#clip343)" style="stroke:#000000; stroke-linecap:round; stroke-linejoin:round; stroke-width:4; stroke-opacity:1; fill:none" points="913.898,1234.28 913.898,1486.45 983.306,1486.45 983.306,1234.28 913.898,1234.28 "/>
<path clip-path="url(#clip343)" d="M983.306 1122.86 L983.306 1486.45 L1052.71 1486.45 L1052.71 1122.86 L983.306 1122.86 L983.306 1122.86  Z" fill="#009af9" fill-rule="evenodd" fill-opacity="1"/>
<polyline clip-path="url(#clip343)" style="stroke:#000000; stroke-linecap:round; stroke-linejoin:round; stroke-width:4; stroke-opacity:1; fill:none" points="983.306,1122.86 983.306,1486.45 1052.71,1486.45 1052.71,1122.86 983.306,1122.86 "/>
<path clip-path="url(#clip343)" d="M1052.71 1134.59 L1052.71 1486.45 L1122.12 1486.45 L1122.12 1134.59 L1052.71 1134.59 L1052.71 1134.59  Z" fill="#009af9" fill-rule="evenodd" fill-opacity="1"/>
<polyline clip-path="url(#clip343)" style="stroke:#000000; stroke-linecap:round; stroke-linejoin:round; stroke-width:4; stroke-opacity:1; fill:none" points="1052.71,1134.59 1052.71,1486.45 1122.12,1486.45 1122.12,1134.59 1052.71,1134.59 "/>
<path clip-path="url(#clip343)" d="M1122.12 987.986 L1122.12 1486.45 L1191.53 1486.45 L1191.53 987.986 L1122.12 987.986 L1122.12 987.986  Z" fill="#009af9" fill-rule="evenodd" fill-opacity="1"/>
<polyline clip-path="url(#clip343)" style="stroke:#000000; stroke-linecap:round; stroke-linejoin:round; stroke-width:4; stroke-opacity:1; fill:none" points="1122.12,987.986 1122.12,1486.45 1191.53,1486.45 1191.53,987.986 1122.12,987.986 "/>
<path clip-path="url(#clip343)" d="M1191.53 1017.31 L1191.53 1486.45 L1260.94 1486.45 L1260.94 1017.31 L1191.53 1017.31 L1191.53 1017.31  Z" fill="#009af9" fill-rule="evenodd" fill-opacity="1"/>
<polyline clip-path="url(#clip343)" style="stroke:#000000; stroke-linecap:round; stroke-linejoin:round; stroke-width:4; stroke-opacity:1; fill:none" points="1191.53,1017.31 1191.53,1486.45 1260.94,1486.45 1260.94,1017.31 1191.53,1017.31 "/>
<path clip-path="url(#clip343)" d="M1260.94 929.344 L1260.94 1486.45 L1330.35 1486.45 L1330.35 929.344 L1260.94 929.344 L1260.94 929.344  Z" fill="#009af9" fill-rule="evenodd" fill-opacity="1"/>
<polyline clip-path="url(#clip343)" style="stroke:#000000; stroke-linecap:round; stroke-linejoin:round; stroke-width:4; stroke-opacity:1; fill:none" points="1260.94,929.344 1260.94,1486.45 1330.35,1486.45 1330.35,929.344 1260.94,929.344 "/>
<path clip-path="url(#clip343)" d="M1330.35 847.244 L1330.35 1486.45 L1399.75 1486.45 L1399.75 847.244 L1330.35 847.244 L1330.35 847.244  Z" fill="#009af9" fill-rule="evenodd" fill-opacity="1"/>
<polyline clip-path="url(#clip343)" style="stroke:#000000; stroke-linecap:round; stroke-linejoin:round; stroke-width:4; stroke-opacity:1; fill:none" points="1330.35,847.244 1330.35,1486.45 1399.75,1486.45 1399.75,847.244 1330.35,847.244 "/>
<path clip-path="url(#clip343)" d="M1399.75 958.665 L1399.75 1486.45 L1469.16 1486.45 L1469.16 958.665 L1399.75 958.665 L1399.75 958.665  Z" fill="#009af9" fill-rule="evenodd" fill-opacity="1"/>
<polyline clip-path="url(#clip343)" style="stroke:#000000; stroke-linecap:round; stroke-linejoin:round; stroke-width:4; stroke-opacity:1; fill:none" points="1399.75,958.665 1399.75,1486.45 1469.16,1486.45 1469.16,958.665 1399.75,958.665 "/>
<path clip-path="url(#clip343)" d="M1469.16 993.85 L1469.16 1486.45 L1538.57 1486.45 L1538.57 993.85 L1469.16 993.85 L1469.16 993.85  Z" fill="#009af9" fill-rule="evenodd" fill-opacity="1"/>
<polyline clip-path="url(#clip343)" style="stroke:#000000; stroke-linecap:round; stroke-linejoin:round; stroke-width:4; stroke-opacity:1; fill:none" points="1469.16,993.85 1469.16,1486.45 1538.57,1486.45 1538.57,993.85 1469.16,993.85 "/>
<path clip-path="url(#clip343)" d="M1538.57 1093.54 L1538.57 1486.45 L1607.98 1486.45 L1607.98 1093.54 L1538.57 1093.54 L1538.57 1093.54  Z" fill="#009af9" fill-rule="evenodd" fill-opacity="1"/>
<polyline clip-path="url(#clip343)" style="stroke:#000000; stroke-linecap:round; stroke-linejoin:round; stroke-width:4; stroke-opacity:1; fill:none" points="1538.57,1093.54 1538.57,1486.45 1607.98,1486.45 1607.98,1093.54 1538.57,1093.54 "/>
<path clip-path="url(#clip343)" d="M1607.98 1128.73 L1607.98 1486.45 L1677.39 1486.45 L1677.39 1128.73 L1607.98 1128.73 L1607.98 1128.73  Z" fill="#009af9" fill-rule="evenodd" fill-opacity="1"/>
<polyline clip-path="url(#clip343)" style="stroke:#000000; stroke-linecap:round; stroke-linejoin:round; stroke-width:4; stroke-opacity:1; fill:none" points="1607.98,1128.73 1607.98,1486.45 1677.39,1486.45 1677.39,1128.73 1607.98,1128.73 "/>
<path clip-path="url(#clip343)" d="M1677.39 1269.47 L1677.39 1486.45 L1746.8 1486.45 L1746.8 1269.47 L1677.39 1269.47 L1677.39 1269.47  Z" fill="#009af9" fill-rule="evenodd" fill-opacity="1"/>
<polyline clip-path="url(#clip343)" style="stroke:#000000; stroke-linecap:round; stroke-linejoin:round; stroke-width:4; stroke-opacity:1; fill:none" points="1677.39,1269.47 1677.39,1486.45 1746.8,1486.45 1746.8,1269.47 1677.39,1269.47 "/>
<path clip-path="url(#clip343)" d="M1746.8 1328.11 L1746.8 1486.45 L1816.2 1486.45 L1816.2 1328.11 L1746.8 1328.11 L1746.8 1328.11  Z" fill="#009af9" fill-rule="evenodd" fill-opacity="1"/>
<polyline clip-path="url(#clip343)" style="stroke:#000000; stroke-linecap:round; stroke-linejoin:round; stroke-width:4; stroke-opacity:1; fill:none" points="1746.8,1328.11 1746.8,1486.45 1816.2,1486.45 1816.2,1328.11 1746.8,1328.11 "/>
<path clip-path="url(#clip343)" d="M1816.2 1363.3 L1816.2 1486.45 L1885.61 1486.45 L1885.61 1363.3 L1816.2 1363.3 L1816.2 1363.3  Z" fill="#009af9" fill-rule="evenodd" fill-opacity="1"/>
<polyline clip-path="url(#clip343)" style="stroke:#000000; stroke-linecap:round; stroke-linejoin:round; stroke-width:4; stroke-opacity:1; fill:none" points="1816.2,1363.3 1816.2,1486.45 1885.61,1486.45 1885.61,1363.3 1816.2,1363.3 "/>
<path clip-path="url(#clip343)" d="M1885.61 1445.4 L1885.61 1486.45 L1955.02 1486.45 L1955.02 1445.4 L1885.61 1445.4 L1885.61 1445.4  Z" fill="#009af9" fill-rule="evenodd" fill-opacity="1"/>
<polyline clip-path="url(#clip343)" style="stroke:#000000; stroke-linecap:round; stroke-linejoin:round; stroke-width:4; stroke-opacity:1; fill:none" points="1885.61,1445.4 1885.61,1486.45 1955.02,1486.45 1955.02,1445.4 1885.61,1445.4 "/>
<path clip-path="url(#clip343)" d="M1955.02 1445.4 L1955.02 1486.45 L2024.43 1486.45 L2024.43 1445.4 L1955.02 1445.4 L1955.02 1445.4  Z" fill="#009af9" fill-rule="evenodd" fill-opacity="1"/>
<polyline clip-path="url(#clip343)" style="stroke:#000000; stroke-linecap:round; stroke-linejoin:round; stroke-width:4; stroke-opacity:1; fill:none" points="1955.02,1445.4 1955.02,1486.45 2024.43,1486.45 2024.43,1445.4 1955.02,1445.4 "/>
<path clip-path="url(#clip343)" d="M2024.43 1474.72 L2024.43 1486.45 L2093.84 1486.45 L2093.84 1474.72 L2024.43 1474.72 L2024.43 1474.72  Z" fill="#009af9" fill-rule="evenodd" fill-opacity="1"/>
<polyline clip-path="url(#clip343)" style="stroke:#000000; stroke-linecap:round; stroke-linejoin:round; stroke-width:4; stroke-opacity:1; fill:none" points="2024.43,1474.72 2024.43,1486.45 2093.84,1486.45 2093.84,1474.72 2024.43,1474.72 "/>
<path clip-path="url(#clip343)" d="M2093.84 1457.13 L2093.84 1486.45 L2163.24 1486.45 L2163.24 1457.13 L2093.84 1457.13 L2093.84 1457.13  Z" fill="#009af9" fill-rule="evenodd" fill-opacity="1"/>
<polyline clip-path="url(#clip343)" style="stroke:#000000; stroke-linecap:round; stroke-linejoin:round; stroke-width:4; stroke-opacity:1; fill:none" points="2093.84,1457.13 2093.84,1486.45 2163.24,1486.45 2163.24,1457.13 2093.84,1457.13 "/>
<path clip-path="url(#clip343)" d="M2163.24 1468.86 L2163.24 1486.45 L2232.65 1486.45 L2232.65 1468.86 L2163.24 1468.86 L2163.24 1468.86  Z" fill="#009af9" fill-rule="evenodd" fill-opacity="1"/>
<polyline clip-path="url(#clip343)" style="stroke:#000000; stroke-linecap:round; stroke-linejoin:round; stroke-width:4; stroke-opacity:1; fill:none" points="2163.24,1468.86 2163.24,1486.45 2232.65,1486.45 2232.65,1468.86 2163.24,1468.86 "/>
<circle clip-path="url(#clip343)" style="fill:#009af9; stroke:none; fill-opacity:0" cx="323.929" cy="1480.58" r="2"/>
<circle clip-path="url(#clip343)" style="fill:#009af9; stroke:none; fill-opacity:0" cx="393.337" cy="1486.45" r="2"/>
<circle clip-path="url(#clip343)" style="fill:#009af9; stroke:none; fill-opacity:0" cx="462.745" cy="1480.58" r="2"/>
<circle clip-path="url(#clip343)" style="fill:#009af9; stroke:none; fill-opacity:0" cx="532.153" cy="1480.58" r="2"/>
<circle clip-path="url(#clip343)" style="fill:#009af9; stroke:none; fill-opacity:0" cx="601.562" cy="1480.58" r="2"/>
<circle clip-path="url(#clip343)" style="fill:#009af9; stroke:none; fill-opacity:0" cx="670.97" cy="1457.13" r="2"/>
<circle clip-path="url(#clip343)" style="fill:#009af9; stroke:none; fill-opacity:0" cx="740.378" cy="1451.26" r="2"/>
<circle clip-path="url(#clip343)" style="fill:#009af9; stroke:none; fill-opacity:0" cx="809.786" cy="1398.48" r="2"/>
<circle clip-path="url(#clip343)" style="fill:#009af9; stroke:none; fill-opacity:0" cx="879.194" cy="1339.84" r="2"/>
<circle clip-path="url(#clip343)" style="fill:#009af9; stroke:none; fill-opacity:0" cx="948.602" cy="1234.28" r="2"/>
<circle clip-path="url(#clip343)" style="fill:#009af9; stroke:none; fill-opacity:0" cx="1018.01" cy="1122.86" r="2"/>
<circle clip-path="url(#clip343)" style="fill:#009af9; stroke:none; fill-opacity:0" cx="1087.42" cy="1134.59" r="2"/>
<circle clip-path="url(#clip343)" style="fill:#009af9; stroke:none; fill-opacity:0" cx="1156.83" cy="987.986" r="2"/>
<circle clip-path="url(#clip343)" style="fill:#009af9; stroke:none; fill-opacity:0" cx="1226.23" cy="1017.31" r="2"/>
<circle clip-path="url(#clip343)" style="fill:#009af9; stroke:none; fill-opacity:0" cx="1295.64" cy="929.344" r="2"/>
<circle clip-path="url(#clip343)" style="fill:#009af9; stroke:none; fill-opacity:0" cx="1365.05" cy="847.244" r="2"/>
<circle clip-path="url(#clip343)" style="fill:#009af9; stroke:none; fill-opacity:0" cx="1434.46" cy="958.665" r="2"/>
<circle clip-path="url(#clip343)" style="fill:#009af9; stroke:none; fill-opacity:0" cx="1503.87" cy="993.85" r="2"/>
<circle clip-path="url(#clip343)" style="fill:#009af9; stroke:none; fill-opacity:0" cx="1573.28" cy="1093.54" r="2"/>
<circle clip-path="url(#clip343)" style="fill:#009af9; stroke:none; fill-opacity:0" cx="1642.68" cy="1128.73" r="2"/>
<circle clip-path="url(#clip343)" style="fill:#009af9; stroke:none; fill-opacity:0" cx="1712.09" cy="1269.47" r="2"/>
<circle clip-path="url(#clip343)" style="fill:#009af9; stroke:none; fill-opacity:0" cx="1781.5" cy="1328.11" r="2"/>
<circle clip-path="url(#clip343)" style="fill:#009af9; stroke:none; fill-opacity:0" cx="1850.91" cy="1363.3" r="2"/>
<circle clip-path="url(#clip343)" style="fill:#009af9; stroke:none; fill-opacity:0" cx="1920.32" cy="1445.4" r="2"/>
<circle clip-path="url(#clip343)" style="fill:#009af9; stroke:none; fill-opacity:0" cx="1989.72" cy="1445.4" r="2"/>
<circle clip-path="url(#clip343)" style="fill:#009af9; stroke:none; fill-opacity:0" cx="2059.13" cy="1474.72" r="2"/>
<circle clip-path="url(#clip343)" style="fill:#009af9; stroke:none; fill-opacity:0" cx="2128.54" cy="1457.13" r="2"/>
<circle clip-path="url(#clip343)" style="fill:#009af9; stroke:none; fill-opacity:0" cx="2197.95" cy="1468.86" r="2"/>
<path clip-path="url(#clip340)" d="M2019.85 972.231 L2279.97 972.231 L2279.97 868.551 L2019.85 868.551  Z" fill="#ffffff" fill-rule="evenodd" fill-opacity="1"/>
<polyline clip-path="url(#clip340)" style="stroke:#000000; stroke-linecap:round; stroke-linejoin:round; stroke-width:4; stroke-opacity:1; fill:none" points="2019.85,972.231 2279.97,972.231 2279.97,868.551 2019.85,868.551 2019.85,972.231 "/>
<path clip-path="url(#clip340)" d="M2044.11 941.127 L2189.68 941.127 L2189.68 899.655 L2044.11 899.655 L2044.11 941.127  Z" fill="#009af9" fill-rule="evenodd" fill-opacity="1"/>
<polyline clip-path="url(#clip340)" style="stroke:#000000; stroke-linecap:round; stroke-linejoin:round; stroke-width:4; stroke-opacity:1; fill:none" points="2044.11,941.127 2189.68,941.127 2189.68,899.655 2044.11,899.655 2044.11,941.127 "/>
<path clip-path="url(#clip340)" d="M2235.66 922.023 L2235.66 937.671 L2231.4 937.671 L2231.4 922.162 Q2231.4 918.481 2229.96 916.652 Q2228.53 914.824 2225.66 914.824 Q2222.21 914.824 2220.22 917.023 Q2218.23 919.222 2218.23 923.018 L2218.23 937.671 L2213.95 937.671 L2213.95 911.745 L2218.23 911.745 L2218.23 915.773 Q2219.76 913.435 2221.82 912.278 Q2223.9 911.12 2226.61 911.12 Q2231.08 911.12 2233.37 913.898 Q2235.66 916.652 2235.66 922.023 Z" fill="#000000" fill-rule="nonzero" fill-opacity="1" /><path clip-path="url(#clip340)" d="M2245.89 935.032 L2255.71 935.032 L2255.71 937.671 L2241.86 937.671 L2241.86 935.125 Q2242.65 934.407 2244.11 933.111 Q2252.07 926.051 2252.07 923.875 Q2252.07 922.347 2250.87 921.421 Q2249.66 920.472 2247.7 920.472 Q2246.49 920.472 2245.08 920.889 Q2243.67 921.282 2242 922.092 L2242 919.245 Q2243.78 918.597 2245.31 918.273 Q2246.86 917.949 2248.18 917.949 Q2251.54 917.949 2253.55 919.477 Q2255.57 921.004 2255.57 923.504 Q2255.57 926.722 2247.9 933.296 Q2246.61 934.407 2245.89 935.032 Z" fill="#000000" fill-rule="nonzero" fill-opacity="1" /></svg>
