<?xml version="1.0" encoding="utf-8"?>
<svg xmlns="http://www.w3.org/2000/svg" xmlns:xlink="http://www.w3.org/1999/xlink" width="600" height="400" viewBox="0 0 2400 1600">
<defs>
  <clipPath id="clip980">
    <rect x="0" y="0" width="2400" height="1600"/>
  </clipPath>
</defs>
<path clip-path="url(#clip980)" d="
M0 1600 L2400 1600 L2400 0 L0 0  Z
  " fill="#ffffff" fill-rule="evenodd" fill-opacity="1"/>
<defs>
  <clipPath id="clip981">
    <rect x="480" y="0" width="1681" height="1600"/>
  </clipPath>
</defs>
<path clip-path="url(#clip980)" d="
M169.121 1486.45 L2352.76 1486.45 L2352.76 47.2441 L169.121 47.2441  Z
  " fill="#ffffff" fill-rule="evenodd" fill-opacity="1"/>
<defs>
  <clipPath id="clip982">
    <rect x="169" y="47" width="2185" height="1440"/>
  </clipPath>
</defs>
<polyline clip-path="url(#clip982)" style="stroke:#000000; stroke-linecap:butt; stroke-linejoin:round; stroke-width:2; stroke-opacity:0.1; fill:none" points="
  211.488,1486.45 211.488,47.2441 
  "/>
<polyline clip-path="url(#clip982)" style="stroke:#000000; stroke-linecap:butt; stroke-linejoin:round; stroke-width:2; stroke-opacity:0.1; fill:none" points="
  600.173,1486.45 600.173,47.2441 
  "/>
<polyline clip-path="url(#clip982)" style="stroke:#000000; stroke-linecap:butt; stroke-linejoin:round; stroke-width:2; stroke-opacity:0.1; fill:none" points="
  988.859,1486.45 988.859,47.2441 
  "/>
<polyline clip-path="url(#clip982)" style="stroke:#000000; stroke-linecap:butt; stroke-linejoin:round; stroke-width:2; stroke-opacity:0.1; fill:none" points="
  1377.54,1486.45 1377.54,47.2441 
  "/>
<polyline clip-path="url(#clip982)" style="stroke:#000000; stroke-linecap:butt; stroke-linejoin:round; stroke-width:2; stroke-opacity:0.1; fill:none" points="
  1766.23,1486.45 1766.23,47.2441 
  "/>
<polyline clip-path="url(#clip982)" style="stroke:#000000; stroke-linecap:butt; stroke-linejoin:round; stroke-width:2; stroke-opacity:0.1; fill:none" points="
  2154.92,1486.45 2154.92,47.2441 
  "/>
<polyline clip-path="url(#clip980)" style="stroke:#000000; stroke-linecap:butt; stroke-linejoin:round; stroke-width:4; stroke-opacity:1; fill:none" points="
  169.121,1486.45 2352.76,1486.45 
  "/>
<polyline clip-path="url(#clip980)" style="stroke:#000000; stroke-linecap:butt; stroke-linejoin:round; stroke-width:4; stroke-opacity:1; fill:none" points="
  211.488,1486.45 211.488,1467.55 
  "/>
<polyline clip-path="url(#clip980)" style="stroke:#000000; stroke-linecap:butt; stroke-linejoin:round; stroke-width:4; stroke-opacity:1; fill:none" points="
  600.173,1486.45 600.173,1467.55 
  "/>
<polyline clip-path="url(#clip980)" style="stroke:#000000; stroke-linecap:butt; stroke-linejoin:round; stroke-width:4; stroke-opacity:1; fill:none" points="
  988.859,1486.45 988.859,1467.55 
  "/>
<polyline clip-path="url(#clip980)" style="stroke:#000000; stroke-linecap:butt; stroke-linejoin:round; stroke-width:4; stroke-opacity:1; fill:none" points="
  1377.54,1486.45 1377.54,1467.55 
  "/>
<polyline clip-path="url(#clip980)" style="stroke:#000000; stroke-linecap:butt; stroke-linejoin:round; stroke-width:4; stroke-opacity:1; fill:none" points="
  1766.23,1486.45 1766.23,1467.55 
  "/>
<polyline clip-path="url(#clip980)" style="stroke:#000000; stroke-linecap:butt; stroke-linejoin:round; stroke-width:4; stroke-opacity:1; fill:none" points="
  2154.92,1486.45 2154.92,1467.55 
  "/>
<path clip-path="url(#clip980)" d="M173.791 1517.37 Q170.18 1517.37 168.352 1520.93 Q166.546 1524.47 166.546 1531.6 Q166.546 1538.71 168.352 1542.27 Q170.18 1545.82 173.791 1545.82 Q177.426 1545.82 179.231 1542.27 Q181.06 1538.71 181.06 1531.6 Q181.06 1524.47 179.231 1520.93 Q177.426 1517.37 173.791 1517.37 M173.791 1513.66 Q179.602 1513.66 182.657 1518.27 Q185.736 1522.85 185.736 1531.6 Q185.736 1540.33 182.657 1544.94 Q179.602 1549.52 173.791 1549.52 Q167.981 1549.52 164.903 1544.94 Q161.847 1540.33 161.847 1531.6 Q161.847 1522.85 164.903 1518.27 Q167.981 1513.66 173.791 1513.66 Z" fill="#000000" fill-rule="evenodd" fill-opacity="1" /><path clip-path="url(#clip980)" d="M193.953 1542.97 L198.838 1542.97 L198.838 1548.85 L193.953 1548.85 L193.953 1542.97 Z" fill="#000000" fill-rule="evenodd" fill-opacity="1" /><path clip-path="url(#clip980)" d="M207.842 1514.29 L230.064 1514.29 L230.064 1516.28 L217.518 1548.85 L212.634 1548.85 L224.439 1518.22 L207.842 1518.22 L207.842 1514.29 Z" fill="#000000" fill-rule="evenodd" fill-opacity="1" /><path clip-path="url(#clip980)" d="M249.185 1517.37 Q245.573 1517.37 243.745 1520.93 Q241.939 1524.47 241.939 1531.6 Q241.939 1538.71 243.745 1542.27 Q245.573 1545.82 249.185 1545.82 Q252.819 1545.82 254.624 1542.27 Q256.453 1538.71 256.453 1531.6 Q256.453 1524.47 254.624 1520.93 Q252.819 1517.37 249.185 1517.37 M249.185 1513.66 Q254.995 1513.66 258.05 1518.27 Q261.129 1522.85 261.129 1531.6 Q261.129 1540.33 258.05 1544.94 Q254.995 1549.52 249.185 1549.52 Q243.374 1549.52 240.296 1544.94 Q237.24 1540.33 237.24 1531.6 Q237.24 1522.85 240.296 1518.27 Q243.374 1513.66 249.185 1513.66 Z" fill="#000000" fill-rule="evenodd" fill-opacity="1" /><path clip-path="url(#clip980)" d="M562.975 1517.37 Q559.363 1517.37 557.535 1520.93 Q555.729 1524.47 555.729 1531.6 Q555.729 1538.71 557.535 1542.27 Q559.363 1545.82 562.975 1545.82 Q566.609 1545.82 568.414 1542.27 Q570.243 1538.71 570.243 1531.6 Q570.243 1524.47 568.414 1520.93 Q566.609 1517.37 562.975 1517.37 M562.975 1513.66 Q568.785 1513.66 571.84 1518.27 Q574.919 1522.85 574.919 1531.6 Q574.919 1540.33 571.84 1544.94 Q568.785 1549.52 562.975 1549.52 Q557.164 1549.52 554.086 1544.94 Q551.03 1540.33 551.03 1531.6 Q551.03 1522.85 554.086 1518.27 Q557.164 1513.66 562.975 1513.66 Z" fill="#000000" fill-rule="evenodd" fill-opacity="1" /><path clip-path="url(#clip980)" d="M583.136 1542.97 L588.021 1542.97 L588.021 1548.85 L583.136 1548.85 L583.136 1542.97 Z" fill="#000000" fill-rule="evenodd" fill-opacity="1" /><path clip-path="url(#clip980)" d="M597.025 1514.29 L619.247 1514.29 L619.247 1516.28 L606.701 1548.85 L601.817 1548.85 L613.622 1518.22 L597.025 1518.22 L597.025 1514.29 Z" fill="#000000" fill-rule="evenodd" fill-opacity="1" /><path clip-path="url(#clip980)" d="M628.414 1514.29 L646.77 1514.29 L646.77 1518.22 L632.696 1518.22 L632.696 1526.7 Q633.715 1526.35 634.733 1526.19 Q635.752 1526 636.77 1526 Q642.557 1526 645.937 1529.17 Q649.317 1532.34 649.317 1537.76 Q649.317 1543.34 645.844 1546.44 Q642.372 1549.52 636.053 1549.52 Q633.877 1549.52 631.608 1549.15 Q629.363 1548.78 626.956 1548.04 L626.956 1543.34 Q629.039 1544.47 631.261 1545.03 Q633.483 1545.58 635.96 1545.58 Q639.965 1545.58 642.303 1543.48 Q644.641 1541.37 644.641 1537.76 Q644.641 1534.15 642.303 1532.04 Q639.965 1529.94 635.96 1529.94 Q634.085 1529.94 632.21 1530.35 Q630.358 1530.77 628.414 1531.65 L628.414 1514.29 Z" fill="#000000" fill-rule="evenodd" fill-opacity="1" /><path clip-path="url(#clip980)" d="M951.162 1517.37 Q947.551 1517.37 945.722 1520.93 Q943.917 1524.47 943.917 1531.6 Q943.917 1538.71 945.722 1542.27 Q947.551 1545.82 951.162 1545.82 Q954.797 1545.82 956.602 1542.27 Q958.431 1538.71 958.431 1531.6 Q958.431 1524.47 956.602 1520.93 Q954.797 1517.37 951.162 1517.37 M951.162 1513.66 Q956.972 1513.66 960.028 1518.27 Q963.107 1522.85 963.107 1531.6 Q963.107 1540.33 960.028 1544.94 Q956.972 1549.52 951.162 1549.52 Q945.352 1549.52 942.273 1544.94 Q939.218 1540.33 939.218 1531.6 Q939.218 1522.85 942.273 1518.27 Q945.352 1513.66 951.162 1513.66 Z" fill="#000000" fill-rule="evenodd" fill-opacity="1" /><path clip-path="url(#clip980)" d="M971.324 1542.97 L976.208 1542.97 L976.208 1548.85 L971.324 1548.85 L971.324 1542.97 Z" fill="#000000" fill-rule="evenodd" fill-opacity="1" /><path clip-path="url(#clip980)" d="M996.394 1532.44 Q993.06 1532.44 991.139 1534.22 Q989.241 1536 989.241 1539.13 Q989.241 1542.25 991.139 1544.03 Q993.06 1545.82 996.394 1545.82 Q999.727 1545.82 1001.65 1544.03 Q1003.57 1542.23 1003.57 1539.13 Q1003.57 1536 1001.65 1534.22 Q999.75 1532.44 996.394 1532.44 M991.718 1530.45 Q988.708 1529.7 987.019 1527.64 Q985.352 1525.58 985.352 1522.62 Q985.352 1518.48 988.292 1516.07 Q991.255 1513.66 996.394 1513.66 Q1001.56 1513.66 1004.5 1516.07 Q1007.44 1518.48 1007.44 1522.62 Q1007.44 1525.58 1005.75 1527.64 Q1004.08 1529.7 1001.09 1530.45 Q1004.47 1531.23 1006.35 1533.52 Q1008.25 1535.82 1008.25 1539.13 Q1008.25 1544.15 1005.17 1546.83 Q1002.11 1549.52 996.394 1549.52 Q990.676 1549.52 987.597 1546.83 Q984.542 1544.15 984.542 1539.13 Q984.542 1535.82 986.44 1533.52 Q988.338 1531.23 991.718 1530.45 M990.005 1523.06 Q990.005 1525.75 991.671 1527.25 Q993.361 1528.76 996.394 1528.76 Q999.403 1528.76 1001.09 1527.25 Q1002.81 1525.75 1002.81 1523.06 Q1002.81 1520.38 1001.09 1518.87 Q999.403 1517.37 996.394 1517.37 Q993.361 1517.37 991.671 1518.87 Q990.005 1520.38 990.005 1523.06 Z" fill="#000000" fill-rule="evenodd" fill-opacity="1" /><path clip-path="url(#clip980)" d="M1026.56 1517.37 Q1022.94 1517.37 1021.12 1520.93 Q1019.31 1524.47 1019.31 1531.6 Q1019.31 1538.71 1021.12 1542.27 Q1022.94 1545.82 1026.56 1545.82 Q1030.19 1545.82 1032 1542.27 Q1033.82 1538.71 1033.82 1531.6 Q1033.82 1524.47 1032 1520.93 Q1030.19 1517.37 1026.56 1517.37 M1026.56 1513.66 Q1032.37 1513.66 1035.42 1518.27 Q1038.5 1522.85 1038.5 1531.6 Q1038.5 1540.33 1035.42 1544.94 Q1032.37 1549.52 1026.56 1549.52 Q1020.75 1549.52 1017.67 1544.94 Q1014.61 1540.33 1014.61 1531.6 Q1014.61 1522.85 1017.67 1518.27 Q1020.75 1513.66 1026.56 1513.66 Z" fill="#000000" fill-rule="evenodd" fill-opacity="1" /><path clip-path="url(#clip980)" d="M1340.35 1517.37 Q1336.73 1517.37 1334.91 1520.93 Q1333.1 1524.47 1333.1 1531.6 Q1333.1 1538.71 1334.91 1542.27 Q1336.73 1545.82 1340.35 1545.82 Q1343.98 1545.82 1345.79 1542.27 Q1347.61 1538.71 1347.61 1531.6 Q1347.61 1524.47 1345.79 1520.93 Q1343.98 1517.37 1340.35 1517.37 M1340.35 1513.66 Q1346.16 1513.66 1349.21 1518.27 Q1352.29 1522.85 1352.29 1531.6 Q1352.29 1540.33 1349.21 1544.94 Q1346.16 1549.52 1340.35 1549.52 Q1334.54 1549.52 1331.46 1544.94 Q1328.4 1540.33 1328.4 1531.6 Q1328.4 1522.85 1331.46 1518.27 Q1334.54 1513.66 1340.35 1513.66 Z" fill="#000000" fill-rule="evenodd" fill-opacity="1" /><path clip-path="url(#clip980)" d="M1360.51 1542.97 L1365.39 1542.97 L1365.39 1548.85 L1360.51 1548.85 L1360.51 1542.97 Z" fill="#000000" fill-rule="evenodd" fill-opacity="1" /><path clip-path="url(#clip980)" d="M1385.58 1532.44 Q1382.24 1532.44 1380.32 1534.22 Q1378.42 1536 1378.42 1539.13 Q1378.42 1542.25 1380.32 1544.03 Q1382.24 1545.82 1385.58 1545.82 Q1388.91 1545.82 1390.83 1544.03 Q1392.75 1542.23 1392.75 1539.13 Q1392.75 1536 1390.83 1534.22 Q1388.93 1532.44 1385.58 1532.44 M1380.9 1530.45 Q1377.89 1529.7 1376.2 1527.64 Q1374.53 1525.58 1374.53 1522.62 Q1374.53 1518.48 1377.47 1516.07 Q1380.44 1513.66 1385.58 1513.66 Q1390.74 1513.66 1393.68 1516.07 Q1396.62 1518.48 1396.62 1522.62 Q1396.62 1525.58 1394.93 1527.64 Q1393.26 1529.7 1390.28 1530.45 Q1393.66 1531.23 1395.53 1533.52 Q1397.43 1535.82 1397.43 1539.13 Q1397.43 1544.15 1394.35 1546.83 Q1391.29 1549.52 1385.58 1549.52 Q1379.86 1549.52 1376.78 1546.83 Q1373.72 1544.15 1373.72 1539.13 Q1373.72 1535.82 1375.62 1533.52 Q1377.52 1531.23 1380.9 1530.45 M1379.19 1523.06 Q1379.19 1525.75 1380.85 1527.25 Q1382.54 1528.76 1385.58 1528.76 Q1388.59 1528.76 1390.28 1527.25 Q1391.99 1525.75 1391.99 1523.06 Q1391.99 1520.38 1390.28 1518.87 Q1388.59 1517.37 1385.58 1517.37 Q1382.54 1517.37 1380.85 1518.87 Q1379.19 1520.38 1379.19 1523.06 Z" fill="#000000" fill-rule="evenodd" fill-opacity="1" /><path clip-path="url(#clip980)" d="M1405.78 1514.29 L1424.14 1514.29 L1424.14 1518.22 L1410.07 1518.22 L1410.07 1526.7 Q1411.09 1526.35 1412.1 1526.19 Q1413.12 1526 1414.14 1526 Q1419.93 1526 1423.31 1529.17 Q1426.69 1532.34 1426.69 1537.76 Q1426.69 1543.34 1423.22 1546.44 Q1419.74 1549.52 1413.42 1549.52 Q1411.25 1549.52 1408.98 1549.15 Q1406.73 1548.78 1404.33 1548.04 L1404.33 1543.34 Q1406.41 1544.47 1408.63 1545.03 Q1410.85 1545.58 1413.33 1545.58 Q1417.34 1545.58 1419.67 1543.48 Q1422.01 1541.37 1422.01 1537.76 Q1422.01 1534.15 1419.67 1532.04 Q1417.34 1529.94 1413.33 1529.94 Q1411.46 1529.94 1409.58 1530.35 Q1407.73 1530.77 1405.78 1531.65 L1405.78 1514.29 Z" fill="#000000" fill-rule="evenodd" fill-opacity="1" /><path clip-path="url(#clip980)" d="M1728.53 1517.37 Q1724.92 1517.37 1723.09 1520.93 Q1721.29 1524.47 1721.29 1531.6 Q1721.29 1538.71 1723.09 1542.27 Q1724.92 1545.82 1728.53 1545.82 Q1732.17 1545.82 1733.97 1542.27 Q1735.8 1538.71 1735.8 1531.6 Q1735.8 1524.47 1733.97 1520.93 Q1732.17 1517.37 1728.53 1517.37 M1728.53 1513.66 Q1734.34 1513.66 1737.4 1518.27 Q1740.48 1522.85 1740.48 1531.6 Q1740.48 1540.33 1737.4 1544.94 Q1734.34 1549.52 1728.53 1549.52 Q1722.72 1549.52 1719.64 1544.94 Q1716.59 1540.33 1716.59 1531.6 Q1716.59 1522.85 1719.64 1518.27 Q1722.72 1513.66 1728.53 1513.66 Z" fill="#000000" fill-rule="evenodd" fill-opacity="1" /><path clip-path="url(#clip980)" d="M1748.7 1542.97 L1753.58 1542.97 L1753.58 1548.85 L1748.7 1548.85 L1748.7 1542.97 Z" fill="#000000" fill-rule="evenodd" fill-opacity="1" /><path clip-path="url(#clip980)" d="M1763.9 1548.13 L1763.9 1543.87 Q1765.66 1544.7 1767.47 1545.14 Q1769.27 1545.58 1771.01 1545.58 Q1775.64 1545.58 1778.07 1542.48 Q1780.52 1539.36 1780.87 1533.01 Q1779.53 1535.01 1777.47 1536.07 Q1775.41 1537.13 1772.91 1537.13 Q1767.72 1537.13 1764.69 1534.01 Q1761.68 1530.86 1761.68 1525.42 Q1761.68 1520.1 1764.83 1516.88 Q1767.98 1513.66 1773.21 1513.66 Q1779.2 1513.66 1782.35 1518.27 Q1785.52 1522.85 1785.52 1531.6 Q1785.52 1539.77 1781.63 1544.66 Q1777.77 1549.52 1771.22 1549.52 Q1769.46 1549.52 1767.65 1549.17 Q1765.85 1548.82 1763.9 1548.13 M1773.21 1533.48 Q1776.36 1533.48 1778.19 1531.32 Q1780.04 1529.17 1780.04 1525.42 Q1780.04 1521.7 1778.19 1519.54 Q1776.36 1517.37 1773.21 1517.37 Q1770.06 1517.37 1768.21 1519.54 Q1766.38 1521.7 1766.38 1525.42 Q1766.38 1529.17 1768.21 1531.32 Q1770.06 1533.48 1773.21 1533.48 Z" fill="#000000" fill-rule="evenodd" fill-opacity="1" /><path clip-path="url(#clip980)" d="M1803.93 1517.37 Q1800.32 1517.37 1798.49 1520.93 Q1796.68 1524.47 1796.68 1531.6 Q1796.68 1538.71 1798.49 1542.27 Q1800.32 1545.82 1803.93 1545.82 Q1807.56 1545.82 1809.37 1542.27 Q1811.19 1538.71 1811.19 1531.6 Q1811.19 1524.47 1809.37 1520.93 Q1807.56 1517.37 1803.93 1517.37 M1803.93 1513.66 Q1809.74 1513.66 1812.79 1518.27 Q1815.87 1522.85 1815.87 1531.6 Q1815.87 1540.33 1812.79 1544.94 Q1809.74 1549.52 1803.93 1549.52 Q1798.12 1549.52 1795.04 1544.94 Q1791.98 1540.33 1791.98 1531.6 Q1791.98 1522.85 1795.04 1518.27 Q1798.12 1513.66 1803.93 1513.66 Z" fill="#000000" fill-rule="evenodd" fill-opacity="1" /><path clip-path="url(#clip980)" d="M2117.72 1517.37 Q2114.11 1517.37 2112.28 1520.93 Q2110.47 1524.47 2110.47 1531.6 Q2110.47 1538.71 2112.28 1542.27 Q2114.11 1545.82 2117.72 1545.82 Q2121.35 1545.82 2123.16 1542.27 Q2124.98 1538.71 2124.98 1531.6 Q2124.98 1524.47 2123.16 1520.93 Q2121.35 1517.37 2117.72 1517.37 M2117.72 1513.66 Q2123.53 1513.66 2126.58 1518.27 Q2129.66 1522.85 2129.66 1531.6 Q2129.66 1540.33 2126.58 1544.94 Q2123.53 1549.52 2117.72 1549.52 Q2111.91 1549.52 2108.83 1544.94 Q2105.77 1540.33 2105.77 1531.6 Q2105.77 1522.85 2108.83 1518.27 Q2111.91 1513.66 2117.72 1513.66 Z" fill="#000000" fill-rule="evenodd" fill-opacity="1" /><path clip-path="url(#clip980)" d="M2137.88 1542.97 L2142.76 1542.97 L2142.76 1548.85 L2137.88 1548.85 L2137.88 1542.97 Z" fill="#000000" fill-rule="evenodd" fill-opacity="1" /><path clip-path="url(#clip980)" d="M2153.09 1548.13 L2153.09 1543.87 Q2154.85 1544.7 2156.65 1545.14 Q2158.46 1545.58 2160.19 1545.58 Q2164.82 1545.58 2167.25 1542.48 Q2169.71 1539.36 2170.05 1533.01 Q2168.71 1535.01 2166.65 1536.07 Q2164.59 1537.13 2162.09 1537.13 Q2156.91 1537.13 2153.87 1534.01 Q2150.86 1530.86 2150.86 1525.42 Q2150.86 1520.1 2154.01 1516.88 Q2157.16 1513.66 2162.39 1513.66 Q2168.39 1513.66 2171.54 1518.27 Q2174.71 1522.85 2174.71 1531.6 Q2174.71 1539.77 2170.82 1544.66 Q2166.95 1549.52 2160.4 1549.52 Q2158.64 1549.52 2156.84 1549.17 Q2155.03 1548.82 2153.09 1548.13 M2162.39 1533.48 Q2165.54 1533.48 2167.37 1531.32 Q2169.22 1529.17 2169.22 1525.42 Q2169.22 1521.7 2167.37 1519.54 Q2165.54 1517.37 2162.39 1517.37 Q2159.24 1517.37 2157.39 1519.54 Q2155.56 1521.7 2155.56 1525.42 Q2155.56 1529.17 2157.39 1531.32 Q2159.24 1533.48 2162.39 1533.48 Z" fill="#000000" fill-rule="evenodd" fill-opacity="1" /><path clip-path="url(#clip980)" d="M2183.16 1514.29 L2201.51 1514.29 L2201.51 1518.22 L2187.44 1518.22 L2187.44 1526.7 Q2188.46 1526.35 2189.48 1526.19 Q2190.49 1526 2191.51 1526 Q2197.3 1526 2200.68 1529.17 Q2204.06 1532.34 2204.06 1537.76 Q2204.06 1543.34 2200.59 1546.44 Q2197.11 1549.52 2190.79 1549.52 Q2188.62 1549.52 2186.35 1549.15 Q2184.1 1548.78 2181.7 1548.04 L2181.7 1543.34 Q2183.78 1544.47 2186 1545.03 Q2188.23 1545.58 2190.7 1545.58 Q2194.71 1545.58 2197.04 1543.48 Q2199.38 1541.37 2199.38 1537.76 Q2199.38 1534.15 2197.04 1532.04 Q2194.71 1529.94 2190.7 1529.94 Q2188.83 1529.94 2186.95 1530.35 Q2185.1 1530.77 2183.16 1531.65 L2183.16 1514.29 Z" fill="#000000" fill-rule="evenodd" fill-opacity="1" /><polyline clip-path="url(#clip982)" style="stroke:#000000; stroke-linecap:butt; stroke-linejoin:round; stroke-width:2; stroke-opacity:0.1; fill:none" points="
  169.121,1445.72 2352.76,1445.72 
  "/>
<polyline clip-path="url(#clip982)" style="stroke:#000000; stroke-linecap:butt; stroke-linejoin:round; stroke-width:2; stroke-opacity:0.1; fill:none" points="
  169.121,1224.95 2352.76,1224.95 
  "/>
<polyline clip-path="url(#clip982)" style="stroke:#000000; stroke-linecap:butt; stroke-linejoin:round; stroke-width:2; stroke-opacity:0.1; fill:none" points="
  169.121,1004.17 2352.76,1004.17 
  "/>
<polyline clip-path="url(#clip982)" style="stroke:#000000; stroke-linecap:butt; stroke-linejoin:round; stroke-width:2; stroke-opacity:0.1; fill:none" points="
  169.121,783.404 2352.76,783.404 
  "/>
<polyline clip-path="url(#clip982)" style="stroke:#000000; stroke-linecap:butt; stroke-linejoin:round; stroke-width:2; stroke-opacity:0.1; fill:none" points="
  169.121,562.633 2352.76,562.633 
  "/>
<polyline clip-path="url(#clip982)" style="stroke:#000000; stroke-linecap:butt; stroke-linejoin:round; stroke-width:2; stroke-opacity:0.1; fill:none" points="
  169.121,341.863 2352.76,341.863 
  "/>
<polyline clip-path="url(#clip982)" style="stroke:#000000; stroke-linecap:butt; stroke-linejoin:round; stroke-width:2; stroke-opacity:0.1; fill:none" points="
  169.121,121.092 2352.76,121.092 
  "/>
<polyline clip-path="url(#clip980)" style="stroke:#000000; stroke-linecap:butt; stroke-linejoin:round; stroke-width:4; stroke-opacity:1; fill:none" points="
  169.121,1486.45 169.121,47.2441 
  "/>
<polyline clip-path="url(#clip980)" style="stroke:#000000; stroke-linecap:butt; stroke-linejoin:round; stroke-width:4; stroke-opacity:1; fill:none" points="
  169.121,1445.72 188.019,1445.72 
  "/>
<polyline clip-path="url(#clip980)" style="stroke:#000000; stroke-linecap:butt; stroke-linejoin:round; stroke-width:4; stroke-opacity:1; fill:none" points="
  169.121,1224.95 188.019,1224.95 
  "/>
<polyline clip-path="url(#clip980)" style="stroke:#000000; stroke-linecap:butt; stroke-linejoin:round; stroke-width:4; stroke-opacity:1; fill:none" points="
  169.121,1004.17 188.019,1004.17 
  "/>
<polyline clip-path="url(#clip980)" style="stroke:#000000; stroke-linecap:butt; stroke-linejoin:round; stroke-width:4; stroke-opacity:1; fill:none" points="
  169.121,783.404 188.019,783.404 
  "/>
<polyline clip-path="url(#clip980)" style="stroke:#000000; stroke-linecap:butt; stroke-linejoin:round; stroke-width:4; stroke-opacity:1; fill:none" points="
  169.121,562.633 188.019,562.633 
  "/>
<polyline clip-path="url(#clip980)" style="stroke:#000000; stroke-linecap:butt; stroke-linejoin:round; stroke-width:4; stroke-opacity:1; fill:none" points="
  169.121,341.863 188.019,341.863 
  "/>
<polyline clip-path="url(#clip980)" style="stroke:#000000; stroke-linecap:butt; stroke-linejoin:round; stroke-width:4; stroke-opacity:1; fill:none" points="
  169.121,121.092 188.019,121.092 
  "/>
<path clip-path="url(#clip980)" d="M121.177 1431.51 Q117.566 1431.51 115.737 1435.08 Q113.932 1438.62 113.932 1445.75 Q113.932 1452.86 115.737 1456.42 Q117.566 1459.96 121.177 1459.96 Q124.811 1459.96 126.617 1456.42 Q128.445 1452.86 128.445 1445.75 Q128.445 1438.62 126.617 1435.08 Q124.811 1431.51 121.177 1431.51 M121.177 1427.81 Q126.987 1427.81 130.043 1432.42 Q133.121 1437 133.121 1445.75 Q133.121 1454.48 130.043 1459.08 Q126.987 1463.67 121.177 1463.67 Q115.367 1463.67 112.288 1459.08 Q109.233 1454.48 109.233 1445.75 Q109.233 1437 112.288 1432.42 Q115.367 1427.81 121.177 1427.81 Z" fill="#000000" fill-rule="evenodd" fill-opacity="1" /><path clip-path="url(#clip980)" d="M85.0429 1238.29 L101.362 1238.29 L101.362 1242.23 L79.4179 1242.23 L79.4179 1238.29 Q82.0799 1235.54 86.6632 1230.91 Q91.2697 1226.25 92.4502 1224.91 Q94.6956 1222.39 95.5752 1220.65 Q96.478 1218.89 96.478 1217.2 Q96.478 1214.45 94.5336 1212.71 Q92.6123 1210.98 89.5104 1210.98 Q87.3114 1210.98 84.8577 1211.74 Q82.4271 1212.5 79.6494 1214.05 L79.6494 1209.33 Q82.4734 1208.2 84.9271 1207.62 Q87.3808 1207.04 89.4178 1207.04 Q94.7882 1207.04 97.9826 1209.73 Q101.177 1212.41 101.177 1216.9 Q101.177 1219.03 100.367 1220.95 Q99.5798 1222.85 97.4734 1225.44 Q96.8947 1226.11 93.7928 1229.33 Q90.691 1232.53 85.0429 1238.29 Z" fill="#000000" fill-rule="evenodd" fill-opacity="1" /><path clip-path="url(#clip980)" d="M121.177 1210.74 Q117.566 1210.74 115.737 1214.31 Q113.932 1217.85 113.932 1224.98 Q113.932 1232.09 115.737 1235.65 Q117.566 1239.19 121.177 1239.19 Q124.811 1239.19 126.617 1235.65 Q128.445 1232.09 128.445 1224.98 Q128.445 1217.85 126.617 1214.31 Q124.811 1210.74 121.177 1210.74 M121.177 1207.04 Q126.987 1207.04 130.043 1211.65 Q133.121 1216.23 133.121 1224.98 Q133.121 1233.71 130.043 1238.31 Q126.987 1242.9 121.177 1242.9 Q115.367 1242.9 112.288 1238.31 Q109.233 1233.71 109.233 1224.98 Q109.233 1216.23 112.288 1211.65 Q115.367 1207.04 121.177 1207.04 Z" fill="#000000" fill-rule="evenodd" fill-opacity="1" /><path clip-path="url(#clip980)" d="M93.8623 990.968 L82.0568 1009.42 L93.8623 1009.42 L93.8623 990.968 M92.6354 986.894 L98.515 986.894 L98.515 1009.42 L103.446 1009.42 L103.446 1013.31 L98.515 1013.31 L98.515 1021.45 L93.8623 1021.45 L93.8623 1013.31 L78.2605 1013.31 L78.2605 1008.79 L92.6354 986.894 Z" fill="#000000" fill-rule="evenodd" fill-opacity="1" /><path clip-path="url(#clip980)" d="M121.177 989.973 Q117.566 989.973 115.737 993.538 Q113.932 997.08 113.932 1004.21 Q113.932 1011.32 115.737 1014.88 Q117.566 1018.42 121.177 1018.42 Q124.811 1018.42 126.617 1014.88 Q128.445 1011.32 128.445 1004.21 Q128.445 997.08 126.617 993.538 Q124.811 989.973 121.177 989.973 M121.177 986.269 Q126.987 986.269 130.043 990.876 Q133.121 995.459 133.121 1004.21 Q133.121 1012.94 130.043 1017.54 Q126.987 1022.13 121.177 1022.13 Q115.367 1022.13 112.288 1017.54 Q109.233 1012.94 109.233 1004.21 Q109.233 995.459 112.288 990.876 Q115.367 986.269 121.177 986.269 Z" fill="#000000" fill-rule="evenodd" fill-opacity="1" /><path clip-path="url(#clip980)" d="M91.5938 781.54 Q88.4456 781.54 86.5938 783.693 Q84.7651 785.846 84.7651 789.596 Q84.7651 793.323 86.5938 795.499 Q88.4456 797.651 91.5938 797.651 Q94.7419 797.651 96.5706 795.499 Q98.4224 793.323 98.4224 789.596 Q98.4224 785.846 96.5706 783.693 Q94.7419 781.54 91.5938 781.54 M100.876 766.888 L100.876 771.147 Q99.1169 770.314 97.3113 769.874 Q95.5289 769.434 93.7697 769.434 Q89.1401 769.434 86.6864 772.559 Q84.2558 775.684 83.9086 782.003 Q85.2743 779.989 87.3345 778.925 Q89.3947 777.837 91.8715 777.837 Q97.0798 777.837 100.089 781.008 Q103.121 784.156 103.121 789.596 Q103.121 794.92 99.9733 798.137 Q96.8252 801.355 91.5938 801.355 Q85.5984 801.355 82.4271 796.772 Q79.2559 792.165 79.2559 783.439 Q79.2559 775.244 83.1447 770.383 Q87.0336 765.499 93.5845 765.499 Q95.3437 765.499 97.1261 765.846 Q98.9317 766.193 100.876 766.888 Z" fill="#000000" fill-rule="evenodd" fill-opacity="1" /><path clip-path="url(#clip980)" d="M121.177 769.202 Q117.566 769.202 115.737 772.767 Q113.932 776.309 113.932 783.439 Q113.932 790.545 115.737 794.11 Q117.566 797.651 121.177 797.651 Q124.811 797.651 126.617 794.11 Q128.445 790.545 128.445 783.439 Q128.445 776.309 126.617 772.767 Q124.811 769.202 121.177 769.202 M121.177 765.499 Q126.987 765.499 130.043 770.105 Q133.121 774.689 133.121 783.439 Q133.121 792.165 130.043 796.772 Q126.987 801.355 121.177 801.355 Q115.367 801.355 112.288 796.772 Q109.233 792.165 109.233 783.439 Q109.233 774.689 112.288 770.105 Q115.367 765.499 121.177 765.499 Z" fill="#000000" fill-rule="evenodd" fill-opacity="1" /><path clip-path="url(#clip980)" d="M91.0151 563.501 Q87.6817 563.501 85.7605 565.284 Q83.8623 567.066 83.8623 570.191 Q83.8623 573.316 85.7605 575.098 Q87.6817 576.881 91.0151 576.881 Q94.3484 576.881 96.2697 575.098 Q98.1909 573.293 98.1909 570.191 Q98.1909 567.066 96.2697 565.284 Q94.3715 563.501 91.0151 563.501 M86.3392 561.51 Q83.3299 560.77 81.6401 558.71 Q79.9735 556.649 79.9735 553.686 Q79.9735 549.543 82.9133 547.136 Q85.8762 544.728 91.0151 544.728 Q96.1771 544.728 99.1169 547.136 Q102.057 549.543 102.057 553.686 Q102.057 556.649 100.367 558.71 Q98.7002 560.77 95.7141 561.51 Q99.0937 562.297 100.969 564.589 Q102.867 566.881 102.867 570.191 Q102.867 575.214 99.7882 577.899 Q96.7326 580.584 91.0151 580.584 Q85.2975 580.584 82.2188 577.899 Q79.1633 575.214 79.1633 570.191 Q79.1633 566.881 81.0614 564.589 Q82.9595 562.297 86.3392 561.51 M84.6262 554.126 Q84.6262 556.811 86.2929 558.316 Q87.9827 559.821 91.0151 559.821 Q94.0243 559.821 95.7141 558.316 Q97.4271 556.811 97.4271 554.126 Q97.4271 551.441 95.7141 549.936 Q94.0243 548.432 91.0151 548.432 Q87.9827 548.432 86.2929 549.936 Q84.6262 551.441 84.6262 554.126 Z" fill="#000000" fill-rule="evenodd" fill-opacity="1" /><path clip-path="url(#clip980)" d="M121.177 548.432 Q117.566 548.432 115.737 551.997 Q113.932 555.538 113.932 562.668 Q113.932 569.774 115.737 573.339 Q117.566 576.881 121.177 576.881 Q124.811 576.881 126.617 573.339 Q128.445 569.774 128.445 562.668 Q128.445 555.538 126.617 551.997 Q124.811 548.432 121.177 548.432 M121.177 544.728 Q126.987 544.728 130.043 549.335 Q133.121 553.918 133.121 562.668 Q133.121 571.395 130.043 576.001 Q126.987 580.584 121.177 580.584 Q115.367 580.584 112.288 576.001 Q109.233 571.395 109.233 562.668 Q109.233 553.918 112.288 549.335 Q115.367 544.728 121.177 544.728 Z" fill="#000000" fill-rule="evenodd" fill-opacity="1" /><path clip-path="url(#clip980)" d="M51.6634 355.207 L59.3023 355.207 L59.3023 328.842 L50.9921 330.508 L50.9921 326.249 L59.256 324.583 L63.9319 324.583 L63.9319 355.207 L71.5707 355.207 L71.5707 359.143 L51.6634 359.143 L51.6634 355.207 Z" fill="#000000" fill-rule="evenodd" fill-opacity="1" /><path clip-path="url(#clip980)" d="M91.0151 327.661 Q87.404 327.661 85.5753 331.226 Q83.7697 334.768 83.7697 341.897 Q83.7697 349.004 85.5753 352.568 Q87.404 356.11 91.0151 356.11 Q94.6493 356.11 96.4548 352.568 Q98.2835 349.004 98.2835 341.897 Q98.2835 334.768 96.4548 331.226 Q94.6493 327.661 91.0151 327.661 M91.0151 323.958 Q96.8252 323.958 99.8808 328.564 Q102.959 333.147 102.959 341.897 Q102.959 350.624 99.8808 355.23 Q96.8252 359.814 91.0151 359.814 Q85.2049 359.814 82.1262 355.23 Q79.0707 350.624 79.0707 341.897 Q79.0707 333.147 82.1262 328.564 Q85.2049 323.958 91.0151 323.958 Z" fill="#000000" fill-rule="evenodd" fill-opacity="1" /><path clip-path="url(#clip980)" d="M121.177 327.661 Q117.566 327.661 115.737 331.226 Q113.932 334.768 113.932 341.897 Q113.932 349.004 115.737 352.568 Q117.566 356.11 121.177 356.11 Q124.811 356.11 126.617 352.568 Q128.445 349.004 128.445 341.897 Q128.445 334.768 126.617 331.226 Q124.811 327.661 121.177 327.661 M121.177 323.958 Q126.987 323.958 130.043 328.564 Q133.121 333.147 133.121 341.897 Q133.121 350.624 130.043 355.23 Q126.987 359.814 121.177 359.814 Q115.367 359.814 112.288 355.23 Q109.233 350.624 109.233 341.897 Q109.233 333.147 112.288 328.564 Q115.367 323.958 121.177 323.958 Z" fill="#000000" fill-rule="evenodd" fill-opacity="1" /><path clip-path="url(#clip980)" d="M51.6634 134.437 L59.3023 134.437 L59.3023 108.071 L50.9921 109.738 L50.9921 105.479 L59.256 103.812 L63.9319 103.812 L63.9319 134.437 L71.5707 134.437 L71.5707 138.372 L51.6634 138.372 L51.6634 134.437 Z" fill="#000000" fill-rule="evenodd" fill-opacity="1" /><path clip-path="url(#clip980)" d="M85.0429 134.437 L101.362 134.437 L101.362 138.372 L79.4179 138.372 L79.4179 134.437 Q82.0799 131.682 86.6632 127.052 Q91.2697 122.4 92.4502 121.057 Q94.6956 118.534 95.5752 116.798 Q96.478 115.039 96.478 113.349 Q96.478 110.594 94.5336 108.858 Q92.6123 107.122 89.5104 107.122 Q87.3114 107.122 84.8577 107.886 Q82.4271 108.65 79.6494 110.201 L79.6494 105.479 Q82.4734 104.344 84.9271 103.766 Q87.3808 103.187 89.4178 103.187 Q94.7882 103.187 97.9826 105.872 Q101.177 108.557 101.177 113.048 Q101.177 115.178 100.367 117.099 Q99.5798 118.997 97.4734 121.59 Q96.8947 122.261 93.7928 125.478 Q90.691 128.673 85.0429 134.437 Z" fill="#000000" fill-rule="evenodd" fill-opacity="1" /><path clip-path="url(#clip980)" d="M121.177 106.891 Q117.566 106.891 115.737 110.455 Q113.932 113.997 113.932 121.127 Q113.932 128.233 115.737 131.798 Q117.566 135.339 121.177 135.339 Q124.811 135.339 126.617 131.798 Q128.445 128.233 128.445 121.127 Q128.445 113.997 126.617 110.455 Q124.811 106.891 121.177 106.891 M121.177 103.187 Q126.987 103.187 130.043 107.793 Q133.121 112.377 133.121 121.127 Q133.121 129.853 130.043 134.46 Q126.987 139.043 121.177 139.043 Q115.367 139.043 112.288 134.46 Q109.233 129.853 109.233 121.127 Q109.233 112.377 112.288 107.793 Q115.367 103.187 121.177 103.187 Z" fill="#000000" fill-rule="evenodd" fill-opacity="1" /><path clip-path="url(#clip982)" d="
M289.225 1434.68 L289.225 1445.72 L366.962 1445.72 L366.962 1434.68 L289.225 1434.68 L289.225 1434.68  Z
  " fill="#009af9" fill-rule="evenodd" fill-opacity="1"/>
<polyline clip-path="url(#clip982)" style="stroke:#000000; stroke-linecap:butt; stroke-linejoin:round; stroke-width:4; stroke-opacity:1; fill:none" points="
  289.225,1434.68 289.225,1445.72 366.962,1445.72 366.962,1434.68 289.225,1434.68 
  "/>
<path clip-path="url(#clip982)" d="
M366.962 1434.68 L366.962 1445.72 L444.699 1445.72 L444.699 1434.68 L366.962 1434.68 L366.962 1434.68  Z
  " fill="#009af9" fill-rule="evenodd" fill-opacity="1"/>
<polyline clip-path="url(#clip982)" style="stroke:#000000; stroke-linecap:butt; stroke-linejoin:round; stroke-width:4; stroke-opacity:1; fill:none" points="
  366.962,1434.68 366.962,1445.72 444.699,1445.72 444.699,1434.68 366.962,1434.68 
  "/>
<path clip-path="url(#clip982)" d="
M444.699 1434.68 L444.699 1445.72 L522.436 1445.72 L522.436 1434.68 L444.699 1434.68 L444.699 1434.68  Z
  " fill="#009af9" fill-rule="evenodd" fill-opacity="1"/>
<polyline clip-path="url(#clip982)" style="stroke:#000000; stroke-linecap:butt; stroke-linejoin:round; stroke-width:4; stroke-opacity:1; fill:none" points="
  444.699,1434.68 444.699,1445.72 522.436,1445.72 522.436,1434.68 444.699,1434.68 
  "/>
<path clip-path="url(#clip982)" d="
M522.436 1412.6 L522.436 1445.72 L600.173 1445.72 L600.173 1412.6 L522.436 1412.6 L522.436 1412.6  Z
  " fill="#009af9" fill-rule="evenodd" fill-opacity="1"/>
<polyline clip-path="url(#clip982)" style="stroke:#000000; stroke-linecap:butt; stroke-linejoin:round; stroke-width:4; stroke-opacity:1; fill:none" points="
  522.436,1412.6 522.436,1445.72 600.173,1445.72 600.173,1412.6 522.436,1412.6 
  "/>
<path clip-path="url(#clip982)" d="
M600.173 1346.37 L600.173 1445.72 L677.911 1445.72 L677.911 1346.37 L600.173 1346.37 L600.173 1346.37  Z
  " fill="#009af9" fill-rule="evenodd" fill-opacity="1"/>
<polyline clip-path="url(#clip982)" style="stroke:#000000; stroke-linecap:butt; stroke-linejoin:round; stroke-width:4; stroke-opacity:1; fill:none" points="
  600.173,1346.37 600.173,1445.72 677.911,1445.72 677.911,1346.37 600.173,1346.37 
  "/>
<path clip-path="url(#clip982)" d="
M677.911 1258.06 L677.911 1445.72 L755.648 1445.72 L755.648 1258.06 L677.911 1258.06 L677.911 1258.06  Z
  " fill="#009af9" fill-rule="evenodd" fill-opacity="1"/>
<polyline clip-path="url(#clip982)" style="stroke:#000000; stroke-linecap:butt; stroke-linejoin:round; stroke-width:4; stroke-opacity:1; fill:none" points="
  677.911,1258.06 677.911,1445.72 755.648,1445.72 755.648,1258.06 677.911,1258.06 
  "/>
<path clip-path="url(#clip982)" d="
M755.648 1180.79 L755.648 1445.72 L833.385 1445.72 L833.385 1180.79 L755.648 1180.79 L755.648 1180.79  Z
  " fill="#009af9" fill-rule="evenodd" fill-opacity="1"/>
<polyline clip-path="url(#clip982)" style="stroke:#000000; stroke-linecap:butt; stroke-linejoin:round; stroke-width:4; stroke-opacity:1; fill:none" points="
  755.648,1180.79 755.648,1445.72 833.385,1445.72 833.385,1180.79 755.648,1180.79 
  "/>
<path clip-path="url(#clip982)" d="
M833.385 838.596 L833.385 1445.72 L911.122 1445.72 L911.122 838.596 L833.385 838.596 L833.385 838.596  Z
  " fill="#009af9" fill-rule="evenodd" fill-opacity="1"/>
<polyline clip-path="url(#clip982)" style="stroke:#000000; stroke-linecap:butt; stroke-linejoin:round; stroke-width:4; stroke-opacity:1; fill:none" points="
  833.385,838.596 833.385,1445.72 911.122,1445.72 911.122,838.596 833.385,838.596 
  "/>
<path clip-path="url(#clip982)" d="
M911.122 673.018 L911.122 1445.72 L988.859 1445.72 L988.859 673.018 L911.122 673.018 L911.122 673.018  Z
  " fill="#009af9" fill-rule="evenodd" fill-opacity="1"/>
<polyline clip-path="url(#clip982)" style="stroke:#000000; stroke-linecap:butt; stroke-linejoin:round; stroke-width:4; stroke-opacity:1; fill:none" points="
  911.122,673.018 911.122,1445.72 988.859,1445.72 988.859,673.018 911.122,673.018 
  "/>
<path clip-path="url(#clip982)" d="
M988.859 374.978 L988.859 1445.72 L1066.6 1445.72 L1066.6 374.978 L988.859 374.978 L988.859 374.978  Z
  " fill="#009af9" fill-rule="evenodd" fill-opacity="1"/>
<polyline clip-path="url(#clip982)" style="stroke:#000000; stroke-linecap:butt; stroke-linejoin:round; stroke-width:4; stroke-opacity:1; fill:none" points="
  988.859,374.978 988.859,1445.72 1066.6,1445.72 1066.6,374.978 988.859,374.978 
  "/>
<path clip-path="url(#clip982)" d="
M1066.6 264.593 L1066.6 1445.72 L1144.33 1445.72 L1144.33 264.593 L1066.6 264.593 L1066.6 264.593  Z
  " fill="#009af9" fill-rule="evenodd" fill-opacity="1"/>
<polyline clip-path="url(#clip982)" style="stroke:#000000; stroke-linecap:butt; stroke-linejoin:round; stroke-width:4; stroke-opacity:1; fill:none" points="
  1066.6,264.593 1066.6,1445.72 1144.33,1445.72 1144.33,264.593 1066.6,264.593 
  "/>
<path clip-path="url(#clip982)" d="
M1144.33 87.9763 L1144.33 1445.72 L1222.07 1445.72 L1222.07 87.9763 L1144.33 87.9763 L1144.33 87.9763  Z
  " fill="#009af9" fill-rule="evenodd" fill-opacity="1"/>
<polyline clip-path="url(#clip982)" style="stroke:#000000; stroke-linecap:butt; stroke-linejoin:round; stroke-width:4; stroke-opacity:1; fill:none" points="
  1144.33,87.9763 1144.33,1445.72 1222.07,1445.72 1222.07,87.9763 1144.33,87.9763 
  "/>
<path clip-path="url(#clip982)" d="
M1222.07 198.362 L1222.07 1445.72 L1299.81 1445.72 L1299.81 198.362 L1222.07 198.362 L1222.07 198.362  Z
  " fill="#009af9" fill-rule="evenodd" fill-opacity="1"/>
<polyline clip-path="url(#clip982)" style="stroke:#000000; stroke-linecap:butt; stroke-linejoin:round; stroke-width:4; stroke-opacity:1; fill:none" points="
  1222.07,198.362 1222.07,1445.72 1299.81,1445.72 1299.81,198.362 1222.07,198.362 
  "/>
<path clip-path="url(#clip982)" d="
M1299.81 408.094 L1299.81 1445.72 L1377.54 1445.72 L1377.54 408.094 L1299.81 408.094 L1299.81 408.094  Z
  " fill="#009af9" fill-rule="evenodd" fill-opacity="1"/>
<polyline clip-path="url(#clip982)" style="stroke:#000000; stroke-linecap:butt; stroke-linejoin:round; stroke-width:4; stroke-opacity:1; fill:none" points="
  1299.81,408.094 1299.81,1445.72 1377.54,1445.72 1377.54,408.094 1299.81,408.094 
  "/>
<path clip-path="url(#clip982)" d="
M1377.54 363.94 L1377.54 1445.72 L1455.28 1445.72 L1455.28 363.94 L1377.54 363.94 L1377.54 363.94  Z
  " fill="#009af9" fill-rule="evenodd" fill-opacity="1"/>
<polyline clip-path="url(#clip982)" style="stroke:#000000; stroke-linecap:butt; stroke-linejoin:round; stroke-width:4; stroke-opacity:1; fill:none" points="
  1377.54,363.94 1377.54,1445.72 1455.28,1445.72 1455.28,363.94 1377.54,363.94 
  "/>
<path clip-path="url(#clip982)" d="
M1455.28 717.173 L1455.28 1445.72 L1533.02 1445.72 L1533.02 717.173 L1455.28 717.173 L1455.28 717.173  Z
  " fill="#009af9" fill-rule="evenodd" fill-opacity="1"/>
<polyline clip-path="url(#clip982)" style="stroke:#000000; stroke-linecap:butt; stroke-linejoin:round; stroke-width:4; stroke-opacity:1; fill:none" points="
  1455.28,717.173 1455.28,1445.72 1533.02,1445.72 1533.02,717.173 1455.28,717.173 
  "/>
<path clip-path="url(#clip982)" d="
M1533.02 860.674 L1533.02 1445.72 L1610.76 1445.72 L1610.76 860.674 L1533.02 860.674 L1533.02 860.674  Z
  " fill="#009af9" fill-rule="evenodd" fill-opacity="1"/>
<polyline clip-path="url(#clip982)" style="stroke:#000000; stroke-linecap:butt; stroke-linejoin:round; stroke-width:4; stroke-opacity:1; fill:none" points="
  1533.02,860.674 1533.02,1445.72 1610.76,1445.72 1610.76,860.674 1533.02,860.674 
  "/>
<path clip-path="url(#clip982)" d="
M1610.76 1158.71 L1610.76 1445.72 L1688.49 1445.72 L1688.49 1158.71 L1610.76 1158.71 L1610.76 1158.71  Z
  " fill="#009af9" fill-rule="evenodd" fill-opacity="1"/>
<polyline clip-path="url(#clip982)" style="stroke:#000000; stroke-linecap:butt; stroke-linejoin:round; stroke-width:4; stroke-opacity:1; fill:none" points="
  1610.76,1158.71 1610.76,1445.72 1688.49,1445.72 1688.49,1158.71 1610.76,1158.71 
  "/>
<path clip-path="url(#clip982)" d="
M1688.49 1169.75 L1688.49 1445.72 L1766.23 1445.72 L1766.23 1169.75 L1688.49 1169.75 L1688.49 1169.75  Z
  " fill="#009af9" fill-rule="evenodd" fill-opacity="1"/>
<polyline clip-path="url(#clip982)" style="stroke:#000000; stroke-linecap:butt; stroke-linejoin:round; stroke-width:4; stroke-opacity:1; fill:none" points="
  1688.49,1169.75 1688.49,1445.72 1766.23,1445.72 1766.23,1169.75 1688.49,1169.75 
  "/>
<path clip-path="url(#clip982)" d="
M1766.23 1324.29 L1766.23 1445.72 L1843.97 1445.72 L1843.97 1324.29 L1766.23 1324.29 L1766.23 1324.29  Z
  " fill="#009af9" fill-rule="evenodd" fill-opacity="1"/>
<polyline clip-path="url(#clip982)" style="stroke:#000000; stroke-linecap:butt; stroke-linejoin:round; stroke-width:4; stroke-opacity:1; fill:none" points="
  1766.23,1324.29 1766.23,1445.72 1843.97,1445.72 1843.97,1324.29 1766.23,1324.29 
  "/>
<path clip-path="url(#clip982)" d="
M1843.97 1412.6 L1843.97 1445.72 L1921.7 1445.72 L1921.7 1412.6 L1843.97 1412.6 L1843.97 1412.6  Z
  " fill="#009af9" fill-rule="evenodd" fill-opacity="1"/>
<polyline clip-path="url(#clip982)" style="stroke:#000000; stroke-linecap:butt; stroke-linejoin:round; stroke-width:4; stroke-opacity:1; fill:none" points="
  1843.97,1412.6 1843.97,1445.72 1921.7,1445.72 1921.7,1412.6 1843.97,1412.6 
  "/>
<path clip-path="url(#clip982)" d="
M1921.7 1423.64 L1921.7 1445.72 L1999.44 1445.72 L1999.44 1423.64 L1921.7 1423.64 L1921.7 1423.64  Z
  " fill="#009af9" fill-rule="evenodd" fill-opacity="1"/>
<polyline clip-path="url(#clip982)" style="stroke:#000000; stroke-linecap:butt; stroke-linejoin:round; stroke-width:4; stroke-opacity:1; fill:none" points="
  1921.7,1423.64 1921.7,1445.72 1999.44,1445.72 1999.44,1423.64 1921.7,1423.64 
  "/>
<path clip-path="url(#clip982)" d="
M1999.44 1445.72 L1999.44 1445.72 L2077.18 1445.72 L2077.18 1445.72 L1999.44 1445.72 L1999.44 1445.72  Z
  " fill="#009af9" fill-rule="evenodd" fill-opacity="1"/>
<polyline clip-path="url(#clip982)" style="stroke:#000000; stroke-linecap:butt; stroke-linejoin:round; stroke-width:4; stroke-opacity:1; fill:none" points="
  1999.44,1445.72 1999.44,1445.72 2077.18,1445.72 1999.44,1445.72 
  "/>
<path clip-path="url(#clip982)" d="
M2077.18 1445.72 L2077.18 1445.72 L2154.92 1445.72 L2154.92 1445.72 L2077.18 1445.72 L2077.18 1445.72  Z
  " fill="#009af9" fill-rule="evenodd" fill-opacity="1"/>
<polyline clip-path="url(#clip982)" style="stroke:#000000; stroke-linecap:butt; stroke-linejoin:round; stroke-width:4; stroke-opacity:1; fill:none" points="
  2077.18,1445.72 2077.18,1445.72 2154.92,1445.72 2077.18,1445.72 
  "/>
<path clip-path="url(#clip982)" d="
M2154.92 1434.68 L2154.92 1445.72 L2232.65 1445.72 L2232.65 1434.68 L2154.92 1434.68 L2154.92 1434.68  Z
  " fill="#009af9" fill-rule="evenodd" fill-opacity="1"/>
<polyline clip-path="url(#clip982)" style="stroke:#000000; stroke-linecap:butt; stroke-linejoin:round; stroke-width:4; stroke-opacity:1; fill:none" points="
  2154.92,1434.68 2154.92,1445.72 2232.65,1445.72 2232.65,1434.68 2154.92,1434.68 
  "/>
<circle clip-path="url(#clip982)" style="fill:#009af9; stroke:none; fill-opacity:0" cx="328.094" cy="1434.68" r="2"/>
<circle clip-path="url(#clip982)" style="fill:#009af9; stroke:none; fill-opacity:0" cx="405.831" cy="1434.68" r="2"/>
<circle clip-path="url(#clip982)" style="fill:#009af9; stroke:none; fill-opacity:0" cx="483.568" cy="1434.68" r="2"/>
<circle clip-path="url(#clip982)" style="fill:#009af9; stroke:none; fill-opacity:0" cx="561.305" cy="1412.6" r="2"/>
<circle clip-path="url(#clip982)" style="fill:#009af9; stroke:none; fill-opacity:0" cx="639.042" cy="1346.37" r="2"/>
<circle clip-path="url(#clip982)" style="fill:#009af9; stroke:none; fill-opacity:0" cx="716.779" cy="1258.06" r="2"/>
<circle clip-path="url(#clip982)" style="fill:#009af9; stroke:none; fill-opacity:0" cx="794.516" cy="1180.79" r="2"/>
<circle clip-path="url(#clip982)" style="fill:#009af9; stroke:none; fill-opacity:0" cx="872.253" cy="838.596" r="2"/>
<circle clip-path="url(#clip982)" style="fill:#009af9; stroke:none; fill-opacity:0" cx="949.99" cy="673.018" r="2"/>
<circle clip-path="url(#clip982)" style="fill:#009af9; stroke:none; fill-opacity:0" cx="1027.73" cy="374.978" r="2"/>
<circle clip-path="url(#clip982)" style="fill:#009af9; stroke:none; fill-opacity:0" cx="1105.46" cy="264.593" r="2"/>
<circle clip-path="url(#clip982)" style="fill:#009af9; stroke:none; fill-opacity:0" cx="1183.2" cy="87.9763" r="2"/>
<circle clip-path="url(#clip982)" style="fill:#009af9; stroke:none; fill-opacity:0" cx="1260.94" cy="198.362" r="2"/>
<circle clip-path="url(#clip982)" style="fill:#009af9; stroke:none; fill-opacity:0" cx="1338.68" cy="408.094" r="2"/>
<circle clip-path="url(#clip982)" style="fill:#009af9; stroke:none; fill-opacity:0" cx="1416.41" cy="363.94" r="2"/>
<circle clip-path="url(#clip982)" style="fill:#009af9; stroke:none; fill-opacity:0" cx="1494.15" cy="717.173" r="2"/>
<circle clip-path="url(#clip982)" style="fill:#009af9; stroke:none; fill-opacity:0" cx="1571.89" cy="860.674" r="2"/>
<circle clip-path="url(#clip982)" style="fill:#009af9; stroke:none; fill-opacity:0" cx="1649.62" cy="1158.71" r="2"/>
<circle clip-path="url(#clip982)" style="fill:#009af9; stroke:none; fill-opacity:0" cx="1727.36" cy="1169.75" r="2"/>
<circle clip-path="url(#clip982)" style="fill:#009af9; stroke:none; fill-opacity:0" cx="1805.1" cy="1324.29" r="2"/>
<circle clip-path="url(#clip982)" style="fill:#009af9; stroke:none; fill-opacity:0" cx="1882.84" cy="1412.6" r="2"/>
<circle clip-path="url(#clip982)" style="fill:#009af9; stroke:none; fill-opacity:0" cx="1960.57" cy="1423.64" r="2"/>
<circle clip-path="url(#clip982)" style="fill:#009af9; stroke:none; fill-opacity:0" cx="2038.31" cy="1445.72" r="2"/>
<circle clip-path="url(#clip982)" style="fill:#009af9; stroke:none; fill-opacity:0" cx="2116.05" cy="1445.72" r="2"/>
<circle clip-path="url(#clip982)" style="fill:#009af9; stroke:none; fill-opacity:0" cx="2193.78" cy="1434.68" r="2"/>
<path clip-path="url(#clip982)" d="
M794.516 1390.52 L794.516 1445.72 L833.385 1445.72 L833.385 1390.52 L794.516 1390.52 L794.516 1390.52  Z
  " fill="#e26f46" fill-rule="evenodd" fill-opacity="1"/>
<polyline clip-path="url(#clip982)" style="stroke:#000000; stroke-linecap:butt; stroke-linejoin:round; stroke-width:4; stroke-opacity:1; fill:none" points="
  794.516,1390.52 794.516,1445.72 833.385,1445.72 833.385,1390.52 794.516,1390.52 
  "/>
<path clip-path="url(#clip982)" d="
M833.385 1401.56 L833.385 1445.72 L872.253 1445.72 L872.253 1401.56 L833.385 1401.56 L833.385 1401.56  Z
  " fill="#e26f46" fill-rule="evenodd" fill-opacity="1"/>
<polyline clip-path="url(#clip982)" style="stroke:#000000; stroke-linecap:butt; stroke-linejoin:round; stroke-width:4; stroke-opacity:1; fill:none" points="
  833.385,1401.56 833.385,1445.72 872.253,1445.72 872.253,1401.56 833.385,1401.56 
  "/>
<path clip-path="url(#clip982)" d="
M872.253 1313.25 L872.253 1445.72 L911.122 1445.72 L911.122 1313.25 L872.253 1313.25 L872.253 1313.25  Z
  " fill="#e26f46" fill-rule="evenodd" fill-opacity="1"/>
<polyline clip-path="url(#clip982)" style="stroke:#000000; stroke-linecap:butt; stroke-linejoin:round; stroke-width:4; stroke-opacity:1; fill:none" points="
  872.253,1313.25 872.253,1445.72 911.122,1445.72 911.122,1313.25 872.253,1313.25 
  "/>
<path clip-path="url(#clip982)" d="
M911.122 1247.02 L911.122 1445.72 L949.99 1445.72 L949.99 1247.02 L911.122 1247.02 L911.122 1247.02  Z
  " fill="#e26f46" fill-rule="evenodd" fill-opacity="1"/>
<polyline clip-path="url(#clip982)" style="stroke:#000000; stroke-linecap:butt; stroke-linejoin:round; stroke-width:4; stroke-opacity:1; fill:none" points="
  911.122,1247.02 911.122,1445.72 949.99,1445.72 949.99,1247.02 911.122,1247.02 
  "/>
<path clip-path="url(#clip982)" d="
M949.99 1269.1 L949.99 1445.72 L988.859 1445.72 L988.859 1269.1 L949.99 1269.1 L949.99 1269.1  Z
  " fill="#e26f46" fill-rule="evenodd" fill-opacity="1"/>
<polyline clip-path="url(#clip982)" style="stroke:#000000; stroke-linecap:butt; stroke-linejoin:round; stroke-width:4; stroke-opacity:1; fill:none" points="
  949.99,1269.1 949.99,1445.72 988.859,1445.72 988.859,1269.1 949.99,1269.1 
  "/>
<path clip-path="url(#clip982)" d="
M988.859 960.02 L988.859 1445.72 L1027.73 1445.72 L1027.73 960.02 L988.859 960.02 L988.859 960.02  Z
  " fill="#e26f46" fill-rule="evenodd" fill-opacity="1"/>
<polyline clip-path="url(#clip982)" style="stroke:#000000; stroke-linecap:butt; stroke-linejoin:round; stroke-width:4; stroke-opacity:1; fill:none" points="
  988.859,960.02 988.859,1445.72 1027.73,1445.72 1027.73,960.02 988.859,960.02 
  "/>
<path clip-path="url(#clip982)" d="
M1027.73 882.751 L1027.73 1445.72 L1066.6 1445.72 L1066.6 882.751 L1027.73 882.751 L1027.73 882.751  Z
  " fill="#e26f46" fill-rule="evenodd" fill-opacity="1"/>
<polyline clip-path="url(#clip982)" style="stroke:#000000; stroke-linecap:butt; stroke-linejoin:round; stroke-width:4; stroke-opacity:1; fill:none" points="
  1027.73,882.751 1027.73,1445.72 1066.6,1445.72 1066.6,882.751 1027.73,882.751 
  "/>
<path clip-path="url(#clip982)" d="
M1066.6 529.518 L1066.6 1445.72 L1105.46 1445.72 L1105.46 529.518 L1066.6 529.518 L1066.6 529.518  Z
  " fill="#e26f46" fill-rule="evenodd" fill-opacity="1"/>
<polyline clip-path="url(#clip982)" style="stroke:#000000; stroke-linecap:butt; stroke-linejoin:round; stroke-width:4; stroke-opacity:1; fill:none" points="
  1066.6,529.518 1066.6,1445.72 1105.46,1445.72 1105.46,529.518 1066.6,529.518 
  "/>
<path clip-path="url(#clip982)" d="
M1105.46 452.248 L1105.46 1445.72 L1144.33 1445.72 L1144.33 452.248 L1105.46 452.248 L1105.46 452.248  Z
  " fill="#e26f46" fill-rule="evenodd" fill-opacity="1"/>
<polyline clip-path="url(#clip982)" style="stroke:#000000; stroke-linecap:butt; stroke-linejoin:round; stroke-width:4; stroke-opacity:1; fill:none" points="
  1105.46,452.248 1105.46,1445.72 1144.33,1445.72 1144.33,452.248 1105.46,452.248 
  "/>
<path clip-path="url(#clip982)" d="
M1144.33 463.286 L1144.33 1445.72 L1183.2 1445.72 L1183.2 463.286 L1144.33 463.286 L1144.33 463.286  Z
  " fill="#e26f46" fill-rule="evenodd" fill-opacity="1"/>
<polyline clip-path="url(#clip982)" style="stroke:#000000; stroke-linecap:butt; stroke-linejoin:round; stroke-width:4; stroke-opacity:1; fill:none" points="
  1144.33,463.286 1144.33,1445.72 1183.2,1445.72 1183.2,463.286 1144.33,463.286 
  "/>
<path clip-path="url(#clip982)" d="
M1183.2 341.863 L1183.2 1445.72 L1222.07 1445.72 L1222.07 341.863 L1183.2 341.863 L1183.2 341.863  Z
  " fill="#e26f46" fill-rule="evenodd" fill-opacity="1"/>
<polyline clip-path="url(#clip982)" style="stroke:#000000; stroke-linecap:butt; stroke-linejoin:round; stroke-width:4; stroke-opacity:1; fill:none" points="
  1183.2,341.863 1183.2,1445.72 1222.07,1445.72 1222.07,341.863 1183.2,341.863 
  "/>
<path clip-path="url(#clip982)" d="
M1222.07 386.017 L1222.07 1445.72 L1260.94 1445.72 L1260.94 386.017 L1222.07 386.017 L1222.07 386.017  Z
  " fill="#e26f46" fill-rule="evenodd" fill-opacity="1"/>
<polyline clip-path="url(#clip982)" style="stroke:#000000; stroke-linecap:butt; stroke-linejoin:round; stroke-width:4; stroke-opacity:1; fill:none" points="
  1222.07,386.017 1222.07,1445.72 1260.94,1445.72 1260.94,386.017 1222.07,386.017 
  "/>
<path clip-path="url(#clip982)" d="
M1260.94 474.325 L1260.94 1445.72 L1299.81 1445.72 L1299.81 474.325 L1260.94 474.325 L1260.94 474.325  Z
  " fill="#e26f46" fill-rule="evenodd" fill-opacity="1"/>
<polyline clip-path="url(#clip982)" style="stroke:#000000; stroke-linecap:butt; stroke-linejoin:round; stroke-width:4; stroke-opacity:1; fill:none" points="
  1260.94,474.325 1260.94,1445.72 1299.81,1445.72 1299.81,474.325 1260.94,474.325 
  "/>
<path clip-path="url(#clip982)" d="
M1299.81 562.633 L1299.81 1445.72 L1338.68 1445.72 L1338.68 562.633 L1299.81 562.633 L1299.81 562.633  Z
  " fill="#e26f46" fill-rule="evenodd" fill-opacity="1"/>
<polyline clip-path="url(#clip982)" style="stroke:#000000; stroke-linecap:butt; stroke-linejoin:round; stroke-width:4; stroke-opacity:1; fill:none" points="
  1299.81,562.633 1299.81,1445.72 1338.68,1445.72 1338.68,562.633 1299.81,562.633 
  "/>
<path clip-path="url(#clip982)" d="
M1338.68 584.71 L1338.68 1445.72 L1377.54 1445.72 L1377.54 584.71 L1338.68 584.71 L1338.68 584.71  Z
  " fill="#e26f46" fill-rule="evenodd" fill-opacity="1"/>
<polyline clip-path="url(#clip982)" style="stroke:#000000; stroke-linecap:butt; stroke-linejoin:round; stroke-width:4; stroke-opacity:1; fill:none" points="
  1338.68,584.71 1338.68,1445.72 1377.54,1445.72 1377.54,584.71 1338.68,584.71 
  "/>
<path clip-path="url(#clip982)" d="
M1377.54 849.635 L1377.54 1445.72 L1416.41 1445.72 L1416.41 849.635 L1377.54 849.635 L1377.54 849.635  Z
  " fill="#e26f46" fill-rule="evenodd" fill-opacity="1"/>
<polyline clip-path="url(#clip982)" style="stroke:#000000; stroke-linecap:butt; stroke-linejoin:round; stroke-width:4; stroke-opacity:1; fill:none" points="
  1377.54,849.635 1377.54,1445.72 1416.41,1445.72 1416.41,849.635 1377.54,849.635 
  "/>
<path clip-path="url(#clip982)" d="
M1416.41 1081.44 L1416.41 1445.72 L1455.28 1445.72 L1455.28 1081.44 L1416.41 1081.44 L1416.41 1081.44  Z
  " fill="#e26f46" fill-rule="evenodd" fill-opacity="1"/>
<polyline clip-path="url(#clip982)" style="stroke:#000000; stroke-linecap:butt; stroke-linejoin:round; stroke-width:4; stroke-opacity:1; fill:none" points="
  1416.41,1081.44 1416.41,1445.72 1455.28,1445.72 1455.28,1081.44 1416.41,1081.44 
  "/>
<path clip-path="url(#clip982)" d="
M1455.28 1081.44 L1455.28 1445.72 L1494.15 1445.72 L1494.15 1081.44 L1455.28 1081.44 L1455.28 1081.44  Z
  " fill="#e26f46" fill-rule="evenodd" fill-opacity="1"/>
<polyline clip-path="url(#clip982)" style="stroke:#000000; stroke-linecap:butt; stroke-linejoin:round; stroke-width:4; stroke-opacity:1; fill:none" points="
  1455.28,1081.44 1455.28,1445.72 1494.15,1445.72 1494.15,1081.44 1455.28,1081.44 
  "/>
<path clip-path="url(#clip982)" d="
M1494.15 1313.25 L1494.15 1445.72 L1533.02 1445.72 L1533.02 1313.25 L1494.15 1313.25 L1494.15 1313.25  Z
  " fill="#e26f46" fill-rule="evenodd" fill-opacity="1"/>
<polyline clip-path="url(#clip982)" style="stroke:#000000; stroke-linecap:butt; stroke-linejoin:round; stroke-width:4; stroke-opacity:1; fill:none" points="
  1494.15,1313.25 1494.15,1445.72 1533.02,1445.72 1533.02,1313.25 1494.15,1313.25 
  "/>
<path clip-path="url(#clip982)" d="
M1533.02 1401.56 L1533.02 1445.72 L1571.89 1445.72 L1571.89 1401.56 L1533.02 1401.56 L1533.02 1401.56  Z
  " fill="#e26f46" fill-rule="evenodd" fill-opacity="1"/>
<polyline clip-path="url(#clip982)" style="stroke:#000000; stroke-linecap:butt; stroke-linejoin:round; stroke-width:4; stroke-opacity:1; fill:none" points="
  1533.02,1401.56 1533.02,1445.72 1571.89,1445.72 1571.89,1401.56 1533.02,1401.56 
  "/>
<path clip-path="url(#clip982)" d="
M1571.89 1357.41 L1571.89 1445.72 L1610.76 1445.72 L1610.76 1357.41 L1571.89 1357.41 L1571.89 1357.41  Z
  " fill="#e26f46" fill-rule="evenodd" fill-opacity="1"/>
<polyline clip-path="url(#clip982)" style="stroke:#000000; stroke-linecap:butt; stroke-linejoin:round; stroke-width:4; stroke-opacity:1; fill:none" points="
  1571.89,1357.41 1571.89,1445.72 1610.76,1445.72 1610.76,1357.41 1571.89,1357.41 
  "/>
<path clip-path="url(#clip982)" d="
M1610.76 1434.68 L1610.76 1445.72 L1649.62 1445.72 L1649.62 1434.68 L1610.76 1434.68 L1610.76 1434.68  Z
  " fill="#e26f46" fill-rule="evenodd" fill-opacity="1"/>
<polyline clip-path="url(#clip982)" style="stroke:#000000; stroke-linecap:butt; stroke-linejoin:round; stroke-width:4; stroke-opacity:1; fill:none" points="
  1610.76,1434.68 1610.76,1445.72 1649.62,1445.72 1649.62,1434.68 1610.76,1434.68 
  "/>
<path clip-path="url(#clip982)" d="
M1649.62 1434.68 L1649.62 1445.72 L1688.49 1445.72 L1688.49 1434.68 L1649.62 1434.68 L1649.62 1434.68  Z
  " fill="#e26f46" fill-rule="evenodd" fill-opacity="1"/>
<polyline clip-path="url(#clip982)" style="stroke:#000000; stroke-linecap:butt; stroke-linejoin:round; stroke-width:4; stroke-opacity:1; fill:none" points="
  1649.62,1434.68 1649.62,1445.72 1688.49,1445.72 1688.49,1434.68 1649.62,1434.68 
  "/>
<circle clip-path="url(#clip982)" style="fill:#e26f46; stroke:none; fill-opacity:0" cx="813.95" cy="1390.52" r="2"/>
<circle clip-path="url(#clip982)" style="fill:#e26f46; stroke:none; fill-opacity:0" cx="852.819" cy="1401.56" r="2"/>
<circle clip-path="url(#clip982)" style="fill:#e26f46; stroke:none; fill-opacity:0" cx="891.687" cy="1313.25" r="2"/>
<circle clip-path="url(#clip982)" style="fill:#e26f46; stroke:none; fill-opacity:0" cx="930.556" cy="1247.02" r="2"/>
<circle clip-path="url(#clip982)" style="fill:#e26f46; stroke:none; fill-opacity:0" cx="969.425" cy="1269.1" r="2"/>
<circle clip-path="url(#clip982)" style="fill:#e26f46; stroke:none; fill-opacity:0" cx="1008.29" cy="960.02" r="2"/>
<circle clip-path="url(#clip982)" style="fill:#e26f46; stroke:none; fill-opacity:0" cx="1047.16" cy="882.751" r="2"/>
<circle clip-path="url(#clip982)" style="fill:#e26f46; stroke:none; fill-opacity:0" cx="1086.03" cy="529.518" r="2"/>
<circle clip-path="url(#clip982)" style="fill:#e26f46; stroke:none; fill-opacity:0" cx="1124.9" cy="452.248" r="2"/>
<circle clip-path="url(#clip982)" style="fill:#e26f46; stroke:none; fill-opacity:0" cx="1163.77" cy="463.286" r="2"/>
<circle clip-path="url(#clip982)" style="fill:#e26f46; stroke:none; fill-opacity:0" cx="1202.64" cy="341.863" r="2"/>
<circle clip-path="url(#clip982)" style="fill:#e26f46; stroke:none; fill-opacity:0" cx="1241.5" cy="386.017" r="2"/>
<circle clip-path="url(#clip982)" style="fill:#e26f46; stroke:none; fill-opacity:0" cx="1280.37" cy="474.325" r="2"/>
<circle clip-path="url(#clip982)" style="fill:#e26f46; stroke:none; fill-opacity:0" cx="1319.24" cy="562.633" r="2"/>
<circle clip-path="url(#clip982)" style="fill:#e26f46; stroke:none; fill-opacity:0" cx="1358.11" cy="584.71" r="2"/>
<circle clip-path="url(#clip982)" style="fill:#e26f46; stroke:none; fill-opacity:0" cx="1396.98" cy="849.635" r="2"/>
<circle clip-path="url(#clip982)" style="fill:#e26f46; stroke:none; fill-opacity:0" cx="1435.85" cy="1081.44" r="2"/>
<circle clip-path="url(#clip982)" style="fill:#e26f46; stroke:none; fill-opacity:0" cx="1474.72" cy="1081.44" r="2"/>
<circle clip-path="url(#clip982)" style="fill:#e26f46; stroke:none; fill-opacity:0" cx="1513.58" cy="1313.25" r="2"/>
<circle clip-path="url(#clip982)" style="fill:#e26f46; stroke:none; fill-opacity:0" cx="1552.45" cy="1401.56" r="2"/>
<circle clip-path="url(#clip982)" style="fill:#e26f46; stroke:none; fill-opacity:0" cx="1591.32" cy="1357.41" r="2"/>
<circle clip-path="url(#clip982)" style="fill:#e26f46; stroke:none; fill-opacity:0" cx="1630.19" cy="1434.68" r="2"/>
<circle clip-path="url(#clip982)" style="fill:#e26f46; stroke:none; fill-opacity:0" cx="1669.06" cy="1434.68" r="2"/>
<path clip-path="url(#clip980)" d="
M1746.26 250.738 L2279.97 250.738 L2279.97 95.2176 L1746.26 95.2176  Z
  " fill="#ffffff" fill-rule="evenodd" fill-opacity="1"/>
<polyline clip-path="url(#clip980)" style="stroke:#000000; stroke-linecap:butt; stroke-linejoin:round; stroke-width:4; stroke-opacity:1; fill:none" points="
  1746.26,250.738 2279.97,250.738 2279.97,95.2176 1746.26,95.2176 1746.26,250.738 
  "/>
<path clip-path="url(#clip980)" d="
M1770.52 167.794 L1916.09 167.794 L1916.09 126.322 L1770.52 126.322 L1770.52 167.794  Z
  " fill="#009af9" fill-rule="evenodd" fill-opacity="1"/>
<polyline clip-path="url(#clip980)" style="stroke:#000000; stroke-linecap:butt; stroke-linejoin:round; stroke-width:4; stroke-opacity:1; fill:none" points="
  1770.52,167.794 1916.09,167.794 1916.09,126.322 1770.52,126.322 1770.52,167.794 
  "/>
<path clip-path="url(#clip980)" d="M1956.75 148.134 Q1958.25 148.643 1959.66 150.31 Q1961.1 151.977 1962.53 154.893 L1967.28 164.338 L1962.25 164.338 L1957.83 155.472 Q1956.12 152 1954.5 150.865 Q1952.9 149.731 1950.12 149.731 L1945.03 149.731 L1945.03 164.338 L1940.36 164.338 L1940.36 129.778 L1950.91 129.778 Q1956.84 129.778 1959.75 132.254 Q1962.67 134.731 1962.67 139.731 Q1962.67 142.995 1961.14 145.148 Q1959.64 147.301 1956.75 148.134 M1945.03 133.62 L1945.03 145.889 L1950.91 145.889 Q1954.29 145.889 1956 144.338 Q1957.74 142.764 1957.74 139.731 Q1957.74 136.699 1956 135.171 Q1954.29 133.62 1950.91 133.62 L1945.03 133.62 Z" fill="#000000" fill-rule="evenodd" fill-opacity="1" /><path clip-path="url(#clip980)" d="M1988.74 142.81 L2018.41 142.81 L2018.41 146.699 L1988.74 146.699 L1988.74 142.81 M1988.74 152.254 L2018.41 152.254 L2018.41 156.189 L1988.74 156.189 L1988.74 152.254 Z" fill="#000000" fill-rule="evenodd" fill-opacity="1" /><path clip-path="url(#clip980)" d="M2053.57 132.856 Q2049.96 132.856 2048.13 136.421 Q2046.33 139.963 2046.33 147.092 Q2046.33 154.199 2048.13 157.764 Q2049.96 161.305 2053.57 161.305 Q2057.21 161.305 2059.01 157.764 Q2060.84 154.199 2060.84 147.092 Q2060.84 139.963 2059.01 136.421 Q2057.21 132.856 2053.57 132.856 M2053.57 129.153 Q2059.38 129.153 2062.44 133.759 Q2065.52 138.342 2065.52 147.092 Q2065.52 155.819 2062.44 160.426 Q2059.38 165.009 2053.57 165.009 Q2047.76 165.009 2044.68 160.426 Q2041.63 155.819 2041.63 147.092 Q2041.63 138.342 2044.68 133.759 Q2047.76 129.153 2053.57 129.153 Z" fill="#000000" fill-rule="evenodd" fill-opacity="1" /><path clip-path="url(#clip980)" d="M2073.74 158.458 L2078.62 158.458 L2078.62 164.338 L2073.74 164.338 L2073.74 158.458 Z" fill="#000000" fill-rule="evenodd" fill-opacity="1" /><path clip-path="url(#clip980)" d="M2098.8 132.856 Q2095.19 132.856 2093.36 136.421 Q2091.56 139.963 2091.56 147.092 Q2091.56 154.199 2093.36 157.764 Q2095.19 161.305 2098.8 161.305 Q2102.44 161.305 2104.24 157.764 Q2106.07 154.199 2106.07 147.092 Q2106.07 139.963 2104.24 136.421 Q2102.44 132.856 2098.8 132.856 M2098.8 129.153 Q2104.61 129.153 2107.67 133.759 Q2110.75 138.342 2110.75 147.092 Q2110.75 155.819 2107.67 160.426 Q2104.61 165.009 2098.8 165.009 Q2092.99 165.009 2089.92 160.426 Q2086.86 155.819 2086.86 147.092 Q2086.86 138.342 2089.92 133.759 Q2092.99 129.153 2098.8 129.153 Z" fill="#000000" fill-rule="evenodd" fill-opacity="1" /><path clip-path="url(#clip980)" d="M2128.97 132.856 Q2125.36 132.856 2123.53 136.421 Q2121.72 139.963 2121.72 147.092 Q2121.72 154.199 2123.53 157.764 Q2125.36 161.305 2128.97 161.305 Q2132.6 161.305 2134.41 157.764 Q2136.24 154.199 2136.24 147.092 Q2136.24 139.963 2134.41 136.421 Q2132.6 132.856 2128.97 132.856 M2128.97 129.153 Q2134.78 129.153 2137.83 133.759 Q2140.91 138.342 2140.91 147.092 Q2140.91 155.819 2137.83 160.426 Q2134.78 165.009 2128.97 165.009 Q2123.16 165.009 2120.08 160.426 Q2117.02 155.819 2117.02 147.092 Q2117.02 138.342 2120.08 133.759 Q2123.16 129.153 2128.97 129.153 Z" fill="#000000" fill-rule="evenodd" fill-opacity="1" /><path clip-path="url(#clip980)" d="M2149.17 129.778 L2167.53 129.778 L2167.53 133.713 L2153.46 133.713 L2153.46 142.185 Q2154.48 141.838 2155.49 141.676 Q2156.51 141.49 2157.53 141.49 Q2163.32 141.49 2166.7 144.662 Q2170.08 147.833 2170.08 153.25 Q2170.08 158.828 2166.61 161.93 Q2163.13 165.009 2156.81 165.009 Q2154.64 165.009 2152.37 164.638 Q2150.12 164.268 2147.72 163.527 L2147.72 158.828 Q2149.8 159.963 2152.02 160.518 Q2154.24 161.074 2156.72 161.074 Q2160.73 161.074 2163.06 158.967 Q2165.4 156.861 2165.4 153.25 Q2165.4 149.639 2163.06 147.532 Q2160.73 145.426 2156.72 145.426 Q2154.85 145.426 2152.97 145.842 Q2151.12 146.259 2149.17 147.139 L2149.17 129.778 Z" fill="#000000" fill-rule="evenodd" fill-opacity="1" /><path clip-path="url(#clip980)" d="M2213.94 143.389 Q2215.54 140.518 2217.76 139.153 Q2219.98 137.787 2222.99 137.787 Q2227.04 137.787 2229.24 140.634 Q2231.44 143.458 2231.44 148.689 L2231.44 164.338 L2227.16 164.338 L2227.16 148.828 Q2227.16 145.102 2225.84 143.296 Q2224.52 141.49 2221.81 141.49 Q2218.5 141.49 2216.58 143.69 Q2214.66 145.889 2214.66 149.685 L2214.66 164.338 L2210.38 164.338 L2210.38 148.828 Q2210.38 145.078 2209.06 143.296 Q2207.74 141.49 2204.98 141.49 Q2201.72 141.49 2199.8 143.713 Q2197.88 145.912 2197.88 149.685 L2197.88 164.338 L2193.6 164.338 L2193.6 138.412 L2197.88 138.412 L2197.88 142.44 Q2199.34 140.055 2201.37 138.921 Q2203.41 137.787 2206.21 137.787 Q2209.04 137.787 2211 139.222 Q2212.99 140.657 2213.94 143.389 Z" fill="#000000" fill-rule="evenodd" fill-opacity="1" /><path clip-path="url(#clip980)" d="
M1770.52 219.634 L1916.09 219.634 L1916.09 178.162 L1770.52 178.162 L1770.52 219.634  Z
  " fill="#e26f46" fill-rule="evenodd" fill-opacity="1"/>
<polyline clip-path="url(#clip980)" style="stroke:#000000; stroke-linecap:butt; stroke-linejoin:round; stroke-width:4; stroke-opacity:1; fill:none" points="
  1770.52,219.634 1916.09,219.634 1916.09,178.162 1770.52,178.162 1770.52,219.634 
  "/>
<path clip-path="url(#clip980)" d="M1956.75 199.974 Q1958.25 200.483 1959.66 202.15 Q1961.1 203.817 1962.53 206.733 L1967.28 216.178 L1962.25 216.178 L1957.83 207.312 Q1956.12 203.84 1954.5 202.705 Q1952.9 201.571 1950.12 201.571 L1945.03 201.571 L1945.03 216.178 L1940.36 216.178 L1940.36 181.618 L1950.91 181.618 Q1956.84 181.618 1959.75 184.094 Q1962.67 186.571 1962.67 191.571 Q1962.67 194.835 1961.14 196.988 Q1959.64 199.141 1956.75 199.974 M1945.03 185.46 L1945.03 197.729 L1950.91 197.729 Q1954.29 197.729 1956 196.178 Q1957.74 194.604 1957.74 191.571 Q1957.74 188.539 1956 187.011 Q1954.29 185.46 1950.91 185.46 L1945.03 185.46 Z" fill="#000000" fill-rule="evenodd" fill-opacity="1" /><path clip-path="url(#clip980)" d="M1988.74 194.65 L2018.41 194.65 L2018.41 198.539 L1988.74 198.539 L1988.74 194.65 M1988.74 204.094 L2018.41 204.094 L2018.41 208.029 L1988.74 208.029 L1988.74 204.094 Z" fill="#000000" fill-rule="evenodd" fill-opacity="1" /><path clip-path="url(#clip980)" d="M2053.57 184.696 Q2049.96 184.696 2048.13 188.261 Q2046.33 191.803 2046.33 198.932 Q2046.33 206.039 2048.13 209.604 Q2049.96 213.145 2053.57 213.145 Q2057.21 213.145 2059.01 209.604 Q2060.84 206.039 2060.84 198.932 Q2060.84 191.803 2059.01 188.261 Q2057.21 184.696 2053.57 184.696 M2053.57 180.993 Q2059.38 180.993 2062.44 185.599 Q2065.52 190.182 2065.52 198.932 Q2065.52 207.659 2062.44 212.266 Q2059.38 216.849 2053.57 216.849 Q2047.76 216.849 2044.68 212.266 Q2041.63 207.659 2041.63 198.932 Q2041.63 190.182 2044.68 185.599 Q2047.76 180.993 2053.57 180.993 Z" fill="#000000" fill-rule="evenodd" fill-opacity="1" /><path clip-path="url(#clip980)" d="M2073.74 210.298 L2078.62 210.298 L2078.62 216.178 L2073.74 216.178 L2073.74 210.298 Z" fill="#000000" fill-rule="evenodd" fill-opacity="1" /><path clip-path="url(#clip980)" d="M2098.8 184.696 Q2095.19 184.696 2093.36 188.261 Q2091.56 191.803 2091.56 198.932 Q2091.56 206.039 2093.36 209.604 Q2095.19 213.145 2098.8 213.145 Q2102.44 213.145 2104.24 209.604 Q2106.07 206.039 2106.07 198.932 Q2106.07 191.803 2104.24 188.261 Q2102.44 184.696 2098.8 184.696 M2098.8 180.993 Q2104.61 180.993 2107.67 185.599 Q2110.75 190.182 2110.75 198.932 Q2110.75 207.659 2107.67 212.266 Q2104.61 216.849 2098.8 216.849 Q2092.99 216.849 2089.92 212.266 Q2086.86 207.659 2086.86 198.932 Q2086.86 190.182 2089.92 185.599 Q2092.99 180.993 2098.8 180.993 Z" fill="#000000" fill-rule="evenodd" fill-opacity="1" /><path clip-path="url(#clip980)" d="M2119.78 212.242 L2127.42 212.242 L2127.42 185.877 L2119.11 187.543 L2119.11 183.284 L2127.37 181.618 L2132.05 181.618 L2132.05 212.242 L2139.68 212.242 L2139.68 216.178 L2119.78 216.178 L2119.78 212.242 Z" fill="#000000" fill-rule="evenodd" fill-opacity="1" /><path clip-path="url(#clip980)" d="M2159.13 184.696 Q2155.52 184.696 2153.69 188.261 Q2151.88 191.803 2151.88 198.932 Q2151.88 206.039 2153.69 209.604 Q2155.52 213.145 2159.13 213.145 Q2162.76 213.145 2164.57 209.604 Q2166.4 206.039 2166.4 198.932 Q2166.4 191.803 2164.57 188.261 Q2162.76 184.696 2159.13 184.696 M2159.13 180.993 Q2164.94 180.993 2167.99 185.599 Q2171.07 190.182 2171.07 198.932 Q2171.07 207.659 2167.99 212.266 Q2164.94 216.849 2159.13 216.849 Q2153.32 216.849 2150.24 212.266 Q2147.18 207.659 2147.18 198.932 Q2147.18 190.182 2150.24 185.599 Q2153.32 180.993 2159.13 180.993 Z" fill="#000000" fill-rule="evenodd" fill-opacity="1" /><path clip-path="url(#clip980)" d="M2213.94 195.229 Q2215.54 192.358 2217.76 190.993 Q2219.98 189.627 2222.99 189.627 Q2227.04 189.627 2229.24 192.474 Q2231.44 195.298 2231.44 200.529 L2231.44 216.178 L2227.16 216.178 L2227.16 200.668 Q2227.16 196.942 2225.84 195.136 Q2224.52 193.33 2221.81 193.33 Q2218.5 193.33 2216.58 195.53 Q2214.66 197.729 2214.66 201.525 L2214.66 216.178 L2210.38 216.178 L2210.38 200.668 Q2210.38 196.918 2209.06 195.136 Q2207.74 193.33 2204.98 193.33 Q2201.72 193.33 2199.8 195.553 Q2197.88 197.752 2197.88 201.525 L2197.88 216.178 L2193.6 216.178 L2193.6 190.252 L2197.88 190.252 L2197.88 194.28 Q2199.34 191.895 2201.37 190.761 Q2203.41 189.627 2206.21 189.627 Q2209.04 189.627 2211 191.062 Q2212.99 192.497 2213.94 195.229 Z" fill="#000000" fill-rule="evenodd" fill-opacity="1" /></svg>
