<?xml version="1.0" encoding="utf-8"?>
<svg xmlns="http://www.w3.org/2000/svg" xmlns:xlink="http://www.w3.org/1999/xlink" width="600" height="400" viewBox="0 0 2400 1600">
<defs>
  <clipPath id="clip660">
    <rect x="0" y="0" width="2400" height="1600"/>
  </clipPath>
</defs>
<path clip-path="url(#clip660)" d="
M0 1600 L2400 1600 L2400 0 L0 0  Z
  " fill="#ffffff" fill-rule="evenodd" fill-opacity="1"/>
<defs>
  <clipPath id="clip661">
    <rect x="480" y="0" width="1681" height="1600"/>
  </clipPath>
</defs>
<path clip-path="url(#clip660)" d="
M169.121 686.448 L2352.76 686.448 L2352.76 47.2441 L169.121 47.2441  Z
  " fill="#ffffff" fill-rule="evenodd" fill-opacity="1"/>
<defs>
  <clipPath id="clip662">
    <rect x="169" y="47" width="2185" height="640"/>
  </clipPath>
</defs>
<polyline clip-path="url(#clip662)" style="stroke:#000000; stroke-linecap:butt; stroke-linejoin:round; stroke-width:2; stroke-opacity:0.1; fill:none" points="
  391.511,686.448 391.511,47.2441 
  "/>
<polyline clip-path="url(#clip662)" style="stroke:#000000; stroke-linecap:butt; stroke-linejoin:round; stroke-width:2; stroke-opacity:0.1; fill:none" points="
  800.653,686.448 800.653,47.2441 
  "/>
<polyline clip-path="url(#clip662)" style="stroke:#000000; stroke-linecap:butt; stroke-linejoin:round; stroke-width:2; stroke-opacity:0.1; fill:none" points="
  1209.8,686.448 1209.8,47.2441 
  "/>
<polyline clip-path="url(#clip662)" style="stroke:#000000; stroke-linecap:butt; stroke-linejoin:round; stroke-width:2; stroke-opacity:0.1; fill:none" points="
  1618.94,686.448 1618.94,47.2441 
  "/>
<polyline clip-path="url(#clip662)" style="stroke:#000000; stroke-linecap:butt; stroke-linejoin:round; stroke-width:2; stroke-opacity:0.1; fill:none" points="
  2028.08,686.448 2028.08,47.2441 
  "/>
<polyline clip-path="url(#clip660)" style="stroke:#000000; stroke-linecap:butt; stroke-linejoin:round; stroke-width:4; stroke-opacity:1; fill:none" points="
  169.121,686.448 2352.76,686.448 
  "/>
<polyline clip-path="url(#clip660)" style="stroke:#000000; stroke-linecap:butt; stroke-linejoin:round; stroke-width:4; stroke-opacity:1; fill:none" points="
  391.511,686.448 391.511,667.55 
  "/>
<polyline clip-path="url(#clip660)" style="stroke:#000000; stroke-linecap:butt; stroke-linejoin:round; stroke-width:4; stroke-opacity:1; fill:none" points="
  800.653,686.448 800.653,667.55 
  "/>
<polyline clip-path="url(#clip660)" style="stroke:#000000; stroke-linecap:butt; stroke-linejoin:round; stroke-width:4; stroke-opacity:1; fill:none" points="
  1209.8,686.448 1209.8,667.55 
  "/>
<polyline clip-path="url(#clip660)" style="stroke:#000000; stroke-linecap:butt; stroke-linejoin:round; stroke-width:4; stroke-opacity:1; fill:none" points="
  1618.94,686.448 1618.94,667.55 
  "/>
<polyline clip-path="url(#clip660)" style="stroke:#000000; stroke-linecap:butt; stroke-linejoin:round; stroke-width:4; stroke-opacity:1; fill:none" points="
  2028.08,686.448 2028.08,667.55 
  "/>
<path clip-path="url(#clip660)" d="M332.506 744.913 L348.826 744.913 L348.826 748.848 L326.881 748.848 L326.881 744.913 Q329.543 742.158 334.127 737.528 Q338.733 732.876 339.914 731.533 Q342.159 729.01 343.039 727.274 Q343.942 725.515 343.942 723.825 Q343.942 721.07 341.997 719.334 Q340.076 717.598 336.974 717.598 Q334.775 717.598 332.321 718.362 Q329.891 719.126 327.113 720.677 L327.113 715.955 Q329.937 714.82 332.391 714.242 Q334.844 713.663 336.881 713.663 Q342.252 713.663 345.446 716.348 Q348.641 719.033 348.641 723.524 Q348.641 725.654 347.83 727.575 Q347.043 729.473 344.937 732.066 Q344.358 732.737 341.256 735.954 Q338.155 739.149 332.506 744.913 Z" fill="#000000" fill-rule="evenodd" fill-opacity="1" /><path clip-path="url(#clip660)" d="M358.641 742.968 L363.525 742.968 L363.525 748.848 L358.641 748.848 L358.641 742.968 Z" fill="#000000" fill-rule="evenodd" fill-opacity="1" /><path clip-path="url(#clip660)" d="M384.289 729.704 Q381.14 729.704 379.289 731.857 Q377.46 734.01 377.46 737.76 Q377.46 741.487 379.289 743.663 Q381.14 745.815 384.289 745.815 Q387.437 745.815 389.265 743.663 Q391.117 741.487 391.117 737.76 Q391.117 734.01 389.265 731.857 Q387.437 729.704 384.289 729.704 M393.571 715.052 L393.571 719.311 Q391.812 718.478 390.006 718.038 Q388.224 717.598 386.464 717.598 Q381.835 717.598 379.381 720.723 Q376.951 723.848 376.603 730.167 Q377.969 728.154 380.029 727.089 Q382.089 726.001 384.566 726.001 Q389.775 726.001 392.784 729.172 Q395.816 732.32 395.816 737.76 Q395.816 743.084 392.668 746.302 Q389.52 749.519 384.289 749.519 Q378.293 749.519 375.122 744.936 Q371.951 740.329 371.951 731.603 Q371.951 723.408 375.84 718.547 Q379.728 713.663 386.279 713.663 Q388.039 713.663 389.821 714.01 Q391.626 714.357 393.571 715.052 Z" fill="#000000" fill-rule="evenodd" fill-opacity="1" /><path clip-path="url(#clip660)" d="M404.011 748.13 L404.011 743.871 Q405.77 744.704 407.575 745.144 Q409.381 745.584 411.117 745.584 Q415.747 745.584 418.177 742.482 Q420.631 739.357 420.978 733.015 Q419.636 735.005 417.575 736.07 Q415.515 737.135 413.015 737.135 Q407.83 737.135 404.798 734.01 Q401.788 730.862 401.788 725.422 Q401.788 720.098 404.937 716.88 Q408.085 713.663 413.316 713.663 Q419.312 713.663 422.46 718.269 Q425.631 722.853 425.631 731.603 Q425.631 739.774 421.742 744.658 Q417.876 749.519 411.325 749.519 Q409.566 749.519 407.761 749.172 Q405.955 748.825 404.011 748.13 M413.316 733.478 Q416.464 733.478 418.293 731.325 Q420.145 729.172 420.145 725.422 Q420.145 721.695 418.293 719.542 Q416.464 717.367 413.316 717.367 Q410.168 717.367 408.316 719.542 Q406.488 721.695 406.488 725.422 Q406.488 729.172 408.316 731.325 Q410.168 733.478 413.316 733.478 Z" fill="#000000" fill-rule="evenodd" fill-opacity="1" /><path clip-path="url(#clip660)" d="M444.612 729.704 Q441.464 729.704 439.612 731.857 Q437.784 734.01 437.784 737.76 Q437.784 741.487 439.612 743.663 Q441.464 745.815 444.612 745.815 Q447.76 745.815 449.589 743.663 Q451.441 741.487 451.441 737.76 Q451.441 734.01 449.589 731.857 Q447.76 729.704 444.612 729.704 M453.895 715.052 L453.895 719.311 Q452.135 718.478 450.33 718.038 Q448.547 717.598 446.788 717.598 Q442.159 717.598 439.705 720.723 Q437.274 723.848 436.927 730.167 Q438.293 728.154 440.353 727.089 Q442.413 726.001 444.89 726.001 Q450.098 726.001 453.108 729.172 Q456.14 732.32 456.14 737.76 Q456.14 743.084 452.992 746.302 Q449.844 749.519 444.612 749.519 Q438.617 749.519 435.446 744.936 Q432.274 740.329 432.274 731.603 Q432.274 723.408 436.163 718.547 Q440.052 713.663 446.603 713.663 Q448.362 713.663 450.145 714.01 Q451.95 714.357 453.895 715.052 Z" fill="#000000" fill-rule="evenodd" fill-opacity="1" /><path clip-path="url(#clip660)" d="M741.776 744.913 L758.096 744.913 L758.096 748.848 L736.151 748.848 L736.151 744.913 Q738.813 742.158 743.397 737.528 Q748.003 732.876 749.184 731.533 Q751.429 729.01 752.309 727.274 Q753.211 725.515 753.211 723.825 Q753.211 721.07 751.267 719.334 Q749.346 717.598 746.244 717.598 Q744.045 717.598 741.591 718.362 Q739.161 719.126 736.383 720.677 L736.383 715.955 Q739.207 714.82 741.661 714.242 Q744.114 713.663 746.151 713.663 Q751.522 713.663 754.716 716.348 Q757.91 719.033 757.91 723.524 Q757.91 725.654 757.1 727.575 Q756.313 729.473 754.207 732.066 Q753.628 732.737 750.526 735.954 Q747.424 739.149 741.776 744.913 Z" fill="#000000" fill-rule="evenodd" fill-opacity="1" /><path clip-path="url(#clip660)" d="M767.91 742.968 L772.795 742.968 L772.795 748.848 L767.91 748.848 L767.91 742.968 Z" fill="#000000" fill-rule="evenodd" fill-opacity="1" /><path clip-path="url(#clip660)" d="M793.558 729.704 Q790.41 729.704 788.558 731.857 Q786.73 734.01 786.73 737.76 Q786.73 741.487 788.558 743.663 Q790.41 745.815 793.558 745.815 Q796.707 745.815 798.535 743.663 Q800.387 741.487 800.387 737.76 Q800.387 734.01 798.535 731.857 Q796.707 729.704 793.558 729.704 M802.841 715.052 L802.841 719.311 Q801.082 718.478 799.276 718.038 Q797.494 717.598 795.734 717.598 Q791.105 717.598 788.651 720.723 Q786.22 723.848 785.873 730.167 Q787.239 728.154 789.299 727.089 Q791.359 726.001 793.836 726.001 Q799.044 726.001 802.054 729.172 Q805.086 732.32 805.086 737.76 Q805.086 743.084 801.938 746.302 Q798.79 749.519 793.558 749.519 Q787.563 749.519 784.392 744.936 Q781.22 740.329 781.22 731.603 Q781.22 723.408 785.109 718.547 Q788.998 713.663 795.549 713.663 Q797.308 713.663 799.091 714.01 Q800.896 714.357 802.841 715.052 Z" fill="#000000" fill-rule="evenodd" fill-opacity="1" /><path clip-path="url(#clip660)" d="M813.281 748.13 L813.281 743.871 Q815.04 744.704 816.845 745.144 Q818.651 745.584 820.387 745.584 Q825.017 745.584 827.447 742.482 Q829.901 739.357 830.248 733.015 Q828.905 735.005 826.845 736.07 Q824.785 737.135 822.285 737.135 Q817.1 737.135 814.068 734.01 Q811.058 730.862 811.058 725.422 Q811.058 720.098 814.206 716.88 Q817.355 713.663 822.586 713.663 Q828.581 713.663 831.729 718.269 Q834.901 722.853 834.901 731.603 Q834.901 739.774 831.012 744.658 Q827.146 749.519 820.595 749.519 Q818.836 749.519 817.03 749.172 Q815.225 748.825 813.281 748.13 M822.586 733.478 Q825.734 733.478 827.563 731.325 Q829.415 729.172 829.415 725.422 Q829.415 721.695 827.563 719.542 Q825.734 717.367 822.586 717.367 Q819.438 717.367 817.586 719.542 Q815.757 721.695 815.757 725.422 Q815.757 729.172 817.586 731.325 Q819.438 733.478 822.586 733.478 Z" fill="#000000" fill-rule="evenodd" fill-opacity="1" /><path clip-path="url(#clip660)" d="M853.303 732.436 Q849.97 732.436 848.049 734.218 Q846.151 736.001 846.151 739.126 Q846.151 742.251 848.049 744.033 Q849.97 745.815 853.303 745.815 Q856.637 745.815 858.558 744.033 Q860.479 742.228 860.479 739.126 Q860.479 736.001 858.558 734.218 Q856.66 732.436 853.303 732.436 M848.628 730.445 Q845.618 729.704 843.928 727.644 Q842.262 725.584 842.262 722.621 Q842.262 718.478 845.202 716.07 Q848.165 713.663 853.303 713.663 Q858.465 713.663 861.405 716.07 Q864.345 718.478 864.345 722.621 Q864.345 725.584 862.655 727.644 Q860.989 729.704 858.002 730.445 Q861.382 731.232 863.257 733.524 Q865.155 735.816 865.155 739.126 Q865.155 744.149 862.077 746.834 Q859.021 749.519 853.303 749.519 Q847.586 749.519 844.507 746.834 Q841.452 744.149 841.452 739.126 Q841.452 735.816 843.35 733.524 Q845.248 731.232 848.628 730.445 M846.915 723.061 Q846.915 725.746 848.581 727.251 Q850.271 728.755 853.303 728.755 Q856.313 728.755 858.002 727.251 Q859.715 725.746 859.715 723.061 Q859.715 720.376 858.002 718.871 Q856.313 717.367 853.303 717.367 Q850.271 717.367 848.581 718.871 Q846.915 720.376 846.915 723.061 Z" fill="#000000" fill-rule="evenodd" fill-opacity="1" /><path clip-path="url(#clip660)" d="M1150.87 744.913 L1167.19 744.913 L1167.19 748.848 L1145.25 748.848 L1145.25 744.913 Q1147.91 742.158 1152.49 737.528 Q1157.1 732.876 1158.28 731.533 Q1160.53 729.01 1161.4 727.274 Q1162.31 725.515 1162.31 723.825 Q1162.31 721.07 1160.36 719.334 Q1158.44 717.598 1155.34 717.598 Q1153.14 717.598 1150.69 718.362 Q1148.26 719.126 1145.48 720.677 L1145.48 715.955 Q1148.3 714.82 1150.76 714.242 Q1153.21 713.663 1155.25 713.663 Q1160.62 713.663 1163.81 716.348 Q1167.01 719.033 1167.01 723.524 Q1167.01 725.654 1166.2 727.575 Q1165.41 729.473 1163.3 732.066 Q1162.72 732.737 1159.62 735.954 Q1156.52 739.149 1150.87 744.913 Z" fill="#000000" fill-rule="evenodd" fill-opacity="1" /><path clip-path="url(#clip660)" d="M1177.01 742.968 L1181.89 742.968 L1181.89 748.848 L1177.01 748.848 L1177.01 742.968 Z" fill="#000000" fill-rule="evenodd" fill-opacity="1" /><path clip-path="url(#clip660)" d="M1190.9 714.288 L1213.12 714.288 L1213.12 716.279 L1200.57 748.848 L1195.69 748.848 L1207.49 718.223 L1190.9 718.223 L1190.9 714.288 Z" fill="#000000" fill-rule="evenodd" fill-opacity="1" /><path clip-path="url(#clip660)" d="M1232.24 717.367 Q1228.63 717.367 1226.8 720.931 Q1224.99 724.473 1224.99 731.603 Q1224.99 738.709 1226.8 742.274 Q1228.63 745.815 1232.24 745.815 Q1235.87 745.815 1237.68 742.274 Q1239.51 738.709 1239.51 731.603 Q1239.51 724.473 1237.68 720.931 Q1235.87 717.367 1232.24 717.367 M1232.24 713.663 Q1238.05 713.663 1241.1 718.269 Q1244.18 722.853 1244.18 731.603 Q1244.18 740.329 1241.1 744.936 Q1238.05 749.519 1232.24 749.519 Q1226.43 749.519 1223.35 744.936 Q1220.29 740.329 1220.29 731.603 Q1220.29 722.853 1223.35 718.269 Q1226.43 713.663 1232.24 713.663 Z" fill="#000000" fill-rule="evenodd" fill-opacity="1" /><path clip-path="url(#clip660)" d="M1262.4 717.367 Q1258.79 717.367 1256.96 720.931 Q1255.15 724.473 1255.15 731.603 Q1255.15 738.709 1256.96 742.274 Q1258.79 745.815 1262.4 745.815 Q1266.03 745.815 1267.84 742.274 Q1269.67 738.709 1269.67 731.603 Q1269.67 724.473 1267.84 720.931 Q1266.03 717.367 1262.4 717.367 M1262.4 713.663 Q1268.21 713.663 1271.27 718.269 Q1274.34 722.853 1274.34 731.603 Q1274.34 740.329 1271.27 744.936 Q1268.21 749.519 1262.4 749.519 Q1256.59 749.519 1253.51 744.936 Q1250.46 740.329 1250.46 731.603 Q1250.46 722.853 1253.51 718.269 Q1256.59 713.663 1262.4 713.663 Z" fill="#000000" fill-rule="evenodd" fill-opacity="1" /><path clip-path="url(#clip660)" d="M1560.81 744.913 L1577.13 744.913 L1577.13 748.848 L1555.19 748.848 L1555.19 744.913 Q1557.85 742.158 1562.43 737.528 Q1567.04 732.876 1568.22 731.533 Q1570.47 729.01 1571.35 727.274 Q1572.25 725.515 1572.25 723.825 Q1572.25 721.07 1570.3 719.334 Q1568.38 717.598 1565.28 717.598 Q1563.08 717.598 1560.63 718.362 Q1558.2 719.126 1555.42 720.677 L1555.42 715.955 Q1558.24 714.82 1560.7 714.242 Q1563.15 713.663 1565.19 713.663 Q1570.56 713.663 1573.75 716.348 Q1576.95 719.033 1576.95 723.524 Q1576.95 725.654 1576.14 727.575 Q1575.35 729.473 1573.24 732.066 Q1572.67 732.737 1569.56 735.954 Q1566.46 739.149 1560.81 744.913 Z" fill="#000000" fill-rule="evenodd" fill-opacity="1" /><path clip-path="url(#clip660)" d="M1586.95 742.968 L1591.83 742.968 L1591.83 748.848 L1586.95 748.848 L1586.95 742.968 Z" fill="#000000" fill-rule="evenodd" fill-opacity="1" /><path clip-path="url(#clip660)" d="M1600.84 714.288 L1623.06 714.288 L1623.06 716.279 L1610.51 748.848 L1605.63 748.848 L1617.43 718.223 L1600.84 718.223 L1600.84 714.288 Z" fill="#000000" fill-rule="evenodd" fill-opacity="1" /><path clip-path="url(#clip660)" d="M1642.18 717.367 Q1638.57 717.367 1636.74 720.931 Q1634.93 724.473 1634.93 731.603 Q1634.93 738.709 1636.74 742.274 Q1638.57 745.815 1642.18 745.815 Q1645.81 745.815 1647.62 742.274 Q1649.45 738.709 1649.45 731.603 Q1649.45 724.473 1647.62 720.931 Q1645.81 717.367 1642.18 717.367 M1642.18 713.663 Q1647.99 713.663 1651.04 718.269 Q1654.12 722.853 1654.12 731.603 Q1654.12 740.329 1651.04 744.936 Q1647.99 749.519 1642.18 749.519 Q1636.37 749.519 1633.29 744.936 Q1630.23 740.329 1630.23 731.603 Q1630.23 722.853 1633.29 718.269 Q1636.37 713.663 1642.18 713.663 Z" fill="#000000" fill-rule="evenodd" fill-opacity="1" /><path clip-path="url(#clip660)" d="M1666.37 744.913 L1682.69 744.913 L1682.69 748.848 L1660.74 748.848 L1660.74 744.913 Q1663.41 742.158 1667.99 737.528 Q1672.6 732.876 1673.78 731.533 Q1676.02 729.01 1676.9 727.274 Q1677.8 725.515 1677.8 723.825 Q1677.8 721.07 1675.86 719.334 Q1673.94 717.598 1670.84 717.598 Q1668.64 717.598 1666.18 718.362 Q1663.75 719.126 1660.98 720.677 L1660.98 715.955 Q1663.8 714.82 1666.25 714.242 Q1668.71 713.663 1670.74 713.663 Q1676.11 713.663 1679.31 716.348 Q1682.5 719.033 1682.5 723.524 Q1682.5 725.654 1681.69 727.575 Q1680.91 729.473 1678.8 732.066 Q1678.22 732.737 1675.12 735.954 Q1672.02 739.149 1666.37 744.913 Z" fill="#000000" fill-rule="evenodd" fill-opacity="1" /><path clip-path="url(#clip660)" d="M1968.91 744.913 L1985.23 744.913 L1985.23 748.848 L1963.29 748.848 L1963.29 744.913 Q1965.95 742.158 1970.53 737.528 Q1975.14 732.876 1976.32 731.533 Q1978.57 729.01 1979.45 727.274 Q1980.35 725.515 1980.35 723.825 Q1980.35 721.07 1978.41 719.334 Q1976.48 717.598 1973.38 717.598 Q1971.18 717.598 1968.73 718.362 Q1966.3 719.126 1963.52 720.677 L1963.52 715.955 Q1966.35 714.82 1968.8 714.242 Q1971.25 713.663 1973.29 713.663 Q1978.66 713.663 1981.85 716.348 Q1985.05 719.033 1985.05 723.524 Q1985.05 725.654 1984.24 727.575 Q1983.45 729.473 1981.34 732.066 Q1980.77 732.737 1977.66 735.954 Q1974.56 739.149 1968.91 744.913 Z" fill="#000000" fill-rule="evenodd" fill-opacity="1" /><path clip-path="url(#clip660)" d="M1995.05 742.968 L1999.93 742.968 L1999.93 748.848 L1995.05 748.848 L1995.05 742.968 Z" fill="#000000" fill-rule="evenodd" fill-opacity="1" /><path clip-path="url(#clip660)" d="M2008.94 714.288 L2031.16 714.288 L2031.16 716.279 L2018.61 748.848 L2013.73 748.848 L2025.53 718.223 L2008.94 718.223 L2008.94 714.288 Z" fill="#000000" fill-rule="evenodd" fill-opacity="1" /><path clip-path="url(#clip660)" d="M2050.28 717.367 Q2046.67 717.367 2044.84 720.931 Q2043.03 724.473 2043.03 731.603 Q2043.03 738.709 2044.84 742.274 Q2046.67 745.815 2050.28 745.815 Q2053.91 745.815 2055.72 742.274 Q2057.55 738.709 2057.55 731.603 Q2057.55 724.473 2055.72 720.931 Q2053.91 717.367 2050.28 717.367 M2050.28 713.663 Q2056.09 713.663 2059.15 718.269 Q2062.22 722.853 2062.22 731.603 Q2062.22 740.329 2059.15 744.936 Q2056.09 749.519 2050.28 749.519 Q2044.47 749.519 2041.39 744.936 Q2038.34 740.329 2038.34 731.603 Q2038.34 722.853 2041.39 718.269 Q2044.47 713.663 2050.28 713.663 Z" fill="#000000" fill-rule="evenodd" fill-opacity="1" /><path clip-path="url(#clip660)" d="M2083.29 718.362 L2071.48 736.811 L2083.29 736.811 L2083.29 718.362 M2082.06 714.288 L2087.94 714.288 L2087.94 736.811 L2092.87 736.811 L2092.87 740.7 L2087.94 740.7 L2087.94 748.848 L2083.29 748.848 L2083.29 740.7 L2067.69 740.7 L2067.69 736.186 L2082.06 714.288 Z" fill="#000000" fill-rule="evenodd" fill-opacity="1" /><polyline clip-path="url(#clip662)" style="stroke:#000000; stroke-linecap:butt; stroke-linejoin:round; stroke-width:2; stroke-opacity:0.1; fill:none" points="
  169.121,668.357 2352.76,668.357 
  "/>
<polyline clip-path="url(#clip662)" style="stroke:#000000; stroke-linecap:butt; stroke-linejoin:round; stroke-width:2; stroke-opacity:0.1; fill:none" points="
  169.121,476.312 2352.76,476.312 
  "/>
<polyline clip-path="url(#clip662)" style="stroke:#000000; stroke-linecap:butt; stroke-linejoin:round; stroke-width:2; stroke-opacity:0.1; fill:none" points="
  169.121,284.266 2352.76,284.266 
  "/>
<polyline clip-path="url(#clip662)" style="stroke:#000000; stroke-linecap:butt; stroke-linejoin:round; stroke-width:2; stroke-opacity:0.1; fill:none" points="
  169.121,92.2211 2352.76,92.2211 
  "/>
<polyline clip-path="url(#clip660)" style="stroke:#000000; stroke-linecap:butt; stroke-linejoin:round; stroke-width:4; stroke-opacity:1; fill:none" points="
  169.121,686.448 169.121,47.2441 
  "/>
<polyline clip-path="url(#clip660)" style="stroke:#000000; stroke-linecap:butt; stroke-linejoin:round; stroke-width:4; stroke-opacity:1; fill:none" points="
  169.121,668.357 188.019,668.357 
  "/>
<polyline clip-path="url(#clip660)" style="stroke:#000000; stroke-linecap:butt; stroke-linejoin:round; stroke-width:4; stroke-opacity:1; fill:none" points="
  169.121,476.312 188.019,476.312 
  "/>
<polyline clip-path="url(#clip660)" style="stroke:#000000; stroke-linecap:butt; stroke-linejoin:round; stroke-width:4; stroke-opacity:1; fill:none" points="
  169.121,284.266 188.019,284.266 
  "/>
<polyline clip-path="url(#clip660)" style="stroke:#000000; stroke-linecap:butt; stroke-linejoin:round; stroke-width:4; stroke-opacity:1; fill:none" points="
  169.121,92.2211 188.019,92.2211 
  "/>
<path clip-path="url(#clip660)" d="M121.177 654.156 Q117.566 654.156 115.737 657.721 Q113.932 661.262 113.932 668.392 Q113.932 675.498 115.737 679.063 Q117.566 682.605 121.177 682.605 Q124.811 682.605 126.617 679.063 Q128.445 675.498 128.445 668.392 Q128.445 661.262 126.617 657.721 Q124.811 654.156 121.177 654.156 M121.177 650.452 Q126.987 650.452 130.043 655.059 Q133.121 659.642 133.121 668.392 Q133.121 677.119 130.043 681.725 Q126.987 686.308 121.177 686.308 Q115.367 686.308 112.288 681.725 Q109.233 677.119 109.233 668.392 Q109.233 659.642 112.288 655.059 Q115.367 650.452 121.177 650.452 Z" fill="#000000" fill-rule="evenodd" fill-opacity="1" /><path clip-path="url(#clip660)" d="M81.0614 459.032 L99.4178 459.032 L99.4178 462.967 L85.3438 462.967 L85.3438 471.439 Q86.3623 471.092 87.3808 470.93 Q88.3993 470.745 89.4178 470.745 Q95.2049 470.745 98.5845 473.916 Q101.964 477.087 101.964 482.504 Q101.964 488.083 98.4919 491.184 Q95.0197 494.263 88.7003 494.263 Q86.5243 494.263 84.2558 493.893 Q82.0105 493.522 79.6031 492.782 L79.6031 488.083 Q81.6864 489.217 83.9086 489.772 Q86.1308 490.328 88.6077 490.328 Q92.6123 490.328 94.9502 488.221 Q97.2882 486.115 97.2882 482.504 Q97.2882 478.893 94.9502 476.786 Q92.6123 474.68 88.6077 474.68 Q86.7327 474.68 84.8577 475.097 Q83.0058 475.513 81.0614 476.393 L81.0614 459.032 Z" fill="#000000" fill-rule="evenodd" fill-opacity="1" /><path clip-path="url(#clip660)" d="M121.177 462.111 Q117.566 462.111 115.737 465.675 Q113.932 469.217 113.932 476.347 Q113.932 483.453 115.737 487.018 Q117.566 490.559 121.177 490.559 Q124.811 490.559 126.617 487.018 Q128.445 483.453 128.445 476.347 Q128.445 469.217 126.617 465.675 Q124.811 462.111 121.177 462.111 M121.177 458.407 Q126.987 458.407 130.043 463.013 Q133.121 467.597 133.121 476.347 Q133.121 485.073 130.043 489.68 Q126.987 494.263 121.177 494.263 Q115.367 494.263 112.288 489.68 Q109.233 485.073 109.233 476.347 Q109.233 467.597 112.288 463.013 Q115.367 458.407 121.177 458.407 Z" fill="#000000" fill-rule="evenodd" fill-opacity="1" /><path clip-path="url(#clip660)" d="M51.6634 297.611 L59.3023 297.611 L59.3023 271.246 L50.9921 272.912 L50.9921 268.653 L59.256 266.986 L63.9319 266.986 L63.9319 297.611 L71.5707 297.611 L71.5707 301.546 L51.6634 301.546 L51.6634 297.611 Z" fill="#000000" fill-rule="evenodd" fill-opacity="1" /><path clip-path="url(#clip660)" d="M91.0151 270.065 Q87.404 270.065 85.5753 273.63 Q83.7697 277.172 83.7697 284.301 Q83.7697 291.408 85.5753 294.972 Q87.404 298.514 91.0151 298.514 Q94.6493 298.514 96.4548 294.972 Q98.2835 291.408 98.2835 284.301 Q98.2835 277.172 96.4548 273.63 Q94.6493 270.065 91.0151 270.065 M91.0151 266.361 Q96.8252 266.361 99.8808 270.968 Q102.959 275.551 102.959 284.301 Q102.959 293.028 99.8808 297.634 Q96.8252 302.218 91.0151 302.218 Q85.2049 302.218 82.1262 297.634 Q79.0707 293.028 79.0707 284.301 Q79.0707 275.551 82.1262 270.968 Q85.2049 266.361 91.0151 266.361 Z" fill="#000000" fill-rule="evenodd" fill-opacity="1" /><path clip-path="url(#clip660)" d="M121.177 270.065 Q117.566 270.065 115.737 273.63 Q113.932 277.172 113.932 284.301 Q113.932 291.408 115.737 294.972 Q117.566 298.514 121.177 298.514 Q124.811 298.514 126.617 294.972 Q128.445 291.408 128.445 284.301 Q128.445 277.172 126.617 273.63 Q124.811 270.065 121.177 270.065 M121.177 266.361 Q126.987 266.361 130.043 270.968 Q133.121 275.551 133.121 284.301 Q133.121 293.028 130.043 297.634 Q126.987 302.218 121.177 302.218 Q115.367 302.218 112.288 297.634 Q109.233 293.028 109.233 284.301 Q109.233 275.551 112.288 270.968 Q115.367 266.361 121.177 266.361 Z" fill="#000000" fill-rule="evenodd" fill-opacity="1" /><path clip-path="url(#clip660)" d="M51.6634 105.566 L59.3023 105.566 L59.3023 79.2004 L50.9921 80.867 L50.9921 76.6078 L59.256 74.9411 L63.9319 74.9411 L63.9319 105.566 L71.5707 105.566 L71.5707 109.501 L51.6634 109.501 L51.6634 105.566 Z" fill="#000000" fill-rule="evenodd" fill-opacity="1" /><path clip-path="url(#clip660)" d="M81.0614 74.9411 L99.4178 74.9411 L99.4178 78.8763 L85.3438 78.8763 L85.3438 87.3485 Q86.3623 87.0012 87.3808 86.8392 Q88.3993 86.654 89.4178 86.654 Q95.2049 86.654 98.5845 89.8253 Q101.964 92.9966 101.964 98.4132 Q101.964 103.992 98.4919 107.094 Q95.0197 110.172 88.7003 110.172 Q86.5243 110.172 84.2558 109.802 Q82.0105 109.432 79.6031 108.691 L79.6031 103.992 Q81.6864 105.126 83.9086 105.682 Q86.1308 106.237 88.6077 106.237 Q92.6123 106.237 94.9502 104.131 Q97.2882 102.024 97.2882 98.4132 Q97.2882 94.8021 94.9502 92.6957 Q92.6123 90.5892 88.6077 90.5892 Q86.7327 90.5892 84.8577 91.0058 Q83.0058 91.4225 81.0614 92.3021 L81.0614 74.9411 Z" fill="#000000" fill-rule="evenodd" fill-opacity="1" /><path clip-path="url(#clip660)" d="M121.177 78.0198 Q117.566 78.0198 115.737 81.5846 Q113.932 85.1262 113.932 92.2558 Q113.932 99.3623 115.737 102.927 Q117.566 106.469 121.177 106.469 Q124.811 106.469 126.617 102.927 Q128.445 99.3623 128.445 92.2558 Q128.445 85.1262 126.617 81.5846 Q124.811 78.0198 121.177 78.0198 M121.177 74.3161 Q126.987 74.3161 130.043 78.9226 Q133.121 83.5059 133.121 92.2558 Q133.121 100.983 130.043 105.589 Q126.987 110.172 121.177 110.172 Q115.367 110.172 112.288 105.589 Q109.233 100.983 109.233 92.2558 Q109.233 83.5059 112.288 78.9226 Q115.367 74.3161 121.177 74.3161 Z" fill="#000000" fill-rule="evenodd" fill-opacity="1" /><path clip-path="url(#clip662)" d="
M289.225 664.516 L289.225 668.357 L391.511 668.357 L391.511 664.516 L289.225 664.516 L289.225 664.516  Z
  " fill="#009af9" fill-rule="evenodd" fill-opacity="1"/>
<polyline clip-path="url(#clip662)" style="stroke:#000000; stroke-linecap:butt; stroke-linejoin:round; stroke-width:4; stroke-opacity:1; fill:none" points="
  289.225,664.516 289.225,668.357 391.511,668.357 391.511,664.516 289.225,664.516 
  "/>
<path clip-path="url(#clip662)" d="
M391.511 660.675 L391.511 668.357 L493.796 668.357 L493.796 660.675 L391.511 660.675 L391.511 660.675  Z
  " fill="#009af9" fill-rule="evenodd" fill-opacity="1"/>
<polyline clip-path="url(#clip662)" style="stroke:#000000; stroke-linecap:butt; stroke-linejoin:round; stroke-width:4; stroke-opacity:1; fill:none" points="
  391.511,660.675 391.511,668.357 493.796,668.357 493.796,660.675 391.511,660.675 
  "/>
<path clip-path="url(#clip662)" d="
M493.796 637.63 L493.796 668.357 L596.082 668.357 L596.082 637.63 L493.796 637.63 L493.796 637.63  Z
  " fill="#009af9" fill-rule="evenodd" fill-opacity="1"/>
<polyline clip-path="url(#clip662)" style="stroke:#000000; stroke-linecap:butt; stroke-linejoin:round; stroke-width:4; stroke-opacity:1; fill:none" points="
  493.796,637.63 493.796,668.357 596.082,668.357 596.082,637.63 493.796,637.63 
  "/>
<path clip-path="url(#clip662)" d="
M596.082 599.221 L596.082 668.357 L698.368 668.357 L698.368 599.221 L596.082 599.221 L596.082 599.221  Z
  " fill="#009af9" fill-rule="evenodd" fill-opacity="1"/>
<polyline clip-path="url(#clip662)" style="stroke:#000000; stroke-linecap:butt; stroke-linejoin:round; stroke-width:4; stroke-opacity:1; fill:none" points="
  596.082,599.221 596.082,668.357 698.368,668.357 698.368,599.221 596.082,599.221 
  "/>
<path clip-path="url(#clip662)" d="
M698.368 533.925 L698.368 668.357 L800.653 668.357 L800.653 533.925 L698.368 533.925 L698.368 533.925  Z
  " fill="#009af9" fill-rule="evenodd" fill-opacity="1"/>
<polyline clip-path="url(#clip662)" style="stroke:#000000; stroke-linecap:butt; stroke-linejoin:round; stroke-width:4; stroke-opacity:1; fill:none" points="
  698.368,533.925 698.368,668.357 800.653,668.357 800.653,533.925 698.368,533.925 
  "/>
<path clip-path="url(#clip662)" d="
M800.653 414.857 L800.653 668.357 L902.939 668.357 L902.939 414.857 L800.653 414.857 L800.653 414.857  Z
  " fill="#009af9" fill-rule="evenodd" fill-opacity="1"/>
<polyline clip-path="url(#clip662)" style="stroke:#000000; stroke-linecap:butt; stroke-linejoin:round; stroke-width:4; stroke-opacity:1; fill:none" points="
  800.653,414.857 800.653,668.357 902.939,668.357 902.939,414.857 800.653,414.857 
  "/>
<path clip-path="url(#clip662)" d="
M902.939 349.562 L902.939 668.357 L1005.22 668.357 L1005.22 349.562 L902.939 349.562 L902.939 349.562  Z
  " fill="#009af9" fill-rule="evenodd" fill-opacity="1"/>
<polyline clip-path="url(#clip662)" style="stroke:#000000; stroke-linecap:butt; stroke-linejoin:round; stroke-width:4; stroke-opacity:1; fill:none" points="
  902.939,349.562 902.939,668.357 1005.22,668.357 1005.22,349.562 902.939,349.562 
  "/>
<path clip-path="url(#clip662)" d="
M1005.22 165.198 L1005.22 668.357 L1107.51 668.357 L1107.51 165.198 L1005.22 165.198 L1005.22 165.198  Z
  " fill="#009af9" fill-rule="evenodd" fill-opacity="1"/>
<polyline clip-path="url(#clip662)" style="stroke:#000000; stroke-linecap:butt; stroke-linejoin:round; stroke-width:4; stroke-opacity:1; fill:none" points="
  1005.22,165.198 1005.22,668.357 1107.51,668.357 1107.51,165.198 1005.22,165.198 
  "/>
<path clip-path="url(#clip662)" d="
M1107.51 65.3348 L1107.51 668.357 L1209.8 668.357 L1209.8 65.3348 L1107.51 65.3348 L1107.51 65.3348  Z
  " fill="#009af9" fill-rule="evenodd" fill-opacity="1"/>
<polyline clip-path="url(#clip662)" style="stroke:#000000; stroke-linecap:butt; stroke-linejoin:round; stroke-width:4; stroke-opacity:1; fill:none" points="
  1107.51,65.3348 1107.51,668.357 1209.8,668.357 1209.8,65.3348 1107.51,65.3348 
  "/>
<path clip-path="url(#clip662)" d="
M1209.8 149.835 L1209.8 668.357 L1312.08 668.357 L1312.08 149.835 L1209.8 149.835 L1209.8 149.835  Z
  " fill="#009af9" fill-rule="evenodd" fill-opacity="1"/>
<polyline clip-path="url(#clip662)" style="stroke:#000000; stroke-linecap:butt; stroke-linejoin:round; stroke-width:4; stroke-opacity:1; fill:none" points="
  1209.8,149.835 1209.8,668.357 1312.08,668.357 1312.08,149.835 1209.8,149.835 
  "/>
<path clip-path="url(#clip662)" d="
M1312.08 161.357 L1312.08 668.357 L1414.37 668.357 L1414.37 161.357 L1312.08 161.357 L1312.08 161.357  Z
  " fill="#009af9" fill-rule="evenodd" fill-opacity="1"/>
<polyline clip-path="url(#clip662)" style="stroke:#000000; stroke-linecap:butt; stroke-linejoin:round; stroke-width:4; stroke-opacity:1; fill:none" points="
  1312.08,161.357 1312.08,668.357 1414.37,668.357 1414.37,161.357 1312.08,161.357 
  "/>
<path clip-path="url(#clip662)" d="
M1414.37 288.107 L1414.37 668.357 L1516.65 668.357 L1516.65 288.107 L1414.37 288.107 L1414.37 288.107  Z
  " fill="#009af9" fill-rule="evenodd" fill-opacity="1"/>
<polyline clip-path="url(#clip662)" style="stroke:#000000; stroke-linecap:butt; stroke-linejoin:round; stroke-width:4; stroke-opacity:1; fill:none" points="
  1414.37,288.107 1414.37,668.357 1516.65,668.357 1516.65,288.107 1414.37,288.107 
  "/>
<path clip-path="url(#clip662)" d="
M1516.65 376.448 L1516.65 668.357 L1618.94 668.357 L1618.94 376.448 L1516.65 376.448 L1516.65 376.448  Z
  " fill="#009af9" fill-rule="evenodd" fill-opacity="1"/>
<polyline clip-path="url(#clip662)" style="stroke:#000000; stroke-linecap:butt; stroke-linejoin:round; stroke-width:4; stroke-opacity:1; fill:none" points="
  1516.65,376.448 1516.65,668.357 1618.94,668.357 1618.94,376.448 1516.65,376.448 
  "/>
<path clip-path="url(#clip662)" d="
M1618.94 553.13 L1618.94 668.357 L1721.22 668.357 L1721.22 553.13 L1618.94 553.13 L1618.94 553.13  Z
  " fill="#009af9" fill-rule="evenodd" fill-opacity="1"/>
<polyline clip-path="url(#clip662)" style="stroke:#000000; stroke-linecap:butt; stroke-linejoin:round; stroke-width:4; stroke-opacity:1; fill:none" points="
  1618.94,553.13 1618.94,668.357 1721.22,668.357 1721.22,553.13 1618.94,553.13 
  "/>
<path clip-path="url(#clip662)" d="
M1721.22 614.584 L1721.22 668.357 L1823.51 668.357 L1823.51 614.584 L1721.22 614.584 L1721.22 614.584  Z
  " fill="#009af9" fill-rule="evenodd" fill-opacity="1"/>
<polyline clip-path="url(#clip662)" style="stroke:#000000; stroke-linecap:butt; stroke-linejoin:round; stroke-width:4; stroke-opacity:1; fill:none" points="
  1721.22,614.584 1721.22,668.357 1823.51,668.357 1823.51,614.584 1721.22,614.584 
  "/>
<path clip-path="url(#clip662)" d="
M1823.51 629.948 L1823.51 668.357 L1925.8 668.357 L1925.8 629.948 L1823.51 629.948 L1823.51 629.948  Z
  " fill="#009af9" fill-rule="evenodd" fill-opacity="1"/>
<polyline clip-path="url(#clip662)" style="stroke:#000000; stroke-linecap:butt; stroke-linejoin:round; stroke-width:4; stroke-opacity:1; fill:none" points="
  1823.51,629.948 1823.51,668.357 1925.8,668.357 1925.8,629.948 1823.51,629.948 
  "/>
<path clip-path="url(#clip662)" d="
M1925.8 660.675 L1925.8 668.357 L2028.08 668.357 L2028.08 660.675 L1925.8 660.675 L1925.8 660.675  Z
  " fill="#009af9" fill-rule="evenodd" fill-opacity="1"/>
<polyline clip-path="url(#clip662)" style="stroke:#000000; stroke-linecap:butt; stroke-linejoin:round; stroke-width:4; stroke-opacity:1; fill:none" points="
  1925.8,660.675 1925.8,668.357 2028.08,668.357 2028.08,660.675 1925.8,660.675 
  "/>
<path clip-path="url(#clip662)" d="
M2028.08 668.357 L2028.08 668.357 L2130.37 668.357 L2130.37 668.357 L2028.08 668.357 L2028.08 668.357  Z
  " fill="#009af9" fill-rule="evenodd" fill-opacity="1"/>
<polyline clip-path="url(#clip662)" style="stroke:#000000; stroke-linecap:butt; stroke-linejoin:round; stroke-width:4; stroke-opacity:1; fill:none" points="
  2028.08,668.357 2028.08,668.357 2130.37,668.357 2028.08,668.357 
  "/>
<path clip-path="url(#clip662)" d="
M2130.37 664.516 L2130.37 668.357 L2232.65 668.357 L2232.65 664.516 L2130.37 664.516 L2130.37 664.516  Z
  " fill="#009af9" fill-rule="evenodd" fill-opacity="1"/>
<polyline clip-path="url(#clip662)" style="stroke:#000000; stroke-linecap:butt; stroke-linejoin:round; stroke-width:4; stroke-opacity:1; fill:none" points="
  2130.37,664.516 2130.37,668.357 2232.65,668.357 2232.65,664.516 2130.37,664.516 
  "/>
<circle clip-path="url(#clip662)" style="fill:#009af9; stroke:none; fill-opacity:0" cx="340.368" cy="664.516" r="2"/>
<circle clip-path="url(#clip662)" style="fill:#009af9; stroke:none; fill-opacity:0" cx="442.654" cy="660.675" r="2"/>
<circle clip-path="url(#clip662)" style="fill:#009af9; stroke:none; fill-opacity:0" cx="544.939" cy="637.63" r="2"/>
<circle clip-path="url(#clip662)" style="fill:#009af9; stroke:none; fill-opacity:0" cx="647.225" cy="599.221" r="2"/>
<circle clip-path="url(#clip662)" style="fill:#009af9; stroke:none; fill-opacity:0" cx="749.51" cy="533.925" r="2"/>
<circle clip-path="url(#clip662)" style="fill:#009af9; stroke:none; fill-opacity:0" cx="851.796" cy="414.857" r="2"/>
<circle clip-path="url(#clip662)" style="fill:#009af9; stroke:none; fill-opacity:0" cx="954.082" cy="349.562" r="2"/>
<circle clip-path="url(#clip662)" style="fill:#009af9; stroke:none; fill-opacity:0" cx="1056.37" cy="165.198" r="2"/>
<circle clip-path="url(#clip662)" style="fill:#009af9; stroke:none; fill-opacity:0" cx="1158.65" cy="65.3348" r="2"/>
<circle clip-path="url(#clip662)" style="fill:#009af9; stroke:none; fill-opacity:0" cx="1260.94" cy="149.835" r="2"/>
<circle clip-path="url(#clip662)" style="fill:#009af9; stroke:none; fill-opacity:0" cx="1363.22" cy="161.357" r="2"/>
<circle clip-path="url(#clip662)" style="fill:#009af9; stroke:none; fill-opacity:0" cx="1465.51" cy="288.107" r="2"/>
<circle clip-path="url(#clip662)" style="fill:#009af9; stroke:none; fill-opacity:0" cx="1567.8" cy="376.448" r="2"/>
<circle clip-path="url(#clip662)" style="fill:#009af9; stroke:none; fill-opacity:0" cx="1670.08" cy="553.13" r="2"/>
<circle clip-path="url(#clip662)" style="fill:#009af9; stroke:none; fill-opacity:0" cx="1772.37" cy="614.584" r="2"/>
<circle clip-path="url(#clip662)" style="fill:#009af9; stroke:none; fill-opacity:0" cx="1874.65" cy="629.948" r="2"/>
<circle clip-path="url(#clip662)" style="fill:#009af9; stroke:none; fill-opacity:0" cx="1976.94" cy="660.675" r="2"/>
<circle clip-path="url(#clip662)" style="fill:#009af9; stroke:none; fill-opacity:0" cx="2079.22" cy="668.357" r="2"/>
<circle clip-path="url(#clip662)" style="fill:#009af9; stroke:none; fill-opacity:0" cx="2181.51" cy="664.516" r="2"/>
<path clip-path="url(#clip660)" d="
M2005.68 172.231 L2279.97 172.231 L2279.97 68.5509 L2005.68 68.5509  Z
  " fill="#ffffff" fill-rule="evenodd" fill-opacity="1"/>
<polyline clip-path="url(#clip660)" style="stroke:#000000; stroke-linecap:butt; stroke-linejoin:round; stroke-width:4; stroke-opacity:1; fill:none" points="
  2005.68,172.231 2279.97,172.231 2279.97,68.5509 2005.68,68.5509 2005.68,172.231 
  "/>
<path clip-path="url(#clip660)" d="
M2029.94 141.127 L2175.51 141.127 L2175.51 99.6549 L2029.94 99.6549 L2029.94 141.127  Z
  " fill="#009af9" fill-rule="evenodd" fill-opacity="1"/>
<polyline clip-path="url(#clip660)" style="stroke:#000000; stroke-linecap:butt; stroke-linejoin:round; stroke-width:4; stroke-opacity:1; fill:none" points="
  2029.94,141.127 2175.51,141.127 2175.51,99.6549 2029.94,99.6549 2029.94,141.127 
  "/>
<path clip-path="url(#clip660)" d="M2215.61 107.717 L2209.27 124.916 L2221.98 124.916 L2215.61 107.717 M2212.97 103.111 L2218.27 103.111 L2231.44 137.671 L2226.58 137.671 L2223.43 128.805 L2207.86 128.805 L2204.71 137.671 L2199.78 137.671 L2212.97 103.111 Z" fill="#000000" fill-rule="evenodd" fill-opacity="1" /><path clip-path="url(#clip660)" d="
M169.121 1486.45 L2352.76 1486.45 L2352.76 847.244 L169.121 847.244  Z
  " fill="#ffffff" fill-rule="evenodd" fill-opacity="1"/>
<defs>
  <clipPath id="clip663">
    <rect x="169" y="847" width="2185" height="640"/>
  </clipPath>
</defs>
<polyline clip-path="url(#clip663)" style="stroke:#000000; stroke-linecap:butt; stroke-linejoin:round; stroke-width:2; stroke-opacity:0.1; fill:none" points="
  532.153,1486.45 532.153,847.244 
  "/>
<polyline clip-path="url(#clip663)" style="stroke:#000000; stroke-linecap:butt; stroke-linejoin:round; stroke-width:2; stroke-opacity:0.1; fill:none" points="
  896.546,1486.45 896.546,847.244 
  "/>
<polyline clip-path="url(#clip663)" style="stroke:#000000; stroke-linecap:butt; stroke-linejoin:round; stroke-width:2; stroke-opacity:0.1; fill:none" points="
  1260.94,1486.45 1260.94,847.244 
  "/>
<polyline clip-path="url(#clip663)" style="stroke:#000000; stroke-linecap:butt; stroke-linejoin:round; stroke-width:2; stroke-opacity:0.1; fill:none" points="
  1625.33,1486.45 1625.33,847.244 
  "/>
<polyline clip-path="url(#clip663)" style="stroke:#000000; stroke-linecap:butt; stroke-linejoin:round; stroke-width:2; stroke-opacity:0.1; fill:none" points="
  1989.72,1486.45 1989.72,847.244 
  "/>
<polyline clip-path="url(#clip660)" style="stroke:#000000; stroke-linecap:butt; stroke-linejoin:round; stroke-width:4; stroke-opacity:1; fill:none" points="
  169.121,1486.45 2352.76,1486.45 
  "/>
<polyline clip-path="url(#clip660)" style="stroke:#000000; stroke-linecap:butt; stroke-linejoin:round; stroke-width:4; stroke-opacity:1; fill:none" points="
  532.153,1486.45 532.153,1467.55 
  "/>
<polyline clip-path="url(#clip660)" style="stroke:#000000; stroke-linecap:butt; stroke-linejoin:round; stroke-width:4; stroke-opacity:1; fill:none" points="
  896.546,1486.45 896.546,1467.55 
  "/>
<polyline clip-path="url(#clip660)" style="stroke:#000000; stroke-linecap:butt; stroke-linejoin:round; stroke-width:4; stroke-opacity:1; fill:none" points="
  1260.94,1486.45 1260.94,1467.55 
  "/>
<polyline clip-path="url(#clip660)" style="stroke:#000000; stroke-linecap:butt; stroke-linejoin:round; stroke-width:4; stroke-opacity:1; fill:none" points="
  1625.33,1486.45 1625.33,1467.55 
  "/>
<polyline clip-path="url(#clip660)" style="stroke:#000000; stroke-linecap:butt; stroke-linejoin:round; stroke-width:4; stroke-opacity:1; fill:none" points="
  1989.72,1486.45 1989.72,1467.55 
  "/>
<path clip-path="url(#clip660)" d="M483.994 1514.29 L502.35 1514.29 L502.35 1518.22 L488.276 1518.22 L488.276 1526.7 Q489.295 1526.35 490.313 1526.19 Q491.332 1526 492.35 1526 Q498.137 1526 501.517 1529.17 Q504.897 1532.34 504.897 1537.76 Q504.897 1543.34 501.424 1546.44 Q497.952 1549.52 491.633 1549.52 Q489.457 1549.52 487.188 1549.15 Q484.943 1548.78 482.536 1548.04 L482.536 1543.34 Q484.619 1544.47 486.841 1545.03 Q489.063 1545.58 491.54 1545.58 Q495.545 1545.58 497.883 1543.48 Q500.221 1541.37 500.221 1537.76 Q500.221 1534.15 497.883 1532.04 Q495.545 1529.94 491.54 1529.94 Q489.665 1529.94 487.79 1530.35 Q485.938 1530.77 483.994 1531.65 L483.994 1514.29 Z" fill="#000000" fill-rule="evenodd" fill-opacity="1" /><path clip-path="url(#clip660)" d="M514.11 1542.97 L518.994 1542.97 L518.994 1548.85 L514.11 1548.85 L514.11 1542.97 Z" fill="#000000" fill-rule="evenodd" fill-opacity="1" /><path clip-path="url(#clip660)" d="M529.318 1548.13 L529.318 1543.87 Q531.077 1544.7 532.883 1545.14 Q534.688 1545.58 536.424 1545.58 Q541.054 1545.58 543.484 1542.48 Q545.938 1539.36 546.285 1533.01 Q544.943 1535.01 542.883 1536.07 Q540.822 1537.13 538.322 1537.13 Q533.137 1537.13 530.105 1534.01 Q527.096 1530.86 527.096 1525.42 Q527.096 1520.1 530.244 1516.88 Q533.392 1513.66 538.623 1513.66 Q544.619 1513.66 547.767 1518.27 Q550.938 1522.85 550.938 1531.6 Q550.938 1539.77 547.049 1544.66 Q543.184 1549.52 536.633 1549.52 Q534.873 1549.52 533.068 1549.17 Q531.262 1548.82 529.318 1548.13 M538.623 1533.48 Q541.771 1533.48 543.6 1531.32 Q545.452 1529.17 545.452 1525.42 Q545.452 1521.7 543.6 1519.54 Q541.771 1517.37 538.623 1517.37 Q535.475 1517.37 533.623 1519.54 Q531.795 1521.7 531.795 1525.42 Q531.795 1529.17 533.623 1531.32 Q535.475 1533.48 538.623 1533.48 Z" fill="#000000" fill-rule="evenodd" fill-opacity="1" /><path clip-path="url(#clip660)" d="M572.188 1518.36 L560.382 1536.81 L572.188 1536.81 L572.188 1518.36 M570.961 1514.29 L576.841 1514.29 L576.841 1536.81 L581.771 1536.81 L581.771 1540.7 L576.841 1540.7 L576.841 1548.85 L572.188 1548.85 L572.188 1540.7 L556.586 1540.7 L556.586 1536.19 L570.961 1514.29 Z" fill="#000000" fill-rule="evenodd" fill-opacity="1" /><path clip-path="url(#clip660)" d="M849.081 1514.29 L867.437 1514.29 L867.437 1518.22 L853.363 1518.22 L853.363 1526.7 Q854.382 1526.35 855.4 1526.19 Q856.419 1526 857.437 1526 Q863.224 1526 866.604 1529.17 Q869.984 1532.34 869.984 1537.76 Q869.984 1543.34 866.511 1546.44 Q863.039 1549.52 856.72 1549.52 Q854.544 1549.52 852.275 1549.15 Q850.03 1548.78 847.623 1548.04 L847.623 1543.34 Q849.706 1544.47 851.928 1545.03 Q854.15 1545.58 856.627 1545.58 Q860.632 1545.58 862.97 1543.48 Q865.308 1541.37 865.308 1537.76 Q865.308 1534.15 862.97 1532.04 Q860.632 1529.94 856.627 1529.94 Q854.752 1529.94 852.877 1530.35 Q851.025 1530.77 849.081 1531.65 L849.081 1514.29 Z" fill="#000000" fill-rule="evenodd" fill-opacity="1" /><path clip-path="url(#clip660)" d="M879.197 1542.97 L884.081 1542.97 L884.081 1548.85 L879.197 1548.85 L879.197 1542.97 Z" fill="#000000" fill-rule="evenodd" fill-opacity="1" /><path clip-path="url(#clip660)" d="M894.405 1548.13 L894.405 1543.87 Q896.164 1544.7 897.97 1545.14 Q899.775 1545.58 901.511 1545.58 Q906.141 1545.58 908.571 1542.48 Q911.025 1539.36 911.372 1533.01 Q910.03 1535.01 907.97 1536.07 Q905.909 1537.13 903.409 1537.13 Q898.224 1537.13 895.192 1534.01 Q892.183 1530.86 892.183 1525.42 Q892.183 1520.1 895.331 1516.88 Q898.479 1513.66 903.71 1513.66 Q909.706 1513.66 912.854 1518.27 Q916.025 1522.85 916.025 1531.6 Q916.025 1539.77 912.136 1544.66 Q908.271 1549.52 901.72 1549.52 Q899.96 1549.52 898.155 1549.17 Q896.349 1548.82 894.405 1548.13 M903.71 1533.48 Q906.858 1533.48 908.687 1531.32 Q910.539 1529.17 910.539 1525.42 Q910.539 1521.7 908.687 1519.54 Q906.858 1517.37 903.71 1517.37 Q900.562 1517.37 898.71 1519.54 Q896.882 1521.7 896.882 1525.42 Q896.882 1529.17 898.71 1531.32 Q900.562 1533.48 903.71 1533.48 Z" fill="#000000" fill-rule="evenodd" fill-opacity="1" /><path clip-path="url(#clip660)" d="M923.247 1514.29 L945.469 1514.29 L945.469 1516.28 L932.923 1548.85 L928.039 1548.85 L939.844 1518.22 L923.247 1518.22 L923.247 1514.29 Z" fill="#000000" fill-rule="evenodd" fill-opacity="1" /><path clip-path="url(#clip660)" d="M1223.73 1529.7 Q1220.58 1529.7 1218.73 1531.86 Q1216.9 1534.01 1216.9 1537.76 Q1216.9 1541.49 1218.73 1543.66 Q1220.58 1545.82 1223.73 1545.82 Q1226.88 1545.82 1228.7 1543.66 Q1230.56 1541.49 1230.56 1537.76 Q1230.56 1534.01 1228.7 1531.86 Q1226.88 1529.7 1223.73 1529.7 M1233.01 1515.05 L1233.01 1519.31 Q1231.25 1518.48 1229.45 1518.04 Q1227.66 1517.6 1225.9 1517.6 Q1221.27 1517.6 1218.82 1520.72 Q1216.39 1523.85 1216.04 1530.17 Q1217.41 1528.15 1219.47 1527.09 Q1221.53 1526 1224.01 1526 Q1229.21 1526 1232.22 1529.17 Q1235.26 1532.32 1235.26 1537.76 Q1235.26 1543.08 1232.11 1546.3 Q1228.96 1549.52 1223.73 1549.52 Q1217.73 1549.52 1214.56 1544.94 Q1211.39 1540.33 1211.39 1531.6 Q1211.39 1523.41 1215.28 1518.55 Q1219.17 1513.66 1225.72 1513.66 Q1227.48 1513.66 1229.26 1514.01 Q1231.07 1514.36 1233.01 1515.05 Z" fill="#000000" fill-rule="evenodd" fill-opacity="1" /><path clip-path="url(#clip660)" d="M1243.31 1542.97 L1248.2 1542.97 L1248.2 1548.85 L1243.31 1548.85 L1243.31 1542.97 Z" fill="#000000" fill-rule="evenodd" fill-opacity="1" /><path clip-path="url(#clip660)" d="M1268.38 1517.37 Q1264.77 1517.37 1262.94 1520.93 Q1261.14 1524.47 1261.14 1531.6 Q1261.14 1538.71 1262.94 1542.27 Q1264.77 1545.82 1268.38 1545.82 Q1272.01 1545.82 1273.82 1542.27 Q1275.65 1538.71 1275.65 1531.6 Q1275.65 1524.47 1273.82 1520.93 Q1272.01 1517.37 1268.38 1517.37 M1268.38 1513.66 Q1274.19 1513.66 1277.25 1518.27 Q1280.33 1522.85 1280.33 1531.6 Q1280.33 1540.33 1277.25 1544.94 Q1274.19 1549.52 1268.38 1549.52 Q1262.57 1549.52 1259.49 1544.94 Q1256.44 1540.33 1256.44 1531.6 Q1256.44 1522.85 1259.49 1518.27 Q1262.57 1513.66 1268.38 1513.66 Z" fill="#000000" fill-rule="evenodd" fill-opacity="1" /><path clip-path="url(#clip660)" d="M1298.54 1517.37 Q1294.93 1517.37 1293.1 1520.93 Q1291.3 1524.47 1291.3 1531.6 Q1291.3 1538.71 1293.1 1542.27 Q1294.93 1545.82 1298.54 1545.82 Q1302.18 1545.82 1303.98 1542.27 Q1305.81 1538.71 1305.81 1531.6 Q1305.81 1524.47 1303.98 1520.93 Q1302.18 1517.37 1298.54 1517.37 M1298.54 1513.66 Q1304.35 1513.66 1307.41 1518.27 Q1310.49 1522.85 1310.49 1531.6 Q1310.49 1540.33 1307.41 1544.94 Q1304.35 1549.52 1298.54 1549.52 Q1292.73 1549.52 1289.65 1544.94 Q1286.6 1540.33 1286.6 1531.6 Q1286.6 1522.85 1289.65 1518.27 Q1292.73 1513.66 1298.54 1513.66 Z" fill="#000000" fill-rule="evenodd" fill-opacity="1" /><path clip-path="url(#clip660)" d="M1588.44 1529.7 Q1585.3 1529.7 1583.44 1531.86 Q1581.62 1534.01 1581.62 1537.76 Q1581.62 1541.49 1583.44 1543.66 Q1585.3 1545.82 1588.44 1545.82 Q1591.59 1545.82 1593.42 1543.66 Q1595.27 1541.49 1595.27 1537.76 Q1595.27 1534.01 1593.42 1531.86 Q1591.59 1529.7 1588.44 1529.7 M1597.73 1515.05 L1597.73 1519.31 Q1595.97 1518.48 1594.16 1518.04 Q1592.38 1517.6 1590.62 1517.6 Q1585.99 1517.6 1583.54 1520.72 Q1581.11 1523.85 1580.76 1530.17 Q1582.13 1528.15 1584.19 1527.09 Q1586.25 1526 1588.72 1526 Q1593.93 1526 1596.94 1529.17 Q1599.97 1532.32 1599.97 1537.76 Q1599.97 1543.08 1596.82 1546.3 Q1593.68 1549.52 1588.44 1549.52 Q1582.45 1549.52 1579.28 1544.94 Q1576.11 1540.33 1576.11 1531.6 Q1576.11 1523.41 1580 1518.55 Q1583.88 1513.66 1590.44 1513.66 Q1592.19 1513.66 1593.98 1514.01 Q1595.78 1514.36 1597.73 1515.05 Z" fill="#000000" fill-rule="evenodd" fill-opacity="1" /><path clip-path="url(#clip660)" d="M1608.03 1542.97 L1612.91 1542.97 L1612.91 1548.85 L1608.03 1548.85 L1608.03 1542.97 Z" fill="#000000" fill-rule="evenodd" fill-opacity="1" /><path clip-path="url(#clip660)" d="M1633.1 1517.37 Q1629.49 1517.37 1627.66 1520.93 Q1625.85 1524.47 1625.85 1531.6 Q1625.85 1538.71 1627.66 1542.27 Q1629.49 1545.82 1633.1 1545.82 Q1636.73 1545.82 1638.54 1542.27 Q1640.37 1538.71 1640.37 1531.6 Q1640.37 1524.47 1638.54 1520.93 Q1636.73 1517.37 1633.1 1517.37 M1633.1 1513.66 Q1638.91 1513.66 1641.96 1518.27 Q1645.04 1522.85 1645.04 1531.6 Q1645.04 1540.33 1641.96 1544.94 Q1638.91 1549.52 1633.1 1549.52 Q1627.29 1549.52 1624.21 1544.94 Q1621.15 1540.33 1621.15 1531.6 Q1621.15 1522.85 1624.21 1518.27 Q1627.29 1513.66 1633.1 1513.66 Z" fill="#000000" fill-rule="evenodd" fill-opacity="1" /><path clip-path="url(#clip660)" d="M1667.43 1530.21 Q1670.78 1530.93 1672.66 1533.2 Q1674.56 1535.47 1674.56 1538.8 Q1674.56 1543.92 1671.04 1546.72 Q1667.52 1549.52 1661.04 1549.52 Q1658.86 1549.52 1656.55 1549.08 Q1654.25 1548.66 1651.8 1547.81 L1651.8 1543.29 Q1653.75 1544.43 1656.06 1545.01 Q1658.37 1545.58 1660.9 1545.58 Q1665.3 1545.58 1667.59 1543.85 Q1669.9 1542.11 1669.9 1538.8 Q1669.9 1535.75 1667.75 1534.03 Q1665.62 1532.3 1661.8 1532.3 L1657.77 1532.3 L1657.77 1528.45 L1661.99 1528.45 Q1665.44 1528.45 1667.26 1527.09 Q1669.09 1525.7 1669.09 1523.11 Q1669.09 1520.45 1667.19 1519.03 Q1665.32 1517.6 1661.8 1517.6 Q1659.88 1517.6 1657.68 1518.01 Q1655.48 1518.43 1652.84 1519.31 L1652.84 1515.14 Q1655.5 1514.4 1657.82 1514.03 Q1660.16 1513.66 1662.22 1513.66 Q1667.54 1513.66 1670.64 1516.09 Q1673.75 1518.5 1673.75 1522.62 Q1673.75 1525.49 1672.1 1527.48 Q1670.46 1529.45 1667.43 1530.21 Z" fill="#000000" fill-rule="evenodd" fill-opacity="1" /><path clip-path="url(#clip660)" d="M1952.43 1529.7 Q1949.28 1529.7 1947.43 1531.86 Q1945.6 1534.01 1945.6 1537.76 Q1945.6 1541.49 1947.43 1543.66 Q1949.28 1545.82 1952.43 1545.82 Q1955.58 1545.82 1957.41 1543.66 Q1959.26 1541.49 1959.26 1537.76 Q1959.26 1534.01 1957.41 1531.86 Q1955.58 1529.7 1952.43 1529.7 M1961.71 1515.05 L1961.71 1519.31 Q1959.96 1518.48 1958.15 1518.04 Q1956.37 1517.6 1954.61 1517.6 Q1949.98 1517.6 1947.52 1520.72 Q1945.09 1523.85 1944.75 1530.17 Q1946.11 1528.15 1948.17 1527.09 Q1950.23 1526 1952.71 1526 Q1957.92 1526 1960.93 1529.17 Q1963.96 1532.32 1963.96 1537.76 Q1963.96 1543.08 1960.81 1546.3 Q1957.66 1549.52 1952.43 1549.52 Q1946.44 1549.52 1943.27 1544.94 Q1940.09 1540.33 1940.09 1531.6 Q1940.09 1523.41 1943.98 1518.55 Q1947.87 1513.66 1954.42 1513.66 Q1956.18 1513.66 1957.96 1514.01 Q1959.77 1514.36 1961.71 1515.05 Z" fill="#000000" fill-rule="evenodd" fill-opacity="1" /><path clip-path="url(#clip660)" d="M1972.02 1542.97 L1976.9 1542.97 L1976.9 1548.85 L1972.02 1548.85 L1972.02 1542.97 Z" fill="#000000" fill-rule="evenodd" fill-opacity="1" /><path clip-path="url(#clip660)" d="M1997.08 1517.37 Q1993.47 1517.37 1991.65 1520.93 Q1989.84 1524.47 1989.84 1531.6 Q1989.84 1538.71 1991.65 1542.27 Q1993.47 1545.82 1997.08 1545.82 Q2000.72 1545.82 2002.52 1542.27 Q2004.35 1538.71 2004.35 1531.6 Q2004.35 1524.47 2002.52 1520.93 Q2000.72 1517.37 1997.08 1517.37 M1997.08 1513.66 Q2002.89 1513.66 2005.95 1518.27 Q2009.03 1522.85 2009.03 1531.6 Q2009.03 1540.33 2005.95 1544.94 Q2002.89 1549.52 1997.08 1549.52 Q1991.27 1549.52 1988.2 1544.94 Q1985.14 1540.33 1985.14 1531.6 Q1985.14 1522.85 1988.2 1518.27 Q1991.27 1513.66 1997.08 1513.66 Z" fill="#000000" fill-rule="evenodd" fill-opacity="1" /><path clip-path="url(#clip660)" d="M2027.83 1529.7 Q2024.68 1529.7 2022.83 1531.86 Q2021 1534.01 2021 1537.76 Q2021 1541.49 2022.83 1543.66 Q2024.68 1545.82 2027.83 1545.82 Q2030.97 1545.82 2032.8 1543.66 Q2034.65 1541.49 2034.65 1537.76 Q2034.65 1534.01 2032.8 1531.86 Q2030.97 1529.7 2027.83 1529.7 M2037.11 1515.05 L2037.11 1519.31 Q2035.35 1518.48 2033.54 1518.04 Q2031.76 1517.6 2030 1517.6 Q2025.37 1517.6 2022.92 1520.72 Q2020.49 1523.85 2020.14 1530.17 Q2021.51 1528.15 2023.57 1527.09 Q2025.63 1526 2028.1 1526 Q2033.31 1526 2036.32 1529.17 Q2039.35 1532.32 2039.35 1537.76 Q2039.35 1543.08 2036.2 1546.3 Q2033.06 1549.52 2027.83 1549.52 Q2021.83 1549.52 2018.66 1544.94 Q2015.49 1540.33 2015.49 1531.6 Q2015.49 1523.41 2019.38 1518.55 Q2023.27 1513.66 2029.82 1513.66 Q2031.58 1513.66 2033.36 1514.01 Q2035.16 1514.36 2037.11 1515.05 Z" fill="#000000" fill-rule="evenodd" fill-opacity="1" /><polyline clip-path="url(#clip663)" style="stroke:#000000; stroke-linecap:butt; stroke-linejoin:round; stroke-width:2; stroke-opacity:0.1; fill:none" points="
  169.121,1468.36 2352.76,1468.36 
  "/>
<polyline clip-path="url(#clip663)" style="stroke:#000000; stroke-linecap:butt; stroke-linejoin:round; stroke-width:2; stroke-opacity:0.1; fill:none" points="
  169.121,1282.24 2352.76,1282.24 
  "/>
<polyline clip-path="url(#clip663)" style="stroke:#000000; stroke-linecap:butt; stroke-linejoin:round; stroke-width:2; stroke-opacity:0.1; fill:none" points="
  169.121,1096.12 2352.76,1096.12 
  "/>
<polyline clip-path="url(#clip663)" style="stroke:#000000; stroke-linecap:butt; stroke-linejoin:round; stroke-width:2; stroke-opacity:0.1; fill:none" points="
  169.121,910.003 2352.76,910.003 
  "/>
<polyline clip-path="url(#clip660)" style="stroke:#000000; stroke-linecap:butt; stroke-linejoin:round; stroke-width:4; stroke-opacity:1; fill:none" points="
  169.121,1486.45 169.121,847.244 
  "/>
<polyline clip-path="url(#clip660)" style="stroke:#000000; stroke-linecap:butt; stroke-linejoin:round; stroke-width:4; stroke-opacity:1; fill:none" points="
  169.121,1468.36 188.019,1468.36 
  "/>
<polyline clip-path="url(#clip660)" style="stroke:#000000; stroke-linecap:butt; stroke-linejoin:round; stroke-width:4; stroke-opacity:1; fill:none" points="
  169.121,1282.24 188.019,1282.24 
  "/>
<polyline clip-path="url(#clip660)" style="stroke:#000000; stroke-linecap:butt; stroke-linejoin:round; stroke-width:4; stroke-opacity:1; fill:none" points="
  169.121,1096.12 188.019,1096.12 
  "/>
<polyline clip-path="url(#clip660)" style="stroke:#000000; stroke-linecap:butt; stroke-linejoin:round; stroke-width:4; stroke-opacity:1; fill:none" points="
  169.121,910.003 188.019,910.003 
  "/>
<path clip-path="url(#clip660)" d="M121.177 1454.16 Q117.566 1454.16 115.737 1457.72 Q113.932 1461.26 113.932 1468.39 Q113.932 1475.5 115.737 1479.06 Q117.566 1482.6 121.177 1482.6 Q124.811 1482.6 126.617 1479.06 Q128.445 1475.5 128.445 1468.39 Q128.445 1461.26 126.617 1457.72 Q124.811 1454.16 121.177 1454.16 M121.177 1450.45 Q126.987 1450.45 130.043 1455.06 Q133.121 1459.64 133.121 1468.39 Q133.121 1477.12 130.043 1481.73 Q126.987 1486.31 121.177 1486.31 Q115.367 1486.31 112.288 1481.73 Q109.233 1477.12 109.233 1468.39 Q109.233 1459.64 112.288 1455.06 Q115.367 1450.45 121.177 1450.45 Z" fill="#000000" fill-rule="evenodd" fill-opacity="1" /><path clip-path="url(#clip660)" d="M81.0614 1264.96 L99.4178 1264.96 L99.4178 1268.89 L85.3438 1268.89 L85.3438 1277.37 Q86.3623 1277.02 87.3808 1276.86 Q88.3993 1276.67 89.4178 1276.67 Q95.2049 1276.67 98.5845 1279.84 Q101.964 1283.01 101.964 1288.43 Q101.964 1294.01 98.4919 1297.11 Q95.0197 1300.19 88.7003 1300.19 Q86.5243 1300.19 84.2558 1299.82 Q82.0105 1299.45 79.6031 1298.71 L79.6031 1294.01 Q81.6864 1295.14 83.9086 1295.7 Q86.1308 1296.26 88.6077 1296.26 Q92.6123 1296.26 94.9502 1294.15 Q97.2882 1292.04 97.2882 1288.43 Q97.2882 1284.82 94.9502 1282.71 Q92.6123 1280.61 88.6077 1280.61 Q86.7327 1280.61 84.8577 1281.02 Q83.0058 1281.44 81.0614 1282.32 L81.0614 1264.96 Z" fill="#000000" fill-rule="evenodd" fill-opacity="1" /><path clip-path="url(#clip660)" d="M121.177 1268.04 Q117.566 1268.04 115.737 1271.6 Q113.932 1275.14 113.932 1282.27 Q113.932 1289.38 115.737 1292.95 Q117.566 1296.49 121.177 1296.49 Q124.811 1296.49 126.617 1292.95 Q128.445 1289.38 128.445 1282.27 Q128.445 1275.14 126.617 1271.6 Q124.811 1268.04 121.177 1268.04 M121.177 1264.33 Q126.987 1264.33 130.043 1268.94 Q133.121 1273.52 133.121 1282.27 Q133.121 1291 130.043 1295.61 Q126.987 1300.19 121.177 1300.19 Q115.367 1300.19 112.288 1295.61 Q109.233 1291 109.233 1282.27 Q109.233 1273.52 112.288 1268.94 Q115.367 1264.33 121.177 1264.33 Z" fill="#000000" fill-rule="evenodd" fill-opacity="1" /><path clip-path="url(#clip660)" d="M51.6634 1109.47 L59.3023 1109.47 L59.3023 1083.1 L50.9921 1084.77 L50.9921 1080.51 L59.256 1078.84 L63.9319 1078.84 L63.9319 1109.47 L71.5707 1109.47 L71.5707 1113.4 L51.6634 1113.4 L51.6634 1109.47 Z" fill="#000000" fill-rule="evenodd" fill-opacity="1" /><path clip-path="url(#clip660)" d="M91.0151 1081.92 Q87.404 1081.92 85.5753 1085.48 Q83.7697 1089.03 83.7697 1096.16 Q83.7697 1103.26 85.5753 1106.83 Q87.404 1110.37 91.0151 1110.37 Q94.6493 1110.37 96.4548 1106.83 Q98.2835 1103.26 98.2835 1096.16 Q98.2835 1089.03 96.4548 1085.48 Q94.6493 1081.92 91.0151 1081.92 M91.0151 1078.22 Q96.8252 1078.22 99.8808 1082.82 Q102.959 1087.41 102.959 1096.16 Q102.959 1104.88 99.8808 1109.49 Q96.8252 1114.07 91.0151 1114.07 Q85.2049 1114.07 82.1262 1109.49 Q79.0707 1104.88 79.0707 1096.16 Q79.0707 1087.41 82.1262 1082.82 Q85.2049 1078.22 91.0151 1078.22 Z" fill="#000000" fill-rule="evenodd" fill-opacity="1" /><path clip-path="url(#clip660)" d="M121.177 1081.92 Q117.566 1081.92 115.737 1085.48 Q113.932 1089.03 113.932 1096.16 Q113.932 1103.26 115.737 1106.83 Q117.566 1110.37 121.177 1110.37 Q124.811 1110.37 126.617 1106.83 Q128.445 1103.26 128.445 1096.16 Q128.445 1089.03 126.617 1085.48 Q124.811 1081.92 121.177 1081.92 M121.177 1078.22 Q126.987 1078.22 130.043 1082.82 Q133.121 1087.41 133.121 1096.16 Q133.121 1104.88 130.043 1109.49 Q126.987 1114.07 121.177 1114.07 Q115.367 1114.07 112.288 1109.49 Q109.233 1104.88 109.233 1096.16 Q109.233 1087.41 112.288 1082.82 Q115.367 1078.22 121.177 1078.22 Z" fill="#000000" fill-rule="evenodd" fill-opacity="1" /><path clip-path="url(#clip660)" d="M51.6634 923.348 L59.3023 923.348 L59.3023 896.982 L50.9921 898.649 L50.9921 894.39 L59.256 892.723 L63.9319 892.723 L63.9319 923.348 L71.5707 923.348 L71.5707 927.283 L51.6634 927.283 L51.6634 923.348 Z" fill="#000000" fill-rule="evenodd" fill-opacity="1" /><path clip-path="url(#clip660)" d="M81.0614 892.723 L99.4178 892.723 L99.4178 896.658 L85.3438 896.658 L85.3438 905.13 Q86.3623 904.783 87.3808 904.621 Q88.3993 904.436 89.4178 904.436 Q95.2049 904.436 98.5845 907.607 Q101.964 910.779 101.964 916.195 Q101.964 921.774 98.4919 924.876 Q95.0197 927.954 88.7003 927.954 Q86.5243 927.954 84.2558 927.584 Q82.0105 927.214 79.6031 926.473 L79.6031 921.774 Q81.6864 922.908 83.9086 923.464 Q86.1308 924.019 88.6077 924.019 Q92.6123 924.019 94.9502 921.913 Q97.2882 919.806 97.2882 916.195 Q97.2882 912.584 94.9502 910.478 Q92.6123 908.371 88.6077 908.371 Q86.7327 908.371 84.8577 908.788 Q83.0058 909.204 81.0614 910.084 L81.0614 892.723 Z" fill="#000000" fill-rule="evenodd" fill-opacity="1" /><path clip-path="url(#clip660)" d="M121.177 895.802 Q117.566 895.802 115.737 899.367 Q113.932 902.908 113.932 910.038 Q113.932 917.144 115.737 920.709 Q117.566 924.251 121.177 924.251 Q124.811 924.251 126.617 920.709 Q128.445 917.144 128.445 910.038 Q128.445 902.908 126.617 899.367 Q124.811 895.802 121.177 895.802 M121.177 892.098 Q126.987 892.098 130.043 896.705 Q133.121 901.288 133.121 910.038 Q133.121 918.765 130.043 923.371 Q126.987 927.954 121.177 927.954 Q115.367 927.954 112.288 923.371 Q109.233 918.765 109.233 910.038 Q109.233 901.288 112.288 896.705 Q115.367 892.098 121.177 892.098 Z" fill="#000000" fill-rule="evenodd" fill-opacity="1" /><path clip-path="url(#clip663)" d="
M289.225 1460.91 L289.225 1468.36 L410.689 1468.36 L410.689 1460.91 L289.225 1460.91 L289.225 1460.91  Z
  " fill="#009af9" fill-rule="evenodd" fill-opacity="1"/>
<polyline clip-path="url(#clip663)" style="stroke:#000000; stroke-linecap:butt; stroke-linejoin:round; stroke-width:4; stroke-opacity:1; fill:none" points="
  289.225,1460.91 289.225,1468.36 410.689,1468.36 410.689,1460.91 289.225,1460.91 
  "/>
<path clip-path="url(#clip663)" d="
M410.689 1457.19 L410.689 1468.36 L532.153 1468.36 L532.153 1457.19 L410.689 1457.19 L410.689 1457.19  Z
  " fill="#009af9" fill-rule="evenodd" fill-opacity="1"/>
<polyline clip-path="url(#clip663)" style="stroke:#000000; stroke-linecap:butt; stroke-linejoin:round; stroke-width:4; stroke-opacity:1; fill:none" points="
  410.689,1457.19 410.689,1468.36 532.153,1468.36 532.153,1457.19 410.689,1457.19 
  "/>
<path clip-path="url(#clip663)" d="
M532.153 1416.24 L532.153 1468.36 L653.618 1468.36 L653.618 1416.24 L532.153 1416.24 L532.153 1416.24  Z
  " fill="#009af9" fill-rule="evenodd" fill-opacity="1"/>
<polyline clip-path="url(#clip663)" style="stroke:#000000; stroke-linecap:butt; stroke-linejoin:round; stroke-width:4; stroke-opacity:1; fill:none" points="
  532.153,1416.24 532.153,1468.36 653.618,1468.36 653.618,1416.24 532.153,1416.24 
  "/>
<path clip-path="url(#clip663)" d="
M653.618 1386.47 L653.618 1468.36 L775.082 1468.36 L775.082 1386.47 L653.618 1386.47 L653.618 1386.47  Z
  " fill="#009af9" fill-rule="evenodd" fill-opacity="1"/>
<polyline clip-path="url(#clip663)" style="stroke:#000000; stroke-linecap:butt; stroke-linejoin:round; stroke-width:4; stroke-opacity:1; fill:none" points="
  653.618,1386.47 653.618,1468.36 775.082,1468.36 775.082,1386.47 653.618,1386.47 
  "/>
<path clip-path="url(#clip663)" d="
M775.082 1293.41 L775.082 1468.36 L896.546 1468.36 L896.546 1293.41 L775.082 1293.41 L775.082 1293.41  Z
  " fill="#009af9" fill-rule="evenodd" fill-opacity="1"/>
<polyline clip-path="url(#clip663)" style="stroke:#000000; stroke-linecap:butt; stroke-linejoin:round; stroke-width:4; stroke-opacity:1; fill:none" points="
  775.082,1293.41 775.082,1468.36 896.546,1468.36 896.546,1293.41 775.082,1293.41 
  "/>
<path clip-path="url(#clip663)" d="
M896.546 1036.56 L896.546 1468.36 L1018.01 1468.36 L1018.01 1036.56 L896.546 1036.56 L896.546 1036.56  Z
  " fill="#009af9" fill-rule="evenodd" fill-opacity="1"/>
<polyline clip-path="url(#clip663)" style="stroke:#000000; stroke-linecap:butt; stroke-linejoin:round; stroke-width:4; stroke-opacity:1; fill:none" points="
  896.546,1036.56 896.546,1468.36 1018.01,1468.36 1018.01,1036.56 896.546,1036.56 
  "/>
<path clip-path="url(#clip663)" d="
M1018.01 947.227 L1018.01 1468.36 L1139.47 1468.36 L1139.47 947.227 L1018.01 947.227 L1018.01 947.227  Z
  " fill="#009af9" fill-rule="evenodd" fill-opacity="1"/>
<polyline clip-path="url(#clip663)" style="stroke:#000000; stroke-linecap:butt; stroke-linejoin:round; stroke-width:4; stroke-opacity:1; fill:none" points="
  1018.01,947.227 1018.01,1468.36 1139.47,1468.36 1139.47,947.227 1018.01,947.227 
  "/>
<path clip-path="url(#clip663)" d="
M1139.47 876.502 L1139.47 1468.36 L1260.94 1468.36 L1260.94 876.502 L1139.47 876.502 L1139.47 876.502  Z
  " fill="#009af9" fill-rule="evenodd" fill-opacity="1"/>
<polyline clip-path="url(#clip663)" style="stroke:#000000; stroke-linecap:butt; stroke-linejoin:round; stroke-width:4; stroke-opacity:1; fill:none" points="
  1139.47,876.502 1139.47,1468.36 1260.94,1468.36 1260.94,876.502 1139.47,876.502 
  "/>
<path clip-path="url(#clip663)" d="
M1260.94 865.335 L1260.94 1468.36 L1382.4 1468.36 L1382.4 865.335 L1260.94 865.335 L1260.94 865.335  Z
  " fill="#009af9" fill-rule="evenodd" fill-opacity="1"/>
<polyline clip-path="url(#clip663)" style="stroke:#000000; stroke-linecap:butt; stroke-linejoin:round; stroke-width:4; stroke-opacity:1; fill:none" points="
  1260.94,865.335 1260.94,1468.36 1382.4,1468.36 1382.4,865.335 1260.94,865.335 
  "/>
<path clip-path="url(#clip663)" d="
M1382.4 1003.06 L1382.4 1468.36 L1503.87 1468.36 L1503.87 1003.06 L1382.4 1003.06 L1382.4 1003.06  Z
  " fill="#009af9" fill-rule="evenodd" fill-opacity="1"/>
<polyline clip-path="url(#clip663)" style="stroke:#000000; stroke-linecap:butt; stroke-linejoin:round; stroke-width:4; stroke-opacity:1; fill:none" points="
  1382.4,1003.06 1382.4,1468.36 1503.87,1468.36 1503.87,1003.06 1382.4,1003.06 
  "/>
<path clip-path="url(#clip663)" d="
M1503.87 1103.57 L1503.87 1468.36 L1625.33 1468.36 L1625.33 1103.57 L1503.87 1103.57 L1503.87 1103.57  Z
  " fill="#009af9" fill-rule="evenodd" fill-opacity="1"/>
<polyline clip-path="url(#clip663)" style="stroke:#000000; stroke-linecap:butt; stroke-linejoin:round; stroke-width:4; stroke-opacity:1; fill:none" points="
  1503.87,1103.57 1503.87,1468.36 1625.33,1468.36 1625.33,1103.57 1503.87,1103.57 
  "/>
<path clip-path="url(#clip663)" d="
M1625.33 1256.18 L1625.33 1468.36 L1746.8 1468.36 L1746.8 1256.18 L1625.33 1256.18 L1625.33 1256.18  Z
  " fill="#009af9" fill-rule="evenodd" fill-opacity="1"/>
<polyline clip-path="url(#clip663)" style="stroke:#000000; stroke-linecap:butt; stroke-linejoin:round; stroke-width:4; stroke-opacity:1; fill:none" points="
  1625.33,1256.18 1625.33,1468.36 1746.8,1468.36 1746.8,1256.18 1625.33,1256.18 
  "/>
<path clip-path="url(#clip663)" d="
M1746.8 1326.91 L1746.8 1468.36 L1868.26 1468.36 L1868.26 1326.91 L1746.8 1326.91 L1746.8 1326.91  Z
  " fill="#009af9" fill-rule="evenodd" fill-opacity="1"/>
<polyline clip-path="url(#clip663)" style="stroke:#000000; stroke-linecap:butt; stroke-linejoin:round; stroke-width:4; stroke-opacity:1; fill:none" points="
  1746.8,1326.91 1746.8,1468.36 1868.26,1468.36 1868.26,1326.91 1746.8,1326.91 
  "/>
<path clip-path="url(#clip663)" d="
M1868.26 1423.69 L1868.26 1468.36 L1989.72 1468.36 L1989.72 1423.69 L1868.26 1423.69 L1868.26 1423.69  Z
  " fill="#009af9" fill-rule="evenodd" fill-opacity="1"/>
<polyline clip-path="url(#clip663)" style="stroke:#000000; stroke-linecap:butt; stroke-linejoin:round; stroke-width:4; stroke-opacity:1; fill:none" points="
  1868.26,1423.69 1868.26,1468.36 1989.72,1468.36 1989.72,1423.69 1868.26,1423.69 
  "/>
<path clip-path="url(#clip663)" d="
M1989.72 1453.47 L1989.72 1468.36 L2111.19 1468.36 L2111.19 1453.47 L1989.72 1453.47 L1989.72 1453.47  Z
  " fill="#009af9" fill-rule="evenodd" fill-opacity="1"/>
<polyline clip-path="url(#clip663)" style="stroke:#000000; stroke-linecap:butt; stroke-linejoin:round; stroke-width:4; stroke-opacity:1; fill:none" points="
  1989.72,1453.47 1989.72,1468.36 2111.19,1468.36 2111.19,1453.47 1989.72,1453.47 
  "/>
<path clip-path="url(#clip663)" d="
M2111.19 1464.63 L2111.19 1468.36 L2232.65 1468.36 L2232.65 1464.63 L2111.19 1464.63 L2111.19 1464.63  Z
  " fill="#009af9" fill-rule="evenodd" fill-opacity="1"/>
<polyline clip-path="url(#clip663)" style="stroke:#000000; stroke-linecap:butt; stroke-linejoin:round; stroke-width:4; stroke-opacity:1; fill:none" points="
  2111.19,1464.63 2111.19,1468.36 2232.65,1468.36 2232.65,1464.63 2111.19,1464.63 
  "/>
<circle clip-path="url(#clip663)" style="fill:#009af9; stroke:none; fill-opacity:0" cx="349.957" cy="1460.91" r="2"/>
<circle clip-path="url(#clip663)" style="fill:#009af9; stroke:none; fill-opacity:0" cx="471.421" cy="1457.19" r="2"/>
<circle clip-path="url(#clip663)" style="fill:#009af9; stroke:none; fill-opacity:0" cx="592.886" cy="1416.24" r="2"/>
<circle clip-path="url(#clip663)" style="fill:#009af9; stroke:none; fill-opacity:0" cx="714.35" cy="1386.47" r="2"/>
<circle clip-path="url(#clip663)" style="fill:#009af9; stroke:none; fill-opacity:0" cx="835.814" cy="1293.41" r="2"/>
<circle clip-path="url(#clip663)" style="fill:#009af9; stroke:none; fill-opacity:0" cx="957.278" cy="1036.56" r="2"/>
<circle clip-path="url(#clip663)" style="fill:#009af9; stroke:none; fill-opacity:0" cx="1078.74" cy="947.227" r="2"/>
<circle clip-path="url(#clip663)" style="fill:#009af9; stroke:none; fill-opacity:0" cx="1200.21" cy="876.502" r="2"/>
<circle clip-path="url(#clip663)" style="fill:#009af9; stroke:none; fill-opacity:0" cx="1321.67" cy="865.335" r="2"/>
<circle clip-path="url(#clip663)" style="fill:#009af9; stroke:none; fill-opacity:0" cx="1443.13" cy="1003.06" r="2"/>
<circle clip-path="url(#clip663)" style="fill:#009af9; stroke:none; fill-opacity:0" cx="1564.6" cy="1103.57" r="2"/>
<circle clip-path="url(#clip663)" style="fill:#009af9; stroke:none; fill-opacity:0" cx="1686.06" cy="1256.18" r="2"/>
<circle clip-path="url(#clip663)" style="fill:#009af9; stroke:none; fill-opacity:0" cx="1807.53" cy="1326.91" r="2"/>
<circle clip-path="url(#clip663)" style="fill:#009af9; stroke:none; fill-opacity:0" cx="1928.99" cy="1423.69" r="2"/>
<circle clip-path="url(#clip663)" style="fill:#009af9; stroke:none; fill-opacity:0" cx="2050.46" cy="1453.47" r="2"/>
<circle clip-path="url(#clip663)" style="fill:#009af9; stroke:none; fill-opacity:0" cx="2171.92" cy="1464.63" r="2"/>
<path clip-path="url(#clip660)" d="
M1781.9 972.231 L2279.97 972.231 L2279.97 868.551 L1781.9 868.551  Z
  " fill="#ffffff" fill-rule="evenodd" fill-opacity="1"/>
<polyline clip-path="url(#clip660)" style="stroke:#000000; stroke-linecap:butt; stroke-linejoin:round; stroke-width:4; stroke-opacity:1; fill:none" points="
  1781.9,972.231 2279.97,972.231 2279.97,868.551 1781.9,868.551 1781.9,972.231 
  "/>
<path clip-path="url(#clip660)" d="
M1806.17 941.127 L1951.74 941.127 L1951.74 899.655 L1806.17 899.655 L1806.17 941.127  Z
  " fill="#009af9" fill-rule="evenodd" fill-opacity="1"/>
<polyline clip-path="url(#clip660)" style="stroke:#000000; stroke-linecap:butt; stroke-linejoin:round; stroke-width:4; stroke-opacity:1; fill:none" points="
  1806.17,941.127 1951.74,941.127 1951.74,899.655 1806.17,899.655 1806.17,941.127 
  "/>
<path clip-path="url(#clip660)" d="M1980.68 921.166 L1980.68 933.828 L1988.18 933.828 Q1991.95 933.828 1993.76 932.277 Q1995.59 930.703 1995.59 927.486 Q1995.59 924.245 1993.76 922.717 Q1991.95 921.166 1988.18 921.166 L1980.68 921.166 M1980.68 906.953 L1980.68 917.37 L1987.6 917.37 Q1991.03 917.37 1992.69 916.097 Q1994.38 914.801 1994.38 912.162 Q1994.38 909.546 1992.69 908.25 Q1991.03 906.953 1987.6 906.953 L1980.68 906.953 M1976 903.111 L1987.95 903.111 Q1993.3 903.111 1996.19 905.333 Q1999.08 907.555 1999.08 911.653 Q1999.08 914.824 1997.6 916.699 Q1996.12 918.574 1993.25 919.037 Q1996.7 919.777 1998.6 922.139 Q2000.52 924.477 2000.52 927.995 Q2000.52 932.625 1997.37 935.148 Q1994.22 937.671 1988.41 937.671 L1976 937.671 L1976 903.111 Z" fill="#000000" fill-rule="evenodd" fill-opacity="1" /><path clip-path="url(#clip660)" d="M2052.18 912.208 L2041.61 922.833 L2052.18 933.412 L2049.43 936.213 L2038.81 925.588 L2028.18 936.213 L2025.45 933.412 L2036 922.833 L2025.45 912.208 L2028.18 909.407 L2038.81 920.032 L2049.43 909.407 L2052.18 912.208 Z" fill="#000000" fill-rule="evenodd" fill-opacity="1" /><path clip-path="url(#clip660)" d="M2079.61 933.736 L2087.25 933.736 L2087.25 907.37 L2078.94 909.037 L2078.94 904.778 L2087.21 903.111 L2091.88 903.111 L2091.88 933.736 L2099.52 933.736 L2099.52 937.671 L2079.61 937.671 L2079.61 933.736 Z" fill="#000000" fill-rule="evenodd" fill-opacity="1" /><path clip-path="url(#clip660)" d="M2118.97 906.19 Q2115.36 906.19 2113.53 909.754 Q2111.72 913.296 2111.72 920.426 Q2111.72 927.532 2113.53 931.097 Q2115.36 934.638 2118.97 934.638 Q2122.6 934.638 2124.41 931.097 Q2126.24 927.532 2126.24 920.426 Q2126.24 913.296 2124.41 909.754 Q2122.6 906.19 2118.97 906.19 M2118.97 902.486 Q2124.78 902.486 2127.83 907.092 Q2130.91 911.676 2130.91 920.426 Q2130.91 929.152 2127.83 933.759 Q2124.78 938.342 2118.97 938.342 Q2113.16 938.342 2110.08 933.759 Q2107.02 929.152 2107.02 920.426 Q2107.02 911.676 2110.08 907.092 Q2113.16 902.486 2118.97 902.486 Z" fill="#000000" fill-rule="evenodd" fill-opacity="1" /><path clip-path="url(#clip660)" d="M2156.19 903.111 L2168.76 916.004 L2164.11 916.004 L2153.92 906.861 L2143.74 916.004 L2139.08 916.004 L2151.65 903.111 L2156.19 903.111 Z" fill="#000000" fill-rule="evenodd" fill-opacity="1" /><path clip-path="url(#clip660)" d="M2179.66 933.736 L2187.3 933.736 L2187.3 907.37 L2178.99 909.037 L2178.99 904.778 L2187.25 903.111 L2191.93 903.111 L2191.93 933.736 L2199.57 933.736 L2199.57 937.671 L2179.66 937.671 L2179.66 933.736 Z" fill="#000000" fill-rule="evenodd" fill-opacity="1" /><path clip-path="url(#clip660)" d="M2221.86 907.185 L2210.05 925.634 L2221.86 925.634 L2221.86 907.185 M2220.63 903.111 L2226.51 903.111 L2226.51 925.634 L2231.44 925.634 L2231.44 929.523 L2226.51 929.523 L2226.51 937.671 L2221.86 937.671 L2221.86 929.523 L2206.26 929.523 L2206.26 925.009 L2220.63 903.111 Z" fill="#000000" fill-rule="evenodd" fill-opacity="1" /></svg>
