<?xml version="1.0" encoding="utf-8"?>
<svg xmlns="http://www.w3.org/2000/svg" xmlns:xlink="http://www.w3.org/1999/xlink" width="600" height="400" viewBox="0 0 2400 1600">
<defs>
  <clipPath id="clip860">
    <rect x="0" y="0" width="2400" height="1600"/>
  </clipPath>
</defs>
<path clip-path="url(#clip860)" d="
M0 1600 L2400 1600 L2400 0 L0 0  Z
  " fill="#ffffff" fill-rule="evenodd" fill-opacity="1"/>
<defs>
  <clipPath id="clip861">
    <rect x="480" y="0" width="1681" height="1600"/>
  </clipPath>
</defs>
<path clip-path="url(#clip860)" d="
M169.121 686.448 L2352.76 686.448 L2352.76 47.2441 L169.121 47.2441  Z
  " fill="#ffffff" fill-rule="evenodd" fill-opacity="1"/>
<defs>
  <clipPath id="clip862">
    <rect x="169" y="47" width="2185" height="640"/>
  </clipPath>
</defs>
<polyline clip-path="url(#clip862)" style="stroke:#000000; stroke-linecap:butt; stroke-linejoin:round; stroke-width:2; stroke-opacity:0.1; fill:none" points="
  532.153,686.448 532.153,47.2441 
  "/>
<polyline clip-path="url(#clip862)" style="stroke:#000000; stroke-linecap:butt; stroke-linejoin:round; stroke-width:2; stroke-opacity:0.1; fill:none" points="
  896.546,686.448 896.546,47.2441 
  "/>
<polyline clip-path="url(#clip862)" style="stroke:#000000; stroke-linecap:butt; stroke-linejoin:round; stroke-width:2; stroke-opacity:0.1; fill:none" points="
  1260.94,686.448 1260.94,47.2441 
  "/>
<polyline clip-path="url(#clip862)" style="stroke:#000000; stroke-linecap:butt; stroke-linejoin:round; stroke-width:2; stroke-opacity:0.1; fill:none" points="
  1625.33,686.448 1625.33,47.2441 
  "/>
<polyline clip-path="url(#clip862)" style="stroke:#000000; stroke-linecap:butt; stroke-linejoin:round; stroke-width:2; stroke-opacity:0.1; fill:none" points="
  1989.72,686.448 1989.72,47.2441 
  "/>
<polyline clip-path="url(#clip860)" style="stroke:#000000; stroke-linecap:butt; stroke-linejoin:round; stroke-width:4; stroke-opacity:1; fill:none" points="
  169.121,686.448 2352.76,686.448 
  "/>
<polyline clip-path="url(#clip860)" style="stroke:#000000; stroke-linecap:butt; stroke-linejoin:round; stroke-width:4; stroke-opacity:1; fill:none" points="
  532.153,686.448 532.153,667.55 
  "/>
<polyline clip-path="url(#clip860)" style="stroke:#000000; stroke-linecap:butt; stroke-linejoin:round; stroke-width:4; stroke-opacity:1; fill:none" points="
  896.546,686.448 896.546,667.55 
  "/>
<polyline clip-path="url(#clip860)" style="stroke:#000000; stroke-linecap:butt; stroke-linejoin:round; stroke-width:4; stroke-opacity:1; fill:none" points="
  1260.94,686.448 1260.94,667.55 
  "/>
<polyline clip-path="url(#clip860)" style="stroke:#000000; stroke-linecap:butt; stroke-linejoin:round; stroke-width:4; stroke-opacity:1; fill:none" points="
  1625.33,686.448 1625.33,667.55 
  "/>
<polyline clip-path="url(#clip860)" style="stroke:#000000; stroke-linecap:butt; stroke-linejoin:round; stroke-width:4; stroke-opacity:1; fill:none" points="
  1989.72,686.448 1989.72,667.55 
  "/>
<path clip-path="url(#clip860)" d="M454.862 744.913 L462.501 744.913 L462.501 718.547 L454.191 720.214 L454.191 715.955 L462.455 714.288 L467.131 714.288 L467.131 744.913 L474.77 744.913 L474.77 748.848 L454.862 748.848 L454.862 744.913 Z" fill="#000000" fill-rule="evenodd" fill-opacity="1" /><path clip-path="url(#clip860)" d="M484.214 742.968 L489.098 742.968 L489.098 748.848 L484.214 748.848 L484.214 742.968 Z" fill="#000000" fill-rule="evenodd" fill-opacity="1" /><path clip-path="url(#clip860)" d="M509.862 729.704 Q506.714 729.704 504.862 731.857 Q503.033 734.01 503.033 737.76 Q503.033 741.487 504.862 743.663 Q506.714 745.815 509.862 745.815 Q513.01 745.815 514.839 743.663 Q516.691 741.487 516.691 737.76 Q516.691 734.01 514.839 731.857 Q513.01 729.704 509.862 729.704 M519.144 715.052 L519.144 719.311 Q517.385 718.478 515.579 718.038 Q513.797 717.598 512.038 717.598 Q507.408 717.598 504.955 720.723 Q502.524 723.848 502.177 730.167 Q503.543 728.154 505.603 727.089 Q507.663 726.001 510.14 726.001 Q515.348 726.001 518.357 729.172 Q521.39 732.32 521.39 737.76 Q521.39 743.084 518.242 746.302 Q515.093 749.519 509.862 749.519 Q503.867 749.519 500.695 744.936 Q497.524 740.329 497.524 731.603 Q497.524 723.408 501.413 718.547 Q505.302 713.663 511.853 713.663 Q513.612 713.663 515.394 714.01 Q517.2 714.357 519.144 715.052 Z" fill="#000000" fill-rule="evenodd" fill-opacity="1" /><path clip-path="url(#clip860)" d="M529.584 748.13 L529.584 743.871 Q531.343 744.704 533.149 745.144 Q534.954 745.584 536.69 745.584 Q541.32 745.584 543.751 742.482 Q546.204 739.357 546.552 733.015 Q545.209 735.005 543.149 736.07 Q541.089 737.135 538.589 737.135 Q533.403 737.135 530.371 734.01 Q527.362 730.862 527.362 725.422 Q527.362 720.098 530.51 716.88 Q533.658 713.663 538.89 713.663 Q544.885 713.663 548.033 718.269 Q551.204 722.853 551.204 731.603 Q551.204 739.774 547.315 744.658 Q543.45 749.519 536.899 749.519 Q535.14 749.519 533.334 749.172 Q531.528 748.825 529.584 748.13 M538.89 733.478 Q542.038 733.478 543.866 731.325 Q545.718 729.172 545.718 725.422 Q545.718 721.695 543.866 719.542 Q542.038 717.367 538.89 717.367 Q535.741 717.367 533.89 719.542 Q532.061 721.695 532.061 725.422 Q532.061 729.172 533.89 731.325 Q535.741 733.478 538.89 733.478 Z" fill="#000000" fill-rule="evenodd" fill-opacity="1" /><path clip-path="url(#clip860)" d="M570.186 729.704 Q567.038 729.704 565.186 731.857 Q563.357 734.01 563.357 737.76 Q563.357 741.487 565.186 743.663 Q567.038 745.815 570.186 745.815 Q573.334 745.815 575.163 743.663 Q577.014 741.487 577.014 737.76 Q577.014 734.01 575.163 731.857 Q573.334 729.704 570.186 729.704 M579.468 715.052 L579.468 719.311 Q577.709 718.478 575.903 718.038 Q574.121 717.598 572.362 717.598 Q567.732 717.598 565.278 720.723 Q562.848 723.848 562.501 730.167 Q563.866 728.154 565.926 727.089 Q567.987 726.001 570.463 726.001 Q575.672 726.001 578.681 729.172 Q581.713 732.32 581.713 737.76 Q581.713 743.084 578.565 746.302 Q575.417 749.519 570.186 749.519 Q564.19 749.519 561.019 744.936 Q557.848 740.329 557.848 731.603 Q557.848 723.408 561.737 718.547 Q565.626 713.663 572.176 713.663 Q573.936 713.663 575.718 714.01 Q577.524 714.357 579.468 715.052 Z" fill="#000000" fill-rule="evenodd" fill-opacity="1" /><path clip-path="url(#clip860)" d="M593.797 744.913 L610.116 744.913 L610.116 748.848 L588.172 748.848 L588.172 744.913 Q590.834 742.158 595.417 737.528 Q600.023 732.876 601.204 731.533 Q603.449 729.01 604.329 727.274 Q605.232 725.515 605.232 723.825 Q605.232 721.07 603.287 719.334 Q601.366 717.598 598.264 717.598 Q596.065 717.598 593.611 718.362 Q591.181 719.126 588.403 720.677 L588.403 715.955 Q591.227 714.82 593.681 714.242 Q596.135 713.663 598.172 713.663 Q603.542 713.663 606.736 716.348 Q609.931 719.033 609.931 723.524 Q609.931 725.654 609.121 727.575 Q608.334 729.473 606.227 732.066 Q605.648 732.737 602.547 735.954 Q599.445 739.149 593.797 744.913 Z" fill="#000000" fill-rule="evenodd" fill-opacity="1" /><path clip-path="url(#clip860)" d="M818.954 744.913 L826.593 744.913 L826.593 718.547 L818.283 720.214 L818.283 715.955 L826.546 714.288 L831.222 714.288 L831.222 744.913 L838.861 744.913 L838.861 748.848 L818.954 748.848 L818.954 744.913 Z" fill="#000000" fill-rule="evenodd" fill-opacity="1" /><path clip-path="url(#clip860)" d="M848.306 742.968 L853.19 742.968 L853.19 748.848 L848.306 748.848 L848.306 742.968 Z" fill="#000000" fill-rule="evenodd" fill-opacity="1" /><path clip-path="url(#clip860)" d="M873.954 729.704 Q870.805 729.704 868.954 731.857 Q867.125 734.01 867.125 737.76 Q867.125 741.487 868.954 743.663 Q870.805 745.815 873.954 745.815 Q877.102 745.815 878.93 743.663 Q880.782 741.487 880.782 737.76 Q880.782 734.01 878.93 731.857 Q877.102 729.704 873.954 729.704 M883.236 715.052 L883.236 719.311 Q881.477 718.478 879.671 718.038 Q877.889 717.598 876.129 717.598 Q871.5 717.598 869.046 720.723 Q866.616 723.848 866.268 730.167 Q867.634 728.154 869.694 727.089 Q871.755 726.001 874.231 726.001 Q879.44 726.001 882.449 729.172 Q885.481 732.32 885.481 737.76 Q885.481 743.084 882.333 746.302 Q879.185 749.519 873.954 749.519 Q867.958 749.519 864.787 744.936 Q861.616 740.329 861.616 731.603 Q861.616 723.408 865.505 718.547 Q869.393 713.663 875.944 713.663 Q877.704 713.663 879.486 714.01 Q881.291 714.357 883.236 715.052 Z" fill="#000000" fill-rule="evenodd" fill-opacity="1" /><path clip-path="url(#clip860)" d="M893.676 748.13 L893.676 743.871 Q895.435 744.704 897.24 745.144 Q899.046 745.584 900.782 745.584 Q905.412 745.584 907.842 742.482 Q910.296 739.357 910.643 733.015 Q909.301 735.005 907.24 736.07 Q905.18 737.135 902.68 737.135 Q897.495 737.135 894.463 734.01 Q891.453 730.862 891.453 725.422 Q891.453 720.098 894.602 716.88 Q897.75 713.663 902.981 713.663 Q908.977 713.663 912.125 718.269 Q915.296 722.853 915.296 731.603 Q915.296 739.774 911.407 744.658 Q907.541 749.519 900.99 749.519 Q899.231 749.519 897.426 749.172 Q895.62 748.825 893.676 748.13 M902.981 733.478 Q906.129 733.478 907.958 731.325 Q909.81 729.172 909.81 725.422 Q909.81 721.695 907.958 719.542 Q906.129 717.367 902.981 717.367 Q899.833 717.367 897.981 719.542 Q896.153 721.695 896.153 725.422 Q896.153 729.172 897.981 731.325 Q899.833 733.478 902.981 733.478 Z" fill="#000000" fill-rule="evenodd" fill-opacity="1" /><path clip-path="url(#clip860)" d="M934.277 729.704 Q931.129 729.704 929.277 731.857 Q927.449 734.01 927.449 737.76 Q927.449 741.487 929.277 743.663 Q931.129 745.815 934.277 745.815 Q937.425 745.815 939.254 743.663 Q941.106 741.487 941.106 737.76 Q941.106 734.01 939.254 731.857 Q937.425 729.704 934.277 729.704 M943.56 715.052 L943.56 719.311 Q941.8 718.478 939.995 718.038 Q938.212 717.598 936.453 717.598 Q931.824 717.598 929.37 720.723 Q926.939 723.848 926.592 730.167 Q927.958 728.154 930.018 727.089 Q932.078 726.001 934.555 726.001 Q939.763 726.001 942.773 729.172 Q945.805 732.32 945.805 737.76 Q945.805 743.084 942.657 746.302 Q939.509 749.519 934.277 749.519 Q928.282 749.519 925.111 744.936 Q921.939 740.329 921.939 731.603 Q921.939 723.408 925.828 718.547 Q929.717 713.663 936.268 713.663 Q938.027 713.663 939.81 714.01 Q941.615 714.357 943.56 715.052 Z" fill="#000000" fill-rule="evenodd" fill-opacity="1" /><path clip-path="url(#clip860)" d="M953.907 714.288 L972.263 714.288 L972.263 718.223 L958.189 718.223 L958.189 726.695 Q959.208 726.348 960.226 726.186 Q961.245 726.001 962.263 726.001 Q968.05 726.001 971.43 729.172 Q974.81 732.343 974.81 737.76 Q974.81 743.339 971.337 746.44 Q967.865 749.519 961.546 749.519 Q959.37 749.519 957.101 749.149 Q954.856 748.778 952.449 748.038 L952.449 743.339 Q954.532 744.473 956.754 745.028 Q958.976 745.584 961.453 745.584 Q965.458 745.584 967.796 743.478 Q970.134 741.371 970.134 737.76 Q970.134 734.149 967.796 732.042 Q965.458 729.936 961.453 729.936 Q959.578 729.936 957.703 730.353 Q955.851 730.769 953.907 731.649 L953.907 714.288 Z" fill="#000000" fill-rule="evenodd" fill-opacity="1" /><path clip-path="url(#clip860)" d="M1182.9 744.913 L1190.53 744.913 L1190.53 718.547 L1182.22 720.214 L1182.22 715.955 L1190.49 714.288 L1195.16 714.288 L1195.16 744.913 L1202.8 744.913 L1202.8 748.848 L1182.9 748.848 L1182.9 744.913 Z" fill="#000000" fill-rule="evenodd" fill-opacity="1" /><path clip-path="url(#clip860)" d="M1212.25 742.968 L1217.13 742.968 L1217.13 748.848 L1212.25 748.848 L1212.25 742.968 Z" fill="#000000" fill-rule="evenodd" fill-opacity="1" /><path clip-path="url(#clip860)" d="M1237.89 729.704 Q1234.75 729.704 1232.89 731.857 Q1231.07 734.01 1231.07 737.76 Q1231.07 741.487 1232.89 743.663 Q1234.75 745.815 1237.89 745.815 Q1241.04 745.815 1242.87 743.663 Q1244.72 741.487 1244.72 737.76 Q1244.72 734.01 1242.87 731.857 Q1241.04 729.704 1237.89 729.704 M1247.18 715.052 L1247.18 719.311 Q1245.42 718.478 1243.61 718.038 Q1241.83 717.598 1240.07 717.598 Q1235.44 717.598 1232.99 720.723 Q1230.56 723.848 1230.21 730.167 Q1231.58 728.154 1233.64 727.089 Q1235.7 726.001 1238.17 726.001 Q1243.38 726.001 1246.39 729.172 Q1249.42 732.32 1249.42 737.76 Q1249.42 743.084 1246.27 746.302 Q1243.13 749.519 1237.89 749.519 Q1231.9 749.519 1228.73 744.936 Q1225.56 740.329 1225.56 731.603 Q1225.56 723.408 1229.45 718.547 Q1233.33 713.663 1239.89 713.663 Q1241.64 713.663 1243.43 714.01 Q1245.23 714.357 1247.18 715.052 Z" fill="#000000" fill-rule="evenodd" fill-opacity="1" /><path clip-path="url(#clip860)" d="M1257.62 748.13 L1257.62 743.871 Q1259.38 744.704 1261.18 745.144 Q1262.99 745.584 1264.72 745.584 Q1269.35 745.584 1271.78 742.482 Q1274.24 739.357 1274.58 733.015 Q1273.24 735.005 1271.18 736.07 Q1269.12 737.135 1266.62 737.135 Q1261.44 737.135 1258.4 734.01 Q1255.39 730.862 1255.39 725.422 Q1255.39 720.098 1258.54 716.88 Q1261.69 713.663 1266.92 713.663 Q1272.92 713.663 1276.07 718.269 Q1279.24 722.853 1279.24 731.603 Q1279.24 739.774 1275.35 744.658 Q1271.48 749.519 1264.93 749.519 Q1263.17 749.519 1261.37 749.172 Q1259.56 748.825 1257.62 748.13 M1266.92 733.478 Q1270.07 733.478 1271.9 731.325 Q1273.75 729.172 1273.75 725.422 Q1273.75 721.695 1271.9 719.542 Q1270.07 717.367 1266.92 717.367 Q1263.77 717.367 1261.92 719.542 Q1260.09 721.695 1260.09 725.422 Q1260.09 729.172 1261.92 731.325 Q1263.77 733.478 1266.92 733.478 Z" fill="#000000" fill-rule="evenodd" fill-opacity="1" /><path clip-path="url(#clip860)" d="M1298.22 729.704 Q1295.07 729.704 1293.22 731.857 Q1291.39 734.01 1291.39 737.76 Q1291.39 741.487 1293.22 743.663 Q1295.07 745.815 1298.22 745.815 Q1301.37 745.815 1303.2 743.663 Q1305.05 741.487 1305.05 737.76 Q1305.05 734.01 1303.2 731.857 Q1301.37 729.704 1298.22 729.704 M1307.5 715.052 L1307.5 719.311 Q1305.74 718.478 1303.94 718.038 Q1302.15 717.598 1300.39 717.598 Q1295.76 717.598 1293.31 720.723 Q1290.88 723.848 1290.53 730.167 Q1291.9 728.154 1293.96 727.089 Q1296.02 726.001 1298.5 726.001 Q1303.7 726.001 1306.71 729.172 Q1309.75 732.32 1309.75 737.76 Q1309.75 743.084 1306.6 746.302 Q1303.45 749.519 1298.22 749.519 Q1292.22 749.519 1289.05 744.936 Q1285.88 740.329 1285.88 731.603 Q1285.88 723.408 1289.77 718.547 Q1293.66 713.663 1300.21 713.663 Q1301.97 713.663 1303.75 714.01 Q1305.56 714.357 1307.5 715.052 Z" fill="#000000" fill-rule="evenodd" fill-opacity="1" /><path clip-path="url(#clip860)" d="M1327.8 732.436 Q1324.47 732.436 1322.55 734.218 Q1320.65 736.001 1320.65 739.126 Q1320.65 742.251 1322.55 744.033 Q1324.47 745.815 1327.8 745.815 Q1331.13 745.815 1333.06 744.033 Q1334.98 742.228 1334.98 739.126 Q1334.98 736.001 1333.06 734.218 Q1331.16 732.436 1327.8 732.436 M1323.13 730.445 Q1320.12 729.704 1318.43 727.644 Q1316.76 725.584 1316.76 722.621 Q1316.76 718.478 1319.7 716.07 Q1322.66 713.663 1327.8 713.663 Q1332.96 713.663 1335.9 716.07 Q1338.84 718.478 1338.84 722.621 Q1338.84 725.584 1337.15 727.644 Q1335.49 729.704 1332.5 730.445 Q1335.88 731.232 1337.76 733.524 Q1339.65 735.816 1339.65 739.126 Q1339.65 744.149 1336.57 746.834 Q1333.52 749.519 1327.8 749.519 Q1322.08 749.519 1319.01 746.834 Q1315.95 744.149 1315.95 739.126 Q1315.95 735.816 1317.85 733.524 Q1319.75 731.232 1323.13 730.445 M1321.41 723.061 Q1321.41 725.746 1323.08 727.251 Q1324.77 728.755 1327.8 728.755 Q1330.81 728.755 1332.5 727.251 Q1334.21 725.746 1334.21 723.061 Q1334.21 720.376 1332.5 718.871 Q1330.81 717.367 1327.8 717.367 Q1324.77 717.367 1323.08 718.871 Q1321.41 720.376 1321.41 723.061 Z" fill="#000000" fill-rule="evenodd" fill-opacity="1" /><path clip-path="url(#clip860)" d="M1547.85 744.913 L1555.49 744.913 L1555.49 718.547 L1547.18 720.214 L1547.18 715.955 L1555.45 714.288 L1560.12 714.288 L1560.12 744.913 L1567.76 744.913 L1567.76 748.848 L1547.85 748.848 L1547.85 744.913 Z" fill="#000000" fill-rule="evenodd" fill-opacity="1" /><path clip-path="url(#clip860)" d="M1577.21 742.968 L1582.09 742.968 L1582.09 748.848 L1577.21 748.848 L1577.21 742.968 Z" fill="#000000" fill-rule="evenodd" fill-opacity="1" /><path clip-path="url(#clip860)" d="M1602.85 729.704 Q1599.71 729.704 1597.85 731.857 Q1596.03 734.01 1596.03 737.76 Q1596.03 741.487 1597.85 743.663 Q1599.71 745.815 1602.85 745.815 Q1606 745.815 1607.83 743.663 Q1609.68 741.487 1609.68 737.76 Q1609.68 734.01 1607.83 731.857 Q1606 729.704 1602.85 729.704 M1612.14 715.052 L1612.14 719.311 Q1610.38 718.478 1608.57 718.038 Q1606.79 717.598 1605.03 717.598 Q1600.4 717.598 1597.95 720.723 Q1595.52 723.848 1595.17 730.167 Q1596.54 728.154 1598.6 727.089 Q1600.66 726.001 1603.13 726.001 Q1608.34 726.001 1611.35 729.172 Q1614.38 732.32 1614.38 737.76 Q1614.38 743.084 1611.23 746.302 Q1608.09 749.519 1602.85 749.519 Q1596.86 749.519 1593.69 744.936 Q1590.52 740.329 1590.52 731.603 Q1590.52 723.408 1594.41 718.547 Q1598.29 713.663 1604.85 713.663 Q1606.6 713.663 1608.39 714.01 Q1610.19 714.357 1612.14 715.052 Z" fill="#000000" fill-rule="evenodd" fill-opacity="1" /><path clip-path="url(#clip860)" d="M1622.58 748.13 L1622.58 743.871 Q1624.34 744.704 1626.14 745.144 Q1627.95 745.584 1629.68 745.584 Q1634.31 745.584 1636.74 742.482 Q1639.2 739.357 1639.54 733.015 Q1638.2 735.005 1636.14 736.07 Q1634.08 737.135 1631.58 737.135 Q1626.4 737.135 1623.36 734.01 Q1620.35 730.862 1620.35 725.422 Q1620.35 720.098 1623.5 716.88 Q1626.65 713.663 1631.88 713.663 Q1637.88 713.663 1641.03 718.269 Q1644.2 722.853 1644.2 731.603 Q1644.2 739.774 1640.31 744.658 Q1636.44 749.519 1629.89 749.519 Q1628.13 749.519 1626.33 749.172 Q1624.52 748.825 1622.58 748.13 M1631.88 733.478 Q1635.03 733.478 1636.86 731.325 Q1638.71 729.172 1638.71 725.422 Q1638.71 721.695 1636.86 719.542 Q1635.03 717.367 1631.88 717.367 Q1628.73 717.367 1626.88 719.542 Q1625.05 721.695 1625.05 725.422 Q1625.05 729.172 1626.88 731.325 Q1628.73 733.478 1631.88 733.478 Z" fill="#000000" fill-rule="evenodd" fill-opacity="1" /><path clip-path="url(#clip860)" d="M1651.42 714.288 L1673.64 714.288 L1673.64 716.279 L1661.09 748.848 L1656.21 748.848 L1668.02 718.223 L1651.42 718.223 L1651.42 714.288 Z" fill="#000000" fill-rule="evenodd" fill-opacity="1" /><path clip-path="url(#clip860)" d="M1683.57 744.913 L1691.21 744.913 L1691.21 718.547 L1682.9 720.214 L1682.9 715.955 L1691.16 714.288 L1695.84 714.288 L1695.84 744.913 L1703.48 744.913 L1703.48 748.848 L1683.57 748.848 L1683.57 744.913 Z" fill="#000000" fill-rule="evenodd" fill-opacity="1" /><path clip-path="url(#clip860)" d="M1911.39 744.913 L1919.03 744.913 L1919.03 718.547 L1910.72 720.214 L1910.72 715.955 L1918.98 714.288 L1923.66 714.288 L1923.66 744.913 L1931.3 744.913 L1931.3 748.848 L1911.39 748.848 L1911.39 744.913 Z" fill="#000000" fill-rule="evenodd" fill-opacity="1" /><path clip-path="url(#clip860)" d="M1940.74 742.968 L1945.63 742.968 L1945.63 748.848 L1940.74 748.848 L1940.74 742.968 Z" fill="#000000" fill-rule="evenodd" fill-opacity="1" /><path clip-path="url(#clip860)" d="M1966.39 729.704 Q1963.24 729.704 1961.39 731.857 Q1959.56 734.01 1959.56 737.76 Q1959.56 741.487 1961.39 743.663 Q1963.24 745.815 1966.39 745.815 Q1969.54 745.815 1971.37 743.663 Q1973.22 741.487 1973.22 737.76 Q1973.22 734.01 1971.37 731.857 Q1969.54 729.704 1966.39 729.704 M1975.67 715.052 L1975.67 719.311 Q1973.91 718.478 1972.11 718.038 Q1970.33 717.598 1968.57 717.598 Q1963.94 717.598 1961.48 720.723 Q1959.05 723.848 1958.71 730.167 Q1960.07 728.154 1962.13 727.089 Q1964.19 726.001 1966.67 726.001 Q1971.88 726.001 1974.89 729.172 Q1977.92 732.32 1977.92 737.76 Q1977.92 743.084 1974.77 746.302 Q1971.62 749.519 1966.39 749.519 Q1960.4 749.519 1957.22 744.936 Q1954.05 740.329 1954.05 731.603 Q1954.05 723.408 1957.94 718.547 Q1961.83 713.663 1968.38 713.663 Q1970.14 713.663 1971.92 714.01 Q1973.73 714.357 1975.67 715.052 Z" fill="#000000" fill-rule="evenodd" fill-opacity="1" /><path clip-path="url(#clip860)" d="M1986.11 748.13 L1986.11 743.871 Q1987.87 744.704 1989.68 745.144 Q1991.48 745.584 1993.22 745.584 Q1997.85 745.584 2000.28 742.482 Q2002.73 739.357 2003.08 733.015 Q2001.74 735.005 1999.68 736.07 Q1997.62 737.135 1995.12 737.135 Q1989.93 737.135 1986.9 734.01 Q1983.89 730.862 1983.89 725.422 Q1983.89 720.098 1987.04 716.88 Q1990.19 713.663 1995.42 713.663 Q2001.41 713.663 2004.56 718.269 Q2007.73 722.853 2007.73 731.603 Q2007.73 739.774 2003.84 744.658 Q1999.98 749.519 1993.43 749.519 Q1991.67 749.519 1989.86 749.172 Q1988.06 748.825 1986.11 748.13 M1995.42 733.478 Q1998.57 733.478 2000.39 731.325 Q2002.25 729.172 2002.25 725.422 Q2002.25 721.695 2000.39 719.542 Q1998.57 717.367 1995.42 717.367 Q1992.27 717.367 1990.42 719.542 Q1988.59 721.695 1988.59 725.422 Q1988.59 729.172 1990.42 731.325 Q1992.27 733.478 1995.42 733.478 Z" fill="#000000" fill-rule="evenodd" fill-opacity="1" /><path clip-path="url(#clip860)" d="M2014.96 714.288 L2037.18 714.288 L2037.18 716.279 L2024.63 748.848 L2019.75 748.848 L2031.55 718.223 L2014.96 718.223 L2014.96 714.288 Z" fill="#000000" fill-rule="evenodd" fill-opacity="1" /><path clip-path="url(#clip860)" d="M2059.14 718.362 L2047.34 736.811 L2059.14 736.811 L2059.14 718.362 M2057.92 714.288 L2063.8 714.288 L2063.8 736.811 L2068.73 736.811 L2068.73 740.7 L2063.8 740.7 L2063.8 748.848 L2059.14 748.848 L2059.14 740.7 L2043.54 740.7 L2043.54 736.186 L2057.92 714.288 Z" fill="#000000" fill-rule="evenodd" fill-opacity="1" /><polyline clip-path="url(#clip862)" style="stroke:#000000; stroke-linecap:butt; stroke-linejoin:round; stroke-width:2; stroke-opacity:0.1; fill:none" points="
  169.121,668.357 2352.76,668.357 
  "/>
<polyline clip-path="url(#clip862)" style="stroke:#000000; stroke-linecap:butt; stroke-linejoin:round; stroke-width:2; stroke-opacity:0.1; fill:none" points="
  169.121,498.969 2352.76,498.969 
  "/>
<polyline clip-path="url(#clip862)" style="stroke:#000000; stroke-linecap:butt; stroke-linejoin:round; stroke-width:2; stroke-opacity:0.1; fill:none" points="
  169.121,329.581 2352.76,329.581 
  "/>
<polyline clip-path="url(#clip862)" style="stroke:#000000; stroke-linecap:butt; stroke-linejoin:round; stroke-width:2; stroke-opacity:0.1; fill:none" points="
  169.121,160.192 2352.76,160.192 
  "/>
<polyline clip-path="url(#clip860)" style="stroke:#000000; stroke-linecap:butt; stroke-linejoin:round; stroke-width:4; stroke-opacity:1; fill:none" points="
  169.121,686.448 169.121,47.2441 
  "/>
<polyline clip-path="url(#clip860)" style="stroke:#000000; stroke-linecap:butt; stroke-linejoin:round; stroke-width:4; stroke-opacity:1; fill:none" points="
  169.121,668.357 188.019,668.357 
  "/>
<polyline clip-path="url(#clip860)" style="stroke:#000000; stroke-linecap:butt; stroke-linejoin:round; stroke-width:4; stroke-opacity:1; fill:none" points="
  169.121,498.969 188.019,498.969 
  "/>
<polyline clip-path="url(#clip860)" style="stroke:#000000; stroke-linecap:butt; stroke-linejoin:round; stroke-width:4; stroke-opacity:1; fill:none" points="
  169.121,329.581 188.019,329.581 
  "/>
<polyline clip-path="url(#clip860)" style="stroke:#000000; stroke-linecap:butt; stroke-linejoin:round; stroke-width:4; stroke-opacity:1; fill:none" points="
  169.121,160.192 188.019,160.192 
  "/>
<path clip-path="url(#clip860)" d="M121.177 654.156 Q117.566 654.156 115.737 657.721 Q113.932 661.262 113.932 668.392 Q113.932 675.498 115.737 679.063 Q117.566 682.605 121.177 682.605 Q124.811 682.605 126.617 679.063 Q128.445 675.498 128.445 668.392 Q128.445 661.262 126.617 657.721 Q124.811 654.156 121.177 654.156 M121.177 650.452 Q126.987 650.452 130.043 655.059 Q133.121 659.642 133.121 668.392 Q133.121 677.119 130.043 681.725 Q126.987 686.308 121.177 686.308 Q115.367 686.308 112.288 681.725 Q109.233 677.119 109.233 668.392 Q109.233 659.642 112.288 655.059 Q115.367 650.452 121.177 650.452 Z" fill="#000000" fill-rule="evenodd" fill-opacity="1" /><path clip-path="url(#clip860)" d="M81.0614 481.689 L99.4178 481.689 L99.4178 485.624 L85.3438 485.624 L85.3438 494.096 Q86.3623 493.749 87.3808 493.587 Q88.3993 493.402 89.4178 493.402 Q95.2049 493.402 98.5845 496.573 Q101.964 499.744 101.964 505.161 Q101.964 510.74 98.4919 513.841 Q95.0197 516.92 88.7003 516.92 Q86.5243 516.92 84.2558 516.55 Q82.0105 516.179 79.6031 515.439 L79.6031 510.74 Q81.6864 511.874 83.9086 512.429 Q86.1308 512.985 88.6077 512.985 Q92.6123 512.985 94.9502 510.879 Q97.2882 508.772 97.2882 505.161 Q97.2882 501.55 94.9502 499.443 Q92.6123 497.337 88.6077 497.337 Q86.7327 497.337 84.8577 497.754 Q83.0058 498.17 81.0614 499.05 L81.0614 481.689 Z" fill="#000000" fill-rule="evenodd" fill-opacity="1" /><path clip-path="url(#clip860)" d="M121.177 484.768 Q117.566 484.768 115.737 488.332 Q113.932 491.874 113.932 499.004 Q113.932 506.11 115.737 509.675 Q117.566 513.216 121.177 513.216 Q124.811 513.216 126.617 509.675 Q128.445 506.11 128.445 499.004 Q128.445 491.874 126.617 488.332 Q124.811 484.768 121.177 484.768 M121.177 481.064 Q126.987 481.064 130.043 485.67 Q133.121 490.254 133.121 499.004 Q133.121 507.73 130.043 512.337 Q126.987 516.92 121.177 516.92 Q115.367 516.92 112.288 512.337 Q109.233 507.73 109.233 499.004 Q109.233 490.254 112.288 485.67 Q115.367 481.064 121.177 481.064 Z" fill="#000000" fill-rule="evenodd" fill-opacity="1" /><path clip-path="url(#clip860)" d="M51.6634 342.925 L59.3023 342.925 L59.3023 316.56 L50.9921 318.226 L50.9921 313.967 L59.256 312.301 L63.9319 312.301 L63.9319 342.925 L71.5707 342.925 L71.5707 346.861 L51.6634 346.861 L51.6634 342.925 Z" fill="#000000" fill-rule="evenodd" fill-opacity="1" /><path clip-path="url(#clip860)" d="M91.0151 315.379 Q87.404 315.379 85.5753 318.944 Q83.7697 322.486 83.7697 329.615 Q83.7697 336.722 85.5753 340.287 Q87.404 343.828 91.0151 343.828 Q94.6493 343.828 96.4548 340.287 Q98.2835 336.722 98.2835 329.615 Q98.2835 322.486 96.4548 318.944 Q94.6493 315.379 91.0151 315.379 M91.0151 311.676 Q96.8252 311.676 99.8808 316.282 Q102.959 320.865 102.959 329.615 Q102.959 338.342 99.8808 342.949 Q96.8252 347.532 91.0151 347.532 Q85.2049 347.532 82.1262 342.949 Q79.0707 338.342 79.0707 329.615 Q79.0707 320.865 82.1262 316.282 Q85.2049 311.676 91.0151 311.676 Z" fill="#000000" fill-rule="evenodd" fill-opacity="1" /><path clip-path="url(#clip860)" d="M121.177 315.379 Q117.566 315.379 115.737 318.944 Q113.932 322.486 113.932 329.615 Q113.932 336.722 115.737 340.287 Q117.566 343.828 121.177 343.828 Q124.811 343.828 126.617 340.287 Q128.445 336.722 128.445 329.615 Q128.445 322.486 126.617 318.944 Q124.811 315.379 121.177 315.379 M121.177 311.676 Q126.987 311.676 130.043 316.282 Q133.121 320.865 133.121 329.615 Q133.121 338.342 130.043 342.949 Q126.987 347.532 121.177 347.532 Q115.367 347.532 112.288 342.949 Q109.233 338.342 109.233 329.615 Q109.233 320.865 112.288 316.282 Q115.367 311.676 121.177 311.676 Z" fill="#000000" fill-rule="evenodd" fill-opacity="1" /><path clip-path="url(#clip860)" d="M51.6634 173.537 L59.3023 173.537 L59.3023 147.171 L50.9921 148.838 L50.9921 144.579 L59.256 142.912 L63.9319 142.912 L63.9319 173.537 L71.5707 173.537 L71.5707 177.472 L51.6634 177.472 L51.6634 173.537 Z" fill="#000000" fill-rule="evenodd" fill-opacity="1" /><path clip-path="url(#clip860)" d="M81.0614 142.912 L99.4178 142.912 L99.4178 146.847 L85.3438 146.847 L85.3438 155.32 Q86.3623 154.972 87.3808 154.81 Q88.3993 154.625 89.4178 154.625 Q95.2049 154.625 98.5845 157.796 Q101.964 160.968 101.964 166.384 Q101.964 171.963 98.4919 175.065 Q95.0197 178.144 88.7003 178.144 Q86.5243 178.144 84.2558 177.773 Q82.0105 177.403 79.6031 176.662 L79.6031 171.963 Q81.6864 173.097 83.9086 173.653 Q86.1308 174.208 88.6077 174.208 Q92.6123 174.208 94.9502 172.102 Q97.2882 169.995 97.2882 166.384 Q97.2882 162.773 94.9502 160.667 Q92.6123 158.56 88.6077 158.56 Q86.7327 158.56 84.8577 158.977 Q83.0058 159.394 81.0614 160.273 L81.0614 142.912 Z" fill="#000000" fill-rule="evenodd" fill-opacity="1" /><path clip-path="url(#clip860)" d="M121.177 145.991 Q117.566 145.991 115.737 149.556 Q113.932 153.097 113.932 160.227 Q113.932 167.333 115.737 170.898 Q117.566 174.44 121.177 174.44 Q124.811 174.44 126.617 170.898 Q128.445 167.333 128.445 160.227 Q128.445 153.097 126.617 149.556 Q124.811 145.991 121.177 145.991 M121.177 142.287 Q126.987 142.287 130.043 146.894 Q133.121 151.477 133.121 160.227 Q133.121 168.954 130.043 173.56 Q126.987 178.144 121.177 178.144 Q115.367 178.144 112.288 173.56 Q109.233 168.954 109.233 160.227 Q109.233 151.477 112.288 146.894 Q115.367 142.287 121.177 142.287 Z" fill="#000000" fill-rule="evenodd" fill-opacity="1" /><path clip-path="url(#clip862)" d="
M289.225 664.969 L289.225 668.357 L410.689 668.357 L410.689 664.969 L289.225 664.969 L289.225 664.969  Z
  " fill="#009af9" fill-rule="evenodd" fill-opacity="1"/>
<polyline clip-path="url(#clip862)" style="stroke:#000000; stroke-linecap:butt; stroke-linejoin:round; stroke-width:4; stroke-opacity:1; fill:none" points="
  289.225,664.969 289.225,668.357 410.689,668.357 410.689,664.969 289.225,664.969 
  "/>
<path clip-path="url(#clip862)" d="
M410.689 648.031 L410.689 668.357 L532.153 668.357 L532.153 648.031 L410.689 648.031 L410.689 648.031  Z
  " fill="#009af9" fill-rule="evenodd" fill-opacity="1"/>
<polyline clip-path="url(#clip862)" style="stroke:#000000; stroke-linecap:butt; stroke-linejoin:round; stroke-width:4; stroke-opacity:1; fill:none" points="
  410.689,648.031 410.689,668.357 532.153,668.357 532.153,648.031 410.689,648.031 
  "/>
<path clip-path="url(#clip862)" d="
M532.153 617.541 L532.153 668.357 L653.618 668.357 L653.618 617.541 L532.153 617.541 L532.153 617.541  Z
  " fill="#009af9" fill-rule="evenodd" fill-opacity="1"/>
<polyline clip-path="url(#clip862)" style="stroke:#000000; stroke-linecap:butt; stroke-linejoin:round; stroke-width:4; stroke-opacity:1; fill:none" points="
  532.153,617.541 532.153,668.357 653.618,668.357 653.618,617.541 532.153,617.541 
  "/>
<path clip-path="url(#clip862)" d="
M653.618 519.295 L653.618 668.357 L775.082 668.357 L775.082 519.295 L653.618 519.295 L653.618 519.295  Z
  " fill="#009af9" fill-rule="evenodd" fill-opacity="1"/>
<polyline clip-path="url(#clip862)" style="stroke:#000000; stroke-linecap:butt; stroke-linejoin:round; stroke-width:4; stroke-opacity:1; fill:none" points="
  653.618,519.295 653.618,668.357 775.082,668.357 775.082,519.295 653.618,519.295 
  "/>
<path clip-path="url(#clip862)" d="
M775.082 414.275 L775.082 668.357 L896.546 668.357 L896.546 414.275 L775.082 414.275 L775.082 414.275  Z
  " fill="#009af9" fill-rule="evenodd" fill-opacity="1"/>
<polyline clip-path="url(#clip862)" style="stroke:#000000; stroke-linecap:butt; stroke-linejoin:round; stroke-width:4; stroke-opacity:1; fill:none" points="
  775.082,414.275 775.082,668.357 896.546,668.357 896.546,414.275 775.082,414.275 
  "/>
<path clip-path="url(#clip862)" d="
M896.546 258.437 L896.546 668.357 L1018.01 668.357 L1018.01 258.437 L896.546 258.437 L896.546 258.437  Z
  " fill="#009af9" fill-rule="evenodd" fill-opacity="1"/>
<polyline clip-path="url(#clip862)" style="stroke:#000000; stroke-linecap:butt; stroke-linejoin:round; stroke-width:4; stroke-opacity:1; fill:none" points="
  896.546,258.437 896.546,668.357 1018.01,668.357 1018.01,258.437 896.546,258.437 
  "/>
<path clip-path="url(#clip862)" d="
M1018.01 139.866 L1018.01 668.357 L1139.47 668.357 L1139.47 139.866 L1018.01 139.866 L1018.01 139.866  Z
  " fill="#009af9" fill-rule="evenodd" fill-opacity="1"/>
<polyline clip-path="url(#clip862)" style="stroke:#000000; stroke-linecap:butt; stroke-linejoin:round; stroke-width:4; stroke-opacity:1; fill:none" points="
  1018.01,139.866 1018.01,668.357 1139.47,668.357 1139.47,139.866 1018.01,139.866 
  "/>
<path clip-path="url(#clip862)" d="
M1139.47 65.3348 L1139.47 668.357 L1260.94 668.357 L1260.94 65.3348 L1139.47 65.3348 L1139.47 65.3348  Z
  " fill="#009af9" fill-rule="evenodd" fill-opacity="1"/>
<polyline clip-path="url(#clip862)" style="stroke:#000000; stroke-linecap:butt; stroke-linejoin:round; stroke-width:4; stroke-opacity:1; fill:none" points="
  1139.47,65.3348 1139.47,668.357 1260.94,668.357 1260.94,65.3348 1139.47,65.3348 
  "/>
<path clip-path="url(#clip862)" d="
M1260.94 173.743 L1260.94 668.357 L1382.4 668.357 L1382.4 173.743 L1260.94 173.743 L1260.94 173.743  Z
  " fill="#009af9" fill-rule="evenodd" fill-opacity="1"/>
<polyline clip-path="url(#clip862)" style="stroke:#000000; stroke-linecap:butt; stroke-linejoin:round; stroke-width:4; stroke-opacity:1; fill:none" points="
  1260.94,173.743 1260.94,668.357 1382.4,668.357 1382.4,173.743 1260.94,173.743 
  "/>
<path clip-path="url(#clip862)" d="
M1382.4 288.927 L1382.4 668.357 L1503.87 668.357 L1503.87 288.927 L1382.4 288.927 L1382.4 288.927  Z
  " fill="#009af9" fill-rule="evenodd" fill-opacity="1"/>
<polyline clip-path="url(#clip862)" style="stroke:#000000; stroke-linecap:butt; stroke-linejoin:round; stroke-width:4; stroke-opacity:1; fill:none" points="
  1382.4,288.927 1382.4,668.357 1503.87,668.357 1503.87,288.927 1382.4,288.927 
  "/>
<path clip-path="url(#clip862)" d="
M1503.87 424.438 L1503.87 668.357 L1625.33 668.357 L1625.33 424.438 L1503.87 424.438 L1503.87 424.438  Z
  " fill="#009af9" fill-rule="evenodd" fill-opacity="1"/>
<polyline clip-path="url(#clip862)" style="stroke:#000000; stroke-linecap:butt; stroke-linejoin:round; stroke-width:4; stroke-opacity:1; fill:none" points="
  1503.87,424.438 1503.87,668.357 1625.33,668.357 1625.33,424.438 1503.87,424.438 
  "/>
<path clip-path="url(#clip862)" d="
M1625.33 492.193 L1625.33 668.357 L1746.8 668.357 L1746.8 492.193 L1625.33 492.193 L1625.33 492.193  Z
  " fill="#009af9" fill-rule="evenodd" fill-opacity="1"/>
<polyline clip-path="url(#clip862)" style="stroke:#000000; stroke-linecap:butt; stroke-linejoin:round; stroke-width:4; stroke-opacity:1; fill:none" points="
  1625.33,492.193 1625.33,668.357 1746.8,668.357 1746.8,492.193 1625.33,492.193 
  "/>
<path clip-path="url(#clip862)" d="
M1746.8 634.48 L1746.8 668.357 L1868.26 668.357 L1868.26 634.48 L1746.8 634.48 L1746.8 634.48  Z
  " fill="#009af9" fill-rule="evenodd" fill-opacity="1"/>
<polyline clip-path="url(#clip862)" style="stroke:#000000; stroke-linecap:butt; stroke-linejoin:round; stroke-width:4; stroke-opacity:1; fill:none" points="
  1746.8,634.48 1746.8,668.357 1868.26,668.357 1868.26,634.48 1746.8,634.48 
  "/>
<path clip-path="url(#clip862)" d="
M1868.26 641.255 L1868.26 668.357 L1989.72 668.357 L1989.72 641.255 L1868.26 641.255 L1868.26 641.255  Z
  " fill="#009af9" fill-rule="evenodd" fill-opacity="1"/>
<polyline clip-path="url(#clip862)" style="stroke:#000000; stroke-linecap:butt; stroke-linejoin:round; stroke-width:4; stroke-opacity:1; fill:none" points="
  1868.26,641.255 1868.26,668.357 1989.72,668.357 1989.72,641.255 1868.26,641.255 
  "/>
<path clip-path="url(#clip862)" d="
M1989.72 658.194 L1989.72 668.357 L2111.19 668.357 L2111.19 658.194 L1989.72 658.194 L1989.72 658.194  Z
  " fill="#009af9" fill-rule="evenodd" fill-opacity="1"/>
<polyline clip-path="url(#clip862)" style="stroke:#000000; stroke-linecap:butt; stroke-linejoin:round; stroke-width:4; stroke-opacity:1; fill:none" points="
  1989.72,658.194 1989.72,668.357 2111.19,668.357 2111.19,658.194 1989.72,658.194 
  "/>
<path clip-path="url(#clip862)" d="
M2111.19 664.969 L2111.19 668.357 L2232.65 668.357 L2232.65 664.969 L2111.19 664.969 L2111.19 664.969  Z
  " fill="#009af9" fill-rule="evenodd" fill-opacity="1"/>
<polyline clip-path="url(#clip862)" style="stroke:#000000; stroke-linecap:butt; stroke-linejoin:round; stroke-width:4; stroke-opacity:1; fill:none" points="
  2111.19,664.969 2111.19,668.357 2232.65,668.357 2232.65,664.969 2111.19,664.969 
  "/>
<circle clip-path="url(#clip862)" style="fill:#009af9; stroke:none; fill-opacity:0" cx="349.957" cy="664.969" r="2"/>
<circle clip-path="url(#clip862)" style="fill:#009af9; stroke:none; fill-opacity:0" cx="471.421" cy="648.031" r="2"/>
<circle clip-path="url(#clip862)" style="fill:#009af9; stroke:none; fill-opacity:0" cx="592.886" cy="617.541" r="2"/>
<circle clip-path="url(#clip862)" style="fill:#009af9; stroke:none; fill-opacity:0" cx="714.35" cy="519.295" r="2"/>
<circle clip-path="url(#clip862)" style="fill:#009af9; stroke:none; fill-opacity:0" cx="835.814" cy="414.275" r="2"/>
<circle clip-path="url(#clip862)" style="fill:#009af9; stroke:none; fill-opacity:0" cx="957.278" cy="258.437" r="2"/>
<circle clip-path="url(#clip862)" style="fill:#009af9; stroke:none; fill-opacity:0" cx="1078.74" cy="139.866" r="2"/>
<circle clip-path="url(#clip862)" style="fill:#009af9; stroke:none; fill-opacity:0" cx="1200.21" cy="65.3348" r="2"/>
<circle clip-path="url(#clip862)" style="fill:#009af9; stroke:none; fill-opacity:0" cx="1321.67" cy="173.743" r="2"/>
<circle clip-path="url(#clip862)" style="fill:#009af9; stroke:none; fill-opacity:0" cx="1443.13" cy="288.927" r="2"/>
<circle clip-path="url(#clip862)" style="fill:#009af9; stroke:none; fill-opacity:0" cx="1564.6" cy="424.438" r="2"/>
<circle clip-path="url(#clip862)" style="fill:#009af9; stroke:none; fill-opacity:0" cx="1686.06" cy="492.193" r="2"/>
<circle clip-path="url(#clip862)" style="fill:#009af9; stroke:none; fill-opacity:0" cx="1807.53" cy="634.48" r="2"/>
<circle clip-path="url(#clip862)" style="fill:#009af9; stroke:none; fill-opacity:0" cx="1928.99" cy="641.255" r="2"/>
<circle clip-path="url(#clip862)" style="fill:#009af9; stroke:none; fill-opacity:0" cx="2050.46" cy="658.194" r="2"/>
<circle clip-path="url(#clip862)" style="fill:#009af9; stroke:none; fill-opacity:0" cx="2171.92" cy="664.969" r="2"/>
<path clip-path="url(#clip860)" d="
M1793.04 172.231 L2279.97 172.231 L2279.97 68.5509 L1793.04 68.5509  Z
  " fill="#ffffff" fill-rule="evenodd" fill-opacity="1"/>
<polyline clip-path="url(#clip860)" style="stroke:#000000; stroke-linecap:butt; stroke-linejoin:round; stroke-width:4; stroke-opacity:1; fill:none" points="
  1793.04,172.231 2279.97,172.231 2279.97,68.5509 1793.04,68.5509 1793.04,172.231 
  "/>
<path clip-path="url(#clip860)" d="
M1817.3 141.127 L1962.88 141.127 L1962.88 99.6549 L1817.3 99.6549 L1817.3 141.127  Z
  " fill="#009af9" fill-rule="evenodd" fill-opacity="1"/>
<polyline clip-path="url(#clip860)" style="stroke:#000000; stroke-linecap:butt; stroke-linejoin:round; stroke-width:4; stroke-opacity:1; fill:none" points="
  1817.3,141.127 1962.88,141.127 1962.88,99.6549 1817.3,99.6549 1817.3,141.127 
  "/>
<path clip-path="url(#clip860)" d="M1987.14 101.653 L1996.95 101.653 L1996.95 104.963 L1991.4 104.963 L1991.4 140.611 L1996.95 140.611 L1996.95 143.921 L1987.14 143.921 L1987.14 101.653 Z" fill="#000000" fill-rule="evenodd" fill-opacity="1" /><path clip-path="url(#clip860)" d="M2010.06 103.111 L2010.06 115.958 L2006.12 115.958 L2006.12 103.111 L2010.06 103.111 M2018.81 103.111 L2018.81 115.958 L2014.87 115.958 L2014.87 103.111 L2018.81 103.111 Z" fill="#000000" fill-rule="evenodd" fill-opacity="1" /><path clip-path="url(#clip860)" d="M2049.38 122.023 L2049.38 137.671 L2045.12 137.671 L2045.12 122.162 Q2045.12 118.481 2043.69 116.652 Q2042.25 114.824 2039.38 114.824 Q2035.93 114.824 2033.94 117.023 Q2031.95 119.222 2031.95 123.018 L2031.95 137.671 L2027.67 137.671 L2027.67 111.745 L2031.95 111.745 L2031.95 115.773 Q2033.48 113.435 2035.54 112.278 Q2037.62 111.12 2040.33 111.12 Q2044.8 111.12 2047.09 113.898 Q2049.38 116.652 2049.38 122.023 Z" fill="#000000" fill-rule="evenodd" fill-opacity="1" /><path clip-path="url(#clip860)" d="M2057.02 135.125 L2061.74 135.125 L2061.74 120.981 L2056.58 121.93 L2056.58 119.245 L2061.91 118.342 L2065.08 118.342 L2065.08 135.125 L2069.82 135.125 L2069.82 137.671 L2057.02 137.671 L2057.02 135.125 Z" fill="#000000" fill-rule="evenodd" fill-opacity="1" /><path clip-path="url(#clip860)" d="M2080.91 103.111 L2080.91 115.958 L2076.98 115.958 L2076.98 103.111 L2080.91 103.111 M2089.66 103.111 L2089.66 115.958 L2085.73 115.958 L2085.73 103.111 L2089.66 103.111 Z" fill="#000000" fill-rule="evenodd" fill-opacity="1" /><path clip-path="url(#clip860)" d="M2099.78 131.791 L2104.66 131.791 L2104.66 135.773 L2100.86 143.18 L2097.88 143.18 L2099.78 135.773 L2099.78 131.791 Z" fill="#000000" fill-rule="evenodd" fill-opacity="1" /><path clip-path="url(#clip860)" d="M2132.86 103.111 L2132.86 115.958 L2128.92 115.958 L2128.92 103.111 L2132.86 103.111 M2141.61 103.111 L2141.61 115.958 L2137.67 115.958 L2137.67 103.111 L2141.61 103.111 Z" fill="#000000" fill-rule="evenodd" fill-opacity="1" /><path clip-path="url(#clip860)" d="M2172.18 122.023 L2172.18 137.671 L2167.92 137.671 L2167.92 122.162 Q2167.92 118.481 2166.49 116.652 Q2165.05 114.824 2162.18 114.824 Q2158.73 114.824 2156.74 117.023 Q2154.75 119.222 2154.75 123.018 L2154.75 137.671 L2150.47 137.671 L2150.47 111.745 L2154.75 111.745 L2154.75 115.773 Q2156.28 113.435 2158.34 112.278 Q2160.42 111.12 2163.13 111.12 Q2167.6 111.12 2169.89 113.898 Q2172.18 116.652 2172.18 122.023 Z" fill="#000000" fill-rule="evenodd" fill-opacity="1" /><path clip-path="url(#clip860)" d="M2182.42 135.032 L2192.23 135.032 L2192.23 137.671 L2178.39 137.671 L2178.39 135.125 Q2179.17 134.407 2180.63 133.111 Q2188.6 126.051 2188.6 123.875 Q2188.6 122.347 2187.39 121.421 Q2186.19 120.472 2184.22 120.472 Q2183.02 120.472 2181.61 120.889 Q2180.19 121.282 2178.53 122.092 L2178.53 119.245 Q2180.31 118.597 2181.84 118.273 Q2183.39 117.949 2184.71 117.949 Q2188.06 117.949 2190.08 119.477 Q2192.09 121.004 2192.09 123.504 Q2192.09 126.722 2184.43 133.296 Q2183.13 134.407 2182.42 135.032 Z" fill="#000000" fill-rule="evenodd" fill-opacity="1" /><path clip-path="url(#clip860)" d="M2203.71 103.111 L2203.71 115.958 L2199.78 115.958 L2199.78 103.111 L2203.71 103.111 M2212.46 103.111 L2212.46 115.958 L2208.53 115.958 L2208.53 103.111 L2212.46 103.111 Z" fill="#000000" fill-rule="evenodd" fill-opacity="1" /><path clip-path="url(#clip860)" d="M2231.44 101.653 L2231.44 143.921 L2221.63 143.921 L2221.63 140.611 L2227.16 140.611 L2227.16 104.963 L2221.63 104.963 L2221.63 101.653 L2231.44 101.653 Z" fill="#000000" fill-rule="evenodd" fill-opacity="1" /><path clip-path="url(#clip860)" d="
M169.121 1486.45 L2352.76 1486.45 L2352.76 847.244 L169.121 847.244  Z
  " fill="#ffffff" fill-rule="evenodd" fill-opacity="1"/>
<defs>
  <clipPath id="clip863">
    <rect x="169" y="847" width="2185" height="640"/>
  </clipPath>
</defs>
<polyline clip-path="url(#clip863)" style="stroke:#000000; stroke-linecap:butt; stroke-linejoin:round; stroke-width:2; stroke-opacity:0.1; fill:none" points="
  354.006,1486.45 354.006,847.244 
  "/>
<polyline clip-path="url(#clip863)" style="stroke:#000000; stroke-linecap:butt; stroke-linejoin:round; stroke-width:2; stroke-opacity:0.1; fill:none" points="
  1001.82,1486.45 1001.82,847.244 
  "/>
<polyline clip-path="url(#clip863)" style="stroke:#000000; stroke-linecap:butt; stroke-linejoin:round; stroke-width:2; stroke-opacity:0.1; fill:none" points="
  1649.62,1486.45 1649.62,847.244 
  "/>
<polyline clip-path="url(#clip863)" style="stroke:#000000; stroke-linecap:butt; stroke-linejoin:round; stroke-width:2; stroke-opacity:0.1; fill:none" points="
  2297.43,1486.45 2297.43,847.244 
  "/>
<polyline clip-path="url(#clip860)" style="stroke:#000000; stroke-linecap:butt; stroke-linejoin:round; stroke-width:4; stroke-opacity:1; fill:none" points="
  169.121,1486.45 2352.76,1486.45 
  "/>
<polyline clip-path="url(#clip860)" style="stroke:#000000; stroke-linecap:butt; stroke-linejoin:round; stroke-width:4; stroke-opacity:1; fill:none" points="
  354.006,1486.45 354.006,1467.55 
  "/>
<polyline clip-path="url(#clip860)" style="stroke:#000000; stroke-linecap:butt; stroke-linejoin:round; stroke-width:4; stroke-opacity:1; fill:none" points="
  1001.82,1486.45 1001.82,1467.55 
  "/>
<polyline clip-path="url(#clip860)" style="stroke:#000000; stroke-linecap:butt; stroke-linejoin:round; stroke-width:4; stroke-opacity:1; fill:none" points="
  1649.62,1486.45 1649.62,1467.55 
  "/>
<polyline clip-path="url(#clip860)" style="stroke:#000000; stroke-linecap:butt; stroke-linejoin:round; stroke-width:4; stroke-opacity:1; fill:none" points="
  2297.43,1486.45 2297.43,1467.55 
  "/>
<path clip-path="url(#clip860)" d="M276.414 1544.91 L284.053 1544.91 L284.053 1518.55 L275.743 1520.21 L275.743 1515.95 L284.006 1514.29 L288.682 1514.29 L288.682 1544.91 L296.321 1544.91 L296.321 1548.85 L276.414 1548.85 L276.414 1544.91 Z" fill="#000000" fill-rule="evenodd" fill-opacity="1" /><path clip-path="url(#clip860)" d="M305.766 1542.97 L310.65 1542.97 L310.65 1548.85 L305.766 1548.85 L305.766 1542.97 Z" fill="#000000" fill-rule="evenodd" fill-opacity="1" /><path clip-path="url(#clip860)" d="M319.654 1514.29 L341.876 1514.29 L341.876 1516.28 L329.33 1548.85 L324.446 1548.85 L336.251 1518.22 L319.654 1518.22 L319.654 1514.29 Z" fill="#000000" fill-rule="evenodd" fill-opacity="1" /><path clip-path="url(#clip860)" d="M351.043 1514.29 L369.399 1514.29 L369.399 1518.22 L355.325 1518.22 L355.325 1526.7 Q356.344 1526.35 357.362 1526.19 Q358.381 1526 359.399 1526 Q365.187 1526 368.566 1529.17 Q371.946 1532.34 371.946 1537.76 Q371.946 1543.34 368.474 1546.44 Q365.001 1549.52 358.682 1549.52 Q356.506 1549.52 354.237 1549.15 Q351.992 1548.78 349.585 1548.04 L349.585 1543.34 Q351.668 1544.47 353.89 1545.03 Q356.112 1545.58 358.589 1545.58 Q362.594 1545.58 364.932 1543.48 Q367.27 1541.37 367.27 1537.76 Q367.27 1534.15 364.932 1532.04 Q362.594 1529.94 358.589 1529.94 Q356.714 1529.94 354.839 1530.35 Q352.987 1530.77 351.043 1531.65 L351.043 1514.29 Z" fill="#000000" fill-rule="evenodd" fill-opacity="1" /><path clip-path="url(#clip860)" d="M391.159 1517.37 Q387.547 1517.37 385.719 1520.93 Q383.913 1524.47 383.913 1531.6 Q383.913 1538.71 385.719 1542.27 Q387.547 1545.82 391.159 1545.82 Q394.793 1545.82 396.598 1542.27 Q398.427 1538.71 398.427 1531.6 Q398.427 1524.47 396.598 1520.93 Q394.793 1517.37 391.159 1517.37 M391.159 1513.66 Q396.969 1513.66 400.024 1518.27 Q403.103 1522.85 403.103 1531.6 Q403.103 1540.33 400.024 1544.94 Q396.969 1549.52 391.159 1549.52 Q385.348 1549.52 382.27 1544.94 Q379.214 1540.33 379.214 1531.6 Q379.214 1522.85 382.27 1518.27 Q385.348 1513.66 391.159 1513.66 Z" fill="#000000" fill-rule="evenodd" fill-opacity="1" /><path clip-path="url(#clip860)" d="M411.367 1514.29 L429.723 1514.29 L429.723 1518.22 L415.649 1518.22 L415.649 1526.7 Q416.668 1526.35 417.686 1526.19 Q418.705 1526 419.723 1526 Q425.51 1526 428.89 1529.17 Q432.269 1532.34 432.269 1537.76 Q432.269 1543.34 428.797 1546.44 Q425.325 1549.52 419.006 1549.52 Q416.83 1549.52 414.561 1549.15 Q412.316 1548.78 409.908 1548.04 L409.908 1543.34 Q411.992 1544.47 414.214 1545.03 Q416.436 1545.58 418.913 1545.58 Q422.918 1545.58 425.256 1543.48 Q427.594 1541.37 427.594 1537.76 Q427.594 1534.15 425.256 1532.04 Q422.918 1529.94 418.913 1529.94 Q417.038 1529.94 415.163 1530.35 Q413.311 1530.77 411.367 1531.65 L411.367 1514.29 Z" fill="#000000" fill-rule="evenodd" fill-opacity="1" /><path clip-path="url(#clip860)" d="M923.725 1544.91 L931.364 1544.91 L931.364 1518.55 L923.054 1520.21 L923.054 1515.95 L931.318 1514.29 L935.994 1514.29 L935.994 1544.91 L943.632 1544.91 L943.632 1548.85 L923.725 1548.85 L923.725 1544.91 Z" fill="#000000" fill-rule="evenodd" fill-opacity="1" /><path clip-path="url(#clip860)" d="M953.077 1542.97 L957.961 1542.97 L957.961 1548.85 L953.077 1548.85 L953.077 1542.97 Z" fill="#000000" fill-rule="evenodd" fill-opacity="1" /><path clip-path="url(#clip860)" d="M966.966 1514.29 L989.188 1514.29 L989.188 1516.28 L976.642 1548.85 L971.757 1548.85 L983.563 1518.22 L966.966 1518.22 L966.966 1514.29 Z" fill="#000000" fill-rule="evenodd" fill-opacity="1" /><path clip-path="url(#clip860)" d="M998.354 1514.29 L1016.71 1514.29 L1016.71 1518.22 L1002.64 1518.22 L1002.64 1526.7 Q1003.66 1526.35 1004.67 1526.19 Q1005.69 1526 1006.71 1526 Q1012.5 1526 1015.88 1529.17 Q1019.26 1532.34 1019.26 1537.76 Q1019.26 1543.34 1015.78 1546.44 Q1012.31 1549.52 1005.99 1549.52 Q1003.82 1549.52 1001.55 1549.15 Q999.303 1548.78 996.896 1548.04 L996.896 1543.34 Q998.979 1544.47 1001.2 1545.03 Q1003.42 1545.58 1005.9 1545.58 Q1009.91 1545.58 1012.24 1543.48 Q1014.58 1541.37 1014.58 1537.76 Q1014.58 1534.15 1012.24 1532.04 Q1009.91 1529.94 1005.9 1529.94 Q1004.03 1529.94 1002.15 1530.35 Q1000.3 1530.77 998.354 1531.65 L998.354 1514.29 Z" fill="#000000" fill-rule="evenodd" fill-opacity="1" /><path clip-path="url(#clip860)" d="M1029.28 1544.91 L1036.92 1544.91 L1036.92 1518.55 L1028.61 1520.21 L1028.61 1515.95 L1036.87 1514.29 L1041.55 1514.29 L1041.55 1544.91 L1049.19 1544.91 L1049.19 1548.85 L1029.28 1548.85 L1029.28 1544.91 Z" fill="#000000" fill-rule="evenodd" fill-opacity="1" /><path clip-path="url(#clip860)" d="M1068.63 1517.37 Q1065.02 1517.37 1063.19 1520.93 Q1061.39 1524.47 1061.39 1531.6 Q1061.39 1538.71 1063.19 1542.27 Q1065.02 1545.82 1068.63 1545.82 Q1072.27 1545.82 1074.07 1542.27 Q1075.9 1538.71 1075.9 1531.6 Q1075.9 1524.47 1074.07 1520.93 Q1072.27 1517.37 1068.63 1517.37 M1068.63 1513.66 Q1074.44 1513.66 1077.5 1518.27 Q1080.58 1522.85 1080.58 1531.6 Q1080.58 1540.33 1077.5 1544.94 Q1074.44 1549.52 1068.63 1549.52 Q1062.82 1549.52 1059.74 1544.94 Q1056.69 1540.33 1056.69 1531.6 Q1056.69 1522.85 1059.74 1518.27 Q1062.82 1513.66 1068.63 1513.66 Z" fill="#000000" fill-rule="evenodd" fill-opacity="1" /><path clip-path="url(#clip860)" d="M1572.03 1544.91 L1579.67 1544.91 L1579.67 1518.55 L1571.36 1520.21 L1571.36 1515.95 L1579.62 1514.29 L1584.3 1514.29 L1584.3 1544.91 L1591.94 1544.91 L1591.94 1548.85 L1572.03 1548.85 L1572.03 1544.91 Z" fill="#000000" fill-rule="evenodd" fill-opacity="1" /><path clip-path="url(#clip860)" d="M1601.38 1542.97 L1606.27 1542.97 L1606.27 1548.85 L1601.38 1548.85 L1601.38 1542.97 Z" fill="#000000" fill-rule="evenodd" fill-opacity="1" /><path clip-path="url(#clip860)" d="M1615.27 1514.29 L1637.49 1514.29 L1637.49 1516.28 L1624.95 1548.85 L1620.06 1548.85 L1631.87 1518.22 L1615.27 1518.22 L1615.27 1514.29 Z" fill="#000000" fill-rule="evenodd" fill-opacity="1" /><path clip-path="url(#clip860)" d="M1646.66 1514.29 L1665.02 1514.29 L1665.02 1518.22 L1650.94 1518.22 L1650.94 1526.7 Q1651.96 1526.35 1652.98 1526.19 Q1654 1526 1655.02 1526 Q1660.8 1526 1664.18 1529.17 Q1667.56 1532.34 1667.56 1537.76 Q1667.56 1543.34 1664.09 1546.44 Q1660.62 1549.52 1654.3 1549.52 Q1652.12 1549.52 1649.86 1549.15 Q1647.61 1548.78 1645.2 1548.04 L1645.2 1543.34 Q1647.29 1544.47 1649.51 1545.03 Q1651.73 1545.58 1654.21 1545.58 Q1658.21 1545.58 1660.55 1543.48 Q1662.89 1541.37 1662.89 1537.76 Q1662.89 1534.15 1660.55 1532.04 Q1658.21 1529.94 1654.21 1529.94 Q1652.33 1529.94 1650.46 1530.35 Q1648.61 1530.77 1646.66 1531.65 L1646.66 1514.29 Z" fill="#000000" fill-rule="evenodd" fill-opacity="1" /><path clip-path="url(#clip860)" d="M1677.59 1544.91 L1685.23 1544.91 L1685.23 1518.55 L1676.92 1520.21 L1676.92 1515.95 L1685.18 1514.29 L1689.86 1514.29 L1689.86 1544.91 L1697.49 1544.91 L1697.49 1548.85 L1677.59 1548.85 L1677.59 1544.91 Z" fill="#000000" fill-rule="evenodd" fill-opacity="1" /><path clip-path="url(#clip860)" d="M1706.98 1514.29 L1725.34 1514.29 L1725.34 1518.22 L1711.27 1518.22 L1711.27 1526.7 Q1712.29 1526.35 1713.3 1526.19 Q1714.32 1526 1715.34 1526 Q1721.13 1526 1724.51 1529.17 Q1727.89 1532.34 1727.89 1537.76 Q1727.89 1543.34 1724.42 1546.44 Q1720.94 1549.52 1714.62 1549.52 Q1712.45 1549.52 1710.18 1549.15 Q1707.93 1548.78 1705.53 1548.04 L1705.53 1543.34 Q1707.61 1544.47 1709.83 1545.03 Q1712.05 1545.58 1714.53 1545.58 Q1718.54 1545.58 1720.87 1543.48 Q1723.21 1541.37 1723.21 1537.76 Q1723.21 1534.15 1720.87 1532.04 Q1718.54 1529.94 1714.53 1529.94 Q1712.66 1529.94 1710.78 1530.35 Q1708.93 1530.77 1706.98 1531.65 L1706.98 1514.29 Z" fill="#000000" fill-rule="evenodd" fill-opacity="1" /><path clip-path="url(#clip860)" d="M2219.34 1544.91 L2226.98 1544.91 L2226.98 1518.55 L2218.67 1520.21 L2218.67 1515.95 L2226.94 1514.29 L2231.61 1514.29 L2231.61 1544.91 L2239.25 1544.91 L2239.25 1548.85 L2219.34 1548.85 L2219.34 1544.91 Z" fill="#000000" fill-rule="evenodd" fill-opacity="1" /><path clip-path="url(#clip860)" d="M2248.69 1542.97 L2253.58 1542.97 L2253.58 1548.85 L2248.69 1548.85 L2248.69 1542.97 Z" fill="#000000" fill-rule="evenodd" fill-opacity="1" /><path clip-path="url(#clip860)" d="M2262.58 1514.29 L2284.81 1514.29 L2284.81 1516.28 L2272.26 1548.85 L2267.38 1548.85 L2279.18 1518.22 L2262.58 1518.22 L2262.58 1514.29 Z" fill="#000000" fill-rule="evenodd" fill-opacity="1" /><path clip-path="url(#clip860)" d="M2293.97 1514.29 L2312.33 1514.29 L2312.33 1518.22 L2298.25 1518.22 L2298.25 1526.7 Q2299.27 1526.35 2300.29 1526.19 Q2301.31 1526 2302.33 1526 Q2308.12 1526 2311.5 1529.17 Q2314.88 1532.34 2314.88 1537.76 Q2314.88 1543.34 2311.4 1546.44 Q2307.93 1549.52 2301.61 1549.52 Q2299.44 1549.52 2297.17 1549.15 Q2294.92 1548.78 2292.51 1548.04 L2292.51 1543.34 Q2294.6 1544.47 2296.82 1545.03 Q2299.04 1545.58 2301.52 1545.58 Q2305.52 1545.58 2307.86 1543.48 Q2310.2 1541.37 2310.2 1537.76 Q2310.2 1534.15 2307.86 1532.04 Q2305.52 1529.94 2301.52 1529.94 Q2299.64 1529.94 2297.77 1530.35 Q2295.92 1530.77 2293.97 1531.65 L2293.97 1514.29 Z" fill="#000000" fill-rule="evenodd" fill-opacity="1" /><path clip-path="url(#clip860)" d="M2328.12 1544.91 L2344.44 1544.91 L2344.44 1548.85 L2322.49 1548.85 L2322.49 1544.91 Q2325.15 1542.16 2329.74 1537.53 Q2334.34 1532.88 2335.52 1531.53 Q2337.77 1529.01 2338.65 1527.27 Q2339.55 1525.51 2339.55 1523.82 Q2339.55 1521.07 2337.61 1519.33 Q2335.69 1517.6 2332.58 1517.6 Q2330.38 1517.6 2327.93 1518.36 Q2325.5 1519.13 2322.72 1520.68 L2322.72 1515.95 Q2325.55 1514.82 2328 1514.24 Q2330.45 1513.66 2332.49 1513.66 Q2337.86 1513.66 2341.06 1516.35 Q2344.25 1519.03 2344.25 1523.52 Q2344.25 1525.65 2343.44 1527.57 Q2342.65 1529.47 2340.55 1532.07 Q2339.97 1532.74 2336.87 1535.95 Q2333.76 1539.15 2328.12 1544.91 Z" fill="#000000" fill-rule="evenodd" fill-opacity="1" /><path clip-path="url(#clip860)" d="M2364.25 1517.37 Q2360.64 1517.37 2358.81 1520.93 Q2357 1524.47 2357 1531.6 Q2357 1538.71 2358.81 1542.27 Q2360.64 1545.82 2364.25 1545.82 Q2367.88 1545.82 2369.69 1542.27 Q2371.52 1538.71 2371.52 1531.6 Q2371.52 1524.47 2369.69 1520.93 Q2367.88 1517.37 2364.25 1517.37 M2364.25 1513.66 Q2370.06 1513.66 2373.12 1518.27 Q2376.19 1522.85 2376.19 1531.6 Q2376.19 1540.33 2373.12 1544.94 Q2370.06 1549.52 2364.25 1549.52 Q2358.44 1549.52 2355.36 1544.94 Q2352.31 1540.33 2352.31 1531.6 Q2352.31 1522.85 2355.36 1518.27 Q2358.44 1513.66 2364.25 1513.66 Z" fill="#000000" fill-rule="evenodd" fill-opacity="1" /><polyline clip-path="url(#clip863)" style="stroke:#000000; stroke-linecap:butt; stroke-linejoin:round; stroke-width:2; stroke-opacity:0.1; fill:none" points="
  169.121,1468.36 2352.76,1468.36 
  "/>
<polyline clip-path="url(#clip863)" style="stroke:#000000; stroke-linecap:butt; stroke-linejoin:round; stroke-width:2; stroke-opacity:0.1; fill:none" points="
  169.121,1314.52 2352.76,1314.52 
  "/>
<polyline clip-path="url(#clip863)" style="stroke:#000000; stroke-linecap:butt; stroke-linejoin:round; stroke-width:2; stroke-opacity:0.1; fill:none" points="
  169.121,1160.69 2352.76,1160.69 
  "/>
<polyline clip-path="url(#clip863)" style="stroke:#000000; stroke-linecap:butt; stroke-linejoin:round; stroke-width:2; stroke-opacity:0.1; fill:none" points="
  169.121,1006.86 2352.76,1006.86 
  "/>
<polyline clip-path="url(#clip863)" style="stroke:#000000; stroke-linecap:butt; stroke-linejoin:round; stroke-width:2; stroke-opacity:0.1; fill:none" points="
  169.121,853.028 2352.76,853.028 
  "/>
<polyline clip-path="url(#clip860)" style="stroke:#000000; stroke-linecap:butt; stroke-linejoin:round; stroke-width:4; stroke-opacity:1; fill:none" points="
  169.121,1486.45 169.121,847.244 
  "/>
<polyline clip-path="url(#clip860)" style="stroke:#000000; stroke-linecap:butt; stroke-linejoin:round; stroke-width:4; stroke-opacity:1; fill:none" points="
  169.121,1468.36 188.019,1468.36 
  "/>
<polyline clip-path="url(#clip860)" style="stroke:#000000; stroke-linecap:butt; stroke-linejoin:round; stroke-width:4; stroke-opacity:1; fill:none" points="
  169.121,1314.52 188.019,1314.52 
  "/>
<polyline clip-path="url(#clip860)" style="stroke:#000000; stroke-linecap:butt; stroke-linejoin:round; stroke-width:4; stroke-opacity:1; fill:none" points="
  169.121,1160.69 188.019,1160.69 
  "/>
<polyline clip-path="url(#clip860)" style="stroke:#000000; stroke-linecap:butt; stroke-linejoin:round; stroke-width:4; stroke-opacity:1; fill:none" points="
  169.121,1006.86 188.019,1006.86 
  "/>
<polyline clip-path="url(#clip860)" style="stroke:#000000; stroke-linecap:butt; stroke-linejoin:round; stroke-width:4; stroke-opacity:1; fill:none" points="
  169.121,853.028 188.019,853.028 
  "/>
<path clip-path="url(#clip860)" d="M121.177 1454.16 Q117.566 1454.16 115.737 1457.72 Q113.932 1461.26 113.932 1468.39 Q113.932 1475.5 115.737 1479.06 Q117.566 1482.6 121.177 1482.6 Q124.811 1482.6 126.617 1479.06 Q128.445 1475.5 128.445 1468.39 Q128.445 1461.26 126.617 1457.72 Q124.811 1454.16 121.177 1454.16 M121.177 1450.45 Q126.987 1450.45 130.043 1455.06 Q133.121 1459.64 133.121 1468.39 Q133.121 1477.12 130.043 1481.73 Q126.987 1486.31 121.177 1486.31 Q115.367 1486.31 112.288 1481.73 Q109.233 1477.12 109.233 1468.39 Q109.233 1459.64 112.288 1455.06 Q115.367 1450.45 121.177 1450.45 Z" fill="#000000" fill-rule="evenodd" fill-opacity="1" /><path clip-path="url(#clip860)" d="M86.0382 1327.87 L102.358 1327.87 L102.358 1331.8 L80.4133 1331.8 L80.4133 1327.87 Q83.0753 1325.12 87.6586 1320.49 Q92.2651 1315.83 93.4456 1314.49 Q95.691 1311.97 96.5706 1310.23 Q97.4734 1308.47 97.4734 1306.78 Q97.4734 1304.03 95.5289 1302.29 Q93.6076 1300.56 90.5058 1300.56 Q88.3067 1300.56 85.8531 1301.32 Q83.4225 1302.08 80.6447 1303.63 L80.6447 1298.91 Q83.4688 1297.78 85.9225 1297.2 Q88.3762 1296.62 90.4132 1296.62 Q95.7836 1296.62 98.978 1299.31 Q102.172 1301.99 102.172 1306.48 Q102.172 1308.61 101.362 1310.53 Q100.575 1312.43 98.4687 1315.02 Q97.89 1315.69 94.7882 1318.91 Q91.6864 1322.11 86.0382 1327.87 Z" fill="#000000" fill-rule="evenodd" fill-opacity="1" /><path clip-path="url(#clip860)" d="M112.219 1297.24 L130.575 1297.24 L130.575 1301.18 L116.501 1301.18 L116.501 1309.65 Q117.52 1309.31 118.538 1309.14 Q119.557 1308.96 120.575 1308.96 Q126.362 1308.96 129.742 1312.13 Q133.121 1315.3 133.121 1320.72 Q133.121 1326.3 129.649 1329.4 Q126.177 1332.48 119.857 1332.48 Q117.682 1332.48 115.413 1332.11 Q113.168 1331.74 110.76 1330.99 L110.76 1326.3 Q112.844 1327.43 115.066 1327.99 Q117.288 1328.54 119.765 1328.54 Q123.77 1328.54 126.107 1326.43 Q128.445 1324.33 128.445 1320.72 Q128.445 1317.11 126.107 1315 Q123.77 1312.89 119.765 1312.89 Q117.89 1312.89 116.015 1313.31 Q114.163 1313.73 112.219 1314.61 L112.219 1297.24 Z" fill="#000000" fill-rule="evenodd" fill-opacity="1" /><path clip-path="url(#clip860)" d="M81.0614 1143.41 L99.4178 1143.41 L99.4178 1147.35 L85.3438 1147.35 L85.3438 1155.82 Q86.3623 1155.47 87.3808 1155.31 Q88.3993 1155.13 89.4178 1155.13 Q95.2049 1155.13 98.5845 1158.3 Q101.964 1161.47 101.964 1166.88 Q101.964 1172.46 98.4919 1175.57 Q95.0197 1178.64 88.7003 1178.64 Q86.5243 1178.64 84.2558 1178.27 Q82.0105 1177.9 79.6031 1177.16 L79.6031 1172.46 Q81.6864 1173.6 83.9086 1174.15 Q86.1308 1174.71 88.6077 1174.71 Q92.6123 1174.71 94.9502 1172.6 Q97.2882 1170.5 97.2882 1166.88 Q97.2882 1163.27 94.9502 1161.17 Q92.6123 1159.06 88.6077 1159.06 Q86.7327 1159.06 84.8577 1159.48 Q83.0058 1159.89 81.0614 1160.77 L81.0614 1143.41 Z" fill="#000000" fill-rule="evenodd" fill-opacity="1" /><path clip-path="url(#clip860)" d="M121.177 1146.49 Q117.566 1146.49 115.737 1150.06 Q113.932 1153.6 113.932 1160.73 Q113.932 1167.83 115.737 1171.4 Q117.566 1174.94 121.177 1174.94 Q124.811 1174.94 126.617 1171.4 Q128.445 1167.83 128.445 1160.73 Q128.445 1153.6 126.617 1150.06 Q124.811 1146.49 121.177 1146.49 M121.177 1142.79 Q126.987 1142.79 130.043 1147.39 Q133.121 1151.98 133.121 1160.73 Q133.121 1169.45 130.043 1174.06 Q126.987 1178.64 121.177 1178.64 Q115.367 1178.64 112.288 1174.06 Q109.233 1169.45 109.233 1160.73 Q109.233 1151.98 112.288 1147.39 Q115.367 1142.79 121.177 1142.79 Z" fill="#000000" fill-rule="evenodd" fill-opacity="1" /><path clip-path="url(#clip860)" d="M80.8299 989.58 L103.052 989.58 L103.052 991.571 L90.5058 1024.14 L85.6216 1024.14 L97.4271 993.516 L80.8299 993.516 L80.8299 989.58 Z" fill="#000000" fill-rule="evenodd" fill-opacity="1" /><path clip-path="url(#clip860)" d="M112.219 989.58 L130.575 989.58 L130.575 993.516 L116.501 993.516 L116.501 1001.99 Q117.52 1001.64 118.538 1001.48 Q119.557 1001.29 120.575 1001.29 Q126.362 1001.29 129.742 1004.46 Q133.121 1007.64 133.121 1013.05 Q133.121 1018.63 129.649 1021.73 Q126.177 1024.81 119.857 1024.81 Q117.682 1024.81 115.413 1024.44 Q113.168 1024.07 110.76 1023.33 L110.76 1018.63 Q112.844 1019.77 115.066 1020.32 Q117.288 1020.88 119.765 1020.88 Q123.77 1020.88 126.107 1018.77 Q128.445 1016.66 128.445 1013.05 Q128.445 1009.44 126.107 1007.33 Q123.77 1005.23 119.765 1005.23 Q117.89 1005.23 116.015 1005.65 Q114.163 1006.06 112.219 1006.94 L112.219 989.58 Z" fill="#000000" fill-rule="evenodd" fill-opacity="1" /><path clip-path="url(#clip860)" d="M51.6634 866.373 L59.3023 866.373 L59.3023 840.007 L50.9921 841.674 L50.9921 837.415 L59.256 835.748 L63.9319 835.748 L63.9319 866.373 L71.5707 866.373 L71.5707 870.308 L51.6634 870.308 L51.6634 866.373 Z" fill="#000000" fill-rule="evenodd" fill-opacity="1" /><path clip-path="url(#clip860)" d="M91.0151 838.827 Q87.404 838.827 85.5753 842.392 Q83.7697 845.933 83.7697 853.063 Q83.7697 860.169 85.5753 863.734 Q87.404 867.276 91.0151 867.276 Q94.6493 867.276 96.4548 863.734 Q98.2835 860.169 98.2835 853.063 Q98.2835 845.933 96.4548 842.392 Q94.6493 838.827 91.0151 838.827 M91.0151 835.123 Q96.8252 835.123 99.8808 839.73 Q102.959 844.313 102.959 853.063 Q102.959 861.79 99.8808 866.396 Q96.8252 870.979 91.0151 870.979 Q85.2049 870.979 82.1262 866.396 Q79.0707 861.79 79.0707 853.063 Q79.0707 844.313 82.1262 839.73 Q85.2049 835.123 91.0151 835.123 Z" fill="#000000" fill-rule="evenodd" fill-opacity="1" /><path clip-path="url(#clip860)" d="M121.177 838.827 Q117.566 838.827 115.737 842.392 Q113.932 845.933 113.932 853.063 Q113.932 860.169 115.737 863.734 Q117.566 867.276 121.177 867.276 Q124.811 867.276 126.617 863.734 Q128.445 860.169 128.445 853.063 Q128.445 845.933 126.617 842.392 Q124.811 838.827 121.177 838.827 M121.177 835.123 Q126.987 835.123 130.043 839.73 Q133.121 844.313 133.121 853.063 Q133.121 861.79 130.043 866.396 Q126.987 870.979 121.177 870.979 Q115.367 870.979 112.288 866.396 Q109.233 861.79 109.233 853.063 Q109.233 844.313 112.288 839.73 Q115.367 835.123 121.177 835.123 Z" fill="#000000" fill-rule="evenodd" fill-opacity="1" /><path clip-path="url(#clip863)" d="
M289.225 1456.05 L289.225 1468.36 L354.006 1468.36 L354.006 1456.05 L289.225 1456.05 L289.225 1456.05  Z
  " fill="#009af9" fill-rule="evenodd" fill-opacity="1"/>
<polyline clip-path="url(#clip863)" style="stroke:#000000; stroke-linecap:butt; stroke-linejoin:round; stroke-width:4; stroke-opacity:1; fill:none" points="
  289.225,1456.05 289.225,1468.36 354.006,1468.36 354.006,1456.05 289.225,1456.05 
  "/>
<path clip-path="url(#clip863)" d="
M354.006 1462.2 L354.006 1468.36 L418.787 1468.36 L418.787 1462.2 L354.006 1462.2 L354.006 1462.2  Z
  " fill="#009af9" fill-rule="evenodd" fill-opacity="1"/>
<polyline clip-path="url(#clip863)" style="stroke:#000000; stroke-linecap:butt; stroke-linejoin:round; stroke-width:4; stroke-opacity:1; fill:none" points="
  354.006,1462.2 354.006,1468.36 418.787,1468.36 418.787,1462.2 354.006,1462.2 
  "/>
<path clip-path="url(#clip863)" d="
M418.787 1456.05 L418.787 1468.36 L483.568 1468.36 L483.568 1456.05 L418.787 1456.05 L418.787 1456.05  Z
  " fill="#009af9" fill-rule="evenodd" fill-opacity="1"/>
<polyline clip-path="url(#clip863)" style="stroke:#000000; stroke-linecap:butt; stroke-linejoin:round; stroke-width:4; stroke-opacity:1; fill:none" points="
  418.787,1456.05 418.787,1468.36 483.568,1468.36 483.568,1456.05 418.787,1456.05 
  "/>
<path clip-path="url(#clip863)" d="
M483.568 1437.59 L483.568 1468.36 L548.349 1468.36 L548.349 1437.59 L483.568 1437.59 L483.568 1437.59  Z
  " fill="#009af9" fill-rule="evenodd" fill-opacity="1"/>
<polyline clip-path="url(#clip863)" style="stroke:#000000; stroke-linecap:butt; stroke-linejoin:round; stroke-width:4; stroke-opacity:1; fill:none" points="
  483.568,1437.59 483.568,1468.36 548.349,1468.36 548.349,1437.59 483.568,1437.59 
  "/>
<path clip-path="url(#clip863)" d="
M548.349 1382.21 L548.349 1468.36 L613.13 1468.36 L613.13 1382.21 L548.349 1382.21 L548.349 1382.21  Z
  " fill="#009af9" fill-rule="evenodd" fill-opacity="1"/>
<polyline clip-path="url(#clip863)" style="stroke:#000000; stroke-linecap:butt; stroke-linejoin:round; stroke-width:4; stroke-opacity:1; fill:none" points="
  548.349,1382.21 548.349,1468.36 613.13,1468.36 613.13,1382.21 548.349,1382.21 
  "/>
<path clip-path="url(#clip863)" d="
M613.13 1388.36 L613.13 1468.36 L677.911 1468.36 L677.911 1388.36 L613.13 1388.36 L613.13 1388.36  Z
  " fill="#009af9" fill-rule="evenodd" fill-opacity="1"/>
<polyline clip-path="url(#clip863)" style="stroke:#000000; stroke-linecap:butt; stroke-linejoin:round; stroke-width:4; stroke-opacity:1; fill:none" points="
  613.13,1388.36 613.13,1468.36 677.911,1468.36 677.911,1388.36 613.13,1388.36 
  "/>
<path clip-path="url(#clip863)" d="
M677.911 1351.44 L677.911 1468.36 L742.691 1468.36 L742.691 1351.44 L677.911 1351.44 L677.911 1351.44  Z
  " fill="#009af9" fill-rule="evenodd" fill-opacity="1"/>
<polyline clip-path="url(#clip863)" style="stroke:#000000; stroke-linecap:butt; stroke-linejoin:round; stroke-width:4; stroke-opacity:1; fill:none" points="
  677.911,1351.44 677.911,1468.36 742.691,1468.36 742.691,1351.44 677.911,1351.44 
  "/>
<path clip-path="url(#clip863)" d="
M742.691 1228.38 L742.691 1468.36 L807.472 1468.36 L807.472 1228.38 L742.691 1228.38 L742.691 1228.38  Z
  " fill="#009af9" fill-rule="evenodd" fill-opacity="1"/>
<polyline clip-path="url(#clip863)" style="stroke:#000000; stroke-linecap:butt; stroke-linejoin:round; stroke-width:4; stroke-opacity:1; fill:none" points="
  742.691,1228.38 742.691,1468.36 807.472,1468.36 807.472,1228.38 742.691,1228.38 
  "/>
<path clip-path="url(#clip863)" d="
M807.472 1154.54 L807.472 1468.36 L872.253 1468.36 L872.253 1154.54 L807.472 1154.54 L807.472 1154.54  Z
  " fill="#009af9" fill-rule="evenodd" fill-opacity="1"/>
<polyline clip-path="url(#clip863)" style="stroke:#000000; stroke-linecap:butt; stroke-linejoin:round; stroke-width:4; stroke-opacity:1; fill:none" points="
  807.472,1154.54 807.472,1468.36 872.253,1468.36 872.253,1154.54 807.472,1154.54 
  "/>
<path clip-path="url(#clip863)" d="
M872.253 1006.86 L872.253 1468.36 L937.034 1468.36 L937.034 1006.86 L872.253 1006.86 L872.253 1006.86  Z
  " fill="#009af9" fill-rule="evenodd" fill-opacity="1"/>
<polyline clip-path="url(#clip863)" style="stroke:#000000; stroke-linecap:butt; stroke-linejoin:round; stroke-width:4; stroke-opacity:1; fill:none" points="
  872.253,1006.86 872.253,1468.36 937.034,1468.36 937.034,1006.86 872.253,1006.86 
  "/>
<path clip-path="url(#clip863)" d="
M937.034 982.247 L937.034 1468.36 L1001.82 1468.36 L1001.82 982.247 L937.034 982.247 L937.034 982.247  Z
  " fill="#009af9" fill-rule="evenodd" fill-opacity="1"/>
<polyline clip-path="url(#clip863)" style="stroke:#000000; stroke-linecap:butt; stroke-linejoin:round; stroke-width:4; stroke-opacity:1; fill:none" points="
  937.034,982.247 937.034,1468.36 1001.82,1468.36 1001.82,982.247 937.034,982.247 
  "/>
<path clip-path="url(#clip863)" d="
M1001.82 976.094 L1001.82 1468.36 L1066.6 1468.36 L1066.6 976.094 L1001.82 976.094 L1001.82 976.094  Z
  " fill="#009af9" fill-rule="evenodd" fill-opacity="1"/>
<polyline clip-path="url(#clip863)" style="stroke:#000000; stroke-linecap:butt; stroke-linejoin:round; stroke-width:4; stroke-opacity:1; fill:none" points="
  1001.82,976.094 1001.82,1468.36 1066.6,1468.36 1066.6,976.094 1001.82,976.094 
  "/>
<path clip-path="url(#clip863)" d="
M1066.6 877.641 L1066.6 1468.36 L1131.38 1468.36 L1131.38 877.641 L1066.6 877.641 L1066.6 877.641  Z
  " fill="#009af9" fill-rule="evenodd" fill-opacity="1"/>
<polyline clip-path="url(#clip863)" style="stroke:#000000; stroke-linecap:butt; stroke-linejoin:round; stroke-width:4; stroke-opacity:1; fill:none" points="
  1066.6,877.641 1066.6,1468.36 1131.38,1468.36 1131.38,877.641 1066.6,877.641 
  "/>
<path clip-path="url(#clip863)" d="
M1131.38 914.561 L1131.38 1468.36 L1196.16 1468.36 L1196.16 914.561 L1131.38 914.561 L1131.38 914.561  Z
  " fill="#009af9" fill-rule="evenodd" fill-opacity="1"/>
<polyline clip-path="url(#clip863)" style="stroke:#000000; stroke-linecap:butt; stroke-linejoin:round; stroke-width:4; stroke-opacity:1; fill:none" points="
  1131.38,914.561 1131.38,1468.36 1196.16,1468.36 1196.16,914.561 1131.38,914.561 
  "/>
<path clip-path="url(#clip863)" d="
M1196.16 865.335 L1196.16 1468.36 L1260.94 1468.36 L1260.94 865.335 L1196.16 865.335 L1196.16 865.335  Z
  " fill="#009af9" fill-rule="evenodd" fill-opacity="1"/>
<polyline clip-path="url(#clip863)" style="stroke:#000000; stroke-linecap:butt; stroke-linejoin:round; stroke-width:4; stroke-opacity:1; fill:none" points="
  1196.16,865.335 1196.16,1468.36 1260.94,1468.36 1260.94,865.335 1196.16,865.335 
  "/>
<path clip-path="url(#clip863)" d="
M1260.94 877.641 L1260.94 1468.36 L1325.72 1468.36 L1325.72 877.641 L1260.94 877.641 L1260.94 877.641  Z
  " fill="#009af9" fill-rule="evenodd" fill-opacity="1"/>
<polyline clip-path="url(#clip863)" style="stroke:#000000; stroke-linecap:butt; stroke-linejoin:round; stroke-width:4; stroke-opacity:1; fill:none" points="
  1260.94,877.641 1260.94,1468.36 1325.72,1468.36 1325.72,877.641 1260.94,877.641 
  "/>
<path clip-path="url(#clip863)" d="
M1325.72 1111.47 L1325.72 1468.36 L1390.5 1468.36 L1390.5 1111.47 L1325.72 1111.47 L1325.72 1111.47  Z
  " fill="#009af9" fill-rule="evenodd" fill-opacity="1"/>
<polyline clip-path="url(#clip863)" style="stroke:#000000; stroke-linecap:butt; stroke-linejoin:round; stroke-width:4; stroke-opacity:1; fill:none" points="
  1325.72,1111.47 1325.72,1468.36 1390.5,1468.36 1390.5,1111.47 1325.72,1111.47 
  "/>
<path clip-path="url(#clip863)" d="
M1390.5 1099.16 L1390.5 1468.36 L1455.28 1468.36 L1455.28 1099.16 L1390.5 1099.16 L1390.5 1099.16  Z
  " fill="#009af9" fill-rule="evenodd" fill-opacity="1"/>
<polyline clip-path="url(#clip863)" style="stroke:#000000; stroke-linecap:butt; stroke-linejoin:round; stroke-width:4; stroke-opacity:1; fill:none" points="
  1390.5,1099.16 1390.5,1468.36 1455.28,1468.36 1455.28,1099.16 1390.5,1099.16 
  "/>
<path clip-path="url(#clip863)" d="
M1455.28 1228.38 L1455.28 1468.36 L1520.06 1468.36 L1520.06 1228.38 L1455.28 1228.38 L1455.28 1228.38  Z
  " fill="#009af9" fill-rule="evenodd" fill-opacity="1"/>
<polyline clip-path="url(#clip863)" style="stroke:#000000; stroke-linecap:butt; stroke-linejoin:round; stroke-width:4; stroke-opacity:1; fill:none" points="
  1455.28,1228.38 1455.28,1468.36 1520.06,1468.36 1520.06,1228.38 1455.28,1228.38 
  "/>
<path clip-path="url(#clip863)" d="
M1520.06 1271.45 L1520.06 1468.36 L1584.84 1468.36 L1584.84 1271.45 L1520.06 1271.45 L1520.06 1271.45  Z
  " fill="#009af9" fill-rule="evenodd" fill-opacity="1"/>
<polyline clip-path="url(#clip863)" style="stroke:#000000; stroke-linecap:butt; stroke-linejoin:round; stroke-width:4; stroke-opacity:1; fill:none" points="
  1520.06,1271.45 1520.06,1468.36 1584.84,1468.36 1584.84,1271.45 1520.06,1271.45 
  "/>
<path clip-path="url(#clip863)" d="
M1584.84 1332.98 L1584.84 1468.36 L1649.62 1468.36 L1649.62 1332.98 L1584.84 1332.98 L1584.84 1332.98  Z
  " fill="#009af9" fill-rule="evenodd" fill-opacity="1"/>
<polyline clip-path="url(#clip863)" style="stroke:#000000; stroke-linecap:butt; stroke-linejoin:round; stroke-width:4; stroke-opacity:1; fill:none" points="
  1584.84,1332.98 1584.84,1468.36 1649.62,1468.36 1649.62,1332.98 1584.84,1332.98 
  "/>
<path clip-path="url(#clip863)" d="
M1649.62 1400.67 L1649.62 1468.36 L1714.4 1468.36 L1714.4 1400.67 L1649.62 1400.67 L1649.62 1400.67  Z
  " fill="#009af9" fill-rule="evenodd" fill-opacity="1"/>
<polyline clip-path="url(#clip863)" style="stroke:#000000; stroke-linecap:butt; stroke-linejoin:round; stroke-width:4; stroke-opacity:1; fill:none" points="
  1649.62,1400.67 1649.62,1468.36 1714.4,1468.36 1714.4,1400.67 1649.62,1400.67 
  "/>
<path clip-path="url(#clip863)" d="
M1714.4 1406.82 L1714.4 1468.36 L1779.19 1468.36 L1779.19 1406.82 L1714.4 1406.82 L1714.4 1406.82  Z
  " fill="#009af9" fill-rule="evenodd" fill-opacity="1"/>
<polyline clip-path="url(#clip863)" style="stroke:#000000; stroke-linecap:butt; stroke-linejoin:round; stroke-width:4; stroke-opacity:1; fill:none" points="
  1714.4,1406.82 1714.4,1468.36 1779.19,1468.36 1779.19,1406.82 1714.4,1406.82 
  "/>
<path clip-path="url(#clip863)" d="
M1779.19 1437.59 L1779.19 1468.36 L1843.97 1468.36 L1843.97 1437.59 L1779.19 1437.59 L1779.19 1437.59  Z
  " fill="#009af9" fill-rule="evenodd" fill-opacity="1"/>
<polyline clip-path="url(#clip863)" style="stroke:#000000; stroke-linecap:butt; stroke-linejoin:round; stroke-width:4; stroke-opacity:1; fill:none" points="
  1779.19,1437.59 1779.19,1468.36 1843.97,1468.36 1843.97,1437.59 1779.19,1437.59 
  "/>
<path clip-path="url(#clip863)" d="
M1843.97 1462.2 L1843.97 1468.36 L1908.75 1468.36 L1908.75 1462.2 L1843.97 1462.2 L1843.97 1462.2  Z
  " fill="#009af9" fill-rule="evenodd" fill-opacity="1"/>
<polyline clip-path="url(#clip863)" style="stroke:#000000; stroke-linecap:butt; stroke-linejoin:round; stroke-width:4; stroke-opacity:1; fill:none" points="
  1843.97,1462.2 1843.97,1468.36 1908.75,1468.36 1908.75,1462.2 1843.97,1462.2 
  "/>
<path clip-path="url(#clip863)" d="
M1908.75 1468.36 L1908.75 1468.36 L1973.53 1468.36 L1973.53 1468.36 L1908.75 1468.36 L1908.75 1468.36  Z
  " fill="#009af9" fill-rule="evenodd" fill-opacity="1"/>
<polyline clip-path="url(#clip863)" style="stroke:#000000; stroke-linecap:butt; stroke-linejoin:round; stroke-width:4; stroke-opacity:1; fill:none" points="
  1908.75,1468.36 1908.75,1468.36 1973.53,1468.36 1908.75,1468.36 
  "/>
<path clip-path="url(#clip863)" d="
M1973.53 1462.2 L1973.53 1468.36 L2038.31 1468.36 L2038.31 1462.2 L1973.53 1462.2 L1973.53 1462.2  Z
  " fill="#009af9" fill-rule="evenodd" fill-opacity="1"/>
<polyline clip-path="url(#clip863)" style="stroke:#000000; stroke-linecap:butt; stroke-linejoin:round; stroke-width:4; stroke-opacity:1; fill:none" points="
  1973.53,1462.2 1973.53,1468.36 2038.31,1468.36 2038.31,1462.2 1973.53,1462.2 
  "/>
<path clip-path="url(#clip863)" d="
M2038.31 1468.36 L2038.31 1468.36 L2103.09 1468.36 L2103.09 1468.36 L2038.31 1468.36 L2038.31 1468.36  Z
  " fill="#009af9" fill-rule="evenodd" fill-opacity="1"/>
<polyline clip-path="url(#clip863)" style="stroke:#000000; stroke-linecap:butt; stroke-linejoin:round; stroke-width:4; stroke-opacity:1; fill:none" points="
  2038.31,1468.36 2038.31,1468.36 2103.09,1468.36 2038.31,1468.36 
  "/>
<path clip-path="url(#clip863)" d="
M2103.09 1468.36 L2103.09 1468.36 L2167.87 1468.36 L2167.87 1468.36 L2103.09 1468.36 L2103.09 1468.36  Z
  " fill="#009af9" fill-rule="evenodd" fill-opacity="1"/>
<polyline clip-path="url(#clip863)" style="stroke:#000000; stroke-linecap:butt; stroke-linejoin:round; stroke-width:4; stroke-opacity:1; fill:none" points="
  2103.09,1468.36 2103.09,1468.36 2167.87,1468.36 2103.09,1468.36 
  "/>
<path clip-path="url(#clip863)" d="
M2167.87 1462.2 L2167.87 1468.36 L2232.65 1468.36 L2232.65 1462.2 L2167.87 1462.2 L2167.87 1462.2  Z
  " fill="#009af9" fill-rule="evenodd" fill-opacity="1"/>
<polyline clip-path="url(#clip863)" style="stroke:#000000; stroke-linecap:butt; stroke-linejoin:round; stroke-width:4; stroke-opacity:1; fill:none" points="
  2167.87,1462.2 2167.87,1468.36 2232.65,1468.36 2232.65,1462.2 2167.87,1462.2 
  "/>
<circle clip-path="url(#clip863)" style="fill:#009af9; stroke:none; fill-opacity:0" cx="321.616" cy="1456.05" r="2"/>
<circle clip-path="url(#clip863)" style="fill:#009af9; stroke:none; fill-opacity:0" cx="386.396" cy="1462.2" r="2"/>
<circle clip-path="url(#clip863)" style="fill:#009af9; stroke:none; fill-opacity:0" cx="451.177" cy="1456.05" r="2"/>
<circle clip-path="url(#clip863)" style="fill:#009af9; stroke:none; fill-opacity:0" cx="515.958" cy="1437.59" r="2"/>
<circle clip-path="url(#clip863)" style="fill:#009af9; stroke:none; fill-opacity:0" cx="580.739" cy="1382.21" r="2"/>
<circle clip-path="url(#clip863)" style="fill:#009af9; stroke:none; fill-opacity:0" cx="645.52" cy="1388.36" r="2"/>
<circle clip-path="url(#clip863)" style="fill:#009af9; stroke:none; fill-opacity:0" cx="710.301" cy="1351.44" r="2"/>
<circle clip-path="url(#clip863)" style="fill:#009af9; stroke:none; fill-opacity:0" cx="775.082" cy="1228.38" r="2"/>
<circle clip-path="url(#clip863)" style="fill:#009af9; stroke:none; fill-opacity:0" cx="839.863" cy="1154.54" r="2"/>
<circle clip-path="url(#clip863)" style="fill:#009af9; stroke:none; fill-opacity:0" cx="904.644" cy="1006.86" r="2"/>
<circle clip-path="url(#clip863)" style="fill:#009af9; stroke:none; fill-opacity:0" cx="969.425" cy="982.247" r="2"/>
<circle clip-path="url(#clip863)" style="fill:#009af9; stroke:none; fill-opacity:0" cx="1034.21" cy="976.094" r="2"/>
<circle clip-path="url(#clip863)" style="fill:#009af9; stroke:none; fill-opacity:0" cx="1098.99" cy="877.641" r="2"/>
<circle clip-path="url(#clip863)" style="fill:#009af9; stroke:none; fill-opacity:0" cx="1163.77" cy="914.561" r="2"/>
<circle clip-path="url(#clip863)" style="fill:#009af9; stroke:none; fill-opacity:0" cx="1228.55" cy="865.335" r="2"/>
<circle clip-path="url(#clip863)" style="fill:#009af9; stroke:none; fill-opacity:0" cx="1293.33" cy="877.641" r="2"/>
<circle clip-path="url(#clip863)" style="fill:#009af9; stroke:none; fill-opacity:0" cx="1358.11" cy="1111.47" r="2"/>
<circle clip-path="url(#clip863)" style="fill:#009af9; stroke:none; fill-opacity:0" cx="1422.89" cy="1099.16" r="2"/>
<circle clip-path="url(#clip863)" style="fill:#009af9; stroke:none; fill-opacity:0" cx="1487.67" cy="1228.38" r="2"/>
<circle clip-path="url(#clip863)" style="fill:#009af9; stroke:none; fill-opacity:0" cx="1552.45" cy="1271.45" r="2"/>
<circle clip-path="url(#clip863)" style="fill:#009af9; stroke:none; fill-opacity:0" cx="1617.23" cy="1332.98" r="2"/>
<circle clip-path="url(#clip863)" style="fill:#009af9; stroke:none; fill-opacity:0" cx="1682.01" cy="1400.67" r="2"/>
<circle clip-path="url(#clip863)" style="fill:#009af9; stroke:none; fill-opacity:0" cx="1746.8" cy="1406.82" r="2"/>
<circle clip-path="url(#clip863)" style="fill:#009af9; stroke:none; fill-opacity:0" cx="1811.58" cy="1437.59" r="2"/>
<circle clip-path="url(#clip863)" style="fill:#009af9; stroke:none; fill-opacity:0" cx="1876.36" cy="1462.2" r="2"/>
<circle clip-path="url(#clip863)" style="fill:#009af9; stroke:none; fill-opacity:0" cx="1941.14" cy="1468.36" r="2"/>
<circle clip-path="url(#clip863)" style="fill:#009af9; stroke:none; fill-opacity:0" cx="2005.92" cy="1462.2" r="2"/>
<circle clip-path="url(#clip863)" style="fill:#009af9; stroke:none; fill-opacity:0" cx="2070.7" cy="1468.36" r="2"/>
<circle clip-path="url(#clip863)" style="fill:#009af9; stroke:none; fill-opacity:0" cx="2135.48" cy="1468.36" r="2"/>
<circle clip-path="url(#clip863)" style="fill:#009af9; stroke:none; fill-opacity:0" cx="2200.26" cy="1462.2" r="2"/>
<path clip-path="url(#clip860)" d="
M1793.04 972.231 L2279.97 972.231 L2279.97 868.551 L1793.04 868.551  Z
  " fill="#ffffff" fill-rule="evenodd" fill-opacity="1"/>
<polyline clip-path="url(#clip860)" style="stroke:#000000; stroke-linecap:butt; stroke-linejoin:round; stroke-width:4; stroke-opacity:1; fill:none" points="
  1793.04,972.231 2279.97,972.231 2279.97,868.551 1793.04,868.551 1793.04,972.231 
  "/>
<path clip-path="url(#clip860)" d="
M1817.3 941.127 L1962.88 941.127 L1962.88 899.655 L1817.3 899.655 L1817.3 941.127  Z
  " fill="#009af9" fill-rule="evenodd" fill-opacity="1"/>
<polyline clip-path="url(#clip860)" style="stroke:#000000; stroke-linecap:butt; stroke-linejoin:round; stroke-width:4; stroke-opacity:1; fill:none" points="
  1817.3,941.127 1962.88,941.127 1962.88,899.655 1817.3,899.655 1817.3,941.127 
  "/>
<path clip-path="url(#clip860)" d="M1987.14 901.653 L1996.95 901.653 L1996.95 904.963 L1991.4 904.963 L1991.4 940.611 L1996.95 940.611 L1996.95 943.921 L1987.14 943.921 L1987.14 901.653 Z" fill="#000000" fill-rule="evenodd" fill-opacity="1" /><path clip-path="url(#clip860)" d="M2010.06 903.111 L2010.06 915.958 L2006.12 915.958 L2006.12 903.111 L2010.06 903.111 M2018.81 903.111 L2018.81 915.958 L2014.87 915.958 L2014.87 903.111 L2018.81 903.111 Z" fill="#000000" fill-rule="evenodd" fill-opacity="1" /><path clip-path="url(#clip860)" d="M2049.38 922.023 L2049.38 937.671 L2045.12 937.671 L2045.12 922.162 Q2045.12 918.481 2043.69 916.652 Q2042.25 914.824 2039.38 914.824 Q2035.93 914.824 2033.94 917.023 Q2031.95 919.222 2031.95 923.018 L2031.95 937.671 L2027.67 937.671 L2027.67 911.745 L2031.95 911.745 L2031.95 915.773 Q2033.48 913.435 2035.54 912.278 Q2037.62 911.12 2040.33 911.12 Q2044.8 911.12 2047.09 913.898 Q2049.38 916.652 2049.38 922.023 Z" fill="#000000" fill-rule="evenodd" fill-opacity="1" /><path clip-path="url(#clip860)" d="M2057.02 935.125 L2061.74 935.125 L2061.74 920.981 L2056.58 921.93 L2056.58 919.245 L2061.91 918.342 L2065.08 918.342 L2065.08 935.125 L2069.82 935.125 L2069.82 937.671 L2057.02 937.671 L2057.02 935.125 Z" fill="#000000" fill-rule="evenodd" fill-opacity="1" /><path clip-path="url(#clip860)" d="M2080.91 903.111 L2080.91 915.958 L2076.98 915.958 L2076.98 903.111 L2080.91 903.111 M2089.66 903.111 L2089.66 915.958 L2085.73 915.958 L2085.73 903.111 L2089.66 903.111 Z" fill="#000000" fill-rule="evenodd" fill-opacity="1" /><path clip-path="url(#clip860)" d="M2099.78 931.791 L2104.66 931.791 L2104.66 935.773 L2100.86 943.18 L2097.88 943.18 L2099.78 935.773 L2099.78 931.791 Z" fill="#000000" fill-rule="evenodd" fill-opacity="1" /><path clip-path="url(#clip860)" d="M2132.86 903.111 L2132.86 915.958 L2128.92 915.958 L2128.92 903.111 L2132.86 903.111 M2141.61 903.111 L2141.61 915.958 L2137.67 915.958 L2137.67 903.111 L2141.61 903.111 Z" fill="#000000" fill-rule="evenodd" fill-opacity="1" /><path clip-path="url(#clip860)" d="M2172.18 922.023 L2172.18 937.671 L2167.92 937.671 L2167.92 922.162 Q2167.92 918.481 2166.49 916.652 Q2165.05 914.824 2162.18 914.824 Q2158.73 914.824 2156.74 917.023 Q2154.75 919.222 2154.75 923.018 L2154.75 937.671 L2150.47 937.671 L2150.47 911.745 L2154.75 911.745 L2154.75 915.773 Q2156.28 913.435 2158.34 912.278 Q2160.42 911.12 2163.13 911.12 Q2167.6 911.12 2169.89 913.898 Q2172.18 916.652 2172.18 922.023 Z" fill="#000000" fill-rule="evenodd" fill-opacity="1" /><path clip-path="url(#clip860)" d="M2182.42 935.032 L2192.23 935.032 L2192.23 937.671 L2178.39 937.671 L2178.39 935.125 Q2179.17 934.407 2180.63 933.111 Q2188.6 926.051 2188.6 923.875 Q2188.6 922.347 2187.39 921.421 Q2186.19 920.472 2184.22 920.472 Q2183.02 920.472 2181.61 920.889 Q2180.19 921.282 2178.53 922.092 L2178.53 919.245 Q2180.31 918.597 2181.84 918.273 Q2183.39 917.949 2184.71 917.949 Q2188.06 917.949 2190.08 919.477 Q2192.09 921.004 2192.09 923.504 Q2192.09 926.722 2184.43 933.296 Q2183.13 934.407 2182.42 935.032 Z" fill="#000000" fill-rule="evenodd" fill-opacity="1" /><path clip-path="url(#clip860)" d="M2203.71 903.111 L2203.71 915.958 L2199.78 915.958 L2199.78 903.111 L2203.71 903.111 M2212.46 903.111 L2212.46 915.958 L2208.53 915.958 L2208.53 903.111 L2212.46 903.111 Z" fill="#000000" fill-rule="evenodd" fill-opacity="1" /><path clip-path="url(#clip860)" d="M2231.44 901.653 L2231.44 943.921 L2221.63 943.921 L2221.63 940.611 L2227.16 940.611 L2227.16 904.963 L2221.63 904.963 L2221.63 901.653 L2231.44 901.653 Z" fill="#000000" fill-rule="evenodd" fill-opacity="1" /></svg>
