<?xml version="1.0" encoding="utf-8"?>
<svg xmlns="http://www.w3.org/2000/svg" xmlns:xlink="http://www.w3.org/1999/xlink" width="600" height="400" viewBox="0 0 2400 1600">
<defs>
  <clipPath id="clip370">
    <rect x="0" y="0" width="2400" height="1600"/>
  </clipPath>
</defs>
<path clip-path="url(#clip370)" d="M0 1600 L2400 1600 L2400 0 L0 0  Z" fill="#ffffff" fill-rule="evenodd" fill-opacity="1"/>
<defs>
  <clipPath id="clip371">
    <rect x="480" y="0" width="1681" height="1600"/>
  </clipPath>
</defs>
<path clip-path="url(#clip370)" d="M169.121 686.448 L2352.76 686.448 L2352.76 47.2441 L169.121 47.2441  Z" fill="#ffffff" fill-rule="evenodd" fill-opacity="1"/>
<defs>
  <clipPath id="clip372">
    <rect x="169" y="47" width="2185" height="640"/>
  </clipPath>
</defs>
<polyline clip-path="url(#clip372)" style="stroke:#000000; stroke-linecap:round; stroke-linejoin:round; stroke-width:2; stroke-opacity:0.1; fill:none" points="403.544,686.448 403.544,47.2441 "/>
<polyline clip-path="url(#clip372)" style="stroke:#000000; stroke-linecap:round; stroke-linejoin:round; stroke-width:2; stroke-opacity:0.1; fill:none" points="860.821,686.448 860.821,47.2441 "/>
<polyline clip-path="url(#clip372)" style="stroke:#000000; stroke-linecap:round; stroke-linejoin:round; stroke-width:2; stroke-opacity:0.1; fill:none" points="1318.1,686.448 1318.1,47.2441 "/>
<polyline clip-path="url(#clip372)" style="stroke:#000000; stroke-linecap:round; stroke-linejoin:round; stroke-width:2; stroke-opacity:0.1; fill:none" points="1775.38,686.448 1775.38,47.2441 "/>
<polyline clip-path="url(#clip372)" style="stroke:#000000; stroke-linecap:round; stroke-linejoin:round; stroke-width:2; stroke-opacity:0.1; fill:none" points="2232.65,686.448 2232.65,47.2441 "/>
<polyline clip-path="url(#clip372)" style="stroke:#000000; stroke-linecap:round; stroke-linejoin:round; stroke-width:2; stroke-opacity:0.1; fill:none" points="169.121,686.448 2352.76,686.448 "/>
<polyline clip-path="url(#clip372)" style="stroke:#000000; stroke-linecap:round; stroke-linejoin:round; stroke-width:2; stroke-opacity:0.1; fill:none" points="169.121,480.253 2352.76,480.253 "/>
<polyline clip-path="url(#clip372)" style="stroke:#000000; stroke-linecap:round; stroke-linejoin:round; stroke-width:2; stroke-opacity:0.1; fill:none" points="169.121,274.058 2352.76,274.058 "/>
<polyline clip-path="url(#clip372)" style="stroke:#000000; stroke-linecap:round; stroke-linejoin:round; stroke-width:2; stroke-opacity:0.1; fill:none" points="169.121,67.8636 2352.76,67.8636 "/>
<polyline clip-path="url(#clip370)" style="stroke:#000000; stroke-linecap:round; stroke-linejoin:round; stroke-width:4; stroke-opacity:1; fill:none" points="169.121,686.448 2352.76,686.448 "/>
<polyline clip-path="url(#clip370)" style="stroke:#000000; stroke-linecap:round; stroke-linejoin:round; stroke-width:4; stroke-opacity:1; fill:none" points="403.544,686.448 403.544,667.55 "/>
<polyline clip-path="url(#clip370)" style="stroke:#000000; stroke-linecap:round; stroke-linejoin:round; stroke-width:4; stroke-opacity:1; fill:none" points="860.821,686.448 860.821,667.55 "/>
<polyline clip-path="url(#clip370)" style="stroke:#000000; stroke-linecap:round; stroke-linejoin:round; stroke-width:4; stroke-opacity:1; fill:none" points="1318.1,686.448 1318.1,667.55 "/>
<polyline clip-path="url(#clip370)" style="stroke:#000000; stroke-linecap:round; stroke-linejoin:round; stroke-width:4; stroke-opacity:1; fill:none" points="1775.38,686.448 1775.38,667.55 "/>
<polyline clip-path="url(#clip370)" style="stroke:#000000; stroke-linecap:round; stroke-linejoin:round; stroke-width:4; stroke-opacity:1; fill:none" points="2232.65,686.448 2232.65,667.55 "/>
<path clip-path="url(#clip370)" d="M344.54 744.913 L360.859 744.913 L360.859 748.848 L338.915 748.848 L338.915 744.913 Q341.577 742.158 346.16 737.528 Q350.767 732.876 351.947 731.533 Q354.193 729.01 355.072 727.274 Q355.975 725.515 355.975 723.825 Q355.975 721.07 354.031 719.334 Q352.109 717.598 349.008 717.598 Q346.809 717.598 344.355 718.362 Q341.924 719.126 339.147 720.677 L339.147 715.955 Q341.971 714.82 344.424 714.242 Q346.878 713.663 348.915 713.663 Q354.285 713.663 357.48 716.348 Q360.674 719.033 360.674 723.524 Q360.674 725.654 359.864 727.575 Q359.077 729.473 356.971 732.066 Q356.392 732.737 353.29 735.954 Q350.188 739.149 344.54 744.913 Z" fill="#000000" fill-rule="nonzero" fill-opacity="1" /><path clip-path="url(#clip370)" d="M370.674 742.968 L375.558 742.968 L375.558 748.848 L370.674 748.848 L370.674 742.968 Z" fill="#000000" fill-rule="nonzero" fill-opacity="1" /><path clip-path="url(#clip370)" d="M396.322 729.704 Q393.174 729.704 391.322 731.857 Q389.493 734.01 389.493 737.76 Q389.493 741.487 391.322 743.663 Q393.174 745.815 396.322 745.815 Q399.47 745.815 401.299 743.663 Q403.151 741.487 403.151 737.76 Q403.151 734.01 401.299 731.857 Q399.47 729.704 396.322 729.704 M405.605 715.052 L405.605 719.311 Q403.845 718.478 402.04 718.038 Q400.257 717.598 398.498 717.598 Q393.868 717.598 391.415 720.723 Q388.984 723.848 388.637 730.167 Q390.003 728.154 392.063 727.089 Q394.123 726.001 396.6 726.001 Q401.808 726.001 404.817 729.172 Q407.85 732.32 407.85 737.76 Q407.85 743.084 404.702 746.302 Q401.554 749.519 396.322 749.519 Q390.327 749.519 387.156 744.936 Q383.984 740.329 383.984 731.603 Q383.984 723.408 387.873 718.547 Q391.762 713.663 398.313 713.663 Q400.072 713.663 401.855 714.01 Q403.66 714.357 405.605 715.052 Z" fill="#000000" fill-rule="nonzero" fill-opacity="1" /><path clip-path="url(#clip370)" d="M416.044 748.13 L416.044 743.871 Q417.804 744.704 419.609 745.144 Q421.415 745.584 423.151 745.584 Q427.78 745.584 430.211 742.482 Q432.665 739.357 433.012 733.015 Q431.669 735.005 429.609 736.07 Q427.549 737.135 425.049 737.135 Q419.864 737.135 416.831 734.01 Q413.822 730.862 413.822 725.422 Q413.822 720.098 416.97 716.88 Q420.118 713.663 425.35 713.663 Q431.345 713.663 434.493 718.269 Q437.665 722.853 437.665 731.603 Q437.665 739.774 433.776 744.658 Q429.91 749.519 423.359 749.519 Q421.6 749.519 419.794 749.172 Q417.989 748.825 416.044 748.13 M425.35 733.478 Q428.498 733.478 430.327 731.325 Q432.178 729.172 432.178 725.422 Q432.178 721.695 430.327 719.542 Q428.498 717.367 425.35 717.367 Q422.202 717.367 420.35 719.542 Q418.521 721.695 418.521 725.422 Q418.521 729.172 420.35 731.325 Q422.202 733.478 425.35 733.478 Z" fill="#000000" fill-rule="nonzero" fill-opacity="1" /><path clip-path="url(#clip370)" d="M456.646 729.704 Q453.498 729.704 451.646 731.857 Q449.817 734.01 449.817 737.76 Q449.817 741.487 451.646 743.663 Q453.498 745.815 456.646 745.815 Q459.794 745.815 461.623 743.663 Q463.475 741.487 463.475 737.76 Q463.475 734.01 461.623 731.857 Q459.794 729.704 456.646 729.704 M465.928 715.052 L465.928 719.311 Q464.169 718.478 462.363 718.038 Q460.581 717.598 458.822 717.598 Q454.192 717.598 451.739 720.723 Q449.308 723.848 448.961 730.167 Q450.326 728.154 452.387 727.089 Q454.447 726.001 456.924 726.001 Q462.132 726.001 465.141 729.172 Q468.174 732.32 468.174 737.76 Q468.174 743.084 465.025 746.302 Q461.877 749.519 456.646 749.519 Q450.651 749.519 447.479 744.936 Q444.308 740.329 444.308 731.603 Q444.308 723.408 448.197 718.547 Q452.086 713.663 458.637 713.663 Q460.396 713.663 462.178 714.01 Q463.984 714.357 465.928 715.052 Z" fill="#000000" fill-rule="nonzero" fill-opacity="1" /><path clip-path="url(#clip370)" d="M801.944 744.913 L818.264 744.913 L818.264 748.848 L796.319 748.848 L796.319 744.913 Q798.981 742.158 803.565 737.528 Q808.171 732.876 809.352 731.533 Q811.597 729.01 812.477 727.274 Q813.379 725.515 813.379 723.825 Q813.379 721.07 811.435 719.334 Q809.514 717.598 806.412 717.598 Q804.213 717.598 801.759 718.362 Q799.329 719.126 796.551 720.677 L796.551 715.955 Q799.375 714.82 801.829 714.242 Q804.282 713.663 806.319 713.663 Q811.69 713.663 814.884 716.348 Q818.078 719.033 818.078 723.524 Q818.078 725.654 817.268 727.575 Q816.481 729.473 814.375 732.066 Q813.796 732.737 810.694 735.954 Q807.592 739.149 801.944 744.913 Z" fill="#000000" fill-rule="nonzero" fill-opacity="1" /><path clip-path="url(#clip370)" d="M828.078 742.968 L832.963 742.968 L832.963 748.848 L828.078 748.848 L828.078 742.968 Z" fill="#000000" fill-rule="nonzero" fill-opacity="1" /><path clip-path="url(#clip370)" d="M853.726 729.704 Q850.578 729.704 848.726 731.857 Q846.898 734.01 846.898 737.76 Q846.898 741.487 848.726 743.663 Q850.578 745.815 853.726 745.815 Q856.875 745.815 858.703 743.663 Q860.555 741.487 860.555 737.76 Q860.555 734.01 858.703 731.857 Q856.875 729.704 853.726 729.704 M863.009 715.052 L863.009 719.311 Q861.25 718.478 859.444 718.038 Q857.662 717.598 855.902 717.598 Q851.273 717.598 848.819 720.723 Q846.388 723.848 846.041 730.167 Q847.407 728.154 849.467 727.089 Q851.527 726.001 854.004 726.001 Q859.212 726.001 862.222 729.172 Q865.254 732.32 865.254 737.76 Q865.254 743.084 862.106 746.302 Q858.958 749.519 853.726 749.519 Q847.731 749.519 844.56 744.936 Q841.389 740.329 841.389 731.603 Q841.389 723.408 845.277 718.547 Q849.166 713.663 855.717 713.663 Q857.476 713.663 859.259 714.01 Q861.064 714.357 863.009 715.052 Z" fill="#000000" fill-rule="nonzero" fill-opacity="1" /><path clip-path="url(#clip370)" d="M873.449 748.13 L873.449 743.871 Q875.208 744.704 877.013 745.144 Q878.819 745.584 880.555 745.584 Q885.185 745.584 887.615 742.482 Q890.069 739.357 890.416 733.015 Q889.073 735.005 887.013 736.07 Q884.953 737.135 882.453 737.135 Q877.268 737.135 874.236 734.01 Q871.226 730.862 871.226 725.422 Q871.226 720.098 874.374 716.88 Q877.523 713.663 882.754 713.663 Q888.749 713.663 891.898 718.269 Q895.069 722.853 895.069 731.603 Q895.069 739.774 891.18 744.658 Q887.314 749.519 880.763 749.519 Q879.004 749.519 877.199 749.172 Q875.393 748.825 873.449 748.13 M882.754 733.478 Q885.902 733.478 887.731 731.325 Q889.583 729.172 889.583 725.422 Q889.583 721.695 887.731 719.542 Q885.902 717.367 882.754 717.367 Q879.606 717.367 877.754 719.542 Q875.925 721.695 875.925 725.422 Q875.925 729.172 877.754 731.325 Q879.606 733.478 882.754 733.478 Z" fill="#000000" fill-rule="nonzero" fill-opacity="1" /><path clip-path="url(#clip370)" d="M913.471 732.436 Q910.138 732.436 908.217 734.218 Q906.319 736.001 906.319 739.126 Q906.319 742.251 908.217 744.033 Q910.138 745.815 913.471 745.815 Q916.805 745.815 918.726 744.033 Q920.647 742.228 920.647 739.126 Q920.647 736.001 918.726 734.218 Q916.828 732.436 913.471 732.436 M908.796 730.445 Q905.786 729.704 904.097 727.644 Q902.43 725.584 902.43 722.621 Q902.43 718.478 905.37 716.07 Q908.333 713.663 913.471 713.663 Q918.633 713.663 921.573 716.07 Q924.513 718.478 924.513 722.621 Q924.513 725.584 922.823 727.644 Q921.157 729.704 918.171 730.445 Q921.55 731.232 923.425 733.524 Q925.323 735.816 925.323 739.126 Q925.323 744.149 922.245 746.834 Q919.189 749.519 913.471 749.519 Q907.754 749.519 904.675 746.834 Q901.62 744.149 901.62 739.126 Q901.62 735.816 903.518 733.524 Q905.416 731.232 908.796 730.445 M907.083 723.061 Q907.083 725.746 908.749 727.251 Q910.439 728.755 913.471 728.755 Q916.481 728.755 918.171 727.251 Q919.883 725.746 919.883 723.061 Q919.883 720.376 918.171 718.871 Q916.481 717.367 913.471 717.367 Q910.439 717.367 908.749 718.871 Q907.083 720.376 907.083 723.061 Z" fill="#000000" fill-rule="nonzero" fill-opacity="1" /><path clip-path="url(#clip370)" d="M1259.17 744.913 L1275.49 744.913 L1275.49 748.848 L1253.55 748.848 L1253.55 744.913 Q1256.21 742.158 1260.8 737.528 Q1265.4 732.876 1266.58 731.533 Q1268.83 729.01 1269.71 727.274 Q1270.61 725.515 1270.61 723.825 Q1270.61 721.07 1268.67 719.334 Q1266.74 717.598 1263.64 717.598 Q1261.44 717.598 1258.99 718.362 Q1256.56 719.126 1253.78 720.677 L1253.78 715.955 Q1256.61 714.82 1259.06 714.242 Q1261.51 713.663 1263.55 713.663 Q1268.92 713.663 1272.11 716.348 Q1275.31 719.033 1275.31 723.524 Q1275.31 725.654 1274.5 727.575 Q1273.71 729.473 1271.61 732.066 Q1271.03 732.737 1267.92 735.954 Q1264.82 739.149 1259.17 744.913 Z" fill="#000000" fill-rule="nonzero" fill-opacity="1" /><path clip-path="url(#clip370)" d="M1285.31 742.968 L1290.19 742.968 L1290.19 748.848 L1285.31 748.848 L1285.31 742.968 Z" fill="#000000" fill-rule="nonzero" fill-opacity="1" /><path clip-path="url(#clip370)" d="M1299.2 714.288 L1321.42 714.288 L1321.42 716.279 L1308.87 748.848 L1303.99 748.848 L1315.8 718.223 L1299.2 718.223 L1299.2 714.288 Z" fill="#000000" fill-rule="nonzero" fill-opacity="1" /><path clip-path="url(#clip370)" d="M1340.54 717.367 Q1336.93 717.367 1335.1 720.931 Q1333.29 724.473 1333.29 731.603 Q1333.29 738.709 1335.1 742.274 Q1336.93 745.815 1340.54 745.815 Q1344.17 745.815 1345.98 742.274 Q1347.81 738.709 1347.81 731.603 Q1347.81 724.473 1345.98 720.931 Q1344.17 717.367 1340.54 717.367 M1340.54 713.663 Q1346.35 713.663 1349.41 718.269 Q1352.48 722.853 1352.48 731.603 Q1352.48 740.329 1349.41 744.936 Q1346.35 749.519 1340.54 749.519 Q1334.73 749.519 1331.65 744.936 Q1328.6 740.329 1328.6 731.603 Q1328.6 722.853 1331.65 718.269 Q1334.73 713.663 1340.54 713.663 Z" fill="#000000" fill-rule="nonzero" fill-opacity="1" /><path clip-path="url(#clip370)" d="M1370.7 717.367 Q1367.09 717.367 1365.26 720.931 Q1363.46 724.473 1363.46 731.603 Q1363.46 738.709 1365.26 742.274 Q1367.09 745.815 1370.7 745.815 Q1374.34 745.815 1376.14 742.274 Q1377.97 738.709 1377.97 731.603 Q1377.97 724.473 1376.14 720.931 Q1374.34 717.367 1370.7 717.367 M1370.7 713.663 Q1376.51 713.663 1379.57 718.269 Q1382.65 722.853 1382.65 731.603 Q1382.65 740.329 1379.57 744.936 Q1376.51 749.519 1370.7 749.519 Q1364.89 749.519 1361.81 744.936 Q1358.76 740.329 1358.76 731.603 Q1358.76 722.853 1361.81 718.269 Q1364.89 713.663 1370.7 713.663 Z" fill="#000000" fill-rule="nonzero" fill-opacity="1" /><path clip-path="url(#clip370)" d="M1717.25 744.913 L1733.57 744.913 L1733.57 748.848 L1711.63 748.848 L1711.63 744.913 Q1714.29 742.158 1718.87 737.528 Q1723.48 732.876 1724.66 731.533 Q1726.9 729.01 1727.78 727.274 Q1728.69 725.515 1728.69 723.825 Q1728.69 721.07 1726.74 719.334 Q1724.82 717.598 1721.72 717.598 Q1719.52 717.598 1717.07 718.362 Q1714.63 719.126 1711.86 720.677 L1711.86 715.955 Q1714.68 714.82 1717.13 714.242 Q1719.59 713.663 1721.63 713.663 Q1727 713.663 1730.19 716.348 Q1733.38 719.033 1733.38 723.524 Q1733.38 725.654 1732.57 727.575 Q1731.79 729.473 1729.68 732.066 Q1729.1 732.737 1726 735.954 Q1722.9 739.149 1717.25 744.913 Z" fill="#000000" fill-rule="nonzero" fill-opacity="1" /><path clip-path="url(#clip370)" d="M1743.38 742.968 L1748.27 742.968 L1748.27 748.848 L1743.38 748.848 L1743.38 742.968 Z" fill="#000000" fill-rule="nonzero" fill-opacity="1" /><path clip-path="url(#clip370)" d="M1757.27 714.288 L1779.5 714.288 L1779.5 716.279 L1766.95 748.848 L1762.07 748.848 L1773.87 718.223 L1757.27 718.223 L1757.27 714.288 Z" fill="#000000" fill-rule="nonzero" fill-opacity="1" /><path clip-path="url(#clip370)" d="M1798.62 717.367 Q1795 717.367 1793.18 720.931 Q1791.37 724.473 1791.37 731.603 Q1791.37 738.709 1793.18 742.274 Q1795 745.815 1798.62 745.815 Q1802.25 745.815 1804.06 742.274 Q1805.88 738.709 1805.88 731.603 Q1805.88 724.473 1804.06 720.931 Q1802.25 717.367 1798.62 717.367 M1798.62 713.663 Q1804.43 713.663 1807.48 718.269 Q1810.56 722.853 1810.56 731.603 Q1810.56 740.329 1807.48 744.936 Q1804.43 749.519 1798.62 749.519 Q1792.81 749.519 1789.73 744.936 Q1786.67 740.329 1786.67 731.603 Q1786.67 722.853 1789.73 718.269 Q1792.81 713.663 1798.62 713.663 Z" fill="#000000" fill-rule="nonzero" fill-opacity="1" /><path clip-path="url(#clip370)" d="M1822.81 744.913 L1839.12 744.913 L1839.12 748.848 L1817.18 748.848 L1817.18 744.913 Q1819.84 742.158 1824.43 737.528 Q1829.03 732.876 1830.21 731.533 Q1832.46 729.01 1833.34 727.274 Q1834.24 725.515 1834.24 723.825 Q1834.24 721.07 1832.3 719.334 Q1830.37 717.598 1827.27 717.598 Q1825.07 717.598 1822.62 718.362 Q1820.19 719.126 1817.41 720.677 L1817.41 715.955 Q1820.24 714.82 1822.69 714.242 Q1825.14 713.663 1827.18 713.663 Q1832.55 713.663 1835.75 716.348 Q1838.94 719.033 1838.94 723.524 Q1838.94 725.654 1838.13 727.575 Q1837.34 729.473 1835.24 732.066 Q1834.66 732.737 1831.56 735.954 Q1828.45 739.149 1822.81 744.913 Z" fill="#000000" fill-rule="nonzero" fill-opacity="1" /><path clip-path="url(#clip370)" d="M2173.49 744.913 L2189.81 744.913 L2189.81 748.848 L2167.86 748.848 L2167.86 744.913 Q2170.52 742.158 2175.11 737.528 Q2179.71 732.876 2180.89 731.533 Q2183.14 729.01 2184.02 727.274 Q2184.92 725.515 2184.92 723.825 Q2184.92 721.07 2182.98 719.334 Q2181.06 717.598 2177.95 717.598 Q2175.75 717.598 2173.3 718.362 Q2170.87 719.126 2168.09 720.677 L2168.09 715.955 Q2170.92 714.82 2173.37 714.242 Q2175.82 713.663 2177.86 713.663 Q2183.23 713.663 2186.43 716.348 Q2189.62 719.033 2189.62 723.524 Q2189.62 725.654 2188.81 727.575 Q2188.02 729.473 2185.92 732.066 Q2185.34 732.737 2182.24 735.954 Q2179.13 739.149 2173.49 744.913 Z" fill="#000000" fill-rule="nonzero" fill-opacity="1" /><path clip-path="url(#clip370)" d="M2199.62 742.968 L2204.5 742.968 L2204.5 748.848 L2199.62 748.848 L2199.62 742.968 Z" fill="#000000" fill-rule="nonzero" fill-opacity="1" /><path clip-path="url(#clip370)" d="M2213.51 714.288 L2235.73 714.288 L2235.73 716.279 L2223.18 748.848 L2218.3 748.848 L2230.11 718.223 L2213.51 718.223 L2213.51 714.288 Z" fill="#000000" fill-rule="nonzero" fill-opacity="1" /><path clip-path="url(#clip370)" d="M2254.85 717.367 Q2251.24 717.367 2249.41 720.931 Q2247.61 724.473 2247.61 731.603 Q2247.61 738.709 2249.41 742.274 Q2251.24 745.815 2254.85 745.815 Q2258.49 745.815 2260.29 742.274 Q2262.12 738.709 2262.12 731.603 Q2262.12 724.473 2260.29 720.931 Q2258.49 717.367 2254.85 717.367 M2254.85 713.663 Q2260.66 713.663 2263.72 718.269 Q2266.8 722.853 2266.8 731.603 Q2266.8 740.329 2263.72 744.936 Q2260.66 749.519 2254.85 749.519 Q2249.04 749.519 2245.96 744.936 Q2242.91 740.329 2242.91 731.603 Q2242.91 722.853 2245.96 718.269 Q2249.04 713.663 2254.85 713.663 Z" fill="#000000" fill-rule="nonzero" fill-opacity="1" /><path clip-path="url(#clip370)" d="M2287.86 718.362 L2276.05 736.811 L2287.86 736.811 L2287.86 718.362 M2286.63 714.288 L2292.51 714.288 L2292.51 736.811 L2297.44 736.811 L2297.44 740.7 L2292.51 740.7 L2292.51 748.848 L2287.86 748.848 L2287.86 740.7 L2272.26 740.7 L2272.26 736.186 L2286.63 714.288 Z" fill="#000000" fill-rule="nonzero" fill-opacity="1" /><polyline clip-path="url(#clip370)" style="stroke:#000000; stroke-linecap:round; stroke-linejoin:round; stroke-width:4; stroke-opacity:1; fill:none" points="169.121,686.448 169.121,47.2441 "/>
<polyline clip-path="url(#clip370)" style="stroke:#000000; stroke-linecap:round; stroke-linejoin:round; stroke-width:4; stroke-opacity:1; fill:none" points="169.121,686.448 188.019,686.448 "/>
<polyline clip-path="url(#clip370)" style="stroke:#000000; stroke-linecap:round; stroke-linejoin:round; stroke-width:4; stroke-opacity:1; fill:none" points="169.121,480.253 188.019,480.253 "/>
<polyline clip-path="url(#clip370)" style="stroke:#000000; stroke-linecap:round; stroke-linejoin:round; stroke-width:4; stroke-opacity:1; fill:none" points="169.121,274.058 188.019,274.058 "/>
<polyline clip-path="url(#clip370)" style="stroke:#000000; stroke-linecap:round; stroke-linejoin:round; stroke-width:4; stroke-opacity:1; fill:none" points="169.121,67.8636 188.019,67.8636 "/>
<path clip-path="url(#clip370)" d="M121.177 672.247 Q117.566 672.247 115.737 675.811 Q113.932 679.353 113.932 686.483 Q113.932 693.589 115.737 697.154 Q117.566 700.695 121.177 700.695 Q124.811 700.695 126.617 697.154 Q128.445 693.589 128.445 686.483 Q128.445 679.353 126.617 675.811 Q124.811 672.247 121.177 672.247 M121.177 668.543 Q126.987 668.543 130.043 673.149 Q133.121 677.733 133.121 686.483 Q133.121 695.209 130.043 699.816 Q126.987 704.399 121.177 704.399 Q115.367 704.399 112.288 699.816 Q109.233 695.209 109.233 686.483 Q109.233 677.733 112.288 673.149 Q115.367 668.543 121.177 668.543 Z" fill="#000000" fill-rule="nonzero" fill-opacity="1" /><path clip-path="url(#clip370)" d="M81.0614 462.973 L99.4178 462.973 L99.4178 466.908 L85.3438 466.908 L85.3438 475.38 Q86.3623 475.033 87.3808 474.871 Q88.3993 474.686 89.4178 474.686 Q95.2049 474.686 98.5845 477.857 Q101.964 481.029 101.964 486.445 Q101.964 492.024 98.4919 495.126 Q95.0197 498.204 88.7003 498.204 Q86.5243 498.204 84.2558 497.834 Q82.0105 497.464 79.6031 496.723 L79.6031 492.024 Q81.6864 493.158 83.9086 493.714 Q86.1308 494.269 88.6077 494.269 Q92.6123 494.269 94.9502 492.163 Q97.2882 490.056 97.2882 486.445 Q97.2882 482.834 94.9502 480.728 Q92.6123 478.621 88.6077 478.621 Q86.7327 478.621 84.8577 479.038 Q83.0058 479.454 81.0614 480.334 L81.0614 462.973 Z" fill="#000000" fill-rule="nonzero" fill-opacity="1" /><path clip-path="url(#clip370)" d="M121.177 466.052 Q117.566 466.052 115.737 469.617 Q113.932 473.158 113.932 480.288 Q113.932 487.394 115.737 490.959 Q117.566 494.501 121.177 494.501 Q124.811 494.501 126.617 490.959 Q128.445 487.394 128.445 480.288 Q128.445 473.158 126.617 469.617 Q124.811 466.052 121.177 466.052 M121.177 462.348 Q126.987 462.348 130.043 466.955 Q133.121 471.538 133.121 480.288 Q133.121 489.015 130.043 493.621 Q126.987 498.204 121.177 498.204 Q115.367 498.204 112.288 493.621 Q109.233 489.015 109.233 480.288 Q109.233 471.538 112.288 466.955 Q115.367 462.348 121.177 462.348 Z" fill="#000000" fill-rule="nonzero" fill-opacity="1" /><path clip-path="url(#clip370)" d="M51.6634 287.403 L59.3023 287.403 L59.3023 261.038 L50.9921 262.704 L50.9921 258.445 L59.256 256.778 L63.9319 256.778 L63.9319 287.403 L71.5707 287.403 L71.5707 291.338 L51.6634 291.338 L51.6634 287.403 Z" fill="#000000" fill-rule="nonzero" fill-opacity="1" /><path clip-path="url(#clip370)" d="M91.0151 259.857 Q87.404 259.857 85.5753 263.422 Q83.7697 266.963 83.7697 274.093 Q83.7697 281.2 85.5753 284.764 Q87.404 288.306 91.0151 288.306 Q94.6493 288.306 96.4548 284.764 Q98.2835 281.2 98.2835 274.093 Q98.2835 266.963 96.4548 263.422 Q94.6493 259.857 91.0151 259.857 M91.0151 256.153 Q96.8252 256.153 99.8808 260.76 Q102.959 265.343 102.959 274.093 Q102.959 282.82 99.8808 287.426 Q96.8252 292.01 91.0151 292.01 Q85.2049 292.01 82.1262 287.426 Q79.0707 282.82 79.0707 274.093 Q79.0707 265.343 82.1262 260.76 Q85.2049 256.153 91.0151 256.153 Z" fill="#000000" fill-rule="nonzero" fill-opacity="1" /><path clip-path="url(#clip370)" d="M121.177 259.857 Q117.566 259.857 115.737 263.422 Q113.932 266.963 113.932 274.093 Q113.932 281.2 115.737 284.764 Q117.566 288.306 121.177 288.306 Q124.811 288.306 126.617 284.764 Q128.445 281.2 128.445 274.093 Q128.445 266.963 126.617 263.422 Q124.811 259.857 121.177 259.857 M121.177 256.153 Q126.987 256.153 130.043 260.76 Q133.121 265.343 133.121 274.093 Q133.121 282.82 130.043 287.426 Q126.987 292.01 121.177 292.01 Q115.367 292.01 112.288 287.426 Q109.233 282.82 109.233 274.093 Q109.233 265.343 112.288 260.76 Q115.367 256.153 121.177 256.153 Z" fill="#000000" fill-rule="nonzero" fill-opacity="1" /><path clip-path="url(#clip370)" d="M51.6634 81.2084 L59.3023 81.2084 L59.3023 54.8428 L50.9921 56.5095 L50.9921 52.2502 L59.256 50.5836 L63.9319 50.5836 L63.9319 81.2084 L71.5707 81.2084 L71.5707 85.1436 L51.6634 85.1436 L51.6634 81.2084 Z" fill="#000000" fill-rule="nonzero" fill-opacity="1" /><path clip-path="url(#clip370)" d="M81.0614 50.5836 L99.4178 50.5836 L99.4178 54.5187 L85.3438 54.5187 L85.3438 62.9909 Q86.3623 62.6437 87.3808 62.4817 Q88.3993 62.2965 89.4178 62.2965 Q95.2049 62.2965 98.5845 65.4678 Q101.964 68.639 101.964 74.0557 Q101.964 79.6343 98.4919 82.7362 Q95.0197 85.8149 88.7003 85.8149 Q86.5243 85.8149 84.2558 85.4445 Q82.0105 85.0741 79.6031 84.3334 L79.6031 79.6343 Q81.6864 80.7686 83.9086 81.3241 Q86.1308 81.8797 88.6077 81.8797 Q92.6123 81.8797 94.9502 79.7732 Q97.2882 77.6668 97.2882 74.0557 Q97.2882 70.4446 94.9502 68.3381 Q92.6123 66.2316 88.6077 66.2316 Q86.7327 66.2316 84.8577 66.6483 Q83.0058 67.065 81.0614 67.9446 L81.0614 50.5836 Z" fill="#000000" fill-rule="nonzero" fill-opacity="1" /><path clip-path="url(#clip370)" d="M121.177 53.6623 Q117.566 53.6623 115.737 57.2271 Q113.932 60.7687 113.932 67.8983 Q113.932 75.0047 115.737 78.5695 Q117.566 82.1112 121.177 82.1112 Q124.811 82.1112 126.617 78.5695 Q128.445 75.0047 128.445 67.8983 Q128.445 60.7687 126.617 57.2271 Q124.811 53.6623 121.177 53.6623 M121.177 49.9586 Q126.987 49.9586 130.043 54.565 Q133.121 59.1483 133.121 67.8983 Q133.121 76.6251 130.043 81.2316 Q126.987 85.8149 121.177 85.8149 Q115.367 85.8149 112.288 81.2316 Q109.233 76.6251 109.233 67.8983 Q109.233 59.1483 112.288 54.565 Q115.367 49.9586 121.177 49.9586 Z" fill="#000000" fill-rule="nonzero" fill-opacity="1" /><path clip-path="url(#clip372)" d="M289.225 682.324 L289.225 686.448 L403.544 686.448 L403.544 682.324 L289.225 682.324 L289.225 682.324  Z" fill="#009af9" fill-rule="evenodd" fill-opacity="1"/>
<polyline clip-path="url(#clip372)" style="stroke:#000000; stroke-linecap:round; stroke-linejoin:round; stroke-width:4; stroke-opacity:1; fill:none" points="289.225,682.324 289.225,686.448 403.544,686.448 403.544,682.324 289.225,682.324 "/>
<path clip-path="url(#clip372)" d="M403.544 678.2 L403.544 686.448 L517.864 686.448 L517.864 678.2 L403.544 678.2 L403.544 678.2  Z" fill="#009af9" fill-rule="evenodd" fill-opacity="1"/>
<polyline clip-path="url(#clip372)" style="stroke:#000000; stroke-linecap:round; stroke-linejoin:round; stroke-width:4; stroke-opacity:1; fill:none" points="403.544,678.2 403.544,686.448 517.864,686.448 517.864,678.2 403.544,678.2 "/>
<path clip-path="url(#clip372)" d="M517.864 661.705 L517.864 686.448 L632.183 686.448 L632.183 661.705 L517.864 661.705 L517.864 661.705  Z" fill="#009af9" fill-rule="evenodd" fill-opacity="1"/>
<polyline clip-path="url(#clip372)" style="stroke:#000000; stroke-linecap:round; stroke-linejoin:round; stroke-width:4; stroke-opacity:1; fill:none" points="517.864,661.705 517.864,686.448 632.183,686.448 632.183,661.705 517.864,661.705 "/>
<path clip-path="url(#clip372)" d="M632.183 620.466 L632.183 686.448 L746.502 686.448 L746.502 620.466 L632.183 620.466 L632.183 620.466  Z" fill="#009af9" fill-rule="evenodd" fill-opacity="1"/>
<polyline clip-path="url(#clip372)" style="stroke:#000000; stroke-linecap:round; stroke-linejoin:round; stroke-width:4; stroke-opacity:1; fill:none" points="632.183,620.466 632.183,686.448 746.502,686.448 746.502,620.466 632.183,620.466 "/>
<path clip-path="url(#clip372)" d="M746.502 562.731 L746.502 686.448 L860.821 686.448 L860.821 562.731 L746.502 562.731 L746.502 562.731  Z" fill="#009af9" fill-rule="evenodd" fill-opacity="1"/>
<polyline clip-path="url(#clip372)" style="stroke:#000000; stroke-linecap:round; stroke-linejoin:round; stroke-width:4; stroke-opacity:1; fill:none" points="746.502,562.731 746.502,686.448 860.821,686.448 860.821,562.731 746.502,562.731 "/>
<path clip-path="url(#clip372)" d="M860.821 455.51 L860.821 686.448 L975.141 686.448 L975.141 455.51 L860.821 455.51 L860.821 455.51  Z" fill="#009af9" fill-rule="evenodd" fill-opacity="1"/>
<polyline clip-path="url(#clip372)" style="stroke:#000000; stroke-linecap:round; stroke-linejoin:round; stroke-width:4; stroke-opacity:1; fill:none" points="860.821,455.51 860.821,686.448 975.141,686.448 975.141,455.51 860.821,455.51 "/>
<path clip-path="url(#clip372)" d="M975.141 245.191 L975.141 686.448 L1089.46 686.448 L1089.46 245.191 L975.141 245.191 L975.141 245.191  Z" fill="#009af9" fill-rule="evenodd" fill-opacity="1"/>
<polyline clip-path="url(#clip372)" style="stroke:#000000; stroke-linecap:round; stroke-linejoin:round; stroke-width:4; stroke-opacity:1; fill:none" points="975.141,245.191 975.141,686.448 1089.46,686.448 1089.46,245.191 975.141,245.191 "/>
<path clip-path="url(#clip372)" d="M1089.46 104.979 L1089.46 686.448 L1203.78 686.448 L1203.78 104.979 L1089.46 104.979 L1089.46 104.979  Z" fill="#009af9" fill-rule="evenodd" fill-opacity="1"/>
<polyline clip-path="url(#clip372)" style="stroke:#000000; stroke-linecap:round; stroke-linejoin:round; stroke-width:4; stroke-opacity:1; fill:none" points="1089.46,104.979 1089.46,686.448 1203.78,686.448 1203.78,104.979 1089.46,104.979 "/>
<path clip-path="url(#clip372)" d="M1203.78 117.35 L1203.78 686.448 L1318.1 686.448 L1318.1 117.35 L1203.78 117.35 L1203.78 117.35  Z" fill="#009af9" fill-rule="evenodd" fill-opacity="1"/>
<polyline clip-path="url(#clip372)" style="stroke:#000000; stroke-linecap:round; stroke-linejoin:round; stroke-width:4; stroke-opacity:1; fill:none" points="1203.78,117.35 1203.78,686.448 1318.1,686.448 1318.1,117.35 1203.78,117.35 "/>
<path clip-path="url(#clip372)" d="M1318.1 47.2441 L1318.1 686.448 L1432.42 686.448 L1432.42 47.2441 L1318.1 47.2441 L1318.1 47.2441  Z" fill="#009af9" fill-rule="evenodd" fill-opacity="1"/>
<polyline clip-path="url(#clip372)" style="stroke:#000000; stroke-linecap:round; stroke-linejoin:round; stroke-width:4; stroke-opacity:1; fill:none" points="1318.1,47.2441 1318.1,686.448 1432.42,686.448 1432.42,47.2441 1318.1,47.2441 "/>
<path clip-path="url(#clip372)" d="M1432.42 113.226 L1432.42 686.448 L1546.74 686.448 L1546.74 113.226 L1432.42 113.226 L1432.42 113.226  Z" fill="#009af9" fill-rule="evenodd" fill-opacity="1"/>
<polyline clip-path="url(#clip372)" style="stroke:#000000; stroke-linecap:round; stroke-linejoin:round; stroke-width:4; stroke-opacity:1; fill:none" points="1432.42,113.226 1432.42,686.448 1546.74,686.448 1546.74,113.226 1432.42,113.226 "/>
<path clip-path="url(#clip372)" d="M1546.74 278.182 L1546.74 686.448 L1661.06 686.448 L1661.06 278.182 L1546.74 278.182 L1546.74 278.182  Z" fill="#009af9" fill-rule="evenodd" fill-opacity="1"/>
<polyline clip-path="url(#clip372)" style="stroke:#000000; stroke-linecap:round; stroke-linejoin:round; stroke-width:4; stroke-opacity:1; fill:none" points="1546.74,278.182 1546.74,686.448 1661.06,686.448 1661.06,278.182 1546.74,278.182 "/>
<path clip-path="url(#clip372)" d="M1661.06 443.138 L1661.06 686.448 L1775.38 686.448 L1775.38 443.138 L1661.06 443.138 L1661.06 443.138  Z" fill="#009af9" fill-rule="evenodd" fill-opacity="1"/>
<polyline clip-path="url(#clip372)" style="stroke:#000000; stroke-linecap:round; stroke-linejoin:round; stroke-width:4; stroke-opacity:1; fill:none" points="1661.06,443.138 1661.06,686.448 1775.38,686.448 1775.38,443.138 1661.06,443.138 "/>
<path clip-path="url(#clip372)" d="M1775.38 562.731 L1775.38 686.448 L1889.69 686.448 L1889.69 562.731 L1775.38 562.731 L1775.38 562.731  Z" fill="#009af9" fill-rule="evenodd" fill-opacity="1"/>
<polyline clip-path="url(#clip372)" style="stroke:#000000; stroke-linecap:round; stroke-linejoin:round; stroke-width:4; stroke-opacity:1; fill:none" points="1775.38,562.731 1775.38,686.448 1889.69,686.448 1889.69,562.731 1775.38,562.731 "/>
<path clip-path="url(#clip372)" d="M1889.69 628.713 L1889.69 686.448 L2004.01 686.448 L2004.01 628.713 L1889.69 628.713 L1889.69 628.713  Z" fill="#009af9" fill-rule="evenodd" fill-opacity="1"/>
<polyline clip-path="url(#clip372)" style="stroke:#000000; stroke-linecap:round; stroke-linejoin:round; stroke-width:4; stroke-opacity:1; fill:none" points="1889.69,628.713 1889.69,686.448 2004.01,686.448 2004.01,628.713 1889.69,628.713 "/>
<path clip-path="url(#clip372)" d="M2004.01 669.952 L2004.01 686.448 L2118.33 686.448 L2118.33 669.952 L2004.01 669.952 L2004.01 669.952  Z" fill="#009af9" fill-rule="evenodd" fill-opacity="1"/>
<polyline clip-path="url(#clip372)" style="stroke:#000000; stroke-linecap:round; stroke-linejoin:round; stroke-width:4; stroke-opacity:1; fill:none" points="2004.01,669.952 2004.01,686.448 2118.33,686.448 2118.33,669.952 2004.01,669.952 "/>
<path clip-path="url(#clip372)" d="M2118.33 674.076 L2118.33 686.448 L2232.65 686.448 L2232.65 674.076 L2118.33 674.076 L2118.33 674.076  Z" fill="#009af9" fill-rule="evenodd" fill-opacity="1"/>
<polyline clip-path="url(#clip372)" style="stroke:#000000; stroke-linecap:round; stroke-linejoin:round; stroke-width:4; stroke-opacity:1; fill:none" points="2118.33,674.076 2118.33,686.448 2232.65,686.448 2232.65,674.076 2118.33,674.076 "/>
<circle clip-path="url(#clip372)" style="fill:#009af9; stroke:none; fill-opacity:0" cx="346.385" cy="682.324" r="2"/>
<circle clip-path="url(#clip372)" style="fill:#009af9; stroke:none; fill-opacity:0" cx="460.704" cy="678.2" r="2"/>
<circle clip-path="url(#clip372)" style="fill:#009af9; stroke:none; fill-opacity:0" cx="575.023" cy="661.705" r="2"/>
<circle clip-path="url(#clip372)" style="fill:#009af9; stroke:none; fill-opacity:0" cx="689.342" cy="620.466" r="2"/>
<circle clip-path="url(#clip372)" style="fill:#009af9; stroke:none; fill-opacity:0" cx="803.662" cy="562.731" r="2"/>
<circle clip-path="url(#clip372)" style="fill:#009af9; stroke:none; fill-opacity:0" cx="917.981" cy="455.51" r="2"/>
<circle clip-path="url(#clip372)" style="fill:#009af9; stroke:none; fill-opacity:0" cx="1032.3" cy="245.191" r="2"/>
<circle clip-path="url(#clip372)" style="fill:#009af9; stroke:none; fill-opacity:0" cx="1146.62" cy="104.979" r="2"/>
<circle clip-path="url(#clip372)" style="fill:#009af9; stroke:none; fill-opacity:0" cx="1260.94" cy="117.35" r="2"/>
<circle clip-path="url(#clip372)" style="fill:#009af9; stroke:none; fill-opacity:0" cx="1375.26" cy="47.2441" r="2"/>
<circle clip-path="url(#clip372)" style="fill:#009af9; stroke:none; fill-opacity:0" cx="1489.58" cy="113.226" r="2"/>
<circle clip-path="url(#clip372)" style="fill:#009af9; stroke:none; fill-opacity:0" cx="1603.9" cy="278.182" r="2"/>
<circle clip-path="url(#clip372)" style="fill:#009af9; stroke:none; fill-opacity:0" cx="1718.22" cy="443.138" r="2"/>
<circle clip-path="url(#clip372)" style="fill:#009af9; stroke:none; fill-opacity:0" cx="1832.53" cy="562.731" r="2"/>
<circle clip-path="url(#clip372)" style="fill:#009af9; stroke:none; fill-opacity:0" cx="1946.85" cy="628.713" r="2"/>
<circle clip-path="url(#clip372)" style="fill:#009af9; stroke:none; fill-opacity:0" cx="2061.17" cy="669.952" r="2"/>
<circle clip-path="url(#clip372)" style="fill:#009af9; stroke:none; fill-opacity:0" cx="2175.49" cy="674.076" r="2"/>
<path clip-path="url(#clip370)" d="M2029.94 172.231 L2279.97 172.231 L2279.97 68.5509 L2029.94 68.5509  Z" fill="#ffffff" fill-rule="evenodd" fill-opacity="1"/>
<polyline clip-path="url(#clip370)" style="stroke:#000000; stroke-linecap:round; stroke-linejoin:round; stroke-width:4; stroke-opacity:1; fill:none" points="2029.94,172.231 2279.97,172.231 2279.97,68.5509 2029.94,68.5509 2029.94,172.231 "/>
<path clip-path="url(#clip370)" d="M2054.2 141.127 L2199.78 141.127 L2199.78 99.6549 L2054.2 99.6549 L2054.2 141.127  Z" fill="#009af9" fill-rule="evenodd" fill-opacity="1"/>
<polyline clip-path="url(#clip370)" style="stroke:#000000; stroke-linecap:round; stroke-linejoin:round; stroke-width:4; stroke-opacity:1; fill:none" points="2054.2,141.127 2199.78,141.127 2199.78,99.6549 2054.2,99.6549 2054.2,141.127 "/>
<path clip-path="url(#clip370)" d="M2239.87 107.717 L2233.53 124.916 L2246.24 124.916 L2239.87 107.717 M2237.23 103.111 L2242.53 103.111 L2255.71 137.671 L2250.84 137.671 L2247.7 128.805 L2232.12 128.805 L2228.97 137.671 L2224.04 137.671 L2237.23 103.111 Z" fill="#000000" fill-rule="nonzero" fill-opacity="1" /><path clip-path="url(#clip370)" d="M169.121 1486.45 L2352.76 1486.45 L2352.76 847.244 L169.121 847.244  Z" fill="#ffffff" fill-rule="evenodd" fill-opacity="1"/>
<defs>
  <clipPath id="clip373">
    <rect x="169" y="847" width="2185" height="640"/>
  </clipPath>
</defs>
<polyline clip-path="url(#clip373)" style="stroke:#000000; stroke-linecap:round; stroke-linejoin:round; stroke-width:2; stroke-opacity:0.1; fill:none" points="532.153,1486.45 532.153,847.244 "/>
<polyline clip-path="url(#clip373)" style="stroke:#000000; stroke-linecap:round; stroke-linejoin:round; stroke-width:2; stroke-opacity:0.1; fill:none" points="896.546,1486.45 896.546,847.244 "/>
<polyline clip-path="url(#clip373)" style="stroke:#000000; stroke-linecap:round; stroke-linejoin:round; stroke-width:2; stroke-opacity:0.1; fill:none" points="1260.94,1486.45 1260.94,847.244 "/>
<polyline clip-path="url(#clip373)" style="stroke:#000000; stroke-linecap:round; stroke-linejoin:round; stroke-width:2; stroke-opacity:0.1; fill:none" points="1625.33,1486.45 1625.33,847.244 "/>
<polyline clip-path="url(#clip373)" style="stroke:#000000; stroke-linecap:round; stroke-linejoin:round; stroke-width:2; stroke-opacity:0.1; fill:none" points="1989.72,1486.45 1989.72,847.244 "/>
<polyline clip-path="url(#clip373)" style="stroke:#000000; stroke-linecap:round; stroke-linejoin:round; stroke-width:2; stroke-opacity:0.1; fill:none" points="169.121,1486.45 2352.76,1486.45 "/>
<polyline clip-path="url(#clip373)" style="stroke:#000000; stroke-linecap:round; stroke-linejoin:round; stroke-width:2; stroke-opacity:0.1; fill:none" points="169.121,1306.9 2352.76,1306.9 "/>
<polyline clip-path="url(#clip373)" style="stroke:#000000; stroke-linecap:round; stroke-linejoin:round; stroke-width:2; stroke-opacity:0.1; fill:none" points="169.121,1127.34 2352.76,1127.34 "/>
<polyline clip-path="url(#clip373)" style="stroke:#000000; stroke-linecap:round; stroke-linejoin:round; stroke-width:2; stroke-opacity:0.1; fill:none" points="169.121,947.793 2352.76,947.793 "/>
<polyline clip-path="url(#clip370)" style="stroke:#000000; stroke-linecap:round; stroke-linejoin:round; stroke-width:4; stroke-opacity:1; fill:none" points="169.121,1486.45 2352.76,1486.45 "/>
<polyline clip-path="url(#clip370)" style="stroke:#000000; stroke-linecap:round; stroke-linejoin:round; stroke-width:4; stroke-opacity:1; fill:none" points="532.153,1486.45 532.153,1467.55 "/>
<polyline clip-path="url(#clip370)" style="stroke:#000000; stroke-linecap:round; stroke-linejoin:round; stroke-width:4; stroke-opacity:1; fill:none" points="896.546,1486.45 896.546,1467.55 "/>
<polyline clip-path="url(#clip370)" style="stroke:#000000; stroke-linecap:round; stroke-linejoin:round; stroke-width:4; stroke-opacity:1; fill:none" points="1260.94,1486.45 1260.94,1467.55 "/>
<polyline clip-path="url(#clip370)" style="stroke:#000000; stroke-linecap:round; stroke-linejoin:round; stroke-width:4; stroke-opacity:1; fill:none" points="1625.33,1486.45 1625.33,1467.55 "/>
<polyline clip-path="url(#clip370)" style="stroke:#000000; stroke-linecap:round; stroke-linejoin:round; stroke-width:4; stroke-opacity:1; fill:none" points="1989.72,1486.45 1989.72,1467.55 "/>
<path clip-path="url(#clip370)" d="M461.61 1514.29 L479.966 1514.29 L479.966 1518.22 L465.892 1518.22 L465.892 1526.7 Q466.911 1526.35 467.929 1526.19 Q468.948 1526 469.966 1526 Q475.753 1526 479.133 1529.17 Q482.513 1532.34 482.513 1537.76 Q482.513 1543.34 479.04 1546.44 Q475.568 1549.52 469.249 1549.52 Q467.073 1549.52 464.804 1549.15 Q462.559 1548.78 460.152 1548.04 L460.152 1543.34 Q462.235 1544.47 464.457 1545.03 Q466.679 1545.58 469.156 1545.58 Q473.161 1545.58 475.499 1543.48 Q477.837 1541.37 477.837 1537.76 Q477.837 1534.15 475.499 1532.04 Q473.161 1529.94 469.156 1529.94 Q467.281 1529.94 465.406 1530.35 Q463.554 1530.77 461.61 1531.65 L461.61 1514.29 Z" fill="#000000" fill-rule="nonzero" fill-opacity="1" /><path clip-path="url(#clip370)" d="M491.864 1548.13 L491.864 1543.87 Q493.624 1544.7 495.429 1545.14 Q497.235 1545.58 498.971 1545.58 Q503.6 1545.58 506.031 1542.48 Q508.485 1539.36 508.832 1533.01 Q507.489 1535.01 505.429 1536.07 Q503.369 1537.13 500.869 1537.13 Q495.684 1537.13 492.651 1534.01 Q489.642 1530.86 489.642 1525.42 Q489.642 1520.1 492.79 1516.88 Q495.938 1513.66 501.17 1513.66 Q507.165 1513.66 510.313 1518.27 Q513.485 1522.85 513.485 1531.6 Q513.485 1539.77 509.596 1544.66 Q505.73 1549.52 499.179 1549.52 Q497.42 1549.52 495.614 1549.17 Q493.809 1548.82 491.864 1548.13 M501.17 1533.48 Q504.318 1533.48 506.147 1531.32 Q507.999 1529.17 507.999 1525.42 Q507.999 1521.7 506.147 1519.54 Q504.318 1517.37 501.17 1517.37 Q498.022 1517.37 496.17 1519.54 Q494.341 1521.7 494.341 1525.42 Q494.341 1529.17 496.17 1531.32 Q498.022 1533.48 501.17 1533.48 Z" fill="#000000" fill-rule="nonzero" fill-opacity="1" /><path clip-path="url(#clip370)" d="M534.734 1518.36 L522.929 1536.81 L534.734 1536.81 L534.734 1518.36 M533.508 1514.29 L539.387 1514.29 L539.387 1536.81 L544.318 1536.81 L544.318 1540.7 L539.387 1540.7 L539.387 1548.85 L534.734 1548.85 L534.734 1540.7 L519.133 1540.7 L519.133 1536.19 L533.508 1514.29 Z" fill="#000000" fill-rule="nonzero" fill-opacity="1" /><path clip-path="url(#clip370)" d="M562.049 1517.37 Q558.438 1517.37 556.609 1520.93 Q554.804 1524.47 554.804 1531.6 Q554.804 1538.71 556.609 1542.27 Q558.438 1545.82 562.049 1545.82 Q565.683 1545.82 567.489 1542.27 Q569.318 1538.71 569.318 1531.6 Q569.318 1524.47 567.489 1520.93 Q565.683 1517.37 562.049 1517.37 M562.049 1513.66 Q567.859 1513.66 570.915 1518.27 Q573.994 1522.85 573.994 1531.6 Q573.994 1540.33 570.915 1544.94 Q567.859 1549.52 562.049 1549.52 Q556.239 1549.52 553.16 1544.94 Q550.105 1540.33 550.105 1531.6 Q550.105 1522.85 553.16 1518.27 Q556.239 1513.66 562.049 1513.66 Z" fill="#000000" fill-rule="nonzero" fill-opacity="1" /><path clip-path="url(#clip370)" d="M592.211 1517.37 Q588.6 1517.37 586.771 1520.93 Q584.966 1524.47 584.966 1531.6 Q584.966 1538.71 586.771 1542.27 Q588.6 1545.82 592.211 1545.82 Q595.845 1545.82 597.651 1542.27 Q599.48 1538.71 599.48 1531.6 Q599.48 1524.47 597.651 1520.93 Q595.845 1517.37 592.211 1517.37 M592.211 1513.66 Q598.021 1513.66 601.077 1518.27 Q604.155 1522.85 604.155 1531.6 Q604.155 1540.33 601.077 1544.94 Q598.021 1549.52 592.211 1549.52 Q586.401 1549.52 583.322 1544.94 Q580.267 1540.33 580.267 1531.6 Q580.267 1522.85 583.322 1518.27 Q586.401 1513.66 592.211 1513.66 Z" fill="#000000" fill-rule="nonzero" fill-opacity="1" /><path clip-path="url(#clip370)" d="M826.002 1514.29 L844.359 1514.29 L844.359 1518.22 L830.285 1518.22 L830.285 1526.7 Q831.303 1526.35 832.322 1526.19 Q833.34 1526 834.359 1526 Q840.146 1526 843.525 1529.17 Q846.905 1532.34 846.905 1537.76 Q846.905 1543.34 843.433 1546.44 Q839.961 1549.52 833.641 1549.52 Q831.465 1549.52 829.197 1549.15 Q826.952 1548.78 824.544 1548.04 L824.544 1543.34 Q826.627 1544.47 828.85 1545.03 Q831.072 1545.58 833.549 1545.58 Q837.553 1545.58 839.891 1543.48 Q842.229 1541.37 842.229 1537.76 Q842.229 1534.15 839.891 1532.04 Q837.553 1529.94 833.549 1529.94 Q831.674 1529.94 829.799 1530.35 Q827.947 1530.77 826.002 1531.65 L826.002 1514.29 Z" fill="#000000" fill-rule="nonzero" fill-opacity="1" /><path clip-path="url(#clip370)" d="M856.257 1548.13 L856.257 1543.87 Q858.016 1544.7 859.822 1545.14 Q861.627 1545.58 863.363 1545.58 Q867.993 1545.58 870.424 1542.48 Q872.877 1539.36 873.224 1533.01 Q871.882 1535.01 869.822 1536.07 Q867.761 1537.13 865.261 1537.13 Q860.076 1537.13 857.044 1534.01 Q854.035 1530.86 854.035 1525.42 Q854.035 1520.1 857.183 1516.88 Q860.331 1513.66 865.562 1513.66 Q871.558 1513.66 874.706 1518.27 Q877.877 1522.85 877.877 1531.6 Q877.877 1539.77 873.988 1544.66 Q870.123 1549.52 863.572 1549.52 Q861.812 1549.52 860.007 1549.17 Q858.201 1548.82 856.257 1548.13 M865.562 1533.48 Q868.711 1533.48 870.539 1531.32 Q872.391 1529.17 872.391 1525.42 Q872.391 1521.7 870.539 1519.54 Q868.711 1517.37 865.562 1517.37 Q862.414 1517.37 860.562 1519.54 Q858.734 1521.7 858.734 1525.42 Q858.734 1529.17 860.562 1531.32 Q862.414 1533.48 865.562 1533.48 Z" fill="#000000" fill-rule="nonzero" fill-opacity="1" /><path clip-path="url(#clip370)" d="M885.099 1514.29 L907.321 1514.29 L907.321 1516.28 L894.775 1548.85 L889.891 1548.85 L901.696 1518.22 L885.099 1518.22 L885.099 1514.29 Z" fill="#000000" fill-rule="nonzero" fill-opacity="1" /><path clip-path="url(#clip370)" d="M926.442 1517.37 Q922.831 1517.37 921.002 1520.93 Q919.196 1524.47 919.196 1531.6 Q919.196 1538.71 921.002 1542.27 Q922.831 1545.82 926.442 1545.82 Q930.076 1545.82 931.882 1542.27 Q933.71 1538.71 933.71 1531.6 Q933.71 1524.47 931.882 1520.93 Q930.076 1517.37 926.442 1517.37 M926.442 1513.66 Q932.252 1513.66 935.307 1518.27 Q938.386 1522.85 938.386 1531.6 Q938.386 1540.33 935.307 1544.94 Q932.252 1549.52 926.442 1549.52 Q920.632 1549.52 917.553 1544.94 Q914.497 1540.33 914.497 1531.6 Q914.497 1522.85 917.553 1518.27 Q920.632 1513.66 926.442 1513.66 Z" fill="#000000" fill-rule="nonzero" fill-opacity="1" /><path clip-path="url(#clip370)" d="M956.604 1517.37 Q952.993 1517.37 951.164 1520.93 Q949.358 1524.47 949.358 1531.6 Q949.358 1538.71 951.164 1542.27 Q952.993 1545.82 956.604 1545.82 Q960.238 1545.82 962.043 1542.27 Q963.872 1538.71 963.872 1531.6 Q963.872 1524.47 962.043 1520.93 Q960.238 1517.37 956.604 1517.37 M956.604 1513.66 Q962.414 1513.66 965.469 1518.27 Q968.548 1522.85 968.548 1531.6 Q968.548 1540.33 965.469 1544.94 Q962.414 1549.52 956.604 1549.52 Q950.793 1549.52 947.715 1544.94 Q944.659 1540.33 944.659 1531.6 Q944.659 1522.85 947.715 1518.27 Q950.793 1513.66 956.604 1513.66 Z" fill="#000000" fill-rule="nonzero" fill-opacity="1" /><path clip-path="url(#clip370)" d="M1201.1 1529.7 Q1197.95 1529.7 1196.1 1531.86 Q1194.27 1534.01 1194.27 1537.76 Q1194.27 1541.49 1196.1 1543.66 Q1197.95 1545.82 1201.1 1545.82 Q1204.25 1545.82 1206.08 1543.66 Q1207.93 1541.49 1207.93 1537.76 Q1207.93 1534.01 1206.08 1531.86 Q1204.25 1529.7 1201.1 1529.7 M1210.38 1515.05 L1210.38 1519.31 Q1208.62 1518.48 1206.82 1518.04 Q1205.04 1517.6 1203.28 1517.6 Q1198.65 1517.6 1196.19 1520.72 Q1193.76 1523.85 1193.42 1530.17 Q1194.78 1528.15 1196.84 1527.09 Q1198.9 1526 1201.38 1526 Q1206.59 1526 1209.6 1529.17 Q1212.63 1532.32 1212.63 1537.76 Q1212.63 1543.08 1209.48 1546.3 Q1206.33 1549.52 1201.1 1549.52 Q1195.11 1549.52 1191.93 1544.94 Q1188.76 1540.33 1188.76 1531.6 Q1188.76 1523.41 1192.65 1518.55 Q1196.54 1513.66 1203.09 1513.66 Q1204.85 1513.66 1206.63 1514.01 Q1208.44 1514.36 1210.38 1515.05 Z" fill="#000000" fill-rule="nonzero" fill-opacity="1" /><path clip-path="url(#clip370)" d="M1230.68 1517.37 Q1227.07 1517.37 1225.24 1520.93 Q1223.44 1524.47 1223.44 1531.6 Q1223.44 1538.71 1225.24 1542.27 Q1227.07 1545.82 1230.68 1545.82 Q1234.32 1545.82 1236.12 1542.27 Q1237.95 1538.71 1237.95 1531.6 Q1237.95 1524.47 1236.12 1520.93 Q1234.32 1517.37 1230.68 1517.37 M1230.68 1513.66 Q1236.49 1513.66 1239.55 1518.27 Q1242.63 1522.85 1242.63 1531.6 Q1242.63 1540.33 1239.55 1544.94 Q1236.49 1549.52 1230.68 1549.52 Q1224.87 1549.52 1221.8 1544.94 Q1218.74 1540.33 1218.74 1531.6 Q1218.74 1522.85 1221.8 1518.27 Q1224.87 1513.66 1230.68 1513.66 Z" fill="#000000" fill-rule="nonzero" fill-opacity="1" /><path clip-path="url(#clip370)" d="M1260.85 1517.37 Q1257.23 1517.37 1255.41 1520.93 Q1253.6 1524.47 1253.6 1531.6 Q1253.6 1538.71 1255.41 1542.27 Q1257.23 1545.82 1260.85 1545.82 Q1264.48 1545.82 1266.29 1542.27 Q1268.11 1538.71 1268.11 1531.6 Q1268.11 1524.47 1266.29 1520.93 Q1264.48 1517.37 1260.85 1517.37 M1260.85 1513.66 Q1266.66 1513.66 1269.71 1518.27 Q1272.79 1522.85 1272.79 1531.6 Q1272.79 1540.33 1269.71 1544.94 Q1266.66 1549.52 1260.85 1549.52 Q1255.04 1549.52 1251.96 1544.94 Q1248.9 1540.33 1248.9 1531.6 Q1248.9 1522.85 1251.96 1518.27 Q1255.04 1513.66 1260.85 1513.66 Z" fill="#000000" fill-rule="nonzero" fill-opacity="1" /><path clip-path="url(#clip370)" d="M1291.01 1517.37 Q1287.4 1517.37 1285.57 1520.93 Q1283.76 1524.47 1283.76 1531.6 Q1283.76 1538.71 1285.57 1542.27 Q1287.4 1545.82 1291.01 1545.82 Q1294.64 1545.82 1296.45 1542.27 Q1298.28 1538.71 1298.28 1531.6 Q1298.28 1524.47 1296.45 1520.93 Q1294.64 1517.37 1291.01 1517.37 M1291.01 1513.66 Q1296.82 1513.66 1299.87 1518.27 Q1302.95 1522.85 1302.95 1531.6 Q1302.95 1540.33 1299.87 1544.94 Q1296.82 1549.52 1291.01 1549.52 Q1285.2 1549.52 1282.12 1544.94 Q1279.06 1540.33 1279.06 1531.6 Q1279.06 1522.85 1282.12 1518.27 Q1285.2 1513.66 1291.01 1513.66 Z" fill="#000000" fill-rule="nonzero" fill-opacity="1" /><path clip-path="url(#clip370)" d="M1321.17 1517.37 Q1317.56 1517.37 1315.73 1520.93 Q1313.92 1524.47 1313.92 1531.6 Q1313.92 1538.71 1315.73 1542.27 Q1317.56 1545.82 1321.17 1545.82 Q1324.8 1545.82 1326.61 1542.27 Q1328.44 1538.71 1328.44 1531.6 Q1328.44 1524.47 1326.61 1520.93 Q1324.8 1517.37 1321.17 1517.37 M1321.17 1513.66 Q1326.98 1513.66 1330.04 1518.27 Q1333.11 1522.85 1333.11 1531.6 Q1333.11 1540.33 1330.04 1544.94 Q1326.98 1549.52 1321.17 1549.52 Q1315.36 1549.52 1312.28 1544.94 Q1309.23 1540.33 1309.23 1531.6 Q1309.23 1522.85 1312.28 1518.27 Q1315.36 1513.66 1321.17 1513.66 Z" fill="#000000" fill-rule="nonzero" fill-opacity="1" /><path clip-path="url(#clip370)" d="M1565.49 1529.7 Q1562.35 1529.7 1560.49 1531.86 Q1558.66 1534.01 1558.66 1537.76 Q1558.66 1541.49 1560.49 1543.66 Q1562.35 1545.82 1565.49 1545.82 Q1568.64 1545.82 1570.47 1543.66 Q1572.32 1541.49 1572.32 1537.76 Q1572.32 1534.01 1570.47 1531.86 Q1568.64 1529.7 1565.49 1529.7 M1574.78 1515.05 L1574.78 1519.31 Q1573.02 1518.48 1571.21 1518.04 Q1569.43 1517.6 1567.67 1517.6 Q1563.04 1517.6 1560.59 1520.72 Q1558.16 1523.85 1557.81 1530.17 Q1559.17 1528.15 1561.23 1527.09 Q1563.29 1526 1565.77 1526 Q1570.98 1526 1573.99 1529.17 Q1577.02 1532.32 1577.02 1537.76 Q1577.02 1543.08 1573.87 1546.3 Q1570.72 1549.52 1565.49 1549.52 Q1559.5 1549.52 1556.33 1544.94 Q1553.16 1540.33 1553.16 1531.6 Q1553.16 1523.41 1557.04 1518.55 Q1560.93 1513.66 1567.48 1513.66 Q1569.24 1513.66 1571.03 1514.01 Q1572.83 1514.36 1574.78 1515.05 Z" fill="#000000" fill-rule="nonzero" fill-opacity="1" /><path clip-path="url(#clip370)" d="M1595.08 1517.37 Q1591.47 1517.37 1589.64 1520.93 Q1587.83 1524.47 1587.83 1531.6 Q1587.83 1538.71 1589.64 1542.27 Q1591.47 1545.82 1595.08 1545.82 Q1598.71 1545.82 1600.52 1542.27 Q1602.35 1538.71 1602.35 1531.6 Q1602.35 1524.47 1600.52 1520.93 Q1598.71 1517.37 1595.08 1517.37 M1595.08 1513.66 Q1600.89 1513.66 1603.94 1518.27 Q1607.02 1522.85 1607.02 1531.6 Q1607.02 1540.33 1603.94 1544.94 Q1600.89 1549.52 1595.08 1549.52 Q1589.27 1549.52 1586.19 1544.94 Q1583.13 1540.33 1583.13 1531.6 Q1583.13 1522.85 1586.19 1518.27 Q1589.27 1513.66 1595.08 1513.66 Z" fill="#000000" fill-rule="nonzero" fill-opacity="1" /><path clip-path="url(#clip370)" d="M1629.41 1530.21 Q1632.76 1530.93 1634.64 1533.2 Q1636.53 1535.47 1636.53 1538.8 Q1636.53 1543.92 1633.02 1546.72 Q1629.5 1549.52 1623.02 1549.52 Q1620.84 1549.52 1618.53 1549.08 Q1616.23 1548.66 1613.78 1547.81 L1613.78 1543.29 Q1615.72 1544.43 1618.04 1545.01 Q1620.35 1545.58 1622.88 1545.58 Q1627.28 1545.58 1629.57 1543.85 Q1631.88 1542.11 1631.88 1538.8 Q1631.88 1535.75 1629.73 1534.03 Q1627.6 1532.3 1623.78 1532.3 L1619.75 1532.3 L1619.75 1528.45 L1623.97 1528.45 Q1627.41 1528.45 1629.24 1527.09 Q1631.07 1525.7 1631.07 1523.11 Q1631.07 1520.45 1629.17 1519.03 Q1627.3 1517.6 1623.78 1517.6 Q1621.86 1517.6 1619.66 1518.01 Q1617.46 1518.43 1614.82 1519.31 L1614.82 1515.14 Q1617.48 1514.4 1619.8 1514.03 Q1622.14 1513.66 1624.2 1513.66 Q1629.52 1513.66 1632.62 1516.09 Q1635.72 1518.5 1635.72 1522.62 Q1635.72 1525.49 1634.08 1527.48 Q1632.44 1529.45 1629.41 1530.21 Z" fill="#000000" fill-rule="nonzero" fill-opacity="1" /><path clip-path="url(#clip370)" d="M1655.4 1517.37 Q1651.79 1517.37 1649.96 1520.93 Q1648.16 1524.47 1648.16 1531.6 Q1648.16 1538.71 1649.96 1542.27 Q1651.79 1545.82 1655.4 1545.82 Q1659.03 1545.82 1660.84 1542.27 Q1662.67 1538.71 1662.67 1531.6 Q1662.67 1524.47 1660.84 1520.93 Q1659.03 1517.37 1655.4 1517.37 M1655.4 1513.66 Q1661.21 1513.66 1664.27 1518.27 Q1667.34 1522.85 1667.34 1531.6 Q1667.34 1540.33 1664.27 1544.94 Q1661.21 1549.52 1655.4 1549.52 Q1649.59 1549.52 1646.51 1544.94 Q1643.46 1540.33 1643.46 1531.6 Q1643.46 1522.85 1646.51 1518.27 Q1649.59 1513.66 1655.4 1513.66 Z" fill="#000000" fill-rule="nonzero" fill-opacity="1" /><path clip-path="url(#clip370)" d="M1685.56 1517.37 Q1681.95 1517.37 1680.12 1520.93 Q1678.32 1524.47 1678.32 1531.6 Q1678.32 1538.71 1680.12 1542.27 Q1681.95 1545.82 1685.56 1545.82 Q1689.2 1545.82 1691 1542.27 Q1692.83 1538.71 1692.83 1531.6 Q1692.83 1524.47 1691 1520.93 Q1689.2 1517.37 1685.56 1517.37 M1685.56 1513.66 Q1691.37 1513.66 1694.43 1518.27 Q1697.51 1522.85 1697.51 1531.6 Q1697.51 1540.33 1694.43 1544.94 Q1691.37 1549.52 1685.56 1549.52 Q1679.75 1549.52 1676.67 1544.94 Q1673.62 1540.33 1673.62 1531.6 Q1673.62 1522.85 1676.67 1518.27 Q1679.75 1513.66 1685.56 1513.66 Z" fill="#000000" fill-rule="nonzero" fill-opacity="1" /><path clip-path="url(#clip370)" d="M1929.89 1529.7 Q1926.74 1529.7 1924.89 1531.86 Q1923.06 1534.01 1923.06 1537.76 Q1923.06 1541.49 1924.89 1543.66 Q1926.74 1545.82 1929.89 1545.82 Q1933.03 1545.82 1934.86 1543.66 Q1936.71 1541.49 1936.71 1537.76 Q1936.71 1534.01 1934.86 1531.86 Q1933.03 1529.7 1929.89 1529.7 M1939.17 1515.05 L1939.17 1519.31 Q1937.41 1518.48 1935.6 1518.04 Q1933.82 1517.6 1932.06 1517.6 Q1927.43 1517.6 1924.98 1520.72 Q1922.55 1523.85 1922.2 1530.17 Q1923.57 1528.15 1925.63 1527.09 Q1927.69 1526 1930.16 1526 Q1935.37 1526 1938.38 1529.17 Q1941.41 1532.32 1941.41 1537.76 Q1941.41 1543.08 1938.27 1546.3 Q1935.12 1549.52 1929.89 1549.52 Q1923.89 1549.52 1920.72 1544.94 Q1917.55 1540.33 1917.55 1531.6 Q1917.55 1523.41 1921.44 1518.55 Q1925.33 1513.66 1931.88 1513.66 Q1933.64 1513.66 1935.42 1514.01 Q1937.22 1514.36 1939.17 1515.05 Z" fill="#000000" fill-rule="nonzero" fill-opacity="1" /><path clip-path="url(#clip370)" d="M1959.47 1517.37 Q1955.86 1517.37 1954.03 1520.93 Q1952.22 1524.47 1952.22 1531.6 Q1952.22 1538.71 1954.03 1542.27 Q1955.86 1545.82 1959.47 1545.82 Q1963.1 1545.82 1964.91 1542.27 Q1966.74 1538.71 1966.74 1531.6 Q1966.74 1524.47 1964.91 1520.93 Q1963.1 1517.37 1959.47 1517.37 M1959.47 1513.66 Q1965.28 1513.66 1968.33 1518.27 Q1971.41 1522.85 1971.41 1531.6 Q1971.41 1540.33 1968.33 1544.94 Q1965.28 1549.52 1959.47 1549.52 Q1953.66 1549.52 1950.58 1544.94 Q1947.52 1540.33 1947.52 1531.6 Q1947.52 1522.85 1950.58 1518.27 Q1953.66 1513.66 1959.47 1513.66 Z" fill="#000000" fill-rule="nonzero" fill-opacity="1" /><path clip-path="url(#clip370)" d="M1990.21 1529.7 Q1987.06 1529.7 1985.21 1531.86 Q1983.38 1534.01 1983.38 1537.76 Q1983.38 1541.49 1985.21 1543.66 Q1987.06 1545.82 1990.21 1545.82 Q1993.36 1545.82 1995.19 1543.66 Q1997.04 1541.49 1997.04 1537.76 Q1997.04 1534.01 1995.19 1531.86 Q1993.36 1529.7 1990.21 1529.7 M1999.49 1515.05 L1999.49 1519.31 Q1997.73 1518.48 1995.93 1518.04 Q1994.15 1517.6 1992.39 1517.6 Q1987.76 1517.6 1985.3 1520.72 Q1982.87 1523.85 1982.52 1530.17 Q1983.89 1528.15 1985.95 1527.09 Q1988.01 1526 1990.49 1526 Q1995.7 1526 1998.71 1529.17 Q2001.74 1532.32 2001.74 1537.76 Q2001.74 1543.08 1998.59 1546.3 Q1995.44 1549.52 1990.21 1549.52 Q1984.21 1549.52 1981.04 1544.94 Q1977.87 1540.33 1977.87 1531.6 Q1977.87 1523.41 1981.76 1518.55 Q1985.65 1513.66 1992.2 1513.66 Q1993.96 1513.66 1995.74 1514.01 Q1997.55 1514.36 1999.49 1515.05 Z" fill="#000000" fill-rule="nonzero" fill-opacity="1" /><path clip-path="url(#clip370)" d="M2019.79 1517.37 Q2016.18 1517.37 2014.35 1520.93 Q2012.55 1524.47 2012.55 1531.6 Q2012.55 1538.71 2014.35 1542.27 Q2016.18 1545.82 2019.79 1545.82 Q2023.43 1545.82 2025.23 1542.27 Q2027.06 1538.71 2027.06 1531.6 Q2027.06 1524.47 2025.23 1520.93 Q2023.43 1517.37 2019.79 1517.37 M2019.79 1513.66 Q2025.6 1513.66 2028.66 1518.27 Q2031.74 1522.85 2031.74 1531.6 Q2031.74 1540.33 2028.66 1544.94 Q2025.6 1549.52 2019.79 1549.52 Q2013.98 1549.52 2010.9 1544.94 Q2007.85 1540.33 2007.85 1531.6 Q2007.85 1522.85 2010.9 1518.27 Q2013.98 1513.66 2019.79 1513.66 Z" fill="#000000" fill-rule="nonzero" fill-opacity="1" /><path clip-path="url(#clip370)" d="M2049.95 1517.37 Q2046.34 1517.37 2044.52 1520.93 Q2042.71 1524.47 2042.71 1531.6 Q2042.71 1538.71 2044.52 1542.27 Q2046.34 1545.82 2049.95 1545.82 Q2053.59 1545.82 2055.39 1542.27 Q2057.22 1538.71 2057.22 1531.6 Q2057.22 1524.47 2055.39 1520.93 Q2053.59 1517.37 2049.95 1517.37 M2049.95 1513.66 Q2055.77 1513.66 2058.82 1518.27 Q2061.9 1522.85 2061.9 1531.6 Q2061.9 1540.33 2058.82 1544.94 Q2055.77 1549.52 2049.95 1549.52 Q2044.14 1549.52 2041.07 1544.94 Q2038.01 1540.33 2038.01 1531.6 Q2038.01 1522.85 2041.07 1518.27 Q2044.14 1513.66 2049.95 1513.66 Z" fill="#000000" fill-rule="nonzero" fill-opacity="1" /><polyline clip-path="url(#clip370)" style="stroke:#000000; stroke-linecap:round; stroke-linejoin:round; stroke-width:4; stroke-opacity:1; fill:none" points="169.121,1486.45 169.121,847.244 "/>
<polyline clip-path="url(#clip370)" style="stroke:#000000; stroke-linecap:round; stroke-linejoin:round; stroke-width:4; stroke-opacity:1; fill:none" points="169.121,1486.45 188.019,1486.45 "/>
<polyline clip-path="url(#clip370)" style="stroke:#000000; stroke-linecap:round; stroke-linejoin:round; stroke-width:4; stroke-opacity:1; fill:none" points="169.121,1306.9 188.019,1306.9 "/>
<polyline clip-path="url(#clip370)" style="stroke:#000000; stroke-linecap:round; stroke-linejoin:round; stroke-width:4; stroke-opacity:1; fill:none" points="169.121,1127.34 188.019,1127.34 "/>
<polyline clip-path="url(#clip370)" style="stroke:#000000; stroke-linecap:round; stroke-linejoin:round; stroke-width:4; stroke-opacity:1; fill:none" points="169.121,947.793 188.019,947.793 "/>
<path clip-path="url(#clip370)" d="M121.177 1472.25 Q117.566 1472.25 115.737 1475.81 Q113.932 1479.35 113.932 1486.48 Q113.932 1493.59 115.737 1497.15 Q117.566 1500.7 121.177 1500.7 Q124.811 1500.7 126.617 1497.15 Q128.445 1493.59 128.445 1486.48 Q128.445 1479.35 126.617 1475.81 Q124.811 1472.25 121.177 1472.25 M121.177 1468.54 Q126.987 1468.54 130.043 1473.15 Q133.121 1477.73 133.121 1486.48 Q133.121 1495.21 130.043 1499.82 Q126.987 1504.4 121.177 1504.4 Q115.367 1504.4 112.288 1499.82 Q109.233 1495.21 109.233 1486.48 Q109.233 1477.73 112.288 1473.15 Q115.367 1468.54 121.177 1468.54 Z" fill="#000000" fill-rule="nonzero" fill-opacity="1" /><path clip-path="url(#clip370)" d="M81.0614 1289.62 L99.4178 1289.62 L99.4178 1293.55 L85.3438 1293.55 L85.3438 1302.02 Q86.3623 1301.68 87.3808 1301.51 Q88.3993 1301.33 89.4178 1301.33 Q95.2049 1301.33 98.5845 1304.5 Q101.964 1307.67 101.964 1313.09 Q101.964 1318.67 98.4919 1321.77 Q95.0197 1324.85 88.7003 1324.85 Q86.5243 1324.85 84.2558 1324.48 Q82.0105 1324.11 79.6031 1323.37 L79.6031 1318.67 Q81.6864 1319.8 83.9086 1320.36 Q86.1308 1320.91 88.6077 1320.91 Q92.6123 1320.91 94.9502 1318.81 Q97.2882 1316.7 97.2882 1313.09 Q97.2882 1309.48 94.9502 1307.37 Q92.6123 1305.26 88.6077 1305.26 Q86.7327 1305.26 84.8577 1305.68 Q83.0058 1306.1 81.0614 1306.98 L81.0614 1289.62 Z" fill="#000000" fill-rule="nonzero" fill-opacity="1" /><path clip-path="url(#clip370)" d="M121.177 1292.69 Q117.566 1292.69 115.737 1296.26 Q113.932 1299.8 113.932 1306.93 Q113.932 1314.04 115.737 1317.6 Q117.566 1321.14 121.177 1321.14 Q124.811 1321.14 126.617 1317.6 Q128.445 1314.04 128.445 1306.93 Q128.445 1299.8 126.617 1296.26 Q124.811 1292.69 121.177 1292.69 M121.177 1288.99 Q126.987 1288.99 130.043 1293.6 Q133.121 1298.18 133.121 1306.93 Q133.121 1315.66 130.043 1320.26 Q126.987 1324.85 121.177 1324.85 Q115.367 1324.85 112.288 1320.26 Q109.233 1315.66 109.233 1306.93 Q109.233 1298.18 112.288 1293.6 Q115.367 1288.99 121.177 1288.99 Z" fill="#000000" fill-rule="nonzero" fill-opacity="1" /><path clip-path="url(#clip370)" d="M51.6634 1140.69 L59.3023 1140.69 L59.3023 1114.32 L50.9921 1115.99 L50.9921 1111.73 L59.256 1110.06 L63.9319 1110.06 L63.9319 1140.69 L71.5707 1140.69 L71.5707 1144.62 L51.6634 1144.62 L51.6634 1140.69 Z" fill="#000000" fill-rule="nonzero" fill-opacity="1" /><path clip-path="url(#clip370)" d="M91.0151 1113.14 Q87.404 1113.14 85.5753 1116.71 Q83.7697 1120.25 83.7697 1127.38 Q83.7697 1134.49 85.5753 1138.05 Q87.404 1141.59 91.0151 1141.59 Q94.6493 1141.59 96.4548 1138.05 Q98.2835 1134.49 98.2835 1127.38 Q98.2835 1120.25 96.4548 1116.71 Q94.6493 1113.14 91.0151 1113.14 M91.0151 1109.44 Q96.8252 1109.44 99.8808 1114.05 Q102.959 1118.63 102.959 1127.38 Q102.959 1136.11 99.8808 1140.71 Q96.8252 1145.3 91.0151 1145.3 Q85.2049 1145.3 82.1262 1140.71 Q79.0707 1136.11 79.0707 1127.38 Q79.0707 1118.63 82.1262 1114.05 Q85.2049 1109.44 91.0151 1109.44 Z" fill="#000000" fill-rule="nonzero" fill-opacity="1" /><path clip-path="url(#clip370)" d="M121.177 1113.14 Q117.566 1113.14 115.737 1116.71 Q113.932 1120.25 113.932 1127.38 Q113.932 1134.49 115.737 1138.05 Q117.566 1141.59 121.177 1141.59 Q124.811 1141.59 126.617 1138.05 Q128.445 1134.49 128.445 1127.38 Q128.445 1120.25 126.617 1116.71 Q124.811 1113.14 121.177 1113.14 M121.177 1109.44 Q126.987 1109.44 130.043 1114.05 Q133.121 1118.63 133.121 1127.38 Q133.121 1136.11 130.043 1140.71 Q126.987 1145.3 121.177 1145.3 Q115.367 1145.3 112.288 1140.71 Q109.233 1136.11 109.233 1127.38 Q109.233 1118.63 112.288 1114.05 Q115.367 1109.44 121.177 1109.44 Z" fill="#000000" fill-rule="nonzero" fill-opacity="1" /><path clip-path="url(#clip370)" d="M51.6634 961.138 L59.3023 961.138 L59.3023 934.772 L50.9921 936.439 L50.9921 932.18 L59.256 930.513 L63.9319 930.513 L63.9319 961.138 L71.5707 961.138 L71.5707 965.073 L51.6634 965.073 L51.6634 961.138 Z" fill="#000000" fill-rule="nonzero" fill-opacity="1" /><path clip-path="url(#clip370)" d="M81.0614 930.513 L99.4178 930.513 L99.4178 934.448 L85.3438 934.448 L85.3438 942.92 Q86.3623 942.573 87.3808 942.411 Q88.3993 942.226 89.4178 942.226 Q95.2049 942.226 98.5845 945.397 Q101.964 948.568 101.964 953.985 Q101.964 959.564 98.4919 962.666 Q95.0197 965.744 88.7003 965.744 Q86.5243 965.744 84.2558 965.374 Q82.0105 965.004 79.6031 964.263 L79.6031 959.564 Q81.6864 960.698 83.9086 961.254 Q86.1308 961.809 88.6077 961.809 Q92.6123 961.809 94.9502 959.703 Q97.2882 957.596 97.2882 953.985 Q97.2882 950.374 94.9502 948.268 Q92.6123 946.161 88.6077 946.161 Q86.7327 946.161 84.8577 946.578 Q83.0058 946.994 81.0614 947.874 L81.0614 930.513 Z" fill="#000000" fill-rule="nonzero" fill-opacity="1" /><path clip-path="url(#clip370)" d="M121.177 933.592 Q117.566 933.592 115.737 937.156 Q113.932 940.698 113.932 947.828 Q113.932 954.934 115.737 958.499 Q117.566 962.041 121.177 962.041 Q124.811 962.041 126.617 958.499 Q128.445 954.934 128.445 947.828 Q128.445 940.698 126.617 937.156 Q124.811 933.592 121.177 933.592 M121.177 929.888 Q126.987 929.888 130.043 934.494 Q133.121 939.078 133.121 947.828 Q133.121 956.555 130.043 961.161 Q126.987 965.744 121.177 965.744 Q115.367 965.744 112.288 961.161 Q109.233 956.555 109.233 947.828 Q109.233 939.078 112.288 934.494 Q115.367 929.888 121.177 929.888 Z" fill="#000000" fill-rule="nonzero" fill-opacity="1" /><path clip-path="url(#clip373)" d="M289.225 1482.86 L289.225 1486.45 L410.689 1486.45 L410.689 1482.86 L289.225 1482.86 L289.225 1482.86  Z" fill="#009af9" fill-rule="evenodd" fill-opacity="1"/>
<polyline clip-path="url(#clip373)" style="stroke:#000000; stroke-linecap:round; stroke-linejoin:round; stroke-width:4; stroke-opacity:1; fill:none" points="289.225,1482.86 289.225,1486.45 410.689,1486.45 410.689,1482.86 289.225,1482.86 "/>
<path clip-path="url(#clip373)" d="M410.689 1468.49 L410.689 1486.45 L532.153 1486.45 L532.153 1468.49 L410.689 1468.49 L410.689 1468.49  Z" fill="#009af9" fill-rule="evenodd" fill-opacity="1"/>
<polyline clip-path="url(#clip373)" style="stroke:#000000; stroke-linecap:round; stroke-linejoin:round; stroke-width:4; stroke-opacity:1; fill:none" points="410.689,1468.49 410.689,1486.45 532.153,1486.45 532.153,1468.49 410.689,1468.49 "/>
<path clip-path="url(#clip373)" d="M532.153 1457.72 L532.153 1486.45 L653.618 1486.45 L653.618 1457.72 L532.153 1457.72 L532.153 1457.72  Z" fill="#009af9" fill-rule="evenodd" fill-opacity="1"/>
<polyline clip-path="url(#clip373)" style="stroke:#000000; stroke-linecap:round; stroke-linejoin:round; stroke-width:4; stroke-opacity:1; fill:none" points="532.153,1457.72 532.153,1486.45 653.618,1486.45 653.618,1457.72 532.153,1457.72 "/>
<path clip-path="url(#clip373)" d="M653.618 1382.31 L653.618 1486.45 L775.082 1486.45 L775.082 1382.31 L653.618 1382.31 L653.618 1382.31  Z" fill="#009af9" fill-rule="evenodd" fill-opacity="1"/>
<polyline clip-path="url(#clip373)" style="stroke:#000000; stroke-linecap:round; stroke-linejoin:round; stroke-width:4; stroke-opacity:1; fill:none" points="653.618,1382.31 653.618,1486.45 775.082,1486.45 775.082,1382.31 653.618,1382.31 "/>
<path clip-path="url(#clip373)" d="M775.082 1242.26 L775.082 1486.45 L896.546 1486.45 L896.546 1242.26 L775.082 1242.26 L775.082 1242.26  Z" fill="#009af9" fill-rule="evenodd" fill-opacity="1"/>
<polyline clip-path="url(#clip373)" style="stroke:#000000; stroke-linecap:round; stroke-linejoin:round; stroke-width:4; stroke-opacity:1; fill:none" points="775.082,1242.26 775.082,1486.45 896.546,1486.45 896.546,1242.26 775.082,1242.26 "/>
<path clip-path="url(#clip373)" d="M896.546 1174.03 L896.546 1486.45 L1018.01 1486.45 L1018.01 1174.03 L896.546 1174.03 L896.546 1174.03  Z" fill="#009af9" fill-rule="evenodd" fill-opacity="1"/>
<polyline clip-path="url(#clip373)" style="stroke:#000000; stroke-linecap:round; stroke-linejoin:round; stroke-width:4; stroke-opacity:1; fill:none" points="896.546,1174.03 896.546,1486.45 1018.01,1486.45 1018.01,1174.03 896.546,1174.03 "/>
<path clip-path="url(#clip373)" d="M1018.01 1001.66 L1018.01 1486.45 L1139.47 1486.45 L1139.47 1001.66 L1018.01 1001.66 L1018.01 1001.66  Z" fill="#009af9" fill-rule="evenodd" fill-opacity="1"/>
<polyline clip-path="url(#clip373)" style="stroke:#000000; stroke-linecap:round; stroke-linejoin:round; stroke-width:4; stroke-opacity:1; fill:none" points="1018.01,1001.66 1018.01,1486.45 1139.47,1486.45 1139.47,1001.66 1018.01,1001.66 "/>
<path clip-path="url(#clip373)" d="M1139.47 947.793 L1139.47 1486.45 L1260.94 1486.45 L1260.94 947.793 L1139.47 947.793 L1139.47 947.793  Z" fill="#009af9" fill-rule="evenodd" fill-opacity="1"/>
<polyline clip-path="url(#clip373)" style="stroke:#000000; stroke-linecap:round; stroke-linejoin:round; stroke-width:4; stroke-opacity:1; fill:none" points="1139.47,947.793 1139.47,1486.45 1260.94,1486.45 1260.94,947.793 1139.47,947.793 "/>
<path clip-path="url(#clip373)" d="M1260.94 847.244 L1260.94 1486.45 L1382.4 1486.45 L1382.4 847.244 L1260.94 847.244 L1260.94 847.244  Z" fill="#009af9" fill-rule="evenodd" fill-opacity="1"/>
<polyline clip-path="url(#clip373)" style="stroke:#000000; stroke-linecap:round; stroke-linejoin:round; stroke-width:4; stroke-opacity:1; fill:none" points="1260.94,847.244 1260.94,1486.45 1382.4,1486.45 1382.4,847.244 1260.94,847.244 "/>
<path clip-path="url(#clip373)" d="M1382.4 972.93 L1382.4 1486.45 L1503.87 1486.45 L1503.87 972.93 L1382.4 972.93 L1382.4 972.93  Z" fill="#009af9" fill-rule="evenodd" fill-opacity="1"/>
<polyline clip-path="url(#clip373)" style="stroke:#000000; stroke-linecap:round; stroke-linejoin:round; stroke-width:4; stroke-opacity:1; fill:none" points="1382.4,972.93 1382.4,1486.45 1503.87,1486.45 1503.87,972.93 1382.4,972.93 "/>
<path clip-path="url(#clip373)" d="M1503.87 1174.03 L1503.87 1486.45 L1625.33 1486.45 L1625.33 1174.03 L1503.87 1174.03 L1503.87 1174.03  Z" fill="#009af9" fill-rule="evenodd" fill-opacity="1"/>
<polyline clip-path="url(#clip373)" style="stroke:#000000; stroke-linecap:round; stroke-linejoin:round; stroke-width:4; stroke-opacity:1; fill:none" points="1503.87,1174.03 1503.87,1486.45 1625.33,1486.45 1625.33,1174.03 1503.87,1174.03 "/>
<path clip-path="url(#clip373)" d="M1625.33 1278.17 L1625.33 1486.45 L1746.8 1486.45 L1746.8 1278.17 L1625.33 1278.17 L1625.33 1278.17  Z" fill="#009af9" fill-rule="evenodd" fill-opacity="1"/>
<polyline clip-path="url(#clip373)" style="stroke:#000000; stroke-linecap:round; stroke-linejoin:round; stroke-width:4; stroke-opacity:1; fill:none" points="1625.33,1278.17 1625.33,1486.45 1746.8,1486.45 1746.8,1278.17 1625.33,1278.17 "/>
<path clip-path="url(#clip373)" d="M1746.8 1353.58 L1746.8 1486.45 L1868.26 1486.45 L1868.26 1353.58 L1746.8 1353.58 L1746.8 1353.58  Z" fill="#009af9" fill-rule="evenodd" fill-opacity="1"/>
<polyline clip-path="url(#clip373)" style="stroke:#000000; stroke-linecap:round; stroke-linejoin:round; stroke-width:4; stroke-opacity:1; fill:none" points="1746.8,1353.58 1746.8,1486.45 1868.26,1486.45 1868.26,1353.58 1746.8,1353.58 "/>
<path clip-path="url(#clip373)" d="M1868.26 1457.72 L1868.26 1486.45 L1989.72 1486.45 L1989.72 1457.72 L1868.26 1457.72 L1868.26 1457.72  Z" fill="#009af9" fill-rule="evenodd" fill-opacity="1"/>
<polyline clip-path="url(#clip373)" style="stroke:#000000; stroke-linecap:round; stroke-linejoin:round; stroke-width:4; stroke-opacity:1; fill:none" points="1868.26,1457.72 1868.26,1486.45 1989.72,1486.45 1989.72,1457.72 1868.26,1457.72 "/>
<path clip-path="url(#clip373)" d="M1989.72 1479.27 L1989.72 1486.45 L2111.19 1486.45 L2111.19 1479.27 L1989.72 1479.27 L1989.72 1479.27  Z" fill="#009af9" fill-rule="evenodd" fill-opacity="1"/>
<polyline clip-path="url(#clip373)" style="stroke:#000000; stroke-linecap:round; stroke-linejoin:round; stroke-width:4; stroke-opacity:1; fill:none" points="1989.72,1479.27 1989.72,1486.45 2111.19,1486.45 2111.19,1479.27 1989.72,1479.27 "/>
<path clip-path="url(#clip373)" d="M2111.19 1472.08 L2111.19 1486.45 L2232.65 1486.45 L2232.65 1472.08 L2111.19 1472.08 L2111.19 1472.08  Z" fill="#009af9" fill-rule="evenodd" fill-opacity="1"/>
<polyline clip-path="url(#clip373)" style="stroke:#000000; stroke-linecap:round; stroke-linejoin:round; stroke-width:4; stroke-opacity:1; fill:none" points="2111.19,1472.08 2111.19,1486.45 2232.65,1486.45 2232.65,1472.08 2111.19,1472.08 "/>
<circle clip-path="url(#clip373)" style="fill:#009af9; stroke:none; fill-opacity:0" cx="349.957" cy="1482.86" r="2"/>
<circle clip-path="url(#clip373)" style="fill:#009af9; stroke:none; fill-opacity:0" cx="471.421" cy="1468.49" r="2"/>
<circle clip-path="url(#clip373)" style="fill:#009af9; stroke:none; fill-opacity:0" cx="592.886" cy="1457.72" r="2"/>
<circle clip-path="url(#clip373)" style="fill:#009af9; stroke:none; fill-opacity:0" cx="714.35" cy="1382.31" r="2"/>
<circle clip-path="url(#clip373)" style="fill:#009af9; stroke:none; fill-opacity:0" cx="835.814" cy="1242.26" r="2"/>
<circle clip-path="url(#clip373)" style="fill:#009af9; stroke:none; fill-opacity:0" cx="957.278" cy="1174.03" r="2"/>
<circle clip-path="url(#clip373)" style="fill:#009af9; stroke:none; fill-opacity:0" cx="1078.74" cy="1001.66" r="2"/>
<circle clip-path="url(#clip373)" style="fill:#009af9; stroke:none; fill-opacity:0" cx="1200.21" cy="947.793" r="2"/>
<circle clip-path="url(#clip373)" style="fill:#009af9; stroke:none; fill-opacity:0" cx="1321.67" cy="847.244" r="2"/>
<circle clip-path="url(#clip373)" style="fill:#009af9; stroke:none; fill-opacity:0" cx="1443.13" cy="972.93" r="2"/>
<circle clip-path="url(#clip373)" style="fill:#009af9; stroke:none; fill-opacity:0" cx="1564.6" cy="1174.03" r="2"/>
<circle clip-path="url(#clip373)" style="fill:#009af9; stroke:none; fill-opacity:0" cx="1686.06" cy="1278.17" r="2"/>
<circle clip-path="url(#clip373)" style="fill:#009af9; stroke:none; fill-opacity:0" cx="1807.53" cy="1353.58" r="2"/>
<circle clip-path="url(#clip373)" style="fill:#009af9; stroke:none; fill-opacity:0" cx="1928.99" cy="1457.72" r="2"/>
<circle clip-path="url(#clip373)" style="fill:#009af9; stroke:none; fill-opacity:0" cx="2050.46" cy="1479.27" r="2"/>
<circle clip-path="url(#clip373)" style="fill:#009af9; stroke:none; fill-opacity:0" cx="2171.92" cy="1472.08" r="2"/>
<path clip-path="url(#clip370)" d="M2037.09 972.231 L2279.97 972.231 L2279.97 868.551 L2037.09 868.551  Z" fill="#ffffff" fill-rule="evenodd" fill-opacity="1"/>
<polyline clip-path="url(#clip370)" style="stroke:#000000; stroke-linecap:round; stroke-linejoin:round; stroke-width:4; stroke-opacity:1; fill:none" points="2037.09,972.231 2279.97,972.231 2279.97,868.551 2037.09,868.551 2037.09,972.231 "/>
<path clip-path="url(#clip370)" d="M2061.35 941.127 L2206.93 941.127 L2206.93 899.655 L2061.35 899.655 L2061.35 941.127  Z" fill="#009af9" fill-rule="evenodd" fill-opacity="1"/>
<polyline clip-path="url(#clip370)" style="stroke:#000000; stroke-linecap:round; stroke-linejoin:round; stroke-width:4; stroke-opacity:1; fill:none" points="2061.35,941.127 2206.93,941.127 2206.93,899.655 2061.35,899.655 2061.35,941.127 "/>
<path clip-path="url(#clip370)" d="M2235.87 921.166 L2235.87 933.828 L2243.37 933.828 Q2247.14 933.828 2248.95 932.277 Q2250.77 930.703 2250.77 927.486 Q2250.77 924.245 2248.95 922.717 Q2247.14 921.166 2243.37 921.166 L2235.87 921.166 M2235.87 906.953 L2235.87 917.37 L2242.79 917.37 Q2246.21 917.37 2247.88 916.097 Q2249.57 914.801 2249.57 912.162 Q2249.57 909.546 2247.88 908.25 Q2246.21 906.953 2242.79 906.953 L2235.87 906.953 M2231.19 903.111 L2243.14 903.111 Q2248.48 903.111 2251.38 905.333 Q2254.27 907.555 2254.27 911.653 Q2254.27 914.824 2252.79 916.699 Q2251.31 918.574 2248.44 919.037 Q2251.89 919.777 2253.78 922.139 Q2255.71 924.477 2255.71 927.995 Q2255.71 932.625 2252.56 935.148 Q2249.41 937.671 2243.6 937.671 L2231.19 937.671 L2231.19 903.111 Z" fill="#000000" fill-rule="nonzero" fill-opacity="1" /></svg>
