<?xml version="1.0" encoding="utf-8"?>
<svg xmlns="http://www.w3.org/2000/svg" xmlns:xlink="http://www.w3.org/1999/xlink" width="600" height="400" viewBox="0 0 2400 1600">
<defs>
  <clipPath id="clip430">
    <rect x="0" y="0" width="2400" height="1600"/>
  </clipPath>
</defs>
<path clip-path="url(#clip430)" d="M0 1600 L2400 1600 L2400 0 L0 0  Z" fill="#ffffff" fill-rule="evenodd" fill-opacity="1"/>
<defs>
  <clipPath id="clip431">
    <rect x="480" y="0" width="1681" height="1600"/>
  </clipPath>
</defs>
<path clip-path="url(#clip430)" d="M169.121 1423.18 L2352.76 1423.18 L2352.76 47.2441 L169.121 47.2441  Z" fill="#ffffff" fill-rule="evenodd" fill-opacity="1"/>
<defs>
  <clipPath id="clip432">
    <rect x="169" y="47" width="2185" height="1377"/>
  </clipPath>
</defs>
<polyline clip-path="url(#clip432)" style="stroke:#000000; stroke-linecap:round; stroke-linejoin:round; stroke-width:2; stroke-opacity:0.1; fill:none" points="208.249,1423.18 208.249,47.2441 "/>
<polyline clip-path="url(#clip432)" style="stroke:#000000; stroke-linecap:round; stroke-linejoin:round; stroke-width:2; stroke-opacity:0.1; fill:none" points="613.13,1423.18 613.13,47.2441 "/>
<polyline clip-path="url(#clip432)" style="stroke:#000000; stroke-linecap:round; stroke-linejoin:round; stroke-width:2; stroke-opacity:0.1; fill:none" points="1018.01,1423.18 1018.01,47.2441 "/>
<polyline clip-path="url(#clip432)" style="stroke:#000000; stroke-linecap:round; stroke-linejoin:round; stroke-width:2; stroke-opacity:0.1; fill:none" points="1422.89,1423.18 1422.89,47.2441 "/>
<polyline clip-path="url(#clip432)" style="stroke:#000000; stroke-linecap:round; stroke-linejoin:round; stroke-width:2; stroke-opacity:0.1; fill:none" points="1827.77,1423.18 1827.77,47.2441 "/>
<polyline clip-path="url(#clip432)" style="stroke:#000000; stroke-linecap:round; stroke-linejoin:round; stroke-width:2; stroke-opacity:0.1; fill:none" points="2232.65,1423.18 2232.65,47.2441 "/>
<polyline clip-path="url(#clip432)" style="stroke:#000000; stroke-linecap:round; stroke-linejoin:round; stroke-width:2; stroke-opacity:0.1; fill:none" points="169.121,1423.18 2352.76,1423.18 "/>
<polyline clip-path="url(#clip432)" style="stroke:#000000; stroke-linecap:round; stroke-linejoin:round; stroke-width:2; stroke-opacity:0.1; fill:none" points="169.121,1126.64 2352.76,1126.64 "/>
<polyline clip-path="url(#clip432)" style="stroke:#000000; stroke-linecap:round; stroke-linejoin:round; stroke-width:2; stroke-opacity:0.1; fill:none" points="169.121,830.104 2352.76,830.104 "/>
<polyline clip-path="url(#clip432)" style="stroke:#000000; stroke-linecap:round; stroke-linejoin:round; stroke-width:2; stroke-opacity:0.1; fill:none" points="169.121,533.566 2352.76,533.566 "/>
<polyline clip-path="url(#clip432)" style="stroke:#000000; stroke-linecap:round; stroke-linejoin:round; stroke-width:2; stroke-opacity:0.1; fill:none" points="169.121,237.028 2352.76,237.028 "/>
<polyline clip-path="url(#clip430)" style="stroke:#000000; stroke-linecap:round; stroke-linejoin:round; stroke-width:4; stroke-opacity:1; fill:none" points="169.121,1423.18 2352.76,1423.18 "/>
<polyline clip-path="url(#clip430)" style="stroke:#000000; stroke-linecap:round; stroke-linejoin:round; stroke-width:4; stroke-opacity:1; fill:none" points="208.249,1423.18 208.249,1404.28 "/>
<polyline clip-path="url(#clip430)" style="stroke:#000000; stroke-linecap:round; stroke-linejoin:round; stroke-width:4; stroke-opacity:1; fill:none" points="613.13,1423.18 613.13,1404.28 "/>
<polyline clip-path="url(#clip430)" style="stroke:#000000; stroke-linecap:round; stroke-linejoin:round; stroke-width:4; stroke-opacity:1; fill:none" points="1018.01,1423.18 1018.01,1404.28 "/>
<polyline clip-path="url(#clip430)" style="stroke:#000000; stroke-linecap:round; stroke-linejoin:round; stroke-width:4; stroke-opacity:1; fill:none" points="1422.89,1423.18 1422.89,1404.28 "/>
<polyline clip-path="url(#clip430)" style="stroke:#000000; stroke-linecap:round; stroke-linejoin:round; stroke-width:4; stroke-opacity:1; fill:none" points="1827.77,1423.18 1827.77,1404.28 "/>
<polyline clip-path="url(#clip430)" style="stroke:#000000; stroke-linecap:round; stroke-linejoin:round; stroke-width:4; stroke-opacity:1; fill:none" points="2232.65,1423.18 2232.65,1404.28 "/>
<path clip-path="url(#clip430)" d="M170.552 1454.1 Q166.941 1454.1 165.113 1457.66 Q163.307 1461.2 163.307 1468.33 Q163.307 1475.44 165.113 1479.01 Q166.941 1482.55 170.552 1482.55 Q174.187 1482.55 175.992 1479.01 Q177.821 1475.44 177.821 1468.33 Q177.821 1461.2 175.992 1457.66 Q174.187 1454.1 170.552 1454.1 M170.552 1450.39 Q176.363 1450.39 179.418 1455 Q182.497 1459.58 182.497 1468.33 Q182.497 1477.06 179.418 1481.67 Q176.363 1486.25 170.552 1486.25 Q164.742 1486.25 161.664 1481.67 Q158.608 1477.06 158.608 1468.33 Q158.608 1459.58 161.664 1455 Q164.742 1450.39 170.552 1450.39 Z" fill="#000000" fill-rule="nonzero" fill-opacity="1" /><path clip-path="url(#clip430)" d="M190.714 1479.7 L195.599 1479.7 L195.599 1485.58 L190.714 1485.58 L190.714 1479.7 Z" fill="#000000" fill-rule="nonzero" fill-opacity="1" /><path clip-path="url(#clip430)" d="M204.603 1451.02 L226.825 1451.02 L226.825 1453.01 L214.279 1485.58 L209.395 1485.58 L221.2 1454.96 L204.603 1454.96 L204.603 1451.02 Z" fill="#000000" fill-rule="nonzero" fill-opacity="1" /><path clip-path="url(#clip430)" d="M245.946 1454.1 Q242.334 1454.1 240.506 1457.66 Q238.7 1461.2 238.7 1468.33 Q238.7 1475.44 240.506 1479.01 Q242.334 1482.55 245.946 1482.55 Q249.58 1482.55 251.385 1479.01 Q253.214 1475.44 253.214 1468.33 Q253.214 1461.2 251.385 1457.66 Q249.58 1454.1 245.946 1454.1 M245.946 1450.39 Q251.756 1450.39 254.811 1455 Q257.89 1459.58 257.89 1468.33 Q257.89 1477.06 254.811 1481.67 Q251.756 1486.25 245.946 1486.25 Q240.135 1486.25 237.057 1481.67 Q234.001 1477.06 234.001 1468.33 Q234.001 1459.58 237.057 1455 Q240.135 1450.39 245.946 1450.39 Z" fill="#000000" fill-rule="nonzero" fill-opacity="1" /><path clip-path="url(#clip430)" d="M575.931 1454.1 Q572.32 1454.1 570.491 1457.66 Q568.685 1461.2 568.685 1468.33 Q568.685 1475.44 570.491 1479.01 Q572.32 1482.55 575.931 1482.55 Q579.565 1482.55 581.371 1479.01 Q583.199 1475.44 583.199 1468.33 Q583.199 1461.2 581.371 1457.66 Q579.565 1454.1 575.931 1454.1 M575.931 1450.39 Q581.741 1450.39 584.796 1455 Q587.875 1459.58 587.875 1468.33 Q587.875 1477.06 584.796 1481.67 Q581.741 1486.25 575.931 1486.25 Q570.121 1486.25 567.042 1481.67 Q563.986 1477.06 563.986 1468.33 Q563.986 1459.58 567.042 1455 Q570.121 1450.39 575.931 1450.39 Z" fill="#000000" fill-rule="nonzero" fill-opacity="1" /><path clip-path="url(#clip430)" d="M596.093 1479.7 L600.977 1479.7 L600.977 1485.58 L596.093 1485.58 L596.093 1479.7 Z" fill="#000000" fill-rule="nonzero" fill-opacity="1" /><path clip-path="url(#clip430)" d="M609.981 1451.02 L632.204 1451.02 L632.204 1453.01 L619.657 1485.58 L614.773 1485.58 L626.579 1454.96 L609.981 1454.96 L609.981 1451.02 Z" fill="#000000" fill-rule="nonzero" fill-opacity="1" /><path clip-path="url(#clip430)" d="M641.37 1451.02 L659.727 1451.02 L659.727 1454.96 L645.653 1454.96 L645.653 1463.43 Q646.671 1463.08 647.69 1462.92 Q648.708 1462.73 649.727 1462.73 Q655.514 1462.73 658.893 1465.9 Q662.273 1469.08 662.273 1474.49 Q662.273 1480.07 658.801 1483.17 Q655.328 1486.25 649.009 1486.25 Q646.833 1486.25 644.565 1485.88 Q642.319 1485.51 639.912 1484.77 L639.912 1480.07 Q641.995 1481.2 644.217 1481.76 Q646.44 1482.32 648.916 1482.32 Q652.921 1482.32 655.259 1480.21 Q657.597 1478.1 657.597 1474.49 Q657.597 1470.88 655.259 1468.77 Q652.921 1466.67 648.916 1466.67 Q647.041 1466.67 645.166 1467.08 Q643.315 1467.5 641.37 1468.38 L641.37 1451.02 Z" fill="#000000" fill-rule="nonzero" fill-opacity="1" /><path clip-path="url(#clip430)" d="M980.314 1454.1 Q976.703 1454.1 974.874 1457.66 Q973.068 1461.2 973.068 1468.33 Q973.068 1475.44 974.874 1479.01 Q976.703 1482.55 980.314 1482.55 Q983.948 1482.55 985.753 1479.01 Q987.582 1475.44 987.582 1468.33 Q987.582 1461.2 985.753 1457.66 Q983.948 1454.1 980.314 1454.1 M980.314 1450.39 Q986.124 1450.39 989.179 1455 Q992.258 1459.58 992.258 1468.33 Q992.258 1477.06 989.179 1481.67 Q986.124 1486.25 980.314 1486.25 Q974.504 1486.25 971.425 1481.67 Q968.369 1477.06 968.369 1468.33 Q968.369 1459.58 971.425 1455 Q974.504 1450.39 980.314 1450.39 Z" fill="#000000" fill-rule="nonzero" fill-opacity="1" /><path clip-path="url(#clip430)" d="M1000.48 1479.7 L1005.36 1479.7 L1005.36 1485.58 L1000.48 1485.58 L1000.48 1479.7 Z" fill="#000000" fill-rule="nonzero" fill-opacity="1" /><path clip-path="url(#clip430)" d="M1025.54 1469.17 Q1022.21 1469.17 1020.29 1470.95 Q1018.39 1472.73 1018.39 1475.86 Q1018.39 1478.98 1020.29 1480.77 Q1022.21 1482.55 1025.54 1482.55 Q1028.88 1482.55 1030.8 1480.77 Q1032.72 1478.96 1032.72 1475.86 Q1032.72 1472.73 1030.8 1470.95 Q1028.9 1469.17 1025.54 1469.17 M1020.87 1467.18 Q1017.86 1466.44 1016.17 1464.38 Q1014.5 1462.32 1014.5 1459.35 Q1014.5 1455.21 1017.44 1452.8 Q1020.41 1450.39 1025.54 1450.39 Q1030.71 1450.39 1033.65 1452.8 Q1036.59 1455.21 1036.59 1459.35 Q1036.59 1462.32 1034.9 1464.38 Q1033.23 1466.44 1030.24 1467.18 Q1033.62 1467.96 1035.5 1470.26 Q1037.4 1472.55 1037.4 1475.86 Q1037.4 1480.88 1034.32 1483.57 Q1031.26 1486.25 1025.54 1486.25 Q1019.83 1486.25 1016.75 1483.57 Q1013.69 1480.88 1013.69 1475.86 Q1013.69 1472.55 1015.59 1470.26 Q1017.49 1467.96 1020.87 1467.18 M1019.16 1459.79 Q1019.16 1462.48 1020.82 1463.98 Q1022.51 1465.49 1025.54 1465.49 Q1028.55 1465.49 1030.24 1463.98 Q1031.96 1462.48 1031.96 1459.79 Q1031.96 1457.11 1030.24 1455.6 Q1028.55 1454.1 1025.54 1454.1 Q1022.51 1454.1 1020.82 1455.6 Q1019.16 1457.11 1019.16 1459.79 Z" fill="#000000" fill-rule="nonzero" fill-opacity="1" /><path clip-path="url(#clip430)" d="M1055.71 1454.1 Q1052.1 1454.1 1050.27 1457.66 Q1048.46 1461.2 1048.46 1468.33 Q1048.46 1475.44 1050.27 1479.01 Q1052.1 1482.55 1055.71 1482.55 Q1059.34 1482.55 1061.15 1479.01 Q1062.98 1475.44 1062.98 1468.33 Q1062.98 1461.2 1061.15 1457.66 Q1059.34 1454.1 1055.71 1454.1 M1055.71 1450.39 Q1061.52 1450.39 1064.57 1455 Q1067.65 1459.58 1067.65 1468.33 Q1067.65 1477.06 1064.57 1481.67 Q1061.52 1486.25 1055.71 1486.25 Q1049.9 1486.25 1046.82 1481.67 Q1043.76 1477.06 1043.76 1468.33 Q1043.76 1459.58 1046.82 1455 Q1049.9 1450.39 1055.71 1450.39 Z" fill="#000000" fill-rule="nonzero" fill-opacity="1" /><path clip-path="url(#clip430)" d="M1385.69 1454.1 Q1382.08 1454.1 1380.25 1457.66 Q1378.45 1461.2 1378.45 1468.33 Q1378.45 1475.44 1380.25 1479.01 Q1382.08 1482.55 1385.69 1482.55 Q1389.33 1482.55 1391.13 1479.01 Q1392.96 1475.44 1392.96 1468.33 Q1392.96 1461.2 1391.13 1457.66 Q1389.33 1454.1 1385.69 1454.1 M1385.69 1450.39 Q1391.5 1450.39 1394.56 1455 Q1397.64 1459.58 1397.64 1468.33 Q1397.64 1477.06 1394.56 1481.67 Q1391.5 1486.25 1385.69 1486.25 Q1379.88 1486.25 1376.8 1481.67 Q1373.75 1477.06 1373.75 1468.33 Q1373.75 1459.58 1376.8 1455 Q1379.88 1450.39 1385.69 1450.39 Z" fill="#000000" fill-rule="nonzero" fill-opacity="1" /><path clip-path="url(#clip430)" d="M1405.85 1479.7 L1410.74 1479.7 L1410.74 1485.58 L1405.85 1485.58 L1405.85 1479.7 Z" fill="#000000" fill-rule="nonzero" fill-opacity="1" /><path clip-path="url(#clip430)" d="M1430.92 1469.17 Q1427.59 1469.17 1425.67 1470.95 Q1423.77 1472.73 1423.77 1475.86 Q1423.77 1478.98 1425.67 1480.77 Q1427.59 1482.55 1430.92 1482.55 Q1434.26 1482.55 1436.18 1480.77 Q1438.1 1478.96 1438.1 1475.86 Q1438.1 1472.73 1436.18 1470.95 Q1434.28 1469.17 1430.92 1469.17 M1426.25 1467.18 Q1423.24 1466.44 1421.55 1464.38 Q1419.88 1462.32 1419.88 1459.35 Q1419.88 1455.21 1422.82 1452.8 Q1425.78 1450.39 1430.92 1450.39 Q1436.09 1450.39 1439.03 1452.8 Q1441.96 1455.21 1441.96 1459.35 Q1441.96 1462.32 1440.28 1464.38 Q1438.61 1466.44 1435.62 1467.18 Q1439 1467.96 1440.88 1470.26 Q1442.78 1472.55 1442.78 1475.86 Q1442.78 1480.88 1439.7 1483.57 Q1436.64 1486.25 1430.92 1486.25 Q1425.21 1486.25 1422.13 1483.57 Q1419.07 1480.88 1419.07 1475.86 Q1419.07 1472.55 1420.97 1470.26 Q1422.87 1467.96 1426.25 1467.18 M1424.53 1459.79 Q1424.53 1462.48 1426.2 1463.98 Q1427.89 1465.49 1430.92 1465.49 Q1433.93 1465.49 1435.62 1463.98 Q1437.34 1462.48 1437.34 1459.79 Q1437.34 1457.11 1435.62 1455.6 Q1433.93 1454.1 1430.92 1454.1 Q1427.89 1454.1 1426.2 1455.6 Q1424.53 1457.11 1424.53 1459.79 Z" fill="#000000" fill-rule="nonzero" fill-opacity="1" /><path clip-path="url(#clip430)" d="M1451.13 1451.02 L1469.49 1451.02 L1469.49 1454.96 L1455.41 1454.96 L1455.41 1463.43 Q1456.43 1463.08 1457.45 1462.92 Q1458.47 1462.73 1459.49 1462.73 Q1465.27 1462.73 1468.65 1465.9 Q1472.03 1469.08 1472.03 1474.49 Q1472.03 1480.07 1468.56 1483.17 Q1465.09 1486.25 1458.77 1486.25 Q1456.59 1486.25 1454.33 1485.88 Q1452.08 1485.51 1449.67 1484.77 L1449.67 1480.07 Q1451.76 1481.2 1453.98 1481.76 Q1456.2 1482.32 1458.68 1482.32 Q1462.68 1482.32 1465.02 1480.21 Q1467.36 1478.1 1467.36 1474.49 Q1467.36 1470.88 1465.02 1468.77 Q1462.68 1466.67 1458.68 1466.67 Q1456.8 1466.67 1454.93 1467.08 Q1453.08 1467.5 1451.13 1468.38 L1451.13 1451.02 Z" fill="#000000" fill-rule="nonzero" fill-opacity="1" /><path clip-path="url(#clip430)" d="M1790.07 1454.1 Q1786.46 1454.1 1784.64 1457.66 Q1782.83 1461.2 1782.83 1468.33 Q1782.83 1475.44 1784.64 1479.01 Q1786.46 1482.55 1790.07 1482.55 Q1793.71 1482.55 1795.51 1479.01 Q1797.34 1475.44 1797.34 1468.33 Q1797.34 1461.2 1795.51 1457.66 Q1793.71 1454.1 1790.07 1454.1 M1790.07 1450.39 Q1795.89 1450.39 1798.94 1455 Q1802.02 1459.58 1802.02 1468.33 Q1802.02 1477.06 1798.94 1481.67 Q1795.89 1486.25 1790.07 1486.25 Q1784.26 1486.25 1781.19 1481.67 Q1778.13 1477.06 1778.13 1468.33 Q1778.13 1459.58 1781.19 1455 Q1784.26 1450.39 1790.07 1450.39 Z" fill="#000000" fill-rule="nonzero" fill-opacity="1" /><path clip-path="url(#clip430)" d="M1810.24 1479.7 L1815.12 1479.7 L1815.12 1485.58 L1810.24 1485.58 L1810.24 1479.7 Z" fill="#000000" fill-rule="nonzero" fill-opacity="1" /><path clip-path="url(#clip430)" d="M1825.45 1484.86 L1825.45 1480.6 Q1827.2 1481.44 1829.01 1481.88 Q1830.82 1482.32 1832.55 1482.32 Q1837.18 1482.32 1839.61 1479.21 Q1842.07 1476.09 1842.41 1469.75 Q1841.07 1471.74 1839.01 1472.8 Q1836.95 1473.87 1834.45 1473.87 Q1829.26 1473.87 1826.23 1470.74 Q1823.22 1467.59 1823.22 1462.15 Q1823.22 1456.83 1826.37 1453.61 Q1829.52 1450.39 1834.75 1450.39 Q1840.75 1450.39 1843.89 1455 Q1847.07 1459.58 1847.07 1468.33 Q1847.07 1476.51 1843.18 1481.39 Q1839.31 1486.25 1832.76 1486.25 Q1831 1486.25 1829.2 1485.9 Q1827.39 1485.56 1825.45 1484.86 M1834.75 1470.21 Q1837.9 1470.21 1839.73 1468.06 Q1841.58 1465.9 1841.58 1462.15 Q1841.58 1458.43 1839.73 1456.27 Q1837.9 1454.1 1834.75 1454.1 Q1831.6 1454.1 1829.75 1456.27 Q1827.92 1458.43 1827.92 1462.15 Q1827.92 1465.9 1829.75 1468.06 Q1831.6 1470.21 1834.75 1470.21 Z" fill="#000000" fill-rule="nonzero" fill-opacity="1" /><path clip-path="url(#clip430)" d="M1865.47 1454.1 Q1861.86 1454.1 1860.03 1457.66 Q1858.22 1461.2 1858.22 1468.33 Q1858.22 1475.44 1860.03 1479.01 Q1861.86 1482.55 1865.47 1482.55 Q1869.1 1482.55 1870.91 1479.01 Q1872.74 1475.44 1872.74 1468.33 Q1872.74 1461.2 1870.91 1457.66 Q1869.1 1454.1 1865.47 1454.1 M1865.47 1450.39 Q1871.28 1450.39 1874.33 1455 Q1877.41 1459.58 1877.41 1468.33 Q1877.41 1477.06 1874.33 1481.67 Q1871.28 1486.25 1865.47 1486.25 Q1859.66 1486.25 1856.58 1481.67 Q1853.52 1477.06 1853.52 1468.33 Q1853.52 1459.58 1856.58 1455 Q1859.66 1450.39 1865.47 1450.39 Z" fill="#000000" fill-rule="nonzero" fill-opacity="1" /><path clip-path="url(#clip430)" d="M2195.45 1454.1 Q2191.84 1454.1 2190.01 1457.66 Q2188.21 1461.2 2188.21 1468.33 Q2188.21 1475.44 2190.01 1479.01 Q2191.84 1482.55 2195.45 1482.55 Q2199.09 1482.55 2200.89 1479.01 Q2202.72 1475.44 2202.72 1468.33 Q2202.72 1461.2 2200.89 1457.66 Q2199.09 1454.1 2195.45 1454.1 M2195.45 1450.39 Q2201.26 1450.39 2204.32 1455 Q2207.4 1459.58 2207.4 1468.33 Q2207.4 1477.06 2204.32 1481.67 Q2201.26 1486.25 2195.45 1486.25 Q2189.64 1486.25 2186.56 1481.67 Q2183.51 1477.06 2183.51 1468.33 Q2183.51 1459.58 2186.56 1455 Q2189.64 1450.39 2195.45 1450.39 Z" fill="#000000" fill-rule="nonzero" fill-opacity="1" /><path clip-path="url(#clip430)" d="M2215.62 1479.7 L2220.5 1479.7 L2220.5 1485.58 L2215.62 1485.58 L2215.62 1479.7 Z" fill="#000000" fill-rule="nonzero" fill-opacity="1" /><path clip-path="url(#clip430)" d="M2230.82 1484.86 L2230.82 1480.6 Q2232.58 1481.44 2234.39 1481.88 Q2236.19 1482.32 2237.93 1482.32 Q2242.56 1482.32 2244.99 1479.21 Q2247.44 1476.09 2247.79 1469.75 Q2246.45 1471.74 2244.39 1472.8 Q2242.33 1473.87 2239.83 1473.87 Q2234.64 1473.87 2231.61 1470.74 Q2228.6 1467.59 2228.6 1462.15 Q2228.6 1456.83 2231.75 1453.61 Q2234.9 1450.39 2240.13 1450.39 Q2246.12 1450.39 2249.27 1455 Q2252.44 1459.58 2252.44 1468.33 Q2252.44 1476.51 2248.55 1481.39 Q2244.69 1486.25 2238.14 1486.25 Q2236.38 1486.25 2234.57 1485.9 Q2232.77 1485.56 2230.82 1484.86 M2240.13 1470.21 Q2243.28 1470.21 2245.11 1468.06 Q2246.96 1465.9 2246.96 1462.15 Q2246.96 1458.43 2245.11 1456.27 Q2243.28 1454.1 2240.13 1454.1 Q2236.98 1454.1 2235.13 1456.27 Q2233.3 1458.43 2233.3 1462.15 Q2233.3 1465.9 2235.13 1468.06 Q2236.98 1470.21 2240.13 1470.21 Z" fill="#000000" fill-rule="nonzero" fill-opacity="1" /><path clip-path="url(#clip430)" d="M2260.89 1451.02 L2279.25 1451.02 L2279.25 1454.96 L2265.18 1454.96 L2265.18 1463.43 Q2266.19 1463.08 2267.21 1462.92 Q2268.23 1462.73 2269.25 1462.73 Q2275.04 1462.73 2278.42 1465.9 Q2281.8 1469.08 2281.8 1474.49 Q2281.8 1480.07 2278.32 1483.17 Q2274.85 1486.25 2268.53 1486.25 Q2266.36 1486.25 2264.09 1485.88 Q2261.84 1485.51 2259.43 1484.77 L2259.43 1480.07 Q2261.52 1481.2 2263.74 1481.76 Q2265.96 1482.32 2268.44 1482.32 Q2272.44 1482.32 2274.78 1480.21 Q2277.12 1478.1 2277.12 1474.49 Q2277.12 1470.88 2274.78 1468.77 Q2272.44 1466.67 2268.44 1466.67 Q2266.56 1466.67 2264.69 1467.08 Q2262.84 1467.5 2260.89 1468.38 L2260.89 1451.02 Z" fill="#000000" fill-rule="nonzero" fill-opacity="1" /><path clip-path="url(#clip430)" d="M1038.28 1518.52 L1044.17 1518.52 L1044.17 1547.77 L1061.64 1532.4 L1069.12 1532.4 L1050.22 1549.07 L1069.92 1568.04 L1062.28 1568.04 L1044.17 1550.63 L1044.17 1568.04 L1038.28 1568.04 L1038.28 1518.52 Z" fill="#000000" fill-rule="nonzero" fill-opacity="1" /><path clip-path="url(#clip430)" d="M1099.71 1549.81 Q1099.71 1543.44 1097.07 1539.94 Q1094.46 1536.44 1089.72 1536.44 Q1085.01 1536.44 1082.36 1539.94 Q1079.75 1543.44 1079.75 1549.81 Q1079.75 1556.14 1082.36 1559.64 Q1085.01 1563.14 1089.72 1563.14 Q1094.46 1563.14 1097.07 1559.64 Q1099.71 1556.14 1099.71 1549.81 M1105.57 1563.62 Q1105.57 1572.72 1101.53 1577.15 Q1097.48 1581.6 1089.14 1581.6 Q1086.06 1581.6 1083.32 1581.13 Q1080.58 1580.68 1078 1579.72 L1078 1574.03 Q1080.58 1575.43 1083.1 1576.1 Q1085.61 1576.76 1088.22 1576.76 Q1093.98 1576.76 1096.85 1573.74 Q1099.71 1570.75 1099.71 1564.67 L1099.71 1561.77 Q1097.9 1564.92 1095.06 1566.48 Q1092.23 1568.04 1088.28 1568.04 Q1081.73 1568.04 1077.72 1563.05 Q1073.71 1558.05 1073.71 1549.81 Q1073.71 1541.53 1077.72 1536.53 Q1081.73 1531.54 1088.28 1531.54 Q1092.23 1531.54 1095.06 1533.1 Q1097.9 1534.66 1099.71 1537.81 L1099.71 1532.4 L1105.57 1532.4 L1105.57 1563.62 Z" fill="#000000" fill-rule="nonzero" fill-opacity="1" /><path clip-path="url(#clip430)" d="M1166.11 1539.24 Q1168.3 1535.29 1171.36 1533.41 Q1174.41 1531.54 1178.55 1531.54 Q1184.12 1531.54 1187.14 1535.45 Q1190.17 1539.33 1190.17 1546.53 L1190.17 1568.04 L1184.28 1568.04 L1184.28 1546.72 Q1184.28 1541.59 1182.47 1539.11 Q1180.65 1536.63 1176.93 1536.63 Q1172.38 1536.63 1169.73 1539.65 Q1167.09 1542.68 1167.09 1547.9 L1167.09 1568.04 L1161.2 1568.04 L1161.2 1546.72 Q1161.2 1541.56 1159.39 1539.11 Q1157.58 1536.63 1153.79 1536.63 Q1149.3 1536.63 1146.66 1539.68 Q1144.02 1542.71 1144.02 1547.9 L1144.02 1568.04 L1138.13 1568.04 L1138.13 1532.4 L1144.02 1532.4 L1144.02 1537.93 Q1146.02 1534.66 1148.82 1533.1 Q1151.62 1531.54 1155.47 1531.54 Q1159.36 1531.54 1162.06 1533.51 Q1164.8 1535.48 1166.11 1539.24 Z" fill="#000000" fill-rule="nonzero" fill-opacity="1" /><path clip-path="url(#clip430)" d="M1226.13 1520.52 L1243.42 1538.25 L1237.02 1538.25 L1223.01 1525.68 L1209.01 1538.25 L1202.61 1538.25 L1219.9 1520.52 L1226.13 1520.52 Z" fill="#000000" fill-rule="nonzero" fill-opacity="1" /><path clip-path="url(#clip430)" d="M1253.51 1547.58 L1270.66 1547.58 L1270.66 1552.8 L1253.51 1552.8 L1253.51 1547.58 Z" fill="#000000" fill-rule="nonzero" fill-opacity="1" /><path clip-path="url(#clip430)" d="M1281.93 1562.63 L1292.43 1562.63 L1292.43 1526.38 L1281.01 1528.67 L1281.01 1522.82 L1292.37 1520.52 L1298.8 1520.52 L1298.8 1562.63 L1309.3 1562.63 L1309.3 1568.04 L1281.93 1568.04 L1281.93 1562.63 Z" fill="#000000" fill-rule="nonzero" fill-opacity="1" /><path clip-path="url(#clip430)" d="M1364.91 1533.45 L1364.91 1538.98 Q1362.42 1537.71 1359.75 1537.07 Q1357.08 1536.44 1354.21 1536.44 Q1349.85 1536.44 1347.66 1537.77 Q1345.49 1539.11 1345.49 1541.79 Q1345.49 1543.82 1347.05 1545 Q1348.61 1546.15 1353.32 1547.2 L1355.33 1547.64 Q1361.56 1548.98 1364.17 1551.43 Q1366.82 1553.85 1366.82 1558.21 Q1366.82 1563.17 1362.87 1566.07 Q1358.95 1568.97 1352.08 1568.97 Q1349.22 1568.97 1346.1 1568.39 Q1343.01 1567.85 1339.57 1566.74 L1339.57 1560.69 Q1342.82 1562.38 1345.97 1563.24 Q1349.12 1564.07 1352.21 1564.07 Q1356.34 1564.07 1358.57 1562.66 Q1360.8 1561.23 1360.8 1558.65 Q1360.8 1556.27 1359.18 1554.99 Q1357.59 1553.72 1352.14 1552.54 L1350.11 1552.07 Q1344.66 1550.92 1342.24 1548.56 Q1339.83 1546.18 1339.83 1542.04 Q1339.83 1537.01 1343.39 1534.27 Q1346.96 1531.54 1353.51 1531.54 Q1356.76 1531.54 1359.62 1532.01 Q1362.49 1532.49 1364.91 1533.45 Z" fill="#000000" fill-rule="nonzero" fill-opacity="1" /><path clip-path="url(#clip430)" d="M1400.43 1520.52 L1417.71 1538.25 L1411.31 1538.25 L1397.31 1525.68 L1383.3 1538.25 L1376.91 1538.25 L1394.19 1520.52 L1400.43 1520.52 Z" fill="#000000" fill-rule="nonzero" fill-opacity="1" /><path clip-path="url(#clip430)" d="M1427.8 1547.58 L1444.96 1547.58 L1444.96 1552.8 L1427.8 1552.8 L1427.8 1547.58 Z" fill="#000000" fill-rule="nonzero" fill-opacity="1" /><path clip-path="url(#clip430)" d="M1456.22 1562.63 L1466.73 1562.63 L1466.73 1526.38 L1455.3 1528.67 L1455.3 1522.82 L1466.66 1520.52 L1473.09 1520.52 L1473.09 1562.63 L1483.6 1562.63 L1483.6 1568.04 L1456.22 1568.04 L1456.22 1562.63 Z" fill="#000000" fill-rule="nonzero" fill-opacity="1" /><polyline clip-path="url(#clip430)" style="stroke:#000000; stroke-linecap:round; stroke-linejoin:round; stroke-width:4; stroke-opacity:1; fill:none" points="169.121,1423.18 169.121,47.2441 "/>
<polyline clip-path="url(#clip430)" style="stroke:#000000; stroke-linecap:round; stroke-linejoin:round; stroke-width:4; stroke-opacity:1; fill:none" points="169.121,1423.18 188.019,1423.18 "/>
<polyline clip-path="url(#clip430)" style="stroke:#000000; stroke-linecap:round; stroke-linejoin:round; stroke-width:4; stroke-opacity:1; fill:none" points="169.121,1126.64 188.019,1126.64 "/>
<polyline clip-path="url(#clip430)" style="stroke:#000000; stroke-linecap:round; stroke-linejoin:round; stroke-width:4; stroke-opacity:1; fill:none" points="169.121,830.104 188.019,830.104 "/>
<polyline clip-path="url(#clip430)" style="stroke:#000000; stroke-linecap:round; stroke-linejoin:round; stroke-width:4; stroke-opacity:1; fill:none" points="169.121,533.566 188.019,533.566 "/>
<polyline clip-path="url(#clip430)" style="stroke:#000000; stroke-linecap:round; stroke-linejoin:round; stroke-width:4; stroke-opacity:1; fill:none" points="169.121,237.028 188.019,237.028 "/>
<path clip-path="url(#clip430)" d="M121.177 1408.98 Q117.566 1408.98 115.737 1412.54 Q113.932 1416.08 113.932 1423.21 Q113.932 1430.32 115.737 1433.89 Q117.566 1437.43 121.177 1437.43 Q124.811 1437.43 126.617 1433.89 Q128.445 1430.32 128.445 1423.21 Q128.445 1416.08 126.617 1412.54 Q124.811 1408.98 121.177 1408.98 M121.177 1405.27 Q126.987 1405.27 130.043 1409.88 Q133.121 1414.46 133.121 1423.21 Q133.121 1431.94 130.043 1436.55 Q126.987 1441.13 121.177 1441.13 Q115.367 1441.13 112.288 1436.55 Q109.233 1431.94 109.233 1423.21 Q109.233 1414.46 112.288 1409.88 Q115.367 1405.27 121.177 1405.27 Z" fill="#000000" fill-rule="nonzero" fill-opacity="1" /><path clip-path="url(#clip430)" d="M86.0382 1139.99 L102.358 1139.99 L102.358 1143.92 L80.4133 1143.92 L80.4133 1139.99 Q83.0753 1137.23 87.6586 1132.6 Q92.2651 1127.95 93.4456 1126.61 Q95.691 1124.08 96.5706 1122.35 Q97.4734 1120.59 97.4734 1118.9 Q97.4734 1116.14 95.5289 1114.41 Q93.6076 1112.67 90.5058 1112.67 Q88.3067 1112.67 85.8531 1113.44 Q83.4225 1114.2 80.6447 1115.75 L80.6447 1111.03 Q83.4688 1109.89 85.9225 1109.32 Q88.3762 1108.74 90.4132 1108.74 Q95.7836 1108.74 98.978 1111.42 Q102.172 1114.11 102.172 1118.6 Q102.172 1120.73 101.362 1122.65 Q100.575 1124.55 98.4687 1127.14 Q97.89 1127.81 94.7882 1131.03 Q91.6864 1134.22 86.0382 1139.99 Z" fill="#000000" fill-rule="nonzero" fill-opacity="1" /><path clip-path="url(#clip430)" d="M112.219 1109.36 L130.575 1109.36 L130.575 1113.3 L116.501 1113.3 L116.501 1121.77 Q117.52 1121.42 118.538 1121.26 Q119.557 1121.07 120.575 1121.07 Q126.362 1121.07 129.742 1124.25 Q133.121 1127.42 133.121 1132.83 Q133.121 1138.41 129.649 1141.51 Q126.177 1144.59 119.857 1144.59 Q117.682 1144.59 115.413 1144.22 Q113.168 1143.85 110.76 1143.11 L110.76 1138.41 Q112.844 1139.55 115.066 1140.1 Q117.288 1140.66 119.765 1140.66 Q123.77 1140.66 126.107 1138.55 Q128.445 1136.45 128.445 1132.83 Q128.445 1129.22 126.107 1127.12 Q123.77 1125.01 119.765 1125.01 Q117.89 1125.01 116.015 1125.43 Q114.163 1125.84 112.219 1126.72 L112.219 1109.36 Z" fill="#000000" fill-rule="nonzero" fill-opacity="1" /><path clip-path="url(#clip430)" d="M81.0614 812.824 L99.4178 812.824 L99.4178 816.759 L85.3438 816.759 L85.3438 825.231 Q86.3623 824.884 87.3808 824.722 Q88.3993 824.537 89.4178 824.537 Q95.2049 824.537 98.5845 827.708 Q101.964 830.88 101.964 836.296 Q101.964 841.875 98.4919 844.977 Q95.0197 848.055 88.7003 848.055 Q86.5243 848.055 84.2558 847.685 Q82.0105 847.315 79.6031 846.574 L79.6031 841.875 Q81.6864 843.009 83.9086 843.565 Q86.1308 844.12 88.6077 844.12 Q92.6123 844.12 94.9502 842.014 Q97.2882 839.907 97.2882 836.296 Q97.2882 832.685 94.9502 830.579 Q92.6123 828.472 88.6077 828.472 Q86.7327 828.472 84.8577 828.889 Q83.0058 829.305 81.0614 830.185 L81.0614 812.824 Z" fill="#000000" fill-rule="nonzero" fill-opacity="1" /><path clip-path="url(#clip430)" d="M121.177 815.903 Q117.566 815.903 115.737 819.468 Q113.932 823.009 113.932 830.139 Q113.932 837.245 115.737 840.81 Q117.566 844.352 121.177 844.352 Q124.811 844.352 126.617 840.81 Q128.445 837.245 128.445 830.139 Q128.445 823.009 126.617 819.468 Q124.811 815.903 121.177 815.903 M121.177 812.199 Q126.987 812.199 130.043 816.806 Q133.121 821.389 133.121 830.139 Q133.121 838.866 130.043 843.472 Q126.987 848.055 121.177 848.055 Q115.367 848.055 112.288 843.472 Q109.233 838.866 109.233 830.139 Q109.233 821.389 112.288 816.806 Q115.367 812.199 121.177 812.199 Z" fill="#000000" fill-rule="nonzero" fill-opacity="1" /><path clip-path="url(#clip430)" d="M80.8299 516.286 L103.052 516.286 L103.052 518.277 L90.5058 550.846 L85.6216 550.846 L97.4271 520.221 L80.8299 520.221 L80.8299 516.286 Z" fill="#000000" fill-rule="nonzero" fill-opacity="1" /><path clip-path="url(#clip430)" d="M112.219 516.286 L130.575 516.286 L130.575 520.221 L116.501 520.221 L116.501 528.694 Q117.52 528.346 118.538 528.184 Q119.557 527.999 120.575 527.999 Q126.362 527.999 129.742 531.17 Q133.121 534.342 133.121 539.758 Q133.121 545.337 129.649 548.439 Q126.177 551.518 119.857 551.518 Q117.682 551.518 115.413 551.147 Q113.168 550.777 110.76 550.036 L110.76 545.337 Q112.844 546.471 115.066 547.027 Q117.288 547.582 119.765 547.582 Q123.77 547.582 126.107 545.476 Q128.445 543.369 128.445 539.758 Q128.445 536.147 126.107 534.041 Q123.77 531.934 119.765 531.934 Q117.89 531.934 116.015 532.351 Q114.163 532.768 112.219 533.647 L112.219 516.286 Z" fill="#000000" fill-rule="nonzero" fill-opacity="1" /><path clip-path="url(#clip430)" d="M51.6634 250.373 L59.3023 250.373 L59.3023 224.008 L50.9921 225.674 L50.9921 221.415 L59.256 219.748 L63.9319 219.748 L63.9319 250.373 L71.5707 250.373 L71.5707 254.308 L51.6634 254.308 L51.6634 250.373 Z" fill="#000000" fill-rule="nonzero" fill-opacity="1" /><path clip-path="url(#clip430)" d="M91.0151 222.827 Q87.404 222.827 85.5753 226.392 Q83.7697 229.933 83.7697 237.063 Q83.7697 244.17 85.5753 247.734 Q87.404 251.276 91.0151 251.276 Q94.6493 251.276 96.4548 247.734 Q98.2835 244.17 98.2835 237.063 Q98.2835 229.933 96.4548 226.392 Q94.6493 222.827 91.0151 222.827 M91.0151 219.123 Q96.8252 219.123 99.8808 223.73 Q102.959 228.313 102.959 237.063 Q102.959 245.79 99.8808 250.396 Q96.8252 254.98 91.0151 254.98 Q85.2049 254.98 82.1262 250.396 Q79.0707 245.79 79.0707 237.063 Q79.0707 228.313 82.1262 223.73 Q85.2049 219.123 91.0151 219.123 Z" fill="#000000" fill-rule="nonzero" fill-opacity="1" /><path clip-path="url(#clip430)" d="M121.177 222.827 Q117.566 222.827 115.737 226.392 Q113.932 229.933 113.932 237.063 Q113.932 244.17 115.737 247.734 Q117.566 251.276 121.177 251.276 Q124.811 251.276 126.617 247.734 Q128.445 244.17 128.445 237.063 Q128.445 229.933 126.617 226.392 Q124.811 222.827 121.177 222.827 M121.177 219.123 Q126.987 219.123 130.043 223.73 Q133.121 228.313 133.121 237.063 Q133.121 245.79 130.043 250.396 Q126.987 254.98 121.177 254.98 Q115.367 254.98 112.288 250.396 Q109.233 245.79 109.233 237.063 Q109.233 228.313 112.288 223.73 Q115.367 219.123 121.177 219.123 Z" fill="#000000" fill-rule="nonzero" fill-opacity="1" /><path clip-path="url(#clip432)" d="M289.225 1411.32 L289.225 1423.18 L370.201 1423.18 L370.201 1411.32 L289.225 1411.32 L289.225 1411.32  Z" fill="#009af9" fill-rule="evenodd" fill-opacity="1"/>
<polyline clip-path="url(#clip432)" style="stroke:#000000; stroke-linecap:round; stroke-linejoin:round; stroke-width:4; stroke-opacity:1; fill:none" points="289.225,1411.32 289.225,1423.18 370.201,1423.18 370.201,1411.32 289.225,1411.32 "/>
<path clip-path="url(#clip432)" d="M370.201 1411.32 L370.201 1423.18 L451.177 1423.18 L451.177 1411.32 L370.201 1411.32 L370.201 1411.32  Z" fill="#009af9" fill-rule="evenodd" fill-opacity="1"/>
<polyline clip-path="url(#clip432)" style="stroke:#000000; stroke-linecap:round; stroke-linejoin:round; stroke-width:4; stroke-opacity:1; fill:none" points="370.201,1411.32 370.201,1423.18 451.177,1423.18 451.177,1411.32 370.201,1411.32 "/>
<path clip-path="url(#clip432)" d="M451.177 1411.32 L451.177 1423.18 L532.153 1423.18 L532.153 1411.32 L451.177 1411.32 L451.177 1411.32  Z" fill="#009af9" fill-rule="evenodd" fill-opacity="1"/>
<polyline clip-path="url(#clip432)" style="stroke:#000000; stroke-linecap:round; stroke-linejoin:round; stroke-width:4; stroke-opacity:1; fill:none" points="451.177,1411.32 451.177,1423.18 532.153,1423.18 532.153,1411.32 451.177,1411.32 "/>
<path clip-path="url(#clip432)" d="M532.153 1375.73 L532.153 1423.18 L613.13 1423.18 L613.13 1375.73 L532.153 1375.73 L532.153 1375.73  Z" fill="#009af9" fill-rule="evenodd" fill-opacity="1"/>
<polyline clip-path="url(#clip432)" style="stroke:#000000; stroke-linecap:round; stroke-linejoin:round; stroke-width:4; stroke-opacity:1; fill:none" points="532.153,1375.73 532.153,1423.18 613.13,1423.18 613.13,1375.73 532.153,1375.73 "/>
<path clip-path="url(#clip432)" d="M613.13 1340.15 L613.13 1423.18 L694.106 1423.18 L694.106 1340.15 L613.13 1340.15 L613.13 1340.15  Z" fill="#009af9" fill-rule="evenodd" fill-opacity="1"/>
<polyline clip-path="url(#clip432)" style="stroke:#000000; stroke-linecap:round; stroke-linejoin:round; stroke-width:4; stroke-opacity:1; fill:none" points="613.13,1340.15 613.13,1423.18 694.106,1423.18 694.106,1340.15 613.13,1340.15 "/>
<path clip-path="url(#clip432)" d="M694.106 1174.09 L694.106 1423.18 L775.082 1423.18 L775.082 1174.09 L694.106 1174.09 L694.106 1174.09  Z" fill="#009af9" fill-rule="evenodd" fill-opacity="1"/>
<polyline clip-path="url(#clip432)" style="stroke:#000000; stroke-linecap:round; stroke-linejoin:round; stroke-width:4; stroke-opacity:1; fill:none" points="694.106,1174.09 694.106,1423.18 775.082,1423.18 775.082,1174.09 694.106,1174.09 "/>
<path clip-path="url(#clip432)" d="M775.082 972.442 L775.082 1423.18 L856.058 1423.18 L856.058 972.442 L775.082 972.442 L775.082 972.442  Z" fill="#009af9" fill-rule="evenodd" fill-opacity="1"/>
<polyline clip-path="url(#clip432)" style="stroke:#000000; stroke-linecap:round; stroke-linejoin:round; stroke-width:4; stroke-opacity:1; fill:none" points="775.082,972.442 775.082,1423.18 856.058,1423.18 856.058,972.442 775.082,972.442 "/>
<path clip-path="url(#clip432)" d="M856.058 948.719 L856.058 1423.18 L937.034 1423.18 L937.034 948.719 L856.058 948.719 L856.058 948.719  Z" fill="#009af9" fill-rule="evenodd" fill-opacity="1"/>
<polyline clip-path="url(#clip432)" style="stroke:#000000; stroke-linecap:round; stroke-linejoin:round; stroke-width:4; stroke-opacity:1; fill:none" points="856.058,948.719 856.058,1423.18 937.034,1423.18 937.034,948.719 856.058,948.719 "/>
<path clip-path="url(#clip432)" d="M937.034 509.843 L937.034 1423.18 L1018.01 1423.18 L1018.01 509.843 L937.034 509.843 L937.034 509.843  Z" fill="#009af9" fill-rule="evenodd" fill-opacity="1"/>
<polyline clip-path="url(#clip432)" style="stroke:#000000; stroke-linecap:round; stroke-linejoin:round; stroke-width:4; stroke-opacity:1; fill:none" points="937.034,509.843 937.034,1423.18 1018.01,1423.18 1018.01,509.843 937.034,509.843 "/>
<path clip-path="url(#clip432)" d="M1018.01 225.167 L1018.01 1423.18 L1098.99 1423.18 L1098.99 225.167 L1018.01 225.167 L1018.01 225.167  Z" fill="#009af9" fill-rule="evenodd" fill-opacity="1"/>
<polyline clip-path="url(#clip432)" style="stroke:#000000; stroke-linecap:round; stroke-linejoin:round; stroke-width:4; stroke-opacity:1; fill:none" points="1018.01,225.167 1018.01,1423.18 1098.99,1423.18 1098.99,225.167 1018.01,225.167 "/>
<path clip-path="url(#clip432)" d="M1098.99 331.92 L1098.99 1423.18 L1179.96 1423.18 L1179.96 331.92 L1098.99 331.92 L1098.99 331.92  Z" fill="#009af9" fill-rule="evenodd" fill-opacity="1"/>
<polyline clip-path="url(#clip432)" style="stroke:#000000; stroke-linecap:round; stroke-linejoin:round; stroke-width:4; stroke-opacity:1; fill:none" points="1098.99,331.92 1098.99,1423.18 1179.96,1423.18 1179.96,331.92 1098.99,331.92 "/>
<path clip-path="url(#clip432)" d="M1179.96 94.6902 L1179.96 1423.18 L1260.94 1423.18 L1260.94 94.6902 L1179.96 94.6902 L1179.96 94.6902  Z" fill="#009af9" fill-rule="evenodd" fill-opacity="1"/>
<polyline clip-path="url(#clip432)" style="stroke:#000000; stroke-linecap:round; stroke-linejoin:round; stroke-width:4; stroke-opacity:1; fill:none" points="1179.96,94.6902 1179.96,1423.18 1260.94,1423.18 1260.94,94.6902 1179.96,94.6902 "/>
<path clip-path="url(#clip432)" d="M1260.94 47.2441 L1260.94 1423.18 L1341.91 1423.18 L1341.91 47.2441 L1260.94 47.2441 L1260.94 47.2441  Z" fill="#009af9" fill-rule="evenodd" fill-opacity="1"/>
<polyline clip-path="url(#clip432)" style="stroke:#000000; stroke-linecap:round; stroke-linejoin:round; stroke-width:4; stroke-opacity:1; fill:none" points="1260.94,47.2441 1260.94,1423.18 1341.91,1423.18 1341.91,47.2441 1260.94,47.2441 "/>
<path clip-path="url(#clip432)" d="M1341.91 237.028 L1341.91 1423.18 L1422.89 1423.18 L1422.89 237.028 L1341.91 237.028 L1341.91 237.028  Z" fill="#009af9" fill-rule="evenodd" fill-opacity="1"/>
<polyline clip-path="url(#clip432)" style="stroke:#000000; stroke-linecap:round; stroke-linejoin:round; stroke-width:4; stroke-opacity:1; fill:none" points="1341.91,237.028 1341.91,1423.18 1422.89,1423.18 1422.89,237.028 1341.91,237.028 "/>
<path clip-path="url(#clip432)" d="M1422.89 260.751 L1422.89 1423.18 L1503.87 1423.18 L1503.87 260.751 L1422.89 260.751 L1422.89 260.751  Z" fill="#009af9" fill-rule="evenodd" fill-opacity="1"/>
<polyline clip-path="url(#clip432)" style="stroke:#000000; stroke-linecap:round; stroke-linejoin:round; stroke-width:4; stroke-opacity:1; fill:none" points="1422.89,260.751 1422.89,1423.18 1503.87,1423.18 1503.87,260.751 1422.89,260.751 "/>
<path clip-path="url(#clip432)" d="M1503.87 414.951 L1503.87 1423.18 L1584.84 1423.18 L1584.84 414.951 L1503.87 414.951 L1503.87 414.951  Z" fill="#009af9" fill-rule="evenodd" fill-opacity="1"/>
<polyline clip-path="url(#clip432)" style="stroke:#000000; stroke-linecap:round; stroke-linejoin:round; stroke-width:4; stroke-opacity:1; fill:none" points="1503.87,414.951 1503.87,1423.18 1584.84,1423.18 1584.84,414.951 1503.87,414.951 "/>
<path clip-path="url(#clip432)" d="M1584.84 865.689 L1584.84 1423.18 L1665.82 1423.18 L1665.82 865.689 L1584.84 865.689 L1584.84 865.689  Z" fill="#009af9" fill-rule="evenodd" fill-opacity="1"/>
<polyline clip-path="url(#clip432)" style="stroke:#000000; stroke-linecap:round; stroke-linejoin:round; stroke-width:4; stroke-opacity:1; fill:none" points="1584.84,865.689 1584.84,1423.18 1665.82,1423.18 1665.82,865.689 1584.84,865.689 "/>
<path clip-path="url(#clip432)" d="M1665.82 1150.36 L1665.82 1423.18 L1746.8 1423.18 L1746.8 1150.36 L1665.82 1150.36 L1665.82 1150.36  Z" fill="#009af9" fill-rule="evenodd" fill-opacity="1"/>
<polyline clip-path="url(#clip432)" style="stroke:#000000; stroke-linecap:round; stroke-linejoin:round; stroke-width:4; stroke-opacity:1; fill:none" points="1665.82,1150.36 1665.82,1423.18 1746.8,1423.18 1746.8,1150.36 1665.82,1150.36 "/>
<path clip-path="url(#clip432)" d="M1746.8 1233.4 L1746.8 1423.18 L1827.77 1423.18 L1827.77 1233.4 L1746.8 1233.4 L1746.8 1233.4  Z" fill="#009af9" fill-rule="evenodd" fill-opacity="1"/>
<polyline clip-path="url(#clip432)" style="stroke:#000000; stroke-linecap:round; stroke-linejoin:round; stroke-width:4; stroke-opacity:1; fill:none" points="1746.8,1233.4 1746.8,1423.18 1827.77,1423.18 1827.77,1233.4 1746.8,1233.4 "/>
<path clip-path="url(#clip432)" d="M1827.77 1316.43 L1827.77 1423.18 L1908.75 1423.18 L1908.75 1316.43 L1827.77 1316.43 L1827.77 1316.43  Z" fill="#009af9" fill-rule="evenodd" fill-opacity="1"/>
<polyline clip-path="url(#clip432)" style="stroke:#000000; stroke-linecap:round; stroke-linejoin:round; stroke-width:4; stroke-opacity:1; fill:none" points="1827.77,1316.43 1827.77,1423.18 1908.75,1423.18 1908.75,1316.43 1827.77,1316.43 "/>
<path clip-path="url(#clip432)" d="M1908.75 1387.6 L1908.75 1423.18 L1989.72 1423.18 L1989.72 1387.6 L1908.75 1387.6 L1908.75 1387.6  Z" fill="#009af9" fill-rule="evenodd" fill-opacity="1"/>
<polyline clip-path="url(#clip432)" style="stroke:#000000; stroke-linecap:round; stroke-linejoin:round; stroke-width:4; stroke-opacity:1; fill:none" points="1908.75,1387.6 1908.75,1423.18 1989.72,1423.18 1989.72,1387.6 1908.75,1387.6 "/>
<path clip-path="url(#clip432)" d="M1989.72 1375.73 L1989.72 1423.18 L2070.7 1423.18 L2070.7 1375.73 L1989.72 1375.73 L1989.72 1375.73  Z" fill="#009af9" fill-rule="evenodd" fill-opacity="1"/>
<polyline clip-path="url(#clip432)" style="stroke:#000000; stroke-linecap:round; stroke-linejoin:round; stroke-width:4; stroke-opacity:1; fill:none" points="1989.72,1375.73 1989.72,1423.18 2070.7,1423.18 2070.7,1375.73 1989.72,1375.73 "/>
<path clip-path="url(#clip432)" d="M2070.7 1399.46 L2070.7 1423.18 L2151.68 1423.18 L2151.68 1399.46 L2070.7 1399.46 L2070.7 1399.46  Z" fill="#009af9" fill-rule="evenodd" fill-opacity="1"/>
<polyline clip-path="url(#clip432)" style="stroke:#000000; stroke-linecap:round; stroke-linejoin:round; stroke-width:4; stroke-opacity:1; fill:none" points="2070.7,1399.46 2070.7,1423.18 2151.68,1423.18 2151.68,1399.46 2070.7,1399.46 "/>
<path clip-path="url(#clip432)" d="M2151.68 1399.46 L2151.68 1423.18 L2232.65 1423.18 L2232.65 1399.46 L2151.68 1399.46 L2151.68 1399.46  Z" fill="#009af9" fill-rule="evenodd" fill-opacity="1"/>
<polyline clip-path="url(#clip432)" style="stroke:#000000; stroke-linecap:round; stroke-linejoin:round; stroke-width:4; stroke-opacity:1; fill:none" points="2151.68,1399.46 2151.68,1423.18 2232.65,1423.18 2232.65,1399.46 2151.68,1399.46 "/>
<circle clip-path="url(#clip432)" style="fill:#009af9; stroke:none; fill-opacity:0" cx="329.713" cy="1411.32" r="2"/>
<circle clip-path="url(#clip432)" style="fill:#009af9; stroke:none; fill-opacity:0" cx="410.689" cy="1411.32" r="2"/>
<circle clip-path="url(#clip432)" style="fill:#009af9; stroke:none; fill-opacity:0" cx="491.665" cy="1411.32" r="2"/>
<circle clip-path="url(#clip432)" style="fill:#009af9; stroke:none; fill-opacity:0" cx="572.642" cy="1375.73" r="2"/>
<circle clip-path="url(#clip432)" style="fill:#009af9; stroke:none; fill-opacity:0" cx="653.618" cy="1340.15" r="2"/>
<circle clip-path="url(#clip432)" style="fill:#009af9; stroke:none; fill-opacity:0" cx="734.594" cy="1174.09" r="2"/>
<circle clip-path="url(#clip432)" style="fill:#009af9; stroke:none; fill-opacity:0" cx="815.57" cy="972.442" r="2"/>
<circle clip-path="url(#clip432)" style="fill:#009af9; stroke:none; fill-opacity:0" cx="896.546" cy="948.719" r="2"/>
<circle clip-path="url(#clip432)" style="fill:#009af9; stroke:none; fill-opacity:0" cx="977.522" cy="509.843" r="2"/>
<circle clip-path="url(#clip432)" style="fill:#009af9; stroke:none; fill-opacity:0" cx="1058.5" cy="225.167" r="2"/>
<circle clip-path="url(#clip432)" style="fill:#009af9; stroke:none; fill-opacity:0" cx="1139.47" cy="331.92" r="2"/>
<circle clip-path="url(#clip432)" style="fill:#009af9; stroke:none; fill-opacity:0" cx="1220.45" cy="94.6902" r="2"/>
<circle clip-path="url(#clip432)" style="fill:#009af9; stroke:none; fill-opacity:0" cx="1301.43" cy="47.2441" r="2"/>
<circle clip-path="url(#clip432)" style="fill:#009af9; stroke:none; fill-opacity:0" cx="1382.4" cy="237.028" r="2"/>
<circle clip-path="url(#clip432)" style="fill:#009af9; stroke:none; fill-opacity:0" cx="1463.38" cy="260.751" r="2"/>
<circle clip-path="url(#clip432)" style="fill:#009af9; stroke:none; fill-opacity:0" cx="1544.36" cy="414.951" r="2"/>
<circle clip-path="url(#clip432)" style="fill:#009af9; stroke:none; fill-opacity:0" cx="1625.33" cy="865.689" r="2"/>
<circle clip-path="url(#clip432)" style="fill:#009af9; stroke:none; fill-opacity:0" cx="1706.31" cy="1150.36" r="2"/>
<circle clip-path="url(#clip432)" style="fill:#009af9; stroke:none; fill-opacity:0" cx="1787.28" cy="1233.4" r="2"/>
<circle clip-path="url(#clip432)" style="fill:#009af9; stroke:none; fill-opacity:0" cx="1868.26" cy="1316.43" r="2"/>
<circle clip-path="url(#clip432)" style="fill:#009af9; stroke:none; fill-opacity:0" cx="1949.24" cy="1387.6" r="2"/>
<circle clip-path="url(#clip432)" style="fill:#009af9; stroke:none; fill-opacity:0" cx="2030.21" cy="1375.73" r="2"/>
<circle clip-path="url(#clip432)" style="fill:#009af9; stroke:none; fill-opacity:0" cx="2111.19" cy="1399.46" r="2"/>
<circle clip-path="url(#clip432)" style="fill:#009af9; stroke:none; fill-opacity:0" cx="2192.16" cy="1399.46" r="2"/>
<path clip-path="url(#clip432)" d="M815.57 1411.32 L815.57 1423.18 L856.058 1423.18 L856.058 1411.32 L815.57 1411.32 L815.57 1411.32  Z" fill="#e26f46" fill-rule="evenodd" fill-opacity="1"/>
<polyline clip-path="url(#clip432)" style="stroke:#000000; stroke-linecap:round; stroke-linejoin:round; stroke-width:4; stroke-opacity:1; fill:none" points="815.57,1411.32 815.57,1423.18 856.058,1423.18 856.058,1411.32 815.57,1411.32 "/>
<path clip-path="url(#clip432)" d="M856.058 1399.46 L856.058 1423.18 L896.546 1423.18 L896.546 1399.46 L856.058 1399.46 L856.058 1399.46  Z" fill="#e26f46" fill-rule="evenodd" fill-opacity="1"/>
<polyline clip-path="url(#clip432)" style="stroke:#000000; stroke-linecap:round; stroke-linejoin:round; stroke-width:4; stroke-opacity:1; fill:none" points="856.058,1399.46 856.058,1423.18 896.546,1423.18 896.546,1399.46 856.058,1399.46 "/>
<path clip-path="url(#clip432)" d="M896.546 1245.26 L896.546 1423.18 L937.034 1423.18 L937.034 1245.26 L896.546 1245.26 L896.546 1245.26  Z" fill="#e26f46" fill-rule="evenodd" fill-opacity="1"/>
<polyline clip-path="url(#clip432)" style="stroke:#000000; stroke-linecap:round; stroke-linejoin:round; stroke-width:4; stroke-opacity:1; fill:none" points="896.546,1245.26 896.546,1423.18 937.034,1423.18 937.034,1245.26 896.546,1245.26 "/>
<path clip-path="url(#clip432)" d="M937.034 1257.12 L937.034 1423.18 L977.522 1423.18 L977.522 1257.12 L937.034 1257.12 L937.034 1257.12  Z" fill="#e26f46" fill-rule="evenodd" fill-opacity="1"/>
<polyline clip-path="url(#clip432)" style="stroke:#000000; stroke-linecap:round; stroke-linejoin:round; stroke-width:4; stroke-opacity:1; fill:none" points="937.034,1257.12 937.034,1423.18 977.522,1423.18 977.522,1257.12 937.034,1257.12 "/>
<path clip-path="url(#clip432)" d="M977.522 1043.61 L977.522 1423.18 L1018.01 1423.18 L1018.01 1043.61 L977.522 1043.61 L977.522 1043.61  Z" fill="#e26f46" fill-rule="evenodd" fill-opacity="1"/>
<polyline clip-path="url(#clip432)" style="stroke:#000000; stroke-linecap:round; stroke-linejoin:round; stroke-width:4; stroke-opacity:1; fill:none" points="977.522,1043.61 977.522,1423.18 1018.01,1423.18 1018.01,1043.61 977.522,1043.61 "/>
<path clip-path="url(#clip432)" d="M1018.01 1091.06 L1018.01 1423.18 L1058.5 1423.18 L1058.5 1091.06 L1018.01 1091.06 L1018.01 1091.06  Z" fill="#e26f46" fill-rule="evenodd" fill-opacity="1"/>
<polyline clip-path="url(#clip432)" style="stroke:#000000; stroke-linecap:round; stroke-linejoin:round; stroke-width:4; stroke-opacity:1; fill:none" points="1018.01,1091.06 1018.01,1423.18 1058.5,1423.18 1058.5,1091.06 1018.01,1091.06 "/>
<path clip-path="url(#clip432)" d="M1058.5 735.212 L1058.5 1423.18 L1098.99 1423.18 L1098.99 735.212 L1058.5 735.212 L1058.5 735.212  Z" fill="#e26f46" fill-rule="evenodd" fill-opacity="1"/>
<polyline clip-path="url(#clip432)" style="stroke:#000000; stroke-linecap:round; stroke-linejoin:round; stroke-width:4; stroke-opacity:1; fill:none" points="1058.5,735.212 1058.5,1423.18 1098.99,1423.18 1098.99,735.212 1058.5,735.212 "/>
<path clip-path="url(#clip432)" d="M1098.99 652.181 L1098.99 1423.18 L1139.47 1423.18 L1139.47 652.181 L1098.99 652.181 L1098.99 652.181  Z" fill="#e26f46" fill-rule="evenodd" fill-opacity="1"/>
<polyline clip-path="url(#clip432)" style="stroke:#000000; stroke-linecap:round; stroke-linejoin:round; stroke-width:4; stroke-opacity:1; fill:none" points="1098.99,652.181 1098.99,1423.18 1139.47,1423.18 1139.47,652.181 1098.99,652.181 "/>
<path clip-path="url(#clip432)" d="M1139.47 391.228 L1139.47 1423.18 L1179.96 1423.18 L1179.96 391.228 L1139.47 391.228 L1139.47 391.228  Z" fill="#e26f46" fill-rule="evenodd" fill-opacity="1"/>
<polyline clip-path="url(#clip432)" style="stroke:#000000; stroke-linecap:round; stroke-linejoin:round; stroke-width:4; stroke-opacity:1; fill:none" points="1139.47,391.228 1139.47,1423.18 1179.96,1423.18 1179.96,391.228 1139.47,391.228 "/>
<path clip-path="url(#clip432)" d="M1179.96 284.474 L1179.96 1423.18 L1220.45 1423.18 L1220.45 284.474 L1179.96 284.474 L1179.96 284.474  Z" fill="#e26f46" fill-rule="evenodd" fill-opacity="1"/>
<polyline clip-path="url(#clip432)" style="stroke:#000000; stroke-linecap:round; stroke-linejoin:round; stroke-width:4; stroke-opacity:1; fill:none" points="1179.96,284.474 1179.96,1423.18 1220.45,1423.18 1220.45,284.474 1179.96,284.474 "/>
<path clip-path="url(#clip432)" d="M1220.45 82.8286 L1220.45 1423.18 L1260.94 1423.18 L1260.94 82.8286 L1220.45 82.8286 L1220.45 82.8286  Z" fill="#e26f46" fill-rule="evenodd" fill-opacity="1"/>
<polyline clip-path="url(#clip432)" style="stroke:#000000; stroke-linecap:round; stroke-linejoin:round; stroke-width:4; stroke-opacity:1; fill:none" points="1220.45,82.8286 1220.45,1423.18 1260.94,1423.18 1260.94,82.8286 1220.45,82.8286 "/>
<path clip-path="url(#clip432)" d="M1260.94 94.6902 L1260.94 1423.18 L1301.43 1423.18 L1301.43 94.6902 L1260.94 94.6902 L1260.94 94.6902  Z" fill="#e26f46" fill-rule="evenodd" fill-opacity="1"/>
<polyline clip-path="url(#clip432)" style="stroke:#000000; stroke-linecap:round; stroke-linejoin:round; stroke-width:4; stroke-opacity:1; fill:none" points="1260.94,94.6902 1260.94,1423.18 1301.43,1423.18 1301.43,94.6902 1260.94,94.6902 "/>
<path clip-path="url(#clip432)" d="M1301.43 355.643 L1301.43 1423.18 L1341.91 1423.18 L1341.91 355.643 L1301.43 355.643 L1301.43 355.643  Z" fill="#e26f46" fill-rule="evenodd" fill-opacity="1"/>
<polyline clip-path="url(#clip432)" style="stroke:#000000; stroke-linecap:round; stroke-linejoin:round; stroke-width:4; stroke-opacity:1; fill:none" points="1301.43,355.643 1301.43,1423.18 1341.91,1423.18 1341.91,355.643 1301.43,355.643 "/>
<path clip-path="url(#clip432)" d="M1341.91 438.674 L1341.91 1423.18 L1382.4 1423.18 L1382.4 438.674 L1341.91 438.674 L1341.91 438.674  Z" fill="#e26f46" fill-rule="evenodd" fill-opacity="1"/>
<polyline clip-path="url(#clip432)" style="stroke:#000000; stroke-linecap:round; stroke-linejoin:round; stroke-width:4; stroke-opacity:1; fill:none" points="1341.91,438.674 1341.91,1423.18 1382.4,1423.18 1382.4,438.674 1341.91,438.674 "/>
<path clip-path="url(#clip432)" d="M1382.4 592.874 L1382.4 1423.18 L1422.89 1423.18 L1422.89 592.874 L1382.4 592.874 L1382.4 592.874  Z" fill="#e26f46" fill-rule="evenodd" fill-opacity="1"/>
<polyline clip-path="url(#clip432)" style="stroke:#000000; stroke-linecap:round; stroke-linejoin:round; stroke-width:4; stroke-opacity:1; fill:none" points="1382.4,592.874 1382.4,1423.18 1422.89,1423.18 1422.89,592.874 1382.4,592.874 "/>
<path clip-path="url(#clip432)" d="M1422.89 936.858 L1422.89 1423.18 L1463.38 1423.18 L1463.38 936.858 L1422.89 936.858 L1422.89 936.858  Z" fill="#e26f46" fill-rule="evenodd" fill-opacity="1"/>
<polyline clip-path="url(#clip432)" style="stroke:#000000; stroke-linecap:round; stroke-linejoin:round; stroke-width:4; stroke-opacity:1; fill:none" points="1422.89,936.858 1422.89,1423.18 1463.38,1423.18 1463.38,936.858 1422.89,936.858 "/>
<path clip-path="url(#clip432)" d="M1463.38 1031.75 L1463.38 1423.18 L1503.87 1423.18 L1503.87 1031.75 L1463.38 1031.75 L1463.38 1031.75  Z" fill="#e26f46" fill-rule="evenodd" fill-opacity="1"/>
<polyline clip-path="url(#clip432)" style="stroke:#000000; stroke-linecap:round; stroke-linejoin:round; stroke-width:4; stroke-opacity:1; fill:none" points="1463.38,1031.75 1463.38,1423.18 1503.87,1423.18 1503.87,1031.75 1463.38,1031.75 "/>
<path clip-path="url(#clip432)" d="M1503.87 1079.2 L1503.87 1423.18 L1544.36 1423.18 L1544.36 1079.2 L1503.87 1079.2 L1503.87 1079.2  Z" fill="#e26f46" fill-rule="evenodd" fill-opacity="1"/>
<polyline clip-path="url(#clip432)" style="stroke:#000000; stroke-linecap:round; stroke-linejoin:round; stroke-width:4; stroke-opacity:1; fill:none" points="1503.87,1079.2 1503.87,1423.18 1544.36,1423.18 1544.36,1079.2 1503.87,1079.2 "/>
<path clip-path="url(#clip432)" d="M1544.36 1257.12 L1544.36 1423.18 L1584.84 1423.18 L1584.84 1257.12 L1544.36 1257.12 L1544.36 1257.12  Z" fill="#e26f46" fill-rule="evenodd" fill-opacity="1"/>
<polyline clip-path="url(#clip432)" style="stroke:#000000; stroke-linecap:round; stroke-linejoin:round; stroke-width:4; stroke-opacity:1; fill:none" points="1544.36,1257.12 1544.36,1423.18 1584.84,1423.18 1584.84,1257.12 1544.36,1257.12 "/>
<path clip-path="url(#clip432)" d="M1584.84 1292.7 L1584.84 1423.18 L1625.33 1423.18 L1625.33 1292.7 L1584.84 1292.7 L1584.84 1292.7  Z" fill="#e26f46" fill-rule="evenodd" fill-opacity="1"/>
<polyline clip-path="url(#clip432)" style="stroke:#000000; stroke-linecap:round; stroke-linejoin:round; stroke-width:4; stroke-opacity:1; fill:none" points="1584.84,1292.7 1584.84,1423.18 1625.33,1423.18 1625.33,1292.7 1584.84,1292.7 "/>
<path clip-path="url(#clip432)" d="M1625.33 1387.6 L1625.33 1423.18 L1665.82 1423.18 L1665.82 1387.6 L1625.33 1387.6 L1625.33 1387.6  Z" fill="#e26f46" fill-rule="evenodd" fill-opacity="1"/>
<polyline clip-path="url(#clip432)" style="stroke:#000000; stroke-linecap:round; stroke-linejoin:round; stroke-width:4; stroke-opacity:1; fill:none" points="1625.33,1387.6 1625.33,1423.18 1665.82,1423.18 1665.82,1387.6 1625.33,1387.6 "/>
<path clip-path="url(#clip432)" d="M1665.82 1411.32 L1665.82 1423.18 L1706.31 1423.18 L1706.31 1411.32 L1665.82 1411.32 L1665.82 1411.32  Z" fill="#e26f46" fill-rule="evenodd" fill-opacity="1"/>
<polyline clip-path="url(#clip432)" style="stroke:#000000; stroke-linecap:round; stroke-linejoin:round; stroke-width:4; stroke-opacity:1; fill:none" points="1665.82,1411.32 1665.82,1423.18 1706.31,1423.18 1706.31,1411.32 1665.82,1411.32 "/>
<path clip-path="url(#clip432)" d="M1706.31 1423.18 L1706.31 1423.18 L1746.8 1423.18 L1746.8 1423.18 L1706.31 1423.18 L1706.31 1423.18  Z" fill="#e26f46" fill-rule="evenodd" fill-opacity="1"/>
<polyline clip-path="url(#clip432)" style="stroke:#000000; stroke-linecap:round; stroke-linejoin:round; stroke-width:4; stroke-opacity:1; fill:none" points="1706.31,1423.18 1706.31,1423.18 1746.8,1423.18 1706.31,1423.18 "/>
<path clip-path="url(#clip432)" d="M1746.8 1423.18 L1746.8 1423.18 L1787.28 1423.18 L1787.28 1423.18 L1746.8 1423.18 L1746.8 1423.18  Z" fill="#e26f46" fill-rule="evenodd" fill-opacity="1"/>
<polyline clip-path="url(#clip432)" style="stroke:#000000; stroke-linecap:round; stroke-linejoin:round; stroke-width:4; stroke-opacity:1; fill:none" points="1746.8,1423.18 1746.8,1423.18 1787.28,1423.18 1746.8,1423.18 "/>
<path clip-path="url(#clip432)" d="M1787.28 1411.32 L1787.28 1423.18 L1827.77 1423.18 L1827.77 1411.32 L1787.28 1411.32 L1787.28 1411.32  Z" fill="#e26f46" fill-rule="evenodd" fill-opacity="1"/>
<polyline clip-path="url(#clip432)" style="stroke:#000000; stroke-linecap:round; stroke-linejoin:round; stroke-width:4; stroke-opacity:1; fill:none" points="1787.28,1411.32 1787.28,1423.18 1827.77,1423.18 1827.77,1411.32 1787.28,1411.32 "/>
<path clip-path="url(#clip432)" d="M1827.77 1423.18 L1827.77 1423.18 L1868.26 1423.18 L1868.26 1423.18 L1827.77 1423.18 L1827.77 1423.18  Z" fill="#e26f46" fill-rule="evenodd" fill-opacity="1"/>
<polyline clip-path="url(#clip432)" style="stroke:#000000; stroke-linecap:round; stroke-linejoin:round; stroke-width:4; stroke-opacity:1; fill:none" points="1827.77,1423.18 1827.77,1423.18 1868.26,1423.18 1827.77,1423.18 "/>
<path clip-path="url(#clip432)" d="M1868.26 1411.32 L1868.26 1423.18 L1908.75 1423.18 L1908.75 1411.32 L1868.26 1411.32 L1868.26 1411.32  Z" fill="#e26f46" fill-rule="evenodd" fill-opacity="1"/>
<polyline clip-path="url(#clip432)" style="stroke:#000000; stroke-linecap:round; stroke-linejoin:round; stroke-width:4; stroke-opacity:1; fill:none" points="1868.26,1411.32 1868.26,1423.18 1908.75,1423.18 1908.75,1411.32 1868.26,1411.32 "/>
<circle clip-path="url(#clip432)" style="fill:#e26f46; stroke:none; fill-opacity:0" cx="835.814" cy="1411.32" r="2"/>
<circle clip-path="url(#clip432)" style="fill:#e26f46; stroke:none; fill-opacity:0" cx="876.302" cy="1399.46" r="2"/>
<circle clip-path="url(#clip432)" style="fill:#e26f46; stroke:none; fill-opacity:0" cx="916.79" cy="1245.26" r="2"/>
<circle clip-path="url(#clip432)" style="fill:#e26f46; stroke:none; fill-opacity:0" cx="957.278" cy="1257.12" r="2"/>
<circle clip-path="url(#clip432)" style="fill:#e26f46; stroke:none; fill-opacity:0" cx="997.766" cy="1043.61" r="2"/>
<circle clip-path="url(#clip432)" style="fill:#e26f46; stroke:none; fill-opacity:0" cx="1038.25" cy="1091.06" r="2"/>
<circle clip-path="url(#clip432)" style="fill:#e26f46; stroke:none; fill-opacity:0" cx="1078.74" cy="735.212" r="2"/>
<circle clip-path="url(#clip432)" style="fill:#e26f46; stroke:none; fill-opacity:0" cx="1119.23" cy="652.181" r="2"/>
<circle clip-path="url(#clip432)" style="fill:#e26f46; stroke:none; fill-opacity:0" cx="1159.72" cy="391.228" r="2"/>
<circle clip-path="url(#clip432)" style="fill:#e26f46; stroke:none; fill-opacity:0" cx="1200.21" cy="284.474" r="2"/>
<circle clip-path="url(#clip432)" style="fill:#e26f46; stroke:none; fill-opacity:0" cx="1240.69" cy="82.8286" r="2"/>
<circle clip-path="url(#clip432)" style="fill:#e26f46; stroke:none; fill-opacity:0" cx="1281.18" cy="94.6902" r="2"/>
<circle clip-path="url(#clip432)" style="fill:#e26f46; stroke:none; fill-opacity:0" cx="1321.67" cy="355.643" r="2"/>
<circle clip-path="url(#clip432)" style="fill:#e26f46; stroke:none; fill-opacity:0" cx="1362.16" cy="438.674" r="2"/>
<circle clip-path="url(#clip432)" style="fill:#e26f46; stroke:none; fill-opacity:0" cx="1402.65" cy="592.874" r="2"/>
<circle clip-path="url(#clip432)" style="fill:#e26f46; stroke:none; fill-opacity:0" cx="1443.13" cy="936.858" r="2"/>
<circle clip-path="url(#clip432)" style="fill:#e26f46; stroke:none; fill-opacity:0" cx="1483.62" cy="1031.75" r="2"/>
<circle clip-path="url(#clip432)" style="fill:#e26f46; stroke:none; fill-opacity:0" cx="1524.11" cy="1079.2" r="2"/>
<circle clip-path="url(#clip432)" style="fill:#e26f46; stroke:none; fill-opacity:0" cx="1564.6" cy="1257.12" r="2"/>
<circle clip-path="url(#clip432)" style="fill:#e26f46; stroke:none; fill-opacity:0" cx="1605.09" cy="1292.7" r="2"/>
<circle clip-path="url(#clip432)" style="fill:#e26f46; stroke:none; fill-opacity:0" cx="1645.58" cy="1387.6" r="2"/>
<circle clip-path="url(#clip432)" style="fill:#e26f46; stroke:none; fill-opacity:0" cx="1686.06" cy="1411.32" r="2"/>
<circle clip-path="url(#clip432)" style="fill:#e26f46; stroke:none; fill-opacity:0" cx="1726.55" cy="1423.18" r="2"/>
<circle clip-path="url(#clip432)" style="fill:#e26f46; stroke:none; fill-opacity:0" cx="1767.04" cy="1423.18" r="2"/>
<circle clip-path="url(#clip432)" style="fill:#e26f46; stroke:none; fill-opacity:0" cx="1807.53" cy="1411.32" r="2"/>
<circle clip-path="url(#clip432)" style="fill:#e26f46; stroke:none; fill-opacity:0" cx="1848.02" cy="1423.18" r="2"/>
<circle clip-path="url(#clip432)" style="fill:#e26f46; stroke:none; fill-opacity:0" cx="1888.5" cy="1411.32" r="2"/>
<path clip-path="url(#clip430)" d="M1770.52 248.629 L2279.97 248.629 L2279.97 93.1086 L1770.52 93.1086  Z" fill="#ffffff" fill-rule="evenodd" fill-opacity="1"/>
<polyline clip-path="url(#clip430)" style="stroke:#000000; stroke-linecap:round; stroke-linejoin:round; stroke-width:4; stroke-opacity:1; fill:none" points="1770.52,248.629 2279.97,248.629 2279.97,93.1086 1770.52,93.1086 1770.52,248.629 "/>
<path clip-path="url(#clip430)" d="M1794.78 165.685 L1940.36 165.685 L1940.36 124.213 L1794.78 124.213 L1794.78 165.685  Z" fill="#009af9" fill-rule="evenodd" fill-opacity="1"/>
<polyline clip-path="url(#clip430)" style="stroke:#000000; stroke-linecap:round; stroke-linejoin:round; stroke-width:4; stroke-opacity:1; fill:none" points="1794.78,165.685 1940.36,165.685 1940.36,124.213 1794.78,124.213 1794.78,165.685 "/>
<path clip-path="url(#clip430)" d="M1981.01 146.025 Q1982.51 146.534 1983.92 148.201 Q1985.36 149.868 1986.79 152.784 L1991.54 162.229 L1986.52 162.229 L1982.1 153.363 Q1980.38 149.891 1978.76 148.756 Q1977.17 147.622 1974.39 147.622 L1969.29 147.622 L1969.29 162.229 L1964.62 162.229 L1964.62 127.669 L1975.17 127.669 Q1981.1 127.669 1984.02 130.145 Q1986.93 132.622 1986.93 137.622 Q1986.93 140.886 1985.41 143.039 Q1983.9 145.192 1981.01 146.025 M1969.29 131.511 L1969.29 143.78 L1975.17 143.78 Q1978.55 143.78 1980.27 142.229 Q1982 140.655 1982 137.622 Q1982 134.59 1980.27 133.062 Q1978.55 131.511 1975.17 131.511 L1969.29 131.511 Z" fill="#000000" fill-rule="nonzero" fill-opacity="1" /><path clip-path="url(#clip430)" d="M2013 140.701 L2042.67 140.701 L2042.67 144.59 L2013 144.59 L2013 140.701 M2013 150.145 L2042.67 150.145 L2042.67 154.081 L2013 154.081 L2013 150.145 Z" fill="#000000" fill-rule="nonzero" fill-opacity="1" /><path clip-path="url(#clip430)" d="M2077.84 130.747 Q2074.22 130.747 2072.4 134.312 Q2070.59 137.854 2070.59 144.983 Q2070.59 152.09 2072.4 155.655 Q2074.22 159.196 2077.84 159.196 Q2081.47 159.196 2083.28 155.655 Q2085.1 152.09 2085.1 144.983 Q2085.1 137.854 2083.28 134.312 Q2081.47 130.747 2077.84 130.747 M2077.84 127.044 Q2083.65 127.044 2086.7 131.65 Q2089.78 136.233 2089.78 144.983 Q2089.78 153.71 2086.7 158.317 Q2083.65 162.9 2077.84 162.9 Q2072.03 162.9 2068.95 158.317 Q2065.89 153.71 2065.89 144.983 Q2065.89 136.233 2068.95 131.65 Q2072.03 127.044 2077.84 127.044 Z" fill="#000000" fill-rule="nonzero" fill-opacity="1" /><path clip-path="url(#clip430)" d="M2098 156.349 L2102.88 156.349 L2102.88 162.229 L2098 162.229 L2098 156.349 Z" fill="#000000" fill-rule="nonzero" fill-opacity="1" /><path clip-path="url(#clip430)" d="M2123.07 130.747 Q2119.46 130.747 2117.63 134.312 Q2115.82 137.854 2115.82 144.983 Q2115.82 152.09 2117.63 155.655 Q2119.46 159.196 2123.07 159.196 Q2126.7 159.196 2128.51 155.655 Q2130.34 152.09 2130.34 144.983 Q2130.34 137.854 2128.51 134.312 Q2126.7 130.747 2123.07 130.747 M2123.07 127.044 Q2128.88 127.044 2131.93 131.65 Q2135.01 136.233 2135.01 144.983 Q2135.01 153.71 2131.93 158.317 Q2128.88 162.9 2123.07 162.9 Q2117.26 162.9 2114.18 158.317 Q2111.12 153.71 2111.12 144.983 Q2111.12 136.233 2114.18 131.65 Q2117.26 127.044 2123.07 127.044 Z" fill="#000000" fill-rule="nonzero" fill-opacity="1" /><path clip-path="url(#clip430)" d="M2153.23 130.747 Q2149.62 130.747 2147.79 134.312 Q2145.98 137.854 2145.98 144.983 Q2145.98 152.09 2147.79 155.655 Q2149.62 159.196 2153.23 159.196 Q2156.86 159.196 2158.67 155.655 Q2160.5 152.09 2160.5 144.983 Q2160.5 137.854 2158.67 134.312 Q2156.86 130.747 2153.23 130.747 M2153.23 127.044 Q2159.04 127.044 2162.09 131.65 Q2165.17 136.233 2165.17 144.983 Q2165.17 153.71 2162.09 158.317 Q2159.04 162.9 2153.23 162.9 Q2147.42 162.9 2144.34 158.317 Q2141.28 153.71 2141.28 144.983 Q2141.28 136.233 2144.34 131.65 Q2147.42 127.044 2153.23 127.044 Z" fill="#000000" fill-rule="nonzero" fill-opacity="1" /><path clip-path="url(#clip430)" d="M2173.44 127.669 L2191.79 127.669 L2191.79 131.604 L2177.72 131.604 L2177.72 140.076 Q2178.74 139.729 2179.76 139.567 Q2180.78 139.382 2181.79 139.382 Q2187.58 139.382 2190.96 142.553 Q2194.34 145.724 2194.34 151.141 Q2194.34 156.719 2190.87 159.821 Q2187.4 162.9 2181.08 162.9 Q2178.9 162.9 2176.63 162.53 Q2174.39 162.159 2171.98 161.418 L2171.98 156.719 Q2174.06 157.854 2176.28 158.409 Q2178.51 158.965 2180.98 158.965 Q2184.99 158.965 2187.33 156.858 Q2189.66 154.752 2189.66 151.141 Q2189.66 147.53 2187.33 145.423 Q2184.99 143.317 2180.98 143.317 Q2179.11 143.317 2177.23 143.733 Q2175.38 144.15 2173.44 145.03 L2173.44 127.669 Z" fill="#000000" fill-rule="nonzero" fill-opacity="1" /><path clip-path="url(#clip430)" d="M2238.21 141.28 Q2239.8 138.409 2242.02 137.044 Q2244.25 135.678 2247.26 135.678 Q2251.31 135.678 2253.51 138.525 Q2255.71 141.349 2255.71 146.581 L2255.71 162.229 L2251.42 162.229 L2251.42 146.719 Q2251.42 142.993 2250.1 141.187 Q2248.78 139.382 2246.08 139.382 Q2242.77 139.382 2240.84 141.581 Q2238.92 143.78 2238.92 147.576 L2238.92 162.229 L2234.64 162.229 L2234.64 146.719 Q2234.64 142.969 2233.32 141.187 Q2232 139.382 2229.25 139.382 Q2225.98 139.382 2224.06 141.604 Q2222.14 143.803 2222.14 147.576 L2222.14 162.229 L2217.86 162.229 L2217.86 136.303 L2222.14 136.303 L2222.14 140.331 Q2223.6 137.946 2225.64 136.812 Q2227.67 135.678 2230.47 135.678 Q2233.3 135.678 2235.27 137.113 Q2237.26 138.548 2238.21 141.28 Z" fill="#000000" fill-rule="nonzero" fill-opacity="1" /><path clip-path="url(#clip430)" d="M1794.78 217.525 L1940.36 217.525 L1940.36 176.053 L1794.78 176.053 L1794.78 217.525  Z" fill="#e26f46" fill-rule="evenodd" fill-opacity="1"/>
<polyline clip-path="url(#clip430)" style="stroke:#000000; stroke-linecap:round; stroke-linejoin:round; stroke-width:4; stroke-opacity:1; fill:none" points="1794.78,217.525 1940.36,217.525 1940.36,176.053 1794.78,176.053 1794.78,217.525 "/>
<path clip-path="url(#clip430)" d="M1981.01 197.865 Q1982.51 198.374 1983.92 200.041 Q1985.36 201.708 1986.79 204.624 L1991.54 214.069 L1986.52 214.069 L1982.1 205.203 Q1980.38 201.731 1978.76 200.596 Q1977.17 199.462 1974.39 199.462 L1969.29 199.462 L1969.29 214.069 L1964.62 214.069 L1964.62 179.509 L1975.17 179.509 Q1981.1 179.509 1984.02 181.985 Q1986.93 184.462 1986.93 189.462 Q1986.93 192.726 1985.41 194.879 Q1983.9 197.032 1981.01 197.865 M1969.29 183.351 L1969.29 195.62 L1975.17 195.62 Q1978.55 195.62 1980.27 194.069 Q1982 192.495 1982 189.462 Q1982 186.43 1980.27 184.902 Q1978.55 183.351 1975.17 183.351 L1969.29 183.351 Z" fill="#000000" fill-rule="nonzero" fill-opacity="1" /><path clip-path="url(#clip430)" d="M2013 192.541 L2042.67 192.541 L2042.67 196.43 L2013 196.43 L2013 192.541 M2013 201.985 L2042.67 201.985 L2042.67 205.921 L2013 205.921 L2013 201.985 Z" fill="#000000" fill-rule="nonzero" fill-opacity="1" /><path clip-path="url(#clip430)" d="M2077.84 182.587 Q2074.22 182.587 2072.4 186.152 Q2070.59 189.694 2070.59 196.823 Q2070.59 203.93 2072.4 207.495 Q2074.22 211.036 2077.84 211.036 Q2081.47 211.036 2083.28 207.495 Q2085.1 203.93 2085.1 196.823 Q2085.1 189.694 2083.28 186.152 Q2081.47 182.587 2077.84 182.587 M2077.84 178.884 Q2083.65 178.884 2086.7 183.49 Q2089.78 188.073 2089.78 196.823 Q2089.78 205.55 2086.7 210.157 Q2083.65 214.74 2077.84 214.74 Q2072.03 214.74 2068.95 210.157 Q2065.89 205.55 2065.89 196.823 Q2065.89 188.073 2068.95 183.49 Q2072.03 178.884 2077.84 178.884 Z" fill="#000000" fill-rule="nonzero" fill-opacity="1" /><path clip-path="url(#clip430)" d="M2098 208.189 L2102.88 208.189 L2102.88 214.069 L2098 214.069 L2098 208.189 Z" fill="#000000" fill-rule="nonzero" fill-opacity="1" /><path clip-path="url(#clip430)" d="M2123.07 182.587 Q2119.46 182.587 2117.63 186.152 Q2115.82 189.694 2115.82 196.823 Q2115.82 203.93 2117.63 207.495 Q2119.46 211.036 2123.07 211.036 Q2126.7 211.036 2128.51 207.495 Q2130.34 203.93 2130.34 196.823 Q2130.34 189.694 2128.51 186.152 Q2126.7 182.587 2123.07 182.587 M2123.07 178.884 Q2128.88 178.884 2131.93 183.49 Q2135.01 188.073 2135.01 196.823 Q2135.01 205.55 2131.93 210.157 Q2128.88 214.74 2123.07 214.74 Q2117.26 214.74 2114.18 210.157 Q2111.12 205.55 2111.12 196.823 Q2111.12 188.073 2114.18 183.49 Q2117.26 178.884 2123.07 178.884 Z" fill="#000000" fill-rule="nonzero" fill-opacity="1" /><path clip-path="url(#clip430)" d="M2144.04 210.133 L2151.68 210.133 L2151.68 183.768 L2143.37 185.435 L2143.37 181.175 L2151.63 179.509 L2156.31 179.509 L2156.31 210.133 L2163.95 210.133 L2163.95 214.069 L2144.04 214.069 L2144.04 210.133 Z" fill="#000000" fill-rule="nonzero" fill-opacity="1" /><path clip-path="url(#clip430)" d="M2208.04 193.12 Q2209.64 190.249 2211.86 188.884 Q2214.09 187.518 2217.09 187.518 Q2221.15 187.518 2223.34 190.365 Q2225.54 193.189 2225.54 198.421 L2225.54 214.069 L2221.26 214.069 L2221.26 198.559 Q2221.26 194.833 2219.94 193.027 Q2218.62 191.222 2215.91 191.222 Q2212.6 191.222 2210.68 193.421 Q2208.76 195.62 2208.76 199.416 L2208.76 214.069 L2204.48 214.069 L2204.48 198.559 Q2204.48 194.809 2203.16 193.027 Q2201.84 191.222 2199.09 191.222 Q2195.82 191.222 2193.9 193.444 Q2191.98 195.643 2191.98 199.416 L2191.98 214.069 L2187.7 214.069 L2187.7 188.143 L2191.98 188.143 L2191.98 192.171 Q2193.44 189.786 2195.47 188.652 Q2197.51 187.518 2200.31 187.518 Q2203.14 187.518 2205.1 188.953 Q2207.09 190.388 2208.04 193.12 Z" fill="#000000" fill-rule="nonzero" fill-opacity="1" /></svg>
