<?xml version="1.0" encoding="utf-8"?>
<svg xmlns="http://www.w3.org/2000/svg" xmlns:xlink="http://www.w3.org/1999/xlink" width="600" height="400" viewBox="0 0 2400 1600">
<defs>
  <clipPath id="clip250">
    <rect x="0" y="0" width="2400" height="1600"/>
  </clipPath>
</defs>
<path clip-path="url(#clip250)" d="M0 1600 L2400 1600 L2400 0 L0 0  Z" fill="#ffffff" fill-rule="evenodd" fill-opacity="1"/>
<defs>
  <clipPath id="clip251">
    <rect x="480" y="0" width="1681" height="1600"/>
  </clipPath>
</defs>
<path clip-path="url(#clip250)" d="M169.121 1423.18 L2352.76 1423.18 L2352.76 47.2441 L169.121 47.2441  Z" fill="#ffffff" fill-rule="evenodd" fill-opacity="1"/>
<defs>
  <clipPath id="clip252">
    <rect x="169" y="47" width="2185" height="1377"/>
  </clipPath>
</defs>
<polyline clip-path="url(#clip252)" style="stroke:#000000; stroke-linecap:round; stroke-linejoin:round; stroke-width:2; stroke-opacity:0.1; fill:none" points="211.488,1423.18 211.488,47.2441 "/>
<polyline clip-path="url(#clip252)" style="stroke:#000000; stroke-linecap:round; stroke-linejoin:round; stroke-width:2; stroke-opacity:0.1; fill:none" points="600.173,1423.18 600.173,47.2441 "/>
<polyline clip-path="url(#clip252)" style="stroke:#000000; stroke-linecap:round; stroke-linejoin:round; stroke-width:2; stroke-opacity:0.1; fill:none" points="988.859,1423.18 988.859,47.2441 "/>
<polyline clip-path="url(#clip252)" style="stroke:#000000; stroke-linecap:round; stroke-linejoin:round; stroke-width:2; stroke-opacity:0.1; fill:none" points="1377.54,1423.18 1377.54,47.2441 "/>
<polyline clip-path="url(#clip252)" style="stroke:#000000; stroke-linecap:round; stroke-linejoin:round; stroke-width:2; stroke-opacity:0.1; fill:none" points="1766.23,1423.18 1766.23,47.2441 "/>
<polyline clip-path="url(#clip252)" style="stroke:#000000; stroke-linecap:round; stroke-linejoin:round; stroke-width:2; stroke-opacity:0.1; fill:none" points="2154.92,1423.18 2154.92,47.2441 "/>
<polyline clip-path="url(#clip252)" style="stroke:#000000; stroke-linecap:round; stroke-linejoin:round; stroke-width:2; stroke-opacity:0.1; fill:none" points="169.121,1423.18 2352.76,1423.18 "/>
<polyline clip-path="url(#clip252)" style="stroke:#000000; stroke-linecap:round; stroke-linejoin:round; stroke-width:2; stroke-opacity:0.1; fill:none" points="169.121,1143.52 2352.76,1143.52 "/>
<polyline clip-path="url(#clip252)" style="stroke:#000000; stroke-linecap:round; stroke-linejoin:round; stroke-width:2; stroke-opacity:0.1; fill:none" points="169.121,863.856 2352.76,863.856 "/>
<polyline clip-path="url(#clip252)" style="stroke:#000000; stroke-linecap:round; stroke-linejoin:round; stroke-width:2; stroke-opacity:0.1; fill:none" points="169.121,584.195 2352.76,584.195 "/>
<polyline clip-path="url(#clip252)" style="stroke:#000000; stroke-linecap:round; stroke-linejoin:round; stroke-width:2; stroke-opacity:0.1; fill:none" points="169.121,304.533 2352.76,304.533 "/>
<polyline clip-path="url(#clip250)" style="stroke:#000000; stroke-linecap:round; stroke-linejoin:round; stroke-width:4; stroke-opacity:1; fill:none" points="169.121,1423.18 2352.76,1423.18 "/>
<polyline clip-path="url(#clip250)" style="stroke:#000000; stroke-linecap:round; stroke-linejoin:round; stroke-width:4; stroke-opacity:1; fill:none" points="211.488,1423.18 211.488,1404.28 "/>
<polyline clip-path="url(#clip250)" style="stroke:#000000; stroke-linecap:round; stroke-linejoin:round; stroke-width:4; stroke-opacity:1; fill:none" points="600.173,1423.18 600.173,1404.28 "/>
<polyline clip-path="url(#clip250)" style="stroke:#000000; stroke-linecap:round; stroke-linejoin:round; stroke-width:4; stroke-opacity:1; fill:none" points="988.859,1423.18 988.859,1404.28 "/>
<polyline clip-path="url(#clip250)" style="stroke:#000000; stroke-linecap:round; stroke-linejoin:round; stroke-width:4; stroke-opacity:1; fill:none" points="1377.54,1423.18 1377.54,1404.28 "/>
<polyline clip-path="url(#clip250)" style="stroke:#000000; stroke-linecap:round; stroke-linejoin:round; stroke-width:4; stroke-opacity:1; fill:none" points="1766.23,1423.18 1766.23,1404.28 "/>
<polyline clip-path="url(#clip250)" style="stroke:#000000; stroke-linecap:round; stroke-linejoin:round; stroke-width:4; stroke-opacity:1; fill:none" points="2154.92,1423.18 2154.92,1404.28 "/>
<path clip-path="url(#clip250)" d="M173.791 1454.1 Q170.18 1454.1 168.352 1457.66 Q166.546 1461.2 166.546 1468.33 Q166.546 1475.44 168.352 1479.01 Q170.18 1482.55 173.791 1482.55 Q177.426 1482.55 179.231 1479.01 Q181.06 1475.44 181.06 1468.33 Q181.06 1461.2 179.231 1457.66 Q177.426 1454.1 173.791 1454.1 M173.791 1450.39 Q179.602 1450.39 182.657 1455 Q185.736 1459.58 185.736 1468.33 Q185.736 1477.06 182.657 1481.67 Q179.602 1486.25 173.791 1486.25 Q167.981 1486.25 164.903 1481.67 Q161.847 1477.06 161.847 1468.33 Q161.847 1459.58 164.903 1455 Q167.981 1450.39 173.791 1450.39 Z" fill="#000000" fill-rule="nonzero" fill-opacity="1" /><path clip-path="url(#clip250)" d="M193.953 1479.7 L198.838 1479.7 L198.838 1485.58 L193.953 1485.58 L193.953 1479.7 Z" fill="#000000" fill-rule="nonzero" fill-opacity="1" /><path clip-path="url(#clip250)" d="M207.842 1451.02 L230.064 1451.02 L230.064 1453.01 L217.518 1485.58 L212.634 1485.58 L224.439 1454.96 L207.842 1454.96 L207.842 1451.02 Z" fill="#000000" fill-rule="nonzero" fill-opacity="1" /><path clip-path="url(#clip250)" d="M249.185 1454.1 Q245.573 1454.1 243.745 1457.66 Q241.939 1461.2 241.939 1468.33 Q241.939 1475.44 243.745 1479.01 Q245.573 1482.55 249.185 1482.55 Q252.819 1482.55 254.624 1479.01 Q256.453 1475.44 256.453 1468.33 Q256.453 1461.2 254.624 1457.66 Q252.819 1454.1 249.185 1454.1 M249.185 1450.39 Q254.995 1450.39 258.05 1455 Q261.129 1459.58 261.129 1468.33 Q261.129 1477.06 258.05 1481.67 Q254.995 1486.25 249.185 1486.25 Q243.374 1486.25 240.296 1481.67 Q237.24 1477.06 237.24 1468.33 Q237.24 1459.58 240.296 1455 Q243.374 1450.39 249.185 1450.39 Z" fill="#000000" fill-rule="nonzero" fill-opacity="1" /><path clip-path="url(#clip250)" d="M562.975 1454.1 Q559.363 1454.1 557.535 1457.66 Q555.729 1461.2 555.729 1468.33 Q555.729 1475.44 557.535 1479.01 Q559.363 1482.55 562.975 1482.55 Q566.609 1482.55 568.414 1479.01 Q570.243 1475.44 570.243 1468.33 Q570.243 1461.2 568.414 1457.66 Q566.609 1454.1 562.975 1454.1 M562.975 1450.39 Q568.785 1450.39 571.84 1455 Q574.919 1459.58 574.919 1468.33 Q574.919 1477.06 571.84 1481.67 Q568.785 1486.25 562.975 1486.25 Q557.164 1486.25 554.086 1481.67 Q551.03 1477.06 551.03 1468.33 Q551.03 1459.58 554.086 1455 Q557.164 1450.39 562.975 1450.39 Z" fill="#000000" fill-rule="nonzero" fill-opacity="1" /><path clip-path="url(#clip250)" d="M583.136 1479.7 L588.021 1479.7 L588.021 1485.58 L583.136 1485.58 L583.136 1479.7 Z" fill="#000000" fill-rule="nonzero" fill-opacity="1" /><path clip-path="url(#clip250)" d="M597.025 1451.02 L619.247 1451.02 L619.247 1453.01 L606.701 1485.58 L601.817 1485.58 L613.622 1454.96 L597.025 1454.96 L597.025 1451.02 Z" fill="#000000" fill-rule="nonzero" fill-opacity="1" /><path clip-path="url(#clip250)" d="M628.414 1451.02 L646.77 1451.02 L646.77 1454.96 L632.696 1454.96 L632.696 1463.43 Q633.715 1463.08 634.733 1462.92 Q635.752 1462.73 636.77 1462.73 Q642.557 1462.73 645.937 1465.9 Q649.317 1469.08 649.317 1474.49 Q649.317 1480.07 645.844 1483.17 Q642.372 1486.25 636.053 1486.25 Q633.877 1486.25 631.608 1485.88 Q629.363 1485.51 626.956 1484.77 L626.956 1480.07 Q629.039 1481.2 631.261 1481.76 Q633.483 1482.32 635.96 1482.32 Q639.965 1482.32 642.303 1480.21 Q644.641 1478.1 644.641 1474.49 Q644.641 1470.88 642.303 1468.77 Q639.965 1466.67 635.96 1466.67 Q634.085 1466.67 632.21 1467.08 Q630.358 1467.5 628.414 1468.38 L628.414 1451.02 Z" fill="#000000" fill-rule="nonzero" fill-opacity="1" /><path clip-path="url(#clip250)" d="M951.162 1454.1 Q947.551 1454.1 945.722 1457.66 Q943.917 1461.2 943.917 1468.33 Q943.917 1475.44 945.722 1479.01 Q947.551 1482.55 951.162 1482.55 Q954.797 1482.55 956.602 1479.01 Q958.431 1475.44 958.431 1468.33 Q958.431 1461.2 956.602 1457.66 Q954.797 1454.1 951.162 1454.1 M951.162 1450.39 Q956.972 1450.39 960.028 1455 Q963.107 1459.58 963.107 1468.33 Q963.107 1477.06 960.028 1481.67 Q956.972 1486.25 951.162 1486.25 Q945.352 1486.25 942.273 1481.67 Q939.218 1477.06 939.218 1468.33 Q939.218 1459.58 942.273 1455 Q945.352 1450.39 951.162 1450.39 Z" fill="#000000" fill-rule="nonzero" fill-opacity="1" /><path clip-path="url(#clip250)" d="M971.324 1479.7 L976.208 1479.7 L976.208 1485.58 L971.324 1485.58 L971.324 1479.7 Z" fill="#000000" fill-rule="nonzero" fill-opacity="1" /><path clip-path="url(#clip250)" d="M996.394 1469.17 Q993.06 1469.17 991.139 1470.95 Q989.241 1472.73 989.241 1475.86 Q989.241 1478.98 991.139 1480.77 Q993.06 1482.55 996.394 1482.55 Q999.727 1482.55 1001.65 1480.77 Q1003.57 1478.96 1003.57 1475.86 Q1003.57 1472.73 1001.65 1470.95 Q999.75 1469.17 996.394 1469.17 M991.718 1467.18 Q988.708 1466.44 987.019 1464.38 Q985.352 1462.32 985.352 1459.35 Q985.352 1455.21 988.292 1452.8 Q991.255 1450.39 996.394 1450.39 Q1001.56 1450.39 1004.5 1452.8 Q1007.44 1455.21 1007.44 1459.35 Q1007.44 1462.32 1005.75 1464.38 Q1004.08 1466.44 1001.09 1467.18 Q1004.47 1467.96 1006.35 1470.26 Q1008.25 1472.55 1008.25 1475.86 Q1008.25 1480.88 1005.17 1483.57 Q1002.11 1486.25 996.394 1486.25 Q990.676 1486.25 987.597 1483.57 Q984.542 1480.88 984.542 1475.86 Q984.542 1472.55 986.44 1470.26 Q988.338 1467.96 991.718 1467.18 M990.005 1459.79 Q990.005 1462.48 991.671 1463.98 Q993.361 1465.49 996.394 1465.49 Q999.403 1465.49 1001.09 1463.98 Q1002.81 1462.48 1002.81 1459.79 Q1002.81 1457.11 1001.09 1455.6 Q999.403 1454.1 996.394 1454.1 Q993.361 1454.1 991.671 1455.6 Q990.005 1457.11 990.005 1459.79 Z" fill="#000000" fill-rule="nonzero" fill-opacity="1" /><path clip-path="url(#clip250)" d="M1026.56 1454.1 Q1022.94 1454.1 1021.12 1457.66 Q1019.31 1461.2 1019.31 1468.33 Q1019.31 1475.44 1021.12 1479.01 Q1022.94 1482.55 1026.56 1482.55 Q1030.19 1482.55 1032 1479.01 Q1033.82 1475.44 1033.82 1468.33 Q1033.82 1461.2 1032 1457.66 Q1030.19 1454.1 1026.56 1454.1 M1026.56 1450.39 Q1032.37 1450.39 1035.42 1455 Q1038.5 1459.58 1038.5 1468.33 Q1038.5 1477.06 1035.42 1481.67 Q1032.37 1486.25 1026.56 1486.25 Q1020.75 1486.25 1017.67 1481.67 Q1014.61 1477.06 1014.61 1468.33 Q1014.61 1459.58 1017.67 1455 Q1020.75 1450.39 1026.56 1450.39 Z" fill="#000000" fill-rule="nonzero" fill-opacity="1" /><path clip-path="url(#clip250)" d="M1340.35 1454.1 Q1336.73 1454.1 1334.91 1457.66 Q1333.1 1461.2 1333.1 1468.33 Q1333.1 1475.44 1334.91 1479.01 Q1336.73 1482.55 1340.35 1482.55 Q1343.98 1482.55 1345.79 1479.01 Q1347.61 1475.44 1347.61 1468.33 Q1347.61 1461.2 1345.79 1457.66 Q1343.98 1454.1 1340.35 1454.1 M1340.35 1450.39 Q1346.16 1450.39 1349.21 1455 Q1352.29 1459.58 1352.29 1468.33 Q1352.29 1477.06 1349.21 1481.67 Q1346.16 1486.25 1340.35 1486.25 Q1334.54 1486.25 1331.46 1481.67 Q1328.4 1477.06 1328.4 1468.33 Q1328.4 1459.58 1331.46 1455 Q1334.54 1450.39 1340.35 1450.39 Z" fill="#000000" fill-rule="nonzero" fill-opacity="1" /><path clip-path="url(#clip250)" d="M1360.51 1479.7 L1365.39 1479.7 L1365.39 1485.58 L1360.51 1485.58 L1360.51 1479.7 Z" fill="#000000" fill-rule="nonzero" fill-opacity="1" /><path clip-path="url(#clip250)" d="M1385.58 1469.17 Q1382.24 1469.17 1380.32 1470.95 Q1378.42 1472.73 1378.42 1475.86 Q1378.42 1478.98 1380.32 1480.77 Q1382.24 1482.55 1385.58 1482.55 Q1388.91 1482.55 1390.83 1480.77 Q1392.75 1478.96 1392.75 1475.86 Q1392.75 1472.73 1390.83 1470.95 Q1388.93 1469.17 1385.58 1469.17 M1380.9 1467.18 Q1377.89 1466.44 1376.2 1464.38 Q1374.53 1462.32 1374.53 1459.35 Q1374.53 1455.21 1377.47 1452.8 Q1380.44 1450.39 1385.58 1450.39 Q1390.74 1450.39 1393.68 1452.8 Q1396.62 1455.21 1396.62 1459.35 Q1396.62 1462.32 1394.93 1464.38 Q1393.26 1466.44 1390.28 1467.18 Q1393.66 1467.96 1395.53 1470.26 Q1397.43 1472.55 1397.43 1475.86 Q1397.43 1480.88 1394.35 1483.57 Q1391.29 1486.25 1385.58 1486.25 Q1379.86 1486.25 1376.78 1483.57 Q1373.72 1480.88 1373.72 1475.86 Q1373.72 1472.55 1375.62 1470.26 Q1377.52 1467.96 1380.9 1467.18 M1379.19 1459.79 Q1379.19 1462.48 1380.85 1463.98 Q1382.54 1465.49 1385.58 1465.49 Q1388.59 1465.49 1390.28 1463.98 Q1391.99 1462.48 1391.99 1459.79 Q1391.99 1457.11 1390.28 1455.6 Q1388.59 1454.1 1385.58 1454.1 Q1382.54 1454.1 1380.85 1455.6 Q1379.19 1457.11 1379.19 1459.79 Z" fill="#000000" fill-rule="nonzero" fill-opacity="1" /><path clip-path="url(#clip250)" d="M1405.78 1451.02 L1424.14 1451.02 L1424.14 1454.96 L1410.07 1454.96 L1410.07 1463.43 Q1411.09 1463.08 1412.1 1462.92 Q1413.12 1462.73 1414.14 1462.73 Q1419.93 1462.73 1423.31 1465.9 Q1426.69 1469.08 1426.69 1474.49 Q1426.69 1480.07 1423.22 1483.17 Q1419.74 1486.25 1413.42 1486.25 Q1411.25 1486.25 1408.98 1485.88 Q1406.73 1485.51 1404.33 1484.77 L1404.33 1480.07 Q1406.41 1481.2 1408.63 1481.76 Q1410.85 1482.32 1413.33 1482.32 Q1417.34 1482.32 1419.67 1480.21 Q1422.01 1478.1 1422.01 1474.49 Q1422.01 1470.88 1419.67 1468.77 Q1417.34 1466.67 1413.33 1466.67 Q1411.46 1466.67 1409.58 1467.08 Q1407.73 1467.5 1405.78 1468.38 L1405.78 1451.02 Z" fill="#000000" fill-rule="nonzero" fill-opacity="1" /><path clip-path="url(#clip250)" d="M1728.53 1454.1 Q1724.92 1454.1 1723.09 1457.66 Q1721.29 1461.2 1721.29 1468.33 Q1721.29 1475.44 1723.09 1479.01 Q1724.92 1482.55 1728.53 1482.55 Q1732.17 1482.55 1733.97 1479.01 Q1735.8 1475.44 1735.8 1468.33 Q1735.8 1461.2 1733.97 1457.66 Q1732.17 1454.1 1728.53 1454.1 M1728.53 1450.39 Q1734.34 1450.39 1737.4 1455 Q1740.48 1459.58 1740.48 1468.33 Q1740.48 1477.06 1737.4 1481.67 Q1734.34 1486.25 1728.53 1486.25 Q1722.72 1486.25 1719.64 1481.67 Q1716.59 1477.06 1716.59 1468.33 Q1716.59 1459.58 1719.64 1455 Q1722.72 1450.39 1728.53 1450.39 Z" fill="#000000" fill-rule="nonzero" fill-opacity="1" /><path clip-path="url(#clip250)" d="M1748.7 1479.7 L1753.58 1479.7 L1753.58 1485.58 L1748.7 1485.58 L1748.7 1479.7 Z" fill="#000000" fill-rule="nonzero" fill-opacity="1" /><path clip-path="url(#clip250)" d="M1763.9 1484.86 L1763.9 1480.6 Q1765.66 1481.44 1767.47 1481.88 Q1769.27 1482.32 1771.01 1482.32 Q1775.64 1482.32 1778.07 1479.21 Q1780.52 1476.09 1780.87 1469.75 Q1779.53 1471.74 1777.47 1472.8 Q1775.41 1473.87 1772.91 1473.87 Q1767.72 1473.87 1764.69 1470.74 Q1761.68 1467.59 1761.68 1462.15 Q1761.68 1456.83 1764.83 1453.61 Q1767.98 1450.39 1773.21 1450.39 Q1779.2 1450.39 1782.35 1455 Q1785.52 1459.58 1785.52 1468.33 Q1785.52 1476.51 1781.63 1481.39 Q1777.77 1486.25 1771.22 1486.25 Q1769.46 1486.25 1767.65 1485.9 Q1765.85 1485.56 1763.9 1484.86 M1773.21 1470.21 Q1776.36 1470.21 1778.19 1468.06 Q1780.04 1465.9 1780.04 1462.15 Q1780.04 1458.43 1778.19 1456.27 Q1776.36 1454.1 1773.21 1454.1 Q1770.06 1454.1 1768.21 1456.27 Q1766.38 1458.43 1766.38 1462.15 Q1766.38 1465.9 1768.21 1468.06 Q1770.06 1470.21 1773.21 1470.21 Z" fill="#000000" fill-rule="nonzero" fill-opacity="1" /><path clip-path="url(#clip250)" d="M1803.93 1454.1 Q1800.32 1454.1 1798.49 1457.66 Q1796.68 1461.2 1796.68 1468.33 Q1796.68 1475.44 1798.49 1479.01 Q1800.32 1482.55 1803.93 1482.55 Q1807.56 1482.55 1809.37 1479.01 Q1811.19 1475.44 1811.19 1468.33 Q1811.19 1461.2 1809.37 1457.66 Q1807.56 1454.1 1803.93 1454.1 M1803.93 1450.39 Q1809.74 1450.39 1812.79 1455 Q1815.87 1459.58 1815.87 1468.33 Q1815.87 1477.06 1812.79 1481.67 Q1809.74 1486.25 1803.93 1486.25 Q1798.12 1486.25 1795.04 1481.67 Q1791.98 1477.06 1791.98 1468.33 Q1791.98 1459.58 1795.04 1455 Q1798.12 1450.39 1803.93 1450.39 Z" fill="#000000" fill-rule="nonzero" fill-opacity="1" /><path clip-path="url(#clip250)" d="M2117.72 1454.1 Q2114.11 1454.1 2112.28 1457.66 Q2110.47 1461.2 2110.47 1468.33 Q2110.47 1475.44 2112.28 1479.01 Q2114.11 1482.55 2117.72 1482.55 Q2121.35 1482.55 2123.16 1479.01 Q2124.98 1475.44 2124.98 1468.33 Q2124.98 1461.2 2123.16 1457.66 Q2121.35 1454.1 2117.72 1454.1 M2117.72 1450.39 Q2123.53 1450.39 2126.58 1455 Q2129.66 1459.58 2129.66 1468.33 Q2129.66 1477.06 2126.58 1481.67 Q2123.53 1486.25 2117.72 1486.25 Q2111.91 1486.25 2108.83 1481.67 Q2105.77 1477.06 2105.77 1468.33 Q2105.77 1459.58 2108.83 1455 Q2111.91 1450.39 2117.72 1450.39 Z" fill="#000000" fill-rule="nonzero" fill-opacity="1" /><path clip-path="url(#clip250)" d="M2137.88 1479.7 L2142.76 1479.7 L2142.76 1485.58 L2137.88 1485.58 L2137.88 1479.7 Z" fill="#000000" fill-rule="nonzero" fill-opacity="1" /><path clip-path="url(#clip250)" d="M2153.09 1484.86 L2153.09 1480.6 Q2154.85 1481.44 2156.65 1481.88 Q2158.46 1482.32 2160.19 1482.32 Q2164.82 1482.32 2167.25 1479.21 Q2169.71 1476.09 2170.05 1469.75 Q2168.71 1471.74 2166.65 1472.8 Q2164.59 1473.87 2162.09 1473.87 Q2156.91 1473.87 2153.87 1470.74 Q2150.86 1467.59 2150.86 1462.15 Q2150.86 1456.83 2154.01 1453.61 Q2157.16 1450.39 2162.39 1450.39 Q2168.39 1450.39 2171.54 1455 Q2174.71 1459.58 2174.71 1468.33 Q2174.71 1476.51 2170.82 1481.39 Q2166.95 1486.25 2160.4 1486.25 Q2158.64 1486.25 2156.84 1485.9 Q2155.03 1485.56 2153.09 1484.86 M2162.39 1470.21 Q2165.54 1470.21 2167.37 1468.06 Q2169.22 1465.9 2169.22 1462.15 Q2169.22 1458.43 2167.37 1456.27 Q2165.54 1454.1 2162.39 1454.1 Q2159.24 1454.1 2157.39 1456.27 Q2155.56 1458.43 2155.56 1462.15 Q2155.56 1465.9 2157.39 1468.06 Q2159.24 1470.21 2162.39 1470.21 Z" fill="#000000" fill-rule="nonzero" fill-opacity="1" /><path clip-path="url(#clip250)" d="M2183.16 1451.02 L2201.51 1451.02 L2201.51 1454.96 L2187.44 1454.96 L2187.44 1463.43 Q2188.46 1463.08 2189.48 1462.92 Q2190.49 1462.73 2191.51 1462.73 Q2197.3 1462.73 2200.68 1465.9 Q2204.06 1469.08 2204.06 1474.49 Q2204.06 1480.07 2200.59 1483.17 Q2197.11 1486.25 2190.79 1486.25 Q2188.62 1486.25 2186.35 1485.88 Q2184.1 1485.51 2181.7 1484.77 L2181.7 1480.07 Q2183.78 1481.2 2186 1481.76 Q2188.23 1482.32 2190.7 1482.32 Q2194.71 1482.32 2197.04 1480.21 Q2199.38 1478.1 2199.38 1474.49 Q2199.38 1470.88 2197.04 1468.77 Q2194.71 1466.67 2190.7 1466.67 Q2188.83 1466.67 2186.95 1467.08 Q2185.1 1467.5 2183.16 1468.38 L2183.16 1451.02 Z" fill="#000000" fill-rule="nonzero" fill-opacity="1" /><path clip-path="url(#clip250)" d="M1038.28 1518.52 L1044.17 1518.52 L1044.17 1547.77 L1061.64 1532.4 L1069.12 1532.4 L1050.22 1549.07 L1069.92 1568.04 L1062.28 1568.04 L1044.17 1550.63 L1044.17 1568.04 L1038.28 1568.04 L1038.28 1518.52 Z" fill="#000000" fill-rule="nonzero" fill-opacity="1" /><path clip-path="url(#clip250)" d="M1099.71 1549.81 Q1099.71 1543.44 1097.07 1539.94 Q1094.46 1536.44 1089.72 1536.44 Q1085.01 1536.44 1082.36 1539.94 Q1079.75 1543.44 1079.75 1549.81 Q1079.75 1556.14 1082.36 1559.64 Q1085.01 1563.14 1089.72 1563.14 Q1094.46 1563.14 1097.07 1559.64 Q1099.71 1556.14 1099.71 1549.81 M1105.57 1563.62 Q1105.57 1572.72 1101.53 1577.15 Q1097.48 1581.6 1089.14 1581.6 Q1086.06 1581.6 1083.32 1581.13 Q1080.58 1580.68 1078 1579.72 L1078 1574.03 Q1080.58 1575.43 1083.1 1576.1 Q1085.61 1576.76 1088.22 1576.76 Q1093.98 1576.76 1096.85 1573.74 Q1099.71 1570.75 1099.71 1564.67 L1099.71 1561.77 Q1097.9 1564.92 1095.06 1566.48 Q1092.23 1568.04 1088.28 1568.04 Q1081.73 1568.04 1077.72 1563.05 Q1073.71 1558.05 1073.71 1549.81 Q1073.71 1541.53 1077.72 1536.53 Q1081.73 1531.54 1088.28 1531.54 Q1092.23 1531.54 1095.06 1533.1 Q1097.9 1534.66 1099.71 1537.81 L1099.71 1532.4 L1105.57 1532.4 L1105.57 1563.62 Z" fill="#000000" fill-rule="nonzero" fill-opacity="1" /><path clip-path="url(#clip250)" d="M1166.11 1539.24 Q1168.3 1535.29 1171.36 1533.41 Q1174.41 1531.54 1178.55 1531.54 Q1184.12 1531.54 1187.14 1535.45 Q1190.17 1539.33 1190.17 1546.53 L1190.17 1568.04 L1184.28 1568.04 L1184.28 1546.72 Q1184.28 1541.59 1182.47 1539.11 Q1180.65 1536.63 1176.93 1536.63 Q1172.38 1536.63 1169.73 1539.65 Q1167.09 1542.68 1167.09 1547.9 L1167.09 1568.04 L1161.2 1568.04 L1161.2 1546.72 Q1161.2 1541.56 1159.39 1539.11 Q1157.58 1536.63 1153.79 1536.63 Q1149.3 1536.63 1146.66 1539.68 Q1144.02 1542.71 1144.02 1547.9 L1144.02 1568.04 L1138.13 1568.04 L1138.13 1532.4 L1144.02 1532.4 L1144.02 1537.93 Q1146.02 1534.66 1148.82 1533.1 Q1151.62 1531.54 1155.47 1531.54 Q1159.36 1531.54 1162.06 1533.51 Q1164.8 1535.48 1166.11 1539.24 Z" fill="#000000" fill-rule="nonzero" fill-opacity="1" /><path clip-path="url(#clip250)" d="M1226.13 1520.52 L1243.42 1538.25 L1237.02 1538.25 L1223.01 1525.68 L1209.01 1538.25 L1202.61 1538.25 L1219.9 1520.52 L1226.13 1520.52 Z" fill="#000000" fill-rule="nonzero" fill-opacity="1" /><path clip-path="url(#clip250)" d="M1253.51 1547.58 L1270.66 1547.58 L1270.66 1552.8 L1253.51 1552.8 L1253.51 1547.58 Z" fill="#000000" fill-rule="nonzero" fill-opacity="1" /><path clip-path="url(#clip250)" d="M1281.93 1562.63 L1292.43 1562.63 L1292.43 1526.38 L1281.01 1528.67 L1281.01 1522.82 L1292.37 1520.52 L1298.8 1520.52 L1298.8 1562.63 L1309.3 1562.63 L1309.3 1568.04 L1281.93 1568.04 L1281.93 1562.63 Z" fill="#000000" fill-rule="nonzero" fill-opacity="1" /><path clip-path="url(#clip250)" d="M1364.91 1533.45 L1364.91 1538.98 Q1362.42 1537.71 1359.75 1537.07 Q1357.08 1536.44 1354.21 1536.44 Q1349.85 1536.44 1347.66 1537.77 Q1345.49 1539.11 1345.49 1541.79 Q1345.49 1543.82 1347.05 1545 Q1348.61 1546.15 1353.32 1547.2 L1355.33 1547.64 Q1361.56 1548.98 1364.17 1551.43 Q1366.82 1553.85 1366.82 1558.21 Q1366.82 1563.17 1362.87 1566.07 Q1358.95 1568.97 1352.08 1568.97 Q1349.22 1568.97 1346.1 1568.39 Q1343.01 1567.85 1339.57 1566.74 L1339.57 1560.69 Q1342.82 1562.38 1345.97 1563.24 Q1349.12 1564.07 1352.21 1564.07 Q1356.34 1564.07 1358.57 1562.66 Q1360.8 1561.23 1360.8 1558.65 Q1360.8 1556.27 1359.18 1554.99 Q1357.59 1553.72 1352.14 1552.54 L1350.11 1552.07 Q1344.66 1550.92 1342.24 1548.56 Q1339.83 1546.18 1339.83 1542.04 Q1339.83 1537.01 1343.39 1534.27 Q1346.96 1531.54 1353.51 1531.54 Q1356.76 1531.54 1359.62 1532.01 Q1362.49 1532.49 1364.91 1533.45 Z" fill="#000000" fill-rule="nonzero" fill-opacity="1" /><path clip-path="url(#clip250)" d="M1400.43 1520.52 L1417.71 1538.25 L1411.31 1538.25 L1397.31 1525.68 L1383.3 1538.25 L1376.91 1538.25 L1394.19 1520.52 L1400.43 1520.52 Z" fill="#000000" fill-rule="nonzero" fill-opacity="1" /><path clip-path="url(#clip250)" d="M1427.8 1547.58 L1444.96 1547.58 L1444.96 1552.8 L1427.8 1552.8 L1427.8 1547.58 Z" fill="#000000" fill-rule="nonzero" fill-opacity="1" /><path clip-path="url(#clip250)" d="M1456.22 1562.63 L1466.73 1562.63 L1466.73 1526.38 L1455.3 1528.67 L1455.3 1522.82 L1466.66 1520.52 L1473.09 1520.52 L1473.09 1562.63 L1483.6 1562.63 L1483.6 1568.04 L1456.22 1568.04 L1456.22 1562.63 Z" fill="#000000" fill-rule="nonzero" fill-opacity="1" /><polyline clip-path="url(#clip250)" style="stroke:#000000; stroke-linecap:round; stroke-linejoin:round; stroke-width:4; stroke-opacity:1; fill:none" points="169.121,1423.18 169.121,47.2441 "/>
<polyline clip-path="url(#clip250)" style="stroke:#000000; stroke-linecap:round; stroke-linejoin:round; stroke-width:4; stroke-opacity:1; fill:none" points="169.121,1423.18 188.019,1423.18 "/>
<polyline clip-path="url(#clip250)" style="stroke:#000000; stroke-linecap:round; stroke-linejoin:round; stroke-width:4; stroke-opacity:1; fill:none" points="169.121,1143.52 188.019,1143.52 "/>
<polyline clip-path="url(#clip250)" style="stroke:#000000; stroke-linecap:round; stroke-linejoin:round; stroke-width:4; stroke-opacity:1; fill:none" points="169.121,863.856 188.019,863.856 "/>
<polyline clip-path="url(#clip250)" style="stroke:#000000; stroke-linecap:round; stroke-linejoin:round; stroke-width:4; stroke-opacity:1; fill:none" points="169.121,584.195 188.019,584.195 "/>
<polyline clip-path="url(#clip250)" style="stroke:#000000; stroke-linecap:round; stroke-linejoin:round; stroke-width:4; stroke-opacity:1; fill:none" points="169.121,304.533 188.019,304.533 "/>
<path clip-path="url(#clip250)" d="M121.177 1408.98 Q117.566 1408.98 115.737 1412.54 Q113.932 1416.08 113.932 1423.21 Q113.932 1430.32 115.737 1433.89 Q117.566 1437.43 121.177 1437.43 Q124.811 1437.43 126.617 1433.89 Q128.445 1430.32 128.445 1423.21 Q128.445 1416.08 126.617 1412.54 Q124.811 1408.98 121.177 1408.98 M121.177 1405.27 Q126.987 1405.27 130.043 1409.88 Q133.121 1414.46 133.121 1423.21 Q133.121 1431.94 130.043 1436.55 Q126.987 1441.13 121.177 1441.13 Q115.367 1441.13 112.288 1436.55 Q109.233 1431.94 109.233 1423.21 Q109.233 1414.46 112.288 1409.88 Q115.367 1405.27 121.177 1405.27 Z" fill="#000000" fill-rule="nonzero" fill-opacity="1" /><path clip-path="url(#clip250)" d="M86.0382 1156.86 L102.358 1156.86 L102.358 1160.8 L80.4133 1160.8 L80.4133 1156.86 Q83.0753 1154.11 87.6586 1149.48 Q92.2651 1144.83 93.4456 1143.48 Q95.691 1140.96 96.5706 1139.22 Q97.4734 1137.46 97.4734 1135.78 Q97.4734 1133.02 95.5289 1131.28 Q93.6076 1129.55 90.5058 1129.55 Q88.3067 1129.55 85.8531 1130.31 Q83.4225 1131.08 80.6447 1132.63 L80.6447 1127.9 Q83.4688 1126.77 85.9225 1126.19 Q88.3762 1125.61 90.4132 1125.61 Q95.7836 1125.61 98.978 1128.3 Q102.172 1130.98 102.172 1135.47 Q102.172 1137.6 101.362 1139.53 Q100.575 1141.42 98.4687 1144.02 Q97.89 1144.69 94.7882 1147.9 Q91.6864 1151.1 86.0382 1156.86 Z" fill="#000000" fill-rule="nonzero" fill-opacity="1" /><path clip-path="url(#clip250)" d="M112.219 1126.24 L130.575 1126.24 L130.575 1130.17 L116.501 1130.17 L116.501 1138.65 Q117.52 1138.3 118.538 1138.14 Q119.557 1137.95 120.575 1137.95 Q126.362 1137.95 129.742 1141.12 Q133.121 1144.29 133.121 1149.71 Q133.121 1155.29 129.649 1158.39 Q126.177 1161.47 119.857 1161.47 Q117.682 1161.47 115.413 1161.1 Q113.168 1160.73 110.76 1159.99 L110.76 1155.29 Q112.844 1156.42 115.066 1156.98 Q117.288 1157.53 119.765 1157.53 Q123.77 1157.53 126.107 1155.43 Q128.445 1153.32 128.445 1149.71 Q128.445 1146.1 126.107 1143.99 Q123.77 1141.89 119.765 1141.89 Q117.89 1141.89 116.015 1142.3 Q114.163 1142.72 112.219 1143.6 L112.219 1126.24 Z" fill="#000000" fill-rule="nonzero" fill-opacity="1" /><path clip-path="url(#clip250)" d="M81.0614 846.576 L99.4178 846.576 L99.4178 850.512 L85.3438 850.512 L85.3438 858.984 Q86.3623 858.636 87.3808 858.474 Q88.3993 858.289 89.4178 858.289 Q95.2049 858.289 98.5845 861.461 Q101.964 864.632 101.964 870.048 Q101.964 875.627 98.4919 878.729 Q95.0197 881.808 88.7003 881.808 Q86.5243 881.808 84.2558 881.437 Q82.0105 881.067 79.6031 880.326 L79.6031 875.627 Q81.6864 876.761 83.9086 877.317 Q86.1308 877.872 88.6077 877.872 Q92.6123 877.872 94.9502 875.766 Q97.2882 873.66 97.2882 870.048 Q97.2882 866.437 94.9502 864.331 Q92.6123 862.224 88.6077 862.224 Q86.7327 862.224 84.8577 862.641 Q83.0058 863.058 81.0614 863.937 L81.0614 846.576 Z" fill="#000000" fill-rule="nonzero" fill-opacity="1" /><path clip-path="url(#clip250)" d="M121.177 849.655 Q117.566 849.655 115.737 853.22 Q113.932 856.761 113.932 863.891 Q113.932 870.998 115.737 874.562 Q117.566 878.104 121.177 878.104 Q124.811 878.104 126.617 874.562 Q128.445 870.998 128.445 863.891 Q128.445 856.761 126.617 853.22 Q124.811 849.655 121.177 849.655 M121.177 845.951 Q126.987 845.951 130.043 850.558 Q133.121 855.141 133.121 863.891 Q133.121 872.618 130.043 877.224 Q126.987 881.808 121.177 881.808 Q115.367 881.808 112.288 877.224 Q109.233 872.618 109.233 863.891 Q109.233 855.141 112.288 850.558 Q115.367 845.951 121.177 845.951 Z" fill="#000000" fill-rule="nonzero" fill-opacity="1" /><path clip-path="url(#clip250)" d="M80.8299 566.915 L103.052 566.915 L103.052 568.905 L90.5058 601.475 L85.6216 601.475 L97.4271 570.85 L80.8299 570.85 L80.8299 566.915 Z" fill="#000000" fill-rule="nonzero" fill-opacity="1" /><path clip-path="url(#clip250)" d="M112.219 566.915 L130.575 566.915 L130.575 570.85 L116.501 570.85 L116.501 579.322 Q117.52 578.975 118.538 578.813 Q119.557 578.628 120.575 578.628 Q126.362 578.628 129.742 581.799 Q133.121 584.97 133.121 590.387 Q133.121 595.965 129.649 599.067 Q126.177 602.146 119.857 602.146 Q117.682 602.146 115.413 601.776 Q113.168 601.405 110.76 600.664 L110.76 595.965 Q112.844 597.1 115.066 597.655 Q117.288 598.211 119.765 598.211 Q123.77 598.211 126.107 596.104 Q128.445 593.998 128.445 590.387 Q128.445 586.776 126.107 584.669 Q123.77 582.563 119.765 582.563 Q117.89 582.563 116.015 582.979 Q114.163 583.396 112.219 584.276 L112.219 566.915 Z" fill="#000000" fill-rule="nonzero" fill-opacity="1" /><path clip-path="url(#clip250)" d="M51.6634 317.878 L59.3023 317.878 L59.3023 291.512 L50.9921 293.179 L50.9921 288.92 L59.256 287.253 L63.9319 287.253 L63.9319 317.878 L71.5707 317.878 L71.5707 321.813 L51.6634 321.813 L51.6634 317.878 Z" fill="#000000" fill-rule="nonzero" fill-opacity="1" /><path clip-path="url(#clip250)" d="M91.0151 290.332 Q87.404 290.332 85.5753 293.896 Q83.7697 297.438 83.7697 304.568 Q83.7697 311.674 85.5753 315.239 Q87.404 318.781 91.0151 318.781 Q94.6493 318.781 96.4548 315.239 Q98.2835 311.674 98.2835 304.568 Q98.2835 297.438 96.4548 293.896 Q94.6493 290.332 91.0151 290.332 M91.0151 286.628 Q96.8252 286.628 99.8808 291.234 Q102.959 295.818 102.959 304.568 Q102.959 313.294 99.8808 317.901 Q96.8252 322.484 91.0151 322.484 Q85.2049 322.484 82.1262 317.901 Q79.0707 313.294 79.0707 304.568 Q79.0707 295.818 82.1262 291.234 Q85.2049 286.628 91.0151 286.628 Z" fill="#000000" fill-rule="nonzero" fill-opacity="1" /><path clip-path="url(#clip250)" d="M121.177 290.332 Q117.566 290.332 115.737 293.896 Q113.932 297.438 113.932 304.568 Q113.932 311.674 115.737 315.239 Q117.566 318.781 121.177 318.781 Q124.811 318.781 126.617 315.239 Q128.445 311.674 128.445 304.568 Q128.445 297.438 126.617 293.896 Q124.811 290.332 121.177 290.332 M121.177 286.628 Q126.987 286.628 130.043 291.234 Q133.121 295.818 133.121 304.568 Q133.121 313.294 130.043 317.901 Q126.987 322.484 121.177 322.484 Q115.367 322.484 112.288 317.901 Q109.233 313.294 109.233 304.568 Q109.233 295.818 112.288 291.234 Q115.367 286.628 121.177 286.628 Z" fill="#000000" fill-rule="nonzero" fill-opacity="1" /><path clip-path="url(#clip252)" d="M289.225 1411.99 L289.225 1423.18 L366.962 1423.18 L366.962 1411.99 L289.225 1411.99 L289.225 1411.99  Z" fill="#009af9" fill-rule="evenodd" fill-opacity="1"/>
<polyline clip-path="url(#clip252)" style="stroke:#000000; stroke-linecap:round; stroke-linejoin:round; stroke-width:4; stroke-opacity:1; fill:none" points="289.225,1411.99 289.225,1423.18 366.962,1423.18 366.962,1411.99 289.225,1411.99 "/>
<path clip-path="url(#clip252)" d="M366.962 1411.99 L366.962 1423.18 L444.699 1423.18 L444.699 1411.99 L366.962 1411.99 L366.962 1411.99  Z" fill="#009af9" fill-rule="evenodd" fill-opacity="1"/>
<polyline clip-path="url(#clip252)" style="stroke:#000000; stroke-linecap:round; stroke-linejoin:round; stroke-width:4; stroke-opacity:1; fill:none" points="366.962,1411.99 366.962,1423.18 444.699,1423.18 444.699,1411.99 366.962,1411.99 "/>
<path clip-path="url(#clip252)" d="M444.699 1411.99 L444.699 1423.18 L522.436 1423.18 L522.436 1411.99 L444.699 1411.99 L444.699 1411.99  Z" fill="#009af9" fill-rule="evenodd" fill-opacity="1"/>
<polyline clip-path="url(#clip252)" style="stroke:#000000; stroke-linecap:round; stroke-linejoin:round; stroke-width:4; stroke-opacity:1; fill:none" points="444.699,1411.99 444.699,1423.18 522.436,1423.18 522.436,1411.99 444.699,1411.99 "/>
<path clip-path="url(#clip252)" d="M522.436 1389.62 L522.436 1423.18 L600.173 1423.18 L600.173 1389.62 L522.436 1389.62 L522.436 1389.62  Z" fill="#009af9" fill-rule="evenodd" fill-opacity="1"/>
<polyline clip-path="url(#clip252)" style="stroke:#000000; stroke-linecap:round; stroke-linejoin:round; stroke-width:4; stroke-opacity:1; fill:none" points="522.436,1389.62 522.436,1423.18 600.173,1423.18 600.173,1389.62 522.436,1389.62 "/>
<path clip-path="url(#clip252)" d="M600.173 1322.5 L600.173 1423.18 L677.911 1423.18 L677.911 1322.5 L600.173 1322.5 L600.173 1322.5  Z" fill="#009af9" fill-rule="evenodd" fill-opacity="1"/>
<polyline clip-path="url(#clip252)" style="stroke:#000000; stroke-linecap:round; stroke-linejoin:round; stroke-width:4; stroke-opacity:1; fill:none" points="600.173,1322.5 600.173,1423.18 677.911,1423.18 677.911,1322.5 600.173,1322.5 "/>
<path clip-path="url(#clip252)" d="M677.911 1233.01 L677.911 1423.18 L755.648 1423.18 L755.648 1233.01 L677.911 1233.01 L677.911 1233.01  Z" fill="#009af9" fill-rule="evenodd" fill-opacity="1"/>
<polyline clip-path="url(#clip252)" style="stroke:#000000; stroke-linecap:round; stroke-linejoin:round; stroke-width:4; stroke-opacity:1; fill:none" points="677.911,1233.01 677.911,1423.18 755.648,1423.18 755.648,1233.01 677.911,1233.01 "/>
<path clip-path="url(#clip252)" d="M755.648 1154.7 L755.648 1423.18 L833.385 1423.18 L833.385 1154.7 L755.648 1154.7 L755.648 1154.7  Z" fill="#009af9" fill-rule="evenodd" fill-opacity="1"/>
<polyline clip-path="url(#clip252)" style="stroke:#000000; stroke-linecap:round; stroke-linejoin:round; stroke-width:4; stroke-opacity:1; fill:none" points="755.648,1154.7 755.648,1423.18 833.385,1423.18 833.385,1154.7 755.648,1154.7 "/>
<path clip-path="url(#clip252)" d="M833.385 807.924 L833.385 1423.18 L911.122 1423.18 L911.122 807.924 L833.385 807.924 L833.385 807.924  Z" fill="#009af9" fill-rule="evenodd" fill-opacity="1"/>
<polyline clip-path="url(#clip252)" style="stroke:#000000; stroke-linecap:round; stroke-linejoin:round; stroke-width:4; stroke-opacity:1; fill:none" points="833.385,807.924 833.385,1423.18 911.122,1423.18 911.122,807.924 833.385,807.924 "/>
<path clip-path="url(#clip252)" d="M911.122 640.127 L911.122 1423.18 L988.859 1423.18 L988.859 640.127 L911.122 640.127 L911.122 640.127  Z" fill="#009af9" fill-rule="evenodd" fill-opacity="1"/>
<polyline clip-path="url(#clip252)" style="stroke:#000000; stroke-linecap:round; stroke-linejoin:round; stroke-width:4; stroke-opacity:1; fill:none" points="911.122,640.127 911.122,1423.18 988.859,1423.18 988.859,640.127 911.122,640.127 "/>
<path clip-path="url(#clip252)" d="M988.859 338.092 L988.859 1423.18 L1066.6 1423.18 L1066.6 338.092 L988.859 338.092 L988.859 338.092  Z" fill="#009af9" fill-rule="evenodd" fill-opacity="1"/>
<polyline clip-path="url(#clip252)" style="stroke:#000000; stroke-linecap:round; stroke-linejoin:round; stroke-width:4; stroke-opacity:1; fill:none" points="988.859,338.092 988.859,1423.18 1066.6,1423.18 1066.6,338.092 988.859,338.092 "/>
<path clip-path="url(#clip252)" d="M1066.6 226.228 L1066.6 1423.18 L1144.33 1423.18 L1144.33 226.228 L1066.6 226.228 L1066.6 226.228  Z" fill="#009af9" fill-rule="evenodd" fill-opacity="1"/>
<polyline clip-path="url(#clip252)" style="stroke:#000000; stroke-linecap:round; stroke-linejoin:round; stroke-width:4; stroke-opacity:1; fill:none" points="1066.6,226.228 1066.6,1423.18 1144.33,1423.18 1144.33,226.228 1066.6,226.228 "/>
<path clip-path="url(#clip252)" d="M1144.33 47.2441 L1144.33 1423.18 L1222.07 1423.18 L1222.07 47.2441 L1144.33 47.2441 L1144.33 47.2441  Z" fill="#009af9" fill-rule="evenodd" fill-opacity="1"/>
<polyline clip-path="url(#clip252)" style="stroke:#000000; stroke-linecap:round; stroke-linejoin:round; stroke-width:4; stroke-opacity:1; fill:none" points="1144.33,47.2441 1144.33,1423.18 1222.07,1423.18 1222.07,47.2441 1144.33,47.2441 "/>
<path clip-path="url(#clip252)" d="M1222.07 159.109 L1222.07 1423.18 L1299.81 1423.18 L1299.81 159.109 L1222.07 159.109 L1222.07 159.109  Z" fill="#009af9" fill-rule="evenodd" fill-opacity="1"/>
<polyline clip-path="url(#clip252)" style="stroke:#000000; stroke-linecap:round; stroke-linejoin:round; stroke-width:4; stroke-opacity:1; fill:none" points="1222.07,159.109 1222.07,1423.18 1299.81,1423.18 1299.81,159.109 1222.07,159.109 "/>
<path clip-path="url(#clip252)" d="M1299.81 371.652 L1299.81 1423.18 L1377.54 1423.18 L1377.54 371.652 L1299.81 371.652 L1299.81 371.652  Z" fill="#009af9" fill-rule="evenodd" fill-opacity="1"/>
<polyline clip-path="url(#clip252)" style="stroke:#000000; stroke-linecap:round; stroke-linejoin:round; stroke-width:4; stroke-opacity:1; fill:none" points="1299.81,371.652 1299.81,1423.18 1377.54,1423.18 1377.54,371.652 1299.81,371.652 "/>
<path clip-path="url(#clip252)" d="M1377.54 326.906 L1377.54 1423.18 L1455.28 1423.18 L1455.28 326.906 L1377.54 326.906 L1377.54 326.906  Z" fill="#009af9" fill-rule="evenodd" fill-opacity="1"/>
<polyline clip-path="url(#clip252)" style="stroke:#000000; stroke-linecap:round; stroke-linejoin:round; stroke-width:4; stroke-opacity:1; fill:none" points="1377.54,326.906 1377.54,1423.18 1455.28,1423.18 1455.28,326.906 1377.54,326.906 "/>
<path clip-path="url(#clip252)" d="M1455.28 684.873 L1455.28 1423.18 L1533.02 1423.18 L1533.02 684.873 L1455.28 684.873 L1455.28 684.873  Z" fill="#009af9" fill-rule="evenodd" fill-opacity="1"/>
<polyline clip-path="url(#clip252)" style="stroke:#000000; stroke-linecap:round; stroke-linejoin:round; stroke-width:4; stroke-opacity:1; fill:none" points="1455.28,684.873 1455.28,1423.18 1533.02,1423.18 1533.02,684.873 1455.28,684.873 "/>
<path clip-path="url(#clip252)" d="M1533.02 830.297 L1533.02 1423.18 L1610.76 1423.18 L1610.76 830.297 L1533.02 830.297 L1533.02 830.297  Z" fill="#009af9" fill-rule="evenodd" fill-opacity="1"/>
<polyline clip-path="url(#clip252)" style="stroke:#000000; stroke-linecap:round; stroke-linejoin:round; stroke-width:4; stroke-opacity:1; fill:none" points="1533.02,830.297 1533.02,1423.18 1610.76,1423.18 1610.76,830.297 1533.02,830.297 "/>
<path clip-path="url(#clip252)" d="M1610.76 1132.33 L1610.76 1423.18 L1688.49 1423.18 L1688.49 1132.33 L1610.76 1132.33 L1610.76 1132.33  Z" fill="#009af9" fill-rule="evenodd" fill-opacity="1"/>
<polyline clip-path="url(#clip252)" style="stroke:#000000; stroke-linecap:round; stroke-linejoin:round; stroke-width:4; stroke-opacity:1; fill:none" points="1610.76,1132.33 1610.76,1423.18 1688.49,1423.18 1688.49,1132.33 1610.76,1132.33 "/>
<path clip-path="url(#clip252)" d="M1688.49 1143.52 L1688.49 1423.18 L1766.23 1423.18 L1766.23 1143.52 L1688.49 1143.52 L1688.49 1143.52  Z" fill="#009af9" fill-rule="evenodd" fill-opacity="1"/>
<polyline clip-path="url(#clip252)" style="stroke:#000000; stroke-linecap:round; stroke-linejoin:round; stroke-width:4; stroke-opacity:1; fill:none" points="1688.49,1143.52 1688.49,1423.18 1766.23,1423.18 1766.23,1143.52 1688.49,1143.52 "/>
<path clip-path="url(#clip252)" d="M1766.23 1300.13 L1766.23 1423.18 L1843.97 1423.18 L1843.97 1300.13 L1766.23 1300.13 L1766.23 1300.13  Z" fill="#009af9" fill-rule="evenodd" fill-opacity="1"/>
<polyline clip-path="url(#clip252)" style="stroke:#000000; stroke-linecap:round; stroke-linejoin:round; stroke-width:4; stroke-opacity:1; fill:none" points="1766.23,1300.13 1766.23,1423.18 1843.97,1423.18 1843.97,1300.13 1766.23,1300.13 "/>
<path clip-path="url(#clip252)" d="M1843.97 1389.62 L1843.97 1423.18 L1921.7 1423.18 L1921.7 1389.62 L1843.97 1389.62 L1843.97 1389.62  Z" fill="#009af9" fill-rule="evenodd" fill-opacity="1"/>
<polyline clip-path="url(#clip252)" style="stroke:#000000; stroke-linecap:round; stroke-linejoin:round; stroke-width:4; stroke-opacity:1; fill:none" points="1843.97,1389.62 1843.97,1423.18 1921.7,1423.18 1921.7,1389.62 1843.97,1389.62 "/>
<path clip-path="url(#clip252)" d="M1921.7 1400.81 L1921.7 1423.18 L1999.44 1423.18 L1999.44 1400.81 L1921.7 1400.81 L1921.7 1400.81  Z" fill="#009af9" fill-rule="evenodd" fill-opacity="1"/>
<polyline clip-path="url(#clip252)" style="stroke:#000000; stroke-linecap:round; stroke-linejoin:round; stroke-width:4; stroke-opacity:1; fill:none" points="1921.7,1400.81 1921.7,1423.18 1999.44,1423.18 1999.44,1400.81 1921.7,1400.81 "/>
<path clip-path="url(#clip252)" d="M1999.44 1423.18 L1999.44 1423.18 L2077.18 1423.18 L2077.18 1423.18 L1999.44 1423.18 L1999.44 1423.18  Z" fill="#009af9" fill-rule="evenodd" fill-opacity="1"/>
<polyline clip-path="url(#clip252)" style="stroke:#000000; stroke-linecap:round; stroke-linejoin:round; stroke-width:4; stroke-opacity:1; fill:none" points="1999.44,1423.18 1999.44,1423.18 2077.18,1423.18 1999.44,1423.18 "/>
<path clip-path="url(#clip252)" d="M2077.18 1423.18 L2077.18 1423.18 L2154.92 1423.18 L2154.92 1423.18 L2077.18 1423.18 L2077.18 1423.18  Z" fill="#009af9" fill-rule="evenodd" fill-opacity="1"/>
<polyline clip-path="url(#clip252)" style="stroke:#000000; stroke-linecap:round; stroke-linejoin:round; stroke-width:4; stroke-opacity:1; fill:none" points="2077.18,1423.18 2077.18,1423.18 2154.92,1423.18 2077.18,1423.18 "/>
<path clip-path="url(#clip252)" d="M2154.92 1411.99 L2154.92 1423.18 L2232.65 1423.18 L2232.65 1411.99 L2154.92 1411.99 L2154.92 1411.99  Z" fill="#009af9" fill-rule="evenodd" fill-opacity="1"/>
<polyline clip-path="url(#clip252)" style="stroke:#000000; stroke-linecap:round; stroke-linejoin:round; stroke-width:4; stroke-opacity:1; fill:none" points="2154.92,1411.99 2154.92,1423.18 2232.65,1423.18 2232.65,1411.99 2154.92,1411.99 "/>
<circle clip-path="url(#clip252)" style="fill:#009af9; stroke:none; fill-opacity:0" cx="328.094" cy="1411.99" r="2"/>
<circle clip-path="url(#clip252)" style="fill:#009af9; stroke:none; fill-opacity:0" cx="405.831" cy="1411.99" r="2"/>
<circle clip-path="url(#clip252)" style="fill:#009af9; stroke:none; fill-opacity:0" cx="483.568" cy="1411.99" r="2"/>
<circle clip-path="url(#clip252)" style="fill:#009af9; stroke:none; fill-opacity:0" cx="561.305" cy="1389.62" r="2"/>
<circle clip-path="url(#clip252)" style="fill:#009af9; stroke:none; fill-opacity:0" cx="639.042" cy="1322.5" r="2"/>
<circle clip-path="url(#clip252)" style="fill:#009af9; stroke:none; fill-opacity:0" cx="716.779" cy="1233.01" r="2"/>
<circle clip-path="url(#clip252)" style="fill:#009af9; stroke:none; fill-opacity:0" cx="794.516" cy="1154.7" r="2"/>
<circle clip-path="url(#clip252)" style="fill:#009af9; stroke:none; fill-opacity:0" cx="872.253" cy="807.924" r="2"/>
<circle clip-path="url(#clip252)" style="fill:#009af9; stroke:none; fill-opacity:0" cx="949.99" cy="640.127" r="2"/>
<circle clip-path="url(#clip252)" style="fill:#009af9; stroke:none; fill-opacity:0" cx="1027.73" cy="338.092" r="2"/>
<circle clip-path="url(#clip252)" style="fill:#009af9; stroke:none; fill-opacity:0" cx="1105.46" cy="226.228" r="2"/>
<circle clip-path="url(#clip252)" style="fill:#009af9; stroke:none; fill-opacity:0" cx="1183.2" cy="47.2441" r="2"/>
<circle clip-path="url(#clip252)" style="fill:#009af9; stroke:none; fill-opacity:0" cx="1260.94" cy="159.109" r="2"/>
<circle clip-path="url(#clip252)" style="fill:#009af9; stroke:none; fill-opacity:0" cx="1338.68" cy="371.652" r="2"/>
<circle clip-path="url(#clip252)" style="fill:#009af9; stroke:none; fill-opacity:0" cx="1416.41" cy="326.906" r="2"/>
<circle clip-path="url(#clip252)" style="fill:#009af9; stroke:none; fill-opacity:0" cx="1494.15" cy="684.873" r="2"/>
<circle clip-path="url(#clip252)" style="fill:#009af9; stroke:none; fill-opacity:0" cx="1571.89" cy="830.297" r="2"/>
<circle clip-path="url(#clip252)" style="fill:#009af9; stroke:none; fill-opacity:0" cx="1649.62" cy="1132.33" r="2"/>
<circle clip-path="url(#clip252)" style="fill:#009af9; stroke:none; fill-opacity:0" cx="1727.36" cy="1143.52" r="2"/>
<circle clip-path="url(#clip252)" style="fill:#009af9; stroke:none; fill-opacity:0" cx="1805.1" cy="1300.13" r="2"/>
<circle clip-path="url(#clip252)" style="fill:#009af9; stroke:none; fill-opacity:0" cx="1882.84" cy="1389.62" r="2"/>
<circle clip-path="url(#clip252)" style="fill:#009af9; stroke:none; fill-opacity:0" cx="1960.57" cy="1400.81" r="2"/>
<circle clip-path="url(#clip252)" style="fill:#009af9; stroke:none; fill-opacity:0" cx="2038.31" cy="1423.18" r="2"/>
<circle clip-path="url(#clip252)" style="fill:#009af9; stroke:none; fill-opacity:0" cx="2116.05" cy="1423.18" r="2"/>
<circle clip-path="url(#clip252)" style="fill:#009af9; stroke:none; fill-opacity:0" cx="2193.78" cy="1411.99" r="2"/>
<path clip-path="url(#clip252)" d="M794.516 1367.25 L794.516 1423.18 L833.385 1423.18 L833.385 1367.25 L794.516 1367.25 L794.516 1367.25  Z" fill="#e26f46" fill-rule="evenodd" fill-opacity="1"/>
<polyline clip-path="url(#clip252)" style="stroke:#000000; stroke-linecap:round; stroke-linejoin:round; stroke-width:4; stroke-opacity:1; fill:none" points="794.516,1367.25 794.516,1423.18 833.385,1423.18 833.385,1367.25 794.516,1367.25 "/>
<path clip-path="url(#clip252)" d="M833.385 1378.43 L833.385 1423.18 L872.253 1423.18 L872.253 1378.43 L833.385 1378.43 L833.385 1378.43  Z" fill="#e26f46" fill-rule="evenodd" fill-opacity="1"/>
<polyline clip-path="url(#clip252)" style="stroke:#000000; stroke-linecap:round; stroke-linejoin:round; stroke-width:4; stroke-opacity:1; fill:none" points="833.385,1378.43 833.385,1423.18 872.253,1423.18 872.253,1378.43 833.385,1378.43 "/>
<path clip-path="url(#clip252)" d="M872.253 1288.94 L872.253 1423.18 L911.122 1423.18 L911.122 1288.94 L872.253 1288.94 L872.253 1288.94  Z" fill="#e26f46" fill-rule="evenodd" fill-opacity="1"/>
<polyline clip-path="url(#clip252)" style="stroke:#000000; stroke-linecap:round; stroke-linejoin:round; stroke-width:4; stroke-opacity:1; fill:none" points="872.253,1288.94 872.253,1423.18 911.122,1423.18 911.122,1288.94 872.253,1288.94 "/>
<path clip-path="url(#clip252)" d="M911.122 1221.82 L911.122 1423.18 L949.99 1423.18 L949.99 1221.82 L911.122 1221.82 L911.122 1221.82  Z" fill="#e26f46" fill-rule="evenodd" fill-opacity="1"/>
<polyline clip-path="url(#clip252)" style="stroke:#000000; stroke-linecap:round; stroke-linejoin:round; stroke-width:4; stroke-opacity:1; fill:none" points="911.122,1221.82 911.122,1423.18 949.99,1423.18 949.99,1221.82 911.122,1221.82 "/>
<path clip-path="url(#clip252)" d="M949.99 1244.2 L949.99 1423.18 L988.859 1423.18 L988.859 1244.2 L949.99 1244.2 L949.99 1244.2  Z" fill="#e26f46" fill-rule="evenodd" fill-opacity="1"/>
<polyline clip-path="url(#clip252)" style="stroke:#000000; stroke-linecap:round; stroke-linejoin:round; stroke-width:4; stroke-opacity:1; fill:none" points="949.99,1244.2 949.99,1423.18 988.859,1423.18 988.859,1244.2 949.99,1244.2 "/>
<path clip-path="url(#clip252)" d="M988.859 930.975 L988.859 1423.18 L1027.73 1423.18 L1027.73 930.975 L988.859 930.975 L988.859 930.975  Z" fill="#e26f46" fill-rule="evenodd" fill-opacity="1"/>
<polyline clip-path="url(#clip252)" style="stroke:#000000; stroke-linecap:round; stroke-linejoin:round; stroke-width:4; stroke-opacity:1; fill:none" points="988.859,930.975 988.859,1423.18 1027.73,1423.18 1027.73,930.975 988.859,930.975 "/>
<path clip-path="url(#clip252)" d="M1027.73 852.67 L1027.73 1423.18 L1066.6 1423.18 L1066.6 852.67 L1027.73 852.67 L1027.73 852.67  Z" fill="#e26f46" fill-rule="evenodd" fill-opacity="1"/>
<polyline clip-path="url(#clip252)" style="stroke:#000000; stroke-linecap:round; stroke-linejoin:round; stroke-width:4; stroke-opacity:1; fill:none" points="1027.73,852.67 1027.73,1423.18 1066.6,1423.18 1066.6,852.67 1027.73,852.67 "/>
<path clip-path="url(#clip252)" d="M1066.6 494.703 L1066.6 1423.18 L1105.46 1423.18 L1105.46 494.703 L1066.6 494.703 L1066.6 494.703  Z" fill="#e26f46" fill-rule="evenodd" fill-opacity="1"/>
<polyline clip-path="url(#clip252)" style="stroke:#000000; stroke-linecap:round; stroke-linejoin:round; stroke-width:4; stroke-opacity:1; fill:none" points="1066.6,494.703 1066.6,1423.18 1105.46,1423.18 1105.46,494.703 1066.6,494.703 "/>
<path clip-path="url(#clip252)" d="M1105.46 416.398 L1105.46 1423.18 L1144.33 1423.18 L1144.33 416.398 L1105.46 416.398 L1105.46 416.398  Z" fill="#e26f46" fill-rule="evenodd" fill-opacity="1"/>
<polyline clip-path="url(#clip252)" style="stroke:#000000; stroke-linecap:round; stroke-linejoin:round; stroke-width:4; stroke-opacity:1; fill:none" points="1105.46,416.398 1105.46,1423.18 1144.33,1423.18 1144.33,416.398 1105.46,416.398 "/>
<path clip-path="url(#clip252)" d="M1144.33 427.584 L1144.33 1423.18 L1183.2 1423.18 L1183.2 427.584 L1144.33 427.584 L1144.33 427.584  Z" fill="#e26f46" fill-rule="evenodd" fill-opacity="1"/>
<polyline clip-path="url(#clip252)" style="stroke:#000000; stroke-linecap:round; stroke-linejoin:round; stroke-width:4; stroke-opacity:1; fill:none" points="1144.33,427.584 1144.33,1423.18 1183.2,1423.18 1183.2,427.584 1144.33,427.584 "/>
<path clip-path="url(#clip252)" d="M1183.2 304.533 L1183.2 1423.18 L1222.07 1423.18 L1222.07 304.533 L1183.2 304.533 L1183.2 304.533  Z" fill="#e26f46" fill-rule="evenodd" fill-opacity="1"/>
<polyline clip-path="url(#clip252)" style="stroke:#000000; stroke-linecap:round; stroke-linejoin:round; stroke-width:4; stroke-opacity:1; fill:none" points="1183.2,304.533 1183.2,1423.18 1222.07,1423.18 1222.07,304.533 1183.2,304.533 "/>
<path clip-path="url(#clip252)" d="M1222.07 349.279 L1222.07 1423.18 L1260.94 1423.18 L1260.94 349.279 L1222.07 349.279 L1222.07 349.279  Z" fill="#e26f46" fill-rule="evenodd" fill-opacity="1"/>
<polyline clip-path="url(#clip252)" style="stroke:#000000; stroke-linecap:round; stroke-linejoin:round; stroke-width:4; stroke-opacity:1; fill:none" points="1222.07,349.279 1222.07,1423.18 1260.94,1423.18 1260.94,349.279 1222.07,349.279 "/>
<path clip-path="url(#clip252)" d="M1260.94 438.771 L1260.94 1423.18 L1299.81 1423.18 L1299.81 438.771 L1260.94 438.771 L1260.94 438.771  Z" fill="#e26f46" fill-rule="evenodd" fill-opacity="1"/>
<polyline clip-path="url(#clip252)" style="stroke:#000000; stroke-linecap:round; stroke-linejoin:round; stroke-width:4; stroke-opacity:1; fill:none" points="1260.94,438.771 1260.94,1423.18 1299.81,1423.18 1299.81,438.771 1260.94,438.771 "/>
<path clip-path="url(#clip252)" d="M1299.81 528.262 L1299.81 1423.18 L1338.68 1423.18 L1338.68 528.262 L1299.81 528.262 L1299.81 528.262  Z" fill="#e26f46" fill-rule="evenodd" fill-opacity="1"/>
<polyline clip-path="url(#clip252)" style="stroke:#000000; stroke-linecap:round; stroke-linejoin:round; stroke-width:4; stroke-opacity:1; fill:none" points="1299.81,528.262 1299.81,1423.18 1338.68,1423.18 1338.68,528.262 1299.81,528.262 "/>
<path clip-path="url(#clip252)" d="M1338.68 550.635 L1338.68 1423.18 L1377.54 1423.18 L1377.54 550.635 L1338.68 550.635 L1338.68 550.635  Z" fill="#e26f46" fill-rule="evenodd" fill-opacity="1"/>
<polyline clip-path="url(#clip252)" style="stroke:#000000; stroke-linecap:round; stroke-linejoin:round; stroke-width:4; stroke-opacity:1; fill:none" points="1338.68,550.635 1338.68,1423.18 1377.54,1423.18 1377.54,550.635 1338.68,550.635 "/>
<path clip-path="url(#clip252)" d="M1377.54 819.11 L1377.54 1423.18 L1416.41 1423.18 L1416.41 819.11 L1377.54 819.11 L1377.54 819.11  Z" fill="#e26f46" fill-rule="evenodd" fill-opacity="1"/>
<polyline clip-path="url(#clip252)" style="stroke:#000000; stroke-linecap:round; stroke-linejoin:round; stroke-width:4; stroke-opacity:1; fill:none" points="1377.54,819.11 1377.54,1423.18 1416.41,1423.18 1416.41,819.11 1377.54,819.11 "/>
<path clip-path="url(#clip252)" d="M1416.41 1054.03 L1416.41 1423.18 L1455.28 1423.18 L1455.28 1054.03 L1416.41 1054.03 L1416.41 1054.03  Z" fill="#e26f46" fill-rule="evenodd" fill-opacity="1"/>
<polyline clip-path="url(#clip252)" style="stroke:#000000; stroke-linecap:round; stroke-linejoin:round; stroke-width:4; stroke-opacity:1; fill:none" points="1416.41,1054.03 1416.41,1423.18 1455.28,1423.18 1455.28,1054.03 1416.41,1054.03 "/>
<path clip-path="url(#clip252)" d="M1455.28 1054.03 L1455.28 1423.18 L1494.15 1423.18 L1494.15 1054.03 L1455.28 1054.03 L1455.28 1054.03  Z" fill="#e26f46" fill-rule="evenodd" fill-opacity="1"/>
<polyline clip-path="url(#clip252)" style="stroke:#000000; stroke-linecap:round; stroke-linejoin:round; stroke-width:4; stroke-opacity:1; fill:none" points="1455.28,1054.03 1455.28,1423.18 1494.15,1423.18 1494.15,1054.03 1455.28,1054.03 "/>
<path clip-path="url(#clip252)" d="M1494.15 1288.94 L1494.15 1423.18 L1533.02 1423.18 L1533.02 1288.94 L1494.15 1288.94 L1494.15 1288.94  Z" fill="#e26f46" fill-rule="evenodd" fill-opacity="1"/>
<polyline clip-path="url(#clip252)" style="stroke:#000000; stroke-linecap:round; stroke-linejoin:round; stroke-width:4; stroke-opacity:1; fill:none" points="1494.15,1288.94 1494.15,1423.18 1533.02,1423.18 1533.02,1288.94 1494.15,1288.94 "/>
<path clip-path="url(#clip252)" d="M1533.02 1378.43 L1533.02 1423.18 L1571.89 1423.18 L1571.89 1378.43 L1533.02 1378.43 L1533.02 1378.43  Z" fill="#e26f46" fill-rule="evenodd" fill-opacity="1"/>
<polyline clip-path="url(#clip252)" style="stroke:#000000; stroke-linecap:round; stroke-linejoin:round; stroke-width:4; stroke-opacity:1; fill:none" points="1533.02,1378.43 1533.02,1423.18 1571.89,1423.18 1571.89,1378.43 1533.02,1378.43 "/>
<path clip-path="url(#clip252)" d="M1571.89 1333.69 L1571.89 1423.18 L1610.76 1423.18 L1610.76 1333.69 L1571.89 1333.69 L1571.89 1333.69  Z" fill="#e26f46" fill-rule="evenodd" fill-opacity="1"/>
<polyline clip-path="url(#clip252)" style="stroke:#000000; stroke-linecap:round; stroke-linejoin:round; stroke-width:4; stroke-opacity:1; fill:none" points="1571.89,1333.69 1571.89,1423.18 1610.76,1423.18 1610.76,1333.69 1571.89,1333.69 "/>
<path clip-path="url(#clip252)" d="M1610.76 1411.99 L1610.76 1423.18 L1649.62 1423.18 L1649.62 1411.99 L1610.76 1411.99 L1610.76 1411.99  Z" fill="#e26f46" fill-rule="evenodd" fill-opacity="1"/>
<polyline clip-path="url(#clip252)" style="stroke:#000000; stroke-linecap:round; stroke-linejoin:round; stroke-width:4; stroke-opacity:1; fill:none" points="1610.76,1411.99 1610.76,1423.18 1649.62,1423.18 1649.62,1411.99 1610.76,1411.99 "/>
<path clip-path="url(#clip252)" d="M1649.62 1411.99 L1649.62 1423.18 L1688.49 1423.18 L1688.49 1411.99 L1649.62 1411.99 L1649.62 1411.99  Z" fill="#e26f46" fill-rule="evenodd" fill-opacity="1"/>
<polyline clip-path="url(#clip252)" style="stroke:#000000; stroke-linecap:round; stroke-linejoin:round; stroke-width:4; stroke-opacity:1; fill:none" points="1649.62,1411.99 1649.62,1423.18 1688.49,1423.18 1688.49,1411.99 1649.62,1411.99 "/>
<circle clip-path="url(#clip252)" style="fill:#e26f46; stroke:none; fill-opacity:0" cx="813.95" cy="1367.25" r="2"/>
<circle clip-path="url(#clip252)" style="fill:#e26f46; stroke:none; fill-opacity:0" cx="852.819" cy="1378.43" r="2"/>
<circle clip-path="url(#clip252)" style="fill:#e26f46; stroke:none; fill-opacity:0" cx="891.687" cy="1288.94" r="2"/>
<circle clip-path="url(#clip252)" style="fill:#e26f46; stroke:none; fill-opacity:0" cx="930.556" cy="1221.82" r="2"/>
<circle clip-path="url(#clip252)" style="fill:#e26f46; stroke:none; fill-opacity:0" cx="969.425" cy="1244.2" r="2"/>
<circle clip-path="url(#clip252)" style="fill:#e26f46; stroke:none; fill-opacity:0" cx="1008.29" cy="930.975" r="2"/>
<circle clip-path="url(#clip252)" style="fill:#e26f46; stroke:none; fill-opacity:0" cx="1047.16" cy="852.67" r="2"/>
<circle clip-path="url(#clip252)" style="fill:#e26f46; stroke:none; fill-opacity:0" cx="1086.03" cy="494.703" r="2"/>
<circle clip-path="url(#clip252)" style="fill:#e26f46; stroke:none; fill-opacity:0" cx="1124.9" cy="416.398" r="2"/>
<circle clip-path="url(#clip252)" style="fill:#e26f46; stroke:none; fill-opacity:0" cx="1163.77" cy="427.584" r="2"/>
<circle clip-path="url(#clip252)" style="fill:#e26f46; stroke:none; fill-opacity:0" cx="1202.64" cy="304.533" r="2"/>
<circle clip-path="url(#clip252)" style="fill:#e26f46; stroke:none; fill-opacity:0" cx="1241.5" cy="349.279" r="2"/>
<circle clip-path="url(#clip252)" style="fill:#e26f46; stroke:none; fill-opacity:0" cx="1280.37" cy="438.771" r="2"/>
<circle clip-path="url(#clip252)" style="fill:#e26f46; stroke:none; fill-opacity:0" cx="1319.24" cy="528.262" r="2"/>
<circle clip-path="url(#clip252)" style="fill:#e26f46; stroke:none; fill-opacity:0" cx="1358.11" cy="550.635" r="2"/>
<circle clip-path="url(#clip252)" style="fill:#e26f46; stroke:none; fill-opacity:0" cx="1396.98" cy="819.11" r="2"/>
<circle clip-path="url(#clip252)" style="fill:#e26f46; stroke:none; fill-opacity:0" cx="1435.85" cy="1054.03" r="2"/>
<circle clip-path="url(#clip252)" style="fill:#e26f46; stroke:none; fill-opacity:0" cx="1474.72" cy="1054.03" r="2"/>
<circle clip-path="url(#clip252)" style="fill:#e26f46; stroke:none; fill-opacity:0" cx="1513.58" cy="1288.94" r="2"/>
<circle clip-path="url(#clip252)" style="fill:#e26f46; stroke:none; fill-opacity:0" cx="1552.45" cy="1378.43" r="2"/>
<circle clip-path="url(#clip252)" style="fill:#e26f46; stroke:none; fill-opacity:0" cx="1591.32" cy="1333.69" r="2"/>
<circle clip-path="url(#clip252)" style="fill:#e26f46; stroke:none; fill-opacity:0" cx="1630.19" cy="1411.99" r="2"/>
<circle clip-path="url(#clip252)" style="fill:#e26f46; stroke:none; fill-opacity:0" cx="1669.06" cy="1411.99" r="2"/>
<path clip-path="url(#clip250)" d="M1770.52 248.629 L2279.97 248.629 L2279.97 93.1086 L1770.52 93.1086  Z" fill="#ffffff" fill-rule="evenodd" fill-opacity="1"/>
<polyline clip-path="url(#clip250)" style="stroke:#000000; stroke-linecap:round; stroke-linejoin:round; stroke-width:4; stroke-opacity:1; fill:none" points="1770.52,248.629 2279.97,248.629 2279.97,93.1086 1770.52,93.1086 1770.52,248.629 "/>
<path clip-path="url(#clip250)" d="M1794.78 165.685 L1940.36 165.685 L1940.36 124.213 L1794.78 124.213 L1794.78 165.685  Z" fill="#009af9" fill-rule="evenodd" fill-opacity="1"/>
<polyline clip-path="url(#clip250)" style="stroke:#000000; stroke-linecap:round; stroke-linejoin:round; stroke-width:4; stroke-opacity:1; fill:none" points="1794.78,165.685 1940.36,165.685 1940.36,124.213 1794.78,124.213 1794.78,165.685 "/>
<path clip-path="url(#clip250)" d="M1981.01 146.025 Q1982.51 146.534 1983.92 148.201 Q1985.36 149.868 1986.79 152.784 L1991.54 162.229 L1986.52 162.229 L1982.1 153.363 Q1980.38 149.891 1978.76 148.756 Q1977.17 147.622 1974.39 147.622 L1969.29 147.622 L1969.29 162.229 L1964.62 162.229 L1964.62 127.669 L1975.17 127.669 Q1981.1 127.669 1984.02 130.145 Q1986.93 132.622 1986.93 137.622 Q1986.93 140.886 1985.41 143.039 Q1983.9 145.192 1981.01 146.025 M1969.29 131.511 L1969.29 143.78 L1975.17 143.78 Q1978.55 143.78 1980.27 142.229 Q1982 140.655 1982 137.622 Q1982 134.59 1980.27 133.062 Q1978.55 131.511 1975.17 131.511 L1969.29 131.511 Z" fill="#000000" fill-rule="nonzero" fill-opacity="1" /><path clip-path="url(#clip250)" d="M2013 140.701 L2042.67 140.701 L2042.67 144.59 L2013 144.59 L2013 140.701 M2013 150.145 L2042.67 150.145 L2042.67 154.081 L2013 154.081 L2013 150.145 Z" fill="#000000" fill-rule="nonzero" fill-opacity="1" /><path clip-path="url(#clip250)" d="M2077.84 130.747 Q2074.22 130.747 2072.4 134.312 Q2070.59 137.854 2070.59 144.983 Q2070.59 152.09 2072.4 155.655 Q2074.22 159.196 2077.84 159.196 Q2081.47 159.196 2083.28 155.655 Q2085.1 152.09 2085.1 144.983 Q2085.1 137.854 2083.28 134.312 Q2081.47 130.747 2077.84 130.747 M2077.84 127.044 Q2083.65 127.044 2086.7 131.65 Q2089.78 136.233 2089.78 144.983 Q2089.78 153.71 2086.7 158.317 Q2083.65 162.9 2077.84 162.9 Q2072.03 162.9 2068.95 158.317 Q2065.89 153.71 2065.89 144.983 Q2065.89 136.233 2068.95 131.65 Q2072.03 127.044 2077.84 127.044 Z" fill="#000000" fill-rule="nonzero" fill-opacity="1" /><path clip-path="url(#clip250)" d="M2098 156.349 L2102.88 156.349 L2102.88 162.229 L2098 162.229 L2098 156.349 Z" fill="#000000" fill-rule="nonzero" fill-opacity="1" /><path clip-path="url(#clip250)" d="M2123.07 130.747 Q2119.46 130.747 2117.63 134.312 Q2115.82 137.854 2115.82 144.983 Q2115.82 152.09 2117.63 155.655 Q2119.46 159.196 2123.07 159.196 Q2126.7 159.196 2128.51 155.655 Q2130.34 152.09 2130.34 144.983 Q2130.34 137.854 2128.51 134.312 Q2126.7 130.747 2123.07 130.747 M2123.07 127.044 Q2128.88 127.044 2131.93 131.65 Q2135.01 136.233 2135.01 144.983 Q2135.01 153.71 2131.93 158.317 Q2128.88 162.9 2123.07 162.9 Q2117.26 162.9 2114.18 158.317 Q2111.12 153.71 2111.12 144.983 Q2111.12 136.233 2114.18 131.65 Q2117.26 127.044 2123.07 127.044 Z" fill="#000000" fill-rule="nonzero" fill-opacity="1" /><path clip-path="url(#clip250)" d="M2153.23 130.747 Q2149.62 130.747 2147.79 134.312 Q2145.98 137.854 2145.98 144.983 Q2145.98 152.09 2147.79 155.655 Q2149.62 159.196 2153.23 159.196 Q2156.86 159.196 2158.67 155.655 Q2160.5 152.09 2160.5 144.983 Q2160.5 137.854 2158.67 134.312 Q2156.86 130.747 2153.23 130.747 M2153.23 127.044 Q2159.04 127.044 2162.09 131.65 Q2165.17 136.233 2165.17 144.983 Q2165.17 153.71 2162.09 158.317 Q2159.04 162.9 2153.23 162.9 Q2147.42 162.9 2144.34 158.317 Q2141.28 153.71 2141.28 144.983 Q2141.28 136.233 2144.34 131.65 Q2147.42 127.044 2153.23 127.044 Z" fill="#000000" fill-rule="nonzero" fill-opacity="1" /><path clip-path="url(#clip250)" d="M2173.44 127.669 L2191.79 127.669 L2191.79 131.604 L2177.72 131.604 L2177.72 140.076 Q2178.74 139.729 2179.76 139.567 Q2180.78 139.382 2181.79 139.382 Q2187.58 139.382 2190.96 142.553 Q2194.34 145.724 2194.34 151.141 Q2194.34 156.719 2190.87 159.821 Q2187.4 162.9 2181.08 162.9 Q2178.9 162.9 2176.63 162.53 Q2174.39 162.159 2171.98 161.418 L2171.98 156.719 Q2174.06 157.854 2176.28 158.409 Q2178.51 158.965 2180.98 158.965 Q2184.99 158.965 2187.33 156.858 Q2189.66 154.752 2189.66 151.141 Q2189.66 147.53 2187.33 145.423 Q2184.99 143.317 2180.98 143.317 Q2179.11 143.317 2177.23 143.733 Q2175.38 144.15 2173.44 145.03 L2173.44 127.669 Z" fill="#000000" fill-rule="nonzero" fill-opacity="1" /><path clip-path="url(#clip250)" d="M2238.21 141.28 Q2239.8 138.409 2242.02 137.044 Q2244.25 135.678 2247.26 135.678 Q2251.31 135.678 2253.51 138.525 Q2255.71 141.349 2255.71 146.581 L2255.71 162.229 L2251.42 162.229 L2251.42 146.719 Q2251.42 142.993 2250.1 141.187 Q2248.78 139.382 2246.08 139.382 Q2242.77 139.382 2240.84 141.581 Q2238.92 143.78 2238.92 147.576 L2238.92 162.229 L2234.64 162.229 L2234.64 146.719 Q2234.64 142.969 2233.32 141.187 Q2232 139.382 2229.25 139.382 Q2225.98 139.382 2224.06 141.604 Q2222.14 143.803 2222.14 147.576 L2222.14 162.229 L2217.86 162.229 L2217.86 136.303 L2222.14 136.303 L2222.14 140.331 Q2223.6 137.946 2225.64 136.812 Q2227.67 135.678 2230.47 135.678 Q2233.3 135.678 2235.27 137.113 Q2237.26 138.548 2238.21 141.28 Z" fill="#000000" fill-rule="nonzero" fill-opacity="1" /><path clip-path="url(#clip250)" d="M1794.78 217.525 L1940.36 217.525 L1940.36 176.053 L1794.78 176.053 L1794.78 217.525  Z" fill="#e26f46" fill-rule="evenodd" fill-opacity="1"/>
<polyline clip-path="url(#clip250)" style="stroke:#000000; stroke-linecap:round; stroke-linejoin:round; stroke-width:4; stroke-opacity:1; fill:none" points="1794.78,217.525 1940.36,217.525 1940.36,176.053 1794.78,176.053 1794.78,217.525 "/>
<path clip-path="url(#clip250)" d="M1981.01 197.865 Q1982.51 198.374 1983.92 200.041 Q1985.36 201.708 1986.79 204.624 L1991.54 214.069 L1986.52 214.069 L1982.1 205.203 Q1980.38 201.731 1978.76 200.596 Q1977.17 199.462 1974.39 199.462 L1969.29 199.462 L1969.29 214.069 L1964.62 214.069 L1964.62 179.509 L1975.17 179.509 Q1981.1 179.509 1984.02 181.985 Q1986.93 184.462 1986.93 189.462 Q1986.93 192.726 1985.41 194.879 Q1983.9 197.032 1981.01 197.865 M1969.29 183.351 L1969.29 195.62 L1975.17 195.62 Q1978.55 195.62 1980.27 194.069 Q1982 192.495 1982 189.462 Q1982 186.43 1980.27 184.902 Q1978.55 183.351 1975.17 183.351 L1969.29 183.351 Z" fill="#000000" fill-rule="nonzero" fill-opacity="1" /><path clip-path="url(#clip250)" d="M2013 192.541 L2042.67 192.541 L2042.67 196.43 L2013 196.43 L2013 192.541 M2013 201.985 L2042.67 201.985 L2042.67 205.921 L2013 205.921 L2013 201.985 Z" fill="#000000" fill-rule="nonzero" fill-opacity="1" /><path clip-path="url(#clip250)" d="M2077.84 182.587 Q2074.22 182.587 2072.4 186.152 Q2070.59 189.694 2070.59 196.823 Q2070.59 203.93 2072.4 207.495 Q2074.22 211.036 2077.84 211.036 Q2081.47 211.036 2083.28 207.495 Q2085.1 203.93 2085.1 196.823 Q2085.1 189.694 2083.28 186.152 Q2081.47 182.587 2077.84 182.587 M2077.84 178.884 Q2083.65 178.884 2086.7 183.49 Q2089.78 188.073 2089.78 196.823 Q2089.78 205.55 2086.7 210.157 Q2083.65 214.74 2077.84 214.74 Q2072.03 214.74 2068.95 210.157 Q2065.89 205.55 2065.89 196.823 Q2065.89 188.073 2068.95 183.49 Q2072.03 178.884 2077.84 178.884 Z" fill="#000000" fill-rule="nonzero" fill-opacity="1" /><path clip-path="url(#clip250)" d="M2098 208.189 L2102.88 208.189 L2102.88 214.069 L2098 214.069 L2098 208.189 Z" fill="#000000" fill-rule="nonzero" fill-opacity="1" /><path clip-path="url(#clip250)" d="M2123.07 182.587 Q2119.46 182.587 2117.63 186.152 Q2115.82 189.694 2115.82 196.823 Q2115.82 203.93 2117.63 207.495 Q2119.46 211.036 2123.07 211.036 Q2126.7 211.036 2128.51 207.495 Q2130.34 203.93 2130.34 196.823 Q2130.34 189.694 2128.51 186.152 Q2126.7 182.587 2123.07 182.587 M2123.07 178.884 Q2128.88 178.884 2131.93 183.49 Q2135.01 188.073 2135.01 196.823 Q2135.01 205.55 2131.93 210.157 Q2128.88 214.74 2123.07 214.74 Q2117.26 214.74 2114.18 210.157 Q2111.12 205.55 2111.12 196.823 Q2111.12 188.073 2114.18 183.49 Q2117.26 178.884 2123.07 178.884 Z" fill="#000000" fill-rule="nonzero" fill-opacity="1" /><path clip-path="url(#clip250)" d="M2144.04 210.133 L2151.68 210.133 L2151.68 183.768 L2143.37 185.435 L2143.37 181.175 L2151.63 179.509 L2156.31 179.509 L2156.31 210.133 L2163.95 210.133 L2163.95 214.069 L2144.04 214.069 L2144.04 210.133 Z" fill="#000000" fill-rule="nonzero" fill-opacity="1" /><path clip-path="url(#clip250)" d="M2208.04 193.12 Q2209.64 190.249 2211.86 188.884 Q2214.09 187.518 2217.09 187.518 Q2221.15 187.518 2223.34 190.365 Q2225.54 193.189 2225.54 198.421 L2225.54 214.069 L2221.26 214.069 L2221.26 198.559 Q2221.26 194.833 2219.94 193.027 Q2218.62 191.222 2215.91 191.222 Q2212.6 191.222 2210.68 193.421 Q2208.76 195.62 2208.76 199.416 L2208.76 214.069 L2204.48 214.069 L2204.48 198.559 Q2204.48 194.809 2203.16 193.027 Q2201.84 191.222 2199.09 191.222 Q2195.82 191.222 2193.9 193.444 Q2191.98 195.643 2191.98 199.416 L2191.98 214.069 L2187.7 214.069 L2187.7 188.143 L2191.98 188.143 L2191.98 192.171 Q2193.44 189.786 2195.47 188.652 Q2197.51 187.518 2200.31 187.518 Q2203.14 187.518 2205.1 188.953 Q2207.09 190.388 2208.04 193.12 Z" fill="#000000" fill-rule="nonzero" fill-opacity="1" /></svg>
