<?xml version="1.0" encoding="utf-8"?>
<svg xmlns="http://www.w3.org/2000/svg" xmlns:xlink="http://www.w3.org/1999/xlink" width="600" height="400" viewBox="0 0 2400 1600">
<defs>
  <clipPath id="clip330">
    <rect x="0" y="0" width="2400" height="1600"/>
  </clipPath>
</defs>
<path clip-path="url(#clip330)" d="
M0 1600 L2400 1600 L2400 0 L0 0  Z
  " fill="#ffffff" fill-rule="evenodd" fill-opacity="1"/>
<defs>
  <clipPath id="clip331">
    <rect x="480" y="0" width="1681" height="1600"/>
  </clipPath>
</defs>
<path clip-path="url(#clip330)" d="
M169.121 686.448 L2352.76 686.448 L2352.76 47.2441 L169.121 47.2441  Z
  " fill="#ffffff" fill-rule="evenodd" fill-opacity="1"/>
<defs>
  <clipPath id="clip332">
    <rect x="169" y="47" width="2185" height="640"/>
  </clipPath>
</defs>
<polyline clip-path="url(#clip332)" style="stroke:#000000; stroke-linecap:round; stroke-linejoin:round; stroke-width:2; stroke-opacity:0.1; fill:none" points="
  532.153,686.448 532.153,47.2441 
  "/>
<polyline clip-path="url(#clip332)" style="stroke:#000000; stroke-linecap:round; stroke-linejoin:round; stroke-width:2; stroke-opacity:0.1; fill:none" points="
  896.546,686.448 896.546,47.2441 
  "/>
<polyline clip-path="url(#clip332)" style="stroke:#000000; stroke-linecap:round; stroke-linejoin:round; stroke-width:2; stroke-opacity:0.1; fill:none" points="
  1260.94,686.448 1260.94,47.2441 
  "/>
<polyline clip-path="url(#clip332)" style="stroke:#000000; stroke-linecap:round; stroke-linejoin:round; stroke-width:2; stroke-opacity:0.1; fill:none" points="
  1625.33,686.448 1625.33,47.2441 
  "/>
<polyline clip-path="url(#clip332)" style="stroke:#000000; stroke-linecap:round; stroke-linejoin:round; stroke-width:2; stroke-opacity:0.1; fill:none" points="
  1989.72,686.448 1989.72,47.2441 
  "/>
<polyline clip-path="url(#clip330)" style="stroke:#000000; stroke-linecap:round; stroke-linejoin:round; stroke-width:4; stroke-opacity:1; fill:none" points="
  169.121,686.448 2352.76,686.448 
  "/>
<polyline clip-path="url(#clip330)" style="stroke:#000000; stroke-linecap:round; stroke-linejoin:round; stroke-width:4; stroke-opacity:1; fill:none" points="
  532.153,686.448 532.153,667.55 
  "/>
<polyline clip-path="url(#clip330)" style="stroke:#000000; stroke-linecap:round; stroke-linejoin:round; stroke-width:4; stroke-opacity:1; fill:none" points="
  896.546,686.448 896.546,667.55 
  "/>
<polyline clip-path="url(#clip330)" style="stroke:#000000; stroke-linecap:round; stroke-linejoin:round; stroke-width:4; stroke-opacity:1; fill:none" points="
  1260.94,686.448 1260.94,667.55 
  "/>
<polyline clip-path="url(#clip330)" style="stroke:#000000; stroke-linecap:round; stroke-linejoin:round; stroke-width:4; stroke-opacity:1; fill:none" points="
  1625.33,686.448 1625.33,667.55 
  "/>
<polyline clip-path="url(#clip330)" style="stroke:#000000; stroke-linecap:round; stroke-linejoin:round; stroke-width:4; stroke-opacity:1; fill:none" points="
  1989.72,686.448 1989.72,667.55 
  "/>
<path clip-path="url(#clip330)" d="M454.862 744.913 L462.501 744.913 L462.501 718.547 L454.191 720.214 L454.191 715.955 L462.455 714.288 L467.131 714.288 L467.131 744.913 L474.77 744.913 L474.77 748.848 L454.862 748.848 L454.862 744.913 Z" fill="#000000" fill-rule="evenodd" fill-opacity="1" /><path clip-path="url(#clip330)" d="M484.214 742.968 L489.098 742.968 L489.098 748.848 L484.214 748.848 L484.214 742.968 Z" fill="#000000" fill-rule="evenodd" fill-opacity="1" /><path clip-path="url(#clip330)" d="M509.862 729.704 Q506.714 729.704 504.862 731.857 Q503.033 734.01 503.033 737.76 Q503.033 741.487 504.862 743.663 Q506.714 745.815 509.862 745.815 Q513.01 745.815 514.839 743.663 Q516.691 741.487 516.691 737.76 Q516.691 734.01 514.839 731.857 Q513.01 729.704 509.862 729.704 M519.144 715.052 L519.144 719.311 Q517.385 718.478 515.579 718.038 Q513.797 717.598 512.038 717.598 Q507.408 717.598 504.955 720.723 Q502.524 723.848 502.177 730.167 Q503.543 728.154 505.603 727.089 Q507.663 726.001 510.14 726.001 Q515.348 726.001 518.357 729.172 Q521.39 732.32 521.39 737.76 Q521.39 743.084 518.242 746.302 Q515.093 749.519 509.862 749.519 Q503.867 749.519 500.695 744.936 Q497.524 740.329 497.524 731.603 Q497.524 723.408 501.413 718.547 Q505.302 713.663 511.853 713.663 Q513.612 713.663 515.394 714.01 Q517.2 714.357 519.144 715.052 Z" fill="#000000" fill-rule="evenodd" fill-opacity="1" /><path clip-path="url(#clip330)" d="M529.584 748.13 L529.584 743.871 Q531.343 744.704 533.149 745.144 Q534.954 745.584 536.69 745.584 Q541.32 745.584 543.751 742.482 Q546.204 739.357 546.552 733.015 Q545.209 735.005 543.149 736.07 Q541.089 737.135 538.589 737.135 Q533.403 737.135 530.371 734.01 Q527.362 730.862 527.362 725.422 Q527.362 720.098 530.51 716.88 Q533.658 713.663 538.89 713.663 Q544.885 713.663 548.033 718.269 Q551.204 722.853 551.204 731.603 Q551.204 739.774 547.315 744.658 Q543.45 749.519 536.899 749.519 Q535.14 749.519 533.334 749.172 Q531.528 748.825 529.584 748.13 M538.89 733.478 Q542.038 733.478 543.866 731.325 Q545.718 729.172 545.718 725.422 Q545.718 721.695 543.866 719.542 Q542.038 717.367 538.89 717.367 Q535.741 717.367 533.89 719.542 Q532.061 721.695 532.061 725.422 Q532.061 729.172 533.89 731.325 Q535.741 733.478 538.89 733.478 Z" fill="#000000" fill-rule="evenodd" fill-opacity="1" /><path clip-path="url(#clip330)" d="M570.186 729.704 Q567.038 729.704 565.186 731.857 Q563.357 734.01 563.357 737.76 Q563.357 741.487 565.186 743.663 Q567.038 745.815 570.186 745.815 Q573.334 745.815 575.163 743.663 Q577.014 741.487 577.014 737.76 Q577.014 734.01 575.163 731.857 Q573.334 729.704 570.186 729.704 M579.468 715.052 L579.468 719.311 Q577.709 718.478 575.903 718.038 Q574.121 717.598 572.362 717.598 Q567.732 717.598 565.278 720.723 Q562.848 723.848 562.501 730.167 Q563.866 728.154 565.926 727.089 Q567.987 726.001 570.463 726.001 Q575.672 726.001 578.681 729.172 Q581.713 732.32 581.713 737.76 Q581.713 743.084 578.565 746.302 Q575.417 749.519 570.186 749.519 Q564.19 749.519 561.019 744.936 Q557.848 740.329 557.848 731.603 Q557.848 723.408 561.737 718.547 Q565.626 713.663 572.176 713.663 Q573.936 713.663 575.718 714.01 Q577.524 714.357 579.468 715.052 Z" fill="#000000" fill-rule="evenodd" fill-opacity="1" /><path clip-path="url(#clip330)" d="M593.797 744.913 L610.116 744.913 L610.116 748.848 L588.172 748.848 L588.172 744.913 Q590.834 742.158 595.417 737.528 Q600.023 732.876 601.204 731.533 Q603.449 729.01 604.329 727.274 Q605.232 725.515 605.232 723.825 Q605.232 721.07 603.287 719.334 Q601.366 717.598 598.264 717.598 Q596.065 717.598 593.611 718.362 Q591.181 719.126 588.403 720.677 L588.403 715.955 Q591.227 714.82 593.681 714.242 Q596.135 713.663 598.172 713.663 Q603.542 713.663 606.736 716.348 Q609.931 719.033 609.931 723.524 Q609.931 725.654 609.121 727.575 Q608.334 729.473 606.227 732.066 Q605.648 732.737 602.547 735.954 Q599.445 739.149 593.797 744.913 Z" fill="#000000" fill-rule="evenodd" fill-opacity="1" /><path clip-path="url(#clip330)" d="M818.954 744.913 L826.593 744.913 L826.593 718.547 L818.283 720.214 L818.283 715.955 L826.546 714.288 L831.222 714.288 L831.222 744.913 L838.861 744.913 L838.861 748.848 L818.954 748.848 L818.954 744.913 Z" fill="#000000" fill-rule="evenodd" fill-opacity="1" /><path clip-path="url(#clip330)" d="M848.306 742.968 L853.19 742.968 L853.19 748.848 L848.306 748.848 L848.306 742.968 Z" fill="#000000" fill-rule="evenodd" fill-opacity="1" /><path clip-path="url(#clip330)" d="M873.954 729.704 Q870.805 729.704 868.954 731.857 Q867.125 734.01 867.125 737.76 Q867.125 741.487 868.954 743.663 Q870.805 745.815 873.954 745.815 Q877.102 745.815 878.93 743.663 Q880.782 741.487 880.782 737.76 Q880.782 734.01 878.93 731.857 Q877.102 729.704 873.954 729.704 M883.236 715.052 L883.236 719.311 Q881.477 718.478 879.671 718.038 Q877.889 717.598 876.129 717.598 Q871.5 717.598 869.046 720.723 Q866.616 723.848 866.268 730.167 Q867.634 728.154 869.694 727.089 Q871.755 726.001 874.231 726.001 Q879.44 726.001 882.449 729.172 Q885.481 732.32 885.481 737.76 Q885.481 743.084 882.333 746.302 Q879.185 749.519 873.954 749.519 Q867.958 749.519 864.787 744.936 Q861.616 740.329 861.616 731.603 Q861.616 723.408 865.505 718.547 Q869.393 713.663 875.944 713.663 Q877.704 713.663 879.486 714.01 Q881.291 714.357 883.236 715.052 Z" fill="#000000" fill-rule="evenodd" fill-opacity="1" /><path clip-path="url(#clip330)" d="M893.676 748.13 L893.676 743.871 Q895.435 744.704 897.24 745.144 Q899.046 745.584 900.782 745.584 Q905.412 745.584 907.842 742.482 Q910.296 739.357 910.643 733.015 Q909.301 735.005 907.24 736.07 Q905.18 737.135 902.68 737.135 Q897.495 737.135 894.463 734.01 Q891.453 730.862 891.453 725.422 Q891.453 720.098 894.602 716.88 Q897.75 713.663 902.981 713.663 Q908.977 713.663 912.125 718.269 Q915.296 722.853 915.296 731.603 Q915.296 739.774 911.407 744.658 Q907.541 749.519 900.99 749.519 Q899.231 749.519 897.426 749.172 Q895.62 748.825 893.676 748.13 M902.981 733.478 Q906.129 733.478 907.958 731.325 Q909.81 729.172 909.81 725.422 Q909.81 721.695 907.958 719.542 Q906.129 717.367 902.981 717.367 Q899.833 717.367 897.981 719.542 Q896.153 721.695 896.153 725.422 Q896.153 729.172 897.981 731.325 Q899.833 733.478 902.981 733.478 Z" fill="#000000" fill-rule="evenodd" fill-opacity="1" /><path clip-path="url(#clip330)" d="M934.277 729.704 Q931.129 729.704 929.277 731.857 Q927.449 734.01 927.449 737.76 Q927.449 741.487 929.277 743.663 Q931.129 745.815 934.277 745.815 Q937.425 745.815 939.254 743.663 Q941.106 741.487 941.106 737.76 Q941.106 734.01 939.254 731.857 Q937.425 729.704 934.277 729.704 M943.56 715.052 L943.56 719.311 Q941.8 718.478 939.995 718.038 Q938.212 717.598 936.453 717.598 Q931.824 717.598 929.37 720.723 Q926.939 723.848 926.592 730.167 Q927.958 728.154 930.018 727.089 Q932.078 726.001 934.555 726.001 Q939.763 726.001 942.773 729.172 Q945.805 732.32 945.805 737.76 Q945.805 743.084 942.657 746.302 Q939.509 749.519 934.277 749.519 Q928.282 749.519 925.111 744.936 Q921.939 740.329 921.939 731.603 Q921.939 723.408 925.828 718.547 Q929.717 713.663 936.268 713.663 Q938.027 713.663 939.81 714.01 Q941.615 714.357 943.56 715.052 Z" fill="#000000" fill-rule="evenodd" fill-opacity="1" /><path clip-path="url(#clip330)" d="M953.907 714.288 L972.263 714.288 L972.263 718.223 L958.189 718.223 L958.189 726.695 Q959.208 726.348 960.226 726.186 Q961.245 726.001 962.263 726.001 Q968.05 726.001 971.43 729.172 Q974.81 732.343 974.81 737.76 Q974.81 743.339 971.337 746.44 Q967.865 749.519 961.546 749.519 Q959.37 749.519 957.101 749.149 Q954.856 748.778 952.449 748.038 L952.449 743.339 Q954.532 744.473 956.754 745.028 Q958.976 745.584 961.453 745.584 Q965.458 745.584 967.796 743.478 Q970.134 741.371 970.134 737.76 Q970.134 734.149 967.796 732.042 Q965.458 729.936 961.453 729.936 Q959.578 729.936 957.703 730.353 Q955.851 730.769 953.907 731.649 L953.907 714.288 Z" fill="#000000" fill-rule="evenodd" fill-opacity="1" /><path clip-path="url(#clip330)" d="M1182.9 744.913 L1190.53 744.913 L1190.53 718.547 L1182.22 720.214 L1182.22 715.955 L1190.49 714.288 L1195.16 714.288 L1195.16 744.913 L1202.8 744.913 L1202.8 748.848 L1182.9 748.848 L1182.9 744.913 Z" fill="#000000" fill-rule="evenodd" fill-opacity="1" /><path clip-path="url(#clip330)" d="M1212.25 742.968 L1217.13 742.968 L1217.13 748.848 L1212.25 748.848 L1212.25 742.968 Z" fill="#000000" fill-rule="evenodd" fill-opacity="1" /><path clip-path="url(#clip330)" d="M1237.89 729.704 Q1234.75 729.704 1232.89 731.857 Q1231.07 734.01 1231.07 737.76 Q1231.07 741.487 1232.89 743.663 Q1234.75 745.815 1237.89 745.815 Q1241.04 745.815 1242.87 743.663 Q1244.72 741.487 1244.72 737.76 Q1244.72 734.01 1242.87 731.857 Q1241.04 729.704 1237.89 729.704 M1247.18 715.052 L1247.18 719.311 Q1245.42 718.478 1243.61 718.038 Q1241.83 717.598 1240.07 717.598 Q1235.44 717.598 1232.99 720.723 Q1230.56 723.848 1230.21 730.167 Q1231.58 728.154 1233.64 727.089 Q1235.7 726.001 1238.17 726.001 Q1243.38 726.001 1246.39 729.172 Q1249.42 732.32 1249.42 737.76 Q1249.42 743.084 1246.27 746.302 Q1243.13 749.519 1237.89 749.519 Q1231.9 749.519 1228.73 744.936 Q1225.56 740.329 1225.56 731.603 Q1225.56 723.408 1229.45 718.547 Q1233.33 713.663 1239.89 713.663 Q1241.64 713.663 1243.43 714.01 Q1245.23 714.357 1247.18 715.052 Z" fill="#000000" fill-rule="evenodd" fill-opacity="1" /><path clip-path="url(#clip330)" d="M1257.62 748.13 L1257.62 743.871 Q1259.38 744.704 1261.18 745.144 Q1262.99 745.584 1264.72 745.584 Q1269.35 745.584 1271.78 742.482 Q1274.24 739.357 1274.58 733.015 Q1273.24 735.005 1271.18 736.07 Q1269.12 737.135 1266.62 737.135 Q1261.44 737.135 1258.4 734.01 Q1255.39 730.862 1255.39 725.422 Q1255.39 720.098 1258.54 716.88 Q1261.69 713.663 1266.92 713.663 Q1272.92 713.663 1276.07 718.269 Q1279.24 722.853 1279.24 731.603 Q1279.24 739.774 1275.35 744.658 Q1271.48 749.519 1264.93 749.519 Q1263.17 749.519 1261.37 749.172 Q1259.56 748.825 1257.62 748.13 M1266.92 733.478 Q1270.07 733.478 1271.9 731.325 Q1273.75 729.172 1273.75 725.422 Q1273.75 721.695 1271.9 719.542 Q1270.07 717.367 1266.92 717.367 Q1263.77 717.367 1261.92 719.542 Q1260.09 721.695 1260.09 725.422 Q1260.09 729.172 1261.92 731.325 Q1263.77 733.478 1266.92 733.478 Z" fill="#000000" fill-rule="evenodd" fill-opacity="1" /><path clip-path="url(#clip330)" d="M1298.22 729.704 Q1295.07 729.704 1293.22 731.857 Q1291.39 734.01 1291.39 737.76 Q1291.39 741.487 1293.22 743.663 Q1295.07 745.815 1298.22 745.815 Q1301.37 745.815 1303.2 743.663 Q1305.05 741.487 1305.05 737.76 Q1305.05 734.01 1303.2 731.857 Q1301.37 729.704 1298.22 729.704 M1307.5 715.052 L1307.5 719.311 Q1305.74 718.478 1303.94 718.038 Q1302.15 717.598 1300.39 717.598 Q1295.76 717.598 1293.31 720.723 Q1290.88 723.848 1290.53 730.167 Q1291.9 728.154 1293.96 727.089 Q1296.02 726.001 1298.5 726.001 Q1303.7 726.001 1306.71 729.172 Q1309.75 732.32 1309.75 737.76 Q1309.75 743.084 1306.6 746.302 Q1303.45 749.519 1298.22 749.519 Q1292.22 749.519 1289.05 744.936 Q1285.88 740.329 1285.88 731.603 Q1285.88 723.408 1289.77 718.547 Q1293.66 713.663 1300.21 713.663 Q1301.97 713.663 1303.75 714.01 Q1305.56 714.357 1307.5 715.052 Z" fill="#000000" fill-rule="evenodd" fill-opacity="1" /><path clip-path="url(#clip330)" d="M1327.8 732.436 Q1324.47 732.436 1322.55 734.218 Q1320.65 736.001 1320.65 739.126 Q1320.65 742.251 1322.55 744.033 Q1324.47 745.815 1327.8 745.815 Q1331.13 745.815 1333.06 744.033 Q1334.98 742.228 1334.98 739.126 Q1334.98 736.001 1333.06 734.218 Q1331.16 732.436 1327.8 732.436 M1323.13 730.445 Q1320.12 729.704 1318.43 727.644 Q1316.76 725.584 1316.76 722.621 Q1316.76 718.478 1319.7 716.07 Q1322.66 713.663 1327.8 713.663 Q1332.96 713.663 1335.9 716.07 Q1338.84 718.478 1338.84 722.621 Q1338.84 725.584 1337.15 727.644 Q1335.49 729.704 1332.5 730.445 Q1335.88 731.232 1337.76 733.524 Q1339.65 735.816 1339.65 739.126 Q1339.65 744.149 1336.57 746.834 Q1333.52 749.519 1327.8 749.519 Q1322.08 749.519 1319.01 746.834 Q1315.95 744.149 1315.95 739.126 Q1315.95 735.816 1317.85 733.524 Q1319.75 731.232 1323.13 730.445 M1321.41 723.061 Q1321.41 725.746 1323.08 727.251 Q1324.77 728.755 1327.8 728.755 Q1330.81 728.755 1332.5 727.251 Q1334.21 725.746 1334.21 723.061 Q1334.21 720.376 1332.5 718.871 Q1330.81 717.367 1327.8 717.367 Q1324.77 717.367 1323.08 718.871 Q1321.41 720.376 1321.41 723.061 Z" fill="#000000" fill-rule="evenodd" fill-opacity="1" /><path clip-path="url(#clip330)" d="M1547.85 744.913 L1555.49 744.913 L1555.49 718.547 L1547.18 720.214 L1547.18 715.955 L1555.45 714.288 L1560.12 714.288 L1560.12 744.913 L1567.76 744.913 L1567.76 748.848 L1547.85 748.848 L1547.85 744.913 Z" fill="#000000" fill-rule="evenodd" fill-opacity="1" /><path clip-path="url(#clip330)" d="M1577.21 742.968 L1582.09 742.968 L1582.09 748.848 L1577.21 748.848 L1577.21 742.968 Z" fill="#000000" fill-rule="evenodd" fill-opacity="1" /><path clip-path="url(#clip330)" d="M1602.85 729.704 Q1599.71 729.704 1597.85 731.857 Q1596.03 734.01 1596.03 737.76 Q1596.03 741.487 1597.85 743.663 Q1599.71 745.815 1602.85 745.815 Q1606 745.815 1607.83 743.663 Q1609.68 741.487 1609.68 737.76 Q1609.68 734.01 1607.83 731.857 Q1606 729.704 1602.85 729.704 M1612.14 715.052 L1612.14 719.311 Q1610.38 718.478 1608.57 718.038 Q1606.79 717.598 1605.03 717.598 Q1600.4 717.598 1597.95 720.723 Q1595.52 723.848 1595.17 730.167 Q1596.54 728.154 1598.6 727.089 Q1600.66 726.001 1603.13 726.001 Q1608.34 726.001 1611.35 729.172 Q1614.38 732.32 1614.38 737.76 Q1614.38 743.084 1611.23 746.302 Q1608.09 749.519 1602.85 749.519 Q1596.86 749.519 1593.69 744.936 Q1590.52 740.329 1590.52 731.603 Q1590.52 723.408 1594.41 718.547 Q1598.29 713.663 1604.85 713.663 Q1606.6 713.663 1608.39 714.01 Q1610.19 714.357 1612.14 715.052 Z" fill="#000000" fill-rule="evenodd" fill-opacity="1" /><path clip-path="url(#clip330)" d="M1622.58 748.13 L1622.58 743.871 Q1624.34 744.704 1626.14 745.144 Q1627.95 745.584 1629.68 745.584 Q1634.31 745.584 1636.74 742.482 Q1639.2 739.357 1639.54 733.015 Q1638.2 735.005 1636.14 736.07 Q1634.08 737.135 1631.58 737.135 Q1626.4 737.135 1623.36 734.01 Q1620.35 730.862 1620.35 725.422 Q1620.35 720.098 1623.5 716.88 Q1626.65 713.663 1631.88 713.663 Q1637.88 713.663 1641.03 718.269 Q1644.2 722.853 1644.2 731.603 Q1644.2 739.774 1640.31 744.658 Q1636.44 749.519 1629.89 749.519 Q1628.13 749.519 1626.33 749.172 Q1624.52 748.825 1622.58 748.13 M1631.88 733.478 Q1635.03 733.478 1636.86 731.325 Q1638.71 729.172 1638.71 725.422 Q1638.71 721.695 1636.86 719.542 Q1635.03 717.367 1631.88 717.367 Q1628.73 717.367 1626.88 719.542 Q1625.05 721.695 1625.05 725.422 Q1625.05 729.172 1626.88 731.325 Q1628.73 733.478 1631.88 733.478 Z" fill="#000000" fill-rule="evenodd" fill-opacity="1" /><path clip-path="url(#clip330)" d="M1651.42 714.288 L1673.64 714.288 L1673.64 716.279 L1661.09 748.848 L1656.21 748.848 L1668.02 718.223 L1651.42 718.223 L1651.42 714.288 Z" fill="#000000" fill-rule="evenodd" fill-opacity="1" /><path clip-path="url(#clip330)" d="M1683.57 744.913 L1691.21 744.913 L1691.21 718.547 L1682.9 720.214 L1682.9 715.955 L1691.16 714.288 L1695.84 714.288 L1695.84 744.913 L1703.48 744.913 L1703.48 748.848 L1683.57 748.848 L1683.57 744.913 Z" fill="#000000" fill-rule="evenodd" fill-opacity="1" /><path clip-path="url(#clip330)" d="M1911.39 744.913 L1919.03 744.913 L1919.03 718.547 L1910.72 720.214 L1910.72 715.955 L1918.98 714.288 L1923.66 714.288 L1923.66 744.913 L1931.3 744.913 L1931.3 748.848 L1911.39 748.848 L1911.39 744.913 Z" fill="#000000" fill-rule="evenodd" fill-opacity="1" /><path clip-path="url(#clip330)" d="M1940.74 742.968 L1945.63 742.968 L1945.63 748.848 L1940.74 748.848 L1940.74 742.968 Z" fill="#000000" fill-rule="evenodd" fill-opacity="1" /><path clip-path="url(#clip330)" d="M1966.39 729.704 Q1963.24 729.704 1961.39 731.857 Q1959.56 734.01 1959.56 737.76 Q1959.56 741.487 1961.39 743.663 Q1963.24 745.815 1966.39 745.815 Q1969.54 745.815 1971.37 743.663 Q1973.22 741.487 1973.22 737.76 Q1973.22 734.01 1971.37 731.857 Q1969.54 729.704 1966.39 729.704 M1975.67 715.052 L1975.67 719.311 Q1973.91 718.478 1972.11 718.038 Q1970.33 717.598 1968.57 717.598 Q1963.94 717.598 1961.48 720.723 Q1959.05 723.848 1958.71 730.167 Q1960.07 728.154 1962.13 727.089 Q1964.19 726.001 1966.67 726.001 Q1971.88 726.001 1974.89 729.172 Q1977.92 732.32 1977.92 737.76 Q1977.92 743.084 1974.77 746.302 Q1971.62 749.519 1966.39 749.519 Q1960.4 749.519 1957.22 744.936 Q1954.05 740.329 1954.05 731.603 Q1954.05 723.408 1957.94 718.547 Q1961.83 713.663 1968.38 713.663 Q1970.14 713.663 1971.92 714.01 Q1973.73 714.357 1975.67 715.052 Z" fill="#000000" fill-rule="evenodd" fill-opacity="1" /><path clip-path="url(#clip330)" d="M1986.11 748.13 L1986.11 743.871 Q1987.87 744.704 1989.68 745.144 Q1991.48 745.584 1993.22 745.584 Q1997.85 745.584 2000.28 742.482 Q2002.73 739.357 2003.08 733.015 Q2001.74 735.005 1999.68 736.07 Q1997.62 737.135 1995.12 737.135 Q1989.93 737.135 1986.9 734.01 Q1983.89 730.862 1983.89 725.422 Q1983.89 720.098 1987.04 716.88 Q1990.19 713.663 1995.42 713.663 Q2001.41 713.663 2004.56 718.269 Q2007.73 722.853 2007.73 731.603 Q2007.73 739.774 2003.84 744.658 Q1999.98 749.519 1993.43 749.519 Q1991.67 749.519 1989.86 749.172 Q1988.06 748.825 1986.11 748.13 M1995.42 733.478 Q1998.57 733.478 2000.39 731.325 Q2002.25 729.172 2002.25 725.422 Q2002.25 721.695 2000.39 719.542 Q1998.57 717.367 1995.42 717.367 Q1992.27 717.367 1990.42 719.542 Q1988.59 721.695 1988.59 725.422 Q1988.59 729.172 1990.42 731.325 Q1992.27 733.478 1995.42 733.478 Z" fill="#000000" fill-rule="evenodd" fill-opacity="1" /><path clip-path="url(#clip330)" d="M2014.96 714.288 L2037.18 714.288 L2037.18 716.279 L2024.63 748.848 L2019.75 748.848 L2031.55 718.223 L2014.96 718.223 L2014.96 714.288 Z" fill="#000000" fill-rule="evenodd" fill-opacity="1" /><path clip-path="url(#clip330)" d="M2059.14 718.362 L2047.34 736.811 L2059.14 736.811 L2059.14 718.362 M2057.92 714.288 L2063.8 714.288 L2063.8 736.811 L2068.73 736.811 L2068.73 740.7 L2063.8 740.7 L2063.8 748.848 L2059.14 748.848 L2059.14 740.7 L2043.54 740.7 L2043.54 736.186 L2057.92 714.288 Z" fill="#000000" fill-rule="evenodd" fill-opacity="1" /><polyline clip-path="url(#clip332)" style="stroke:#000000; stroke-linecap:round; stroke-linejoin:round; stroke-width:2; stroke-opacity:0.1; fill:none" points="
  169.121,668.357 2352.76,668.357 
  "/>
<polyline clip-path="url(#clip332)" style="stroke:#000000; stroke-linecap:round; stroke-linejoin:round; stroke-width:2; stroke-opacity:0.1; fill:none" points="
  169.121,493.06 2352.76,493.06 
  "/>
<polyline clip-path="url(#clip332)" style="stroke:#000000; stroke-linecap:round; stroke-linejoin:round; stroke-width:2; stroke-opacity:0.1; fill:none" points="
  169.121,317.763 2352.76,317.763 
  "/>
<polyline clip-path="url(#clip332)" style="stroke:#000000; stroke-linecap:round; stroke-linejoin:round; stroke-width:2; stroke-opacity:0.1; fill:none" points="
  169.121,142.466 2352.76,142.466 
  "/>
<polyline clip-path="url(#clip330)" style="stroke:#000000; stroke-linecap:round; stroke-linejoin:round; stroke-width:4; stroke-opacity:1; fill:none" points="
  169.121,686.448 169.121,47.2441 
  "/>
<polyline clip-path="url(#clip330)" style="stroke:#000000; stroke-linecap:round; stroke-linejoin:round; stroke-width:4; stroke-opacity:1; fill:none" points="
  169.121,668.357 188.019,668.357 
  "/>
<polyline clip-path="url(#clip330)" style="stroke:#000000; stroke-linecap:round; stroke-linejoin:round; stroke-width:4; stroke-opacity:1; fill:none" points="
  169.121,493.06 188.019,493.06 
  "/>
<polyline clip-path="url(#clip330)" style="stroke:#000000; stroke-linecap:round; stroke-linejoin:round; stroke-width:4; stroke-opacity:1; fill:none" points="
  169.121,317.763 188.019,317.763 
  "/>
<polyline clip-path="url(#clip330)" style="stroke:#000000; stroke-linecap:round; stroke-linejoin:round; stroke-width:4; stroke-opacity:1; fill:none" points="
  169.121,142.466 188.019,142.466 
  "/>
<path clip-path="url(#clip330)" d="M121.177 654.156 Q117.566 654.156 115.737 657.721 Q113.932 661.262 113.932 668.392 Q113.932 675.498 115.737 679.063 Q117.566 682.605 121.177 682.605 Q124.811 682.605 126.617 679.063 Q128.445 675.498 128.445 668.392 Q128.445 661.262 126.617 657.721 Q124.811 654.156 121.177 654.156 M121.177 650.452 Q126.987 650.452 130.043 655.059 Q133.121 659.642 133.121 668.392 Q133.121 677.119 130.043 681.725 Q126.987 686.308 121.177 686.308 Q115.367 686.308 112.288 681.725 Q109.233 677.119 109.233 668.392 Q109.233 659.642 112.288 655.059 Q115.367 650.452 121.177 650.452 Z" fill="#000000" fill-rule="evenodd" fill-opacity="1" /><path clip-path="url(#clip330)" d="M81.0614 475.78 L99.4178 475.78 L99.4178 479.715 L85.3438 479.715 L85.3438 488.187 Q86.3623 487.84 87.3808 487.678 Q88.3993 487.493 89.4178 487.493 Q95.2049 487.493 98.5845 490.664 Q101.964 493.835 101.964 499.252 Q101.964 504.831 98.4919 507.933 Q95.0197 511.011 88.7003 511.011 Q86.5243 511.011 84.2558 510.641 Q82.0105 510.271 79.6031 509.53 L79.6031 504.831 Q81.6864 505.965 83.9086 506.521 Q86.1308 507.076 88.6077 507.076 Q92.6123 507.076 94.9502 504.97 Q97.2882 502.863 97.2882 499.252 Q97.2882 495.641 94.9502 493.535 Q92.6123 491.428 88.6077 491.428 Q86.7327 491.428 84.8577 491.845 Q83.0058 492.261 81.0614 493.141 L81.0614 475.78 Z" fill="#000000" fill-rule="evenodd" fill-opacity="1" /><path clip-path="url(#clip330)" d="M121.177 478.859 Q117.566 478.859 115.737 482.423 Q113.932 485.965 113.932 493.095 Q113.932 500.201 115.737 503.766 Q117.566 507.308 121.177 507.308 Q124.811 507.308 126.617 503.766 Q128.445 500.201 128.445 493.095 Q128.445 485.965 126.617 482.423 Q124.811 478.859 121.177 478.859 M121.177 475.155 Q126.987 475.155 130.043 479.761 Q133.121 484.345 133.121 493.095 Q133.121 501.822 130.043 506.428 Q126.987 511.011 121.177 511.011 Q115.367 511.011 112.288 506.428 Q109.233 501.822 109.233 493.095 Q109.233 484.345 112.288 479.761 Q115.367 475.155 121.177 475.155 Z" fill="#000000" fill-rule="evenodd" fill-opacity="1" /><path clip-path="url(#clip330)" d="M51.6634 331.108 L59.3023 331.108 L59.3023 304.742 L50.9921 306.409 L50.9921 302.149 L59.256 300.483 L63.9319 300.483 L63.9319 331.108 L71.5707 331.108 L71.5707 335.043 L51.6634 335.043 L51.6634 331.108 Z" fill="#000000" fill-rule="evenodd" fill-opacity="1" /><path clip-path="url(#clip330)" d="M91.0151 303.561 Q87.404 303.561 85.5753 307.126 Q83.7697 310.668 83.7697 317.797 Q83.7697 324.904 85.5753 328.469 Q87.404 332.01 91.0151 332.01 Q94.6493 332.01 96.4548 328.469 Q98.2835 324.904 98.2835 317.797 Q98.2835 310.668 96.4548 307.126 Q94.6493 303.561 91.0151 303.561 M91.0151 299.858 Q96.8252 299.858 99.8808 304.464 Q102.959 309.048 102.959 317.797 Q102.959 326.524 99.8808 331.131 Q96.8252 335.714 91.0151 335.714 Q85.2049 335.714 82.1262 331.131 Q79.0707 326.524 79.0707 317.797 Q79.0707 309.048 82.1262 304.464 Q85.2049 299.858 91.0151 299.858 Z" fill="#000000" fill-rule="evenodd" fill-opacity="1" /><path clip-path="url(#clip330)" d="M121.177 303.561 Q117.566 303.561 115.737 307.126 Q113.932 310.668 113.932 317.797 Q113.932 324.904 115.737 328.469 Q117.566 332.01 121.177 332.01 Q124.811 332.01 126.617 328.469 Q128.445 324.904 128.445 317.797 Q128.445 310.668 126.617 307.126 Q124.811 303.561 121.177 303.561 M121.177 299.858 Q126.987 299.858 130.043 304.464 Q133.121 309.048 133.121 317.797 Q133.121 326.524 130.043 331.131 Q126.987 335.714 121.177 335.714 Q115.367 335.714 112.288 331.131 Q109.233 326.524 109.233 317.797 Q109.233 309.048 112.288 304.464 Q115.367 299.858 121.177 299.858 Z" fill="#000000" fill-rule="evenodd" fill-opacity="1" /><path clip-path="url(#clip330)" d="M51.6634 155.81 L59.3023 155.81 L59.3023 129.445 L50.9921 131.111 L50.9921 126.852 L59.256 125.186 L63.9319 125.186 L63.9319 155.81 L71.5707 155.81 L71.5707 159.746 L51.6634 159.746 L51.6634 155.81 Z" fill="#000000" fill-rule="evenodd" fill-opacity="1" /><path clip-path="url(#clip330)" d="M81.0614 125.186 L99.4178 125.186 L99.4178 129.121 L85.3438 129.121 L85.3438 137.593 Q86.3623 137.246 87.3808 137.084 Q88.3993 136.898 89.4178 136.898 Q95.2049 136.898 98.5845 140.07 Q101.964 143.241 101.964 148.658 Q101.964 154.236 98.4919 157.338 Q95.0197 160.417 88.7003 160.417 Q86.5243 160.417 84.2558 160.046 Q82.0105 159.676 79.6031 158.935 L79.6031 154.236 Q81.6864 155.371 83.9086 155.926 Q86.1308 156.482 88.6077 156.482 Q92.6123 156.482 94.9502 154.375 Q97.2882 152.269 97.2882 148.658 Q97.2882 145.047 94.9502 142.94 Q92.6123 140.834 88.6077 140.834 Q86.7327 140.834 84.8577 141.25 Q83.0058 141.667 81.0614 142.547 L81.0614 125.186 Z" fill="#000000" fill-rule="evenodd" fill-opacity="1" /><path clip-path="url(#clip330)" d="M121.177 128.264 Q117.566 128.264 115.737 131.829 Q113.932 135.371 113.932 142.5 Q113.932 149.607 115.737 153.172 Q117.566 156.713 121.177 156.713 Q124.811 156.713 126.617 153.172 Q128.445 149.607 128.445 142.5 Q128.445 135.371 126.617 131.829 Q124.811 128.264 121.177 128.264 M121.177 124.561 Q126.987 124.561 130.043 129.167 Q133.121 133.75 133.121 142.5 Q133.121 151.227 130.043 155.834 Q126.987 160.417 121.177 160.417 Q115.367 160.417 112.288 155.834 Q109.233 151.227 109.233 142.5 Q109.233 133.75 112.288 129.167 Q115.367 124.561 121.177 124.561 Z" fill="#000000" fill-rule="evenodd" fill-opacity="1" /><path clip-path="url(#clip332)" d="
M289.225 664.851 L289.225 668.357 L410.689 668.357 L410.689 664.851 L289.225 664.851 L289.225 664.851  Z
  " fill="#009af9" fill-rule="evenodd" fill-opacity="1"/>
<polyline clip-path="url(#clip332)" style="stroke:#000000; stroke-linecap:round; stroke-linejoin:round; stroke-width:4; stroke-opacity:1; fill:none" points="
  289.225,664.851 289.225,668.357 410.689,668.357 410.689,664.851 289.225,664.851 
  "/>
<path clip-path="url(#clip332)" d="
M410.689 647.322 L410.689 668.357 L532.153 668.357 L532.153 647.322 L410.689 647.322 L410.689 647.322  Z
  " fill="#009af9" fill-rule="evenodd" fill-opacity="1"/>
<polyline clip-path="url(#clip332)" style="stroke:#000000; stroke-linecap:round; stroke-linejoin:round; stroke-width:4; stroke-opacity:1; fill:none" points="
  410.689,647.322 410.689,668.357 532.153,668.357 532.153,647.322 410.689,647.322 
  "/>
<path clip-path="url(#clip332)" d="
M532.153 608.756 L532.153 668.357 L653.618 668.357 L653.618 608.756 L532.153 608.756 L532.153 608.756  Z
  " fill="#009af9" fill-rule="evenodd" fill-opacity="1"/>
<polyline clip-path="url(#clip332)" style="stroke:#000000; stroke-linecap:round; stroke-linejoin:round; stroke-width:4; stroke-opacity:1; fill:none" points="
  532.153,608.756 532.153,668.357 653.618,668.357 653.618,608.756 532.153,608.756 
  "/>
<path clip-path="url(#clip332)" d="
M653.618 531.625 L653.618 668.357 L775.082 668.357 L775.082 531.625 L653.618 531.625 L653.618 531.625  Z
  " fill="#009af9" fill-rule="evenodd" fill-opacity="1"/>
<polyline clip-path="url(#clip332)" style="stroke:#000000; stroke-linecap:round; stroke-linejoin:round; stroke-width:4; stroke-opacity:1; fill:none" points="
  653.618,531.625 653.618,668.357 775.082,668.357 775.082,531.625 653.618,531.625 
  "/>
<path clip-path="url(#clip332)" d="
M775.082 373.858 L775.082 668.357 L896.546 668.357 L896.546 373.858 L775.082 373.858 L775.082 373.858  Z
  " fill="#009af9" fill-rule="evenodd" fill-opacity="1"/>
<polyline clip-path="url(#clip332)" style="stroke:#000000; stroke-linecap:round; stroke-linejoin:round; stroke-width:4; stroke-opacity:1; fill:none" points="
  775.082,373.858 775.082,668.357 896.546,668.357 896.546,373.858 775.082,373.858 
  "/>
<path clip-path="url(#clip332)" d="
M896.546 272.185 L896.546 668.357 L1018.01 668.357 L1018.01 272.185 L896.546 272.185 L896.546 272.185  Z
  " fill="#009af9" fill-rule="evenodd" fill-opacity="1"/>
<polyline clip-path="url(#clip332)" style="stroke:#000000; stroke-linecap:round; stroke-linejoin:round; stroke-width:4; stroke-opacity:1; fill:none" points="
  896.546,272.185 896.546,668.357 1018.01,668.357 1018.01,272.185 896.546,272.185 
  "/>
<path clip-path="url(#clip332)" d="
M1018.01 65.3348 L1018.01 668.357 L1139.47 668.357 L1139.47 65.3348 L1018.01 65.3348 L1018.01 65.3348  Z
  " fill="#009af9" fill-rule="evenodd" fill-opacity="1"/>
<polyline clip-path="url(#clip332)" style="stroke:#000000; stroke-linecap:round; stroke-linejoin:round; stroke-width:4; stroke-opacity:1; fill:none" points="
  1018.01,65.3348 1018.01,668.357 1139.47,668.357 1139.47,65.3348 1018.01,65.3348 
  "/>
<path clip-path="url(#clip332)" d="
M1139.47 103.9 L1139.47 668.357 L1260.94 668.357 L1260.94 103.9 L1139.47 103.9 L1139.47 103.9  Z
  " fill="#009af9" fill-rule="evenodd" fill-opacity="1"/>
<polyline clip-path="url(#clip332)" style="stroke:#000000; stroke-linecap:round; stroke-linejoin:round; stroke-width:4; stroke-opacity:1; fill:none" points="
  1139.47,103.9 1139.47,668.357 1260.94,668.357 1260.94,103.9 1139.47,103.9 
  "/>
<path clip-path="url(#clip332)" d="
M1260.94 128.442 L1260.94 668.357 L1382.4 668.357 L1382.4 128.442 L1260.94 128.442 L1260.94 128.442  Z
  " fill="#009af9" fill-rule="evenodd" fill-opacity="1"/>
<polyline clip-path="url(#clip332)" style="stroke:#000000; stroke-linecap:round; stroke-linejoin:round; stroke-width:4; stroke-opacity:1; fill:none" points="
  1260.94,128.442 1260.94,668.357 1382.4,668.357 1382.4,128.442 1260.94,128.442 
  "/>
<path clip-path="url(#clip332)" d="
M1382.4 233.62 L1382.4 668.357 L1503.87 668.357 L1503.87 233.62 L1382.4 233.62 L1382.4 233.62  Z
  " fill="#009af9" fill-rule="evenodd" fill-opacity="1"/>
<polyline clip-path="url(#clip332)" style="stroke:#000000; stroke-linecap:round; stroke-linejoin:round; stroke-width:4; stroke-opacity:1; fill:none" points="
  1382.4,233.62 1382.4,668.357 1503.87,668.357 1503.87,233.62 1382.4,233.62 
  "/>
<path clip-path="url(#clip332)" d="
M1503.87 408.917 L1503.87 668.357 L1625.33 668.357 L1625.33 408.917 L1503.87 408.917 L1503.87 408.917  Z
  " fill="#009af9" fill-rule="evenodd" fill-opacity="1"/>
<polyline clip-path="url(#clip332)" style="stroke:#000000; stroke-linecap:round; stroke-linejoin:round; stroke-width:4; stroke-opacity:1; fill:none" points="
  1503.87,408.917 1503.87,668.357 1625.33,668.357 1625.33,408.917 1503.87,408.917 
  "/>
<path clip-path="url(#clip332)" d="
M1625.33 559.673 L1625.33 668.357 L1746.8 668.357 L1746.8 559.673 L1625.33 559.673 L1625.33 559.673  Z
  " fill="#009af9" fill-rule="evenodd" fill-opacity="1"/>
<polyline clip-path="url(#clip332)" style="stroke:#000000; stroke-linecap:round; stroke-linejoin:round; stroke-width:4; stroke-opacity:1; fill:none" points="
  1625.33,559.673 1625.33,668.357 1746.8,668.357 1746.8,559.673 1625.33,559.673 
  "/>
<path clip-path="url(#clip332)" d="
M1746.8 608.756 L1746.8 668.357 L1868.26 668.357 L1868.26 608.756 L1746.8 608.756 L1746.8 608.756  Z
  " fill="#009af9" fill-rule="evenodd" fill-opacity="1"/>
<polyline clip-path="url(#clip332)" style="stroke:#000000; stroke-linecap:round; stroke-linejoin:round; stroke-width:4; stroke-opacity:1; fill:none" points="
  1746.8,608.756 1746.8,668.357 1868.26,668.357 1868.26,608.756 1746.8,608.756 
  "/>
<path clip-path="url(#clip332)" d="
M1868.26 650.827 L1868.26 668.357 L1989.72 668.357 L1989.72 650.827 L1868.26 650.827 L1868.26 650.827  Z
  " fill="#009af9" fill-rule="evenodd" fill-opacity="1"/>
<polyline clip-path="url(#clip332)" style="stroke:#000000; stroke-linecap:round; stroke-linejoin:round; stroke-width:4; stroke-opacity:1; fill:none" points="
  1868.26,650.827 1868.26,668.357 1989.72,668.357 1989.72,650.827 1868.26,650.827 
  "/>
<path clip-path="url(#clip332)" d="
M1989.72 664.851 L1989.72 668.357 L2111.19 668.357 L2111.19 664.851 L1989.72 664.851 L1989.72 664.851  Z
  " fill="#009af9" fill-rule="evenodd" fill-opacity="1"/>
<polyline clip-path="url(#clip332)" style="stroke:#000000; stroke-linecap:round; stroke-linejoin:round; stroke-width:4; stroke-opacity:1; fill:none" points="
  1989.72,664.851 1989.72,668.357 2111.19,668.357 2111.19,664.851 1989.72,664.851 
  "/>
<path clip-path="url(#clip332)" d="
M2111.19 664.851 L2111.19 668.357 L2232.65 668.357 L2232.65 664.851 L2111.19 664.851 L2111.19 664.851  Z
  " fill="#009af9" fill-rule="evenodd" fill-opacity="1"/>
<polyline clip-path="url(#clip332)" style="stroke:#000000; stroke-linecap:round; stroke-linejoin:round; stroke-width:4; stroke-opacity:1; fill:none" points="
  2111.19,664.851 2111.19,668.357 2232.65,668.357 2232.65,664.851 2111.19,664.851 
  "/>
<circle clip-path="url(#clip332)" style="fill:#009af9; stroke:none; fill-opacity:0" cx="349.957" cy="664.851" r="2"/>
<circle clip-path="url(#clip332)" style="fill:#009af9; stroke:none; fill-opacity:0" cx="471.421" cy="647.322" r="2"/>
<circle clip-path="url(#clip332)" style="fill:#009af9; stroke:none; fill-opacity:0" cx="592.886" cy="608.756" r="2"/>
<circle clip-path="url(#clip332)" style="fill:#009af9; stroke:none; fill-opacity:0" cx="714.35" cy="531.625" r="2"/>
<circle clip-path="url(#clip332)" style="fill:#009af9; stroke:none; fill-opacity:0" cx="835.814" cy="373.858" r="2"/>
<circle clip-path="url(#clip332)" style="fill:#009af9; stroke:none; fill-opacity:0" cx="957.278" cy="272.185" r="2"/>
<circle clip-path="url(#clip332)" style="fill:#009af9; stroke:none; fill-opacity:0" cx="1078.74" cy="65.3348" r="2"/>
<circle clip-path="url(#clip332)" style="fill:#009af9; stroke:none; fill-opacity:0" cx="1200.21" cy="103.9" r="2"/>
<circle clip-path="url(#clip332)" style="fill:#009af9; stroke:none; fill-opacity:0" cx="1321.67" cy="128.442" r="2"/>
<circle clip-path="url(#clip332)" style="fill:#009af9; stroke:none; fill-opacity:0" cx="1443.13" cy="233.62" r="2"/>
<circle clip-path="url(#clip332)" style="fill:#009af9; stroke:none; fill-opacity:0" cx="1564.6" cy="408.917" r="2"/>
<circle clip-path="url(#clip332)" style="fill:#009af9; stroke:none; fill-opacity:0" cx="1686.06" cy="559.673" r="2"/>
<circle clip-path="url(#clip332)" style="fill:#009af9; stroke:none; fill-opacity:0" cx="1807.53" cy="608.756" r="2"/>
<circle clip-path="url(#clip332)" style="fill:#009af9; stroke:none; fill-opacity:0" cx="1928.99" cy="650.827" r="2"/>
<circle clip-path="url(#clip332)" style="fill:#009af9; stroke:none; fill-opacity:0" cx="2050.46" cy="664.851" r="2"/>
<circle clip-path="url(#clip332)" style="fill:#009af9; stroke:none; fill-opacity:0" cx="2171.92" cy="664.851" r="2"/>
<path clip-path="url(#clip330)" d="
M1817.3 172.231 L2279.97 172.231 L2279.97 68.5509 L1817.3 68.5509  Z
  " fill="#ffffff" fill-rule="evenodd" fill-opacity="1"/>
<polyline clip-path="url(#clip330)" style="stroke:#000000; stroke-linecap:round; stroke-linejoin:round; stroke-width:4; stroke-opacity:1; fill:none" points="
  1817.3,172.231 2279.97,172.231 2279.97,68.5509 1817.3,68.5509 1817.3,172.231 
  "/>
<path clip-path="url(#clip330)" d="
M1841.56 141.127 L1987.14 141.127 L1987.14 99.6549 L1841.56 99.6549 L1841.56 141.127  Z
  " fill="#009af9" fill-rule="evenodd" fill-opacity="1"/>
<polyline clip-path="url(#clip330)" style="stroke:#000000; stroke-linecap:round; stroke-linejoin:round; stroke-width:4; stroke-opacity:1; fill:none" points="
  1841.56,141.127 1987.14,141.127 1987.14,99.6549 1841.56,99.6549 1841.56,141.127 
  "/>
<path clip-path="url(#clip330)" d="M2011.4 101.653 L2021.22 101.653 L2021.22 104.963 L2015.66 104.963 L2015.66 140.611 L2021.22 140.611 L2021.22 143.921 L2011.4 143.921 L2011.4 101.653 Z" fill="#000000" fill-rule="evenodd" fill-opacity="1" /><path clip-path="url(#clip330)" d="M2034.32 103.111 L2034.32 115.958 L2030.38 115.958 L2030.38 103.111 L2034.32 103.111 M2043.07 103.111 L2043.07 115.958 L2039.13 115.958 L2039.13 103.111 L2043.07 103.111 Z" fill="#000000" fill-rule="evenodd" fill-opacity="1" /><path clip-path="url(#clip330)" d="M2073.65 122.023 L2073.65 137.671 L2069.39 137.671 L2069.39 122.162 Q2069.39 118.481 2067.95 116.652 Q2066.52 114.824 2063.65 114.824 Q2060.2 114.824 2058.21 117.023 Q2056.22 119.222 2056.22 123.018 L2056.22 137.671 L2051.93 137.671 L2051.93 111.745 L2056.22 111.745 L2056.22 115.773 Q2057.74 113.435 2059.8 112.278 Q2061.89 111.12 2064.6 111.12 Q2069.06 111.12 2071.35 113.898 Q2073.65 116.652 2073.65 122.023 Z" fill="#000000" fill-rule="evenodd" fill-opacity="1" /><path clip-path="url(#clip330)" d="M2081.29 135.125 L2086.01 135.125 L2086.01 120.981 L2080.85 121.93 L2080.85 119.245 L2086.17 118.342 L2089.34 118.342 L2089.34 135.125 L2094.09 135.125 L2094.09 137.671 L2081.29 137.671 L2081.29 135.125 Z" fill="#000000" fill-rule="evenodd" fill-opacity="1" /><path clip-path="url(#clip330)" d="M2105.17 103.111 L2105.17 115.958 L2101.24 115.958 L2101.24 103.111 L2105.17 103.111 M2113.92 103.111 L2113.92 115.958 L2109.99 115.958 L2109.99 103.111 L2113.92 103.111 Z" fill="#000000" fill-rule="evenodd" fill-opacity="1" /><path clip-path="url(#clip330)" d="M2124.04 131.791 L2128.92 131.791 L2128.92 135.773 L2125.13 143.18 L2122.14 143.18 L2124.04 135.773 L2124.04 131.791 Z" fill="#000000" fill-rule="evenodd" fill-opacity="1" /><path clip-path="url(#clip330)" d="M2157.12 103.111 L2157.12 115.958 L2153.18 115.958 L2153.18 103.111 L2157.12 103.111 M2165.87 103.111 L2165.87 115.958 L2161.93 115.958 L2161.93 103.111 L2165.87 103.111 Z" fill="#000000" fill-rule="evenodd" fill-opacity="1" /><path clip-path="url(#clip330)" d="M2196.45 122.023 L2196.45 137.671 L2192.19 137.671 L2192.19 122.162 Q2192.19 118.481 2190.75 116.652 Q2189.32 114.824 2186.45 114.824 Q2183 114.824 2181.01 117.023 Q2179.02 119.222 2179.02 123.018 L2179.02 137.671 L2174.73 137.671 L2174.73 111.745 L2179.02 111.745 L2179.02 115.773 Q2180.54 113.435 2182.6 112.278 Q2184.69 111.12 2187.4 111.12 Q2191.86 111.12 2194.15 113.898 Q2196.45 116.652 2196.45 122.023 Z" fill="#000000" fill-rule="evenodd" fill-opacity="1" /><path clip-path="url(#clip330)" d="M2206.68 135.032 L2216.49 135.032 L2216.49 137.671 L2202.65 137.671 L2202.65 135.125 Q2203.44 134.407 2204.9 133.111 Q2212.86 126.051 2212.86 123.875 Q2212.86 122.347 2211.65 121.421 Q2210.45 120.472 2208.48 120.472 Q2207.28 120.472 2205.87 120.889 Q2204.46 121.282 2202.79 122.092 L2202.79 119.245 Q2204.57 118.597 2206.1 118.273 Q2207.65 117.949 2208.97 117.949 Q2212.33 117.949 2214.34 119.477 Q2216.35 121.004 2216.35 123.504 Q2216.35 126.722 2208.69 133.296 Q2207.4 134.407 2206.68 135.032 Z" fill="#000000" fill-rule="evenodd" fill-opacity="1" /><path clip-path="url(#clip330)" d="M2227.97 103.111 L2227.97 115.958 L2224.04 115.958 L2224.04 103.111 L2227.97 103.111 M2236.72 103.111 L2236.72 115.958 L2232.79 115.958 L2232.79 103.111 L2236.72 103.111 Z" fill="#000000" fill-rule="evenodd" fill-opacity="1" /><path clip-path="url(#clip330)" d="M2255.71 101.653 L2255.71 143.921 L2245.89 143.921 L2245.89 140.611 L2251.42 140.611 L2251.42 104.963 L2245.89 104.963 L2245.89 101.653 L2255.71 101.653 Z" fill="#000000" fill-rule="evenodd" fill-opacity="1" /><path clip-path="url(#clip330)" d="
M169.121 1486.45 L2352.76 1486.45 L2352.76 847.244 L169.121 847.244  Z
  " fill="#ffffff" fill-rule="evenodd" fill-opacity="1"/>
<defs>
  <clipPath id="clip333">
    <rect x="169" y="847" width="2185" height="640"/>
  </clipPath>
</defs>
<polyline clip-path="url(#clip333)" style="stroke:#000000; stroke-linecap:round; stroke-linejoin:round; stroke-width:2; stroke-opacity:0.1; fill:none" points="
  497.449,1486.45 497.449,847.244 
  "/>
<polyline clip-path="url(#clip333)" style="stroke:#000000; stroke-linecap:round; stroke-linejoin:round; stroke-width:2; stroke-opacity:0.1; fill:none" points="
  913.898,1486.45 913.898,847.244 
  "/>
<polyline clip-path="url(#clip333)" style="stroke:#000000; stroke-linecap:round; stroke-linejoin:round; stroke-width:2; stroke-opacity:0.1; fill:none" points="
  1330.35,1486.45 1330.35,847.244 
  "/>
<polyline clip-path="url(#clip333)" style="stroke:#000000; stroke-linecap:round; stroke-linejoin:round; stroke-width:2; stroke-opacity:0.1; fill:none" points="
  1746.8,1486.45 1746.8,847.244 
  "/>
<polyline clip-path="url(#clip333)" style="stroke:#000000; stroke-linecap:round; stroke-linejoin:round; stroke-width:2; stroke-opacity:0.1; fill:none" points="
  2163.24,1486.45 2163.24,847.244 
  "/>
<polyline clip-path="url(#clip330)" style="stroke:#000000; stroke-linecap:round; stroke-linejoin:round; stroke-width:4; stroke-opacity:1; fill:none" points="
  169.121,1486.45 2352.76,1486.45 
  "/>
<polyline clip-path="url(#clip330)" style="stroke:#000000; stroke-linecap:round; stroke-linejoin:round; stroke-width:4; stroke-opacity:1; fill:none" points="
  497.449,1486.45 497.449,1467.55 
  "/>
<polyline clip-path="url(#clip330)" style="stroke:#000000; stroke-linecap:round; stroke-linejoin:round; stroke-width:4; stroke-opacity:1; fill:none" points="
  913.898,1486.45 913.898,1467.55 
  "/>
<polyline clip-path="url(#clip330)" style="stroke:#000000; stroke-linecap:round; stroke-linejoin:round; stroke-width:4; stroke-opacity:1; fill:none" points="
  1330.35,1486.45 1330.35,1467.55 
  "/>
<polyline clip-path="url(#clip330)" style="stroke:#000000; stroke-linecap:round; stroke-linejoin:round; stroke-width:4; stroke-opacity:1; fill:none" points="
  1746.8,1486.45 1746.8,1467.55 
  "/>
<polyline clip-path="url(#clip330)" style="stroke:#000000; stroke-linecap:round; stroke-linejoin:round; stroke-width:4; stroke-opacity:1; fill:none" points="
  2163.24,1486.45 2163.24,1467.55 
  "/>
<path clip-path="url(#clip330)" d="M419.857 1544.91 L427.496 1544.91 L427.496 1518.55 L419.186 1520.21 L419.186 1515.95 L427.45 1514.29 L432.126 1514.29 L432.126 1544.91 L439.765 1544.91 L439.765 1548.85 L419.857 1548.85 L419.857 1544.91 Z" fill="#000000" fill-rule="evenodd" fill-opacity="1" /><path clip-path="url(#clip330)" d="M449.209 1542.97 L454.093 1542.97 L454.093 1548.85 L449.209 1548.85 L449.209 1542.97 Z" fill="#000000" fill-rule="evenodd" fill-opacity="1" /><path clip-path="url(#clip330)" d="M463.098 1514.29 L485.32 1514.29 L485.32 1516.28 L472.774 1548.85 L467.889 1548.85 L479.695 1518.22 L463.098 1518.22 L463.098 1514.29 Z" fill="#000000" fill-rule="evenodd" fill-opacity="1" /><path clip-path="url(#clip330)" d="M494.486 1514.29 L512.843 1514.29 L512.843 1518.22 L498.769 1518.22 L498.769 1526.7 Q499.787 1526.35 500.806 1526.19 Q501.824 1526 502.843 1526 Q508.63 1526 512.01 1529.17 Q515.389 1532.34 515.389 1537.76 Q515.389 1543.34 511.917 1546.44 Q508.445 1549.52 502.125 1549.52 Q499.949 1549.52 497.681 1549.15 Q495.436 1548.78 493.028 1548.04 L493.028 1543.34 Q495.111 1544.47 497.334 1545.03 Q499.556 1545.58 502.033 1545.58 Q506.037 1545.58 508.375 1543.48 Q510.713 1541.37 510.713 1537.76 Q510.713 1534.15 508.375 1532.04 Q506.037 1529.94 502.033 1529.94 Q500.158 1529.94 498.283 1530.35 Q496.431 1530.77 494.486 1531.65 L494.486 1514.29 Z" fill="#000000" fill-rule="evenodd" fill-opacity="1" /><path clip-path="url(#clip330)" d="M534.602 1517.37 Q530.991 1517.37 529.162 1520.93 Q527.357 1524.47 527.357 1531.6 Q527.357 1538.71 529.162 1542.27 Q530.991 1545.82 534.602 1545.82 Q538.236 1545.82 540.042 1542.27 Q541.87 1538.71 541.87 1531.6 Q541.87 1524.47 540.042 1520.93 Q538.236 1517.37 534.602 1517.37 M534.602 1513.66 Q540.412 1513.66 543.468 1518.27 Q546.546 1522.85 546.546 1531.6 Q546.546 1540.33 543.468 1544.94 Q540.412 1549.52 534.602 1549.52 Q528.792 1549.52 525.713 1544.94 Q522.658 1540.33 522.658 1531.6 Q522.658 1522.85 525.713 1518.27 Q528.792 1513.66 534.602 1513.66 Z" fill="#000000" fill-rule="evenodd" fill-opacity="1" /><path clip-path="url(#clip330)" d="M554.81 1514.29 L573.167 1514.29 L573.167 1518.22 L559.093 1518.22 L559.093 1526.7 Q560.111 1526.35 561.13 1526.19 Q562.148 1526 563.167 1526 Q568.954 1526 572.333 1529.17 Q575.713 1532.34 575.713 1537.76 Q575.713 1543.34 572.241 1546.44 Q568.768 1549.52 562.449 1549.52 Q560.273 1549.52 558.005 1549.15 Q555.759 1548.78 553.352 1548.04 L553.352 1543.34 Q555.435 1544.47 557.657 1545.03 Q559.88 1545.58 562.356 1545.58 Q566.361 1545.58 568.699 1543.48 Q571.037 1541.37 571.037 1537.76 Q571.037 1534.15 568.699 1532.04 Q566.361 1529.94 562.356 1529.94 Q560.481 1529.94 558.607 1530.35 Q556.755 1530.77 554.81 1531.65 L554.81 1514.29 Z" fill="#000000" fill-rule="evenodd" fill-opacity="1" /><path clip-path="url(#clip330)" d="M835.855 1544.91 L843.493 1544.91 L843.493 1518.55 L835.183 1520.21 L835.183 1515.95 L843.447 1514.29 L848.123 1514.29 L848.123 1544.91 L855.762 1544.91 L855.762 1548.85 L835.855 1548.85 L835.855 1544.91 Z" fill="#000000" fill-rule="evenodd" fill-opacity="1" /><path clip-path="url(#clip330)" d="M865.206 1542.97 L870.09 1542.97 L870.09 1548.85 L865.206 1548.85 L865.206 1542.97 Z" fill="#000000" fill-rule="evenodd" fill-opacity="1" /><path clip-path="url(#clip330)" d="M879.095 1514.29 L901.317 1514.29 L901.317 1516.28 L888.771 1548.85 L883.887 1548.85 L895.692 1518.22 L879.095 1518.22 L879.095 1514.29 Z" fill="#000000" fill-rule="evenodd" fill-opacity="1" /><path clip-path="url(#clip330)" d="M910.484 1514.29 L928.84 1514.29 L928.84 1518.22 L914.766 1518.22 L914.766 1526.7 Q915.785 1526.35 916.803 1526.19 Q917.822 1526 918.84 1526 Q924.627 1526 928.007 1529.17 Q931.386 1532.34 931.386 1537.76 Q931.386 1543.34 927.914 1546.44 Q924.442 1549.52 918.123 1549.52 Q915.947 1549.52 913.678 1549.15 Q911.433 1548.78 909.025 1548.04 L909.025 1543.34 Q911.109 1544.47 913.331 1545.03 Q915.553 1545.58 918.03 1545.58 Q922.035 1545.58 924.373 1543.48 Q926.711 1541.37 926.711 1537.76 Q926.711 1534.15 924.373 1532.04 Q922.035 1529.94 918.03 1529.94 Q916.155 1529.94 914.28 1530.35 Q912.428 1530.77 910.484 1531.65 L910.484 1514.29 Z" fill="#000000" fill-rule="evenodd" fill-opacity="1" /><path clip-path="url(#clip330)" d="M950.599 1517.37 Q946.988 1517.37 945.159 1520.93 Q943.354 1524.47 943.354 1531.6 Q943.354 1538.71 945.159 1542.27 Q946.988 1545.82 950.599 1545.82 Q954.234 1545.82 956.039 1542.27 Q957.868 1538.71 957.868 1531.6 Q957.868 1524.47 956.039 1520.93 Q954.234 1517.37 950.599 1517.37 M950.599 1513.66 Q956.409 1513.66 959.465 1518.27 Q962.544 1522.85 962.544 1531.6 Q962.544 1540.33 959.465 1544.94 Q956.409 1549.52 950.599 1549.52 Q944.789 1549.52 941.71 1544.94 Q938.655 1540.33 938.655 1531.6 Q938.655 1522.85 941.71 1518.27 Q944.789 1513.66 950.599 1513.66 Z" fill="#000000" fill-rule="evenodd" fill-opacity="1" /><path clip-path="url(#clip330)" d="M980.761 1532.44 Q977.428 1532.44 975.507 1534.22 Q973.608 1536 973.608 1539.13 Q973.608 1542.25 975.507 1544.03 Q977.428 1545.82 980.761 1545.82 Q984.094 1545.82 986.016 1544.03 Q987.937 1542.23 987.937 1539.13 Q987.937 1536 986.016 1534.22 Q984.118 1532.44 980.761 1532.44 M976.085 1530.45 Q973.076 1529.7 971.386 1527.64 Q969.72 1525.58 969.72 1522.62 Q969.72 1518.48 972.659 1516.07 Q975.622 1513.66 980.761 1513.66 Q985.923 1513.66 988.863 1516.07 Q991.803 1518.48 991.803 1522.62 Q991.803 1525.58 990.113 1527.64 Q988.446 1529.7 985.46 1530.45 Q988.84 1531.23 990.715 1533.52 Q992.613 1535.82 992.613 1539.13 Q992.613 1544.15 989.534 1546.83 Q986.479 1549.52 980.761 1549.52 Q975.044 1549.52 971.965 1546.83 Q968.909 1544.15 968.909 1539.13 Q968.909 1535.82 970.807 1533.52 Q972.706 1531.23 976.085 1530.45 M974.372 1523.06 Q974.372 1525.75 976.039 1527.25 Q977.729 1528.76 980.761 1528.76 Q983.77 1528.76 985.46 1527.25 Q987.173 1525.75 987.173 1523.06 Q987.173 1520.38 985.46 1518.87 Q983.77 1517.37 980.761 1517.37 Q977.729 1517.37 976.039 1518.87 Q974.372 1520.38 974.372 1523.06 Z" fill="#000000" fill-rule="evenodd" fill-opacity="1" /><path clip-path="url(#clip330)" d="M1252.87 1544.91 L1260.51 1544.91 L1260.51 1518.55 L1252.2 1520.21 L1252.2 1515.95 L1260.46 1514.29 L1265.14 1514.29 L1265.14 1544.91 L1272.78 1544.91 L1272.78 1548.85 L1252.87 1548.85 L1252.87 1544.91 Z" fill="#000000" fill-rule="evenodd" fill-opacity="1" /><path clip-path="url(#clip330)" d="M1282.22 1542.97 L1287.11 1542.97 L1287.11 1548.85 L1282.22 1548.85 L1282.22 1542.97 Z" fill="#000000" fill-rule="evenodd" fill-opacity="1" /><path clip-path="url(#clip330)" d="M1296.11 1514.29 L1318.33 1514.29 L1318.33 1516.28 L1305.79 1548.85 L1300.9 1548.85 L1312.71 1518.22 L1296.11 1518.22 L1296.11 1514.29 Z" fill="#000000" fill-rule="evenodd" fill-opacity="1" /><path clip-path="url(#clip330)" d="M1327.5 1514.29 L1345.86 1514.29 L1345.86 1518.22 L1331.78 1518.22 L1331.78 1526.7 Q1332.8 1526.35 1333.82 1526.19 Q1334.84 1526 1335.86 1526 Q1341.64 1526 1345.02 1529.17 Q1348.4 1532.34 1348.4 1537.76 Q1348.4 1543.34 1344.93 1546.44 Q1341.46 1549.52 1335.14 1549.52 Q1332.96 1549.52 1330.69 1549.15 Q1328.45 1548.78 1326.04 1548.04 L1326.04 1543.34 Q1328.12 1544.47 1330.35 1545.03 Q1332.57 1545.58 1335.05 1545.58 Q1339.05 1545.58 1341.39 1543.48 Q1343.73 1541.37 1343.73 1537.76 Q1343.73 1534.15 1341.39 1532.04 Q1339.05 1529.94 1335.05 1529.94 Q1333.17 1529.94 1331.3 1530.35 Q1329.44 1530.77 1327.5 1531.65 L1327.5 1514.29 Z" fill="#000000" fill-rule="evenodd" fill-opacity="1" /><path clip-path="url(#clip330)" d="M1358.43 1544.91 L1366.06 1544.91 L1366.06 1518.55 L1357.75 1520.21 L1357.75 1515.95 L1366.02 1514.29 L1370.69 1514.29 L1370.69 1544.91 L1378.33 1544.91 L1378.33 1548.85 L1358.43 1548.85 L1358.43 1544.91 Z" fill="#000000" fill-rule="evenodd" fill-opacity="1" /><path clip-path="url(#clip330)" d="M1388.59 1544.91 L1396.23 1544.91 L1396.23 1518.55 L1387.92 1520.21 L1387.92 1515.95 L1396.18 1514.29 L1400.86 1514.29 L1400.86 1544.91 L1408.49 1544.91 L1408.49 1548.85 L1388.59 1548.85 L1388.59 1544.91 Z" fill="#000000" fill-rule="evenodd" fill-opacity="1" /><path clip-path="url(#clip330)" d="M1668.46 1544.91 L1676.1 1544.91 L1676.1 1518.55 L1667.79 1520.21 L1667.79 1515.95 L1676.06 1514.29 L1680.73 1514.29 L1680.73 1544.91 L1688.37 1544.91 L1688.37 1548.85 L1668.46 1548.85 L1668.46 1544.91 Z" fill="#000000" fill-rule="evenodd" fill-opacity="1" /><path clip-path="url(#clip330)" d="M1697.81 1542.97 L1702.7 1542.97 L1702.7 1548.85 L1697.81 1548.85 L1697.81 1542.97 Z" fill="#000000" fill-rule="evenodd" fill-opacity="1" /><path clip-path="url(#clip330)" d="M1711.7 1514.29 L1733.93 1514.29 L1733.93 1516.28 L1721.38 1548.85 L1716.49 1548.85 L1728.3 1518.22 L1711.7 1518.22 L1711.7 1514.29 Z" fill="#000000" fill-rule="evenodd" fill-opacity="1" /><path clip-path="url(#clip330)" d="M1743.09 1514.29 L1761.45 1514.29 L1761.45 1518.22 L1747.37 1518.22 L1747.37 1526.7 Q1748.39 1526.35 1749.41 1526.19 Q1750.43 1526 1751.45 1526 Q1757.24 1526 1760.61 1529.17 Q1763.99 1532.34 1763.99 1537.76 Q1763.99 1543.34 1760.52 1546.44 Q1757.05 1549.52 1750.73 1549.52 Q1748.55 1549.52 1746.29 1549.15 Q1744.04 1548.78 1741.63 1548.04 L1741.63 1543.34 Q1743.72 1544.47 1745.94 1545.03 Q1748.16 1545.58 1750.64 1545.58 Q1754.64 1545.58 1756.98 1543.48 Q1759.32 1541.37 1759.32 1537.76 Q1759.32 1534.15 1756.98 1532.04 Q1754.64 1529.94 1750.64 1529.94 Q1748.76 1529.94 1746.89 1530.35 Q1745.04 1530.77 1743.09 1531.65 L1743.09 1514.29 Z" fill="#000000" fill-rule="evenodd" fill-opacity="1" /><path clip-path="url(#clip330)" d="M1774.02 1544.91 L1781.66 1544.91 L1781.66 1518.55 L1773.35 1520.21 L1773.35 1515.95 L1781.61 1514.29 L1786.29 1514.29 L1786.29 1544.91 L1793.92 1544.91 L1793.92 1548.85 L1774.02 1548.85 L1774.02 1544.91 Z" fill="#000000" fill-rule="evenodd" fill-opacity="1" /><path clip-path="url(#clip330)" d="M1816.22 1518.36 L1804.41 1536.81 L1816.22 1536.81 L1816.22 1518.36 M1814.99 1514.29 L1820.87 1514.29 L1820.87 1536.81 L1825.8 1536.81 L1825.8 1540.7 L1820.87 1540.7 L1820.87 1548.85 L1816.22 1548.85 L1816.22 1540.7 L1800.61 1540.7 L1800.61 1536.19 L1814.99 1514.29 Z" fill="#000000" fill-rule="evenodd" fill-opacity="1" /><path clip-path="url(#clip330)" d="M2085.61 1544.91 L2093.24 1544.91 L2093.24 1518.55 L2084.93 1520.21 L2084.93 1515.95 L2093.2 1514.29 L2097.87 1514.29 L2097.87 1544.91 L2105.51 1544.91 L2105.51 1548.85 L2085.61 1548.85 L2085.61 1544.91 Z" fill="#000000" fill-rule="evenodd" fill-opacity="1" /><path clip-path="url(#clip330)" d="M2114.96 1542.97 L2119.84 1542.97 L2119.84 1548.85 L2114.96 1548.85 L2114.96 1542.97 Z" fill="#000000" fill-rule="evenodd" fill-opacity="1" /><path clip-path="url(#clip330)" d="M2128.85 1514.29 L2151.07 1514.29 L2151.07 1516.28 L2138.52 1548.85 L2133.64 1548.85 L2145.44 1518.22 L2128.85 1518.22 L2128.85 1514.29 Z" fill="#000000" fill-rule="evenodd" fill-opacity="1" /><path clip-path="url(#clip330)" d="M2160.23 1514.29 L2178.59 1514.29 L2178.59 1518.22 L2164.52 1518.22 L2164.52 1526.7 Q2165.54 1526.35 2166.55 1526.19 Q2167.57 1526 2168.59 1526 Q2174.38 1526 2177.76 1529.17 Q2181.14 1532.34 2181.14 1537.76 Q2181.14 1543.34 2177.67 1546.44 Q2174.19 1549.52 2167.87 1549.52 Q2165.7 1549.52 2163.43 1549.15 Q2161.18 1548.78 2158.78 1548.04 L2158.78 1543.34 Q2160.86 1544.47 2163.08 1545.03 Q2165.3 1545.58 2167.78 1545.58 Q2171.79 1545.58 2174.12 1543.48 Q2176.46 1541.37 2176.46 1537.76 Q2176.46 1534.15 2174.12 1532.04 Q2171.79 1529.94 2167.78 1529.94 Q2165.91 1529.94 2164.03 1530.35 Q2162.18 1530.77 2160.23 1531.65 L2160.23 1514.29 Z" fill="#000000" fill-rule="evenodd" fill-opacity="1" /><path clip-path="url(#clip330)" d="M2191.16 1544.91 L2198.8 1544.91 L2198.8 1518.55 L2190.49 1520.21 L2190.49 1515.95 L2198.75 1514.29 L2203.43 1514.29 L2203.43 1544.91 L2211.07 1544.91 L2211.07 1548.85 L2191.16 1548.85 L2191.16 1544.91 Z" fill="#000000" fill-rule="evenodd" fill-opacity="1" /><path clip-path="url(#clip330)" d="M2219.33 1514.29 L2241.55 1514.29 L2241.55 1516.28 L2229.01 1548.85 L2224.12 1548.85 L2235.93 1518.22 L2219.33 1518.22 L2219.33 1514.29 Z" fill="#000000" fill-rule="evenodd" fill-opacity="1" /><polyline clip-path="url(#clip333)" style="stroke:#000000; stroke-linecap:round; stroke-linejoin:round; stroke-width:2; stroke-opacity:0.1; fill:none" points="
  169.121,1468.36 2352.76,1468.36 
  "/>
<polyline clip-path="url(#clip333)" style="stroke:#000000; stroke-linecap:round; stroke-linejoin:round; stroke-width:2; stroke-opacity:0.1; fill:none" points="
  169.121,1330.05 2352.76,1330.05 
  "/>
<polyline clip-path="url(#clip333)" style="stroke:#000000; stroke-linecap:round; stroke-linejoin:round; stroke-width:2; stroke-opacity:0.1; fill:none" points="
  169.121,1191.74 2352.76,1191.74 
  "/>
<polyline clip-path="url(#clip333)" style="stroke:#000000; stroke-linecap:round; stroke-linejoin:round; stroke-width:2; stroke-opacity:0.1; fill:none" points="
  169.121,1053.43 2352.76,1053.43 
  "/>
<polyline clip-path="url(#clip333)" style="stroke:#000000; stroke-linecap:round; stroke-linejoin:round; stroke-width:2; stroke-opacity:0.1; fill:none" points="
  169.121,915.126 2352.76,915.126 
  "/>
<polyline clip-path="url(#clip330)" style="stroke:#000000; stroke-linecap:round; stroke-linejoin:round; stroke-width:4; stroke-opacity:1; fill:none" points="
  169.121,1486.45 169.121,847.244 
  "/>
<polyline clip-path="url(#clip330)" style="stroke:#000000; stroke-linecap:round; stroke-linejoin:round; stroke-width:4; stroke-opacity:1; fill:none" points="
  169.121,1468.36 188.019,1468.36 
  "/>
<polyline clip-path="url(#clip330)" style="stroke:#000000; stroke-linecap:round; stroke-linejoin:round; stroke-width:4; stroke-opacity:1; fill:none" points="
  169.121,1330.05 188.019,1330.05 
  "/>
<polyline clip-path="url(#clip330)" style="stroke:#000000; stroke-linecap:round; stroke-linejoin:round; stroke-width:4; stroke-opacity:1; fill:none" points="
  169.121,1191.74 188.019,1191.74 
  "/>
<polyline clip-path="url(#clip330)" style="stroke:#000000; stroke-linecap:round; stroke-linejoin:round; stroke-width:4; stroke-opacity:1; fill:none" points="
  169.121,1053.43 188.019,1053.43 
  "/>
<polyline clip-path="url(#clip330)" style="stroke:#000000; stroke-linecap:round; stroke-linejoin:round; stroke-width:4; stroke-opacity:1; fill:none" points="
  169.121,915.126 188.019,915.126 
  "/>
<path clip-path="url(#clip330)" d="M121.177 1454.16 Q117.566 1454.16 115.737 1457.72 Q113.932 1461.26 113.932 1468.39 Q113.932 1475.5 115.737 1479.06 Q117.566 1482.6 121.177 1482.6 Q124.811 1482.6 126.617 1479.06 Q128.445 1475.5 128.445 1468.39 Q128.445 1461.26 126.617 1457.72 Q124.811 1454.16 121.177 1454.16 M121.177 1450.45 Q126.987 1450.45 130.043 1455.06 Q133.121 1459.64 133.121 1468.39 Q133.121 1477.12 130.043 1481.73 Q126.987 1486.31 121.177 1486.31 Q115.367 1486.31 112.288 1481.73 Q109.233 1477.12 109.233 1468.39 Q109.233 1459.64 112.288 1455.06 Q115.367 1450.45 121.177 1450.45 Z" fill="#000000" fill-rule="evenodd" fill-opacity="1" /><path clip-path="url(#clip330)" d="M86.0382 1343.39 L102.358 1343.39 L102.358 1347.33 L80.4133 1347.33 L80.4133 1343.39 Q83.0753 1340.64 87.6586 1336.01 Q92.2651 1331.36 93.4456 1330.01 Q95.691 1327.49 96.5706 1325.76 Q97.4734 1324 97.4734 1322.31 Q97.4734 1319.55 95.5289 1317.82 Q93.6076 1316.08 90.5058 1316.08 Q88.3067 1316.08 85.8531 1316.84 Q83.4225 1317.61 80.6447 1319.16 L80.6447 1314.44 Q83.4688 1313.3 85.9225 1312.72 Q88.3762 1312.14 90.4132 1312.14 Q95.7836 1312.14 98.978 1314.83 Q102.172 1317.51 102.172 1322.01 Q102.172 1324.13 101.362 1326.06 Q100.575 1327.95 98.4687 1330.55 Q97.89 1331.22 94.7882 1334.44 Q91.6864 1337.63 86.0382 1343.39 Z" fill="#000000" fill-rule="evenodd" fill-opacity="1" /><path clip-path="url(#clip330)" d="M112.219 1312.77 L130.575 1312.77 L130.575 1316.7 L116.501 1316.7 L116.501 1325.18 Q117.52 1324.83 118.538 1324.67 Q119.557 1324.48 120.575 1324.48 Q126.362 1324.48 129.742 1327.65 Q133.121 1330.82 133.121 1336.24 Q133.121 1341.82 129.649 1344.92 Q126.177 1348 119.857 1348 Q117.682 1348 115.413 1347.63 Q113.168 1347.26 110.76 1346.52 L110.76 1341.82 Q112.844 1342.95 115.066 1343.51 Q117.288 1344.07 119.765 1344.07 Q123.77 1344.07 126.107 1341.96 Q128.445 1339.85 128.445 1336.24 Q128.445 1332.63 126.107 1330.52 Q123.77 1328.42 119.765 1328.42 Q117.89 1328.42 116.015 1328.83 Q114.163 1329.25 112.219 1330.13 L112.219 1312.77 Z" fill="#000000" fill-rule="evenodd" fill-opacity="1" /><path clip-path="url(#clip330)" d="M81.0614 1174.46 L99.4178 1174.46 L99.4178 1178.4 L85.3438 1178.4 L85.3438 1186.87 Q86.3623 1186.52 87.3808 1186.36 Q88.3993 1186.17 89.4178 1186.17 Q95.2049 1186.17 98.5845 1189.35 Q101.964 1192.52 101.964 1197.93 Q101.964 1203.51 98.4919 1206.61 Q95.0197 1209.69 88.7003 1209.69 Q86.5243 1209.69 84.2558 1209.32 Q82.0105 1208.95 79.6031 1208.21 L79.6031 1203.51 Q81.6864 1204.65 83.9086 1205.2 Q86.1308 1205.76 88.6077 1205.76 Q92.6123 1205.76 94.9502 1203.65 Q97.2882 1201.54 97.2882 1197.93 Q97.2882 1194.32 94.9502 1192.22 Q92.6123 1190.11 88.6077 1190.11 Q86.7327 1190.11 84.8577 1190.53 Q83.0058 1190.94 81.0614 1191.82 L81.0614 1174.46 Z" fill="#000000" fill-rule="evenodd" fill-opacity="1" /><path clip-path="url(#clip330)" d="M121.177 1177.54 Q117.566 1177.54 115.737 1181.1 Q113.932 1184.65 113.932 1191.78 Q113.932 1198.88 115.737 1202.45 Q117.566 1205.99 121.177 1205.99 Q124.811 1205.99 126.617 1202.45 Q128.445 1198.88 128.445 1191.78 Q128.445 1184.65 126.617 1181.1 Q124.811 1177.54 121.177 1177.54 M121.177 1173.84 Q126.987 1173.84 130.043 1178.44 Q133.121 1183.03 133.121 1191.78 Q133.121 1200.5 130.043 1205.11 Q126.987 1209.69 121.177 1209.69 Q115.367 1209.69 112.288 1205.11 Q109.233 1200.5 109.233 1191.78 Q109.233 1183.03 112.288 1178.44 Q115.367 1173.84 121.177 1173.84 Z" fill="#000000" fill-rule="evenodd" fill-opacity="1" /><path clip-path="url(#clip330)" d="M80.8299 1036.15 L103.052 1036.15 L103.052 1038.14 L90.5058 1070.71 L85.6216 1070.71 L97.4271 1040.09 L80.8299 1040.09 L80.8299 1036.15 Z" fill="#000000" fill-rule="evenodd" fill-opacity="1" /><path clip-path="url(#clip330)" d="M112.219 1036.15 L130.575 1036.15 L130.575 1040.09 L116.501 1040.09 L116.501 1048.56 Q117.52 1048.21 118.538 1048.05 Q119.557 1047.87 120.575 1047.87 Q126.362 1047.87 129.742 1051.04 Q133.121 1054.21 133.121 1059.63 Q133.121 1065.2 129.649 1068.31 Q126.177 1071.38 119.857 1071.38 Q117.682 1071.38 115.413 1071.01 Q113.168 1070.64 110.76 1069.9 L110.76 1065.2 Q112.844 1066.34 115.066 1066.89 Q117.288 1067.45 119.765 1067.45 Q123.77 1067.45 126.107 1065.34 Q128.445 1063.24 128.445 1059.63 Q128.445 1056.01 126.107 1053.91 Q123.77 1051.8 119.765 1051.8 Q117.89 1051.8 116.015 1052.22 Q114.163 1052.63 112.219 1053.51 L112.219 1036.15 Z" fill="#000000" fill-rule="evenodd" fill-opacity="1" /><path clip-path="url(#clip330)" d="M51.6634 928.47 L59.3023 928.47 L59.3023 902.105 L50.9921 903.772 L50.9921 899.512 L59.256 897.846 L63.9319 897.846 L63.9319 928.47 L71.5707 928.47 L71.5707 932.406 L51.6634 932.406 L51.6634 928.47 Z" fill="#000000" fill-rule="evenodd" fill-opacity="1" /><path clip-path="url(#clip330)" d="M91.0151 900.924 Q87.404 900.924 85.5753 904.489 Q83.7697 908.031 83.7697 915.16 Q83.7697 922.267 85.5753 925.832 Q87.404 929.373 91.0151 929.373 Q94.6493 929.373 96.4548 925.832 Q98.2835 922.267 98.2835 915.16 Q98.2835 908.031 96.4548 904.489 Q94.6493 900.924 91.0151 900.924 M91.0151 897.221 Q96.8252 897.221 99.8808 901.827 Q102.959 906.41 102.959 915.16 Q102.959 923.887 99.8808 928.494 Q96.8252 933.077 91.0151 933.077 Q85.2049 933.077 82.1262 928.494 Q79.0707 923.887 79.0707 915.16 Q79.0707 906.41 82.1262 901.827 Q85.2049 897.221 91.0151 897.221 Z" fill="#000000" fill-rule="evenodd" fill-opacity="1" /><path clip-path="url(#clip330)" d="M121.177 900.924 Q117.566 900.924 115.737 904.489 Q113.932 908.031 113.932 915.16 Q113.932 922.267 115.737 925.832 Q117.566 929.373 121.177 929.373 Q124.811 929.373 126.617 925.832 Q128.445 922.267 128.445 915.16 Q128.445 908.031 126.617 904.489 Q124.811 900.924 121.177 900.924 M121.177 897.221 Q126.987 897.221 130.043 901.827 Q133.121 906.41 133.121 915.16 Q133.121 923.887 130.043 928.494 Q126.987 933.077 121.177 933.077 Q115.367 933.077 112.288 928.494 Q109.233 923.887 109.233 915.16 Q109.233 906.41 112.288 901.827 Q115.367 897.221 121.177 897.221 Z" fill="#000000" fill-rule="evenodd" fill-opacity="1" /><path clip-path="url(#clip333)" d="
M289.225 1462.82 L289.225 1468.36 L358.633 1468.36 L358.633 1462.82 L289.225 1462.82 L289.225 1462.82  Z
  " fill="#009af9" fill-rule="evenodd" fill-opacity="1"/>
<polyline clip-path="url(#clip333)" style="stroke:#000000; stroke-linecap:round; stroke-linejoin:round; stroke-width:4; stroke-opacity:1; fill:none" points="
  289.225,1462.82 289.225,1468.36 358.633,1468.36 358.633,1462.82 289.225,1462.82 
  "/>
<path clip-path="url(#clip333)" d="
M358.633 1468.36 L358.633 1468.36 L428.041 1468.36 L428.041 1468.36 L358.633 1468.36 L358.633 1468.36  Z
  " fill="#009af9" fill-rule="evenodd" fill-opacity="1"/>
<polyline clip-path="url(#clip333)" style="stroke:#000000; stroke-linecap:round; stroke-linejoin:round; stroke-width:4; stroke-opacity:1; fill:none" points="
  358.633,1468.36 358.633,1468.36 428.041,1468.36 358.633,1468.36 
  "/>
<path clip-path="url(#clip333)" d="
M428.041 1462.82 L428.041 1468.36 L497.449 1468.36 L497.449 1462.82 L428.041 1462.82 L428.041 1462.82  Z
  " fill="#009af9" fill-rule="evenodd" fill-opacity="1"/>
<polyline clip-path="url(#clip333)" style="stroke:#000000; stroke-linecap:round; stroke-linejoin:round; stroke-width:4; stroke-opacity:1; fill:none" points="
  428.041,1462.82 428.041,1468.36 497.449,1468.36 497.449,1462.82 428.041,1462.82 
  "/>
<path clip-path="url(#clip333)" d="
M497.449 1462.82 L497.449 1468.36 L566.858 1468.36 L566.858 1462.82 L497.449 1462.82 L497.449 1462.82  Z
  " fill="#009af9" fill-rule="evenodd" fill-opacity="1"/>
<polyline clip-path="url(#clip333)" style="stroke:#000000; stroke-linecap:round; stroke-linejoin:round; stroke-width:4; stroke-opacity:1; fill:none" points="
  497.449,1462.82 497.449,1468.36 566.858,1468.36 566.858,1462.82 497.449,1462.82 
  "/>
<path clip-path="url(#clip333)" d="
M566.858 1462.82 L566.858 1468.36 L636.266 1468.36 L636.266 1462.82 L566.858 1462.82 L566.858 1462.82  Z
  " fill="#009af9" fill-rule="evenodd" fill-opacity="1"/>
<polyline clip-path="url(#clip333)" style="stroke:#000000; stroke-linecap:round; stroke-linejoin:round; stroke-width:4; stroke-opacity:1; fill:none" points="
  566.858,1462.82 566.858,1468.36 636.266,1468.36 636.266,1462.82 566.858,1462.82 
  "/>
<path clip-path="url(#clip333)" d="
M636.266 1440.7 L636.266 1468.36 L705.674 1468.36 L705.674 1440.7 L636.266 1440.7 L636.266 1440.7  Z
  " fill="#009af9" fill-rule="evenodd" fill-opacity="1"/>
<polyline clip-path="url(#clip333)" style="stroke:#000000; stroke-linecap:round; stroke-linejoin:round; stroke-width:4; stroke-opacity:1; fill:none" points="
  636.266,1440.7 636.266,1468.36 705.674,1468.36 705.674,1440.7 636.266,1440.7 
  "/>
<path clip-path="url(#clip333)" d="
M705.674 1435.16 L705.674 1468.36 L775.082 1468.36 L775.082 1435.16 L705.674 1435.16 L705.674 1435.16  Z
  " fill="#009af9" fill-rule="evenodd" fill-opacity="1"/>
<polyline clip-path="url(#clip333)" style="stroke:#000000; stroke-linecap:round; stroke-linejoin:round; stroke-width:4; stroke-opacity:1; fill:none" points="
  705.674,1435.16 705.674,1468.36 775.082,1468.36 775.082,1435.16 705.674,1435.16 
  "/>
<path clip-path="url(#clip333)" d="
M775.082 1385.37 L775.082 1468.36 L844.49 1468.36 L844.49 1385.37 L775.082 1385.37 L775.082 1385.37  Z
  " fill="#009af9" fill-rule="evenodd" fill-opacity="1"/>
<polyline clip-path="url(#clip333)" style="stroke:#000000; stroke-linecap:round; stroke-linejoin:round; stroke-width:4; stroke-opacity:1; fill:none" points="
  775.082,1385.37 775.082,1468.36 844.49,1468.36 844.49,1385.37 775.082,1385.37 
  "/>
<path clip-path="url(#clip333)" d="
M844.49 1330.05 L844.49 1468.36 L913.898 1468.36 L913.898 1330.05 L844.49 1330.05 L844.49 1330.05  Z
  " fill="#009af9" fill-rule="evenodd" fill-opacity="1"/>
<polyline clip-path="url(#clip333)" style="stroke:#000000; stroke-linecap:round; stroke-linejoin:round; stroke-width:4; stroke-opacity:1; fill:none" points="
  844.49,1330.05 844.49,1468.36 913.898,1468.36 913.898,1330.05 844.49,1330.05 
  "/>
<path clip-path="url(#clip333)" d="
M913.898 1230.47 L913.898 1468.36 L983.306 1468.36 L983.306 1230.47 L913.898 1230.47 L913.898 1230.47  Z
  " fill="#009af9" fill-rule="evenodd" fill-opacity="1"/>
<polyline clip-path="url(#clip333)" style="stroke:#000000; stroke-linecap:round; stroke-linejoin:round; stroke-width:4; stroke-opacity:1; fill:none" points="
  913.898,1230.47 913.898,1468.36 983.306,1468.36 983.306,1230.47 913.898,1230.47 
  "/>
<path clip-path="url(#clip333)" d="
M983.306 1125.35 L983.306 1468.36 L1052.71 1468.36 L1052.71 1125.35 L983.306 1125.35 L983.306 1125.35  Z
  " fill="#009af9" fill-rule="evenodd" fill-opacity="1"/>
<polyline clip-path="url(#clip333)" style="stroke:#000000; stroke-linecap:round; stroke-linejoin:round; stroke-width:4; stroke-opacity:1; fill:none" points="
  983.306,1125.35 983.306,1468.36 1052.71,1468.36 1052.71,1125.35 983.306,1125.35 
  "/>
<path clip-path="url(#clip333)" d="
M1052.71 1136.42 L1052.71 1468.36 L1122.12 1468.36 L1122.12 1136.42 L1052.71 1136.42 L1052.71 1136.42  Z
  " fill="#009af9" fill-rule="evenodd" fill-opacity="1"/>
<polyline clip-path="url(#clip333)" style="stroke:#000000; stroke-linecap:round; stroke-linejoin:round; stroke-width:4; stroke-opacity:1; fill:none" points="
  1052.71,1136.42 1052.71,1468.36 1122.12,1468.36 1122.12,1136.42 1052.71,1136.42 
  "/>
<path clip-path="url(#clip333)" d="
M1122.12 998.11 L1122.12 1468.36 L1191.53 1468.36 L1191.53 998.11 L1122.12 998.11 L1122.12 998.11  Z
  " fill="#009af9" fill-rule="evenodd" fill-opacity="1"/>
<polyline clip-path="url(#clip333)" style="stroke:#000000; stroke-linecap:round; stroke-linejoin:round; stroke-width:4; stroke-opacity:1; fill:none" points="
  1122.12,998.11 1122.12,1468.36 1191.53,1468.36 1191.53,998.11 1122.12,998.11 
  "/>
<path clip-path="url(#clip333)" d="
M1191.53 1025.77 L1191.53 1468.36 L1260.94 1468.36 L1260.94 1025.77 L1191.53 1025.77 L1191.53 1025.77  Z
  " fill="#009af9" fill-rule="evenodd" fill-opacity="1"/>
<polyline clip-path="url(#clip333)" style="stroke:#000000; stroke-linecap:round; stroke-linejoin:round; stroke-width:4; stroke-opacity:1; fill:none" points="
  1191.53,1025.77 1191.53,1468.36 1260.94,1468.36 1260.94,1025.77 1191.53,1025.77 
  "/>
<path clip-path="url(#clip333)" d="
M1260.94 942.787 L1260.94 1468.36 L1330.35 1468.36 L1330.35 942.787 L1260.94 942.787 L1260.94 942.787  Z
  " fill="#009af9" fill-rule="evenodd" fill-opacity="1"/>
<polyline clip-path="url(#clip333)" style="stroke:#000000; stroke-linecap:round; stroke-linejoin:round; stroke-width:4; stroke-opacity:1; fill:none" points="
  1260.94,942.787 1260.94,1468.36 1330.35,1468.36 1330.35,942.787 1260.94,942.787 
  "/>
<path clip-path="url(#clip333)" d="
M1330.35 865.335 L1330.35 1468.36 L1399.75 1468.36 L1399.75 865.335 L1330.35 865.335 L1330.35 865.335  Z
  " fill="#009af9" fill-rule="evenodd" fill-opacity="1"/>
<polyline clip-path="url(#clip333)" style="stroke:#000000; stroke-linecap:round; stroke-linejoin:round; stroke-width:4; stroke-opacity:1; fill:none" points="
  1330.35,865.335 1330.35,1468.36 1399.75,1468.36 1399.75,865.335 1330.35,865.335 
  "/>
<path clip-path="url(#clip333)" d="
M1399.75 970.449 L1399.75 1468.36 L1469.16 1468.36 L1469.16 970.449 L1399.75 970.449 L1399.75 970.449  Z
  " fill="#009af9" fill-rule="evenodd" fill-opacity="1"/>
<polyline clip-path="url(#clip333)" style="stroke:#000000; stroke-linecap:round; stroke-linejoin:round; stroke-width:4; stroke-opacity:1; fill:none" points="
  1399.75,970.449 1399.75,1468.36 1469.16,1468.36 1469.16,970.449 1399.75,970.449 
  "/>
<path clip-path="url(#clip333)" d="
M1469.16 1003.64 L1469.16 1468.36 L1538.57 1468.36 L1538.57 1003.64 L1469.16 1003.64 L1469.16 1003.64  Z
  " fill="#009af9" fill-rule="evenodd" fill-opacity="1"/>
<polyline clip-path="url(#clip333)" style="stroke:#000000; stroke-linecap:round; stroke-linejoin:round; stroke-width:4; stroke-opacity:1; fill:none" points="
  1469.16,1003.64 1469.16,1468.36 1538.57,1468.36 1538.57,1003.64 1469.16,1003.64 
  "/>
<path clip-path="url(#clip333)" d="
M1538.57 1097.69 L1538.57 1468.36 L1607.98 1468.36 L1607.98 1097.69 L1538.57 1097.69 L1538.57 1097.69  Z
  " fill="#009af9" fill-rule="evenodd" fill-opacity="1"/>
<polyline clip-path="url(#clip333)" style="stroke:#000000; stroke-linecap:round; stroke-linejoin:round; stroke-width:4; stroke-opacity:1; fill:none" points="
  1538.57,1097.69 1538.57,1468.36 1607.98,1468.36 1607.98,1097.69 1538.57,1097.69 
  "/>
<path clip-path="url(#clip333)" d="
M1607.98 1130.89 L1607.98 1468.36 L1677.39 1468.36 L1677.39 1130.89 L1607.98 1130.89 L1607.98 1130.89  Z
  " fill="#009af9" fill-rule="evenodd" fill-opacity="1"/>
<polyline clip-path="url(#clip333)" style="stroke:#000000; stroke-linecap:round; stroke-linejoin:round; stroke-width:4; stroke-opacity:1; fill:none" points="
  1607.98,1130.89 1607.98,1468.36 1677.39,1468.36 1677.39,1130.89 1607.98,1130.89 
  "/>
<path clip-path="url(#clip333)" d="
M1677.39 1263.66 L1677.39 1468.36 L1746.8 1468.36 L1746.8 1263.66 L1677.39 1263.66 L1677.39 1263.66  Z
  " fill="#009af9" fill-rule="evenodd" fill-opacity="1"/>
<polyline clip-path="url(#clip333)" style="stroke:#000000; stroke-linecap:round; stroke-linejoin:round; stroke-width:4; stroke-opacity:1; fill:none" points="
  1677.39,1263.66 1677.39,1468.36 1746.8,1468.36 1746.8,1263.66 1677.39,1263.66 
  "/>
<path clip-path="url(#clip333)" d="
M1746.8 1318.98 L1746.8 1468.36 L1816.2 1468.36 L1816.2 1318.98 L1746.8 1318.98 L1746.8 1318.98  Z
  " fill="#009af9" fill-rule="evenodd" fill-opacity="1"/>
<polyline clip-path="url(#clip333)" style="stroke:#000000; stroke-linecap:round; stroke-linejoin:round; stroke-width:4; stroke-opacity:1; fill:none" points="
  1746.8,1318.98 1746.8,1468.36 1816.2,1468.36 1816.2,1318.98 1746.8,1318.98 
  "/>
<path clip-path="url(#clip333)" d="
M1816.2 1352.18 L1816.2 1468.36 L1885.61 1468.36 L1885.61 1352.18 L1816.2 1352.18 L1816.2 1352.18  Z
  " fill="#009af9" fill-rule="evenodd" fill-opacity="1"/>
<polyline clip-path="url(#clip333)" style="stroke:#000000; stroke-linecap:round; stroke-linejoin:round; stroke-width:4; stroke-opacity:1; fill:none" points="
  1816.2,1352.18 1816.2,1468.36 1885.61,1468.36 1885.61,1352.18 1816.2,1352.18 
  "/>
<path clip-path="url(#clip333)" d="
M1885.61 1429.63 L1885.61 1468.36 L1955.02 1468.36 L1955.02 1429.63 L1885.61 1429.63 L1885.61 1429.63  Z
  " fill="#009af9" fill-rule="evenodd" fill-opacity="1"/>
<polyline clip-path="url(#clip333)" style="stroke:#000000; stroke-linecap:round; stroke-linejoin:round; stroke-width:4; stroke-opacity:1; fill:none" points="
  1885.61,1429.63 1885.61,1468.36 1955.02,1468.36 1955.02,1429.63 1885.61,1429.63 
  "/>
<path clip-path="url(#clip333)" d="
M1955.02 1429.63 L1955.02 1468.36 L2024.43 1468.36 L2024.43 1429.63 L1955.02 1429.63 L1955.02 1429.63  Z
  " fill="#009af9" fill-rule="evenodd" fill-opacity="1"/>
<polyline clip-path="url(#clip333)" style="stroke:#000000; stroke-linecap:round; stroke-linejoin:round; stroke-width:4; stroke-opacity:1; fill:none" points="
  1955.02,1429.63 1955.02,1468.36 2024.43,1468.36 2024.43,1429.63 1955.02,1429.63 
  "/>
<path clip-path="url(#clip333)" d="
M2024.43 1457.29 L2024.43 1468.36 L2093.84 1468.36 L2093.84 1457.29 L2024.43 1457.29 L2024.43 1457.29  Z
  " fill="#009af9" fill-rule="evenodd" fill-opacity="1"/>
<polyline clip-path="url(#clip333)" style="stroke:#000000; stroke-linecap:round; stroke-linejoin:round; stroke-width:4; stroke-opacity:1; fill:none" points="
  2024.43,1457.29 2024.43,1468.36 2093.84,1468.36 2093.84,1457.29 2024.43,1457.29 
  "/>
<path clip-path="url(#clip333)" d="
M2093.84 1440.7 L2093.84 1468.36 L2163.24 1468.36 L2163.24 1440.7 L2093.84 1440.7 L2093.84 1440.7  Z
  " fill="#009af9" fill-rule="evenodd" fill-opacity="1"/>
<polyline clip-path="url(#clip333)" style="stroke:#000000; stroke-linecap:round; stroke-linejoin:round; stroke-width:4; stroke-opacity:1; fill:none" points="
  2093.84,1440.7 2093.84,1468.36 2163.24,1468.36 2163.24,1440.7 2093.84,1440.7 
  "/>
<path clip-path="url(#clip333)" d="
M2163.24 1451.76 L2163.24 1468.36 L2232.65 1468.36 L2232.65 1451.76 L2163.24 1451.76 L2163.24 1451.76  Z
  " fill="#009af9" fill-rule="evenodd" fill-opacity="1"/>
<polyline clip-path="url(#clip333)" style="stroke:#000000; stroke-linecap:round; stroke-linejoin:round; stroke-width:4; stroke-opacity:1; fill:none" points="
  2163.24,1451.76 2163.24,1468.36 2232.65,1468.36 2232.65,1451.76 2163.24,1451.76 
  "/>
<circle clip-path="url(#clip333)" style="fill:#009af9; stroke:none; fill-opacity:0" cx="323.929" cy="1462.82" r="2"/>
<circle clip-path="url(#clip333)" style="fill:#009af9; stroke:none; fill-opacity:0" cx="393.337" cy="1468.36" r="2"/>
<circle clip-path="url(#clip333)" style="fill:#009af9; stroke:none; fill-opacity:0" cx="462.745" cy="1462.82" r="2"/>
<circle clip-path="url(#clip333)" style="fill:#009af9; stroke:none; fill-opacity:0" cx="532.153" cy="1462.82" r="2"/>
<circle clip-path="url(#clip333)" style="fill:#009af9; stroke:none; fill-opacity:0" cx="601.562" cy="1462.82" r="2"/>
<circle clip-path="url(#clip333)" style="fill:#009af9; stroke:none; fill-opacity:0" cx="670.97" cy="1440.7" r="2"/>
<circle clip-path="url(#clip333)" style="fill:#009af9; stroke:none; fill-opacity:0" cx="740.378" cy="1435.16" r="2"/>
<circle clip-path="url(#clip333)" style="fill:#009af9; stroke:none; fill-opacity:0" cx="809.786" cy="1385.37" r="2"/>
<circle clip-path="url(#clip333)" style="fill:#009af9; stroke:none; fill-opacity:0" cx="879.194" cy="1330.05" r="2"/>
<circle clip-path="url(#clip333)" style="fill:#009af9; stroke:none; fill-opacity:0" cx="948.602" cy="1230.47" r="2"/>
<circle clip-path="url(#clip333)" style="fill:#009af9; stroke:none; fill-opacity:0" cx="1018.01" cy="1125.35" r="2"/>
<circle clip-path="url(#clip333)" style="fill:#009af9; stroke:none; fill-opacity:0" cx="1087.42" cy="1136.42" r="2"/>
<circle clip-path="url(#clip333)" style="fill:#009af9; stroke:none; fill-opacity:0" cx="1156.83" cy="998.11" r="2"/>
<circle clip-path="url(#clip333)" style="fill:#009af9; stroke:none; fill-opacity:0" cx="1226.23" cy="1025.77" r="2"/>
<circle clip-path="url(#clip333)" style="fill:#009af9; stroke:none; fill-opacity:0" cx="1295.64" cy="942.787" r="2"/>
<circle clip-path="url(#clip333)" style="fill:#009af9; stroke:none; fill-opacity:0" cx="1365.05" cy="865.335" r="2"/>
<circle clip-path="url(#clip333)" style="fill:#009af9; stroke:none; fill-opacity:0" cx="1434.46" cy="970.449" r="2"/>
<circle clip-path="url(#clip333)" style="fill:#009af9; stroke:none; fill-opacity:0" cx="1503.87" cy="1003.64" r="2"/>
<circle clip-path="url(#clip333)" style="fill:#009af9; stroke:none; fill-opacity:0" cx="1573.28" cy="1097.69" r="2"/>
<circle clip-path="url(#clip333)" style="fill:#009af9; stroke:none; fill-opacity:0" cx="1642.68" cy="1130.89" r="2"/>
<circle clip-path="url(#clip333)" style="fill:#009af9; stroke:none; fill-opacity:0" cx="1712.09" cy="1263.66" r="2"/>
<circle clip-path="url(#clip333)" style="fill:#009af9; stroke:none; fill-opacity:0" cx="1781.5" cy="1318.98" r="2"/>
<circle clip-path="url(#clip333)" style="fill:#009af9; stroke:none; fill-opacity:0" cx="1850.91" cy="1352.18" r="2"/>
<circle clip-path="url(#clip333)" style="fill:#009af9; stroke:none; fill-opacity:0" cx="1920.32" cy="1429.63" r="2"/>
<circle clip-path="url(#clip333)" style="fill:#009af9; stroke:none; fill-opacity:0" cx="1989.72" cy="1429.63" r="2"/>
<circle clip-path="url(#clip333)" style="fill:#009af9; stroke:none; fill-opacity:0" cx="2059.13" cy="1457.29" r="2"/>
<circle clip-path="url(#clip333)" style="fill:#009af9; stroke:none; fill-opacity:0" cx="2128.54" cy="1440.7" r="2"/>
<circle clip-path="url(#clip333)" style="fill:#009af9; stroke:none; fill-opacity:0" cx="2197.95" cy="1451.76" r="2"/>
<path clip-path="url(#clip330)" d="
M1817.3 972.231 L2279.97 972.231 L2279.97 868.551 L1817.3 868.551  Z
  " fill="#ffffff" fill-rule="evenodd" fill-opacity="1"/>
<polyline clip-path="url(#clip330)" style="stroke:#000000; stroke-linecap:round; stroke-linejoin:round; stroke-width:4; stroke-opacity:1; fill:none" points="
  1817.3,972.231 2279.97,972.231 2279.97,868.551 1817.3,868.551 1817.3,972.231 
  "/>
<path clip-path="url(#clip330)" d="
M1841.56 941.127 L1987.14 941.127 L1987.14 899.655 L1841.56 899.655 L1841.56 941.127  Z
  " fill="#009af9" fill-rule="evenodd" fill-opacity="1"/>
<polyline clip-path="url(#clip330)" style="stroke:#000000; stroke-linecap:round; stroke-linejoin:round; stroke-width:4; stroke-opacity:1; fill:none" points="
  1841.56,941.127 1987.14,941.127 1987.14,899.655 1841.56,899.655 1841.56,941.127 
  "/>
<path clip-path="url(#clip330)" d="M2011.4 901.653 L2021.22 901.653 L2021.22 904.963 L2015.66 904.963 L2015.66 940.611 L2021.22 940.611 L2021.22 943.921 L2011.4 943.921 L2011.4 901.653 Z" fill="#000000" fill-rule="evenodd" fill-opacity="1" /><path clip-path="url(#clip330)" d="M2034.32 903.111 L2034.32 915.958 L2030.38 915.958 L2030.38 903.111 L2034.32 903.111 M2043.07 903.111 L2043.07 915.958 L2039.13 915.958 L2039.13 903.111 L2043.07 903.111 Z" fill="#000000" fill-rule="evenodd" fill-opacity="1" /><path clip-path="url(#clip330)" d="M2073.65 922.023 L2073.65 937.671 L2069.39 937.671 L2069.39 922.162 Q2069.39 918.481 2067.95 916.652 Q2066.52 914.824 2063.65 914.824 Q2060.2 914.824 2058.21 917.023 Q2056.22 919.222 2056.22 923.018 L2056.22 937.671 L2051.93 937.671 L2051.93 911.745 L2056.22 911.745 L2056.22 915.773 Q2057.74 913.435 2059.8 912.278 Q2061.89 911.12 2064.6 911.12 Q2069.06 911.12 2071.35 913.898 Q2073.65 916.652 2073.65 922.023 Z" fill="#000000" fill-rule="evenodd" fill-opacity="1" /><path clip-path="url(#clip330)" d="M2081.29 935.125 L2086.01 935.125 L2086.01 920.981 L2080.85 921.93 L2080.85 919.245 L2086.17 918.342 L2089.34 918.342 L2089.34 935.125 L2094.09 935.125 L2094.09 937.671 L2081.29 937.671 L2081.29 935.125 Z" fill="#000000" fill-rule="evenodd" fill-opacity="1" /><path clip-path="url(#clip330)" d="M2105.17 903.111 L2105.17 915.958 L2101.24 915.958 L2101.24 903.111 L2105.17 903.111 M2113.92 903.111 L2113.92 915.958 L2109.99 915.958 L2109.99 903.111 L2113.92 903.111 Z" fill="#000000" fill-rule="evenodd" fill-opacity="1" /><path clip-path="url(#clip330)" d="M2124.04 931.791 L2128.92 931.791 L2128.92 935.773 L2125.13 943.18 L2122.14 943.18 L2124.04 935.773 L2124.04 931.791 Z" fill="#000000" fill-rule="evenodd" fill-opacity="1" /><path clip-path="url(#clip330)" d="M2157.12 903.111 L2157.12 915.958 L2153.18 915.958 L2153.18 903.111 L2157.12 903.111 M2165.87 903.111 L2165.87 915.958 L2161.93 915.958 L2161.93 903.111 L2165.87 903.111 Z" fill="#000000" fill-rule="evenodd" fill-opacity="1" /><path clip-path="url(#clip330)" d="M2196.45 922.023 L2196.45 937.671 L2192.19 937.671 L2192.19 922.162 Q2192.19 918.481 2190.75 916.652 Q2189.32 914.824 2186.45 914.824 Q2183 914.824 2181.01 917.023 Q2179.02 919.222 2179.02 923.018 L2179.02 937.671 L2174.73 937.671 L2174.73 911.745 L2179.02 911.745 L2179.02 915.773 Q2180.54 913.435 2182.6 912.278 Q2184.69 911.12 2187.4 911.12 Q2191.86 911.12 2194.15 913.898 Q2196.45 916.652 2196.45 922.023 Z" fill="#000000" fill-rule="evenodd" fill-opacity="1" /><path clip-path="url(#clip330)" d="M2206.68 935.032 L2216.49 935.032 L2216.49 937.671 L2202.65 937.671 L2202.65 935.125 Q2203.44 934.407 2204.9 933.111 Q2212.86 926.051 2212.86 923.875 Q2212.86 922.347 2211.65 921.421 Q2210.45 920.472 2208.48 920.472 Q2207.28 920.472 2205.87 920.889 Q2204.46 921.282 2202.79 922.092 L2202.79 919.245 Q2204.57 918.597 2206.1 918.273 Q2207.65 917.949 2208.97 917.949 Q2212.33 917.949 2214.34 919.477 Q2216.35 921.004 2216.35 923.504 Q2216.35 926.722 2208.69 933.296 Q2207.4 934.407 2206.68 935.032 Z" fill="#000000" fill-rule="evenodd" fill-opacity="1" /><path clip-path="url(#clip330)" d="M2227.97 903.111 L2227.97 915.958 L2224.04 915.958 L2224.04 903.111 L2227.97 903.111 M2236.72 903.111 L2236.72 915.958 L2232.79 915.958 L2232.79 903.111 L2236.72 903.111 Z" fill="#000000" fill-rule="evenodd" fill-opacity="1" /><path clip-path="url(#clip330)" d="M2255.71 901.653 L2255.71 943.921 L2245.89 943.921 L2245.89 940.611 L2251.42 940.611 L2251.42 904.963 L2245.89 904.963 L2245.89 901.653 L2255.71 901.653 Z" fill="#000000" fill-rule="evenodd" fill-opacity="1" /></svg>
