<?xml version="1.0" encoding="utf-8"?>
<svg xmlns="http://www.w3.org/2000/svg" xmlns:xlink="http://www.w3.org/1999/xlink" width="600" height="400" viewBox="0 0 2400 1600">
<defs>
  <clipPath id="clip310">
    <rect x="0" y="0" width="2400" height="1600"/>
  </clipPath>
</defs>
<path clip-path="url(#clip310)" d="M0 1600 L2400 1600 L2400 0 L0 0  Z" fill="#ffffff" fill-rule="evenodd" fill-opacity="1"/>
<defs>
  <clipPath id="clip311">
    <rect x="480" y="0" width="1681" height="1600"/>
  </clipPath>
</defs>
<path clip-path="url(#clip310)" d="M169.121 686.448 L2352.76 686.448 L2352.76 47.2441 L169.121 47.2441  Z" fill="#ffffff" fill-rule="evenodd" fill-opacity="1"/>
<defs>
  <clipPath id="clip312">
    <rect x="169" y="47" width="2185" height="640"/>
  </clipPath>
</defs>
<polyline clip-path="url(#clip312)" style="stroke:#000000; stroke-linecap:round; stroke-linejoin:round; stroke-width:2; stroke-opacity:0.1; fill:none" points="566.858,686.448 566.858,47.2441 "/>
<polyline clip-path="url(#clip312)" style="stroke:#000000; stroke-linecap:round; stroke-linejoin:round; stroke-width:2; stroke-opacity:0.1; fill:none" points="983.306,686.448 983.306,47.2441 "/>
<polyline clip-path="url(#clip312)" style="stroke:#000000; stroke-linecap:round; stroke-linejoin:round; stroke-width:2; stroke-opacity:0.1; fill:none" points="1399.75,686.448 1399.75,47.2441 "/>
<polyline clip-path="url(#clip312)" style="stroke:#000000; stroke-linecap:round; stroke-linejoin:round; stroke-width:2; stroke-opacity:0.1; fill:none" points="1816.2,686.448 1816.2,47.2441 "/>
<polyline clip-path="url(#clip312)" style="stroke:#000000; stroke-linecap:round; stroke-linejoin:round; stroke-width:2; stroke-opacity:0.1; fill:none" points="2232.65,686.448 2232.65,47.2441 "/>
<polyline clip-path="url(#clip312)" style="stroke:#000000; stroke-linecap:round; stroke-linejoin:round; stroke-width:2; stroke-opacity:0.1; fill:none" points="169.121,686.448 2352.76,686.448 "/>
<polyline clip-path="url(#clip312)" style="stroke:#000000; stroke-linecap:round; stroke-linejoin:round; stroke-width:2; stroke-opacity:0.1; fill:none" points="169.121,507.899 2352.76,507.899 "/>
<polyline clip-path="url(#clip312)" style="stroke:#000000; stroke-linecap:round; stroke-linejoin:round; stroke-width:2; stroke-opacity:0.1; fill:none" points="169.121,329.351 2352.76,329.351 "/>
<polyline clip-path="url(#clip312)" style="stroke:#000000; stroke-linecap:round; stroke-linejoin:round; stroke-width:2; stroke-opacity:0.1; fill:none" points="169.121,150.802 2352.76,150.802 "/>
<polyline clip-path="url(#clip310)" style="stroke:#000000; stroke-linecap:round; stroke-linejoin:round; stroke-width:4; stroke-opacity:1; fill:none" points="169.121,686.448 2352.76,686.448 "/>
<polyline clip-path="url(#clip310)" style="stroke:#000000; stroke-linecap:round; stroke-linejoin:round; stroke-width:4; stroke-opacity:1; fill:none" points="566.858,686.448 566.858,667.55 "/>
<polyline clip-path="url(#clip310)" style="stroke:#000000; stroke-linecap:round; stroke-linejoin:round; stroke-width:4; stroke-opacity:1; fill:none" points="983.306,686.448 983.306,667.55 "/>
<polyline clip-path="url(#clip310)" style="stroke:#000000; stroke-linecap:round; stroke-linejoin:round; stroke-width:4; stroke-opacity:1; fill:none" points="1399.75,686.448 1399.75,667.55 "/>
<polyline clip-path="url(#clip310)" style="stroke:#000000; stroke-linecap:round; stroke-linejoin:round; stroke-width:4; stroke-opacity:1; fill:none" points="1816.2,686.448 1816.2,667.55 "/>
<polyline clip-path="url(#clip310)" style="stroke:#000000; stroke-linecap:round; stroke-linejoin:round; stroke-width:4; stroke-opacity:1; fill:none" points="2232.65,686.448 2232.65,667.55 "/>
<path clip-path="url(#clip310)" d="M489.566 744.913 L497.205 744.913 L497.205 718.547 L488.895 720.214 L488.895 715.955 L497.159 714.288 L501.835 714.288 L501.835 744.913 L509.474 744.913 L509.474 748.848 L489.566 748.848 L489.566 744.913 Z" fill="#000000" fill-rule="nonzero" fill-opacity="1" /><path clip-path="url(#clip310)" d="M518.918 742.968 L523.802 742.968 L523.802 748.848 L518.918 748.848 L518.918 742.968 Z" fill="#000000" fill-rule="nonzero" fill-opacity="1" /><path clip-path="url(#clip310)" d="M544.566 729.704 Q541.418 729.704 539.566 731.857 Q537.737 734.01 537.737 737.76 Q537.737 741.487 539.566 743.663 Q541.418 745.815 544.566 745.815 Q547.714 745.815 549.543 743.663 Q551.395 741.487 551.395 737.76 Q551.395 734.01 549.543 731.857 Q547.714 729.704 544.566 729.704 M553.848 715.052 L553.848 719.311 Q552.089 718.478 550.284 718.038 Q548.501 717.598 546.742 717.598 Q542.112 717.598 539.659 720.723 Q537.228 723.848 536.881 730.167 Q538.247 728.154 540.307 727.089 Q542.367 726.001 544.844 726.001 Q550.052 726.001 553.061 729.172 Q556.094 732.32 556.094 737.76 Q556.094 743.084 552.946 746.302 Q549.797 749.519 544.566 749.519 Q538.571 749.519 535.399 744.936 Q532.228 740.329 532.228 731.603 Q532.228 723.408 536.117 718.547 Q540.006 713.663 546.557 713.663 Q548.316 713.663 550.098 714.01 Q551.904 714.357 553.848 715.052 Z" fill="#000000" fill-rule="nonzero" fill-opacity="1" /><path clip-path="url(#clip310)" d="M564.288 748.13 L564.288 743.871 Q566.047 744.704 567.853 745.144 Q569.658 745.584 571.395 745.584 Q576.024 745.584 578.455 742.482 Q580.908 739.357 581.256 733.015 Q579.913 735.005 577.853 736.07 Q575.793 737.135 573.293 737.135 Q568.108 737.135 565.075 734.01 Q562.066 730.862 562.066 725.422 Q562.066 720.098 565.214 716.88 Q568.362 713.663 573.594 713.663 Q579.589 713.663 582.737 718.269 Q585.908 722.853 585.908 731.603 Q585.908 739.774 582.019 744.658 Q578.154 749.519 571.603 749.519 Q569.844 749.519 568.038 749.172 Q566.233 748.825 564.288 748.13 M573.594 733.478 Q576.742 733.478 578.57 731.325 Q580.422 729.172 580.422 725.422 Q580.422 721.695 578.57 719.542 Q576.742 717.367 573.594 717.367 Q570.445 717.367 568.594 719.542 Q566.765 721.695 566.765 725.422 Q566.765 729.172 568.594 731.325 Q570.445 733.478 573.594 733.478 Z" fill="#000000" fill-rule="nonzero" fill-opacity="1" /><path clip-path="url(#clip310)" d="M604.89 729.704 Q601.742 729.704 599.89 731.857 Q598.061 734.01 598.061 737.76 Q598.061 741.487 599.89 743.663 Q601.742 745.815 604.89 745.815 Q608.038 745.815 609.867 743.663 Q611.718 741.487 611.718 737.76 Q611.718 734.01 609.867 731.857 Q608.038 729.704 604.89 729.704 M614.172 715.052 L614.172 719.311 Q612.413 718.478 610.607 718.038 Q608.825 717.598 607.066 717.598 Q602.436 717.598 599.982 720.723 Q597.552 723.848 597.205 730.167 Q598.57 728.154 600.631 727.089 Q602.691 726.001 605.168 726.001 Q610.376 726.001 613.385 729.172 Q616.417 732.32 616.417 737.76 Q616.417 743.084 613.269 746.302 Q610.121 749.519 604.89 749.519 Q598.894 749.519 595.723 744.936 Q592.552 740.329 592.552 731.603 Q592.552 723.408 596.441 718.547 Q600.33 713.663 606.88 713.663 Q608.64 713.663 610.422 714.01 Q612.228 714.357 614.172 715.052 Z" fill="#000000" fill-rule="nonzero" fill-opacity="1" /><path clip-path="url(#clip310)" d="M628.501 744.913 L644.82 744.913 L644.82 748.848 L622.876 748.848 L622.876 744.913 Q625.538 742.158 630.121 737.528 Q634.728 732.876 635.908 731.533 Q638.153 729.01 639.033 727.274 Q639.936 725.515 639.936 723.825 Q639.936 721.07 637.991 719.334 Q636.07 717.598 632.968 717.598 Q630.769 717.598 628.316 718.362 Q625.885 719.126 623.107 720.677 L623.107 715.955 Q625.931 714.82 628.385 714.242 Q630.839 713.663 632.876 713.663 Q638.246 713.663 641.44 716.348 Q644.635 719.033 644.635 723.524 Q644.635 725.654 643.825 727.575 Q643.038 729.473 640.931 732.066 Q640.353 732.737 637.251 735.954 Q634.149 739.149 628.501 744.913 Z" fill="#000000" fill-rule="nonzero" fill-opacity="1" /><path clip-path="url(#clip310)" d="M905.714 744.913 L913.353 744.913 L913.353 718.547 L905.043 720.214 L905.043 715.955 L913.307 714.288 L917.982 714.288 L917.982 744.913 L925.621 744.913 L925.621 748.848 L905.714 748.848 L905.714 744.913 Z" fill="#000000" fill-rule="nonzero" fill-opacity="1" /><path clip-path="url(#clip310)" d="M935.066 742.968 L939.95 742.968 L939.95 748.848 L935.066 748.848 L935.066 742.968 Z" fill="#000000" fill-rule="nonzero" fill-opacity="1" /><path clip-path="url(#clip310)" d="M960.714 729.704 Q957.566 729.704 955.714 731.857 Q953.885 734.01 953.885 737.76 Q953.885 741.487 955.714 743.663 Q957.566 745.815 960.714 745.815 Q963.862 745.815 965.691 743.663 Q967.542 741.487 967.542 737.76 Q967.542 734.01 965.691 731.857 Q963.862 729.704 960.714 729.704 M969.996 715.052 L969.996 719.311 Q968.237 718.478 966.431 718.038 Q964.649 717.598 962.89 717.598 Q958.26 717.598 955.806 720.723 Q953.376 723.848 953.029 730.167 Q954.394 728.154 956.454 727.089 Q958.515 726.001 960.991 726.001 Q966.2 726.001 969.209 729.172 Q972.241 732.32 972.241 737.76 Q972.241 743.084 969.093 746.302 Q965.945 749.519 960.714 749.519 Q954.718 749.519 951.547 744.936 Q948.376 740.329 948.376 731.603 Q948.376 723.408 952.265 718.547 Q956.154 713.663 962.704 713.663 Q964.464 713.663 966.246 714.01 Q968.052 714.357 969.996 715.052 Z" fill="#000000" fill-rule="nonzero" fill-opacity="1" /><path clip-path="url(#clip310)" d="M980.436 748.13 L980.436 743.871 Q982.195 744.704 984.001 745.144 Q985.806 745.584 987.542 745.584 Q992.172 745.584 994.602 742.482 Q997.056 739.357 997.403 733.015 Q996.061 735.005 994.001 736.07 Q991.94 737.135 989.44 737.135 Q984.255 737.135 981.223 734.01 Q978.214 730.862 978.214 725.422 Q978.214 720.098 981.362 716.88 Q984.51 713.663 989.741 713.663 Q995.737 713.663 998.885 718.269 Q1002.06 722.853 1002.06 731.603 Q1002.06 739.774 998.167 744.658 Q994.301 749.519 987.751 749.519 Q985.991 749.519 984.186 749.172 Q982.38 748.825 980.436 748.13 M989.741 733.478 Q992.889 733.478 994.718 731.325 Q996.57 729.172 996.57 725.422 Q996.57 721.695 994.718 719.542 Q992.889 717.367 989.741 717.367 Q986.593 717.367 984.741 719.542 Q982.913 721.695 982.913 725.422 Q982.913 729.172 984.741 731.325 Q986.593 733.478 989.741 733.478 Z" fill="#000000" fill-rule="nonzero" fill-opacity="1" /><path clip-path="url(#clip310)" d="M1021.04 729.704 Q1017.89 729.704 1016.04 731.857 Q1014.21 734.01 1014.21 737.76 Q1014.21 741.487 1016.04 743.663 Q1017.89 745.815 1021.04 745.815 Q1024.19 745.815 1026.01 743.663 Q1027.87 741.487 1027.87 737.76 Q1027.87 734.01 1026.01 731.857 Q1024.19 729.704 1021.04 729.704 M1030.32 715.052 L1030.32 719.311 Q1028.56 718.478 1026.76 718.038 Q1024.97 717.598 1023.21 717.598 Q1018.58 717.598 1016.13 720.723 Q1013.7 723.848 1013.35 730.167 Q1014.72 728.154 1016.78 727.089 Q1018.84 726.001 1021.32 726.001 Q1026.52 726.001 1029.53 729.172 Q1032.57 732.32 1032.57 737.76 Q1032.57 743.084 1029.42 746.302 Q1026.27 749.519 1021.04 749.519 Q1015.04 749.519 1011.87 744.936 Q1008.7 740.329 1008.7 731.603 Q1008.7 723.408 1012.59 718.547 Q1016.48 713.663 1023.03 713.663 Q1024.79 713.663 1026.57 714.01 Q1028.38 714.357 1030.32 715.052 Z" fill="#000000" fill-rule="nonzero" fill-opacity="1" /><path clip-path="url(#clip310)" d="M1040.67 714.288 L1059.02 714.288 L1059.02 718.223 L1044.95 718.223 L1044.95 726.695 Q1045.97 726.348 1046.99 726.186 Q1048 726.001 1049.02 726.001 Q1054.81 726.001 1058.19 729.172 Q1061.57 732.343 1061.57 737.76 Q1061.57 743.339 1058.1 746.44 Q1054.63 749.519 1048.31 749.519 Q1046.13 749.519 1043.86 749.149 Q1041.62 748.778 1039.21 748.038 L1039.21 743.339 Q1041.29 744.473 1043.51 745.028 Q1045.74 745.584 1048.21 745.584 Q1052.22 745.584 1054.56 743.478 Q1056.89 741.371 1056.89 737.76 Q1056.89 734.149 1054.56 732.042 Q1052.22 729.936 1048.21 729.936 Q1046.34 729.936 1044.46 730.353 Q1042.61 730.769 1040.67 731.649 L1040.67 714.288 Z" fill="#000000" fill-rule="nonzero" fill-opacity="1" /><path clip-path="url(#clip310)" d="M1321.71 744.913 L1329.35 744.913 L1329.35 718.547 L1321.04 720.214 L1321.04 715.955 L1329.3 714.288 L1333.98 714.288 L1333.98 744.913 L1341.62 744.913 L1341.62 748.848 L1321.71 748.848 L1321.71 744.913 Z" fill="#000000" fill-rule="nonzero" fill-opacity="1" /><path clip-path="url(#clip310)" d="M1351.06 742.968 L1355.95 742.968 L1355.95 748.848 L1351.06 748.848 L1351.06 742.968 Z" fill="#000000" fill-rule="nonzero" fill-opacity="1" /><path clip-path="url(#clip310)" d="M1376.71 729.704 Q1373.56 729.704 1371.71 731.857 Q1369.88 734.01 1369.88 737.76 Q1369.88 741.487 1371.71 743.663 Q1373.56 745.815 1376.71 745.815 Q1379.86 745.815 1381.69 743.663 Q1383.54 741.487 1383.54 737.76 Q1383.54 734.01 1381.69 731.857 Q1379.86 729.704 1376.71 729.704 M1385.99 715.052 L1385.99 719.311 Q1384.23 718.478 1382.43 718.038 Q1380.65 717.598 1378.89 717.598 Q1374.26 717.598 1371.8 720.723 Q1369.37 723.848 1369.03 730.167 Q1370.39 728.154 1372.45 727.089 Q1374.51 726.001 1376.99 726.001 Q1382.2 726.001 1385.21 729.172 Q1388.24 732.32 1388.24 737.76 Q1388.24 743.084 1385.09 746.302 Q1381.94 749.519 1376.71 749.519 Q1370.72 749.519 1367.54 744.936 Q1364.37 740.329 1364.37 731.603 Q1364.37 723.408 1368.26 718.547 Q1372.15 713.663 1378.7 713.663 Q1380.46 713.663 1382.24 714.01 Q1384.05 714.357 1385.99 715.052 Z" fill="#000000" fill-rule="nonzero" fill-opacity="1" /><path clip-path="url(#clip310)" d="M1396.43 748.13 L1396.43 743.871 Q1398.19 744.704 1400 745.144 Q1401.8 745.584 1403.54 745.584 Q1408.17 745.584 1410.6 742.482 Q1413.05 739.357 1413.4 733.015 Q1412.06 735.005 1410 736.07 Q1407.94 737.135 1405.44 737.135 Q1400.25 737.135 1397.22 734.01 Q1394.21 730.862 1394.21 725.422 Q1394.21 720.098 1397.36 716.88 Q1400.51 713.663 1405.74 713.663 Q1411.73 713.663 1414.88 718.269 Q1418.05 722.853 1418.05 731.603 Q1418.05 739.774 1414.16 744.658 Q1410.3 749.519 1403.75 749.519 Q1401.99 749.519 1400.18 749.172 Q1398.38 748.825 1396.43 748.13 M1405.74 733.478 Q1408.89 733.478 1410.72 731.325 Q1412.57 729.172 1412.57 725.422 Q1412.57 721.695 1410.72 719.542 Q1408.89 717.367 1405.74 717.367 Q1402.59 717.367 1400.74 719.542 Q1398.91 721.695 1398.91 725.422 Q1398.91 729.172 1400.74 731.325 Q1402.59 733.478 1405.74 733.478 Z" fill="#000000" fill-rule="nonzero" fill-opacity="1" /><path clip-path="url(#clip310)" d="M1437.03 729.704 Q1433.89 729.704 1432.03 731.857 Q1430.21 734.01 1430.21 737.76 Q1430.21 741.487 1432.03 743.663 Q1433.89 745.815 1437.03 745.815 Q1440.18 745.815 1442.01 743.663 Q1443.86 741.487 1443.86 737.76 Q1443.86 734.01 1442.01 731.857 Q1440.18 729.704 1437.03 729.704 M1446.32 715.052 L1446.32 719.311 Q1444.56 718.478 1442.75 718.038 Q1440.97 717.598 1439.21 717.598 Q1434.58 717.598 1432.13 720.723 Q1429.7 723.848 1429.35 730.167 Q1430.72 728.154 1432.78 727.089 Q1434.84 726.001 1437.31 726.001 Q1442.52 726.001 1445.53 729.172 Q1448.56 732.32 1448.56 737.76 Q1448.56 743.084 1445.41 746.302 Q1442.27 749.519 1437.03 749.519 Q1431.04 749.519 1427.87 744.936 Q1424.7 740.329 1424.7 731.603 Q1424.7 723.408 1428.59 718.547 Q1432.47 713.663 1439.03 713.663 Q1440.78 713.663 1442.57 714.01 Q1444.37 714.357 1446.32 715.052 Z" fill="#000000" fill-rule="nonzero" fill-opacity="1" /><path clip-path="url(#clip310)" d="M1466.62 732.436 Q1463.28 732.436 1461.36 734.218 Q1459.47 736.001 1459.47 739.126 Q1459.47 742.251 1461.36 744.033 Q1463.28 745.815 1466.62 745.815 Q1469.95 745.815 1471.87 744.033 Q1473.79 742.228 1473.79 739.126 Q1473.79 736.001 1471.87 734.218 Q1469.97 732.436 1466.62 732.436 M1461.94 730.445 Q1458.93 729.704 1457.24 727.644 Q1455.58 725.584 1455.58 722.621 Q1455.58 718.478 1458.52 716.07 Q1461.48 713.663 1466.62 713.663 Q1471.78 713.663 1474.72 716.07 Q1477.66 718.478 1477.66 722.621 Q1477.66 725.584 1475.97 727.644 Q1474.3 729.704 1471.32 730.445 Q1474.7 731.232 1476.57 733.524 Q1478.47 735.816 1478.47 739.126 Q1478.47 744.149 1475.39 746.834 Q1472.34 749.519 1466.62 749.519 Q1460.9 749.519 1457.82 746.834 Q1454.77 744.149 1454.77 739.126 Q1454.77 735.816 1456.66 733.524 Q1458.56 731.232 1461.94 730.445 M1460.23 723.061 Q1460.23 725.746 1461.9 727.251 Q1463.59 728.755 1466.62 728.755 Q1469.63 728.755 1471.32 727.251 Q1473.03 725.746 1473.03 723.061 Q1473.03 720.376 1471.32 718.871 Q1469.63 717.367 1466.62 717.367 Q1463.59 717.367 1461.9 718.871 Q1460.23 720.376 1460.23 723.061 Z" fill="#000000" fill-rule="nonzero" fill-opacity="1" /><path clip-path="url(#clip310)" d="M1738.73 744.913 L1746.37 744.913 L1746.37 718.547 L1738.06 720.214 L1738.06 715.955 L1746.32 714.288 L1751 714.288 L1751 744.913 L1758.63 744.913 L1758.63 748.848 L1738.73 748.848 L1738.73 744.913 Z" fill="#000000" fill-rule="nonzero" fill-opacity="1" /><path clip-path="url(#clip310)" d="M1768.08 742.968 L1772.96 742.968 L1772.96 748.848 L1768.08 748.848 L1768.08 742.968 Z" fill="#000000" fill-rule="nonzero" fill-opacity="1" /><path clip-path="url(#clip310)" d="M1793.73 729.704 Q1790.58 729.704 1788.73 731.857 Q1786.9 734.01 1786.9 737.76 Q1786.9 741.487 1788.73 743.663 Q1790.58 745.815 1793.73 745.815 Q1796.87 745.815 1798.7 743.663 Q1800.56 741.487 1800.56 737.76 Q1800.56 734.01 1798.7 731.857 Q1796.87 729.704 1793.73 729.704 M1803.01 715.052 L1803.01 719.311 Q1801.25 718.478 1799.44 718.038 Q1797.66 717.598 1795.9 717.598 Q1791.27 717.598 1788.82 720.723 Q1786.39 723.848 1786.04 730.167 Q1787.41 728.154 1789.47 727.089 Q1791.53 726.001 1794 726.001 Q1799.21 726.001 1802.22 729.172 Q1805.25 732.32 1805.25 737.76 Q1805.25 743.084 1802.11 746.302 Q1798.96 749.519 1793.73 749.519 Q1787.73 749.519 1784.56 744.936 Q1781.39 740.329 1781.39 731.603 Q1781.39 723.408 1785.28 718.547 Q1789.17 713.663 1795.72 713.663 Q1797.48 713.663 1799.26 714.01 Q1801.06 714.357 1803.01 715.052 Z" fill="#000000" fill-rule="nonzero" fill-opacity="1" /><path clip-path="url(#clip310)" d="M1813.45 748.13 L1813.45 743.871 Q1815.21 744.704 1817.01 745.144 Q1818.82 745.584 1820.56 745.584 Q1825.18 745.584 1827.62 742.482 Q1830.07 739.357 1830.42 733.015 Q1829.07 735.005 1827.01 736.07 Q1824.95 737.135 1822.45 737.135 Q1817.27 737.135 1814.24 734.01 Q1811.23 730.862 1811.23 725.422 Q1811.23 720.098 1814.37 716.88 Q1817.52 713.663 1822.75 713.663 Q1828.75 713.663 1831.9 718.269 Q1835.07 722.853 1835.07 731.603 Q1835.07 739.774 1831.18 744.658 Q1827.31 749.519 1820.76 749.519 Q1819 749.519 1817.2 749.172 Q1815.39 748.825 1813.45 748.13 M1822.75 733.478 Q1825.9 733.478 1827.73 731.325 Q1829.58 729.172 1829.58 725.422 Q1829.58 721.695 1827.73 719.542 Q1825.9 717.367 1822.75 717.367 Q1819.61 717.367 1817.75 719.542 Q1815.93 721.695 1815.93 725.422 Q1815.93 729.172 1817.75 731.325 Q1819.61 733.478 1822.75 733.478 Z" fill="#000000" fill-rule="nonzero" fill-opacity="1" /><path clip-path="url(#clip310)" d="M1842.29 714.288 L1864.51 714.288 L1864.51 716.279 L1851.97 748.848 L1847.08 748.848 L1858.89 718.223 L1842.29 718.223 L1842.29 714.288 Z" fill="#000000" fill-rule="nonzero" fill-opacity="1" /><path clip-path="url(#clip310)" d="M1874.44 744.913 L1882.08 744.913 L1882.08 718.547 L1873.77 720.214 L1873.77 715.955 L1882.04 714.288 L1886.71 714.288 L1886.71 744.913 L1894.35 744.913 L1894.35 748.848 L1874.44 748.848 L1874.44 744.913 Z" fill="#000000" fill-rule="nonzero" fill-opacity="1" /><path clip-path="url(#clip310)" d="M2154.32 744.913 L2161.96 744.913 L2161.96 718.547 L2153.65 720.214 L2153.65 715.955 L2161.91 714.288 L2166.59 714.288 L2166.59 744.913 L2174.23 744.913 L2174.23 748.848 L2154.32 748.848 L2154.32 744.913 Z" fill="#000000" fill-rule="nonzero" fill-opacity="1" /><path clip-path="url(#clip310)" d="M2183.67 742.968 L2188.56 742.968 L2188.56 748.848 L2183.67 748.848 L2183.67 742.968 Z" fill="#000000" fill-rule="nonzero" fill-opacity="1" /><path clip-path="url(#clip310)" d="M2209.32 729.704 Q2206.17 729.704 2204.32 731.857 Q2202.49 734.01 2202.49 737.76 Q2202.49 741.487 2204.32 743.663 Q2206.17 745.815 2209.32 745.815 Q2212.47 745.815 2214.3 743.663 Q2216.15 741.487 2216.15 737.76 Q2216.15 734.01 2214.3 731.857 Q2212.47 729.704 2209.32 729.704 M2218.6 715.052 L2218.6 719.311 Q2216.84 718.478 2215.04 718.038 Q2213.25 717.598 2211.49 717.598 Q2206.87 717.598 2204.41 720.723 Q2201.98 723.848 2201.63 730.167 Q2203 728.154 2205.06 727.089 Q2207.12 726.001 2209.6 726.001 Q2214.8 726.001 2217.81 729.172 Q2220.85 732.32 2220.85 737.76 Q2220.85 743.084 2217.7 746.302 Q2214.55 749.519 2209.32 749.519 Q2203.32 749.519 2200.15 744.936 Q2196.98 740.329 2196.98 731.603 Q2196.98 723.408 2200.87 718.547 Q2204.76 713.663 2211.31 713.663 Q2213.07 713.663 2214.85 714.01 Q2216.66 714.357 2218.6 715.052 Z" fill="#000000" fill-rule="nonzero" fill-opacity="1" /><path clip-path="url(#clip310)" d="M2229.04 748.13 L2229.04 743.871 Q2230.8 744.704 2232.61 745.144 Q2234.41 745.584 2236.15 745.584 Q2240.78 745.584 2243.21 742.482 Q2245.66 739.357 2246.01 733.015 Q2244.67 735.005 2242.61 736.07 Q2240.55 737.135 2238.05 737.135 Q2232.86 737.135 2229.83 734.01 Q2226.82 730.862 2226.82 725.422 Q2226.82 720.098 2229.97 716.88 Q2233.12 713.663 2238.35 713.663 Q2244.34 713.663 2247.49 718.269 Q2250.66 722.853 2250.66 731.603 Q2250.66 739.774 2246.77 744.658 Q2242.91 749.519 2236.36 749.519 Q2234.6 749.519 2232.79 749.172 Q2230.99 748.825 2229.04 748.13 M2238.35 733.478 Q2241.49 733.478 2243.32 731.325 Q2245.18 729.172 2245.18 725.422 Q2245.18 721.695 2243.32 719.542 Q2241.49 717.367 2238.35 717.367 Q2235.2 717.367 2233.35 719.542 Q2231.52 721.695 2231.52 725.422 Q2231.52 729.172 2233.35 731.325 Q2235.2 733.478 2238.35 733.478 Z" fill="#000000" fill-rule="nonzero" fill-opacity="1" /><path clip-path="url(#clip310)" d="M2257.88 714.288 L2280.11 714.288 L2280.11 716.279 L2267.56 748.848 L2262.68 748.848 L2274.48 718.223 L2257.88 718.223 L2257.88 714.288 Z" fill="#000000" fill-rule="nonzero" fill-opacity="1" /><path clip-path="url(#clip310)" d="M2302.07 718.362 L2290.27 736.811 L2302.07 736.811 L2302.07 718.362 M2300.85 714.288 L2306.73 714.288 L2306.73 736.811 L2311.66 736.811 L2311.66 740.7 L2306.73 740.7 L2306.73 748.848 L2302.07 748.848 L2302.07 740.7 L2286.47 740.7 L2286.47 736.186 L2300.85 714.288 Z" fill="#000000" fill-rule="nonzero" fill-opacity="1" /><polyline clip-path="url(#clip310)" style="stroke:#000000; stroke-linecap:round; stroke-linejoin:round; stroke-width:4; stroke-opacity:1; fill:none" points="169.121,686.448 169.121,47.2441 "/>
<polyline clip-path="url(#clip310)" style="stroke:#000000; stroke-linecap:round; stroke-linejoin:round; stroke-width:4; stroke-opacity:1; fill:none" points="169.121,686.448 188.019,686.448 "/>
<polyline clip-path="url(#clip310)" style="stroke:#000000; stroke-linecap:round; stroke-linejoin:round; stroke-width:4; stroke-opacity:1; fill:none" points="169.121,507.899 188.019,507.899 "/>
<polyline clip-path="url(#clip310)" style="stroke:#000000; stroke-linecap:round; stroke-linejoin:round; stroke-width:4; stroke-opacity:1; fill:none" points="169.121,329.351 188.019,329.351 "/>
<polyline clip-path="url(#clip310)" style="stroke:#000000; stroke-linecap:round; stroke-linejoin:round; stroke-width:4; stroke-opacity:1; fill:none" points="169.121,150.802 188.019,150.802 "/>
<path clip-path="url(#clip310)" d="M121.177 672.247 Q117.566 672.247 115.737 675.811 Q113.932 679.353 113.932 686.483 Q113.932 693.589 115.737 697.154 Q117.566 700.695 121.177 700.695 Q124.811 700.695 126.617 697.154 Q128.445 693.589 128.445 686.483 Q128.445 679.353 126.617 675.811 Q124.811 672.247 121.177 672.247 M121.177 668.543 Q126.987 668.543 130.043 673.149 Q133.121 677.733 133.121 686.483 Q133.121 695.209 130.043 699.816 Q126.987 704.399 121.177 704.399 Q115.367 704.399 112.288 699.816 Q109.233 695.209 109.233 686.483 Q109.233 677.733 112.288 673.149 Q115.367 668.543 121.177 668.543 Z" fill="#000000" fill-rule="nonzero" fill-opacity="1" /><path clip-path="url(#clip310)" d="M81.0614 490.619 L99.4178 490.619 L99.4178 494.554 L85.3438 494.554 L85.3438 503.027 Q86.3623 502.679 87.3808 502.517 Q88.3993 502.332 89.4178 502.332 Q95.2049 502.332 98.5845 505.504 Q101.964 508.675 101.964 514.091 Q101.964 519.67 98.4919 522.772 Q95.0197 525.851 88.7003 525.851 Q86.5243 525.851 84.2558 525.48 Q82.0105 525.11 79.6031 524.369 L79.6031 519.67 Q81.6864 520.804 83.9086 521.36 Q86.1308 521.915 88.6077 521.915 Q92.6123 521.915 94.9502 519.809 Q97.2882 517.703 97.2882 514.091 Q97.2882 510.48 94.9502 508.374 Q92.6123 506.267 88.6077 506.267 Q86.7327 506.267 84.8577 506.684 Q83.0058 507.101 81.0614 507.98 L81.0614 490.619 Z" fill="#000000" fill-rule="nonzero" fill-opacity="1" /><path clip-path="url(#clip310)" d="M121.177 493.698 Q117.566 493.698 115.737 497.263 Q113.932 500.804 113.932 507.934 Q113.932 515.04 115.737 518.605 Q117.566 522.147 121.177 522.147 Q124.811 522.147 126.617 518.605 Q128.445 515.04 128.445 507.934 Q128.445 500.804 126.617 497.263 Q124.811 493.698 121.177 493.698 M121.177 489.994 Q126.987 489.994 130.043 494.601 Q133.121 499.184 133.121 507.934 Q133.121 516.661 130.043 521.267 Q126.987 525.851 121.177 525.851 Q115.367 525.851 112.288 521.267 Q109.233 516.661 109.233 507.934 Q109.233 499.184 112.288 494.601 Q115.367 489.994 121.177 489.994 Z" fill="#000000" fill-rule="nonzero" fill-opacity="1" /><path clip-path="url(#clip310)" d="M51.6634 342.696 L59.3023 342.696 L59.3023 316.33 L50.9921 317.997 L50.9921 313.737 L59.256 312.071 L63.9319 312.071 L63.9319 342.696 L71.5707 342.696 L71.5707 346.631 L51.6634 346.631 L51.6634 342.696 Z" fill="#000000" fill-rule="nonzero" fill-opacity="1" /><path clip-path="url(#clip310)" d="M91.0151 315.149 Q87.404 315.149 85.5753 318.714 Q83.7697 322.256 83.7697 329.386 Q83.7697 336.492 85.5753 340.057 Q87.404 343.598 91.0151 343.598 Q94.6493 343.598 96.4548 340.057 Q98.2835 336.492 98.2835 329.386 Q98.2835 322.256 96.4548 318.714 Q94.6493 315.149 91.0151 315.149 M91.0151 311.446 Q96.8252 311.446 99.8808 316.052 Q102.959 320.636 102.959 329.386 Q102.959 338.112 99.8808 342.719 Q96.8252 347.302 91.0151 347.302 Q85.2049 347.302 82.1262 342.719 Q79.0707 338.112 79.0707 329.386 Q79.0707 320.636 82.1262 316.052 Q85.2049 311.446 91.0151 311.446 Z" fill="#000000" fill-rule="nonzero" fill-opacity="1" /><path clip-path="url(#clip310)" d="M121.177 315.149 Q117.566 315.149 115.737 318.714 Q113.932 322.256 113.932 329.386 Q113.932 336.492 115.737 340.057 Q117.566 343.598 121.177 343.598 Q124.811 343.598 126.617 340.057 Q128.445 336.492 128.445 329.386 Q128.445 322.256 126.617 318.714 Q124.811 315.149 121.177 315.149 M121.177 311.446 Q126.987 311.446 130.043 316.052 Q133.121 320.636 133.121 329.386 Q133.121 338.112 130.043 342.719 Q126.987 347.302 121.177 347.302 Q115.367 347.302 112.288 342.719 Q109.233 338.112 109.233 329.386 Q109.233 320.636 112.288 316.052 Q115.367 311.446 121.177 311.446 Z" fill="#000000" fill-rule="nonzero" fill-opacity="1" /><path clip-path="url(#clip310)" d="M51.6634 164.147 L59.3023 164.147 L59.3023 137.781 L50.9921 139.448 L50.9921 135.189 L59.256 133.522 L63.9319 133.522 L63.9319 164.147 L71.5707 164.147 L71.5707 168.082 L51.6634 168.082 L51.6634 164.147 Z" fill="#000000" fill-rule="nonzero" fill-opacity="1" /><path clip-path="url(#clip310)" d="M81.0614 133.522 L99.4178 133.522 L99.4178 137.457 L85.3438 137.457 L85.3438 145.93 Q86.3623 145.582 87.3808 145.42 Q88.3993 145.235 89.4178 145.235 Q95.2049 145.235 98.5845 148.406 Q101.964 151.578 101.964 156.994 Q101.964 162.573 98.4919 165.675 Q95.0197 168.754 88.7003 168.754 Q86.5243 168.754 84.2558 168.383 Q82.0105 168.013 79.6031 167.272 L79.6031 162.573 Q81.6864 163.707 83.9086 164.263 Q86.1308 164.818 88.6077 164.818 Q92.6123 164.818 94.9502 162.712 Q97.2882 160.605 97.2882 156.994 Q97.2882 153.383 94.9502 151.277 Q92.6123 149.17 88.6077 149.17 Q86.7327 149.17 84.8577 149.587 Q83.0058 150.004 81.0614 150.883 L81.0614 133.522 Z" fill="#000000" fill-rule="nonzero" fill-opacity="1" /><path clip-path="url(#clip310)" d="M121.177 136.601 Q117.566 136.601 115.737 140.166 Q113.932 143.707 113.932 150.837 Q113.932 157.943 115.737 161.508 Q117.566 165.05 121.177 165.05 Q124.811 165.05 126.617 161.508 Q128.445 157.943 128.445 150.837 Q128.445 143.707 126.617 140.166 Q124.811 136.601 121.177 136.601 M121.177 132.897 Q126.987 132.897 130.043 137.504 Q133.121 142.087 133.121 150.837 Q133.121 159.564 130.043 164.17 Q126.987 168.754 121.177 168.754 Q115.367 168.754 112.288 164.17 Q109.233 159.564 109.233 150.837 Q109.233 142.087 112.288 137.504 Q115.367 132.897 121.177 132.897 Z" fill="#000000" fill-rule="nonzero" fill-opacity="1" /><path clip-path="url(#clip312)" d="M289.225 682.877 L289.225 686.448 L428.041 686.448 L428.041 682.877 L289.225 682.877 L289.225 682.877  Z" fill="#009af9" fill-rule="evenodd" fill-opacity="1"/>
<polyline clip-path="url(#clip312)" style="stroke:#000000; stroke-linecap:round; stroke-linejoin:round; stroke-width:4; stroke-opacity:1; fill:none" points="289.225,682.877 289.225,686.448 428.041,686.448 428.041,682.877 289.225,682.877 "/>
<path clip-path="url(#clip312)" d="M428.041 657.88 L428.041 686.448 L566.858 686.448 L566.858 657.88 L428.041 657.88 L428.041 657.88  Z" fill="#009af9" fill-rule="evenodd" fill-opacity="1"/>
<polyline clip-path="url(#clip312)" style="stroke:#000000; stroke-linecap:round; stroke-linejoin:round; stroke-width:4; stroke-opacity:1; fill:none" points="428.041,657.88 428.041,686.448 566.858,686.448 566.858,657.88 428.041,657.88 "/>
<path clip-path="url(#clip312)" d="M566.858 622.17 L566.858 686.448 L705.674 686.448 L705.674 622.17 L566.858 622.17 L566.858 622.17  Z" fill="#009af9" fill-rule="evenodd" fill-opacity="1"/>
<polyline clip-path="url(#clip312)" style="stroke:#000000; stroke-linecap:round; stroke-linejoin:round; stroke-width:4; stroke-opacity:1; fill:none" points="566.858,622.17 566.858,686.448 705.674,686.448 705.674,622.17 566.858,622.17 "/>
<path clip-path="url(#clip312)" d="M705.674 565.035 L705.674 686.448 L844.49 686.448 L844.49 565.035 L705.674 565.035 L705.674 565.035  Z" fill="#009af9" fill-rule="evenodd" fill-opacity="1"/>
<polyline clip-path="url(#clip312)" style="stroke:#000000; stroke-linecap:round; stroke-linejoin:round; stroke-width:4; stroke-opacity:1; fill:none" points="705.674,565.035 705.674,686.448 844.49,686.448 844.49,565.035 705.674,565.035 "/>
<path clip-path="url(#clip312)" d="M844.49 411.483 L844.49 686.448 L983.306 686.448 L983.306 411.483 L844.49 411.483 L844.49 411.483  Z" fill="#009af9" fill-rule="evenodd" fill-opacity="1"/>
<polyline clip-path="url(#clip312)" style="stroke:#000000; stroke-linecap:round; stroke-linejoin:round; stroke-width:4; stroke-opacity:1; fill:none" points="844.49,411.483 844.49,686.448 983.306,686.448 983.306,411.483 844.49,411.483 "/>
<path clip-path="url(#clip312)" d="M983.306 200.796 L983.306 686.448 L1122.12 686.448 L1122.12 200.796 L983.306 200.796 L983.306 200.796  Z" fill="#009af9" fill-rule="evenodd" fill-opacity="1"/>
<polyline clip-path="url(#clip312)" style="stroke:#000000; stroke-linecap:round; stroke-linejoin:round; stroke-width:4; stroke-opacity:1; fill:none" points="983.306,200.796 983.306,686.448 1122.12,686.448 1122.12,200.796 983.306,200.796 "/>
<path clip-path="url(#clip312)" d="M1122.12 122.234 L1122.12 686.448 L1260.94 686.448 L1260.94 122.234 L1122.12 122.234 L1122.12 122.234  Z" fill="#009af9" fill-rule="evenodd" fill-opacity="1"/>
<polyline clip-path="url(#clip312)" style="stroke:#000000; stroke-linecap:round; stroke-linejoin:round; stroke-width:4; stroke-opacity:1; fill:none" points="1122.12,122.234 1122.12,686.448 1260.94,686.448 1260.94,122.234 1122.12,122.234 "/>
<path clip-path="url(#clip312)" d="M1260.94 54.386 L1260.94 686.448 L1399.75 686.448 L1399.75 54.386 L1260.94 54.386 L1260.94 54.386  Z" fill="#009af9" fill-rule="evenodd" fill-opacity="1"/>
<polyline clip-path="url(#clip312)" style="stroke:#000000; stroke-linecap:round; stroke-linejoin:round; stroke-width:4; stroke-opacity:1; fill:none" points="1260.94,54.386 1260.94,686.448 1399.75,686.448 1399.75,54.386 1260.94,54.386 "/>
<path clip-path="url(#clip312)" d="M1399.75 47.2441 L1399.75 686.448 L1538.57 686.448 L1538.57 47.2441 L1399.75 47.2441 L1399.75 47.2441  Z" fill="#009af9" fill-rule="evenodd" fill-opacity="1"/>
<polyline clip-path="url(#clip312)" style="stroke:#000000; stroke-linecap:round; stroke-linejoin:round; stroke-width:4; stroke-opacity:1; fill:none" points="1399.75,47.2441 1399.75,686.448 1538.57,686.448 1538.57,47.2441 1399.75,47.2441 "/>
<path clip-path="url(#clip312)" d="M1538.57 300.783 L1538.57 686.448 L1677.39 686.448 L1677.39 300.783 L1538.57 300.783 L1538.57 300.783  Z" fill="#009af9" fill-rule="evenodd" fill-opacity="1"/>
<polyline clip-path="url(#clip312)" style="stroke:#000000; stroke-linecap:round; stroke-linejoin:round; stroke-width:4; stroke-opacity:1; fill:none" points="1538.57,300.783 1538.57,686.448 1677.39,686.448 1677.39,300.783 1538.57,300.783 "/>
<path clip-path="url(#clip312)" d="M1677.39 479.332 L1677.39 686.448 L1816.2 686.448 L1816.2 479.332 L1677.39 479.332 L1677.39 479.332  Z" fill="#009af9" fill-rule="evenodd" fill-opacity="1"/>
<polyline clip-path="url(#clip312)" style="stroke:#000000; stroke-linecap:round; stroke-linejoin:round; stroke-width:4; stroke-opacity:1; fill:none" points="1677.39,479.332 1677.39,686.448 1816.2,686.448 1816.2,479.332 1677.39,479.332 "/>
<path clip-path="url(#clip312)" d="M1816.2 600.745 L1816.2 686.448 L1955.02 686.448 L1955.02 600.745 L1816.2 600.745 L1816.2 600.745  Z" fill="#009af9" fill-rule="evenodd" fill-opacity="1"/>
<polyline clip-path="url(#clip312)" style="stroke:#000000; stroke-linecap:round; stroke-linejoin:round; stroke-width:4; stroke-opacity:1; fill:none" points="1816.2,600.745 1816.2,686.448 1955.02,686.448 1955.02,600.745 1816.2,600.745 "/>
<path clip-path="url(#clip312)" d="M1955.02 636.454 L1955.02 686.448 L2093.84 686.448 L2093.84 636.454 L1955.02 636.454 L1955.02 636.454  Z" fill="#009af9" fill-rule="evenodd" fill-opacity="1"/>
<polyline clip-path="url(#clip312)" style="stroke:#000000; stroke-linecap:round; stroke-linejoin:round; stroke-width:4; stroke-opacity:1; fill:none" points="1955.02,636.454 1955.02,686.448 2093.84,686.448 2093.84,636.454 1955.02,636.454 "/>
<path clip-path="url(#clip312)" d="M2093.84 657.88 L2093.84 686.448 L2232.65 686.448 L2232.65 657.88 L2093.84 657.88 L2093.84 657.88  Z" fill="#009af9" fill-rule="evenodd" fill-opacity="1"/>
<polyline clip-path="url(#clip312)" style="stroke:#000000; stroke-linecap:round; stroke-linejoin:round; stroke-width:4; stroke-opacity:1; fill:none" points="2093.84,657.88 2093.84,686.448 2232.65,686.448 2232.65,657.88 2093.84,657.88 "/>
<circle clip-path="url(#clip312)" style="fill:#009af9; stroke:none; fill-opacity:0" cx="358.633" cy="682.877" r="2"/>
<circle clip-path="url(#clip312)" style="fill:#009af9; stroke:none; fill-opacity:0" cx="497.449" cy="657.88" r="2"/>
<circle clip-path="url(#clip312)" style="fill:#009af9; stroke:none; fill-opacity:0" cx="636.266" cy="622.17" r="2"/>
<circle clip-path="url(#clip312)" style="fill:#009af9; stroke:none; fill-opacity:0" cx="775.082" cy="565.035" r="2"/>
<circle clip-path="url(#clip312)" style="fill:#009af9; stroke:none; fill-opacity:0" cx="913.898" cy="411.483" r="2"/>
<circle clip-path="url(#clip312)" style="fill:#009af9; stroke:none; fill-opacity:0" cx="1052.71" cy="200.796" r="2"/>
<circle clip-path="url(#clip312)" style="fill:#009af9; stroke:none; fill-opacity:0" cx="1191.53" cy="122.234" r="2"/>
<circle clip-path="url(#clip312)" style="fill:#009af9; stroke:none; fill-opacity:0" cx="1330.35" cy="54.386" r="2"/>
<circle clip-path="url(#clip312)" style="fill:#009af9; stroke:none; fill-opacity:0" cx="1469.16" cy="47.2441" r="2"/>
<circle clip-path="url(#clip312)" style="fill:#009af9; stroke:none; fill-opacity:0" cx="1607.98" cy="300.783" r="2"/>
<circle clip-path="url(#clip312)" style="fill:#009af9; stroke:none; fill-opacity:0" cx="1746.8" cy="479.332" r="2"/>
<circle clip-path="url(#clip312)" style="fill:#009af9; stroke:none; fill-opacity:0" cx="1885.61" cy="600.745" r="2"/>
<circle clip-path="url(#clip312)" style="fill:#009af9; stroke:none; fill-opacity:0" cx="2024.43" cy="636.454" r="2"/>
<circle clip-path="url(#clip312)" style="fill:#009af9; stroke:none; fill-opacity:0" cx="2163.24" cy="657.88" r="2"/>
<path clip-path="url(#clip310)" d="M2019.45 172.231 L2279.97 172.231 L2279.97 68.5509 L2019.45 68.5509  Z" fill="#ffffff" fill-rule="evenodd" fill-opacity="1"/>
<polyline clip-path="url(#clip310)" style="stroke:#000000; stroke-linecap:round; stroke-linejoin:round; stroke-width:4; stroke-opacity:1; fill:none" points="2019.45,172.231 2279.97,172.231 2279.97,68.5509 2019.45,68.5509 2019.45,172.231 "/>
<path clip-path="url(#clip310)" d="M2043.71 141.127 L2189.29 141.127 L2189.29 99.6549 L2043.71 99.6549 L2043.71 141.127  Z" fill="#009af9" fill-rule="evenodd" fill-opacity="1"/>
<polyline clip-path="url(#clip310)" style="stroke:#000000; stroke-linecap:round; stroke-linejoin:round; stroke-width:4; stroke-opacity:1; fill:none" points="2043.71,141.127 2189.29,141.127 2189.29,99.6549 2043.71,99.6549 2043.71,141.127 "/>
<path clip-path="url(#clip310)" d="M2235.27 122.023 L2235.27 137.671 L2231.01 137.671 L2231.01 122.162 Q2231.01 118.481 2229.57 116.652 Q2228.14 114.824 2225.27 114.824 Q2221.82 114.824 2219.83 117.023 Q2217.84 119.222 2217.84 123.018 L2217.84 137.671 L2213.55 137.671 L2213.55 111.745 L2217.84 111.745 L2217.84 115.773 Q2219.36 113.435 2221.42 112.278 Q2223.51 111.12 2226.21 111.12 Q2230.68 111.12 2232.97 113.898 Q2235.27 116.652 2235.27 122.023 Z" fill="#000000" fill-rule="nonzero" fill-opacity="1" /><path clip-path="url(#clip310)" d="M2242.9 135.125 L2247.63 135.125 L2247.63 120.981 L2242.46 121.93 L2242.46 119.245 L2247.79 118.342 L2250.96 118.342 L2250.96 135.125 L2255.71 135.125 L2255.71 137.671 L2242.9 137.671 L2242.9 135.125 Z" fill="#000000" fill-rule="nonzero" fill-opacity="1" /><path clip-path="url(#clip310)" d="M169.121 1486.45 L2352.76 1486.45 L2352.76 847.244 L169.121 847.244  Z" fill="#ffffff" fill-rule="evenodd" fill-opacity="1"/>
<defs>
  <clipPath id="clip313">
    <rect x="169" y="847" width="2185" height="640"/>
  </clipPath>
</defs>
<polyline clip-path="url(#clip313)" style="stroke:#000000; stroke-linecap:round; stroke-linejoin:round; stroke-width:2; stroke-opacity:0.1; fill:none" points="410.689,1486.45 410.689,847.244 "/>
<polyline clip-path="url(#clip313)" style="stroke:#000000; stroke-linecap:round; stroke-linejoin:round; stroke-width:2; stroke-opacity:0.1; fill:none" points="1018.01,1486.45 1018.01,847.244 "/>
<polyline clip-path="url(#clip313)" style="stroke:#000000; stroke-linecap:round; stroke-linejoin:round; stroke-width:2; stroke-opacity:0.1; fill:none" points="1625.33,1486.45 1625.33,847.244 "/>
<polyline clip-path="url(#clip313)" style="stroke:#000000; stroke-linecap:round; stroke-linejoin:round; stroke-width:2; stroke-opacity:0.1; fill:none" points="2232.65,1486.45 2232.65,847.244 "/>
<polyline clip-path="url(#clip313)" style="stroke:#000000; stroke-linecap:round; stroke-linejoin:round; stroke-width:2; stroke-opacity:0.1; fill:none" points="169.121,1486.45 2352.76,1486.45 "/>
<polyline clip-path="url(#clip313)" style="stroke:#000000; stroke-linecap:round; stroke-linejoin:round; stroke-width:2; stroke-opacity:0.1; fill:none" points="169.121,1318.24 2352.76,1318.24 "/>
<polyline clip-path="url(#clip313)" style="stroke:#000000; stroke-linecap:round; stroke-linejoin:round; stroke-width:2; stroke-opacity:0.1; fill:none" points="169.121,1150.02 2352.76,1150.02 "/>
<polyline clip-path="url(#clip313)" style="stroke:#000000; stroke-linecap:round; stroke-linejoin:round; stroke-width:2; stroke-opacity:0.1; fill:none" points="169.121,981.813 2352.76,981.813 "/>
<polyline clip-path="url(#clip310)" style="stroke:#000000; stroke-linecap:round; stroke-linejoin:round; stroke-width:4; stroke-opacity:1; fill:none" points="169.121,1486.45 2352.76,1486.45 "/>
<polyline clip-path="url(#clip310)" style="stroke:#000000; stroke-linecap:round; stroke-linejoin:round; stroke-width:4; stroke-opacity:1; fill:none" points="410.689,1486.45 410.689,1467.55 "/>
<polyline clip-path="url(#clip310)" style="stroke:#000000; stroke-linecap:round; stroke-linejoin:round; stroke-width:4; stroke-opacity:1; fill:none" points="1018.01,1486.45 1018.01,1467.55 "/>
<polyline clip-path="url(#clip310)" style="stroke:#000000; stroke-linecap:round; stroke-linejoin:round; stroke-width:4; stroke-opacity:1; fill:none" points="1625.33,1486.45 1625.33,1467.55 "/>
<polyline clip-path="url(#clip310)" style="stroke:#000000; stroke-linecap:round; stroke-linejoin:round; stroke-width:4; stroke-opacity:1; fill:none" points="2232.65,1486.45 2232.65,1467.55 "/>
<path clip-path="url(#clip310)" d="M333.097 1544.91 L340.736 1544.91 L340.736 1518.55 L332.426 1520.21 L332.426 1515.95 L340.69 1514.29 L345.366 1514.29 L345.366 1544.91 L353.004 1544.91 L353.004 1548.85 L333.097 1548.85 L333.097 1544.91 Z" fill="#000000" fill-rule="nonzero" fill-opacity="1" /><path clip-path="url(#clip310)" d="M362.449 1542.97 L367.333 1542.97 L367.333 1548.85 L362.449 1548.85 L362.449 1542.97 Z" fill="#000000" fill-rule="nonzero" fill-opacity="1" /><path clip-path="url(#clip310)" d="M376.338 1514.29 L398.56 1514.29 L398.56 1516.28 L386.013 1548.85 L381.129 1548.85 L392.935 1518.22 L376.338 1518.22 L376.338 1514.29 Z" fill="#000000" fill-rule="nonzero" fill-opacity="1" /><path clip-path="url(#clip310)" d="M407.726 1514.29 L426.083 1514.29 L426.083 1518.22 L412.009 1518.22 L412.009 1526.7 Q413.027 1526.35 414.046 1526.19 Q415.064 1526 416.083 1526 Q421.87 1526 425.249 1529.17 Q428.629 1532.34 428.629 1537.76 Q428.629 1543.34 425.157 1546.44 Q421.685 1549.52 415.365 1549.52 Q413.189 1549.52 410.921 1549.15 Q408.675 1548.78 406.268 1548.04 L406.268 1543.34 Q408.351 1544.47 410.574 1545.03 Q412.796 1545.58 415.273 1545.58 Q419.277 1545.58 421.615 1543.48 Q423.953 1541.37 423.953 1537.76 Q423.953 1534.15 421.615 1532.04 Q419.277 1529.94 415.273 1529.94 Q413.398 1529.94 411.523 1530.35 Q409.671 1530.77 407.726 1531.65 L407.726 1514.29 Z" fill="#000000" fill-rule="nonzero" fill-opacity="1" /><path clip-path="url(#clip310)" d="M447.842 1517.37 Q444.231 1517.37 442.402 1520.93 Q440.597 1524.47 440.597 1531.6 Q440.597 1538.71 442.402 1542.27 Q444.231 1545.82 447.842 1545.82 Q451.476 1545.82 453.282 1542.27 Q455.11 1538.71 455.11 1531.6 Q455.11 1524.47 453.282 1520.93 Q451.476 1517.37 447.842 1517.37 M447.842 1513.66 Q453.652 1513.66 456.708 1518.27 Q459.786 1522.85 459.786 1531.6 Q459.786 1540.33 456.708 1544.94 Q453.652 1549.52 447.842 1549.52 Q442.032 1549.52 438.953 1544.94 Q435.897 1540.33 435.897 1531.6 Q435.897 1522.85 438.953 1518.27 Q442.032 1513.66 447.842 1513.66 Z" fill="#000000" fill-rule="nonzero" fill-opacity="1" /><path clip-path="url(#clip310)" d="M468.05 1514.29 L486.406 1514.29 L486.406 1518.22 L472.332 1518.22 L472.332 1526.7 Q473.351 1526.35 474.37 1526.19 Q475.388 1526 476.407 1526 Q482.194 1526 485.573 1529.17 Q488.953 1532.34 488.953 1537.76 Q488.953 1543.34 485.481 1546.44 Q482.008 1549.52 475.689 1549.52 Q473.513 1549.52 471.245 1549.15 Q468.999 1548.78 466.592 1548.04 L466.592 1543.34 Q468.675 1544.47 470.897 1545.03 Q473.12 1545.58 475.596 1545.58 Q479.601 1545.58 481.939 1543.48 Q484.277 1541.37 484.277 1537.76 Q484.277 1534.15 481.939 1532.04 Q479.601 1529.94 475.596 1529.94 Q473.721 1529.94 471.846 1530.35 Q469.995 1530.77 468.05 1531.65 L468.05 1514.29 Z" fill="#000000" fill-rule="nonzero" fill-opacity="1" /><path clip-path="url(#clip310)" d="M939.92 1544.91 L947.559 1544.91 L947.559 1518.55 L939.249 1520.21 L939.249 1515.95 L947.513 1514.29 L952.189 1514.29 L952.189 1544.91 L959.828 1544.91 L959.828 1548.85 L939.92 1548.85 L939.92 1544.91 Z" fill="#000000" fill-rule="nonzero" fill-opacity="1" /><path clip-path="url(#clip310)" d="M969.272 1542.97 L974.156 1542.97 L974.156 1548.85 L969.272 1548.85 L969.272 1542.97 Z" fill="#000000" fill-rule="nonzero" fill-opacity="1" /><path clip-path="url(#clip310)" d="M983.161 1514.29 L1005.38 1514.29 L1005.38 1516.28 L992.837 1548.85 L987.953 1548.85 L999.758 1518.22 L983.161 1518.22 L983.161 1514.29 Z" fill="#000000" fill-rule="nonzero" fill-opacity="1" /><path clip-path="url(#clip310)" d="M1014.55 1514.29 L1032.91 1514.29 L1032.91 1518.22 L1018.83 1518.22 L1018.83 1526.7 Q1019.85 1526.35 1020.87 1526.19 Q1021.89 1526 1022.91 1526 Q1028.69 1526 1032.07 1529.17 Q1035.45 1532.34 1035.45 1537.76 Q1035.45 1543.34 1031.98 1546.44 Q1028.51 1549.52 1022.19 1549.52 Q1020.01 1549.52 1017.74 1549.15 Q1015.5 1548.78 1013.09 1548.04 L1013.09 1543.34 Q1015.17 1544.47 1017.4 1545.03 Q1019.62 1545.58 1022.1 1545.58 Q1026.1 1545.58 1028.44 1543.48 Q1030.78 1541.37 1030.78 1537.76 Q1030.78 1534.15 1028.44 1532.04 Q1026.1 1529.94 1022.1 1529.94 Q1020.22 1529.94 1018.35 1530.35 Q1016.49 1530.77 1014.55 1531.65 L1014.55 1514.29 Z" fill="#000000" fill-rule="nonzero" fill-opacity="1" /><path clip-path="url(#clip310)" d="M1045.48 1544.91 L1053.11 1544.91 L1053.11 1518.55 L1044.8 1520.21 L1044.8 1515.95 L1053.07 1514.29 L1057.74 1514.29 L1057.74 1544.91 L1065.38 1544.91 L1065.38 1548.85 L1045.48 1548.85 L1045.48 1544.91 Z" fill="#000000" fill-rule="nonzero" fill-opacity="1" /><path clip-path="url(#clip310)" d="M1084.83 1517.37 Q1081.22 1517.37 1079.39 1520.93 Q1077.58 1524.47 1077.58 1531.6 Q1077.58 1538.71 1079.39 1542.27 Q1081.22 1545.82 1084.83 1545.82 Q1088.46 1545.82 1090.27 1542.27 Q1092.1 1538.71 1092.1 1531.6 Q1092.1 1524.47 1090.27 1520.93 Q1088.46 1517.37 1084.83 1517.37 M1084.83 1513.66 Q1090.64 1513.66 1093.69 1518.27 Q1096.77 1522.85 1096.77 1531.6 Q1096.77 1540.33 1093.69 1544.94 Q1090.64 1549.52 1084.83 1549.52 Q1079.02 1549.52 1075.94 1544.94 Q1072.88 1540.33 1072.88 1531.6 Q1072.88 1522.85 1075.94 1518.27 Q1079.02 1513.66 1084.83 1513.66 Z" fill="#000000" fill-rule="nonzero" fill-opacity="1" /><path clip-path="url(#clip310)" d="M1547.74 1544.91 L1555.38 1544.91 L1555.38 1518.55 L1547.07 1520.21 L1547.07 1515.95 L1555.33 1514.29 L1560.01 1514.29 L1560.01 1544.91 L1567.65 1544.91 L1567.65 1548.85 L1547.74 1548.85 L1547.74 1544.91 Z" fill="#000000" fill-rule="nonzero" fill-opacity="1" /><path clip-path="url(#clip310)" d="M1577.09 1542.97 L1581.97 1542.97 L1581.97 1548.85 L1577.09 1548.85 L1577.09 1542.97 Z" fill="#000000" fill-rule="nonzero" fill-opacity="1" /><path clip-path="url(#clip310)" d="M1590.98 1514.29 L1613.2 1514.29 L1613.2 1516.28 L1600.66 1548.85 L1595.77 1548.85 L1607.58 1518.22 L1590.98 1518.22 L1590.98 1514.29 Z" fill="#000000" fill-rule="nonzero" fill-opacity="1" /><path clip-path="url(#clip310)" d="M1622.37 1514.29 L1640.72 1514.29 L1640.72 1518.22 L1626.65 1518.22 L1626.65 1526.7 Q1627.67 1526.35 1628.69 1526.19 Q1629.71 1526 1630.72 1526 Q1636.51 1526 1639.89 1529.17 Q1643.27 1532.34 1643.27 1537.76 Q1643.27 1543.34 1639.8 1546.44 Q1636.33 1549.52 1630.01 1549.52 Q1627.83 1549.52 1625.56 1549.15 Q1623.32 1548.78 1620.91 1548.04 L1620.91 1543.34 Q1622.99 1544.47 1625.22 1545.03 Q1627.44 1545.58 1629.91 1545.58 Q1633.92 1545.58 1636.26 1543.48 Q1638.59 1541.37 1638.59 1537.76 Q1638.59 1534.15 1636.26 1532.04 Q1633.92 1529.94 1629.91 1529.94 Q1628.04 1529.94 1626.16 1530.35 Q1624.31 1530.77 1622.37 1531.65 L1622.37 1514.29 Z" fill="#000000" fill-rule="nonzero" fill-opacity="1" /><path clip-path="url(#clip310)" d="M1653.29 1544.91 L1660.93 1544.91 L1660.93 1518.55 L1652.62 1520.21 L1652.62 1515.95 L1660.89 1514.29 L1665.56 1514.29 L1665.56 1544.91 L1673.2 1544.91 L1673.2 1548.85 L1653.29 1548.85 L1653.29 1544.91 Z" fill="#000000" fill-rule="nonzero" fill-opacity="1" /><path clip-path="url(#clip310)" d="M1682.69 1514.29 L1701.05 1514.29 L1701.05 1518.22 L1686.97 1518.22 L1686.97 1526.7 Q1687.99 1526.35 1689.01 1526.19 Q1690.03 1526 1691.05 1526 Q1696.84 1526 1700.22 1529.17 Q1703.59 1532.34 1703.59 1537.76 Q1703.59 1543.34 1700.12 1546.44 Q1696.65 1549.52 1690.33 1549.52 Q1688.15 1549.52 1685.89 1549.15 Q1683.64 1548.78 1681.23 1548.04 L1681.23 1543.34 Q1683.32 1544.47 1685.54 1545.03 Q1687.76 1545.58 1690.24 1545.58 Q1694.24 1545.58 1696.58 1543.48 Q1698.92 1541.37 1698.92 1537.76 Q1698.92 1534.15 1696.58 1532.04 Q1694.24 1529.94 1690.24 1529.94 Q1688.36 1529.94 1686.49 1530.35 Q1684.64 1530.77 1682.69 1531.65 L1682.69 1514.29 Z" fill="#000000" fill-rule="nonzero" fill-opacity="1" /><path clip-path="url(#clip310)" d="M2154.56 1544.91 L2162.2 1544.91 L2162.2 1518.55 L2153.89 1520.21 L2153.89 1515.95 L2162.15 1514.29 L2166.83 1514.29 L2166.83 1544.91 L2174.47 1544.91 L2174.47 1548.85 L2154.56 1548.85 L2154.56 1544.91 Z" fill="#000000" fill-rule="nonzero" fill-opacity="1" /><path clip-path="url(#clip310)" d="M2183.91 1542.97 L2188.8 1542.97 L2188.8 1548.85 L2183.91 1548.85 L2183.91 1542.97 Z" fill="#000000" fill-rule="nonzero" fill-opacity="1" /><path clip-path="url(#clip310)" d="M2197.8 1514.29 L2220.02 1514.29 L2220.02 1516.28 L2207.48 1548.85 L2202.59 1548.85 L2214.4 1518.22 L2197.8 1518.22 L2197.8 1514.29 Z" fill="#000000" fill-rule="nonzero" fill-opacity="1" /><path clip-path="url(#clip310)" d="M2229.19 1514.29 L2247.55 1514.29 L2247.55 1518.22 L2233.47 1518.22 L2233.47 1526.7 Q2234.49 1526.35 2235.51 1526.19 Q2236.53 1526 2237.55 1526 Q2243.33 1526 2246.71 1529.17 Q2250.09 1532.34 2250.09 1537.76 Q2250.09 1543.34 2246.62 1546.44 Q2243.15 1549.52 2236.83 1549.52 Q2234.65 1549.52 2232.39 1549.15 Q2230.14 1548.78 2227.73 1548.04 L2227.73 1543.34 Q2229.82 1544.47 2232.04 1545.03 Q2234.26 1545.58 2236.74 1545.58 Q2240.74 1545.58 2243.08 1543.48 Q2245.42 1541.37 2245.42 1537.76 Q2245.42 1534.15 2243.08 1532.04 Q2240.74 1529.94 2236.74 1529.94 Q2234.86 1529.94 2232.99 1530.35 Q2231.14 1530.77 2229.19 1531.65 L2229.19 1514.29 Z" fill="#000000" fill-rule="nonzero" fill-opacity="1" /><path clip-path="url(#clip310)" d="M2263.33 1544.91 L2279.65 1544.91 L2279.65 1548.85 L2257.71 1548.85 L2257.71 1544.91 Q2260.37 1542.16 2264.96 1537.53 Q2269.56 1532.88 2270.74 1531.53 Q2272.99 1529.01 2273.87 1527.27 Q2274.77 1525.51 2274.77 1523.82 Q2274.77 1521.07 2272.83 1519.33 Q2270.9 1517.6 2267.8 1517.6 Q2265.6 1517.6 2263.15 1518.36 Q2260.72 1519.13 2257.94 1520.68 L2257.94 1515.95 Q2260.77 1514.82 2263.22 1514.24 Q2265.67 1513.66 2267.71 1513.66 Q2273.08 1513.66 2276.27 1516.35 Q2279.47 1519.03 2279.47 1523.52 Q2279.47 1525.65 2278.66 1527.57 Q2277.87 1529.47 2275.77 1532.07 Q2275.19 1532.74 2272.08 1535.95 Q2268.98 1539.15 2263.33 1544.91 Z" fill="#000000" fill-rule="nonzero" fill-opacity="1" /><path clip-path="url(#clip310)" d="M2299.47 1517.37 Q2295.86 1517.37 2294.03 1520.93 Q2292.22 1524.47 2292.22 1531.6 Q2292.22 1538.71 2294.03 1542.27 Q2295.86 1545.82 2299.47 1545.82 Q2303.1 1545.82 2304.91 1542.27 Q2306.74 1538.71 2306.74 1531.6 Q2306.74 1524.47 2304.91 1520.93 Q2303.1 1517.37 2299.47 1517.37 M2299.47 1513.66 Q2305.28 1513.66 2308.33 1518.27 Q2311.41 1522.85 2311.41 1531.6 Q2311.41 1540.33 2308.33 1544.94 Q2305.28 1549.52 2299.47 1549.52 Q2293.66 1549.52 2290.58 1544.94 Q2287.52 1540.33 2287.52 1531.6 Q2287.52 1522.85 2290.58 1518.27 Q2293.66 1513.66 2299.47 1513.66 Z" fill="#000000" fill-rule="nonzero" fill-opacity="1" /><polyline clip-path="url(#clip310)" style="stroke:#000000; stroke-linecap:round; stroke-linejoin:round; stroke-width:4; stroke-opacity:1; fill:none" points="169.121,1486.45 169.121,847.244 "/>
<polyline clip-path="url(#clip310)" style="stroke:#000000; stroke-linecap:round; stroke-linejoin:round; stroke-width:4; stroke-opacity:1; fill:none" points="169.121,1486.45 188.019,1486.45 "/>
<polyline clip-path="url(#clip310)" style="stroke:#000000; stroke-linecap:round; stroke-linejoin:round; stroke-width:4; stroke-opacity:1; fill:none" points="169.121,1318.24 188.019,1318.24 "/>
<polyline clip-path="url(#clip310)" style="stroke:#000000; stroke-linecap:round; stroke-linejoin:round; stroke-width:4; stroke-opacity:1; fill:none" points="169.121,1150.02 188.019,1150.02 "/>
<polyline clip-path="url(#clip310)" style="stroke:#000000; stroke-linecap:round; stroke-linejoin:round; stroke-width:4; stroke-opacity:1; fill:none" points="169.121,981.813 188.019,981.813 "/>
<path clip-path="url(#clip310)" d="M121.177 1472.25 Q117.566 1472.25 115.737 1475.81 Q113.932 1479.35 113.932 1486.48 Q113.932 1493.59 115.737 1497.15 Q117.566 1500.7 121.177 1500.7 Q124.811 1500.7 126.617 1497.15 Q128.445 1493.59 128.445 1486.48 Q128.445 1479.35 126.617 1475.81 Q124.811 1472.25 121.177 1472.25 M121.177 1468.54 Q126.987 1468.54 130.043 1473.15 Q133.121 1477.73 133.121 1486.48 Q133.121 1495.21 130.043 1499.82 Q126.987 1504.4 121.177 1504.4 Q115.367 1504.4 112.288 1499.82 Q109.233 1495.21 109.233 1486.48 Q109.233 1477.73 112.288 1473.15 Q115.367 1468.54 121.177 1468.54 Z" fill="#000000" fill-rule="nonzero" fill-opacity="1" /><path clip-path="url(#clip310)" d="M81.0614 1300.96 L99.4178 1300.96 L99.4178 1304.89 L85.3438 1304.89 L85.3438 1313.36 Q86.3623 1313.02 87.3808 1312.85 Q88.3993 1312.67 89.4178 1312.67 Q95.2049 1312.67 98.5845 1315.84 Q101.964 1319.01 101.964 1324.43 Q101.964 1330.01 98.4919 1333.11 Q95.0197 1336.19 88.7003 1336.19 Q86.5243 1336.19 84.2558 1335.82 Q82.0105 1335.45 79.6031 1334.71 L79.6031 1330.01 Q81.6864 1331.14 83.9086 1331.7 Q86.1308 1332.25 88.6077 1332.25 Q92.6123 1332.25 94.9502 1330.15 Q97.2882 1328.04 97.2882 1324.43 Q97.2882 1320.82 94.9502 1318.71 Q92.6123 1316.6 88.6077 1316.6 Q86.7327 1316.6 84.8577 1317.02 Q83.0058 1317.44 81.0614 1318.32 L81.0614 1300.96 Z" fill="#000000" fill-rule="nonzero" fill-opacity="1" /><path clip-path="url(#clip310)" d="M121.177 1304.04 Q117.566 1304.04 115.737 1307.6 Q113.932 1311.14 113.932 1318.27 Q113.932 1325.38 115.737 1328.94 Q117.566 1332.48 121.177 1332.48 Q124.811 1332.48 126.617 1328.94 Q128.445 1325.38 128.445 1318.27 Q128.445 1311.14 126.617 1307.6 Q124.811 1304.04 121.177 1304.04 M121.177 1300.33 Q126.987 1300.33 130.043 1304.94 Q133.121 1309.52 133.121 1318.27 Q133.121 1327 130.043 1331.6 Q126.987 1336.19 121.177 1336.19 Q115.367 1336.19 112.288 1331.6 Q109.233 1327 109.233 1318.27 Q109.233 1309.52 112.288 1304.94 Q115.367 1300.33 121.177 1300.33 Z" fill="#000000" fill-rule="nonzero" fill-opacity="1" /><path clip-path="url(#clip310)" d="M51.6634 1163.37 L59.3023 1163.37 L59.3023 1137 L50.9921 1138.67 L50.9921 1134.41 L59.256 1132.74 L63.9319 1132.74 L63.9319 1163.37 L71.5707 1163.37 L71.5707 1167.3 L51.6634 1167.3 L51.6634 1163.37 Z" fill="#000000" fill-rule="nonzero" fill-opacity="1" /><path clip-path="url(#clip310)" d="M91.0151 1135.82 Q87.404 1135.82 85.5753 1139.39 Q83.7697 1142.93 83.7697 1150.06 Q83.7697 1157.17 85.5753 1160.73 Q87.404 1164.27 91.0151 1164.27 Q94.6493 1164.27 96.4548 1160.73 Q98.2835 1157.17 98.2835 1150.06 Q98.2835 1142.93 96.4548 1139.39 Q94.6493 1135.82 91.0151 1135.82 M91.0151 1132.12 Q96.8252 1132.12 99.8808 1136.73 Q102.959 1141.31 102.959 1150.06 Q102.959 1158.79 99.8808 1163.39 Q96.8252 1167.98 91.0151 1167.98 Q85.2049 1167.98 82.1262 1163.39 Q79.0707 1158.79 79.0707 1150.06 Q79.0707 1141.31 82.1262 1136.73 Q85.2049 1132.12 91.0151 1132.12 Z" fill="#000000" fill-rule="nonzero" fill-opacity="1" /><path clip-path="url(#clip310)" d="M121.177 1135.82 Q117.566 1135.82 115.737 1139.39 Q113.932 1142.93 113.932 1150.06 Q113.932 1157.17 115.737 1160.73 Q117.566 1164.27 121.177 1164.27 Q124.811 1164.27 126.617 1160.73 Q128.445 1157.17 128.445 1150.06 Q128.445 1142.93 126.617 1139.39 Q124.811 1135.82 121.177 1135.82 M121.177 1132.12 Q126.987 1132.12 130.043 1136.73 Q133.121 1141.31 133.121 1150.06 Q133.121 1158.79 130.043 1163.39 Q126.987 1167.98 121.177 1167.98 Q115.367 1167.98 112.288 1163.39 Q109.233 1158.79 109.233 1150.06 Q109.233 1141.31 112.288 1136.73 Q115.367 1132.12 121.177 1132.12 Z" fill="#000000" fill-rule="nonzero" fill-opacity="1" /><path clip-path="url(#clip310)" d="M51.6634 995.158 L59.3023 995.158 L59.3023 968.793 L50.9921 970.459 L50.9921 966.2 L59.256 964.533 L63.9319 964.533 L63.9319 995.158 L71.5707 995.158 L71.5707 999.093 L51.6634 999.093 L51.6634 995.158 Z" fill="#000000" fill-rule="nonzero" fill-opacity="1" /><path clip-path="url(#clip310)" d="M81.0614 964.533 L99.4178 964.533 L99.4178 968.468 L85.3438 968.468 L85.3438 976.941 Q86.3623 976.593 87.3808 976.431 Q88.3993 976.246 89.4178 976.246 Q95.2049 976.246 98.5845 979.417 Q101.964 982.589 101.964 988.005 Q101.964 993.584 98.4919 996.686 Q95.0197 999.765 88.7003 999.765 Q86.5243 999.765 84.2558 999.394 Q82.0105 999.024 79.6031 998.283 L79.6031 993.584 Q81.6864 994.718 83.9086 995.274 Q86.1308 995.829 88.6077 995.829 Q92.6123 995.829 94.9502 993.723 Q97.2882 991.616 97.2882 988.005 Q97.2882 984.394 94.9502 982.288 Q92.6123 980.181 88.6077 980.181 Q86.7327 980.181 84.8577 980.598 Q83.0058 981.015 81.0614 981.894 L81.0614 964.533 Z" fill="#000000" fill-rule="nonzero" fill-opacity="1" /><path clip-path="url(#clip310)" d="M121.177 967.612 Q117.566 967.612 115.737 971.177 Q113.932 974.718 113.932 981.848 Q113.932 988.954 115.737 992.519 Q117.566 996.061 121.177 996.061 Q124.811 996.061 126.617 992.519 Q128.445 988.954 128.445 981.848 Q128.445 974.718 126.617 971.177 Q124.811 967.612 121.177 967.612 M121.177 963.908 Q126.987 963.908 130.043 968.515 Q133.121 973.098 133.121 981.848 Q133.121 990.575 130.043 995.181 Q126.987 999.765 121.177 999.765 Q115.367 999.765 112.288 995.181 Q109.233 990.575 109.233 981.848 Q109.233 973.098 112.288 968.515 Q115.367 963.908 121.177 963.908 Z" fill="#000000" fill-rule="nonzero" fill-opacity="1" /><path clip-path="url(#clip313)" d="M289.225 1483.08 L289.225 1486.45 L410.689 1486.45 L410.689 1483.08 L289.225 1483.08 L289.225 1483.08  Z" fill="#009af9" fill-rule="evenodd" fill-opacity="1"/>
<polyline clip-path="url(#clip313)" style="stroke:#000000; stroke-linecap:round; stroke-linejoin:round; stroke-width:4; stroke-opacity:1; fill:none" points="289.225,1483.08 289.225,1486.45 410.689,1486.45 410.689,1483.08 289.225,1483.08 "/>
<path clip-path="url(#clip313)" d="M410.689 1452.81 L410.689 1486.45 L532.153 1486.45 L532.153 1452.81 L410.689 1452.81 L410.689 1452.81  Z" fill="#009af9" fill-rule="evenodd" fill-opacity="1"/>
<polyline clip-path="url(#clip313)" style="stroke:#000000; stroke-linecap:round; stroke-linejoin:round; stroke-width:4; stroke-opacity:1; fill:none" points="410.689,1452.81 410.689,1486.45 532.153,1486.45 532.153,1452.81 410.689,1452.81 "/>
<path clip-path="url(#clip313)" d="M532.153 1415.8 L532.153 1486.45 L653.618 1486.45 L653.618 1415.8 L532.153 1415.8 L532.153 1415.8  Z" fill="#009af9" fill-rule="evenodd" fill-opacity="1"/>
<polyline clip-path="url(#clip313)" style="stroke:#000000; stroke-linecap:round; stroke-linejoin:round; stroke-width:4; stroke-opacity:1; fill:none" points="532.153,1415.8 532.153,1486.45 653.618,1486.45 653.618,1415.8 532.153,1415.8 "/>
<path clip-path="url(#clip313)" d="M653.618 1328.33 L653.618 1486.45 L775.082 1486.45 L775.082 1328.33 L653.618 1328.33 L653.618 1328.33  Z" fill="#009af9" fill-rule="evenodd" fill-opacity="1"/>
<polyline clip-path="url(#clip313)" style="stroke:#000000; stroke-linecap:round; stroke-linejoin:round; stroke-width:4; stroke-opacity:1; fill:none" points="653.618,1328.33 653.618,1486.45 775.082,1486.45 775.082,1328.33 653.618,1328.33 "/>
<path clip-path="url(#clip313)" d="M775.082 1166.85 L775.082 1486.45 L896.546 1486.45 L896.546 1166.85 L775.082 1166.85 L775.082 1166.85  Z" fill="#009af9" fill-rule="evenodd" fill-opacity="1"/>
<polyline clip-path="url(#clip313)" style="stroke:#000000; stroke-linecap:round; stroke-linejoin:round; stroke-width:4; stroke-opacity:1; fill:none" points="775.082,1166.85 775.082,1486.45 896.546,1486.45 896.546,1166.85 775.082,1166.85 "/>
<path clip-path="url(#clip313)" d="M896.546 1005.36 L896.546 1486.45 L1018.01 1486.45 L1018.01 1005.36 L896.546 1005.36 L896.546 1005.36  Z" fill="#009af9" fill-rule="evenodd" fill-opacity="1"/>
<polyline clip-path="url(#clip313)" style="stroke:#000000; stroke-linecap:round; stroke-linejoin:round; stroke-width:4; stroke-opacity:1; fill:none" points="896.546,1005.36 896.546,1486.45 1018.01,1486.45 1018.01,1005.36 896.546,1005.36 "/>
<path clip-path="url(#clip313)" d="M1018.01 877.522 L1018.01 1486.45 L1139.47 1486.45 L1139.47 877.522 L1018.01 877.522 L1018.01 877.522  Z" fill="#009af9" fill-rule="evenodd" fill-opacity="1"/>
<polyline clip-path="url(#clip313)" style="stroke:#000000; stroke-linecap:round; stroke-linejoin:round; stroke-width:4; stroke-opacity:1; fill:none" points="1018.01,877.522 1018.01,1486.45 1139.47,1486.45 1139.47,877.522 1018.01,877.522 "/>
<path clip-path="url(#clip313)" d="M1139.47 847.244 L1139.47 1486.45 L1260.94 1486.45 L1260.94 847.244 L1139.47 847.244 L1139.47 847.244  Z" fill="#009af9" fill-rule="evenodd" fill-opacity="1"/>
<polyline clip-path="url(#clip313)" style="stroke:#000000; stroke-linecap:round; stroke-linejoin:round; stroke-width:4; stroke-opacity:1; fill:none" points="1139.47,847.244 1139.47,1486.45 1260.94,1486.45 1260.94,847.244 1139.47,847.244 "/>
<path clip-path="url(#clip313)" d="M1260.94 961.628 L1260.94 1486.45 L1382.4 1486.45 L1382.4 961.628 L1260.94 961.628 L1260.94 961.628  Z" fill="#009af9" fill-rule="evenodd" fill-opacity="1"/>
<polyline clip-path="url(#clip313)" style="stroke:#000000; stroke-linecap:round; stroke-linejoin:round; stroke-width:4; stroke-opacity:1; fill:none" points="1260.94,961.628 1260.94,1486.45 1382.4,1486.45 1382.4,961.628 1260.94,961.628 "/>
<path clip-path="url(#clip313)" d="M1382.4 1200.49 L1382.4 1486.45 L1503.87 1486.45 L1503.87 1200.49 L1382.4 1200.49 L1382.4 1200.49  Z" fill="#009af9" fill-rule="evenodd" fill-opacity="1"/>
<polyline clip-path="url(#clip313)" style="stroke:#000000; stroke-linecap:round; stroke-linejoin:round; stroke-width:4; stroke-opacity:1; fill:none" points="1382.4,1200.49 1382.4,1486.45 1503.87,1486.45 1503.87,1200.49 1382.4,1200.49 "/>
<path clip-path="url(#clip313)" d="M1503.87 1338.42 L1503.87 1486.45 L1625.33 1486.45 L1625.33 1338.42 L1503.87 1338.42 L1503.87 1338.42  Z" fill="#009af9" fill-rule="evenodd" fill-opacity="1"/>
<polyline clip-path="url(#clip313)" style="stroke:#000000; stroke-linecap:round; stroke-linejoin:round; stroke-width:4; stroke-opacity:1; fill:none" points="1503.87,1338.42 1503.87,1486.45 1625.33,1486.45 1625.33,1338.42 1503.87,1338.42 "/>
<path clip-path="url(#clip313)" d="M1625.33 1425.89 L1625.33 1486.45 L1746.8 1486.45 L1746.8 1425.89 L1625.33 1425.89 L1625.33 1425.89  Z" fill="#009af9" fill-rule="evenodd" fill-opacity="1"/>
<polyline clip-path="url(#clip313)" style="stroke:#000000; stroke-linecap:round; stroke-linejoin:round; stroke-width:4; stroke-opacity:1; fill:none" points="1625.33,1425.89 1625.33,1486.45 1746.8,1486.45 1746.8,1425.89 1625.33,1425.89 "/>
<path clip-path="url(#clip313)" d="M1746.8 1462.9 L1746.8 1486.45 L1868.26 1486.45 L1868.26 1462.9 L1746.8 1462.9 L1746.8 1462.9  Z" fill="#009af9" fill-rule="evenodd" fill-opacity="1"/>
<polyline clip-path="url(#clip313)" style="stroke:#000000; stroke-linecap:round; stroke-linejoin:round; stroke-width:4; stroke-opacity:1; fill:none" points="1746.8,1462.9 1746.8,1486.45 1868.26,1486.45 1868.26,1462.9 1746.8,1462.9 "/>
<path clip-path="url(#clip313)" d="M1868.26 1483.08 L1868.26 1486.45 L1989.72 1486.45 L1989.72 1483.08 L1868.26 1483.08 L1868.26 1483.08  Z" fill="#009af9" fill-rule="evenodd" fill-opacity="1"/>
<polyline clip-path="url(#clip313)" style="stroke:#000000; stroke-linecap:round; stroke-linejoin:round; stroke-width:4; stroke-opacity:1; fill:none" points="1868.26,1483.08 1868.26,1486.45 1989.72,1486.45 1989.72,1483.08 1868.26,1483.08 "/>
<path clip-path="url(#clip313)" d="M1989.72 1486.45 L1989.72 1486.45 L2111.19 1486.45 L2111.19 1486.45 L1989.72 1486.45 L1989.72 1486.45  Z" fill="#009af9" fill-rule="evenodd" fill-opacity="1"/>
<polyline clip-path="url(#clip313)" style="stroke:#000000; stroke-linecap:round; stroke-linejoin:round; stroke-width:4; stroke-opacity:1; fill:none" points="1989.72,1486.45 1989.72,1486.45 2111.19,1486.45 1989.72,1486.45 "/>
<path clip-path="url(#clip313)" d="M2111.19 1483.08 L2111.19 1486.45 L2232.65 1486.45 L2232.65 1483.08 L2111.19 1483.08 L2111.19 1483.08  Z" fill="#009af9" fill-rule="evenodd" fill-opacity="1"/>
<polyline clip-path="url(#clip313)" style="stroke:#000000; stroke-linecap:round; stroke-linejoin:round; stroke-width:4; stroke-opacity:1; fill:none" points="2111.19,1483.08 2111.19,1486.45 2232.65,1486.45 2232.65,1483.08 2111.19,1483.08 "/>
<circle clip-path="url(#clip313)" style="fill:#009af9; stroke:none; fill-opacity:0" cx="349.957" cy="1483.08" r="2"/>
<circle clip-path="url(#clip313)" style="fill:#009af9; stroke:none; fill-opacity:0" cx="471.421" cy="1452.81" r="2"/>
<circle clip-path="url(#clip313)" style="fill:#009af9; stroke:none; fill-opacity:0" cx="592.886" cy="1415.8" r="2"/>
<circle clip-path="url(#clip313)" style="fill:#009af9; stroke:none; fill-opacity:0" cx="714.35" cy="1328.33" r="2"/>
<circle clip-path="url(#clip313)" style="fill:#009af9; stroke:none; fill-opacity:0" cx="835.814" cy="1166.85" r="2"/>
<circle clip-path="url(#clip313)" style="fill:#009af9; stroke:none; fill-opacity:0" cx="957.278" cy="1005.36" r="2"/>
<circle clip-path="url(#clip313)" style="fill:#009af9; stroke:none; fill-opacity:0" cx="1078.74" cy="877.522" r="2"/>
<circle clip-path="url(#clip313)" style="fill:#009af9; stroke:none; fill-opacity:0" cx="1200.21" cy="847.244" r="2"/>
<circle clip-path="url(#clip313)" style="fill:#009af9; stroke:none; fill-opacity:0" cx="1321.67" cy="961.628" r="2"/>
<circle clip-path="url(#clip313)" style="fill:#009af9; stroke:none; fill-opacity:0" cx="1443.13" cy="1200.49" r="2"/>
<circle clip-path="url(#clip313)" style="fill:#009af9; stroke:none; fill-opacity:0" cx="1564.6" cy="1338.42" r="2"/>
<circle clip-path="url(#clip313)" style="fill:#009af9; stroke:none; fill-opacity:0" cx="1686.06" cy="1425.89" r="2"/>
<circle clip-path="url(#clip313)" style="fill:#009af9; stroke:none; fill-opacity:0" cx="1807.53" cy="1462.9" r="2"/>
<circle clip-path="url(#clip313)" style="fill:#009af9; stroke:none; fill-opacity:0" cx="1928.99" cy="1483.08" r="2"/>
<circle clip-path="url(#clip313)" style="fill:#009af9; stroke:none; fill-opacity:0" cx="2050.46" cy="1486.45" r="2"/>
<circle clip-path="url(#clip313)" style="fill:#009af9; stroke:none; fill-opacity:0" cx="2171.92" cy="1483.08" r="2"/>
<path clip-path="url(#clip310)" d="M2019.85 972.231 L2279.97 972.231 L2279.97 868.551 L2019.85 868.551  Z" fill="#ffffff" fill-rule="evenodd" fill-opacity="1"/>
<polyline clip-path="url(#clip310)" style="stroke:#000000; stroke-linecap:round; stroke-linejoin:round; stroke-width:4; stroke-opacity:1; fill:none" points="2019.85,972.231 2279.97,972.231 2279.97,868.551 2019.85,868.551 2019.85,972.231 "/>
<path clip-path="url(#clip310)" d="M2044.11 941.127 L2189.68 941.127 L2189.68 899.655 L2044.11 899.655 L2044.11 941.127  Z" fill="#009af9" fill-rule="evenodd" fill-opacity="1"/>
<polyline clip-path="url(#clip310)" style="stroke:#000000; stroke-linecap:round; stroke-linejoin:round; stroke-width:4; stroke-opacity:1; fill:none" points="2044.11,941.127 2189.68,941.127 2189.68,899.655 2044.11,899.655 2044.11,941.127 "/>
<path clip-path="url(#clip310)" d="M2235.66 922.023 L2235.66 937.671 L2231.4 937.671 L2231.4 922.162 Q2231.4 918.481 2229.96 916.652 Q2228.53 914.824 2225.66 914.824 Q2222.21 914.824 2220.22 917.023 Q2218.23 919.222 2218.23 923.018 L2218.23 937.671 L2213.95 937.671 L2213.95 911.745 L2218.23 911.745 L2218.23 915.773 Q2219.76 913.435 2221.82 912.278 Q2223.9 911.12 2226.61 911.12 Q2231.08 911.12 2233.37 913.898 Q2235.66 916.652 2235.66 922.023 Z" fill="#000000" fill-rule="nonzero" fill-opacity="1" /><path clip-path="url(#clip310)" d="M2245.89 935.032 L2255.71 935.032 L2255.71 937.671 L2241.86 937.671 L2241.86 935.125 Q2242.65 934.407 2244.11 933.111 Q2252.07 926.051 2252.07 923.875 Q2252.07 922.347 2250.87 921.421 Q2249.66 920.472 2247.7 920.472 Q2246.49 920.472 2245.08 920.889 Q2243.67 921.282 2242 922.092 L2242 919.245 Q2243.78 918.597 2245.31 918.273 Q2246.86 917.949 2248.18 917.949 Q2251.54 917.949 2253.55 919.477 Q2255.57 921.004 2255.57 923.504 Q2255.57 926.722 2247.9 933.296 Q2246.61 934.407 2245.89 935.032 Z" fill="#000000" fill-rule="nonzero" fill-opacity="1" /></svg>
