<?xml version="1.0" encoding="utf-8"?>
<svg xmlns="http://www.w3.org/2000/svg" xmlns:xlink="http://www.w3.org/1999/xlink" width="600" height="400" viewBox="0 0 2400 1600">
<defs>
  <clipPath id="clip450">
    <rect x="0" y="0" width="2400" height="1600"/>
  </clipPath>
</defs>
<path clip-path="url(#clip450)" d="
M0 1600 L2400 1600 L2400 0 L0 0  Z
  " fill="#ffffff" fill-rule="evenodd" fill-opacity="1"/>
<defs>
  <clipPath id="clip451">
    <rect x="480" y="0" width="1681" height="1600"/>
  </clipPath>
</defs>
<path clip-path="url(#clip450)" d="
M169.121 1423.18 L2352.76 1423.18 L2352.76 47.2441 L169.121 47.2441  Z
  " fill="#ffffff" fill-rule="evenodd" fill-opacity="1"/>
<defs>
  <clipPath id="clip452">
    <rect x="169" y="47" width="2185" height="1377"/>
  </clipPath>
</defs>
<polyline clip-path="url(#clip452)" style="stroke:#000000; stroke-linecap:round; stroke-linejoin:round; stroke-width:2; stroke-opacity:0.1; fill:none" points="
  474.313,1423.18 474.313,47.2441 
  "/>
<polyline clip-path="url(#clip452)" style="stroke:#000000; stroke-linecap:round; stroke-linejoin:round; stroke-width:2; stroke-opacity:0.1; fill:none" points="
  937.034,1423.18 937.034,47.2441 
  "/>
<polyline clip-path="url(#clip452)" style="stroke:#000000; stroke-linecap:round; stroke-linejoin:round; stroke-width:2; stroke-opacity:0.1; fill:none" points="
  1399.75,1423.18 1399.75,47.2441 
  "/>
<polyline clip-path="url(#clip452)" style="stroke:#000000; stroke-linecap:round; stroke-linejoin:round; stroke-width:2; stroke-opacity:0.1; fill:none" points="
  1862.48,1423.18 1862.48,47.2441 
  "/>
<polyline clip-path="url(#clip452)" style="stroke:#000000; stroke-linecap:round; stroke-linejoin:round; stroke-width:2; stroke-opacity:0.1; fill:none" points="
  2325.2,1423.18 2325.2,47.2441 
  "/>
<polyline clip-path="url(#clip450)" style="stroke:#000000; stroke-linecap:round; stroke-linejoin:round; stroke-width:4; stroke-opacity:1; fill:none" points="
  169.121,1423.18 2352.76,1423.18 
  "/>
<polyline clip-path="url(#clip450)" style="stroke:#000000; stroke-linecap:round; stroke-linejoin:round; stroke-width:4; stroke-opacity:1; fill:none" points="
  474.313,1423.18 474.313,1404.28 
  "/>
<polyline clip-path="url(#clip450)" style="stroke:#000000; stroke-linecap:round; stroke-linejoin:round; stroke-width:4; stroke-opacity:1; fill:none" points="
  937.034,1423.18 937.034,1404.28 
  "/>
<polyline clip-path="url(#clip450)" style="stroke:#000000; stroke-linecap:round; stroke-linejoin:round; stroke-width:4; stroke-opacity:1; fill:none" points="
  1399.75,1423.18 1399.75,1404.28 
  "/>
<polyline clip-path="url(#clip450)" style="stroke:#000000; stroke-linecap:round; stroke-linejoin:round; stroke-width:4; stroke-opacity:1; fill:none" points="
  1862.48,1423.18 1862.48,1404.28 
  "/>
<polyline clip-path="url(#clip450)" style="stroke:#000000; stroke-linecap:round; stroke-linejoin:round; stroke-width:4; stroke-opacity:1; fill:none" points="
  2325.2,1423.18 2325.2,1404.28 
  "/>
<path clip-path="url(#clip450)" d="M437.115 1454.1 Q433.503 1454.1 431.675 1457.66 Q429.869 1461.2 429.869 1468.33 Q429.869 1475.44 431.675 1479.01 Q433.503 1482.55 437.115 1482.55 Q440.749 1482.55 442.554 1479.01 Q444.383 1475.44 444.383 1468.33 Q444.383 1461.2 442.554 1457.66 Q440.749 1454.1 437.115 1454.1 M437.115 1450.39 Q442.925 1450.39 445.98 1455 Q449.059 1459.58 449.059 1468.33 Q449.059 1477.06 445.98 1481.67 Q442.925 1486.25 437.115 1486.25 Q431.304 1486.25 428.226 1481.67 Q425.17 1477.06 425.17 1468.33 Q425.17 1459.58 428.226 1455 Q431.304 1450.39 437.115 1450.39 Z" fill="#000000" fill-rule="evenodd" fill-opacity="1" /><path clip-path="url(#clip450)" d="M457.276 1479.7 L462.161 1479.7 L462.161 1485.58 L457.276 1485.58 L457.276 1479.7 Z" fill="#000000" fill-rule="evenodd" fill-opacity="1" /><path clip-path="url(#clip450)" d="M471.165 1451.02 L493.387 1451.02 L493.387 1453.01 L480.841 1485.58 L475.957 1485.58 L487.762 1454.96 L471.165 1454.96 L471.165 1451.02 Z" fill="#000000" fill-rule="evenodd" fill-opacity="1" /><path clip-path="url(#clip450)" d="M502.554 1451.02 L520.91 1451.02 L520.91 1454.96 L506.836 1454.96 L506.836 1463.43 Q507.855 1463.08 508.873 1462.92 Q509.892 1462.73 510.91 1462.73 Q516.697 1462.73 520.077 1465.9 Q523.457 1469.08 523.457 1474.49 Q523.457 1480.07 519.984 1483.17 Q516.512 1486.25 510.193 1486.25 Q508.017 1486.25 505.748 1485.88 Q503.503 1485.51 501.096 1484.77 L501.096 1480.07 Q503.179 1481.2 505.401 1481.76 Q507.623 1482.32 510.1 1482.32 Q514.105 1482.32 516.443 1480.21 Q518.781 1478.1 518.781 1474.49 Q518.781 1470.88 516.443 1468.77 Q514.105 1466.67 510.1 1466.67 Q508.225 1466.67 506.35 1467.08 Q504.498 1467.5 502.554 1468.38 L502.554 1451.02 Z" fill="#000000" fill-rule="evenodd" fill-opacity="1" /><path clip-path="url(#clip450)" d="M899.338 1454.1 Q895.726 1454.1 893.898 1457.66 Q892.092 1461.2 892.092 1468.33 Q892.092 1475.44 893.898 1479.01 Q895.726 1482.55 899.338 1482.55 Q902.972 1482.55 904.777 1479.01 Q906.606 1475.44 906.606 1468.33 Q906.606 1461.2 904.777 1457.66 Q902.972 1454.1 899.338 1454.1 M899.338 1450.39 Q905.148 1450.39 908.203 1455 Q911.282 1459.58 911.282 1468.33 Q911.282 1477.06 908.203 1481.67 Q905.148 1486.25 899.338 1486.25 Q893.527 1486.25 890.449 1481.67 Q887.393 1477.06 887.393 1468.33 Q887.393 1459.58 890.449 1455 Q893.527 1450.39 899.338 1450.39 Z" fill="#000000" fill-rule="evenodd" fill-opacity="1" /><path clip-path="url(#clip450)" d="M919.499 1479.7 L924.384 1479.7 L924.384 1485.58 L919.499 1485.58 L919.499 1479.7 Z" fill="#000000" fill-rule="evenodd" fill-opacity="1" /><path clip-path="url(#clip450)" d="M944.569 1469.17 Q941.235 1469.17 939.314 1470.95 Q937.416 1472.73 937.416 1475.86 Q937.416 1478.98 939.314 1480.77 Q941.235 1482.55 944.569 1482.55 Q947.902 1482.55 949.823 1480.77 Q951.745 1478.96 951.745 1475.86 Q951.745 1472.73 949.823 1470.95 Q947.925 1469.17 944.569 1469.17 M939.893 1467.18 Q936.884 1466.44 935.194 1464.38 Q933.527 1462.32 933.527 1459.35 Q933.527 1455.21 936.467 1452.8 Q939.43 1450.39 944.569 1450.39 Q949.731 1450.39 952.671 1452.8 Q955.61 1455.21 955.61 1459.35 Q955.61 1462.32 953.921 1464.38 Q952.254 1466.44 949.268 1467.18 Q952.647 1467.96 954.522 1470.26 Q956.421 1472.55 956.421 1475.86 Q956.421 1480.88 953.342 1483.57 Q950.286 1486.25 944.569 1486.25 Q938.851 1486.25 935.773 1483.57 Q932.717 1480.88 932.717 1475.86 Q932.717 1472.55 934.615 1470.26 Q936.513 1467.96 939.893 1467.18 M938.18 1459.79 Q938.18 1462.48 939.847 1463.98 Q941.536 1465.49 944.569 1465.49 Q947.578 1465.49 949.268 1463.98 Q950.981 1462.48 950.981 1459.79 Q950.981 1457.11 949.268 1455.6 Q947.578 1454.1 944.569 1454.1 Q941.536 1454.1 939.847 1455.6 Q938.18 1457.11 938.18 1459.79 Z" fill="#000000" fill-rule="evenodd" fill-opacity="1" /><path clip-path="url(#clip450)" d="M974.731 1454.1 Q971.12 1454.1 969.291 1457.66 Q967.485 1461.2 967.485 1468.33 Q967.485 1475.44 969.291 1479.01 Q971.12 1482.55 974.731 1482.55 Q978.365 1482.55 980.17 1479.01 Q981.999 1475.44 981.999 1468.33 Q981.999 1461.2 980.17 1457.66 Q978.365 1454.1 974.731 1454.1 M974.731 1450.39 Q980.541 1450.39 983.596 1455 Q986.675 1459.58 986.675 1468.33 Q986.675 1477.06 983.596 1481.67 Q980.541 1486.25 974.731 1486.25 Q968.921 1486.25 965.842 1481.67 Q962.786 1477.06 962.786 1468.33 Q962.786 1459.58 965.842 1455 Q968.921 1450.39 974.731 1450.39 Z" fill="#000000" fill-rule="evenodd" fill-opacity="1" /><path clip-path="url(#clip450)" d="M1362.56 1454.1 Q1358.94 1454.1 1357.12 1457.66 Q1355.31 1461.2 1355.31 1468.33 Q1355.31 1475.44 1357.12 1479.01 Q1358.94 1482.55 1362.56 1482.55 Q1366.19 1482.55 1368 1479.01 Q1369.82 1475.44 1369.82 1468.33 Q1369.82 1461.2 1368 1457.66 Q1366.19 1454.1 1362.56 1454.1 M1362.56 1450.39 Q1368.37 1450.39 1371.42 1455 Q1374.5 1459.58 1374.5 1468.33 Q1374.5 1477.06 1371.42 1481.67 Q1368.37 1486.25 1362.56 1486.25 Q1356.75 1486.25 1353.67 1481.67 Q1350.61 1477.06 1350.61 1468.33 Q1350.61 1459.58 1353.67 1455 Q1356.75 1450.39 1362.56 1450.39 Z" fill="#000000" fill-rule="evenodd" fill-opacity="1" /><path clip-path="url(#clip450)" d="M1382.72 1479.7 L1387.6 1479.7 L1387.6 1485.58 L1382.72 1485.58 L1382.72 1479.7 Z" fill="#000000" fill-rule="evenodd" fill-opacity="1" /><path clip-path="url(#clip450)" d="M1407.79 1469.17 Q1404.45 1469.17 1402.53 1470.95 Q1400.63 1472.73 1400.63 1475.86 Q1400.63 1478.98 1402.53 1480.77 Q1404.45 1482.55 1407.79 1482.55 Q1411.12 1482.55 1413.04 1480.77 Q1414.96 1478.96 1414.96 1475.86 Q1414.96 1472.73 1413.04 1470.95 Q1411.14 1469.17 1407.79 1469.17 M1403.11 1467.18 Q1400.1 1466.44 1398.41 1464.38 Q1396.75 1462.32 1396.75 1459.35 Q1396.75 1455.21 1399.69 1452.8 Q1402.65 1450.39 1407.79 1450.39 Q1412.95 1450.39 1415.89 1452.8 Q1418.83 1455.21 1418.83 1459.35 Q1418.83 1462.32 1417.14 1464.38 Q1415.47 1466.44 1412.49 1467.18 Q1415.87 1467.96 1417.74 1470.26 Q1419.64 1472.55 1419.64 1475.86 Q1419.64 1480.88 1416.56 1483.57 Q1413.5 1486.25 1407.79 1486.25 Q1402.07 1486.25 1398.99 1483.57 Q1395.94 1480.88 1395.94 1475.86 Q1395.94 1472.55 1397.83 1470.26 Q1399.73 1467.96 1403.11 1467.18 M1401.4 1459.79 Q1401.4 1462.48 1403.06 1463.98 Q1404.75 1465.49 1407.79 1465.49 Q1410.8 1465.49 1412.49 1463.98 Q1414.2 1462.48 1414.2 1459.79 Q1414.2 1457.11 1412.49 1455.6 Q1410.8 1454.1 1407.79 1454.1 Q1404.75 1454.1 1403.06 1455.6 Q1401.4 1457.11 1401.4 1459.79 Z" fill="#000000" fill-rule="evenodd" fill-opacity="1" /><path clip-path="url(#clip450)" d="M1428 1451.02 L1446.35 1451.02 L1446.35 1454.96 L1432.28 1454.96 L1432.28 1463.43 Q1433.3 1463.08 1434.31 1462.92 Q1435.33 1462.73 1436.35 1462.73 Q1442.14 1462.73 1445.52 1465.9 Q1448.9 1469.08 1448.9 1474.49 Q1448.9 1480.07 1445.43 1483.17 Q1441.95 1486.25 1435.63 1486.25 Q1433.46 1486.25 1431.19 1485.88 Q1428.94 1485.51 1426.54 1484.77 L1426.54 1480.07 Q1428.62 1481.2 1430.84 1481.76 Q1433.06 1482.32 1435.54 1482.32 Q1439.55 1482.32 1441.88 1480.21 Q1444.22 1478.1 1444.22 1474.49 Q1444.22 1470.88 1441.88 1468.77 Q1439.55 1466.67 1435.54 1466.67 Q1433.67 1466.67 1431.79 1467.08 Q1429.94 1467.5 1428 1468.38 L1428 1451.02 Z" fill="#000000" fill-rule="evenodd" fill-opacity="1" /><path clip-path="url(#clip450)" d="M1824.78 1454.1 Q1821.17 1454.1 1819.34 1457.66 Q1817.53 1461.2 1817.53 1468.33 Q1817.53 1475.44 1819.34 1479.01 Q1821.17 1482.55 1824.78 1482.55 Q1828.41 1482.55 1830.22 1479.01 Q1832.05 1475.44 1832.05 1468.33 Q1832.05 1461.2 1830.22 1457.66 Q1828.41 1454.1 1824.78 1454.1 M1824.78 1450.39 Q1830.59 1450.39 1833.64 1455 Q1836.72 1459.58 1836.72 1468.33 Q1836.72 1477.06 1833.64 1481.67 Q1830.59 1486.25 1824.78 1486.25 Q1818.97 1486.25 1815.89 1481.67 Q1812.83 1477.06 1812.83 1468.33 Q1812.83 1459.58 1815.89 1455 Q1818.97 1450.39 1824.78 1450.39 Z" fill="#000000" fill-rule="evenodd" fill-opacity="1" /><path clip-path="url(#clip450)" d="M1844.94 1479.7 L1849.83 1479.7 L1849.83 1485.58 L1844.94 1485.58 L1844.94 1479.7 Z" fill="#000000" fill-rule="evenodd" fill-opacity="1" /><path clip-path="url(#clip450)" d="M1860.15 1484.86 L1860.15 1480.6 Q1861.91 1481.44 1863.71 1481.88 Q1865.52 1482.32 1867.26 1482.32 Q1871.89 1482.32 1874.32 1479.21 Q1876.77 1476.09 1877.12 1469.75 Q1875.77 1471.74 1873.71 1472.8 Q1871.65 1473.87 1869.15 1473.87 Q1863.97 1473.87 1860.94 1470.74 Q1857.93 1467.59 1857.93 1462.15 Q1857.93 1456.83 1861.08 1453.61 Q1864.22 1450.39 1869.45 1450.39 Q1875.45 1450.39 1878.6 1455 Q1881.77 1459.58 1881.77 1468.33 Q1881.77 1476.51 1877.88 1481.39 Q1874.01 1486.25 1867.46 1486.25 Q1865.7 1486.25 1863.9 1485.9 Q1862.09 1485.56 1860.15 1484.86 M1869.45 1470.21 Q1872.6 1470.21 1874.43 1468.06 Q1876.28 1465.9 1876.28 1462.15 Q1876.28 1458.43 1874.43 1456.27 Q1872.6 1454.1 1869.45 1454.1 Q1866.31 1454.1 1864.45 1456.27 Q1862.63 1458.43 1862.63 1462.15 Q1862.63 1465.9 1864.45 1468.06 Q1866.31 1470.21 1869.45 1470.21 Z" fill="#000000" fill-rule="evenodd" fill-opacity="1" /><path clip-path="url(#clip450)" d="M1900.17 1454.1 Q1896.56 1454.1 1894.73 1457.66 Q1892.93 1461.2 1892.93 1468.33 Q1892.93 1475.44 1894.73 1479.01 Q1896.56 1482.55 1900.17 1482.55 Q1903.81 1482.55 1905.61 1479.01 Q1907.44 1475.44 1907.44 1468.33 Q1907.44 1461.2 1905.61 1457.66 Q1903.81 1454.1 1900.17 1454.1 M1900.17 1450.39 Q1905.98 1450.39 1909.04 1455 Q1912.12 1459.58 1912.12 1468.33 Q1912.12 1477.06 1909.04 1481.67 Q1905.98 1486.25 1900.17 1486.25 Q1894.36 1486.25 1891.28 1481.67 Q1888.23 1477.06 1888.23 1468.33 Q1888.23 1459.58 1891.28 1455 Q1894.36 1450.39 1900.17 1450.39 Z" fill="#000000" fill-rule="evenodd" fill-opacity="1" /><path clip-path="url(#clip450)" d="M2288 1454.1 Q2284.39 1454.1 2282.56 1457.66 Q2280.75 1461.2 2280.75 1468.33 Q2280.75 1475.44 2282.56 1479.01 Q2284.39 1482.55 2288 1482.55 Q2291.63 1482.55 2293.44 1479.01 Q2295.27 1475.44 2295.27 1468.33 Q2295.27 1461.2 2293.44 1457.66 Q2291.63 1454.1 2288 1454.1 M2288 1450.39 Q2293.81 1450.39 2296.86 1455 Q2299.94 1459.58 2299.94 1468.33 Q2299.94 1477.06 2296.86 1481.67 Q2293.81 1486.25 2288 1486.25 Q2282.19 1486.25 2279.11 1481.67 Q2276.05 1477.06 2276.05 1468.33 Q2276.05 1459.58 2279.11 1455 Q2282.19 1450.39 2288 1450.39 Z" fill="#000000" fill-rule="evenodd" fill-opacity="1" /><path clip-path="url(#clip450)" d="M2308.16 1479.7 L2313.04 1479.7 L2313.04 1485.58 L2308.16 1485.58 L2308.16 1479.7 Z" fill="#000000" fill-rule="evenodd" fill-opacity="1" /><path clip-path="url(#clip450)" d="M2323.37 1484.86 L2323.37 1480.6 Q2325.13 1481.44 2326.93 1481.88 Q2328.74 1482.32 2330.47 1482.32 Q2335.1 1482.32 2337.53 1479.21 Q2339.99 1476.09 2340.34 1469.75 Q2338.99 1471.74 2336.93 1472.8 Q2334.87 1473.87 2332.37 1473.87 Q2327.19 1473.87 2324.15 1470.74 Q2321.15 1467.59 2321.15 1462.15 Q2321.15 1456.83 2324.29 1453.61 Q2327.44 1450.39 2332.67 1450.39 Q2338.67 1450.39 2341.82 1455 Q2344.99 1459.58 2344.99 1468.33 Q2344.99 1476.51 2341.1 1481.39 Q2337.23 1486.25 2330.68 1486.25 Q2328.92 1486.25 2327.12 1485.9 Q2325.31 1485.56 2323.37 1484.86 M2332.67 1470.21 Q2335.82 1470.21 2337.65 1468.06 Q2339.5 1465.9 2339.5 1462.15 Q2339.5 1458.43 2337.65 1456.27 Q2335.82 1454.1 2332.67 1454.1 Q2329.52 1454.1 2327.67 1456.27 Q2325.84 1458.43 2325.84 1462.15 Q2325.84 1465.9 2327.67 1468.06 Q2329.52 1470.21 2332.67 1470.21 Z" fill="#000000" fill-rule="evenodd" fill-opacity="1" /><path clip-path="url(#clip450)" d="M2353.44 1451.02 L2371.79 1451.02 L2371.79 1454.96 L2357.72 1454.96 L2357.72 1463.43 Q2358.74 1463.08 2359.76 1462.92 Q2360.77 1462.73 2361.79 1462.73 Q2367.58 1462.73 2370.96 1465.9 Q2374.34 1469.08 2374.34 1474.49 Q2374.34 1480.07 2370.87 1483.17 Q2367.4 1486.25 2361.08 1486.25 Q2358.9 1486.25 2356.63 1485.88 Q2354.39 1485.51 2351.98 1484.77 L2351.98 1480.07 Q2354.06 1481.2 2356.28 1481.76 Q2358.51 1482.32 2360.98 1482.32 Q2364.99 1482.32 2367.33 1480.21 Q2369.66 1478.1 2369.66 1474.49 Q2369.66 1470.88 2367.33 1468.77 Q2364.99 1466.67 2360.98 1466.67 Q2359.11 1466.67 2357.23 1467.08 Q2355.38 1467.5 2353.44 1468.38 L2353.44 1451.02 Z" fill="#000000" fill-rule="evenodd" fill-opacity="1" /><path clip-path="url(#clip450)" d="M1038.28 1518.52 L1044.17 1518.52 L1044.17 1547.77 L1061.64 1532.4 L1069.12 1532.4 L1050.22 1549.07 L1069.92 1568.04 L1062.28 1568.04 L1044.17 1550.63 L1044.17 1568.04 L1038.28 1568.04 L1038.28 1518.52 Z" fill="#000000" fill-rule="evenodd" fill-opacity="1" /><path clip-path="url(#clip450)" d="M1099.71 1549.81 Q1099.71 1543.44 1097.07 1539.94 Q1094.46 1536.44 1089.72 1536.44 Q1085.01 1536.44 1082.36 1539.94 Q1079.75 1543.44 1079.75 1549.81 Q1079.75 1556.14 1082.36 1559.64 Q1085.01 1563.14 1089.72 1563.14 Q1094.46 1563.14 1097.07 1559.64 Q1099.71 1556.14 1099.71 1549.81 M1105.57 1563.62 Q1105.57 1572.72 1101.53 1577.15 Q1097.48 1581.6 1089.14 1581.6 Q1086.06 1581.6 1083.32 1581.13 Q1080.58 1580.68 1078 1579.72 L1078 1574.03 Q1080.58 1575.43 1083.1 1576.1 Q1085.61 1576.76 1088.22 1576.76 Q1093.98 1576.76 1096.85 1573.74 Q1099.71 1570.75 1099.71 1564.67 L1099.71 1561.77 Q1097.9 1564.92 1095.06 1566.48 Q1092.23 1568.04 1088.28 1568.04 Q1081.73 1568.04 1077.72 1563.05 Q1073.71 1558.05 1073.71 1549.81 Q1073.71 1541.53 1077.72 1536.53 Q1081.73 1531.54 1088.28 1531.54 Q1092.23 1531.54 1095.06 1533.1 Q1097.9 1534.66 1099.71 1537.81 L1099.71 1532.4 L1105.57 1532.4 L1105.57 1563.62 Z" fill="#000000" fill-rule="evenodd" fill-opacity="1" /><path clip-path="url(#clip450)" d="M1166.11 1539.24 Q1168.3 1535.29 1171.36 1533.41 Q1174.41 1531.54 1178.55 1531.54 Q1184.12 1531.54 1187.14 1535.45 Q1190.17 1539.33 1190.17 1546.53 L1190.17 1568.04 L1184.28 1568.04 L1184.28 1546.72 Q1184.28 1541.59 1182.47 1539.11 Q1180.65 1536.63 1176.93 1536.63 Q1172.38 1536.63 1169.73 1539.65 Q1167.09 1542.68 1167.09 1547.9 L1167.09 1568.04 L1161.2 1568.04 L1161.2 1546.72 Q1161.2 1541.56 1159.39 1539.11 Q1157.58 1536.63 1153.79 1536.63 Q1149.3 1536.63 1146.66 1539.68 Q1144.02 1542.71 1144.02 1547.9 L1144.02 1568.04 L1138.13 1568.04 L1138.13 1532.4 L1144.02 1532.4 L1144.02 1537.93 Q1146.02 1534.66 1148.82 1533.1 Q1151.62 1531.54 1155.47 1531.54 Q1159.36 1531.54 1162.06 1533.51 Q1164.8 1535.48 1166.11 1539.24 Z" fill="#000000" fill-rule="evenodd" fill-opacity="1" /><path clip-path="url(#clip450)" d="M1226.13 1520.52 L1243.42 1538.25 L1237.02 1538.25 L1223.01 1525.68 L1209.01 1538.25 L1202.61 1538.25 L1219.9 1520.52 L1226.13 1520.52 Z" fill="#000000" fill-rule="evenodd" fill-opacity="1" /><path clip-path="url(#clip450)" d="M1253.51 1547.58 L1270.66 1547.58 L1270.66 1552.8 L1253.51 1552.8 L1253.51 1547.58 Z" fill="#000000" fill-rule="evenodd" fill-opacity="1" /><path clip-path="url(#clip450)" d="M1281.93 1562.63 L1292.43 1562.63 L1292.43 1526.38 L1281.01 1528.67 L1281.01 1522.82 L1292.37 1520.52 L1298.8 1520.52 L1298.8 1562.63 L1309.3 1562.63 L1309.3 1568.04 L1281.93 1568.04 L1281.93 1562.63 Z" fill="#000000" fill-rule="evenodd" fill-opacity="1" /><path clip-path="url(#clip450)" d="M1364.91 1533.45 L1364.91 1538.98 Q1362.42 1537.71 1359.75 1537.07 Q1357.08 1536.44 1354.21 1536.44 Q1349.85 1536.44 1347.66 1537.77 Q1345.49 1539.11 1345.49 1541.79 Q1345.49 1543.82 1347.05 1545 Q1348.61 1546.15 1353.32 1547.2 L1355.33 1547.64 Q1361.56 1548.98 1364.17 1551.43 Q1366.82 1553.85 1366.82 1558.21 Q1366.82 1563.17 1362.87 1566.07 Q1358.95 1568.97 1352.08 1568.97 Q1349.22 1568.97 1346.1 1568.39 Q1343.01 1567.85 1339.57 1566.74 L1339.57 1560.69 Q1342.82 1562.38 1345.97 1563.24 Q1349.12 1564.07 1352.21 1564.07 Q1356.34 1564.07 1358.57 1562.66 Q1360.8 1561.23 1360.8 1558.65 Q1360.8 1556.27 1359.18 1554.99 Q1357.59 1553.72 1352.14 1552.54 L1350.11 1552.07 Q1344.66 1550.92 1342.24 1548.56 Q1339.83 1546.18 1339.83 1542.04 Q1339.83 1537.01 1343.39 1534.27 Q1346.96 1531.54 1353.51 1531.54 Q1356.76 1531.54 1359.62 1532.01 Q1362.49 1532.49 1364.91 1533.45 Z" fill="#000000" fill-rule="evenodd" fill-opacity="1" /><path clip-path="url(#clip450)" d="M1400.43 1520.52 L1417.71 1538.25 L1411.31 1538.25 L1397.31 1525.68 L1383.3 1538.25 L1376.91 1538.25 L1394.19 1520.52 L1400.43 1520.52 Z" fill="#000000" fill-rule="evenodd" fill-opacity="1" /><path clip-path="url(#clip450)" d="M1427.8 1547.58 L1444.96 1547.58 L1444.96 1552.8 L1427.8 1552.8 L1427.8 1547.58 Z" fill="#000000" fill-rule="evenodd" fill-opacity="1" /><path clip-path="url(#clip450)" d="M1456.22 1562.63 L1466.73 1562.63 L1466.73 1526.38 L1455.3 1528.67 L1455.3 1522.82 L1466.66 1520.52 L1473.09 1520.52 L1473.09 1562.63 L1483.6 1562.63 L1483.6 1568.04 L1456.22 1568.04 L1456.22 1562.63 Z" fill="#000000" fill-rule="evenodd" fill-opacity="1" /><polyline clip-path="url(#clip452)" style="stroke:#000000; stroke-linecap:round; stroke-linejoin:round; stroke-width:2; stroke-opacity:0.1; fill:none" points="
  169.121,1384.24 2352.76,1384.24 
  "/>
<polyline clip-path="url(#clip452)" style="stroke:#000000; stroke-linecap:round; stroke-linejoin:round; stroke-width:2; stroke-opacity:0.1; fill:none" points="
  169.121,1176.55 2352.76,1176.55 
  "/>
<polyline clip-path="url(#clip452)" style="stroke:#000000; stroke-linecap:round; stroke-linejoin:round; stroke-width:2; stroke-opacity:0.1; fill:none" points="
  169.121,968.861 2352.76,968.861 
  "/>
<polyline clip-path="url(#clip452)" style="stroke:#000000; stroke-linecap:round; stroke-linejoin:round; stroke-width:2; stroke-opacity:0.1; fill:none" points="
  169.121,761.173 2352.76,761.173 
  "/>
<polyline clip-path="url(#clip452)" style="stroke:#000000; stroke-linecap:round; stroke-linejoin:round; stroke-width:2; stroke-opacity:0.1; fill:none" points="
  169.121,553.485 2352.76,553.485 
  "/>
<polyline clip-path="url(#clip452)" style="stroke:#000000; stroke-linecap:round; stroke-linejoin:round; stroke-width:2; stroke-opacity:0.1; fill:none" points="
  169.121,345.796 2352.76,345.796 
  "/>
<polyline clip-path="url(#clip452)" style="stroke:#000000; stroke-linecap:round; stroke-linejoin:round; stroke-width:2; stroke-opacity:0.1; fill:none" points="
  169.121,138.108 2352.76,138.108 
  "/>
<polyline clip-path="url(#clip450)" style="stroke:#000000; stroke-linecap:round; stroke-linejoin:round; stroke-width:4; stroke-opacity:1; fill:none" points="
  169.121,1423.18 169.121,47.2441 
  "/>
<polyline clip-path="url(#clip450)" style="stroke:#000000; stroke-linecap:round; stroke-linejoin:round; stroke-width:4; stroke-opacity:1; fill:none" points="
  169.121,1384.24 188.019,1384.24 
  "/>
<polyline clip-path="url(#clip450)" style="stroke:#000000; stroke-linecap:round; stroke-linejoin:round; stroke-width:4; stroke-opacity:1; fill:none" points="
  169.121,1176.55 188.019,1176.55 
  "/>
<polyline clip-path="url(#clip450)" style="stroke:#000000; stroke-linecap:round; stroke-linejoin:round; stroke-width:4; stroke-opacity:1; fill:none" points="
  169.121,968.861 188.019,968.861 
  "/>
<polyline clip-path="url(#clip450)" style="stroke:#000000; stroke-linecap:round; stroke-linejoin:round; stroke-width:4; stroke-opacity:1; fill:none" points="
  169.121,761.173 188.019,761.173 
  "/>
<polyline clip-path="url(#clip450)" style="stroke:#000000; stroke-linecap:round; stroke-linejoin:round; stroke-width:4; stroke-opacity:1; fill:none" points="
  169.121,553.485 188.019,553.485 
  "/>
<polyline clip-path="url(#clip450)" style="stroke:#000000; stroke-linecap:round; stroke-linejoin:round; stroke-width:4; stroke-opacity:1; fill:none" points="
  169.121,345.796 188.019,345.796 
  "/>
<polyline clip-path="url(#clip450)" style="stroke:#000000; stroke-linecap:round; stroke-linejoin:round; stroke-width:4; stroke-opacity:1; fill:none" points="
  169.121,138.108 188.019,138.108 
  "/>
<path clip-path="url(#clip450)" d="M121.177 1370.04 Q117.566 1370.04 115.737 1373.6 Q113.932 1377.14 113.932 1384.27 Q113.932 1391.38 115.737 1394.94 Q117.566 1398.49 121.177 1398.49 Q124.811 1398.49 126.617 1394.94 Q128.445 1391.38 128.445 1384.27 Q128.445 1377.14 126.617 1373.6 Q124.811 1370.04 121.177 1370.04 M121.177 1366.33 Q126.987 1366.33 130.043 1370.94 Q133.121 1375.52 133.121 1384.27 Q133.121 1393 130.043 1397.61 Q126.987 1402.19 121.177 1402.19 Q115.367 1402.19 112.288 1397.61 Q109.233 1393 109.233 1384.27 Q109.233 1375.52 112.288 1370.94 Q115.367 1366.33 121.177 1366.33 Z" fill="#000000" fill-rule="evenodd" fill-opacity="1" /><path clip-path="url(#clip450)" d="M85.0429 1189.89 L101.362 1189.89 L101.362 1193.83 L79.4179 1193.83 L79.4179 1189.89 Q82.0799 1187.14 86.6632 1182.51 Q91.2697 1177.86 92.4502 1176.52 Q94.6956 1173.99 95.5752 1172.26 Q96.478 1170.5 96.478 1168.81 Q96.478 1166.05 94.5336 1164.32 Q92.6123 1162.58 89.5104 1162.58 Q87.3114 1162.58 84.8577 1163.34 Q82.4271 1164.11 79.6494 1165.66 L79.6494 1160.94 Q82.4734 1159.8 84.9271 1159.22 Q87.3808 1158.64 89.4178 1158.64 Q94.7882 1158.64 97.9826 1161.33 Q101.177 1164.02 101.177 1168.51 Q101.177 1170.64 100.367 1172.56 Q99.5798 1174.45 97.4734 1177.05 Q96.8947 1177.72 93.7928 1180.94 Q90.691 1184.13 85.0429 1189.89 Z" fill="#000000" fill-rule="evenodd" fill-opacity="1" /><path clip-path="url(#clip450)" d="M121.177 1162.35 Q117.566 1162.35 115.737 1165.91 Q113.932 1169.45 113.932 1176.58 Q113.932 1183.69 115.737 1187.26 Q117.566 1190.8 121.177 1190.8 Q124.811 1190.8 126.617 1187.26 Q128.445 1183.69 128.445 1176.58 Q128.445 1169.45 126.617 1165.91 Q124.811 1162.35 121.177 1162.35 M121.177 1158.64 Q126.987 1158.64 130.043 1163.25 Q133.121 1167.83 133.121 1176.58 Q133.121 1185.31 130.043 1189.92 Q126.987 1194.5 121.177 1194.5 Q115.367 1194.5 112.288 1189.92 Q109.233 1185.31 109.233 1176.58 Q109.233 1167.83 112.288 1163.25 Q115.367 1158.64 121.177 1158.64 Z" fill="#000000" fill-rule="evenodd" fill-opacity="1" /><path clip-path="url(#clip450)" d="M93.8623 955.655 L82.0568 974.104 L93.8623 974.104 L93.8623 955.655 M92.6354 951.581 L98.515 951.581 L98.515 974.104 L103.446 974.104 L103.446 977.993 L98.515 977.993 L98.515 986.141 L93.8623 986.141 L93.8623 977.993 L78.2605 977.993 L78.2605 973.479 L92.6354 951.581 Z" fill="#000000" fill-rule="evenodd" fill-opacity="1" /><path clip-path="url(#clip450)" d="M121.177 954.66 Q117.566 954.66 115.737 958.225 Q113.932 961.767 113.932 968.896 Q113.932 976.003 115.737 979.567 Q117.566 983.109 121.177 983.109 Q124.811 983.109 126.617 979.567 Q128.445 976.003 128.445 968.896 Q128.445 961.767 126.617 958.225 Q124.811 954.66 121.177 954.66 M121.177 950.956 Q126.987 950.956 130.043 955.563 Q133.121 960.146 133.121 968.896 Q133.121 977.623 130.043 982.229 Q126.987 986.813 121.177 986.813 Q115.367 986.813 112.288 982.229 Q109.233 977.623 109.233 968.896 Q109.233 960.146 112.288 955.563 Q115.367 950.956 121.177 950.956 Z" fill="#000000" fill-rule="evenodd" fill-opacity="1" /><path clip-path="url(#clip450)" d="M91.5938 759.31 Q88.4456 759.31 86.5938 761.462 Q84.7651 763.615 84.7651 767.365 Q84.7651 771.092 86.5938 773.268 Q88.4456 775.421 91.5938 775.421 Q94.7419 775.421 96.5706 773.268 Q98.4224 771.092 98.4224 767.365 Q98.4224 763.615 96.5706 761.462 Q94.7419 759.31 91.5938 759.31 M100.876 744.657 L100.876 748.916 Q99.1169 748.083 97.3113 747.643 Q95.5289 747.203 93.7697 747.203 Q89.1401 747.203 86.6864 750.328 Q84.2558 753.453 83.9086 759.773 Q85.2743 757.759 87.3345 756.694 Q89.3947 755.606 91.8715 755.606 Q97.0798 755.606 100.089 758.777 Q103.121 761.925 103.121 767.365 Q103.121 772.689 99.9733 775.907 Q96.8252 779.124 91.5938 779.124 Q85.5984 779.124 82.4271 774.541 Q79.2559 769.935 79.2559 761.208 Q79.2559 753.013 83.1447 748.152 Q87.0336 743.268 93.5845 743.268 Q95.3437 743.268 97.1261 743.615 Q98.9317 743.962 100.876 744.657 Z" fill="#000000" fill-rule="evenodd" fill-opacity="1" /><path clip-path="url(#clip450)" d="M121.177 746.972 Q117.566 746.972 115.737 750.537 Q113.932 754.078 113.932 761.208 Q113.932 768.314 115.737 771.879 Q117.566 775.421 121.177 775.421 Q124.811 775.421 126.617 771.879 Q128.445 768.314 128.445 761.208 Q128.445 754.078 126.617 750.537 Q124.811 746.972 121.177 746.972 M121.177 743.268 Q126.987 743.268 130.043 747.874 Q133.121 752.458 133.121 761.208 Q133.121 769.935 130.043 774.541 Q126.987 779.124 121.177 779.124 Q115.367 779.124 112.288 774.541 Q109.233 769.935 109.233 761.208 Q109.233 752.458 112.288 747.874 Q115.367 743.268 121.177 743.268 Z" fill="#000000" fill-rule="evenodd" fill-opacity="1" /><path clip-path="url(#clip450)" d="M91.0151 554.353 Q87.6817 554.353 85.7605 556.135 Q83.8623 557.917 83.8623 561.042 Q83.8623 564.167 85.7605 565.95 Q87.6817 567.732 91.0151 567.732 Q94.3484 567.732 96.2697 565.95 Q98.1909 564.144 98.1909 561.042 Q98.1909 557.917 96.2697 556.135 Q94.3715 554.353 91.0151 554.353 M86.3392 552.362 Q83.3299 551.621 81.6401 549.561 Q79.9735 547.501 79.9735 544.538 Q79.9735 540.394 82.9133 537.987 Q85.8762 535.58 91.0151 535.58 Q96.1771 535.58 99.1169 537.987 Q102.057 540.394 102.057 544.538 Q102.057 547.501 100.367 549.561 Q98.7002 551.621 95.7141 552.362 Q99.0937 553.149 100.969 555.441 Q102.867 557.732 102.867 561.042 Q102.867 566.066 99.7882 568.751 Q96.7326 571.436 91.0151 571.436 Q85.2975 571.436 82.2188 568.751 Q79.1633 566.066 79.1633 561.042 Q79.1633 557.732 81.0614 555.441 Q82.9595 553.149 86.3392 552.362 M84.6262 544.978 Q84.6262 547.663 86.2929 549.167 Q87.9827 550.672 91.0151 550.672 Q94.0243 550.672 95.7141 549.167 Q97.4271 547.663 97.4271 544.978 Q97.4271 542.293 95.7141 540.788 Q94.0243 539.283 91.0151 539.283 Q87.9827 539.283 86.2929 540.788 Q84.6262 542.293 84.6262 544.978 Z" fill="#000000" fill-rule="evenodd" fill-opacity="1" /><path clip-path="url(#clip450)" d="M121.177 539.283 Q117.566 539.283 115.737 542.848 Q113.932 546.39 113.932 553.519 Q113.932 560.626 115.737 564.191 Q117.566 567.732 121.177 567.732 Q124.811 567.732 126.617 564.191 Q128.445 560.626 128.445 553.519 Q128.445 546.39 126.617 542.848 Q124.811 539.283 121.177 539.283 M121.177 535.58 Q126.987 535.58 130.043 540.186 Q133.121 544.769 133.121 553.519 Q133.121 562.246 130.043 566.853 Q126.987 571.436 121.177 571.436 Q115.367 571.436 112.288 566.853 Q109.233 562.246 109.233 553.519 Q109.233 544.769 112.288 540.186 Q115.367 535.58 121.177 535.58 Z" fill="#000000" fill-rule="evenodd" fill-opacity="1" /><path clip-path="url(#clip450)" d="M51.6634 359.141 L59.3023 359.141 L59.3023 332.775 L50.9921 334.442 L50.9921 330.183 L59.256 328.516 L63.9319 328.516 L63.9319 359.141 L71.5707 359.141 L71.5707 363.076 L51.6634 363.076 L51.6634 359.141 Z" fill="#000000" fill-rule="evenodd" fill-opacity="1" /><path clip-path="url(#clip450)" d="M91.0151 331.595 Q87.404 331.595 85.5753 335.16 Q83.7697 338.701 83.7697 345.831 Q83.7697 352.937 85.5753 356.502 Q87.404 360.044 91.0151 360.044 Q94.6493 360.044 96.4548 356.502 Q98.2835 352.937 98.2835 345.831 Q98.2835 338.701 96.4548 335.16 Q94.6493 331.595 91.0151 331.595 M91.0151 327.891 Q96.8252 327.891 99.8808 332.498 Q102.959 337.081 102.959 345.831 Q102.959 354.558 99.8808 359.164 Q96.8252 363.747 91.0151 363.747 Q85.2049 363.747 82.1262 359.164 Q79.0707 354.558 79.0707 345.831 Q79.0707 337.081 82.1262 332.498 Q85.2049 327.891 91.0151 327.891 Z" fill="#000000" fill-rule="evenodd" fill-opacity="1" /><path clip-path="url(#clip450)" d="M121.177 331.595 Q117.566 331.595 115.737 335.16 Q113.932 338.701 113.932 345.831 Q113.932 352.937 115.737 356.502 Q117.566 360.044 121.177 360.044 Q124.811 360.044 126.617 356.502 Q128.445 352.937 128.445 345.831 Q128.445 338.701 126.617 335.16 Q124.811 331.595 121.177 331.595 M121.177 327.891 Q126.987 327.891 130.043 332.498 Q133.121 337.081 133.121 345.831 Q133.121 354.558 130.043 359.164 Q126.987 363.747 121.177 363.747 Q115.367 363.747 112.288 359.164 Q109.233 354.558 109.233 345.831 Q109.233 337.081 112.288 332.498 Q115.367 327.891 121.177 327.891 Z" fill="#000000" fill-rule="evenodd" fill-opacity="1" /><path clip-path="url(#clip450)" d="M51.6634 151.453 L59.3023 151.453 L59.3023 125.087 L50.9921 126.754 L50.9921 122.494 L59.256 120.828 L63.9319 120.828 L63.9319 151.453 L71.5707 151.453 L71.5707 155.388 L51.6634 155.388 L51.6634 151.453 Z" fill="#000000" fill-rule="evenodd" fill-opacity="1" /><path clip-path="url(#clip450)" d="M85.0429 151.453 L101.362 151.453 L101.362 155.388 L79.4179 155.388 L79.4179 151.453 Q82.0799 148.698 86.6632 144.068 Q91.2697 139.416 92.4502 138.073 Q94.6956 135.55 95.5752 133.814 Q96.478 132.055 96.478 130.365 Q96.478 127.61 94.5336 125.874 Q92.6123 124.138 89.5104 124.138 Q87.3114 124.138 84.8577 124.902 Q82.4271 125.666 79.6494 127.217 L79.6494 122.494 Q82.4734 121.36 84.9271 120.781 Q87.3808 120.203 89.4178 120.203 Q94.7882 120.203 97.9826 122.888 Q101.177 125.573 101.177 130.064 Q101.177 132.193 100.367 134.115 Q99.5798 136.013 97.4734 138.605 Q96.8947 139.277 93.7928 142.494 Q90.691 145.689 85.0429 151.453 Z" fill="#000000" fill-rule="evenodd" fill-opacity="1" /><path clip-path="url(#clip450)" d="M121.177 123.906 Q117.566 123.906 115.737 127.471 Q113.932 131.013 113.932 138.142 Q113.932 145.249 115.737 148.814 Q117.566 152.355 121.177 152.355 Q124.811 152.355 126.617 148.814 Q128.445 145.249 128.445 138.142 Q128.445 131.013 126.617 127.471 Q124.811 123.906 121.177 123.906 M121.177 120.203 Q126.987 120.203 130.043 124.809 Q133.121 129.393 133.121 138.142 Q133.121 146.869 130.043 151.476 Q126.987 156.059 121.177 156.059 Q115.367 156.059 112.288 151.476 Q109.233 146.869 109.233 138.142 Q109.233 129.393 112.288 124.809 Q115.367 120.203 121.177 120.203 Z" fill="#000000" fill-rule="evenodd" fill-opacity="1" /><path clip-path="url(#clip452)" d="
M289.225 1353.09 L289.225 1384.24 L381.769 1384.24 L381.769 1353.09 L289.225 1353.09 L289.225 1353.09  Z
  " fill="#009af9" fill-rule="evenodd" fill-opacity="1"/>
<polyline clip-path="url(#clip452)" style="stroke:#000000; stroke-linecap:round; stroke-linejoin:round; stroke-width:4; stroke-opacity:1; fill:none" points="
  289.225,1353.09 289.225,1384.24 381.769,1384.24 381.769,1353.09 289.225,1353.09 
  "/>
<path clip-path="url(#clip452)" d="
M381.769 1280.39 L381.769 1384.24 L474.313 1384.24 L474.313 1280.39 L381.769 1280.39 L381.769 1280.39  Z
  " fill="#009af9" fill-rule="evenodd" fill-opacity="1"/>
<polyline clip-path="url(#clip452)" style="stroke:#000000; stroke-linecap:round; stroke-linejoin:round; stroke-width:4; stroke-opacity:1; fill:none" points="
  381.769,1280.39 381.769,1384.24 474.313,1384.24 474.313,1280.39 381.769,1280.39 
  "/>
<path clip-path="url(#clip452)" d="
M474.313 1270.01 L474.313 1384.24 L566.858 1384.24 L566.858 1270.01 L474.313 1270.01 L474.313 1270.01  Z
  " fill="#009af9" fill-rule="evenodd" fill-opacity="1"/>
<polyline clip-path="url(#clip452)" style="stroke:#000000; stroke-linecap:round; stroke-linejoin:round; stroke-width:4; stroke-opacity:1; fill:none" points="
  474.313,1270.01 474.313,1384.24 566.858,1384.24 566.858,1270.01 474.313,1270.01 
  "/>
<path clip-path="url(#clip452)" d="
M566.858 1176.55 L566.858 1384.24 L659.402 1384.24 L659.402 1176.55 L566.858 1176.55 L566.858 1176.55  Z
  " fill="#009af9" fill-rule="evenodd" fill-opacity="1"/>
<polyline clip-path="url(#clip452)" style="stroke:#000000; stroke-linecap:round; stroke-linejoin:round; stroke-width:4; stroke-opacity:1; fill:none" points="
  566.858,1176.55 566.858,1384.24 659.402,1384.24 659.402,1176.55 566.858,1176.55 
  "/>
<path clip-path="url(#clip452)" d="
M659.402 1124.63 L659.402 1384.24 L751.946 1384.24 L751.946 1124.63 L659.402 1124.63 L659.402 1124.63  Z
  " fill="#009af9" fill-rule="evenodd" fill-opacity="1"/>
<polyline clip-path="url(#clip452)" style="stroke:#000000; stroke-linecap:round; stroke-linejoin:round; stroke-width:4; stroke-opacity:1; fill:none" points="
  659.402,1124.63 659.402,1384.24 751.946,1384.24 751.946,1124.63 659.402,1124.63 
  "/>
<path clip-path="url(#clip452)" d="
M751.946 937.708 L751.946 1384.24 L844.49 1384.24 L844.49 937.708 L751.946 937.708 L751.946 937.708  Z
  " fill="#009af9" fill-rule="evenodd" fill-opacity="1"/>
<polyline clip-path="url(#clip452)" style="stroke:#000000; stroke-linecap:round; stroke-linejoin:round; stroke-width:4; stroke-opacity:1; fill:none" points="
  751.946,937.708 751.946,1384.24 844.49,1384.24 844.49,937.708 751.946,937.708 
  "/>
<path clip-path="url(#clip452)" d="
M844.49 595.022 L844.49 1384.24 L937.034 1384.24 L937.034 595.022 L844.49 595.022 L844.49 595.022  Z
  " fill="#009af9" fill-rule="evenodd" fill-opacity="1"/>
<polyline clip-path="url(#clip452)" style="stroke:#000000; stroke-linecap:round; stroke-linejoin:round; stroke-width:4; stroke-opacity:1; fill:none" points="
  844.49,595.022 844.49,1384.24 937.034,1384.24 937.034,595.022 844.49,595.022 
  "/>
<path clip-path="url(#clip452)" d="
M937.034 439.256 L937.034 1384.24 L1029.58 1384.24 L1029.58 439.256 L937.034 439.256 L937.034 439.256  Z
  " fill="#009af9" fill-rule="evenodd" fill-opacity="1"/>
<polyline clip-path="url(#clip452)" style="stroke:#000000; stroke-linecap:round; stroke-linejoin:round; stroke-width:4; stroke-opacity:1; fill:none" points="
  937.034,439.256 937.034,1384.24 1029.58,1384.24 1029.58,439.256 937.034,439.256 
  "/>
<path clip-path="url(#clip452)" d="
M1029.58 262.721 L1029.58 1384.24 L1122.12 1384.24 L1122.12 262.721 L1029.58 262.721 L1029.58 262.721  Z
  " fill="#009af9" fill-rule="evenodd" fill-opacity="1"/>
<polyline clip-path="url(#clip452)" style="stroke:#000000; stroke-linecap:round; stroke-linejoin:round; stroke-width:4; stroke-opacity:1; fill:none" points="
  1029.58,262.721 1029.58,1384.24 1122.12,1384.24 1122.12,262.721 1029.58,262.721 
  "/>
<path clip-path="url(#clip452)" d="
M1122.12 179.645 L1122.12 1384.24 L1214.67 1384.24 L1214.67 179.645 L1122.12 179.645 L1122.12 179.645  Z
  " fill="#009af9" fill-rule="evenodd" fill-opacity="1"/>
<polyline clip-path="url(#clip452)" style="stroke:#000000; stroke-linecap:round; stroke-linejoin:round; stroke-width:4; stroke-opacity:1; fill:none" points="
  1122.12,179.645 1122.12,1384.24 1214.67,1384.24 1214.67,179.645 1122.12,179.645 
  "/>
<path clip-path="url(#clip452)" d="
M1214.67 86.1857 L1214.67 1384.24 L1307.21 1384.24 L1307.21 86.1857 L1214.67 86.1857 L1214.67 86.1857  Z
  " fill="#009af9" fill-rule="evenodd" fill-opacity="1"/>
<polyline clip-path="url(#clip452)" style="stroke:#000000; stroke-linecap:round; stroke-linejoin:round; stroke-width:4; stroke-opacity:1; fill:none" points="
  1214.67,86.1857 1214.67,1384.24 1307.21,1384.24 1307.21,86.1857 1214.67,86.1857 
  "/>
<path clip-path="url(#clip452)" d="
M1307.21 138.108 L1307.21 1384.24 L1399.75 1384.24 L1399.75 138.108 L1307.21 138.108 L1307.21 138.108  Z
  " fill="#009af9" fill-rule="evenodd" fill-opacity="1"/>
<polyline clip-path="url(#clip452)" style="stroke:#000000; stroke-linecap:round; stroke-linejoin:round; stroke-width:4; stroke-opacity:1; fill:none" points="
  1307.21,138.108 1307.21,1384.24 1399.75,1384.24 1399.75,138.108 1307.21,138.108 
  "/>
<path clip-path="url(#clip452)" d="
M1399.75 626.176 L1399.75 1384.24 L1492.3 1384.24 L1492.3 626.176 L1399.75 626.176 L1399.75 626.176  Z
  " fill="#009af9" fill-rule="evenodd" fill-opacity="1"/>
<polyline clip-path="url(#clip452)" style="stroke:#000000; stroke-linecap:round; stroke-linejoin:round; stroke-width:4; stroke-opacity:1; fill:none" points="
  1399.75,626.176 1399.75,1384.24 1492.3,1384.24 1492.3,626.176 1399.75,626.176 
  "/>
<path clip-path="url(#clip452)" d="
M1492.3 688.482 L1492.3 1384.24 L1584.84 1384.24 L1584.84 688.482 L1492.3 688.482 L1492.3 688.482  Z
  " fill="#009af9" fill-rule="evenodd" fill-opacity="1"/>
<polyline clip-path="url(#clip452)" style="stroke:#000000; stroke-linecap:round; stroke-linejoin:round; stroke-width:4; stroke-opacity:1; fill:none" points="
  1492.3,688.482 1492.3,1384.24 1584.84,1384.24 1584.84,688.482 1492.3,688.482 
  "/>
<path clip-path="url(#clip452)" d="
M1584.84 948.093 L1584.84 1384.24 L1677.39 1384.24 L1677.39 948.093 L1584.84 948.093 L1584.84 948.093  Z
  " fill="#009af9" fill-rule="evenodd" fill-opacity="1"/>
<polyline clip-path="url(#clip452)" style="stroke:#000000; stroke-linecap:round; stroke-linejoin:round; stroke-width:4; stroke-opacity:1; fill:none" points="
  1584.84,948.093 1584.84,1384.24 1677.39,1384.24 1677.39,948.093 1584.84,948.093 
  "/>
<path clip-path="url(#clip452)" d="
M1677.39 1020.78 L1677.39 1384.24 L1769.93 1384.24 L1769.93 1020.78 L1677.39 1020.78 L1677.39 1020.78  Z
  " fill="#009af9" fill-rule="evenodd" fill-opacity="1"/>
<polyline clip-path="url(#clip452)" style="stroke:#000000; stroke-linecap:round; stroke-linejoin:round; stroke-width:4; stroke-opacity:1; fill:none" points="
  1677.39,1020.78 1677.39,1384.24 1769.93,1384.24 1769.93,1020.78 1677.39,1020.78 
  "/>
<path clip-path="url(#clip452)" d="
M1769.93 1186.93 L1769.93 1384.24 L1862.48 1384.24 L1862.48 1186.93 L1769.93 1186.93 L1769.93 1186.93  Z
  " fill="#009af9" fill-rule="evenodd" fill-opacity="1"/>
<polyline clip-path="url(#clip452)" style="stroke:#000000; stroke-linecap:round; stroke-linejoin:round; stroke-width:4; stroke-opacity:1; fill:none" points="
  1769.93,1186.93 1769.93,1384.24 1862.48,1384.24 1862.48,1186.93 1769.93,1186.93 
  "/>
<path clip-path="url(#clip452)" d="
M1862.48 1311.55 L1862.48 1384.24 L1955.02 1384.24 L1955.02 1311.55 L1862.48 1311.55 L1862.48 1311.55  Z
  " fill="#009af9" fill-rule="evenodd" fill-opacity="1"/>
<polyline clip-path="url(#clip452)" style="stroke:#000000; stroke-linecap:round; stroke-linejoin:round; stroke-width:4; stroke-opacity:1; fill:none" points="
  1862.48,1311.55 1862.48,1384.24 1955.02,1384.24 1955.02,1311.55 1862.48,1311.55 
  "/>
<path clip-path="url(#clip452)" d="
M1955.02 1301.16 L1955.02 1384.24 L2047.56 1384.24 L2047.56 1301.16 L1955.02 1301.16 L1955.02 1301.16  Z
  " fill="#009af9" fill-rule="evenodd" fill-opacity="1"/>
<polyline clip-path="url(#clip452)" style="stroke:#000000; stroke-linecap:round; stroke-linejoin:round; stroke-width:4; stroke-opacity:1; fill:none" points="
  1955.02,1301.16 1955.02,1384.24 2047.56,1384.24 2047.56,1301.16 1955.02,1301.16 
  "/>
<path clip-path="url(#clip452)" d="
M2047.56 1384.24 L2047.56 1384.24 L2140.11 1384.24 L2140.11 1384.24 L2047.56 1384.24 L2047.56 1384.24  Z
  " fill="#009af9" fill-rule="evenodd" fill-opacity="1"/>
<polyline clip-path="url(#clip452)" style="stroke:#000000; stroke-linecap:round; stroke-linejoin:round; stroke-width:4; stroke-opacity:1; fill:none" points="
  2047.56,1384.24 2047.56,1384.24 2140.11,1384.24 2047.56,1384.24 
  "/>
<path clip-path="url(#clip452)" d="
M2140.11 1373.85 L2140.11 1384.24 L2232.65 1384.24 L2232.65 1373.85 L2140.11 1373.85 L2140.11 1373.85  Z
  " fill="#009af9" fill-rule="evenodd" fill-opacity="1"/>
<polyline clip-path="url(#clip452)" style="stroke:#000000; stroke-linecap:round; stroke-linejoin:round; stroke-width:4; stroke-opacity:1; fill:none" points="
  2140.11,1373.85 2140.11,1384.24 2232.65,1384.24 2232.65,1373.85 2140.11,1373.85 
  "/>
<circle clip-path="url(#clip452)" style="fill:#009af9; stroke:none; fill-opacity:0" cx="335.497" cy="1353.09" r="2"/>
<circle clip-path="url(#clip452)" style="fill:#009af9; stroke:none; fill-opacity:0" cx="428.041" cy="1280.39" r="2"/>
<circle clip-path="url(#clip452)" style="fill:#009af9; stroke:none; fill-opacity:0" cx="520.585" cy="1270.01" r="2"/>
<circle clip-path="url(#clip452)" style="fill:#009af9; stroke:none; fill-opacity:0" cx="613.13" cy="1176.55" r="2"/>
<circle clip-path="url(#clip452)" style="fill:#009af9; stroke:none; fill-opacity:0" cx="705.674" cy="1124.63" r="2"/>
<circle clip-path="url(#clip452)" style="fill:#009af9; stroke:none; fill-opacity:0" cx="798.218" cy="937.708" r="2"/>
<circle clip-path="url(#clip452)" style="fill:#009af9; stroke:none; fill-opacity:0" cx="890.762" cy="595.022" r="2"/>
<circle clip-path="url(#clip452)" style="fill:#009af9; stroke:none; fill-opacity:0" cx="983.306" cy="439.256" r="2"/>
<circle clip-path="url(#clip452)" style="fill:#009af9; stroke:none; fill-opacity:0" cx="1075.85" cy="262.721" r="2"/>
<circle clip-path="url(#clip452)" style="fill:#009af9; stroke:none; fill-opacity:0" cx="1168.39" cy="179.645" r="2"/>
<circle clip-path="url(#clip452)" style="fill:#009af9; stroke:none; fill-opacity:0" cx="1260.94" cy="86.1857" r="2"/>
<circle clip-path="url(#clip452)" style="fill:#009af9; stroke:none; fill-opacity:0" cx="1353.48" cy="138.108" r="2"/>
<circle clip-path="url(#clip452)" style="fill:#009af9; stroke:none; fill-opacity:0" cx="1446.03" cy="626.176" r="2"/>
<circle clip-path="url(#clip452)" style="fill:#009af9; stroke:none; fill-opacity:0" cx="1538.57" cy="688.482" r="2"/>
<circle clip-path="url(#clip452)" style="fill:#009af9; stroke:none; fill-opacity:0" cx="1631.12" cy="948.093" r="2"/>
<circle clip-path="url(#clip452)" style="fill:#009af9; stroke:none; fill-opacity:0" cx="1723.66" cy="1020.78" r="2"/>
<circle clip-path="url(#clip452)" style="fill:#009af9; stroke:none; fill-opacity:0" cx="1816.2" cy="1186.93" r="2"/>
<circle clip-path="url(#clip452)" style="fill:#009af9; stroke:none; fill-opacity:0" cx="1908.75" cy="1311.55" r="2"/>
<circle clip-path="url(#clip452)" style="fill:#009af9; stroke:none; fill-opacity:0" cx="2001.29" cy="1301.16" r="2"/>
<circle clip-path="url(#clip452)" style="fill:#009af9; stroke:none; fill-opacity:0" cx="2093.84" cy="1384.24" r="2"/>
<circle clip-path="url(#clip452)" style="fill:#009af9; stroke:none; fill-opacity:0" cx="2186.38" cy="1373.85" r="2"/>
<path clip-path="url(#clip452)" d="
M659.402 1363.47 L659.402 1384.24 L705.674 1384.24 L705.674 1363.47 L659.402 1363.47 L659.402 1363.47  Z
  " fill="#e26f46" fill-rule="evenodd" fill-opacity="1"/>
<polyline clip-path="url(#clip452)" style="stroke:#000000; stroke-linecap:round; stroke-linejoin:round; stroke-width:4; stroke-opacity:1; fill:none" points="
  659.402,1363.47 659.402,1384.24 705.674,1384.24 705.674,1363.47 659.402,1363.47 
  "/>
<path clip-path="url(#clip452)" d="
M705.674 1373.85 L705.674 1384.24 L751.946 1384.24 L751.946 1373.85 L705.674 1373.85 L705.674 1373.85  Z
  " fill="#e26f46" fill-rule="evenodd" fill-opacity="1"/>
<polyline clip-path="url(#clip452)" style="stroke:#000000; stroke-linecap:round; stroke-linejoin:round; stroke-width:4; stroke-opacity:1; fill:none" points="
  705.674,1373.85 705.674,1384.24 751.946,1384.24 751.946,1373.85 705.674,1373.85 
  "/>
<path clip-path="url(#clip452)" d="
M751.946 1321.93 L751.946 1384.24 L798.218 1384.24 L798.218 1321.93 L751.946 1321.93 L751.946 1321.93  Z
  " fill="#e26f46" fill-rule="evenodd" fill-opacity="1"/>
<polyline clip-path="url(#clip452)" style="stroke:#000000; stroke-linecap:round; stroke-linejoin:round; stroke-width:4; stroke-opacity:1; fill:none" points="
  751.946,1321.93 751.946,1384.24 798.218,1384.24 798.218,1321.93 751.946,1321.93 
  "/>
<path clip-path="url(#clip452)" d="
M798.218 1321.93 L798.218 1384.24 L844.49 1384.24 L844.49 1321.93 L798.218 1321.93 L798.218 1321.93  Z
  " fill="#e26f46" fill-rule="evenodd" fill-opacity="1"/>
<polyline clip-path="url(#clip452)" style="stroke:#000000; stroke-linecap:round; stroke-linejoin:round; stroke-width:4; stroke-opacity:1; fill:none" points="
  798.218,1321.93 798.218,1384.24 844.49,1384.24 844.49,1321.93 798.218,1321.93 
  "/>
<path clip-path="url(#clip452)" d="
M844.49 1259.63 L844.49 1384.24 L890.762 1384.24 L890.762 1259.63 L844.49 1259.63 L844.49 1259.63  Z
  " fill="#e26f46" fill-rule="evenodd" fill-opacity="1"/>
<polyline clip-path="url(#clip452)" style="stroke:#000000; stroke-linecap:round; stroke-linejoin:round; stroke-width:4; stroke-opacity:1; fill:none" points="
  844.49,1259.63 844.49,1384.24 890.762,1384.24 890.762,1259.63 844.49,1259.63 
  "/>
<path clip-path="url(#clip452)" d="
M890.762 1041.55 L890.762 1384.24 L937.034 1384.24 L937.034 1041.55 L890.762 1041.55 L890.762 1041.55  Z
  " fill="#e26f46" fill-rule="evenodd" fill-opacity="1"/>
<polyline clip-path="url(#clip452)" style="stroke:#000000; stroke-linecap:round; stroke-linejoin:round; stroke-width:4; stroke-opacity:1; fill:none" points="
  890.762,1041.55 890.762,1384.24 937.034,1384.24 937.034,1041.55 890.762,1041.55 
  "/>
<path clip-path="url(#clip452)" d="
M937.034 948.093 L937.034 1384.24 L983.306 1384.24 L983.306 948.093 L937.034 948.093 L937.034 948.093  Z
  " fill="#e26f46" fill-rule="evenodd" fill-opacity="1"/>
<polyline clip-path="url(#clip452)" style="stroke:#000000; stroke-linecap:round; stroke-linejoin:round; stroke-width:4; stroke-opacity:1; fill:none" points="
  937.034,948.093 937.034,1384.24 983.306,1384.24 983.306,948.093 937.034,948.093 
  "/>
<path clip-path="url(#clip452)" d="
M983.306 761.173 L983.306 1384.24 L1029.58 1384.24 L1029.58 761.173 L983.306 761.173 L983.306 761.173  Z
  " fill="#e26f46" fill-rule="evenodd" fill-opacity="1"/>
<polyline clip-path="url(#clip452)" style="stroke:#000000; stroke-linecap:round; stroke-linejoin:round; stroke-width:4; stroke-opacity:1; fill:none" points="
  983.306,761.173 983.306,1384.24 1029.58,1384.24 1029.58,761.173 983.306,761.173 
  "/>
<path clip-path="url(#clip452)" d="
M1029.58 698.866 L1029.58 1384.24 L1075.85 1384.24 L1075.85 698.866 L1029.58 698.866 L1029.58 698.866  Z
  " fill="#e26f46" fill-rule="evenodd" fill-opacity="1"/>
<polyline clip-path="url(#clip452)" style="stroke:#000000; stroke-linecap:round; stroke-linejoin:round; stroke-width:4; stroke-opacity:1; fill:none" points="
  1029.58,698.866 1029.58,1384.24 1075.85,1384.24 1075.85,698.866 1029.58,698.866 
  "/>
<path clip-path="url(#clip452)" d="
M1075.85 460.025 L1075.85 1384.24 L1122.12 1384.24 L1122.12 460.025 L1075.85 460.025 L1075.85 460.025  Z
  " fill="#e26f46" fill-rule="evenodd" fill-opacity="1"/>
<polyline clip-path="url(#clip452)" style="stroke:#000000; stroke-linecap:round; stroke-linejoin:round; stroke-width:4; stroke-opacity:1; fill:none" points="
  1075.85,460.025 1075.85,1384.24 1122.12,1384.24 1122.12,460.025 1075.85,460.025 
  "/>
<path clip-path="url(#clip452)" d="
M1122.12 387.334 L1122.12 1384.24 L1168.39 1384.24 L1168.39 387.334 L1122.12 387.334 L1122.12 387.334  Z
  " fill="#e26f46" fill-rule="evenodd" fill-opacity="1"/>
<polyline clip-path="url(#clip452)" style="stroke:#000000; stroke-linecap:round; stroke-linejoin:round; stroke-width:4; stroke-opacity:1; fill:none" points="
  1122.12,387.334 1122.12,1384.24 1168.39,1384.24 1168.39,387.334 1122.12,387.334 
  "/>
<path clip-path="url(#clip452)" d="
M1168.39 345.796 L1168.39 1384.24 L1214.67 1384.24 L1214.67 345.796 L1168.39 345.796 L1168.39 345.796  Z
  " fill="#e26f46" fill-rule="evenodd" fill-opacity="1"/>
<polyline clip-path="url(#clip452)" style="stroke:#000000; stroke-linecap:round; stroke-linejoin:round; stroke-width:4; stroke-opacity:1; fill:none" points="
  1168.39,345.796 1168.39,1384.24 1214.67,1384.24 1214.67,345.796 1168.39,345.796 
  "/>
<path clip-path="url(#clip452)" d="
M1214.67 262.721 L1214.67 1384.24 L1260.94 1384.24 L1260.94 262.721 L1214.67 262.721 L1214.67 262.721  Z
  " fill="#e26f46" fill-rule="evenodd" fill-opacity="1"/>
<polyline clip-path="url(#clip452)" style="stroke:#000000; stroke-linecap:round; stroke-linejoin:round; stroke-width:4; stroke-opacity:1; fill:none" points="
  1214.67,262.721 1214.67,1384.24 1260.94,1384.24 1260.94,262.721 1214.67,262.721 
  "/>
<path clip-path="url(#clip452)" d="
M1260.94 273.105 L1260.94 1384.24 L1307.21 1384.24 L1307.21 273.105 L1260.94 273.105 L1260.94 273.105  Z
  " fill="#e26f46" fill-rule="evenodd" fill-opacity="1"/>
<polyline clip-path="url(#clip452)" style="stroke:#000000; stroke-linecap:round; stroke-linejoin:round; stroke-width:4; stroke-opacity:1; fill:none" points="
  1260.94,273.105 1260.94,1384.24 1307.21,1384.24 1307.21,273.105 1260.94,273.105 
  "/>
<path clip-path="url(#clip452)" d="
M1307.21 553.485 L1307.21 1384.24 L1353.48 1384.24 L1353.48 553.485 L1307.21 553.485 L1307.21 553.485  Z
  " fill="#e26f46" fill-rule="evenodd" fill-opacity="1"/>
<polyline clip-path="url(#clip452)" style="stroke:#000000; stroke-linecap:round; stroke-linejoin:round; stroke-width:4; stroke-opacity:1; fill:none" points="
  1307.21,553.485 1307.21,1384.24 1353.48,1384.24 1353.48,553.485 1307.21,553.485 
  "/>
<path clip-path="url(#clip452)" d="
M1353.48 667.713 L1353.48 1384.24 L1399.75 1384.24 L1399.75 667.713 L1353.48 667.713 L1353.48 667.713  Z
  " fill="#e26f46" fill-rule="evenodd" fill-opacity="1"/>
<polyline clip-path="url(#clip452)" style="stroke:#000000; stroke-linecap:round; stroke-linejoin:round; stroke-width:4; stroke-opacity:1; fill:none" points="
  1353.48,667.713 1353.48,1384.24 1399.75,1384.24 1399.75,667.713 1353.48,667.713 
  "/>
<path clip-path="url(#clip452)" d="
M1399.75 885.786 L1399.75 1384.24 L1446.03 1384.24 L1446.03 885.786 L1399.75 885.786 L1399.75 885.786  Z
  " fill="#e26f46" fill-rule="evenodd" fill-opacity="1"/>
<polyline clip-path="url(#clip452)" style="stroke:#000000; stroke-linecap:round; stroke-linejoin:round; stroke-width:4; stroke-opacity:1; fill:none" points="
  1399.75,885.786 1399.75,1384.24 1446.03,1384.24 1446.03,885.786 1399.75,885.786 
  "/>
<path clip-path="url(#clip452)" d="
M1446.03 1051.94 L1446.03 1384.24 L1492.3 1384.24 L1492.3 1051.94 L1446.03 1051.94 L1446.03 1051.94  Z
  " fill="#e26f46" fill-rule="evenodd" fill-opacity="1"/>
<polyline clip-path="url(#clip452)" style="stroke:#000000; stroke-linecap:round; stroke-linejoin:round; stroke-width:4; stroke-opacity:1; fill:none" points="
  1446.03,1051.94 1446.03,1384.24 1492.3,1384.24 1492.3,1051.94 1446.03,1051.94 
  "/>
<path clip-path="url(#clip452)" d="
M1492.3 1228.47 L1492.3 1384.24 L1538.57 1384.24 L1538.57 1228.47 L1492.3 1228.47 L1492.3 1228.47  Z
  " fill="#e26f46" fill-rule="evenodd" fill-opacity="1"/>
<polyline clip-path="url(#clip452)" style="stroke:#000000; stroke-linecap:round; stroke-linejoin:round; stroke-width:4; stroke-opacity:1; fill:none" points="
  1492.3,1228.47 1492.3,1384.24 1538.57,1384.24 1538.57,1228.47 1492.3,1228.47 
  "/>
<path clip-path="url(#clip452)" d="
M1538.57 1270.01 L1538.57 1384.24 L1584.84 1384.24 L1584.84 1270.01 L1538.57 1270.01 L1538.57 1270.01  Z
  " fill="#e26f46" fill-rule="evenodd" fill-opacity="1"/>
<polyline clip-path="url(#clip452)" style="stroke:#000000; stroke-linecap:round; stroke-linejoin:round; stroke-width:4; stroke-opacity:1; fill:none" points="
  1538.57,1270.01 1538.57,1384.24 1584.84,1384.24 1584.84,1270.01 1538.57,1270.01 
  "/>
<path clip-path="url(#clip452)" d="
M1584.84 1311.55 L1584.84 1384.24 L1631.12 1384.24 L1631.12 1311.55 L1584.84 1311.55 L1584.84 1311.55  Z
  " fill="#e26f46" fill-rule="evenodd" fill-opacity="1"/>
<polyline clip-path="url(#clip452)" style="stroke:#000000; stroke-linecap:round; stroke-linejoin:round; stroke-width:4; stroke-opacity:1; fill:none" points="
  1584.84,1311.55 1584.84,1384.24 1631.12,1384.24 1631.12,1311.55 1584.84,1311.55 
  "/>
<path clip-path="url(#clip452)" d="
M1631.12 1353.09 L1631.12 1384.24 L1677.39 1384.24 L1677.39 1353.09 L1631.12 1353.09 L1631.12 1353.09  Z
  " fill="#e26f46" fill-rule="evenodd" fill-opacity="1"/>
<polyline clip-path="url(#clip452)" style="stroke:#000000; stroke-linecap:round; stroke-linejoin:round; stroke-width:4; stroke-opacity:1; fill:none" points="
  1631.12,1353.09 1631.12,1384.24 1677.39,1384.24 1677.39,1353.09 1631.12,1353.09 
  "/>
<path clip-path="url(#clip452)" d="
M1677.39 1332.32 L1677.39 1384.24 L1723.66 1384.24 L1723.66 1332.32 L1677.39 1332.32 L1677.39 1332.32  Z
  " fill="#e26f46" fill-rule="evenodd" fill-opacity="1"/>
<polyline clip-path="url(#clip452)" style="stroke:#000000; stroke-linecap:round; stroke-linejoin:round; stroke-width:4; stroke-opacity:1; fill:none" points="
  1677.39,1332.32 1677.39,1384.24 1723.66,1384.24 1723.66,1332.32 1677.39,1332.32 
  "/>
<path clip-path="url(#clip452)" d="
M1723.66 1373.85 L1723.66 1384.24 L1769.93 1384.24 L1769.93 1373.85 L1723.66 1373.85 L1723.66 1373.85  Z
  " fill="#e26f46" fill-rule="evenodd" fill-opacity="1"/>
<polyline clip-path="url(#clip452)" style="stroke:#000000; stroke-linecap:round; stroke-linejoin:round; stroke-width:4; stroke-opacity:1; fill:none" points="
  1723.66,1373.85 1723.66,1384.24 1769.93,1384.24 1769.93,1373.85 1723.66,1373.85 
  "/>
<path clip-path="url(#clip452)" d="
M1769.93 1384.24 L1769.93 1384.24 L1816.2 1384.24 L1816.2 1384.24 L1769.93 1384.24 L1769.93 1384.24  Z
  " fill="#e26f46" fill-rule="evenodd" fill-opacity="1"/>
<polyline clip-path="url(#clip452)" style="stroke:#000000; stroke-linecap:round; stroke-linejoin:round; stroke-width:4; stroke-opacity:1; fill:none" points="
  1769.93,1384.24 1769.93,1384.24 1816.2,1384.24 1769.93,1384.24 
  "/>
<path clip-path="url(#clip452)" d="
M1816.2 1384.24 L1816.2 1384.24 L1862.48 1384.24 L1862.48 1384.24 L1816.2 1384.24 L1816.2 1384.24  Z
  " fill="#e26f46" fill-rule="evenodd" fill-opacity="1"/>
<polyline clip-path="url(#clip452)" style="stroke:#000000; stroke-linecap:round; stroke-linejoin:round; stroke-width:4; stroke-opacity:1; fill:none" points="
  1816.2,1384.24 1816.2,1384.24 1862.48,1384.24 1816.2,1384.24 
  "/>
<path clip-path="url(#clip452)" d="
M1862.48 1373.85 L1862.48 1384.24 L1908.75 1384.24 L1908.75 1373.85 L1862.48 1373.85 L1862.48 1373.85  Z
  " fill="#e26f46" fill-rule="evenodd" fill-opacity="1"/>
<polyline clip-path="url(#clip452)" style="stroke:#000000; stroke-linecap:round; stroke-linejoin:round; stroke-width:4; stroke-opacity:1; fill:none" points="
  1862.48,1373.85 1862.48,1384.24 1908.75,1384.24 1908.75,1373.85 1862.48,1373.85 
  "/>
<circle clip-path="url(#clip452)" style="fill:#e26f46; stroke:none; fill-opacity:0" cx="682.538" cy="1363.47" r="2"/>
<circle clip-path="url(#clip452)" style="fill:#e26f46; stroke:none; fill-opacity:0" cx="728.81" cy="1373.85" r="2"/>
<circle clip-path="url(#clip452)" style="fill:#e26f46; stroke:none; fill-opacity:0" cx="775.082" cy="1321.93" r="2"/>
<circle clip-path="url(#clip452)" style="fill:#e26f46; stroke:none; fill-opacity:0" cx="821.354" cy="1321.93" r="2"/>
<circle clip-path="url(#clip452)" style="fill:#e26f46; stroke:none; fill-opacity:0" cx="867.626" cy="1259.63" r="2"/>
<circle clip-path="url(#clip452)" style="fill:#e26f46; stroke:none; fill-opacity:0" cx="913.898" cy="1041.55" r="2"/>
<circle clip-path="url(#clip452)" style="fill:#e26f46; stroke:none; fill-opacity:0" cx="960.17" cy="948.093" r="2"/>
<circle clip-path="url(#clip452)" style="fill:#e26f46; stroke:none; fill-opacity:0" cx="1006.44" cy="761.173" r="2"/>
<circle clip-path="url(#clip452)" style="fill:#e26f46; stroke:none; fill-opacity:0" cx="1052.71" cy="698.866" r="2"/>
<circle clip-path="url(#clip452)" style="fill:#e26f46; stroke:none; fill-opacity:0" cx="1098.99" cy="460.025" r="2"/>
<circle clip-path="url(#clip452)" style="fill:#e26f46; stroke:none; fill-opacity:0" cx="1145.26" cy="387.334" r="2"/>
<circle clip-path="url(#clip452)" style="fill:#e26f46; stroke:none; fill-opacity:0" cx="1191.53" cy="345.796" r="2"/>
<circle clip-path="url(#clip452)" style="fill:#e26f46; stroke:none; fill-opacity:0" cx="1237.8" cy="262.721" r="2"/>
<circle clip-path="url(#clip452)" style="fill:#e26f46; stroke:none; fill-opacity:0" cx="1284.07" cy="273.105" r="2"/>
<circle clip-path="url(#clip452)" style="fill:#e26f46; stroke:none; fill-opacity:0" cx="1330.35" cy="553.485" r="2"/>
<circle clip-path="url(#clip452)" style="fill:#e26f46; stroke:none; fill-opacity:0" cx="1376.62" cy="667.713" r="2"/>
<circle clip-path="url(#clip452)" style="fill:#e26f46; stroke:none; fill-opacity:0" cx="1422.89" cy="885.786" r="2"/>
<circle clip-path="url(#clip452)" style="fill:#e26f46; stroke:none; fill-opacity:0" cx="1469.16" cy="1051.94" r="2"/>
<circle clip-path="url(#clip452)" style="fill:#e26f46; stroke:none; fill-opacity:0" cx="1515.44" cy="1228.47" r="2"/>
<circle clip-path="url(#clip452)" style="fill:#e26f46; stroke:none; fill-opacity:0" cx="1561.71" cy="1270.01" r="2"/>
<circle clip-path="url(#clip452)" style="fill:#e26f46; stroke:none; fill-opacity:0" cx="1607.98" cy="1311.55" r="2"/>
<circle clip-path="url(#clip452)" style="fill:#e26f46; stroke:none; fill-opacity:0" cx="1654.25" cy="1353.09" r="2"/>
<circle clip-path="url(#clip452)" style="fill:#e26f46; stroke:none; fill-opacity:0" cx="1700.52" cy="1332.32" r="2"/>
<circle clip-path="url(#clip452)" style="fill:#e26f46; stroke:none; fill-opacity:0" cx="1746.8" cy="1373.85" r="2"/>
<circle clip-path="url(#clip452)" style="fill:#e26f46; stroke:none; fill-opacity:0" cx="1793.07" cy="1384.24" r="2"/>
<circle clip-path="url(#clip452)" style="fill:#e26f46; stroke:none; fill-opacity:0" cx="1839.34" cy="1384.24" r="2"/>
<circle clip-path="url(#clip452)" style="fill:#e26f46; stroke:none; fill-opacity:0" cx="1885.61" cy="1373.85" r="2"/>
<path clip-path="url(#clip450)" d="
M1770.52 248.629 L2279.97 248.629 L2279.97 93.1086 L1770.52 93.1086  Z
  " fill="#ffffff" fill-rule="evenodd" fill-opacity="1"/>
<polyline clip-path="url(#clip450)" style="stroke:#000000; stroke-linecap:round; stroke-linejoin:round; stroke-width:4; stroke-opacity:1; fill:none" points="
  1770.52,248.629 2279.97,248.629 2279.97,93.1086 1770.52,93.1086 1770.52,248.629 
  "/>
<path clip-path="url(#clip450)" d="
M1794.78 165.685 L1940.36 165.685 L1940.36 124.213 L1794.78 124.213 L1794.78 165.685  Z
  " fill="#009af9" fill-rule="evenodd" fill-opacity="1"/>
<polyline clip-path="url(#clip450)" style="stroke:#000000; stroke-linecap:round; stroke-linejoin:round; stroke-width:4; stroke-opacity:1; fill:none" points="
  1794.78,165.685 1940.36,165.685 1940.36,124.213 1794.78,124.213 1794.78,165.685 
  "/>
<path clip-path="url(#clip450)" d="M1981.01 146.025 Q1982.51 146.534 1983.92 148.201 Q1985.36 149.868 1986.79 152.784 L1991.54 162.229 L1986.52 162.229 L1982.1 153.363 Q1980.38 149.891 1978.76 148.756 Q1977.17 147.622 1974.39 147.622 L1969.29 147.622 L1969.29 162.229 L1964.62 162.229 L1964.62 127.669 L1975.17 127.669 Q1981.1 127.669 1984.02 130.145 Q1986.93 132.622 1986.93 137.622 Q1986.93 140.886 1985.41 143.039 Q1983.9 145.192 1981.01 146.025 M1969.29 131.511 L1969.29 143.78 L1975.17 143.78 Q1978.55 143.78 1980.27 142.229 Q1982 140.655 1982 137.622 Q1982 134.59 1980.27 133.062 Q1978.55 131.511 1975.17 131.511 L1969.29 131.511 Z" fill="#000000" fill-rule="evenodd" fill-opacity="1" /><path clip-path="url(#clip450)" d="M2013 140.701 L2042.67 140.701 L2042.67 144.59 L2013 144.59 L2013 140.701 M2013 150.145 L2042.67 150.145 L2042.67 154.081 L2013 154.081 L2013 150.145 Z" fill="#000000" fill-rule="evenodd" fill-opacity="1" /><path clip-path="url(#clip450)" d="M2077.84 130.747 Q2074.22 130.747 2072.4 134.312 Q2070.59 137.854 2070.59 144.983 Q2070.59 152.09 2072.4 155.655 Q2074.22 159.196 2077.84 159.196 Q2081.47 159.196 2083.28 155.655 Q2085.1 152.09 2085.1 144.983 Q2085.1 137.854 2083.28 134.312 Q2081.47 130.747 2077.84 130.747 M2077.84 127.044 Q2083.65 127.044 2086.7 131.65 Q2089.78 136.233 2089.78 144.983 Q2089.78 153.71 2086.7 158.317 Q2083.65 162.9 2077.84 162.9 Q2072.03 162.9 2068.95 158.317 Q2065.89 153.71 2065.89 144.983 Q2065.89 136.233 2068.95 131.65 Q2072.03 127.044 2077.84 127.044 Z" fill="#000000" fill-rule="evenodd" fill-opacity="1" /><path clip-path="url(#clip450)" d="M2098 156.349 L2102.88 156.349 L2102.88 162.229 L2098 162.229 L2098 156.349 Z" fill="#000000" fill-rule="evenodd" fill-opacity="1" /><path clip-path="url(#clip450)" d="M2123.07 130.747 Q2119.46 130.747 2117.63 134.312 Q2115.82 137.854 2115.82 144.983 Q2115.82 152.09 2117.63 155.655 Q2119.46 159.196 2123.07 159.196 Q2126.7 159.196 2128.51 155.655 Q2130.34 152.09 2130.34 144.983 Q2130.34 137.854 2128.51 134.312 Q2126.7 130.747 2123.07 130.747 M2123.07 127.044 Q2128.88 127.044 2131.93 131.65 Q2135.01 136.233 2135.01 144.983 Q2135.01 153.71 2131.93 158.317 Q2128.88 162.9 2123.07 162.9 Q2117.26 162.9 2114.18 158.317 Q2111.12 153.71 2111.12 144.983 Q2111.12 136.233 2114.18 131.65 Q2117.26 127.044 2123.07 127.044 Z" fill="#000000" fill-rule="evenodd" fill-opacity="1" /><path clip-path="url(#clip450)" d="M2153.23 130.747 Q2149.62 130.747 2147.79 134.312 Q2145.98 137.854 2145.98 144.983 Q2145.98 152.09 2147.79 155.655 Q2149.62 159.196 2153.23 159.196 Q2156.86 159.196 2158.67 155.655 Q2160.5 152.09 2160.5 144.983 Q2160.5 137.854 2158.67 134.312 Q2156.86 130.747 2153.23 130.747 M2153.23 127.044 Q2159.04 127.044 2162.09 131.65 Q2165.17 136.233 2165.17 144.983 Q2165.17 153.71 2162.09 158.317 Q2159.04 162.9 2153.23 162.9 Q2147.42 162.9 2144.34 158.317 Q2141.28 153.71 2141.28 144.983 Q2141.28 136.233 2144.34 131.65 Q2147.42 127.044 2153.23 127.044 Z" fill="#000000" fill-rule="evenodd" fill-opacity="1" /><path clip-path="url(#clip450)" d="M2173.44 127.669 L2191.79 127.669 L2191.79 131.604 L2177.72 131.604 L2177.72 140.076 Q2178.74 139.729 2179.76 139.567 Q2180.78 139.382 2181.79 139.382 Q2187.58 139.382 2190.96 142.553 Q2194.34 145.724 2194.34 151.141 Q2194.34 156.719 2190.87 159.821 Q2187.4 162.9 2181.08 162.9 Q2178.9 162.9 2176.63 162.53 Q2174.39 162.159 2171.98 161.418 L2171.98 156.719 Q2174.06 157.854 2176.28 158.409 Q2178.51 158.965 2180.98 158.965 Q2184.99 158.965 2187.33 156.858 Q2189.66 154.752 2189.66 151.141 Q2189.66 147.53 2187.33 145.423 Q2184.99 143.317 2180.98 143.317 Q2179.11 143.317 2177.23 143.733 Q2175.38 144.15 2173.44 145.03 L2173.44 127.669 Z" fill="#000000" fill-rule="evenodd" fill-opacity="1" /><path clip-path="url(#clip450)" d="M2238.21 141.28 Q2239.8 138.409 2242.02 137.044 Q2244.25 135.678 2247.26 135.678 Q2251.31 135.678 2253.51 138.525 Q2255.71 141.349 2255.71 146.581 L2255.71 162.229 L2251.42 162.229 L2251.42 146.719 Q2251.42 142.993 2250.1 141.187 Q2248.78 139.382 2246.08 139.382 Q2242.77 139.382 2240.84 141.581 Q2238.92 143.78 2238.92 147.576 L2238.92 162.229 L2234.64 162.229 L2234.64 146.719 Q2234.64 142.969 2233.32 141.187 Q2232 139.382 2229.25 139.382 Q2225.98 139.382 2224.06 141.604 Q2222.14 143.803 2222.14 147.576 L2222.14 162.229 L2217.86 162.229 L2217.86 136.303 L2222.14 136.303 L2222.14 140.331 Q2223.6 137.946 2225.64 136.812 Q2227.67 135.678 2230.47 135.678 Q2233.3 135.678 2235.27 137.113 Q2237.26 138.548 2238.21 141.28 Z" fill="#000000" fill-rule="evenodd" fill-opacity="1" /><path clip-path="url(#clip450)" d="
M1794.78 217.525 L1940.36 217.525 L1940.36 176.053 L1794.78 176.053 L1794.78 217.525  Z
  " fill="#e26f46" fill-rule="evenodd" fill-opacity="1"/>
<polyline clip-path="url(#clip450)" style="stroke:#000000; stroke-linecap:round; stroke-linejoin:round; stroke-width:4; stroke-opacity:1; fill:none" points="
  1794.78,217.525 1940.36,217.525 1940.36,176.053 1794.78,176.053 1794.78,217.525 
  "/>
<path clip-path="url(#clip450)" d="M1981.01 197.865 Q1982.51 198.374 1983.92 200.041 Q1985.36 201.708 1986.79 204.624 L1991.54 214.069 L1986.52 214.069 L1982.1 205.203 Q1980.38 201.731 1978.76 200.596 Q1977.17 199.462 1974.39 199.462 L1969.29 199.462 L1969.29 214.069 L1964.62 214.069 L1964.62 179.509 L1975.17 179.509 Q1981.1 179.509 1984.02 181.985 Q1986.93 184.462 1986.93 189.462 Q1986.93 192.726 1985.41 194.879 Q1983.9 197.032 1981.01 197.865 M1969.29 183.351 L1969.29 195.62 L1975.17 195.62 Q1978.55 195.62 1980.27 194.069 Q1982 192.495 1982 189.462 Q1982 186.43 1980.27 184.902 Q1978.55 183.351 1975.17 183.351 L1969.29 183.351 Z" fill="#000000" fill-rule="evenodd" fill-opacity="1" /><path clip-path="url(#clip450)" d="M2013 192.541 L2042.67 192.541 L2042.67 196.43 L2013 196.43 L2013 192.541 M2013 201.985 L2042.67 201.985 L2042.67 205.921 L2013 205.921 L2013 201.985 Z" fill="#000000" fill-rule="evenodd" fill-opacity="1" /><path clip-path="url(#clip450)" d="M2077.84 182.587 Q2074.22 182.587 2072.4 186.152 Q2070.59 189.694 2070.59 196.823 Q2070.59 203.93 2072.4 207.495 Q2074.22 211.036 2077.84 211.036 Q2081.47 211.036 2083.28 207.495 Q2085.1 203.93 2085.1 196.823 Q2085.1 189.694 2083.28 186.152 Q2081.47 182.587 2077.84 182.587 M2077.84 178.884 Q2083.65 178.884 2086.7 183.49 Q2089.78 188.073 2089.78 196.823 Q2089.78 205.55 2086.7 210.157 Q2083.65 214.74 2077.84 214.74 Q2072.03 214.74 2068.95 210.157 Q2065.89 205.55 2065.89 196.823 Q2065.89 188.073 2068.95 183.49 Q2072.03 178.884 2077.84 178.884 Z" fill="#000000" fill-rule="evenodd" fill-opacity="1" /><path clip-path="url(#clip450)" d="M2098 208.189 L2102.88 208.189 L2102.88 214.069 L2098 214.069 L2098 208.189 Z" fill="#000000" fill-rule="evenodd" fill-opacity="1" /><path clip-path="url(#clip450)" d="M2123.07 182.587 Q2119.46 182.587 2117.63 186.152 Q2115.82 189.694 2115.82 196.823 Q2115.82 203.93 2117.63 207.495 Q2119.46 211.036 2123.07 211.036 Q2126.7 211.036 2128.51 207.495 Q2130.34 203.93 2130.34 196.823 Q2130.34 189.694 2128.51 186.152 Q2126.7 182.587 2123.07 182.587 M2123.07 178.884 Q2128.88 178.884 2131.93 183.49 Q2135.01 188.073 2135.01 196.823 Q2135.01 205.55 2131.93 210.157 Q2128.88 214.74 2123.07 214.74 Q2117.26 214.74 2114.18 210.157 Q2111.12 205.55 2111.12 196.823 Q2111.12 188.073 2114.18 183.49 Q2117.26 178.884 2123.07 178.884 Z" fill="#000000" fill-rule="evenodd" fill-opacity="1" /><path clip-path="url(#clip450)" d="M2144.04 210.133 L2151.68 210.133 L2151.68 183.768 L2143.37 185.435 L2143.37 181.175 L2151.63 179.509 L2156.31 179.509 L2156.31 210.133 L2163.95 210.133 L2163.95 214.069 L2144.04 214.069 L2144.04 210.133 Z" fill="#000000" fill-rule="evenodd" fill-opacity="1" /><path clip-path="url(#clip450)" d="M2208.04 193.12 Q2209.64 190.249 2211.86 188.884 Q2214.09 187.518 2217.09 187.518 Q2221.15 187.518 2223.34 190.365 Q2225.54 193.189 2225.54 198.421 L2225.54 214.069 L2221.26 214.069 L2221.26 198.559 Q2221.26 194.833 2219.94 193.027 Q2218.62 191.222 2215.91 191.222 Q2212.6 191.222 2210.68 193.421 Q2208.76 195.62 2208.76 199.416 L2208.76 214.069 L2204.48 214.069 L2204.48 198.559 Q2204.48 194.809 2203.16 193.027 Q2201.84 191.222 2199.09 191.222 Q2195.82 191.222 2193.9 193.444 Q2191.98 195.643 2191.98 199.416 L2191.98 214.069 L2187.7 214.069 L2187.7 188.143 L2191.98 188.143 L2191.98 192.171 Q2193.44 189.786 2195.47 188.652 Q2197.51 187.518 2200.31 187.518 Q2203.14 187.518 2205.1 188.953 Q2207.09 190.388 2208.04 193.12 Z" fill="#000000" fill-rule="evenodd" fill-opacity="1" /></svg>
