<?xml version="1.0" encoding="utf-8"?>
<svg xmlns="http://www.w3.org/2000/svg" xmlns:xlink="http://www.w3.org/1999/xlink" width="600" height="400" viewBox="0 0 2400 1600">
<defs>
  <clipPath id="clip200">
    <rect x="0" y="0" width="2400" height="1600"/>
  </clipPath>
</defs>
<path clip-path="url(#clip200)" d="M0 1600 L2400 1600 L2400 0 L0 0  Z" fill="#ffffff" fill-rule="evenodd" fill-opacity="1"/>
<defs>
  <clipPath id="clip201">
    <rect x="480" y="0" width="1681" height="1600"/>
  </clipPath>
</defs>
<path clip-path="url(#clip200)" d="M169.121 686.448 L2352.76 686.448 L2352.76 47.2441 L169.121 47.2441  Z" fill="#ffffff" fill-rule="evenodd" fill-opacity="1"/>
<defs>
  <clipPath id="clip202">
    <rect x="169" y="47" width="2185" height="640"/>
  </clipPath>
</defs>
<polyline clip-path="url(#clip202)" style="stroke:#000000; stroke-linecap:round; stroke-linejoin:round; stroke-width:2; stroke-opacity:0.1; fill:none" points="391.511,686.448 391.511,47.2441 "/>
<polyline clip-path="url(#clip202)" style="stroke:#000000; stroke-linecap:round; stroke-linejoin:round; stroke-width:2; stroke-opacity:0.1; fill:none" points="800.653,686.448 800.653,47.2441 "/>
<polyline clip-path="url(#clip202)" style="stroke:#000000; stroke-linecap:round; stroke-linejoin:round; stroke-width:2; stroke-opacity:0.1; fill:none" points="1209.8,686.448 1209.8,47.2441 "/>
<polyline clip-path="url(#clip202)" style="stroke:#000000; stroke-linecap:round; stroke-linejoin:round; stroke-width:2; stroke-opacity:0.1; fill:none" points="1618.94,686.448 1618.94,47.2441 "/>
<polyline clip-path="url(#clip202)" style="stroke:#000000; stroke-linecap:round; stroke-linejoin:round; stroke-width:2; stroke-opacity:0.1; fill:none" points="2028.08,686.448 2028.08,47.2441 "/>
<polyline clip-path="url(#clip200)" style="stroke:#000000; stroke-linecap:round; stroke-linejoin:round; stroke-width:4; stroke-opacity:1; fill:none" points="169.121,686.448 2352.76,686.448 "/>
<polyline clip-path="url(#clip200)" style="stroke:#000000; stroke-linecap:round; stroke-linejoin:round; stroke-width:4; stroke-opacity:1; fill:none" points="391.511,686.448 391.511,667.55 "/>
<polyline clip-path="url(#clip200)" style="stroke:#000000; stroke-linecap:round; stroke-linejoin:round; stroke-width:4; stroke-opacity:1; fill:none" points="800.653,686.448 800.653,667.55 "/>
<polyline clip-path="url(#clip200)" style="stroke:#000000; stroke-linecap:round; stroke-linejoin:round; stroke-width:4; stroke-opacity:1; fill:none" points="1209.8,686.448 1209.8,667.55 "/>
<polyline clip-path="url(#clip200)" style="stroke:#000000; stroke-linecap:round; stroke-linejoin:round; stroke-width:4; stroke-opacity:1; fill:none" points="1618.94,686.448 1618.94,667.55 "/>
<polyline clip-path="url(#clip200)" style="stroke:#000000; stroke-linecap:round; stroke-linejoin:round; stroke-width:4; stroke-opacity:1; fill:none" points="2028.08,686.448 2028.08,667.55 "/>
<path clip-path="url(#clip200)" d="M332.506 744.913 L348.826 744.913 L348.826 748.848 L326.881 748.848 L326.881 744.913 Q329.543 742.158 334.127 737.528 Q338.733 732.876 339.914 731.533 Q342.159 729.01 343.039 727.274 Q343.942 725.515 343.942 723.825 Q343.942 721.07 341.997 719.334 Q340.076 717.598 336.974 717.598 Q334.775 717.598 332.321 718.362 Q329.891 719.126 327.113 720.677 L327.113 715.955 Q329.937 714.82 332.391 714.242 Q334.844 713.663 336.881 713.663 Q342.252 713.663 345.446 716.348 Q348.641 719.033 348.641 723.524 Q348.641 725.654 347.83 727.575 Q347.043 729.473 344.937 732.066 Q344.358 732.737 341.256 735.954 Q338.155 739.149 332.506 744.913 Z" fill="#000000" fill-rule="nonzero" fill-opacity="1" /><path clip-path="url(#clip200)" d="M358.641 742.968 L363.525 742.968 L363.525 748.848 L358.641 748.848 L358.641 742.968 Z" fill="#000000" fill-rule="nonzero" fill-opacity="1" /><path clip-path="url(#clip200)" d="M384.289 729.704 Q381.14 729.704 379.289 731.857 Q377.46 734.01 377.46 737.76 Q377.46 741.487 379.289 743.663 Q381.14 745.815 384.289 745.815 Q387.437 745.815 389.265 743.663 Q391.117 741.487 391.117 737.76 Q391.117 734.01 389.265 731.857 Q387.437 729.704 384.289 729.704 M393.571 715.052 L393.571 719.311 Q391.812 718.478 390.006 718.038 Q388.224 717.598 386.464 717.598 Q381.835 717.598 379.381 720.723 Q376.951 723.848 376.603 730.167 Q377.969 728.154 380.029 727.089 Q382.089 726.001 384.566 726.001 Q389.775 726.001 392.784 729.172 Q395.816 732.32 395.816 737.76 Q395.816 743.084 392.668 746.302 Q389.52 749.519 384.289 749.519 Q378.293 749.519 375.122 744.936 Q371.951 740.329 371.951 731.603 Q371.951 723.408 375.84 718.547 Q379.728 713.663 386.279 713.663 Q388.039 713.663 389.821 714.01 Q391.626 714.357 393.571 715.052 Z" fill="#000000" fill-rule="nonzero" fill-opacity="1" /><path clip-path="url(#clip200)" d="M404.011 748.13 L404.011 743.871 Q405.77 744.704 407.575 745.144 Q409.381 745.584 411.117 745.584 Q415.747 745.584 418.177 742.482 Q420.631 739.357 420.978 733.015 Q419.636 735.005 417.575 736.07 Q415.515 737.135 413.015 737.135 Q407.83 737.135 404.798 734.01 Q401.788 730.862 401.788 725.422 Q401.788 720.098 404.937 716.88 Q408.085 713.663 413.316 713.663 Q419.312 713.663 422.46 718.269 Q425.631 722.853 425.631 731.603 Q425.631 739.774 421.742 744.658 Q417.876 749.519 411.325 749.519 Q409.566 749.519 407.761 749.172 Q405.955 748.825 404.011 748.13 M413.316 733.478 Q416.464 733.478 418.293 731.325 Q420.145 729.172 420.145 725.422 Q420.145 721.695 418.293 719.542 Q416.464 717.367 413.316 717.367 Q410.168 717.367 408.316 719.542 Q406.488 721.695 406.488 725.422 Q406.488 729.172 408.316 731.325 Q410.168 733.478 413.316 733.478 Z" fill="#000000" fill-rule="nonzero" fill-opacity="1" /><path clip-path="url(#clip200)" d="M444.612 729.704 Q441.464 729.704 439.612 731.857 Q437.784 734.01 437.784 737.76 Q437.784 741.487 439.612 743.663 Q441.464 745.815 444.612 745.815 Q447.76 745.815 449.589 743.663 Q451.441 741.487 451.441 737.76 Q451.441 734.01 449.589 731.857 Q447.76 729.704 444.612 729.704 M453.895 715.052 L453.895 719.311 Q452.135 718.478 450.33 718.038 Q448.547 717.598 446.788 717.598 Q442.159 717.598 439.705 720.723 Q437.274 723.848 436.927 730.167 Q438.293 728.154 440.353 727.089 Q442.413 726.001 444.89 726.001 Q450.098 726.001 453.108 729.172 Q456.14 732.32 456.14 737.76 Q456.14 743.084 452.992 746.302 Q449.844 749.519 444.612 749.519 Q438.617 749.519 435.446 744.936 Q432.274 740.329 432.274 731.603 Q432.274 723.408 436.163 718.547 Q440.052 713.663 446.603 713.663 Q448.362 713.663 450.145 714.01 Q451.95 714.357 453.895 715.052 Z" fill="#000000" fill-rule="nonzero" fill-opacity="1" /><path clip-path="url(#clip200)" d="M741.776 744.913 L758.096 744.913 L758.096 748.848 L736.151 748.848 L736.151 744.913 Q738.813 742.158 743.397 737.528 Q748.003 732.876 749.184 731.533 Q751.429 729.01 752.309 727.274 Q753.211 725.515 753.211 723.825 Q753.211 721.07 751.267 719.334 Q749.346 717.598 746.244 717.598 Q744.045 717.598 741.591 718.362 Q739.161 719.126 736.383 720.677 L736.383 715.955 Q739.207 714.82 741.661 714.242 Q744.114 713.663 746.151 713.663 Q751.522 713.663 754.716 716.348 Q757.91 719.033 757.91 723.524 Q757.91 725.654 757.1 727.575 Q756.313 729.473 754.207 732.066 Q753.628 732.737 750.526 735.954 Q747.424 739.149 741.776 744.913 Z" fill="#000000" fill-rule="nonzero" fill-opacity="1" /><path clip-path="url(#clip200)" d="M767.91 742.968 L772.795 742.968 L772.795 748.848 L767.91 748.848 L767.91 742.968 Z" fill="#000000" fill-rule="nonzero" fill-opacity="1" /><path clip-path="url(#clip200)" d="M793.558 729.704 Q790.41 729.704 788.558 731.857 Q786.73 734.01 786.73 737.76 Q786.73 741.487 788.558 743.663 Q790.41 745.815 793.558 745.815 Q796.707 745.815 798.535 743.663 Q800.387 741.487 800.387 737.76 Q800.387 734.01 798.535 731.857 Q796.707 729.704 793.558 729.704 M802.841 715.052 L802.841 719.311 Q801.082 718.478 799.276 718.038 Q797.494 717.598 795.734 717.598 Q791.105 717.598 788.651 720.723 Q786.22 723.848 785.873 730.167 Q787.239 728.154 789.299 727.089 Q791.359 726.001 793.836 726.001 Q799.044 726.001 802.054 729.172 Q805.086 732.32 805.086 737.76 Q805.086 743.084 801.938 746.302 Q798.79 749.519 793.558 749.519 Q787.563 749.519 784.392 744.936 Q781.22 740.329 781.22 731.603 Q781.22 723.408 785.109 718.547 Q788.998 713.663 795.549 713.663 Q797.308 713.663 799.091 714.01 Q800.896 714.357 802.841 715.052 Z" fill="#000000" fill-rule="nonzero" fill-opacity="1" /><path clip-path="url(#clip200)" d="M813.281 748.13 L813.281 743.871 Q815.04 744.704 816.845 745.144 Q818.651 745.584 820.387 745.584 Q825.017 745.584 827.447 742.482 Q829.901 739.357 830.248 733.015 Q828.905 735.005 826.845 736.07 Q824.785 737.135 822.285 737.135 Q817.1 737.135 814.068 734.01 Q811.058 730.862 811.058 725.422 Q811.058 720.098 814.206 716.88 Q817.355 713.663 822.586 713.663 Q828.581 713.663 831.729 718.269 Q834.901 722.853 834.901 731.603 Q834.901 739.774 831.012 744.658 Q827.146 749.519 820.595 749.519 Q818.836 749.519 817.03 749.172 Q815.225 748.825 813.281 748.13 M822.586 733.478 Q825.734 733.478 827.563 731.325 Q829.415 729.172 829.415 725.422 Q829.415 721.695 827.563 719.542 Q825.734 717.367 822.586 717.367 Q819.438 717.367 817.586 719.542 Q815.757 721.695 815.757 725.422 Q815.757 729.172 817.586 731.325 Q819.438 733.478 822.586 733.478 Z" fill="#000000" fill-rule="nonzero" fill-opacity="1" /><path clip-path="url(#clip200)" d="M853.303 732.436 Q849.97 732.436 848.049 734.218 Q846.151 736.001 846.151 739.126 Q846.151 742.251 848.049 744.033 Q849.97 745.815 853.303 745.815 Q856.637 745.815 858.558 744.033 Q860.479 742.228 860.479 739.126 Q860.479 736.001 858.558 734.218 Q856.66 732.436 853.303 732.436 M848.628 730.445 Q845.618 729.704 843.928 727.644 Q842.262 725.584 842.262 722.621 Q842.262 718.478 845.202 716.07 Q848.165 713.663 853.303 713.663 Q858.465 713.663 861.405 716.07 Q864.345 718.478 864.345 722.621 Q864.345 725.584 862.655 727.644 Q860.989 729.704 858.002 730.445 Q861.382 731.232 863.257 733.524 Q865.155 735.816 865.155 739.126 Q865.155 744.149 862.077 746.834 Q859.021 749.519 853.303 749.519 Q847.586 749.519 844.507 746.834 Q841.452 744.149 841.452 739.126 Q841.452 735.816 843.35 733.524 Q845.248 731.232 848.628 730.445 M846.915 723.061 Q846.915 725.746 848.581 727.251 Q850.271 728.755 853.303 728.755 Q856.313 728.755 858.002 727.251 Q859.715 725.746 859.715 723.061 Q859.715 720.376 858.002 718.871 Q856.313 717.367 853.303 717.367 Q850.271 717.367 848.581 718.871 Q846.915 720.376 846.915 723.061 Z" fill="#000000" fill-rule="nonzero" fill-opacity="1" /><path clip-path="url(#clip200)" d="M1150.87 744.913 L1167.19 744.913 L1167.19 748.848 L1145.25 748.848 L1145.25 744.913 Q1147.91 742.158 1152.49 737.528 Q1157.1 732.876 1158.28 731.533 Q1160.53 729.01 1161.4 727.274 Q1162.31 725.515 1162.31 723.825 Q1162.31 721.07 1160.36 719.334 Q1158.44 717.598 1155.34 717.598 Q1153.14 717.598 1150.69 718.362 Q1148.26 719.126 1145.48 720.677 L1145.48 715.955 Q1148.3 714.82 1150.76 714.242 Q1153.21 713.663 1155.25 713.663 Q1160.62 713.663 1163.81 716.348 Q1167.01 719.033 1167.01 723.524 Q1167.01 725.654 1166.2 727.575 Q1165.41 729.473 1163.3 732.066 Q1162.72 732.737 1159.62 735.954 Q1156.52 739.149 1150.87 744.913 Z" fill="#000000" fill-rule="nonzero" fill-opacity="1" /><path clip-path="url(#clip200)" d="M1177.01 742.968 L1181.89 742.968 L1181.89 748.848 L1177.01 748.848 L1177.01 742.968 Z" fill="#000000" fill-rule="nonzero" fill-opacity="1" /><path clip-path="url(#clip200)" d="M1190.9 714.288 L1213.12 714.288 L1213.12 716.279 L1200.57 748.848 L1195.69 748.848 L1207.49 718.223 L1190.9 718.223 L1190.9 714.288 Z" fill="#000000" fill-rule="nonzero" fill-opacity="1" /><path clip-path="url(#clip200)" d="M1232.24 717.367 Q1228.63 717.367 1226.8 720.931 Q1224.99 724.473 1224.99 731.603 Q1224.99 738.709 1226.8 742.274 Q1228.63 745.815 1232.24 745.815 Q1235.87 745.815 1237.68 742.274 Q1239.51 738.709 1239.51 731.603 Q1239.51 724.473 1237.68 720.931 Q1235.87 717.367 1232.24 717.367 M1232.24 713.663 Q1238.05 713.663 1241.1 718.269 Q1244.18 722.853 1244.18 731.603 Q1244.18 740.329 1241.1 744.936 Q1238.05 749.519 1232.24 749.519 Q1226.43 749.519 1223.35 744.936 Q1220.29 740.329 1220.29 731.603 Q1220.29 722.853 1223.35 718.269 Q1226.43 713.663 1232.24 713.663 Z" fill="#000000" fill-rule="nonzero" fill-opacity="1" /><path clip-path="url(#clip200)" d="M1262.4 717.367 Q1258.79 717.367 1256.96 720.931 Q1255.15 724.473 1255.15 731.603 Q1255.15 738.709 1256.96 742.274 Q1258.79 745.815 1262.4 745.815 Q1266.03 745.815 1267.84 742.274 Q1269.67 738.709 1269.67 731.603 Q1269.67 724.473 1267.84 720.931 Q1266.03 717.367 1262.4 717.367 M1262.4 713.663 Q1268.21 713.663 1271.27 718.269 Q1274.34 722.853 1274.34 731.603 Q1274.34 740.329 1271.27 744.936 Q1268.21 749.519 1262.4 749.519 Q1256.59 749.519 1253.51 744.936 Q1250.46 740.329 1250.46 731.603 Q1250.46 722.853 1253.51 718.269 Q1256.59 713.663 1262.4 713.663 Z" fill="#000000" fill-rule="nonzero" fill-opacity="1" /><path clip-path="url(#clip200)" d="M1560.81 744.913 L1577.13 744.913 L1577.13 748.848 L1555.19 748.848 L1555.19 744.913 Q1557.85 742.158 1562.43 737.528 Q1567.04 732.876 1568.22 731.533 Q1570.47 729.01 1571.35 727.274 Q1572.25 725.515 1572.25 723.825 Q1572.25 721.07 1570.3 719.334 Q1568.38 717.598 1565.28 717.598 Q1563.08 717.598 1560.63 718.362 Q1558.2 719.126 1555.42 720.677 L1555.42 715.955 Q1558.24 714.82 1560.7 714.242 Q1563.15 713.663 1565.19 713.663 Q1570.56 713.663 1573.75 716.348 Q1576.95 719.033 1576.95 723.524 Q1576.95 725.654 1576.14 727.575 Q1575.35 729.473 1573.24 732.066 Q1572.67 732.737 1569.56 735.954 Q1566.46 739.149 1560.81 744.913 Z" fill="#000000" fill-rule="nonzero" fill-opacity="1" /><path clip-path="url(#clip200)" d="M1586.95 742.968 L1591.83 742.968 L1591.83 748.848 L1586.95 748.848 L1586.95 742.968 Z" fill="#000000" fill-rule="nonzero" fill-opacity="1" /><path clip-path="url(#clip200)" d="M1600.84 714.288 L1623.06 714.288 L1623.06 716.279 L1610.51 748.848 L1605.63 748.848 L1617.43 718.223 L1600.84 718.223 L1600.84 714.288 Z" fill="#000000" fill-rule="nonzero" fill-opacity="1" /><path clip-path="url(#clip200)" d="M1642.18 717.367 Q1638.57 717.367 1636.74 720.931 Q1634.93 724.473 1634.93 731.603 Q1634.93 738.709 1636.74 742.274 Q1638.57 745.815 1642.18 745.815 Q1645.81 745.815 1647.62 742.274 Q1649.45 738.709 1649.45 731.603 Q1649.45 724.473 1647.62 720.931 Q1645.81 717.367 1642.18 717.367 M1642.18 713.663 Q1647.99 713.663 1651.04 718.269 Q1654.12 722.853 1654.12 731.603 Q1654.12 740.329 1651.04 744.936 Q1647.99 749.519 1642.18 749.519 Q1636.37 749.519 1633.29 744.936 Q1630.23 740.329 1630.23 731.603 Q1630.23 722.853 1633.29 718.269 Q1636.37 713.663 1642.18 713.663 Z" fill="#000000" fill-rule="nonzero" fill-opacity="1" /><path clip-path="url(#clip200)" d="M1666.37 744.913 L1682.69 744.913 L1682.69 748.848 L1660.74 748.848 L1660.74 744.913 Q1663.41 742.158 1667.99 737.528 Q1672.6 732.876 1673.78 731.533 Q1676.02 729.01 1676.9 727.274 Q1677.8 725.515 1677.8 723.825 Q1677.8 721.07 1675.86 719.334 Q1673.94 717.598 1670.84 717.598 Q1668.64 717.598 1666.18 718.362 Q1663.75 719.126 1660.98 720.677 L1660.98 715.955 Q1663.8 714.82 1666.25 714.242 Q1668.71 713.663 1670.74 713.663 Q1676.11 713.663 1679.31 716.348 Q1682.5 719.033 1682.5 723.524 Q1682.5 725.654 1681.69 727.575 Q1680.91 729.473 1678.8 732.066 Q1678.22 732.737 1675.12 735.954 Q1672.02 739.149 1666.37 744.913 Z" fill="#000000" fill-rule="nonzero" fill-opacity="1" /><path clip-path="url(#clip200)" d="M1968.91 744.913 L1985.23 744.913 L1985.23 748.848 L1963.29 748.848 L1963.29 744.913 Q1965.95 742.158 1970.53 737.528 Q1975.14 732.876 1976.32 731.533 Q1978.57 729.01 1979.45 727.274 Q1980.35 725.515 1980.35 723.825 Q1980.35 721.07 1978.41 719.334 Q1976.48 717.598 1973.38 717.598 Q1971.18 717.598 1968.73 718.362 Q1966.3 719.126 1963.52 720.677 L1963.52 715.955 Q1966.35 714.82 1968.8 714.242 Q1971.25 713.663 1973.29 713.663 Q1978.66 713.663 1981.85 716.348 Q1985.05 719.033 1985.05 723.524 Q1985.05 725.654 1984.24 727.575 Q1983.45 729.473 1981.34 732.066 Q1980.77 732.737 1977.66 735.954 Q1974.56 739.149 1968.91 744.913 Z" fill="#000000" fill-rule="nonzero" fill-opacity="1" /><path clip-path="url(#clip200)" d="M1995.05 742.968 L1999.93 742.968 L1999.93 748.848 L1995.05 748.848 L1995.05 742.968 Z" fill="#000000" fill-rule="nonzero" fill-opacity="1" /><path clip-path="url(#clip200)" d="M2008.94 714.288 L2031.16 714.288 L2031.16 716.279 L2018.61 748.848 L2013.73 748.848 L2025.53 718.223 L2008.94 718.223 L2008.94 714.288 Z" fill="#000000" fill-rule="nonzero" fill-opacity="1" /><path clip-path="url(#clip200)" d="M2050.28 717.367 Q2046.67 717.367 2044.84 720.931 Q2043.03 724.473 2043.03 731.603 Q2043.03 738.709 2044.84 742.274 Q2046.67 745.815 2050.28 745.815 Q2053.91 745.815 2055.72 742.274 Q2057.55 738.709 2057.55 731.603 Q2057.55 724.473 2055.72 720.931 Q2053.91 717.367 2050.28 717.367 M2050.28 713.663 Q2056.09 713.663 2059.15 718.269 Q2062.22 722.853 2062.22 731.603 Q2062.22 740.329 2059.15 744.936 Q2056.09 749.519 2050.28 749.519 Q2044.47 749.519 2041.39 744.936 Q2038.34 740.329 2038.34 731.603 Q2038.34 722.853 2041.39 718.269 Q2044.47 713.663 2050.28 713.663 Z" fill="#000000" fill-rule="nonzero" fill-opacity="1" /><path clip-path="url(#clip200)" d="M2083.29 718.362 L2071.48 736.811 L2083.29 736.811 L2083.29 718.362 M2082.06 714.288 L2087.94 714.288 L2087.94 736.811 L2092.87 736.811 L2092.87 740.7 L2087.94 740.7 L2087.94 748.848 L2083.29 748.848 L2083.29 740.7 L2067.69 740.7 L2067.69 736.186 L2082.06 714.288 Z" fill="#000000" fill-rule="nonzero" fill-opacity="1" /><polyline clip-path="url(#clip202)" style="stroke:#000000; stroke-linecap:round; stroke-linejoin:round; stroke-width:2; stroke-opacity:0.1; fill:none" points="169.121,686.448 2352.76,686.448 "/>
<polyline clip-path="url(#clip202)" style="stroke:#000000; stroke-linecap:round; stroke-linejoin:round; stroke-width:2; stroke-opacity:0.1; fill:none" points="169.121,482.88 2352.76,482.88 "/>
<polyline clip-path="url(#clip202)" style="stroke:#000000; stroke-linecap:round; stroke-linejoin:round; stroke-width:2; stroke-opacity:0.1; fill:none" points="169.121,279.312 2352.76,279.312 "/>
<polyline clip-path="url(#clip202)" style="stroke:#000000; stroke-linecap:round; stroke-linejoin:round; stroke-width:2; stroke-opacity:0.1; fill:none" points="169.121,75.7436 2352.76,75.7436 "/>
<polyline clip-path="url(#clip200)" style="stroke:#000000; stroke-linecap:round; stroke-linejoin:round; stroke-width:4; stroke-opacity:1; fill:none" points="169.121,686.448 169.121,47.2441 "/>
<polyline clip-path="url(#clip200)" style="stroke:#000000; stroke-linecap:round; stroke-linejoin:round; stroke-width:4; stroke-opacity:1; fill:none" points="169.121,686.448 188.019,686.448 "/>
<polyline clip-path="url(#clip200)" style="stroke:#000000; stroke-linecap:round; stroke-linejoin:round; stroke-width:4; stroke-opacity:1; fill:none" points="169.121,482.88 188.019,482.88 "/>
<polyline clip-path="url(#clip200)" style="stroke:#000000; stroke-linecap:round; stroke-linejoin:round; stroke-width:4; stroke-opacity:1; fill:none" points="169.121,279.312 188.019,279.312 "/>
<polyline clip-path="url(#clip200)" style="stroke:#000000; stroke-linecap:round; stroke-linejoin:round; stroke-width:4; stroke-opacity:1; fill:none" points="169.121,75.7436 188.019,75.7436 "/>
<path clip-path="url(#clip200)" d="M121.177 672.247 Q117.566 672.247 115.737 675.811 Q113.932 679.353 113.932 686.483 Q113.932 693.589 115.737 697.154 Q117.566 700.695 121.177 700.695 Q124.811 700.695 126.617 697.154 Q128.445 693.589 128.445 686.483 Q128.445 679.353 126.617 675.811 Q124.811 672.247 121.177 672.247 M121.177 668.543 Q126.987 668.543 130.043 673.149 Q133.121 677.733 133.121 686.483 Q133.121 695.209 130.043 699.816 Q126.987 704.399 121.177 704.399 Q115.367 704.399 112.288 699.816 Q109.233 695.209 109.233 686.483 Q109.233 677.733 112.288 673.149 Q115.367 668.543 121.177 668.543 Z" fill="#000000" fill-rule="nonzero" fill-opacity="1" /><path clip-path="url(#clip200)" d="M81.0614 465.6 L99.4178 465.6 L99.4178 469.535 L85.3438 469.535 L85.3438 478.007 Q86.3623 477.66 87.3808 477.498 Q88.3993 477.313 89.4178 477.313 Q95.2049 477.313 98.5845 480.484 Q101.964 483.655 101.964 489.072 Q101.964 494.651 98.4919 497.752 Q95.0197 500.831 88.7003 500.831 Q86.5243 500.831 84.2558 500.461 Q82.0105 500.09 79.6031 499.35 L79.6031 494.651 Q81.6864 495.785 83.9086 496.34 Q86.1308 496.896 88.6077 496.896 Q92.6123 496.896 94.9502 494.789 Q97.2882 492.683 97.2882 489.072 Q97.2882 485.461 94.9502 483.354 Q92.6123 481.248 88.6077 481.248 Q86.7327 481.248 84.8577 481.665 Q83.0058 482.081 81.0614 482.961 L81.0614 465.6 Z" fill="#000000" fill-rule="nonzero" fill-opacity="1" /><path clip-path="url(#clip200)" d="M121.177 468.678 Q117.566 468.678 115.737 472.243 Q113.932 475.785 113.932 482.915 Q113.932 490.021 115.737 493.586 Q117.566 497.127 121.177 497.127 Q124.811 497.127 126.617 493.586 Q128.445 490.021 128.445 482.915 Q128.445 475.785 126.617 472.243 Q124.811 468.678 121.177 468.678 M121.177 464.975 Q126.987 464.975 130.043 469.581 Q133.121 474.165 133.121 482.915 Q133.121 491.641 130.043 496.248 Q126.987 500.831 121.177 500.831 Q115.367 500.831 112.288 496.248 Q109.233 491.641 109.233 482.915 Q109.233 474.165 112.288 469.581 Q115.367 464.975 121.177 464.975 Z" fill="#000000" fill-rule="nonzero" fill-opacity="1" /><path clip-path="url(#clip200)" d="M51.6634 292.657 L59.3023 292.657 L59.3023 266.291 L50.9921 267.958 L50.9921 263.698 L59.256 262.032 L63.9319 262.032 L63.9319 292.657 L71.5707 292.657 L71.5707 296.592 L51.6634 296.592 L51.6634 292.657 Z" fill="#000000" fill-rule="nonzero" fill-opacity="1" /><path clip-path="url(#clip200)" d="M91.0151 265.11 Q87.404 265.11 85.5753 268.675 Q83.7697 272.217 83.7697 279.346 Q83.7697 286.453 85.5753 290.018 Q87.404 293.559 91.0151 293.559 Q94.6493 293.559 96.4548 290.018 Q98.2835 286.453 98.2835 279.346 Q98.2835 272.217 96.4548 268.675 Q94.6493 265.11 91.0151 265.11 M91.0151 261.407 Q96.8252 261.407 99.8808 266.013 Q102.959 270.596 102.959 279.346 Q102.959 288.073 99.8808 292.68 Q96.8252 297.263 91.0151 297.263 Q85.2049 297.263 82.1262 292.68 Q79.0707 288.073 79.0707 279.346 Q79.0707 270.596 82.1262 266.013 Q85.2049 261.407 91.0151 261.407 Z" fill="#000000" fill-rule="nonzero" fill-opacity="1" /><path clip-path="url(#clip200)" d="M121.177 265.11 Q117.566 265.11 115.737 268.675 Q113.932 272.217 113.932 279.346 Q113.932 286.453 115.737 290.018 Q117.566 293.559 121.177 293.559 Q124.811 293.559 126.617 290.018 Q128.445 286.453 128.445 279.346 Q128.445 272.217 126.617 268.675 Q124.811 265.11 121.177 265.11 M121.177 261.407 Q126.987 261.407 130.043 266.013 Q133.121 270.596 133.121 279.346 Q133.121 288.073 130.043 292.68 Q126.987 297.263 121.177 297.263 Q115.367 297.263 112.288 292.68 Q109.233 288.073 109.233 279.346 Q109.233 270.596 112.288 266.013 Q115.367 261.407 121.177 261.407 Z" fill="#000000" fill-rule="nonzero" fill-opacity="1" /><path clip-path="url(#clip200)" d="M51.6634 89.0885 L59.3023 89.0885 L59.3023 62.7229 L50.9921 64.3895 L50.9921 60.1303 L59.256 58.4636 L63.9319 58.4636 L63.9319 89.0885 L71.5707 89.0885 L71.5707 93.0236 L51.6634 93.0236 L51.6634 89.0885 Z" fill="#000000" fill-rule="nonzero" fill-opacity="1" /><path clip-path="url(#clip200)" d="M81.0614 58.4636 L99.4178 58.4636 L99.4178 62.3988 L85.3438 62.3988 L85.3438 70.871 Q86.3623 70.5237 87.3808 70.3617 Q88.3993 70.1765 89.4178 70.1765 Q95.2049 70.1765 98.5845 73.3478 Q101.964 76.5191 101.964 81.9357 Q101.964 87.5144 98.4919 90.6162 Q95.0197 93.6949 88.7003 93.6949 Q86.5243 93.6949 84.2558 93.3246 Q82.0105 92.9542 79.6031 92.2134 L79.6031 87.5144 Q81.6864 88.6486 83.9086 89.2042 Q86.1308 89.7598 88.6077 89.7598 Q92.6123 89.7598 94.9502 87.6533 Q97.2882 85.5468 97.2882 81.9357 Q97.2882 78.3246 94.9502 76.2182 Q92.6123 74.1117 88.6077 74.1117 Q86.7327 74.1117 84.8577 74.5284 Q83.0058 74.945 81.0614 75.8246 L81.0614 58.4636 Z" fill="#000000" fill-rule="nonzero" fill-opacity="1" /><path clip-path="url(#clip200)" d="M121.177 61.5423 Q117.566 61.5423 115.737 65.1071 Q113.932 68.6488 113.932 75.7783 Q113.932 82.8848 115.737 86.4496 Q117.566 89.9912 121.177 89.9912 Q124.811 89.9912 126.617 86.4496 Q128.445 82.8848 128.445 75.7783 Q128.445 68.6488 126.617 65.1071 Q124.811 61.5423 121.177 61.5423 M121.177 57.8386 Q126.987 57.8386 130.043 62.4451 Q133.121 67.0284 133.121 75.7783 Q133.121 84.5052 130.043 89.1116 Q126.987 93.6949 121.177 93.6949 Q115.367 93.6949 112.288 89.1116 Q109.233 84.5052 109.233 75.7783 Q109.233 67.0284 112.288 62.4451 Q115.367 57.8386 121.177 57.8386 Z" fill="#000000" fill-rule="nonzero" fill-opacity="1" /><path clip-path="url(#clip202)" d="M289.225 682.377 L289.225 686.448 L391.511 686.448 L391.511 682.377 L289.225 682.377 L289.225 682.377  Z" fill="#009af9" fill-rule="evenodd" fill-opacity="1"/>
<polyline clip-path="url(#clip202)" style="stroke:#000000; stroke-linecap:round; stroke-linejoin:round; stroke-width:4; stroke-opacity:1; fill:none" points="289.225,682.377 289.225,686.448 391.511,686.448 391.511,682.377 289.225,682.377 "/>
<path clip-path="url(#clip202)" d="M391.511 678.305 L391.511 686.448 L493.796 686.448 L493.796 678.305 L391.511 678.305 L391.511 678.305  Z" fill="#009af9" fill-rule="evenodd" fill-opacity="1"/>
<polyline clip-path="url(#clip202)" style="stroke:#000000; stroke-linecap:round; stroke-linejoin:round; stroke-width:4; stroke-opacity:1; fill:none" points="391.511,678.305 391.511,686.448 493.796,686.448 493.796,678.305 391.511,678.305 "/>
<path clip-path="url(#clip202)" d="M493.796 653.877 L493.796 686.448 L596.082 686.448 L596.082 653.877 L493.796 653.877 L493.796 653.877  Z" fill="#009af9" fill-rule="evenodd" fill-opacity="1"/>
<polyline clip-path="url(#clip202)" style="stroke:#000000; stroke-linecap:round; stroke-linejoin:round; stroke-width:4; stroke-opacity:1; fill:none" points="493.796,653.877 493.796,686.448 596.082,686.448 596.082,653.877 493.796,653.877 "/>
<path clip-path="url(#clip202)" d="M596.082 613.163 L596.082 686.448 L698.368 686.448 L698.368 613.163 L596.082 613.163 L596.082 613.163  Z" fill="#009af9" fill-rule="evenodd" fill-opacity="1"/>
<polyline clip-path="url(#clip202)" style="stroke:#000000; stroke-linecap:round; stroke-linejoin:round; stroke-width:4; stroke-opacity:1; fill:none" points="596.082,613.163 596.082,686.448 698.368,686.448 698.368,613.163 596.082,613.163 "/>
<path clip-path="url(#clip202)" d="M698.368 543.95 L698.368 686.448 L800.653 686.448 L800.653 543.95 L698.368 543.95 L698.368 543.95  Z" fill="#009af9" fill-rule="evenodd" fill-opacity="1"/>
<polyline clip-path="url(#clip202)" style="stroke:#000000; stroke-linecap:round; stroke-linejoin:round; stroke-width:4; stroke-opacity:1; fill:none" points="698.368,543.95 698.368,686.448 800.653,686.448 800.653,543.95 698.368,543.95 "/>
<path clip-path="url(#clip202)" d="M800.653 417.738 L800.653 686.448 L902.939 686.448 L902.939 417.738 L800.653 417.738 L800.653 417.738  Z" fill="#009af9" fill-rule="evenodd" fill-opacity="1"/>
<polyline clip-path="url(#clip202)" style="stroke:#000000; stroke-linecap:round; stroke-linejoin:round; stroke-width:4; stroke-opacity:1; fill:none" points="800.653,417.738 800.653,686.448 902.939,686.448 902.939,417.738 800.653,417.738 "/>
<path clip-path="url(#clip202)" d="M902.939 348.525 L902.939 686.448 L1005.22 686.448 L1005.22 348.525 L902.939 348.525 L902.939 348.525  Z" fill="#009af9" fill-rule="evenodd" fill-opacity="1"/>
<polyline clip-path="url(#clip202)" style="stroke:#000000; stroke-linecap:round; stroke-linejoin:round; stroke-width:4; stroke-opacity:1; fill:none" points="902.939,348.525 902.939,686.448 1005.22,686.448 1005.22,348.525 902.939,348.525 "/>
<path clip-path="url(#clip202)" d="M1005.22 153.099 L1005.22 686.448 L1107.51 686.448 L1107.51 153.099 L1005.22 153.099 L1005.22 153.099  Z" fill="#009af9" fill-rule="evenodd" fill-opacity="1"/>
<polyline clip-path="url(#clip202)" style="stroke:#000000; stroke-linecap:round; stroke-linejoin:round; stroke-width:4; stroke-opacity:1; fill:none" points="1005.22,153.099 1005.22,686.448 1107.51,686.448 1107.51,153.099 1005.22,153.099 "/>
<path clip-path="url(#clip202)" d="M1107.51 47.2441 L1107.51 686.448 L1209.8 686.448 L1209.8 47.2441 L1107.51 47.2441 L1107.51 47.2441  Z" fill="#009af9" fill-rule="evenodd" fill-opacity="1"/>
<polyline clip-path="url(#clip202)" style="stroke:#000000; stroke-linecap:round; stroke-linejoin:round; stroke-width:4; stroke-opacity:1; fill:none" points="1107.51,47.2441 1107.51,686.448 1209.8,686.448 1209.8,47.2441 1107.51,47.2441 "/>
<path clip-path="url(#clip202)" d="M1209.8 136.814 L1209.8 686.448 L1312.08 686.448 L1312.08 136.814 L1209.8 136.814 L1209.8 136.814  Z" fill="#009af9" fill-rule="evenodd" fill-opacity="1"/>
<polyline clip-path="url(#clip202)" style="stroke:#000000; stroke-linecap:round; stroke-linejoin:round; stroke-width:4; stroke-opacity:1; fill:none" points="1209.8,136.814 1209.8,686.448 1312.08,686.448 1312.08,136.814 1209.8,136.814 "/>
<path clip-path="url(#clip202)" d="M1312.08 149.028 L1312.08 686.448 L1414.37 686.448 L1414.37 149.028 L1312.08 149.028 L1312.08 149.028  Z" fill="#009af9" fill-rule="evenodd" fill-opacity="1"/>
<polyline clip-path="url(#clip202)" style="stroke:#000000; stroke-linecap:round; stroke-linejoin:round; stroke-width:4; stroke-opacity:1; fill:none" points="1312.08,149.028 1312.08,686.448 1414.37,686.448 1414.37,149.028 1312.08,149.028 "/>
<path clip-path="url(#clip202)" d="M1414.37 283.383 L1414.37 686.448 L1516.65 686.448 L1516.65 283.383 L1414.37 283.383 L1414.37 283.383  Z" fill="#009af9" fill-rule="evenodd" fill-opacity="1"/>
<polyline clip-path="url(#clip202)" style="stroke:#000000; stroke-linecap:round; stroke-linejoin:round; stroke-width:4; stroke-opacity:1; fill:none" points="1414.37,283.383 1414.37,686.448 1516.65,686.448 1516.65,283.383 1414.37,283.383 "/>
<path clip-path="url(#clip202)" d="M1516.65 377.024 L1516.65 686.448 L1618.94 686.448 L1618.94 377.024 L1516.65 377.024 L1516.65 377.024  Z" fill="#009af9" fill-rule="evenodd" fill-opacity="1"/>
<polyline clip-path="url(#clip202)" style="stroke:#000000; stroke-linecap:round; stroke-linejoin:round; stroke-width:4; stroke-opacity:1; fill:none" points="1516.65,377.024 1516.65,686.448 1618.94,686.448 1618.94,377.024 1516.65,377.024 "/>
<path clip-path="url(#clip202)" d="M1618.94 564.307 L1618.94 686.448 L1721.22 686.448 L1721.22 564.307 L1618.94 564.307 L1618.94 564.307  Z" fill="#009af9" fill-rule="evenodd" fill-opacity="1"/>
<polyline clip-path="url(#clip202)" style="stroke:#000000; stroke-linecap:round; stroke-linejoin:round; stroke-width:4; stroke-opacity:1; fill:none" points="1618.94,564.307 1618.94,686.448 1721.22,686.448 1721.22,564.307 1618.94,564.307 "/>
<path clip-path="url(#clip202)" d="M1721.22 629.449 L1721.22 686.448 L1823.51 686.448 L1823.51 629.449 L1721.22 629.449 L1721.22 629.449  Z" fill="#009af9" fill-rule="evenodd" fill-opacity="1"/>
<polyline clip-path="url(#clip202)" style="stroke:#000000; stroke-linecap:round; stroke-linejoin:round; stroke-width:4; stroke-opacity:1; fill:none" points="1721.22,629.449 1721.22,686.448 1823.51,686.448 1823.51,629.449 1721.22,629.449 "/>
<path clip-path="url(#clip202)" d="M1823.51 645.734 L1823.51 686.448 L1925.8 686.448 L1925.8 645.734 L1823.51 645.734 L1823.51 645.734  Z" fill="#009af9" fill-rule="evenodd" fill-opacity="1"/>
<polyline clip-path="url(#clip202)" style="stroke:#000000; stroke-linecap:round; stroke-linejoin:round; stroke-width:4; stroke-opacity:1; fill:none" points="1823.51,645.734 1823.51,686.448 1925.8,686.448 1925.8,645.734 1823.51,645.734 "/>
<path clip-path="url(#clip202)" d="M1925.8 678.305 L1925.8 686.448 L2028.08 686.448 L2028.08 678.305 L1925.8 678.305 L1925.8 678.305  Z" fill="#009af9" fill-rule="evenodd" fill-opacity="1"/>
<polyline clip-path="url(#clip202)" style="stroke:#000000; stroke-linecap:round; stroke-linejoin:round; stroke-width:4; stroke-opacity:1; fill:none" points="1925.8,678.305 1925.8,686.448 2028.08,686.448 2028.08,678.305 1925.8,678.305 "/>
<path clip-path="url(#clip202)" d="M2028.08 686.448 L2028.08 686.448 L2130.37 686.448 L2130.37 686.448 L2028.08 686.448 L2028.08 686.448  Z" fill="#009af9" fill-rule="evenodd" fill-opacity="1"/>
<polyline clip-path="url(#clip202)" style="stroke:#000000; stroke-linecap:round; stroke-linejoin:round; stroke-width:4; stroke-opacity:1; fill:none" points="2028.08,686.448 2028.08,686.448 2130.37,686.448 2028.08,686.448 "/>
<path clip-path="url(#clip202)" d="M2130.37 682.377 L2130.37 686.448 L2232.65 686.448 L2232.65 682.377 L2130.37 682.377 L2130.37 682.377  Z" fill="#009af9" fill-rule="evenodd" fill-opacity="1"/>
<polyline clip-path="url(#clip202)" style="stroke:#000000; stroke-linecap:round; stroke-linejoin:round; stroke-width:4; stroke-opacity:1; fill:none" points="2130.37,682.377 2130.37,686.448 2232.65,686.448 2232.65,682.377 2130.37,682.377 "/>
<circle clip-path="url(#clip202)" style="fill:#009af9; stroke:none; fill-opacity:0" cx="340.368" cy="682.377" r="2"/>
<circle clip-path="url(#clip202)" style="fill:#009af9; stroke:none; fill-opacity:0" cx="442.654" cy="678.305" r="2"/>
<circle clip-path="url(#clip202)" style="fill:#009af9; stroke:none; fill-opacity:0" cx="544.939" cy="653.877" r="2"/>
<circle clip-path="url(#clip202)" style="fill:#009af9; stroke:none; fill-opacity:0" cx="647.225" cy="613.163" r="2"/>
<circle clip-path="url(#clip202)" style="fill:#009af9; stroke:none; fill-opacity:0" cx="749.51" cy="543.95" r="2"/>
<circle clip-path="url(#clip202)" style="fill:#009af9; stroke:none; fill-opacity:0" cx="851.796" cy="417.738" r="2"/>
<circle clip-path="url(#clip202)" style="fill:#009af9; stroke:none; fill-opacity:0" cx="954.082" cy="348.525" r="2"/>
<circle clip-path="url(#clip202)" style="fill:#009af9; stroke:none; fill-opacity:0" cx="1056.37" cy="153.099" r="2"/>
<circle clip-path="url(#clip202)" style="fill:#009af9; stroke:none; fill-opacity:0" cx="1158.65" cy="47.2441" r="2"/>
<circle clip-path="url(#clip202)" style="fill:#009af9; stroke:none; fill-opacity:0" cx="1260.94" cy="136.814" r="2"/>
<circle clip-path="url(#clip202)" style="fill:#009af9; stroke:none; fill-opacity:0" cx="1363.22" cy="149.028" r="2"/>
<circle clip-path="url(#clip202)" style="fill:#009af9; stroke:none; fill-opacity:0" cx="1465.51" cy="283.383" r="2"/>
<circle clip-path="url(#clip202)" style="fill:#009af9; stroke:none; fill-opacity:0" cx="1567.8" cy="377.024" r="2"/>
<circle clip-path="url(#clip202)" style="fill:#009af9; stroke:none; fill-opacity:0" cx="1670.08" cy="564.307" r="2"/>
<circle clip-path="url(#clip202)" style="fill:#009af9; stroke:none; fill-opacity:0" cx="1772.37" cy="629.449" r="2"/>
<circle clip-path="url(#clip202)" style="fill:#009af9; stroke:none; fill-opacity:0" cx="1874.65" cy="645.734" r="2"/>
<circle clip-path="url(#clip202)" style="fill:#009af9; stroke:none; fill-opacity:0" cx="1976.94" cy="678.305" r="2"/>
<circle clip-path="url(#clip202)" style="fill:#009af9; stroke:none; fill-opacity:0" cx="2079.22" cy="686.448" r="2"/>
<circle clip-path="url(#clip202)" style="fill:#009af9; stroke:none; fill-opacity:0" cx="2181.51" cy="682.377" r="2"/>
<path clip-path="url(#clip200)" d="M2029.94 172.231 L2279.97 172.231 L2279.97 68.5509 L2029.94 68.5509  Z" fill="#ffffff" fill-rule="evenodd" fill-opacity="1"/>
<polyline clip-path="url(#clip200)" style="stroke:#000000; stroke-linecap:round; stroke-linejoin:round; stroke-width:4; stroke-opacity:1; fill:none" points="2029.94,172.231 2279.97,172.231 2279.97,68.5509 2029.94,68.5509 2029.94,172.231 "/>
<path clip-path="url(#clip200)" d="M2054.2 141.127 L2199.78 141.127 L2199.78 99.6549 L2054.2 99.6549 L2054.2 141.127  Z" fill="#009af9" fill-rule="evenodd" fill-opacity="1"/>
<polyline clip-path="url(#clip200)" style="stroke:#000000; stroke-linecap:round; stroke-linejoin:round; stroke-width:4; stroke-opacity:1; fill:none" points="2054.2,141.127 2199.78,141.127 2199.78,99.6549 2054.2,99.6549 2054.2,141.127 "/>
<path clip-path="url(#clip200)" d="M2239.87 107.717 L2233.53 124.916 L2246.24 124.916 L2239.87 107.717 M2237.23 103.111 L2242.53 103.111 L2255.71 137.671 L2250.84 137.671 L2247.7 128.805 L2232.12 128.805 L2228.97 137.671 L2224.04 137.671 L2237.23 103.111 Z" fill="#000000" fill-rule="nonzero" fill-opacity="1" /><path clip-path="url(#clip200)" d="M169.121 1486.45 L2352.76 1486.45 L2352.76 847.244 L169.121 847.244  Z" fill="#ffffff" fill-rule="evenodd" fill-opacity="1"/>
<defs>
  <clipPath id="clip203">
    <rect x="169" y="847" width="2185" height="640"/>
  </clipPath>
</defs>
<polyline clip-path="url(#clip203)" style="stroke:#000000; stroke-linecap:round; stroke-linejoin:round; stroke-width:2; stroke-opacity:0.1; fill:none" points="532.153,1486.45 532.153,847.244 "/>
<polyline clip-path="url(#clip203)" style="stroke:#000000; stroke-linecap:round; stroke-linejoin:round; stroke-width:2; stroke-opacity:0.1; fill:none" points="896.546,1486.45 896.546,847.244 "/>
<polyline clip-path="url(#clip203)" style="stroke:#000000; stroke-linecap:round; stroke-linejoin:round; stroke-width:2; stroke-opacity:0.1; fill:none" points="1260.94,1486.45 1260.94,847.244 "/>
<polyline clip-path="url(#clip203)" style="stroke:#000000; stroke-linecap:round; stroke-linejoin:round; stroke-width:2; stroke-opacity:0.1; fill:none" points="1625.33,1486.45 1625.33,847.244 "/>
<polyline clip-path="url(#clip203)" style="stroke:#000000; stroke-linecap:round; stroke-linejoin:round; stroke-width:2; stroke-opacity:0.1; fill:none" points="1989.72,1486.45 1989.72,847.244 "/>
<polyline clip-path="url(#clip200)" style="stroke:#000000; stroke-linecap:round; stroke-linejoin:round; stroke-width:4; stroke-opacity:1; fill:none" points="169.121,1486.45 2352.76,1486.45 "/>
<polyline clip-path="url(#clip200)" style="stroke:#000000; stroke-linecap:round; stroke-linejoin:round; stroke-width:4; stroke-opacity:1; fill:none" points="532.153,1486.45 532.153,1467.55 "/>
<polyline clip-path="url(#clip200)" style="stroke:#000000; stroke-linecap:round; stroke-linejoin:round; stroke-width:4; stroke-opacity:1; fill:none" points="896.546,1486.45 896.546,1467.55 "/>
<polyline clip-path="url(#clip200)" style="stroke:#000000; stroke-linecap:round; stroke-linejoin:round; stroke-width:4; stroke-opacity:1; fill:none" points="1260.94,1486.45 1260.94,1467.55 "/>
<polyline clip-path="url(#clip200)" style="stroke:#000000; stroke-linecap:round; stroke-linejoin:round; stroke-width:4; stroke-opacity:1; fill:none" points="1625.33,1486.45 1625.33,1467.55 "/>
<polyline clip-path="url(#clip200)" style="stroke:#000000; stroke-linecap:round; stroke-linejoin:round; stroke-width:4; stroke-opacity:1; fill:none" points="1989.72,1486.45 1989.72,1467.55 "/>
<path clip-path="url(#clip200)" d="M461.61 1514.29 L479.966 1514.29 L479.966 1518.22 L465.892 1518.22 L465.892 1526.7 Q466.911 1526.35 467.929 1526.19 Q468.948 1526 469.966 1526 Q475.753 1526 479.133 1529.17 Q482.513 1532.34 482.513 1537.76 Q482.513 1543.34 479.04 1546.44 Q475.568 1549.52 469.249 1549.52 Q467.073 1549.52 464.804 1549.15 Q462.559 1548.78 460.152 1548.04 L460.152 1543.34 Q462.235 1544.47 464.457 1545.03 Q466.679 1545.58 469.156 1545.58 Q473.161 1545.58 475.499 1543.48 Q477.837 1541.37 477.837 1537.76 Q477.837 1534.15 475.499 1532.04 Q473.161 1529.94 469.156 1529.94 Q467.281 1529.94 465.406 1530.35 Q463.554 1530.77 461.61 1531.65 L461.61 1514.29 Z" fill="#000000" fill-rule="nonzero" fill-opacity="1" /><path clip-path="url(#clip200)" d="M491.864 1548.13 L491.864 1543.87 Q493.624 1544.7 495.429 1545.14 Q497.235 1545.58 498.971 1545.58 Q503.6 1545.58 506.031 1542.48 Q508.485 1539.36 508.832 1533.01 Q507.489 1535.01 505.429 1536.07 Q503.369 1537.13 500.869 1537.13 Q495.684 1537.13 492.651 1534.01 Q489.642 1530.86 489.642 1525.42 Q489.642 1520.1 492.79 1516.88 Q495.938 1513.66 501.17 1513.66 Q507.165 1513.66 510.313 1518.27 Q513.485 1522.85 513.485 1531.6 Q513.485 1539.77 509.596 1544.66 Q505.73 1549.52 499.179 1549.52 Q497.42 1549.52 495.614 1549.17 Q493.809 1548.82 491.864 1548.13 M501.17 1533.48 Q504.318 1533.48 506.147 1531.32 Q507.999 1529.17 507.999 1525.42 Q507.999 1521.7 506.147 1519.54 Q504.318 1517.37 501.17 1517.37 Q498.022 1517.37 496.17 1519.54 Q494.341 1521.7 494.341 1525.42 Q494.341 1529.17 496.17 1531.32 Q498.022 1533.48 501.17 1533.48 Z" fill="#000000" fill-rule="nonzero" fill-opacity="1" /><path clip-path="url(#clip200)" d="M534.734 1518.36 L522.929 1536.81 L534.734 1536.81 L534.734 1518.36 M533.508 1514.29 L539.387 1514.29 L539.387 1536.81 L544.318 1536.81 L544.318 1540.7 L539.387 1540.7 L539.387 1548.85 L534.734 1548.85 L534.734 1540.7 L519.133 1540.7 L519.133 1536.19 L533.508 1514.29 Z" fill="#000000" fill-rule="nonzero" fill-opacity="1" /><path clip-path="url(#clip200)" d="M562.049 1517.37 Q558.438 1517.37 556.609 1520.93 Q554.804 1524.47 554.804 1531.6 Q554.804 1538.71 556.609 1542.27 Q558.438 1545.82 562.049 1545.82 Q565.683 1545.82 567.489 1542.27 Q569.318 1538.71 569.318 1531.6 Q569.318 1524.47 567.489 1520.93 Q565.683 1517.37 562.049 1517.37 M562.049 1513.66 Q567.859 1513.66 570.915 1518.27 Q573.994 1522.85 573.994 1531.6 Q573.994 1540.33 570.915 1544.94 Q567.859 1549.52 562.049 1549.52 Q556.239 1549.52 553.16 1544.94 Q550.105 1540.33 550.105 1531.6 Q550.105 1522.85 553.16 1518.27 Q556.239 1513.66 562.049 1513.66 Z" fill="#000000" fill-rule="nonzero" fill-opacity="1" /><path clip-path="url(#clip200)" d="M592.211 1517.37 Q588.6 1517.37 586.771 1520.93 Q584.966 1524.47 584.966 1531.6 Q584.966 1538.71 586.771 1542.27 Q588.6 1545.82 592.211 1545.82 Q595.845 1545.82 597.651 1542.27 Q599.48 1538.71 599.48 1531.6 Q599.48 1524.47 597.651 1520.93 Q595.845 1517.37 592.211 1517.37 M592.211 1513.66 Q598.021 1513.66 601.077 1518.27 Q604.155 1522.85 604.155 1531.6 Q604.155 1540.33 601.077 1544.94 Q598.021 1549.52 592.211 1549.52 Q586.401 1549.52 583.322 1544.94 Q580.267 1540.33 580.267 1531.6 Q580.267 1522.85 583.322 1518.27 Q586.401 1513.66 592.211 1513.66 Z" fill="#000000" fill-rule="nonzero" fill-opacity="1" /><path clip-path="url(#clip200)" d="M826.002 1514.29 L844.359 1514.29 L844.359 1518.22 L830.285 1518.22 L830.285 1526.7 Q831.303 1526.35 832.322 1526.19 Q833.34 1526 834.359 1526 Q840.146 1526 843.525 1529.17 Q846.905 1532.34 846.905 1537.76 Q846.905 1543.34 843.433 1546.44 Q839.961 1549.52 833.641 1549.52 Q831.465 1549.52 829.197 1549.15 Q826.952 1548.78 824.544 1548.04 L824.544 1543.34 Q826.627 1544.47 828.85 1545.03 Q831.072 1545.58 833.549 1545.58 Q837.553 1545.58 839.891 1543.48 Q842.229 1541.37 842.229 1537.76 Q842.229 1534.15 839.891 1532.04 Q837.553 1529.94 833.549 1529.94 Q831.674 1529.94 829.799 1530.35 Q827.947 1530.77 826.002 1531.65 L826.002 1514.29 Z" fill="#000000" fill-rule="nonzero" fill-opacity="1" /><path clip-path="url(#clip200)" d="M856.257 1548.13 L856.257 1543.87 Q858.016 1544.7 859.822 1545.14 Q861.627 1545.58 863.363 1545.58 Q867.993 1545.58 870.424 1542.48 Q872.877 1539.36 873.224 1533.01 Q871.882 1535.01 869.822 1536.07 Q867.761 1537.13 865.261 1537.13 Q860.076 1537.13 857.044 1534.01 Q854.035 1530.86 854.035 1525.42 Q854.035 1520.1 857.183 1516.88 Q860.331 1513.66 865.562 1513.66 Q871.558 1513.66 874.706 1518.27 Q877.877 1522.85 877.877 1531.6 Q877.877 1539.77 873.988 1544.66 Q870.123 1549.52 863.572 1549.52 Q861.812 1549.52 860.007 1549.17 Q858.201 1548.82 856.257 1548.13 M865.562 1533.48 Q868.711 1533.48 870.539 1531.32 Q872.391 1529.17 872.391 1525.42 Q872.391 1521.7 870.539 1519.54 Q868.711 1517.37 865.562 1517.37 Q862.414 1517.37 860.562 1519.54 Q858.734 1521.7 858.734 1525.42 Q858.734 1529.17 860.562 1531.32 Q862.414 1533.48 865.562 1533.48 Z" fill="#000000" fill-rule="nonzero" fill-opacity="1" /><path clip-path="url(#clip200)" d="M885.099 1514.29 L907.321 1514.29 L907.321 1516.28 L894.775 1548.85 L889.891 1548.85 L901.696 1518.22 L885.099 1518.22 L885.099 1514.29 Z" fill="#000000" fill-rule="nonzero" fill-opacity="1" /><path clip-path="url(#clip200)" d="M926.442 1517.37 Q922.831 1517.37 921.002 1520.93 Q919.196 1524.47 919.196 1531.6 Q919.196 1538.71 921.002 1542.27 Q922.831 1545.82 926.442 1545.82 Q930.076 1545.82 931.882 1542.27 Q933.71 1538.71 933.71 1531.6 Q933.71 1524.47 931.882 1520.93 Q930.076 1517.37 926.442 1517.37 M926.442 1513.66 Q932.252 1513.66 935.307 1518.27 Q938.386 1522.85 938.386 1531.6 Q938.386 1540.33 935.307 1544.94 Q932.252 1549.52 926.442 1549.52 Q920.632 1549.52 917.553 1544.94 Q914.497 1540.33 914.497 1531.6 Q914.497 1522.85 917.553 1518.27 Q920.632 1513.66 926.442 1513.66 Z" fill="#000000" fill-rule="nonzero" fill-opacity="1" /><path clip-path="url(#clip200)" d="M956.604 1517.37 Q952.993 1517.37 951.164 1520.93 Q949.358 1524.47 949.358 1531.6 Q949.358 1538.71 951.164 1542.27 Q952.993 1545.82 956.604 1545.82 Q960.238 1545.82 962.043 1542.27 Q963.872 1538.71 963.872 1531.6 Q963.872 1524.47 962.043 1520.93 Q960.238 1517.37 956.604 1517.37 M956.604 1513.66 Q962.414 1513.66 965.469 1518.27 Q968.548 1522.85 968.548 1531.6 Q968.548 1540.33 965.469 1544.94 Q962.414 1549.52 956.604 1549.52 Q950.793 1549.52 947.715 1544.94 Q944.659 1540.33 944.659 1531.6 Q944.659 1522.85 947.715 1518.27 Q950.793 1513.66 956.604 1513.66 Z" fill="#000000" fill-rule="nonzero" fill-opacity="1" /><path clip-path="url(#clip200)" d="M1201.1 1529.7 Q1197.95 1529.7 1196.1 1531.86 Q1194.27 1534.01 1194.27 1537.76 Q1194.27 1541.49 1196.1 1543.66 Q1197.95 1545.82 1201.1 1545.82 Q1204.25 1545.82 1206.08 1543.66 Q1207.93 1541.49 1207.93 1537.76 Q1207.93 1534.01 1206.08 1531.86 Q1204.25 1529.7 1201.1 1529.7 M1210.38 1515.05 L1210.38 1519.31 Q1208.62 1518.48 1206.82 1518.04 Q1205.04 1517.6 1203.28 1517.6 Q1198.65 1517.6 1196.19 1520.72 Q1193.76 1523.85 1193.42 1530.17 Q1194.78 1528.15 1196.84 1527.09 Q1198.9 1526 1201.38 1526 Q1206.59 1526 1209.6 1529.17 Q1212.63 1532.32 1212.63 1537.76 Q1212.63 1543.08 1209.48 1546.3 Q1206.33 1549.52 1201.1 1549.52 Q1195.11 1549.52 1191.93 1544.94 Q1188.76 1540.33 1188.76 1531.6 Q1188.76 1523.41 1192.65 1518.55 Q1196.54 1513.66 1203.09 1513.66 Q1204.85 1513.66 1206.63 1514.01 Q1208.44 1514.36 1210.38 1515.05 Z" fill="#000000" fill-rule="nonzero" fill-opacity="1" /><path clip-path="url(#clip200)" d="M1230.68 1517.37 Q1227.07 1517.37 1225.24 1520.93 Q1223.44 1524.47 1223.44 1531.6 Q1223.44 1538.71 1225.24 1542.27 Q1227.07 1545.82 1230.68 1545.82 Q1234.32 1545.82 1236.12 1542.27 Q1237.95 1538.71 1237.95 1531.6 Q1237.95 1524.47 1236.12 1520.93 Q1234.32 1517.37 1230.68 1517.37 M1230.68 1513.66 Q1236.49 1513.66 1239.55 1518.27 Q1242.63 1522.85 1242.63 1531.6 Q1242.63 1540.33 1239.55 1544.94 Q1236.49 1549.52 1230.68 1549.52 Q1224.87 1549.52 1221.8 1544.94 Q1218.74 1540.33 1218.74 1531.6 Q1218.74 1522.85 1221.8 1518.27 Q1224.87 1513.66 1230.68 1513.66 Z" fill="#000000" fill-rule="nonzero" fill-opacity="1" /><path clip-path="url(#clip200)" d="M1260.85 1517.37 Q1257.23 1517.37 1255.41 1520.93 Q1253.6 1524.47 1253.6 1531.6 Q1253.6 1538.71 1255.41 1542.27 Q1257.23 1545.82 1260.85 1545.82 Q1264.48 1545.82 1266.29 1542.27 Q1268.11 1538.71 1268.11 1531.6 Q1268.11 1524.47 1266.29 1520.93 Q1264.48 1517.37 1260.85 1517.37 M1260.85 1513.66 Q1266.66 1513.66 1269.71 1518.27 Q1272.79 1522.85 1272.79 1531.6 Q1272.79 1540.33 1269.71 1544.94 Q1266.66 1549.52 1260.85 1549.52 Q1255.04 1549.52 1251.96 1544.94 Q1248.9 1540.33 1248.9 1531.6 Q1248.9 1522.85 1251.96 1518.27 Q1255.04 1513.66 1260.85 1513.66 Z" fill="#000000" fill-rule="nonzero" fill-opacity="1" /><path clip-path="url(#clip200)" d="M1291.01 1517.37 Q1287.4 1517.37 1285.57 1520.93 Q1283.76 1524.47 1283.76 1531.6 Q1283.76 1538.71 1285.57 1542.27 Q1287.4 1545.82 1291.01 1545.82 Q1294.64 1545.82 1296.45 1542.27 Q1298.28 1538.71 1298.28 1531.6 Q1298.28 1524.47 1296.45 1520.93 Q1294.64 1517.37 1291.01 1517.37 M1291.01 1513.66 Q1296.82 1513.66 1299.87 1518.27 Q1302.95 1522.85 1302.95 1531.6 Q1302.95 1540.33 1299.87 1544.94 Q1296.82 1549.52 1291.01 1549.52 Q1285.2 1549.52 1282.12 1544.94 Q1279.06 1540.33 1279.06 1531.6 Q1279.06 1522.85 1282.12 1518.27 Q1285.2 1513.66 1291.01 1513.66 Z" fill="#000000" fill-rule="nonzero" fill-opacity="1" /><path clip-path="url(#clip200)" d="M1321.17 1517.37 Q1317.56 1517.37 1315.73 1520.93 Q1313.92 1524.47 1313.92 1531.6 Q1313.92 1538.71 1315.73 1542.27 Q1317.56 1545.82 1321.17 1545.82 Q1324.8 1545.82 1326.61 1542.27 Q1328.44 1538.71 1328.44 1531.6 Q1328.44 1524.47 1326.61 1520.93 Q1324.8 1517.37 1321.17 1517.37 M1321.17 1513.66 Q1326.98 1513.66 1330.04 1518.27 Q1333.11 1522.85 1333.11 1531.6 Q1333.11 1540.33 1330.04 1544.94 Q1326.98 1549.52 1321.17 1549.52 Q1315.36 1549.52 1312.28 1544.94 Q1309.23 1540.33 1309.23 1531.6 Q1309.23 1522.85 1312.28 1518.27 Q1315.36 1513.66 1321.17 1513.66 Z" fill="#000000" fill-rule="nonzero" fill-opacity="1" /><path clip-path="url(#clip200)" d="M1565.49 1529.7 Q1562.35 1529.7 1560.49 1531.86 Q1558.66 1534.01 1558.66 1537.76 Q1558.66 1541.49 1560.49 1543.66 Q1562.35 1545.82 1565.49 1545.82 Q1568.64 1545.82 1570.47 1543.66 Q1572.32 1541.49 1572.32 1537.76 Q1572.32 1534.01 1570.47 1531.86 Q1568.64 1529.7 1565.49 1529.7 M1574.78 1515.05 L1574.78 1519.31 Q1573.02 1518.48 1571.21 1518.04 Q1569.43 1517.6 1567.67 1517.6 Q1563.04 1517.6 1560.59 1520.72 Q1558.16 1523.85 1557.81 1530.17 Q1559.17 1528.15 1561.23 1527.09 Q1563.29 1526 1565.77 1526 Q1570.98 1526 1573.99 1529.17 Q1577.02 1532.32 1577.02 1537.76 Q1577.02 1543.08 1573.87 1546.3 Q1570.72 1549.52 1565.49 1549.52 Q1559.5 1549.52 1556.33 1544.94 Q1553.16 1540.33 1553.16 1531.6 Q1553.16 1523.41 1557.04 1518.55 Q1560.93 1513.66 1567.48 1513.66 Q1569.24 1513.66 1571.03 1514.01 Q1572.83 1514.36 1574.78 1515.05 Z" fill="#000000" fill-rule="nonzero" fill-opacity="1" /><path clip-path="url(#clip200)" d="M1595.08 1517.37 Q1591.47 1517.37 1589.64 1520.93 Q1587.83 1524.47 1587.83 1531.6 Q1587.83 1538.71 1589.64 1542.27 Q1591.47 1545.82 1595.08 1545.82 Q1598.71 1545.82 1600.52 1542.27 Q1602.35 1538.71 1602.35 1531.6 Q1602.35 1524.47 1600.52 1520.93 Q1598.71 1517.37 1595.08 1517.37 M1595.08 1513.66 Q1600.89 1513.66 1603.94 1518.27 Q1607.02 1522.85 1607.02 1531.6 Q1607.02 1540.33 1603.94 1544.94 Q1600.89 1549.52 1595.08 1549.52 Q1589.27 1549.52 1586.19 1544.94 Q1583.13 1540.33 1583.13 1531.6 Q1583.13 1522.85 1586.19 1518.27 Q1589.27 1513.66 1595.08 1513.66 Z" fill="#000000" fill-rule="nonzero" fill-opacity="1" /><path clip-path="url(#clip200)" d="M1629.41 1530.21 Q1632.76 1530.93 1634.64 1533.2 Q1636.53 1535.47 1636.53 1538.8 Q1636.53 1543.92 1633.02 1546.72 Q1629.5 1549.52 1623.02 1549.52 Q1620.84 1549.52 1618.53 1549.08 Q1616.23 1548.66 1613.78 1547.81 L1613.78 1543.29 Q1615.72 1544.43 1618.04 1545.01 Q1620.35 1545.58 1622.88 1545.58 Q1627.28 1545.58 1629.57 1543.85 Q1631.88 1542.11 1631.88 1538.8 Q1631.88 1535.75 1629.73 1534.03 Q1627.6 1532.3 1623.78 1532.3 L1619.75 1532.3 L1619.75 1528.45 L1623.97 1528.45 Q1627.41 1528.45 1629.24 1527.09 Q1631.07 1525.7 1631.07 1523.11 Q1631.07 1520.45 1629.17 1519.03 Q1627.3 1517.6 1623.78 1517.6 Q1621.86 1517.6 1619.66 1518.01 Q1617.46 1518.43 1614.82 1519.31 L1614.82 1515.14 Q1617.48 1514.4 1619.8 1514.03 Q1622.14 1513.66 1624.2 1513.66 Q1629.52 1513.66 1632.62 1516.09 Q1635.72 1518.5 1635.72 1522.62 Q1635.72 1525.49 1634.08 1527.48 Q1632.44 1529.45 1629.41 1530.21 Z" fill="#000000" fill-rule="nonzero" fill-opacity="1" /><path clip-path="url(#clip200)" d="M1655.4 1517.37 Q1651.79 1517.37 1649.96 1520.93 Q1648.16 1524.47 1648.16 1531.6 Q1648.16 1538.71 1649.96 1542.27 Q1651.79 1545.82 1655.4 1545.82 Q1659.03 1545.82 1660.84 1542.27 Q1662.67 1538.71 1662.67 1531.6 Q1662.67 1524.47 1660.84 1520.93 Q1659.03 1517.37 1655.4 1517.37 M1655.4 1513.66 Q1661.21 1513.66 1664.27 1518.27 Q1667.34 1522.85 1667.34 1531.6 Q1667.34 1540.33 1664.27 1544.94 Q1661.21 1549.52 1655.4 1549.52 Q1649.59 1549.52 1646.51 1544.94 Q1643.46 1540.33 1643.46 1531.6 Q1643.46 1522.85 1646.51 1518.27 Q1649.59 1513.66 1655.4 1513.66 Z" fill="#000000" fill-rule="nonzero" fill-opacity="1" /><path clip-path="url(#clip200)" d="M1685.56 1517.37 Q1681.95 1517.37 1680.12 1520.93 Q1678.32 1524.47 1678.32 1531.6 Q1678.32 1538.71 1680.12 1542.27 Q1681.95 1545.82 1685.56 1545.82 Q1689.2 1545.82 1691 1542.27 Q1692.83 1538.71 1692.83 1531.6 Q1692.83 1524.47 1691 1520.93 Q1689.2 1517.37 1685.56 1517.37 M1685.56 1513.66 Q1691.37 1513.66 1694.43 1518.27 Q1697.51 1522.85 1697.51 1531.6 Q1697.51 1540.33 1694.43 1544.94 Q1691.37 1549.52 1685.56 1549.52 Q1679.75 1549.52 1676.67 1544.94 Q1673.62 1540.33 1673.62 1531.6 Q1673.62 1522.85 1676.67 1518.27 Q1679.75 1513.66 1685.56 1513.66 Z" fill="#000000" fill-rule="nonzero" fill-opacity="1" /><path clip-path="url(#clip200)" d="M1929.89 1529.7 Q1926.74 1529.7 1924.89 1531.86 Q1923.06 1534.01 1923.06 1537.76 Q1923.06 1541.49 1924.89 1543.66 Q1926.74 1545.82 1929.89 1545.82 Q1933.03 1545.82 1934.86 1543.66 Q1936.71 1541.49 1936.71 1537.76 Q1936.71 1534.01 1934.86 1531.86 Q1933.03 1529.7 1929.89 1529.7 M1939.17 1515.05 L1939.17 1519.31 Q1937.41 1518.48 1935.6 1518.04 Q1933.82 1517.6 1932.06 1517.6 Q1927.43 1517.6 1924.98 1520.72 Q1922.55 1523.85 1922.2 1530.17 Q1923.57 1528.15 1925.63 1527.09 Q1927.69 1526 1930.16 1526 Q1935.37 1526 1938.38 1529.17 Q1941.41 1532.32 1941.41 1537.76 Q1941.41 1543.08 1938.27 1546.3 Q1935.12 1549.52 1929.89 1549.52 Q1923.89 1549.52 1920.72 1544.94 Q1917.55 1540.33 1917.55 1531.6 Q1917.55 1523.41 1921.44 1518.55 Q1925.33 1513.66 1931.88 1513.66 Q1933.64 1513.66 1935.42 1514.01 Q1937.22 1514.36 1939.17 1515.05 Z" fill="#000000" fill-rule="nonzero" fill-opacity="1" /><path clip-path="url(#clip200)" d="M1959.47 1517.37 Q1955.86 1517.37 1954.03 1520.93 Q1952.22 1524.47 1952.22 1531.6 Q1952.22 1538.71 1954.03 1542.27 Q1955.86 1545.82 1959.47 1545.82 Q1963.1 1545.82 1964.91 1542.27 Q1966.74 1538.71 1966.74 1531.6 Q1966.74 1524.47 1964.91 1520.93 Q1963.1 1517.37 1959.47 1517.37 M1959.47 1513.66 Q1965.28 1513.66 1968.33 1518.27 Q1971.41 1522.85 1971.41 1531.6 Q1971.41 1540.33 1968.33 1544.94 Q1965.28 1549.52 1959.47 1549.52 Q1953.66 1549.52 1950.58 1544.94 Q1947.52 1540.33 1947.52 1531.6 Q1947.52 1522.85 1950.58 1518.27 Q1953.66 1513.66 1959.47 1513.66 Z" fill="#000000" fill-rule="nonzero" fill-opacity="1" /><path clip-path="url(#clip200)" d="M1990.21 1529.7 Q1987.06 1529.7 1985.21 1531.86 Q1983.38 1534.01 1983.38 1537.76 Q1983.38 1541.49 1985.21 1543.66 Q1987.06 1545.82 1990.21 1545.82 Q1993.36 1545.82 1995.19 1543.66 Q1997.04 1541.49 1997.04 1537.76 Q1997.04 1534.01 1995.19 1531.86 Q1993.36 1529.7 1990.21 1529.7 M1999.49 1515.05 L1999.49 1519.31 Q1997.73 1518.48 1995.93 1518.04 Q1994.15 1517.6 1992.39 1517.6 Q1987.76 1517.6 1985.3 1520.72 Q1982.87 1523.85 1982.52 1530.17 Q1983.89 1528.15 1985.95 1527.09 Q1988.01 1526 1990.49 1526 Q1995.7 1526 1998.71 1529.17 Q2001.74 1532.32 2001.74 1537.76 Q2001.74 1543.08 1998.59 1546.3 Q1995.44 1549.52 1990.21 1549.52 Q1984.21 1549.52 1981.04 1544.94 Q1977.87 1540.33 1977.87 1531.6 Q1977.87 1523.41 1981.76 1518.55 Q1985.65 1513.66 1992.2 1513.66 Q1993.96 1513.66 1995.74 1514.01 Q1997.55 1514.36 1999.49 1515.05 Z" fill="#000000" fill-rule="nonzero" fill-opacity="1" /><path clip-path="url(#clip200)" d="M2019.79 1517.37 Q2016.18 1517.37 2014.35 1520.93 Q2012.55 1524.47 2012.55 1531.6 Q2012.55 1538.71 2014.35 1542.27 Q2016.18 1545.82 2019.79 1545.82 Q2023.43 1545.82 2025.23 1542.27 Q2027.06 1538.71 2027.06 1531.6 Q2027.06 1524.47 2025.23 1520.93 Q2023.43 1517.37 2019.79 1517.37 M2019.79 1513.66 Q2025.6 1513.66 2028.66 1518.27 Q2031.74 1522.85 2031.74 1531.6 Q2031.74 1540.33 2028.66 1544.94 Q2025.6 1549.52 2019.79 1549.52 Q2013.98 1549.52 2010.9 1544.94 Q2007.85 1540.33 2007.85 1531.6 Q2007.85 1522.85 2010.9 1518.27 Q2013.98 1513.66 2019.79 1513.66 Z" fill="#000000" fill-rule="nonzero" fill-opacity="1" /><path clip-path="url(#clip200)" d="M2049.95 1517.37 Q2046.34 1517.37 2044.52 1520.93 Q2042.71 1524.47 2042.71 1531.6 Q2042.71 1538.71 2044.52 1542.27 Q2046.34 1545.82 2049.95 1545.82 Q2053.59 1545.82 2055.39 1542.27 Q2057.22 1538.71 2057.22 1531.6 Q2057.22 1524.47 2055.39 1520.93 Q2053.59 1517.37 2049.95 1517.37 M2049.95 1513.66 Q2055.77 1513.66 2058.82 1518.27 Q2061.9 1522.85 2061.9 1531.6 Q2061.9 1540.33 2058.82 1544.94 Q2055.77 1549.52 2049.95 1549.52 Q2044.14 1549.52 2041.07 1544.94 Q2038.01 1540.33 2038.01 1531.6 Q2038.01 1522.85 2041.07 1518.27 Q2044.14 1513.66 2049.95 1513.66 Z" fill="#000000" fill-rule="nonzero" fill-opacity="1" /><polyline clip-path="url(#clip203)" style="stroke:#000000; stroke-linecap:round; stroke-linejoin:round; stroke-width:2; stroke-opacity:0.1; fill:none" points="169.121,1486.45 2352.76,1486.45 "/>
<polyline clip-path="url(#clip203)" style="stroke:#000000; stroke-linecap:round; stroke-linejoin:round; stroke-width:2; stroke-opacity:0.1; fill:none" points="169.121,1289.16 2352.76,1289.16 "/>
<polyline clip-path="url(#clip203)" style="stroke:#000000; stroke-linecap:round; stroke-linejoin:round; stroke-width:2; stroke-opacity:0.1; fill:none" points="169.121,1091.88 2352.76,1091.88 "/>
<polyline clip-path="url(#clip203)" style="stroke:#000000; stroke-linecap:round; stroke-linejoin:round; stroke-width:2; stroke-opacity:0.1; fill:none" points="169.121,894.593 2352.76,894.593 "/>
<polyline clip-path="url(#clip200)" style="stroke:#000000; stroke-linecap:round; stroke-linejoin:round; stroke-width:4; stroke-opacity:1; fill:none" points="169.121,1486.45 169.121,847.244 "/>
<polyline clip-path="url(#clip200)" style="stroke:#000000; stroke-linecap:round; stroke-linejoin:round; stroke-width:4; stroke-opacity:1; fill:none" points="169.121,1486.45 188.019,1486.45 "/>
<polyline clip-path="url(#clip200)" style="stroke:#000000; stroke-linecap:round; stroke-linejoin:round; stroke-width:4; stroke-opacity:1; fill:none" points="169.121,1289.16 188.019,1289.16 "/>
<polyline clip-path="url(#clip200)" style="stroke:#000000; stroke-linecap:round; stroke-linejoin:round; stroke-width:4; stroke-opacity:1; fill:none" points="169.121,1091.88 188.019,1091.88 "/>
<polyline clip-path="url(#clip200)" style="stroke:#000000; stroke-linecap:round; stroke-linejoin:round; stroke-width:4; stroke-opacity:1; fill:none" points="169.121,894.593 188.019,894.593 "/>
<path clip-path="url(#clip200)" d="M121.177 1472.25 Q117.566 1472.25 115.737 1475.81 Q113.932 1479.35 113.932 1486.48 Q113.932 1493.59 115.737 1497.15 Q117.566 1500.7 121.177 1500.7 Q124.811 1500.7 126.617 1497.15 Q128.445 1493.59 128.445 1486.48 Q128.445 1479.35 126.617 1475.81 Q124.811 1472.25 121.177 1472.25 M121.177 1468.54 Q126.987 1468.54 130.043 1473.15 Q133.121 1477.73 133.121 1486.48 Q133.121 1495.21 130.043 1499.82 Q126.987 1504.4 121.177 1504.4 Q115.367 1504.4 112.288 1499.82 Q109.233 1495.21 109.233 1486.48 Q109.233 1477.73 112.288 1473.15 Q115.367 1468.54 121.177 1468.54 Z" fill="#000000" fill-rule="nonzero" fill-opacity="1" /><path clip-path="url(#clip200)" d="M81.0614 1271.88 L99.4178 1271.88 L99.4178 1275.82 L85.3438 1275.82 L85.3438 1284.29 Q86.3623 1283.94 87.3808 1283.78 Q88.3993 1283.6 89.4178 1283.6 Q95.2049 1283.6 98.5845 1286.77 Q101.964 1289.94 101.964 1295.35 Q101.964 1300.93 98.4919 1304.04 Q95.0197 1307.11 88.7003 1307.11 Q86.5243 1307.11 84.2558 1306.74 Q82.0105 1306.37 79.6031 1305.63 L79.6031 1300.93 Q81.6864 1302.07 83.9086 1302.62 Q86.1308 1303.18 88.6077 1303.18 Q92.6123 1303.18 94.9502 1301.07 Q97.2882 1298.97 97.2882 1295.35 Q97.2882 1291.74 94.9502 1289.64 Q92.6123 1287.53 88.6077 1287.53 Q86.7327 1287.53 84.8577 1287.95 Q83.0058 1288.36 81.0614 1289.24 L81.0614 1271.88 Z" fill="#000000" fill-rule="nonzero" fill-opacity="1" /><path clip-path="url(#clip200)" d="M121.177 1274.96 Q117.566 1274.96 115.737 1278.53 Q113.932 1282.07 113.932 1289.2 Q113.932 1296.3 115.737 1299.87 Q117.566 1303.41 121.177 1303.41 Q124.811 1303.41 126.617 1299.87 Q128.445 1296.3 128.445 1289.2 Q128.445 1282.07 126.617 1278.53 Q124.811 1274.96 121.177 1274.96 M121.177 1271.26 Q126.987 1271.26 130.043 1275.86 Q133.121 1280.45 133.121 1289.2 Q133.121 1297.92 130.043 1302.53 Q126.987 1307.11 121.177 1307.11 Q115.367 1307.11 112.288 1302.53 Q109.233 1297.92 109.233 1289.2 Q109.233 1280.45 112.288 1275.86 Q115.367 1271.26 121.177 1271.26 Z" fill="#000000" fill-rule="nonzero" fill-opacity="1" /><path clip-path="url(#clip200)" d="M51.6634 1105.22 L59.3023 1105.22 L59.3023 1078.86 L50.9921 1080.52 L50.9921 1076.26 L59.256 1074.6 L63.9319 1074.6 L63.9319 1105.22 L71.5707 1105.22 L71.5707 1109.16 L51.6634 1109.16 L51.6634 1105.22 Z" fill="#000000" fill-rule="nonzero" fill-opacity="1" /><path clip-path="url(#clip200)" d="M91.0151 1077.68 Q87.404 1077.68 85.5753 1081.24 Q83.7697 1084.78 83.7697 1091.91 Q83.7697 1099.02 85.5753 1102.58 Q87.404 1106.13 91.0151 1106.13 Q94.6493 1106.13 96.4548 1102.58 Q98.2835 1099.02 98.2835 1091.91 Q98.2835 1084.78 96.4548 1081.24 Q94.6493 1077.68 91.0151 1077.68 M91.0151 1073.97 Q96.8252 1073.97 99.8808 1078.58 Q102.959 1083.16 102.959 1091.91 Q102.959 1100.64 99.8808 1105.25 Q96.8252 1109.83 91.0151 1109.83 Q85.2049 1109.83 82.1262 1105.25 Q79.0707 1100.64 79.0707 1091.91 Q79.0707 1083.16 82.1262 1078.58 Q85.2049 1073.97 91.0151 1073.97 Z" fill="#000000" fill-rule="nonzero" fill-opacity="1" /><path clip-path="url(#clip200)" d="M121.177 1077.68 Q117.566 1077.68 115.737 1081.24 Q113.932 1084.78 113.932 1091.91 Q113.932 1099.02 115.737 1102.58 Q117.566 1106.13 121.177 1106.13 Q124.811 1106.13 126.617 1102.58 Q128.445 1099.02 128.445 1091.91 Q128.445 1084.78 126.617 1081.24 Q124.811 1077.68 121.177 1077.68 M121.177 1073.97 Q126.987 1073.97 130.043 1078.58 Q133.121 1083.16 133.121 1091.91 Q133.121 1100.64 130.043 1105.25 Q126.987 1109.83 121.177 1109.83 Q115.367 1109.83 112.288 1105.25 Q109.233 1100.64 109.233 1091.91 Q109.233 1083.16 112.288 1078.58 Q115.367 1073.97 121.177 1073.97 Z" fill="#000000" fill-rule="nonzero" fill-opacity="1" /><path clip-path="url(#clip200)" d="M51.6634 907.937 L59.3023 907.937 L59.3023 881.572 L50.9921 883.238 L50.9921 878.979 L59.256 877.313 L63.9319 877.313 L63.9319 907.937 L71.5707 907.937 L71.5707 911.873 L51.6634 911.873 L51.6634 907.937 Z" fill="#000000" fill-rule="nonzero" fill-opacity="1" /><path clip-path="url(#clip200)" d="M81.0614 877.313 L99.4178 877.313 L99.4178 881.248 L85.3438 881.248 L85.3438 889.72 Q86.3623 889.373 87.3808 889.211 Q88.3993 889.025 89.4178 889.025 Q95.2049 889.025 98.5845 892.197 Q101.964 895.368 101.964 900.785 Q101.964 906.363 98.4919 909.465 Q95.0197 912.544 88.7003 912.544 Q86.5243 912.544 84.2558 912.173 Q82.0105 911.803 79.6031 911.062 L79.6031 906.363 Q81.6864 907.498 83.9086 908.053 Q86.1308 908.609 88.6077 908.609 Q92.6123 908.609 94.9502 906.502 Q97.2882 904.396 97.2882 900.785 Q97.2882 897.174 94.9502 895.067 Q92.6123 892.961 88.6077 892.961 Q86.7327 892.961 84.8577 893.377 Q83.0058 893.794 81.0614 894.674 L81.0614 877.313 Z" fill="#000000" fill-rule="nonzero" fill-opacity="1" /><path clip-path="url(#clip200)" d="M121.177 880.391 Q117.566 880.391 115.737 883.956 Q113.932 887.498 113.932 894.627 Q113.932 901.734 115.737 905.298 Q117.566 908.84 121.177 908.84 Q124.811 908.84 126.617 905.298 Q128.445 901.734 128.445 894.627 Q128.445 887.498 126.617 883.956 Q124.811 880.391 121.177 880.391 M121.177 876.688 Q126.987 876.688 130.043 881.294 Q133.121 885.877 133.121 894.627 Q133.121 903.354 130.043 907.961 Q126.987 912.544 121.177 912.544 Q115.367 912.544 112.288 907.961 Q109.233 903.354 109.233 894.627 Q109.233 885.877 112.288 881.294 Q115.367 876.688 121.177 876.688 Z" fill="#000000" fill-rule="nonzero" fill-opacity="1" /><path clip-path="url(#clip203)" d="M289.225 1478.56 L289.225 1486.45 L410.689 1486.45 L410.689 1478.56 L289.225 1478.56 L289.225 1478.56  Z" fill="#009af9" fill-rule="evenodd" fill-opacity="1"/>
<polyline clip-path="url(#clip203)" style="stroke:#000000; stroke-linecap:round; stroke-linejoin:round; stroke-width:4; stroke-opacity:1; fill:none" points="289.225,1478.56 289.225,1486.45 410.689,1486.45 410.689,1478.56 289.225,1478.56 "/>
<path clip-path="url(#clip203)" d="M410.689 1474.61 L410.689 1486.45 L532.153 1486.45 L532.153 1474.61 L410.689 1474.61 L410.689 1474.61  Z" fill="#009af9" fill-rule="evenodd" fill-opacity="1"/>
<polyline clip-path="url(#clip203)" style="stroke:#000000; stroke-linecap:round; stroke-linejoin:round; stroke-width:4; stroke-opacity:1; fill:none" points="410.689,1474.61 410.689,1486.45 532.153,1486.45 532.153,1474.61 410.689,1474.61 "/>
<path clip-path="url(#clip203)" d="M532.153 1431.21 L532.153 1486.45 L653.618 1486.45 L653.618 1431.21 L532.153 1431.21 L532.153 1431.21  Z" fill="#009af9" fill-rule="evenodd" fill-opacity="1"/>
<polyline clip-path="url(#clip203)" style="stroke:#000000; stroke-linecap:round; stroke-linejoin:round; stroke-width:4; stroke-opacity:1; fill:none" points="532.153,1431.21 532.153,1486.45 653.618,1486.45 653.618,1431.21 532.153,1431.21 "/>
<path clip-path="url(#clip203)" d="M653.618 1399.64 L653.618 1486.45 L775.082 1486.45 L775.082 1399.64 L653.618 1399.64 L653.618 1399.64  Z" fill="#009af9" fill-rule="evenodd" fill-opacity="1"/>
<polyline clip-path="url(#clip203)" style="stroke:#000000; stroke-linecap:round; stroke-linejoin:round; stroke-width:4; stroke-opacity:1; fill:none" points="653.618,1399.64 653.618,1486.45 775.082,1486.45 775.082,1399.64 653.618,1399.64 "/>
<path clip-path="url(#clip203)" d="M775.082 1301 L775.082 1486.45 L896.546 1486.45 L896.546 1301 L775.082 1301 L775.082 1301  Z" fill="#009af9" fill-rule="evenodd" fill-opacity="1"/>
<polyline clip-path="url(#clip203)" style="stroke:#000000; stroke-linecap:round; stroke-linejoin:round; stroke-width:4; stroke-opacity:1; fill:none" points="775.082,1301 775.082,1486.45 896.546,1486.45 896.546,1301 775.082,1301 "/>
<path clip-path="url(#clip203)" d="M896.546 1028.75 L896.546 1486.45 L1018.01 1486.45 L1018.01 1028.75 L896.546 1028.75 L896.546 1028.75  Z" fill="#009af9" fill-rule="evenodd" fill-opacity="1"/>
<polyline clip-path="url(#clip203)" style="stroke:#000000; stroke-linecap:round; stroke-linejoin:round; stroke-width:4; stroke-opacity:1; fill:none" points="896.546,1028.75 896.546,1486.45 1018.01,1486.45 1018.01,1028.75 896.546,1028.75 "/>
<path clip-path="url(#clip203)" d="M1018.01 934.05 L1018.01 1486.45 L1139.47 1486.45 L1139.47 934.05 L1018.01 934.05 L1018.01 934.05  Z" fill="#009af9" fill-rule="evenodd" fill-opacity="1"/>
<polyline clip-path="url(#clip203)" style="stroke:#000000; stroke-linecap:round; stroke-linejoin:round; stroke-width:4; stroke-opacity:1; fill:none" points="1018.01,934.05 1018.01,1486.45 1139.47,1486.45 1139.47,934.05 1018.01,934.05 "/>
<path clip-path="url(#clip203)" d="M1139.47 859.081 L1139.47 1486.45 L1260.94 1486.45 L1260.94 859.081 L1139.47 859.081 L1139.47 859.081  Z" fill="#009af9" fill-rule="evenodd" fill-opacity="1"/>
<polyline clip-path="url(#clip203)" style="stroke:#000000; stroke-linecap:round; stroke-linejoin:round; stroke-width:4; stroke-opacity:1; fill:none" points="1139.47,859.081 1139.47,1486.45 1260.94,1486.45 1260.94,859.081 1139.47,859.081 "/>
<path clip-path="url(#clip203)" d="M1260.94 847.244 L1260.94 1486.45 L1382.4 1486.45 L1382.4 847.244 L1260.94 847.244 L1260.94 847.244  Z" fill="#009af9" fill-rule="evenodd" fill-opacity="1"/>
<polyline clip-path="url(#clip203)" style="stroke:#000000; stroke-linecap:round; stroke-linejoin:round; stroke-width:4; stroke-opacity:1; fill:none" points="1260.94,847.244 1260.94,1486.45 1382.4,1486.45 1382.4,847.244 1260.94,847.244 "/>
<path clip-path="url(#clip203)" d="M1382.4 993.235 L1382.4 1486.45 L1503.87 1486.45 L1503.87 993.235 L1382.4 993.235 L1382.4 993.235  Z" fill="#009af9" fill-rule="evenodd" fill-opacity="1"/>
<polyline clip-path="url(#clip203)" style="stroke:#000000; stroke-linecap:round; stroke-linejoin:round; stroke-width:4; stroke-opacity:1; fill:none" points="1382.4,993.235 1382.4,1486.45 1503.87,1486.45 1503.87,993.235 1382.4,993.235 "/>
<path clip-path="url(#clip203)" d="M1503.87 1099.77 L1503.87 1486.45 L1625.33 1486.45 L1625.33 1099.77 L1503.87 1099.77 L1503.87 1099.77  Z" fill="#009af9" fill-rule="evenodd" fill-opacity="1"/>
<polyline clip-path="url(#clip203)" style="stroke:#000000; stroke-linecap:round; stroke-linejoin:round; stroke-width:4; stroke-opacity:1; fill:none" points="1503.87,1099.77 1503.87,1486.45 1625.33,1486.45 1625.33,1099.77 1503.87,1099.77 "/>
<path clip-path="url(#clip203)" d="M1625.33 1261.54 L1625.33 1486.45 L1746.8 1486.45 L1746.8 1261.54 L1625.33 1261.54 L1625.33 1261.54  Z" fill="#009af9" fill-rule="evenodd" fill-opacity="1"/>
<polyline clip-path="url(#clip203)" style="stroke:#000000; stroke-linecap:round; stroke-linejoin:round; stroke-width:4; stroke-opacity:1; fill:none" points="1625.33,1261.54 1625.33,1486.45 1746.8,1486.45 1746.8,1261.54 1625.33,1261.54 "/>
<path clip-path="url(#clip203)" d="M1746.8 1336.51 L1746.8 1486.45 L1868.26 1486.45 L1868.26 1336.51 L1746.8 1336.51 L1746.8 1336.51  Z" fill="#009af9" fill-rule="evenodd" fill-opacity="1"/>
<polyline clip-path="url(#clip203)" style="stroke:#000000; stroke-linecap:round; stroke-linejoin:round; stroke-width:4; stroke-opacity:1; fill:none" points="1746.8,1336.51 1746.8,1486.45 1868.26,1486.45 1868.26,1336.51 1746.8,1336.51 "/>
<path clip-path="url(#clip203)" d="M1868.26 1439.1 L1868.26 1486.45 L1989.72 1486.45 L1989.72 1439.1 L1868.26 1439.1 L1868.26 1439.1  Z" fill="#009af9" fill-rule="evenodd" fill-opacity="1"/>
<polyline clip-path="url(#clip203)" style="stroke:#000000; stroke-linecap:round; stroke-linejoin:round; stroke-width:4; stroke-opacity:1; fill:none" points="1868.26,1439.1 1868.26,1486.45 1989.72,1486.45 1989.72,1439.1 1868.26,1439.1 "/>
<path clip-path="url(#clip203)" d="M1989.72 1470.67 L1989.72 1486.45 L2111.19 1486.45 L2111.19 1470.67 L1989.72 1470.67 L1989.72 1470.67  Z" fill="#009af9" fill-rule="evenodd" fill-opacity="1"/>
<polyline clip-path="url(#clip203)" style="stroke:#000000; stroke-linecap:round; stroke-linejoin:round; stroke-width:4; stroke-opacity:1; fill:none" points="1989.72,1470.67 1989.72,1486.45 2111.19,1486.45 2111.19,1470.67 1989.72,1470.67 "/>
<path clip-path="url(#clip203)" d="M2111.19 1482.5 L2111.19 1486.45 L2232.65 1486.45 L2232.65 1482.5 L2111.19 1482.5 L2111.19 1482.5  Z" fill="#009af9" fill-rule="evenodd" fill-opacity="1"/>
<polyline clip-path="url(#clip203)" style="stroke:#000000; stroke-linecap:round; stroke-linejoin:round; stroke-width:4; stroke-opacity:1; fill:none" points="2111.19,1482.5 2111.19,1486.45 2232.65,1486.45 2232.65,1482.5 2111.19,1482.5 "/>
<circle clip-path="url(#clip203)" style="fill:#009af9; stroke:none; fill-opacity:0" cx="349.957" cy="1478.56" r="2"/>
<circle clip-path="url(#clip203)" style="fill:#009af9; stroke:none; fill-opacity:0" cx="471.421" cy="1474.61" r="2"/>
<circle clip-path="url(#clip203)" style="fill:#009af9; stroke:none; fill-opacity:0" cx="592.886" cy="1431.21" r="2"/>
<circle clip-path="url(#clip203)" style="fill:#009af9; stroke:none; fill-opacity:0" cx="714.35" cy="1399.64" r="2"/>
<circle clip-path="url(#clip203)" style="fill:#009af9; stroke:none; fill-opacity:0" cx="835.814" cy="1301" r="2"/>
<circle clip-path="url(#clip203)" style="fill:#009af9; stroke:none; fill-opacity:0" cx="957.278" cy="1028.75" r="2"/>
<circle clip-path="url(#clip203)" style="fill:#009af9; stroke:none; fill-opacity:0" cx="1078.74" cy="934.05" r="2"/>
<circle clip-path="url(#clip203)" style="fill:#009af9; stroke:none; fill-opacity:0" cx="1200.21" cy="859.081" r="2"/>
<circle clip-path="url(#clip203)" style="fill:#009af9; stroke:none; fill-opacity:0" cx="1321.67" cy="847.244" r="2"/>
<circle clip-path="url(#clip203)" style="fill:#009af9; stroke:none; fill-opacity:0" cx="1443.13" cy="993.235" r="2"/>
<circle clip-path="url(#clip203)" style="fill:#009af9; stroke:none; fill-opacity:0" cx="1564.6" cy="1099.77" r="2"/>
<circle clip-path="url(#clip203)" style="fill:#009af9; stroke:none; fill-opacity:0" cx="1686.06" cy="1261.54" r="2"/>
<circle clip-path="url(#clip203)" style="fill:#009af9; stroke:none; fill-opacity:0" cx="1807.53" cy="1336.51" r="2"/>
<circle clip-path="url(#clip203)" style="fill:#009af9; stroke:none; fill-opacity:0" cx="1928.99" cy="1439.1" r="2"/>
<circle clip-path="url(#clip203)" style="fill:#009af9; stroke:none; fill-opacity:0" cx="2050.46" cy="1470.67" r="2"/>
<circle clip-path="url(#clip203)" style="fill:#009af9; stroke:none; fill-opacity:0" cx="2171.92" cy="1482.5" r="2"/>
<path clip-path="url(#clip200)" d="M2037.09 972.231 L2279.97 972.231 L2279.97 868.551 L2037.09 868.551  Z" fill="#ffffff" fill-rule="evenodd" fill-opacity="1"/>
<polyline clip-path="url(#clip200)" style="stroke:#000000; stroke-linecap:round; stroke-linejoin:round; stroke-width:4; stroke-opacity:1; fill:none" points="2037.09,972.231 2279.97,972.231 2279.97,868.551 2037.09,868.551 2037.09,972.231 "/>
<path clip-path="url(#clip200)" d="M2061.35 941.127 L2206.93 941.127 L2206.93 899.655 L2061.35 899.655 L2061.35 941.127  Z" fill="#009af9" fill-rule="evenodd" fill-opacity="1"/>
<polyline clip-path="url(#clip200)" style="stroke:#000000; stroke-linecap:round; stroke-linejoin:round; stroke-width:4; stroke-opacity:1; fill:none" points="2061.35,941.127 2206.93,941.127 2206.93,899.655 2061.35,899.655 2061.35,941.127 "/>
<path clip-path="url(#clip200)" d="M2235.87 921.166 L2235.87 933.828 L2243.37 933.828 Q2247.14 933.828 2248.95 932.277 Q2250.77 930.703 2250.77 927.486 Q2250.77 924.245 2248.95 922.717 Q2247.14 921.166 2243.37 921.166 L2235.87 921.166 M2235.87 906.953 L2235.87 917.37 L2242.79 917.37 Q2246.21 917.37 2247.88 916.097 Q2249.57 914.801 2249.57 912.162 Q2249.57 909.546 2247.88 908.25 Q2246.21 906.953 2242.79 906.953 L2235.87 906.953 M2231.19 903.111 L2243.14 903.111 Q2248.48 903.111 2251.38 905.333 Q2254.27 907.555 2254.27 911.653 Q2254.27 914.824 2252.79 916.699 Q2251.31 918.574 2248.44 919.037 Q2251.89 919.777 2253.78 922.139 Q2255.71 924.477 2255.71 927.995 Q2255.71 932.625 2252.56 935.148 Q2249.41 937.671 2243.6 937.671 L2231.19 937.671 L2231.19 903.111 Z" fill="#000000" fill-rule="nonzero" fill-opacity="1" /></svg>
