<?xml version="1.0" encoding="utf-8"?>
<svg xmlns="http://www.w3.org/2000/svg" xmlns:xlink="http://www.w3.org/1999/xlink" width="600" height="400" viewBox="0 0 2400 1600">
<defs>
  <clipPath id="clip180">
    <rect x="0" y="0" width="2400" height="1600"/>
  </clipPath>
</defs>
<path clip-path="url(#clip180)" d="M0 1600 L2400 1600 L2400 0 L0 0  Z" fill="#ffffff" fill-rule="evenodd" fill-opacity="1"/>
<defs>
  <clipPath id="clip181">
    <rect x="480" y="0" width="1681" height="1600"/>
  </clipPath>
</defs>
<path clip-path="url(#clip180)" d="M169.121 686.448 L2352.76 686.448 L2352.76 47.2441 L169.121 47.2441  Z" fill="#ffffff" fill-rule="evenodd" fill-opacity="1"/>
<defs>
  <clipPath id="clip182">
    <rect x="169" y="47" width="2185" height="640"/>
  </clipPath>
</defs>
<polyline clip-path="url(#clip182)" style="stroke:#000000; stroke-linecap:round; stroke-linejoin:round; stroke-width:2; stroke-opacity:0.1; fill:none" points="532.153,686.448 532.153,47.2441 "/>
<polyline clip-path="url(#clip182)" style="stroke:#000000; stroke-linecap:round; stroke-linejoin:round; stroke-width:2; stroke-opacity:0.1; fill:none" points="896.546,686.448 896.546,47.2441 "/>
<polyline clip-path="url(#clip182)" style="stroke:#000000; stroke-linecap:round; stroke-linejoin:round; stroke-width:2; stroke-opacity:0.1; fill:none" points="1260.94,686.448 1260.94,47.2441 "/>
<polyline clip-path="url(#clip182)" style="stroke:#000000; stroke-linecap:round; stroke-linejoin:round; stroke-width:2; stroke-opacity:0.1; fill:none" points="1625.33,686.448 1625.33,47.2441 "/>
<polyline clip-path="url(#clip182)" style="stroke:#000000; stroke-linecap:round; stroke-linejoin:round; stroke-width:2; stroke-opacity:0.1; fill:none" points="1989.72,686.448 1989.72,47.2441 "/>
<polyline clip-path="url(#clip182)" style="stroke:#000000; stroke-linecap:round; stroke-linejoin:round; stroke-width:2; stroke-opacity:0.1; fill:none" points="169.121,686.448 2352.76,686.448 "/>
<polyline clip-path="url(#clip182)" style="stroke:#000000; stroke-linecap:round; stroke-linejoin:round; stroke-width:2; stroke-opacity:0.1; fill:none" points="169.121,506.896 2352.76,506.896 "/>
<polyline clip-path="url(#clip182)" style="stroke:#000000; stroke-linecap:round; stroke-linejoin:round; stroke-width:2; stroke-opacity:0.1; fill:none" points="169.121,327.345 2352.76,327.345 "/>
<polyline clip-path="url(#clip182)" style="stroke:#000000; stroke-linecap:round; stroke-linejoin:round; stroke-width:2; stroke-opacity:0.1; fill:none" points="169.121,147.793 2352.76,147.793 "/>
<polyline clip-path="url(#clip180)" style="stroke:#000000; stroke-linecap:round; stroke-linejoin:round; stroke-width:4; stroke-opacity:1; fill:none" points="169.121,686.448 2352.76,686.448 "/>
<polyline clip-path="url(#clip180)" style="stroke:#000000; stroke-linecap:round; stroke-linejoin:round; stroke-width:4; stroke-opacity:1; fill:none" points="532.153,686.448 532.153,667.55 "/>
<polyline clip-path="url(#clip180)" style="stroke:#000000; stroke-linecap:round; stroke-linejoin:round; stroke-width:4; stroke-opacity:1; fill:none" points="896.546,686.448 896.546,667.55 "/>
<polyline clip-path="url(#clip180)" style="stroke:#000000; stroke-linecap:round; stroke-linejoin:round; stroke-width:4; stroke-opacity:1; fill:none" points="1260.94,686.448 1260.94,667.55 "/>
<polyline clip-path="url(#clip180)" style="stroke:#000000; stroke-linecap:round; stroke-linejoin:round; stroke-width:4; stroke-opacity:1; fill:none" points="1625.33,686.448 1625.33,667.55 "/>
<polyline clip-path="url(#clip180)" style="stroke:#000000; stroke-linecap:round; stroke-linejoin:round; stroke-width:4; stroke-opacity:1; fill:none" points="1989.72,686.448 1989.72,667.55 "/>
<path clip-path="url(#clip180)" d="M454.862 744.913 L462.501 744.913 L462.501 718.547 L454.191 720.214 L454.191 715.955 L462.455 714.288 L467.131 714.288 L467.131 744.913 L474.77 744.913 L474.77 748.848 L454.862 748.848 L454.862 744.913 Z" fill="#000000" fill-rule="nonzero" fill-opacity="1" /><path clip-path="url(#clip180)" d="M484.214 742.968 L489.098 742.968 L489.098 748.848 L484.214 748.848 L484.214 742.968 Z" fill="#000000" fill-rule="nonzero" fill-opacity="1" /><path clip-path="url(#clip180)" d="M509.862 729.704 Q506.714 729.704 504.862 731.857 Q503.033 734.01 503.033 737.76 Q503.033 741.487 504.862 743.663 Q506.714 745.815 509.862 745.815 Q513.01 745.815 514.839 743.663 Q516.691 741.487 516.691 737.76 Q516.691 734.01 514.839 731.857 Q513.01 729.704 509.862 729.704 M519.144 715.052 L519.144 719.311 Q517.385 718.478 515.579 718.038 Q513.797 717.598 512.038 717.598 Q507.408 717.598 504.955 720.723 Q502.524 723.848 502.177 730.167 Q503.543 728.154 505.603 727.089 Q507.663 726.001 510.14 726.001 Q515.348 726.001 518.357 729.172 Q521.39 732.32 521.39 737.76 Q521.39 743.084 518.242 746.302 Q515.093 749.519 509.862 749.519 Q503.867 749.519 500.695 744.936 Q497.524 740.329 497.524 731.603 Q497.524 723.408 501.413 718.547 Q505.302 713.663 511.853 713.663 Q513.612 713.663 515.394 714.01 Q517.2 714.357 519.144 715.052 Z" fill="#000000" fill-rule="nonzero" fill-opacity="1" /><path clip-path="url(#clip180)" d="M529.584 748.13 L529.584 743.871 Q531.343 744.704 533.149 745.144 Q534.954 745.584 536.69 745.584 Q541.32 745.584 543.751 742.482 Q546.204 739.357 546.552 733.015 Q545.209 735.005 543.149 736.07 Q541.089 737.135 538.589 737.135 Q533.403 737.135 530.371 734.01 Q527.362 730.862 527.362 725.422 Q527.362 720.098 530.51 716.88 Q533.658 713.663 538.89 713.663 Q544.885 713.663 548.033 718.269 Q551.204 722.853 551.204 731.603 Q551.204 739.774 547.315 744.658 Q543.45 749.519 536.899 749.519 Q535.14 749.519 533.334 749.172 Q531.528 748.825 529.584 748.13 M538.89 733.478 Q542.038 733.478 543.866 731.325 Q545.718 729.172 545.718 725.422 Q545.718 721.695 543.866 719.542 Q542.038 717.367 538.89 717.367 Q535.741 717.367 533.89 719.542 Q532.061 721.695 532.061 725.422 Q532.061 729.172 533.89 731.325 Q535.741 733.478 538.89 733.478 Z" fill="#000000" fill-rule="nonzero" fill-opacity="1" /><path clip-path="url(#clip180)" d="M570.186 729.704 Q567.038 729.704 565.186 731.857 Q563.357 734.01 563.357 737.76 Q563.357 741.487 565.186 743.663 Q567.038 745.815 570.186 745.815 Q573.334 745.815 575.163 743.663 Q577.014 741.487 577.014 737.76 Q577.014 734.01 575.163 731.857 Q573.334 729.704 570.186 729.704 M579.468 715.052 L579.468 719.311 Q577.709 718.478 575.903 718.038 Q574.121 717.598 572.362 717.598 Q567.732 717.598 565.278 720.723 Q562.848 723.848 562.501 730.167 Q563.866 728.154 565.926 727.089 Q567.987 726.001 570.463 726.001 Q575.672 726.001 578.681 729.172 Q581.713 732.32 581.713 737.76 Q581.713 743.084 578.565 746.302 Q575.417 749.519 570.186 749.519 Q564.19 749.519 561.019 744.936 Q557.848 740.329 557.848 731.603 Q557.848 723.408 561.737 718.547 Q565.626 713.663 572.176 713.663 Q573.936 713.663 575.718 714.01 Q577.524 714.357 579.468 715.052 Z" fill="#000000" fill-rule="nonzero" fill-opacity="1" /><path clip-path="url(#clip180)" d="M593.797 744.913 L610.116 744.913 L610.116 748.848 L588.172 748.848 L588.172 744.913 Q590.834 742.158 595.417 737.528 Q600.023 732.876 601.204 731.533 Q603.449 729.01 604.329 727.274 Q605.232 725.515 605.232 723.825 Q605.232 721.07 603.287 719.334 Q601.366 717.598 598.264 717.598 Q596.065 717.598 593.611 718.362 Q591.181 719.126 588.403 720.677 L588.403 715.955 Q591.227 714.82 593.681 714.242 Q596.135 713.663 598.172 713.663 Q603.542 713.663 606.736 716.348 Q609.931 719.033 609.931 723.524 Q609.931 725.654 609.121 727.575 Q608.334 729.473 606.227 732.066 Q605.648 732.737 602.547 735.954 Q599.445 739.149 593.797 744.913 Z" fill="#000000" fill-rule="nonzero" fill-opacity="1" /><path clip-path="url(#clip180)" d="M818.954 744.913 L826.593 744.913 L826.593 718.547 L818.283 720.214 L818.283 715.955 L826.546 714.288 L831.222 714.288 L831.222 744.913 L838.861 744.913 L838.861 748.848 L818.954 748.848 L818.954 744.913 Z" fill="#000000" fill-rule="nonzero" fill-opacity="1" /><path clip-path="url(#clip180)" d="M848.306 742.968 L853.19 742.968 L853.19 748.848 L848.306 748.848 L848.306 742.968 Z" fill="#000000" fill-rule="nonzero" fill-opacity="1" /><path clip-path="url(#clip180)" d="M873.954 729.704 Q870.805 729.704 868.954 731.857 Q867.125 734.01 867.125 737.76 Q867.125 741.487 868.954 743.663 Q870.805 745.815 873.954 745.815 Q877.102 745.815 878.93 743.663 Q880.782 741.487 880.782 737.76 Q880.782 734.01 878.93 731.857 Q877.102 729.704 873.954 729.704 M883.236 715.052 L883.236 719.311 Q881.477 718.478 879.671 718.038 Q877.889 717.598 876.129 717.598 Q871.5 717.598 869.046 720.723 Q866.616 723.848 866.268 730.167 Q867.634 728.154 869.694 727.089 Q871.755 726.001 874.231 726.001 Q879.44 726.001 882.449 729.172 Q885.481 732.32 885.481 737.76 Q885.481 743.084 882.333 746.302 Q879.185 749.519 873.954 749.519 Q867.958 749.519 864.787 744.936 Q861.616 740.329 861.616 731.603 Q861.616 723.408 865.505 718.547 Q869.393 713.663 875.944 713.663 Q877.704 713.663 879.486 714.01 Q881.291 714.357 883.236 715.052 Z" fill="#000000" fill-rule="nonzero" fill-opacity="1" /><path clip-path="url(#clip180)" d="M893.676 748.13 L893.676 743.871 Q895.435 744.704 897.24 745.144 Q899.046 745.584 900.782 745.584 Q905.412 745.584 907.842 742.482 Q910.296 739.357 910.643 733.015 Q909.301 735.005 907.24 736.07 Q905.18 737.135 902.68 737.135 Q897.495 737.135 894.463 734.01 Q891.453 730.862 891.453 725.422 Q891.453 720.098 894.602 716.88 Q897.75 713.663 902.981 713.663 Q908.977 713.663 912.125 718.269 Q915.296 722.853 915.296 731.603 Q915.296 739.774 911.407 744.658 Q907.541 749.519 900.99 749.519 Q899.231 749.519 897.426 749.172 Q895.62 748.825 893.676 748.13 M902.981 733.478 Q906.129 733.478 907.958 731.325 Q909.81 729.172 909.81 725.422 Q909.81 721.695 907.958 719.542 Q906.129 717.367 902.981 717.367 Q899.833 717.367 897.981 719.542 Q896.153 721.695 896.153 725.422 Q896.153 729.172 897.981 731.325 Q899.833 733.478 902.981 733.478 Z" fill="#000000" fill-rule="nonzero" fill-opacity="1" /><path clip-path="url(#clip180)" d="M934.277 729.704 Q931.129 729.704 929.277 731.857 Q927.449 734.01 927.449 737.76 Q927.449 741.487 929.277 743.663 Q931.129 745.815 934.277 745.815 Q937.425 745.815 939.254 743.663 Q941.106 741.487 941.106 737.76 Q941.106 734.01 939.254 731.857 Q937.425 729.704 934.277 729.704 M943.56 715.052 L943.56 719.311 Q941.8 718.478 939.995 718.038 Q938.212 717.598 936.453 717.598 Q931.824 717.598 929.37 720.723 Q926.939 723.848 926.592 730.167 Q927.958 728.154 930.018 727.089 Q932.078 726.001 934.555 726.001 Q939.763 726.001 942.773 729.172 Q945.805 732.32 945.805 737.76 Q945.805 743.084 942.657 746.302 Q939.509 749.519 934.277 749.519 Q928.282 749.519 925.111 744.936 Q921.939 740.329 921.939 731.603 Q921.939 723.408 925.828 718.547 Q929.717 713.663 936.268 713.663 Q938.027 713.663 939.81 714.01 Q941.615 714.357 943.56 715.052 Z" fill="#000000" fill-rule="nonzero" fill-opacity="1" /><path clip-path="url(#clip180)" d="M953.907 714.288 L972.263 714.288 L972.263 718.223 L958.189 718.223 L958.189 726.695 Q959.208 726.348 960.226 726.186 Q961.245 726.001 962.263 726.001 Q968.05 726.001 971.43 729.172 Q974.81 732.343 974.81 737.76 Q974.81 743.339 971.337 746.44 Q967.865 749.519 961.546 749.519 Q959.37 749.519 957.101 749.149 Q954.856 748.778 952.449 748.038 L952.449 743.339 Q954.532 744.473 956.754 745.028 Q958.976 745.584 961.453 745.584 Q965.458 745.584 967.796 743.478 Q970.134 741.371 970.134 737.76 Q970.134 734.149 967.796 732.042 Q965.458 729.936 961.453 729.936 Q959.578 729.936 957.703 730.353 Q955.851 730.769 953.907 731.649 L953.907 714.288 Z" fill="#000000" fill-rule="nonzero" fill-opacity="1" /><path clip-path="url(#clip180)" d="M1182.9 744.913 L1190.53 744.913 L1190.53 718.547 L1182.22 720.214 L1182.22 715.955 L1190.49 714.288 L1195.16 714.288 L1195.16 744.913 L1202.8 744.913 L1202.8 748.848 L1182.9 748.848 L1182.9 744.913 Z" fill="#000000" fill-rule="nonzero" fill-opacity="1" /><path clip-path="url(#clip180)" d="M1212.25 742.968 L1217.13 742.968 L1217.13 748.848 L1212.25 748.848 L1212.25 742.968 Z" fill="#000000" fill-rule="nonzero" fill-opacity="1" /><path clip-path="url(#clip180)" d="M1237.89 729.704 Q1234.75 729.704 1232.89 731.857 Q1231.07 734.01 1231.07 737.76 Q1231.07 741.487 1232.89 743.663 Q1234.75 745.815 1237.89 745.815 Q1241.04 745.815 1242.87 743.663 Q1244.72 741.487 1244.72 737.76 Q1244.72 734.01 1242.87 731.857 Q1241.04 729.704 1237.89 729.704 M1247.18 715.052 L1247.18 719.311 Q1245.42 718.478 1243.61 718.038 Q1241.83 717.598 1240.07 717.598 Q1235.44 717.598 1232.99 720.723 Q1230.56 723.848 1230.21 730.167 Q1231.58 728.154 1233.64 727.089 Q1235.7 726.001 1238.17 726.001 Q1243.38 726.001 1246.39 729.172 Q1249.42 732.32 1249.42 737.76 Q1249.42 743.084 1246.27 746.302 Q1243.13 749.519 1237.89 749.519 Q1231.9 749.519 1228.73 744.936 Q1225.56 740.329 1225.56 731.603 Q1225.56 723.408 1229.45 718.547 Q1233.33 713.663 1239.89 713.663 Q1241.64 713.663 1243.43 714.01 Q1245.23 714.357 1247.18 715.052 Z" fill="#000000" fill-rule="nonzero" fill-opacity="1" /><path clip-path="url(#clip180)" d="M1257.62 748.13 L1257.62 743.871 Q1259.38 744.704 1261.18 745.144 Q1262.99 745.584 1264.72 745.584 Q1269.35 745.584 1271.78 742.482 Q1274.24 739.357 1274.58 733.015 Q1273.24 735.005 1271.18 736.07 Q1269.12 737.135 1266.62 737.135 Q1261.44 737.135 1258.4 734.01 Q1255.39 730.862 1255.39 725.422 Q1255.39 720.098 1258.54 716.88 Q1261.69 713.663 1266.92 713.663 Q1272.92 713.663 1276.07 718.269 Q1279.24 722.853 1279.24 731.603 Q1279.24 739.774 1275.35 744.658 Q1271.48 749.519 1264.93 749.519 Q1263.17 749.519 1261.37 749.172 Q1259.56 748.825 1257.62 748.13 M1266.92 733.478 Q1270.07 733.478 1271.9 731.325 Q1273.75 729.172 1273.75 725.422 Q1273.75 721.695 1271.9 719.542 Q1270.07 717.367 1266.92 717.367 Q1263.77 717.367 1261.92 719.542 Q1260.09 721.695 1260.09 725.422 Q1260.09 729.172 1261.92 731.325 Q1263.77 733.478 1266.92 733.478 Z" fill="#000000" fill-rule="nonzero" fill-opacity="1" /><path clip-path="url(#clip180)" d="M1298.22 729.704 Q1295.07 729.704 1293.22 731.857 Q1291.39 734.01 1291.39 737.76 Q1291.39 741.487 1293.22 743.663 Q1295.07 745.815 1298.22 745.815 Q1301.37 745.815 1303.2 743.663 Q1305.05 741.487 1305.05 737.76 Q1305.05 734.01 1303.2 731.857 Q1301.37 729.704 1298.22 729.704 M1307.5 715.052 L1307.5 719.311 Q1305.74 718.478 1303.94 718.038 Q1302.15 717.598 1300.39 717.598 Q1295.76 717.598 1293.31 720.723 Q1290.88 723.848 1290.53 730.167 Q1291.9 728.154 1293.96 727.089 Q1296.02 726.001 1298.5 726.001 Q1303.7 726.001 1306.71 729.172 Q1309.75 732.32 1309.75 737.76 Q1309.75 743.084 1306.6 746.302 Q1303.45 749.519 1298.22 749.519 Q1292.22 749.519 1289.05 744.936 Q1285.88 740.329 1285.88 731.603 Q1285.88 723.408 1289.77 718.547 Q1293.66 713.663 1300.21 713.663 Q1301.97 713.663 1303.75 714.01 Q1305.56 714.357 1307.5 715.052 Z" fill="#000000" fill-rule="nonzero" fill-opacity="1" /><path clip-path="url(#clip180)" d="M1327.8 732.436 Q1324.47 732.436 1322.55 734.218 Q1320.65 736.001 1320.65 739.126 Q1320.65 742.251 1322.55 744.033 Q1324.47 745.815 1327.8 745.815 Q1331.13 745.815 1333.06 744.033 Q1334.98 742.228 1334.98 739.126 Q1334.98 736.001 1333.06 734.218 Q1331.16 732.436 1327.8 732.436 M1323.13 730.445 Q1320.12 729.704 1318.43 727.644 Q1316.76 725.584 1316.76 722.621 Q1316.76 718.478 1319.7 716.07 Q1322.66 713.663 1327.8 713.663 Q1332.96 713.663 1335.9 716.07 Q1338.84 718.478 1338.84 722.621 Q1338.84 725.584 1337.15 727.644 Q1335.49 729.704 1332.5 730.445 Q1335.88 731.232 1337.76 733.524 Q1339.65 735.816 1339.65 739.126 Q1339.65 744.149 1336.57 746.834 Q1333.52 749.519 1327.8 749.519 Q1322.08 749.519 1319.01 746.834 Q1315.95 744.149 1315.95 739.126 Q1315.95 735.816 1317.85 733.524 Q1319.75 731.232 1323.13 730.445 M1321.41 723.061 Q1321.41 725.746 1323.08 727.251 Q1324.77 728.755 1327.8 728.755 Q1330.81 728.755 1332.5 727.251 Q1334.21 725.746 1334.21 723.061 Q1334.21 720.376 1332.5 718.871 Q1330.81 717.367 1327.8 717.367 Q1324.77 717.367 1323.08 718.871 Q1321.41 720.376 1321.41 723.061 Z" fill="#000000" fill-rule="nonzero" fill-opacity="1" /><path clip-path="url(#clip180)" d="M1547.85 744.913 L1555.49 744.913 L1555.49 718.547 L1547.18 720.214 L1547.18 715.955 L1555.45 714.288 L1560.12 714.288 L1560.12 744.913 L1567.76 744.913 L1567.76 748.848 L1547.85 748.848 L1547.85 744.913 Z" fill="#000000" fill-rule="nonzero" fill-opacity="1" /><path clip-path="url(#clip180)" d="M1577.21 742.968 L1582.09 742.968 L1582.09 748.848 L1577.21 748.848 L1577.21 742.968 Z" fill="#000000" fill-rule="nonzero" fill-opacity="1" /><path clip-path="url(#clip180)" d="M1602.85 729.704 Q1599.71 729.704 1597.85 731.857 Q1596.03 734.01 1596.03 737.76 Q1596.03 741.487 1597.85 743.663 Q1599.71 745.815 1602.85 745.815 Q1606 745.815 1607.83 743.663 Q1609.68 741.487 1609.68 737.76 Q1609.68 734.01 1607.83 731.857 Q1606 729.704 1602.85 729.704 M1612.14 715.052 L1612.14 719.311 Q1610.38 718.478 1608.57 718.038 Q1606.79 717.598 1605.03 717.598 Q1600.4 717.598 1597.95 720.723 Q1595.52 723.848 1595.17 730.167 Q1596.54 728.154 1598.6 727.089 Q1600.66 726.001 1603.13 726.001 Q1608.34 726.001 1611.35 729.172 Q1614.38 732.32 1614.38 737.76 Q1614.38 743.084 1611.23 746.302 Q1608.09 749.519 1602.85 749.519 Q1596.86 749.519 1593.69 744.936 Q1590.52 740.329 1590.52 731.603 Q1590.52 723.408 1594.41 718.547 Q1598.29 713.663 1604.85 713.663 Q1606.6 713.663 1608.39 714.01 Q1610.19 714.357 1612.14 715.052 Z" fill="#000000" fill-rule="nonzero" fill-opacity="1" /><path clip-path="url(#clip180)" d="M1622.58 748.13 L1622.58 743.871 Q1624.34 744.704 1626.14 745.144 Q1627.95 745.584 1629.68 745.584 Q1634.31 745.584 1636.74 742.482 Q1639.2 739.357 1639.54 733.015 Q1638.2 735.005 1636.14 736.07 Q1634.08 737.135 1631.58 737.135 Q1626.4 737.135 1623.36 734.01 Q1620.35 730.862 1620.35 725.422 Q1620.35 720.098 1623.5 716.88 Q1626.65 713.663 1631.88 713.663 Q1637.88 713.663 1641.03 718.269 Q1644.2 722.853 1644.2 731.603 Q1644.2 739.774 1640.31 744.658 Q1636.44 749.519 1629.89 749.519 Q1628.13 749.519 1626.33 749.172 Q1624.52 748.825 1622.58 748.13 M1631.88 733.478 Q1635.03 733.478 1636.86 731.325 Q1638.71 729.172 1638.71 725.422 Q1638.71 721.695 1636.86 719.542 Q1635.03 717.367 1631.88 717.367 Q1628.73 717.367 1626.88 719.542 Q1625.05 721.695 1625.05 725.422 Q1625.05 729.172 1626.88 731.325 Q1628.73 733.478 1631.88 733.478 Z" fill="#000000" fill-rule="nonzero" fill-opacity="1" /><path clip-path="url(#clip180)" d="M1651.42 714.288 L1673.64 714.288 L1673.64 716.279 L1661.09 748.848 L1656.21 748.848 L1668.02 718.223 L1651.42 718.223 L1651.42 714.288 Z" fill="#000000" fill-rule="nonzero" fill-opacity="1" /><path clip-path="url(#clip180)" d="M1683.57 744.913 L1691.21 744.913 L1691.21 718.547 L1682.9 720.214 L1682.9 715.955 L1691.16 714.288 L1695.84 714.288 L1695.84 744.913 L1703.48 744.913 L1703.48 748.848 L1683.57 748.848 L1683.57 744.913 Z" fill="#000000" fill-rule="nonzero" fill-opacity="1" /><path clip-path="url(#clip180)" d="M1911.39 744.913 L1919.03 744.913 L1919.03 718.547 L1910.72 720.214 L1910.72 715.955 L1918.98 714.288 L1923.66 714.288 L1923.66 744.913 L1931.3 744.913 L1931.3 748.848 L1911.39 748.848 L1911.39 744.913 Z" fill="#000000" fill-rule="nonzero" fill-opacity="1" /><path clip-path="url(#clip180)" d="M1940.74 742.968 L1945.63 742.968 L1945.63 748.848 L1940.74 748.848 L1940.74 742.968 Z" fill="#000000" fill-rule="nonzero" fill-opacity="1" /><path clip-path="url(#clip180)" d="M1966.39 729.704 Q1963.24 729.704 1961.39 731.857 Q1959.56 734.01 1959.56 737.76 Q1959.56 741.487 1961.39 743.663 Q1963.24 745.815 1966.39 745.815 Q1969.54 745.815 1971.37 743.663 Q1973.22 741.487 1973.22 737.76 Q1973.22 734.01 1971.37 731.857 Q1969.54 729.704 1966.39 729.704 M1975.67 715.052 L1975.67 719.311 Q1973.91 718.478 1972.11 718.038 Q1970.33 717.598 1968.57 717.598 Q1963.94 717.598 1961.48 720.723 Q1959.05 723.848 1958.71 730.167 Q1960.07 728.154 1962.13 727.089 Q1964.19 726.001 1966.67 726.001 Q1971.88 726.001 1974.89 729.172 Q1977.92 732.32 1977.92 737.76 Q1977.92 743.084 1974.77 746.302 Q1971.62 749.519 1966.39 749.519 Q1960.4 749.519 1957.22 744.936 Q1954.05 740.329 1954.05 731.603 Q1954.05 723.408 1957.94 718.547 Q1961.83 713.663 1968.38 713.663 Q1970.14 713.663 1971.92 714.01 Q1973.73 714.357 1975.67 715.052 Z" fill="#000000" fill-rule="nonzero" fill-opacity="1" /><path clip-path="url(#clip180)" d="M1986.11 748.13 L1986.11 743.871 Q1987.87 744.704 1989.68 745.144 Q1991.48 745.584 1993.22 745.584 Q1997.85 745.584 2000.28 742.482 Q2002.73 739.357 2003.08 733.015 Q2001.74 735.005 1999.68 736.07 Q1997.62 737.135 1995.12 737.135 Q1989.93 737.135 1986.9 734.01 Q1983.89 730.862 1983.89 725.422 Q1983.89 720.098 1987.04 716.88 Q1990.19 713.663 1995.42 713.663 Q2001.41 713.663 2004.56 718.269 Q2007.73 722.853 2007.73 731.603 Q2007.73 739.774 2003.84 744.658 Q1999.98 749.519 1993.43 749.519 Q1991.67 749.519 1989.86 749.172 Q1988.06 748.825 1986.11 748.13 M1995.42 733.478 Q1998.57 733.478 2000.39 731.325 Q2002.25 729.172 2002.25 725.422 Q2002.25 721.695 2000.39 719.542 Q1998.57 717.367 1995.42 717.367 Q1992.27 717.367 1990.42 719.542 Q1988.59 721.695 1988.59 725.422 Q1988.59 729.172 1990.42 731.325 Q1992.27 733.478 1995.42 733.478 Z" fill="#000000" fill-rule="nonzero" fill-opacity="1" /><path clip-path="url(#clip180)" d="M2014.96 714.288 L2037.18 714.288 L2037.18 716.279 L2024.63 748.848 L2019.75 748.848 L2031.55 718.223 L2014.96 718.223 L2014.96 714.288 Z" fill="#000000" fill-rule="nonzero" fill-opacity="1" /><path clip-path="url(#clip180)" d="M2059.14 718.362 L2047.34 736.811 L2059.14 736.811 L2059.14 718.362 M2057.92 714.288 L2063.8 714.288 L2063.8 736.811 L2068.73 736.811 L2068.73 740.7 L2063.8 740.7 L2063.8 748.848 L2059.14 748.848 L2059.14 740.7 L2043.54 740.7 L2043.54 736.186 L2057.92 714.288 Z" fill="#000000" fill-rule="nonzero" fill-opacity="1" /><polyline clip-path="url(#clip180)" style="stroke:#000000; stroke-linecap:round; stroke-linejoin:round; stroke-width:4; stroke-opacity:1; fill:none" points="169.121,686.448 169.121,47.2441 "/>
<polyline clip-path="url(#clip180)" style="stroke:#000000; stroke-linecap:round; stroke-linejoin:round; stroke-width:4; stroke-opacity:1; fill:none" points="169.121,686.448 188.019,686.448 "/>
<polyline clip-path="url(#clip180)" style="stroke:#000000; stroke-linecap:round; stroke-linejoin:round; stroke-width:4; stroke-opacity:1; fill:none" points="169.121,506.896 188.019,506.896 "/>
<polyline clip-path="url(#clip180)" style="stroke:#000000; stroke-linecap:round; stroke-linejoin:round; stroke-width:4; stroke-opacity:1; fill:none" points="169.121,327.345 188.019,327.345 "/>
<polyline clip-path="url(#clip180)" style="stroke:#000000; stroke-linecap:round; stroke-linejoin:round; stroke-width:4; stroke-opacity:1; fill:none" points="169.121,147.793 188.019,147.793 "/>
<path clip-path="url(#clip180)" d="M121.177 672.247 Q117.566 672.247 115.737 675.811 Q113.932 679.353 113.932 686.483 Q113.932 693.589 115.737 697.154 Q117.566 700.695 121.177 700.695 Q124.811 700.695 126.617 697.154 Q128.445 693.589 128.445 686.483 Q128.445 679.353 126.617 675.811 Q124.811 672.247 121.177 672.247 M121.177 668.543 Q126.987 668.543 130.043 673.149 Q133.121 677.733 133.121 686.483 Q133.121 695.209 130.043 699.816 Q126.987 704.399 121.177 704.399 Q115.367 704.399 112.288 699.816 Q109.233 695.209 109.233 686.483 Q109.233 677.733 112.288 673.149 Q115.367 668.543 121.177 668.543 Z" fill="#000000" fill-rule="nonzero" fill-opacity="1" /><path clip-path="url(#clip180)" d="M81.0614 489.616 L99.4178 489.616 L99.4178 493.551 L85.3438 493.551 L85.3438 502.024 Q86.3623 501.676 87.3808 501.514 Q88.3993 501.329 89.4178 501.329 Q95.2049 501.329 98.5845 504.5 Q101.964 507.672 101.964 513.088 Q101.964 518.667 98.4919 521.769 Q95.0197 524.848 88.7003 524.848 Q86.5243 524.848 84.2558 524.477 Q82.0105 524.107 79.6031 523.366 L79.6031 518.667 Q81.6864 519.801 83.9086 520.357 Q86.1308 520.912 88.6077 520.912 Q92.6123 520.912 94.9502 518.806 Q97.2882 516.699 97.2882 513.088 Q97.2882 509.477 94.9502 507.371 Q92.6123 505.264 88.6077 505.264 Q86.7327 505.264 84.8577 505.681 Q83.0058 506.098 81.0614 506.977 L81.0614 489.616 Z" fill="#000000" fill-rule="nonzero" fill-opacity="1" /><path clip-path="url(#clip180)" d="M121.177 492.695 Q117.566 492.695 115.737 496.26 Q113.932 499.801 113.932 506.931 Q113.932 514.037 115.737 517.602 Q117.566 521.144 121.177 521.144 Q124.811 521.144 126.617 517.602 Q128.445 514.037 128.445 506.931 Q128.445 499.801 126.617 496.26 Q124.811 492.695 121.177 492.695 M121.177 488.991 Q126.987 488.991 130.043 493.598 Q133.121 498.181 133.121 506.931 Q133.121 515.658 130.043 520.264 Q126.987 524.848 121.177 524.848 Q115.367 524.848 112.288 520.264 Q109.233 515.658 109.233 506.931 Q109.233 498.181 112.288 493.598 Q115.367 488.991 121.177 488.991 Z" fill="#000000" fill-rule="nonzero" fill-opacity="1" /><path clip-path="url(#clip180)" d="M51.6634 340.689 L59.3023 340.689 L59.3023 314.324 L50.9921 315.991 L50.9921 311.731 L59.256 310.065 L63.9319 310.065 L63.9319 340.689 L71.5707 340.689 L71.5707 344.625 L51.6634 344.625 L51.6634 340.689 Z" fill="#000000" fill-rule="nonzero" fill-opacity="1" /><path clip-path="url(#clip180)" d="M91.0151 313.143 Q87.404 313.143 85.5753 316.708 Q83.7697 320.25 83.7697 327.379 Q83.7697 334.486 85.5753 338.051 Q87.404 341.592 91.0151 341.592 Q94.6493 341.592 96.4548 338.051 Q98.2835 334.486 98.2835 327.379 Q98.2835 320.25 96.4548 316.708 Q94.6493 313.143 91.0151 313.143 M91.0151 309.44 Q96.8252 309.44 99.8808 314.046 Q102.959 318.629 102.959 327.379 Q102.959 336.106 99.8808 340.713 Q96.8252 345.296 91.0151 345.296 Q85.2049 345.296 82.1262 340.713 Q79.0707 336.106 79.0707 327.379 Q79.0707 318.629 82.1262 314.046 Q85.2049 309.44 91.0151 309.44 Z" fill="#000000" fill-rule="nonzero" fill-opacity="1" /><path clip-path="url(#clip180)" d="M121.177 313.143 Q117.566 313.143 115.737 316.708 Q113.932 320.25 113.932 327.379 Q113.932 334.486 115.737 338.051 Q117.566 341.592 121.177 341.592 Q124.811 341.592 126.617 338.051 Q128.445 334.486 128.445 327.379 Q128.445 320.25 126.617 316.708 Q124.811 313.143 121.177 313.143 M121.177 309.44 Q126.987 309.44 130.043 314.046 Q133.121 318.629 133.121 327.379 Q133.121 336.106 130.043 340.713 Q126.987 345.296 121.177 345.296 Q115.367 345.296 112.288 340.713 Q109.233 336.106 109.233 327.379 Q109.233 318.629 112.288 314.046 Q115.367 309.44 121.177 309.44 Z" fill="#000000" fill-rule="nonzero" fill-opacity="1" /><path clip-path="url(#clip180)" d="M51.6634 161.138 L59.3023 161.138 L59.3023 134.772 L50.9921 136.439 L50.9921 132.18 L59.256 130.513 L63.9319 130.513 L63.9319 161.138 L71.5707 161.138 L71.5707 165.073 L51.6634 165.073 L51.6634 161.138 Z" fill="#000000" fill-rule="nonzero" fill-opacity="1" /><path clip-path="url(#clip180)" d="M81.0614 130.513 L99.4178 130.513 L99.4178 134.448 L85.3438 134.448 L85.3438 142.92 Q86.3623 142.573 87.3808 142.411 Q88.3993 142.226 89.4178 142.226 Q95.2049 142.226 98.5845 145.397 Q101.964 148.568 101.964 153.985 Q101.964 159.564 98.4919 162.666 Q95.0197 165.744 88.7003 165.744 Q86.5243 165.744 84.2558 165.374 Q82.0105 165.004 79.6031 164.263 L79.6031 159.564 Q81.6864 160.698 83.9086 161.254 Q86.1308 161.809 88.6077 161.809 Q92.6123 161.809 94.9502 159.703 Q97.2882 157.596 97.2882 153.985 Q97.2882 150.374 94.9502 148.268 Q92.6123 146.161 88.6077 146.161 Q86.7327 146.161 84.8577 146.578 Q83.0058 146.994 81.0614 147.874 L81.0614 130.513 Z" fill="#000000" fill-rule="nonzero" fill-opacity="1" /><path clip-path="url(#clip180)" d="M121.177 133.592 Q117.566 133.592 115.737 137.156 Q113.932 140.698 113.932 147.828 Q113.932 154.934 115.737 158.499 Q117.566 162.041 121.177 162.041 Q124.811 162.041 126.617 158.499 Q128.445 154.934 128.445 147.828 Q128.445 140.698 126.617 137.156 Q124.811 133.592 121.177 133.592 M121.177 129.888 Q126.987 129.888 130.043 134.494 Q133.121 139.078 133.121 147.828 Q133.121 156.555 130.043 161.161 Q126.987 165.744 121.177 165.744 Q115.367 165.744 112.288 161.161 Q109.233 156.555 109.233 147.828 Q109.233 139.078 112.288 134.494 Q115.367 129.888 121.177 129.888 Z" fill="#000000" fill-rule="nonzero" fill-opacity="1" /><path clip-path="url(#clip182)" d="M289.225 682.857 L289.225 686.448 L410.689 686.448 L410.689 682.857 L289.225 682.857 L289.225 682.857  Z" fill="#009af9" fill-rule="evenodd" fill-opacity="1"/>
<polyline clip-path="url(#clip182)" style="stroke:#000000; stroke-linecap:round; stroke-linejoin:round; stroke-width:4; stroke-opacity:1; fill:none" points="289.225,682.857 289.225,686.448 410.689,686.448 410.689,682.857 289.225,682.857 "/>
<path clip-path="url(#clip182)" d="M410.689 664.902 L410.689 686.448 L532.153 686.448 L532.153 664.902 L410.689 664.902 L410.689 664.902  Z" fill="#009af9" fill-rule="evenodd" fill-opacity="1"/>
<polyline clip-path="url(#clip182)" style="stroke:#000000; stroke-linecap:round; stroke-linejoin:round; stroke-width:4; stroke-opacity:1; fill:none" points="410.689,664.902 410.689,686.448 532.153,686.448 532.153,664.902 410.689,664.902 "/>
<path clip-path="url(#clip182)" d="M532.153 632.582 L532.153 686.448 L653.618 686.448 L653.618 632.582 L532.153 632.582 L532.153 632.582  Z" fill="#009af9" fill-rule="evenodd" fill-opacity="1"/>
<polyline clip-path="url(#clip182)" style="stroke:#000000; stroke-linecap:round; stroke-linejoin:round; stroke-width:4; stroke-opacity:1; fill:none" points="532.153,632.582 532.153,686.448 653.618,686.448 653.618,632.582 532.153,632.582 "/>
<path clip-path="url(#clip182)" d="M653.618 528.442 L653.618 686.448 L775.082 686.448 L775.082 528.442 L653.618 528.442 L653.618 528.442  Z" fill="#009af9" fill-rule="evenodd" fill-opacity="1"/>
<polyline clip-path="url(#clip182)" style="stroke:#000000; stroke-linecap:round; stroke-linejoin:round; stroke-width:4; stroke-opacity:1; fill:none" points="653.618,528.442 653.618,686.448 775.082,686.448 775.082,528.442 653.618,528.442 "/>
<path clip-path="url(#clip182)" d="M775.082 417.12 L775.082 686.448 L896.546 686.448 L896.546 417.12 L775.082 417.12 L775.082 417.12  Z" fill="#009af9" fill-rule="evenodd" fill-opacity="1"/>
<polyline clip-path="url(#clip182)" style="stroke:#000000; stroke-linecap:round; stroke-linejoin:round; stroke-width:4; stroke-opacity:1; fill:none" points="775.082,417.12 775.082,686.448 896.546,686.448 896.546,417.12 775.082,417.12 "/>
<path clip-path="url(#clip182)" d="M896.546 251.933 L896.546 686.448 L1018.01 686.448 L1018.01 251.933 L896.546 251.933 L896.546 251.933  Z" fill="#009af9" fill-rule="evenodd" fill-opacity="1"/>
<polyline clip-path="url(#clip182)" style="stroke:#000000; stroke-linecap:round; stroke-linejoin:round; stroke-width:4; stroke-opacity:1; fill:none" points="896.546,251.933 896.546,686.448 1018.01,686.448 1018.01,251.933 896.546,251.933 "/>
<path clip-path="url(#clip182)" d="M1018.01 126.247 L1018.01 686.448 L1139.47 686.448 L1139.47 126.247 L1018.01 126.247 L1018.01 126.247  Z" fill="#009af9" fill-rule="evenodd" fill-opacity="1"/>
<polyline clip-path="url(#clip182)" style="stroke:#000000; stroke-linecap:round; stroke-linejoin:round; stroke-width:4; stroke-opacity:1; fill:none" points="1018.01,126.247 1018.01,686.448 1139.47,686.448 1139.47,126.247 1018.01,126.247 "/>
<path clip-path="url(#clip182)" d="M1139.47 47.2441 L1139.47 686.448 L1260.94 686.448 L1260.94 47.2441 L1139.47 47.2441 L1139.47 47.2441  Z" fill="#009af9" fill-rule="evenodd" fill-opacity="1"/>
<polyline clip-path="url(#clip182)" style="stroke:#000000; stroke-linecap:round; stroke-linejoin:round; stroke-width:4; stroke-opacity:1; fill:none" points="1139.47,47.2441 1139.47,686.448 1260.94,686.448 1260.94,47.2441 1139.47,47.2441 "/>
<path clip-path="url(#clip182)" d="M1260.94 162.157 L1260.94 686.448 L1382.4 686.448 L1382.4 162.157 L1260.94 162.157 L1260.94 162.157  Z" fill="#009af9" fill-rule="evenodd" fill-opacity="1"/>
<polyline clip-path="url(#clip182)" style="stroke:#000000; stroke-linecap:round; stroke-linejoin:round; stroke-width:4; stroke-opacity:1; fill:none" points="1260.94,162.157 1260.94,686.448 1382.4,686.448 1382.4,162.157 1260.94,162.157 "/>
<path clip-path="url(#clip182)" d="M1382.4 284.252 L1382.4 686.448 L1503.87 686.448 L1503.87 284.252 L1382.4 284.252 L1382.4 284.252  Z" fill="#009af9" fill-rule="evenodd" fill-opacity="1"/>
<polyline clip-path="url(#clip182)" style="stroke:#000000; stroke-linecap:round; stroke-linejoin:round; stroke-width:4; stroke-opacity:1; fill:none" points="1382.4,284.252 1382.4,686.448 1503.87,686.448 1503.87,284.252 1382.4,284.252 "/>
<path clip-path="url(#clip182)" d="M1503.87 427.894 L1503.87 686.448 L1625.33 686.448 L1625.33 427.894 L1503.87 427.894 L1503.87 427.894  Z" fill="#009af9" fill-rule="evenodd" fill-opacity="1"/>
<polyline clip-path="url(#clip182)" style="stroke:#000000; stroke-linecap:round; stroke-linejoin:round; stroke-width:4; stroke-opacity:1; fill:none" points="1503.87,427.894 1503.87,686.448 1625.33,686.448 1625.33,427.894 1503.87,427.894 "/>
<path clip-path="url(#clip182)" d="M1625.33 499.714 L1625.33 686.448 L1746.8 686.448 L1746.8 499.714 L1625.33 499.714 L1625.33 499.714  Z" fill="#009af9" fill-rule="evenodd" fill-opacity="1"/>
<polyline clip-path="url(#clip182)" style="stroke:#000000; stroke-linecap:round; stroke-linejoin:round; stroke-width:4; stroke-opacity:1; fill:none" points="1625.33,499.714 1625.33,686.448 1746.8,686.448 1746.8,499.714 1625.33,499.714 "/>
<path clip-path="url(#clip182)" d="M1746.8 650.538 L1746.8 686.448 L1868.26 686.448 L1868.26 650.538 L1746.8 650.538 L1746.8 650.538  Z" fill="#009af9" fill-rule="evenodd" fill-opacity="1"/>
<polyline clip-path="url(#clip182)" style="stroke:#000000; stroke-linecap:round; stroke-linejoin:round; stroke-width:4; stroke-opacity:1; fill:none" points="1746.8,650.538 1746.8,686.448 1868.26,686.448 1868.26,650.538 1746.8,650.538 "/>
<path clip-path="url(#clip182)" d="M1868.26 657.72 L1868.26 686.448 L1989.72 686.448 L1989.72 657.72 L1868.26 657.72 L1868.26 657.72  Z" fill="#009af9" fill-rule="evenodd" fill-opacity="1"/>
<polyline clip-path="url(#clip182)" style="stroke:#000000; stroke-linecap:round; stroke-linejoin:round; stroke-width:4; stroke-opacity:1; fill:none" points="1868.26,657.72 1868.26,686.448 1989.72,686.448 1989.72,657.72 1868.26,657.72 "/>
<path clip-path="url(#clip182)" d="M1989.72 675.675 L1989.72 686.448 L2111.19 686.448 L2111.19 675.675 L1989.72 675.675 L1989.72 675.675  Z" fill="#009af9" fill-rule="evenodd" fill-opacity="1"/>
<polyline clip-path="url(#clip182)" style="stroke:#000000; stroke-linecap:round; stroke-linejoin:round; stroke-width:4; stroke-opacity:1; fill:none" points="1989.72,675.675 1989.72,686.448 2111.19,686.448 2111.19,675.675 1989.72,675.675 "/>
<path clip-path="url(#clip182)" d="M2111.19 682.857 L2111.19 686.448 L2232.65 686.448 L2232.65 682.857 L2111.19 682.857 L2111.19 682.857  Z" fill="#009af9" fill-rule="evenodd" fill-opacity="1"/>
<polyline clip-path="url(#clip182)" style="stroke:#000000; stroke-linecap:round; stroke-linejoin:round; stroke-width:4; stroke-opacity:1; fill:none" points="2111.19,682.857 2111.19,686.448 2232.65,686.448 2232.65,682.857 2111.19,682.857 "/>
<circle clip-path="url(#clip182)" style="fill:#009af9; stroke:none; fill-opacity:0" cx="349.957" cy="682.857" r="2"/>
<circle clip-path="url(#clip182)" style="fill:#009af9; stroke:none; fill-opacity:0" cx="471.421" cy="664.902" r="2"/>
<circle clip-path="url(#clip182)" style="fill:#009af9; stroke:none; fill-opacity:0" cx="592.886" cy="632.582" r="2"/>
<circle clip-path="url(#clip182)" style="fill:#009af9; stroke:none; fill-opacity:0" cx="714.35" cy="528.442" r="2"/>
<circle clip-path="url(#clip182)" style="fill:#009af9; stroke:none; fill-opacity:0" cx="835.814" cy="417.12" r="2"/>
<circle clip-path="url(#clip182)" style="fill:#009af9; stroke:none; fill-opacity:0" cx="957.278" cy="251.933" r="2"/>
<circle clip-path="url(#clip182)" style="fill:#009af9; stroke:none; fill-opacity:0" cx="1078.74" cy="126.247" r="2"/>
<circle clip-path="url(#clip182)" style="fill:#009af9; stroke:none; fill-opacity:0" cx="1200.21" cy="47.2441" r="2"/>
<circle clip-path="url(#clip182)" style="fill:#009af9; stroke:none; fill-opacity:0" cx="1321.67" cy="162.157" r="2"/>
<circle clip-path="url(#clip182)" style="fill:#009af9; stroke:none; fill-opacity:0" cx="1443.13" cy="284.252" r="2"/>
<circle clip-path="url(#clip182)" style="fill:#009af9; stroke:none; fill-opacity:0" cx="1564.6" cy="427.894" r="2"/>
<circle clip-path="url(#clip182)" style="fill:#009af9; stroke:none; fill-opacity:0" cx="1686.06" cy="499.714" r="2"/>
<circle clip-path="url(#clip182)" style="fill:#009af9; stroke:none; fill-opacity:0" cx="1807.53" cy="650.538" r="2"/>
<circle clip-path="url(#clip182)" style="fill:#009af9; stroke:none; fill-opacity:0" cx="1928.99" cy="657.72" r="2"/>
<circle clip-path="url(#clip182)" style="fill:#009af9; stroke:none; fill-opacity:0" cx="2050.46" cy="675.675" r="2"/>
<circle clip-path="url(#clip182)" style="fill:#009af9; stroke:none; fill-opacity:0" cx="2171.92" cy="682.857" r="2"/>
<path clip-path="url(#clip180)" d="M2019.45 172.231 L2279.97 172.231 L2279.97 68.5509 L2019.45 68.5509  Z" fill="#ffffff" fill-rule="evenodd" fill-opacity="1"/>
<polyline clip-path="url(#clip180)" style="stroke:#000000; stroke-linecap:round; stroke-linejoin:round; stroke-width:4; stroke-opacity:1; fill:none" points="2019.45,172.231 2279.97,172.231 2279.97,68.5509 2019.45,68.5509 2019.45,172.231 "/>
<path clip-path="url(#clip180)" d="M2043.71 141.127 L2189.29 141.127 L2189.29 99.6549 L2043.71 99.6549 L2043.71 141.127  Z" fill="#009af9" fill-rule="evenodd" fill-opacity="1"/>
<polyline clip-path="url(#clip180)" style="stroke:#000000; stroke-linecap:round; stroke-linejoin:round; stroke-width:4; stroke-opacity:1; fill:none" points="2043.71,141.127 2189.29,141.127 2189.29,99.6549 2043.71,99.6549 2043.71,141.127 "/>
<path clip-path="url(#clip180)" d="M2235.27 122.023 L2235.27 137.671 L2231.01 137.671 L2231.01 122.162 Q2231.01 118.481 2229.57 116.652 Q2228.14 114.824 2225.27 114.824 Q2221.82 114.824 2219.83 117.023 Q2217.84 119.222 2217.84 123.018 L2217.84 137.671 L2213.55 137.671 L2213.55 111.745 L2217.84 111.745 L2217.84 115.773 Q2219.36 113.435 2221.42 112.278 Q2223.51 111.12 2226.21 111.12 Q2230.68 111.12 2232.97 113.898 Q2235.27 116.652 2235.27 122.023 Z" fill="#000000" fill-rule="nonzero" fill-opacity="1" /><path clip-path="url(#clip180)" d="M2242.9 135.125 L2247.63 135.125 L2247.63 120.981 L2242.46 121.93 L2242.46 119.245 L2247.79 118.342 L2250.96 118.342 L2250.96 135.125 L2255.71 135.125 L2255.71 137.671 L2242.9 137.671 L2242.9 135.125 Z" fill="#000000" fill-rule="nonzero" fill-opacity="1" /><path clip-path="url(#clip180)" d="M169.121 1486.45 L2352.76 1486.45 L2352.76 847.244 L169.121 847.244  Z" fill="#ffffff" fill-rule="evenodd" fill-opacity="1"/>
<defs>
  <clipPath id="clip183">
    <rect x="169" y="847" width="2185" height="640"/>
  </clipPath>
</defs>
<polyline clip-path="url(#clip183)" style="stroke:#000000; stroke-linecap:round; stroke-linejoin:round; stroke-width:2; stroke-opacity:0.1; fill:none" points="354.006,1486.45 354.006,847.244 "/>
<polyline clip-path="url(#clip183)" style="stroke:#000000; stroke-linecap:round; stroke-linejoin:round; stroke-width:2; stroke-opacity:0.1; fill:none" points="1001.82,1486.45 1001.82,847.244 "/>
<polyline clip-path="url(#clip183)" style="stroke:#000000; stroke-linecap:round; stroke-linejoin:round; stroke-width:2; stroke-opacity:0.1; fill:none" points="1649.62,1486.45 1649.62,847.244 "/>
<polyline clip-path="url(#clip183)" style="stroke:#000000; stroke-linecap:round; stroke-linejoin:round; stroke-width:2; stroke-opacity:0.1; fill:none" points="2297.43,1486.45 2297.43,847.244 "/>
<polyline clip-path="url(#clip183)" style="stroke:#000000; stroke-linecap:round; stroke-linejoin:round; stroke-width:2; stroke-opacity:0.1; fill:none" points="169.121,1486.45 2352.76,1486.45 "/>
<polyline clip-path="url(#clip183)" style="stroke:#000000; stroke-linecap:round; stroke-linejoin:round; stroke-width:2; stroke-opacity:0.1; fill:none" points="169.121,1356 2352.76,1356 "/>
<polyline clip-path="url(#clip183)" style="stroke:#000000; stroke-linecap:round; stroke-linejoin:round; stroke-width:2; stroke-opacity:0.1; fill:none" points="169.121,1225.55 2352.76,1225.55 "/>
<polyline clip-path="url(#clip183)" style="stroke:#000000; stroke-linecap:round; stroke-linejoin:round; stroke-width:2; stroke-opacity:0.1; fill:none" points="169.121,1095.1 2352.76,1095.1 "/>
<polyline clip-path="url(#clip183)" style="stroke:#000000; stroke-linecap:round; stroke-linejoin:round; stroke-width:2; stroke-opacity:0.1; fill:none" points="169.121,964.649 2352.76,964.649 "/>
<polyline clip-path="url(#clip180)" style="stroke:#000000; stroke-linecap:round; stroke-linejoin:round; stroke-width:4; stroke-opacity:1; fill:none" points="169.121,1486.45 2352.76,1486.45 "/>
<polyline clip-path="url(#clip180)" style="stroke:#000000; stroke-linecap:round; stroke-linejoin:round; stroke-width:4; stroke-opacity:1; fill:none" points="354.006,1486.45 354.006,1467.55 "/>
<polyline clip-path="url(#clip180)" style="stroke:#000000; stroke-linecap:round; stroke-linejoin:round; stroke-width:4; stroke-opacity:1; fill:none" points="1001.82,1486.45 1001.82,1467.55 "/>
<polyline clip-path="url(#clip180)" style="stroke:#000000; stroke-linecap:round; stroke-linejoin:round; stroke-width:4; stroke-opacity:1; fill:none" points="1649.62,1486.45 1649.62,1467.55 "/>
<polyline clip-path="url(#clip180)" style="stroke:#000000; stroke-linecap:round; stroke-linejoin:round; stroke-width:4; stroke-opacity:1; fill:none" points="2297.43,1486.45 2297.43,1467.55 "/>
<path clip-path="url(#clip180)" d="M276.414 1544.91 L284.053 1544.91 L284.053 1518.55 L275.743 1520.21 L275.743 1515.95 L284.006 1514.29 L288.682 1514.29 L288.682 1544.91 L296.321 1544.91 L296.321 1548.85 L276.414 1548.85 L276.414 1544.91 Z" fill="#000000" fill-rule="nonzero" fill-opacity="1" /><path clip-path="url(#clip180)" d="M305.766 1542.97 L310.65 1542.97 L310.65 1548.85 L305.766 1548.85 L305.766 1542.97 Z" fill="#000000" fill-rule="nonzero" fill-opacity="1" /><path clip-path="url(#clip180)" d="M319.654 1514.29 L341.876 1514.29 L341.876 1516.28 L329.33 1548.85 L324.446 1548.85 L336.251 1518.22 L319.654 1518.22 L319.654 1514.29 Z" fill="#000000" fill-rule="nonzero" fill-opacity="1" /><path clip-path="url(#clip180)" d="M351.043 1514.29 L369.399 1514.29 L369.399 1518.22 L355.325 1518.22 L355.325 1526.7 Q356.344 1526.35 357.362 1526.19 Q358.381 1526 359.399 1526 Q365.187 1526 368.566 1529.17 Q371.946 1532.34 371.946 1537.76 Q371.946 1543.34 368.474 1546.44 Q365.001 1549.52 358.682 1549.52 Q356.506 1549.52 354.237 1549.15 Q351.992 1548.78 349.585 1548.04 L349.585 1543.34 Q351.668 1544.47 353.89 1545.03 Q356.112 1545.58 358.589 1545.58 Q362.594 1545.58 364.932 1543.48 Q367.27 1541.37 367.27 1537.76 Q367.27 1534.15 364.932 1532.04 Q362.594 1529.94 358.589 1529.94 Q356.714 1529.94 354.839 1530.35 Q352.987 1530.77 351.043 1531.65 L351.043 1514.29 Z" fill="#000000" fill-rule="nonzero" fill-opacity="1" /><path clip-path="url(#clip180)" d="M391.159 1517.37 Q387.547 1517.37 385.719 1520.93 Q383.913 1524.47 383.913 1531.6 Q383.913 1538.71 385.719 1542.27 Q387.547 1545.82 391.159 1545.82 Q394.793 1545.82 396.598 1542.27 Q398.427 1538.71 398.427 1531.6 Q398.427 1524.47 396.598 1520.93 Q394.793 1517.37 391.159 1517.37 M391.159 1513.66 Q396.969 1513.66 400.024 1518.27 Q403.103 1522.85 403.103 1531.6 Q403.103 1540.33 400.024 1544.94 Q396.969 1549.52 391.159 1549.52 Q385.348 1549.52 382.27 1544.94 Q379.214 1540.33 379.214 1531.6 Q379.214 1522.85 382.27 1518.27 Q385.348 1513.66 391.159 1513.66 Z" fill="#000000" fill-rule="nonzero" fill-opacity="1" /><path clip-path="url(#clip180)" d="M411.367 1514.29 L429.723 1514.29 L429.723 1518.22 L415.649 1518.22 L415.649 1526.7 Q416.668 1526.35 417.686 1526.19 Q418.705 1526 419.723 1526 Q425.51 1526 428.89 1529.17 Q432.269 1532.34 432.269 1537.76 Q432.269 1543.34 428.797 1546.44 Q425.325 1549.52 419.006 1549.52 Q416.83 1549.52 414.561 1549.15 Q412.316 1548.78 409.908 1548.04 L409.908 1543.34 Q411.992 1544.47 414.214 1545.03 Q416.436 1545.58 418.913 1545.58 Q422.918 1545.58 425.256 1543.48 Q427.594 1541.37 427.594 1537.76 Q427.594 1534.15 425.256 1532.04 Q422.918 1529.94 418.913 1529.94 Q417.038 1529.94 415.163 1530.35 Q413.311 1530.77 411.367 1531.65 L411.367 1514.29 Z" fill="#000000" fill-rule="nonzero" fill-opacity="1" /><path clip-path="url(#clip180)" d="M923.725 1544.91 L931.364 1544.91 L931.364 1518.55 L923.054 1520.21 L923.054 1515.95 L931.318 1514.29 L935.994 1514.29 L935.994 1544.91 L943.632 1544.91 L943.632 1548.85 L923.725 1548.85 L923.725 1544.91 Z" fill="#000000" fill-rule="nonzero" fill-opacity="1" /><path clip-path="url(#clip180)" d="M953.077 1542.97 L957.961 1542.97 L957.961 1548.85 L953.077 1548.85 L953.077 1542.97 Z" fill="#000000" fill-rule="nonzero" fill-opacity="1" /><path clip-path="url(#clip180)" d="M966.966 1514.29 L989.188 1514.29 L989.188 1516.28 L976.642 1548.85 L971.757 1548.85 L983.563 1518.22 L966.966 1518.22 L966.966 1514.29 Z" fill="#000000" fill-rule="nonzero" fill-opacity="1" /><path clip-path="url(#clip180)" d="M998.354 1514.29 L1016.71 1514.29 L1016.71 1518.22 L1002.64 1518.22 L1002.64 1526.7 Q1003.66 1526.35 1004.67 1526.19 Q1005.69 1526 1006.71 1526 Q1012.5 1526 1015.88 1529.17 Q1019.26 1532.34 1019.26 1537.76 Q1019.26 1543.34 1015.78 1546.44 Q1012.31 1549.52 1005.99 1549.52 Q1003.82 1549.52 1001.55 1549.15 Q999.303 1548.78 996.896 1548.04 L996.896 1543.34 Q998.979 1544.47 1001.2 1545.03 Q1003.42 1545.58 1005.9 1545.58 Q1009.91 1545.58 1012.24 1543.48 Q1014.58 1541.37 1014.58 1537.76 Q1014.58 1534.15 1012.24 1532.04 Q1009.91 1529.94 1005.9 1529.94 Q1004.03 1529.94 1002.15 1530.35 Q1000.3 1530.77 998.354 1531.65 L998.354 1514.29 Z" fill="#000000" fill-rule="nonzero" fill-opacity="1" /><path clip-path="url(#clip180)" d="M1029.28 1544.91 L1036.92 1544.91 L1036.92 1518.55 L1028.61 1520.21 L1028.61 1515.95 L1036.87 1514.29 L1041.55 1514.29 L1041.55 1544.91 L1049.19 1544.91 L1049.19 1548.85 L1029.28 1548.85 L1029.28 1544.91 Z" fill="#000000" fill-rule="nonzero" fill-opacity="1" /><path clip-path="url(#clip180)" d="M1068.63 1517.37 Q1065.02 1517.37 1063.19 1520.93 Q1061.39 1524.47 1061.39 1531.6 Q1061.39 1538.71 1063.19 1542.27 Q1065.02 1545.82 1068.63 1545.82 Q1072.27 1545.82 1074.07 1542.27 Q1075.9 1538.71 1075.9 1531.6 Q1075.9 1524.47 1074.07 1520.93 Q1072.27 1517.37 1068.63 1517.37 M1068.63 1513.66 Q1074.44 1513.66 1077.5 1518.27 Q1080.58 1522.85 1080.58 1531.6 Q1080.58 1540.33 1077.5 1544.94 Q1074.44 1549.52 1068.63 1549.52 Q1062.82 1549.52 1059.74 1544.94 Q1056.69 1540.33 1056.69 1531.6 Q1056.69 1522.85 1059.74 1518.27 Q1062.82 1513.66 1068.63 1513.66 Z" fill="#000000" fill-rule="nonzero" fill-opacity="1" /><path clip-path="url(#clip180)" d="M1572.03 1544.91 L1579.67 1544.91 L1579.67 1518.55 L1571.36 1520.21 L1571.36 1515.95 L1579.62 1514.29 L1584.3 1514.29 L1584.3 1544.91 L1591.94 1544.91 L1591.94 1548.85 L1572.03 1548.85 L1572.03 1544.91 Z" fill="#000000" fill-rule="nonzero" fill-opacity="1" /><path clip-path="url(#clip180)" d="M1601.38 1542.97 L1606.27 1542.97 L1606.27 1548.85 L1601.38 1548.85 L1601.38 1542.97 Z" fill="#000000" fill-rule="nonzero" fill-opacity="1" /><path clip-path="url(#clip180)" d="M1615.27 1514.29 L1637.49 1514.29 L1637.49 1516.28 L1624.95 1548.85 L1620.06 1548.85 L1631.87 1518.22 L1615.27 1518.22 L1615.27 1514.29 Z" fill="#000000" fill-rule="nonzero" fill-opacity="1" /><path clip-path="url(#clip180)" d="M1646.66 1514.29 L1665.02 1514.29 L1665.02 1518.22 L1650.94 1518.22 L1650.94 1526.7 Q1651.96 1526.35 1652.98 1526.19 Q1654 1526 1655.02 1526 Q1660.8 1526 1664.18 1529.17 Q1667.56 1532.34 1667.56 1537.76 Q1667.56 1543.34 1664.09 1546.44 Q1660.62 1549.52 1654.3 1549.52 Q1652.12 1549.52 1649.86 1549.15 Q1647.61 1548.78 1645.2 1548.04 L1645.2 1543.34 Q1647.29 1544.47 1649.51 1545.03 Q1651.73 1545.58 1654.21 1545.58 Q1658.21 1545.58 1660.55 1543.48 Q1662.89 1541.37 1662.89 1537.76 Q1662.89 1534.15 1660.55 1532.04 Q1658.21 1529.94 1654.21 1529.94 Q1652.33 1529.94 1650.46 1530.35 Q1648.61 1530.77 1646.66 1531.65 L1646.66 1514.29 Z" fill="#000000" fill-rule="nonzero" fill-opacity="1" /><path clip-path="url(#clip180)" d="M1677.59 1544.91 L1685.23 1544.91 L1685.23 1518.55 L1676.92 1520.21 L1676.92 1515.95 L1685.18 1514.29 L1689.86 1514.29 L1689.86 1544.91 L1697.49 1544.91 L1697.49 1548.85 L1677.59 1548.85 L1677.59 1544.91 Z" fill="#000000" fill-rule="nonzero" fill-opacity="1" /><path clip-path="url(#clip180)" d="M1706.98 1514.29 L1725.34 1514.29 L1725.34 1518.22 L1711.27 1518.22 L1711.27 1526.7 Q1712.29 1526.35 1713.3 1526.19 Q1714.32 1526 1715.34 1526 Q1721.13 1526 1724.51 1529.17 Q1727.89 1532.34 1727.89 1537.76 Q1727.89 1543.34 1724.42 1546.44 Q1720.94 1549.52 1714.62 1549.52 Q1712.45 1549.52 1710.18 1549.15 Q1707.93 1548.78 1705.53 1548.04 L1705.53 1543.34 Q1707.61 1544.47 1709.83 1545.03 Q1712.05 1545.58 1714.53 1545.58 Q1718.54 1545.58 1720.87 1543.48 Q1723.21 1541.37 1723.21 1537.76 Q1723.21 1534.15 1720.87 1532.04 Q1718.54 1529.94 1714.53 1529.94 Q1712.66 1529.94 1710.78 1530.35 Q1708.93 1530.77 1706.98 1531.65 L1706.98 1514.29 Z" fill="#000000" fill-rule="nonzero" fill-opacity="1" /><path clip-path="url(#clip180)" d="M2219.34 1544.91 L2226.98 1544.91 L2226.98 1518.55 L2218.67 1520.21 L2218.67 1515.95 L2226.94 1514.29 L2231.61 1514.29 L2231.61 1544.91 L2239.25 1544.91 L2239.25 1548.85 L2219.34 1548.85 L2219.34 1544.91 Z" fill="#000000" fill-rule="nonzero" fill-opacity="1" /><path clip-path="url(#clip180)" d="M2248.69 1542.97 L2253.58 1542.97 L2253.58 1548.85 L2248.69 1548.85 L2248.69 1542.97 Z" fill="#000000" fill-rule="nonzero" fill-opacity="1" /><path clip-path="url(#clip180)" d="M2262.58 1514.29 L2284.81 1514.29 L2284.81 1516.28 L2272.26 1548.85 L2267.38 1548.85 L2279.18 1518.22 L2262.58 1518.22 L2262.58 1514.29 Z" fill="#000000" fill-rule="nonzero" fill-opacity="1" /><path clip-path="url(#clip180)" d="M2293.97 1514.29 L2312.33 1514.29 L2312.33 1518.22 L2298.25 1518.22 L2298.25 1526.7 Q2299.27 1526.35 2300.29 1526.19 Q2301.31 1526 2302.33 1526 Q2308.12 1526 2311.5 1529.17 Q2314.88 1532.34 2314.88 1537.76 Q2314.88 1543.34 2311.4 1546.44 Q2307.93 1549.52 2301.61 1549.52 Q2299.44 1549.52 2297.17 1549.15 Q2294.92 1548.78 2292.51 1548.04 L2292.51 1543.34 Q2294.6 1544.47 2296.82 1545.03 Q2299.04 1545.58 2301.52 1545.58 Q2305.52 1545.58 2307.86 1543.48 Q2310.2 1541.37 2310.2 1537.76 Q2310.2 1534.15 2307.86 1532.04 Q2305.52 1529.94 2301.52 1529.94 Q2299.64 1529.94 2297.77 1530.35 Q2295.92 1530.77 2293.97 1531.65 L2293.97 1514.29 Z" fill="#000000" fill-rule="nonzero" fill-opacity="1" /><path clip-path="url(#clip180)" d="M2328.12 1544.91 L2344.44 1544.91 L2344.44 1548.85 L2322.49 1548.85 L2322.49 1544.91 Q2325.15 1542.16 2329.74 1537.53 Q2334.34 1532.88 2335.52 1531.53 Q2337.77 1529.01 2338.65 1527.27 Q2339.55 1525.51 2339.55 1523.82 Q2339.55 1521.07 2337.61 1519.33 Q2335.69 1517.6 2332.58 1517.6 Q2330.38 1517.6 2327.93 1518.36 Q2325.5 1519.13 2322.72 1520.68 L2322.72 1515.95 Q2325.55 1514.82 2328 1514.24 Q2330.45 1513.66 2332.49 1513.66 Q2337.86 1513.66 2341.06 1516.35 Q2344.25 1519.03 2344.25 1523.52 Q2344.25 1525.65 2343.44 1527.57 Q2342.65 1529.47 2340.55 1532.07 Q2339.97 1532.74 2336.87 1535.95 Q2333.76 1539.15 2328.12 1544.91 Z" fill="#000000" fill-rule="nonzero" fill-opacity="1" /><path clip-path="url(#clip180)" d="M2364.25 1517.37 Q2360.64 1517.37 2358.81 1520.93 Q2357 1524.47 2357 1531.6 Q2357 1538.71 2358.81 1542.27 Q2360.64 1545.82 2364.25 1545.82 Q2367.88 1545.82 2369.69 1542.27 Q2371.52 1538.71 2371.52 1531.6 Q2371.52 1524.47 2369.69 1520.93 Q2367.88 1517.37 2364.25 1517.37 M2364.25 1513.66 Q2370.06 1513.66 2373.12 1518.27 Q2376.19 1522.85 2376.19 1531.6 Q2376.19 1540.33 2373.12 1544.94 Q2370.06 1549.52 2364.25 1549.52 Q2358.44 1549.52 2355.36 1544.94 Q2352.31 1540.33 2352.31 1531.6 Q2352.31 1522.85 2355.36 1518.27 Q2358.44 1513.66 2364.25 1513.66 Z" fill="#000000" fill-rule="nonzero" fill-opacity="1" /><polyline clip-path="url(#clip180)" style="stroke:#000000; stroke-linecap:round; stroke-linejoin:round; stroke-width:4; stroke-opacity:1; fill:none" points="169.121,1486.45 169.121,847.244 "/>
<polyline clip-path="url(#clip180)" style="stroke:#000000; stroke-linecap:round; stroke-linejoin:round; stroke-width:4; stroke-opacity:1; fill:none" points="169.121,1486.45 188.019,1486.45 "/>
<polyline clip-path="url(#clip180)" style="stroke:#000000; stroke-linecap:round; stroke-linejoin:round; stroke-width:4; stroke-opacity:1; fill:none" points="169.121,1356 188.019,1356 "/>
<polyline clip-path="url(#clip180)" style="stroke:#000000; stroke-linecap:round; stroke-linejoin:round; stroke-width:4; stroke-opacity:1; fill:none" points="169.121,1225.55 188.019,1225.55 "/>
<polyline clip-path="url(#clip180)" style="stroke:#000000; stroke-linecap:round; stroke-linejoin:round; stroke-width:4; stroke-opacity:1; fill:none" points="169.121,1095.1 188.019,1095.1 "/>
<polyline clip-path="url(#clip180)" style="stroke:#000000; stroke-linecap:round; stroke-linejoin:round; stroke-width:4; stroke-opacity:1; fill:none" points="169.121,964.649 188.019,964.649 "/>
<path clip-path="url(#clip180)" d="M121.177 1472.25 Q117.566 1472.25 115.737 1475.81 Q113.932 1479.35 113.932 1486.48 Q113.932 1493.59 115.737 1497.15 Q117.566 1500.7 121.177 1500.7 Q124.811 1500.7 126.617 1497.15 Q128.445 1493.59 128.445 1486.48 Q128.445 1479.35 126.617 1475.81 Q124.811 1472.25 121.177 1472.25 M121.177 1468.54 Q126.987 1468.54 130.043 1473.15 Q133.121 1477.73 133.121 1486.48 Q133.121 1495.21 130.043 1499.82 Q126.987 1504.4 121.177 1504.4 Q115.367 1504.4 112.288 1499.82 Q109.233 1495.21 109.233 1486.48 Q109.233 1477.73 112.288 1473.15 Q115.367 1468.54 121.177 1468.54 Z" fill="#000000" fill-rule="nonzero" fill-opacity="1" /><path clip-path="url(#clip180)" d="M85.0429 1369.34 L101.362 1369.34 L101.362 1373.28 L79.4179 1373.28 L79.4179 1369.34 Q82.0799 1366.59 86.6632 1361.96 Q91.2697 1357.31 92.4502 1355.96 Q94.6956 1353.44 95.5752 1351.7 Q96.478 1349.94 96.478 1348.26 Q96.478 1345.5 94.5336 1343.76 Q92.6123 1342.03 89.5104 1342.03 Q87.3114 1342.03 84.8577 1342.79 Q82.4271 1343.56 79.6494 1345.11 L79.6494 1340.38 Q82.4734 1339.25 84.9271 1338.67 Q87.3808 1338.09 89.4178 1338.09 Q94.7882 1338.09 97.9826 1340.78 Q101.177 1343.46 101.177 1347.95 Q101.177 1350.08 100.367 1352.01 Q99.5798 1353.9 97.4734 1356.5 Q96.8947 1357.17 93.7928 1360.38 Q90.691 1363.58 85.0429 1369.34 Z" fill="#000000" fill-rule="nonzero" fill-opacity="1" /><path clip-path="url(#clip180)" d="M121.177 1341.8 Q117.566 1341.8 115.737 1345.36 Q113.932 1348.9 113.932 1356.03 Q113.932 1363.14 115.737 1366.7 Q117.566 1370.25 121.177 1370.25 Q124.811 1370.25 126.617 1366.7 Q128.445 1363.14 128.445 1356.03 Q128.445 1348.9 126.617 1345.36 Q124.811 1341.8 121.177 1341.8 M121.177 1338.09 Q126.987 1338.09 130.043 1342.7 Q133.121 1347.28 133.121 1356.03 Q133.121 1364.76 130.043 1369.37 Q126.987 1373.95 121.177 1373.95 Q115.367 1373.95 112.288 1369.37 Q109.233 1364.76 109.233 1356.03 Q109.233 1347.28 112.288 1342.7 Q115.367 1338.09 121.177 1338.09 Z" fill="#000000" fill-rule="nonzero" fill-opacity="1" /><path clip-path="url(#clip180)" d="M93.8623 1212.34 L82.0568 1230.79 L93.8623 1230.79 L93.8623 1212.34 M92.6354 1208.27 L98.515 1208.27 L98.515 1230.79 L103.446 1230.79 L103.446 1234.68 L98.515 1234.68 L98.515 1242.83 L93.8623 1242.83 L93.8623 1234.68 L78.2605 1234.68 L78.2605 1230.17 L92.6354 1208.27 Z" fill="#000000" fill-rule="nonzero" fill-opacity="1" /><path clip-path="url(#clip180)" d="M121.177 1211.35 Q117.566 1211.35 115.737 1214.91 Q113.932 1218.45 113.932 1225.58 Q113.932 1232.69 115.737 1236.25 Q117.566 1239.8 121.177 1239.8 Q124.811 1239.8 126.617 1236.25 Q128.445 1232.69 128.445 1225.58 Q128.445 1218.45 126.617 1214.91 Q124.811 1211.35 121.177 1211.35 M121.177 1207.64 Q126.987 1207.64 130.043 1212.25 Q133.121 1216.83 133.121 1225.58 Q133.121 1234.31 130.043 1238.92 Q126.987 1243.5 121.177 1243.5 Q115.367 1243.5 112.288 1238.92 Q109.233 1234.31 109.233 1225.58 Q109.233 1216.83 112.288 1212.25 Q115.367 1207.64 121.177 1207.64 Z" fill="#000000" fill-rule="nonzero" fill-opacity="1" /><path clip-path="url(#clip180)" d="M91.5938 1093.24 Q88.4456 1093.24 86.5938 1095.39 Q84.7651 1097.54 84.7651 1101.29 Q84.7651 1105.02 86.5938 1107.19 Q88.4456 1109.35 91.5938 1109.35 Q94.7419 1109.35 96.5706 1107.19 Q98.4224 1105.02 98.4224 1101.29 Q98.4224 1097.54 96.5706 1095.39 Q94.7419 1093.24 91.5938 1093.24 M100.876 1078.58 L100.876 1082.84 Q99.1169 1082.01 97.3113 1081.57 Q95.5289 1081.13 93.7697 1081.13 Q89.1401 1081.13 86.6864 1084.25 Q84.2558 1087.38 83.9086 1093.7 Q85.2743 1091.68 87.3345 1090.62 Q89.3947 1089.53 91.8715 1089.53 Q97.0798 1089.53 100.089 1092.7 Q103.121 1095.85 103.121 1101.29 Q103.121 1106.61 99.9733 1109.83 Q96.8252 1113.05 91.5938 1113.05 Q85.5984 1113.05 82.4271 1108.47 Q79.2559 1103.86 79.2559 1095.13 Q79.2559 1086.94 83.1447 1082.08 Q87.0336 1077.19 93.5845 1077.19 Q95.3437 1077.19 97.1261 1077.54 Q98.9317 1077.89 100.876 1078.58 Z" fill="#000000" fill-rule="nonzero" fill-opacity="1" /><path clip-path="url(#clip180)" d="M121.177 1080.9 Q117.566 1080.9 115.737 1084.46 Q113.932 1088 113.932 1095.13 Q113.932 1102.24 115.737 1105.8 Q117.566 1109.35 121.177 1109.35 Q124.811 1109.35 126.617 1105.8 Q128.445 1102.24 128.445 1095.13 Q128.445 1088 126.617 1084.46 Q124.811 1080.9 121.177 1080.9 M121.177 1077.19 Q126.987 1077.19 130.043 1081.8 Q133.121 1086.38 133.121 1095.13 Q133.121 1103.86 130.043 1108.47 Q126.987 1113.05 121.177 1113.05 Q115.367 1113.05 112.288 1108.47 Q109.233 1103.86 109.233 1095.13 Q109.233 1086.38 112.288 1081.8 Q115.367 1077.19 121.177 1077.19 Z" fill="#000000" fill-rule="nonzero" fill-opacity="1" /><path clip-path="url(#clip180)" d="M91.0151 965.517 Q87.6817 965.517 85.7605 967.299 Q83.8623 969.082 83.8623 972.207 Q83.8623 975.332 85.7605 977.114 Q87.6817 978.896 91.0151 978.896 Q94.3484 978.896 96.2697 977.114 Q98.1909 975.309 98.1909 972.207 Q98.1909 969.082 96.2697 967.299 Q94.3715 965.517 91.0151 965.517 M86.3392 963.526 Q83.3299 962.785 81.6401 960.725 Q79.9735 958.665 79.9735 955.702 Q79.9735 951.559 82.9133 949.151 Q85.8762 946.744 91.0151 946.744 Q96.1771 946.744 99.1169 949.151 Q102.057 951.559 102.057 955.702 Q102.057 958.665 100.367 960.725 Q98.7002 962.785 95.7141 963.526 Q99.0937 964.313 100.969 966.605 Q102.867 968.897 102.867 972.207 Q102.867 977.23 99.7882 979.915 Q96.7326 982.6 91.0151 982.6 Q85.2975 982.6 82.2188 979.915 Q79.1633 977.23 79.1633 972.207 Q79.1633 968.897 81.0614 966.605 Q82.9595 964.313 86.3392 963.526 M84.6262 956.142 Q84.6262 958.827 86.2929 960.332 Q87.9827 961.836 91.0151 961.836 Q94.0243 961.836 95.7141 960.332 Q97.4271 958.827 97.4271 956.142 Q97.4271 953.457 95.7141 951.952 Q94.0243 950.448 91.0151 950.448 Q87.9827 950.448 86.2929 951.952 Q84.6262 953.457 84.6262 956.142 Z" fill="#000000" fill-rule="nonzero" fill-opacity="1" /><path clip-path="url(#clip180)" d="M121.177 950.448 Q117.566 950.448 115.737 954.012 Q113.932 957.554 113.932 964.684 Q113.932 971.79 115.737 975.355 Q117.566 978.896 121.177 978.896 Q124.811 978.896 126.617 975.355 Q128.445 971.79 128.445 964.684 Q128.445 957.554 126.617 954.012 Q124.811 950.448 121.177 950.448 M121.177 946.744 Q126.987 946.744 130.043 951.35 Q133.121 955.934 133.121 964.684 Q133.121 973.41 130.043 978.017 Q126.987 982.6 121.177 982.6 Q115.367 982.6 112.288 978.017 Q109.233 973.41 109.233 964.684 Q109.233 955.934 112.288 951.35 Q115.367 946.744 121.177 946.744 Z" fill="#000000" fill-rule="nonzero" fill-opacity="1" /><path clip-path="url(#clip183)" d="M289.225 1473.4 L289.225 1486.45 L354.006 1486.45 L354.006 1473.4 L289.225 1473.4 L289.225 1473.4  Z" fill="#009af9" fill-rule="evenodd" fill-opacity="1"/>
<polyline clip-path="url(#clip183)" style="stroke:#000000; stroke-linecap:round; stroke-linejoin:round; stroke-width:4; stroke-opacity:1; fill:none" points="289.225,1473.4 289.225,1486.45 354.006,1486.45 354.006,1473.4 289.225,1473.4 "/>
<path clip-path="url(#clip183)" d="M354.006 1479.93 L354.006 1486.45 L418.787 1486.45 L418.787 1479.93 L354.006 1479.93 L354.006 1479.93  Z" fill="#009af9" fill-rule="evenodd" fill-opacity="1"/>
<polyline clip-path="url(#clip183)" style="stroke:#000000; stroke-linecap:round; stroke-linejoin:round; stroke-width:4; stroke-opacity:1; fill:none" points="354.006,1479.93 354.006,1486.45 418.787,1486.45 418.787,1479.93 354.006,1479.93 "/>
<path clip-path="url(#clip183)" d="M418.787 1473.4 L418.787 1486.45 L483.568 1486.45 L483.568 1473.4 L418.787 1473.4 L418.787 1473.4  Z" fill="#009af9" fill-rule="evenodd" fill-opacity="1"/>
<polyline clip-path="url(#clip183)" style="stroke:#000000; stroke-linecap:round; stroke-linejoin:round; stroke-width:4; stroke-opacity:1; fill:none" points="418.787,1473.4 418.787,1486.45 483.568,1486.45 483.568,1473.4 418.787,1473.4 "/>
<path clip-path="url(#clip183)" d="M483.568 1453.84 L483.568 1486.45 L548.349 1486.45 L548.349 1453.84 L483.568 1453.84 L483.568 1453.84  Z" fill="#009af9" fill-rule="evenodd" fill-opacity="1"/>
<polyline clip-path="url(#clip183)" style="stroke:#000000; stroke-linecap:round; stroke-linejoin:round; stroke-width:4; stroke-opacity:1; fill:none" points="483.568,1453.84 483.568,1486.45 548.349,1486.45 548.349,1453.84 483.568,1453.84 "/>
<path clip-path="url(#clip183)" d="M548.349 1395.13 L548.349 1486.45 L613.13 1486.45 L613.13 1395.13 L548.349 1395.13 L548.349 1395.13  Z" fill="#009af9" fill-rule="evenodd" fill-opacity="1"/>
<polyline clip-path="url(#clip183)" style="stroke:#000000; stroke-linecap:round; stroke-linejoin:round; stroke-width:4; stroke-opacity:1; fill:none" points="548.349,1395.13 548.349,1486.45 613.13,1486.45 613.13,1395.13 548.349,1395.13 "/>
<path clip-path="url(#clip183)" d="M613.13 1401.66 L613.13 1486.45 L677.911 1486.45 L677.911 1401.66 L613.13 1401.66 L613.13 1401.66  Z" fill="#009af9" fill-rule="evenodd" fill-opacity="1"/>
<polyline clip-path="url(#clip183)" style="stroke:#000000; stroke-linecap:round; stroke-linejoin:round; stroke-width:4; stroke-opacity:1; fill:none" points="613.13,1401.66 613.13,1486.45 677.911,1486.45 677.911,1401.66 613.13,1401.66 "/>
<path clip-path="url(#clip183)" d="M677.911 1362.52 L677.911 1486.45 L742.691 1486.45 L742.691 1362.52 L677.911 1362.52 L677.911 1362.52  Z" fill="#009af9" fill-rule="evenodd" fill-opacity="1"/>
<polyline clip-path="url(#clip183)" style="stroke:#000000; stroke-linecap:round; stroke-linejoin:round; stroke-width:4; stroke-opacity:1; fill:none" points="677.911,1362.52 677.911,1486.45 742.691,1486.45 742.691,1362.52 677.911,1362.52 "/>
<path clip-path="url(#clip183)" d="M742.691 1232.07 L742.691 1486.45 L807.472 1486.45 L807.472 1232.07 L742.691 1232.07 L742.691 1232.07  Z" fill="#009af9" fill-rule="evenodd" fill-opacity="1"/>
<polyline clip-path="url(#clip183)" style="stroke:#000000; stroke-linecap:round; stroke-linejoin:round; stroke-width:4; stroke-opacity:1; fill:none" points="742.691,1232.07 742.691,1486.45 807.472,1486.45 807.472,1232.07 742.691,1232.07 "/>
<path clip-path="url(#clip183)" d="M807.472 1153.8 L807.472 1486.45 L872.253 1486.45 L872.253 1153.8 L807.472 1153.8 L807.472 1153.8  Z" fill="#009af9" fill-rule="evenodd" fill-opacity="1"/>
<polyline clip-path="url(#clip183)" style="stroke:#000000; stroke-linecap:round; stroke-linejoin:round; stroke-width:4; stroke-opacity:1; fill:none" points="807.472,1153.8 807.472,1486.45 872.253,1486.45 872.253,1153.8 807.472,1153.8 "/>
<path clip-path="url(#clip183)" d="M872.253 997.261 L872.253 1486.45 L937.034 1486.45 L937.034 997.261 L872.253 997.261 L872.253 997.261  Z" fill="#009af9" fill-rule="evenodd" fill-opacity="1"/>
<polyline clip-path="url(#clip183)" style="stroke:#000000; stroke-linecap:round; stroke-linejoin:round; stroke-width:4; stroke-opacity:1; fill:none" points="872.253,997.261 872.253,1486.45 937.034,1486.45 937.034,997.261 872.253,997.261 "/>
<path clip-path="url(#clip183)" d="M937.034 971.171 L937.034 1486.45 L1001.82 1486.45 L1001.82 971.171 L937.034 971.171 L937.034 971.171  Z" fill="#009af9" fill-rule="evenodd" fill-opacity="1"/>
<polyline clip-path="url(#clip183)" style="stroke:#000000; stroke-linecap:round; stroke-linejoin:round; stroke-width:4; stroke-opacity:1; fill:none" points="937.034,971.171 937.034,1486.45 1001.82,1486.45 1001.82,971.171 937.034,971.171 "/>
<path clip-path="url(#clip183)" d="M1001.82 964.649 L1001.82 1486.45 L1066.6 1486.45 L1066.6 964.649 L1001.82 964.649 L1001.82 964.649  Z" fill="#009af9" fill-rule="evenodd" fill-opacity="1"/>
<polyline clip-path="url(#clip183)" style="stroke:#000000; stroke-linecap:round; stroke-linejoin:round; stroke-width:4; stroke-opacity:1; fill:none" points="1001.82,964.649 1001.82,1486.45 1066.6,1486.45 1066.6,964.649 1001.82,964.649 "/>
<path clip-path="url(#clip183)" d="M1066.6 860.289 L1066.6 1486.45 L1131.38 1486.45 L1131.38 860.289 L1066.6 860.289 L1066.6 860.289  Z" fill="#009af9" fill-rule="evenodd" fill-opacity="1"/>
<polyline clip-path="url(#clip183)" style="stroke:#000000; stroke-linecap:round; stroke-linejoin:round; stroke-width:4; stroke-opacity:1; fill:none" points="1066.6,860.289 1066.6,1486.45 1131.38,1486.45 1131.38,860.289 1066.6,860.289 "/>
<path clip-path="url(#clip183)" d="M1131.38 899.424 L1131.38 1486.45 L1196.16 1486.45 L1196.16 899.424 L1131.38 899.424 L1131.38 899.424  Z" fill="#009af9" fill-rule="evenodd" fill-opacity="1"/>
<polyline clip-path="url(#clip183)" style="stroke:#000000; stroke-linecap:round; stroke-linejoin:round; stroke-width:4; stroke-opacity:1; fill:none" points="1131.38,899.424 1131.38,1486.45 1196.16,1486.45 1196.16,899.424 1131.38,899.424 "/>
<path clip-path="url(#clip183)" d="M1196.16 847.244 L1196.16 1486.45 L1260.94 1486.45 L1260.94 847.244 L1196.16 847.244 L1196.16 847.244  Z" fill="#009af9" fill-rule="evenodd" fill-opacity="1"/>
<polyline clip-path="url(#clip183)" style="stroke:#000000; stroke-linecap:round; stroke-linejoin:round; stroke-width:4; stroke-opacity:1; fill:none" points="1196.16,847.244 1196.16,1486.45 1260.94,1486.45 1260.94,847.244 1196.16,847.244 "/>
<path clip-path="url(#clip183)" d="M1260.94 860.289 L1260.94 1486.45 L1325.72 1486.45 L1325.72 860.289 L1260.94 860.289 L1260.94 860.289  Z" fill="#009af9" fill-rule="evenodd" fill-opacity="1"/>
<polyline clip-path="url(#clip183)" style="stroke:#000000; stroke-linecap:round; stroke-linejoin:round; stroke-width:4; stroke-opacity:1; fill:none" points="1260.94,860.289 1260.94,1486.45 1325.72,1486.45 1325.72,860.289 1260.94,860.289 "/>
<path clip-path="url(#clip183)" d="M1325.72 1108.14 L1325.72 1486.45 L1390.5 1486.45 L1390.5 1108.14 L1325.72 1108.14 L1325.72 1108.14  Z" fill="#009af9" fill-rule="evenodd" fill-opacity="1"/>
<polyline clip-path="url(#clip183)" style="stroke:#000000; stroke-linecap:round; stroke-linejoin:round; stroke-width:4; stroke-opacity:1; fill:none" points="1325.72,1108.14 1325.72,1486.45 1390.5,1486.45 1390.5,1108.14 1325.72,1108.14 "/>
<path clip-path="url(#clip183)" d="M1390.5 1095.1 L1390.5 1486.45 L1455.28 1486.45 L1455.28 1095.1 L1390.5 1095.1 L1390.5 1095.1  Z" fill="#009af9" fill-rule="evenodd" fill-opacity="1"/>
<polyline clip-path="url(#clip183)" style="stroke:#000000; stroke-linecap:round; stroke-linejoin:round; stroke-width:4; stroke-opacity:1; fill:none" points="1390.5,1095.1 1390.5,1486.45 1455.28,1486.45 1455.28,1095.1 1390.5,1095.1 "/>
<path clip-path="url(#clip183)" d="M1455.28 1232.07 L1455.28 1486.45 L1520.06 1486.45 L1520.06 1232.07 L1455.28 1232.07 L1455.28 1232.07  Z" fill="#009af9" fill-rule="evenodd" fill-opacity="1"/>
<polyline clip-path="url(#clip183)" style="stroke:#000000; stroke-linecap:round; stroke-linejoin:round; stroke-width:4; stroke-opacity:1; fill:none" points="1455.28,1232.07 1455.28,1486.45 1520.06,1486.45 1520.06,1232.07 1455.28,1232.07 "/>
<path clip-path="url(#clip183)" d="M1520.06 1277.73 L1520.06 1486.45 L1584.84 1486.45 L1584.84 1277.73 L1520.06 1277.73 L1520.06 1277.73  Z" fill="#009af9" fill-rule="evenodd" fill-opacity="1"/>
<polyline clip-path="url(#clip183)" style="stroke:#000000; stroke-linecap:round; stroke-linejoin:round; stroke-width:4; stroke-opacity:1; fill:none" points="1520.06,1277.73 1520.06,1486.45 1584.84,1486.45 1584.84,1277.73 1520.06,1277.73 "/>
<path clip-path="url(#clip183)" d="M1584.84 1342.95 L1584.84 1486.45 L1649.62 1486.45 L1649.62 1342.95 L1584.84 1342.95 L1584.84 1342.95  Z" fill="#009af9" fill-rule="evenodd" fill-opacity="1"/>
<polyline clip-path="url(#clip183)" style="stroke:#000000; stroke-linecap:round; stroke-linejoin:round; stroke-width:4; stroke-opacity:1; fill:none" points="1584.84,1342.95 1584.84,1486.45 1649.62,1486.45 1649.62,1342.95 1584.84,1342.95 "/>
<path clip-path="url(#clip183)" d="M1649.62 1414.7 L1649.62 1486.45 L1714.4 1486.45 L1714.4 1414.7 L1649.62 1414.7 L1649.62 1414.7  Z" fill="#009af9" fill-rule="evenodd" fill-opacity="1"/>
<polyline clip-path="url(#clip183)" style="stroke:#000000; stroke-linecap:round; stroke-linejoin:round; stroke-width:4; stroke-opacity:1; fill:none" points="1649.62,1414.7 1649.62,1486.45 1714.4,1486.45 1714.4,1414.7 1649.62,1414.7 "/>
<path clip-path="url(#clip183)" d="M1714.4 1421.22 L1714.4 1486.45 L1779.19 1486.45 L1779.19 1421.22 L1714.4 1421.22 L1714.4 1421.22  Z" fill="#009af9" fill-rule="evenodd" fill-opacity="1"/>
<polyline clip-path="url(#clip183)" style="stroke:#000000; stroke-linecap:round; stroke-linejoin:round; stroke-width:4; stroke-opacity:1; fill:none" points="1714.4,1421.22 1714.4,1486.45 1779.19,1486.45 1779.19,1421.22 1714.4,1421.22 "/>
<path clip-path="url(#clip183)" d="M1779.19 1453.84 L1779.19 1486.45 L1843.97 1486.45 L1843.97 1453.84 L1779.19 1453.84 L1779.19 1453.84  Z" fill="#009af9" fill-rule="evenodd" fill-opacity="1"/>
<polyline clip-path="url(#clip183)" style="stroke:#000000; stroke-linecap:round; stroke-linejoin:round; stroke-width:4; stroke-opacity:1; fill:none" points="1779.19,1453.84 1779.19,1486.45 1843.97,1486.45 1843.97,1453.84 1779.19,1453.84 "/>
<path clip-path="url(#clip183)" d="M1843.97 1479.93 L1843.97 1486.45 L1908.75 1486.45 L1908.75 1479.93 L1843.97 1479.93 L1843.97 1479.93  Z" fill="#009af9" fill-rule="evenodd" fill-opacity="1"/>
<polyline clip-path="url(#clip183)" style="stroke:#000000; stroke-linecap:round; stroke-linejoin:round; stroke-width:4; stroke-opacity:1; fill:none" points="1843.97,1479.93 1843.97,1486.45 1908.75,1486.45 1908.75,1479.93 1843.97,1479.93 "/>
<path clip-path="url(#clip183)" d="M1908.75 1486.45 L1908.75 1486.45 L1973.53 1486.45 L1973.53 1486.45 L1908.75 1486.45 L1908.75 1486.45  Z" fill="#009af9" fill-rule="evenodd" fill-opacity="1"/>
<polyline clip-path="url(#clip183)" style="stroke:#000000; stroke-linecap:round; stroke-linejoin:round; stroke-width:4; stroke-opacity:1; fill:none" points="1908.75,1486.45 1908.75,1486.45 1973.53,1486.45 1908.75,1486.45 "/>
<path clip-path="url(#clip183)" d="M1973.53 1479.93 L1973.53 1486.45 L2038.31 1486.45 L2038.31 1479.93 L1973.53 1479.93 L1973.53 1479.93  Z" fill="#009af9" fill-rule="evenodd" fill-opacity="1"/>
<polyline clip-path="url(#clip183)" style="stroke:#000000; stroke-linecap:round; stroke-linejoin:round; stroke-width:4; stroke-opacity:1; fill:none" points="1973.53,1479.93 1973.53,1486.45 2038.31,1486.45 2038.31,1479.93 1973.53,1479.93 "/>
<path clip-path="url(#clip183)" d="M2038.31 1486.45 L2038.31 1486.45 L2103.09 1486.45 L2103.09 1486.45 L2038.31 1486.45 L2038.31 1486.45  Z" fill="#009af9" fill-rule="evenodd" fill-opacity="1"/>
<polyline clip-path="url(#clip183)" style="stroke:#000000; stroke-linecap:round; stroke-linejoin:round; stroke-width:4; stroke-opacity:1; fill:none" points="2038.31,1486.45 2038.31,1486.45 2103.09,1486.45 2038.31,1486.45 "/>
<path clip-path="url(#clip183)" d="M2103.09 1486.45 L2103.09 1486.45 L2167.87 1486.45 L2167.87 1486.45 L2103.09 1486.45 L2103.09 1486.45  Z" fill="#009af9" fill-rule="evenodd" fill-opacity="1"/>
<polyline clip-path="url(#clip183)" style="stroke:#000000; stroke-linecap:round; stroke-linejoin:round; stroke-width:4; stroke-opacity:1; fill:none" points="2103.09,1486.45 2103.09,1486.45 2167.87,1486.45 2103.09,1486.45 "/>
<path clip-path="url(#clip183)" d="M2167.87 1479.93 L2167.87 1486.45 L2232.65 1486.45 L2232.65 1479.93 L2167.87 1479.93 L2167.87 1479.93  Z" fill="#009af9" fill-rule="evenodd" fill-opacity="1"/>
<polyline clip-path="url(#clip183)" style="stroke:#000000; stroke-linecap:round; stroke-linejoin:round; stroke-width:4; stroke-opacity:1; fill:none" points="2167.87,1479.93 2167.87,1486.45 2232.65,1486.45 2232.65,1479.93 2167.87,1479.93 "/>
<circle clip-path="url(#clip183)" style="fill:#009af9; stroke:none; fill-opacity:0" cx="321.616" cy="1473.4" r="2"/>
<circle clip-path="url(#clip183)" style="fill:#009af9; stroke:none; fill-opacity:0" cx="386.396" cy="1479.93" r="2"/>
<circle clip-path="url(#clip183)" style="fill:#009af9; stroke:none; fill-opacity:0" cx="451.177" cy="1473.4" r="2"/>
<circle clip-path="url(#clip183)" style="fill:#009af9; stroke:none; fill-opacity:0" cx="515.958" cy="1453.84" r="2"/>
<circle clip-path="url(#clip183)" style="fill:#009af9; stroke:none; fill-opacity:0" cx="580.739" cy="1395.13" r="2"/>
<circle clip-path="url(#clip183)" style="fill:#009af9; stroke:none; fill-opacity:0" cx="645.52" cy="1401.66" r="2"/>
<circle clip-path="url(#clip183)" style="fill:#009af9; stroke:none; fill-opacity:0" cx="710.301" cy="1362.52" r="2"/>
<circle clip-path="url(#clip183)" style="fill:#009af9; stroke:none; fill-opacity:0" cx="775.082" cy="1232.07" r="2"/>
<circle clip-path="url(#clip183)" style="fill:#009af9; stroke:none; fill-opacity:0" cx="839.863" cy="1153.8" r="2"/>
<circle clip-path="url(#clip183)" style="fill:#009af9; stroke:none; fill-opacity:0" cx="904.644" cy="997.261" r="2"/>
<circle clip-path="url(#clip183)" style="fill:#009af9; stroke:none; fill-opacity:0" cx="969.425" cy="971.171" r="2"/>
<circle clip-path="url(#clip183)" style="fill:#009af9; stroke:none; fill-opacity:0" cx="1034.21" cy="964.649" r="2"/>
<circle clip-path="url(#clip183)" style="fill:#009af9; stroke:none; fill-opacity:0" cx="1098.99" cy="860.289" r="2"/>
<circle clip-path="url(#clip183)" style="fill:#009af9; stroke:none; fill-opacity:0" cx="1163.77" cy="899.424" r="2"/>
<circle clip-path="url(#clip183)" style="fill:#009af9; stroke:none; fill-opacity:0" cx="1228.55" cy="847.244" r="2"/>
<circle clip-path="url(#clip183)" style="fill:#009af9; stroke:none; fill-opacity:0" cx="1293.33" cy="860.289" r="2"/>
<circle clip-path="url(#clip183)" style="fill:#009af9; stroke:none; fill-opacity:0" cx="1358.11" cy="1108.14" r="2"/>
<circle clip-path="url(#clip183)" style="fill:#009af9; stroke:none; fill-opacity:0" cx="1422.89" cy="1095.1" r="2"/>
<circle clip-path="url(#clip183)" style="fill:#009af9; stroke:none; fill-opacity:0" cx="1487.67" cy="1232.07" r="2"/>
<circle clip-path="url(#clip183)" style="fill:#009af9; stroke:none; fill-opacity:0" cx="1552.45" cy="1277.73" r="2"/>
<circle clip-path="url(#clip183)" style="fill:#009af9; stroke:none; fill-opacity:0" cx="1617.23" cy="1342.95" r="2"/>
<circle clip-path="url(#clip183)" style="fill:#009af9; stroke:none; fill-opacity:0" cx="1682.01" cy="1414.7" r="2"/>
<circle clip-path="url(#clip183)" style="fill:#009af9; stroke:none; fill-opacity:0" cx="1746.8" cy="1421.22" r="2"/>
<circle clip-path="url(#clip183)" style="fill:#009af9; stroke:none; fill-opacity:0" cx="1811.58" cy="1453.84" r="2"/>
<circle clip-path="url(#clip183)" style="fill:#009af9; stroke:none; fill-opacity:0" cx="1876.36" cy="1479.93" r="2"/>
<circle clip-path="url(#clip183)" style="fill:#009af9; stroke:none; fill-opacity:0" cx="1941.14" cy="1486.45" r="2"/>
<circle clip-path="url(#clip183)" style="fill:#009af9; stroke:none; fill-opacity:0" cx="2005.92" cy="1479.93" r="2"/>
<circle clip-path="url(#clip183)" style="fill:#009af9; stroke:none; fill-opacity:0" cx="2070.7" cy="1486.45" r="2"/>
<circle clip-path="url(#clip183)" style="fill:#009af9; stroke:none; fill-opacity:0" cx="2135.48" cy="1486.45" r="2"/>
<circle clip-path="url(#clip183)" style="fill:#009af9; stroke:none; fill-opacity:0" cx="2200.26" cy="1479.93" r="2"/>
<path clip-path="url(#clip180)" d="M2019.85 972.231 L2279.97 972.231 L2279.97 868.551 L2019.85 868.551  Z" fill="#ffffff" fill-rule="evenodd" fill-opacity="1"/>
<polyline clip-path="url(#clip180)" style="stroke:#000000; stroke-linecap:round; stroke-linejoin:round; stroke-width:4; stroke-opacity:1; fill:none" points="2019.85,972.231 2279.97,972.231 2279.97,868.551 2019.85,868.551 2019.85,972.231 "/>
<path clip-path="url(#clip180)" d="M2044.11 941.127 L2189.68 941.127 L2189.68 899.655 L2044.11 899.655 L2044.11 941.127  Z" fill="#009af9" fill-rule="evenodd" fill-opacity="1"/>
<polyline clip-path="url(#clip180)" style="stroke:#000000; stroke-linecap:round; stroke-linejoin:round; stroke-width:4; stroke-opacity:1; fill:none" points="2044.11,941.127 2189.68,941.127 2189.68,899.655 2044.11,899.655 2044.11,941.127 "/>
<path clip-path="url(#clip180)" d="M2235.66 922.023 L2235.66 937.671 L2231.4 937.671 L2231.4 922.162 Q2231.4 918.481 2229.96 916.652 Q2228.53 914.824 2225.66 914.824 Q2222.21 914.824 2220.22 917.023 Q2218.23 919.222 2218.23 923.018 L2218.23 937.671 L2213.95 937.671 L2213.95 911.745 L2218.23 911.745 L2218.23 915.773 Q2219.76 913.435 2221.82 912.278 Q2223.9 911.12 2226.61 911.12 Q2231.08 911.12 2233.37 913.898 Q2235.66 916.652 2235.66 922.023 Z" fill="#000000" fill-rule="nonzero" fill-opacity="1" /><path clip-path="url(#clip180)" d="M2245.89 935.032 L2255.71 935.032 L2255.71 937.671 L2241.86 937.671 L2241.86 935.125 Q2242.65 934.407 2244.11 933.111 Q2252.07 926.051 2252.07 923.875 Q2252.07 922.347 2250.87 921.421 Q2249.66 920.472 2247.7 920.472 Q2246.49 920.472 2245.08 920.889 Q2243.67 921.282 2242 922.092 L2242 919.245 Q2243.78 918.597 2245.31 918.273 Q2246.86 917.949 2248.18 917.949 Q2251.54 917.949 2253.55 919.477 Q2255.57 921.004 2255.57 923.504 Q2255.57 926.722 2247.9 933.296 Q2246.61 934.407 2245.89 935.032 Z" fill="#000000" fill-rule="nonzero" fill-opacity="1" /></svg>
