<?xml version="1.0" encoding="utf-8"?>
<svg xmlns="http://www.w3.org/2000/svg" xmlns:xlink="http://www.w3.org/1999/xlink" width="600" height="400" viewBox="0 0 2400 1600">
<defs>
  <clipPath id="clip290">
    <rect x="0" y="0" width="2400" height="1600"/>
  </clipPath>
</defs>
<path clip-path="url(#clip290)" d="M0 1600 L2400 1600 L2400 0 L0 0  Z" fill="#ffffff" fill-rule="evenodd" fill-opacity="1"/>
<defs>
  <clipPath id="clip291">
    <rect x="480" y="0" width="1681" height="1600"/>
  </clipPath>
</defs>
<path clip-path="url(#clip290)" d="M169.121 686.448 L2352.76 686.448 L2352.76 47.2441 L169.121 47.2441  Z" fill="#ffffff" fill-rule="evenodd" fill-opacity="1"/>
<defs>
  <clipPath id="clip292">
    <rect x="169" y="47" width="2185" height="640"/>
  </clipPath>
</defs>
<polyline clip-path="url(#clip292)" style="stroke:#000000; stroke-linecap:round; stroke-linejoin:round; stroke-width:2; stroke-opacity:0.1; fill:none" points="289.225,686.448 289.225,47.2441 "/>
<polyline clip-path="url(#clip292)" style="stroke:#000000; stroke-linecap:round; stroke-linejoin:round; stroke-width:2; stroke-opacity:0.1; fill:none" points="721.098,686.448 721.098,47.2441 "/>
<polyline clip-path="url(#clip292)" style="stroke:#000000; stroke-linecap:round; stroke-linejoin:round; stroke-width:2; stroke-opacity:0.1; fill:none" points="1152.97,686.448 1152.97,47.2441 "/>
<polyline clip-path="url(#clip292)" style="stroke:#000000; stroke-linecap:round; stroke-linejoin:round; stroke-width:2; stroke-opacity:0.1; fill:none" points="1584.84,686.448 1584.84,47.2441 "/>
<polyline clip-path="url(#clip292)" style="stroke:#000000; stroke-linecap:round; stroke-linejoin:round; stroke-width:2; stroke-opacity:0.1; fill:none" points="2016.72,686.448 2016.72,47.2441 "/>
<polyline clip-path="url(#clip292)" style="stroke:#000000; stroke-linecap:round; stroke-linejoin:round; stroke-width:2; stroke-opacity:0.1; fill:none" points="169.121,686.448 2352.76,686.448 "/>
<polyline clip-path="url(#clip292)" style="stroke:#000000; stroke-linecap:round; stroke-linejoin:round; stroke-width:2; stroke-opacity:0.1; fill:none" points="169.121,579.199 2352.76,579.199 "/>
<polyline clip-path="url(#clip292)" style="stroke:#000000; stroke-linecap:round; stroke-linejoin:round; stroke-width:2; stroke-opacity:0.1; fill:none" points="169.121,471.95 2352.76,471.95 "/>
<polyline clip-path="url(#clip292)" style="stroke:#000000; stroke-linecap:round; stroke-linejoin:round; stroke-width:2; stroke-opacity:0.1; fill:none" points="169.121,364.701 2352.76,364.701 "/>
<polyline clip-path="url(#clip292)" style="stroke:#000000; stroke-linecap:round; stroke-linejoin:round; stroke-width:2; stroke-opacity:0.1; fill:none" points="169.121,257.452 2352.76,257.452 "/>
<polyline clip-path="url(#clip292)" style="stroke:#000000; stroke-linecap:round; stroke-linejoin:round; stroke-width:2; stroke-opacity:0.1; fill:none" points="169.121,150.203 2352.76,150.203 "/>
<polyline clip-path="url(#clip290)" style="stroke:#000000; stroke-linecap:round; stroke-linejoin:round; stroke-width:4; stroke-opacity:1; fill:none" points="169.121,686.448 2352.76,686.448 "/>
<polyline clip-path="url(#clip290)" style="stroke:#000000; stroke-linecap:round; stroke-linejoin:round; stroke-width:4; stroke-opacity:1; fill:none" points="289.225,686.448 289.225,667.55 "/>
<polyline clip-path="url(#clip290)" style="stroke:#000000; stroke-linecap:round; stroke-linejoin:round; stroke-width:4; stroke-opacity:1; fill:none" points="721.098,686.448 721.098,667.55 "/>
<polyline clip-path="url(#clip290)" style="stroke:#000000; stroke-linecap:round; stroke-linejoin:round; stroke-width:4; stroke-opacity:1; fill:none" points="1152.97,686.448 1152.97,667.55 "/>
<polyline clip-path="url(#clip290)" style="stroke:#000000; stroke-linecap:round; stroke-linejoin:round; stroke-width:4; stroke-opacity:1; fill:none" points="1584.84,686.448 1584.84,667.55 "/>
<polyline clip-path="url(#clip290)" style="stroke:#000000; stroke-linecap:round; stroke-linejoin:round; stroke-width:4; stroke-opacity:1; fill:none" points="2016.72,686.448 2016.72,667.55 "/>
<path clip-path="url(#clip290)" d="M230.221 744.913 L246.54 744.913 L246.54 748.848 L224.596 748.848 L224.596 744.913 Q227.258 742.158 231.841 737.528 Q236.448 732.876 237.628 731.533 Q239.874 729.01 240.753 727.274 Q241.656 725.515 241.656 723.825 Q241.656 721.07 239.711 719.334 Q237.79 717.598 234.688 717.598 Q232.489 717.598 230.036 718.362 Q227.605 719.126 224.827 720.677 L224.827 715.955 Q227.651 714.82 230.105 714.242 Q232.559 713.663 234.596 713.663 Q239.966 713.663 243.161 716.348 Q246.355 719.033 246.355 723.524 Q246.355 725.654 245.545 727.575 Q244.758 729.473 242.651 732.066 Q242.073 732.737 238.971 735.954 Q235.869 739.149 230.221 744.913 Z" fill="#000000" fill-rule="nonzero" fill-opacity="1" /><path clip-path="url(#clip290)" d="M256.355 742.968 L261.239 742.968 L261.239 748.848 L256.355 748.848 L256.355 742.968 Z" fill="#000000" fill-rule="nonzero" fill-opacity="1" /><path clip-path="url(#clip290)" d="M282.003 729.704 Q278.855 729.704 277.003 731.857 Q275.174 734.01 275.174 737.76 Q275.174 741.487 277.003 743.663 Q278.855 745.815 282.003 745.815 Q285.151 745.815 286.98 743.663 Q288.832 741.487 288.832 737.76 Q288.832 734.01 286.98 731.857 Q285.151 729.704 282.003 729.704 M291.285 715.052 L291.285 719.311 Q289.526 718.478 287.72 718.038 Q285.938 717.598 284.179 717.598 Q279.549 717.598 277.096 720.723 Q274.665 723.848 274.318 730.167 Q275.684 728.154 277.744 727.089 Q279.804 726.001 282.281 726.001 Q287.489 726.001 290.498 729.172 Q293.531 732.32 293.531 737.76 Q293.531 743.084 290.383 746.302 Q287.234 749.519 282.003 749.519 Q276.008 749.519 272.836 744.936 Q269.665 740.329 269.665 731.603 Q269.665 723.408 273.554 718.547 Q277.443 713.663 283.994 713.663 Q285.753 713.663 287.535 714.01 Q289.341 714.357 291.285 715.052 Z" fill="#000000" fill-rule="nonzero" fill-opacity="1" /><path clip-path="url(#clip290)" d="M301.725 748.13 L301.725 743.871 Q303.484 744.704 305.29 745.144 Q307.095 745.584 308.831 745.584 Q313.461 745.584 315.892 742.482 Q318.345 739.357 318.693 733.015 Q317.35 735.005 315.29 736.07 Q313.23 737.135 310.73 737.135 Q305.544 737.135 302.512 734.01 Q299.503 730.862 299.503 725.422 Q299.503 720.098 302.651 716.88 Q305.799 713.663 311.031 713.663 Q317.026 713.663 320.174 718.269 Q323.345 722.853 323.345 731.603 Q323.345 739.774 319.456 744.658 Q315.591 749.519 309.04 749.519 Q307.281 749.519 305.475 749.172 Q303.669 748.825 301.725 748.13 M311.031 733.478 Q314.179 733.478 316.007 731.325 Q317.859 729.172 317.859 725.422 Q317.859 721.695 316.007 719.542 Q314.179 717.367 311.031 717.367 Q307.882 717.367 306.031 719.542 Q304.202 721.695 304.202 725.422 Q304.202 729.172 306.031 731.325 Q307.882 733.478 311.031 733.478 Z" fill="#000000" fill-rule="nonzero" fill-opacity="1" /><path clip-path="url(#clip290)" d="M342.327 729.704 Q339.179 729.704 337.327 731.857 Q335.498 734.01 335.498 737.76 Q335.498 741.487 337.327 743.663 Q339.179 745.815 342.327 745.815 Q345.475 745.815 347.303 743.663 Q349.155 741.487 349.155 737.76 Q349.155 734.01 347.303 731.857 Q345.475 729.704 342.327 729.704 M351.609 715.052 L351.609 719.311 Q349.85 718.478 348.044 718.038 Q346.262 717.598 344.503 717.598 Q339.873 717.598 337.419 720.723 Q334.989 723.848 334.642 730.167 Q336.007 728.154 338.067 727.089 Q340.128 726.001 342.604 726.001 Q347.813 726.001 350.822 729.172 Q353.854 732.32 353.854 737.76 Q353.854 743.084 350.706 746.302 Q347.558 749.519 342.327 749.519 Q336.331 749.519 333.16 744.936 Q329.989 740.329 329.989 731.603 Q329.989 723.408 333.878 718.547 Q337.767 713.663 344.317 713.663 Q346.077 713.663 347.859 714.01 Q349.665 714.357 351.609 715.052 Z" fill="#000000" fill-rule="nonzero" fill-opacity="1" /><path clip-path="url(#clip290)" d="M662.221 744.913 L678.54 744.913 L678.54 748.848 L656.596 748.848 L656.596 744.913 Q659.258 742.158 663.841 737.528 Q668.448 732.876 669.628 731.533 Q671.874 729.01 672.753 727.274 Q673.656 725.515 673.656 723.825 Q673.656 721.07 671.711 719.334 Q669.79 717.598 666.688 717.598 Q664.489 717.598 662.036 718.362 Q659.605 719.126 656.827 720.677 L656.827 715.955 Q659.651 714.82 662.105 714.242 Q664.559 713.663 666.596 713.663 Q671.966 713.663 675.161 716.348 Q678.355 719.033 678.355 723.524 Q678.355 725.654 677.545 727.575 Q676.758 729.473 674.651 732.066 Q674.073 732.737 670.971 735.954 Q667.869 739.149 662.221 744.913 Z" fill="#000000" fill-rule="nonzero" fill-opacity="1" /><path clip-path="url(#clip290)" d="M688.355 742.968 L693.239 742.968 L693.239 748.848 L688.355 748.848 L688.355 742.968 Z" fill="#000000" fill-rule="nonzero" fill-opacity="1" /><path clip-path="url(#clip290)" d="M714.003 729.704 Q710.855 729.704 709.003 731.857 Q707.174 734.01 707.174 737.76 Q707.174 741.487 709.003 743.663 Q710.855 745.815 714.003 745.815 Q717.151 745.815 718.98 743.663 Q720.832 741.487 720.832 737.76 Q720.832 734.01 718.98 731.857 Q717.151 729.704 714.003 729.704 M723.285 715.052 L723.285 719.311 Q721.526 718.478 719.72 718.038 Q717.938 717.598 716.179 717.598 Q711.549 717.598 709.096 720.723 Q706.665 723.848 706.318 730.167 Q707.683 728.154 709.744 727.089 Q711.804 726.001 714.281 726.001 Q719.489 726.001 722.498 729.172 Q725.531 732.32 725.531 737.76 Q725.531 743.084 722.382 746.302 Q719.234 749.519 714.003 749.519 Q708.008 749.519 704.836 744.936 Q701.665 740.329 701.665 731.603 Q701.665 723.408 705.554 718.547 Q709.443 713.663 715.994 713.663 Q717.753 713.663 719.535 714.01 Q721.341 714.357 723.285 715.052 Z" fill="#000000" fill-rule="nonzero" fill-opacity="1" /><path clip-path="url(#clip290)" d="M733.725 748.13 L733.725 743.871 Q735.484 744.704 737.29 745.144 Q739.095 745.584 740.831 745.584 Q745.461 745.584 747.892 742.482 Q750.345 739.357 750.693 733.015 Q749.35 735.005 747.29 736.07 Q745.23 737.135 742.73 737.135 Q737.544 737.135 734.512 734.01 Q731.503 730.862 731.503 725.422 Q731.503 720.098 734.651 716.88 Q737.799 713.663 743.031 713.663 Q749.026 713.663 752.174 718.269 Q755.345 722.853 755.345 731.603 Q755.345 739.774 751.456 744.658 Q747.591 749.519 741.04 749.519 Q739.281 749.519 737.475 749.172 Q735.669 748.825 733.725 748.13 M743.031 733.478 Q746.179 733.478 748.007 731.325 Q749.859 729.172 749.859 725.422 Q749.859 721.695 748.007 719.542 Q746.179 717.367 743.031 717.367 Q739.882 717.367 738.031 719.542 Q736.202 721.695 736.202 725.422 Q736.202 729.172 738.031 731.325 Q739.882 733.478 743.031 733.478 Z" fill="#000000" fill-rule="nonzero" fill-opacity="1" /><path clip-path="url(#clip290)" d="M773.748 732.436 Q770.415 732.436 768.493 734.218 Q766.595 736.001 766.595 739.126 Q766.595 742.251 768.493 744.033 Q770.415 745.815 773.748 745.815 Q777.081 745.815 779.003 744.033 Q780.924 742.228 780.924 739.126 Q780.924 736.001 779.003 734.218 Q777.104 732.436 773.748 732.436 M769.072 730.445 Q766.063 729.704 764.373 727.644 Q762.706 725.584 762.706 722.621 Q762.706 718.478 765.646 716.07 Q768.609 713.663 773.748 713.663 Q778.91 713.663 781.85 716.07 Q784.79 718.478 784.79 722.621 Q784.79 725.584 783.1 727.644 Q781.433 729.704 778.447 730.445 Q781.827 731.232 783.702 733.524 Q785.6 735.816 785.6 739.126 Q785.6 744.149 782.521 746.834 Q779.466 749.519 773.748 749.519 Q768.03 749.519 764.952 746.834 Q761.896 744.149 761.896 739.126 Q761.896 735.816 763.794 733.524 Q765.692 731.232 769.072 730.445 M767.359 723.061 Q767.359 725.746 769.026 727.251 Q770.716 728.755 773.748 728.755 Q776.757 728.755 778.447 727.251 Q780.16 725.746 780.16 723.061 Q780.16 720.376 778.447 718.871 Q776.757 717.367 773.748 717.367 Q770.716 717.367 769.026 718.871 Q767.359 720.376 767.359 723.061 Z" fill="#000000" fill-rule="nonzero" fill-opacity="1" /><path clip-path="url(#clip290)" d="M1094.05 744.913 L1110.37 744.913 L1110.37 748.848 L1088.42 748.848 L1088.42 744.913 Q1091.08 742.158 1095.67 737.528 Q1100.27 732.876 1101.45 731.533 Q1103.7 729.01 1104.58 727.274 Q1105.48 725.515 1105.48 723.825 Q1105.48 721.07 1103.54 719.334 Q1101.62 717.598 1098.51 717.598 Q1096.32 717.598 1093.86 718.362 Q1091.43 719.126 1088.65 720.677 L1088.65 715.955 Q1091.48 714.82 1093.93 714.242 Q1096.39 713.663 1098.42 713.663 Q1103.79 713.663 1106.99 716.348 Q1110.18 719.033 1110.18 723.524 Q1110.18 725.654 1109.37 727.575 Q1108.58 729.473 1106.48 732.066 Q1105.9 732.737 1102.8 735.954 Q1099.7 739.149 1094.05 744.913 Z" fill="#000000" fill-rule="nonzero" fill-opacity="1" /><path clip-path="url(#clip290)" d="M1120.18 742.968 L1125.07 742.968 L1125.07 748.848 L1120.18 748.848 L1120.18 742.968 Z" fill="#000000" fill-rule="nonzero" fill-opacity="1" /><path clip-path="url(#clip290)" d="M1134.07 714.288 L1156.29 714.288 L1156.29 716.279 L1143.75 748.848 L1138.86 748.848 L1150.67 718.223 L1134.07 718.223 L1134.07 714.288 Z" fill="#000000" fill-rule="nonzero" fill-opacity="1" /><path clip-path="url(#clip290)" d="M1175.41 717.367 Q1171.8 717.367 1169.97 720.931 Q1168.17 724.473 1168.17 731.603 Q1168.17 738.709 1169.97 742.274 Q1171.8 745.815 1175.41 745.815 Q1179.05 745.815 1180.85 742.274 Q1182.68 738.709 1182.68 731.603 Q1182.68 724.473 1180.85 720.931 Q1179.05 717.367 1175.41 717.367 M1175.41 713.663 Q1181.22 713.663 1184.28 718.269 Q1187.36 722.853 1187.36 731.603 Q1187.36 740.329 1184.28 744.936 Q1181.22 749.519 1175.41 749.519 Q1169.6 749.519 1166.52 744.936 Q1163.47 740.329 1163.47 731.603 Q1163.47 722.853 1166.52 718.269 Q1169.6 713.663 1175.41 713.663 Z" fill="#000000" fill-rule="nonzero" fill-opacity="1" /><path clip-path="url(#clip290)" d="M1205.57 717.367 Q1201.96 717.367 1200.13 720.931 Q1198.33 724.473 1198.33 731.603 Q1198.33 738.709 1200.13 742.274 Q1201.96 745.815 1205.57 745.815 Q1209.21 745.815 1211.01 742.274 Q1212.84 738.709 1212.84 731.603 Q1212.84 724.473 1211.01 720.931 Q1209.21 717.367 1205.57 717.367 M1205.57 713.663 Q1211.38 713.663 1214.44 718.269 Q1217.52 722.853 1217.52 731.603 Q1217.52 740.329 1214.44 744.936 Q1211.38 749.519 1205.57 749.519 Q1199.76 749.519 1196.69 744.936 Q1193.63 740.329 1193.63 731.603 Q1193.63 722.853 1196.69 718.269 Q1199.76 713.663 1205.57 713.663 Z" fill="#000000" fill-rule="nonzero" fill-opacity="1" /><path clip-path="url(#clip290)" d="M1526.72 744.913 L1543.04 744.913 L1543.04 748.848 L1521.09 748.848 L1521.09 744.913 Q1523.76 742.158 1528.34 737.528 Q1532.95 732.876 1534.13 731.533 Q1536.37 729.01 1537.25 727.274 Q1538.15 725.515 1538.15 723.825 Q1538.15 721.07 1536.21 719.334 Q1534.29 717.598 1531.19 717.598 Q1528.99 717.598 1526.53 718.362 Q1524.1 719.126 1521.32 720.677 L1521.32 715.955 Q1524.15 714.82 1526.6 714.242 Q1529.06 713.663 1531.09 713.663 Q1536.46 713.663 1539.66 716.348 Q1542.85 719.033 1542.85 723.524 Q1542.85 725.654 1542.04 727.575 Q1541.26 729.473 1539.15 732.066 Q1538.57 732.737 1535.47 735.954 Q1532.37 739.149 1526.72 744.913 Z" fill="#000000" fill-rule="nonzero" fill-opacity="1" /><path clip-path="url(#clip290)" d="M1552.85 742.968 L1557.74 742.968 L1557.74 748.848 L1552.85 748.848 L1552.85 742.968 Z" fill="#000000" fill-rule="nonzero" fill-opacity="1" /><path clip-path="url(#clip290)" d="M1566.74 714.288 L1588.96 714.288 L1588.96 716.279 L1576.42 748.848 L1571.53 748.848 L1583.34 718.223 L1566.74 718.223 L1566.74 714.288 Z" fill="#000000" fill-rule="nonzero" fill-opacity="1" /><path clip-path="url(#clip290)" d="M1608.08 717.367 Q1604.47 717.367 1602.64 720.931 Q1600.84 724.473 1600.84 731.603 Q1600.84 738.709 1602.64 742.274 Q1604.47 745.815 1608.08 745.815 Q1611.72 745.815 1613.52 742.274 Q1615.35 738.709 1615.35 731.603 Q1615.35 724.473 1613.52 720.931 Q1611.72 717.367 1608.08 717.367 M1608.08 713.663 Q1613.89 713.663 1616.95 718.269 Q1620.03 722.853 1620.03 731.603 Q1620.03 740.329 1616.95 744.936 Q1613.89 749.519 1608.08 749.519 Q1602.27 749.519 1599.19 744.936 Q1596.14 740.329 1596.14 731.603 Q1596.14 722.853 1599.19 718.269 Q1602.27 713.663 1608.08 713.663 Z" fill="#000000" fill-rule="nonzero" fill-opacity="1" /><path clip-path="url(#clip290)" d="M1632.27 744.913 L1648.59 744.913 L1648.59 748.848 L1626.65 748.848 L1626.65 744.913 Q1629.31 742.158 1633.89 737.528 Q1638.5 732.876 1639.68 731.533 Q1641.93 729.01 1642.81 727.274 Q1643.71 725.515 1643.71 723.825 Q1643.71 721.07 1641.76 719.334 Q1639.84 717.598 1636.74 717.598 Q1634.54 717.598 1632.09 718.362 Q1629.66 719.126 1626.88 720.677 L1626.88 715.955 Q1629.7 714.82 1632.16 714.242 Q1634.61 713.663 1636.65 713.663 Q1642.02 713.663 1645.21 716.348 Q1648.41 719.033 1648.41 723.524 Q1648.41 725.654 1647.6 727.575 Q1646.81 729.473 1644.7 732.066 Q1644.13 732.737 1641.02 735.954 Q1637.92 739.149 1632.27 744.913 Z" fill="#000000" fill-rule="nonzero" fill-opacity="1" /><path clip-path="url(#clip290)" d="M1957.55 744.913 L1973.87 744.913 L1973.87 748.848 L1951.92 748.848 L1951.92 744.913 Q1954.59 742.158 1959.17 737.528 Q1963.78 732.876 1964.96 731.533 Q1967.2 729.01 1968.08 727.274 Q1968.98 725.515 1968.98 723.825 Q1968.98 721.07 1967.04 719.334 Q1965.12 717.598 1962.02 717.598 Q1959.82 717.598 1957.36 718.362 Q1954.93 719.126 1952.16 720.677 L1952.16 715.955 Q1954.98 714.82 1957.43 714.242 Q1959.89 713.663 1961.92 713.663 Q1967.29 713.663 1970.49 716.348 Q1973.68 719.033 1973.68 723.524 Q1973.68 725.654 1972.87 727.575 Q1972.09 729.473 1969.98 732.066 Q1969.4 732.737 1966.3 735.954 Q1963.2 739.149 1957.55 744.913 Z" fill="#000000" fill-rule="nonzero" fill-opacity="1" /><path clip-path="url(#clip290)" d="M1983.68 742.968 L1988.57 742.968 L1988.57 748.848 L1983.68 748.848 L1983.68 742.968 Z" fill="#000000" fill-rule="nonzero" fill-opacity="1" /><path clip-path="url(#clip290)" d="M1997.57 714.288 L2019.79 714.288 L2019.79 716.279 L2007.25 748.848 L2002.36 748.848 L2014.17 718.223 L1997.57 718.223 L1997.57 714.288 Z" fill="#000000" fill-rule="nonzero" fill-opacity="1" /><path clip-path="url(#clip290)" d="M2038.91 717.367 Q2035.3 717.367 2033.47 720.931 Q2031.67 724.473 2031.67 731.603 Q2031.67 738.709 2033.47 742.274 Q2035.3 745.815 2038.91 745.815 Q2042.55 745.815 2044.35 742.274 Q2046.18 738.709 2046.18 731.603 Q2046.18 724.473 2044.35 720.931 Q2042.55 717.367 2038.91 717.367 M2038.91 713.663 Q2044.72 713.663 2047.78 718.269 Q2050.86 722.853 2050.86 731.603 Q2050.86 740.329 2047.78 744.936 Q2044.72 749.519 2038.91 749.519 Q2033.1 749.519 2030.03 744.936 Q2026.97 740.329 2026.97 731.603 Q2026.97 722.853 2030.03 718.269 Q2033.1 713.663 2038.91 713.663 Z" fill="#000000" fill-rule="nonzero" fill-opacity="1" /><path clip-path="url(#clip290)" d="M2071.92 718.362 L2060.12 736.811 L2071.92 736.811 L2071.92 718.362 M2070.7 714.288 L2076.58 714.288 L2076.58 736.811 L2081.51 736.811 L2081.51 740.7 L2076.58 740.7 L2076.58 748.848 L2071.92 748.848 L2071.92 740.7 L2056.32 740.7 L2056.32 736.186 L2070.7 714.288 Z" fill="#000000" fill-rule="nonzero" fill-opacity="1" /><polyline clip-path="url(#clip290)" style="stroke:#000000; stroke-linecap:round; stroke-linejoin:round; stroke-width:4; stroke-opacity:1; fill:none" points="169.121,686.448 169.121,47.2441 "/>
<polyline clip-path="url(#clip290)" style="stroke:#000000; stroke-linecap:round; stroke-linejoin:round; stroke-width:4; stroke-opacity:1; fill:none" points="169.121,686.448 188.019,686.448 "/>
<polyline clip-path="url(#clip290)" style="stroke:#000000; stroke-linecap:round; stroke-linejoin:round; stroke-width:4; stroke-opacity:1; fill:none" points="169.121,579.199 188.019,579.199 "/>
<polyline clip-path="url(#clip290)" style="stroke:#000000; stroke-linecap:round; stroke-linejoin:round; stroke-width:4; stroke-opacity:1; fill:none" points="169.121,471.95 188.019,471.95 "/>
<polyline clip-path="url(#clip290)" style="stroke:#000000; stroke-linecap:round; stroke-linejoin:round; stroke-width:4; stroke-opacity:1; fill:none" points="169.121,364.701 188.019,364.701 "/>
<polyline clip-path="url(#clip290)" style="stroke:#000000; stroke-linecap:round; stroke-linejoin:round; stroke-width:4; stroke-opacity:1; fill:none" points="169.121,257.452 188.019,257.452 "/>
<polyline clip-path="url(#clip290)" style="stroke:#000000; stroke-linecap:round; stroke-linejoin:round; stroke-width:4; stroke-opacity:1; fill:none" points="169.121,150.203 188.019,150.203 "/>
<path clip-path="url(#clip290)" d="M121.177 672.247 Q117.566 672.247 115.737 675.811 Q113.932 679.353 113.932 686.483 Q113.932 693.589 115.737 697.154 Q117.566 700.695 121.177 700.695 Q124.811 700.695 126.617 697.154 Q128.445 693.589 128.445 686.483 Q128.445 679.353 126.617 675.811 Q124.811 672.247 121.177 672.247 M121.177 668.543 Q126.987 668.543 130.043 673.149 Q133.121 677.733 133.121 686.483 Q133.121 695.209 130.043 699.816 Q126.987 704.399 121.177 704.399 Q115.367 704.399 112.288 699.816 Q109.233 695.209 109.233 686.483 Q109.233 677.733 112.288 673.149 Q115.367 668.543 121.177 668.543 Z" fill="#000000" fill-rule="nonzero" fill-opacity="1" /><path clip-path="url(#clip290)" d="M86.0382 592.544 L102.358 592.544 L102.358 596.479 L80.4133 596.479 L80.4133 592.544 Q83.0753 589.789 87.6586 585.16 Q92.2651 580.507 93.4456 579.164 Q95.691 576.641 96.5706 574.905 Q97.4734 573.146 97.4734 571.456 Q97.4734 568.701 95.5289 566.965 Q93.6076 565.229 90.5058 565.229 Q88.3067 565.229 85.8531 565.993 Q83.4225 566.757 80.6447 568.308 L80.6447 563.586 Q83.4688 562.451 85.9225 561.873 Q88.3762 561.294 90.4132 561.294 Q95.7836 561.294 98.978 563.979 Q102.172 566.664 102.172 571.155 Q102.172 573.285 101.362 575.206 Q100.575 577.104 98.4687 579.697 Q97.89 580.368 94.7882 583.585 Q91.6864 586.78 86.0382 592.544 Z" fill="#000000" fill-rule="nonzero" fill-opacity="1" /><path clip-path="url(#clip290)" d="M112.219 561.919 L130.575 561.919 L130.575 565.854 L116.501 565.854 L116.501 574.326 Q117.52 573.979 118.538 573.817 Q119.557 573.632 120.575 573.632 Q126.362 573.632 129.742 576.803 Q133.121 579.974 133.121 585.391 Q133.121 590.97 129.649 594.072 Q126.177 597.15 119.857 597.15 Q117.682 597.15 115.413 596.78 Q113.168 596.409 110.76 595.669 L110.76 590.97 Q112.844 592.104 115.066 592.659 Q117.288 593.215 119.765 593.215 Q123.77 593.215 126.107 591.109 Q128.445 589.002 128.445 585.391 Q128.445 581.78 126.107 579.673 Q123.77 577.567 119.765 577.567 Q117.89 577.567 116.015 577.984 Q114.163 578.4 112.219 579.28 L112.219 561.919 Z" fill="#000000" fill-rule="nonzero" fill-opacity="1" /><path clip-path="url(#clip290)" d="M81.0614 454.67 L99.4178 454.67 L99.4178 458.605 L85.3438 458.605 L85.3438 467.077 Q86.3623 466.73 87.3808 466.568 Q88.3993 466.383 89.4178 466.383 Q95.2049 466.383 98.5845 469.554 Q101.964 472.725 101.964 478.142 Q101.964 483.721 98.4919 486.823 Q95.0197 489.901 88.7003 489.901 Q86.5243 489.901 84.2558 489.531 Q82.0105 489.161 79.6031 488.42 L79.6031 483.721 Q81.6864 484.855 83.9086 485.411 Q86.1308 485.966 88.6077 485.966 Q92.6123 485.966 94.9502 483.86 Q97.2882 481.753 97.2882 478.142 Q97.2882 474.531 94.9502 472.424 Q92.6123 470.318 88.6077 470.318 Q86.7327 470.318 84.8577 470.735 Q83.0058 471.151 81.0614 472.031 L81.0614 454.67 Z" fill="#000000" fill-rule="nonzero" fill-opacity="1" /><path clip-path="url(#clip290)" d="M121.177 457.749 Q117.566 457.749 115.737 461.313 Q113.932 464.855 113.932 471.985 Q113.932 479.091 115.737 482.656 Q117.566 486.198 121.177 486.198 Q124.811 486.198 126.617 482.656 Q128.445 479.091 128.445 471.985 Q128.445 464.855 126.617 461.313 Q124.811 457.749 121.177 457.749 M121.177 454.045 Q126.987 454.045 130.043 458.651 Q133.121 463.235 133.121 471.985 Q133.121 480.711 130.043 485.318 Q126.987 489.901 121.177 489.901 Q115.367 489.901 112.288 485.318 Q109.233 480.711 109.233 471.985 Q109.233 463.235 112.288 458.651 Q115.367 454.045 121.177 454.045 Z" fill="#000000" fill-rule="nonzero" fill-opacity="1" /><path clip-path="url(#clip290)" d="M80.8299 347.421 L103.052 347.421 L103.052 349.412 L90.5058 381.981 L85.6216 381.981 L97.4271 351.356 L80.8299 351.356 L80.8299 347.421 Z" fill="#000000" fill-rule="nonzero" fill-opacity="1" /><path clip-path="url(#clip290)" d="M112.219 347.421 L130.575 347.421 L130.575 351.356 L116.501 351.356 L116.501 359.828 Q117.52 359.481 118.538 359.319 Q119.557 359.134 120.575 359.134 Q126.362 359.134 129.742 362.305 Q133.121 365.476 133.121 370.893 Q133.121 376.472 129.649 379.574 Q126.177 382.652 119.857 382.652 Q117.682 382.652 115.413 382.282 Q113.168 381.912 110.76 381.171 L110.76 376.472 Q112.844 377.606 115.066 378.162 Q117.288 378.717 119.765 378.717 Q123.77 378.717 126.107 376.611 Q128.445 374.504 128.445 370.893 Q128.445 367.282 126.107 365.176 Q123.77 363.069 119.765 363.069 Q117.89 363.069 116.015 363.486 Q114.163 363.902 112.219 364.782 L112.219 347.421 Z" fill="#000000" fill-rule="nonzero" fill-opacity="1" /><path clip-path="url(#clip290)" d="M51.6634 270.797 L59.3023 270.797 L59.3023 244.431 L50.9921 246.098 L50.9921 241.839 L59.256 240.172 L63.9319 240.172 L63.9319 270.797 L71.5707 270.797 L71.5707 274.732 L51.6634 274.732 L51.6634 270.797 Z" fill="#000000" fill-rule="nonzero" fill-opacity="1" /><path clip-path="url(#clip290)" d="M91.0151 243.251 Q87.404 243.251 85.5753 246.816 Q83.7697 250.357 83.7697 257.487 Q83.7697 264.593 85.5753 268.158 Q87.404 271.7 91.0151 271.7 Q94.6493 271.7 96.4548 268.158 Q98.2835 264.593 98.2835 257.487 Q98.2835 250.357 96.4548 246.816 Q94.6493 243.251 91.0151 243.251 M91.0151 239.547 Q96.8252 239.547 99.8808 244.154 Q102.959 248.737 102.959 257.487 Q102.959 266.214 99.8808 270.82 Q96.8252 275.403 91.0151 275.403 Q85.2049 275.403 82.1262 270.82 Q79.0707 266.214 79.0707 257.487 Q79.0707 248.737 82.1262 244.154 Q85.2049 239.547 91.0151 239.547 Z" fill="#000000" fill-rule="nonzero" fill-opacity="1" /><path clip-path="url(#clip290)" d="M121.177 243.251 Q117.566 243.251 115.737 246.816 Q113.932 250.357 113.932 257.487 Q113.932 264.593 115.737 268.158 Q117.566 271.7 121.177 271.7 Q124.811 271.7 126.617 268.158 Q128.445 264.593 128.445 257.487 Q128.445 250.357 126.617 246.816 Q124.811 243.251 121.177 243.251 M121.177 239.547 Q126.987 239.547 130.043 244.154 Q133.121 248.737 133.121 257.487 Q133.121 266.214 130.043 270.82 Q126.987 275.403 121.177 275.403 Q115.367 275.403 112.288 270.82 Q109.233 266.214 109.233 257.487 Q109.233 248.737 112.288 244.154 Q115.367 239.547 121.177 239.547 Z" fill="#000000" fill-rule="nonzero" fill-opacity="1" /><path clip-path="url(#clip290)" d="M52.6588 163.548 L60.2976 163.548 L60.2976 137.182 L51.9875 138.849 L51.9875 134.59 L60.2513 132.923 L64.9272 132.923 L64.9272 163.548 L72.5661 163.548 L72.5661 167.483 L52.6588 167.483 L52.6588 163.548 Z" fill="#000000" fill-rule="nonzero" fill-opacity="1" /><path clip-path="url(#clip290)" d="M86.0382 163.548 L102.358 163.548 L102.358 167.483 L80.4133 167.483 L80.4133 163.548 Q83.0753 160.793 87.6586 156.164 Q92.2651 151.511 93.4456 150.168 Q95.691 147.645 96.5706 145.909 Q97.4734 144.15 97.4734 142.46 Q97.4734 139.705 95.5289 137.969 Q93.6076 136.233 90.5058 136.233 Q88.3067 136.233 85.8531 136.997 Q83.4225 137.761 80.6447 139.312 L80.6447 134.59 Q83.4688 133.455 85.9225 132.877 Q88.3762 132.298 90.4132 132.298 Q95.7836 132.298 98.978 134.983 Q102.172 137.668 102.172 142.159 Q102.172 144.289 101.362 146.21 Q100.575 148.108 98.4687 150.701 Q97.89 151.372 94.7882 154.59 Q91.6864 157.784 86.0382 163.548 Z" fill="#000000" fill-rule="nonzero" fill-opacity="1" /><path clip-path="url(#clip290)" d="M112.219 132.923 L130.575 132.923 L130.575 136.858 L116.501 136.858 L116.501 145.33 Q117.52 144.983 118.538 144.821 Q119.557 144.636 120.575 144.636 Q126.362 144.636 129.742 147.807 Q133.121 150.979 133.121 156.395 Q133.121 161.974 129.649 165.076 Q126.177 168.154 119.857 168.154 Q117.682 168.154 115.413 167.784 Q113.168 167.414 110.76 166.673 L110.76 161.974 Q112.844 163.108 115.066 163.664 Q117.288 164.219 119.765 164.219 Q123.77 164.219 126.107 162.113 Q128.445 160.006 128.445 156.395 Q128.445 152.784 126.107 150.678 Q123.77 148.571 119.765 148.571 Q117.89 148.571 116.015 148.988 Q114.163 149.404 112.219 150.284 L112.219 132.923 Z" fill="#000000" fill-rule="nonzero" fill-opacity="1" /><path clip-path="url(#clip292)" d="M289.225 677.868 L289.225 686.448 L397.193 686.448 L397.193 677.868 L289.225 677.868 L289.225 677.868  Z" fill="#009af9" fill-rule="evenodd" fill-opacity="1"/>
<polyline clip-path="url(#clip292)" style="stroke:#000000; stroke-linecap:round; stroke-linejoin:round; stroke-width:4; stroke-opacity:1; fill:none" points="289.225,677.868 289.225,686.448 397.193,686.448 397.193,677.868 289.225,677.868 "/>
<path clip-path="url(#clip292)" d="M397.193 647.838 L397.193 686.448 L505.161 686.448 L505.161 647.838 L397.193 647.838 L397.193 647.838  Z" fill="#009af9" fill-rule="evenodd" fill-opacity="1"/>
<polyline clip-path="url(#clip292)" style="stroke:#000000; stroke-linecap:round; stroke-linejoin:round; stroke-width:4; stroke-opacity:1; fill:none" points="397.193,647.838 397.193,686.448 505.161,686.448 505.161,647.838 397.193,647.838 "/>
<path clip-path="url(#clip292)" d="M505.161 613.519 L505.161 686.448 L613.13 686.448 L613.13 613.519 L505.161 613.519 L505.161 613.519  Z" fill="#009af9" fill-rule="evenodd" fill-opacity="1"/>
<polyline clip-path="url(#clip292)" style="stroke:#000000; stroke-linecap:round; stroke-linejoin:round; stroke-width:4; stroke-opacity:1; fill:none" points="505.161,613.519 505.161,686.448 613.13,686.448 613.13,613.519 505.161,613.519 "/>
<path clip-path="url(#clip292)" d="M613.13 544.879 L613.13 686.448 L721.098 686.448 L721.098 544.879 L613.13 544.879 L613.13 544.879  Z" fill="#009af9" fill-rule="evenodd" fill-opacity="1"/>
<polyline clip-path="url(#clip292)" style="stroke:#000000; stroke-linecap:round; stroke-linejoin:round; stroke-width:4; stroke-opacity:1; fill:none" points="613.13,544.879 613.13,686.448 721.098,686.448 721.098,544.879 613.13,544.879 "/>
<path clip-path="url(#clip292)" d="M721.098 416.181 L721.098 686.448 L829.066 686.448 L829.066 416.181 L721.098 416.181 L721.098 416.181  Z" fill="#009af9" fill-rule="evenodd" fill-opacity="1"/>
<polyline clip-path="url(#clip292)" style="stroke:#000000; stroke-linecap:round; stroke-linejoin:round; stroke-width:4; stroke-opacity:1; fill:none" points="721.098,416.181 721.098,686.448 829.066,686.448 829.066,416.181 721.098,416.181 "/>
<path clip-path="url(#clip292)" d="M829.066 274.612 L829.066 686.448 L937.034 686.448 L937.034 274.612 L829.066 274.612 L829.066 274.612  Z" fill="#009af9" fill-rule="evenodd" fill-opacity="1"/>
<polyline clip-path="url(#clip292)" style="stroke:#000000; stroke-linecap:round; stroke-linejoin:round; stroke-width:4; stroke-opacity:1; fill:none" points="829.066,274.612 829.066,686.448 937.034,686.448 937.034,274.612 829.066,274.612 "/>
<path clip-path="url(#clip292)" d="M937.034 158.783 L937.034 686.448 L1045 686.448 L1045 158.783 L937.034 158.783 L937.034 158.783  Z" fill="#009af9" fill-rule="evenodd" fill-opacity="1"/>
<polyline clip-path="url(#clip292)" style="stroke:#000000; stroke-linecap:round; stroke-linejoin:round; stroke-width:4; stroke-opacity:1; fill:none" points="937.034,158.783 937.034,686.448 1045,686.448 1045,158.783 937.034,158.783 "/>
<path clip-path="url(#clip292)" d="M1045 72.9838 L1045 686.448 L1152.97 686.448 L1152.97 72.9838 L1045 72.9838 L1045 72.9838  Z" fill="#009af9" fill-rule="evenodd" fill-opacity="1"/>
<polyline clip-path="url(#clip292)" style="stroke:#000000; stroke-linecap:round; stroke-linejoin:round; stroke-width:4; stroke-opacity:1; fill:none" points="1045,72.9838 1045,686.448 1152.97,686.448 1152.97,72.9838 1045,72.9838 "/>
<path clip-path="url(#clip292)" d="M1152.97 47.2441 L1152.97 686.448 L1260.94 686.448 L1260.94 47.2441 L1152.97 47.2441 L1152.97 47.2441  Z" fill="#009af9" fill-rule="evenodd" fill-opacity="1"/>
<polyline clip-path="url(#clip292)" style="stroke:#000000; stroke-linecap:round; stroke-linejoin:round; stroke-width:4; stroke-opacity:1; fill:none" points="1152.97,47.2441 1152.97,686.448 1260.94,686.448 1260.94,47.2441 1152.97,47.2441 "/>
<path clip-path="url(#clip292)" d="M1260.94 128.753 L1260.94 686.448 L1368.91 686.448 L1368.91 128.753 L1260.94 128.753 L1260.94 128.753  Z" fill="#009af9" fill-rule="evenodd" fill-opacity="1"/>
<polyline clip-path="url(#clip292)" style="stroke:#000000; stroke-linecap:round; stroke-linejoin:round; stroke-width:4; stroke-opacity:1; fill:none" points="1260.94,128.753 1260.94,686.448 1368.91,686.448 1368.91,128.753 1260.94,128.753 "/>
<path clip-path="url(#clip292)" d="M1368.91 257.452 L1368.91 686.448 L1476.87 686.448 L1476.87 257.452 L1368.91 257.452 L1368.91 257.452  Z" fill="#009af9" fill-rule="evenodd" fill-opacity="1"/>
<polyline clip-path="url(#clip292)" style="stroke:#000000; stroke-linecap:round; stroke-linejoin:round; stroke-width:4; stroke-opacity:1; fill:none" points="1368.91,257.452 1368.91,686.448 1476.87,686.448 1476.87,257.452 1368.91,257.452 "/>
<path clip-path="url(#clip292)" d="M1476.87 390.441 L1476.87 686.448 L1584.84 686.448 L1584.84 390.441 L1476.87 390.441 L1476.87 390.441  Z" fill="#009af9" fill-rule="evenodd" fill-opacity="1"/>
<polyline clip-path="url(#clip292)" style="stroke:#000000; stroke-linecap:round; stroke-linejoin:round; stroke-width:4; stroke-opacity:1; fill:none" points="1476.87,390.441 1476.87,686.448 1584.84,686.448 1584.84,390.441 1476.87,390.441 "/>
<path clip-path="url(#clip292)" d="M1584.84 527.719 L1584.84 686.448 L1692.81 686.448 L1692.81 527.719 L1584.84 527.719 L1584.84 527.719  Z" fill="#009af9" fill-rule="evenodd" fill-opacity="1"/>
<polyline clip-path="url(#clip292)" style="stroke:#000000; stroke-linecap:round; stroke-linejoin:round; stroke-width:4; stroke-opacity:1; fill:none" points="1584.84,527.719 1584.84,686.448 1692.81,686.448 1692.81,527.719 1584.84,527.719 "/>
<path clip-path="url(#clip292)" d="M1692.81 617.809 L1692.81 686.448 L1800.78 686.448 L1800.78 617.809 L1692.81 617.809 L1692.81 617.809  Z" fill="#009af9" fill-rule="evenodd" fill-opacity="1"/>
<polyline clip-path="url(#clip292)" style="stroke:#000000; stroke-linecap:round; stroke-linejoin:round; stroke-width:4; stroke-opacity:1; fill:none" points="1692.81,617.809 1692.81,686.448 1800.78,686.448 1800.78,617.809 1692.81,617.809 "/>
<path clip-path="url(#clip292)" d="M1800.78 669.288 L1800.78 686.448 L1908.75 686.448 L1908.75 669.288 L1800.78 669.288 L1800.78 669.288  Z" fill="#009af9" fill-rule="evenodd" fill-opacity="1"/>
<polyline clip-path="url(#clip292)" style="stroke:#000000; stroke-linecap:round; stroke-linejoin:round; stroke-width:4; stroke-opacity:1; fill:none" points="1800.78,669.288 1800.78,686.448 1908.75,686.448 1908.75,669.288 1800.78,669.288 "/>
<path clip-path="url(#clip292)" d="M1908.75 660.708 L1908.75 686.448 L2016.72 686.448 L2016.72 660.708 L1908.75 660.708 L1908.75 660.708  Z" fill="#009af9" fill-rule="evenodd" fill-opacity="1"/>
<polyline clip-path="url(#clip292)" style="stroke:#000000; stroke-linecap:round; stroke-linejoin:round; stroke-width:4; stroke-opacity:1; fill:none" points="1908.75,660.708 1908.75,686.448 2016.72,686.448 2016.72,660.708 1908.75,660.708 "/>
<path clip-path="url(#clip292)" d="M2016.72 682.158 L2016.72 686.448 L2124.68 686.448 L2124.68 682.158 L2016.72 682.158 L2016.72 682.158  Z" fill="#009af9" fill-rule="evenodd" fill-opacity="1"/>
<polyline clip-path="url(#clip292)" style="stroke:#000000; stroke-linecap:round; stroke-linejoin:round; stroke-width:4; stroke-opacity:1; fill:none" points="2016.72,682.158 2016.72,686.448 2124.68,686.448 2124.68,682.158 2016.72,682.158 "/>
<path clip-path="url(#clip292)" d="M2124.68 677.868 L2124.68 686.448 L2232.65 686.448 L2232.65 677.868 L2124.68 677.868 L2124.68 677.868  Z" fill="#009af9" fill-rule="evenodd" fill-opacity="1"/>
<polyline clip-path="url(#clip292)" style="stroke:#000000; stroke-linecap:round; stroke-linejoin:round; stroke-width:4; stroke-opacity:1; fill:none" points="2124.68,677.868 2124.68,686.448 2232.65,686.448 2232.65,677.868 2124.68,677.868 "/>
<circle clip-path="url(#clip292)" style="fill:#009af9; stroke:none; fill-opacity:0" cx="343.209" cy="677.868" r="2"/>
<circle clip-path="url(#clip292)" style="fill:#009af9; stroke:none; fill-opacity:0" cx="451.177" cy="647.838" r="2"/>
<circle clip-path="url(#clip292)" style="fill:#009af9; stroke:none; fill-opacity:0" cx="559.146" cy="613.519" r="2"/>
<circle clip-path="url(#clip292)" style="fill:#009af9; stroke:none; fill-opacity:0" cx="667.114" cy="544.879" r="2"/>
<circle clip-path="url(#clip292)" style="fill:#009af9; stroke:none; fill-opacity:0" cx="775.082" cy="416.181" r="2"/>
<circle clip-path="url(#clip292)" style="fill:#009af9; stroke:none; fill-opacity:0" cx="883.05" cy="274.612" r="2"/>
<circle clip-path="url(#clip292)" style="fill:#009af9; stroke:none; fill-opacity:0" cx="991.018" cy="158.783" r="2"/>
<circle clip-path="url(#clip292)" style="fill:#009af9; stroke:none; fill-opacity:0" cx="1098.99" cy="72.9838" r="2"/>
<circle clip-path="url(#clip292)" style="fill:#009af9; stroke:none; fill-opacity:0" cx="1206.95" cy="47.2441" r="2"/>
<circle clip-path="url(#clip292)" style="fill:#009af9; stroke:none; fill-opacity:0" cx="1314.92" cy="128.753" r="2"/>
<circle clip-path="url(#clip292)" style="fill:#009af9; stroke:none; fill-opacity:0" cx="1422.89" cy="257.452" r="2"/>
<circle clip-path="url(#clip292)" style="fill:#009af9; stroke:none; fill-opacity:0" cx="1530.86" cy="390.441" r="2"/>
<circle clip-path="url(#clip292)" style="fill:#009af9; stroke:none; fill-opacity:0" cx="1638.83" cy="527.719" r="2"/>
<circle clip-path="url(#clip292)" style="fill:#009af9; stroke:none; fill-opacity:0" cx="1746.8" cy="617.809" r="2"/>
<circle clip-path="url(#clip292)" style="fill:#009af9; stroke:none; fill-opacity:0" cx="1854.76" cy="669.288" r="2"/>
<circle clip-path="url(#clip292)" style="fill:#009af9; stroke:none; fill-opacity:0" cx="1962.73" cy="660.708" r="2"/>
<circle clip-path="url(#clip292)" style="fill:#009af9; stroke:none; fill-opacity:0" cx="2070.7" cy="682.158" r="2"/>
<circle clip-path="url(#clip292)" style="fill:#009af9; stroke:none; fill-opacity:0" cx="2178.67" cy="677.868" r="2"/>
<path clip-path="url(#clip290)" d="M2029.94 172.231 L2279.97 172.231 L2279.97 68.5509 L2029.94 68.5509  Z" fill="#ffffff" fill-rule="evenodd" fill-opacity="1"/>
<polyline clip-path="url(#clip290)" style="stroke:#000000; stroke-linecap:round; stroke-linejoin:round; stroke-width:4; stroke-opacity:1; fill:none" points="2029.94,172.231 2279.97,172.231 2279.97,68.5509 2029.94,68.5509 2029.94,172.231 "/>
<path clip-path="url(#clip290)" d="M2054.2 141.127 L2199.78 141.127 L2199.78 99.6549 L2054.2 99.6549 L2054.2 141.127  Z" fill="#009af9" fill-rule="evenodd" fill-opacity="1"/>
<polyline clip-path="url(#clip290)" style="stroke:#000000; stroke-linecap:round; stroke-linejoin:round; stroke-width:4; stroke-opacity:1; fill:none" points="2054.2,141.127 2199.78,141.127 2199.78,99.6549 2054.2,99.6549 2054.2,141.127 "/>
<path clip-path="url(#clip290)" d="M2239.87 107.717 L2233.53 124.916 L2246.24 124.916 L2239.87 107.717 M2237.23 103.111 L2242.53 103.111 L2255.71 137.671 L2250.84 137.671 L2247.7 128.805 L2232.12 128.805 L2228.97 137.671 L2224.04 137.671 L2237.23 103.111 Z" fill="#000000" fill-rule="nonzero" fill-opacity="1" /><path clip-path="url(#clip290)" d="M169.121 1486.45 L2352.76 1486.45 L2352.76 847.244 L169.121 847.244  Z" fill="#ffffff" fill-rule="evenodd" fill-opacity="1"/>
<defs>
  <clipPath id="clip293">
    <rect x="169" y="847" width="2185" height="640"/>
  </clipPath>
</defs>
<polyline clip-path="url(#clip293)" style="stroke:#000000; stroke-linecap:round; stroke-linejoin:round; stroke-width:2; stroke-opacity:0.1; fill:none" points="532.153,1486.45 532.153,847.244 "/>
<polyline clip-path="url(#clip293)" style="stroke:#000000; stroke-linecap:round; stroke-linejoin:round; stroke-width:2; stroke-opacity:0.1; fill:none" points="896.546,1486.45 896.546,847.244 "/>
<polyline clip-path="url(#clip293)" style="stroke:#000000; stroke-linecap:round; stroke-linejoin:round; stroke-width:2; stroke-opacity:0.1; fill:none" points="1260.94,1486.45 1260.94,847.244 "/>
<polyline clip-path="url(#clip293)" style="stroke:#000000; stroke-linecap:round; stroke-linejoin:round; stroke-width:2; stroke-opacity:0.1; fill:none" points="1625.33,1486.45 1625.33,847.244 "/>
<polyline clip-path="url(#clip293)" style="stroke:#000000; stroke-linecap:round; stroke-linejoin:round; stroke-width:2; stroke-opacity:0.1; fill:none" points="1989.72,1486.45 1989.72,847.244 "/>
<polyline clip-path="url(#clip293)" style="stroke:#000000; stroke-linecap:round; stroke-linejoin:round; stroke-width:2; stroke-opacity:0.1; fill:none" points="169.121,1486.45 2352.76,1486.45 "/>
<polyline clip-path="url(#clip293)" style="stroke:#000000; stroke-linecap:round; stroke-linejoin:round; stroke-width:2; stroke-opacity:0.1; fill:none" points="169.121,1296.21 2352.76,1296.21 "/>
<polyline clip-path="url(#clip293)" style="stroke:#000000; stroke-linecap:round; stroke-linejoin:round; stroke-width:2; stroke-opacity:0.1; fill:none" points="169.121,1105.97 2352.76,1105.97 "/>
<polyline clip-path="url(#clip293)" style="stroke:#000000; stroke-linecap:round; stroke-linejoin:round; stroke-width:2; stroke-opacity:0.1; fill:none" points="169.121,915.73 2352.76,915.73 "/>
<polyline clip-path="url(#clip290)" style="stroke:#000000; stroke-linecap:round; stroke-linejoin:round; stroke-width:4; stroke-opacity:1; fill:none" points="169.121,1486.45 2352.76,1486.45 "/>
<polyline clip-path="url(#clip290)" style="stroke:#000000; stroke-linecap:round; stroke-linejoin:round; stroke-width:4; stroke-opacity:1; fill:none" points="532.153,1486.45 532.153,1467.55 "/>
<polyline clip-path="url(#clip290)" style="stroke:#000000; stroke-linecap:round; stroke-linejoin:round; stroke-width:4; stroke-opacity:1; fill:none" points="896.546,1486.45 896.546,1467.55 "/>
<polyline clip-path="url(#clip290)" style="stroke:#000000; stroke-linecap:round; stroke-linejoin:round; stroke-width:4; stroke-opacity:1; fill:none" points="1260.94,1486.45 1260.94,1467.55 "/>
<polyline clip-path="url(#clip290)" style="stroke:#000000; stroke-linecap:round; stroke-linejoin:round; stroke-width:4; stroke-opacity:1; fill:none" points="1625.33,1486.45 1625.33,1467.55 "/>
<polyline clip-path="url(#clip290)" style="stroke:#000000; stroke-linecap:round; stroke-linejoin:round; stroke-width:4; stroke-opacity:1; fill:none" points="1989.72,1486.45 1989.72,1467.55 "/>
<path clip-path="url(#clip290)" d="M461.61 1514.29 L479.966 1514.29 L479.966 1518.22 L465.892 1518.22 L465.892 1526.7 Q466.911 1526.35 467.929 1526.19 Q468.948 1526 469.966 1526 Q475.753 1526 479.133 1529.17 Q482.513 1532.34 482.513 1537.76 Q482.513 1543.34 479.04 1546.44 Q475.568 1549.52 469.249 1549.52 Q467.073 1549.52 464.804 1549.15 Q462.559 1548.78 460.152 1548.04 L460.152 1543.34 Q462.235 1544.47 464.457 1545.03 Q466.679 1545.58 469.156 1545.58 Q473.161 1545.58 475.499 1543.48 Q477.837 1541.37 477.837 1537.76 Q477.837 1534.15 475.499 1532.04 Q473.161 1529.94 469.156 1529.94 Q467.281 1529.94 465.406 1530.35 Q463.554 1530.77 461.61 1531.65 L461.61 1514.29 Z" fill="#000000" fill-rule="nonzero" fill-opacity="1" /><path clip-path="url(#clip290)" d="M491.864 1548.13 L491.864 1543.87 Q493.624 1544.7 495.429 1545.14 Q497.235 1545.58 498.971 1545.58 Q503.6 1545.58 506.031 1542.48 Q508.485 1539.36 508.832 1533.01 Q507.489 1535.01 505.429 1536.07 Q503.369 1537.13 500.869 1537.13 Q495.684 1537.13 492.651 1534.01 Q489.642 1530.86 489.642 1525.42 Q489.642 1520.1 492.79 1516.88 Q495.938 1513.66 501.17 1513.66 Q507.165 1513.66 510.313 1518.27 Q513.485 1522.85 513.485 1531.6 Q513.485 1539.77 509.596 1544.66 Q505.73 1549.52 499.179 1549.52 Q497.42 1549.52 495.614 1549.17 Q493.809 1548.82 491.864 1548.13 M501.17 1533.48 Q504.318 1533.48 506.147 1531.32 Q507.999 1529.17 507.999 1525.42 Q507.999 1521.7 506.147 1519.54 Q504.318 1517.37 501.17 1517.37 Q498.022 1517.37 496.17 1519.54 Q494.341 1521.7 494.341 1525.42 Q494.341 1529.17 496.17 1531.32 Q498.022 1533.48 501.17 1533.48 Z" fill="#000000" fill-rule="nonzero" fill-opacity="1" /><path clip-path="url(#clip290)" d="M534.734 1518.36 L522.929 1536.81 L534.734 1536.81 L534.734 1518.36 M533.508 1514.29 L539.387 1514.29 L539.387 1536.81 L544.318 1536.81 L544.318 1540.7 L539.387 1540.7 L539.387 1548.85 L534.734 1548.85 L534.734 1540.7 L519.133 1540.7 L519.133 1536.19 L533.508 1514.29 Z" fill="#000000" fill-rule="nonzero" fill-opacity="1" /><path clip-path="url(#clip290)" d="M562.049 1517.37 Q558.438 1517.37 556.609 1520.93 Q554.804 1524.47 554.804 1531.6 Q554.804 1538.71 556.609 1542.27 Q558.438 1545.82 562.049 1545.82 Q565.683 1545.82 567.489 1542.27 Q569.318 1538.71 569.318 1531.6 Q569.318 1524.47 567.489 1520.93 Q565.683 1517.37 562.049 1517.37 M562.049 1513.66 Q567.859 1513.66 570.915 1518.27 Q573.994 1522.85 573.994 1531.6 Q573.994 1540.33 570.915 1544.94 Q567.859 1549.52 562.049 1549.52 Q556.239 1549.52 553.16 1544.94 Q550.105 1540.33 550.105 1531.6 Q550.105 1522.85 553.16 1518.27 Q556.239 1513.66 562.049 1513.66 Z" fill="#000000" fill-rule="nonzero" fill-opacity="1" /><path clip-path="url(#clip290)" d="M592.211 1517.37 Q588.6 1517.37 586.771 1520.93 Q584.966 1524.47 584.966 1531.6 Q584.966 1538.71 586.771 1542.27 Q588.6 1545.82 592.211 1545.82 Q595.845 1545.82 597.651 1542.27 Q599.48 1538.71 599.48 1531.6 Q599.48 1524.47 597.651 1520.93 Q595.845 1517.37 592.211 1517.37 M592.211 1513.66 Q598.021 1513.66 601.077 1518.27 Q604.155 1522.85 604.155 1531.6 Q604.155 1540.33 601.077 1544.94 Q598.021 1549.52 592.211 1549.52 Q586.401 1549.52 583.322 1544.94 Q580.267 1540.33 580.267 1531.6 Q580.267 1522.85 583.322 1518.27 Q586.401 1513.66 592.211 1513.66 Z" fill="#000000" fill-rule="nonzero" fill-opacity="1" /><path clip-path="url(#clip290)" d="M826.002 1514.29 L844.359 1514.29 L844.359 1518.22 L830.285 1518.22 L830.285 1526.7 Q831.303 1526.35 832.322 1526.19 Q833.34 1526 834.359 1526 Q840.146 1526 843.525 1529.17 Q846.905 1532.34 846.905 1537.76 Q846.905 1543.34 843.433 1546.44 Q839.961 1549.52 833.641 1549.52 Q831.465 1549.52 829.197 1549.15 Q826.952 1548.78 824.544 1548.04 L824.544 1543.34 Q826.627 1544.47 828.85 1545.03 Q831.072 1545.58 833.549 1545.58 Q837.553 1545.58 839.891 1543.48 Q842.229 1541.37 842.229 1537.76 Q842.229 1534.15 839.891 1532.04 Q837.553 1529.94 833.549 1529.94 Q831.674 1529.94 829.799 1530.35 Q827.947 1530.77 826.002 1531.65 L826.002 1514.29 Z" fill="#000000" fill-rule="nonzero" fill-opacity="1" /><path clip-path="url(#clip290)" d="M856.257 1548.13 L856.257 1543.87 Q858.016 1544.7 859.822 1545.14 Q861.627 1545.58 863.363 1545.58 Q867.993 1545.58 870.424 1542.48 Q872.877 1539.36 873.224 1533.01 Q871.882 1535.01 869.822 1536.07 Q867.761 1537.13 865.261 1537.13 Q860.076 1537.13 857.044 1534.01 Q854.035 1530.86 854.035 1525.42 Q854.035 1520.1 857.183 1516.88 Q860.331 1513.66 865.562 1513.66 Q871.558 1513.66 874.706 1518.27 Q877.877 1522.85 877.877 1531.6 Q877.877 1539.77 873.988 1544.66 Q870.123 1549.52 863.572 1549.52 Q861.812 1549.52 860.007 1549.17 Q858.201 1548.82 856.257 1548.13 M865.562 1533.48 Q868.711 1533.48 870.539 1531.32 Q872.391 1529.17 872.391 1525.42 Q872.391 1521.7 870.539 1519.54 Q868.711 1517.37 865.562 1517.37 Q862.414 1517.37 860.562 1519.54 Q858.734 1521.7 858.734 1525.42 Q858.734 1529.17 860.562 1531.32 Q862.414 1533.48 865.562 1533.48 Z" fill="#000000" fill-rule="nonzero" fill-opacity="1" /><path clip-path="url(#clip290)" d="M885.099 1514.29 L907.321 1514.29 L907.321 1516.28 L894.775 1548.85 L889.891 1548.85 L901.696 1518.22 L885.099 1518.22 L885.099 1514.29 Z" fill="#000000" fill-rule="nonzero" fill-opacity="1" /><path clip-path="url(#clip290)" d="M926.442 1517.37 Q922.831 1517.37 921.002 1520.93 Q919.196 1524.47 919.196 1531.6 Q919.196 1538.71 921.002 1542.27 Q922.831 1545.82 926.442 1545.82 Q930.076 1545.82 931.882 1542.27 Q933.71 1538.71 933.71 1531.6 Q933.71 1524.47 931.882 1520.93 Q930.076 1517.37 926.442 1517.37 M926.442 1513.66 Q932.252 1513.66 935.307 1518.27 Q938.386 1522.85 938.386 1531.6 Q938.386 1540.33 935.307 1544.94 Q932.252 1549.52 926.442 1549.52 Q920.632 1549.52 917.553 1544.94 Q914.497 1540.33 914.497 1531.6 Q914.497 1522.85 917.553 1518.27 Q920.632 1513.66 926.442 1513.66 Z" fill="#000000" fill-rule="nonzero" fill-opacity="1" /><path clip-path="url(#clip290)" d="M956.604 1517.37 Q952.993 1517.37 951.164 1520.93 Q949.358 1524.47 949.358 1531.6 Q949.358 1538.71 951.164 1542.27 Q952.993 1545.82 956.604 1545.82 Q960.238 1545.82 962.043 1542.27 Q963.872 1538.71 963.872 1531.6 Q963.872 1524.47 962.043 1520.93 Q960.238 1517.37 956.604 1517.37 M956.604 1513.66 Q962.414 1513.66 965.469 1518.27 Q968.548 1522.85 968.548 1531.6 Q968.548 1540.33 965.469 1544.94 Q962.414 1549.52 956.604 1549.52 Q950.793 1549.52 947.715 1544.94 Q944.659 1540.33 944.659 1531.6 Q944.659 1522.85 947.715 1518.27 Q950.793 1513.66 956.604 1513.66 Z" fill="#000000" fill-rule="nonzero" fill-opacity="1" /><path clip-path="url(#clip290)" d="M1201.1 1529.7 Q1197.95 1529.7 1196.1 1531.86 Q1194.27 1534.01 1194.27 1537.76 Q1194.27 1541.49 1196.1 1543.66 Q1197.95 1545.82 1201.1 1545.82 Q1204.25 1545.82 1206.08 1543.66 Q1207.93 1541.49 1207.93 1537.76 Q1207.93 1534.01 1206.08 1531.86 Q1204.25 1529.7 1201.1 1529.7 M1210.38 1515.05 L1210.38 1519.31 Q1208.62 1518.48 1206.82 1518.04 Q1205.04 1517.6 1203.28 1517.6 Q1198.65 1517.6 1196.19 1520.72 Q1193.76 1523.85 1193.42 1530.17 Q1194.78 1528.15 1196.84 1527.09 Q1198.9 1526 1201.38 1526 Q1206.59 1526 1209.6 1529.17 Q1212.63 1532.32 1212.63 1537.76 Q1212.63 1543.08 1209.48 1546.3 Q1206.33 1549.52 1201.1 1549.52 Q1195.11 1549.52 1191.93 1544.94 Q1188.76 1540.33 1188.76 1531.6 Q1188.76 1523.41 1192.65 1518.55 Q1196.54 1513.66 1203.09 1513.66 Q1204.85 1513.66 1206.63 1514.01 Q1208.44 1514.36 1210.38 1515.05 Z" fill="#000000" fill-rule="nonzero" fill-opacity="1" /><path clip-path="url(#clip290)" d="M1230.68 1517.37 Q1227.07 1517.37 1225.24 1520.93 Q1223.44 1524.47 1223.44 1531.6 Q1223.44 1538.71 1225.24 1542.27 Q1227.07 1545.82 1230.68 1545.82 Q1234.32 1545.82 1236.12 1542.27 Q1237.95 1538.71 1237.95 1531.6 Q1237.95 1524.47 1236.12 1520.93 Q1234.32 1517.37 1230.68 1517.37 M1230.68 1513.66 Q1236.49 1513.66 1239.55 1518.27 Q1242.63 1522.85 1242.63 1531.6 Q1242.63 1540.33 1239.55 1544.94 Q1236.49 1549.52 1230.68 1549.52 Q1224.87 1549.52 1221.8 1544.94 Q1218.74 1540.33 1218.74 1531.6 Q1218.74 1522.85 1221.8 1518.27 Q1224.87 1513.66 1230.68 1513.66 Z" fill="#000000" fill-rule="nonzero" fill-opacity="1" /><path clip-path="url(#clip290)" d="M1260.85 1517.37 Q1257.23 1517.37 1255.41 1520.93 Q1253.6 1524.47 1253.6 1531.6 Q1253.6 1538.71 1255.41 1542.27 Q1257.23 1545.82 1260.85 1545.82 Q1264.48 1545.82 1266.29 1542.27 Q1268.11 1538.71 1268.11 1531.6 Q1268.11 1524.47 1266.29 1520.93 Q1264.48 1517.37 1260.85 1517.37 M1260.85 1513.66 Q1266.66 1513.66 1269.71 1518.27 Q1272.79 1522.85 1272.79 1531.6 Q1272.79 1540.33 1269.71 1544.94 Q1266.66 1549.52 1260.85 1549.52 Q1255.04 1549.52 1251.96 1544.94 Q1248.9 1540.33 1248.9 1531.6 Q1248.9 1522.85 1251.96 1518.27 Q1255.04 1513.66 1260.85 1513.66 Z" fill="#000000" fill-rule="nonzero" fill-opacity="1" /><path clip-path="url(#clip290)" d="M1291.01 1517.37 Q1287.4 1517.37 1285.57 1520.93 Q1283.76 1524.47 1283.76 1531.6 Q1283.76 1538.71 1285.57 1542.27 Q1287.4 1545.82 1291.01 1545.82 Q1294.64 1545.82 1296.45 1542.27 Q1298.28 1538.71 1298.28 1531.6 Q1298.28 1524.47 1296.45 1520.93 Q1294.64 1517.37 1291.01 1517.37 M1291.01 1513.66 Q1296.82 1513.66 1299.87 1518.27 Q1302.95 1522.85 1302.95 1531.6 Q1302.95 1540.33 1299.87 1544.94 Q1296.82 1549.52 1291.01 1549.52 Q1285.2 1549.52 1282.12 1544.94 Q1279.06 1540.33 1279.06 1531.6 Q1279.06 1522.85 1282.12 1518.27 Q1285.2 1513.66 1291.01 1513.66 Z" fill="#000000" fill-rule="nonzero" fill-opacity="1" /><path clip-path="url(#clip290)" d="M1321.17 1517.37 Q1317.56 1517.37 1315.73 1520.93 Q1313.92 1524.47 1313.92 1531.6 Q1313.92 1538.71 1315.73 1542.27 Q1317.56 1545.82 1321.17 1545.82 Q1324.8 1545.82 1326.61 1542.27 Q1328.44 1538.71 1328.44 1531.6 Q1328.44 1524.47 1326.61 1520.93 Q1324.8 1517.37 1321.17 1517.37 M1321.17 1513.66 Q1326.98 1513.66 1330.04 1518.27 Q1333.11 1522.85 1333.11 1531.6 Q1333.11 1540.33 1330.04 1544.94 Q1326.98 1549.52 1321.17 1549.52 Q1315.36 1549.52 1312.28 1544.94 Q1309.23 1540.33 1309.23 1531.6 Q1309.23 1522.85 1312.28 1518.27 Q1315.36 1513.66 1321.17 1513.66 Z" fill="#000000" fill-rule="nonzero" fill-opacity="1" /><path clip-path="url(#clip290)" d="M1565.49 1529.7 Q1562.35 1529.7 1560.49 1531.86 Q1558.66 1534.01 1558.66 1537.76 Q1558.66 1541.49 1560.49 1543.66 Q1562.35 1545.82 1565.49 1545.82 Q1568.64 1545.82 1570.47 1543.66 Q1572.32 1541.49 1572.32 1537.76 Q1572.32 1534.01 1570.47 1531.86 Q1568.64 1529.7 1565.49 1529.7 M1574.78 1515.05 L1574.78 1519.31 Q1573.02 1518.48 1571.21 1518.04 Q1569.43 1517.6 1567.67 1517.6 Q1563.04 1517.6 1560.59 1520.72 Q1558.16 1523.85 1557.81 1530.17 Q1559.17 1528.15 1561.23 1527.09 Q1563.29 1526 1565.77 1526 Q1570.98 1526 1573.99 1529.17 Q1577.02 1532.32 1577.02 1537.76 Q1577.02 1543.08 1573.87 1546.3 Q1570.72 1549.52 1565.49 1549.52 Q1559.5 1549.52 1556.33 1544.94 Q1553.16 1540.33 1553.16 1531.6 Q1553.16 1523.41 1557.04 1518.55 Q1560.93 1513.66 1567.48 1513.66 Q1569.24 1513.66 1571.03 1514.01 Q1572.83 1514.36 1574.78 1515.05 Z" fill="#000000" fill-rule="nonzero" fill-opacity="1" /><path clip-path="url(#clip290)" d="M1595.08 1517.37 Q1591.47 1517.37 1589.64 1520.93 Q1587.83 1524.47 1587.83 1531.6 Q1587.83 1538.71 1589.64 1542.27 Q1591.47 1545.82 1595.08 1545.82 Q1598.71 1545.82 1600.52 1542.27 Q1602.35 1538.71 1602.35 1531.6 Q1602.35 1524.47 1600.52 1520.93 Q1598.71 1517.37 1595.08 1517.37 M1595.08 1513.66 Q1600.89 1513.66 1603.94 1518.27 Q1607.02 1522.85 1607.02 1531.6 Q1607.02 1540.33 1603.94 1544.94 Q1600.89 1549.52 1595.08 1549.52 Q1589.27 1549.52 1586.19 1544.94 Q1583.13 1540.33 1583.13 1531.6 Q1583.13 1522.85 1586.19 1518.27 Q1589.27 1513.66 1595.08 1513.66 Z" fill="#000000" fill-rule="nonzero" fill-opacity="1" /><path clip-path="url(#clip290)" d="M1629.41 1530.21 Q1632.76 1530.93 1634.64 1533.2 Q1636.53 1535.47 1636.53 1538.8 Q1636.53 1543.92 1633.02 1546.72 Q1629.5 1549.52 1623.02 1549.52 Q1620.84 1549.52 1618.53 1549.08 Q1616.23 1548.66 1613.78 1547.81 L1613.78 1543.29 Q1615.72 1544.43 1618.04 1545.01 Q1620.35 1545.58 1622.88 1545.58 Q1627.28 1545.58 1629.57 1543.85 Q1631.88 1542.11 1631.88 1538.8 Q1631.88 1535.75 1629.73 1534.03 Q1627.6 1532.3 1623.78 1532.3 L1619.75 1532.3 L1619.75 1528.45 L1623.97 1528.45 Q1627.41 1528.45 1629.24 1527.09 Q1631.07 1525.7 1631.07 1523.11 Q1631.07 1520.45 1629.17 1519.03 Q1627.3 1517.6 1623.78 1517.6 Q1621.86 1517.6 1619.66 1518.01 Q1617.46 1518.43 1614.82 1519.31 L1614.82 1515.14 Q1617.48 1514.4 1619.8 1514.03 Q1622.14 1513.66 1624.2 1513.66 Q1629.52 1513.66 1632.62 1516.09 Q1635.72 1518.5 1635.72 1522.62 Q1635.72 1525.49 1634.08 1527.48 Q1632.44 1529.45 1629.41 1530.21 Z" fill="#000000" fill-rule="nonzero" fill-opacity="1" /><path clip-path="url(#clip290)" d="M1655.4 1517.37 Q1651.79 1517.37 1649.96 1520.93 Q1648.16 1524.47 1648.16 1531.6 Q1648.16 1538.71 1649.96 1542.27 Q1651.79 1545.82 1655.4 1545.82 Q1659.03 1545.82 1660.84 1542.27 Q1662.67 1538.71 1662.67 1531.6 Q1662.67 1524.47 1660.84 1520.93 Q1659.03 1517.37 1655.4 1517.37 M1655.4 1513.66 Q1661.21 1513.66 1664.27 1518.27 Q1667.34 1522.85 1667.34 1531.6 Q1667.34 1540.33 1664.27 1544.94 Q1661.21 1549.52 1655.4 1549.52 Q1649.59 1549.52 1646.51 1544.94 Q1643.46 1540.33 1643.46 1531.6 Q1643.46 1522.85 1646.51 1518.27 Q1649.59 1513.66 1655.4 1513.66 Z" fill="#000000" fill-rule="nonzero" fill-opacity="1" /><path clip-path="url(#clip290)" d="M1685.56 1517.37 Q1681.95 1517.37 1680.12 1520.93 Q1678.32 1524.47 1678.32 1531.6 Q1678.32 1538.71 1680.12 1542.27 Q1681.95 1545.82 1685.56 1545.82 Q1689.2 1545.82 1691 1542.27 Q1692.83 1538.71 1692.83 1531.6 Q1692.83 1524.47 1691 1520.93 Q1689.2 1517.37 1685.56 1517.37 M1685.56 1513.66 Q1691.37 1513.66 1694.43 1518.27 Q1697.51 1522.85 1697.51 1531.6 Q1697.51 1540.33 1694.43 1544.94 Q1691.37 1549.52 1685.56 1549.52 Q1679.75 1549.52 1676.67 1544.94 Q1673.62 1540.33 1673.62 1531.6 Q1673.62 1522.85 1676.67 1518.27 Q1679.75 1513.66 1685.56 1513.66 Z" fill="#000000" fill-rule="nonzero" fill-opacity="1" /><path clip-path="url(#clip290)" d="M1929.89 1529.7 Q1926.74 1529.7 1924.89 1531.86 Q1923.06 1534.01 1923.06 1537.76 Q1923.06 1541.49 1924.89 1543.66 Q1926.74 1545.82 1929.89 1545.82 Q1933.03 1545.82 1934.86 1543.66 Q1936.71 1541.49 1936.71 1537.76 Q1936.71 1534.01 1934.86 1531.86 Q1933.03 1529.7 1929.89 1529.7 M1939.17 1515.05 L1939.17 1519.31 Q1937.41 1518.48 1935.6 1518.04 Q1933.82 1517.6 1932.06 1517.6 Q1927.43 1517.6 1924.98 1520.72 Q1922.55 1523.85 1922.2 1530.17 Q1923.57 1528.15 1925.63 1527.09 Q1927.69 1526 1930.16 1526 Q1935.37 1526 1938.38 1529.17 Q1941.41 1532.32 1941.41 1537.76 Q1941.41 1543.08 1938.27 1546.3 Q1935.12 1549.52 1929.89 1549.52 Q1923.89 1549.52 1920.72 1544.94 Q1917.55 1540.33 1917.55 1531.6 Q1917.55 1523.41 1921.44 1518.55 Q1925.33 1513.66 1931.88 1513.66 Q1933.64 1513.66 1935.42 1514.01 Q1937.22 1514.36 1939.17 1515.05 Z" fill="#000000" fill-rule="nonzero" fill-opacity="1" /><path clip-path="url(#clip290)" d="M1959.47 1517.37 Q1955.86 1517.37 1954.03 1520.93 Q1952.22 1524.47 1952.22 1531.6 Q1952.22 1538.71 1954.03 1542.27 Q1955.86 1545.82 1959.47 1545.82 Q1963.1 1545.82 1964.91 1542.27 Q1966.74 1538.71 1966.74 1531.6 Q1966.74 1524.47 1964.91 1520.93 Q1963.1 1517.37 1959.47 1517.37 M1959.47 1513.66 Q1965.28 1513.66 1968.33 1518.27 Q1971.41 1522.85 1971.41 1531.6 Q1971.41 1540.33 1968.33 1544.94 Q1965.28 1549.52 1959.47 1549.52 Q1953.66 1549.52 1950.58 1544.94 Q1947.52 1540.33 1947.52 1531.6 Q1947.52 1522.85 1950.58 1518.27 Q1953.66 1513.66 1959.47 1513.66 Z" fill="#000000" fill-rule="nonzero" fill-opacity="1" /><path clip-path="url(#clip290)" d="M1990.21 1529.7 Q1987.06 1529.7 1985.21 1531.86 Q1983.38 1534.01 1983.38 1537.76 Q1983.38 1541.49 1985.21 1543.66 Q1987.06 1545.82 1990.21 1545.82 Q1993.36 1545.82 1995.19 1543.66 Q1997.04 1541.49 1997.04 1537.76 Q1997.04 1534.01 1995.19 1531.86 Q1993.36 1529.7 1990.21 1529.7 M1999.49 1515.05 L1999.49 1519.31 Q1997.73 1518.48 1995.93 1518.04 Q1994.15 1517.6 1992.39 1517.6 Q1987.76 1517.6 1985.3 1520.72 Q1982.87 1523.85 1982.52 1530.17 Q1983.89 1528.15 1985.95 1527.09 Q1988.01 1526 1990.49 1526 Q1995.7 1526 1998.71 1529.17 Q2001.74 1532.32 2001.74 1537.76 Q2001.74 1543.08 1998.59 1546.3 Q1995.44 1549.52 1990.21 1549.52 Q1984.21 1549.52 1981.04 1544.94 Q1977.87 1540.33 1977.87 1531.6 Q1977.87 1523.41 1981.76 1518.55 Q1985.65 1513.66 1992.2 1513.66 Q1993.96 1513.66 1995.74 1514.01 Q1997.55 1514.36 1999.49 1515.05 Z" fill="#000000" fill-rule="nonzero" fill-opacity="1" /><path clip-path="url(#clip290)" d="M2019.79 1517.37 Q2016.18 1517.37 2014.35 1520.93 Q2012.55 1524.47 2012.55 1531.6 Q2012.55 1538.71 2014.35 1542.27 Q2016.18 1545.82 2019.79 1545.82 Q2023.43 1545.82 2025.23 1542.27 Q2027.06 1538.71 2027.06 1531.6 Q2027.06 1524.47 2025.23 1520.93 Q2023.43 1517.37 2019.79 1517.37 M2019.79 1513.66 Q2025.6 1513.66 2028.66 1518.27 Q2031.74 1522.85 2031.74 1531.6 Q2031.74 1540.33 2028.66 1544.94 Q2025.6 1549.52 2019.79 1549.52 Q2013.98 1549.52 2010.9 1544.94 Q2007.85 1540.33 2007.85 1531.6 Q2007.85 1522.85 2010.9 1518.27 Q2013.98 1513.66 2019.79 1513.66 Z" fill="#000000" fill-rule="nonzero" fill-opacity="1" /><path clip-path="url(#clip290)" d="M2049.95 1517.37 Q2046.34 1517.37 2044.52 1520.93 Q2042.71 1524.47 2042.71 1531.6 Q2042.71 1538.71 2044.52 1542.27 Q2046.34 1545.82 2049.95 1545.82 Q2053.59 1545.82 2055.39 1542.27 Q2057.22 1538.71 2057.22 1531.6 Q2057.22 1524.47 2055.39 1520.93 Q2053.59 1517.37 2049.95 1517.37 M2049.95 1513.66 Q2055.77 1513.66 2058.82 1518.27 Q2061.9 1522.85 2061.9 1531.6 Q2061.9 1540.33 2058.82 1544.94 Q2055.77 1549.52 2049.95 1549.52 Q2044.14 1549.52 2041.07 1544.94 Q2038.01 1540.33 2038.01 1531.6 Q2038.01 1522.85 2041.07 1518.27 Q2044.14 1513.66 2049.95 1513.66 Z" fill="#000000" fill-rule="nonzero" fill-opacity="1" /><polyline clip-path="url(#clip290)" style="stroke:#000000; stroke-linecap:round; stroke-linejoin:round; stroke-width:4; stroke-opacity:1; fill:none" points="169.121,1486.45 169.121,847.244 "/>
<polyline clip-path="url(#clip290)" style="stroke:#000000; stroke-linecap:round; stroke-linejoin:round; stroke-width:4; stroke-opacity:1; fill:none" points="169.121,1486.45 188.019,1486.45 "/>
<polyline clip-path="url(#clip290)" style="stroke:#000000; stroke-linecap:round; stroke-linejoin:round; stroke-width:4; stroke-opacity:1; fill:none" points="169.121,1296.21 188.019,1296.21 "/>
<polyline clip-path="url(#clip290)" style="stroke:#000000; stroke-linecap:round; stroke-linejoin:round; stroke-width:4; stroke-opacity:1; fill:none" points="169.121,1105.97 188.019,1105.97 "/>
<polyline clip-path="url(#clip290)" style="stroke:#000000; stroke-linecap:round; stroke-linejoin:round; stroke-width:4; stroke-opacity:1; fill:none" points="169.121,915.73 188.019,915.73 "/>
<path clip-path="url(#clip290)" d="M121.177 1472.25 Q117.566 1472.25 115.737 1475.81 Q113.932 1479.35 113.932 1486.48 Q113.932 1493.59 115.737 1497.15 Q117.566 1500.7 121.177 1500.7 Q124.811 1500.7 126.617 1497.15 Q128.445 1493.59 128.445 1486.48 Q128.445 1479.35 126.617 1475.81 Q124.811 1472.25 121.177 1472.25 M121.177 1468.54 Q126.987 1468.54 130.043 1473.15 Q133.121 1477.73 133.121 1486.48 Q133.121 1495.21 130.043 1499.82 Q126.987 1504.4 121.177 1504.4 Q115.367 1504.4 112.288 1499.82 Q109.233 1495.21 109.233 1486.48 Q109.233 1477.73 112.288 1473.15 Q115.367 1468.54 121.177 1468.54 Z" fill="#000000" fill-rule="nonzero" fill-opacity="1" /><path clip-path="url(#clip290)" d="M81.0614 1278.93 L99.4178 1278.93 L99.4178 1282.86 L85.3438 1282.86 L85.3438 1291.34 Q86.3623 1290.99 87.3808 1290.83 Q88.3993 1290.64 89.4178 1290.64 Q95.2049 1290.64 98.5845 1293.81 Q101.964 1296.98 101.964 1302.4 Q101.964 1307.98 98.4919 1311.08 Q95.0197 1314.16 88.7003 1314.16 Q86.5243 1314.16 84.2558 1313.79 Q82.0105 1313.42 79.6031 1312.68 L79.6031 1307.98 Q81.6864 1309.11 83.9086 1309.67 Q86.1308 1310.22 88.6077 1310.22 Q92.6123 1310.22 94.9502 1308.12 Q97.2882 1306.01 97.2882 1302.4 Q97.2882 1298.79 94.9502 1296.68 Q92.6123 1294.58 88.6077 1294.58 Q86.7327 1294.58 84.8577 1294.99 Q83.0058 1295.41 81.0614 1296.29 L81.0614 1278.93 Z" fill="#000000" fill-rule="nonzero" fill-opacity="1" /><path clip-path="url(#clip290)" d="M121.177 1282.01 Q117.566 1282.01 115.737 1285.57 Q113.932 1289.11 113.932 1296.24 Q113.932 1303.35 115.737 1306.91 Q117.566 1310.46 121.177 1310.46 Q124.811 1310.46 126.617 1306.91 Q128.445 1303.35 128.445 1296.24 Q128.445 1289.11 126.617 1285.57 Q124.811 1282.01 121.177 1282.01 M121.177 1278.3 Q126.987 1278.3 130.043 1282.91 Q133.121 1287.49 133.121 1296.24 Q133.121 1304.97 130.043 1309.58 Q126.987 1314.16 121.177 1314.16 Q115.367 1314.16 112.288 1309.58 Q109.233 1304.97 109.233 1296.24 Q109.233 1287.49 112.288 1282.91 Q115.367 1278.3 121.177 1278.3 Z" fill="#000000" fill-rule="nonzero" fill-opacity="1" /><path clip-path="url(#clip290)" d="M51.6634 1119.31 L59.3023 1119.31 L59.3023 1092.95 L50.9921 1094.62 L50.9921 1090.36 L59.256 1088.69 L63.9319 1088.69 L63.9319 1119.31 L71.5707 1119.31 L71.5707 1123.25 L51.6634 1123.25 L51.6634 1119.31 Z" fill="#000000" fill-rule="nonzero" fill-opacity="1" /><path clip-path="url(#clip290)" d="M91.0151 1091.77 Q87.404 1091.77 85.5753 1095.33 Q83.7697 1098.87 83.7697 1106 Q83.7697 1113.11 85.5753 1116.68 Q87.404 1120.22 91.0151 1120.22 Q94.6493 1120.22 96.4548 1116.68 Q98.2835 1113.11 98.2835 1106 Q98.2835 1098.87 96.4548 1095.33 Q94.6493 1091.77 91.0151 1091.77 M91.0151 1088.06 Q96.8252 1088.06 99.8808 1092.67 Q102.959 1097.25 102.959 1106 Q102.959 1114.73 99.8808 1119.34 Q96.8252 1123.92 91.0151 1123.92 Q85.2049 1123.92 82.1262 1119.34 Q79.0707 1114.73 79.0707 1106 Q79.0707 1097.25 82.1262 1092.67 Q85.2049 1088.06 91.0151 1088.06 Z" fill="#000000" fill-rule="nonzero" fill-opacity="1" /><path clip-path="url(#clip290)" d="M121.177 1091.77 Q117.566 1091.77 115.737 1095.33 Q113.932 1098.87 113.932 1106 Q113.932 1113.11 115.737 1116.68 Q117.566 1120.22 121.177 1120.22 Q124.811 1120.22 126.617 1116.68 Q128.445 1113.11 128.445 1106 Q128.445 1098.87 126.617 1095.33 Q124.811 1091.77 121.177 1091.77 M121.177 1088.06 Q126.987 1088.06 130.043 1092.67 Q133.121 1097.25 133.121 1106 Q133.121 1114.73 130.043 1119.34 Q126.987 1123.92 121.177 1123.92 Q115.367 1123.92 112.288 1119.34 Q109.233 1114.73 109.233 1106 Q109.233 1097.25 112.288 1092.67 Q115.367 1088.06 121.177 1088.06 Z" fill="#000000" fill-rule="nonzero" fill-opacity="1" /><path clip-path="url(#clip290)" d="M51.6634 929.075 L59.3023 929.075 L59.3023 902.709 L50.9921 904.376 L50.9921 900.117 L59.256 898.45 L63.9319 898.45 L63.9319 929.075 L71.5707 929.075 L71.5707 933.01 L51.6634 933.01 L51.6634 929.075 Z" fill="#000000" fill-rule="nonzero" fill-opacity="1" /><path clip-path="url(#clip290)" d="M81.0614 898.45 L99.4178 898.45 L99.4178 902.385 L85.3438 902.385 L85.3438 910.858 Q86.3623 910.51 87.3808 910.348 Q88.3993 910.163 89.4178 910.163 Q95.2049 910.163 98.5845 913.334 Q101.964 916.506 101.964 921.922 Q101.964 927.501 98.4919 930.603 Q95.0197 933.682 88.7003 933.682 Q86.5243 933.682 84.2558 933.311 Q82.0105 932.941 79.6031 932.2 L79.6031 927.501 Q81.6864 928.635 83.9086 929.191 Q86.1308 929.746 88.6077 929.746 Q92.6123 929.746 94.9502 927.64 Q97.2882 925.533 97.2882 921.922 Q97.2882 918.311 94.9502 916.205 Q92.6123 914.098 88.6077 914.098 Q86.7327 914.098 84.8577 914.515 Q83.0058 914.932 81.0614 915.811 L81.0614 898.45 Z" fill="#000000" fill-rule="nonzero" fill-opacity="1" /><path clip-path="url(#clip290)" d="M121.177 901.529 Q117.566 901.529 115.737 905.094 Q113.932 908.635 113.932 915.765 Q113.932 922.871 115.737 926.436 Q117.566 929.978 121.177 929.978 Q124.811 929.978 126.617 926.436 Q128.445 922.871 128.445 915.765 Q128.445 908.635 126.617 905.094 Q124.811 901.529 121.177 901.529 M121.177 897.825 Q126.987 897.825 130.043 902.432 Q133.121 907.015 133.121 915.765 Q133.121 924.492 130.043 929.098 Q126.987 933.682 121.177 933.682 Q115.367 933.682 112.288 929.098 Q109.233 924.492 109.233 915.765 Q109.233 907.015 112.288 902.432 Q115.367 897.825 121.177 897.825 Z" fill="#000000" fill-rule="nonzero" fill-opacity="1" /><path clip-path="url(#clip293)" d="M289.225 1478.84 L289.225 1486.45 L410.689 1486.45 L410.689 1478.84 L289.225 1478.84 L289.225 1478.84  Z" fill="#009af9" fill-rule="evenodd" fill-opacity="1"/>
<polyline clip-path="url(#clip293)" style="stroke:#000000; stroke-linecap:round; stroke-linejoin:round; stroke-width:4; stroke-opacity:1; fill:none" points="289.225,1478.84 289.225,1486.45 410.689,1486.45 410.689,1478.84 289.225,1478.84 "/>
<path clip-path="url(#clip293)" d="M410.689 1463.62 L410.689 1486.45 L532.153 1486.45 L532.153 1463.62 L410.689 1463.62 L410.689 1463.62  Z" fill="#009af9" fill-rule="evenodd" fill-opacity="1"/>
<polyline clip-path="url(#clip293)" style="stroke:#000000; stroke-linecap:round; stroke-linejoin:round; stroke-width:4; stroke-opacity:1; fill:none" points="410.689,1463.62 410.689,1486.45 532.153,1486.45 532.153,1463.62 410.689,1463.62 "/>
<path clip-path="url(#clip293)" d="M532.153 1452.2 L532.153 1486.45 L653.618 1486.45 L653.618 1452.2 L532.153 1452.2 L532.153 1452.2  Z" fill="#009af9" fill-rule="evenodd" fill-opacity="1"/>
<polyline clip-path="url(#clip293)" style="stroke:#000000; stroke-linecap:round; stroke-linejoin:round; stroke-width:4; stroke-opacity:1; fill:none" points="532.153,1452.2 532.153,1486.45 653.618,1486.45 653.618,1452.2 532.153,1452.2 "/>
<path clip-path="url(#clip293)" d="M653.618 1379.91 L653.618 1486.45 L775.082 1486.45 L775.082 1379.91 L653.618 1379.91 L653.618 1379.91  Z" fill="#009af9" fill-rule="evenodd" fill-opacity="1"/>
<polyline clip-path="url(#clip293)" style="stroke:#000000; stroke-linecap:round; stroke-linejoin:round; stroke-width:4; stroke-opacity:1; fill:none" points="653.618,1379.91 653.618,1486.45 775.082,1486.45 775.082,1379.91 653.618,1379.91 "/>
<path clip-path="url(#clip293)" d="M775.082 1296.21 L775.082 1486.45 L896.546 1486.45 L896.546 1296.21 L775.082 1296.21 L775.082 1296.21  Z" fill="#009af9" fill-rule="evenodd" fill-opacity="1"/>
<polyline clip-path="url(#clip293)" style="stroke:#000000; stroke-linecap:round; stroke-linejoin:round; stroke-width:4; stroke-opacity:1; fill:none" points="775.082,1296.21 775.082,1486.45 896.546,1486.45 896.546,1296.21 775.082,1296.21 "/>
<path clip-path="url(#clip293)" d="M896.546 1048.9 L896.546 1486.45 L1018.01 1486.45 L1018.01 1048.9 L896.546 1048.9 L896.546 1048.9  Z" fill="#009af9" fill-rule="evenodd" fill-opacity="1"/>
<polyline clip-path="url(#clip293)" style="stroke:#000000; stroke-linecap:round; stroke-linejoin:round; stroke-width:4; stroke-opacity:1; fill:none" points="896.546,1048.9 896.546,1486.45 1018.01,1486.45 1018.01,1048.9 896.546,1048.9 "/>
<path clip-path="url(#clip293)" d="M1018.01 1033.68 L1018.01 1486.45 L1139.47 1486.45 L1139.47 1033.68 L1018.01 1033.68 L1018.01 1033.68  Z" fill="#009af9" fill-rule="evenodd" fill-opacity="1"/>
<polyline clip-path="url(#clip293)" style="stroke:#000000; stroke-linecap:round; stroke-linejoin:round; stroke-width:4; stroke-opacity:1; fill:none" points="1018.01,1033.68 1018.01,1486.45 1139.47,1486.45 1139.47,1033.68 1018.01,1033.68 "/>
<path clip-path="url(#clip293)" d="M1139.47 847.244 L1139.47 1486.45 L1260.94 1486.45 L1260.94 847.244 L1139.47 847.244 L1139.47 847.244  Z" fill="#009af9" fill-rule="evenodd" fill-opacity="1"/>
<polyline clip-path="url(#clip293)" style="stroke:#000000; stroke-linecap:round; stroke-linejoin:round; stroke-width:4; stroke-opacity:1; fill:none" points="1139.47,847.244 1139.47,1486.45 1260.94,1486.45 1260.94,847.244 1139.47,847.244 "/>
<path clip-path="url(#clip293)" d="M1260.94 896.706 L1260.94 1486.45 L1382.4 1486.45 L1382.4 896.706 L1260.94 896.706 L1260.94 896.706  Z" fill="#009af9" fill-rule="evenodd" fill-opacity="1"/>
<polyline clip-path="url(#clip293)" style="stroke:#000000; stroke-linecap:round; stroke-linejoin:round; stroke-width:4; stroke-opacity:1; fill:none" points="1260.94,896.706 1260.94,1486.45 1382.4,1486.45 1382.4,896.706 1260.94,896.706 "/>
<path clip-path="url(#clip293)" d="M1382.4 953.778 L1382.4 1486.45 L1503.87 1486.45 L1503.87 953.778 L1382.4 953.778 L1382.4 953.778  Z" fill="#009af9" fill-rule="evenodd" fill-opacity="1"/>
<polyline clip-path="url(#clip293)" style="stroke:#000000; stroke-linecap:round; stroke-linejoin:round; stroke-width:4; stroke-opacity:1; fill:none" points="1382.4,953.778 1382.4,1486.45 1503.87,1486.45 1503.87,953.778 1382.4,953.778 "/>
<path clip-path="url(#clip293)" d="M1503.87 1098.36 L1503.87 1486.45 L1625.33 1486.45 L1625.33 1098.36 L1503.87 1098.36 L1503.87 1098.36  Z" fill="#009af9" fill-rule="evenodd" fill-opacity="1"/>
<polyline clip-path="url(#clip293)" style="stroke:#000000; stroke-linecap:round; stroke-linejoin:round; stroke-width:4; stroke-opacity:1; fill:none" points="1503.87,1098.36 1503.87,1486.45 1625.33,1486.45 1625.33,1098.36 1503.87,1098.36 "/>
<path clip-path="url(#clip293)" d="M1625.33 1265.77 L1625.33 1486.45 L1746.8 1486.45 L1746.8 1265.77 L1625.33 1265.77 L1625.33 1265.77  Z" fill="#009af9" fill-rule="evenodd" fill-opacity="1"/>
<polyline clip-path="url(#clip293)" style="stroke:#000000; stroke-linecap:round; stroke-linejoin:round; stroke-width:4; stroke-opacity:1; fill:none" points="1625.33,1265.77 1625.33,1486.45 1746.8,1486.45 1746.8,1265.77 1625.33,1265.77 "/>
<path clip-path="url(#clip293)" d="M1746.8 1357.09 L1746.8 1486.45 L1868.26 1486.45 L1868.26 1357.09 L1746.8 1357.09 L1746.8 1357.09  Z" fill="#009af9" fill-rule="evenodd" fill-opacity="1"/>
<polyline clip-path="url(#clip293)" style="stroke:#000000; stroke-linecap:round; stroke-linejoin:round; stroke-width:4; stroke-opacity:1; fill:none" points="1746.8,1357.09 1746.8,1486.45 1868.26,1486.45 1868.26,1357.09 1746.8,1357.09 "/>
<path clip-path="url(#clip293)" d="M1868.26 1448.4 L1868.26 1486.45 L1989.72 1486.45 L1989.72 1448.4 L1868.26 1448.4 L1868.26 1448.4  Z" fill="#009af9" fill-rule="evenodd" fill-opacity="1"/>
<polyline clip-path="url(#clip293)" style="stroke:#000000; stroke-linecap:round; stroke-linejoin:round; stroke-width:4; stroke-opacity:1; fill:none" points="1868.26,1448.4 1868.26,1486.45 1989.72,1486.45 1989.72,1448.4 1868.26,1448.4 "/>
<path clip-path="url(#clip293)" d="M1989.72 1475.03 L1989.72 1486.45 L2111.19 1486.45 L2111.19 1475.03 L1989.72 1475.03 L1989.72 1475.03  Z" fill="#009af9" fill-rule="evenodd" fill-opacity="1"/>
<polyline clip-path="url(#clip293)" style="stroke:#000000; stroke-linecap:round; stroke-linejoin:round; stroke-width:4; stroke-opacity:1; fill:none" points="1989.72,1475.03 1989.72,1486.45 2111.19,1486.45 2111.19,1475.03 1989.72,1475.03 "/>
<path clip-path="url(#clip293)" d="M2111.19 1482.64 L2111.19 1486.45 L2232.65 1486.45 L2232.65 1482.64 L2111.19 1482.64 L2111.19 1482.64  Z" fill="#009af9" fill-rule="evenodd" fill-opacity="1"/>
<polyline clip-path="url(#clip293)" style="stroke:#000000; stroke-linecap:round; stroke-linejoin:round; stroke-width:4; stroke-opacity:1; fill:none" points="2111.19,1482.64 2111.19,1486.45 2232.65,1486.45 2232.65,1482.64 2111.19,1482.64 "/>
<circle clip-path="url(#clip293)" style="fill:#009af9; stroke:none; fill-opacity:0" cx="349.957" cy="1478.84" r="2"/>
<circle clip-path="url(#clip293)" style="fill:#009af9; stroke:none; fill-opacity:0" cx="471.421" cy="1463.62" r="2"/>
<circle clip-path="url(#clip293)" style="fill:#009af9; stroke:none; fill-opacity:0" cx="592.886" cy="1452.2" r="2"/>
<circle clip-path="url(#clip293)" style="fill:#009af9; stroke:none; fill-opacity:0" cx="714.35" cy="1379.91" r="2"/>
<circle clip-path="url(#clip293)" style="fill:#009af9; stroke:none; fill-opacity:0" cx="835.814" cy="1296.21" r="2"/>
<circle clip-path="url(#clip293)" style="fill:#009af9; stroke:none; fill-opacity:0" cx="957.278" cy="1048.9" r="2"/>
<circle clip-path="url(#clip293)" style="fill:#009af9; stroke:none; fill-opacity:0" cx="1078.74" cy="1033.68" r="2"/>
<circle clip-path="url(#clip293)" style="fill:#009af9; stroke:none; fill-opacity:0" cx="1200.21" cy="847.244" r="2"/>
<circle clip-path="url(#clip293)" style="fill:#009af9; stroke:none; fill-opacity:0" cx="1321.67" cy="896.706" r="2"/>
<circle clip-path="url(#clip293)" style="fill:#009af9; stroke:none; fill-opacity:0" cx="1443.13" cy="953.778" r="2"/>
<circle clip-path="url(#clip293)" style="fill:#009af9; stroke:none; fill-opacity:0" cx="1564.6" cy="1098.36" r="2"/>
<circle clip-path="url(#clip293)" style="fill:#009af9; stroke:none; fill-opacity:0" cx="1686.06" cy="1265.77" r="2"/>
<circle clip-path="url(#clip293)" style="fill:#009af9; stroke:none; fill-opacity:0" cx="1807.53" cy="1357.09" r="2"/>
<circle clip-path="url(#clip293)" style="fill:#009af9; stroke:none; fill-opacity:0" cx="1928.99" cy="1448.4" r="2"/>
<circle clip-path="url(#clip293)" style="fill:#009af9; stroke:none; fill-opacity:0" cx="2050.46" cy="1475.03" r="2"/>
<circle clip-path="url(#clip293)" style="fill:#009af9; stroke:none; fill-opacity:0" cx="2171.92" cy="1482.64" r="2"/>
<path clip-path="url(#clip290)" d="M2037.09 972.231 L2279.97 972.231 L2279.97 868.551 L2037.09 868.551  Z" fill="#ffffff" fill-rule="evenodd" fill-opacity="1"/>
<polyline clip-path="url(#clip290)" style="stroke:#000000; stroke-linecap:round; stroke-linejoin:round; stroke-width:4; stroke-opacity:1; fill:none" points="2037.09,972.231 2279.97,972.231 2279.97,868.551 2037.09,868.551 2037.09,972.231 "/>
<path clip-path="url(#clip290)" d="M2061.35 941.127 L2206.93 941.127 L2206.93 899.655 L2061.35 899.655 L2061.35 941.127  Z" fill="#009af9" fill-rule="evenodd" fill-opacity="1"/>
<polyline clip-path="url(#clip290)" style="stroke:#000000; stroke-linecap:round; stroke-linejoin:round; stroke-width:4; stroke-opacity:1; fill:none" points="2061.35,941.127 2206.93,941.127 2206.93,899.655 2061.35,899.655 2061.35,941.127 "/>
<path clip-path="url(#clip290)" d="M2235.87 921.166 L2235.87 933.828 L2243.37 933.828 Q2247.14 933.828 2248.95 932.277 Q2250.77 930.703 2250.77 927.486 Q2250.77 924.245 2248.95 922.717 Q2247.14 921.166 2243.37 921.166 L2235.87 921.166 M2235.87 906.953 L2235.87 917.37 L2242.79 917.37 Q2246.21 917.37 2247.88 916.097 Q2249.57 914.801 2249.57 912.162 Q2249.57 909.546 2247.88 908.25 Q2246.21 906.953 2242.79 906.953 L2235.87 906.953 M2231.19 903.111 L2243.14 903.111 Q2248.48 903.111 2251.38 905.333 Q2254.27 907.555 2254.27 911.653 Q2254.27 914.824 2252.79 916.699 Q2251.31 918.574 2248.44 919.037 Q2251.89 919.777 2253.78 922.139 Q2255.71 924.477 2255.71 927.995 Q2255.71 932.625 2252.56 935.148 Q2249.41 937.671 2243.6 937.671 L2231.19 937.671 L2231.19 903.111 Z" fill="#000000" fill-rule="nonzero" fill-opacity="1" /></svg>
