<?xml version="1.0" encoding="utf-8"?>
<svg xmlns="http://www.w3.org/2000/svg" xmlns:xlink="http://www.w3.org/1999/xlink" width="600" height="400" viewBox="0 0 2400 1600">
<defs>
  <clipPath id="clip590">
    <rect x="0" y="0" width="2400" height="1600"/>
  </clipPath>
</defs>
<path clip-path="url(#clip590)" d="
M0 1600 L2400 1600 L2400 0 L0 0  Z
  " fill="#ffffff" fill-rule="evenodd" fill-opacity="1"/>
<defs>
  <clipPath id="clip591">
    <rect x="480" y="0" width="1681" height="1600"/>
  </clipPath>
</defs>
<path clip-path="url(#clip590)" d="
M169.121 1486.45 L2352.76 1486.45 L2352.76 47.2441 L169.121 47.2441  Z
  " fill="#ffffff" fill-rule="evenodd" fill-opacity="1"/>
<defs>
  <clipPath id="clip592">
    <rect x="169" y="47" width="2185" height="1440"/>
  </clipPath>
</defs>
<polyline clip-path="url(#clip592)" style="stroke:#000000; stroke-linecap:round; stroke-linejoin:round; stroke-width:2; stroke-opacity:0.1; fill:none" points="
  474.313,1486.45 474.313,47.2441 
  "/>
<polyline clip-path="url(#clip592)" style="stroke:#000000; stroke-linecap:round; stroke-linejoin:round; stroke-width:2; stroke-opacity:0.1; fill:none" points="
  937.034,1486.45 937.034,47.2441 
  "/>
<polyline clip-path="url(#clip592)" style="stroke:#000000; stroke-linecap:round; stroke-linejoin:round; stroke-width:2; stroke-opacity:0.1; fill:none" points="
  1399.75,1486.45 1399.75,47.2441 
  "/>
<polyline clip-path="url(#clip592)" style="stroke:#000000; stroke-linecap:round; stroke-linejoin:round; stroke-width:2; stroke-opacity:0.1; fill:none" points="
  1862.48,1486.45 1862.48,47.2441 
  "/>
<polyline clip-path="url(#clip592)" style="stroke:#000000; stroke-linecap:round; stroke-linejoin:round; stroke-width:2; stroke-opacity:0.1; fill:none" points="
  2325.2,1486.45 2325.2,47.2441 
  "/>
<polyline clip-path="url(#clip590)" style="stroke:#000000; stroke-linecap:round; stroke-linejoin:round; stroke-width:4; stroke-opacity:1; fill:none" points="
  169.121,1486.45 2352.76,1486.45 
  "/>
<polyline clip-path="url(#clip590)" style="stroke:#000000; stroke-linecap:round; stroke-linejoin:round; stroke-width:4; stroke-opacity:1; fill:none" points="
  474.313,1486.45 474.313,1467.55 
  "/>
<polyline clip-path="url(#clip590)" style="stroke:#000000; stroke-linecap:round; stroke-linejoin:round; stroke-width:4; stroke-opacity:1; fill:none" points="
  937.034,1486.45 937.034,1467.55 
  "/>
<polyline clip-path="url(#clip590)" style="stroke:#000000; stroke-linecap:round; stroke-linejoin:round; stroke-width:4; stroke-opacity:1; fill:none" points="
  1399.75,1486.45 1399.75,1467.55 
  "/>
<polyline clip-path="url(#clip590)" style="stroke:#000000; stroke-linecap:round; stroke-linejoin:round; stroke-width:4; stroke-opacity:1; fill:none" points="
  1862.48,1486.45 1862.48,1467.55 
  "/>
<polyline clip-path="url(#clip590)" style="stroke:#000000; stroke-linecap:round; stroke-linejoin:round; stroke-width:4; stroke-opacity:1; fill:none" points="
  2325.2,1486.45 2325.2,1467.55 
  "/>
<path clip-path="url(#clip590)" d="M437.115 1517.37 Q433.503 1517.37 431.675 1520.93 Q429.869 1524.47 429.869 1531.6 Q429.869 1538.71 431.675 1542.27 Q433.503 1545.82 437.115 1545.82 Q440.749 1545.82 442.554 1542.27 Q444.383 1538.71 444.383 1531.6 Q444.383 1524.47 442.554 1520.93 Q440.749 1517.37 437.115 1517.37 M437.115 1513.66 Q442.925 1513.66 445.98 1518.27 Q449.059 1522.85 449.059 1531.6 Q449.059 1540.33 445.98 1544.94 Q442.925 1549.52 437.115 1549.52 Q431.304 1549.52 428.226 1544.94 Q425.17 1540.33 425.17 1531.6 Q425.17 1522.85 428.226 1518.27 Q431.304 1513.66 437.115 1513.66 Z" fill="#000000" fill-rule="evenodd" fill-opacity="1" /><path clip-path="url(#clip590)" d="M457.276 1542.97 L462.161 1542.97 L462.161 1548.85 L457.276 1548.85 L457.276 1542.97 Z" fill="#000000" fill-rule="evenodd" fill-opacity="1" /><path clip-path="url(#clip590)" d="M471.165 1514.29 L493.387 1514.29 L493.387 1516.28 L480.841 1548.85 L475.957 1548.85 L487.762 1518.22 L471.165 1518.22 L471.165 1514.29 Z" fill="#000000" fill-rule="evenodd" fill-opacity="1" /><path clip-path="url(#clip590)" d="M502.554 1514.29 L520.91 1514.29 L520.91 1518.22 L506.836 1518.22 L506.836 1526.7 Q507.855 1526.35 508.873 1526.19 Q509.892 1526 510.91 1526 Q516.697 1526 520.077 1529.17 Q523.457 1532.34 523.457 1537.76 Q523.457 1543.34 519.984 1546.44 Q516.512 1549.52 510.193 1549.52 Q508.017 1549.52 505.748 1549.15 Q503.503 1548.78 501.096 1548.04 L501.096 1543.34 Q503.179 1544.47 505.401 1545.03 Q507.623 1545.58 510.1 1545.58 Q514.105 1545.58 516.443 1543.48 Q518.781 1541.37 518.781 1537.76 Q518.781 1534.15 516.443 1532.04 Q514.105 1529.94 510.1 1529.94 Q508.225 1529.94 506.35 1530.35 Q504.498 1530.77 502.554 1531.65 L502.554 1514.29 Z" fill="#000000" fill-rule="evenodd" fill-opacity="1" /><path clip-path="url(#clip590)" d="M899.338 1517.37 Q895.726 1517.37 893.898 1520.93 Q892.092 1524.47 892.092 1531.6 Q892.092 1538.71 893.898 1542.27 Q895.726 1545.82 899.338 1545.82 Q902.972 1545.82 904.777 1542.27 Q906.606 1538.71 906.606 1531.6 Q906.606 1524.47 904.777 1520.93 Q902.972 1517.37 899.338 1517.37 M899.338 1513.66 Q905.148 1513.66 908.203 1518.27 Q911.282 1522.85 911.282 1531.6 Q911.282 1540.33 908.203 1544.94 Q905.148 1549.52 899.338 1549.52 Q893.527 1549.52 890.449 1544.94 Q887.393 1540.33 887.393 1531.6 Q887.393 1522.85 890.449 1518.27 Q893.527 1513.66 899.338 1513.66 Z" fill="#000000" fill-rule="evenodd" fill-opacity="1" /><path clip-path="url(#clip590)" d="M919.499 1542.97 L924.384 1542.97 L924.384 1548.85 L919.499 1548.85 L919.499 1542.97 Z" fill="#000000" fill-rule="evenodd" fill-opacity="1" /><path clip-path="url(#clip590)" d="M944.569 1532.44 Q941.235 1532.44 939.314 1534.22 Q937.416 1536 937.416 1539.13 Q937.416 1542.25 939.314 1544.03 Q941.235 1545.82 944.569 1545.82 Q947.902 1545.82 949.823 1544.03 Q951.745 1542.23 951.745 1539.13 Q951.745 1536 949.823 1534.22 Q947.925 1532.44 944.569 1532.44 M939.893 1530.45 Q936.884 1529.7 935.194 1527.64 Q933.527 1525.58 933.527 1522.62 Q933.527 1518.48 936.467 1516.07 Q939.43 1513.66 944.569 1513.66 Q949.731 1513.66 952.671 1516.07 Q955.61 1518.48 955.61 1522.62 Q955.61 1525.58 953.921 1527.64 Q952.254 1529.7 949.268 1530.45 Q952.647 1531.23 954.522 1533.52 Q956.421 1535.82 956.421 1539.13 Q956.421 1544.15 953.342 1546.83 Q950.286 1549.52 944.569 1549.52 Q938.851 1549.52 935.773 1546.83 Q932.717 1544.15 932.717 1539.13 Q932.717 1535.82 934.615 1533.52 Q936.513 1531.23 939.893 1530.45 M938.18 1523.06 Q938.18 1525.75 939.847 1527.25 Q941.536 1528.76 944.569 1528.76 Q947.578 1528.76 949.268 1527.25 Q950.981 1525.75 950.981 1523.06 Q950.981 1520.38 949.268 1518.87 Q947.578 1517.37 944.569 1517.37 Q941.536 1517.37 939.847 1518.87 Q938.18 1520.38 938.18 1523.06 Z" fill="#000000" fill-rule="evenodd" fill-opacity="1" /><path clip-path="url(#clip590)" d="M974.731 1517.37 Q971.12 1517.37 969.291 1520.93 Q967.485 1524.47 967.485 1531.6 Q967.485 1538.71 969.291 1542.27 Q971.12 1545.82 974.731 1545.82 Q978.365 1545.82 980.17 1542.27 Q981.999 1538.71 981.999 1531.6 Q981.999 1524.47 980.17 1520.93 Q978.365 1517.37 974.731 1517.37 M974.731 1513.66 Q980.541 1513.66 983.596 1518.27 Q986.675 1522.85 986.675 1531.6 Q986.675 1540.33 983.596 1544.94 Q980.541 1549.52 974.731 1549.52 Q968.921 1549.52 965.842 1544.94 Q962.786 1540.33 962.786 1531.6 Q962.786 1522.85 965.842 1518.27 Q968.921 1513.66 974.731 1513.66 Z" fill="#000000" fill-rule="evenodd" fill-opacity="1" /><path clip-path="url(#clip590)" d="M1362.56 1517.37 Q1358.94 1517.37 1357.12 1520.93 Q1355.31 1524.47 1355.31 1531.6 Q1355.31 1538.71 1357.12 1542.27 Q1358.94 1545.82 1362.56 1545.82 Q1366.19 1545.82 1368 1542.27 Q1369.82 1538.71 1369.82 1531.6 Q1369.82 1524.47 1368 1520.93 Q1366.19 1517.37 1362.56 1517.37 M1362.56 1513.66 Q1368.37 1513.66 1371.42 1518.27 Q1374.5 1522.85 1374.5 1531.6 Q1374.5 1540.33 1371.42 1544.94 Q1368.37 1549.52 1362.56 1549.52 Q1356.75 1549.52 1353.67 1544.94 Q1350.61 1540.33 1350.61 1531.6 Q1350.61 1522.85 1353.67 1518.27 Q1356.75 1513.66 1362.56 1513.66 Z" fill="#000000" fill-rule="evenodd" fill-opacity="1" /><path clip-path="url(#clip590)" d="M1382.72 1542.97 L1387.6 1542.97 L1387.6 1548.85 L1382.72 1548.85 L1382.72 1542.97 Z" fill="#000000" fill-rule="evenodd" fill-opacity="1" /><path clip-path="url(#clip590)" d="M1407.79 1532.44 Q1404.45 1532.44 1402.53 1534.22 Q1400.63 1536 1400.63 1539.13 Q1400.63 1542.25 1402.53 1544.03 Q1404.45 1545.82 1407.79 1545.82 Q1411.12 1545.82 1413.04 1544.03 Q1414.96 1542.23 1414.96 1539.13 Q1414.96 1536 1413.04 1534.22 Q1411.14 1532.44 1407.79 1532.44 M1403.11 1530.45 Q1400.1 1529.7 1398.41 1527.64 Q1396.75 1525.58 1396.75 1522.62 Q1396.75 1518.48 1399.69 1516.07 Q1402.65 1513.66 1407.79 1513.66 Q1412.95 1513.66 1415.89 1516.07 Q1418.83 1518.48 1418.83 1522.62 Q1418.83 1525.58 1417.14 1527.64 Q1415.47 1529.7 1412.49 1530.45 Q1415.87 1531.23 1417.74 1533.52 Q1419.64 1535.82 1419.64 1539.13 Q1419.64 1544.15 1416.56 1546.83 Q1413.5 1549.52 1407.79 1549.52 Q1402.07 1549.52 1398.99 1546.83 Q1395.94 1544.15 1395.94 1539.13 Q1395.94 1535.82 1397.83 1533.52 Q1399.73 1531.23 1403.11 1530.45 M1401.4 1523.06 Q1401.4 1525.75 1403.06 1527.25 Q1404.75 1528.76 1407.79 1528.76 Q1410.8 1528.76 1412.49 1527.25 Q1414.2 1525.75 1414.2 1523.06 Q1414.2 1520.38 1412.49 1518.87 Q1410.8 1517.37 1407.79 1517.37 Q1404.75 1517.37 1403.06 1518.87 Q1401.4 1520.38 1401.4 1523.06 Z" fill="#000000" fill-rule="evenodd" fill-opacity="1" /><path clip-path="url(#clip590)" d="M1428 1514.29 L1446.35 1514.29 L1446.35 1518.22 L1432.28 1518.22 L1432.28 1526.7 Q1433.3 1526.35 1434.31 1526.19 Q1435.33 1526 1436.35 1526 Q1442.14 1526 1445.52 1529.17 Q1448.9 1532.34 1448.9 1537.76 Q1448.9 1543.34 1445.43 1546.44 Q1441.95 1549.52 1435.63 1549.52 Q1433.46 1549.52 1431.19 1549.15 Q1428.94 1548.78 1426.54 1548.04 L1426.54 1543.34 Q1428.62 1544.47 1430.84 1545.03 Q1433.06 1545.58 1435.54 1545.58 Q1439.55 1545.58 1441.88 1543.48 Q1444.22 1541.37 1444.22 1537.76 Q1444.22 1534.15 1441.88 1532.04 Q1439.55 1529.94 1435.54 1529.94 Q1433.67 1529.94 1431.79 1530.35 Q1429.94 1530.77 1428 1531.65 L1428 1514.29 Z" fill="#000000" fill-rule="evenodd" fill-opacity="1" /><path clip-path="url(#clip590)" d="M1824.78 1517.37 Q1821.17 1517.37 1819.34 1520.93 Q1817.53 1524.47 1817.53 1531.6 Q1817.53 1538.71 1819.34 1542.27 Q1821.17 1545.82 1824.78 1545.82 Q1828.41 1545.82 1830.22 1542.27 Q1832.05 1538.71 1832.05 1531.6 Q1832.05 1524.47 1830.22 1520.93 Q1828.41 1517.37 1824.78 1517.37 M1824.78 1513.66 Q1830.59 1513.66 1833.64 1518.27 Q1836.72 1522.85 1836.72 1531.6 Q1836.72 1540.33 1833.64 1544.94 Q1830.59 1549.52 1824.78 1549.52 Q1818.97 1549.52 1815.89 1544.94 Q1812.83 1540.33 1812.83 1531.6 Q1812.83 1522.85 1815.89 1518.27 Q1818.97 1513.66 1824.78 1513.66 Z" fill="#000000" fill-rule="evenodd" fill-opacity="1" /><path clip-path="url(#clip590)" d="M1844.94 1542.97 L1849.83 1542.97 L1849.83 1548.85 L1844.94 1548.85 L1844.94 1542.97 Z" fill="#000000" fill-rule="evenodd" fill-opacity="1" /><path clip-path="url(#clip590)" d="M1860.15 1548.13 L1860.15 1543.87 Q1861.91 1544.7 1863.71 1545.14 Q1865.52 1545.58 1867.26 1545.58 Q1871.89 1545.58 1874.32 1542.48 Q1876.77 1539.36 1877.12 1533.01 Q1875.77 1535.01 1873.71 1536.07 Q1871.65 1537.13 1869.15 1537.13 Q1863.97 1537.13 1860.94 1534.01 Q1857.93 1530.86 1857.93 1525.42 Q1857.93 1520.1 1861.08 1516.88 Q1864.22 1513.66 1869.45 1513.66 Q1875.45 1513.66 1878.6 1518.27 Q1881.77 1522.85 1881.77 1531.6 Q1881.77 1539.77 1877.88 1544.66 Q1874.01 1549.52 1867.46 1549.52 Q1865.7 1549.52 1863.9 1549.17 Q1862.09 1548.82 1860.15 1548.13 M1869.45 1533.48 Q1872.6 1533.48 1874.43 1531.32 Q1876.28 1529.17 1876.28 1525.42 Q1876.28 1521.7 1874.43 1519.54 Q1872.6 1517.37 1869.45 1517.37 Q1866.31 1517.37 1864.45 1519.54 Q1862.63 1521.7 1862.63 1525.42 Q1862.63 1529.17 1864.45 1531.32 Q1866.31 1533.48 1869.45 1533.48 Z" fill="#000000" fill-rule="evenodd" fill-opacity="1" /><path clip-path="url(#clip590)" d="M1900.17 1517.37 Q1896.56 1517.37 1894.73 1520.93 Q1892.93 1524.47 1892.93 1531.6 Q1892.93 1538.71 1894.73 1542.27 Q1896.56 1545.82 1900.17 1545.82 Q1903.81 1545.82 1905.61 1542.27 Q1907.44 1538.71 1907.44 1531.6 Q1907.44 1524.47 1905.61 1520.93 Q1903.81 1517.37 1900.17 1517.37 M1900.17 1513.66 Q1905.98 1513.66 1909.04 1518.27 Q1912.12 1522.85 1912.12 1531.6 Q1912.12 1540.33 1909.04 1544.94 Q1905.98 1549.52 1900.17 1549.52 Q1894.36 1549.52 1891.28 1544.94 Q1888.23 1540.33 1888.23 1531.6 Q1888.23 1522.85 1891.28 1518.27 Q1894.36 1513.66 1900.17 1513.66 Z" fill="#000000" fill-rule="evenodd" fill-opacity="1" /><path clip-path="url(#clip590)" d="M2288 1517.37 Q2284.39 1517.37 2282.56 1520.93 Q2280.75 1524.47 2280.75 1531.6 Q2280.75 1538.71 2282.56 1542.27 Q2284.39 1545.82 2288 1545.82 Q2291.63 1545.82 2293.44 1542.27 Q2295.27 1538.71 2295.27 1531.6 Q2295.27 1524.47 2293.44 1520.93 Q2291.63 1517.37 2288 1517.37 M2288 1513.66 Q2293.81 1513.66 2296.86 1518.27 Q2299.94 1522.85 2299.94 1531.6 Q2299.94 1540.33 2296.86 1544.94 Q2293.81 1549.52 2288 1549.52 Q2282.19 1549.52 2279.11 1544.94 Q2276.05 1540.33 2276.05 1531.6 Q2276.05 1522.85 2279.11 1518.27 Q2282.19 1513.66 2288 1513.66 Z" fill="#000000" fill-rule="evenodd" fill-opacity="1" /><path clip-path="url(#clip590)" d="M2308.16 1542.97 L2313.04 1542.97 L2313.04 1548.85 L2308.16 1548.85 L2308.16 1542.97 Z" fill="#000000" fill-rule="evenodd" fill-opacity="1" /><path clip-path="url(#clip590)" d="M2323.37 1548.13 L2323.37 1543.87 Q2325.13 1544.7 2326.93 1545.14 Q2328.74 1545.58 2330.47 1545.58 Q2335.1 1545.58 2337.53 1542.48 Q2339.99 1539.36 2340.34 1533.01 Q2338.99 1535.01 2336.93 1536.07 Q2334.87 1537.13 2332.37 1537.13 Q2327.19 1537.13 2324.15 1534.01 Q2321.15 1530.86 2321.15 1525.42 Q2321.15 1520.1 2324.29 1516.88 Q2327.44 1513.66 2332.67 1513.66 Q2338.67 1513.66 2341.82 1518.27 Q2344.99 1522.85 2344.99 1531.6 Q2344.99 1539.77 2341.1 1544.66 Q2337.23 1549.52 2330.68 1549.52 Q2328.92 1549.52 2327.12 1549.17 Q2325.31 1548.82 2323.37 1548.13 M2332.67 1533.48 Q2335.82 1533.48 2337.65 1531.32 Q2339.5 1529.17 2339.5 1525.42 Q2339.5 1521.7 2337.65 1519.54 Q2335.82 1517.37 2332.67 1517.37 Q2329.52 1517.37 2327.67 1519.54 Q2325.84 1521.7 2325.84 1525.42 Q2325.84 1529.17 2327.67 1531.32 Q2329.52 1533.48 2332.67 1533.48 Z" fill="#000000" fill-rule="evenodd" fill-opacity="1" /><path clip-path="url(#clip590)" d="M2353.44 1514.29 L2371.79 1514.29 L2371.79 1518.22 L2357.72 1518.22 L2357.72 1526.7 Q2358.74 1526.35 2359.76 1526.19 Q2360.77 1526 2361.79 1526 Q2367.58 1526 2370.96 1529.17 Q2374.34 1532.34 2374.34 1537.76 Q2374.34 1543.34 2370.87 1546.44 Q2367.4 1549.52 2361.08 1549.52 Q2358.9 1549.52 2356.63 1549.15 Q2354.39 1548.78 2351.98 1548.04 L2351.98 1543.34 Q2354.06 1544.47 2356.28 1545.03 Q2358.51 1545.58 2360.98 1545.58 Q2364.99 1545.58 2367.33 1543.48 Q2369.66 1541.37 2369.66 1537.76 Q2369.66 1534.15 2367.33 1532.04 Q2364.99 1529.94 2360.98 1529.94 Q2359.11 1529.94 2357.23 1530.35 Q2355.38 1530.77 2353.44 1531.65 L2353.44 1514.29 Z" fill="#000000" fill-rule="evenodd" fill-opacity="1" /><polyline clip-path="url(#clip592)" style="stroke:#000000; stroke-linecap:round; stroke-linejoin:round; stroke-width:2; stroke-opacity:0.1; fill:none" points="
  169.121,1445.72 2352.76,1445.72 
  "/>
<polyline clip-path="url(#clip592)" style="stroke:#000000; stroke-linecap:round; stroke-linejoin:round; stroke-width:2; stroke-opacity:0.1; fill:none" points="
  169.121,1228.48 2352.76,1228.48 
  "/>
<polyline clip-path="url(#clip592)" style="stroke:#000000; stroke-linecap:round; stroke-linejoin:round; stroke-width:2; stroke-opacity:0.1; fill:none" points="
  169.121,1011.24 2352.76,1011.24 
  "/>
<polyline clip-path="url(#clip592)" style="stroke:#000000; stroke-linecap:round; stroke-linejoin:round; stroke-width:2; stroke-opacity:0.1; fill:none" points="
  169.121,794.001 2352.76,794.001 
  "/>
<polyline clip-path="url(#clip592)" style="stroke:#000000; stroke-linecap:round; stroke-linejoin:round; stroke-width:2; stroke-opacity:0.1; fill:none" points="
  169.121,576.762 2352.76,576.762 
  "/>
<polyline clip-path="url(#clip592)" style="stroke:#000000; stroke-linecap:round; stroke-linejoin:round; stroke-width:2; stroke-opacity:0.1; fill:none" points="
  169.121,359.524 2352.76,359.524 
  "/>
<polyline clip-path="url(#clip592)" style="stroke:#000000; stroke-linecap:round; stroke-linejoin:round; stroke-width:2; stroke-opacity:0.1; fill:none" points="
  169.121,142.286 2352.76,142.286 
  "/>
<polyline clip-path="url(#clip590)" style="stroke:#000000; stroke-linecap:round; stroke-linejoin:round; stroke-width:4; stroke-opacity:1; fill:none" points="
  169.121,1486.45 169.121,47.2441 
  "/>
<polyline clip-path="url(#clip590)" style="stroke:#000000; stroke-linecap:round; stroke-linejoin:round; stroke-width:4; stroke-opacity:1; fill:none" points="
  169.121,1445.72 188.019,1445.72 
  "/>
<polyline clip-path="url(#clip590)" style="stroke:#000000; stroke-linecap:round; stroke-linejoin:round; stroke-width:4; stroke-opacity:1; fill:none" points="
  169.121,1228.48 188.019,1228.48 
  "/>
<polyline clip-path="url(#clip590)" style="stroke:#000000; stroke-linecap:round; stroke-linejoin:round; stroke-width:4; stroke-opacity:1; fill:none" points="
  169.121,1011.24 188.019,1011.24 
  "/>
<polyline clip-path="url(#clip590)" style="stroke:#000000; stroke-linecap:round; stroke-linejoin:round; stroke-width:4; stroke-opacity:1; fill:none" points="
  169.121,794.001 188.019,794.001 
  "/>
<polyline clip-path="url(#clip590)" style="stroke:#000000; stroke-linecap:round; stroke-linejoin:round; stroke-width:4; stroke-opacity:1; fill:none" points="
  169.121,576.762 188.019,576.762 
  "/>
<polyline clip-path="url(#clip590)" style="stroke:#000000; stroke-linecap:round; stroke-linejoin:round; stroke-width:4; stroke-opacity:1; fill:none" points="
  169.121,359.524 188.019,359.524 
  "/>
<polyline clip-path="url(#clip590)" style="stroke:#000000; stroke-linecap:round; stroke-linejoin:round; stroke-width:4; stroke-opacity:1; fill:none" points="
  169.121,142.286 188.019,142.286 
  "/>
<path clip-path="url(#clip590)" d="M121.177 1431.51 Q117.566 1431.51 115.737 1435.08 Q113.932 1438.62 113.932 1445.75 Q113.932 1452.86 115.737 1456.42 Q117.566 1459.96 121.177 1459.96 Q124.811 1459.96 126.617 1456.42 Q128.445 1452.86 128.445 1445.75 Q128.445 1438.62 126.617 1435.08 Q124.811 1431.51 121.177 1431.51 M121.177 1427.81 Q126.987 1427.81 130.043 1432.42 Q133.121 1437 133.121 1445.75 Q133.121 1454.48 130.043 1459.08 Q126.987 1463.67 121.177 1463.67 Q115.367 1463.67 112.288 1459.08 Q109.233 1454.48 109.233 1445.75 Q109.233 1437 112.288 1432.42 Q115.367 1427.81 121.177 1427.81 Z" fill="#000000" fill-rule="evenodd" fill-opacity="1" /><path clip-path="url(#clip590)" d="M85.0429 1241.82 L101.362 1241.82 L101.362 1245.76 L79.4179 1245.76 L79.4179 1241.82 Q82.0799 1239.07 86.6632 1234.44 Q91.2697 1229.79 92.4502 1228.44 Q94.6956 1225.92 95.5752 1224.18 Q96.478 1222.42 96.478 1220.73 Q96.478 1217.98 94.5336 1216.24 Q92.6123 1214.51 89.5104 1214.51 Q87.3114 1214.51 84.8577 1215.27 Q82.4271 1216.04 79.6494 1217.59 L79.6494 1212.86 Q82.4734 1211.73 84.9271 1211.15 Q87.3808 1210.57 89.4178 1210.57 Q94.7882 1210.57 97.9826 1213.26 Q101.177 1215.94 101.177 1220.43 Q101.177 1222.56 100.367 1224.48 Q99.5798 1226.38 97.4734 1228.98 Q96.8947 1229.65 93.7928 1232.86 Q90.691 1236.06 85.0429 1241.82 Z" fill="#000000" fill-rule="evenodd" fill-opacity="1" /><path clip-path="url(#clip590)" d="M121.177 1214.28 Q117.566 1214.28 115.737 1217.84 Q113.932 1221.38 113.932 1228.51 Q113.932 1235.62 115.737 1239.18 Q117.566 1242.72 121.177 1242.72 Q124.811 1242.72 126.617 1239.18 Q128.445 1235.62 128.445 1228.51 Q128.445 1221.38 126.617 1217.84 Q124.811 1214.28 121.177 1214.28 M121.177 1210.57 Q126.987 1210.57 130.043 1215.18 Q133.121 1219.76 133.121 1228.51 Q133.121 1237.24 130.043 1241.85 Q126.987 1246.43 121.177 1246.43 Q115.367 1246.43 112.288 1241.85 Q109.233 1237.24 109.233 1228.51 Q109.233 1219.76 112.288 1215.18 Q115.367 1210.57 121.177 1210.57 Z" fill="#000000" fill-rule="evenodd" fill-opacity="1" /><path clip-path="url(#clip590)" d="M93.8623 998.033 L82.0568 1016.48 L93.8623 1016.48 L93.8623 998.033 M92.6354 993.959 L98.515 993.959 L98.515 1016.48 L103.446 1016.48 L103.446 1020.37 L98.515 1020.37 L98.515 1028.52 L93.8623 1028.52 L93.8623 1020.37 L78.2605 1020.37 L78.2605 1015.86 L92.6354 993.959 Z" fill="#000000" fill-rule="evenodd" fill-opacity="1" /><path clip-path="url(#clip590)" d="M121.177 997.038 Q117.566 997.038 115.737 1000.6 Q113.932 1004.14 113.932 1011.27 Q113.932 1018.38 115.737 1021.95 Q117.566 1025.49 121.177 1025.49 Q124.811 1025.49 126.617 1021.95 Q128.445 1018.38 128.445 1011.27 Q128.445 1004.14 126.617 1000.6 Q124.811 997.038 121.177 997.038 M121.177 993.334 Q126.987 993.334 130.043 997.941 Q133.121 1002.52 133.121 1011.27 Q133.121 1020 130.043 1024.61 Q126.987 1029.19 121.177 1029.19 Q115.367 1029.19 112.288 1024.61 Q109.233 1020 109.233 1011.27 Q109.233 1002.52 112.288 997.941 Q115.367 993.334 121.177 993.334 Z" fill="#000000" fill-rule="evenodd" fill-opacity="1" /><path clip-path="url(#clip590)" d="M91.5938 792.137 Q88.4456 792.137 86.5938 794.29 Q84.7651 796.443 84.7651 800.193 Q84.7651 803.92 86.5938 806.096 Q88.4456 808.248 91.5938 808.248 Q94.7419 808.248 96.5706 806.096 Q98.4224 803.92 98.4224 800.193 Q98.4224 796.443 96.5706 794.29 Q94.7419 792.137 91.5938 792.137 M100.876 777.485 L100.876 781.744 Q99.1169 780.911 97.3113 780.471 Q95.5289 780.031 93.7697 780.031 Q89.1401 780.031 86.6864 783.156 Q84.2558 786.281 83.9086 792.6 Q85.2743 790.586 87.3345 789.522 Q89.3947 788.434 91.8715 788.434 Q97.0798 788.434 100.089 791.605 Q103.121 794.753 103.121 800.193 Q103.121 805.517 99.9733 808.734 Q96.8252 811.952 91.5938 811.952 Q85.5984 811.952 82.4271 807.369 Q79.2559 802.762 79.2559 794.035 Q79.2559 785.841 83.1447 780.98 Q87.0336 776.096 93.5845 776.096 Q95.3437 776.096 97.1261 776.443 Q98.9317 776.79 100.876 777.485 Z" fill="#000000" fill-rule="evenodd" fill-opacity="1" /><path clip-path="url(#clip590)" d="M121.177 779.799 Q117.566 779.799 115.737 783.364 Q113.932 786.906 113.932 794.035 Q113.932 801.142 115.737 804.707 Q117.566 808.248 121.177 808.248 Q124.811 808.248 126.617 804.707 Q128.445 801.142 128.445 794.035 Q128.445 786.906 126.617 783.364 Q124.811 779.799 121.177 779.799 M121.177 776.096 Q126.987 776.096 130.043 780.702 Q133.121 785.286 133.121 794.035 Q133.121 802.762 130.043 807.369 Q126.987 811.952 121.177 811.952 Q115.367 811.952 112.288 807.369 Q109.233 802.762 109.233 794.035 Q109.233 785.286 112.288 780.702 Q115.367 776.096 121.177 776.096 Z" fill="#000000" fill-rule="evenodd" fill-opacity="1" /><path clip-path="url(#clip590)" d="M91.0151 577.631 Q87.6817 577.631 85.7605 579.413 Q83.8623 581.195 83.8623 584.32 Q83.8623 587.445 85.7605 589.228 Q87.6817 591.01 91.0151 591.01 Q94.3484 591.01 96.2697 589.228 Q98.1909 587.422 98.1909 584.32 Q98.1909 581.195 96.2697 579.413 Q94.3715 577.631 91.0151 577.631 M86.3392 575.64 Q83.3299 574.899 81.6401 572.839 Q79.9735 570.779 79.9735 567.816 Q79.9735 563.672 82.9133 561.265 Q85.8762 558.857 91.0151 558.857 Q96.1771 558.857 99.1169 561.265 Q102.057 563.672 102.057 567.816 Q102.057 570.779 100.367 572.839 Q98.7002 574.899 95.7141 575.64 Q99.0937 576.427 100.969 578.718 Q102.867 581.01 102.867 584.32 Q102.867 589.343 99.7882 592.029 Q96.7326 594.714 91.0151 594.714 Q85.2975 594.714 82.2188 592.029 Q79.1633 589.343 79.1633 584.32 Q79.1633 581.01 81.0614 578.718 Q82.9595 576.427 86.3392 575.64 M84.6262 568.256 Q84.6262 570.941 86.2929 572.445 Q87.9827 573.95 91.0151 573.95 Q94.0243 573.95 95.7141 572.445 Q97.4271 570.941 97.4271 568.256 Q97.4271 565.57 95.7141 564.066 Q94.0243 562.561 91.0151 562.561 Q87.9827 562.561 86.2929 564.066 Q84.6262 565.57 84.6262 568.256 Z" fill="#000000" fill-rule="evenodd" fill-opacity="1" /><path clip-path="url(#clip590)" d="M121.177 562.561 Q117.566 562.561 115.737 566.126 Q113.932 569.668 113.932 576.797 Q113.932 583.904 115.737 587.468 Q117.566 591.01 121.177 591.01 Q124.811 591.01 126.617 587.468 Q128.445 583.904 128.445 576.797 Q128.445 569.668 126.617 566.126 Q124.811 562.561 121.177 562.561 M121.177 558.857 Q126.987 558.857 130.043 563.464 Q133.121 568.047 133.121 576.797 Q133.121 585.524 130.043 590.13 Q126.987 594.714 121.177 594.714 Q115.367 594.714 112.288 590.13 Q109.233 585.524 109.233 576.797 Q109.233 568.047 112.288 563.464 Q115.367 558.857 121.177 558.857 Z" fill="#000000" fill-rule="evenodd" fill-opacity="1" /><path clip-path="url(#clip590)" d="M51.6634 372.869 L59.3023 372.869 L59.3023 346.503 L50.9921 348.17 L50.9921 343.911 L59.256 342.244 L63.9319 342.244 L63.9319 372.869 L71.5707 372.869 L71.5707 376.804 L51.6634 376.804 L51.6634 372.869 Z" fill="#000000" fill-rule="evenodd" fill-opacity="1" /><path clip-path="url(#clip590)" d="M91.0151 345.323 Q87.404 345.323 85.5753 348.888 Q83.7697 352.429 83.7697 359.559 Q83.7697 366.665 85.5753 370.23 Q87.404 373.772 91.0151 373.772 Q94.6493 373.772 96.4548 370.23 Q98.2835 366.665 98.2835 359.559 Q98.2835 352.429 96.4548 348.888 Q94.6493 345.323 91.0151 345.323 M91.0151 341.619 Q96.8252 341.619 99.8808 346.226 Q102.959 350.809 102.959 359.559 Q102.959 368.286 99.8808 372.892 Q96.8252 377.475 91.0151 377.475 Q85.2049 377.475 82.1262 372.892 Q79.0707 368.286 79.0707 359.559 Q79.0707 350.809 82.1262 346.226 Q85.2049 341.619 91.0151 341.619 Z" fill="#000000" fill-rule="evenodd" fill-opacity="1" /><path clip-path="url(#clip590)" d="M121.177 345.323 Q117.566 345.323 115.737 348.888 Q113.932 352.429 113.932 359.559 Q113.932 366.665 115.737 370.23 Q117.566 373.772 121.177 373.772 Q124.811 373.772 126.617 370.23 Q128.445 366.665 128.445 359.559 Q128.445 352.429 126.617 348.888 Q124.811 345.323 121.177 345.323 M121.177 341.619 Q126.987 341.619 130.043 346.226 Q133.121 350.809 133.121 359.559 Q133.121 368.286 130.043 372.892 Q126.987 377.475 121.177 377.475 Q115.367 377.475 112.288 372.892 Q109.233 368.286 109.233 359.559 Q109.233 350.809 112.288 346.226 Q115.367 341.619 121.177 341.619 Z" fill="#000000" fill-rule="evenodd" fill-opacity="1" /><path clip-path="url(#clip590)" d="M51.6634 155.631 L59.3023 155.631 L59.3023 129.265 L50.9921 130.932 L50.9921 126.673 L59.256 125.006 L63.9319 125.006 L63.9319 155.631 L71.5707 155.631 L71.5707 159.566 L51.6634 159.566 L51.6634 155.631 Z" fill="#000000" fill-rule="evenodd" fill-opacity="1" /><path clip-path="url(#clip590)" d="M85.0429 155.631 L101.362 155.631 L101.362 159.566 L79.4179 159.566 L79.4179 155.631 Q82.0799 152.876 86.6632 148.246 Q91.2697 143.594 92.4502 142.251 Q94.6956 139.728 95.5752 137.992 Q96.478 136.233 96.478 134.543 Q96.478 131.788 94.5336 130.052 Q92.6123 128.316 89.5104 128.316 Q87.3114 128.316 84.8577 129.08 Q82.4271 129.844 79.6494 131.395 L79.6494 126.673 Q82.4734 125.538 84.9271 124.96 Q87.3808 124.381 89.4178 124.381 Q94.7882 124.381 97.9826 127.066 Q101.177 129.751 101.177 134.242 Q101.177 136.372 100.367 138.293 Q99.5798 140.191 97.4734 142.784 Q96.8947 143.455 93.7928 146.672 Q90.691 149.867 85.0429 155.631 Z" fill="#000000" fill-rule="evenodd" fill-opacity="1" /><path clip-path="url(#clip590)" d="M121.177 128.085 Q117.566 128.085 115.737 131.649 Q113.932 135.191 113.932 142.321 Q113.932 149.427 115.737 152.992 Q117.566 156.533 121.177 156.533 Q124.811 156.533 126.617 152.992 Q128.445 149.427 128.445 142.321 Q128.445 135.191 126.617 131.649 Q124.811 128.085 121.177 128.085 M121.177 124.381 Q126.987 124.381 130.043 128.987 Q133.121 133.571 133.121 142.321 Q133.121 151.047 130.043 155.654 Q126.987 160.237 121.177 160.237 Q115.367 160.237 112.288 155.654 Q109.233 151.047 109.233 142.321 Q109.233 133.571 112.288 128.987 Q115.367 124.381 121.177 124.381 Z" fill="#000000" fill-rule="evenodd" fill-opacity="1" /><path clip-path="url(#clip592)" d="
M289.225 1413.13 L289.225 1445.72 L381.769 1445.72 L381.769 1413.13 L289.225 1413.13 L289.225 1413.13  Z
  " fill="#009af9" fill-rule="evenodd" fill-opacity="1"/>
<polyline clip-path="url(#clip592)" style="stroke:#000000; stroke-linecap:round; stroke-linejoin:round; stroke-width:4; stroke-opacity:1; fill:none" points="
  289.225,1413.13 289.225,1445.72 381.769,1445.72 381.769,1413.13 289.225,1413.13 
  "/>
<path clip-path="url(#clip592)" d="
M381.769 1337.1 L381.769 1445.72 L474.313 1445.72 L474.313 1337.1 L381.769 1337.1 L381.769 1337.1  Z
  " fill="#009af9" fill-rule="evenodd" fill-opacity="1"/>
<polyline clip-path="url(#clip592)" style="stroke:#000000; stroke-linecap:round; stroke-linejoin:round; stroke-width:4; stroke-opacity:1; fill:none" points="
  381.769,1337.1 381.769,1445.72 474.313,1445.72 474.313,1337.1 381.769,1337.1 
  "/>
<path clip-path="url(#clip592)" d="
M474.313 1326.23 L474.313 1445.72 L566.858 1445.72 L566.858 1326.23 L474.313 1326.23 L474.313 1326.23  Z
  " fill="#009af9" fill-rule="evenodd" fill-opacity="1"/>
<polyline clip-path="url(#clip592)" style="stroke:#000000; stroke-linecap:round; stroke-linejoin:round; stroke-width:4; stroke-opacity:1; fill:none" points="
  474.313,1326.23 474.313,1445.72 566.858,1445.72 566.858,1326.23 474.313,1326.23 
  "/>
<path clip-path="url(#clip592)" d="
M566.858 1228.48 L566.858 1445.72 L659.402 1445.72 L659.402 1228.48 L566.858 1228.48 L566.858 1228.48  Z
  " fill="#009af9" fill-rule="evenodd" fill-opacity="1"/>
<polyline clip-path="url(#clip592)" style="stroke:#000000; stroke-linecap:round; stroke-linejoin:round; stroke-width:4; stroke-opacity:1; fill:none" points="
  566.858,1228.48 566.858,1445.72 659.402,1445.72 659.402,1228.48 566.858,1228.48 
  "/>
<path clip-path="url(#clip592)" d="
M659.402 1174.17 L659.402 1445.72 L751.946 1445.72 L751.946 1174.17 L659.402 1174.17 L659.402 1174.17  Z
  " fill="#009af9" fill-rule="evenodd" fill-opacity="1"/>
<polyline clip-path="url(#clip592)" style="stroke:#000000; stroke-linecap:round; stroke-linejoin:round; stroke-width:4; stroke-opacity:1; fill:none" points="
  659.402,1174.17 659.402,1445.72 751.946,1445.72 751.946,1174.17 659.402,1174.17 
  "/>
<path clip-path="url(#clip592)" d="
M751.946 978.653 L751.946 1445.72 L844.49 1445.72 L844.49 978.653 L751.946 978.653 L751.946 978.653  Z
  " fill="#009af9" fill-rule="evenodd" fill-opacity="1"/>
<polyline clip-path="url(#clip592)" style="stroke:#000000; stroke-linecap:round; stroke-linejoin:round; stroke-width:4; stroke-opacity:1; fill:none" points="
  751.946,978.653 751.946,1445.72 844.49,1445.72 844.49,978.653 751.946,978.653 
  "/>
<path clip-path="url(#clip592)" d="
M844.49 620.21 L844.49 1445.72 L937.034 1445.72 L937.034 620.21 L844.49 620.21 L844.49 620.21  Z
  " fill="#009af9" fill-rule="evenodd" fill-opacity="1"/>
<polyline clip-path="url(#clip592)" style="stroke:#000000; stroke-linecap:round; stroke-linejoin:round; stroke-width:4; stroke-opacity:1; fill:none" points="
  844.49,620.21 844.49,1445.72 937.034,1445.72 937.034,620.21 844.49,620.21 
  "/>
<path clip-path="url(#clip592)" d="
M937.034 457.281 L937.034 1445.72 L1029.58 1445.72 L1029.58 457.281 L937.034 457.281 L937.034 457.281  Z
  " fill="#009af9" fill-rule="evenodd" fill-opacity="1"/>
<polyline clip-path="url(#clip592)" style="stroke:#000000; stroke-linecap:round; stroke-linejoin:round; stroke-width:4; stroke-opacity:1; fill:none" points="
  937.034,457.281 937.034,1445.72 1029.58,1445.72 1029.58,457.281 937.034,457.281 
  "/>
<path clip-path="url(#clip592)" d="
M1029.58 272.629 L1029.58 1445.72 L1122.12 1445.72 L1122.12 272.629 L1029.58 272.629 L1029.58 272.629  Z
  " fill="#009af9" fill-rule="evenodd" fill-opacity="1"/>
<polyline clip-path="url(#clip592)" style="stroke:#000000; stroke-linecap:round; stroke-linejoin:round; stroke-width:4; stroke-opacity:1; fill:none" points="
  1029.58,272.629 1029.58,1445.72 1122.12,1445.72 1122.12,272.629 1029.58,272.629 
  "/>
<path clip-path="url(#clip592)" d="
M1122.12 185.734 L1122.12 1445.72 L1214.67 1445.72 L1214.67 185.734 L1122.12 185.734 L1122.12 185.734  Z
  " fill="#009af9" fill-rule="evenodd" fill-opacity="1"/>
<polyline clip-path="url(#clip592)" style="stroke:#000000; stroke-linecap:round; stroke-linejoin:round; stroke-width:4; stroke-opacity:1; fill:none" points="
  1122.12,185.734 1122.12,1445.72 1214.67,1445.72 1214.67,185.734 1122.12,185.734 
  "/>
<path clip-path="url(#clip592)" d="
M1214.67 87.9763 L1214.67 1445.72 L1307.21 1445.72 L1307.21 87.9763 L1214.67 87.9763 L1214.67 87.9763  Z
  " fill="#009af9" fill-rule="evenodd" fill-opacity="1"/>
<polyline clip-path="url(#clip592)" style="stroke:#000000; stroke-linecap:round; stroke-linejoin:round; stroke-width:4; stroke-opacity:1; fill:none" points="
  1214.67,87.9763 1214.67,1445.72 1307.21,1445.72 1307.21,87.9763 1214.67,87.9763 
  "/>
<path clip-path="url(#clip592)" d="
M1307.21 142.286 L1307.21 1445.72 L1399.75 1445.72 L1399.75 142.286 L1307.21 142.286 L1307.21 142.286  Z
  " fill="#009af9" fill-rule="evenodd" fill-opacity="1"/>
<polyline clip-path="url(#clip592)" style="stroke:#000000; stroke-linecap:round; stroke-linejoin:round; stroke-width:4; stroke-opacity:1; fill:none" points="
  1307.21,142.286 1307.21,1445.72 1399.75,1445.72 1399.75,142.286 1307.21,142.286 
  "/>
<path clip-path="url(#clip592)" d="
M1399.75 652.796 L1399.75 1445.72 L1492.3 1445.72 L1492.3 652.796 L1399.75 652.796 L1399.75 652.796  Z
  " fill="#009af9" fill-rule="evenodd" fill-opacity="1"/>
<polyline clip-path="url(#clip592)" style="stroke:#000000; stroke-linecap:round; stroke-linejoin:round; stroke-width:4; stroke-opacity:1; fill:none" points="
  1399.75,652.796 1399.75,1445.72 1492.3,1445.72 1492.3,652.796 1399.75,652.796 
  "/>
<path clip-path="url(#clip592)" d="
M1492.3 717.967 L1492.3 1445.72 L1584.84 1445.72 L1584.84 717.967 L1492.3 717.967 L1492.3 717.967  Z
  " fill="#009af9" fill-rule="evenodd" fill-opacity="1"/>
<polyline clip-path="url(#clip592)" style="stroke:#000000; stroke-linecap:round; stroke-linejoin:round; stroke-width:4; stroke-opacity:1; fill:none" points="
  1492.3,717.967 1492.3,1445.72 1584.84,1445.72 1584.84,717.967 1492.3,717.967 
  "/>
<path clip-path="url(#clip592)" d="
M1584.84 989.515 L1584.84 1445.72 L1677.39 1445.72 L1677.39 989.515 L1584.84 989.515 L1584.84 989.515  Z
  " fill="#009af9" fill-rule="evenodd" fill-opacity="1"/>
<polyline clip-path="url(#clip592)" style="stroke:#000000; stroke-linecap:round; stroke-linejoin:round; stroke-width:4; stroke-opacity:1; fill:none" points="
  1584.84,989.515 1584.84,1445.72 1677.39,1445.72 1677.39,989.515 1584.84,989.515 
  "/>
<path clip-path="url(#clip592)" d="
M1677.39 1065.55 L1677.39 1445.72 L1769.93 1445.72 L1769.93 1065.55 L1677.39 1065.55 L1677.39 1065.55  Z
  " fill="#009af9" fill-rule="evenodd" fill-opacity="1"/>
<polyline clip-path="url(#clip592)" style="stroke:#000000; stroke-linecap:round; stroke-linejoin:round; stroke-width:4; stroke-opacity:1; fill:none" points="
  1677.39,1065.55 1677.39,1445.72 1769.93,1445.72 1769.93,1065.55 1677.39,1065.55 
  "/>
<path clip-path="url(#clip592)" d="
M1769.93 1239.34 L1769.93 1445.72 L1862.48 1445.72 L1862.48 1239.34 L1769.93 1239.34 L1769.93 1239.34  Z
  " fill="#009af9" fill-rule="evenodd" fill-opacity="1"/>
<polyline clip-path="url(#clip592)" style="stroke:#000000; stroke-linecap:round; stroke-linejoin:round; stroke-width:4; stroke-opacity:1; fill:none" points="
  1769.93,1239.34 1769.93,1445.72 1862.48,1445.72 1862.48,1239.34 1769.93,1239.34 
  "/>
<path clip-path="url(#clip592)" d="
M1862.48 1369.68 L1862.48 1445.72 L1955.02 1445.72 L1955.02 1369.68 L1862.48 1369.68 L1862.48 1369.68  Z
  " fill="#009af9" fill-rule="evenodd" fill-opacity="1"/>
<polyline clip-path="url(#clip592)" style="stroke:#000000; stroke-linecap:round; stroke-linejoin:round; stroke-width:4; stroke-opacity:1; fill:none" points="
  1862.48,1369.68 1862.48,1445.72 1955.02,1445.72 1955.02,1369.68 1862.48,1369.68 
  "/>
<path clip-path="url(#clip592)" d="
M1955.02 1358.82 L1955.02 1445.72 L2047.56 1445.72 L2047.56 1358.82 L1955.02 1358.82 L1955.02 1358.82  Z
  " fill="#009af9" fill-rule="evenodd" fill-opacity="1"/>
<polyline clip-path="url(#clip592)" style="stroke:#000000; stroke-linecap:round; stroke-linejoin:round; stroke-width:4; stroke-opacity:1; fill:none" points="
  1955.02,1358.82 1955.02,1445.72 2047.56,1445.72 2047.56,1358.82 1955.02,1358.82 
  "/>
<path clip-path="url(#clip592)" d="
M2047.56 1445.72 L2047.56 1445.72 L2140.11 1445.72 L2140.11 1445.72 L2047.56 1445.72 L2047.56 1445.72  Z
  " fill="#009af9" fill-rule="evenodd" fill-opacity="1"/>
<polyline clip-path="url(#clip592)" style="stroke:#000000; stroke-linecap:round; stroke-linejoin:round; stroke-width:4; stroke-opacity:1; fill:none" points="
  2047.56,1445.72 2047.56,1445.72 2140.11,1445.72 2047.56,1445.72 
  "/>
<path clip-path="url(#clip592)" d="
M2140.11 1434.85 L2140.11 1445.72 L2232.65 1445.72 L2232.65 1434.85 L2140.11 1434.85 L2140.11 1434.85  Z
  " fill="#009af9" fill-rule="evenodd" fill-opacity="1"/>
<polyline clip-path="url(#clip592)" style="stroke:#000000; stroke-linecap:round; stroke-linejoin:round; stroke-width:4; stroke-opacity:1; fill:none" points="
  2140.11,1434.85 2140.11,1445.72 2232.65,1445.72 2232.65,1434.85 2140.11,1434.85 
  "/>
<circle clip-path="url(#clip592)" style="fill:#009af9; stroke:none; fill-opacity:0" cx="335.497" cy="1413.13" r="2"/>
<circle clip-path="url(#clip592)" style="fill:#009af9; stroke:none; fill-opacity:0" cx="428.041" cy="1337.1" r="2"/>
<circle clip-path="url(#clip592)" style="fill:#009af9; stroke:none; fill-opacity:0" cx="520.585" cy="1326.23" r="2"/>
<circle clip-path="url(#clip592)" style="fill:#009af9; stroke:none; fill-opacity:0" cx="613.13" cy="1228.48" r="2"/>
<circle clip-path="url(#clip592)" style="fill:#009af9; stroke:none; fill-opacity:0" cx="705.674" cy="1174.17" r="2"/>
<circle clip-path="url(#clip592)" style="fill:#009af9; stroke:none; fill-opacity:0" cx="798.218" cy="978.653" r="2"/>
<circle clip-path="url(#clip592)" style="fill:#009af9; stroke:none; fill-opacity:0" cx="890.762" cy="620.21" r="2"/>
<circle clip-path="url(#clip592)" style="fill:#009af9; stroke:none; fill-opacity:0" cx="983.306" cy="457.281" r="2"/>
<circle clip-path="url(#clip592)" style="fill:#009af9; stroke:none; fill-opacity:0" cx="1075.85" cy="272.629" r="2"/>
<circle clip-path="url(#clip592)" style="fill:#009af9; stroke:none; fill-opacity:0" cx="1168.39" cy="185.734" r="2"/>
<circle clip-path="url(#clip592)" style="fill:#009af9; stroke:none; fill-opacity:0" cx="1260.94" cy="87.9763" r="2"/>
<circle clip-path="url(#clip592)" style="fill:#009af9; stroke:none; fill-opacity:0" cx="1353.48" cy="142.286" r="2"/>
<circle clip-path="url(#clip592)" style="fill:#009af9; stroke:none; fill-opacity:0" cx="1446.03" cy="652.796" r="2"/>
<circle clip-path="url(#clip592)" style="fill:#009af9; stroke:none; fill-opacity:0" cx="1538.57" cy="717.967" r="2"/>
<circle clip-path="url(#clip592)" style="fill:#009af9; stroke:none; fill-opacity:0" cx="1631.12" cy="989.515" r="2"/>
<circle clip-path="url(#clip592)" style="fill:#009af9; stroke:none; fill-opacity:0" cx="1723.66" cy="1065.55" r="2"/>
<circle clip-path="url(#clip592)" style="fill:#009af9; stroke:none; fill-opacity:0" cx="1816.2" cy="1239.34" r="2"/>
<circle clip-path="url(#clip592)" style="fill:#009af9; stroke:none; fill-opacity:0" cx="1908.75" cy="1369.68" r="2"/>
<circle clip-path="url(#clip592)" style="fill:#009af9; stroke:none; fill-opacity:0" cx="2001.29" cy="1358.82" r="2"/>
<circle clip-path="url(#clip592)" style="fill:#009af9; stroke:none; fill-opacity:0" cx="2093.84" cy="1445.72" r="2"/>
<circle clip-path="url(#clip592)" style="fill:#009af9; stroke:none; fill-opacity:0" cx="2186.38" cy="1434.85" r="2"/>
<path clip-path="url(#clip592)" d="
M659.402 1423.99 L659.402 1445.72 L705.674 1445.72 L705.674 1423.99 L659.402 1423.99 L659.402 1423.99  Z
  " fill="#e26f46" fill-rule="evenodd" fill-opacity="1"/>
<polyline clip-path="url(#clip592)" style="stroke:#000000; stroke-linecap:round; stroke-linejoin:round; stroke-width:4; stroke-opacity:1; fill:none" points="
  659.402,1423.99 659.402,1445.72 705.674,1445.72 705.674,1423.99 659.402,1423.99 
  "/>
<path clip-path="url(#clip592)" d="
M705.674 1434.85 L705.674 1445.72 L751.946 1445.72 L751.946 1434.85 L705.674 1434.85 L705.674 1434.85  Z
  " fill="#e26f46" fill-rule="evenodd" fill-opacity="1"/>
<polyline clip-path="url(#clip592)" style="stroke:#000000; stroke-linecap:round; stroke-linejoin:round; stroke-width:4; stroke-opacity:1; fill:none" points="
  705.674,1434.85 705.674,1445.72 751.946,1445.72 751.946,1434.85 705.674,1434.85 
  "/>
<path clip-path="url(#clip592)" d="
M751.946 1380.54 L751.946 1445.72 L798.218 1445.72 L798.218 1380.54 L751.946 1380.54 L751.946 1380.54  Z
  " fill="#e26f46" fill-rule="evenodd" fill-opacity="1"/>
<polyline clip-path="url(#clip592)" style="stroke:#000000; stroke-linecap:round; stroke-linejoin:round; stroke-width:4; stroke-opacity:1; fill:none" points="
  751.946,1380.54 751.946,1445.72 798.218,1445.72 798.218,1380.54 751.946,1380.54 
  "/>
<path clip-path="url(#clip592)" d="
M798.218 1380.54 L798.218 1445.72 L844.49 1445.72 L844.49 1380.54 L798.218 1380.54 L798.218 1380.54  Z
  " fill="#e26f46" fill-rule="evenodd" fill-opacity="1"/>
<polyline clip-path="url(#clip592)" style="stroke:#000000; stroke-linecap:round; stroke-linejoin:round; stroke-width:4; stroke-opacity:1; fill:none" points="
  798.218,1380.54 798.218,1445.72 844.49,1445.72 844.49,1380.54 798.218,1380.54 
  "/>
<path clip-path="url(#clip592)" d="
M844.49 1315.37 L844.49 1445.72 L890.762 1445.72 L890.762 1315.37 L844.49 1315.37 L844.49 1315.37  Z
  " fill="#e26f46" fill-rule="evenodd" fill-opacity="1"/>
<polyline clip-path="url(#clip592)" style="stroke:#000000; stroke-linecap:round; stroke-linejoin:round; stroke-width:4; stroke-opacity:1; fill:none" points="
  844.49,1315.37 844.49,1445.72 890.762,1445.72 890.762,1315.37 844.49,1315.37 
  "/>
<path clip-path="url(#clip592)" d="
M890.762 1087.27 L890.762 1445.72 L937.034 1445.72 L937.034 1087.27 L890.762 1087.27 L890.762 1087.27  Z
  " fill="#e26f46" fill-rule="evenodd" fill-opacity="1"/>
<polyline clip-path="url(#clip592)" style="stroke:#000000; stroke-linecap:round; stroke-linejoin:round; stroke-width:4; stroke-opacity:1; fill:none" points="
  890.762,1087.27 890.762,1445.72 937.034,1445.72 937.034,1087.27 890.762,1087.27 
  "/>
<path clip-path="url(#clip592)" d="
M937.034 989.515 L937.034 1445.72 L983.306 1445.72 L983.306 989.515 L937.034 989.515 L937.034 989.515  Z
  " fill="#e26f46" fill-rule="evenodd" fill-opacity="1"/>
<polyline clip-path="url(#clip592)" style="stroke:#000000; stroke-linecap:round; stroke-linejoin:round; stroke-width:4; stroke-opacity:1; fill:none" points="
  937.034,989.515 937.034,1445.72 983.306,1445.72 983.306,989.515 937.034,989.515 
  "/>
<path clip-path="url(#clip592)" d="
M983.306 794.001 L983.306 1445.72 L1029.58 1445.72 L1029.58 794.001 L983.306 794.001 L983.306 794.001  Z
  " fill="#e26f46" fill-rule="evenodd" fill-opacity="1"/>
<polyline clip-path="url(#clip592)" style="stroke:#000000; stroke-linecap:round; stroke-linejoin:round; stroke-width:4; stroke-opacity:1; fill:none" points="
  983.306,794.001 983.306,1445.72 1029.58,1445.72 1029.58,794.001 983.306,794.001 
  "/>
<path clip-path="url(#clip592)" d="
M1029.58 728.829 L1029.58 1445.72 L1075.85 1445.72 L1075.85 728.829 L1029.58 728.829 L1029.58 728.829  Z
  " fill="#e26f46" fill-rule="evenodd" fill-opacity="1"/>
<polyline clip-path="url(#clip592)" style="stroke:#000000; stroke-linecap:round; stroke-linejoin:round; stroke-width:4; stroke-opacity:1; fill:none" points="
  1029.58,728.829 1029.58,1445.72 1075.85,1445.72 1075.85,728.829 1029.58,728.829 
  "/>
<path clip-path="url(#clip592)" d="
M1075.85 479.005 L1075.85 1445.72 L1122.12 1445.72 L1122.12 479.005 L1075.85 479.005 L1075.85 479.005  Z
  " fill="#e26f46" fill-rule="evenodd" fill-opacity="1"/>
<polyline clip-path="url(#clip592)" style="stroke:#000000; stroke-linecap:round; stroke-linejoin:round; stroke-width:4; stroke-opacity:1; fill:none" points="
  1075.85,479.005 1075.85,1445.72 1122.12,1445.72 1122.12,479.005 1075.85,479.005 
  "/>
<path clip-path="url(#clip592)" d="
M1122.12 402.972 L1122.12 1445.72 L1168.39 1445.72 L1168.39 402.972 L1122.12 402.972 L1122.12 402.972  Z
  " fill="#e26f46" fill-rule="evenodd" fill-opacity="1"/>
<polyline clip-path="url(#clip592)" style="stroke:#000000; stroke-linecap:round; stroke-linejoin:round; stroke-width:4; stroke-opacity:1; fill:none" points="
  1122.12,402.972 1122.12,1445.72 1168.39,1445.72 1168.39,402.972 1122.12,402.972 
  "/>
<path clip-path="url(#clip592)" d="
M1168.39 359.524 L1168.39 1445.72 L1214.67 1445.72 L1214.67 359.524 L1168.39 359.524 L1168.39 359.524  Z
  " fill="#e26f46" fill-rule="evenodd" fill-opacity="1"/>
<polyline clip-path="url(#clip592)" style="stroke:#000000; stroke-linecap:round; stroke-linejoin:round; stroke-width:4; stroke-opacity:1; fill:none" points="
  1168.39,359.524 1168.39,1445.72 1214.67,1445.72 1214.67,359.524 1168.39,359.524 
  "/>
<path clip-path="url(#clip592)" d="
M1214.67 272.629 L1214.67 1445.72 L1260.94 1445.72 L1260.94 272.629 L1214.67 272.629 L1214.67 272.629  Z
  " fill="#e26f46" fill-rule="evenodd" fill-opacity="1"/>
<polyline clip-path="url(#clip592)" style="stroke:#000000; stroke-linecap:round; stroke-linejoin:round; stroke-width:4; stroke-opacity:1; fill:none" points="
  1214.67,272.629 1214.67,1445.72 1260.94,1445.72 1260.94,272.629 1214.67,272.629 
  "/>
<path clip-path="url(#clip592)" d="
M1260.94 283.491 L1260.94 1445.72 L1307.21 1445.72 L1307.21 283.491 L1260.94 283.491 L1260.94 283.491  Z
  " fill="#e26f46" fill-rule="evenodd" fill-opacity="1"/>
<polyline clip-path="url(#clip592)" style="stroke:#000000; stroke-linecap:round; stroke-linejoin:round; stroke-width:4; stroke-opacity:1; fill:none" points="
  1260.94,283.491 1260.94,1445.72 1307.21,1445.72 1307.21,283.491 1260.94,283.491 
  "/>
<path clip-path="url(#clip592)" d="
M1307.21 576.762 L1307.21 1445.72 L1353.48 1445.72 L1353.48 576.762 L1307.21 576.762 L1307.21 576.762  Z
  " fill="#e26f46" fill-rule="evenodd" fill-opacity="1"/>
<polyline clip-path="url(#clip592)" style="stroke:#000000; stroke-linecap:round; stroke-linejoin:round; stroke-width:4; stroke-opacity:1; fill:none" points="
  1307.21,576.762 1307.21,1445.72 1353.48,1445.72 1353.48,576.762 1307.21,576.762 
  "/>
<path clip-path="url(#clip592)" d="
M1353.48 696.244 L1353.48 1445.72 L1399.75 1445.72 L1399.75 696.244 L1353.48 696.244 L1353.48 696.244  Z
  " fill="#e26f46" fill-rule="evenodd" fill-opacity="1"/>
<polyline clip-path="url(#clip592)" style="stroke:#000000; stroke-linecap:round; stroke-linejoin:round; stroke-width:4; stroke-opacity:1; fill:none" points="
  1353.48,696.244 1353.48,1445.72 1399.75,1445.72 1399.75,696.244 1353.48,696.244 
  "/>
<path clip-path="url(#clip592)" d="
M1399.75 924.344 L1399.75 1445.72 L1446.03 1445.72 L1446.03 924.344 L1399.75 924.344 L1399.75 924.344  Z
  " fill="#e26f46" fill-rule="evenodd" fill-opacity="1"/>
<polyline clip-path="url(#clip592)" style="stroke:#000000; stroke-linecap:round; stroke-linejoin:round; stroke-width:4; stroke-opacity:1; fill:none" points="
  1399.75,924.344 1399.75,1445.72 1446.03,1445.72 1446.03,924.344 1399.75,924.344 
  "/>
<path clip-path="url(#clip592)" d="
M1446.03 1098.13 L1446.03 1445.72 L1492.3 1445.72 L1492.3 1098.13 L1446.03 1098.13 L1446.03 1098.13  Z
  " fill="#e26f46" fill-rule="evenodd" fill-opacity="1"/>
<polyline clip-path="url(#clip592)" style="stroke:#000000; stroke-linecap:round; stroke-linejoin:round; stroke-width:4; stroke-opacity:1; fill:none" points="
  1446.03,1098.13 1446.03,1445.72 1492.3,1445.72 1492.3,1098.13 1446.03,1098.13 
  "/>
<path clip-path="url(#clip592)" d="
M1492.3 1282.79 L1492.3 1445.72 L1538.57 1445.72 L1538.57 1282.79 L1492.3 1282.79 L1492.3 1282.79  Z
  " fill="#e26f46" fill-rule="evenodd" fill-opacity="1"/>
<polyline clip-path="url(#clip592)" style="stroke:#000000; stroke-linecap:round; stroke-linejoin:round; stroke-width:4; stroke-opacity:1; fill:none" points="
  1492.3,1282.79 1492.3,1445.72 1538.57,1445.72 1538.57,1282.79 1492.3,1282.79 
  "/>
<path clip-path="url(#clip592)" d="
M1538.57 1326.23 L1538.57 1445.72 L1584.84 1445.72 L1584.84 1326.23 L1538.57 1326.23 L1538.57 1326.23  Z
  " fill="#e26f46" fill-rule="evenodd" fill-opacity="1"/>
<polyline clip-path="url(#clip592)" style="stroke:#000000; stroke-linecap:round; stroke-linejoin:round; stroke-width:4; stroke-opacity:1; fill:none" points="
  1538.57,1326.23 1538.57,1445.72 1584.84,1445.72 1584.84,1326.23 1538.57,1326.23 
  "/>
<path clip-path="url(#clip592)" d="
M1584.84 1369.68 L1584.84 1445.72 L1631.12 1445.72 L1631.12 1369.68 L1584.84 1369.68 L1584.84 1369.68  Z
  " fill="#e26f46" fill-rule="evenodd" fill-opacity="1"/>
<polyline clip-path="url(#clip592)" style="stroke:#000000; stroke-linecap:round; stroke-linejoin:round; stroke-width:4; stroke-opacity:1; fill:none" points="
  1584.84,1369.68 1584.84,1445.72 1631.12,1445.72 1631.12,1369.68 1584.84,1369.68 
  "/>
<path clip-path="url(#clip592)" d="
M1631.12 1413.13 L1631.12 1445.72 L1677.39 1445.72 L1677.39 1413.13 L1631.12 1413.13 L1631.12 1413.13  Z
  " fill="#e26f46" fill-rule="evenodd" fill-opacity="1"/>
<polyline clip-path="url(#clip592)" style="stroke:#000000; stroke-linecap:round; stroke-linejoin:round; stroke-width:4; stroke-opacity:1; fill:none" points="
  1631.12,1413.13 1631.12,1445.72 1677.39,1445.72 1677.39,1413.13 1631.12,1413.13 
  "/>
<path clip-path="url(#clip592)" d="
M1677.39 1391.41 L1677.39 1445.72 L1723.66 1445.72 L1723.66 1391.41 L1677.39 1391.41 L1677.39 1391.41  Z
  " fill="#e26f46" fill-rule="evenodd" fill-opacity="1"/>
<polyline clip-path="url(#clip592)" style="stroke:#000000; stroke-linecap:round; stroke-linejoin:round; stroke-width:4; stroke-opacity:1; fill:none" points="
  1677.39,1391.41 1677.39,1445.72 1723.66,1445.72 1723.66,1391.41 1677.39,1391.41 
  "/>
<path clip-path="url(#clip592)" d="
M1723.66 1434.85 L1723.66 1445.72 L1769.93 1445.72 L1769.93 1434.85 L1723.66 1434.85 L1723.66 1434.85  Z
  " fill="#e26f46" fill-rule="evenodd" fill-opacity="1"/>
<polyline clip-path="url(#clip592)" style="stroke:#000000; stroke-linecap:round; stroke-linejoin:round; stroke-width:4; stroke-opacity:1; fill:none" points="
  1723.66,1434.85 1723.66,1445.72 1769.93,1445.72 1769.93,1434.85 1723.66,1434.85 
  "/>
<path clip-path="url(#clip592)" d="
M1769.93 1445.72 L1769.93 1445.72 L1816.2 1445.72 L1816.2 1445.72 L1769.93 1445.72 L1769.93 1445.72  Z
  " fill="#e26f46" fill-rule="evenodd" fill-opacity="1"/>
<polyline clip-path="url(#clip592)" style="stroke:#000000; stroke-linecap:round; stroke-linejoin:round; stroke-width:4; stroke-opacity:1; fill:none" points="
  1769.93,1445.72 1769.93,1445.72 1816.2,1445.72 1769.93,1445.72 
  "/>
<path clip-path="url(#clip592)" d="
M1816.2 1445.72 L1816.2 1445.72 L1862.48 1445.72 L1862.48 1445.72 L1816.2 1445.72 L1816.2 1445.72  Z
  " fill="#e26f46" fill-rule="evenodd" fill-opacity="1"/>
<polyline clip-path="url(#clip592)" style="stroke:#000000; stroke-linecap:round; stroke-linejoin:round; stroke-width:4; stroke-opacity:1; fill:none" points="
  1816.2,1445.72 1816.2,1445.72 1862.48,1445.72 1816.2,1445.72 
  "/>
<path clip-path="url(#clip592)" d="
M1862.48 1434.85 L1862.48 1445.72 L1908.75 1445.72 L1908.75 1434.85 L1862.48 1434.85 L1862.48 1434.85  Z
  " fill="#e26f46" fill-rule="evenodd" fill-opacity="1"/>
<polyline clip-path="url(#clip592)" style="stroke:#000000; stroke-linecap:round; stroke-linejoin:round; stroke-width:4; stroke-opacity:1; fill:none" points="
  1862.48,1434.85 1862.48,1445.72 1908.75,1445.72 1908.75,1434.85 1862.48,1434.85 
  "/>
<circle clip-path="url(#clip592)" style="fill:#e26f46; stroke:none; fill-opacity:0" cx="682.538" cy="1423.99" r="2"/>
<circle clip-path="url(#clip592)" style="fill:#e26f46; stroke:none; fill-opacity:0" cx="728.81" cy="1434.85" r="2"/>
<circle clip-path="url(#clip592)" style="fill:#e26f46; stroke:none; fill-opacity:0" cx="775.082" cy="1380.54" r="2"/>
<circle clip-path="url(#clip592)" style="fill:#e26f46; stroke:none; fill-opacity:0" cx="821.354" cy="1380.54" r="2"/>
<circle clip-path="url(#clip592)" style="fill:#e26f46; stroke:none; fill-opacity:0" cx="867.626" cy="1315.37" r="2"/>
<circle clip-path="url(#clip592)" style="fill:#e26f46; stroke:none; fill-opacity:0" cx="913.898" cy="1087.27" r="2"/>
<circle clip-path="url(#clip592)" style="fill:#e26f46; stroke:none; fill-opacity:0" cx="960.17" cy="989.515" r="2"/>
<circle clip-path="url(#clip592)" style="fill:#e26f46; stroke:none; fill-opacity:0" cx="1006.44" cy="794.001" r="2"/>
<circle clip-path="url(#clip592)" style="fill:#e26f46; stroke:none; fill-opacity:0" cx="1052.71" cy="728.829" r="2"/>
<circle clip-path="url(#clip592)" style="fill:#e26f46; stroke:none; fill-opacity:0" cx="1098.99" cy="479.005" r="2"/>
<circle clip-path="url(#clip592)" style="fill:#e26f46; stroke:none; fill-opacity:0" cx="1145.26" cy="402.972" r="2"/>
<circle clip-path="url(#clip592)" style="fill:#e26f46; stroke:none; fill-opacity:0" cx="1191.53" cy="359.524" r="2"/>
<circle clip-path="url(#clip592)" style="fill:#e26f46; stroke:none; fill-opacity:0" cx="1237.8" cy="272.629" r="2"/>
<circle clip-path="url(#clip592)" style="fill:#e26f46; stroke:none; fill-opacity:0" cx="1284.07" cy="283.491" r="2"/>
<circle clip-path="url(#clip592)" style="fill:#e26f46; stroke:none; fill-opacity:0" cx="1330.35" cy="576.762" r="2"/>
<circle clip-path="url(#clip592)" style="fill:#e26f46; stroke:none; fill-opacity:0" cx="1376.62" cy="696.244" r="2"/>
<circle clip-path="url(#clip592)" style="fill:#e26f46; stroke:none; fill-opacity:0" cx="1422.89" cy="924.344" r="2"/>
<circle clip-path="url(#clip592)" style="fill:#e26f46; stroke:none; fill-opacity:0" cx="1469.16" cy="1098.13" r="2"/>
<circle clip-path="url(#clip592)" style="fill:#e26f46; stroke:none; fill-opacity:0" cx="1515.44" cy="1282.79" r="2"/>
<circle clip-path="url(#clip592)" style="fill:#e26f46; stroke:none; fill-opacity:0" cx="1561.71" cy="1326.23" r="2"/>
<circle clip-path="url(#clip592)" style="fill:#e26f46; stroke:none; fill-opacity:0" cx="1607.98" cy="1369.68" r="2"/>
<circle clip-path="url(#clip592)" style="fill:#e26f46; stroke:none; fill-opacity:0" cx="1654.25" cy="1413.13" r="2"/>
<circle clip-path="url(#clip592)" style="fill:#e26f46; stroke:none; fill-opacity:0" cx="1700.52" cy="1391.41" r="2"/>
<circle clip-path="url(#clip592)" style="fill:#e26f46; stroke:none; fill-opacity:0" cx="1746.8" cy="1434.85" r="2"/>
<circle clip-path="url(#clip592)" style="fill:#e26f46; stroke:none; fill-opacity:0" cx="1793.07" cy="1445.72" r="2"/>
<circle clip-path="url(#clip592)" style="fill:#e26f46; stroke:none; fill-opacity:0" cx="1839.34" cy="1445.72" r="2"/>
<circle clip-path="url(#clip592)" style="fill:#e26f46; stroke:none; fill-opacity:0" cx="1885.61" cy="1434.85" r="2"/>
<path clip-path="url(#clip590)" d="
M1770.52 250.738 L2279.97 250.738 L2279.97 95.2176 L1770.52 95.2176  Z
  " fill="#ffffff" fill-rule="evenodd" fill-opacity="1"/>
<polyline clip-path="url(#clip590)" style="stroke:#000000; stroke-linecap:round; stroke-linejoin:round; stroke-width:4; stroke-opacity:1; fill:none" points="
  1770.52,250.738 2279.97,250.738 2279.97,95.2176 1770.52,95.2176 1770.52,250.738 
  "/>
<path clip-path="url(#clip590)" d="
M1794.78 167.794 L1940.36 167.794 L1940.36 126.322 L1794.78 126.322 L1794.78 167.794  Z
  " fill="#009af9" fill-rule="evenodd" fill-opacity="1"/>
<polyline clip-path="url(#clip590)" style="stroke:#000000; stroke-linecap:round; stroke-linejoin:round; stroke-width:4; stroke-opacity:1; fill:none" points="
  1794.78,167.794 1940.36,167.794 1940.36,126.322 1794.78,126.322 1794.78,167.794 
  "/>
<path clip-path="url(#clip590)" d="M1981.01 148.134 Q1982.51 148.643 1983.92 150.31 Q1985.36 151.977 1986.79 154.893 L1991.54 164.338 L1986.52 164.338 L1982.1 155.472 Q1980.38 152 1978.76 150.865 Q1977.17 149.731 1974.39 149.731 L1969.29 149.731 L1969.29 164.338 L1964.62 164.338 L1964.62 129.778 L1975.17 129.778 Q1981.1 129.778 1984.02 132.254 Q1986.93 134.731 1986.93 139.731 Q1986.93 142.995 1985.41 145.148 Q1983.9 147.301 1981.01 148.134 M1969.29 133.62 L1969.29 145.889 L1975.17 145.889 Q1978.55 145.889 1980.27 144.338 Q1982 142.764 1982 139.731 Q1982 136.699 1980.27 135.171 Q1978.55 133.62 1975.17 133.62 L1969.29 133.62 Z" fill="#000000" fill-rule="evenodd" fill-opacity="1" /><path clip-path="url(#clip590)" d="M2013 142.81 L2042.67 142.81 L2042.67 146.699 L2013 146.699 L2013 142.81 M2013 152.254 L2042.67 152.254 L2042.67 156.189 L2013 156.189 L2013 152.254 Z" fill="#000000" fill-rule="evenodd" fill-opacity="1" /><path clip-path="url(#clip590)" d="M2077.84 132.856 Q2074.22 132.856 2072.4 136.421 Q2070.59 139.963 2070.59 147.092 Q2070.59 154.199 2072.4 157.764 Q2074.22 161.305 2077.84 161.305 Q2081.47 161.305 2083.28 157.764 Q2085.1 154.199 2085.1 147.092 Q2085.1 139.963 2083.28 136.421 Q2081.47 132.856 2077.84 132.856 M2077.84 129.153 Q2083.65 129.153 2086.7 133.759 Q2089.78 138.342 2089.78 147.092 Q2089.78 155.819 2086.7 160.426 Q2083.65 165.009 2077.84 165.009 Q2072.03 165.009 2068.95 160.426 Q2065.89 155.819 2065.89 147.092 Q2065.89 138.342 2068.95 133.759 Q2072.03 129.153 2077.84 129.153 Z" fill="#000000" fill-rule="evenodd" fill-opacity="1" /><path clip-path="url(#clip590)" d="M2098 158.458 L2102.88 158.458 L2102.88 164.338 L2098 164.338 L2098 158.458 Z" fill="#000000" fill-rule="evenodd" fill-opacity="1" /><path clip-path="url(#clip590)" d="M2123.07 132.856 Q2119.46 132.856 2117.63 136.421 Q2115.82 139.963 2115.82 147.092 Q2115.82 154.199 2117.63 157.764 Q2119.46 161.305 2123.07 161.305 Q2126.7 161.305 2128.51 157.764 Q2130.34 154.199 2130.34 147.092 Q2130.34 139.963 2128.51 136.421 Q2126.7 132.856 2123.07 132.856 M2123.07 129.153 Q2128.88 129.153 2131.93 133.759 Q2135.01 138.342 2135.01 147.092 Q2135.01 155.819 2131.93 160.426 Q2128.88 165.009 2123.07 165.009 Q2117.26 165.009 2114.18 160.426 Q2111.12 155.819 2111.12 147.092 Q2111.12 138.342 2114.18 133.759 Q2117.26 129.153 2123.07 129.153 Z" fill="#000000" fill-rule="evenodd" fill-opacity="1" /><path clip-path="url(#clip590)" d="M2153.23 132.856 Q2149.62 132.856 2147.79 136.421 Q2145.98 139.963 2145.98 147.092 Q2145.98 154.199 2147.79 157.764 Q2149.62 161.305 2153.23 161.305 Q2156.86 161.305 2158.67 157.764 Q2160.5 154.199 2160.5 147.092 Q2160.5 139.963 2158.67 136.421 Q2156.86 132.856 2153.23 132.856 M2153.23 129.153 Q2159.04 129.153 2162.09 133.759 Q2165.17 138.342 2165.17 147.092 Q2165.17 155.819 2162.09 160.426 Q2159.04 165.009 2153.23 165.009 Q2147.42 165.009 2144.34 160.426 Q2141.28 155.819 2141.28 147.092 Q2141.28 138.342 2144.34 133.759 Q2147.42 129.153 2153.23 129.153 Z" fill="#000000" fill-rule="evenodd" fill-opacity="1" /><path clip-path="url(#clip590)" d="M2173.44 129.778 L2191.79 129.778 L2191.79 133.713 L2177.72 133.713 L2177.72 142.185 Q2178.74 141.838 2179.76 141.676 Q2180.78 141.49 2181.79 141.49 Q2187.58 141.49 2190.96 144.662 Q2194.34 147.833 2194.34 153.25 Q2194.34 158.828 2190.87 161.93 Q2187.4 165.009 2181.08 165.009 Q2178.9 165.009 2176.63 164.638 Q2174.39 164.268 2171.98 163.527 L2171.98 158.828 Q2174.06 159.963 2176.28 160.518 Q2178.51 161.074 2180.98 161.074 Q2184.99 161.074 2187.33 158.967 Q2189.66 156.861 2189.66 153.25 Q2189.66 149.639 2187.33 147.532 Q2184.99 145.426 2180.98 145.426 Q2179.11 145.426 2177.23 145.842 Q2175.38 146.259 2173.44 147.139 L2173.44 129.778 Z" fill="#000000" fill-rule="evenodd" fill-opacity="1" /><path clip-path="url(#clip590)" d="M2238.21 143.389 Q2239.8 140.518 2242.02 139.153 Q2244.25 137.787 2247.26 137.787 Q2251.31 137.787 2253.51 140.634 Q2255.71 143.458 2255.71 148.689 L2255.71 164.338 L2251.42 164.338 L2251.42 148.828 Q2251.42 145.102 2250.1 143.296 Q2248.78 141.49 2246.08 141.49 Q2242.77 141.49 2240.84 143.69 Q2238.92 145.889 2238.92 149.685 L2238.92 164.338 L2234.64 164.338 L2234.64 148.828 Q2234.64 145.078 2233.32 143.296 Q2232 141.49 2229.25 141.49 Q2225.98 141.49 2224.06 143.713 Q2222.14 145.912 2222.14 149.685 L2222.14 164.338 L2217.86 164.338 L2217.86 138.412 L2222.14 138.412 L2222.14 142.44 Q2223.6 140.055 2225.64 138.921 Q2227.67 137.787 2230.47 137.787 Q2233.3 137.787 2235.27 139.222 Q2237.26 140.657 2238.21 143.389 Z" fill="#000000" fill-rule="evenodd" fill-opacity="1" /><path clip-path="url(#clip590)" d="
M1794.78 219.634 L1940.36 219.634 L1940.36 178.162 L1794.78 178.162 L1794.78 219.634  Z
  " fill="#e26f46" fill-rule="evenodd" fill-opacity="1"/>
<polyline clip-path="url(#clip590)" style="stroke:#000000; stroke-linecap:round; stroke-linejoin:round; stroke-width:4; stroke-opacity:1; fill:none" points="
  1794.78,219.634 1940.36,219.634 1940.36,178.162 1794.78,178.162 1794.78,219.634 
  "/>
<path clip-path="url(#clip590)" d="M1981.01 199.974 Q1982.51 200.483 1983.92 202.15 Q1985.36 203.817 1986.79 206.733 L1991.54 216.178 L1986.52 216.178 L1982.1 207.312 Q1980.38 203.84 1978.76 202.705 Q1977.17 201.571 1974.39 201.571 L1969.29 201.571 L1969.29 216.178 L1964.62 216.178 L1964.62 181.618 L1975.17 181.618 Q1981.1 181.618 1984.02 184.094 Q1986.93 186.571 1986.93 191.571 Q1986.93 194.835 1985.41 196.988 Q1983.9 199.141 1981.01 199.974 M1969.29 185.46 L1969.29 197.729 L1975.17 197.729 Q1978.55 197.729 1980.27 196.178 Q1982 194.604 1982 191.571 Q1982 188.539 1980.27 187.011 Q1978.55 185.46 1975.17 185.46 L1969.29 185.46 Z" fill="#000000" fill-rule="evenodd" fill-opacity="1" /><path clip-path="url(#clip590)" d="M2013 194.65 L2042.67 194.65 L2042.67 198.539 L2013 198.539 L2013 194.65 M2013 204.094 L2042.67 204.094 L2042.67 208.029 L2013 208.029 L2013 204.094 Z" fill="#000000" fill-rule="evenodd" fill-opacity="1" /><path clip-path="url(#clip590)" d="M2077.84 184.696 Q2074.22 184.696 2072.4 188.261 Q2070.59 191.803 2070.59 198.932 Q2070.59 206.039 2072.4 209.604 Q2074.22 213.145 2077.84 213.145 Q2081.47 213.145 2083.28 209.604 Q2085.1 206.039 2085.1 198.932 Q2085.1 191.803 2083.28 188.261 Q2081.47 184.696 2077.84 184.696 M2077.84 180.993 Q2083.65 180.993 2086.7 185.599 Q2089.78 190.182 2089.78 198.932 Q2089.78 207.659 2086.7 212.266 Q2083.65 216.849 2077.84 216.849 Q2072.03 216.849 2068.95 212.266 Q2065.89 207.659 2065.89 198.932 Q2065.89 190.182 2068.95 185.599 Q2072.03 180.993 2077.84 180.993 Z" fill="#000000" fill-rule="evenodd" fill-opacity="1" /><path clip-path="url(#clip590)" d="M2098 210.298 L2102.88 210.298 L2102.88 216.178 L2098 216.178 L2098 210.298 Z" fill="#000000" fill-rule="evenodd" fill-opacity="1" /><path clip-path="url(#clip590)" d="M2123.07 184.696 Q2119.46 184.696 2117.63 188.261 Q2115.82 191.803 2115.82 198.932 Q2115.82 206.039 2117.63 209.604 Q2119.46 213.145 2123.07 213.145 Q2126.7 213.145 2128.51 209.604 Q2130.34 206.039 2130.34 198.932 Q2130.34 191.803 2128.51 188.261 Q2126.7 184.696 2123.07 184.696 M2123.07 180.993 Q2128.88 180.993 2131.93 185.599 Q2135.01 190.182 2135.01 198.932 Q2135.01 207.659 2131.93 212.266 Q2128.88 216.849 2123.07 216.849 Q2117.26 216.849 2114.18 212.266 Q2111.12 207.659 2111.12 198.932 Q2111.12 190.182 2114.18 185.599 Q2117.26 180.993 2123.07 180.993 Z" fill="#000000" fill-rule="evenodd" fill-opacity="1" /><path clip-path="url(#clip590)" d="M2144.04 212.242 L2151.68 212.242 L2151.68 185.877 L2143.37 187.543 L2143.37 183.284 L2151.63 181.618 L2156.31 181.618 L2156.31 212.242 L2163.95 212.242 L2163.95 216.178 L2144.04 216.178 L2144.04 212.242 Z" fill="#000000" fill-rule="evenodd" fill-opacity="1" /><path clip-path="url(#clip590)" d="M2183.39 184.696 Q2179.78 184.696 2177.95 188.261 Q2176.15 191.803 2176.15 198.932 Q2176.15 206.039 2177.95 209.604 Q2179.78 213.145 2183.39 213.145 Q2187.03 213.145 2188.83 209.604 Q2190.66 206.039 2190.66 198.932 Q2190.66 191.803 2188.83 188.261 Q2187.03 184.696 2183.39 184.696 M2183.39 180.993 Q2189.2 180.993 2192.26 185.599 Q2195.34 190.182 2195.34 198.932 Q2195.34 207.659 2192.26 212.266 Q2189.2 216.849 2183.39 216.849 Q2177.58 216.849 2174.5 212.266 Q2171.45 207.659 2171.45 198.932 Q2171.45 190.182 2174.5 185.599 Q2177.58 180.993 2183.39 180.993 Z" fill="#000000" fill-rule="evenodd" fill-opacity="1" /><path clip-path="url(#clip590)" d="M2238.21 195.229 Q2239.8 192.358 2242.02 190.993 Q2244.25 189.627 2247.26 189.627 Q2251.31 189.627 2253.51 192.474 Q2255.71 195.298 2255.71 200.529 L2255.71 216.178 L2251.42 216.178 L2251.42 200.668 Q2251.42 196.942 2250.1 195.136 Q2248.78 193.33 2246.08 193.33 Q2242.77 193.33 2240.84 195.53 Q2238.92 197.729 2238.92 201.525 L2238.92 216.178 L2234.64 216.178 L2234.64 200.668 Q2234.64 196.918 2233.32 195.136 Q2232 193.33 2229.25 193.33 Q2225.98 193.33 2224.06 195.553 Q2222.14 197.752 2222.14 201.525 L2222.14 216.178 L2217.86 216.178 L2217.86 190.252 L2222.14 190.252 L2222.14 194.28 Q2223.6 191.895 2225.64 190.761 Q2227.67 189.627 2230.47 189.627 Q2233.3 189.627 2235.27 191.062 Q2237.26 192.497 2238.21 195.229 Z" fill="#000000" fill-rule="evenodd" fill-opacity="1" /></svg>
