<?xml version="1.0" encoding="utf-8"?>
<svg xmlns="http://www.w3.org/2000/svg" xmlns:xlink="http://www.w3.org/1999/xlink" width="600" height="400" viewBox="0 0 2400 1600">
<defs>
  <clipPath id="clip920">
    <rect x="0" y="0" width="2400" height="1600"/>
  </clipPath>
</defs>
<path clip-path="url(#clip920)" d="
M0 1600 L2400 1600 L2400 0 L0 0  Z
  " fill="#ffffff" fill-rule="evenodd" fill-opacity="1"/>
<defs>
  <clipPath id="clip921">
    <rect x="480" y="0" width="1681" height="1600"/>
  </clipPath>
</defs>
<path clip-path="url(#clip920)" d="
M169.121 686.448 L2352.76 686.448 L2352.76 47.2441 L169.121 47.2441  Z
  " fill="#ffffff" fill-rule="evenodd" fill-opacity="1"/>
<defs>
  <clipPath id="clip922">
    <rect x="169" y="47" width="2185" height="640"/>
  </clipPath>
</defs>
<polyline clip-path="url(#clip922)" style="stroke:#000000; stroke-linecap:butt; stroke-linejoin:round; stroke-width:2; stroke-opacity:0.1; fill:none" points="
  289.225,686.448 289.225,47.2441 
  "/>
<polyline clip-path="url(#clip922)" style="stroke:#000000; stroke-linecap:butt; stroke-linejoin:round; stroke-width:2; stroke-opacity:0.1; fill:none" points="
  721.098,686.448 721.098,47.2441 
  "/>
<polyline clip-path="url(#clip922)" style="stroke:#000000; stroke-linecap:butt; stroke-linejoin:round; stroke-width:2; stroke-opacity:0.1; fill:none" points="
  1152.97,686.448 1152.97,47.2441 
  "/>
<polyline clip-path="url(#clip922)" style="stroke:#000000; stroke-linecap:butt; stroke-linejoin:round; stroke-width:2; stroke-opacity:0.1; fill:none" points="
  1584.84,686.448 1584.84,47.2441 
  "/>
<polyline clip-path="url(#clip922)" style="stroke:#000000; stroke-linecap:butt; stroke-linejoin:round; stroke-width:2; stroke-opacity:0.1; fill:none" points="
  2016.72,686.448 2016.72,47.2441 
  "/>
<polyline clip-path="url(#clip920)" style="stroke:#000000; stroke-linecap:butt; stroke-linejoin:round; stroke-width:4; stroke-opacity:1; fill:none" points="
  169.121,686.448 2352.76,686.448 
  "/>
<polyline clip-path="url(#clip920)" style="stroke:#000000; stroke-linecap:butt; stroke-linejoin:round; stroke-width:4; stroke-opacity:1; fill:none" points="
  289.225,686.448 289.225,667.55 
  "/>
<polyline clip-path="url(#clip920)" style="stroke:#000000; stroke-linecap:butt; stroke-linejoin:round; stroke-width:4; stroke-opacity:1; fill:none" points="
  721.098,686.448 721.098,667.55 
  "/>
<polyline clip-path="url(#clip920)" style="stroke:#000000; stroke-linecap:butt; stroke-linejoin:round; stroke-width:4; stroke-opacity:1; fill:none" points="
  1152.97,686.448 1152.97,667.55 
  "/>
<polyline clip-path="url(#clip920)" style="stroke:#000000; stroke-linecap:butt; stroke-linejoin:round; stroke-width:4; stroke-opacity:1; fill:none" points="
  1584.84,686.448 1584.84,667.55 
  "/>
<polyline clip-path="url(#clip920)" style="stroke:#000000; stroke-linecap:butt; stroke-linejoin:round; stroke-width:4; stroke-opacity:1; fill:none" points="
  2016.72,686.448 2016.72,667.55 
  "/>
<path clip-path="url(#clip920)" d="M230.221 744.913 L246.54 744.913 L246.54 748.848 L224.596 748.848 L224.596 744.913 Q227.258 742.158 231.841 737.528 Q236.448 732.876 237.628 731.533 Q239.874 729.01 240.753 727.274 Q241.656 725.515 241.656 723.825 Q241.656 721.07 239.711 719.334 Q237.79 717.598 234.688 717.598 Q232.489 717.598 230.036 718.362 Q227.605 719.126 224.827 720.677 L224.827 715.955 Q227.651 714.82 230.105 714.242 Q232.559 713.663 234.596 713.663 Q239.966 713.663 243.161 716.348 Q246.355 719.033 246.355 723.524 Q246.355 725.654 245.545 727.575 Q244.758 729.473 242.651 732.066 Q242.073 732.737 238.971 735.954 Q235.869 739.149 230.221 744.913 Z" fill="#000000" fill-rule="evenodd" fill-opacity="1" /><path clip-path="url(#clip920)" d="M256.355 742.968 L261.239 742.968 L261.239 748.848 L256.355 748.848 L256.355 742.968 Z" fill="#000000" fill-rule="evenodd" fill-opacity="1" /><path clip-path="url(#clip920)" d="M282.003 729.704 Q278.855 729.704 277.003 731.857 Q275.174 734.01 275.174 737.76 Q275.174 741.487 277.003 743.663 Q278.855 745.815 282.003 745.815 Q285.151 745.815 286.98 743.663 Q288.832 741.487 288.832 737.76 Q288.832 734.01 286.98 731.857 Q285.151 729.704 282.003 729.704 M291.285 715.052 L291.285 719.311 Q289.526 718.478 287.72 718.038 Q285.938 717.598 284.179 717.598 Q279.549 717.598 277.096 720.723 Q274.665 723.848 274.318 730.167 Q275.684 728.154 277.744 727.089 Q279.804 726.001 282.281 726.001 Q287.489 726.001 290.498 729.172 Q293.531 732.32 293.531 737.76 Q293.531 743.084 290.383 746.302 Q287.234 749.519 282.003 749.519 Q276.008 749.519 272.836 744.936 Q269.665 740.329 269.665 731.603 Q269.665 723.408 273.554 718.547 Q277.443 713.663 283.994 713.663 Q285.753 713.663 287.535 714.01 Q289.341 714.357 291.285 715.052 Z" fill="#000000" fill-rule="evenodd" fill-opacity="1" /><path clip-path="url(#clip920)" d="M301.725 748.13 L301.725 743.871 Q303.484 744.704 305.29 745.144 Q307.095 745.584 308.831 745.584 Q313.461 745.584 315.892 742.482 Q318.345 739.357 318.693 733.015 Q317.35 735.005 315.29 736.07 Q313.23 737.135 310.73 737.135 Q305.544 737.135 302.512 734.01 Q299.503 730.862 299.503 725.422 Q299.503 720.098 302.651 716.88 Q305.799 713.663 311.031 713.663 Q317.026 713.663 320.174 718.269 Q323.345 722.853 323.345 731.603 Q323.345 739.774 319.456 744.658 Q315.591 749.519 309.04 749.519 Q307.281 749.519 305.475 749.172 Q303.669 748.825 301.725 748.13 M311.031 733.478 Q314.179 733.478 316.007 731.325 Q317.859 729.172 317.859 725.422 Q317.859 721.695 316.007 719.542 Q314.179 717.367 311.031 717.367 Q307.882 717.367 306.031 719.542 Q304.202 721.695 304.202 725.422 Q304.202 729.172 306.031 731.325 Q307.882 733.478 311.031 733.478 Z" fill="#000000" fill-rule="evenodd" fill-opacity="1" /><path clip-path="url(#clip920)" d="M342.327 729.704 Q339.179 729.704 337.327 731.857 Q335.498 734.01 335.498 737.76 Q335.498 741.487 337.327 743.663 Q339.179 745.815 342.327 745.815 Q345.475 745.815 347.303 743.663 Q349.155 741.487 349.155 737.76 Q349.155 734.01 347.303 731.857 Q345.475 729.704 342.327 729.704 M351.609 715.052 L351.609 719.311 Q349.85 718.478 348.044 718.038 Q346.262 717.598 344.503 717.598 Q339.873 717.598 337.419 720.723 Q334.989 723.848 334.642 730.167 Q336.007 728.154 338.067 727.089 Q340.128 726.001 342.604 726.001 Q347.813 726.001 350.822 729.172 Q353.854 732.32 353.854 737.76 Q353.854 743.084 350.706 746.302 Q347.558 749.519 342.327 749.519 Q336.331 749.519 333.16 744.936 Q329.989 740.329 329.989 731.603 Q329.989 723.408 333.878 718.547 Q337.767 713.663 344.317 713.663 Q346.077 713.663 347.859 714.01 Q349.665 714.357 351.609 715.052 Z" fill="#000000" fill-rule="evenodd" fill-opacity="1" /><path clip-path="url(#clip920)" d="M662.221 744.913 L678.54 744.913 L678.54 748.848 L656.596 748.848 L656.596 744.913 Q659.258 742.158 663.841 737.528 Q668.448 732.876 669.628 731.533 Q671.874 729.01 672.753 727.274 Q673.656 725.515 673.656 723.825 Q673.656 721.07 671.711 719.334 Q669.79 717.598 666.688 717.598 Q664.489 717.598 662.036 718.362 Q659.605 719.126 656.827 720.677 L656.827 715.955 Q659.651 714.82 662.105 714.242 Q664.559 713.663 666.596 713.663 Q671.966 713.663 675.161 716.348 Q678.355 719.033 678.355 723.524 Q678.355 725.654 677.545 727.575 Q676.758 729.473 674.651 732.066 Q674.073 732.737 670.971 735.954 Q667.869 739.149 662.221 744.913 Z" fill="#000000" fill-rule="evenodd" fill-opacity="1" /><path clip-path="url(#clip920)" d="M688.355 742.968 L693.239 742.968 L693.239 748.848 L688.355 748.848 L688.355 742.968 Z" fill="#000000" fill-rule="evenodd" fill-opacity="1" /><path clip-path="url(#clip920)" d="M714.003 729.704 Q710.855 729.704 709.003 731.857 Q707.174 734.01 707.174 737.76 Q707.174 741.487 709.003 743.663 Q710.855 745.815 714.003 745.815 Q717.151 745.815 718.98 743.663 Q720.832 741.487 720.832 737.76 Q720.832 734.01 718.98 731.857 Q717.151 729.704 714.003 729.704 M723.285 715.052 L723.285 719.311 Q721.526 718.478 719.72 718.038 Q717.938 717.598 716.179 717.598 Q711.549 717.598 709.096 720.723 Q706.665 723.848 706.318 730.167 Q707.683 728.154 709.744 727.089 Q711.804 726.001 714.281 726.001 Q719.489 726.001 722.498 729.172 Q725.531 732.32 725.531 737.76 Q725.531 743.084 722.382 746.302 Q719.234 749.519 714.003 749.519 Q708.008 749.519 704.836 744.936 Q701.665 740.329 701.665 731.603 Q701.665 723.408 705.554 718.547 Q709.443 713.663 715.994 713.663 Q717.753 713.663 719.535 714.01 Q721.341 714.357 723.285 715.052 Z" fill="#000000" fill-rule="evenodd" fill-opacity="1" /><path clip-path="url(#clip920)" d="M733.725 748.13 L733.725 743.871 Q735.484 744.704 737.29 745.144 Q739.095 745.584 740.831 745.584 Q745.461 745.584 747.892 742.482 Q750.345 739.357 750.693 733.015 Q749.35 735.005 747.29 736.07 Q745.23 737.135 742.73 737.135 Q737.544 737.135 734.512 734.01 Q731.503 730.862 731.503 725.422 Q731.503 720.098 734.651 716.88 Q737.799 713.663 743.031 713.663 Q749.026 713.663 752.174 718.269 Q755.345 722.853 755.345 731.603 Q755.345 739.774 751.456 744.658 Q747.591 749.519 741.04 749.519 Q739.281 749.519 737.475 749.172 Q735.669 748.825 733.725 748.13 M743.031 733.478 Q746.179 733.478 748.007 731.325 Q749.859 729.172 749.859 725.422 Q749.859 721.695 748.007 719.542 Q746.179 717.367 743.031 717.367 Q739.882 717.367 738.031 719.542 Q736.202 721.695 736.202 725.422 Q736.202 729.172 738.031 731.325 Q739.882 733.478 743.031 733.478 Z" fill="#000000" fill-rule="evenodd" fill-opacity="1" /><path clip-path="url(#clip920)" d="M773.748 732.436 Q770.415 732.436 768.493 734.218 Q766.595 736.001 766.595 739.126 Q766.595 742.251 768.493 744.033 Q770.415 745.815 773.748 745.815 Q777.081 745.815 779.003 744.033 Q780.924 742.228 780.924 739.126 Q780.924 736.001 779.003 734.218 Q777.104 732.436 773.748 732.436 M769.072 730.445 Q766.063 729.704 764.373 727.644 Q762.706 725.584 762.706 722.621 Q762.706 718.478 765.646 716.07 Q768.609 713.663 773.748 713.663 Q778.91 713.663 781.85 716.07 Q784.79 718.478 784.79 722.621 Q784.79 725.584 783.1 727.644 Q781.433 729.704 778.447 730.445 Q781.827 731.232 783.702 733.524 Q785.6 735.816 785.6 739.126 Q785.6 744.149 782.521 746.834 Q779.466 749.519 773.748 749.519 Q768.03 749.519 764.952 746.834 Q761.896 744.149 761.896 739.126 Q761.896 735.816 763.794 733.524 Q765.692 731.232 769.072 730.445 M767.359 723.061 Q767.359 725.746 769.026 727.251 Q770.716 728.755 773.748 728.755 Q776.757 728.755 778.447 727.251 Q780.16 725.746 780.16 723.061 Q780.16 720.376 778.447 718.871 Q776.757 717.367 773.748 717.367 Q770.716 717.367 769.026 718.871 Q767.359 720.376 767.359 723.061 Z" fill="#000000" fill-rule="evenodd" fill-opacity="1" /><path clip-path="url(#clip920)" d="M1094.05 744.913 L1110.37 744.913 L1110.37 748.848 L1088.42 748.848 L1088.42 744.913 Q1091.08 742.158 1095.67 737.528 Q1100.27 732.876 1101.45 731.533 Q1103.7 729.01 1104.58 727.274 Q1105.48 725.515 1105.48 723.825 Q1105.48 721.07 1103.54 719.334 Q1101.62 717.598 1098.51 717.598 Q1096.32 717.598 1093.86 718.362 Q1091.43 719.126 1088.65 720.677 L1088.65 715.955 Q1091.48 714.82 1093.93 714.242 Q1096.39 713.663 1098.42 713.663 Q1103.79 713.663 1106.99 716.348 Q1110.18 719.033 1110.18 723.524 Q1110.18 725.654 1109.37 727.575 Q1108.58 729.473 1106.48 732.066 Q1105.9 732.737 1102.8 735.954 Q1099.7 739.149 1094.05 744.913 Z" fill="#000000" fill-rule="evenodd" fill-opacity="1" /><path clip-path="url(#clip920)" d="M1120.18 742.968 L1125.07 742.968 L1125.07 748.848 L1120.18 748.848 L1120.18 742.968 Z" fill="#000000" fill-rule="evenodd" fill-opacity="1" /><path clip-path="url(#clip920)" d="M1134.07 714.288 L1156.29 714.288 L1156.29 716.279 L1143.75 748.848 L1138.86 748.848 L1150.67 718.223 L1134.07 718.223 L1134.07 714.288 Z" fill="#000000" fill-rule="evenodd" fill-opacity="1" /><path clip-path="url(#clip920)" d="M1175.41 717.367 Q1171.8 717.367 1169.97 720.931 Q1168.17 724.473 1168.17 731.603 Q1168.17 738.709 1169.97 742.274 Q1171.8 745.815 1175.41 745.815 Q1179.05 745.815 1180.85 742.274 Q1182.68 738.709 1182.68 731.603 Q1182.68 724.473 1180.85 720.931 Q1179.05 717.367 1175.41 717.367 M1175.41 713.663 Q1181.22 713.663 1184.28 718.269 Q1187.36 722.853 1187.36 731.603 Q1187.36 740.329 1184.28 744.936 Q1181.22 749.519 1175.41 749.519 Q1169.6 749.519 1166.52 744.936 Q1163.47 740.329 1163.47 731.603 Q1163.47 722.853 1166.52 718.269 Q1169.6 713.663 1175.41 713.663 Z" fill="#000000" fill-rule="evenodd" fill-opacity="1" /><path clip-path="url(#clip920)" d="M1205.57 717.367 Q1201.96 717.367 1200.13 720.931 Q1198.33 724.473 1198.33 731.603 Q1198.33 738.709 1200.13 742.274 Q1201.96 745.815 1205.57 745.815 Q1209.21 745.815 1211.01 742.274 Q1212.84 738.709 1212.84 731.603 Q1212.84 724.473 1211.01 720.931 Q1209.21 717.367 1205.57 717.367 M1205.57 713.663 Q1211.38 713.663 1214.44 718.269 Q1217.52 722.853 1217.52 731.603 Q1217.52 740.329 1214.44 744.936 Q1211.38 749.519 1205.57 749.519 Q1199.76 749.519 1196.69 744.936 Q1193.63 740.329 1193.63 731.603 Q1193.63 722.853 1196.69 718.269 Q1199.76 713.663 1205.57 713.663 Z" fill="#000000" fill-rule="evenodd" fill-opacity="1" /><path clip-path="url(#clip920)" d="M1526.72 744.913 L1543.04 744.913 L1543.04 748.848 L1521.09 748.848 L1521.09 744.913 Q1523.76 742.158 1528.34 737.528 Q1532.95 732.876 1534.13 731.533 Q1536.37 729.01 1537.25 727.274 Q1538.15 725.515 1538.15 723.825 Q1538.15 721.07 1536.21 719.334 Q1534.29 717.598 1531.19 717.598 Q1528.99 717.598 1526.53 718.362 Q1524.1 719.126 1521.32 720.677 L1521.32 715.955 Q1524.15 714.82 1526.6 714.242 Q1529.06 713.663 1531.09 713.663 Q1536.46 713.663 1539.66 716.348 Q1542.85 719.033 1542.85 723.524 Q1542.85 725.654 1542.04 727.575 Q1541.26 729.473 1539.15 732.066 Q1538.57 732.737 1535.47 735.954 Q1532.37 739.149 1526.72 744.913 Z" fill="#000000" fill-rule="evenodd" fill-opacity="1" /><path clip-path="url(#clip920)" d="M1552.85 742.968 L1557.74 742.968 L1557.74 748.848 L1552.85 748.848 L1552.85 742.968 Z" fill="#000000" fill-rule="evenodd" fill-opacity="1" /><path clip-path="url(#clip920)" d="M1566.74 714.288 L1588.96 714.288 L1588.96 716.279 L1576.42 748.848 L1571.53 748.848 L1583.34 718.223 L1566.74 718.223 L1566.74 714.288 Z" fill="#000000" fill-rule="evenodd" fill-opacity="1" /><path clip-path="url(#clip920)" d="M1608.08 717.367 Q1604.47 717.367 1602.64 720.931 Q1600.84 724.473 1600.84 731.603 Q1600.84 738.709 1602.64 742.274 Q1604.47 745.815 1608.08 745.815 Q1611.72 745.815 1613.52 742.274 Q1615.35 738.709 1615.35 731.603 Q1615.35 724.473 1613.52 720.931 Q1611.72 717.367 1608.08 717.367 M1608.08 713.663 Q1613.89 713.663 1616.95 718.269 Q1620.03 722.853 1620.03 731.603 Q1620.03 740.329 1616.95 744.936 Q1613.89 749.519 1608.08 749.519 Q1602.27 749.519 1599.19 744.936 Q1596.14 740.329 1596.14 731.603 Q1596.14 722.853 1599.19 718.269 Q1602.27 713.663 1608.08 713.663 Z" fill="#000000" fill-rule="evenodd" fill-opacity="1" /><path clip-path="url(#clip920)" d="M1632.27 744.913 L1648.59 744.913 L1648.59 748.848 L1626.65 748.848 L1626.65 744.913 Q1629.31 742.158 1633.89 737.528 Q1638.5 732.876 1639.68 731.533 Q1641.93 729.01 1642.81 727.274 Q1643.71 725.515 1643.71 723.825 Q1643.71 721.07 1641.76 719.334 Q1639.84 717.598 1636.74 717.598 Q1634.54 717.598 1632.09 718.362 Q1629.66 719.126 1626.88 720.677 L1626.88 715.955 Q1629.7 714.82 1632.16 714.242 Q1634.61 713.663 1636.65 713.663 Q1642.02 713.663 1645.21 716.348 Q1648.41 719.033 1648.41 723.524 Q1648.41 725.654 1647.6 727.575 Q1646.81 729.473 1644.7 732.066 Q1644.13 732.737 1641.02 735.954 Q1637.92 739.149 1632.27 744.913 Z" fill="#000000" fill-rule="evenodd" fill-opacity="1" /><path clip-path="url(#clip920)" d="M1957.55 744.913 L1973.87 744.913 L1973.87 748.848 L1951.92 748.848 L1951.92 744.913 Q1954.59 742.158 1959.17 737.528 Q1963.78 732.876 1964.96 731.533 Q1967.2 729.01 1968.08 727.274 Q1968.98 725.515 1968.98 723.825 Q1968.98 721.07 1967.04 719.334 Q1965.12 717.598 1962.02 717.598 Q1959.82 717.598 1957.36 718.362 Q1954.93 719.126 1952.16 720.677 L1952.16 715.955 Q1954.98 714.82 1957.43 714.242 Q1959.89 713.663 1961.92 713.663 Q1967.29 713.663 1970.49 716.348 Q1973.68 719.033 1973.68 723.524 Q1973.68 725.654 1972.87 727.575 Q1972.09 729.473 1969.98 732.066 Q1969.4 732.737 1966.3 735.954 Q1963.2 739.149 1957.55 744.913 Z" fill="#000000" fill-rule="evenodd" fill-opacity="1" /><path clip-path="url(#clip920)" d="M1983.68 742.968 L1988.57 742.968 L1988.57 748.848 L1983.68 748.848 L1983.68 742.968 Z" fill="#000000" fill-rule="evenodd" fill-opacity="1" /><path clip-path="url(#clip920)" d="M1997.57 714.288 L2019.79 714.288 L2019.79 716.279 L2007.25 748.848 L2002.36 748.848 L2014.17 718.223 L1997.57 718.223 L1997.57 714.288 Z" fill="#000000" fill-rule="evenodd" fill-opacity="1" /><path clip-path="url(#clip920)" d="M2038.91 717.367 Q2035.3 717.367 2033.47 720.931 Q2031.67 724.473 2031.67 731.603 Q2031.67 738.709 2033.47 742.274 Q2035.3 745.815 2038.91 745.815 Q2042.55 745.815 2044.35 742.274 Q2046.18 738.709 2046.18 731.603 Q2046.18 724.473 2044.35 720.931 Q2042.55 717.367 2038.91 717.367 M2038.91 713.663 Q2044.72 713.663 2047.78 718.269 Q2050.86 722.853 2050.86 731.603 Q2050.86 740.329 2047.78 744.936 Q2044.72 749.519 2038.91 749.519 Q2033.1 749.519 2030.03 744.936 Q2026.97 740.329 2026.97 731.603 Q2026.97 722.853 2030.03 718.269 Q2033.1 713.663 2038.91 713.663 Z" fill="#000000" fill-rule="evenodd" fill-opacity="1" /><path clip-path="url(#clip920)" d="M2071.92 718.362 L2060.12 736.811 L2071.92 736.811 L2071.92 718.362 M2070.7 714.288 L2076.58 714.288 L2076.58 736.811 L2081.51 736.811 L2081.51 740.7 L2076.58 740.7 L2076.58 748.848 L2071.92 748.848 L2071.92 740.7 L2056.32 740.7 L2056.32 736.186 L2070.7 714.288 Z" fill="#000000" fill-rule="evenodd" fill-opacity="1" /><polyline clip-path="url(#clip922)" style="stroke:#000000; stroke-linecap:butt; stroke-linejoin:round; stroke-width:2; stroke-opacity:0.1; fill:none" points="
  169.121,668.357 2352.76,668.357 
  "/>
<polyline clip-path="url(#clip922)" style="stroke:#000000; stroke-linecap:butt; stroke-linejoin:round; stroke-width:2; stroke-opacity:0.1; fill:none" points="
  169.121,466.001 2352.76,466.001 
  "/>
<polyline clip-path="url(#clip922)" style="stroke:#000000; stroke-linecap:butt; stroke-linejoin:round; stroke-width:2; stroke-opacity:0.1; fill:none" points="
  169.121,263.644 2352.76,263.644 
  "/>
<polyline clip-path="url(#clip922)" style="stroke:#000000; stroke-linecap:butt; stroke-linejoin:round; stroke-width:2; stroke-opacity:0.1; fill:none" points="
  169.121,61.2876 2352.76,61.2876 
  "/>
<polyline clip-path="url(#clip920)" style="stroke:#000000; stroke-linecap:butt; stroke-linejoin:round; stroke-width:4; stroke-opacity:1; fill:none" points="
  169.121,686.448 169.121,47.2441 
  "/>
<polyline clip-path="url(#clip920)" style="stroke:#000000; stroke-linecap:butt; stroke-linejoin:round; stroke-width:4; stroke-opacity:1; fill:none" points="
  169.121,668.357 188.019,668.357 
  "/>
<polyline clip-path="url(#clip920)" style="stroke:#000000; stroke-linecap:butt; stroke-linejoin:round; stroke-width:4; stroke-opacity:1; fill:none" points="
  169.121,466.001 188.019,466.001 
  "/>
<polyline clip-path="url(#clip920)" style="stroke:#000000; stroke-linecap:butt; stroke-linejoin:round; stroke-width:4; stroke-opacity:1; fill:none" points="
  169.121,263.644 188.019,263.644 
  "/>
<polyline clip-path="url(#clip920)" style="stroke:#000000; stroke-linecap:butt; stroke-linejoin:round; stroke-width:4; stroke-opacity:1; fill:none" points="
  169.121,61.2876 188.019,61.2876 
  "/>
<path clip-path="url(#clip920)" d="M121.177 654.156 Q117.566 654.156 115.737 657.721 Q113.932 661.262 113.932 668.392 Q113.932 675.498 115.737 679.063 Q117.566 682.605 121.177 682.605 Q124.811 682.605 126.617 679.063 Q128.445 675.498 128.445 668.392 Q128.445 661.262 126.617 657.721 Q124.811 654.156 121.177 654.156 M121.177 650.452 Q126.987 650.452 130.043 655.059 Q133.121 659.642 133.121 668.392 Q133.121 677.119 130.043 681.725 Q126.987 686.308 121.177 686.308 Q115.367 686.308 112.288 681.725 Q109.233 677.119 109.233 668.392 Q109.233 659.642 112.288 655.059 Q115.367 650.452 121.177 650.452 Z" fill="#000000" fill-rule="evenodd" fill-opacity="1" /><path clip-path="url(#clip920)" d="M81.0614 448.721 L99.4178 448.721 L99.4178 452.656 L85.3438 452.656 L85.3438 461.128 Q86.3623 460.781 87.3808 460.619 Q88.3993 460.434 89.4178 460.434 Q95.2049 460.434 98.5845 463.605 Q101.964 466.776 101.964 472.193 Q101.964 477.771 98.4919 480.873 Q95.0197 483.952 88.7003 483.952 Q86.5243 483.952 84.2558 483.582 Q82.0105 483.211 79.6031 482.47 L79.6031 477.771 Q81.6864 478.906 83.9086 479.461 Q86.1308 480.017 88.6077 480.017 Q92.6123 480.017 94.9502 477.91 Q97.2882 475.804 97.2882 472.193 Q97.2882 468.582 94.9502 466.475 Q92.6123 464.369 88.6077 464.369 Q86.7327 464.369 84.8577 464.785 Q83.0058 465.202 81.0614 466.082 L81.0614 448.721 Z" fill="#000000" fill-rule="evenodd" fill-opacity="1" /><path clip-path="url(#clip920)" d="M121.177 451.799 Q117.566 451.799 115.737 455.364 Q113.932 458.906 113.932 466.035 Q113.932 473.142 115.737 476.707 Q117.566 480.248 121.177 480.248 Q124.811 480.248 126.617 476.707 Q128.445 473.142 128.445 466.035 Q128.445 458.906 126.617 455.364 Q124.811 451.799 121.177 451.799 M121.177 448.096 Q126.987 448.096 130.043 452.702 Q133.121 457.285 133.121 466.035 Q133.121 474.762 130.043 479.369 Q126.987 483.952 121.177 483.952 Q115.367 483.952 112.288 479.369 Q109.233 474.762 109.233 466.035 Q109.233 457.285 112.288 452.702 Q115.367 448.096 121.177 448.096 Z" fill="#000000" fill-rule="evenodd" fill-opacity="1" /><path clip-path="url(#clip920)" d="M51.6634 276.989 L59.3023 276.989 L59.3023 250.623 L50.9921 252.29 L50.9921 248.031 L59.256 246.364 L63.9319 246.364 L63.9319 276.989 L71.5707 276.989 L71.5707 280.924 L51.6634 280.924 L51.6634 276.989 Z" fill="#000000" fill-rule="evenodd" fill-opacity="1" /><path clip-path="url(#clip920)" d="M91.0151 249.443 Q87.404 249.443 85.5753 253.008 Q83.7697 256.549 83.7697 263.679 Q83.7697 270.785 85.5753 274.35 Q87.404 277.892 91.0151 277.892 Q94.6493 277.892 96.4548 274.35 Q98.2835 270.785 98.2835 263.679 Q98.2835 256.549 96.4548 253.008 Q94.6493 249.443 91.0151 249.443 M91.0151 245.739 Q96.8252 245.739 99.8808 250.346 Q102.959 254.929 102.959 263.679 Q102.959 272.406 99.8808 277.012 Q96.8252 281.595 91.0151 281.595 Q85.2049 281.595 82.1262 277.012 Q79.0707 272.406 79.0707 263.679 Q79.0707 254.929 82.1262 250.346 Q85.2049 245.739 91.0151 245.739 Z" fill="#000000" fill-rule="evenodd" fill-opacity="1" /><path clip-path="url(#clip920)" d="M121.177 249.443 Q117.566 249.443 115.737 253.008 Q113.932 256.549 113.932 263.679 Q113.932 270.785 115.737 274.35 Q117.566 277.892 121.177 277.892 Q124.811 277.892 126.617 274.35 Q128.445 270.785 128.445 263.679 Q128.445 256.549 126.617 253.008 Q124.811 249.443 121.177 249.443 M121.177 245.739 Q126.987 245.739 130.043 250.346 Q133.121 254.929 133.121 263.679 Q133.121 272.406 130.043 277.012 Q126.987 281.595 121.177 281.595 Q115.367 281.595 112.288 277.012 Q109.233 272.406 109.233 263.679 Q109.233 254.929 112.288 250.346 Q115.367 245.739 121.177 245.739 Z" fill="#000000" fill-rule="evenodd" fill-opacity="1" /><path clip-path="url(#clip920)" d="M51.6634 74.6325 L59.3023 74.6325 L59.3023 48.2669 L50.9921 49.9335 L50.9921 45.6743 L59.256 44.0076 L63.9319 44.0076 L63.9319 74.6325 L71.5707 74.6325 L71.5707 78.5676 L51.6634 78.5676 L51.6634 74.6325 Z" fill="#000000" fill-rule="evenodd" fill-opacity="1" /><path clip-path="url(#clip920)" d="M81.0614 44.0076 L99.4178 44.0076 L99.4178 47.9428 L85.3438 47.9428 L85.3438 56.415 Q86.3623 56.0678 87.3808 55.9057 Q88.3993 55.7205 89.4178 55.7205 Q95.2049 55.7205 98.5845 58.8918 Q101.964 62.0631 101.964 67.4797 Q101.964 73.0584 98.4919 76.1602 Q95.0197 79.2389 88.7003 79.2389 Q86.5243 79.2389 84.2558 78.8686 Q82.0105 78.4982 79.6031 77.7575 L79.6031 73.0584 Q81.6864 74.1927 83.9086 74.7482 Q86.1308 75.3038 88.6077 75.3038 Q92.6123 75.3038 94.9502 73.1973 Q97.2882 71.0908 97.2882 67.4797 Q97.2882 63.8686 94.9502 61.7622 Q92.6123 59.6557 88.6077 59.6557 Q86.7327 59.6557 84.8577 60.0724 Q83.0058 60.489 81.0614 61.3687 L81.0614 44.0076 Z" fill="#000000" fill-rule="evenodd" fill-opacity="1" /><path clip-path="url(#clip920)" d="M121.177 47.0863 Q117.566 47.0863 115.737 50.6511 Q113.932 54.1928 113.932 61.3224 Q113.932 68.4288 115.737 71.9936 Q117.566 75.5352 121.177 75.5352 Q124.811 75.5352 126.617 71.9936 Q128.445 68.4288 128.445 61.3224 Q128.445 54.1928 126.617 50.6511 Q124.811 47.0863 121.177 47.0863 M121.177 43.3826 Q126.987 43.3826 130.043 47.9891 Q133.121 52.5724 133.121 61.3224 Q133.121 70.0492 130.043 74.6556 Q126.987 79.2389 121.177 79.2389 Q115.367 79.2389 112.288 74.6556 Q109.233 70.0492 109.233 61.3224 Q109.233 52.5724 112.288 47.9891 Q115.367 43.3826 121.177 43.3826 Z" fill="#000000" fill-rule="evenodd" fill-opacity="1" /><path clip-path="url(#clip922)" d="
M289.225 660.263 L289.225 668.357 L397.193 668.357 L397.193 660.263 L289.225 660.263 L289.225 660.263  Z
  " fill="#009af9" fill-rule="evenodd" fill-opacity="1"/>
<polyline clip-path="url(#clip922)" style="stroke:#000000; stroke-linecap:butt; stroke-linejoin:round; stroke-width:4; stroke-opacity:1; fill:none" points="
  289.225,660.263 289.225,668.357 397.193,668.357 397.193,660.263 289.225,660.263 
  "/>
<path clip-path="url(#clip922)" d="
M397.193 631.933 L397.193 668.357 L505.161 668.357 L505.161 631.933 L397.193 631.933 L397.193 631.933  Z
  " fill="#009af9" fill-rule="evenodd" fill-opacity="1"/>
<polyline clip-path="url(#clip922)" style="stroke:#000000; stroke-linecap:butt; stroke-linejoin:round; stroke-width:4; stroke-opacity:1; fill:none" points="
  397.193,631.933 397.193,668.357 505.161,668.357 505.161,631.933 397.193,631.933 
  "/>
<path clip-path="url(#clip922)" d="
M505.161 599.556 L505.161 668.357 L613.13 668.357 L613.13 599.556 L505.161 599.556 L505.161 599.556  Z
  " fill="#009af9" fill-rule="evenodd" fill-opacity="1"/>
<polyline clip-path="url(#clip922)" style="stroke:#000000; stroke-linecap:butt; stroke-linejoin:round; stroke-width:4; stroke-opacity:1; fill:none" points="
  505.161,599.556 505.161,668.357 613.13,668.357 613.13,599.556 505.161,599.556 
  "/>
<path clip-path="url(#clip922)" d="
M613.13 534.802 L613.13 668.357 L721.098 668.357 L721.098 534.802 L613.13 534.802 L613.13 534.802  Z
  " fill="#009af9" fill-rule="evenodd" fill-opacity="1"/>
<polyline clip-path="url(#clip922)" style="stroke:#000000; stroke-linecap:butt; stroke-linejoin:round; stroke-width:4; stroke-opacity:1; fill:none" points="
  613.13,534.802 613.13,668.357 721.098,668.357 721.098,534.802 613.13,534.802 
  "/>
<path clip-path="url(#clip922)" d="
M721.098 413.388 L721.098 668.357 L829.066 668.357 L829.066 413.388 L721.098 413.388 L721.098 413.388  Z
  " fill="#009af9" fill-rule="evenodd" fill-opacity="1"/>
<polyline clip-path="url(#clip922)" style="stroke:#000000; stroke-linecap:butt; stroke-linejoin:round; stroke-width:4; stroke-opacity:1; fill:none" points="
  721.098,413.388 721.098,668.357 829.066,668.357 829.066,413.388 721.098,413.388 
  "/>
<path clip-path="url(#clip922)" d="
M829.066 279.833 L829.066 668.357 L937.034 668.357 L937.034 279.833 L829.066 279.833 L829.066 279.833  Z
  " fill="#009af9" fill-rule="evenodd" fill-opacity="1"/>
<polyline clip-path="url(#clip922)" style="stroke:#000000; stroke-linecap:butt; stroke-linejoin:round; stroke-width:4; stroke-opacity:1; fill:none" points="
  829.066,279.833 829.066,668.357 937.034,668.357 937.034,279.833 829.066,279.833 
  "/>
<path clip-path="url(#clip922)" d="
M937.034 170.56 L937.034 668.357 L1045 668.357 L1045 170.56 L937.034 170.56 L937.034 170.56  Z
  " fill="#009af9" fill-rule="evenodd" fill-opacity="1"/>
<polyline clip-path="url(#clip922)" style="stroke:#000000; stroke-linecap:butt; stroke-linejoin:round; stroke-width:4; stroke-opacity:1; fill:none" points="
  937.034,170.56 937.034,668.357 1045,668.357 1045,170.56 937.034,170.56 
  "/>
<path clip-path="url(#clip922)" d="
M1045 89.6176 L1045 668.357 L1152.97 668.357 L1152.97 89.6176 L1045 89.6176 L1045 89.6176  Z
  " fill="#009af9" fill-rule="evenodd" fill-opacity="1"/>
<polyline clip-path="url(#clip922)" style="stroke:#000000; stroke-linecap:butt; stroke-linejoin:round; stroke-width:4; stroke-opacity:1; fill:none" points="
  1045,89.6176 1045,668.357 1152.97,668.357 1152.97,89.6176 1045,89.6176 
  "/>
<path clip-path="url(#clip922)" d="
M1152.97 65.3348 L1152.97 668.357 L1260.94 668.357 L1260.94 65.3348 L1152.97 65.3348 L1152.97 65.3348  Z
  " fill="#009af9" fill-rule="evenodd" fill-opacity="1"/>
<polyline clip-path="url(#clip922)" style="stroke:#000000; stroke-linecap:butt; stroke-linejoin:round; stroke-width:4; stroke-opacity:1; fill:none" points="
  1152.97,65.3348 1152.97,668.357 1260.94,668.357 1260.94,65.3348 1152.97,65.3348 
  "/>
<path clip-path="url(#clip922)" d="
M1260.94 142.23 L1260.94 668.357 L1368.91 668.357 L1368.91 142.23 L1260.94 142.23 L1260.94 142.23  Z
  " fill="#009af9" fill-rule="evenodd" fill-opacity="1"/>
<polyline clip-path="url(#clip922)" style="stroke:#000000; stroke-linecap:butt; stroke-linejoin:round; stroke-width:4; stroke-opacity:1; fill:none" points="
  1260.94,142.23 1260.94,668.357 1368.91,668.357 1368.91,142.23 1260.94,142.23 
  "/>
<path clip-path="url(#clip922)" d="
M1368.91 263.644 L1368.91 668.357 L1476.87 668.357 L1476.87 263.644 L1368.91 263.644 L1368.91 263.644  Z
  " fill="#009af9" fill-rule="evenodd" fill-opacity="1"/>
<polyline clip-path="url(#clip922)" style="stroke:#000000; stroke-linecap:butt; stroke-linejoin:round; stroke-width:4; stroke-opacity:1; fill:none" points="
  1368.91,263.644 1368.91,668.357 1476.87,668.357 1476.87,263.644 1368.91,263.644 
  "/>
<path clip-path="url(#clip922)" d="
M1476.87 389.105 L1476.87 668.357 L1584.84 668.357 L1584.84 389.105 L1476.87 389.105 L1476.87 389.105  Z
  " fill="#009af9" fill-rule="evenodd" fill-opacity="1"/>
<polyline clip-path="url(#clip922)" style="stroke:#000000; stroke-linecap:butt; stroke-linejoin:round; stroke-width:4; stroke-opacity:1; fill:none" points="
  1476.87,389.105 1476.87,668.357 1584.84,668.357 1584.84,389.105 1476.87,389.105 
  "/>
<path clip-path="url(#clip922)" d="
M1584.84 518.613 L1584.84 668.357 L1692.81 668.357 L1692.81 518.613 L1584.84 518.613 L1584.84 518.613  Z
  " fill="#009af9" fill-rule="evenodd" fill-opacity="1"/>
<polyline clip-path="url(#clip922)" style="stroke:#000000; stroke-linecap:butt; stroke-linejoin:round; stroke-width:4; stroke-opacity:1; fill:none" points="
  1584.84,518.613 1584.84,668.357 1692.81,668.357 1692.81,518.613 1584.84,518.613 
  "/>
<path clip-path="url(#clip922)" d="
M1692.81 603.603 L1692.81 668.357 L1800.78 668.357 L1800.78 603.603 L1692.81 603.603 L1692.81 603.603  Z
  " fill="#009af9" fill-rule="evenodd" fill-opacity="1"/>
<polyline clip-path="url(#clip922)" style="stroke:#000000; stroke-linecap:butt; stroke-linejoin:round; stroke-width:4; stroke-opacity:1; fill:none" points="
  1692.81,603.603 1692.81,668.357 1800.78,668.357 1800.78,603.603 1692.81,603.603 
  "/>
<path clip-path="url(#clip922)" d="
M1800.78 652.169 L1800.78 668.357 L1908.75 668.357 L1908.75 652.169 L1800.78 652.169 L1800.78 652.169  Z
  " fill="#009af9" fill-rule="evenodd" fill-opacity="1"/>
<polyline clip-path="url(#clip922)" style="stroke:#000000; stroke-linecap:butt; stroke-linejoin:round; stroke-width:4; stroke-opacity:1; fill:none" points="
  1800.78,652.169 1800.78,668.357 1908.75,668.357 1908.75,652.169 1800.78,652.169 
  "/>
<path clip-path="url(#clip922)" d="
M1908.75 644.074 L1908.75 668.357 L2016.72 668.357 L2016.72 644.074 L1908.75 644.074 L1908.75 644.074  Z
  " fill="#009af9" fill-rule="evenodd" fill-opacity="1"/>
<polyline clip-path="url(#clip922)" style="stroke:#000000; stroke-linecap:butt; stroke-linejoin:round; stroke-width:4; stroke-opacity:1; fill:none" points="
  1908.75,644.074 1908.75,668.357 2016.72,668.357 2016.72,644.074 1908.75,644.074 
  "/>
<path clip-path="url(#clip922)" d="
M2016.72 664.31 L2016.72 668.357 L2124.68 668.357 L2124.68 664.31 L2016.72 664.31 L2016.72 664.31  Z
  " fill="#009af9" fill-rule="evenodd" fill-opacity="1"/>
<polyline clip-path="url(#clip922)" style="stroke:#000000; stroke-linecap:butt; stroke-linejoin:round; stroke-width:4; stroke-opacity:1; fill:none" points="
  2016.72,664.31 2016.72,668.357 2124.68,668.357 2124.68,664.31 2016.72,664.31 
  "/>
<path clip-path="url(#clip922)" d="
M2124.68 660.263 L2124.68 668.357 L2232.65 668.357 L2232.65 660.263 L2124.68 660.263 L2124.68 660.263  Z
  " fill="#009af9" fill-rule="evenodd" fill-opacity="1"/>
<polyline clip-path="url(#clip922)" style="stroke:#000000; stroke-linecap:butt; stroke-linejoin:round; stroke-width:4; stroke-opacity:1; fill:none" points="
  2124.68,660.263 2124.68,668.357 2232.65,668.357 2232.65,660.263 2124.68,660.263 
  "/>
<circle clip-path="url(#clip922)" style="fill:#009af9; stroke:none; fill-opacity:0" cx="343.209" cy="660.263" r="2"/>
<circle clip-path="url(#clip922)" style="fill:#009af9; stroke:none; fill-opacity:0" cx="451.177" cy="631.933" r="2"/>
<circle clip-path="url(#clip922)" style="fill:#009af9; stroke:none; fill-opacity:0" cx="559.146" cy="599.556" r="2"/>
<circle clip-path="url(#clip922)" style="fill:#009af9; stroke:none; fill-opacity:0" cx="667.114" cy="534.802" r="2"/>
<circle clip-path="url(#clip922)" style="fill:#009af9; stroke:none; fill-opacity:0" cx="775.082" cy="413.388" r="2"/>
<circle clip-path="url(#clip922)" style="fill:#009af9; stroke:none; fill-opacity:0" cx="883.05" cy="279.833" r="2"/>
<circle clip-path="url(#clip922)" style="fill:#009af9; stroke:none; fill-opacity:0" cx="991.018" cy="170.56" r="2"/>
<circle clip-path="url(#clip922)" style="fill:#009af9; stroke:none; fill-opacity:0" cx="1098.99" cy="89.6176" r="2"/>
<circle clip-path="url(#clip922)" style="fill:#009af9; stroke:none; fill-opacity:0" cx="1206.95" cy="65.3348" r="2"/>
<circle clip-path="url(#clip922)" style="fill:#009af9; stroke:none; fill-opacity:0" cx="1314.92" cy="142.23" r="2"/>
<circle clip-path="url(#clip922)" style="fill:#009af9; stroke:none; fill-opacity:0" cx="1422.89" cy="263.644" r="2"/>
<circle clip-path="url(#clip922)" style="fill:#009af9; stroke:none; fill-opacity:0" cx="1530.86" cy="389.105" r="2"/>
<circle clip-path="url(#clip922)" style="fill:#009af9; stroke:none; fill-opacity:0" cx="1638.83" cy="518.613" r="2"/>
<circle clip-path="url(#clip922)" style="fill:#009af9; stroke:none; fill-opacity:0" cx="1746.8" cy="603.603" r="2"/>
<circle clip-path="url(#clip922)" style="fill:#009af9; stroke:none; fill-opacity:0" cx="1854.76" cy="652.169" r="2"/>
<circle clip-path="url(#clip922)" style="fill:#009af9; stroke:none; fill-opacity:0" cx="1962.73" cy="644.074" r="2"/>
<circle clip-path="url(#clip922)" style="fill:#009af9; stroke:none; fill-opacity:0" cx="2070.7" cy="664.31" r="2"/>
<circle clip-path="url(#clip922)" style="fill:#009af9; stroke:none; fill-opacity:0" cx="2178.67" cy="660.263" r="2"/>
<path clip-path="url(#clip920)" d="
M2005.68 172.231 L2279.97 172.231 L2279.97 68.5509 L2005.68 68.5509  Z
  " fill="#ffffff" fill-rule="evenodd" fill-opacity="1"/>
<polyline clip-path="url(#clip920)" style="stroke:#000000; stroke-linecap:butt; stroke-linejoin:round; stroke-width:4; stroke-opacity:1; fill:none" points="
  2005.68,172.231 2279.97,172.231 2279.97,68.5509 2005.68,68.5509 2005.68,172.231 
  "/>
<path clip-path="url(#clip920)" d="
M2029.94 141.127 L2175.51 141.127 L2175.51 99.6549 L2029.94 99.6549 L2029.94 141.127  Z
  " fill="#009af9" fill-rule="evenodd" fill-opacity="1"/>
<polyline clip-path="url(#clip920)" style="stroke:#000000; stroke-linecap:butt; stroke-linejoin:round; stroke-width:4; stroke-opacity:1; fill:none" points="
  2029.94,141.127 2175.51,141.127 2175.51,99.6549 2029.94,99.6549 2029.94,141.127 
  "/>
<path clip-path="url(#clip920)" d="M2215.61 107.717 L2209.27 124.916 L2221.98 124.916 L2215.61 107.717 M2212.97 103.111 L2218.27 103.111 L2231.44 137.671 L2226.58 137.671 L2223.43 128.805 L2207.86 128.805 L2204.71 137.671 L2199.78 137.671 L2212.97 103.111 Z" fill="#000000" fill-rule="evenodd" fill-opacity="1" /><path clip-path="url(#clip920)" d="
M169.121 1486.45 L2352.76 1486.45 L2352.76 847.244 L169.121 847.244  Z
  " fill="#ffffff" fill-rule="evenodd" fill-opacity="1"/>
<defs>
  <clipPath id="clip923">
    <rect x="169" y="847" width="2185" height="640"/>
  </clipPath>
</defs>
<polyline clip-path="url(#clip923)" style="stroke:#000000; stroke-linecap:butt; stroke-linejoin:round; stroke-width:2; stroke-opacity:0.1; fill:none" points="
  532.153,1486.45 532.153,847.244 
  "/>
<polyline clip-path="url(#clip923)" style="stroke:#000000; stroke-linecap:butt; stroke-linejoin:round; stroke-width:2; stroke-opacity:0.1; fill:none" points="
  896.546,1486.45 896.546,847.244 
  "/>
<polyline clip-path="url(#clip923)" style="stroke:#000000; stroke-linecap:butt; stroke-linejoin:round; stroke-width:2; stroke-opacity:0.1; fill:none" points="
  1260.94,1486.45 1260.94,847.244 
  "/>
<polyline clip-path="url(#clip923)" style="stroke:#000000; stroke-linecap:butt; stroke-linejoin:round; stroke-width:2; stroke-opacity:0.1; fill:none" points="
  1625.33,1486.45 1625.33,847.244 
  "/>
<polyline clip-path="url(#clip923)" style="stroke:#000000; stroke-linecap:butt; stroke-linejoin:round; stroke-width:2; stroke-opacity:0.1; fill:none" points="
  1989.72,1486.45 1989.72,847.244 
  "/>
<polyline clip-path="url(#clip920)" style="stroke:#000000; stroke-linecap:butt; stroke-linejoin:round; stroke-width:4; stroke-opacity:1; fill:none" points="
  169.121,1486.45 2352.76,1486.45 
  "/>
<polyline clip-path="url(#clip920)" style="stroke:#000000; stroke-linecap:butt; stroke-linejoin:round; stroke-width:4; stroke-opacity:1; fill:none" points="
  532.153,1486.45 532.153,1467.55 
  "/>
<polyline clip-path="url(#clip920)" style="stroke:#000000; stroke-linecap:butt; stroke-linejoin:round; stroke-width:4; stroke-opacity:1; fill:none" points="
  896.546,1486.45 896.546,1467.55 
  "/>
<polyline clip-path="url(#clip920)" style="stroke:#000000; stroke-linecap:butt; stroke-linejoin:round; stroke-width:4; stroke-opacity:1; fill:none" points="
  1260.94,1486.45 1260.94,1467.55 
  "/>
<polyline clip-path="url(#clip920)" style="stroke:#000000; stroke-linecap:butt; stroke-linejoin:round; stroke-width:4; stroke-opacity:1; fill:none" points="
  1625.33,1486.45 1625.33,1467.55 
  "/>
<polyline clip-path="url(#clip920)" style="stroke:#000000; stroke-linecap:butt; stroke-linejoin:round; stroke-width:4; stroke-opacity:1; fill:none" points="
  1989.72,1486.45 1989.72,1467.55 
  "/>
<path clip-path="url(#clip920)" d="M483.994 1514.29 L502.35 1514.29 L502.35 1518.22 L488.276 1518.22 L488.276 1526.7 Q489.295 1526.35 490.313 1526.19 Q491.332 1526 492.35 1526 Q498.137 1526 501.517 1529.17 Q504.897 1532.34 504.897 1537.76 Q504.897 1543.34 501.424 1546.44 Q497.952 1549.52 491.633 1549.52 Q489.457 1549.52 487.188 1549.15 Q484.943 1548.78 482.536 1548.04 L482.536 1543.34 Q484.619 1544.47 486.841 1545.03 Q489.063 1545.58 491.54 1545.58 Q495.545 1545.58 497.883 1543.48 Q500.221 1541.37 500.221 1537.76 Q500.221 1534.15 497.883 1532.04 Q495.545 1529.94 491.54 1529.94 Q489.665 1529.94 487.79 1530.35 Q485.938 1530.77 483.994 1531.65 L483.994 1514.29 Z" fill="#000000" fill-rule="evenodd" fill-opacity="1" /><path clip-path="url(#clip920)" d="M514.11 1542.97 L518.994 1542.97 L518.994 1548.85 L514.11 1548.85 L514.11 1542.97 Z" fill="#000000" fill-rule="evenodd" fill-opacity="1" /><path clip-path="url(#clip920)" d="M529.318 1548.13 L529.318 1543.87 Q531.077 1544.7 532.883 1545.14 Q534.688 1545.58 536.424 1545.58 Q541.054 1545.58 543.484 1542.48 Q545.938 1539.36 546.285 1533.01 Q544.943 1535.01 542.883 1536.07 Q540.822 1537.13 538.322 1537.13 Q533.137 1537.13 530.105 1534.01 Q527.096 1530.86 527.096 1525.42 Q527.096 1520.1 530.244 1516.88 Q533.392 1513.66 538.623 1513.66 Q544.619 1513.66 547.767 1518.27 Q550.938 1522.85 550.938 1531.6 Q550.938 1539.77 547.049 1544.66 Q543.184 1549.52 536.633 1549.52 Q534.873 1549.52 533.068 1549.17 Q531.262 1548.82 529.318 1548.13 M538.623 1533.48 Q541.771 1533.48 543.6 1531.32 Q545.452 1529.17 545.452 1525.42 Q545.452 1521.7 543.6 1519.54 Q541.771 1517.37 538.623 1517.37 Q535.475 1517.37 533.623 1519.54 Q531.795 1521.7 531.795 1525.42 Q531.795 1529.17 533.623 1531.32 Q535.475 1533.48 538.623 1533.48 Z" fill="#000000" fill-rule="evenodd" fill-opacity="1" /><path clip-path="url(#clip920)" d="M572.188 1518.36 L560.382 1536.81 L572.188 1536.81 L572.188 1518.36 M570.961 1514.29 L576.841 1514.29 L576.841 1536.81 L581.771 1536.81 L581.771 1540.7 L576.841 1540.7 L576.841 1548.85 L572.188 1548.85 L572.188 1540.7 L556.586 1540.7 L556.586 1536.19 L570.961 1514.29 Z" fill="#000000" fill-rule="evenodd" fill-opacity="1" /><path clip-path="url(#clip920)" d="M849.081 1514.29 L867.437 1514.29 L867.437 1518.22 L853.363 1518.22 L853.363 1526.7 Q854.382 1526.35 855.4 1526.19 Q856.419 1526 857.437 1526 Q863.224 1526 866.604 1529.17 Q869.984 1532.34 869.984 1537.76 Q869.984 1543.34 866.511 1546.44 Q863.039 1549.52 856.72 1549.52 Q854.544 1549.52 852.275 1549.15 Q850.03 1548.78 847.623 1548.04 L847.623 1543.34 Q849.706 1544.47 851.928 1545.03 Q854.15 1545.58 856.627 1545.58 Q860.632 1545.58 862.97 1543.48 Q865.308 1541.37 865.308 1537.76 Q865.308 1534.15 862.97 1532.04 Q860.632 1529.94 856.627 1529.94 Q854.752 1529.94 852.877 1530.35 Q851.025 1530.77 849.081 1531.65 L849.081 1514.29 Z" fill="#000000" fill-rule="evenodd" fill-opacity="1" /><path clip-path="url(#clip920)" d="M879.197 1542.97 L884.081 1542.97 L884.081 1548.85 L879.197 1548.85 L879.197 1542.97 Z" fill="#000000" fill-rule="evenodd" fill-opacity="1" /><path clip-path="url(#clip920)" d="M894.405 1548.13 L894.405 1543.87 Q896.164 1544.7 897.97 1545.14 Q899.775 1545.58 901.511 1545.58 Q906.141 1545.58 908.571 1542.48 Q911.025 1539.36 911.372 1533.01 Q910.03 1535.01 907.97 1536.07 Q905.909 1537.13 903.409 1537.13 Q898.224 1537.13 895.192 1534.01 Q892.183 1530.86 892.183 1525.42 Q892.183 1520.1 895.331 1516.88 Q898.479 1513.66 903.71 1513.66 Q909.706 1513.66 912.854 1518.27 Q916.025 1522.85 916.025 1531.6 Q916.025 1539.77 912.136 1544.66 Q908.271 1549.52 901.72 1549.52 Q899.96 1549.52 898.155 1549.17 Q896.349 1548.82 894.405 1548.13 M903.71 1533.48 Q906.858 1533.48 908.687 1531.32 Q910.539 1529.17 910.539 1525.42 Q910.539 1521.7 908.687 1519.54 Q906.858 1517.37 903.71 1517.37 Q900.562 1517.37 898.71 1519.54 Q896.882 1521.7 896.882 1525.42 Q896.882 1529.17 898.71 1531.32 Q900.562 1533.48 903.71 1533.48 Z" fill="#000000" fill-rule="evenodd" fill-opacity="1" /><path clip-path="url(#clip920)" d="M923.247 1514.29 L945.469 1514.29 L945.469 1516.28 L932.923 1548.85 L928.039 1548.85 L939.844 1518.22 L923.247 1518.22 L923.247 1514.29 Z" fill="#000000" fill-rule="evenodd" fill-opacity="1" /><path clip-path="url(#clip920)" d="M1223.73 1529.7 Q1220.58 1529.7 1218.73 1531.86 Q1216.9 1534.01 1216.9 1537.76 Q1216.9 1541.49 1218.73 1543.66 Q1220.58 1545.82 1223.73 1545.82 Q1226.88 1545.82 1228.7 1543.66 Q1230.56 1541.49 1230.56 1537.76 Q1230.56 1534.01 1228.7 1531.86 Q1226.88 1529.7 1223.73 1529.7 M1233.01 1515.05 L1233.01 1519.31 Q1231.25 1518.48 1229.45 1518.04 Q1227.66 1517.6 1225.9 1517.6 Q1221.27 1517.6 1218.82 1520.72 Q1216.39 1523.85 1216.04 1530.17 Q1217.41 1528.15 1219.47 1527.09 Q1221.53 1526 1224.01 1526 Q1229.21 1526 1232.22 1529.17 Q1235.26 1532.32 1235.26 1537.76 Q1235.26 1543.08 1232.11 1546.3 Q1228.96 1549.52 1223.73 1549.52 Q1217.73 1549.52 1214.56 1544.94 Q1211.39 1540.33 1211.39 1531.6 Q1211.39 1523.41 1215.28 1518.55 Q1219.17 1513.66 1225.72 1513.66 Q1227.48 1513.66 1229.26 1514.01 Q1231.07 1514.36 1233.01 1515.05 Z" fill="#000000" fill-rule="evenodd" fill-opacity="1" /><path clip-path="url(#clip920)" d="M1243.31 1542.97 L1248.2 1542.97 L1248.2 1548.85 L1243.31 1548.85 L1243.31 1542.97 Z" fill="#000000" fill-rule="evenodd" fill-opacity="1" /><path clip-path="url(#clip920)" d="M1268.38 1517.37 Q1264.77 1517.37 1262.94 1520.93 Q1261.14 1524.47 1261.14 1531.6 Q1261.14 1538.71 1262.94 1542.27 Q1264.77 1545.82 1268.38 1545.82 Q1272.01 1545.82 1273.82 1542.27 Q1275.65 1538.71 1275.65 1531.6 Q1275.65 1524.47 1273.82 1520.93 Q1272.01 1517.37 1268.38 1517.37 M1268.38 1513.66 Q1274.19 1513.66 1277.25 1518.27 Q1280.33 1522.85 1280.33 1531.6 Q1280.33 1540.33 1277.25 1544.94 Q1274.19 1549.52 1268.38 1549.52 Q1262.57 1549.52 1259.49 1544.94 Q1256.44 1540.33 1256.44 1531.6 Q1256.44 1522.85 1259.49 1518.27 Q1262.57 1513.66 1268.38 1513.66 Z" fill="#000000" fill-rule="evenodd" fill-opacity="1" /><path clip-path="url(#clip920)" d="M1298.54 1517.37 Q1294.93 1517.37 1293.1 1520.93 Q1291.3 1524.47 1291.3 1531.6 Q1291.3 1538.71 1293.1 1542.27 Q1294.93 1545.82 1298.54 1545.82 Q1302.18 1545.82 1303.98 1542.27 Q1305.81 1538.71 1305.81 1531.6 Q1305.81 1524.47 1303.98 1520.93 Q1302.18 1517.37 1298.54 1517.37 M1298.54 1513.66 Q1304.35 1513.66 1307.41 1518.27 Q1310.49 1522.85 1310.49 1531.6 Q1310.49 1540.33 1307.41 1544.94 Q1304.35 1549.52 1298.54 1549.52 Q1292.73 1549.52 1289.65 1544.94 Q1286.6 1540.33 1286.6 1531.6 Q1286.6 1522.85 1289.65 1518.27 Q1292.73 1513.66 1298.54 1513.66 Z" fill="#000000" fill-rule="evenodd" fill-opacity="1" /><path clip-path="url(#clip920)" d="M1588.44 1529.7 Q1585.3 1529.7 1583.44 1531.86 Q1581.62 1534.01 1581.62 1537.76 Q1581.62 1541.49 1583.44 1543.66 Q1585.3 1545.82 1588.44 1545.82 Q1591.59 1545.82 1593.42 1543.66 Q1595.27 1541.49 1595.27 1537.76 Q1595.27 1534.01 1593.42 1531.86 Q1591.59 1529.7 1588.44 1529.7 M1597.73 1515.05 L1597.73 1519.31 Q1595.97 1518.48 1594.16 1518.04 Q1592.38 1517.6 1590.62 1517.6 Q1585.99 1517.6 1583.54 1520.72 Q1581.11 1523.85 1580.76 1530.17 Q1582.13 1528.15 1584.19 1527.09 Q1586.25 1526 1588.72 1526 Q1593.93 1526 1596.94 1529.17 Q1599.97 1532.32 1599.97 1537.76 Q1599.97 1543.08 1596.82 1546.3 Q1593.68 1549.52 1588.44 1549.52 Q1582.45 1549.52 1579.28 1544.94 Q1576.11 1540.33 1576.11 1531.6 Q1576.11 1523.41 1580 1518.55 Q1583.88 1513.66 1590.44 1513.66 Q1592.19 1513.66 1593.98 1514.01 Q1595.78 1514.36 1597.73 1515.05 Z" fill="#000000" fill-rule="evenodd" fill-opacity="1" /><path clip-path="url(#clip920)" d="M1608.03 1542.97 L1612.91 1542.97 L1612.91 1548.85 L1608.03 1548.85 L1608.03 1542.97 Z" fill="#000000" fill-rule="evenodd" fill-opacity="1" /><path clip-path="url(#clip920)" d="M1633.1 1517.37 Q1629.49 1517.37 1627.66 1520.93 Q1625.85 1524.47 1625.85 1531.6 Q1625.85 1538.71 1627.66 1542.27 Q1629.49 1545.82 1633.1 1545.82 Q1636.73 1545.82 1638.54 1542.27 Q1640.37 1538.71 1640.37 1531.6 Q1640.37 1524.47 1638.54 1520.93 Q1636.73 1517.37 1633.1 1517.37 M1633.1 1513.66 Q1638.91 1513.66 1641.96 1518.27 Q1645.04 1522.85 1645.04 1531.6 Q1645.04 1540.33 1641.96 1544.94 Q1638.91 1549.52 1633.1 1549.52 Q1627.29 1549.52 1624.21 1544.94 Q1621.15 1540.33 1621.15 1531.6 Q1621.15 1522.85 1624.21 1518.27 Q1627.29 1513.66 1633.1 1513.66 Z" fill="#000000" fill-rule="evenodd" fill-opacity="1" /><path clip-path="url(#clip920)" d="M1667.43 1530.21 Q1670.78 1530.93 1672.66 1533.2 Q1674.56 1535.47 1674.56 1538.8 Q1674.56 1543.92 1671.04 1546.72 Q1667.52 1549.52 1661.04 1549.52 Q1658.86 1549.52 1656.55 1549.08 Q1654.25 1548.66 1651.8 1547.81 L1651.8 1543.29 Q1653.75 1544.43 1656.06 1545.01 Q1658.37 1545.58 1660.9 1545.58 Q1665.3 1545.58 1667.59 1543.85 Q1669.9 1542.11 1669.9 1538.8 Q1669.9 1535.75 1667.75 1534.03 Q1665.62 1532.3 1661.8 1532.3 L1657.77 1532.3 L1657.77 1528.45 L1661.99 1528.45 Q1665.44 1528.45 1667.26 1527.09 Q1669.09 1525.7 1669.09 1523.11 Q1669.09 1520.45 1667.19 1519.03 Q1665.32 1517.6 1661.8 1517.6 Q1659.88 1517.6 1657.68 1518.01 Q1655.48 1518.43 1652.84 1519.31 L1652.84 1515.14 Q1655.5 1514.4 1657.82 1514.03 Q1660.16 1513.66 1662.22 1513.66 Q1667.54 1513.66 1670.64 1516.09 Q1673.75 1518.5 1673.75 1522.62 Q1673.75 1525.49 1672.1 1527.48 Q1670.46 1529.45 1667.43 1530.21 Z" fill="#000000" fill-rule="evenodd" fill-opacity="1" /><path clip-path="url(#clip920)" d="M1952.43 1529.7 Q1949.28 1529.7 1947.43 1531.86 Q1945.6 1534.01 1945.6 1537.76 Q1945.6 1541.49 1947.43 1543.66 Q1949.28 1545.82 1952.43 1545.82 Q1955.58 1545.82 1957.41 1543.66 Q1959.26 1541.49 1959.26 1537.76 Q1959.26 1534.01 1957.41 1531.86 Q1955.58 1529.7 1952.43 1529.7 M1961.71 1515.05 L1961.71 1519.31 Q1959.96 1518.48 1958.15 1518.04 Q1956.37 1517.6 1954.61 1517.6 Q1949.98 1517.6 1947.52 1520.72 Q1945.09 1523.85 1944.75 1530.17 Q1946.11 1528.15 1948.17 1527.09 Q1950.23 1526 1952.71 1526 Q1957.92 1526 1960.93 1529.17 Q1963.96 1532.32 1963.96 1537.76 Q1963.96 1543.08 1960.81 1546.3 Q1957.66 1549.52 1952.43 1549.52 Q1946.44 1549.52 1943.27 1544.94 Q1940.09 1540.33 1940.09 1531.6 Q1940.09 1523.41 1943.98 1518.55 Q1947.87 1513.66 1954.42 1513.66 Q1956.18 1513.66 1957.96 1514.01 Q1959.77 1514.36 1961.71 1515.05 Z" fill="#000000" fill-rule="evenodd" fill-opacity="1" /><path clip-path="url(#clip920)" d="M1972.02 1542.97 L1976.9 1542.97 L1976.9 1548.85 L1972.02 1548.85 L1972.02 1542.97 Z" fill="#000000" fill-rule="evenodd" fill-opacity="1" /><path clip-path="url(#clip920)" d="M1997.08 1517.37 Q1993.47 1517.37 1991.65 1520.93 Q1989.84 1524.47 1989.84 1531.6 Q1989.84 1538.71 1991.65 1542.27 Q1993.47 1545.82 1997.08 1545.82 Q2000.72 1545.82 2002.52 1542.27 Q2004.35 1538.71 2004.35 1531.6 Q2004.35 1524.47 2002.52 1520.93 Q2000.72 1517.37 1997.08 1517.37 M1997.08 1513.66 Q2002.89 1513.66 2005.95 1518.27 Q2009.03 1522.85 2009.03 1531.6 Q2009.03 1540.33 2005.95 1544.94 Q2002.89 1549.52 1997.08 1549.52 Q1991.27 1549.52 1988.2 1544.94 Q1985.14 1540.33 1985.14 1531.6 Q1985.14 1522.85 1988.2 1518.27 Q1991.27 1513.66 1997.08 1513.66 Z" fill="#000000" fill-rule="evenodd" fill-opacity="1" /><path clip-path="url(#clip920)" d="M2027.83 1529.7 Q2024.68 1529.7 2022.83 1531.86 Q2021 1534.01 2021 1537.76 Q2021 1541.49 2022.83 1543.66 Q2024.68 1545.82 2027.83 1545.82 Q2030.97 1545.82 2032.8 1543.66 Q2034.65 1541.49 2034.65 1537.76 Q2034.65 1534.01 2032.8 1531.86 Q2030.97 1529.7 2027.83 1529.7 M2037.11 1515.05 L2037.11 1519.31 Q2035.35 1518.48 2033.54 1518.04 Q2031.76 1517.6 2030 1517.6 Q2025.37 1517.6 2022.92 1520.72 Q2020.49 1523.85 2020.14 1530.17 Q2021.51 1528.15 2023.57 1527.09 Q2025.63 1526 2028.1 1526 Q2033.31 1526 2036.32 1529.17 Q2039.35 1532.32 2039.35 1537.76 Q2039.35 1543.08 2036.2 1546.3 Q2033.06 1549.52 2027.83 1549.52 Q2021.83 1549.52 2018.66 1544.94 Q2015.49 1540.33 2015.49 1531.6 Q2015.49 1523.41 2019.38 1518.55 Q2023.27 1513.66 2029.82 1513.66 Q2031.58 1513.66 2033.36 1514.01 Q2035.16 1514.36 2037.11 1515.05 Z" fill="#000000" fill-rule="evenodd" fill-opacity="1" /><polyline clip-path="url(#clip923)" style="stroke:#000000; stroke-linecap:butt; stroke-linejoin:round; stroke-width:2; stroke-opacity:0.1; fill:none" points="
  169.121,1468.36 2352.76,1468.36 
  "/>
<polyline clip-path="url(#clip923)" style="stroke:#000000; stroke-linecap:butt; stroke-linejoin:round; stroke-width:2; stroke-opacity:0.1; fill:none" points="
  169.121,1288.89 2352.76,1288.89 
  "/>
<polyline clip-path="url(#clip923)" style="stroke:#000000; stroke-linecap:butt; stroke-linejoin:round; stroke-width:2; stroke-opacity:0.1; fill:none" points="
  169.121,1109.42 2352.76,1109.42 
  "/>
<polyline clip-path="url(#clip923)" style="stroke:#000000; stroke-linecap:butt; stroke-linejoin:round; stroke-width:2; stroke-opacity:0.1; fill:none" points="
  169.121,929.944 2352.76,929.944 
  "/>
<polyline clip-path="url(#clip920)" style="stroke:#000000; stroke-linecap:butt; stroke-linejoin:round; stroke-width:4; stroke-opacity:1; fill:none" points="
  169.121,1486.45 169.121,847.244 
  "/>
<polyline clip-path="url(#clip920)" style="stroke:#000000; stroke-linecap:butt; stroke-linejoin:round; stroke-width:4; stroke-opacity:1; fill:none" points="
  169.121,1468.36 188.019,1468.36 
  "/>
<polyline clip-path="url(#clip920)" style="stroke:#000000; stroke-linecap:butt; stroke-linejoin:round; stroke-width:4; stroke-opacity:1; fill:none" points="
  169.121,1288.89 188.019,1288.89 
  "/>
<polyline clip-path="url(#clip920)" style="stroke:#000000; stroke-linecap:butt; stroke-linejoin:round; stroke-width:4; stroke-opacity:1; fill:none" points="
  169.121,1109.42 188.019,1109.42 
  "/>
<polyline clip-path="url(#clip920)" style="stroke:#000000; stroke-linecap:butt; stroke-linejoin:round; stroke-width:4; stroke-opacity:1; fill:none" points="
  169.121,929.944 188.019,929.944 
  "/>
<path clip-path="url(#clip920)" d="M121.177 1454.16 Q117.566 1454.16 115.737 1457.72 Q113.932 1461.26 113.932 1468.39 Q113.932 1475.5 115.737 1479.06 Q117.566 1482.6 121.177 1482.6 Q124.811 1482.6 126.617 1479.06 Q128.445 1475.5 128.445 1468.39 Q128.445 1461.26 126.617 1457.72 Q124.811 1454.16 121.177 1454.16 M121.177 1450.45 Q126.987 1450.45 130.043 1455.06 Q133.121 1459.64 133.121 1468.39 Q133.121 1477.12 130.043 1481.73 Q126.987 1486.31 121.177 1486.31 Q115.367 1486.31 112.288 1481.73 Q109.233 1477.12 109.233 1468.39 Q109.233 1459.64 112.288 1455.06 Q115.367 1450.45 121.177 1450.45 Z" fill="#000000" fill-rule="evenodd" fill-opacity="1" /><path clip-path="url(#clip920)" d="M81.0614 1271.61 L99.4178 1271.61 L99.4178 1275.54 L85.3438 1275.54 L85.3438 1284.01 Q86.3623 1283.67 87.3808 1283.5 Q88.3993 1283.32 89.4178 1283.32 Q95.2049 1283.32 98.5845 1286.49 Q101.964 1289.66 101.964 1295.08 Q101.964 1300.66 98.4919 1303.76 Q95.0197 1306.84 88.7003 1306.84 Q86.5243 1306.84 84.2558 1306.47 Q82.0105 1306.1 79.6031 1305.36 L79.6031 1300.66 Q81.6864 1301.79 83.9086 1302.35 Q86.1308 1302.9 88.6077 1302.9 Q92.6123 1302.9 94.9502 1300.8 Q97.2882 1298.69 97.2882 1295.08 Q97.2882 1291.47 94.9502 1289.36 Q92.6123 1287.25 88.6077 1287.25 Q86.7327 1287.25 84.8577 1287.67 Q83.0058 1288.09 81.0614 1288.97 L81.0614 1271.61 Z" fill="#000000" fill-rule="evenodd" fill-opacity="1" /><path clip-path="url(#clip920)" d="M121.177 1274.68 Q117.566 1274.68 115.737 1278.25 Q113.932 1281.79 113.932 1288.92 Q113.932 1296.03 115.737 1299.59 Q117.566 1303.13 121.177 1303.13 Q124.811 1303.13 126.617 1299.59 Q128.445 1296.03 128.445 1288.92 Q128.445 1281.79 126.617 1278.25 Q124.811 1274.68 121.177 1274.68 M121.177 1270.98 Q126.987 1270.98 130.043 1275.59 Q133.121 1280.17 133.121 1288.92 Q133.121 1297.65 130.043 1302.25 Q126.987 1306.84 121.177 1306.84 Q115.367 1306.84 112.288 1302.25 Q109.233 1297.65 109.233 1288.92 Q109.233 1280.17 112.288 1275.59 Q115.367 1270.98 121.177 1270.98 Z" fill="#000000" fill-rule="evenodd" fill-opacity="1" /><path clip-path="url(#clip920)" d="M51.6634 1122.76 L59.3023 1122.76 L59.3023 1096.39 L50.9921 1098.06 L50.9921 1093.8 L59.256 1092.14 L63.9319 1092.14 L63.9319 1122.76 L71.5707 1122.76 L71.5707 1126.7 L51.6634 1126.7 L51.6634 1122.76 Z" fill="#000000" fill-rule="evenodd" fill-opacity="1" /><path clip-path="url(#clip920)" d="M91.0151 1095.21 Q87.404 1095.21 85.5753 1098.78 Q83.7697 1102.32 83.7697 1109.45 Q83.7697 1116.56 85.5753 1120.12 Q87.404 1123.66 91.0151 1123.66 Q94.6493 1123.66 96.4548 1120.12 Q98.2835 1116.56 98.2835 1109.45 Q98.2835 1102.32 96.4548 1098.78 Q94.6493 1095.21 91.0151 1095.21 M91.0151 1091.51 Q96.8252 1091.51 99.8808 1096.12 Q102.959 1100.7 102.959 1109.45 Q102.959 1118.18 99.8808 1122.78 Q96.8252 1127.37 91.0151 1127.37 Q85.2049 1127.37 82.1262 1122.78 Q79.0707 1118.18 79.0707 1109.45 Q79.0707 1100.7 82.1262 1096.12 Q85.2049 1091.51 91.0151 1091.51 Z" fill="#000000" fill-rule="evenodd" fill-opacity="1" /><path clip-path="url(#clip920)" d="M121.177 1095.21 Q117.566 1095.21 115.737 1098.78 Q113.932 1102.32 113.932 1109.45 Q113.932 1116.56 115.737 1120.12 Q117.566 1123.66 121.177 1123.66 Q124.811 1123.66 126.617 1120.12 Q128.445 1116.56 128.445 1109.45 Q128.445 1102.32 126.617 1098.78 Q124.811 1095.21 121.177 1095.21 M121.177 1091.51 Q126.987 1091.51 130.043 1096.12 Q133.121 1100.7 133.121 1109.45 Q133.121 1118.18 130.043 1122.78 Q126.987 1127.37 121.177 1127.37 Q115.367 1127.37 112.288 1122.78 Q109.233 1118.18 109.233 1109.45 Q109.233 1100.7 112.288 1096.12 Q115.367 1091.51 121.177 1091.51 Z" fill="#000000" fill-rule="evenodd" fill-opacity="1" /><path clip-path="url(#clip920)" d="M51.6634 943.289 L59.3023 943.289 L59.3023 916.924 L50.9921 918.59 L50.9921 914.331 L59.256 912.664 L63.9319 912.664 L63.9319 943.289 L71.5707 943.289 L71.5707 947.224 L51.6634 947.224 L51.6634 943.289 Z" fill="#000000" fill-rule="evenodd" fill-opacity="1" /><path clip-path="url(#clip920)" d="M81.0614 912.664 L99.4178 912.664 L99.4178 916.599 L85.3438 916.599 L85.3438 925.072 Q86.3623 924.724 87.3808 924.562 Q88.3993 924.377 89.4178 924.377 Q95.2049 924.377 98.5845 927.548 Q101.964 930.72 101.964 936.136 Q101.964 941.715 98.4919 944.817 Q95.0197 947.896 88.7003 947.896 Q86.5243 947.896 84.2558 947.525 Q82.0105 947.155 79.6031 946.414 L79.6031 941.715 Q81.6864 942.849 83.9086 943.405 Q86.1308 943.96 88.6077 943.96 Q92.6123 943.96 94.9502 941.854 Q97.2882 939.748 97.2882 936.136 Q97.2882 932.525 94.9502 930.419 Q92.6123 928.312 88.6077 928.312 Q86.7327 928.312 84.8577 928.729 Q83.0058 929.146 81.0614 930.025 L81.0614 912.664 Z" fill="#000000" fill-rule="evenodd" fill-opacity="1" /><path clip-path="url(#clip920)" d="M121.177 915.743 Q117.566 915.743 115.737 919.308 Q113.932 922.849 113.932 929.979 Q113.932 937.085 115.737 940.65 Q117.566 944.192 121.177 944.192 Q124.811 944.192 126.617 940.65 Q128.445 937.085 128.445 929.979 Q128.445 922.849 126.617 919.308 Q124.811 915.743 121.177 915.743 M121.177 912.039 Q126.987 912.039 130.043 916.646 Q133.121 921.229 133.121 929.979 Q133.121 938.706 130.043 943.312 Q126.987 947.896 121.177 947.896 Q115.367 947.896 112.288 943.312 Q109.233 938.706 109.233 929.979 Q109.233 921.229 112.288 916.646 Q115.367 912.039 121.177 912.039 Z" fill="#000000" fill-rule="evenodd" fill-opacity="1" /><path clip-path="url(#clip923)" d="
M289.225 1461.18 L289.225 1468.36 L410.689 1468.36 L410.689 1461.18 L289.225 1461.18 L289.225 1461.18  Z
  " fill="#009af9" fill-rule="evenodd" fill-opacity="1"/>
<polyline clip-path="url(#clip923)" style="stroke:#000000; stroke-linecap:butt; stroke-linejoin:round; stroke-width:4; stroke-opacity:1; fill:none" points="
  289.225,1461.18 289.225,1468.36 410.689,1468.36 410.689,1461.18 289.225,1461.18 
  "/>
<path clip-path="url(#clip923)" d="
M410.689 1446.82 L410.689 1468.36 L532.153 1468.36 L532.153 1446.82 L410.689 1446.82 L410.689 1446.82  Z
  " fill="#009af9" fill-rule="evenodd" fill-opacity="1"/>
<polyline clip-path="url(#clip923)" style="stroke:#000000; stroke-linecap:butt; stroke-linejoin:round; stroke-width:4; stroke-opacity:1; fill:none" points="
  410.689,1446.82 410.689,1468.36 532.153,1468.36 532.153,1446.82 410.689,1446.82 
  "/>
<path clip-path="url(#clip923)" d="
M532.153 1436.05 L532.153 1468.36 L653.618 1468.36 L653.618 1436.05 L532.153 1436.05 L532.153 1436.05  Z
  " fill="#009af9" fill-rule="evenodd" fill-opacity="1"/>
<polyline clip-path="url(#clip923)" style="stroke:#000000; stroke-linecap:butt; stroke-linejoin:round; stroke-width:4; stroke-opacity:1; fill:none" points="
  532.153,1436.05 532.153,1468.36 653.618,1468.36 653.618,1436.05 532.153,1436.05 
  "/>
<path clip-path="url(#clip923)" d="
M653.618 1367.85 L653.618 1468.36 L775.082 1468.36 L775.082 1367.85 L653.618 1367.85 L653.618 1367.85  Z
  " fill="#009af9" fill-rule="evenodd" fill-opacity="1"/>
<polyline clip-path="url(#clip923)" style="stroke:#000000; stroke-linecap:butt; stroke-linejoin:round; stroke-width:4; stroke-opacity:1; fill:none" points="
  653.618,1367.85 653.618,1468.36 775.082,1468.36 775.082,1367.85 653.618,1367.85 
  "/>
<path clip-path="url(#clip923)" d="
M775.082 1288.89 L775.082 1468.36 L896.546 1468.36 L896.546 1288.89 L775.082 1288.89 L775.082 1288.89  Z
  " fill="#009af9" fill-rule="evenodd" fill-opacity="1"/>
<polyline clip-path="url(#clip923)" style="stroke:#000000; stroke-linecap:butt; stroke-linejoin:round; stroke-width:4; stroke-opacity:1; fill:none" points="
  775.082,1288.89 775.082,1468.36 896.546,1468.36 896.546,1288.89 775.082,1288.89 
  "/>
<path clip-path="url(#clip923)" d="
M896.546 1055.57 L896.546 1468.36 L1018.01 1468.36 L1018.01 1055.57 L896.546 1055.57 L896.546 1055.57  Z
  " fill="#009af9" fill-rule="evenodd" fill-opacity="1"/>
<polyline clip-path="url(#clip923)" style="stroke:#000000; stroke-linecap:butt; stroke-linejoin:round; stroke-width:4; stroke-opacity:1; fill:none" points="
  896.546,1055.57 896.546,1468.36 1018.01,1468.36 1018.01,1055.57 896.546,1055.57 
  "/>
<path clip-path="url(#clip923)" d="
M1018.01 1041.22 L1018.01 1468.36 L1139.47 1468.36 L1139.47 1041.22 L1018.01 1041.22 L1018.01 1041.22  Z
  " fill="#009af9" fill-rule="evenodd" fill-opacity="1"/>
<polyline clip-path="url(#clip923)" style="stroke:#000000; stroke-linecap:butt; stroke-linejoin:round; stroke-width:4; stroke-opacity:1; fill:none" points="
  1018.01,1041.22 1018.01,1468.36 1139.47,1468.36 1139.47,1041.22 1018.01,1041.22 
  "/>
<path clip-path="url(#clip923)" d="
M1139.47 865.335 L1139.47 1468.36 L1260.94 1468.36 L1260.94 865.335 L1139.47 865.335 L1139.47 865.335  Z
  " fill="#009af9" fill-rule="evenodd" fill-opacity="1"/>
<polyline clip-path="url(#clip923)" style="stroke:#000000; stroke-linecap:butt; stroke-linejoin:round; stroke-width:4; stroke-opacity:1; fill:none" points="
  1139.47,865.335 1139.47,1468.36 1260.94,1468.36 1260.94,865.335 1139.47,865.335 
  "/>
<path clip-path="url(#clip923)" d="
M1260.94 911.997 L1260.94 1468.36 L1382.4 1468.36 L1382.4 911.997 L1260.94 911.997 L1260.94 911.997  Z
  " fill="#009af9" fill-rule="evenodd" fill-opacity="1"/>
<polyline clip-path="url(#clip923)" style="stroke:#000000; stroke-linecap:butt; stroke-linejoin:round; stroke-width:4; stroke-opacity:1; fill:none" points="
  1260.94,911.997 1260.94,1468.36 1382.4,1468.36 1382.4,911.997 1260.94,911.997 
  "/>
<path clip-path="url(#clip923)" d="
M1382.4 965.839 L1382.4 1468.36 L1503.87 1468.36 L1503.87 965.839 L1382.4 965.839 L1382.4 965.839  Z
  " fill="#009af9" fill-rule="evenodd" fill-opacity="1"/>
<polyline clip-path="url(#clip923)" style="stroke:#000000; stroke-linecap:butt; stroke-linejoin:round; stroke-width:4; stroke-opacity:1; fill:none" points="
  1382.4,965.839 1382.4,1468.36 1503.87,1468.36 1503.87,965.839 1382.4,965.839 
  "/>
<path clip-path="url(#clip923)" d="
M1503.87 1102.24 L1503.87 1468.36 L1625.33 1468.36 L1625.33 1102.24 L1503.87 1102.24 L1503.87 1102.24  Z
  " fill="#009af9" fill-rule="evenodd" fill-opacity="1"/>
<polyline clip-path="url(#clip923)" style="stroke:#000000; stroke-linecap:butt; stroke-linejoin:round; stroke-width:4; stroke-opacity:1; fill:none" points="
  1503.87,1102.24 1503.87,1468.36 1625.33,1468.36 1625.33,1102.24 1503.87,1102.24 
  "/>
<path clip-path="url(#clip923)" d="
M1625.33 1260.17 L1625.33 1468.36 L1746.8 1468.36 L1746.8 1260.17 L1625.33 1260.17 L1625.33 1260.17  Z
  " fill="#009af9" fill-rule="evenodd" fill-opacity="1"/>
<polyline clip-path="url(#clip923)" style="stroke:#000000; stroke-linecap:butt; stroke-linejoin:round; stroke-width:4; stroke-opacity:1; fill:none" points="
  1625.33,1260.17 1625.33,1468.36 1746.8,1468.36 1746.8,1260.17 1625.33,1260.17 
  "/>
<path clip-path="url(#clip923)" d="
M1746.8 1346.32 L1746.8 1468.36 L1868.26 1468.36 L1868.26 1346.32 L1746.8 1346.32 L1746.8 1346.32  Z
  " fill="#009af9" fill-rule="evenodd" fill-opacity="1"/>
<polyline clip-path="url(#clip923)" style="stroke:#000000; stroke-linecap:butt; stroke-linejoin:round; stroke-width:4; stroke-opacity:1; fill:none" points="
  1746.8,1346.32 1746.8,1468.36 1868.26,1468.36 1868.26,1346.32 1746.8,1346.32 
  "/>
<path clip-path="url(#clip923)" d="
M1868.26 1432.46 L1868.26 1468.36 L1989.72 1468.36 L1989.72 1432.46 L1868.26 1432.46 L1868.26 1432.46  Z
  " fill="#009af9" fill-rule="evenodd" fill-opacity="1"/>
<polyline clip-path="url(#clip923)" style="stroke:#000000; stroke-linecap:butt; stroke-linejoin:round; stroke-width:4; stroke-opacity:1; fill:none" points="
  1868.26,1432.46 1868.26,1468.36 1989.72,1468.36 1989.72,1432.46 1868.26,1432.46 
  "/>
<path clip-path="url(#clip923)" d="
M1989.72 1457.59 L1989.72 1468.36 L2111.19 1468.36 L2111.19 1457.59 L1989.72 1457.59 L1989.72 1457.59  Z
  " fill="#009af9" fill-rule="evenodd" fill-opacity="1"/>
<polyline clip-path="url(#clip923)" style="stroke:#000000; stroke-linecap:butt; stroke-linejoin:round; stroke-width:4; stroke-opacity:1; fill:none" points="
  1989.72,1457.59 1989.72,1468.36 2111.19,1468.36 2111.19,1457.59 1989.72,1457.59 
  "/>
<path clip-path="url(#clip923)" d="
M2111.19 1464.77 L2111.19 1468.36 L2232.65 1468.36 L2232.65 1464.77 L2111.19 1464.77 L2111.19 1464.77  Z
  " fill="#009af9" fill-rule="evenodd" fill-opacity="1"/>
<polyline clip-path="url(#clip923)" style="stroke:#000000; stroke-linecap:butt; stroke-linejoin:round; stroke-width:4; stroke-opacity:1; fill:none" points="
  2111.19,1464.77 2111.19,1468.36 2232.65,1468.36 2232.65,1464.77 2111.19,1464.77 
  "/>
<circle clip-path="url(#clip923)" style="fill:#009af9; stroke:none; fill-opacity:0" cx="349.957" cy="1461.18" r="2"/>
<circle clip-path="url(#clip923)" style="fill:#009af9; stroke:none; fill-opacity:0" cx="471.421" cy="1446.82" r="2"/>
<circle clip-path="url(#clip923)" style="fill:#009af9; stroke:none; fill-opacity:0" cx="592.886" cy="1436.05" r="2"/>
<circle clip-path="url(#clip923)" style="fill:#009af9; stroke:none; fill-opacity:0" cx="714.35" cy="1367.85" r="2"/>
<circle clip-path="url(#clip923)" style="fill:#009af9; stroke:none; fill-opacity:0" cx="835.814" cy="1288.89" r="2"/>
<circle clip-path="url(#clip923)" style="fill:#009af9; stroke:none; fill-opacity:0" cx="957.278" cy="1055.57" r="2"/>
<circle clip-path="url(#clip923)" style="fill:#009af9; stroke:none; fill-opacity:0" cx="1078.74" cy="1041.22" r="2"/>
<circle clip-path="url(#clip923)" style="fill:#009af9; stroke:none; fill-opacity:0" cx="1200.21" cy="865.335" r="2"/>
<circle clip-path="url(#clip923)" style="fill:#009af9; stroke:none; fill-opacity:0" cx="1321.67" cy="911.997" r="2"/>
<circle clip-path="url(#clip923)" style="fill:#009af9; stroke:none; fill-opacity:0" cx="1443.13" cy="965.839" r="2"/>
<circle clip-path="url(#clip923)" style="fill:#009af9; stroke:none; fill-opacity:0" cx="1564.6" cy="1102.24" r="2"/>
<circle clip-path="url(#clip923)" style="fill:#009af9; stroke:none; fill-opacity:0" cx="1686.06" cy="1260.17" r="2"/>
<circle clip-path="url(#clip923)" style="fill:#009af9; stroke:none; fill-opacity:0" cx="1807.53" cy="1346.32" r="2"/>
<circle clip-path="url(#clip923)" style="fill:#009af9; stroke:none; fill-opacity:0" cx="1928.99" cy="1432.46" r="2"/>
<circle clip-path="url(#clip923)" style="fill:#009af9; stroke:none; fill-opacity:0" cx="2050.46" cy="1457.59" r="2"/>
<circle clip-path="url(#clip923)" style="fill:#009af9; stroke:none; fill-opacity:0" cx="2171.92" cy="1464.77" r="2"/>
<path clip-path="url(#clip920)" d="
M1781.9 972.231 L2279.97 972.231 L2279.97 868.551 L1781.9 868.551  Z
  " fill="#ffffff" fill-rule="evenodd" fill-opacity="1"/>
<polyline clip-path="url(#clip920)" style="stroke:#000000; stroke-linecap:butt; stroke-linejoin:round; stroke-width:4; stroke-opacity:1; fill:none" points="
  1781.9,972.231 2279.97,972.231 2279.97,868.551 1781.9,868.551 1781.9,972.231 
  "/>
<path clip-path="url(#clip920)" d="
M1806.17 941.127 L1951.74 941.127 L1951.74 899.655 L1806.17 899.655 L1806.17 941.127  Z
  " fill="#009af9" fill-rule="evenodd" fill-opacity="1"/>
<polyline clip-path="url(#clip920)" style="stroke:#000000; stroke-linecap:butt; stroke-linejoin:round; stroke-width:4; stroke-opacity:1; fill:none" points="
  1806.17,941.127 1951.74,941.127 1951.74,899.655 1806.17,899.655 1806.17,941.127 
  "/>
<path clip-path="url(#clip920)" d="M1980.68 921.166 L1980.68 933.828 L1988.18 933.828 Q1991.95 933.828 1993.76 932.277 Q1995.59 930.703 1995.59 927.486 Q1995.59 924.245 1993.76 922.717 Q1991.95 921.166 1988.18 921.166 L1980.68 921.166 M1980.68 906.953 L1980.68 917.37 L1987.6 917.37 Q1991.03 917.37 1992.69 916.097 Q1994.38 914.801 1994.38 912.162 Q1994.38 909.546 1992.69 908.25 Q1991.03 906.953 1987.6 906.953 L1980.68 906.953 M1976 903.111 L1987.95 903.111 Q1993.3 903.111 1996.19 905.333 Q1999.08 907.555 1999.08 911.653 Q1999.08 914.824 1997.6 916.699 Q1996.12 918.574 1993.25 919.037 Q1996.7 919.777 1998.6 922.139 Q2000.52 924.477 2000.52 927.995 Q2000.52 932.625 1997.37 935.148 Q1994.22 937.671 1988.41 937.671 L1976 937.671 L1976 903.111 Z" fill="#000000" fill-rule="evenodd" fill-opacity="1" /><path clip-path="url(#clip920)" d="M2052.18 912.208 L2041.61 922.833 L2052.18 933.412 L2049.43 936.213 L2038.81 925.588 L2028.18 936.213 L2025.45 933.412 L2036 922.833 L2025.45 912.208 L2028.18 909.407 L2038.81 920.032 L2049.43 909.407 L2052.18 912.208 Z" fill="#000000" fill-rule="evenodd" fill-opacity="1" /><path clip-path="url(#clip920)" d="M2079.61 933.736 L2087.25 933.736 L2087.25 907.37 L2078.94 909.037 L2078.94 904.778 L2087.21 903.111 L2091.88 903.111 L2091.88 933.736 L2099.52 933.736 L2099.52 937.671 L2079.61 937.671 L2079.61 933.736 Z" fill="#000000" fill-rule="evenodd" fill-opacity="1" /><path clip-path="url(#clip920)" d="M2118.97 906.19 Q2115.36 906.19 2113.53 909.754 Q2111.72 913.296 2111.72 920.426 Q2111.72 927.532 2113.53 931.097 Q2115.36 934.638 2118.97 934.638 Q2122.6 934.638 2124.41 931.097 Q2126.24 927.532 2126.24 920.426 Q2126.24 913.296 2124.41 909.754 Q2122.6 906.19 2118.97 906.19 M2118.97 902.486 Q2124.78 902.486 2127.83 907.092 Q2130.91 911.676 2130.91 920.426 Q2130.91 929.152 2127.83 933.759 Q2124.78 938.342 2118.97 938.342 Q2113.16 938.342 2110.08 933.759 Q2107.02 929.152 2107.02 920.426 Q2107.02 911.676 2110.08 907.092 Q2113.16 902.486 2118.97 902.486 Z" fill="#000000" fill-rule="evenodd" fill-opacity="1" /><path clip-path="url(#clip920)" d="M2156.19 903.111 L2168.76 916.004 L2164.11 916.004 L2153.92 906.861 L2143.74 916.004 L2139.08 916.004 L2151.65 903.111 L2156.19 903.111 Z" fill="#000000" fill-rule="evenodd" fill-opacity="1" /><path clip-path="url(#clip920)" d="M2179.66 933.736 L2187.3 933.736 L2187.3 907.37 L2178.99 909.037 L2178.99 904.778 L2187.25 903.111 L2191.93 903.111 L2191.93 933.736 L2199.57 933.736 L2199.57 937.671 L2179.66 937.671 L2179.66 933.736 Z" fill="#000000" fill-rule="evenodd" fill-opacity="1" /><path clip-path="url(#clip920)" d="M2221.86 907.185 L2210.05 925.634 L2221.86 925.634 L2221.86 907.185 M2220.63 903.111 L2226.51 903.111 L2226.51 925.634 L2231.44 925.634 L2231.44 929.523 L2226.51 929.523 L2226.51 937.671 L2221.86 937.671 L2221.86 929.523 L2206.26 929.523 L2206.26 925.009 L2220.63 903.111 Z" fill="#000000" fill-rule="evenodd" fill-opacity="1" /></svg>
