<?xml version="1.0" encoding="utf-8"?>
<svg xmlns="http://www.w3.org/2000/svg" xmlns:xlink="http://www.w3.org/1999/xlink" width="600" height="400" viewBox="0 0 2400 1600">
<defs>
  <clipPath id="clip190">
    <rect x="0" y="0" width="2400" height="1600"/>
  </clipPath>
</defs>
<path clip-path="url(#clip190)" d="M0 1600 L2400 1600 L2400 0 L0 0  Z" fill="#ffffff" fill-rule="evenodd" fill-opacity="1"/>
<defs>
  <clipPath id="clip191">
    <rect x="480" y="0" width="1681" height="1600"/>
  </clipPath>
</defs>
<path clip-path="url(#clip190)" d="M172.015 1486.45 L2352.76 1486.45 L2352.76 47.2441 L172.015 47.2441  Z" fill="#ffffff" fill-rule="evenodd" fill-opacity="1"/>
<defs>
  <clipPath id="clip192">
    <rect x="172" y="47" width="2182" height="1440"/>
  </clipPath>
</defs>
<polyline clip-path="url(#clip192)" style="stroke:#000000; stroke-linecap:round; stroke-linejoin:round; stroke-width:2; stroke-opacity:0.1; fill:none" points="494.132,1486.45 494.132,47.2441 "/>
<polyline clip-path="url(#clip192)" style="stroke:#000000; stroke-linecap:round; stroke-linejoin:round; stroke-width:2; stroke-opacity:0.1; fill:none" points="898.476,1486.45 898.476,47.2441 "/>
<polyline clip-path="url(#clip192)" style="stroke:#000000; stroke-linecap:round; stroke-linejoin:round; stroke-width:2; stroke-opacity:0.1; fill:none" points="1302.82,1486.45 1302.82,47.2441 "/>
<polyline clip-path="url(#clip192)" style="stroke:#000000; stroke-linecap:round; stroke-linejoin:round; stroke-width:2; stroke-opacity:0.1; fill:none" points="1707.16,1486.45 1707.16,47.2441 "/>
<polyline clip-path="url(#clip192)" style="stroke:#000000; stroke-linecap:round; stroke-linejoin:round; stroke-width:2; stroke-opacity:0.1; fill:none" points="2111.51,1486.45 2111.51,47.2441 "/>
<polyline clip-path="url(#clip192)" style="stroke:#000000; stroke-linecap:round; stroke-linejoin:round; stroke-width:2; stroke-opacity:0.1; fill:none" points="172.015,1486.45 2352.76,1486.45 "/>
<polyline clip-path="url(#clip192)" style="stroke:#000000; stroke-linecap:round; stroke-linejoin:round; stroke-width:2; stroke-opacity:0.1; fill:none" points="172.015,1129.77 2352.76,1129.77 "/>
<polyline clip-path="url(#clip192)" style="stroke:#000000; stroke-linecap:round; stroke-linejoin:round; stroke-width:2; stroke-opacity:0.1; fill:none" points="172.015,773.088 2352.76,773.088 "/>
<polyline clip-path="url(#clip192)" style="stroke:#000000; stroke-linecap:round; stroke-linejoin:round; stroke-width:2; stroke-opacity:0.1; fill:none" points="172.015,416.408 2352.76,416.408 "/>
<polyline clip-path="url(#clip192)" style="stroke:#000000; stroke-linecap:round; stroke-linejoin:round; stroke-width:2; stroke-opacity:0.1; fill:none" points="172.015,59.7279 2352.76,59.7279 "/>
<polyline clip-path="url(#clip190)" style="stroke:#000000; stroke-linecap:round; stroke-linejoin:round; stroke-width:4; stroke-opacity:1; fill:none" points="172.015,1486.45 2352.76,1486.45 "/>
<polyline clip-path="url(#clip190)" style="stroke:#000000; stroke-linecap:round; stroke-linejoin:round; stroke-width:4; stroke-opacity:1; fill:none" points="494.132,1486.45 494.132,1467.55 "/>
<polyline clip-path="url(#clip190)" style="stroke:#000000; stroke-linecap:round; stroke-linejoin:round; stroke-width:4; stroke-opacity:1; fill:none" points="898.476,1486.45 898.476,1467.55 "/>
<polyline clip-path="url(#clip190)" style="stroke:#000000; stroke-linecap:round; stroke-linejoin:round; stroke-width:4; stroke-opacity:1; fill:none" points="1302.82,1486.45 1302.82,1467.55 "/>
<polyline clip-path="url(#clip190)" style="stroke:#000000; stroke-linecap:round; stroke-linejoin:round; stroke-width:4; stroke-opacity:1; fill:none" points="1707.16,1486.45 1707.16,1467.55 "/>
<polyline clip-path="url(#clip190)" style="stroke:#000000; stroke-linecap:round; stroke-linejoin:round; stroke-width:4; stroke-opacity:1; fill:none" points="2111.51,1486.45 2111.51,1467.55 "/>
<path clip-path="url(#clip190)" d="M471.435 1517.37 Q467.824 1517.37 465.995 1520.93 Q464.19 1524.47 464.19 1531.6 Q464.19 1538.71 465.995 1542.27 Q467.824 1545.82 471.435 1545.82 Q475.069 1545.82 476.875 1542.27 Q478.703 1538.71 478.703 1531.6 Q478.703 1524.47 476.875 1520.93 Q475.069 1517.37 471.435 1517.37 M471.435 1513.66 Q477.245 1513.66 480.301 1518.27 Q483.379 1522.85 483.379 1531.6 Q483.379 1540.33 480.301 1544.94 Q477.245 1549.52 471.435 1549.52 Q465.625 1549.52 462.546 1544.94 Q459.491 1540.33 459.491 1531.6 Q459.491 1522.85 462.546 1518.27 Q465.625 1513.66 471.435 1513.66 Z" fill="#000000" fill-rule="nonzero" fill-opacity="1" /><path clip-path="url(#clip190)" d="M491.597 1542.97 L496.481 1542.97 L496.481 1548.85 L491.597 1548.85 L491.597 1542.97 Z" fill="#000000" fill-rule="nonzero" fill-opacity="1" /><path clip-path="url(#clip190)" d="M517.245 1529.7 Q514.097 1529.7 512.245 1531.86 Q510.416 1534.01 510.416 1537.76 Q510.416 1541.49 512.245 1543.66 Q514.097 1545.82 517.245 1545.82 Q520.393 1545.82 522.222 1543.66 Q524.073 1541.49 524.073 1537.76 Q524.073 1534.01 522.222 1531.86 Q520.393 1529.7 517.245 1529.7 M526.527 1515.05 L526.527 1519.31 Q524.768 1518.48 522.962 1518.04 Q521.18 1517.6 519.421 1517.6 Q514.791 1517.6 512.337 1520.72 Q509.907 1523.85 509.56 1530.17 Q510.925 1528.15 512.986 1527.09 Q515.046 1526 517.523 1526 Q522.731 1526 525.74 1529.17 Q528.773 1532.32 528.773 1537.76 Q528.773 1543.08 525.624 1546.3 Q522.476 1549.52 517.245 1549.52 Q511.249 1549.52 508.078 1544.94 Q504.907 1540.33 504.907 1531.6 Q504.907 1523.41 508.796 1518.55 Q512.685 1513.66 519.236 1513.66 Q520.995 1513.66 522.777 1514.01 Q524.583 1514.36 526.527 1515.05 Z" fill="#000000" fill-rule="nonzero" fill-opacity="1" /><path clip-path="url(#clip190)" d="M875.906 1517.37 Q872.295 1517.37 870.467 1520.93 Q868.661 1524.47 868.661 1531.6 Q868.661 1538.71 870.467 1542.27 Q872.295 1545.82 875.906 1545.82 Q879.541 1545.82 881.346 1542.27 Q883.175 1538.71 883.175 1531.6 Q883.175 1524.47 881.346 1520.93 Q879.541 1517.37 875.906 1517.37 M875.906 1513.66 Q881.716 1513.66 884.772 1518.27 Q887.851 1522.85 887.851 1531.6 Q887.851 1540.33 884.772 1544.94 Q881.716 1549.52 875.906 1549.52 Q870.096 1549.52 867.017 1544.94 Q863.962 1540.33 863.962 1531.6 Q863.962 1522.85 867.017 1518.27 Q870.096 1513.66 875.906 1513.66 Z" fill="#000000" fill-rule="nonzero" fill-opacity="1" /><path clip-path="url(#clip190)" d="M896.068 1542.97 L900.952 1542.97 L900.952 1548.85 L896.068 1548.85 L896.068 1542.97 Z" fill="#000000" fill-rule="nonzero" fill-opacity="1" /><path clip-path="url(#clip190)" d="M921.138 1532.44 Q917.804 1532.44 915.883 1534.22 Q913.985 1536 913.985 1539.13 Q913.985 1542.25 915.883 1544.03 Q917.804 1545.82 921.138 1545.82 Q924.471 1545.82 926.392 1544.03 Q928.313 1542.23 928.313 1539.13 Q928.313 1536 926.392 1534.22 Q924.494 1532.44 921.138 1532.44 M916.462 1530.45 Q913.452 1529.7 911.763 1527.64 Q910.096 1525.58 910.096 1522.62 Q910.096 1518.48 913.036 1516.07 Q915.999 1513.66 921.138 1513.66 Q926.3 1513.66 929.239 1516.07 Q932.179 1518.48 932.179 1522.62 Q932.179 1525.58 930.489 1527.64 Q928.823 1529.7 925.837 1530.45 Q929.216 1531.23 931.091 1533.52 Q932.989 1535.82 932.989 1539.13 Q932.989 1544.15 929.911 1546.83 Q926.855 1549.52 921.138 1549.52 Q915.42 1549.52 912.341 1546.83 Q909.286 1544.15 909.286 1539.13 Q909.286 1535.82 911.184 1533.52 Q913.082 1531.23 916.462 1530.45 M914.749 1523.06 Q914.749 1525.75 916.415 1527.25 Q918.105 1528.76 921.138 1528.76 Q924.147 1528.76 925.837 1527.25 Q927.55 1525.75 927.55 1523.06 Q927.55 1520.38 925.837 1518.87 Q924.147 1517.37 921.138 1517.37 Q918.105 1517.37 916.415 1518.87 Q914.749 1520.38 914.749 1523.06 Z" fill="#000000" fill-rule="nonzero" fill-opacity="1" /><path clip-path="url(#clip190)" d="M1269.97 1544.91 L1277.61 1544.91 L1277.61 1518.55 L1269.3 1520.21 L1269.3 1515.95 L1277.57 1514.29 L1282.24 1514.29 L1282.24 1544.91 L1289.88 1544.91 L1289.88 1548.85 L1269.97 1548.85 L1269.97 1544.91 Z" fill="#000000" fill-rule="nonzero" fill-opacity="1" /><path clip-path="url(#clip190)" d="M1299.32 1542.97 L1304.21 1542.97 L1304.21 1548.85 L1299.32 1548.85 L1299.32 1542.97 Z" fill="#000000" fill-rule="nonzero" fill-opacity="1" /><path clip-path="url(#clip190)" d="M1324.39 1517.37 Q1320.78 1517.37 1318.95 1520.93 Q1317.15 1524.47 1317.15 1531.6 Q1317.15 1538.71 1318.95 1542.27 Q1320.78 1545.82 1324.39 1545.82 Q1328.03 1545.82 1329.83 1542.27 Q1331.66 1538.71 1331.66 1531.6 Q1331.66 1524.47 1329.83 1520.93 Q1328.03 1517.37 1324.39 1517.37 M1324.39 1513.66 Q1330.2 1513.66 1333.26 1518.27 Q1336.34 1522.85 1336.34 1531.6 Q1336.34 1540.33 1333.26 1544.94 Q1330.2 1549.52 1324.39 1549.52 Q1318.58 1549.52 1315.5 1544.94 Q1312.45 1540.33 1312.45 1531.6 Q1312.45 1522.85 1315.5 1518.27 Q1318.58 1513.66 1324.39 1513.66 Z" fill="#000000" fill-rule="nonzero" fill-opacity="1" /><path clip-path="url(#clip190)" d="M1675.12 1544.91 L1682.75 1544.91 L1682.75 1518.55 L1674.44 1520.21 L1674.44 1515.95 L1682.71 1514.29 L1687.38 1514.29 L1687.38 1544.91 L1695.02 1544.91 L1695.02 1548.85 L1675.12 1548.85 L1675.12 1544.91 Z" fill="#000000" fill-rule="nonzero" fill-opacity="1" /><path clip-path="url(#clip190)" d="M1704.47 1542.97 L1709.35 1542.97 L1709.35 1548.85 L1704.47 1548.85 L1704.47 1542.97 Z" fill="#000000" fill-rule="nonzero" fill-opacity="1" /><path clip-path="url(#clip190)" d="M1723.56 1544.91 L1739.88 1544.91 L1739.88 1548.85 L1717.94 1548.85 L1717.94 1544.91 Q1720.6 1542.16 1725.18 1537.53 Q1729.79 1532.88 1730.97 1531.53 Q1733.22 1529.01 1734.1 1527.27 Q1735 1525.51 1735 1523.82 Q1735 1521.07 1733.05 1519.33 Q1731.13 1517.6 1728.03 1517.6 Q1725.83 1517.6 1723.38 1518.36 Q1720.95 1519.13 1718.17 1520.68 L1718.17 1515.95 Q1720.99 1514.82 1723.45 1514.24 Q1725.9 1513.66 1727.94 1513.66 Q1733.31 1513.66 1736.5 1516.35 Q1739.7 1519.03 1739.7 1523.52 Q1739.7 1525.65 1738.89 1527.57 Q1738.1 1529.47 1735.99 1532.07 Q1735.42 1532.74 1732.31 1535.95 Q1729.21 1539.15 1723.56 1544.91 Z" fill="#000000" fill-rule="nonzero" fill-opacity="1" /><path clip-path="url(#clip190)" d="M2078.42 1544.91 L2086.06 1544.91 L2086.06 1518.55 L2077.75 1520.21 L2077.75 1515.95 L2086.01 1514.29 L2090.69 1514.29 L2090.69 1544.91 L2098.33 1544.91 L2098.33 1548.85 L2078.42 1548.85 L2078.42 1544.91 Z" fill="#000000" fill-rule="nonzero" fill-opacity="1" /><path clip-path="url(#clip190)" d="M2107.77 1542.97 L2112.65 1542.97 L2112.65 1548.85 L2107.77 1548.85 L2107.77 1542.97 Z" fill="#000000" fill-rule="nonzero" fill-opacity="1" /><path clip-path="url(#clip190)" d="M2135.69 1518.36 L2123.88 1536.81 L2135.69 1536.81 L2135.69 1518.36 M2134.46 1514.29 L2140.34 1514.29 L2140.34 1536.81 L2145.27 1536.81 L2145.27 1540.7 L2140.34 1540.7 L2140.34 1548.85 L2135.69 1548.85 L2135.69 1540.7 L2120.08 1540.7 L2120.08 1536.19 L2134.46 1514.29 Z" fill="#000000" fill-rule="nonzero" fill-opacity="1" /><polyline clip-path="url(#clip190)" style="stroke:#000000; stroke-linecap:round; stroke-linejoin:round; stroke-width:4; stroke-opacity:1; fill:none" points="172.015,1486.45 172.015,47.2441 "/>
<polyline clip-path="url(#clip190)" style="stroke:#000000; stroke-linecap:round; stroke-linejoin:round; stroke-width:4; stroke-opacity:1; fill:none" points="172.015,1486.45 190.912,1486.45 "/>
<polyline clip-path="url(#clip190)" style="stroke:#000000; stroke-linecap:round; stroke-linejoin:round; stroke-width:4; stroke-opacity:1; fill:none" points="172.015,1129.77 190.912,1129.77 "/>
<polyline clip-path="url(#clip190)" style="stroke:#000000; stroke-linecap:round; stroke-linejoin:round; stroke-width:4; stroke-opacity:1; fill:none" points="172.015,773.088 190.912,773.088 "/>
<polyline clip-path="url(#clip190)" style="stroke:#000000; stroke-linecap:round; stroke-linejoin:round; stroke-width:4; stroke-opacity:1; fill:none" points="172.015,416.408 190.912,416.408 "/>
<polyline clip-path="url(#clip190)" style="stroke:#000000; stroke-linecap:round; stroke-linejoin:round; stroke-width:4; stroke-opacity:1; fill:none" points="172.015,59.7279 190.912,59.7279 "/>
<path clip-path="url(#clip190)" d="M124.07 1472.25 Q120.459 1472.25 118.631 1475.81 Q116.825 1479.35 116.825 1486.48 Q116.825 1493.59 118.631 1497.15 Q120.459 1500.7 124.07 1500.7 Q127.705 1500.7 129.51 1497.15 Q131.339 1493.59 131.339 1486.48 Q131.339 1479.35 129.51 1475.81 Q127.705 1472.25 124.07 1472.25 M124.07 1468.54 Q129.881 1468.54 132.936 1473.15 Q136.015 1477.73 136.015 1486.48 Q136.015 1495.21 132.936 1499.82 Q129.881 1504.4 124.07 1504.4 Q118.26 1504.4 115.182 1499.82 Q112.126 1495.21 112.126 1486.48 Q112.126 1477.73 115.182 1473.15 Q118.26 1468.54 124.07 1468.54 Z" fill="#000000" fill-rule="nonzero" fill-opacity="1" /><path clip-path="url(#clip190)" d="M57.7745 1143.11 L74.0939 1143.11 L74.0939 1147.05 L52.1495 1147.05 L52.1495 1143.11 Q54.8115 1140.36 59.3949 1135.73 Q64.0013 1131.08 65.1819 1129.73 Q67.4272 1127.21 68.3068 1125.47 Q69.2096 1123.71 69.2096 1122.02 Q69.2096 1119.27 67.2652 1117.53 Q65.3439 1115.8 62.2421 1115.8 Q60.043 1115.8 57.5893 1116.56 Q55.1588 1117.33 52.381 1118.88 L52.381 1114.15 Q55.2051 1113.02 57.6588 1112.44 Q60.1124 1111.86 62.1495 1111.86 Q67.5198 1111.86 70.7142 1114.55 Q73.9087 1117.23 73.9087 1121.72 Q73.9087 1123.85 73.0985 1125.77 Q72.3115 1127.67 70.205 1130.27 Q69.6263 1130.94 66.5245 1134.15 Q63.4226 1137.35 57.7745 1143.11 Z" fill="#000000" fill-rule="nonzero" fill-opacity="1" /><path clip-path="url(#clip190)" d="M93.9086 1115.57 Q90.2975 1115.57 88.4688 1119.13 Q86.6632 1122.67 86.6632 1129.8 Q86.6632 1136.91 88.4688 1140.47 Q90.2975 1144.02 93.9086 1144.02 Q97.5428 1144.02 99.3483 1140.47 Q101.177 1136.91 101.177 1129.8 Q101.177 1122.67 99.3483 1119.13 Q97.5428 1115.57 93.9086 1115.57 M93.9086 1111.86 Q99.7187 1111.86 102.774 1116.47 Q105.853 1121.05 105.853 1129.8 Q105.853 1138.53 102.774 1143.14 Q99.7187 1147.72 93.9086 1147.72 Q88.0984 1147.72 85.0197 1143.14 Q81.9642 1138.53 81.9642 1129.8 Q81.9642 1121.05 85.0197 1116.47 Q88.0984 1111.86 93.9086 1111.86 Z" fill="#000000" fill-rule="nonzero" fill-opacity="1" /><path clip-path="url(#clip190)" d="M124.07 1115.57 Q120.459 1115.57 118.631 1119.13 Q116.825 1122.67 116.825 1129.8 Q116.825 1136.91 118.631 1140.47 Q120.459 1144.02 124.07 1144.02 Q127.705 1144.02 129.51 1140.47 Q131.339 1136.91 131.339 1129.8 Q131.339 1122.67 129.51 1119.13 Q127.705 1115.57 124.07 1115.57 M124.07 1111.86 Q129.881 1111.86 132.936 1116.47 Q136.015 1121.05 136.015 1129.8 Q136.015 1138.53 132.936 1143.14 Q129.881 1147.72 124.07 1147.72 Q118.26 1147.72 115.182 1143.14 Q112.126 1138.53 112.126 1129.8 Q112.126 1121.05 115.182 1116.47 Q118.26 1111.86 124.07 1111.86 Z" fill="#000000" fill-rule="nonzero" fill-opacity="1" /><path clip-path="url(#clip190)" d="M66.5939 759.882 L54.7884 778.331 L66.5939 778.331 L66.5939 759.882 M65.367 755.808 L71.2466 755.808 L71.2466 778.331 L76.1772 778.331 L76.1772 782.22 L71.2466 782.22 L71.2466 790.368 L66.5939 790.368 L66.5939 782.22 L50.9921 782.22 L50.9921 777.706 L65.367 755.808 Z" fill="#000000" fill-rule="nonzero" fill-opacity="1" /><path clip-path="url(#clip190)" d="M93.9086 758.887 Q90.2975 758.887 88.4688 762.451 Q86.6632 765.993 86.6632 773.123 Q86.6632 780.229 88.4688 783.794 Q90.2975 787.335 93.9086 787.335 Q97.5428 787.335 99.3483 783.794 Q101.177 780.229 101.177 773.123 Q101.177 765.993 99.3483 762.451 Q97.5428 758.887 93.9086 758.887 M93.9086 755.183 Q99.7187 755.183 102.774 759.789 Q105.853 764.373 105.853 773.123 Q105.853 781.849 102.774 786.456 Q99.7187 791.039 93.9086 791.039 Q88.0984 791.039 85.0197 786.456 Q81.9642 781.849 81.9642 773.123 Q81.9642 764.373 85.0197 759.789 Q88.0984 755.183 93.9086 755.183 Z" fill="#000000" fill-rule="nonzero" fill-opacity="1" /><path clip-path="url(#clip190)" d="M124.07 758.887 Q120.459 758.887 118.631 762.451 Q116.825 765.993 116.825 773.123 Q116.825 780.229 118.631 783.794 Q120.459 787.335 124.07 787.335 Q127.705 787.335 129.51 783.794 Q131.339 780.229 131.339 773.123 Q131.339 765.993 129.51 762.451 Q127.705 758.887 124.07 758.887 M124.07 755.183 Q129.881 755.183 132.936 759.789 Q136.015 764.373 136.015 773.123 Q136.015 781.849 132.936 786.456 Q129.881 791.039 124.07 791.039 Q118.26 791.039 115.182 786.456 Q112.126 781.849 112.126 773.123 Q112.126 764.373 115.182 759.789 Q118.26 755.183 124.07 755.183 Z" fill="#000000" fill-rule="nonzero" fill-opacity="1" /><path clip-path="url(#clip190)" d="M64.3254 414.544 Q61.1773 414.544 59.3254 416.697 Q57.4967 418.85 57.4967 422.6 Q57.4967 426.327 59.3254 428.503 Q61.1773 430.655 64.3254 430.655 Q67.4735 430.655 69.3022 428.503 Q71.1541 426.327 71.1541 422.6 Q71.1541 418.85 69.3022 416.697 Q67.4735 414.544 64.3254 414.544 M73.6077 399.892 L73.6077 404.151 Q71.8485 403.318 70.0429 402.878 Q68.2606 402.438 66.5013 402.438 Q61.8717 402.438 59.418 405.563 Q56.9875 408.688 56.6402 415.007 Q58.006 412.994 60.0662 411.929 Q62.1263 410.841 64.6032 410.841 Q69.8115 410.841 72.8207 414.012 Q75.8531 417.16 75.8531 422.6 Q75.8531 427.924 72.705 431.142 Q69.5568 434.359 64.3254 434.359 Q58.33 434.359 55.1588 429.776 Q51.9875 425.169 51.9875 416.443 Q51.9875 408.248 55.8764 403.387 Q59.7652 398.503 66.3161 398.503 Q68.0754 398.503 69.8578 398.85 Q71.6633 399.197 73.6077 399.892 Z" fill="#000000" fill-rule="nonzero" fill-opacity="1" /><path clip-path="url(#clip190)" d="M93.9086 402.207 Q90.2975 402.207 88.4688 405.771 Q86.6632 409.313 86.6632 416.443 Q86.6632 423.549 88.4688 427.114 Q90.2975 430.655 93.9086 430.655 Q97.5428 430.655 99.3483 427.114 Q101.177 423.549 101.177 416.443 Q101.177 409.313 99.3483 405.771 Q97.5428 402.207 93.9086 402.207 M93.9086 398.503 Q99.7187 398.503 102.774 403.109 Q105.853 407.693 105.853 416.443 Q105.853 425.169 102.774 429.776 Q99.7187 434.359 93.9086 434.359 Q88.0984 434.359 85.0197 429.776 Q81.9642 425.169 81.9642 416.443 Q81.9642 407.693 85.0197 403.109 Q88.0984 398.503 93.9086 398.503 Z" fill="#000000" fill-rule="nonzero" fill-opacity="1" /><path clip-path="url(#clip190)" d="M124.07 402.207 Q120.459 402.207 118.631 405.771 Q116.825 409.313 116.825 416.443 Q116.825 423.549 118.631 427.114 Q120.459 430.655 124.07 430.655 Q127.705 430.655 129.51 427.114 Q131.339 423.549 131.339 416.443 Q131.339 409.313 129.51 405.771 Q127.705 402.207 124.07 402.207 M124.07 398.503 Q129.881 398.503 132.936 403.109 Q136.015 407.693 136.015 416.443 Q136.015 425.169 132.936 429.776 Q129.881 434.359 124.07 434.359 Q118.26 434.359 115.182 429.776 Q112.126 425.169 112.126 416.443 Q112.126 407.693 115.182 403.109 Q118.26 398.503 124.07 398.503 Z" fill="#000000" fill-rule="nonzero" fill-opacity="1" /><path clip-path="url(#clip190)" d="M63.7467 60.5959 Q60.4134 60.5959 58.4921 62.3783 Q56.5939 64.1607 56.5939 67.2857 Q56.5939 70.4107 58.4921 72.1931 Q60.4134 73.9755 63.7467 73.9755 Q67.08 73.9755 69.0013 72.1931 Q70.9226 70.3876 70.9226 67.2857 Q70.9226 64.1607 69.0013 62.3783 Q67.1032 60.5959 63.7467 60.5959 M59.0708 58.6052 Q56.0615 57.8645 54.3717 55.8043 Q52.7051 53.7441 52.7051 50.7812 Q52.7051 46.6377 55.6449 44.2303 Q58.6078 41.8229 63.7467 41.8229 Q68.9087 41.8229 71.8485 44.2303 Q74.7883 46.6377 74.7883 50.7812 Q74.7883 53.7441 73.0985 55.8043 Q71.4318 57.8645 68.4457 58.6052 Q71.8253 59.3922 73.7003 61.6839 Q75.5985 63.9756 75.5985 67.2857 Q75.5985 72.3088 72.5198 74.994 Q69.4642 77.6792 63.7467 77.6792 Q58.0291 77.6792 54.9504 74.994 Q51.8949 72.3088 51.8949 67.2857 Q51.8949 63.9756 53.793 61.6839 Q55.6912 59.3922 59.0708 58.6052 M57.3578 51.221 Q57.3578 53.9062 59.0245 55.4108 Q60.7143 56.9154 63.7467 56.9154 Q66.7559 56.9154 68.4457 55.4108 Q70.1587 53.9062 70.1587 51.221 Q70.1587 48.5358 68.4457 47.0312 Q66.7559 45.5266 63.7467 45.5266 Q60.7143 45.5266 59.0245 47.0312 Q57.3578 48.5358 57.3578 51.221 Z" fill="#000000" fill-rule="nonzero" fill-opacity="1" /><path clip-path="url(#clip190)" d="M93.9086 45.5266 Q90.2975 45.5266 88.4688 49.0914 Q86.6632 52.633 86.6632 59.7626 Q86.6632 66.8691 88.4688 70.4339 Q90.2975 73.9755 93.9086 73.9755 Q97.5428 73.9755 99.3483 70.4339 Q101.177 66.8691 101.177 59.7626 Q101.177 52.633 99.3483 49.0914 Q97.5428 45.5266 93.9086 45.5266 M93.9086 41.8229 Q99.7187 41.8229 102.774 46.4294 Q105.853 51.0127 105.853 59.7626 Q105.853 68.4894 102.774 73.0959 Q99.7187 77.6792 93.9086 77.6792 Q88.0984 77.6792 85.0197 73.0959 Q81.9642 68.4894 81.9642 59.7626 Q81.9642 51.0127 85.0197 46.4294 Q88.0984 41.8229 93.9086 41.8229 Z" fill="#000000" fill-rule="nonzero" fill-opacity="1" /><path clip-path="url(#clip190)" d="M124.07 45.5266 Q120.459 45.5266 118.631 49.0914 Q116.825 52.633 116.825 59.7626 Q116.825 66.8691 118.631 70.4339 Q120.459 73.9755 124.07 73.9755 Q127.705 73.9755 129.51 70.4339 Q131.339 66.8691 131.339 59.7626 Q131.339 52.633 129.51 49.0914 Q127.705 45.5266 124.07 45.5266 M124.07 41.8229 Q129.881 41.8229 132.936 46.4294 Q136.015 51.0127 136.015 59.7626 Q136.015 68.4894 132.936 73.0959 Q129.881 77.6792 124.07 77.6792 Q118.26 77.6792 115.182 73.0959 Q112.126 68.4894 112.126 59.7626 Q112.126 51.0127 115.182 46.4294 Q118.26 41.8229 124.07 41.8229 Z" fill="#000000" fill-rule="nonzero" fill-opacity="1" /><path clip-path="url(#clip192)" d="M291.959 1484.66 L291.959 1486.45 L332.394 1486.45 L332.394 1484.66 L291.959 1484.66 L291.959 1484.66  Z" fill="#009af9" fill-rule="evenodd" fill-opacity="1"/>
<polyline clip-path="url(#clip192)" style="stroke:#000000; stroke-linecap:round; stroke-linejoin:round; stroke-width:4; stroke-opacity:1; fill:none" points="291.959,1484.66 291.959,1486.45 332.394,1486.45 332.394,1484.66 291.959,1484.66 "/>
<path clip-path="url(#clip192)" d="M332.394 1486.45 L332.394 1486.45 L372.828 1486.45 L372.828 1486.45 L332.394 1486.45 L332.394 1486.45  Z" fill="#009af9" fill-rule="evenodd" fill-opacity="1"/>
<polyline clip-path="url(#clip192)" style="stroke:#000000; stroke-linecap:round; stroke-linejoin:round; stroke-width:4; stroke-opacity:1; fill:none" points="332.394,1486.45 332.394,1486.45 372.828,1486.45 332.394,1486.45 "/>
<path clip-path="url(#clip192)" d="M372.828 1482.88 L372.828 1486.45 L413.263 1486.45 L413.263 1482.88 L372.828 1482.88 L372.828 1482.88  Z" fill="#009af9" fill-rule="evenodd" fill-opacity="1"/>
<polyline clip-path="url(#clip192)" style="stroke:#000000; stroke-linecap:round; stroke-linejoin:round; stroke-width:4; stroke-opacity:1; fill:none" points="372.828,1482.88 372.828,1486.45 413.263,1486.45 413.263,1482.88 372.828,1482.88 "/>
<path clip-path="url(#clip192)" d="M413.263 1481.1 L413.263 1486.45 L453.697 1486.45 L453.697 1481.1 L413.263 1481.1 L413.263 1481.1  Z" fill="#009af9" fill-rule="evenodd" fill-opacity="1"/>
<polyline clip-path="url(#clip192)" style="stroke:#000000; stroke-linecap:round; stroke-linejoin:round; stroke-width:4; stroke-opacity:1; fill:none" points="413.263,1481.1 413.263,1486.45 453.697,1486.45 453.697,1481.1 413.263,1481.1 "/>
<path clip-path="url(#clip192)" d="M453.697 1482.88 L453.697 1486.45 L494.132 1486.45 L494.132 1482.88 L453.697 1482.88 L453.697 1482.88  Z" fill="#009af9" fill-rule="evenodd" fill-opacity="1"/>
<polyline clip-path="url(#clip192)" style="stroke:#000000; stroke-linecap:round; stroke-linejoin:round; stroke-width:4; stroke-opacity:1; fill:none" points="453.697,1482.88 453.697,1486.45 494.132,1486.45 494.132,1482.88 453.697,1482.88 "/>
<path clip-path="url(#clip192)" d="M494.132 1481.1 L494.132 1486.45 L534.566 1486.45 L534.566 1481.1 L494.132 1481.1 L494.132 1481.1  Z" fill="#009af9" fill-rule="evenodd" fill-opacity="1"/>
<polyline clip-path="url(#clip192)" style="stroke:#000000; stroke-linecap:round; stroke-linejoin:round; stroke-width:4; stroke-opacity:1; fill:none" points="494.132,1481.1 494.132,1486.45 534.566,1486.45 534.566,1481.1 494.132,1481.1 "/>
<path clip-path="url(#clip192)" d="M534.566 1486.45 L534.566 1486.45 L575 1486.45 L575 1486.45 L534.566 1486.45 L534.566 1486.45  Z" fill="#009af9" fill-rule="evenodd" fill-opacity="1"/>
<polyline clip-path="url(#clip192)" style="stroke:#000000; stroke-linecap:round; stroke-linejoin:round; stroke-width:4; stroke-opacity:1; fill:none" points="534.566,1486.45 534.566,1486.45 575,1486.45 534.566,1486.45 "/>
<path clip-path="url(#clip192)" d="M575 1465.05 L575 1486.45 L615.435 1486.45 L615.435 1465.05 L575 1465.05 L575 1465.05  Z" fill="#009af9" fill-rule="evenodd" fill-opacity="1"/>
<polyline clip-path="url(#clip192)" style="stroke:#000000; stroke-linecap:round; stroke-linejoin:round; stroke-width:4; stroke-opacity:1; fill:none" points="575,1465.05 575,1486.45 615.435,1486.45 615.435,1465.05 575,1465.05 "/>
<path clip-path="url(#clip192)" d="M615.435 1454.35 L615.435 1486.45 L655.869 1486.45 L655.869 1454.35 L615.435 1454.35 L615.435 1454.35  Z" fill="#009af9" fill-rule="evenodd" fill-opacity="1"/>
<polyline clip-path="url(#clip192)" style="stroke:#000000; stroke-linecap:round; stroke-linejoin:round; stroke-width:4; stroke-opacity:1; fill:none" points="615.435,1454.35 615.435,1486.45 655.869,1486.45 655.869,1454.35 615.435,1454.35 "/>
<path clip-path="url(#clip192)" d="M655.869 1415.11 L655.869 1486.45 L696.304 1486.45 L696.304 1415.11 L655.869 1415.11 L655.869 1415.11  Z" fill="#009af9" fill-rule="evenodd" fill-opacity="1"/>
<polyline clip-path="url(#clip192)" style="stroke:#000000; stroke-linecap:round; stroke-linejoin:round; stroke-width:4; stroke-opacity:1; fill:none" points="655.869,1415.11 655.869,1486.45 696.304,1486.45 696.304,1415.11 655.869,1415.11 "/>
<path clip-path="url(#clip192)" d="M696.304 1420.46 L696.304 1486.45 L736.738 1486.45 L736.738 1420.46 L696.304 1420.46 L696.304 1420.46  Z" fill="#009af9" fill-rule="evenodd" fill-opacity="1"/>
<polyline clip-path="url(#clip192)" style="stroke:#000000; stroke-linecap:round; stroke-linejoin:round; stroke-width:4; stroke-opacity:1; fill:none" points="696.304,1420.46 696.304,1486.45 736.738,1486.45 736.738,1420.46 696.304,1420.46 "/>
<path clip-path="url(#clip192)" d="M736.738 1486.45 L736.738 1486.45 L777.172 1486.45 L777.172 1486.45 L736.738 1486.45 L736.738 1486.45  Z" fill="#009af9" fill-rule="evenodd" fill-opacity="1"/>
<polyline clip-path="url(#clip192)" style="stroke:#000000; stroke-linecap:round; stroke-linejoin:round; stroke-width:4; stroke-opacity:1; fill:none" points="736.738,1486.45 736.738,1486.45 777.172,1486.45 736.738,1486.45 "/>
<path clip-path="url(#clip192)" d="M777.172 1336.64 L777.172 1486.45 L817.607 1486.45 L817.607 1336.64 L777.172 1336.64 L777.172 1336.64  Z" fill="#009af9" fill-rule="evenodd" fill-opacity="1"/>
<polyline clip-path="url(#clip192)" style="stroke:#000000; stroke-linecap:round; stroke-linejoin:round; stroke-width:4; stroke-opacity:1; fill:none" points="777.172,1336.64 777.172,1486.45 817.607,1486.45 817.607,1336.64 777.172,1336.64 "/>
<path clip-path="url(#clip192)" d="M817.607 1252.82 L817.607 1486.45 L858.041 1486.45 L858.041 1252.82 L817.607 1252.82 L817.607 1252.82  Z" fill="#009af9" fill-rule="evenodd" fill-opacity="1"/>
<polyline clip-path="url(#clip192)" style="stroke:#000000; stroke-linecap:round; stroke-linejoin:round; stroke-width:4; stroke-opacity:1; fill:none" points="817.607,1252.82 817.607,1486.45 858.041,1486.45 858.041,1252.82 817.607,1252.82 "/>
<path clip-path="url(#clip192)" d="M858.041 1124.42 L858.041 1486.45 L898.476 1486.45 L898.476 1124.42 L858.041 1124.42 L858.041 1124.42  Z" fill="#009af9" fill-rule="evenodd" fill-opacity="1"/>
<polyline clip-path="url(#clip192)" style="stroke:#000000; stroke-linecap:round; stroke-linejoin:round; stroke-width:4; stroke-opacity:1; fill:none" points="858.041,1124.42 858.041,1486.45 898.476,1486.45 898.476,1124.42 858.041,1124.42 "/>
<path clip-path="url(#clip192)" d="M898.476 1026.33 L898.476 1486.45 L938.91 1486.45 L938.91 1026.33 L898.476 1026.33 L898.476 1026.33  Z" fill="#009af9" fill-rule="evenodd" fill-opacity="1"/>
<polyline clip-path="url(#clip192)" style="stroke:#000000; stroke-linecap:round; stroke-linejoin:round; stroke-width:4; stroke-opacity:1; fill:none" points="898.476,1026.33 898.476,1486.45 938.91,1486.45 938.91,1026.33 898.476,1026.33 "/>
<path clip-path="url(#clip192)" d="M938.91 901.493 L938.91 1486.45 L979.344 1486.45 L979.344 901.493 L938.91 901.493 L938.91 901.493  Z" fill="#009af9" fill-rule="evenodd" fill-opacity="1"/>
<polyline clip-path="url(#clip192)" style="stroke:#000000; stroke-linecap:round; stroke-linejoin:round; stroke-width:4; stroke-opacity:1; fill:none" points="938.91,901.493 938.91,1486.45 979.344,1486.45 979.344,901.493 938.91,901.493 "/>
<path clip-path="url(#clip192)" d="M979.344 1486.45 L979.344 1486.45 L1019.78 1486.45 L1019.78 1486.45 L979.344 1486.45 L979.344 1486.45  Z" fill="#009af9" fill-rule="evenodd" fill-opacity="1"/>
<polyline clip-path="url(#clip192)" style="stroke:#000000; stroke-linecap:round; stroke-linejoin:round; stroke-width:4; stroke-opacity:1; fill:none" points="979.344,1486.45 979.344,1486.45 1019.78,1486.45 979.344,1486.45 "/>
<path clip-path="url(#clip192)" d="M1019.78 651.817 L1019.78 1486.45 L1060.21 1486.45 L1060.21 651.817 L1019.78 651.817 L1019.78 651.817  Z" fill="#009af9" fill-rule="evenodd" fill-opacity="1"/>
<polyline clip-path="url(#clip192)" style="stroke:#000000; stroke-linecap:round; stroke-linejoin:round; stroke-width:4; stroke-opacity:1; fill:none" points="1019.78,651.817 1019.78,1486.45 1060.21,1486.45 1060.21,651.817 1019.78,651.817 "/>
<path clip-path="url(#clip192)" d="M1060.21 591.181 L1060.21 1486.45 L1100.65 1486.45 L1100.65 591.181 L1060.21 591.181 L1060.21 591.181  Z" fill="#009af9" fill-rule="evenodd" fill-opacity="1"/>
<polyline clip-path="url(#clip192)" style="stroke:#000000; stroke-linecap:round; stroke-linejoin:round; stroke-width:4; stroke-opacity:1; fill:none" points="1060.21,591.181 1060.21,1486.45 1100.65,1486.45 1100.65,591.181 1060.21,591.181 "/>
<path clip-path="url(#clip192)" d="M1100.65 378.956 L1100.65 1486.45 L1141.08 1486.45 L1141.08 378.956 L1100.65 378.956 L1100.65 378.956  Z" fill="#009af9" fill-rule="evenodd" fill-opacity="1"/>
<polyline clip-path="url(#clip192)" style="stroke:#000000; stroke-linecap:round; stroke-linejoin:round; stroke-width:4; stroke-opacity:1; fill:none" points="1100.65,378.956 1100.65,1486.45 1141.08,1486.45 1141.08,378.956 1100.65,378.956 "/>
<path clip-path="url(#clip192)" d="M1141.08 248.768 L1141.08 1486.45 L1181.52 1486.45 L1181.52 248.768 L1141.08 248.768 L1141.08 248.768  Z" fill="#009af9" fill-rule="evenodd" fill-opacity="1"/>
<polyline clip-path="url(#clip192)" style="stroke:#000000; stroke-linecap:round; stroke-linejoin:round; stroke-width:4; stroke-opacity:1; fill:none" points="1141.08,248.768 1141.08,1486.45 1181.52,1486.45 1181.52,248.768 1141.08,248.768 "/>
<path clip-path="url(#clip192)" d="M1181.52 1486.45 L1181.52 1486.45 L1221.95 1486.45 L1221.95 1486.45 L1181.52 1486.45 L1181.52 1486.45  Z" fill="#009af9" fill-rule="evenodd" fill-opacity="1"/>
<polyline clip-path="url(#clip192)" style="stroke:#000000; stroke-linecap:round; stroke-linejoin:round; stroke-width:4; stroke-opacity:1; fill:none" points="1181.52,1486.45 1181.52,1486.45 1221.95,1486.45 1181.52,1486.45 "/>
<path clip-path="url(#clip192)" d="M1221.95 100.746 L1221.95 1486.45 L1262.39 1486.45 L1262.39 100.746 L1221.95 100.746 L1221.95 100.746  Z" fill="#009af9" fill-rule="evenodd" fill-opacity="1"/>
<polyline clip-path="url(#clip192)" style="stroke:#000000; stroke-linecap:round; stroke-linejoin:round; stroke-width:4; stroke-opacity:1; fill:none" points="1221.95,100.746 1221.95,1486.45 1262.39,1486.45 1262.39,100.746 1221.95,100.746 "/>
<path clip-path="url(#clip192)" d="M1262.39 75.7785 L1262.39 1486.45 L1302.82 1486.45 L1302.82 75.7785 L1262.39 75.7785 L1262.39 75.7785  Z" fill="#009af9" fill-rule="evenodd" fill-opacity="1"/>
<polyline clip-path="url(#clip192)" style="stroke:#000000; stroke-linecap:round; stroke-linejoin:round; stroke-width:4; stroke-opacity:1; fill:none" points="1262.39,75.7785 1262.39,1486.45 1302.82,1486.45 1302.82,75.7785 1262.39,75.7785 "/>
<path clip-path="url(#clip192)" d="M1302.82 65.0781 L1302.82 1486.45 L1343.25 1486.45 L1343.25 65.0781 L1302.82 65.0781 L1302.82 65.0781  Z" fill="#009af9" fill-rule="evenodd" fill-opacity="1"/>
<polyline clip-path="url(#clip192)" style="stroke:#000000; stroke-linecap:round; stroke-linejoin:round; stroke-width:4; stroke-opacity:1; fill:none" points="1302.82,65.0781 1302.82,1486.45 1343.25,1486.45 1343.25,65.0781 1302.82,65.0781 "/>
<path clip-path="url(#clip192)" d="M1343.25 47.2441 L1343.25 1486.45 L1383.69 1486.45 L1383.69 47.2441 L1343.25 47.2441 L1343.25 47.2441  Z" fill="#009af9" fill-rule="evenodd" fill-opacity="1"/>
<polyline clip-path="url(#clip192)" style="stroke:#000000; stroke-linecap:round; stroke-linejoin:round; stroke-width:4; stroke-opacity:1; fill:none" points="1343.25,47.2441 1343.25,1486.45 1383.69,1486.45 1383.69,47.2441 1343.25,47.2441 "/>
<path clip-path="url(#clip192)" d="M1383.69 1486.45 L1383.69 1486.45 L1424.12 1486.45 L1424.12 1486.45 L1383.69 1486.45 L1383.69 1486.45  Z" fill="#009af9" fill-rule="evenodd" fill-opacity="1"/>
<polyline clip-path="url(#clip192)" style="stroke:#000000; stroke-linecap:round; stroke-linejoin:round; stroke-width:4; stroke-opacity:1; fill:none" points="1383.69,1486.45 1383.69,1486.45 1424.12,1486.45 1383.69,1486.45 "/>
<path clip-path="url(#clip192)" d="M1424.12 280.869 L1424.12 1486.45 L1464.56 1486.45 L1464.56 280.869 L1424.12 280.869 L1424.12 280.869  Z" fill="#009af9" fill-rule="evenodd" fill-opacity="1"/>
<polyline clip-path="url(#clip192)" style="stroke:#000000; stroke-linecap:round; stroke-linejoin:round; stroke-width:4; stroke-opacity:1; fill:none" points="1424.12,280.869 1424.12,1486.45 1464.56,1486.45 1464.56,280.869 1424.12,280.869 "/>
<path clip-path="url(#clip192)" d="M1464.56 352.205 L1464.56 1486.45 L1504.99 1486.45 L1504.99 352.205 L1464.56 352.205 L1464.56 352.205  Z" fill="#009af9" fill-rule="evenodd" fill-opacity="1"/>
<polyline clip-path="url(#clip192)" style="stroke:#000000; stroke-linecap:round; stroke-linejoin:round; stroke-width:4; stroke-opacity:1; fill:none" points="1464.56,352.205 1464.56,1486.45 1504.99,1486.45 1504.99,352.205 1464.56,352.205 "/>
<path clip-path="url(#clip192)" d="M1504.99 584.047 L1504.99 1486.45 L1545.43 1486.45 L1545.43 584.047 L1504.99 584.047 L1504.99 584.047  Z" fill="#009af9" fill-rule="evenodd" fill-opacity="1"/>
<polyline clip-path="url(#clip192)" style="stroke:#000000; stroke-linecap:round; stroke-linejoin:round; stroke-width:4; stroke-opacity:1; fill:none" points="1504.99,584.047 1504.99,1486.45 1545.43,1486.45 1545.43,584.047 1504.99,584.047 "/>
<path clip-path="url(#clip192)" d="M1545.43 683.918 L1545.43 1486.45 L1585.86 1486.45 L1585.86 683.918 L1545.43 683.918 L1545.43 683.918  Z" fill="#009af9" fill-rule="evenodd" fill-opacity="1"/>
<polyline clip-path="url(#clip192)" style="stroke:#000000; stroke-linecap:round; stroke-linejoin:round; stroke-width:4; stroke-opacity:1; fill:none" points="1545.43,683.918 1545.43,1486.45 1585.86,1486.45 1585.86,683.918 1545.43,683.918 "/>
<path clip-path="url(#clip192)" d="M1585.86 878.308 L1585.86 1486.45 L1626.3 1486.45 L1626.3 878.308 L1585.86 878.308 L1585.86 878.308  Z" fill="#009af9" fill-rule="evenodd" fill-opacity="1"/>
<polyline clip-path="url(#clip192)" style="stroke:#000000; stroke-linecap:round; stroke-linejoin:round; stroke-width:4; stroke-opacity:1; fill:none" points="1585.86,878.308 1585.86,1486.45 1626.3,1486.45 1626.3,878.308 1585.86,878.308 "/>
<path clip-path="url(#clip192)" d="M1626.3 1486.45 L1626.3 1486.45 L1666.73 1486.45 L1666.73 1486.45 L1626.3 1486.45 L1626.3 1486.45  Z" fill="#009af9" fill-rule="evenodd" fill-opacity="1"/>
<polyline clip-path="url(#clip192)" style="stroke:#000000; stroke-linecap:round; stroke-linejoin:round; stroke-width:4; stroke-opacity:1; fill:none" points="1626.3,1486.45 1626.3,1486.45 1666.73,1486.45 1626.3,1486.45 "/>
<path clip-path="url(#clip192)" d="M1666.73 997.796 L1666.73 1486.45 L1707.16 1486.45 L1707.16 997.796 L1666.73 997.796 L1666.73 997.796  Z" fill="#009af9" fill-rule="evenodd" fill-opacity="1"/>
<polyline clip-path="url(#clip192)" style="stroke:#000000; stroke-linecap:round; stroke-linejoin:round; stroke-width:4; stroke-opacity:1; fill:none" points="1666.73,997.796 1666.73,1486.45 1707.16,1486.45 1707.16,997.796 1666.73,997.796 "/>
<path clip-path="url(#clip192)" d="M1707.16 1158.3 L1707.16 1486.45 L1747.6 1486.45 L1747.6 1158.3 L1707.16 1158.3 L1707.16 1158.3  Z" fill="#009af9" fill-rule="evenodd" fill-opacity="1"/>
<polyline clip-path="url(#clip192)" style="stroke:#000000; stroke-linecap:round; stroke-linejoin:round; stroke-width:4; stroke-opacity:1; fill:none" points="1707.16,1158.3 1707.16,1486.45 1747.6,1486.45 1747.6,1158.3 1707.16,1158.3 "/>
<path clip-path="url(#clip192)" d="M1747.6 1267.09 L1747.6 1486.45 L1788.03 1486.45 L1788.03 1267.09 L1747.6 1267.09 L1747.6 1267.09  Z" fill="#009af9" fill-rule="evenodd" fill-opacity="1"/>
<polyline clip-path="url(#clip192)" style="stroke:#000000; stroke-linecap:round; stroke-linejoin:round; stroke-width:4; stroke-opacity:1; fill:none" points="1747.6,1267.09 1747.6,1486.45 1788.03,1486.45 1788.03,1267.09 1747.6,1267.09 "/>
<path clip-path="url(#clip192)" d="M1788.03 1336.64 L1788.03 1486.45 L1828.47 1486.45 L1828.47 1336.64 L1788.03 1336.64 L1788.03 1336.64  Z" fill="#009af9" fill-rule="evenodd" fill-opacity="1"/>
<polyline clip-path="url(#clip192)" style="stroke:#000000; stroke-linecap:round; stroke-linejoin:round; stroke-width:4; stroke-opacity:1; fill:none" points="1788.03,1336.64 1788.03,1486.45 1828.47,1486.45 1828.47,1336.64 1788.03,1336.64 "/>
<path clip-path="url(#clip192)" d="M1828.47 1486.45 L1828.47 1486.45 L1868.9 1486.45 L1868.9 1486.45 L1828.47 1486.45 L1828.47 1486.45  Z" fill="#009af9" fill-rule="evenodd" fill-opacity="1"/>
<polyline clip-path="url(#clip192)" style="stroke:#000000; stroke-linecap:round; stroke-linejoin:round; stroke-width:4; stroke-opacity:1; fill:none" points="1828.47,1486.45 1828.47,1486.45 1868.9,1486.45 1828.47,1486.45 "/>
<path clip-path="url(#clip192)" d="M1868.9 1377.66 L1868.9 1486.45 L1909.34 1486.45 L1909.34 1377.66 L1868.9 1377.66 L1868.9 1377.66  Z" fill="#009af9" fill-rule="evenodd" fill-opacity="1"/>
<polyline clip-path="url(#clip192)" style="stroke:#000000; stroke-linecap:round; stroke-linejoin:round; stroke-width:4; stroke-opacity:1; fill:none" points="1868.9,1377.66 1868.9,1486.45 1909.34,1486.45 1909.34,1377.66 1868.9,1377.66 "/>
<path clip-path="url(#clip192)" d="M1909.34 1418.68 L1909.34 1486.45 L1949.77 1486.45 L1949.77 1418.68 L1909.34 1418.68 L1909.34 1418.68  Z" fill="#009af9" fill-rule="evenodd" fill-opacity="1"/>
<polyline clip-path="url(#clip192)" style="stroke:#000000; stroke-linecap:round; stroke-linejoin:round; stroke-width:4; stroke-opacity:1; fill:none" points="1909.34,1418.68 1909.34,1486.45 1949.77,1486.45 1949.77,1418.68 1909.34,1418.68 "/>
<path clip-path="url(#clip192)" d="M1949.77 1445.43 L1949.77 1486.45 L1990.2 1486.45 L1990.2 1445.43 L1949.77 1445.43 L1949.77 1445.43  Z" fill="#009af9" fill-rule="evenodd" fill-opacity="1"/>
<polyline clip-path="url(#clip192)" style="stroke:#000000; stroke-linecap:round; stroke-linejoin:round; stroke-width:4; stroke-opacity:1; fill:none" points="1949.77,1445.43 1949.77,1486.45 1990.2,1486.45 1990.2,1445.43 1949.77,1445.43 "/>
<path clip-path="url(#clip192)" d="M1990.2 1463.26 L1990.2 1486.45 L2030.64 1486.45 L2030.64 1463.26 L1990.2 1463.26 L1990.2 1463.26  Z" fill="#009af9" fill-rule="evenodd" fill-opacity="1"/>
<polyline clip-path="url(#clip192)" style="stroke:#000000; stroke-linecap:round; stroke-linejoin:round; stroke-width:4; stroke-opacity:1; fill:none" points="1990.2,1463.26 1990.2,1486.45 2030.64,1486.45 2030.64,1463.26 1990.2,1463.26 "/>
<path clip-path="url(#clip192)" d="M2030.64 1486.45 L2030.64 1486.45 L2071.07 1486.45 L2071.07 1486.45 L2030.64 1486.45 L2030.64 1486.45  Z" fill="#009af9" fill-rule="evenodd" fill-opacity="1"/>
<polyline clip-path="url(#clip192)" style="stroke:#000000; stroke-linecap:round; stroke-linejoin:round; stroke-width:4; stroke-opacity:1; fill:none" points="2030.64,1486.45 2030.64,1486.45 2071.07,1486.45 2030.64,1486.45 "/>
<path clip-path="url(#clip192)" d="M2071.07 1481.1 L2071.07 1486.45 L2111.51 1486.45 L2111.51 1481.1 L2071.07 1481.1 L2071.07 1481.1  Z" fill="#009af9" fill-rule="evenodd" fill-opacity="1"/>
<polyline clip-path="url(#clip192)" style="stroke:#000000; stroke-linecap:round; stroke-linejoin:round; stroke-width:4; stroke-opacity:1; fill:none" points="2071.07,1481.1 2071.07,1486.45 2111.51,1486.45 2111.51,1481.1 2071.07,1481.1 "/>
<path clip-path="url(#clip192)" d="M2111.51 1481.1 L2111.51 1486.45 L2151.94 1486.45 L2151.94 1481.1 L2111.51 1481.1 L2111.51 1481.1  Z" fill="#009af9" fill-rule="evenodd" fill-opacity="1"/>
<polyline clip-path="url(#clip192)" style="stroke:#000000; stroke-linecap:round; stroke-linejoin:round; stroke-width:4; stroke-opacity:1; fill:none" points="2111.51,1481.1 2111.51,1486.45 2151.94,1486.45 2151.94,1481.1 2111.51,1481.1 "/>
<path clip-path="url(#clip192)" d="M2151.94 1479.31 L2151.94 1486.45 L2192.38 1486.45 L2192.38 1479.31 L2151.94 1479.31 L2151.94 1479.31  Z" fill="#009af9" fill-rule="evenodd" fill-opacity="1"/>
<polyline clip-path="url(#clip192)" style="stroke:#000000; stroke-linecap:round; stroke-linejoin:round; stroke-width:4; stroke-opacity:1; fill:none" points="2151.94,1479.31 2151.94,1486.45 2192.38,1486.45 2192.38,1479.31 2151.94,1479.31 "/>
<path clip-path="url(#clip192)" d="M2192.38 1482.88 L2192.38 1486.45 L2232.81 1486.45 L2232.81 1482.88 L2192.38 1482.88 L2192.38 1482.88  Z" fill="#009af9" fill-rule="evenodd" fill-opacity="1"/>
<polyline clip-path="url(#clip192)" style="stroke:#000000; stroke-linecap:round; stroke-linejoin:round; stroke-width:4; stroke-opacity:1; fill:none" points="2192.38,1482.88 2192.38,1486.45 2232.81,1486.45 2232.81,1482.88 2192.38,1482.88 "/>
<circle clip-path="url(#clip192)" style="fill:#009af9; stroke:none; fill-opacity:0" cx="312.177" cy="1484.66" r="2"/>
<circle clip-path="url(#clip192)" style="fill:#009af9; stroke:none; fill-opacity:0" cx="352.611" cy="1486.45" r="2"/>
<circle clip-path="url(#clip192)" style="fill:#009af9; stroke:none; fill-opacity:0" cx="393.045" cy="1482.88" r="2"/>
<circle clip-path="url(#clip192)" style="fill:#009af9; stroke:none; fill-opacity:0" cx="433.48" cy="1481.1" r="2"/>
<circle clip-path="url(#clip192)" style="fill:#009af9; stroke:none; fill-opacity:0" cx="473.914" cy="1482.88" r="2"/>
<circle clip-path="url(#clip192)" style="fill:#009af9; stroke:none; fill-opacity:0" cx="514.349" cy="1481.1" r="2"/>
<circle clip-path="url(#clip192)" style="fill:#009af9; stroke:none; fill-opacity:0" cx="554.783" cy="1486.45" r="2"/>
<circle clip-path="url(#clip192)" style="fill:#009af9; stroke:none; fill-opacity:0" cx="595.218" cy="1465.05" r="2"/>
<circle clip-path="url(#clip192)" style="fill:#009af9; stroke:none; fill-opacity:0" cx="635.652" cy="1454.35" r="2"/>
<circle clip-path="url(#clip192)" style="fill:#009af9; stroke:none; fill-opacity:0" cx="676.086" cy="1415.11" r="2"/>
<circle clip-path="url(#clip192)" style="fill:#009af9; stroke:none; fill-opacity:0" cx="716.521" cy="1420.46" r="2"/>
<circle clip-path="url(#clip192)" style="fill:#009af9; stroke:none; fill-opacity:0" cx="756.955" cy="1486.45" r="2"/>
<circle clip-path="url(#clip192)" style="fill:#009af9; stroke:none; fill-opacity:0" cx="797.39" cy="1336.64" r="2"/>
<circle clip-path="url(#clip192)" style="fill:#009af9; stroke:none; fill-opacity:0" cx="837.824" cy="1252.82" r="2"/>
<circle clip-path="url(#clip192)" style="fill:#009af9; stroke:none; fill-opacity:0" cx="878.258" cy="1124.42" r="2"/>
<circle clip-path="url(#clip192)" style="fill:#009af9; stroke:none; fill-opacity:0" cx="918.693" cy="1026.33" r="2"/>
<circle clip-path="url(#clip192)" style="fill:#009af9; stroke:none; fill-opacity:0" cx="959.127" cy="901.493" r="2"/>
<circle clip-path="url(#clip192)" style="fill:#009af9; stroke:none; fill-opacity:0" cx="999.562" cy="1486.45" r="2"/>
<circle clip-path="url(#clip192)" style="fill:#009af9; stroke:none; fill-opacity:0" cx="1040" cy="651.817" r="2"/>
<circle clip-path="url(#clip192)" style="fill:#009af9; stroke:none; fill-opacity:0" cx="1080.43" cy="591.181" r="2"/>
<circle clip-path="url(#clip192)" style="fill:#009af9; stroke:none; fill-opacity:0" cx="1120.86" cy="378.956" r="2"/>
<circle clip-path="url(#clip192)" style="fill:#009af9; stroke:none; fill-opacity:0" cx="1161.3" cy="248.768" r="2"/>
<circle clip-path="url(#clip192)" style="fill:#009af9; stroke:none; fill-opacity:0" cx="1201.73" cy="1486.45" r="2"/>
<circle clip-path="url(#clip192)" style="fill:#009af9; stroke:none; fill-opacity:0" cx="1242.17" cy="100.746" r="2"/>
<circle clip-path="url(#clip192)" style="fill:#009af9; stroke:none; fill-opacity:0" cx="1282.6" cy="75.7785" r="2"/>
<circle clip-path="url(#clip192)" style="fill:#009af9; stroke:none; fill-opacity:0" cx="1323.04" cy="65.0781" r="2"/>
<circle clip-path="url(#clip192)" style="fill:#009af9; stroke:none; fill-opacity:0" cx="1363.47" cy="47.2441" r="2"/>
<circle clip-path="url(#clip192)" style="fill:#009af9; stroke:none; fill-opacity:0" cx="1403.91" cy="1486.45" r="2"/>
<circle clip-path="url(#clip192)" style="fill:#009af9; stroke:none; fill-opacity:0" cx="1444.34" cy="280.869" r="2"/>
<circle clip-path="url(#clip192)" style="fill:#009af9; stroke:none; fill-opacity:0" cx="1484.77" cy="352.205" r="2"/>
<circle clip-path="url(#clip192)" style="fill:#009af9; stroke:none; fill-opacity:0" cx="1525.21" cy="584.047" r="2"/>
<circle clip-path="url(#clip192)" style="fill:#009af9; stroke:none; fill-opacity:0" cx="1565.64" cy="683.918" r="2"/>
<circle clip-path="url(#clip192)" style="fill:#009af9; stroke:none; fill-opacity:0" cx="1606.08" cy="878.308" r="2"/>
<circle clip-path="url(#clip192)" style="fill:#009af9; stroke:none; fill-opacity:0" cx="1646.51" cy="1486.45" r="2"/>
<circle clip-path="url(#clip192)" style="fill:#009af9; stroke:none; fill-opacity:0" cx="1686.95" cy="997.796" r="2"/>
<circle clip-path="url(#clip192)" style="fill:#009af9; stroke:none; fill-opacity:0" cx="1727.38" cy="1158.3" r="2"/>
<circle clip-path="url(#clip192)" style="fill:#009af9; stroke:none; fill-opacity:0" cx="1767.82" cy="1267.09" r="2"/>
<circle clip-path="url(#clip192)" style="fill:#009af9; stroke:none; fill-opacity:0" cx="1808.25" cy="1336.64" r="2"/>
<circle clip-path="url(#clip192)" style="fill:#009af9; stroke:none; fill-opacity:0" cx="1848.68" cy="1486.45" r="2"/>
<circle clip-path="url(#clip192)" style="fill:#009af9; stroke:none; fill-opacity:0" cx="1889.12" cy="1377.66" r="2"/>
<circle clip-path="url(#clip192)" style="fill:#009af9; stroke:none; fill-opacity:0" cx="1929.55" cy="1418.68" r="2"/>
<circle clip-path="url(#clip192)" style="fill:#009af9; stroke:none; fill-opacity:0" cx="1969.99" cy="1445.43" r="2"/>
<circle clip-path="url(#clip192)" style="fill:#009af9; stroke:none; fill-opacity:0" cx="2010.42" cy="1463.26" r="2"/>
<circle clip-path="url(#clip192)" style="fill:#009af9; stroke:none; fill-opacity:0" cx="2050.86" cy="1486.45" r="2"/>
<circle clip-path="url(#clip192)" style="fill:#009af9; stroke:none; fill-opacity:0" cx="2091.29" cy="1481.1" r="2"/>
<circle clip-path="url(#clip192)" style="fill:#009af9; stroke:none; fill-opacity:0" cx="2131.73" cy="1481.1" r="2"/>
<circle clip-path="url(#clip192)" style="fill:#009af9; stroke:none; fill-opacity:0" cx="2172.16" cy="1479.31" r="2"/>
<circle clip-path="url(#clip192)" style="fill:#009af9; stroke:none; fill-opacity:0" cx="2212.59" cy="1482.88" r="2"/>
<path clip-path="url(#clip192)" d="M736.738 1482.88 L736.738 1486.45 L756.955 1486.45 L756.955 1482.88 L736.738 1482.88 L736.738 1482.88  Z" fill="#e26f46" fill-rule="evenodd" fill-opacity="1"/>
<polyline clip-path="url(#clip192)" style="stroke:#000000; stroke-linecap:round; stroke-linejoin:round; stroke-width:4; stroke-opacity:1; fill:none" points="736.738,1482.88 736.738,1486.45 756.955,1486.45 756.955,1482.88 736.738,1482.88 "/>
<path clip-path="url(#clip192)" d="M756.955 1481.1 L756.955 1486.45 L777.172 1486.45 L777.172 1481.1 L756.955 1481.1 L756.955 1481.1  Z" fill="#e26f46" fill-rule="evenodd" fill-opacity="1"/>
<polyline clip-path="url(#clip192)" style="stroke:#000000; stroke-linecap:round; stroke-linejoin:round; stroke-width:4; stroke-opacity:1; fill:none" points="756.955,1481.1 756.955,1486.45 777.172,1486.45 777.172,1481.1 756.955,1481.1 "/>
<path clip-path="url(#clip192)" d="M777.172 1482.88 L777.172 1486.45 L797.39 1486.45 L797.39 1482.88 L777.172 1482.88 L777.172 1482.88  Z" fill="#e26f46" fill-rule="evenodd" fill-opacity="1"/>
<polyline clip-path="url(#clip192)" style="stroke:#000000; stroke-linecap:round; stroke-linejoin:round; stroke-width:4; stroke-opacity:1; fill:none" points="777.172,1482.88 777.172,1486.45 797.39,1486.45 797.39,1482.88 777.172,1482.88 "/>
<path clip-path="url(#clip192)" d="M797.39 1479.31 L797.39 1486.45 L817.607 1486.45 L817.607 1479.31 L797.39 1479.31 L797.39 1479.31  Z" fill="#e26f46" fill-rule="evenodd" fill-opacity="1"/>
<polyline clip-path="url(#clip192)" style="stroke:#000000; stroke-linecap:round; stroke-linejoin:round; stroke-width:4; stroke-opacity:1; fill:none" points="797.39,1479.31 797.39,1486.45 817.607,1486.45 817.607,1479.31 797.39,1479.31 "/>
<path clip-path="url(#clip192)" d="M817.607 1477.53 L817.607 1486.45 L837.824 1486.45 L837.824 1477.53 L817.607 1477.53 L817.607 1477.53  Z" fill="#e26f46" fill-rule="evenodd" fill-opacity="1"/>
<polyline clip-path="url(#clip192)" style="stroke:#000000; stroke-linecap:round; stroke-linejoin:round; stroke-width:4; stroke-opacity:1; fill:none" points="817.607,1477.53 817.607,1486.45 837.824,1486.45 837.824,1477.53 817.607,1477.53 "/>
<path clip-path="url(#clip192)" d="M837.824 1465.05 L837.824 1486.45 L858.041 1486.45 L858.041 1465.05 L837.824 1465.05 L837.824 1465.05  Z" fill="#e26f46" fill-rule="evenodd" fill-opacity="1"/>
<polyline clip-path="url(#clip192)" style="stroke:#000000; stroke-linecap:round; stroke-linejoin:round; stroke-width:4; stroke-opacity:1; fill:none" points="837.824,1465.05 837.824,1486.45 858.041,1486.45 858.041,1465.05 837.824,1465.05 "/>
<path clip-path="url(#clip192)" d="M858.041 1470.4 L858.041 1486.45 L878.258 1486.45 L878.258 1470.4 L858.041 1470.4 L858.041 1470.4  Z" fill="#e26f46" fill-rule="evenodd" fill-opacity="1"/>
<polyline clip-path="url(#clip192)" style="stroke:#000000; stroke-linecap:round; stroke-linejoin:round; stroke-width:4; stroke-opacity:1; fill:none" points="858.041,1470.4 858.041,1486.45 878.258,1486.45 878.258,1470.4 858.041,1470.4 "/>
<path clip-path="url(#clip192)" d="M878.258 1449 L878.258 1486.45 L898.476 1486.45 L898.476 1449 L878.258 1449 L878.258 1449  Z" fill="#e26f46" fill-rule="evenodd" fill-opacity="1"/>
<polyline clip-path="url(#clip192)" style="stroke:#000000; stroke-linecap:round; stroke-linejoin:round; stroke-width:4; stroke-opacity:1; fill:none" points="878.258,1449 878.258,1486.45 898.476,1486.45 898.476,1449 878.258,1449 "/>
<path clip-path="url(#clip192)" d="M898.476 1443.65 L898.476 1486.45 L918.693 1486.45 L918.693 1443.65 L898.476 1443.65 L898.476 1443.65  Z" fill="#e26f46" fill-rule="evenodd" fill-opacity="1"/>
<polyline clip-path="url(#clip192)" style="stroke:#000000; stroke-linecap:round; stroke-linejoin:round; stroke-width:4; stroke-opacity:1; fill:none" points="898.476,1443.65 898.476,1486.45 918.693,1486.45 918.693,1443.65 898.476,1443.65 "/>
<path clip-path="url(#clip192)" d="M918.693 1427.6 L918.693 1486.45 L938.91 1486.45 L938.91 1427.6 L918.693 1427.6 L918.693 1427.6  Z" fill="#e26f46" fill-rule="evenodd" fill-opacity="1"/>
<polyline clip-path="url(#clip192)" style="stroke:#000000; stroke-linecap:round; stroke-linejoin:round; stroke-width:4; stroke-opacity:1; fill:none" points="918.693,1427.6 918.693,1486.45 938.91,1486.45 938.91,1427.6 918.693,1427.6 "/>
<path clip-path="url(#clip192)" d="M938.91 1406.19 L938.91 1486.45 L959.127 1486.45 L959.127 1406.19 L938.91 1406.19 L938.91 1406.19  Z" fill="#e26f46" fill-rule="evenodd" fill-opacity="1"/>
<polyline clip-path="url(#clip192)" style="stroke:#000000; stroke-linecap:round; stroke-linejoin:round; stroke-width:4; stroke-opacity:1; fill:none" points="938.91,1406.19 938.91,1486.45 959.127,1486.45 959.127,1406.19 938.91,1406.19 "/>
<path clip-path="url(#clip192)" d="M959.127 1411.55 L959.127 1486.45 L979.344 1486.45 L979.344 1411.55 L959.127 1411.55 L959.127 1411.55  Z" fill="#e26f46" fill-rule="evenodd" fill-opacity="1"/>
<polyline clip-path="url(#clip192)" style="stroke:#000000; stroke-linecap:round; stroke-linejoin:round; stroke-width:4; stroke-opacity:1; fill:none" points="959.127,1411.55 959.127,1486.45 979.344,1486.45 979.344,1411.55 959.127,1411.55 "/>
<path clip-path="url(#clip192)" d="M979.344 1347.34 L979.344 1486.45 L999.562 1486.45 L999.562 1347.34 L979.344 1347.34 L979.344 1347.34  Z" fill="#e26f46" fill-rule="evenodd" fill-opacity="1"/>
<polyline clip-path="url(#clip192)" style="stroke:#000000; stroke-linecap:round; stroke-linejoin:round; stroke-width:4; stroke-opacity:1; fill:none" points="979.344,1347.34 979.344,1486.45 999.562,1486.45 999.562,1347.34 979.344,1347.34 "/>
<path clip-path="url(#clip192)" d="M999.562 1295.62 L999.562 1486.45 L1019.78 1486.45 L1019.78 1295.62 L999.562 1295.62 L999.562 1295.62  Z" fill="#e26f46" fill-rule="evenodd" fill-opacity="1"/>
<polyline clip-path="url(#clip192)" style="stroke:#000000; stroke-linecap:round; stroke-linejoin:round; stroke-width:4; stroke-opacity:1; fill:none" points="999.562,1295.62 999.562,1486.45 1019.78,1486.45 1019.78,1295.62 999.562,1295.62 "/>
<path clip-path="url(#clip192)" d="M1019.78 1284.92 L1019.78 1486.45 L1040 1486.45 L1040 1284.92 L1019.78 1284.92 L1019.78 1284.92  Z" fill="#e26f46" fill-rule="evenodd" fill-opacity="1"/>
<polyline clip-path="url(#clip192)" style="stroke:#000000; stroke-linecap:round; stroke-linejoin:round; stroke-width:4; stroke-opacity:1; fill:none" points="1019.78,1284.92 1019.78,1486.45 1040,1486.45 1040,1284.92 1019.78,1284.92 "/>
<path clip-path="url(#clip192)" d="M1040 1224.29 L1040 1486.45 L1060.21 1486.45 L1060.21 1224.29 L1040 1224.29 L1040 1224.29  Z" fill="#e26f46" fill-rule="evenodd" fill-opacity="1"/>
<polyline clip-path="url(#clip192)" style="stroke:#000000; stroke-linecap:round; stroke-linejoin:round; stroke-width:4; stroke-opacity:1; fill:none" points="1040,1224.29 1040,1486.45 1060.21,1486.45 1060.21,1224.29 1040,1224.29 "/>
<path clip-path="url(#clip192)" d="M1060.21 1156.52 L1060.21 1486.45 L1080.43 1486.45 L1080.43 1156.52 L1060.21 1156.52 L1060.21 1156.52  Z" fill="#e26f46" fill-rule="evenodd" fill-opacity="1"/>
<polyline clip-path="url(#clip192)" style="stroke:#000000; stroke-linecap:round; stroke-linejoin:round; stroke-width:4; stroke-opacity:1; fill:none" points="1060.21,1156.52 1060.21,1486.45 1080.43,1486.45 1080.43,1156.52 1060.21,1156.52 "/>
<path clip-path="url(#clip192)" d="M1080.43 1086.97 L1080.43 1486.45 L1100.65 1486.45 L1100.65 1086.97 L1080.43 1086.97 L1080.43 1086.97  Z" fill="#e26f46" fill-rule="evenodd" fill-opacity="1"/>
<polyline clip-path="url(#clip192)" style="stroke:#000000; stroke-linecap:round; stroke-linejoin:round; stroke-width:4; stroke-opacity:1; fill:none" points="1080.43,1086.97 1080.43,1486.45 1100.65,1486.45 1100.65,1086.97 1080.43,1086.97 "/>
<path clip-path="url(#clip192)" d="M1100.65 1074.48 L1100.65 1486.45 L1120.86 1486.45 L1120.86 1074.48 L1100.65 1074.48 L1100.65 1074.48  Z" fill="#e26f46" fill-rule="evenodd" fill-opacity="1"/>
<polyline clip-path="url(#clip192)" style="stroke:#000000; stroke-linecap:round; stroke-linejoin:round; stroke-width:4; stroke-opacity:1; fill:none" points="1100.65,1074.48 1100.65,1486.45 1120.86,1486.45 1120.86,1074.48 1100.65,1074.48 "/>
<path clip-path="url(#clip192)" d="M1120.86 940.727 L1120.86 1486.45 L1141.08 1486.45 L1141.08 940.727 L1120.86 940.727 L1120.86 940.727  Z" fill="#e26f46" fill-rule="evenodd" fill-opacity="1"/>
<polyline clip-path="url(#clip192)" style="stroke:#000000; stroke-linecap:round; stroke-linejoin:round; stroke-width:4; stroke-opacity:1; fill:none" points="1120.86,940.727 1120.86,1486.45 1141.08,1486.45 1141.08,940.727 1120.86,940.727 "/>
<path clip-path="url(#clip192)" d="M1141.08 969.262 L1141.08 1486.45 L1161.3 1486.45 L1161.3 969.262 L1141.08 969.262 L1141.08 969.262  Z" fill="#e26f46" fill-rule="evenodd" fill-opacity="1"/>
<polyline clip-path="url(#clip192)" style="stroke:#000000; stroke-linecap:round; stroke-linejoin:round; stroke-width:4; stroke-opacity:1; fill:none" points="1141.08,969.262 1141.08,1486.45 1161.3,1486.45 1161.3,969.262 1141.08,969.262 "/>
<path clip-path="url(#clip192)" d="M1161.3 808.756 L1161.3 1486.45 L1181.52 1486.45 L1181.52 808.756 L1161.3 808.756 L1161.3 808.756  Z" fill="#e26f46" fill-rule="evenodd" fill-opacity="1"/>
<polyline clip-path="url(#clip192)" style="stroke:#000000; stroke-linecap:round; stroke-linejoin:round; stroke-width:4; stroke-opacity:1; fill:none" points="1161.3,808.756 1161.3,1486.45 1181.52,1486.45 1181.52,808.756 1161.3,808.756 "/>
<path clip-path="url(#clip192)" d="M1181.52 776.655 L1181.52 1486.45 L1201.73 1486.45 L1201.73 776.655 L1181.52 776.655 L1181.52 776.655  Z" fill="#e26f46" fill-rule="evenodd" fill-opacity="1"/>
<polyline clip-path="url(#clip192)" style="stroke:#000000; stroke-linecap:round; stroke-linejoin:round; stroke-width:4; stroke-opacity:1; fill:none" points="1181.52,776.655 1181.52,1486.45 1201.73,1486.45 1201.73,776.655 1181.52,776.655 "/>
<path clip-path="url(#clip192)" d="M1201.73 746.337 L1201.73 1486.45 L1221.95 1486.45 L1221.95 746.337 L1201.73 746.337 L1201.73 746.337  Z" fill="#e26f46" fill-rule="evenodd" fill-opacity="1"/>
<polyline clip-path="url(#clip192)" style="stroke:#000000; stroke-linecap:round; stroke-linejoin:round; stroke-width:4; stroke-opacity:1; fill:none" points="1201.73,746.337 1201.73,1486.45 1221.95,1486.45 1221.95,746.337 1201.73,746.337 "/>
<path clip-path="url(#clip192)" d="M1221.95 685.701 L1221.95 1486.45 L1242.17 1486.45 L1242.17 685.701 L1221.95 685.701 L1221.95 685.701  Z" fill="#e26f46" fill-rule="evenodd" fill-opacity="1"/>
<polyline clip-path="url(#clip192)" style="stroke:#000000; stroke-linecap:round; stroke-linejoin:round; stroke-width:4; stroke-opacity:1; fill:none" points="1221.95,685.701 1221.95,1486.45 1242.17,1486.45 1242.17,685.701 1221.95,685.701 "/>
<path clip-path="url(#clip192)" d="M1242.17 660.734 L1242.17 1486.45 L1262.39 1486.45 L1262.39 660.734 L1242.17 660.734 L1242.17 660.734  Z" fill="#e26f46" fill-rule="evenodd" fill-opacity="1"/>
<polyline clip-path="url(#clip192)" style="stroke:#000000; stroke-linecap:round; stroke-linejoin:round; stroke-width:4; stroke-opacity:1; fill:none" points="1242.17,660.734 1242.17,1486.45 1262.39,1486.45 1262.39,660.734 1242.17,660.734 "/>
<path clip-path="url(#clip192)" d="M1262.39 637.549 L1262.39 1486.45 L1282.6 1486.45 L1282.6 637.549 L1262.39 637.549 L1262.39 637.549  Z" fill="#e26f46" fill-rule="evenodd" fill-opacity="1"/>
<polyline clip-path="url(#clip192)" style="stroke:#000000; stroke-linecap:round; stroke-linejoin:round; stroke-width:4; stroke-opacity:1; fill:none" points="1262.39,637.549 1262.39,1486.45 1282.6,1486.45 1282.6,637.549 1262.39,637.549 "/>
<path clip-path="url(#clip192)" d="M1282.6 600.098 L1282.6 1486.45 L1302.82 1486.45 L1302.82 600.098 L1282.6 600.098 L1282.6 600.098  Z" fill="#e26f46" fill-rule="evenodd" fill-opacity="1"/>
<polyline clip-path="url(#clip192)" style="stroke:#000000; stroke-linecap:round; stroke-linejoin:round; stroke-width:4; stroke-opacity:1; fill:none" points="1282.6,600.098 1282.6,1486.45 1302.82,1486.45 1302.82,600.098 1282.6,600.098 "/>
<path clip-path="url(#clip192)" d="M1302.82 571.564 L1302.82 1486.45 L1323.04 1486.45 L1323.04 571.564 L1302.82 571.564 L1302.82 571.564  Z" fill="#e26f46" fill-rule="evenodd" fill-opacity="1"/>
<polyline clip-path="url(#clip192)" style="stroke:#000000; stroke-linecap:round; stroke-linejoin:round; stroke-width:4; stroke-opacity:1; fill:none" points="1302.82,571.564 1302.82,1486.45 1323.04,1486.45 1323.04,571.564 1302.82,571.564 "/>
<path clip-path="url(#clip192)" d="M1323.04 655.383 L1323.04 1486.45 L1343.25 1486.45 L1343.25 655.383 L1323.04 655.383 L1323.04 655.383  Z" fill="#e26f46" fill-rule="evenodd" fill-opacity="1"/>
<polyline clip-path="url(#clip192)" style="stroke:#000000; stroke-linecap:round; stroke-linejoin:round; stroke-width:4; stroke-opacity:1; fill:none" points="1323.04,655.383 1323.04,1486.45 1343.25,1486.45 1343.25,655.383 1323.04,655.383 "/>
<path clip-path="url(#clip192)" d="M1343.25 612.582 L1343.25 1486.45 L1363.47 1486.45 L1363.47 612.582 L1343.25 612.582 L1343.25 612.582  Z" fill="#e26f46" fill-rule="evenodd" fill-opacity="1"/>
<polyline clip-path="url(#clip192)" style="stroke:#000000; stroke-linecap:round; stroke-linejoin:round; stroke-width:4; stroke-opacity:1; fill:none" points="1343.25,612.582 1343.25,1486.45 1363.47,1486.45 1363.47,612.582 1343.25,612.582 "/>
<path clip-path="url(#clip192)" d="M1363.47 651.817 L1363.47 1486.45 L1383.69 1486.45 L1383.69 651.817 L1363.47 651.817 L1363.47 651.817  Z" fill="#e26f46" fill-rule="evenodd" fill-opacity="1"/>
<polyline clip-path="url(#clip192)" style="stroke:#000000; stroke-linecap:round; stroke-linejoin:round; stroke-width:4; stroke-opacity:1; fill:none" points="1363.47,651.817 1363.47,1486.45 1383.69,1486.45 1383.69,651.817 1363.47,651.817 "/>
<path clip-path="url(#clip192)" d="M1383.69 760.604 L1383.69 1486.45 L1403.91 1486.45 L1403.91 760.604 L1383.69 760.604 L1383.69 760.604  Z" fill="#e26f46" fill-rule="evenodd" fill-opacity="1"/>
<polyline clip-path="url(#clip192)" style="stroke:#000000; stroke-linecap:round; stroke-linejoin:round; stroke-width:4; stroke-opacity:1; fill:none" points="1383.69,760.604 1383.69,1486.45 1403.91,1486.45 1403.91,760.604 1383.69,760.604 "/>
<path clip-path="url(#clip192)" d="M1403.91 767.738 L1403.91 1486.45 L1424.12 1486.45 L1424.12 767.738 L1403.91 767.738 L1403.91 767.738  Z" fill="#e26f46" fill-rule="evenodd" fill-opacity="1"/>
<polyline clip-path="url(#clip192)" style="stroke:#000000; stroke-linecap:round; stroke-linejoin:round; stroke-width:4; stroke-opacity:1; fill:none" points="1403.91,767.738 1403.91,1486.45 1424.12,1486.45 1424.12,767.738 1403.91,767.738 "/>
<path clip-path="url(#clip192)" d="M1424.12 849.774 L1424.12 1486.45 L1444.34 1486.45 L1444.34 849.774 L1424.12 849.774 L1424.12 849.774  Z" fill="#e26f46" fill-rule="evenodd" fill-opacity="1"/>
<polyline clip-path="url(#clip192)" style="stroke:#000000; stroke-linecap:round; stroke-linejoin:round; stroke-width:4; stroke-opacity:1; fill:none" points="1424.12,849.774 1424.12,1486.45 1444.34,1486.45 1444.34,849.774 1424.12,849.774 "/>
<path clip-path="url(#clip192)" d="M1444.34 896.142 L1444.34 1486.45 L1464.56 1486.45 L1464.56 896.142 L1444.34 896.142 L1444.34 896.142  Z" fill="#e26f46" fill-rule="evenodd" fill-opacity="1"/>
<polyline clip-path="url(#clip192)" style="stroke:#000000; stroke-linecap:round; stroke-linejoin:round; stroke-width:4; stroke-opacity:1; fill:none" points="1444.34,896.142 1444.34,1486.45 1464.56,1486.45 1464.56,896.142 1444.34,896.142 "/>
<path clip-path="url(#clip192)" d="M1464.56 988.879 L1464.56 1486.45 L1484.77 1486.45 L1484.77 988.879 L1464.56 988.879 L1464.56 988.879  Z" fill="#e26f46" fill-rule="evenodd" fill-opacity="1"/>
<polyline clip-path="url(#clip192)" style="stroke:#000000; stroke-linecap:round; stroke-linejoin:round; stroke-width:4; stroke-opacity:1; fill:none" points="1464.56,988.879 1464.56,1486.45 1484.77,1486.45 1484.77,988.879 1464.56,988.879 "/>
<path clip-path="url(#clip192)" d="M1484.77 1042.38 L1484.77 1486.45 L1504.99 1486.45 L1504.99 1042.38 L1484.77 1042.38 L1484.77 1042.38  Z" fill="#e26f46" fill-rule="evenodd" fill-opacity="1"/>
<polyline clip-path="url(#clip192)" style="stroke:#000000; stroke-linecap:round; stroke-linejoin:round; stroke-width:4; stroke-opacity:1; fill:none" points="1484.77,1042.38 1484.77,1486.45 1504.99,1486.45 1504.99,1042.38 1484.77,1042.38 "/>
<path clip-path="url(#clip192)" d="M1504.99 1115.5 L1504.99 1486.45 L1525.21 1486.45 L1525.21 1115.5 L1504.99 1115.5 L1504.99 1115.5  Z" fill="#e26f46" fill-rule="evenodd" fill-opacity="1"/>
<polyline clip-path="url(#clip192)" style="stroke:#000000; stroke-linecap:round; stroke-linejoin:round; stroke-width:4; stroke-opacity:1; fill:none" points="1504.99,1115.5 1504.99,1486.45 1525.21,1486.45 1525.21,1115.5 1504.99,1115.5 "/>
<path clip-path="url(#clip192)" d="M1525.21 1156.52 L1525.21 1486.45 L1545.43 1486.45 L1545.43 1156.52 L1525.21 1156.52 L1525.21 1156.52  Z" fill="#e26f46" fill-rule="evenodd" fill-opacity="1"/>
<polyline clip-path="url(#clip192)" style="stroke:#000000; stroke-linecap:round; stroke-linejoin:round; stroke-width:4; stroke-opacity:1; fill:none" points="1525.21,1156.52 1525.21,1486.45 1545.43,1486.45 1545.43,1156.52 1525.21,1156.52 "/>
<path clip-path="url(#clip192)" d="M1545.43 1224.29 L1545.43 1486.45 L1565.64 1486.45 L1565.64 1224.29 L1545.43 1224.29 L1545.43 1224.29  Z" fill="#e26f46" fill-rule="evenodd" fill-opacity="1"/>
<polyline clip-path="url(#clip192)" style="stroke:#000000; stroke-linecap:round; stroke-linejoin:round; stroke-width:4; stroke-opacity:1; fill:none" points="1545.43,1224.29 1545.43,1486.45 1565.64,1486.45 1565.64,1224.29 1545.43,1224.29 "/>
<path clip-path="url(#clip192)" d="M1565.64 1279.57 L1565.64 1486.45 L1585.86 1486.45 L1585.86 1279.57 L1565.64 1279.57 L1565.64 1279.57  Z" fill="#e26f46" fill-rule="evenodd" fill-opacity="1"/>
<polyline clip-path="url(#clip192)" style="stroke:#000000; stroke-linecap:round; stroke-linejoin:round; stroke-width:4; stroke-opacity:1; fill:none" points="1565.64,1279.57 1565.64,1486.45 1585.86,1486.45 1585.86,1279.57 1565.64,1279.57 "/>
<path clip-path="url(#clip192)" d="M1585.86 1288.49 L1585.86 1486.45 L1606.08 1486.45 L1606.08 1288.49 L1585.86 1288.49 L1585.86 1288.49  Z" fill="#e26f46" fill-rule="evenodd" fill-opacity="1"/>
<polyline clip-path="url(#clip192)" style="stroke:#000000; stroke-linecap:round; stroke-linejoin:round; stroke-width:4; stroke-opacity:1; fill:none" points="1585.86,1288.49 1585.86,1486.45 1606.08,1486.45 1606.08,1288.49 1585.86,1288.49 "/>
<path clip-path="url(#clip192)" d="M1606.08 1375.88 L1606.08 1486.45 L1626.3 1486.45 L1626.3 1375.88 L1606.08 1375.88 L1606.08 1375.88  Z" fill="#e26f46" fill-rule="evenodd" fill-opacity="1"/>
<polyline clip-path="url(#clip192)" style="stroke:#000000; stroke-linecap:round; stroke-linejoin:round; stroke-width:4; stroke-opacity:1; fill:none" points="1606.08,1375.88 1606.08,1486.45 1626.3,1486.45 1626.3,1375.88 1606.08,1375.88 "/>
<path clip-path="url(#clip192)" d="M1626.3 1390.14 L1626.3 1486.45 L1646.51 1486.45 L1646.51 1390.14 L1626.3 1390.14 L1626.3 1390.14  Z" fill="#e26f46" fill-rule="evenodd" fill-opacity="1"/>
<polyline clip-path="url(#clip192)" style="stroke:#000000; stroke-linecap:round; stroke-linejoin:round; stroke-width:4; stroke-opacity:1; fill:none" points="1626.3,1390.14 1626.3,1486.45 1646.51,1486.45 1646.51,1390.14 1626.3,1390.14 "/>
<path clip-path="url(#clip192)" d="M1646.51 1399.06 L1646.51 1486.45 L1666.73 1486.45 L1666.73 1399.06 L1646.51 1399.06 L1646.51 1399.06  Z" fill="#e26f46" fill-rule="evenodd" fill-opacity="1"/>
<polyline clip-path="url(#clip192)" style="stroke:#000000; stroke-linecap:round; stroke-linejoin:round; stroke-width:4; stroke-opacity:1; fill:none" points="1646.51,1399.06 1646.51,1486.45 1666.73,1486.45 1666.73,1399.06 1646.51,1399.06 "/>
<path clip-path="url(#clip192)" d="M1666.73 1424.03 L1666.73 1486.45 L1686.95 1486.45 L1686.95 1424.03 L1666.73 1424.03 L1666.73 1424.03  Z" fill="#e26f46" fill-rule="evenodd" fill-opacity="1"/>
<polyline clip-path="url(#clip192)" style="stroke:#000000; stroke-linecap:round; stroke-linejoin:round; stroke-width:4; stroke-opacity:1; fill:none" points="1666.73,1424.03 1666.73,1486.45 1686.95,1486.45 1686.95,1424.03 1666.73,1424.03 "/>
<path clip-path="url(#clip192)" d="M1686.95 1434.73 L1686.95 1486.45 L1707.16 1486.45 L1707.16 1434.73 L1686.95 1434.73 L1686.95 1434.73  Z" fill="#e26f46" fill-rule="evenodd" fill-opacity="1"/>
<polyline clip-path="url(#clip192)" style="stroke:#000000; stroke-linecap:round; stroke-linejoin:round; stroke-width:4; stroke-opacity:1; fill:none" points="1686.95,1434.73 1686.95,1486.45 1707.16,1486.45 1707.16,1434.73 1686.95,1434.73 "/>
<path clip-path="url(#clip192)" d="M1707.16 1443.65 L1707.16 1486.45 L1727.38 1486.45 L1727.38 1443.65 L1707.16 1443.65 L1707.16 1443.65  Z" fill="#e26f46" fill-rule="evenodd" fill-opacity="1"/>
<polyline clip-path="url(#clip192)" style="stroke:#000000; stroke-linecap:round; stroke-linejoin:round; stroke-width:4; stroke-opacity:1; fill:none" points="1707.16,1443.65 1707.16,1486.45 1727.38,1486.45 1727.38,1443.65 1707.16,1443.65 "/>
<path clip-path="url(#clip192)" d="M1727.38 1465.05 L1727.38 1486.45 L1747.6 1486.45 L1747.6 1465.05 L1727.38 1465.05 L1727.38 1465.05  Z" fill="#e26f46" fill-rule="evenodd" fill-opacity="1"/>
<polyline clip-path="url(#clip192)" style="stroke:#000000; stroke-linecap:round; stroke-linejoin:round; stroke-width:4; stroke-opacity:1; fill:none" points="1727.38,1465.05 1727.38,1486.45 1747.6,1486.45 1747.6,1465.05 1727.38,1465.05 "/>
<path clip-path="url(#clip192)" d="M1747.6 1463.26 L1747.6 1486.45 L1767.82 1486.45 L1767.82 1463.26 L1747.6 1463.26 L1747.6 1463.26  Z" fill="#e26f46" fill-rule="evenodd" fill-opacity="1"/>
<polyline clip-path="url(#clip192)" style="stroke:#000000; stroke-linecap:round; stroke-linejoin:round; stroke-width:4; stroke-opacity:1; fill:none" points="1747.6,1463.26 1747.6,1486.45 1767.82,1486.45 1767.82,1463.26 1747.6,1463.26 "/>
<path clip-path="url(#clip192)" d="M1767.82 1457.91 L1767.82 1486.45 L1788.03 1486.45 L1788.03 1457.91 L1767.82 1457.91 L1767.82 1457.91  Z" fill="#e26f46" fill-rule="evenodd" fill-opacity="1"/>
<polyline clip-path="url(#clip192)" style="stroke:#000000; stroke-linecap:round; stroke-linejoin:round; stroke-width:4; stroke-opacity:1; fill:none" points="1767.82,1457.91 1767.82,1486.45 1788.03,1486.45 1788.03,1457.91 1767.82,1457.91 "/>
<path clip-path="url(#clip192)" d="M1788.03 1475.75 L1788.03 1486.45 L1808.25 1486.45 L1808.25 1475.75 L1788.03 1475.75 L1788.03 1475.75  Z" fill="#e26f46" fill-rule="evenodd" fill-opacity="1"/>
<polyline clip-path="url(#clip192)" style="stroke:#000000; stroke-linecap:round; stroke-linejoin:round; stroke-width:4; stroke-opacity:1; fill:none" points="1788.03,1475.75 1788.03,1486.45 1808.25,1486.45 1808.25,1475.75 1788.03,1475.75 "/>
<path clip-path="url(#clip192)" d="M1808.25 1484.66 L1808.25 1486.45 L1828.47 1486.45 L1828.47 1484.66 L1808.25 1484.66 L1808.25 1484.66  Z" fill="#e26f46" fill-rule="evenodd" fill-opacity="1"/>
<polyline clip-path="url(#clip192)" style="stroke:#000000; stroke-linecap:round; stroke-linejoin:round; stroke-width:4; stroke-opacity:1; fill:none" points="1808.25,1484.66 1808.25,1486.45 1828.47,1486.45 1828.47,1484.66 1808.25,1484.66 "/>
<path clip-path="url(#clip192)" d="M1828.47 1484.66 L1828.47 1486.45 L1848.68 1486.45 L1848.68 1484.66 L1828.47 1484.66 L1828.47 1484.66  Z" fill="#e26f46" fill-rule="evenodd" fill-opacity="1"/>
<polyline clip-path="url(#clip192)" style="stroke:#000000; stroke-linecap:round; stroke-linejoin:round; stroke-width:4; stroke-opacity:1; fill:none" points="1828.47,1484.66 1828.47,1486.45 1848.68,1486.45 1848.68,1484.66 1828.47,1484.66 "/>
<path clip-path="url(#clip192)" d="M1848.68 1481.1 L1848.68 1486.45 L1868.9 1486.45 L1868.9 1481.1 L1848.68 1481.1 L1848.68 1481.1  Z" fill="#e26f46" fill-rule="evenodd" fill-opacity="1"/>
<polyline clip-path="url(#clip192)" style="stroke:#000000; stroke-linecap:round; stroke-linejoin:round; stroke-width:4; stroke-opacity:1; fill:none" points="1848.68,1481.1 1848.68,1486.45 1868.9,1486.45 1868.9,1481.1 1848.68,1481.1 "/>
<path clip-path="url(#clip192)" d="M1868.9 1482.88 L1868.9 1486.45 L1889.12 1486.45 L1889.12 1482.88 L1868.9 1482.88 L1868.9 1482.88  Z" fill="#e26f46" fill-rule="evenodd" fill-opacity="1"/>
<polyline clip-path="url(#clip192)" style="stroke:#000000; stroke-linecap:round; stroke-linejoin:round; stroke-width:4; stroke-opacity:1; fill:none" points="1868.9,1482.88 1868.9,1486.45 1889.12,1486.45 1889.12,1482.88 1868.9,1482.88 "/>
<path clip-path="url(#clip192)" d="M1889.12 1484.66 L1889.12 1486.45 L1909.34 1486.45 L1909.34 1484.66 L1889.12 1484.66 L1889.12 1484.66  Z" fill="#e26f46" fill-rule="evenodd" fill-opacity="1"/>
<polyline clip-path="url(#clip192)" style="stroke:#000000; stroke-linecap:round; stroke-linejoin:round; stroke-width:4; stroke-opacity:1; fill:none" points="1889.12,1484.66 1889.12,1486.45 1909.34,1486.45 1909.34,1484.66 1889.12,1484.66 "/>
<path clip-path="url(#clip192)" d="M1909.34 1486.45 L1909.34 1486.45 L1929.55 1486.45 L1929.55 1486.45 L1909.34 1486.45 L1909.34 1486.45  Z" fill="#e26f46" fill-rule="evenodd" fill-opacity="1"/>
<polyline clip-path="url(#clip192)" style="stroke:#000000; stroke-linecap:round; stroke-linejoin:round; stroke-width:4; stroke-opacity:1; fill:none" points="1909.34,1486.45 1909.34,1486.45 1929.55,1486.45 1909.34,1486.45 "/>
<path clip-path="url(#clip192)" d="M1929.55 1486.45 L1929.55 1486.45 L1949.77 1486.45 L1949.77 1486.45 L1929.55 1486.45 L1929.55 1486.45  Z" fill="#e26f46" fill-rule="evenodd" fill-opacity="1"/>
<polyline clip-path="url(#clip192)" style="stroke:#000000; stroke-linecap:round; stroke-linejoin:round; stroke-width:4; stroke-opacity:1; fill:none" points="1929.55,1486.45 1929.55,1486.45 1949.77,1486.45 1929.55,1486.45 "/>
<path clip-path="url(#clip192)" d="M1949.77 1484.66 L1949.77 1486.45 L1969.99 1486.45 L1969.99 1484.66 L1949.77 1484.66 L1949.77 1484.66  Z" fill="#e26f46" fill-rule="evenodd" fill-opacity="1"/>
<polyline clip-path="url(#clip192)" style="stroke:#000000; stroke-linecap:round; stroke-linejoin:round; stroke-width:4; stroke-opacity:1; fill:none" points="1949.77,1484.66 1949.77,1486.45 1969.99,1486.45 1969.99,1484.66 1949.77,1484.66 "/>
<circle clip-path="url(#clip192)" style="fill:#e26f46; stroke:none; fill-opacity:0" cx="746.847" cy="1482.88" r="2"/>
<circle clip-path="url(#clip192)" style="fill:#e26f46; stroke:none; fill-opacity:0" cx="767.064" cy="1481.1" r="2"/>
<circle clip-path="url(#clip192)" style="fill:#e26f46; stroke:none; fill-opacity:0" cx="787.281" cy="1482.88" r="2"/>
<circle clip-path="url(#clip192)" style="fill:#e26f46; stroke:none; fill-opacity:0" cx="807.498" cy="1479.31" r="2"/>
<circle clip-path="url(#clip192)" style="fill:#e26f46; stroke:none; fill-opacity:0" cx="827.715" cy="1477.53" r="2"/>
<circle clip-path="url(#clip192)" style="fill:#e26f46; stroke:none; fill-opacity:0" cx="847.933" cy="1465.05" r="2"/>
<circle clip-path="url(#clip192)" style="fill:#e26f46; stroke:none; fill-opacity:0" cx="868.15" cy="1470.4" r="2"/>
<circle clip-path="url(#clip192)" style="fill:#e26f46; stroke:none; fill-opacity:0" cx="888.367" cy="1449" r="2"/>
<circle clip-path="url(#clip192)" style="fill:#e26f46; stroke:none; fill-opacity:0" cx="908.584" cy="1443.65" r="2"/>
<circle clip-path="url(#clip192)" style="fill:#e26f46; stroke:none; fill-opacity:0" cx="928.801" cy="1427.6" r="2"/>
<circle clip-path="url(#clip192)" style="fill:#e26f46; stroke:none; fill-opacity:0" cx="949.019" cy="1406.19" r="2"/>
<circle clip-path="url(#clip192)" style="fill:#e26f46; stroke:none; fill-opacity:0" cx="969.236" cy="1411.55" r="2"/>
<circle clip-path="url(#clip192)" style="fill:#e26f46; stroke:none; fill-opacity:0" cx="989.453" cy="1347.34" r="2"/>
<circle clip-path="url(#clip192)" style="fill:#e26f46; stroke:none; fill-opacity:0" cx="1009.67" cy="1295.62" r="2"/>
<circle clip-path="url(#clip192)" style="fill:#e26f46; stroke:none; fill-opacity:0" cx="1029.89" cy="1284.92" r="2"/>
<circle clip-path="url(#clip192)" style="fill:#e26f46; stroke:none; fill-opacity:0" cx="1050.1" cy="1224.29" r="2"/>
<circle clip-path="url(#clip192)" style="fill:#e26f46; stroke:none; fill-opacity:0" cx="1070.32" cy="1156.52" r="2"/>
<circle clip-path="url(#clip192)" style="fill:#e26f46; stroke:none; fill-opacity:0" cx="1090.54" cy="1086.97" r="2"/>
<circle clip-path="url(#clip192)" style="fill:#e26f46; stroke:none; fill-opacity:0" cx="1110.76" cy="1074.48" r="2"/>
<circle clip-path="url(#clip192)" style="fill:#e26f46; stroke:none; fill-opacity:0" cx="1130.97" cy="940.727" r="2"/>
<circle clip-path="url(#clip192)" style="fill:#e26f46; stroke:none; fill-opacity:0" cx="1151.19" cy="969.262" r="2"/>
<circle clip-path="url(#clip192)" style="fill:#e26f46; stroke:none; fill-opacity:0" cx="1171.41" cy="808.756" r="2"/>
<circle clip-path="url(#clip192)" style="fill:#e26f46; stroke:none; fill-opacity:0" cx="1191.63" cy="776.655" r="2"/>
<circle clip-path="url(#clip192)" style="fill:#e26f46; stroke:none; fill-opacity:0" cx="1211.84" cy="746.337" r="2"/>
<circle clip-path="url(#clip192)" style="fill:#e26f46; stroke:none; fill-opacity:0" cx="1232.06" cy="685.701" r="2"/>
<circle clip-path="url(#clip192)" style="fill:#e26f46; stroke:none; fill-opacity:0" cx="1252.28" cy="660.734" r="2"/>
<circle clip-path="url(#clip192)" style="fill:#e26f46; stroke:none; fill-opacity:0" cx="1272.49" cy="637.549" r="2"/>
<circle clip-path="url(#clip192)" style="fill:#e26f46; stroke:none; fill-opacity:0" cx="1292.71" cy="600.098" r="2"/>
<circle clip-path="url(#clip192)" style="fill:#e26f46; stroke:none; fill-opacity:0" cx="1312.93" cy="571.564" r="2"/>
<circle clip-path="url(#clip192)" style="fill:#e26f46; stroke:none; fill-opacity:0" cx="1333.15" cy="655.383" r="2"/>
<circle clip-path="url(#clip192)" style="fill:#e26f46; stroke:none; fill-opacity:0" cx="1353.36" cy="612.582" r="2"/>
<circle clip-path="url(#clip192)" style="fill:#e26f46; stroke:none; fill-opacity:0" cx="1373.58" cy="651.817" r="2"/>
<circle clip-path="url(#clip192)" style="fill:#e26f46; stroke:none; fill-opacity:0" cx="1393.8" cy="760.604" r="2"/>
<circle clip-path="url(#clip192)" style="fill:#e26f46; stroke:none; fill-opacity:0" cx="1414.01" cy="767.738" r="2"/>
<circle clip-path="url(#clip192)" style="fill:#e26f46; stroke:none; fill-opacity:0" cx="1434.23" cy="849.774" r="2"/>
<circle clip-path="url(#clip192)" style="fill:#e26f46; stroke:none; fill-opacity:0" cx="1454.45" cy="896.142" r="2"/>
<circle clip-path="url(#clip192)" style="fill:#e26f46; stroke:none; fill-opacity:0" cx="1474.67" cy="988.879" r="2"/>
<circle clip-path="url(#clip192)" style="fill:#e26f46; stroke:none; fill-opacity:0" cx="1494.88" cy="1042.38" r="2"/>
<circle clip-path="url(#clip192)" style="fill:#e26f46; stroke:none; fill-opacity:0" cx="1515.1" cy="1115.5" r="2"/>
<circle clip-path="url(#clip192)" style="fill:#e26f46; stroke:none; fill-opacity:0" cx="1535.32" cy="1156.52" r="2"/>
<circle clip-path="url(#clip192)" style="fill:#e26f46; stroke:none; fill-opacity:0" cx="1555.53" cy="1224.29" r="2"/>
<circle clip-path="url(#clip192)" style="fill:#e26f46; stroke:none; fill-opacity:0" cx="1575.75" cy="1279.57" r="2"/>
<circle clip-path="url(#clip192)" style="fill:#e26f46; stroke:none; fill-opacity:0" cx="1595.97" cy="1288.49" r="2"/>
<circle clip-path="url(#clip192)" style="fill:#e26f46; stroke:none; fill-opacity:0" cx="1616.19" cy="1375.88" r="2"/>
<circle clip-path="url(#clip192)" style="fill:#e26f46; stroke:none; fill-opacity:0" cx="1636.4" cy="1390.14" r="2"/>
<circle clip-path="url(#clip192)" style="fill:#e26f46; stroke:none; fill-opacity:0" cx="1656.62" cy="1399.06" r="2"/>
<circle clip-path="url(#clip192)" style="fill:#e26f46; stroke:none; fill-opacity:0" cx="1676.84" cy="1424.03" r="2"/>
<circle clip-path="url(#clip192)" style="fill:#e26f46; stroke:none; fill-opacity:0" cx="1697.06" cy="1434.73" r="2"/>
<circle clip-path="url(#clip192)" style="fill:#e26f46; stroke:none; fill-opacity:0" cx="1717.27" cy="1443.65" r="2"/>
<circle clip-path="url(#clip192)" style="fill:#e26f46; stroke:none; fill-opacity:0" cx="1737.49" cy="1465.05" r="2"/>
<circle clip-path="url(#clip192)" style="fill:#e26f46; stroke:none; fill-opacity:0" cx="1757.71" cy="1463.26" r="2"/>
<circle clip-path="url(#clip192)" style="fill:#e26f46; stroke:none; fill-opacity:0" cx="1777.92" cy="1457.91" r="2"/>
<circle clip-path="url(#clip192)" style="fill:#e26f46; stroke:none; fill-opacity:0" cx="1798.14" cy="1475.75" r="2"/>
<circle clip-path="url(#clip192)" style="fill:#e26f46; stroke:none; fill-opacity:0" cx="1818.36" cy="1484.66" r="2"/>
<circle clip-path="url(#clip192)" style="fill:#e26f46; stroke:none; fill-opacity:0" cx="1838.58" cy="1484.66" r="2"/>
<circle clip-path="url(#clip192)" style="fill:#e26f46; stroke:none; fill-opacity:0" cx="1858.79" cy="1481.1" r="2"/>
<circle clip-path="url(#clip192)" style="fill:#e26f46; stroke:none; fill-opacity:0" cx="1879.01" cy="1482.88" r="2"/>
<circle clip-path="url(#clip192)" style="fill:#e26f46; stroke:none; fill-opacity:0" cx="1899.23" cy="1484.66" r="2"/>
<circle clip-path="url(#clip192)" style="fill:#e26f46; stroke:none; fill-opacity:0" cx="1919.44" cy="1486.45" r="2"/>
<circle clip-path="url(#clip192)" style="fill:#e26f46; stroke:none; fill-opacity:0" cx="1939.66" cy="1486.45" r="2"/>
<circle clip-path="url(#clip192)" style="fill:#e26f46; stroke:none; fill-opacity:0" cx="1959.88" cy="1484.66" r="2"/>
<path clip-path="url(#clip190)" d="M1812.25 250.738 L2280.06 250.738 L2280.06 95.2176 L1812.25 95.2176  Z" fill="#ffffff" fill-rule="evenodd" fill-opacity="1"/>
<polyline clip-path="url(#clip190)" style="stroke:#000000; stroke-linecap:round; stroke-linejoin:round; stroke-width:4; stroke-opacity:1; fill:none" points="1812.25,250.738 2280.06,250.738 2280.06,95.2176 1812.25,95.2176 1812.25,250.738 "/>
<path clip-path="url(#clip190)" d="M1836.48 167.794 L1981.86 167.794 L1981.86 126.322 L1836.48 126.322 L1836.48 167.794  Z" fill="#009af9" fill-rule="evenodd" fill-opacity="1"/>
<polyline clip-path="url(#clip190)" style="stroke:#000000; stroke-linecap:round; stroke-linejoin:round; stroke-width:4; stroke-opacity:1; fill:none" points="1836.48,167.794 1981.86,167.794 1981.86,126.322 1836.48,126.322 1836.48,167.794 "/>
<path clip-path="url(#clip190)" d="M2006.09 129.778 L2010.77 129.778 L2010.77 143.944 L2027.76 143.944 L2027.76 129.778 L2032.43 129.778 L2032.43 164.338 L2027.76 164.338 L2027.76 147.879 L2010.77 147.879 L2010.77 164.338 L2006.09 164.338 L2006.09 129.778 Z" fill="#000000" fill-rule="nonzero" fill-opacity="1" /><path clip-path="url(#clip190)" d="M2041.55 138.412 L2045.81 138.412 L2045.81 164.338 L2041.55 164.338 L2041.55 138.412 M2041.55 128.319 L2045.81 128.319 L2045.81 133.713 L2041.55 133.713 L2041.55 128.319 Z" fill="#000000" fill-rule="nonzero" fill-opacity="1" /><path clip-path="url(#clip190)" d="M2058.94 131.051 L2058.94 138.412 L2067.71 138.412 L2067.71 141.722 L2058.94 141.722 L2058.94 155.796 Q2058.94 158.967 2059.79 159.87 Q2060.67 160.773 2063.34 160.773 L2067.71 160.773 L2067.71 164.338 L2063.34 164.338 Q2058.4 164.338 2056.53 162.509 Q2054.65 160.657 2054.65 155.796 L2054.65 141.722 L2051.53 141.722 L2051.53 138.412 L2054.65 138.412 L2054.65 131.051 L2058.94 131.051 Z" fill="#000000" fill-rule="nonzero" fill-opacity="1" /><path clip-path="url(#clip190)" d="M2071.16 149.453 L2083.64 149.453 L2083.64 153.25 L2071.16 153.25 L2071.16 149.453 Z" fill="#000000" fill-rule="nonzero" fill-opacity="1" /><path clip-path="url(#clip190)" d="M2101.34 141.398 Q2097.92 141.398 2095.93 144.083 Q2093.94 146.745 2093.94 151.398 Q2093.94 156.051 2095.9 158.736 Q2097.9 161.398 2101.34 161.398 Q2104.75 161.398 2106.74 158.713 Q2108.73 156.027 2108.73 151.398 Q2108.73 146.791 2106.74 144.106 Q2104.75 141.398 2101.34 141.398 M2101.34 137.787 Q2106.9 137.787 2110.07 141.398 Q2113.24 145.009 2113.24 151.398 Q2113.24 157.764 2110.07 161.398 Q2106.9 165.009 2101.34 165.009 Q2095.77 165.009 2092.59 161.398 Q2089.45 157.764 2089.45 151.398 Q2089.45 145.009 2092.59 141.398 Q2095.77 137.787 2101.34 137.787 Z" fill="#000000" fill-rule="nonzero" fill-opacity="1" /><path clip-path="url(#clip190)" d="M2135.33 142.393 Q2134.61 141.977 2133.75 141.791 Q2132.92 141.583 2131.9 141.583 Q2128.29 141.583 2126.34 143.944 Q2124.42 146.282 2124.42 150.68 L2124.42 164.338 L2120.14 164.338 L2120.14 138.412 L2124.42 138.412 L2124.42 142.44 Q2125.77 140.078 2127.92 138.944 Q2130.07 137.787 2133.15 137.787 Q2133.59 137.787 2134.12 137.856 Q2134.65 137.903 2135.3 138.018 L2135.33 142.393 Z" fill="#000000" fill-rule="nonzero" fill-opacity="1" /><path clip-path="url(#clip190)" d="M2134.61 149.453 L2147.08 149.453 L2147.08 153.25 L2134.61 153.25 L2134.61 149.453 Z" fill="#000000" fill-rule="nonzero" fill-opacity="1" /><path clip-path="url(#clip190)" d="M2174.05 143.389 Q2175.65 140.518 2177.87 139.153 Q2180.09 137.787 2183.1 137.787 Q2187.15 137.787 2189.35 140.634 Q2191.55 143.458 2191.55 148.689 L2191.55 164.338 L2187.27 164.338 L2187.27 148.828 Q2187.27 145.102 2185.95 143.296 Q2184.63 141.49 2181.92 141.49 Q2178.61 141.49 2176.69 143.69 Q2174.77 145.889 2174.77 149.685 L2174.77 164.338 L2170.49 164.338 L2170.49 148.828 Q2170.49 145.078 2169.17 143.296 Q2167.85 141.49 2165.09 141.49 Q2161.83 141.49 2159.91 143.713 Q2157.99 145.912 2157.99 149.685 L2157.99 164.338 L2153.7 164.338 L2153.7 138.412 L2157.99 138.412 L2157.99 142.44 Q2159.45 140.055 2161.48 138.921 Q2163.52 137.787 2166.32 137.787 Q2169.14 137.787 2171.11 139.222 Q2173.1 140.657 2174.05 143.389 Z" fill="#000000" fill-rule="nonzero" fill-opacity="1" /><path clip-path="url(#clip190)" d="M2200.05 138.412 L2204.31 138.412 L2204.31 164.338 L2200.05 164.338 L2200.05 138.412 M2200.05 128.319 L2204.31 128.319 L2204.31 133.713 L2200.05 133.713 L2200.05 128.319 Z" fill="#000000" fill-rule="nonzero" fill-opacity="1" /><path clip-path="url(#clip190)" d="M2229.75 139.176 L2229.75 143.203 Q2227.94 142.277 2226 141.815 Q2224.05 141.352 2221.97 141.352 Q2218.8 141.352 2217.2 142.324 Q2215.63 143.296 2215.63 145.24 Q2215.63 146.722 2216.76 147.578 Q2217.89 148.412 2221.32 149.176 L2222.78 149.5 Q2227.32 150.472 2229.21 152.254 Q2231.14 154.014 2231.14 157.185 Q2231.14 160.796 2228.26 162.902 Q2225.42 165.009 2220.42 165.009 Q2218.33 165.009 2216.07 164.592 Q2213.82 164.199 2211.32 163.388 L2211.32 158.99 Q2213.68 160.217 2215.97 160.842 Q2218.26 161.444 2220.51 161.444 Q2223.52 161.444 2225.14 160.426 Q2226.76 159.384 2226.76 157.509 Q2226.76 155.773 2225.58 154.847 Q2224.42 153.921 2220.46 153.064 L2218.98 152.717 Q2215.02 151.884 2213.26 150.171 Q2211.51 148.435 2211.51 145.426 Q2211.51 141.768 2214.1 139.778 Q2216.69 137.787 2221.46 137.787 Q2223.82 137.787 2225.9 138.134 Q2227.99 138.481 2229.75 139.176 Z" fill="#000000" fill-rule="nonzero" fill-opacity="1" /><path clip-path="url(#clip190)" d="M2254.45 139.176 L2254.45 143.203 Q2252.64 142.277 2250.7 141.815 Q2248.75 141.352 2246.67 141.352 Q2243.5 141.352 2241.9 142.324 Q2240.32 143.296 2240.32 145.24 Q2240.32 146.722 2241.46 147.578 Q2242.59 148.412 2246.02 149.176 L2247.48 149.5 Q2252.01 150.472 2253.91 152.254 Q2255.83 154.014 2255.83 157.185 Q2255.83 160.796 2252.96 162.902 Q2250.12 165.009 2245.12 165.009 Q2243.03 165.009 2240.76 164.592 Q2238.52 164.199 2236.02 163.388 L2236.02 158.99 Q2238.38 160.217 2240.67 160.842 Q2242.96 161.444 2245.21 161.444 Q2248.22 161.444 2249.84 160.426 Q2251.46 159.384 2251.46 157.509 Q2251.46 155.773 2250.28 154.847 Q2249.12 153.921 2245.16 153.064 L2243.68 152.717 Q2239.72 151.884 2237.96 150.171 Q2236.2 148.435 2236.2 145.426 Q2236.2 141.768 2238.8 139.778 Q2241.39 137.787 2246.16 137.787 Q2248.52 137.787 2250.6 138.134 Q2252.69 138.481 2254.45 139.176 Z" fill="#000000" fill-rule="nonzero" fill-opacity="1" /><path clip-path="url(#clip190)" d="M1836.48 219.634 L1981.86 219.634 L1981.86 178.162 L1836.48 178.162 L1836.48 219.634  Z" fill="#e26f46" fill-rule="evenodd" fill-opacity="1"/>
<polyline clip-path="url(#clip190)" style="stroke:#000000; stroke-linecap:round; stroke-linejoin:round; stroke-width:4; stroke-opacity:1; fill:none" points="1836.48,219.634 1981.86,219.634 1981.86,178.162 1836.48,178.162 1836.48,219.634 "/>
<path clip-path="url(#clip190)" d="M2006.09 181.618 L2013.06 181.618 L2021.88 205.136 L2030.74 181.618 L2037.71 181.618 L2037.71 216.178 L2033.15 216.178 L2033.15 185.83 L2024.24 209.534 L2019.54 209.534 L2010.63 185.83 L2010.63 216.178 L2006.09 216.178 L2006.09 181.618 Z" fill="#000000" fill-rule="nonzero" fill-opacity="1" /><path clip-path="url(#clip190)" d="M2068.98 202.15 L2068.98 204.233 L2049.4 204.233 Q2049.68 208.631 2052.04 210.946 Q2054.42 213.238 2058.66 213.238 Q2061.11 213.238 2063.4 212.636 Q2065.72 212.034 2067.99 210.83 L2067.99 214.858 Q2065.7 215.83 2063.29 216.34 Q2060.88 216.849 2058.4 216.849 Q2052.2 216.849 2048.57 213.238 Q2044.96 209.627 2044.96 203.469 Q2044.96 197.104 2048.38 193.377 Q2051.83 189.627 2057.66 189.627 Q2062.9 189.627 2065.93 193.006 Q2068.98 196.363 2068.98 202.15 M2064.72 200.9 Q2064.68 197.405 2062.76 195.321 Q2060.86 193.238 2057.71 193.238 Q2054.15 193.238 2051.99 195.252 Q2049.86 197.266 2049.54 200.923 L2064.72 200.9 Z" fill="#000000" fill-rule="nonzero" fill-opacity="1" /><path clip-path="url(#clip190)" d="M2093.03 194.187 L2093.03 180.159 L2097.29 180.159 L2097.29 216.178 L2093.03 216.178 L2093.03 212.289 Q2091.69 214.603 2089.63 215.738 Q2087.59 216.849 2084.72 216.849 Q2080.02 216.849 2077.06 213.099 Q2074.12 209.349 2074.12 203.238 Q2074.12 197.127 2077.06 193.377 Q2080.02 189.627 2084.72 189.627 Q2087.59 189.627 2089.63 190.761 Q2091.69 191.872 2093.03 194.187 M2078.52 203.238 Q2078.52 207.937 2080.44 210.622 Q2082.39 213.284 2085.77 213.284 Q2089.15 213.284 2091.09 210.622 Q2093.03 207.937 2093.03 203.238 Q2093.03 198.539 2091.09 195.877 Q2089.15 193.192 2085.77 193.192 Q2082.39 193.192 2080.44 195.877 Q2078.52 198.539 2078.52 203.238 Z" fill="#000000" fill-rule="nonzero" fill-opacity="1" /><path clip-path="url(#clip190)" d="M2106.07 190.252 L2110.33 190.252 L2110.33 216.178 L2106.07 216.178 L2106.07 190.252 M2106.07 180.159 L2110.33 180.159 L2110.33 185.553 L2106.07 185.553 L2106.07 180.159 Z" fill="#000000" fill-rule="nonzero" fill-opacity="1" /><path clip-path="url(#clip190)" d="M2131.02 203.145 Q2125.86 203.145 2123.87 204.326 Q2121.88 205.506 2121.88 208.354 Q2121.88 210.622 2123.36 211.965 Q2124.86 213.284 2127.43 213.284 Q2130.97 213.284 2133.1 210.784 Q2135.26 208.261 2135.26 204.094 L2135.26 203.145 L2131.02 203.145 M2139.52 201.386 L2139.52 216.178 L2135.26 216.178 L2135.26 212.242 Q2133.8 214.603 2131.62 215.738 Q2129.45 216.849 2126.3 216.849 Q2122.32 216.849 2119.96 214.627 Q2117.62 212.381 2117.62 208.631 Q2117.62 204.256 2120.53 202.034 Q2123.47 199.812 2129.28 199.812 L2135.26 199.812 L2135.26 199.395 Q2135.26 196.455 2133.31 194.858 Q2131.39 193.238 2127.89 193.238 Q2125.67 193.238 2123.57 193.77 Q2121.46 194.303 2119.52 195.367 L2119.52 191.432 Q2121.85 190.53 2124.05 190.09 Q2126.25 189.627 2128.33 189.627 Q2133.96 189.627 2136.74 192.543 Q2139.52 195.46 2139.52 201.386 Z" fill="#000000" fill-rule="nonzero" fill-opacity="1" /></svg>
