<?xml version="1.0" encoding="utf-8"?>
<svg xmlns="http://www.w3.org/2000/svg" xmlns:xlink="http://www.w3.org/1999/xlink" width="600" height="400" viewBox="0 0 2400 1600">
<defs>
  <clipPath id="clip460">
    <rect x="0" y="0" width="2400" height="1600"/>
  </clipPath>
</defs>
<path clip-path="url(#clip460)" d="
M0 1600 L2400 1600 L2400 0 L0 0  Z
  " fill="#ffffff" fill-rule="evenodd" fill-opacity="1"/>
<defs>
  <clipPath id="clip461">
    <rect x="480" y="0" width="1681" height="1600"/>
  </clipPath>
</defs>
<path clip-path="url(#clip460)" d="
M170.857 1486.45 L2352.76 1486.45 L2352.76 47.2441 L170.857 47.2441  Z
  " fill="#ffffff" fill-rule="evenodd" fill-opacity="1"/>
<defs>
  <clipPath id="clip462">
    <rect x="170" y="47" width="2183" height="1440"/>
  </clipPath>
</defs>
<polyline clip-path="url(#clip462)" style="stroke:#000000; stroke-linecap:round; stroke-linejoin:round; stroke-width:2; stroke-opacity:0.1; fill:none" points="
  568.277,1486.45 568.277,47.2441 
  "/>
<polyline clip-path="url(#clip462)" style="stroke:#000000; stroke-linecap:round; stroke-linejoin:round; stroke-width:2; stroke-opacity:0.1; fill:none" points="
  1123.1,1486.45 1123.1,47.2441 
  "/>
<polyline clip-path="url(#clip462)" style="stroke:#000000; stroke-linecap:round; stroke-linejoin:round; stroke-width:2; stroke-opacity:0.1; fill:none" points="
  1677.92,1486.45 1677.92,47.2441 
  "/>
<polyline clip-path="url(#clip462)" style="stroke:#000000; stroke-linecap:round; stroke-linejoin:round; stroke-width:2; stroke-opacity:0.1; fill:none" points="
  2232.75,1486.45 2232.75,47.2441 
  "/>
<polyline clip-path="url(#clip460)" style="stroke:#000000; stroke-linecap:round; stroke-linejoin:round; stroke-width:4; stroke-opacity:1; fill:none" points="
  170.857,1486.45 2352.76,1486.45 
  "/>
<polyline clip-path="url(#clip460)" style="stroke:#000000; stroke-linecap:round; stroke-linejoin:round; stroke-width:4; stroke-opacity:1; fill:none" points="
  568.277,1486.45 568.277,1467.55 
  "/>
<polyline clip-path="url(#clip460)" style="stroke:#000000; stroke-linecap:round; stroke-linejoin:round; stroke-width:4; stroke-opacity:1; fill:none" points="
  1123.1,1486.45 1123.1,1467.55 
  "/>
<polyline clip-path="url(#clip460)" style="stroke:#000000; stroke-linecap:round; stroke-linejoin:round; stroke-width:4; stroke-opacity:1; fill:none" points="
  1677.92,1486.45 1677.92,1467.55 
  "/>
<polyline clip-path="url(#clip460)" style="stroke:#000000; stroke-linecap:round; stroke-linejoin:round; stroke-width:4; stroke-opacity:1; fill:none" points="
  2232.75,1486.45 2232.75,1467.55 
  "/>
<path clip-path="url(#clip460)" d="M505.315 1544.91 L512.954 1544.91 L512.954 1518.55 L504.643 1520.21 L504.643 1515.95 L512.907 1514.29 L517.583 1514.29 L517.583 1544.91 L525.222 1544.91 L525.222 1548.85 L505.315 1548.85 L505.315 1544.91 Z" fill="#000000" fill-rule="evenodd" fill-opacity="1" /><path clip-path="url(#clip460)" d="M534.666 1542.97 L539.551 1542.97 L539.551 1548.85 L534.666 1548.85 L534.666 1542.97 Z" fill="#000000" fill-rule="evenodd" fill-opacity="1" /><path clip-path="url(#clip460)" d="M549.875 1548.13 L549.875 1543.87 Q551.634 1544.7 553.44 1545.14 Q555.245 1545.58 556.981 1545.58 Q561.611 1545.58 564.041 1542.48 Q566.495 1539.36 566.842 1533.01 Q565.5 1535.01 563.439 1536.07 Q561.379 1537.13 558.879 1537.13 Q553.694 1537.13 550.662 1534.01 Q547.653 1530.86 547.653 1525.42 Q547.653 1520.1 550.801 1516.88 Q553.949 1513.66 559.18 1513.66 Q565.176 1513.66 568.324 1518.27 Q571.495 1522.85 571.495 1531.6 Q571.495 1539.77 567.606 1544.66 Q563.74 1549.52 557.19 1549.52 Q555.43 1549.52 553.625 1549.17 Q551.819 1548.82 549.875 1548.13 M559.18 1533.48 Q562.328 1533.48 564.157 1531.32 Q566.009 1529.17 566.009 1525.42 Q566.009 1521.7 564.157 1519.54 Q562.328 1517.37 559.18 1517.37 Q556.032 1517.37 554.18 1519.54 Q552.352 1521.7 552.352 1525.42 Q552.352 1529.17 554.18 1531.32 Q556.032 1533.48 559.18 1533.48 Z" fill="#000000" fill-rule="evenodd" fill-opacity="1" /><path clip-path="url(#clip460)" d="M580.037 1548.13 L580.037 1543.87 Q581.796 1544.7 583.601 1545.14 Q585.407 1545.58 587.143 1545.58 Q591.773 1545.58 594.203 1542.48 Q596.657 1539.36 597.004 1533.01 Q595.662 1535.01 593.601 1536.07 Q591.541 1537.13 589.041 1537.13 Q583.856 1537.13 580.824 1534.01 Q577.814 1530.86 577.814 1525.42 Q577.814 1520.1 580.963 1516.88 Q584.111 1513.66 589.342 1513.66 Q595.337 1513.66 598.486 1518.27 Q601.657 1522.85 601.657 1531.6 Q601.657 1539.77 597.768 1544.66 Q593.902 1549.52 587.351 1549.52 Q585.592 1549.52 583.787 1549.17 Q581.981 1548.82 580.037 1548.13 M589.342 1533.48 Q592.49 1533.48 594.319 1531.32 Q596.171 1529.17 596.171 1525.42 Q596.171 1521.7 594.319 1519.54 Q592.49 1517.37 589.342 1517.37 Q586.194 1517.37 584.342 1519.54 Q582.513 1521.7 582.513 1525.42 Q582.513 1529.17 584.342 1531.32 Q586.194 1533.48 589.342 1533.48 Z" fill="#000000" fill-rule="evenodd" fill-opacity="1" /><path clip-path="url(#clip460)" d="M620.06 1532.44 Q616.726 1532.44 614.805 1534.22 Q612.907 1536 612.907 1539.13 Q612.907 1542.25 614.805 1544.03 Q616.726 1545.82 620.06 1545.82 Q623.393 1545.82 625.314 1544.03 Q627.235 1542.23 627.235 1539.13 Q627.235 1536 625.314 1534.22 Q623.416 1532.44 620.06 1532.44 M615.384 1530.45 Q612.374 1529.7 610.685 1527.64 Q609.018 1525.58 609.018 1522.62 Q609.018 1518.48 611.958 1516.07 Q614.921 1513.66 620.06 1513.66 Q625.222 1513.66 628.161 1516.07 Q631.101 1518.48 631.101 1522.62 Q631.101 1525.58 629.411 1527.64 Q627.745 1529.7 624.759 1530.45 Q628.138 1531.23 630.013 1533.52 Q631.911 1535.82 631.911 1539.13 Q631.911 1544.15 628.833 1546.83 Q625.777 1549.52 620.06 1549.52 Q614.342 1549.52 611.263 1546.83 Q608.208 1544.15 608.208 1539.13 Q608.208 1535.82 610.106 1533.52 Q612.004 1531.23 615.384 1530.45 M613.671 1523.06 Q613.671 1525.75 615.337 1527.25 Q617.027 1528.76 620.06 1528.76 Q623.069 1528.76 624.759 1527.25 Q626.472 1525.75 626.472 1523.06 Q626.472 1520.38 624.759 1518.87 Q623.069 1517.37 620.06 1517.37 Q617.027 1517.37 615.337 1518.87 Q613.671 1520.38 613.671 1523.06 Z" fill="#000000" fill-rule="evenodd" fill-opacity="1" /><path clip-path="url(#clip460)" d="M1064.18 1544.91 L1080.5 1544.91 L1080.5 1548.85 L1058.55 1548.85 L1058.55 1544.91 Q1061.21 1542.16 1065.8 1537.53 Q1070.4 1532.88 1071.58 1531.53 Q1073.83 1529.01 1074.71 1527.27 Q1075.61 1525.51 1075.61 1523.82 Q1075.61 1521.07 1073.67 1519.33 Q1071.75 1517.6 1068.65 1517.6 Q1066.45 1517.6 1063.99 1518.36 Q1061.56 1519.13 1058.78 1520.68 L1058.78 1515.95 Q1061.61 1514.82 1064.06 1514.24 Q1066.52 1513.66 1068.55 1513.66 Q1073.92 1513.66 1077.12 1516.35 Q1080.31 1519.03 1080.31 1523.52 Q1080.31 1525.65 1079.5 1527.57 Q1078.71 1529.47 1076.61 1532.07 Q1076.03 1532.74 1072.93 1535.95 Q1069.83 1539.15 1064.18 1544.91 Z" fill="#000000" fill-rule="evenodd" fill-opacity="1" /><path clip-path="url(#clip460)" d="M1090.31 1542.97 L1095.2 1542.97 L1095.2 1548.85 L1090.31 1548.85 L1090.31 1542.97 Z" fill="#000000" fill-rule="evenodd" fill-opacity="1" /><path clip-path="url(#clip460)" d="M1115.38 1517.37 Q1111.77 1517.37 1109.94 1520.93 Q1108.14 1524.47 1108.14 1531.6 Q1108.14 1538.71 1109.94 1542.27 Q1111.77 1545.82 1115.38 1545.82 Q1119.02 1545.82 1120.82 1542.27 Q1122.65 1538.71 1122.65 1531.6 Q1122.65 1524.47 1120.82 1520.93 Q1119.02 1517.37 1115.38 1517.37 M1115.38 1513.66 Q1121.19 1513.66 1124.25 1518.27 Q1127.33 1522.85 1127.33 1531.6 Q1127.33 1540.33 1124.25 1544.94 Q1121.19 1549.52 1115.38 1549.52 Q1109.57 1549.52 1106.49 1544.94 Q1103.44 1540.33 1103.44 1531.6 Q1103.44 1522.85 1106.49 1518.27 Q1109.57 1513.66 1115.38 1513.66 Z" fill="#000000" fill-rule="evenodd" fill-opacity="1" /><path clip-path="url(#clip460)" d="M1145.54 1517.37 Q1141.93 1517.37 1140.1 1520.93 Q1138.3 1524.47 1138.3 1531.6 Q1138.3 1538.71 1140.1 1542.27 Q1141.93 1545.82 1145.54 1545.82 Q1149.18 1545.82 1150.98 1542.27 Q1152.81 1538.71 1152.81 1531.6 Q1152.81 1524.47 1150.98 1520.93 Q1149.18 1517.37 1145.54 1517.37 M1145.54 1513.66 Q1151.35 1513.66 1154.41 1518.27 Q1157.49 1522.85 1157.49 1531.6 Q1157.49 1540.33 1154.41 1544.94 Q1151.35 1549.52 1145.54 1549.52 Q1139.73 1549.52 1136.65 1544.94 Q1133.6 1540.33 1133.6 1531.6 Q1133.6 1522.85 1136.65 1518.27 Q1139.73 1513.66 1145.54 1513.66 Z" fill="#000000" fill-rule="evenodd" fill-opacity="1" /><path clip-path="url(#clip460)" d="M1175.7 1517.37 Q1172.09 1517.37 1170.26 1520.93 Q1168.46 1524.47 1168.46 1531.6 Q1168.46 1538.71 1170.26 1542.27 Q1172.09 1545.82 1175.7 1545.82 Q1179.34 1545.82 1181.14 1542.27 Q1182.97 1538.71 1182.97 1531.6 Q1182.97 1524.47 1181.14 1520.93 Q1179.34 1517.37 1175.7 1517.37 M1175.7 1513.66 Q1181.51 1513.66 1184.57 1518.27 Q1187.65 1522.85 1187.65 1531.6 Q1187.65 1540.33 1184.57 1544.94 Q1181.51 1549.52 1175.7 1549.52 Q1169.89 1549.52 1166.82 1544.94 Q1163.76 1540.33 1163.76 1531.6 Q1163.76 1522.85 1166.82 1518.27 Q1169.89 1513.66 1175.7 1513.66 Z" fill="#000000" fill-rule="evenodd" fill-opacity="1" /><path clip-path="url(#clip460)" d="M1619.8 1544.91 L1636.12 1544.91 L1636.12 1548.85 L1614.17 1548.85 L1614.17 1544.91 Q1616.84 1542.16 1621.42 1537.53 Q1626.03 1532.88 1627.21 1531.53 Q1629.45 1529.01 1630.33 1527.27 Q1631.23 1525.51 1631.23 1523.82 Q1631.23 1521.07 1629.29 1519.33 Q1627.37 1517.6 1624.27 1517.6 Q1622.07 1517.6 1619.61 1518.36 Q1617.18 1519.13 1614.41 1520.68 L1614.41 1515.95 Q1617.23 1514.82 1619.68 1514.24 Q1622.14 1513.66 1624.17 1513.66 Q1629.54 1513.66 1632.74 1516.35 Q1635.93 1519.03 1635.93 1523.52 Q1635.93 1525.65 1635.12 1527.57 Q1634.34 1529.47 1632.23 1532.07 Q1631.65 1532.74 1628.55 1535.95 Q1625.45 1539.15 1619.8 1544.91 Z" fill="#000000" fill-rule="evenodd" fill-opacity="1" /><path clip-path="url(#clip460)" d="M1645.93 1542.97 L1650.82 1542.97 L1650.82 1548.85 L1645.93 1548.85 L1645.93 1542.97 Z" fill="#000000" fill-rule="evenodd" fill-opacity="1" /><path clip-path="url(#clip460)" d="M1671 1517.37 Q1667.39 1517.37 1665.56 1520.93 Q1663.76 1524.47 1663.76 1531.6 Q1663.76 1538.71 1665.56 1542.27 Q1667.39 1545.82 1671 1545.82 Q1674.64 1545.82 1676.44 1542.27 Q1678.27 1538.71 1678.27 1531.6 Q1678.27 1524.47 1676.44 1520.93 Q1674.64 1517.37 1671 1517.37 M1671 1513.66 Q1676.81 1513.66 1679.87 1518.27 Q1682.95 1522.85 1682.95 1531.6 Q1682.95 1540.33 1679.87 1544.94 Q1676.81 1549.52 1671 1549.52 Q1665.19 1549.52 1662.11 1544.94 Q1659.06 1540.33 1659.06 1531.6 Q1659.06 1522.85 1662.11 1518.27 Q1665.19 1513.66 1671 1513.66 Z" fill="#000000" fill-rule="evenodd" fill-opacity="1" /><path clip-path="url(#clip460)" d="M1701.16 1517.37 Q1697.55 1517.37 1695.73 1520.93 Q1693.92 1524.47 1693.92 1531.6 Q1693.92 1538.71 1695.73 1542.27 Q1697.55 1545.82 1701.16 1545.82 Q1704.8 1545.82 1706.6 1542.27 Q1708.43 1538.71 1708.43 1531.6 Q1708.43 1524.47 1706.6 1520.93 Q1704.8 1517.37 1701.16 1517.37 M1701.16 1513.66 Q1706.97 1513.66 1710.03 1518.27 Q1713.11 1522.85 1713.11 1531.6 Q1713.11 1540.33 1710.03 1544.94 Q1706.97 1549.52 1701.16 1549.52 Q1695.35 1549.52 1692.28 1544.94 Q1689.22 1540.33 1689.22 1531.6 Q1689.22 1522.85 1692.28 1518.27 Q1695.35 1513.66 1701.16 1513.66 Z" fill="#000000" fill-rule="evenodd" fill-opacity="1" /><path clip-path="url(#clip460)" d="M1725.35 1544.91 L1741.67 1544.91 L1741.67 1548.85 L1719.73 1548.85 L1719.73 1544.91 Q1722.39 1542.16 1726.97 1537.53 Q1731.58 1532.88 1732.76 1531.53 Q1735.01 1529.01 1735.89 1527.27 Q1736.79 1525.51 1736.79 1523.82 Q1736.79 1521.07 1734.85 1519.33 Q1732.92 1517.6 1729.82 1517.6 Q1727.62 1517.6 1725.17 1518.36 Q1722.74 1519.13 1719.96 1520.68 L1719.96 1515.95 Q1722.79 1514.82 1725.24 1514.24 Q1727.69 1513.66 1729.73 1513.66 Q1735.1 1513.66 1738.29 1516.35 Q1741.49 1519.03 1741.49 1523.52 Q1741.49 1525.65 1740.68 1527.57 Q1739.89 1529.47 1737.78 1532.07 Q1737.21 1532.74 1734.1 1535.95 Q1731 1539.15 1725.35 1544.91 Z" fill="#000000" fill-rule="evenodd" fill-opacity="1" /><path clip-path="url(#clip460)" d="M2173.58 1544.91 L2189.9 1544.91 L2189.9 1548.85 L2167.96 1548.85 L2167.96 1544.91 Q2170.62 1542.16 2175.2 1537.53 Q2179.81 1532.88 2180.99 1531.53 Q2183.23 1529.01 2184.11 1527.27 Q2185.02 1525.51 2185.02 1523.82 Q2185.02 1521.07 2183.07 1519.33 Q2181.15 1517.6 2178.05 1517.6 Q2175.85 1517.6 2173.4 1518.36 Q2170.97 1519.13 2168.19 1520.68 L2168.19 1515.95 Q2171.01 1514.82 2173.47 1514.24 Q2175.92 1513.66 2177.96 1513.66 Q2183.33 1513.66 2186.52 1516.35 Q2189.72 1519.03 2189.72 1523.52 Q2189.72 1525.65 2188.91 1527.57 Q2188.12 1529.47 2186.01 1532.07 Q2185.43 1532.74 2182.33 1535.95 Q2179.23 1539.15 2173.58 1544.91 Z" fill="#000000" fill-rule="evenodd" fill-opacity="1" /><path clip-path="url(#clip460)" d="M2199.72 1542.97 L2204.6 1542.97 L2204.6 1548.85 L2199.72 1548.85 L2199.72 1542.97 Z" fill="#000000" fill-rule="evenodd" fill-opacity="1" /><path clip-path="url(#clip460)" d="M2224.78 1517.37 Q2221.17 1517.37 2219.34 1520.93 Q2217.54 1524.47 2217.54 1531.6 Q2217.54 1538.71 2219.34 1542.27 Q2221.17 1545.82 2224.78 1545.82 Q2228.42 1545.82 2230.22 1542.27 Q2232.05 1538.71 2232.05 1531.6 Q2232.05 1524.47 2230.22 1520.93 Q2228.42 1517.37 2224.78 1517.37 M2224.78 1513.66 Q2230.59 1513.66 2233.65 1518.27 Q2236.73 1522.85 2236.73 1531.6 Q2236.73 1540.33 2233.65 1544.94 Q2230.59 1549.52 2224.78 1549.52 Q2218.97 1549.52 2215.9 1544.94 Q2212.84 1540.33 2212.84 1531.6 Q2212.84 1522.85 2215.9 1518.27 Q2218.97 1513.66 2224.78 1513.66 Z" fill="#000000" fill-rule="evenodd" fill-opacity="1" /><path clip-path="url(#clip460)" d="M2254.95 1517.37 Q2251.34 1517.37 2249.51 1520.93 Q2247.7 1524.47 2247.7 1531.6 Q2247.7 1538.71 2249.51 1542.27 Q2251.34 1545.82 2254.95 1545.82 Q2258.58 1545.82 2260.39 1542.27 Q2262.22 1538.71 2262.22 1531.6 Q2262.22 1524.47 2260.39 1520.93 Q2258.58 1517.37 2254.95 1517.37 M2254.95 1513.66 Q2260.76 1513.66 2263.81 1518.27 Q2266.89 1522.85 2266.89 1531.6 Q2266.89 1540.33 2263.81 1544.94 Q2260.76 1549.52 2254.95 1549.52 Q2249.14 1549.52 2246.06 1544.94 Q2243 1540.33 2243 1531.6 Q2243 1522.85 2246.06 1518.27 Q2249.14 1513.66 2254.95 1513.66 Z" fill="#000000" fill-rule="evenodd" fill-opacity="1" /><path clip-path="url(#clip460)" d="M2287.96 1518.36 L2276.15 1536.81 L2287.96 1536.81 L2287.96 1518.36 M2286.73 1514.29 L2292.61 1514.29 L2292.61 1536.81 L2297.54 1536.81 L2297.54 1540.7 L2292.61 1540.7 L2292.61 1548.85 L2287.96 1548.85 L2287.96 1540.7 L2272.35 1540.7 L2272.35 1536.19 L2286.73 1514.29 Z" fill="#000000" fill-rule="evenodd" fill-opacity="1" /><polyline clip-path="url(#clip462)" style="stroke:#000000; stroke-linecap:round; stroke-linejoin:round; stroke-width:2; stroke-opacity:0.1; fill:none" points="
  170.857,1445.72 2352.76,1445.72 
  "/>
<polyline clip-path="url(#clip462)" style="stroke:#000000; stroke-linecap:round; stroke-linejoin:round; stroke-width:2; stroke-opacity:0.1; fill:none" points="
  170.857,1117.76 2352.76,1117.76 
  "/>
<polyline clip-path="url(#clip462)" style="stroke:#000000; stroke-linecap:round; stroke-linejoin:round; stroke-width:2; stroke-opacity:0.1; fill:none" points="
  170.857,789.803 2352.76,789.803 
  "/>
<polyline clip-path="url(#clip462)" style="stroke:#000000; stroke-linecap:round; stroke-linejoin:round; stroke-width:2; stroke-opacity:0.1; fill:none" points="
  170.857,461.847 2352.76,461.847 
  "/>
<polyline clip-path="url(#clip462)" style="stroke:#000000; stroke-linecap:round; stroke-linejoin:round; stroke-width:2; stroke-opacity:0.1; fill:none" points="
  170.857,133.89 2352.76,133.89 
  "/>
<polyline clip-path="url(#clip460)" style="stroke:#000000; stroke-linecap:round; stroke-linejoin:round; stroke-width:4; stroke-opacity:1; fill:none" points="
  170.857,1486.45 170.857,47.2441 
  "/>
<polyline clip-path="url(#clip460)" style="stroke:#000000; stroke-linecap:round; stroke-linejoin:round; stroke-width:4; stroke-opacity:1; fill:none" points="
  170.857,1445.72 189.755,1445.72 
  "/>
<polyline clip-path="url(#clip460)" style="stroke:#000000; stroke-linecap:round; stroke-linejoin:round; stroke-width:4; stroke-opacity:1; fill:none" points="
  170.857,1117.76 189.755,1117.76 
  "/>
<polyline clip-path="url(#clip460)" style="stroke:#000000; stroke-linecap:round; stroke-linejoin:round; stroke-width:4; stroke-opacity:1; fill:none" points="
  170.857,789.803 189.755,789.803 
  "/>
<polyline clip-path="url(#clip460)" style="stroke:#000000; stroke-linecap:round; stroke-linejoin:round; stroke-width:4; stroke-opacity:1; fill:none" points="
  170.857,461.847 189.755,461.847 
  "/>
<polyline clip-path="url(#clip460)" style="stroke:#000000; stroke-linecap:round; stroke-linejoin:round; stroke-width:4; stroke-opacity:1; fill:none" points="
  170.857,133.89 189.755,133.89 
  "/>
<path clip-path="url(#clip460)" d="M122.913 1431.51 Q119.302 1431.51 117.473 1435.08 Q115.668 1438.62 115.668 1445.75 Q115.668 1452.86 117.473 1456.42 Q119.302 1459.96 122.913 1459.96 Q126.547 1459.96 128.353 1456.42 Q130.182 1452.86 130.182 1445.75 Q130.182 1438.62 128.353 1435.08 Q126.547 1431.51 122.913 1431.51 M122.913 1427.81 Q128.723 1427.81 131.779 1432.42 Q134.857 1437 134.857 1445.75 Q134.857 1454.48 131.779 1459.08 Q128.723 1463.67 122.913 1463.67 Q117.103 1463.67 114.024 1459.08 Q110.969 1454.48 110.969 1445.75 Q110.969 1437 114.024 1432.42 Q117.103 1427.81 122.913 1427.81 Z" fill="#000000" fill-rule="evenodd" fill-opacity="1" /><path clip-path="url(#clip460)" d="M82.7975 1100.48 L101.154 1100.48 L101.154 1104.41 L87.0799 1104.41 L87.0799 1112.89 Q88.0984 1112.54 89.1169 1112.38 Q90.1354 1112.19 91.1539 1112.19 Q96.941 1112.19 100.321 1115.36 Q103.7 1118.53 103.7 1123.95 Q103.7 1129.53 100.228 1132.63 Q96.7558 1135.71 90.4364 1135.71 Q88.2604 1135.71 85.9919 1135.34 Q83.7466 1134.97 81.3392 1134.23 L81.3392 1129.53 Q83.4225 1130.66 85.6447 1131.22 Q87.8669 1131.78 90.3438 1131.78 Q94.3484 1131.78 96.6863 1129.67 Q99.0243 1127.56 99.0243 1123.95 Q99.0243 1120.34 96.6863 1118.23 Q94.3484 1116.13 90.3438 1116.13 Q88.4688 1116.13 86.5938 1116.54 Q84.7419 1116.96 82.7975 1117.84 L82.7975 1100.48 Z" fill="#000000" fill-rule="evenodd" fill-opacity="1" /><path clip-path="url(#clip460)" d="M122.913 1103.56 Q119.302 1103.56 117.473 1107.12 Q115.668 1110.66 115.668 1117.79 Q115.668 1124.9 117.473 1128.47 Q119.302 1132.01 122.913 1132.01 Q126.547 1132.01 128.353 1128.47 Q130.182 1124.9 130.182 1117.79 Q130.182 1110.66 128.353 1107.12 Q126.547 1103.56 122.913 1103.56 M122.913 1099.85 Q128.723 1099.85 131.779 1104.46 Q134.857 1109.04 134.857 1117.79 Q134.857 1126.52 131.779 1131.13 Q128.723 1135.71 122.913 1135.71 Q117.103 1135.71 114.024 1131.13 Q110.969 1126.52 110.969 1117.79 Q110.969 1109.04 114.024 1104.46 Q117.103 1099.85 122.913 1099.85 Z" fill="#000000" fill-rule="evenodd" fill-opacity="1" /><path clip-path="url(#clip460)" d="M53.3995 803.148 L61.0384 803.148 L61.0384 776.782 L52.7282 778.449 L52.7282 774.19 L60.9921 772.523 L65.668 772.523 L65.668 803.148 L73.3068 803.148 L73.3068 807.083 L53.3995 807.083 L53.3995 803.148 Z" fill="#000000" fill-rule="evenodd" fill-opacity="1" /><path clip-path="url(#clip460)" d="M92.7512 775.602 Q89.1401 775.602 87.3114 779.166 Q85.5058 782.708 85.5058 789.838 Q85.5058 796.944 87.3114 800.509 Q89.1401 804.051 92.7512 804.051 Q96.3854 804.051 98.1909 800.509 Q100.02 796.944 100.02 789.838 Q100.02 782.708 98.1909 779.166 Q96.3854 775.602 92.7512 775.602 M92.7512 771.898 Q98.5613 771.898 101.617 776.504 Q104.696 781.088 104.696 789.838 Q104.696 798.564 101.617 803.171 Q98.5613 807.754 92.7512 807.754 Q86.941 807.754 83.8623 803.171 Q80.8068 798.564 80.8068 789.838 Q80.8068 781.088 83.8623 776.504 Q86.941 771.898 92.7512 771.898 Z" fill="#000000" fill-rule="evenodd" fill-opacity="1" /><path clip-path="url(#clip460)" d="M122.913 775.602 Q119.302 775.602 117.473 779.166 Q115.668 782.708 115.668 789.838 Q115.668 796.944 117.473 800.509 Q119.302 804.051 122.913 804.051 Q126.547 804.051 128.353 800.509 Q130.182 796.944 130.182 789.838 Q130.182 782.708 128.353 779.166 Q126.547 775.602 122.913 775.602 M122.913 771.898 Q128.723 771.898 131.779 776.504 Q134.857 781.088 134.857 789.838 Q134.857 798.564 131.779 803.171 Q128.723 807.754 122.913 807.754 Q117.103 807.754 114.024 803.171 Q110.969 798.564 110.969 789.838 Q110.969 781.088 114.024 776.504 Q117.103 771.898 122.913 771.898 Z" fill="#000000" fill-rule="evenodd" fill-opacity="1" /><path clip-path="url(#clip460)" d="M53.3995 475.191 L61.0384 475.191 L61.0384 448.826 L52.7282 450.492 L52.7282 446.233 L60.9921 444.567 L65.668 444.567 L65.668 475.191 L73.3068 475.191 L73.3068 479.127 L53.3995 479.127 L53.3995 475.191 Z" fill="#000000" fill-rule="evenodd" fill-opacity="1" /><path clip-path="url(#clip460)" d="M82.7975 444.567 L101.154 444.567 L101.154 448.502 L87.0799 448.502 L87.0799 456.974 Q88.0984 456.627 89.1169 456.465 Q90.1354 456.279 91.1539 456.279 Q96.941 456.279 100.321 459.451 Q103.7 462.622 103.7 468.039 Q103.7 473.617 100.228 476.719 Q96.7558 479.798 90.4364 479.798 Q88.2604 479.798 85.9919 479.427 Q83.7466 479.057 81.3392 478.316 L81.3392 473.617 Q83.4225 474.752 85.6447 475.307 Q87.8669 475.863 90.3438 475.863 Q94.3484 475.863 96.6863 473.756 Q99.0243 471.65 99.0243 468.039 Q99.0243 464.428 96.6863 462.321 Q94.3484 460.215 90.3438 460.215 Q88.4688 460.215 86.5938 460.631 Q84.7419 461.048 82.7975 461.928 L82.7975 444.567 Z" fill="#000000" fill-rule="evenodd" fill-opacity="1" /><path clip-path="url(#clip460)" d="M122.913 447.645 Q119.302 447.645 117.473 451.21 Q115.668 454.752 115.668 461.881 Q115.668 468.988 117.473 472.553 Q119.302 476.094 122.913 476.094 Q126.547 476.094 128.353 472.553 Q130.182 468.988 130.182 461.881 Q130.182 454.752 128.353 451.21 Q126.547 447.645 122.913 447.645 M122.913 443.942 Q128.723 443.942 131.779 448.548 Q134.857 453.131 134.857 461.881 Q134.857 470.608 131.779 475.215 Q128.723 479.798 122.913 479.798 Q117.103 479.798 114.024 475.215 Q110.969 470.608 110.969 461.881 Q110.969 453.131 114.024 448.548 Q117.103 443.942 122.913 443.942 Z" fill="#000000" fill-rule="evenodd" fill-opacity="1" /><path clip-path="url(#clip460)" d="M56.6171 147.235 L72.9365 147.235 L72.9365 151.17 L50.9921 151.17 L50.9921 147.235 Q53.6541 144.48 58.2375 139.851 Q62.8439 135.198 64.0245 133.855 Q66.2698 131.332 67.1494 129.596 Q68.0522 127.837 68.0522 126.147 Q68.0522 123.393 66.1078 121.656 Q64.1865 119.92 61.0847 119.92 Q58.8856 119.92 56.4319 120.684 Q54.0014 121.448 51.2236 122.999 L51.2236 118.277 Q54.0477 117.143 56.5014 116.564 Q58.955 115.985 60.9921 115.985 Q66.3624 115.985 69.5568 118.67 Q72.7513 121.356 72.7513 125.846 Q72.7513 127.976 71.9411 129.897 Q71.1541 131.795 69.0476 134.388 Q68.4689 135.059 65.367 138.277 Q62.2652 141.471 56.6171 147.235 Z" fill="#000000" fill-rule="evenodd" fill-opacity="1" /><path clip-path="url(#clip460)" d="M92.7512 119.689 Q89.1401 119.689 87.3114 123.254 Q85.5058 126.795 85.5058 133.925 Q85.5058 141.031 87.3114 144.596 Q89.1401 148.138 92.7512 148.138 Q96.3854 148.138 98.1909 144.596 Q100.02 141.031 100.02 133.925 Q100.02 126.795 98.1909 123.254 Q96.3854 119.689 92.7512 119.689 M92.7512 115.985 Q98.5613 115.985 101.617 120.592 Q104.696 125.175 104.696 133.925 Q104.696 142.652 101.617 147.258 Q98.5613 151.841 92.7512 151.841 Q86.941 151.841 83.8623 147.258 Q80.8068 142.652 80.8068 133.925 Q80.8068 125.175 83.8623 120.592 Q86.941 115.985 92.7512 115.985 Z" fill="#000000" fill-rule="evenodd" fill-opacity="1" /><path clip-path="url(#clip460)" d="M122.913 119.689 Q119.302 119.689 117.473 123.254 Q115.668 126.795 115.668 133.925 Q115.668 141.031 117.473 144.596 Q119.302 148.138 122.913 148.138 Q126.547 148.138 128.353 144.596 Q130.182 141.031 130.182 133.925 Q130.182 126.795 128.353 123.254 Q126.547 119.689 122.913 119.689 M122.913 115.985 Q128.723 115.985 131.779 120.592 Q134.857 125.175 134.857 133.925 Q134.857 142.652 131.779 147.258 Q128.723 151.841 122.913 151.841 Q117.103 151.841 114.024 147.258 Q110.969 142.652 110.969 133.925 Q110.969 125.175 114.024 120.592 Q117.103 115.985 122.913 115.985 Z" fill="#000000" fill-rule="evenodd" fill-opacity="1" /><path clip-path="url(#clip462)" d="
M290.866 1432.6 L290.866 1445.72 L429.572 1445.72 L429.572 1432.6 L290.866 1432.6 L290.866 1432.6  Z
  " fill="#009af9" fill-rule="evenodd" fill-opacity="1"/>
<polyline clip-path="url(#clip462)" style="stroke:#000000; stroke-linecap:round; stroke-linejoin:round; stroke-width:4; stroke-opacity:1; fill:none" points="
  290.866,1432.6 290.866,1445.72 429.572,1445.72 429.572,1432.6 290.866,1432.6 
  "/>
<path clip-path="url(#clip462)" d="
M429.572 1347.33 L429.572 1445.72 L568.277 1445.72 L568.277 1347.33 L429.572 1347.33 L429.572 1347.33  Z
  " fill="#009af9" fill-rule="evenodd" fill-opacity="1"/>
<polyline clip-path="url(#clip462)" style="stroke:#000000; stroke-linecap:round; stroke-linejoin:round; stroke-width:4; stroke-opacity:1; fill:none" points="
  429.572,1347.33 429.572,1445.72 568.277,1445.72 568.277,1347.33 429.572,1347.33 
  "/>
<path clip-path="url(#clip462)" d="
M568.277 1124.32 L568.277 1445.72 L706.983 1445.72 L706.983 1124.32 L568.277 1124.32 L568.277 1124.32  Z
  " fill="#009af9" fill-rule="evenodd" fill-opacity="1"/>
<polyline clip-path="url(#clip462)" style="stroke:#000000; stroke-linecap:round; stroke-linejoin:round; stroke-width:4; stroke-opacity:1; fill:none" points="
  568.277,1124.32 568.277,1445.72 706.983,1445.72 706.983,1124.32 568.277,1124.32 
  "/>
<path clip-path="url(#clip462)" d="
M706.983 842.276 L706.983 1445.72 L845.689 1445.72 L845.689 842.276 L706.983 842.276 L706.983 842.276  Z
  " fill="#009af9" fill-rule="evenodd" fill-opacity="1"/>
<polyline clip-path="url(#clip462)" style="stroke:#000000; stroke-linecap:round; stroke-linejoin:round; stroke-width:4; stroke-opacity:1; fill:none" points="
  706.983,842.276 706.983,1445.72 845.689,1445.72 845.689,842.276 706.983,842.276 
  "/>
<path clip-path="url(#clip462)" d="
M845.689 527.438 L845.689 1445.72 L984.395 1445.72 L984.395 527.438 L845.689 527.438 L845.689 527.438  Z
  " fill="#009af9" fill-rule="evenodd" fill-opacity="1"/>
<polyline clip-path="url(#clip462)" style="stroke:#000000; stroke-linecap:round; stroke-linejoin:round; stroke-width:4; stroke-opacity:1; fill:none" points="
  845.689,527.438 845.689,1445.72 984.395,1445.72 984.395,527.438 845.689,527.438 
  "/>
<path clip-path="url(#clip462)" d="
M984.395 87.9763 L984.395 1445.72 L1123.1 1445.72 L1123.1 87.9763 L984.395 87.9763 L984.395 87.9763  Z
  " fill="#009af9" fill-rule="evenodd" fill-opacity="1"/>
<polyline clip-path="url(#clip462)" style="stroke:#000000; stroke-linecap:round; stroke-linejoin:round; stroke-width:4; stroke-opacity:1; fill:none" points="
  984.395,87.9763 984.395,1445.72 1123.1,1445.72 1123.1,87.9763 984.395,87.9763 
  "/>
<path clip-path="url(#clip462)" d="
M1123.1 225.718 L1123.1 1445.72 L1261.81 1445.72 L1261.81 225.718 L1123.1 225.718 L1123.1 225.718  Z
  " fill="#009af9" fill-rule="evenodd" fill-opacity="1"/>
<polyline clip-path="url(#clip462)" style="stroke:#000000; stroke-linecap:round; stroke-linejoin:round; stroke-width:4; stroke-opacity:1; fill:none" points="
  1123.1,225.718 1123.1,1445.72 1261.81,1445.72 1261.81,225.718 1123.1,225.718 
  "/>
<path clip-path="url(#clip462)" d="
M1261.81 494.642 L1261.81 1445.72 L1400.51 1445.72 L1400.51 494.642 L1261.81 494.642 L1261.81 494.642  Z
  " fill="#009af9" fill-rule="evenodd" fill-opacity="1"/>
<polyline clip-path="url(#clip462)" style="stroke:#000000; stroke-linecap:round; stroke-linejoin:round; stroke-width:4; stroke-opacity:1; fill:none" points="
  1261.81,494.642 1261.81,1445.72 1400.51,1445.72 1400.51,494.642 1261.81,494.642 
  "/>
<path clip-path="url(#clip462)" d="
M1400.51 789.803 L1400.51 1445.72 L1539.22 1445.72 L1539.22 789.803 L1400.51 789.803 L1400.51 789.803  Z
  " fill="#009af9" fill-rule="evenodd" fill-opacity="1"/>
<polyline clip-path="url(#clip462)" style="stroke:#000000; stroke-linecap:round; stroke-linejoin:round; stroke-width:4; stroke-opacity:1; fill:none" points="
  1400.51,789.803 1400.51,1445.72 1539.22,1445.72 1539.22,789.803 1400.51,789.803 
  "/>
<path clip-path="url(#clip462)" d="
M1539.22 1189.91 L1539.22 1445.72 L1677.92 1445.72 L1677.92 1189.91 L1539.22 1189.91 L1539.22 1189.91  Z
  " fill="#009af9" fill-rule="evenodd" fill-opacity="1"/>
<polyline clip-path="url(#clip462)" style="stroke:#000000; stroke-linecap:round; stroke-linejoin:round; stroke-width:4; stroke-opacity:1; fill:none" points="
  1539.22,1189.91 1539.22,1445.72 1677.92,1445.72 1677.92,1189.91 1539.22,1189.91 
  "/>
<path clip-path="url(#clip462)" d="
M1677.92 1321.09 L1677.92 1445.72 L1816.63 1445.72 L1816.63 1321.09 L1677.92 1321.09 L1677.92 1321.09  Z
  " fill="#009af9" fill-rule="evenodd" fill-opacity="1"/>
<polyline clip-path="url(#clip462)" style="stroke:#000000; stroke-linecap:round; stroke-linejoin:round; stroke-width:4; stroke-opacity:1; fill:none" points="
  1677.92,1321.09 1677.92,1445.72 1816.63,1445.72 1816.63,1321.09 1677.92,1321.09 
  "/>
<path clip-path="url(#clip462)" d="
M1816.63 1426.04 L1816.63 1445.72 L1955.34 1445.72 L1955.34 1426.04 L1816.63 1426.04 L1816.63 1426.04  Z
  " fill="#009af9" fill-rule="evenodd" fill-opacity="1"/>
<polyline clip-path="url(#clip462)" style="stroke:#000000; stroke-linecap:round; stroke-linejoin:round; stroke-width:4; stroke-opacity:1; fill:none" points="
  1816.63,1426.04 1816.63,1445.72 1955.34,1445.72 1955.34,1426.04 1816.63,1426.04 
  "/>
<path clip-path="url(#clip462)" d="
M1955.34 1432.6 L1955.34 1445.72 L2094.04 1445.72 L2094.04 1432.6 L1955.34 1432.6 L1955.34 1432.6  Z
  " fill="#009af9" fill-rule="evenodd" fill-opacity="1"/>
<polyline clip-path="url(#clip462)" style="stroke:#000000; stroke-linecap:round; stroke-linejoin:round; stroke-width:4; stroke-opacity:1; fill:none" points="
  1955.34,1432.6 1955.34,1445.72 2094.04,1445.72 2094.04,1432.6 1955.34,1432.6 
  "/>
<path clip-path="url(#clip462)" d="
M2094.04 1439.16 L2094.04 1445.72 L2232.75 1445.72 L2232.75 1439.16 L2094.04 1439.16 L2094.04 1439.16  Z
  " fill="#009af9" fill-rule="evenodd" fill-opacity="1"/>
<polyline clip-path="url(#clip462)" style="stroke:#000000; stroke-linecap:round; stroke-linejoin:round; stroke-width:4; stroke-opacity:1; fill:none" points="
  2094.04,1439.16 2094.04,1445.72 2232.75,1445.72 2232.75,1439.16 2094.04,1439.16 
  "/>
<circle clip-path="url(#clip462)" style="fill:#009af9; stroke:none; fill-opacity:0" cx="360.219" cy="1432.6" r="2"/>
<circle clip-path="url(#clip462)" style="fill:#009af9; stroke:none; fill-opacity:0" cx="498.924" cy="1347.33" r="2"/>
<circle clip-path="url(#clip462)" style="fill:#009af9; stroke:none; fill-opacity:0" cx="637.63" cy="1124.32" r="2"/>
<circle clip-path="url(#clip462)" style="fill:#009af9; stroke:none; fill-opacity:0" cx="776.336" cy="842.276" r="2"/>
<circle clip-path="url(#clip462)" style="fill:#009af9; stroke:none; fill-opacity:0" cx="915.042" cy="527.438" r="2"/>
<circle clip-path="url(#clip462)" style="fill:#009af9; stroke:none; fill-opacity:0" cx="1053.75" cy="87.9763" r="2"/>
<circle clip-path="url(#clip462)" style="fill:#009af9; stroke:none; fill-opacity:0" cx="1192.45" cy="225.718" r="2"/>
<circle clip-path="url(#clip462)" style="fill:#009af9; stroke:none; fill-opacity:0" cx="1331.16" cy="494.642" r="2"/>
<circle clip-path="url(#clip462)" style="fill:#009af9; stroke:none; fill-opacity:0" cx="1469.87" cy="789.803" r="2"/>
<circle clip-path="url(#clip462)" style="fill:#009af9; stroke:none; fill-opacity:0" cx="1608.57" cy="1189.91" r="2"/>
<circle clip-path="url(#clip462)" style="fill:#009af9; stroke:none; fill-opacity:0" cx="1747.28" cy="1321.09" r="2"/>
<circle clip-path="url(#clip462)" style="fill:#009af9; stroke:none; fill-opacity:0" cx="1885.98" cy="1426.04" r="2"/>
<circle clip-path="url(#clip462)" style="fill:#009af9; stroke:none; fill-opacity:0" cx="2024.69" cy="1432.6" r="2"/>
<circle clip-path="url(#clip462)" style="fill:#009af9; stroke:none; fill-opacity:0" cx="2163.39" cy="1439.16" r="2"/>
</svg>
