<?xml version="1.0" encoding="utf-8"?>
<svg xmlns="http://www.w3.org/2000/svg" xmlns:xlink="http://www.w3.org/1999/xlink" width="600" height="400" viewBox="0 0 2400 1600">
<defs>
  <clipPath id="clip620">
    <rect x="0" y="0" width="2400" height="1600"/>
  </clipPath>
</defs>
<path clip-path="url(#clip620)" d="M0 1600 L2400 1600 L2400 0 L0 0  Z" fill="#ffffff" fill-rule="evenodd" fill-opacity="1"/>
<defs>
  <clipPath id="clip621">
    <rect x="480" y="0" width="1681" height="1600"/>
  </clipPath>
</defs>
<path clip-path="url(#clip620)" d="M169.121 1486.45 L2352.76 1486.45 L2352.76 47.2441 L169.121 47.2441  Z" fill="#ffffff" fill-rule="evenodd" fill-opacity="1"/>
<defs>
  <clipPath id="clip622">
    <rect x="169" y="47" width="2185" height="1440"/>
  </clipPath>
</defs>
<polyline clip-path="url(#clip622)" style="stroke:#000000; stroke-linecap:round; stroke-linejoin:round; stroke-width:2; stroke-opacity:0.1; fill:none" points="289.225,1486.45 289.225,47.2441 "/>
<polyline clip-path="url(#clip622)" style="stroke:#000000; stroke-linecap:round; stroke-linejoin:round; stroke-width:2; stroke-opacity:0.1; fill:none" points="807.472,1486.45 807.472,47.2441 "/>
<polyline clip-path="url(#clip622)" style="stroke:#000000; stroke-linecap:round; stroke-linejoin:round; stroke-width:2; stroke-opacity:0.1; fill:none" points="1325.72,1486.45 1325.72,47.2441 "/>
<polyline clip-path="url(#clip622)" style="stroke:#000000; stroke-linecap:round; stroke-linejoin:round; stroke-width:2; stroke-opacity:0.1; fill:none" points="1843.97,1486.45 1843.97,47.2441 "/>
<polyline clip-path="url(#clip622)" style="stroke:#000000; stroke-linecap:round; stroke-linejoin:round; stroke-width:2; stroke-opacity:0.1; fill:none" points="169.121,1486.45 2352.76,1486.45 "/>
<polyline clip-path="url(#clip622)" style="stroke:#000000; stroke-linecap:round; stroke-linejoin:round; stroke-width:2; stroke-opacity:0.1; fill:none" points="169.121,1107.71 2352.76,1107.71 "/>
<polyline clip-path="url(#clip622)" style="stroke:#000000; stroke-linecap:round; stroke-linejoin:round; stroke-width:2; stroke-opacity:0.1; fill:none" points="169.121,728.972 2352.76,728.972 "/>
<polyline clip-path="url(#clip622)" style="stroke:#000000; stroke-linecap:round; stroke-linejoin:round; stroke-width:2; stroke-opacity:0.1; fill:none" points="169.121,350.234 2352.76,350.234 "/>
<polyline clip-path="url(#clip620)" style="stroke:#000000; stroke-linecap:round; stroke-linejoin:round; stroke-width:4; stroke-opacity:1; fill:none" points="169.121,1486.45 2352.76,1486.45 "/>
<polyline clip-path="url(#clip620)" style="stroke:#000000; stroke-linecap:round; stroke-linejoin:round; stroke-width:4; stroke-opacity:1; fill:none" points="289.225,1486.45 289.225,1467.55 "/>
<polyline clip-path="url(#clip620)" style="stroke:#000000; stroke-linecap:round; stroke-linejoin:round; stroke-width:4; stroke-opacity:1; fill:none" points="807.472,1486.45 807.472,1467.55 "/>
<polyline clip-path="url(#clip620)" style="stroke:#000000; stroke-linecap:round; stroke-linejoin:round; stroke-width:4; stroke-opacity:1; fill:none" points="1325.72,1486.45 1325.72,1467.55 "/>
<polyline clip-path="url(#clip620)" style="stroke:#000000; stroke-linecap:round; stroke-linejoin:round; stroke-width:4; stroke-opacity:1; fill:none" points="1843.97,1486.45 1843.97,1467.55 "/>
<path clip-path="url(#clip620)" d="M236.367 1517.37 Q232.756 1517.37 230.927 1520.93 Q229.121 1524.47 229.121 1531.6 Q229.121 1538.71 230.927 1542.27 Q232.756 1545.82 236.367 1545.82 Q240.001 1545.82 241.806 1542.27 Q243.635 1538.71 243.635 1531.6 Q243.635 1524.47 241.806 1520.93 Q240.001 1517.37 236.367 1517.37 M236.367 1513.66 Q242.177 1513.66 245.232 1518.27 Q248.311 1522.85 248.311 1531.6 Q248.311 1540.33 245.232 1544.94 Q242.177 1549.52 236.367 1549.52 Q230.556 1549.52 227.478 1544.94 Q224.422 1540.33 224.422 1531.6 Q224.422 1522.85 227.478 1518.27 Q230.556 1513.66 236.367 1513.66 Z" fill="#000000" fill-rule="nonzero" fill-opacity="1" /><path clip-path="url(#clip620)" d="M256.529 1542.97 L261.413 1542.97 L261.413 1548.85 L256.529 1548.85 L256.529 1542.97 Z" fill="#000000" fill-rule="nonzero" fill-opacity="1" /><path clip-path="url(#clip620)" d="M271.737 1548.13 L271.737 1543.87 Q273.496 1544.7 275.302 1545.14 Q277.107 1545.58 278.843 1545.58 Q283.473 1545.58 285.903 1542.48 Q288.357 1539.36 288.704 1533.01 Q287.362 1535.01 285.302 1536.07 Q283.241 1537.13 280.741 1537.13 Q275.556 1537.13 272.524 1534.01 Q269.515 1530.86 269.515 1525.42 Q269.515 1520.1 272.663 1516.88 Q275.811 1513.66 281.042 1513.66 Q287.038 1513.66 290.186 1518.27 Q293.357 1522.85 293.357 1531.6 Q293.357 1539.77 289.468 1544.66 Q285.602 1549.52 279.052 1549.52 Q277.292 1549.52 275.487 1549.17 Q273.681 1548.82 271.737 1548.13 M281.042 1533.48 Q284.19 1533.48 286.019 1531.32 Q287.871 1529.17 287.871 1525.42 Q287.871 1521.7 286.019 1519.54 Q284.19 1517.37 281.042 1517.37 Q277.894 1517.37 276.042 1519.54 Q274.214 1521.7 274.214 1525.42 Q274.214 1529.17 276.042 1531.32 Q277.894 1533.48 281.042 1533.48 Z" fill="#000000" fill-rule="nonzero" fill-opacity="1" /><path clip-path="url(#clip620)" d="M301.899 1548.13 L301.899 1543.87 Q303.658 1544.7 305.463 1545.14 Q307.269 1545.58 309.005 1545.58 Q313.635 1545.58 316.065 1542.48 Q318.519 1539.36 318.866 1533.01 Q317.524 1535.01 315.463 1536.07 Q313.403 1537.13 310.903 1537.13 Q305.718 1537.13 302.686 1534.01 Q299.676 1530.86 299.676 1525.42 Q299.676 1520.1 302.825 1516.88 Q305.973 1513.66 311.204 1513.66 Q317.199 1513.66 320.348 1518.27 Q323.519 1522.85 323.519 1531.6 Q323.519 1539.77 319.63 1544.66 Q315.764 1549.52 309.213 1549.52 Q307.454 1549.52 305.649 1549.17 Q303.843 1548.82 301.899 1548.13 M311.204 1533.48 Q314.352 1533.48 316.181 1531.32 Q318.033 1529.17 318.033 1525.42 Q318.033 1521.7 316.181 1519.54 Q314.352 1517.37 311.204 1517.37 Q308.056 1517.37 306.204 1519.54 Q304.375 1521.7 304.375 1525.42 Q304.375 1529.17 306.204 1531.32 Q308.056 1533.48 311.204 1533.48 Z" fill="#000000" fill-rule="nonzero" fill-opacity="1" /><path clip-path="url(#clip620)" d="M342.5 1529.7 Q339.352 1529.7 337.5 1531.86 Q335.672 1534.01 335.672 1537.76 Q335.672 1541.49 337.5 1543.66 Q339.352 1545.82 342.5 1545.82 Q345.648 1545.82 347.477 1543.66 Q349.329 1541.49 349.329 1537.76 Q349.329 1534.01 347.477 1531.86 Q345.648 1529.7 342.5 1529.7 M351.783 1515.05 L351.783 1519.31 Q350.023 1518.48 348.218 1518.04 Q346.435 1517.6 344.676 1517.6 Q340.047 1517.6 337.593 1520.72 Q335.162 1523.85 334.815 1530.17 Q336.181 1528.15 338.241 1527.09 Q340.301 1526 342.778 1526 Q347.986 1526 350.996 1529.17 Q354.028 1532.32 354.028 1537.76 Q354.028 1543.08 350.88 1546.3 Q347.732 1549.52 342.5 1549.52 Q336.505 1549.52 333.334 1544.94 Q330.162 1540.33 330.162 1531.6 Q330.162 1523.41 334.051 1518.55 Q337.94 1513.66 344.491 1513.66 Q346.25 1513.66 348.033 1514.01 Q349.838 1514.36 351.783 1515.05 Z" fill="#000000" fill-rule="nonzero" fill-opacity="1" /><path clip-path="url(#clip620)" d="M754.741 1517.37 Q751.13 1517.37 749.301 1520.93 Q747.496 1524.47 747.496 1531.6 Q747.496 1538.71 749.301 1542.27 Q751.13 1545.82 754.741 1545.82 Q758.375 1545.82 760.181 1542.27 Q762.01 1538.71 762.01 1531.6 Q762.01 1524.47 760.181 1520.93 Q758.375 1517.37 754.741 1517.37 M754.741 1513.66 Q760.551 1513.66 763.607 1518.27 Q766.685 1522.85 766.685 1531.6 Q766.685 1540.33 763.607 1544.94 Q760.551 1549.52 754.741 1549.52 Q748.931 1549.52 745.852 1544.94 Q742.797 1540.33 742.797 1531.6 Q742.797 1522.85 745.852 1518.27 Q748.931 1513.66 754.741 1513.66 Z" fill="#000000" fill-rule="nonzero" fill-opacity="1" /><path clip-path="url(#clip620)" d="M774.903 1542.97 L779.787 1542.97 L779.787 1548.85 L774.903 1548.85 L774.903 1542.97 Z" fill="#000000" fill-rule="nonzero" fill-opacity="1" /><path clip-path="url(#clip620)" d="M790.111 1548.13 L790.111 1543.87 Q791.871 1544.7 793.676 1545.14 Q795.482 1545.58 797.218 1545.58 Q801.847 1545.58 804.278 1542.48 Q806.732 1539.36 807.079 1533.01 Q805.736 1535.01 803.676 1536.07 Q801.616 1537.13 799.116 1537.13 Q793.931 1537.13 790.898 1534.01 Q787.889 1530.86 787.889 1525.42 Q787.889 1520.1 791.037 1516.88 Q794.185 1513.66 799.417 1513.66 Q805.412 1513.66 808.56 1518.27 Q811.732 1522.85 811.732 1531.6 Q811.732 1539.77 807.843 1544.66 Q803.977 1549.52 797.426 1549.52 Q795.667 1549.52 793.861 1549.17 Q792.056 1548.82 790.111 1548.13 M799.417 1533.48 Q802.565 1533.48 804.394 1531.32 Q806.245 1529.17 806.245 1525.42 Q806.245 1521.7 804.394 1519.54 Q802.565 1517.37 799.417 1517.37 Q796.269 1517.37 794.417 1519.54 Q792.588 1521.7 792.588 1525.42 Q792.588 1529.17 794.417 1531.32 Q796.269 1533.48 799.417 1533.48 Z" fill="#000000" fill-rule="nonzero" fill-opacity="1" /><path clip-path="url(#clip620)" d="M820.273 1548.13 L820.273 1543.87 Q822.032 1544.7 823.838 1545.14 Q825.644 1545.58 827.38 1545.58 Q832.009 1545.58 834.44 1542.48 Q836.893 1539.36 837.241 1533.01 Q835.898 1535.01 833.838 1536.07 Q831.778 1537.13 829.278 1537.13 Q824.093 1537.13 821.06 1534.01 Q818.051 1530.86 818.051 1525.42 Q818.051 1520.1 821.199 1516.88 Q824.347 1513.66 829.579 1513.66 Q835.574 1513.66 838.722 1518.27 Q841.893 1522.85 841.893 1531.6 Q841.893 1539.77 838.005 1544.66 Q834.139 1549.52 827.588 1549.52 Q825.829 1549.52 824.023 1549.17 Q822.218 1548.82 820.273 1548.13 M829.579 1533.48 Q832.727 1533.48 834.555 1531.32 Q836.407 1529.17 836.407 1525.42 Q836.407 1521.7 834.555 1519.54 Q832.727 1517.37 829.579 1517.37 Q826.431 1517.37 824.579 1519.54 Q822.75 1521.7 822.75 1525.42 Q822.75 1529.17 824.579 1531.32 Q826.431 1533.48 829.579 1533.48 Z" fill="#000000" fill-rule="nonzero" fill-opacity="1" /><path clip-path="url(#clip620)" d="M860.296 1532.44 Q856.963 1532.44 855.041 1534.22 Q853.143 1536 853.143 1539.13 Q853.143 1542.25 855.041 1544.03 Q856.963 1545.82 860.296 1545.82 Q863.629 1545.82 865.551 1544.03 Q867.472 1542.23 867.472 1539.13 Q867.472 1536 865.551 1534.22 Q863.653 1532.44 860.296 1532.44 M855.62 1530.45 Q852.611 1529.7 850.921 1527.64 Q849.254 1525.58 849.254 1522.62 Q849.254 1518.48 852.194 1516.07 Q855.157 1513.66 860.296 1513.66 Q865.458 1513.66 868.398 1516.07 Q871.338 1518.48 871.338 1522.62 Q871.338 1525.58 869.648 1527.64 Q867.981 1529.7 864.995 1530.45 Q868.375 1531.23 870.25 1533.52 Q872.148 1535.82 872.148 1539.13 Q872.148 1544.15 869.069 1546.83 Q866.014 1549.52 860.296 1549.52 Q854.579 1549.52 851.5 1546.83 Q848.444 1544.15 848.444 1539.13 Q848.444 1535.82 850.342 1533.52 Q852.241 1531.23 855.62 1530.45 M853.907 1523.06 Q853.907 1525.75 855.574 1527.25 Q857.264 1528.76 860.296 1528.76 Q863.305 1528.76 864.995 1527.25 Q866.708 1525.75 866.708 1523.06 Q866.708 1520.38 864.995 1518.87 Q863.305 1517.37 860.296 1517.37 Q857.264 1517.37 855.574 1518.87 Q853.907 1520.38 853.907 1523.06 Z" fill="#000000" fill-rule="nonzero" fill-opacity="1" /><path clip-path="url(#clip620)" d="M1262.71 1544.91 L1270.35 1544.91 L1270.35 1518.55 L1262.04 1520.21 L1262.04 1515.95 L1270.3 1514.29 L1274.98 1514.29 L1274.98 1544.91 L1282.62 1544.91 L1282.62 1548.85 L1262.71 1548.85 L1262.71 1544.91 Z" fill="#000000" fill-rule="nonzero" fill-opacity="1" /><path clip-path="url(#clip620)" d="M1292.06 1542.97 L1296.95 1542.97 L1296.95 1548.85 L1292.06 1548.85 L1292.06 1542.97 Z" fill="#000000" fill-rule="nonzero" fill-opacity="1" /><path clip-path="url(#clip620)" d="M1317.13 1517.37 Q1313.52 1517.37 1311.69 1520.93 Q1309.89 1524.47 1309.89 1531.6 Q1309.89 1538.71 1311.69 1542.27 Q1313.52 1545.82 1317.13 1545.82 Q1320.77 1545.82 1322.57 1542.27 Q1324.4 1538.71 1324.4 1531.6 Q1324.4 1524.47 1322.57 1520.93 Q1320.77 1517.37 1317.13 1517.37 M1317.13 1513.66 Q1322.94 1513.66 1326 1518.27 Q1329.08 1522.85 1329.08 1531.6 Q1329.08 1540.33 1326 1544.94 Q1322.94 1549.52 1317.13 1549.52 Q1311.32 1549.52 1308.24 1544.94 Q1305.19 1540.33 1305.19 1531.6 Q1305.19 1522.85 1308.24 1518.27 Q1311.32 1513.66 1317.13 1513.66 Z" fill="#000000" fill-rule="nonzero" fill-opacity="1" /><path clip-path="url(#clip620)" d="M1347.29 1517.37 Q1343.68 1517.37 1341.85 1520.93 Q1340.05 1524.47 1340.05 1531.6 Q1340.05 1538.71 1341.85 1542.27 Q1343.68 1545.82 1347.29 1545.82 Q1350.93 1545.82 1352.73 1542.27 Q1354.56 1538.71 1354.56 1531.6 Q1354.56 1524.47 1352.73 1520.93 Q1350.93 1517.37 1347.29 1517.37 M1347.29 1513.66 Q1353.1 1513.66 1356.16 1518.27 Q1359.24 1522.85 1359.24 1531.6 Q1359.24 1540.33 1356.16 1544.94 Q1353.1 1549.52 1347.29 1549.52 Q1341.48 1549.52 1338.4 1544.94 Q1335.35 1540.33 1335.35 1531.6 Q1335.35 1522.85 1338.4 1518.27 Q1341.48 1513.66 1347.29 1513.66 Z" fill="#000000" fill-rule="nonzero" fill-opacity="1" /><path clip-path="url(#clip620)" d="M1377.46 1517.37 Q1373.84 1517.37 1372.02 1520.93 Q1370.21 1524.47 1370.21 1531.6 Q1370.21 1538.71 1372.02 1542.27 Q1373.84 1545.82 1377.46 1545.82 Q1381.09 1545.82 1382.9 1542.27 Q1384.72 1538.71 1384.72 1531.6 Q1384.72 1524.47 1382.9 1520.93 Q1381.09 1517.37 1377.46 1517.37 M1377.46 1513.66 Q1383.27 1513.66 1386.32 1518.27 Q1389.4 1522.85 1389.4 1531.6 Q1389.4 1540.33 1386.32 1544.94 Q1383.27 1549.52 1377.46 1549.52 Q1371.65 1549.52 1368.57 1544.94 Q1365.51 1540.33 1365.51 1531.6 Q1365.51 1522.85 1368.57 1518.27 Q1371.65 1513.66 1377.46 1513.66 Z" fill="#000000" fill-rule="nonzero" fill-opacity="1" /><path clip-path="url(#clip620)" d="M1781.76 1544.91 L1789.4 1544.91 L1789.4 1518.55 L1781.09 1520.21 L1781.09 1515.95 L1789.35 1514.29 L1794.02 1514.29 L1794.02 1544.91 L1801.66 1544.91 L1801.66 1548.85 L1781.76 1548.85 L1781.76 1544.91 Z" fill="#000000" fill-rule="nonzero" fill-opacity="1" /><path clip-path="url(#clip620)" d="M1811.11 1542.97 L1815.99 1542.97 L1815.99 1548.85 L1811.11 1548.85 L1811.11 1542.97 Z" fill="#000000" fill-rule="nonzero" fill-opacity="1" /><path clip-path="url(#clip620)" d="M1836.18 1517.37 Q1832.57 1517.37 1830.74 1520.93 Q1828.93 1524.47 1828.93 1531.6 Q1828.93 1538.71 1830.74 1542.27 Q1832.57 1545.82 1836.18 1545.82 Q1839.81 1545.82 1841.62 1542.27 Q1843.45 1538.71 1843.45 1531.6 Q1843.45 1524.47 1841.62 1520.93 Q1839.81 1517.37 1836.18 1517.37 M1836.18 1513.66 Q1841.99 1513.66 1845.04 1518.27 Q1848.12 1522.85 1848.12 1531.6 Q1848.12 1540.33 1845.04 1544.94 Q1841.99 1549.52 1836.18 1549.52 Q1830.37 1549.52 1827.29 1544.94 Q1824.23 1540.33 1824.23 1531.6 Q1824.23 1522.85 1827.29 1518.27 Q1830.37 1513.66 1836.18 1513.66 Z" fill="#000000" fill-rule="nonzero" fill-opacity="1" /><path clip-path="url(#clip620)" d="M1866.34 1517.37 Q1862.73 1517.37 1860.9 1520.93 Q1859.09 1524.47 1859.09 1531.6 Q1859.09 1538.71 1860.9 1542.27 Q1862.73 1545.82 1866.34 1545.82 Q1869.97 1545.82 1871.78 1542.27 Q1873.61 1538.71 1873.61 1531.6 Q1873.61 1524.47 1871.78 1520.93 Q1869.97 1517.37 1866.34 1517.37 M1866.34 1513.66 Q1872.15 1513.66 1875.2 1518.27 Q1878.28 1522.85 1878.28 1531.6 Q1878.28 1540.33 1875.2 1544.94 Q1872.15 1549.52 1866.34 1549.52 Q1860.53 1549.52 1857.45 1544.94 Q1854.39 1540.33 1854.39 1531.6 Q1854.39 1522.85 1857.45 1518.27 Q1860.53 1513.66 1866.34 1513.66 Z" fill="#000000" fill-rule="nonzero" fill-opacity="1" /><path clip-path="url(#clip620)" d="M1890.53 1544.91 L1906.85 1544.91 L1906.85 1548.85 L1884.9 1548.85 L1884.9 1544.91 Q1887.57 1542.16 1892.15 1537.53 Q1896.76 1532.88 1897.94 1531.53 Q1900.18 1529.01 1901.06 1527.27 Q1901.96 1525.51 1901.96 1523.82 Q1901.96 1521.07 1900.02 1519.33 Q1898.1 1517.6 1895 1517.6 Q1892.8 1517.6 1890.34 1518.36 Q1887.91 1519.13 1885.14 1520.68 L1885.14 1515.95 Q1887.96 1514.82 1890.41 1514.24 Q1892.87 1513.66 1894.9 1513.66 Q1900.27 1513.66 1903.47 1516.35 Q1906.66 1519.03 1906.66 1523.52 Q1906.66 1525.65 1905.85 1527.57 Q1905.07 1529.47 1902.96 1532.07 Q1902.38 1532.74 1899.28 1535.95 Q1896.18 1539.15 1890.53 1544.91 Z" fill="#000000" fill-rule="nonzero" fill-opacity="1" /><polyline clip-path="url(#clip620)" style="stroke:#000000; stroke-linecap:round; stroke-linejoin:round; stroke-width:4; stroke-opacity:1; fill:none" points="169.121,1486.45 169.121,47.2441 "/>
<polyline clip-path="url(#clip620)" style="stroke:#000000; stroke-linecap:round; stroke-linejoin:round; stroke-width:4; stroke-opacity:1; fill:none" points="169.121,1486.45 188.019,1486.45 "/>
<polyline clip-path="url(#clip620)" style="stroke:#000000; stroke-linecap:round; stroke-linejoin:round; stroke-width:4; stroke-opacity:1; fill:none" points="169.121,1107.71 188.019,1107.71 "/>
<polyline clip-path="url(#clip620)" style="stroke:#000000; stroke-linecap:round; stroke-linejoin:round; stroke-width:4; stroke-opacity:1; fill:none" points="169.121,728.972 188.019,728.972 "/>
<polyline clip-path="url(#clip620)" style="stroke:#000000; stroke-linecap:round; stroke-linejoin:round; stroke-width:4; stroke-opacity:1; fill:none" points="169.121,350.234 188.019,350.234 "/>
<path clip-path="url(#clip620)" d="M121.177 1472.25 Q117.566 1472.25 115.737 1475.81 Q113.932 1479.35 113.932 1486.48 Q113.932 1493.59 115.737 1497.15 Q117.566 1500.7 121.177 1500.7 Q124.811 1500.7 126.617 1497.15 Q128.445 1493.59 128.445 1486.48 Q128.445 1479.35 126.617 1475.81 Q124.811 1472.25 121.177 1472.25 M121.177 1468.54 Q126.987 1468.54 130.043 1473.15 Q133.121 1477.73 133.121 1486.48 Q133.121 1495.21 130.043 1499.82 Q126.987 1504.4 121.177 1504.4 Q115.367 1504.4 112.288 1499.82 Q109.233 1495.21 109.233 1486.48 Q109.233 1477.73 112.288 1473.15 Q115.367 1468.54 121.177 1468.54 Z" fill="#000000" fill-rule="nonzero" fill-opacity="1" /><path clip-path="url(#clip620)" d="M81.0614 1090.43 L99.4178 1090.43 L99.4178 1094.37 L85.3438 1094.37 L85.3438 1102.84 Q86.3623 1102.49 87.3808 1102.33 Q88.3993 1102.14 89.4178 1102.14 Q95.2049 1102.14 98.5845 1105.31 Q101.964 1108.49 101.964 1113.9 Q101.964 1119.48 98.4919 1122.58 Q95.0197 1125.66 88.7003 1125.66 Q86.5243 1125.66 84.2558 1125.29 Q82.0105 1124.92 79.6031 1124.18 L79.6031 1119.48 Q81.6864 1120.62 83.9086 1121.17 Q86.1308 1121.73 88.6077 1121.73 Q92.6123 1121.73 94.9502 1119.62 Q97.2882 1117.51 97.2882 1113.9 Q97.2882 1110.29 94.9502 1108.18 Q92.6123 1106.08 88.6077 1106.08 Q86.7327 1106.08 84.8577 1106.49 Q83.0058 1106.91 81.0614 1107.79 L81.0614 1090.43 Z" fill="#000000" fill-rule="nonzero" fill-opacity="1" /><path clip-path="url(#clip620)" d="M121.177 1093.51 Q117.566 1093.51 115.737 1097.07 Q113.932 1100.62 113.932 1107.74 Q113.932 1114.85 115.737 1118.42 Q117.566 1121.96 121.177 1121.96 Q124.811 1121.96 126.617 1118.42 Q128.445 1114.85 128.445 1107.74 Q128.445 1100.62 126.617 1097.07 Q124.811 1093.51 121.177 1093.51 M121.177 1089.81 Q126.987 1089.81 130.043 1094.41 Q133.121 1098.99 133.121 1107.74 Q133.121 1116.47 130.043 1121.08 Q126.987 1125.66 121.177 1125.66 Q115.367 1125.66 112.288 1121.08 Q109.233 1116.47 109.233 1107.74 Q109.233 1098.99 112.288 1094.41 Q115.367 1089.81 121.177 1089.81 Z" fill="#000000" fill-rule="nonzero" fill-opacity="1" /><path clip-path="url(#clip620)" d="M51.6634 742.317 L59.3023 742.317 L59.3023 715.951 L50.9921 717.618 L50.9921 713.359 L59.256 711.692 L63.9319 711.692 L63.9319 742.317 L71.5707 742.317 L71.5707 746.252 L51.6634 746.252 L51.6634 742.317 Z" fill="#000000" fill-rule="nonzero" fill-opacity="1" /><path clip-path="url(#clip620)" d="M91.0151 714.771 Q87.404 714.771 85.5753 718.336 Q83.7697 721.877 83.7697 729.007 Q83.7697 736.113 85.5753 739.678 Q87.404 743.22 91.0151 743.22 Q94.6493 743.22 96.4548 739.678 Q98.2835 736.113 98.2835 729.007 Q98.2835 721.877 96.4548 718.336 Q94.6493 714.771 91.0151 714.771 M91.0151 711.067 Q96.8252 711.067 99.8808 715.674 Q102.959 720.257 102.959 729.007 Q102.959 737.734 99.8808 742.34 Q96.8252 746.923 91.0151 746.923 Q85.2049 746.923 82.1262 742.34 Q79.0707 737.734 79.0707 729.007 Q79.0707 720.257 82.1262 715.674 Q85.2049 711.067 91.0151 711.067 Z" fill="#000000" fill-rule="nonzero" fill-opacity="1" /><path clip-path="url(#clip620)" d="M121.177 714.771 Q117.566 714.771 115.737 718.336 Q113.932 721.877 113.932 729.007 Q113.932 736.113 115.737 739.678 Q117.566 743.22 121.177 743.22 Q124.811 743.22 126.617 739.678 Q128.445 736.113 128.445 729.007 Q128.445 721.877 126.617 718.336 Q124.811 714.771 121.177 714.771 M121.177 711.067 Q126.987 711.067 130.043 715.674 Q133.121 720.257 133.121 729.007 Q133.121 737.734 130.043 742.34 Q126.987 746.923 121.177 746.923 Q115.367 746.923 112.288 742.34 Q109.233 737.734 109.233 729.007 Q109.233 720.257 112.288 715.674 Q115.367 711.067 121.177 711.067 Z" fill="#000000" fill-rule="nonzero" fill-opacity="1" /><path clip-path="url(#clip620)" d="M51.6634 363.579 L59.3023 363.579 L59.3023 337.214 L50.9921 338.88 L50.9921 334.621 L59.256 332.954 L63.9319 332.954 L63.9319 363.579 L71.5707 363.579 L71.5707 367.514 L51.6634 367.514 L51.6634 363.579 Z" fill="#000000" fill-rule="nonzero" fill-opacity="1" /><path clip-path="url(#clip620)" d="M81.0614 332.954 L99.4178 332.954 L99.4178 336.89 L85.3438 336.89 L85.3438 345.362 Q86.3623 345.014 87.3808 344.852 Q88.3993 344.667 89.4178 344.667 Q95.2049 344.667 98.5845 347.839 Q101.964 351.01 101.964 356.426 Q101.964 362.005 98.4919 365.107 Q95.0197 368.186 88.7003 368.186 Q86.5243 368.186 84.2558 367.815 Q82.0105 367.445 79.6031 366.704 L79.6031 362.005 Q81.6864 363.139 83.9086 363.695 Q86.1308 364.25 88.6077 364.25 Q92.6123 364.25 94.9502 362.144 Q97.2882 360.038 97.2882 356.426 Q97.2882 352.815 94.9502 350.709 Q92.6123 348.602 88.6077 348.602 Q86.7327 348.602 84.8577 349.019 Q83.0058 349.436 81.0614 350.315 L81.0614 332.954 Z" fill="#000000" fill-rule="nonzero" fill-opacity="1" /><path clip-path="url(#clip620)" d="M121.177 336.033 Q117.566 336.033 115.737 339.598 Q113.932 343.139 113.932 350.269 Q113.932 357.376 115.737 360.94 Q117.566 364.482 121.177 364.482 Q124.811 364.482 126.617 360.94 Q128.445 357.376 128.445 350.269 Q128.445 343.139 126.617 339.598 Q124.811 336.033 121.177 336.033 M121.177 332.329 Q126.987 332.329 130.043 336.936 Q133.121 341.519 133.121 350.269 Q133.121 358.996 130.043 363.602 Q126.987 368.186 121.177 368.186 Q115.367 368.186 112.288 363.602 Q109.233 358.996 109.233 350.269 Q109.233 341.519 112.288 336.936 Q115.367 332.329 121.177 332.329 Z" fill="#000000" fill-rule="nonzero" fill-opacity="1" /><path clip-path="url(#clip622)" d="M289.225 1471.3 L289.225 1486.45 L418.787 1486.45 L418.787 1471.3 L289.225 1471.3 L289.225 1471.3  Z" fill="#009af9" fill-rule="evenodd" fill-opacity="1"/>
<polyline clip-path="url(#clip622)" style="stroke:#000000; stroke-linecap:round; stroke-linejoin:round; stroke-width:4; stroke-opacity:1; fill:none" points="289.225,1471.3 289.225,1486.45 418.787,1486.45 418.787,1471.3 289.225,1471.3 "/>
<path clip-path="url(#clip622)" d="M418.787 1456.15 L418.787 1486.45 L548.349 1486.45 L548.349 1456.15 L418.787 1456.15 L418.787 1456.15  Z" fill="#009af9" fill-rule="evenodd" fill-opacity="1"/>
<polyline clip-path="url(#clip622)" style="stroke:#000000; stroke-linecap:round; stroke-linejoin:round; stroke-width:4; stroke-opacity:1; fill:none" points="418.787,1456.15 418.787,1486.45 548.349,1486.45 548.349,1456.15 418.787,1456.15 "/>
<path clip-path="url(#clip622)" d="M548.349 1433.42 L548.349 1486.45 L677.911 1486.45 L677.911 1433.42 L548.349 1433.42 L548.349 1433.42  Z" fill="#009af9" fill-rule="evenodd" fill-opacity="1"/>
<polyline clip-path="url(#clip622)" style="stroke:#000000; stroke-linecap:round; stroke-linejoin:round; stroke-width:4; stroke-opacity:1; fill:none" points="548.349,1433.42 548.349,1486.45 677.911,1486.45 677.911,1433.42 548.349,1433.42 "/>
<path clip-path="url(#clip622)" d="M677.911 1380.4 L677.911 1486.45 L807.472 1486.45 L807.472 1380.4 L677.911 1380.4 L677.911 1380.4  Z" fill="#009af9" fill-rule="evenodd" fill-opacity="1"/>
<polyline clip-path="url(#clip622)" style="stroke:#000000; stroke-linecap:round; stroke-linejoin:round; stroke-width:4; stroke-opacity:1; fill:none" points="677.911,1380.4 677.911,1486.45 807.472,1486.45 807.472,1380.4 677.911,1380.4 "/>
<path clip-path="url(#clip622)" d="M807.472 1054.69 L807.472 1486.45 L937.034 1486.45 L937.034 1054.69 L807.472 1054.69 L807.472 1054.69  Z" fill="#009af9" fill-rule="evenodd" fill-opacity="1"/>
<polyline clip-path="url(#clip622)" style="stroke:#000000; stroke-linecap:round; stroke-linejoin:round; stroke-width:4; stroke-opacity:1; fill:none" points="807.472,1054.69 807.472,1486.45 937.034,1486.45 937.034,1054.69 807.472,1054.69 "/>
<path clip-path="url(#clip622)" d="M937.034 706.248 L937.034 1486.45 L1066.6 1486.45 L1066.6 706.248 L937.034 706.248 L937.034 706.248  Z" fill="#009af9" fill-rule="evenodd" fill-opacity="1"/>
<polyline clip-path="url(#clip622)" style="stroke:#000000; stroke-linecap:round; stroke-linejoin:round; stroke-width:4; stroke-opacity:1; fill:none" points="937.034,706.248 937.034,1486.45 1066.6,1486.45 1066.6,706.248 937.034,706.248 "/>
<path clip-path="url(#clip622)" d="M1066.6 388.108 L1066.6 1486.45 L1196.16 1486.45 L1196.16 388.108 L1066.6 388.108 L1066.6 388.108  Z" fill="#009af9" fill-rule="evenodd" fill-opacity="1"/>
<polyline clip-path="url(#clip622)" style="stroke:#000000; stroke-linecap:round; stroke-linejoin:round; stroke-width:4; stroke-opacity:1; fill:none" points="1066.6,388.108 1066.6,1486.45 1196.16,1486.45 1196.16,388.108 1066.6,388.108 "/>
<path clip-path="url(#clip622)" d="M1196.16 47.2441 L1196.16 1486.45 L1325.72 1486.45 L1325.72 47.2441 L1196.16 47.2441 L1196.16 47.2441  Z" fill="#009af9" fill-rule="evenodd" fill-opacity="1"/>
<polyline clip-path="url(#clip622)" style="stroke:#000000; stroke-linecap:round; stroke-linejoin:round; stroke-width:4; stroke-opacity:1; fill:none" points="1196.16,47.2441 1196.16,1486.45 1325.72,1486.45 1325.72,47.2441 1196.16,47.2441 "/>
<path clip-path="url(#clip622)" d="M1325.72 259.337 L1325.72 1486.45 L1455.28 1486.45 L1455.28 259.337 L1325.72 259.337 L1325.72 259.337  Z" fill="#009af9" fill-rule="evenodd" fill-opacity="1"/>
<polyline clip-path="url(#clip622)" style="stroke:#000000; stroke-linecap:round; stroke-linejoin:round; stroke-width:4; stroke-opacity:1; fill:none" points="1325.72,259.337 1325.72,1486.45 1455.28,1486.45 1455.28,259.337 1325.72,259.337 "/>
<path clip-path="url(#clip622)" d="M1455.28 274.487 L1455.28 1486.45 L1584.84 1486.45 L1584.84 274.487 L1455.28 274.487 L1455.28 274.487  Z" fill="#009af9" fill-rule="evenodd" fill-opacity="1"/>
<polyline clip-path="url(#clip622)" style="stroke:#000000; stroke-linecap:round; stroke-linejoin:round; stroke-width:4; stroke-opacity:1; fill:none" points="1455.28,274.487 1455.28,1486.45 1584.84,1486.45 1584.84,274.487 1455.28,274.487 "/>
<path clip-path="url(#clip622)" d="M1584.84 804.72 L1584.84 1486.45 L1714.4 1486.45 L1714.4 804.72 L1584.84 804.72 L1584.84 804.72  Z" fill="#009af9" fill-rule="evenodd" fill-opacity="1"/>
<polyline clip-path="url(#clip622)" style="stroke:#000000; stroke-linecap:round; stroke-linejoin:round; stroke-width:4; stroke-opacity:1; fill:none" points="1584.84,804.72 1584.84,1486.45 1714.4,1486.45 1714.4,804.72 1584.84,804.72 "/>
<path clip-path="url(#clip622)" d="M1714.4 1175.88 L1714.4 1486.45 L1843.97 1486.45 L1843.97 1175.88 L1714.4 1175.88 L1714.4 1175.88  Z" fill="#009af9" fill-rule="evenodd" fill-opacity="1"/>
<polyline clip-path="url(#clip622)" style="stroke:#000000; stroke-linecap:round; stroke-linejoin:round; stroke-width:4; stroke-opacity:1; fill:none" points="1714.4,1175.88 1714.4,1486.45 1843.97,1486.45 1843.97,1175.88 1714.4,1175.88 "/>
<path clip-path="url(#clip622)" d="M1843.97 1334.95 L1843.97 1486.45 L1973.53 1486.45 L1973.53 1334.95 L1843.97 1334.95 L1843.97 1334.95  Z" fill="#009af9" fill-rule="evenodd" fill-opacity="1"/>
<polyline clip-path="url(#clip622)" style="stroke:#000000; stroke-linecap:round; stroke-linejoin:round; stroke-width:4; stroke-opacity:1; fill:none" points="1843.97,1334.95 1843.97,1486.45 1973.53,1486.45 1973.53,1334.95 1843.97,1334.95 "/>
<path clip-path="url(#clip622)" d="M1973.53 1463.72 L1973.53 1486.45 L2103.09 1486.45 L2103.09 1463.72 L1973.53 1463.72 L1973.53 1463.72  Z" fill="#009af9" fill-rule="evenodd" fill-opacity="1"/>
<polyline clip-path="url(#clip622)" style="stroke:#000000; stroke-linecap:round; stroke-linejoin:round; stroke-width:4; stroke-opacity:1; fill:none" points="1973.53,1463.72 1973.53,1486.45 2103.09,1486.45 2103.09,1463.72 1973.53,1463.72 "/>
<path clip-path="url(#clip622)" d="M2103.09 1471.3 L2103.09 1486.45 L2232.65 1486.45 L2232.65 1471.3 L2103.09 1471.3 L2103.09 1471.3  Z" fill="#009af9" fill-rule="evenodd" fill-opacity="1"/>
<polyline clip-path="url(#clip622)" style="stroke:#000000; stroke-linecap:round; stroke-linejoin:round; stroke-width:4; stroke-opacity:1; fill:none" points="2103.09,1471.3 2103.09,1486.45 2232.65,1486.45 2232.65,1471.3 2103.09,1471.3 "/>
<circle clip-path="url(#clip622)" style="fill:#009af9; stroke:none; fill-opacity:0" cx="354.006" cy="1471.3" r="2"/>
<circle clip-path="url(#clip622)" style="fill:#009af9; stroke:none; fill-opacity:0" cx="483.568" cy="1456.15" r="2"/>
<circle clip-path="url(#clip622)" style="fill:#009af9; stroke:none; fill-opacity:0" cx="613.13" cy="1433.42" r="2"/>
<circle clip-path="url(#clip622)" style="fill:#009af9; stroke:none; fill-opacity:0" cx="742.691" cy="1380.4" r="2"/>
<circle clip-path="url(#clip622)" style="fill:#009af9; stroke:none; fill-opacity:0" cx="872.253" cy="1054.69" r="2"/>
<circle clip-path="url(#clip622)" style="fill:#009af9; stroke:none; fill-opacity:0" cx="1001.82" cy="706.248" r="2"/>
<circle clip-path="url(#clip622)" style="fill:#009af9; stroke:none; fill-opacity:0" cx="1131.38" cy="388.108" r="2"/>
<circle clip-path="url(#clip622)" style="fill:#009af9; stroke:none; fill-opacity:0" cx="1260.94" cy="47.2441" r="2"/>
<circle clip-path="url(#clip622)" style="fill:#009af9; stroke:none; fill-opacity:0" cx="1390.5" cy="259.337" r="2"/>
<circle clip-path="url(#clip622)" style="fill:#009af9; stroke:none; fill-opacity:0" cx="1520.06" cy="274.487" r="2"/>
<circle clip-path="url(#clip622)" style="fill:#009af9; stroke:none; fill-opacity:0" cx="1649.62" cy="804.72" r="2"/>
<circle clip-path="url(#clip622)" style="fill:#009af9; stroke:none; fill-opacity:0" cx="1779.19" cy="1175.88" r="2"/>
<circle clip-path="url(#clip622)" style="fill:#009af9; stroke:none; fill-opacity:0" cx="1908.75" cy="1334.95" r="2"/>
<circle clip-path="url(#clip622)" style="fill:#009af9; stroke:none; fill-opacity:0" cx="2038.31" cy="1463.72" r="2"/>
<circle clip-path="url(#clip622)" style="fill:#009af9; stroke:none; fill-opacity:0" cx="2167.87" cy="1471.3" r="2"/>
</svg>
