<?xml version="1.0" encoding="utf-8"?>
<svg xmlns="http://www.w3.org/2000/svg" xmlns:xlink="http://www.w3.org/1999/xlink" width="600" height="400" viewBox="0 0 2400 1600">
<defs>
  <clipPath id="clip670">
    <rect x="0" y="0" width="2400" height="1600"/>
  </clipPath>
</defs>
<path clip-path="url(#clip670)" d="M0 1600 L2400 1600 L2400 0 L0 0  Z" fill="#ffffff" fill-rule="evenodd" fill-opacity="1"/>
<defs>
  <clipPath id="clip671">
    <rect x="480" y="0" width="1681" height="1600"/>
  </clipPath>
</defs>
<path clip-path="url(#clip670)" d="M172.015 1486.45 L2352.76 1486.45 L2352.76 47.2441 L172.015 47.2441  Z" fill="#ffffff" fill-rule="evenodd" fill-opacity="1"/>
<defs>
  <clipPath id="clip672">
    <rect x="172" y="47" width="2182" height="1440"/>
  </clipPath>
</defs>
<polyline clip-path="url(#clip672)" style="stroke:#000000; stroke-linecap:round; stroke-linejoin:round; stroke-width:2; stroke-opacity:0.1; fill:none" points="177.792,1486.45 177.792,47.2441 "/>
<polyline clip-path="url(#clip672)" style="stroke:#000000; stroke-linecap:round; stroke-linejoin:round; stroke-width:2; stroke-opacity:0.1; fill:none" points="653.491,1486.45 653.491,47.2441 "/>
<polyline clip-path="url(#clip672)" style="stroke:#000000; stroke-linecap:round; stroke-linejoin:round; stroke-width:2; stroke-opacity:0.1; fill:none" points="1129.19,1486.45 1129.19,47.2441 "/>
<polyline clip-path="url(#clip672)" style="stroke:#000000; stroke-linecap:round; stroke-linejoin:round; stroke-width:2; stroke-opacity:0.1; fill:none" points="1604.89,1486.45 1604.89,47.2441 "/>
<polyline clip-path="url(#clip672)" style="stroke:#000000; stroke-linecap:round; stroke-linejoin:round; stroke-width:2; stroke-opacity:0.1; fill:none" points="2080.59,1486.45 2080.59,47.2441 "/>
<polyline clip-path="url(#clip672)" style="stroke:#000000; stroke-linecap:round; stroke-linejoin:round; stroke-width:2; stroke-opacity:0.1; fill:none" points="172.015,1486.45 2352.76,1486.45 "/>
<polyline clip-path="url(#clip672)" style="stroke:#000000; stroke-linecap:round; stroke-linejoin:round; stroke-width:2; stroke-opacity:0.1; fill:none" points="172.015,1115.04 2352.76,1115.04 "/>
<polyline clip-path="url(#clip672)" style="stroke:#000000; stroke-linecap:round; stroke-linejoin:round; stroke-width:2; stroke-opacity:0.1; fill:none" points="172.015,743.633 2352.76,743.633 "/>
<polyline clip-path="url(#clip672)" style="stroke:#000000; stroke-linecap:round; stroke-linejoin:round; stroke-width:2; stroke-opacity:0.1; fill:none" points="172.015,372.226 2352.76,372.226 "/>
<polyline clip-path="url(#clip670)" style="stroke:#000000; stroke-linecap:round; stroke-linejoin:round; stroke-width:4; stroke-opacity:1; fill:none" points="172.015,1486.45 2352.76,1486.45 "/>
<polyline clip-path="url(#clip670)" style="stroke:#000000; stroke-linecap:round; stroke-linejoin:round; stroke-width:4; stroke-opacity:1; fill:none" points="177.792,1486.45 177.792,1467.55 "/>
<polyline clip-path="url(#clip670)" style="stroke:#000000; stroke-linecap:round; stroke-linejoin:round; stroke-width:4; stroke-opacity:1; fill:none" points="653.491,1486.45 653.491,1467.55 "/>
<polyline clip-path="url(#clip670)" style="stroke:#000000; stroke-linecap:round; stroke-linejoin:round; stroke-width:4; stroke-opacity:1; fill:none" points="1129.19,1486.45 1129.19,1467.55 "/>
<polyline clip-path="url(#clip670)" style="stroke:#000000; stroke-linecap:round; stroke-linejoin:round; stroke-width:4; stroke-opacity:1; fill:none" points="1604.89,1486.45 1604.89,1467.55 "/>
<polyline clip-path="url(#clip670)" style="stroke:#000000; stroke-linecap:round; stroke-linejoin:round; stroke-width:4; stroke-opacity:1; fill:none" points="2080.59,1486.45 2080.59,1467.55 "/>
<path clip-path="url(#clip670)" d="M140.095 1517.37 Q136.484 1517.37 134.655 1520.93 Q132.85 1524.47 132.85 1531.6 Q132.85 1538.71 134.655 1542.27 Q136.484 1545.82 140.095 1545.82 Q143.729 1545.82 145.535 1542.27 Q147.364 1538.71 147.364 1531.6 Q147.364 1524.47 145.535 1520.93 Q143.729 1517.37 140.095 1517.37 M140.095 1513.66 Q145.905 1513.66 148.961 1518.27 Q152.04 1522.85 152.04 1531.6 Q152.04 1540.33 148.961 1544.94 Q145.905 1549.52 140.095 1549.52 Q134.285 1549.52 131.206 1544.94 Q128.151 1540.33 128.151 1531.6 Q128.151 1522.85 131.206 1518.27 Q134.285 1513.66 140.095 1513.66 Z" fill="#000000" fill-rule="nonzero" fill-opacity="1" /><path clip-path="url(#clip670)" d="M160.257 1542.97 L165.141 1542.97 L165.141 1548.85 L160.257 1548.85 L160.257 1542.97 Z" fill="#000000" fill-rule="nonzero" fill-opacity="1" /><path clip-path="url(#clip670)" d="M175.373 1514.29 L193.729 1514.29 L193.729 1518.22 L179.655 1518.22 L179.655 1526.7 Q180.674 1526.35 181.692 1526.19 Q182.711 1526 183.729 1526 Q189.516 1526 192.896 1529.17 Q196.275 1532.34 196.275 1537.76 Q196.275 1543.34 192.803 1546.44 Q189.331 1549.52 183.012 1549.52 Q180.836 1549.52 178.567 1549.15 Q176.322 1548.78 173.914 1548.04 L173.914 1543.34 Q175.998 1544.47 178.22 1545.03 Q180.442 1545.58 182.919 1545.58 Q186.924 1545.58 189.262 1543.48 Q191.6 1541.37 191.6 1537.76 Q191.6 1534.15 189.262 1532.04 Q186.924 1529.94 182.919 1529.94 Q181.044 1529.94 179.169 1530.35 Q177.317 1530.77 175.373 1531.65 L175.373 1514.29 Z" fill="#000000" fill-rule="nonzero" fill-opacity="1" /><path clip-path="url(#clip670)" d="M215.488 1517.37 Q211.877 1517.37 210.048 1520.93 Q208.243 1524.47 208.243 1531.6 Q208.243 1538.71 210.048 1542.27 Q211.877 1545.82 215.488 1545.82 Q219.123 1545.82 220.928 1542.27 Q222.757 1538.71 222.757 1531.6 Q222.757 1524.47 220.928 1520.93 Q219.123 1517.37 215.488 1517.37 M215.488 1513.66 Q221.298 1513.66 224.354 1518.27 Q227.433 1522.85 227.433 1531.6 Q227.433 1540.33 224.354 1544.94 Q221.298 1549.52 215.488 1549.52 Q209.678 1549.52 206.599 1544.94 Q203.544 1540.33 203.544 1531.6 Q203.544 1522.85 206.599 1518.27 Q209.678 1513.66 215.488 1513.66 Z" fill="#000000" fill-rule="nonzero" fill-opacity="1" /><path clip-path="url(#clip670)" d="M616.292 1517.37 Q612.681 1517.37 610.852 1520.93 Q609.046 1524.47 609.046 1531.6 Q609.046 1538.71 610.852 1542.27 Q612.681 1545.82 616.292 1545.82 Q619.926 1545.82 621.732 1542.27 Q623.56 1538.71 623.56 1531.6 Q623.56 1524.47 621.732 1520.93 Q619.926 1517.37 616.292 1517.37 M616.292 1513.66 Q622.102 1513.66 625.157 1518.27 Q628.236 1522.85 628.236 1531.6 Q628.236 1540.33 625.157 1544.94 Q622.102 1549.52 616.292 1549.52 Q610.482 1549.52 607.403 1544.94 Q604.347 1540.33 604.347 1531.6 Q604.347 1522.85 607.403 1518.27 Q610.482 1513.66 616.292 1513.66 Z" fill="#000000" fill-rule="nonzero" fill-opacity="1" /><path clip-path="url(#clip670)" d="M636.454 1542.97 L641.338 1542.97 L641.338 1548.85 L636.454 1548.85 L636.454 1542.97 Z" fill="#000000" fill-rule="nonzero" fill-opacity="1" /><path clip-path="url(#clip670)" d="M650.343 1514.29 L672.565 1514.29 L672.565 1516.28 L660.018 1548.85 L655.134 1548.85 L666.94 1518.22 L650.343 1518.22 L650.343 1514.29 Z" fill="#000000" fill-rule="nonzero" fill-opacity="1" /><path clip-path="url(#clip670)" d="M681.731 1514.29 L700.088 1514.29 L700.088 1518.22 L686.014 1518.22 L686.014 1526.7 Q687.032 1526.35 688.051 1526.19 Q689.069 1526 690.088 1526 Q695.875 1526 699.254 1529.17 Q702.634 1532.34 702.634 1537.76 Q702.634 1543.34 699.162 1546.44 Q695.69 1549.52 689.37 1549.52 Q687.194 1549.52 684.926 1549.15 Q682.68 1548.78 680.273 1548.04 L680.273 1543.34 Q682.356 1544.47 684.578 1545.03 Q686.801 1545.58 689.278 1545.58 Q693.282 1545.58 695.62 1543.48 Q697.958 1541.37 697.958 1537.76 Q697.958 1534.15 695.62 1532.04 Q693.282 1529.94 689.278 1529.94 Q687.403 1529.94 685.528 1530.35 Q683.676 1530.77 681.731 1531.65 L681.731 1514.29 Z" fill="#000000" fill-rule="nonzero" fill-opacity="1" /><path clip-path="url(#clip670)" d="M1081.26 1544.91 L1088.9 1544.91 L1088.9 1518.55 L1080.59 1520.21 L1080.59 1515.95 L1088.85 1514.29 L1093.53 1514.29 L1093.53 1544.91 L1101.17 1544.91 L1101.17 1548.85 L1081.26 1548.85 L1081.26 1544.91 Z" fill="#000000" fill-rule="nonzero" fill-opacity="1" /><path clip-path="url(#clip670)" d="M1110.61 1542.97 L1115.5 1542.97 L1115.5 1548.85 L1110.61 1548.85 L1110.61 1542.97 Z" fill="#000000" fill-rule="nonzero" fill-opacity="1" /><path clip-path="url(#clip670)" d="M1135.68 1517.37 Q1132.07 1517.37 1130.24 1520.93 Q1128.44 1524.47 1128.44 1531.6 Q1128.44 1538.71 1130.24 1542.27 Q1132.07 1545.82 1135.68 1545.82 Q1139.32 1545.82 1141.12 1542.27 Q1142.95 1538.71 1142.95 1531.6 Q1142.95 1524.47 1141.12 1520.93 Q1139.32 1517.37 1135.68 1517.37 M1135.68 1513.66 Q1141.49 1513.66 1144.55 1518.27 Q1147.63 1522.85 1147.63 1531.6 Q1147.63 1540.33 1144.55 1544.94 Q1141.49 1549.52 1135.68 1549.52 Q1129.87 1549.52 1126.79 1544.94 Q1123.74 1540.33 1123.74 1531.6 Q1123.74 1522.85 1126.79 1518.27 Q1129.87 1513.66 1135.68 1513.66 Z" fill="#000000" fill-rule="nonzero" fill-opacity="1" /><path clip-path="url(#clip670)" d="M1165.84 1517.37 Q1162.23 1517.37 1160.4 1520.93 Q1158.6 1524.47 1158.6 1531.6 Q1158.6 1538.71 1160.4 1542.27 Q1162.23 1545.82 1165.84 1545.82 Q1169.48 1545.82 1171.28 1542.27 Q1173.11 1538.71 1173.11 1531.6 Q1173.11 1524.47 1171.28 1520.93 Q1169.48 1517.37 1165.84 1517.37 M1165.84 1513.66 Q1171.65 1513.66 1174.71 1518.27 Q1177.79 1522.85 1177.79 1531.6 Q1177.79 1540.33 1174.71 1544.94 Q1171.65 1549.52 1165.84 1549.52 Q1160.03 1549.52 1156.96 1544.94 Q1153.9 1540.33 1153.9 1531.6 Q1153.9 1522.85 1156.96 1518.27 Q1160.03 1513.66 1165.84 1513.66 Z" fill="#000000" fill-rule="nonzero" fill-opacity="1" /><path clip-path="url(#clip670)" d="M1557.46 1544.91 L1565.1 1544.91 L1565.1 1518.55 L1556.79 1520.21 L1556.79 1515.95 L1565.05 1514.29 L1569.73 1514.29 L1569.73 1544.91 L1577.37 1544.91 L1577.37 1548.85 L1557.46 1548.85 L1557.46 1544.91 Z" fill="#000000" fill-rule="nonzero" fill-opacity="1" /><path clip-path="url(#clip670)" d="M1586.81 1542.97 L1591.69 1542.97 L1591.69 1548.85 L1586.81 1548.85 L1586.81 1542.97 Z" fill="#000000" fill-rule="nonzero" fill-opacity="1" /><path clip-path="url(#clip670)" d="M1605.91 1544.91 L1622.23 1544.91 L1622.23 1548.85 L1600.28 1548.85 L1600.28 1544.91 Q1602.94 1542.16 1607.53 1537.53 Q1612.13 1532.88 1613.31 1531.53 Q1615.56 1529.01 1616.44 1527.27 Q1617.34 1525.51 1617.34 1523.82 Q1617.34 1521.07 1615.4 1519.33 Q1613.48 1517.6 1610.37 1517.6 Q1608.18 1517.6 1605.72 1518.36 Q1603.29 1519.13 1600.51 1520.68 L1600.51 1515.95 Q1603.34 1514.82 1605.79 1514.24 Q1608.25 1513.66 1610.28 1513.66 Q1615.65 1513.66 1618.85 1516.35 Q1622.04 1519.03 1622.04 1523.52 Q1622.04 1525.65 1621.23 1527.57 Q1620.44 1529.47 1618.34 1532.07 Q1617.76 1532.74 1614.66 1535.95 Q1611.56 1539.15 1605.91 1544.91 Z" fill="#000000" fill-rule="nonzero" fill-opacity="1" /><path clip-path="url(#clip670)" d="M1632.09 1514.29 L1650.44 1514.29 L1650.44 1518.22 L1636.37 1518.22 L1636.37 1526.7 Q1637.39 1526.35 1638.41 1526.19 Q1639.43 1526 1640.44 1526 Q1646.23 1526 1649.61 1529.17 Q1652.99 1532.34 1652.99 1537.76 Q1652.99 1543.34 1649.52 1546.44 Q1646.05 1549.52 1639.73 1549.52 Q1637.55 1549.52 1635.28 1549.15 Q1633.04 1548.78 1630.63 1548.04 L1630.63 1543.34 Q1632.71 1544.47 1634.93 1545.03 Q1637.16 1545.58 1639.63 1545.58 Q1643.64 1545.58 1645.98 1543.48 Q1648.31 1541.37 1648.31 1537.76 Q1648.31 1534.15 1645.98 1532.04 Q1643.64 1529.94 1639.63 1529.94 Q1637.76 1529.94 1635.88 1530.35 Q1634.03 1530.77 1632.09 1531.65 L1632.09 1514.29 Z" fill="#000000" fill-rule="nonzero" fill-opacity="1" /><path clip-path="url(#clip670)" d="M2032.66 1544.91 L2040.3 1544.91 L2040.3 1518.55 L2031.99 1520.21 L2031.99 1515.95 L2040.25 1514.29 L2044.93 1514.29 L2044.93 1544.91 L2052.57 1544.91 L2052.57 1548.85 L2032.66 1548.85 L2032.66 1544.91 Z" fill="#000000" fill-rule="nonzero" fill-opacity="1" /><path clip-path="url(#clip670)" d="M2062.01 1542.97 L2066.9 1542.97 L2066.9 1548.85 L2062.01 1548.85 L2062.01 1542.97 Z" fill="#000000" fill-rule="nonzero" fill-opacity="1" /><path clip-path="url(#clip670)" d="M2077.13 1514.29 L2095.48 1514.29 L2095.48 1518.22 L2081.41 1518.22 L2081.41 1526.7 Q2082.43 1526.35 2083.45 1526.19 Q2084.46 1526 2085.48 1526 Q2091.27 1526 2094.65 1529.17 Q2098.03 1532.34 2098.03 1537.76 Q2098.03 1543.34 2094.56 1546.44 Q2091.09 1549.52 2084.77 1549.52 Q2082.59 1549.52 2080.32 1549.15 Q2078.08 1548.78 2075.67 1548.04 L2075.67 1543.34 Q2077.75 1544.47 2079.97 1545.03 Q2082.2 1545.58 2084.67 1545.58 Q2088.68 1545.58 2091.02 1543.48 Q2093.35 1541.37 2093.35 1537.76 Q2093.35 1534.15 2091.02 1532.04 Q2088.68 1529.94 2084.67 1529.94 Q2082.8 1529.94 2080.92 1530.35 Q2079.07 1530.77 2077.13 1531.65 L2077.13 1514.29 Z" fill="#000000" fill-rule="nonzero" fill-opacity="1" /><path clip-path="url(#clip670)" d="M2117.24 1517.37 Q2113.63 1517.37 2111.8 1520.93 Q2110 1524.47 2110 1531.6 Q2110 1538.71 2111.8 1542.27 Q2113.63 1545.82 2117.24 1545.82 Q2120.88 1545.82 2122.68 1542.27 Q2124.51 1538.71 2124.51 1531.6 Q2124.51 1524.47 2122.68 1520.93 Q2120.88 1517.37 2117.24 1517.37 M2117.24 1513.66 Q2123.05 1513.66 2126.11 1518.27 Q2129.19 1522.85 2129.19 1531.6 Q2129.19 1540.33 2126.11 1544.94 Q2123.05 1549.52 2117.24 1549.52 Q2111.43 1549.52 2108.35 1544.94 Q2105.3 1540.33 2105.3 1531.6 Q2105.3 1522.85 2108.35 1518.27 Q2111.43 1513.66 2117.24 1513.66 Z" fill="#000000" fill-rule="nonzero" fill-opacity="1" /><polyline clip-path="url(#clip670)" style="stroke:#000000; stroke-linecap:round; stroke-linejoin:round; stroke-width:4; stroke-opacity:1; fill:none" points="172.015,1486.45 172.015,47.2441 "/>
<polyline clip-path="url(#clip670)" style="stroke:#000000; stroke-linecap:round; stroke-linejoin:round; stroke-width:4; stroke-opacity:1; fill:none" points="172.015,1486.45 190.912,1486.45 "/>
<polyline clip-path="url(#clip670)" style="stroke:#000000; stroke-linecap:round; stroke-linejoin:round; stroke-width:4; stroke-opacity:1; fill:none" points="172.015,1115.04 190.912,1115.04 "/>
<polyline clip-path="url(#clip670)" style="stroke:#000000; stroke-linecap:round; stroke-linejoin:round; stroke-width:4; stroke-opacity:1; fill:none" points="172.015,743.633 190.912,743.633 "/>
<polyline clip-path="url(#clip670)" style="stroke:#000000; stroke-linecap:round; stroke-linejoin:round; stroke-width:4; stroke-opacity:1; fill:none" points="172.015,372.226 190.912,372.226 "/>
<path clip-path="url(#clip670)" d="M124.07 1472.25 Q120.459 1472.25 118.631 1475.81 Q116.825 1479.35 116.825 1486.48 Q116.825 1493.59 118.631 1497.15 Q120.459 1500.7 124.07 1500.7 Q127.705 1500.7 129.51 1497.15 Q131.339 1493.59 131.339 1486.48 Q131.339 1479.35 129.51 1475.81 Q127.705 1472.25 124.07 1472.25 M124.07 1468.54 Q129.881 1468.54 132.936 1473.15 Q136.015 1477.73 136.015 1486.48 Q136.015 1495.21 132.936 1499.82 Q129.881 1504.4 124.07 1504.4 Q118.26 1504.4 115.182 1499.82 Q112.126 1495.21 112.126 1486.48 Q112.126 1477.73 115.182 1473.15 Q118.26 1468.54 124.07 1468.54 Z" fill="#000000" fill-rule="nonzero" fill-opacity="1" /><path clip-path="url(#clip670)" d="M57.7745 1128.39 L74.0939 1128.39 L74.0939 1132.32 L52.1495 1132.32 L52.1495 1128.39 Q54.8115 1125.63 59.3949 1121 Q64.0013 1116.35 65.1819 1115.01 Q67.4272 1112.48 68.3068 1110.75 Q69.2096 1108.99 69.2096 1107.3 Q69.2096 1104.54 67.2652 1102.81 Q65.3439 1101.07 62.2421 1101.07 Q60.043 1101.07 57.5893 1101.83 Q55.1588 1102.6 52.381 1104.15 L52.381 1099.43 Q55.2051 1098.29 57.6588 1097.71 Q60.1124 1097.14 62.1495 1097.14 Q67.5198 1097.14 70.7142 1099.82 Q73.9087 1102.51 73.9087 1107 Q73.9087 1109.13 73.0985 1111.05 Q72.3115 1112.95 70.205 1115.54 Q69.6263 1116.21 66.5245 1119.43 Q63.4226 1122.62 57.7745 1128.39 Z" fill="#000000" fill-rule="nonzero" fill-opacity="1" /><path clip-path="url(#clip670)" d="M93.9086 1100.84 Q90.2975 1100.84 88.4688 1104.4 Q86.6632 1107.95 86.6632 1115.08 Q86.6632 1122.18 88.4688 1125.75 Q90.2975 1129.29 93.9086 1129.29 Q97.5428 1129.29 99.3483 1125.75 Q101.177 1122.18 101.177 1115.08 Q101.177 1107.95 99.3483 1104.4 Q97.5428 1100.84 93.9086 1100.84 M93.9086 1097.14 Q99.7187 1097.14 102.774 1101.74 Q105.853 1106.33 105.853 1115.08 Q105.853 1123.8 102.774 1128.41 Q99.7187 1132.99 93.9086 1132.99 Q88.0984 1132.99 85.0197 1128.41 Q81.9642 1123.8 81.9642 1115.08 Q81.9642 1106.33 85.0197 1101.74 Q88.0984 1097.14 93.9086 1097.14 Z" fill="#000000" fill-rule="nonzero" fill-opacity="1" /><path clip-path="url(#clip670)" d="M124.07 1100.84 Q120.459 1100.84 118.631 1104.4 Q116.825 1107.95 116.825 1115.08 Q116.825 1122.18 118.631 1125.75 Q120.459 1129.29 124.07 1129.29 Q127.705 1129.29 129.51 1125.75 Q131.339 1122.18 131.339 1115.08 Q131.339 1107.95 129.51 1104.4 Q127.705 1100.84 124.07 1100.84 M124.07 1097.14 Q129.881 1097.14 132.936 1101.74 Q136.015 1106.33 136.015 1115.08 Q136.015 1123.8 132.936 1128.41 Q129.881 1132.99 124.07 1132.99 Q118.26 1132.99 115.182 1128.41 Q112.126 1123.8 112.126 1115.08 Q112.126 1106.33 115.182 1101.74 Q118.26 1097.14 124.07 1097.14 Z" fill="#000000" fill-rule="nonzero" fill-opacity="1" /><path clip-path="url(#clip670)" d="M66.5939 730.427 L54.7884 748.876 L66.5939 748.876 L66.5939 730.427 M65.367 726.353 L71.2466 726.353 L71.2466 748.876 L76.1772 748.876 L76.1772 752.765 L71.2466 752.765 L71.2466 760.913 L66.5939 760.913 L66.5939 752.765 L50.9921 752.765 L50.9921 748.251 L65.367 726.353 Z" fill="#000000" fill-rule="nonzero" fill-opacity="1" /><path clip-path="url(#clip670)" d="M93.9086 729.432 Q90.2975 729.432 88.4688 732.997 Q86.6632 736.538 86.6632 743.668 Q86.6632 750.774 88.4688 754.339 Q90.2975 757.881 93.9086 757.881 Q97.5428 757.881 99.3483 754.339 Q101.177 750.774 101.177 743.668 Q101.177 736.538 99.3483 732.997 Q97.5428 729.432 93.9086 729.432 M93.9086 725.728 Q99.7187 725.728 102.774 730.334 Q105.853 734.918 105.853 743.668 Q105.853 752.395 102.774 757.001 Q99.7187 761.584 93.9086 761.584 Q88.0984 761.584 85.0197 757.001 Q81.9642 752.395 81.9642 743.668 Q81.9642 734.918 85.0197 730.334 Q88.0984 725.728 93.9086 725.728 Z" fill="#000000" fill-rule="nonzero" fill-opacity="1" /><path clip-path="url(#clip670)" d="M124.07 729.432 Q120.459 729.432 118.631 732.997 Q116.825 736.538 116.825 743.668 Q116.825 750.774 118.631 754.339 Q120.459 757.881 124.07 757.881 Q127.705 757.881 129.51 754.339 Q131.339 750.774 131.339 743.668 Q131.339 736.538 129.51 732.997 Q127.705 729.432 124.07 729.432 M124.07 725.728 Q129.881 725.728 132.936 730.334 Q136.015 734.918 136.015 743.668 Q136.015 752.395 132.936 757.001 Q129.881 761.584 124.07 761.584 Q118.26 761.584 115.182 757.001 Q112.126 752.395 112.126 743.668 Q112.126 734.918 115.182 730.334 Q118.26 725.728 124.07 725.728 Z" fill="#000000" fill-rule="nonzero" fill-opacity="1" /><path clip-path="url(#clip670)" d="M64.3254 370.362 Q61.1773 370.362 59.3254 372.515 Q57.4967 374.668 57.4967 378.418 Q57.4967 382.145 59.3254 384.32 Q61.1773 386.473 64.3254 386.473 Q67.4735 386.473 69.3022 384.32 Q71.1541 382.145 71.1541 378.418 Q71.1541 374.668 69.3022 372.515 Q67.4735 370.362 64.3254 370.362 M73.6077 355.709 L73.6077 359.969 Q71.8485 359.135 70.0429 358.696 Q68.2606 358.256 66.5013 358.256 Q61.8717 358.256 59.418 361.381 Q56.9875 364.506 56.6402 370.825 Q58.006 368.811 60.0662 367.746 Q62.1263 366.658 64.6032 366.658 Q69.8115 366.658 72.8207 369.83 Q75.8531 372.978 75.8531 378.418 Q75.8531 383.742 72.705 386.959 Q69.5568 390.177 64.3254 390.177 Q58.33 390.177 55.1588 385.594 Q51.9875 380.987 51.9875 372.26 Q51.9875 364.066 55.8764 359.205 Q59.7652 354.321 66.3161 354.321 Q68.0754 354.321 69.8578 354.668 Q71.6633 355.015 73.6077 355.709 Z" fill="#000000" fill-rule="nonzero" fill-opacity="1" /><path clip-path="url(#clip670)" d="M93.9086 358.024 Q90.2975 358.024 88.4688 361.589 Q86.6632 365.131 86.6632 372.26 Q86.6632 379.367 88.4688 382.932 Q90.2975 386.473 93.9086 386.473 Q97.5428 386.473 99.3483 382.932 Q101.177 379.367 101.177 372.26 Q101.177 365.131 99.3483 361.589 Q97.5428 358.024 93.9086 358.024 M93.9086 354.321 Q99.7187 354.321 102.774 358.927 Q105.853 363.51 105.853 372.26 Q105.853 380.987 102.774 385.594 Q99.7187 390.177 93.9086 390.177 Q88.0984 390.177 85.0197 385.594 Q81.9642 380.987 81.9642 372.26 Q81.9642 363.51 85.0197 358.927 Q88.0984 354.321 93.9086 354.321 Z" fill="#000000" fill-rule="nonzero" fill-opacity="1" /><path clip-path="url(#clip670)" d="M124.07 358.024 Q120.459 358.024 118.631 361.589 Q116.825 365.131 116.825 372.26 Q116.825 379.367 118.631 382.932 Q120.459 386.473 124.07 386.473 Q127.705 386.473 129.51 382.932 Q131.339 379.367 131.339 372.26 Q131.339 365.131 129.51 361.589 Q127.705 358.024 124.07 358.024 M124.07 354.321 Q129.881 354.321 132.936 358.927 Q136.015 363.51 136.015 372.26 Q136.015 380.987 132.936 385.594 Q129.881 390.177 124.07 390.177 Q118.26 390.177 115.182 385.594 Q112.126 380.987 112.126 372.26 Q112.126 363.51 115.182 358.927 Q118.26 354.321 124.07 354.321 Z" fill="#000000" fill-rule="nonzero" fill-opacity="1" /><path clip-path="url(#clip672)" d="M615.435 1484.59 L615.435 1486.45 L634.463 1486.45 L634.463 1484.59 L615.435 1484.59 L615.435 1484.59  Z" fill="#009af9" fill-rule="evenodd" fill-opacity="1"/>
<polyline clip-path="url(#clip672)" style="stroke:#000000; stroke-linecap:round; stroke-linejoin:round; stroke-width:4; stroke-opacity:1; fill:none" points="615.435,1484.59 615.435,1486.45 634.463,1486.45 634.463,1484.59 615.435,1484.59 "/>
<path clip-path="url(#clip672)" d="M634.463 1480.88 L634.463 1486.45 L653.491 1486.45 L653.491 1480.88 L634.463 1480.88 L634.463 1480.88  Z" fill="#009af9" fill-rule="evenodd" fill-opacity="1"/>
<polyline clip-path="url(#clip672)" style="stroke:#000000; stroke-linecap:round; stroke-linejoin:round; stroke-width:4; stroke-opacity:1; fill:none" points="634.463,1480.88 634.463,1486.45 653.491,1486.45 653.491,1480.88 634.463,1480.88 "/>
<path clip-path="url(#clip672)" d="M653.491 1482.73 L653.491 1486.45 L672.519 1486.45 L672.519 1482.73 L653.491 1482.73 L653.491 1482.73  Z" fill="#009af9" fill-rule="evenodd" fill-opacity="1"/>
<polyline clip-path="url(#clip672)" style="stroke:#000000; stroke-linecap:round; stroke-linejoin:round; stroke-width:4; stroke-opacity:1; fill:none" points="653.491,1482.73 653.491,1486.45 672.519,1486.45 672.519,1482.73 653.491,1482.73 "/>
<path clip-path="url(#clip672)" d="M672.519 1479.02 L672.519 1486.45 L691.547 1486.45 L691.547 1479.02 L672.519 1479.02 L672.519 1479.02  Z" fill="#009af9" fill-rule="evenodd" fill-opacity="1"/>
<polyline clip-path="url(#clip672)" style="stroke:#000000; stroke-linecap:round; stroke-linejoin:round; stroke-width:4; stroke-opacity:1; fill:none" points="672.519,1479.02 672.519,1486.45 691.547,1486.45 691.547,1479.02 672.519,1479.02 "/>
<path clip-path="url(#clip672)" d="M691.547 1477.16 L691.547 1486.45 L710.575 1486.45 L710.575 1477.16 L691.547 1477.16 L691.547 1477.16  Z" fill="#009af9" fill-rule="evenodd" fill-opacity="1"/>
<polyline clip-path="url(#clip672)" style="stroke:#000000; stroke-linecap:round; stroke-linejoin:round; stroke-width:4; stroke-opacity:1; fill:none" points="691.547,1477.16 691.547,1486.45 710.575,1486.45 710.575,1477.16 691.547,1477.16 "/>
<path clip-path="url(#clip672)" d="M710.575 1458.59 L710.575 1486.45 L729.603 1486.45 L729.603 1458.59 L710.575 1458.59 L710.575 1458.59  Z" fill="#009af9" fill-rule="evenodd" fill-opacity="1"/>
<polyline clip-path="url(#clip672)" style="stroke:#000000; stroke-linecap:round; stroke-linejoin:round; stroke-width:4; stroke-opacity:1; fill:none" points="710.575,1458.59 710.575,1486.45 729.603,1486.45 729.603,1458.59 710.575,1458.59 "/>
<path clip-path="url(#clip672)" d="M729.603 1460.45 L729.603 1486.45 L748.63 1486.45 L748.63 1460.45 L729.603 1460.45 L729.603 1460.45  Z" fill="#009af9" fill-rule="evenodd" fill-opacity="1"/>
<polyline clip-path="url(#clip672)" style="stroke:#000000; stroke-linecap:round; stroke-linejoin:round; stroke-width:4; stroke-opacity:1; fill:none" points="729.603,1460.45 729.603,1486.45 748.63,1486.45 748.63,1460.45 729.603,1460.45 "/>
<path clip-path="url(#clip672)" d="M748.63 1428.88 L748.63 1486.45 L767.658 1486.45 L767.658 1428.88 L748.63 1428.88 L748.63 1428.88  Z" fill="#009af9" fill-rule="evenodd" fill-opacity="1"/>
<polyline clip-path="url(#clip672)" style="stroke:#000000; stroke-linecap:round; stroke-linejoin:round; stroke-width:4; stroke-opacity:1; fill:none" points="748.63,1428.88 748.63,1486.45 767.658,1486.45 767.658,1428.88 748.63,1428.88 "/>
<path clip-path="url(#clip672)" d="M767.658 1417.74 L767.658 1486.45 L786.686 1486.45 L786.686 1417.74 L767.658 1417.74 L767.658 1417.74  Z" fill="#009af9" fill-rule="evenodd" fill-opacity="1"/>
<polyline clip-path="url(#clip672)" style="stroke:#000000; stroke-linecap:round; stroke-linejoin:round; stroke-width:4; stroke-opacity:1; fill:none" points="767.658,1417.74 767.658,1486.45 786.686,1486.45 786.686,1417.74 767.658,1417.74 "/>
<path clip-path="url(#clip672)" d="M786.686 1395.45 L786.686 1486.45 L805.714 1486.45 L805.714 1395.45 L786.686 1395.45 L786.686 1395.45  Z" fill="#009af9" fill-rule="evenodd" fill-opacity="1"/>
<polyline clip-path="url(#clip672)" style="stroke:#000000; stroke-linecap:round; stroke-linejoin:round; stroke-width:4; stroke-opacity:1; fill:none" points="786.686,1395.45 786.686,1486.45 805.714,1486.45 805.714,1395.45 786.686,1395.45 "/>
<path clip-path="url(#clip672)" d="M805.714 1341.6 L805.714 1486.45 L824.742 1486.45 L824.742 1341.6 L805.714 1341.6 L805.714 1341.6  Z" fill="#009af9" fill-rule="evenodd" fill-opacity="1"/>
<polyline clip-path="url(#clip672)" style="stroke:#000000; stroke-linecap:round; stroke-linejoin:round; stroke-width:4; stroke-opacity:1; fill:none" points="805.714,1341.6 805.714,1486.45 824.742,1486.45 824.742,1341.6 805.714,1341.6 "/>
<path clip-path="url(#clip672)" d="M824.742 1356.46 L824.742 1486.45 L843.77 1486.45 L843.77 1356.46 L824.742 1356.46 L824.742 1356.46  Z" fill="#009af9" fill-rule="evenodd" fill-opacity="1"/>
<polyline clip-path="url(#clip672)" style="stroke:#000000; stroke-linecap:round; stroke-linejoin:round; stroke-width:4; stroke-opacity:1; fill:none" points="824.742,1356.46 824.742,1486.45 843.77,1486.45 843.77,1356.46 824.742,1356.46 "/>
<path clip-path="url(#clip672)" d="M843.77 1308.17 L843.77 1486.45 L862.798 1486.45 L862.798 1308.17 L843.77 1308.17 L843.77 1308.17  Z" fill="#009af9" fill-rule="evenodd" fill-opacity="1"/>
<polyline clip-path="url(#clip672)" style="stroke:#000000; stroke-linecap:round; stroke-linejoin:round; stroke-width:4; stroke-opacity:1; fill:none" points="843.77,1308.17 843.77,1486.45 862.798,1486.45 862.798,1308.17 843.77,1308.17 "/>
<path clip-path="url(#clip672)" d="M862.798 1265.46 L862.798 1486.45 L881.826 1486.45 L881.826 1265.46 L862.798 1265.46 L862.798 1265.46  Z" fill="#009af9" fill-rule="evenodd" fill-opacity="1"/>
<polyline clip-path="url(#clip672)" style="stroke:#000000; stroke-linecap:round; stroke-linejoin:round; stroke-width:4; stroke-opacity:1; fill:none" points="862.798,1265.46 862.798,1486.45 881.826,1486.45 881.826,1265.46 862.798,1265.46 "/>
<path clip-path="url(#clip672)" d="M881.826 1222.75 L881.826 1486.45 L900.854 1486.45 L900.854 1222.75 L881.826 1222.75 L881.826 1222.75  Z" fill="#009af9" fill-rule="evenodd" fill-opacity="1"/>
<polyline clip-path="url(#clip672)" style="stroke:#000000; stroke-linecap:round; stroke-linejoin:round; stroke-width:4; stroke-opacity:1; fill:none" points="881.826,1222.75 881.826,1486.45 900.854,1486.45 900.854,1222.75 881.826,1222.75 "/>
<path clip-path="url(#clip672)" d="M900.854 1157.75 L900.854 1486.45 L919.882 1486.45 L919.882 1157.75 L900.854 1157.75 L900.854 1157.75  Z" fill="#009af9" fill-rule="evenodd" fill-opacity="1"/>
<polyline clip-path="url(#clip672)" style="stroke:#000000; stroke-linecap:round; stroke-linejoin:round; stroke-width:4; stroke-opacity:1; fill:none" points="900.854,1157.75 900.854,1486.45 919.882,1486.45 919.882,1157.75 900.854,1157.75 "/>
<path clip-path="url(#clip672)" d="M919.882 1124.33 L919.882 1486.45 L938.91 1486.45 L938.91 1124.33 L919.882 1124.33 L919.882 1124.33  Z" fill="#009af9" fill-rule="evenodd" fill-opacity="1"/>
<polyline clip-path="url(#clip672)" style="stroke:#000000; stroke-linecap:round; stroke-linejoin:round; stroke-width:4; stroke-opacity:1; fill:none" points="919.882,1124.33 919.882,1486.45 938.91,1486.45 938.91,1124.33 919.882,1124.33 "/>
<path clip-path="url(#clip672)" d="M938.91 1029.62 L938.91 1486.45 L957.938 1486.45 L957.938 1029.62 L938.91 1029.62 L938.91 1029.62  Z" fill="#009af9" fill-rule="evenodd" fill-opacity="1"/>
<polyline clip-path="url(#clip672)" style="stroke:#000000; stroke-linecap:round; stroke-linejoin:round; stroke-width:4; stroke-opacity:1; fill:none" points="938.91,1029.62 938.91,1486.45 957.938,1486.45 957.938,1029.62 938.91,1029.62 "/>
<path clip-path="url(#clip672)" d="M957.938 1012.9 L957.938 1486.45 L976.966 1486.45 L976.966 1012.9 L957.938 1012.9 L957.938 1012.9  Z" fill="#009af9" fill-rule="evenodd" fill-opacity="1"/>
<polyline clip-path="url(#clip672)" style="stroke:#000000; stroke-linecap:round; stroke-linejoin:round; stroke-width:4; stroke-opacity:1; fill:none" points="957.938,1012.9 957.938,1486.45 976.966,1486.45 976.966,1012.9 957.938,1012.9 "/>
<path clip-path="url(#clip672)" d="M976.966 868.055 L976.966 1486.45 L995.994 1486.45 L995.994 868.055 L976.966 868.055 L976.966 868.055  Z" fill="#009af9" fill-rule="evenodd" fill-opacity="1"/>
<polyline clip-path="url(#clip672)" style="stroke:#000000; stroke-linecap:round; stroke-linejoin:round; stroke-width:4; stroke-opacity:1; fill:none" points="976.966,868.055 976.966,1486.45 995.994,1486.45 995.994,868.055 976.966,868.055 "/>
<path clip-path="url(#clip672)" d="M995.994 808.629 L995.994 1486.45 L1015.02 1486.45 L1015.02 808.629 L995.994 808.629 L995.994 808.629  Z" fill="#009af9" fill-rule="evenodd" fill-opacity="1"/>
<polyline clip-path="url(#clip672)" style="stroke:#000000; stroke-linecap:round; stroke-linejoin:round; stroke-width:4; stroke-opacity:1; fill:none" points="995.994,808.629 995.994,1486.45 1015.02,1486.45 1015.02,808.629 995.994,808.629 "/>
<path clip-path="url(#clip672)" d="M1015.02 700.921 L1015.02 1486.45 L1034.05 1486.45 L1034.05 700.921 L1015.02 700.921 L1015.02 700.921  Z" fill="#009af9" fill-rule="evenodd" fill-opacity="1"/>
<polyline clip-path="url(#clip672)" style="stroke:#000000; stroke-linecap:round; stroke-linejoin:round; stroke-width:4; stroke-opacity:1; fill:none" points="1015.02,700.921 1015.02,1486.45 1034.05,1486.45 1034.05,700.921 1015.02,700.921 "/>
<path clip-path="url(#clip672)" d="M1034.05 682.351 L1034.05 1486.45 L1053.08 1486.45 L1053.08 682.351 L1034.05 682.351 L1034.05 682.351  Z" fill="#009af9" fill-rule="evenodd" fill-opacity="1"/>
<polyline clip-path="url(#clip672)" style="stroke:#000000; stroke-linecap:round; stroke-linejoin:round; stroke-width:4; stroke-opacity:1; fill:none" points="1034.05,682.351 1034.05,1486.45 1053.08,1486.45 1053.08,682.351 1034.05,682.351 "/>
<path clip-path="url(#clip672)" d="M1053.08 669.352 L1053.08 1486.45 L1072.11 1486.45 L1072.11 669.352 L1053.08 669.352 L1053.08 669.352  Z" fill="#009af9" fill-rule="evenodd" fill-opacity="1"/>
<polyline clip-path="url(#clip672)" style="stroke:#000000; stroke-linecap:round; stroke-linejoin:round; stroke-width:4; stroke-opacity:1; fill:none" points="1053.08,669.352 1053.08,1486.45 1072.11,1486.45 1072.11,669.352 1053.08,669.352 "/>
<path clip-path="url(#clip672)" d="M1072.11 578.357 L1072.11 1486.45 L1091.13 1486.45 L1091.13 578.357 L1072.11 578.357 L1072.11 578.357  Z" fill="#009af9" fill-rule="evenodd" fill-opacity="1"/>
<polyline clip-path="url(#clip672)" style="stroke:#000000; stroke-linecap:round; stroke-linejoin:round; stroke-width:4; stroke-opacity:1; fill:none" points="1072.11,578.357 1072.11,1486.45 1091.13,1486.45 1091.13,578.357 1072.11,578.357 "/>
<path clip-path="url(#clip672)" d="M1091.13 548.644 L1091.13 1486.45 L1110.16 1486.45 L1110.16 548.644 L1091.13 548.644 L1091.13 548.644  Z" fill="#009af9" fill-rule="evenodd" fill-opacity="1"/>
<polyline clip-path="url(#clip672)" style="stroke:#000000; stroke-linecap:round; stroke-linejoin:round; stroke-width:4; stroke-opacity:1; fill:none" points="1091.13,548.644 1091.13,1486.45 1110.16,1486.45 1110.16,548.644 1091.13,548.644 "/>
<path clip-path="url(#clip672)" d="M1110.16 559.786 L1110.16 1486.45 L1129.19 1486.45 L1129.19 559.786 L1110.16 559.786 L1110.16 559.786  Z" fill="#009af9" fill-rule="evenodd" fill-opacity="1"/>
<polyline clip-path="url(#clip672)" style="stroke:#000000; stroke-linecap:round; stroke-linejoin:round; stroke-width:4; stroke-opacity:1; fill:none" points="1110.16,559.786 1110.16,1486.45 1129.19,1486.45 1129.19,559.786 1110.16,559.786 "/>
<path clip-path="url(#clip672)" d="M1129.19 511.503 L1129.19 1486.45 L1148.22 1486.45 L1148.22 511.503 L1129.19 511.503 L1129.19 511.503  Z" fill="#009af9" fill-rule="evenodd" fill-opacity="1"/>
<polyline clip-path="url(#clip672)" style="stroke:#000000; stroke-linecap:round; stroke-linejoin:round; stroke-width:4; stroke-opacity:1; fill:none" points="1129.19,511.503 1129.19,1486.45 1148.22,1486.45 1148.22,511.503 1129.19,511.503 "/>
<path clip-path="url(#clip672)" d="M1148.22 600.641 L1148.22 1486.45 L1167.25 1486.45 L1167.25 600.641 L1148.22 600.641 L1148.22 600.641  Z" fill="#009af9" fill-rule="evenodd" fill-opacity="1"/>
<polyline clip-path="url(#clip672)" style="stroke:#000000; stroke-linecap:round; stroke-linejoin:round; stroke-width:4; stroke-opacity:1; fill:none" points="1148.22,600.641 1148.22,1486.45 1167.25,1486.45 1167.25,600.641 1148.22,600.641 "/>
<path clip-path="url(#clip672)" d="M1167.25 622.926 L1167.25 1486.45 L1186.27 1486.45 L1186.27 622.926 L1167.25 622.926 L1167.25 622.926  Z" fill="#009af9" fill-rule="evenodd" fill-opacity="1"/>
<polyline clip-path="url(#clip672)" style="stroke:#000000; stroke-linecap:round; stroke-linejoin:round; stroke-width:4; stroke-opacity:1; fill:none" points="1167.25,622.926 1167.25,1486.45 1186.27,1486.45 1186.27,622.926 1167.25,622.926 "/>
<path clip-path="url(#clip672)" d="M1186.27 609.926 L1186.27 1486.45 L1205.3 1486.45 L1205.3 609.926 L1186.27 609.926 L1186.27 609.926  Z" fill="#009af9" fill-rule="evenodd" fill-opacity="1"/>
<polyline clip-path="url(#clip672)" style="stroke:#000000; stroke-linecap:round; stroke-linejoin:round; stroke-width:4; stroke-opacity:1; fill:none" points="1186.27,609.926 1186.27,1486.45 1205.3,1486.45 1205.3,609.926 1186.27,609.926 "/>
<path clip-path="url(#clip672)" d="M1205.3 706.492 L1205.3 1486.45 L1224.33 1486.45 L1224.33 706.492 L1205.3 706.492 L1205.3 706.492  Z" fill="#009af9" fill-rule="evenodd" fill-opacity="1"/>
<polyline clip-path="url(#clip672)" style="stroke:#000000; stroke-linecap:round; stroke-linejoin:round; stroke-width:4; stroke-opacity:1; fill:none" points="1205.3,706.492 1205.3,1486.45 1224.33,1486.45 1224.33,706.492 1205.3,706.492 "/>
<path clip-path="url(#clip672)" d="M1224.33 799.344 L1224.33 1486.45 L1243.36 1486.45 L1243.36 799.344 L1224.33 799.344 L1224.33 799.344  Z" fill="#009af9" fill-rule="evenodd" fill-opacity="1"/>
<polyline clip-path="url(#clip672)" style="stroke:#000000; stroke-linecap:round; stroke-linejoin:round; stroke-width:4; stroke-opacity:1; fill:none" points="1224.33,799.344 1224.33,1486.45 1243.36,1486.45 1243.36,799.344 1224.33,799.344 "/>
<path clip-path="url(#clip672)" d="M1243.36 855.055 L1243.36 1486.45 L1262.39 1486.45 L1262.39 855.055 L1243.36 855.055 L1243.36 855.055  Z" fill="#009af9" fill-rule="evenodd" fill-opacity="1"/>
<polyline clip-path="url(#clip672)" style="stroke:#000000; stroke-linecap:round; stroke-linejoin:round; stroke-width:4; stroke-opacity:1; fill:none" points="1243.36,855.055 1243.36,1486.45 1262.39,1486.45 1262.39,855.055 1243.36,855.055 "/>
<path clip-path="url(#clip672)" d="M1262.39 881.054 L1262.39 1486.45 L1281.41 1486.45 L1281.41 881.054 L1262.39 881.054 L1262.39 881.054  Z" fill="#009af9" fill-rule="evenodd" fill-opacity="1"/>
<polyline clip-path="url(#clip672)" style="stroke:#000000; stroke-linecap:round; stroke-linejoin:round; stroke-width:4; stroke-opacity:1; fill:none" points="1262.39,881.054 1262.39,1486.45 1281.41,1486.45 1281.41,881.054 1262.39,881.054 "/>
<path clip-path="url(#clip672)" d="M1281.41 975.763 L1281.41 1486.45 L1300.44 1486.45 L1300.44 975.763 L1281.41 975.763 L1281.41 975.763  Z" fill="#009af9" fill-rule="evenodd" fill-opacity="1"/>
<polyline clip-path="url(#clip672)" style="stroke:#000000; stroke-linecap:round; stroke-linejoin:round; stroke-width:4; stroke-opacity:1; fill:none" points="1281.41,975.763 1281.41,1486.45 1300.44,1486.45 1300.44,975.763 1281.41,975.763 "/>
<path clip-path="url(#clip672)" d="M1300.44 1068.61 L1300.44 1486.45 L1319.47 1486.45 L1319.47 1068.61 L1300.44 1068.61 L1300.44 1068.61  Z" fill="#009af9" fill-rule="evenodd" fill-opacity="1"/>
<polyline clip-path="url(#clip672)" style="stroke:#000000; stroke-linecap:round; stroke-linejoin:round; stroke-width:4; stroke-opacity:1; fill:none" points="1300.44,1068.61 1300.44,1486.45 1319.47,1486.45 1319.47,1068.61 1300.44,1068.61 "/>
<path clip-path="url(#clip672)" d="M1319.47 1083.47 L1319.47 1486.45 L1338.5 1486.45 L1338.5 1083.47 L1319.47 1083.47 L1319.47 1083.47  Z" fill="#009af9" fill-rule="evenodd" fill-opacity="1"/>
<polyline clip-path="url(#clip672)" style="stroke:#000000; stroke-linecap:round; stroke-linejoin:round; stroke-width:4; stroke-opacity:1; fill:none" points="1319.47,1083.47 1319.47,1486.45 1338.5,1486.45 1338.5,1083.47 1319.47,1083.47 "/>
<path clip-path="url(#clip672)" d="M1338.5 1178.18 L1338.5 1486.45 L1357.53 1486.45 L1357.53 1178.18 L1338.5 1178.18 L1338.5 1178.18  Z" fill="#009af9" fill-rule="evenodd" fill-opacity="1"/>
<polyline clip-path="url(#clip672)" style="stroke:#000000; stroke-linecap:round; stroke-linejoin:round; stroke-width:4; stroke-opacity:1; fill:none" points="1338.5,1178.18 1338.5,1486.45 1357.53,1486.45 1357.53,1178.18 1338.5,1178.18 "/>
<path clip-path="url(#clip672)" d="M1357.53 1172.61 L1357.53 1486.45 L1376.55 1486.45 L1376.55 1172.61 L1357.53 1172.61 L1357.53 1172.61  Z" fill="#009af9" fill-rule="evenodd" fill-opacity="1"/>
<polyline clip-path="url(#clip672)" style="stroke:#000000; stroke-linecap:round; stroke-linejoin:round; stroke-width:4; stroke-opacity:1; fill:none" points="1357.53,1172.61 1357.53,1486.45 1376.55,1486.45 1376.55,1172.61 1357.53,1172.61 "/>
<path clip-path="url(#clip672)" d="M1376.55 1271.03 L1376.55 1486.45 L1395.58 1486.45 L1395.58 1271.03 L1376.55 1271.03 L1376.55 1271.03  Z" fill="#009af9" fill-rule="evenodd" fill-opacity="1"/>
<polyline clip-path="url(#clip672)" style="stroke:#000000; stroke-linecap:round; stroke-linejoin:round; stroke-width:4; stroke-opacity:1; fill:none" points="1376.55,1271.03 1376.55,1486.45 1395.58,1486.45 1395.58,1271.03 1376.55,1271.03 "/>
<path clip-path="url(#clip672)" d="M1395.58 1328.6 L1395.58 1486.45 L1414.61 1486.45 L1414.61 1328.6 L1395.58 1328.6 L1395.58 1328.6  Z" fill="#009af9" fill-rule="evenodd" fill-opacity="1"/>
<polyline clip-path="url(#clip672)" style="stroke:#000000; stroke-linecap:round; stroke-linejoin:round; stroke-width:4; stroke-opacity:1; fill:none" points="1395.58,1328.6 1395.58,1486.45 1414.61,1486.45 1414.61,1328.6 1395.58,1328.6 "/>
<path clip-path="url(#clip672)" d="M1414.61 1334.17 L1414.61 1486.45 L1433.64 1486.45 L1433.64 1334.17 L1414.61 1334.17 L1414.61 1334.17  Z" fill="#009af9" fill-rule="evenodd" fill-opacity="1"/>
<polyline clip-path="url(#clip672)" style="stroke:#000000; stroke-linecap:round; stroke-linejoin:round; stroke-width:4; stroke-opacity:1; fill:none" points="1414.61,1334.17 1414.61,1486.45 1433.64,1486.45 1433.64,1334.17 1414.61,1334.17 "/>
<path clip-path="url(#clip672)" d="M1433.64 1349.03 L1433.64 1486.45 L1452.66 1486.45 L1452.66 1349.03 L1433.64 1349.03 L1433.64 1349.03  Z" fill="#009af9" fill-rule="evenodd" fill-opacity="1"/>
<polyline clip-path="url(#clip672)" style="stroke:#000000; stroke-linecap:round; stroke-linejoin:round; stroke-width:4; stroke-opacity:1; fill:none" points="1433.64,1349.03 1433.64,1486.45 1452.66,1486.45 1452.66,1349.03 1433.64,1349.03 "/>
<path clip-path="url(#clip672)" d="M1452.66 1393.6 L1452.66 1486.45 L1471.69 1486.45 L1471.69 1393.6 L1452.66 1393.6 L1452.66 1393.6  Z" fill="#009af9" fill-rule="evenodd" fill-opacity="1"/>
<polyline clip-path="url(#clip672)" style="stroke:#000000; stroke-linecap:round; stroke-linejoin:round; stroke-width:4; stroke-opacity:1; fill:none" points="1452.66,1393.6 1452.66,1486.45 1471.69,1486.45 1471.69,1393.6 1452.66,1393.6 "/>
<path clip-path="url(#clip672)" d="M1471.69 1434.45 L1471.69 1486.45 L1490.72 1486.45 L1490.72 1434.45 L1471.69 1434.45 L1471.69 1434.45  Z" fill="#009af9" fill-rule="evenodd" fill-opacity="1"/>
<polyline clip-path="url(#clip672)" style="stroke:#000000; stroke-linecap:round; stroke-linejoin:round; stroke-width:4; stroke-opacity:1; fill:none" points="1471.69,1434.45 1471.69,1486.45 1490.72,1486.45 1490.72,1434.45 1471.69,1434.45 "/>
<path clip-path="url(#clip672)" d="M1490.72 1438.16 L1490.72 1486.45 L1509.75 1486.45 L1509.75 1438.16 L1490.72 1438.16 L1490.72 1438.16  Z" fill="#009af9" fill-rule="evenodd" fill-opacity="1"/>
<polyline clip-path="url(#clip672)" style="stroke:#000000; stroke-linecap:round; stroke-linejoin:round; stroke-width:4; stroke-opacity:1; fill:none" points="1490.72,1438.16 1490.72,1486.45 1509.75,1486.45 1509.75,1438.16 1490.72,1438.16 "/>
<path clip-path="url(#clip672)" d="M1509.75 1454.88 L1509.75 1486.45 L1528.78 1486.45 L1528.78 1454.88 L1509.75 1454.88 L1509.75 1454.88  Z" fill="#009af9" fill-rule="evenodd" fill-opacity="1"/>
<polyline clip-path="url(#clip672)" style="stroke:#000000; stroke-linecap:round; stroke-linejoin:round; stroke-width:4; stroke-opacity:1; fill:none" points="1509.75,1454.88 1509.75,1486.45 1528.78,1486.45 1528.78,1454.88 1509.75,1454.88 "/>
<path clip-path="url(#clip672)" d="M1528.78 1466.02 L1528.78 1486.45 L1547.8 1486.45 L1547.8 1466.02 L1528.78 1466.02 L1528.78 1466.02  Z" fill="#009af9" fill-rule="evenodd" fill-opacity="1"/>
<polyline clip-path="url(#clip672)" style="stroke:#000000; stroke-linecap:round; stroke-linejoin:round; stroke-width:4; stroke-opacity:1; fill:none" points="1528.78,1466.02 1528.78,1486.45 1547.8,1486.45 1547.8,1466.02 1528.78,1466.02 "/>
<path clip-path="url(#clip672)" d="M1547.8 1464.16 L1547.8 1486.45 L1566.83 1486.45 L1566.83 1464.16 L1547.8 1464.16 L1547.8 1464.16  Z" fill="#009af9" fill-rule="evenodd" fill-opacity="1"/>
<polyline clip-path="url(#clip672)" style="stroke:#000000; stroke-linecap:round; stroke-linejoin:round; stroke-width:4; stroke-opacity:1; fill:none" points="1547.8,1464.16 1547.8,1486.45 1566.83,1486.45 1566.83,1464.16 1547.8,1464.16 "/>
<path clip-path="url(#clip672)" d="M1566.83 1475.31 L1566.83 1486.45 L1585.86 1486.45 L1585.86 1475.31 L1566.83 1475.31 L1566.83 1475.31  Z" fill="#009af9" fill-rule="evenodd" fill-opacity="1"/>
<polyline clip-path="url(#clip672)" style="stroke:#000000; stroke-linecap:round; stroke-linejoin:round; stroke-width:4; stroke-opacity:1; fill:none" points="1566.83,1475.31 1566.83,1486.45 1585.86,1486.45 1585.86,1475.31 1566.83,1475.31 "/>
<path clip-path="url(#clip672)" d="M1585.86 1475.31 L1585.86 1486.45 L1604.89 1486.45 L1604.89 1475.31 L1585.86 1475.31 L1585.86 1475.31  Z" fill="#009af9" fill-rule="evenodd" fill-opacity="1"/>
<polyline clip-path="url(#clip672)" style="stroke:#000000; stroke-linecap:round; stroke-linejoin:round; stroke-width:4; stroke-opacity:1; fill:none" points="1585.86,1475.31 1585.86,1486.45 1604.89,1486.45 1604.89,1475.31 1585.86,1475.31 "/>
<path clip-path="url(#clip672)" d="M1604.89 1480.88 L1604.89 1486.45 L1623.92 1486.45 L1623.92 1480.88 L1604.89 1480.88 L1604.89 1480.88  Z" fill="#009af9" fill-rule="evenodd" fill-opacity="1"/>
<polyline clip-path="url(#clip672)" style="stroke:#000000; stroke-linecap:round; stroke-linejoin:round; stroke-width:4; stroke-opacity:1; fill:none" points="1604.89,1480.88 1604.89,1486.45 1623.92,1486.45 1623.92,1480.88 1604.89,1480.88 "/>
<path clip-path="url(#clip672)" d="M1623.92 1479.02 L1623.92 1486.45 L1642.94 1486.45 L1642.94 1479.02 L1623.92 1479.02 L1623.92 1479.02  Z" fill="#009af9" fill-rule="evenodd" fill-opacity="1"/>
<polyline clip-path="url(#clip672)" style="stroke:#000000; stroke-linecap:round; stroke-linejoin:round; stroke-width:4; stroke-opacity:1; fill:none" points="1623.92,1479.02 1623.92,1486.45 1642.94,1486.45 1642.94,1479.02 1623.92,1479.02 "/>
<path clip-path="url(#clip672)" d="M1642.94 1482.73 L1642.94 1486.45 L1661.97 1486.45 L1661.97 1482.73 L1642.94 1482.73 L1642.94 1482.73  Z" fill="#009af9" fill-rule="evenodd" fill-opacity="1"/>
<polyline clip-path="url(#clip672)" style="stroke:#000000; stroke-linecap:round; stroke-linejoin:round; stroke-width:4; stroke-opacity:1; fill:none" points="1642.94,1482.73 1642.94,1486.45 1661.97,1486.45 1661.97,1482.73 1642.94,1482.73 "/>
<path clip-path="url(#clip672)" d="M1661.97 1484.59 L1661.97 1486.45 L1681 1486.45 L1681 1484.59 L1661.97 1484.59 L1661.97 1484.59  Z" fill="#009af9" fill-rule="evenodd" fill-opacity="1"/>
<polyline clip-path="url(#clip672)" style="stroke:#000000; stroke-linecap:round; stroke-linejoin:round; stroke-width:4; stroke-opacity:1; fill:none" points="1661.97,1484.59 1661.97,1486.45 1681,1486.45 1681,1484.59 1661.97,1484.59 "/>
<path clip-path="url(#clip672)" d="M1681 1484.59 L1681 1486.45 L1700.03 1486.45 L1700.03 1484.59 L1681 1484.59 L1681 1484.59  Z" fill="#009af9" fill-rule="evenodd" fill-opacity="1"/>
<polyline clip-path="url(#clip672)" style="stroke:#000000; stroke-linecap:round; stroke-linejoin:round; stroke-width:4; stroke-opacity:1; fill:none" points="1681,1484.59 1681,1486.45 1700.03,1486.45 1700.03,1484.59 1681,1484.59 "/>
<path clip-path="url(#clip672)" d="M1700.03 1486.45 L1700.03 1486.45 L1719.06 1486.45 L1719.06 1486.45 L1700.03 1486.45 L1700.03 1486.45  Z" fill="#009af9" fill-rule="evenodd" fill-opacity="1"/>
<polyline clip-path="url(#clip672)" style="stroke:#000000; stroke-linecap:round; stroke-linejoin:round; stroke-width:4; stroke-opacity:1; fill:none" points="1700.03,1486.45 1700.03,1486.45 1719.06,1486.45 1700.03,1486.45 "/>
<path clip-path="url(#clip672)" d="M1719.06 1484.59 L1719.06 1486.45 L1738.08 1486.45 L1738.08 1484.59 L1719.06 1484.59 L1719.06 1484.59  Z" fill="#009af9" fill-rule="evenodd" fill-opacity="1"/>
<polyline clip-path="url(#clip672)" style="stroke:#000000; stroke-linecap:round; stroke-linejoin:round; stroke-width:4; stroke-opacity:1; fill:none" points="1719.06,1484.59 1719.06,1486.45 1738.08,1486.45 1738.08,1484.59 1719.06,1484.59 "/>
<path clip-path="url(#clip672)" d="M1738.08 1482.73 L1738.08 1486.45 L1757.11 1486.45 L1757.11 1482.73 L1738.08 1482.73 L1738.08 1482.73  Z" fill="#009af9" fill-rule="evenodd" fill-opacity="1"/>
<polyline clip-path="url(#clip672)" style="stroke:#000000; stroke-linecap:round; stroke-linejoin:round; stroke-width:4; stroke-opacity:1; fill:none" points="1738.08,1482.73 1738.08,1486.45 1757.11,1486.45 1757.11,1482.73 1738.08,1482.73 "/>
<circle clip-path="url(#clip672)" style="fill:#009af9; stroke:none; fill-opacity:0" cx="624.949" cy="1484.59" r="2"/>
<circle clip-path="url(#clip672)" style="fill:#009af9; stroke:none; fill-opacity:0" cx="643.977" cy="1480.88" r="2"/>
<circle clip-path="url(#clip672)" style="fill:#009af9; stroke:none; fill-opacity:0" cx="663.005" cy="1482.73" r="2"/>
<circle clip-path="url(#clip672)" style="fill:#009af9; stroke:none; fill-opacity:0" cx="682.033" cy="1479.02" r="2"/>
<circle clip-path="url(#clip672)" style="fill:#009af9; stroke:none; fill-opacity:0" cx="701.061" cy="1477.16" r="2"/>
<circle clip-path="url(#clip672)" style="fill:#009af9; stroke:none; fill-opacity:0" cx="720.089" cy="1458.59" r="2"/>
<circle clip-path="url(#clip672)" style="fill:#009af9; stroke:none; fill-opacity:0" cx="739.116" cy="1460.45" r="2"/>
<circle clip-path="url(#clip672)" style="fill:#009af9; stroke:none; fill-opacity:0" cx="758.144" cy="1428.88" r="2"/>
<circle clip-path="url(#clip672)" style="fill:#009af9; stroke:none; fill-opacity:0" cx="777.172" cy="1417.74" r="2"/>
<circle clip-path="url(#clip672)" style="fill:#009af9; stroke:none; fill-opacity:0" cx="796.2" cy="1395.45" r="2"/>
<circle clip-path="url(#clip672)" style="fill:#009af9; stroke:none; fill-opacity:0" cx="815.228" cy="1341.6" r="2"/>
<circle clip-path="url(#clip672)" style="fill:#009af9; stroke:none; fill-opacity:0" cx="834.256" cy="1356.46" r="2"/>
<circle clip-path="url(#clip672)" style="fill:#009af9; stroke:none; fill-opacity:0" cx="853.284" cy="1308.17" r="2"/>
<circle clip-path="url(#clip672)" style="fill:#009af9; stroke:none; fill-opacity:0" cx="872.312" cy="1265.46" r="2"/>
<circle clip-path="url(#clip672)" style="fill:#009af9; stroke:none; fill-opacity:0" cx="891.34" cy="1222.75" r="2"/>
<circle clip-path="url(#clip672)" style="fill:#009af9; stroke:none; fill-opacity:0" cx="910.368" cy="1157.75" r="2"/>
<circle clip-path="url(#clip672)" style="fill:#009af9; stroke:none; fill-opacity:0" cx="929.396" cy="1124.33" r="2"/>
<circle clip-path="url(#clip672)" style="fill:#009af9; stroke:none; fill-opacity:0" cx="948.424" cy="1029.62" r="2"/>
<circle clip-path="url(#clip672)" style="fill:#009af9; stroke:none; fill-opacity:0" cx="967.452" cy="1012.9" r="2"/>
<circle clip-path="url(#clip672)" style="fill:#009af9; stroke:none; fill-opacity:0" cx="986.48" cy="868.055" r="2"/>
<circle clip-path="url(#clip672)" style="fill:#009af9; stroke:none; fill-opacity:0" cx="1005.51" cy="808.629" r="2"/>
<circle clip-path="url(#clip672)" style="fill:#009af9; stroke:none; fill-opacity:0" cx="1024.54" cy="700.921" r="2"/>
<circle clip-path="url(#clip672)" style="fill:#009af9; stroke:none; fill-opacity:0" cx="1043.56" cy="682.351" r="2"/>
<circle clip-path="url(#clip672)" style="fill:#009af9; stroke:none; fill-opacity:0" cx="1062.59" cy="669.352" r="2"/>
<circle clip-path="url(#clip672)" style="fill:#009af9; stroke:none; fill-opacity:0" cx="1081.62" cy="578.357" r="2"/>
<circle clip-path="url(#clip672)" style="fill:#009af9; stroke:none; fill-opacity:0" cx="1100.65" cy="548.644" r="2"/>
<circle clip-path="url(#clip672)" style="fill:#009af9; stroke:none; fill-opacity:0" cx="1119.68" cy="559.786" r="2"/>
<circle clip-path="url(#clip672)" style="fill:#009af9; stroke:none; fill-opacity:0" cx="1138.7" cy="511.503" r="2"/>
<circle clip-path="url(#clip672)" style="fill:#009af9; stroke:none; fill-opacity:0" cx="1157.73" cy="600.641" r="2"/>
<circle clip-path="url(#clip672)" style="fill:#009af9; stroke:none; fill-opacity:0" cx="1176.76" cy="622.926" r="2"/>
<circle clip-path="url(#clip672)" style="fill:#009af9; stroke:none; fill-opacity:0" cx="1195.79" cy="609.926" r="2"/>
<circle clip-path="url(#clip672)" style="fill:#009af9; stroke:none; fill-opacity:0" cx="1214.82" cy="706.492" r="2"/>
<circle clip-path="url(#clip672)" style="fill:#009af9; stroke:none; fill-opacity:0" cx="1233.84" cy="799.344" r="2"/>
<circle clip-path="url(#clip672)" style="fill:#009af9; stroke:none; fill-opacity:0" cx="1252.87" cy="855.055" r="2"/>
<circle clip-path="url(#clip672)" style="fill:#009af9; stroke:none; fill-opacity:0" cx="1271.9" cy="881.054" r="2"/>
<circle clip-path="url(#clip672)" style="fill:#009af9; stroke:none; fill-opacity:0" cx="1290.93" cy="975.763" r="2"/>
<circle clip-path="url(#clip672)" style="fill:#009af9; stroke:none; fill-opacity:0" cx="1309.96" cy="1068.61" r="2"/>
<circle clip-path="url(#clip672)" style="fill:#009af9; stroke:none; fill-opacity:0" cx="1328.98" cy="1083.47" r="2"/>
<circle clip-path="url(#clip672)" style="fill:#009af9; stroke:none; fill-opacity:0" cx="1348.01" cy="1178.18" r="2"/>
<circle clip-path="url(#clip672)" style="fill:#009af9; stroke:none; fill-opacity:0" cx="1367.04" cy="1172.61" r="2"/>
<circle clip-path="url(#clip672)" style="fill:#009af9; stroke:none; fill-opacity:0" cx="1386.07" cy="1271.03" r="2"/>
<circle clip-path="url(#clip672)" style="fill:#009af9; stroke:none; fill-opacity:0" cx="1405.1" cy="1328.6" r="2"/>
<circle clip-path="url(#clip672)" style="fill:#009af9; stroke:none; fill-opacity:0" cx="1424.12" cy="1334.17" r="2"/>
<circle clip-path="url(#clip672)" style="fill:#009af9; stroke:none; fill-opacity:0" cx="1443.15" cy="1349.03" r="2"/>
<circle clip-path="url(#clip672)" style="fill:#009af9; stroke:none; fill-opacity:0" cx="1462.18" cy="1393.6" r="2"/>
<circle clip-path="url(#clip672)" style="fill:#009af9; stroke:none; fill-opacity:0" cx="1481.21" cy="1434.45" r="2"/>
<circle clip-path="url(#clip672)" style="fill:#009af9; stroke:none; fill-opacity:0" cx="1500.23" cy="1438.16" r="2"/>
<circle clip-path="url(#clip672)" style="fill:#009af9; stroke:none; fill-opacity:0" cx="1519.26" cy="1454.88" r="2"/>
<circle clip-path="url(#clip672)" style="fill:#009af9; stroke:none; fill-opacity:0" cx="1538.29" cy="1466.02" r="2"/>
<circle clip-path="url(#clip672)" style="fill:#009af9; stroke:none; fill-opacity:0" cx="1557.32" cy="1464.16" r="2"/>
<circle clip-path="url(#clip672)" style="fill:#009af9; stroke:none; fill-opacity:0" cx="1576.35" cy="1475.31" r="2"/>
<circle clip-path="url(#clip672)" style="fill:#009af9; stroke:none; fill-opacity:0" cx="1595.37" cy="1475.31" r="2"/>
<circle clip-path="url(#clip672)" style="fill:#009af9; stroke:none; fill-opacity:0" cx="1614.4" cy="1480.88" r="2"/>
<circle clip-path="url(#clip672)" style="fill:#009af9; stroke:none; fill-opacity:0" cx="1633.43" cy="1479.02" r="2"/>
<circle clip-path="url(#clip672)" style="fill:#009af9; stroke:none; fill-opacity:0" cx="1652.46" cy="1482.73" r="2"/>
<circle clip-path="url(#clip672)" style="fill:#009af9; stroke:none; fill-opacity:0" cx="1671.49" cy="1484.59" r="2"/>
<circle clip-path="url(#clip672)" style="fill:#009af9; stroke:none; fill-opacity:0" cx="1690.51" cy="1484.59" r="2"/>
<circle clip-path="url(#clip672)" style="fill:#009af9; stroke:none; fill-opacity:0" cx="1709.54" cy="1486.45" r="2"/>
<circle clip-path="url(#clip672)" style="fill:#009af9; stroke:none; fill-opacity:0" cx="1728.57" cy="1484.59" r="2"/>
<circle clip-path="url(#clip672)" style="fill:#009af9; stroke:none; fill-opacity:0" cx="1747.6" cy="1482.73" r="2"/>
<path clip-path="url(#clip672)" d="M291.959 1484.59 L291.959 1486.45 L330.015 1486.45 L330.015 1484.59 L291.959 1484.59 L291.959 1484.59  Z" fill="#e26f46" fill-rule="evenodd" fill-opacity="1"/>
<polyline clip-path="url(#clip672)" style="stroke:#000000; stroke-linecap:round; stroke-linejoin:round; stroke-width:4; stroke-opacity:1; fill:none" points="291.959,1484.59 291.959,1486.45 330.015,1486.45 330.015,1484.59 291.959,1484.59 "/>
<path clip-path="url(#clip672)" d="M330.015 1482.73 L330.015 1486.45 L368.071 1486.45 L368.071 1482.73 L330.015 1482.73 L330.015 1482.73  Z" fill="#e26f46" fill-rule="evenodd" fill-opacity="1"/>
<polyline clip-path="url(#clip672)" style="stroke:#000000; stroke-linecap:round; stroke-linejoin:round; stroke-width:4; stroke-opacity:1; fill:none" points="330.015,1482.73 330.015,1486.45 368.071,1486.45 368.071,1482.73 330.015,1482.73 "/>
<path clip-path="url(#clip672)" d="M368.071 1471.59 L368.071 1486.45 L406.127 1486.45 L406.127 1471.59 L368.071 1471.59 L368.071 1471.59  Z" fill="#e26f46" fill-rule="evenodd" fill-opacity="1"/>
<polyline clip-path="url(#clip672)" style="stroke:#000000; stroke-linecap:round; stroke-linejoin:round; stroke-width:4; stroke-opacity:1; fill:none" points="368.071,1471.59 368.071,1486.45 406.127,1486.45 406.127,1471.59 368.071,1471.59 "/>
<path clip-path="url(#clip672)" d="M406.127 1486.45 L406.127 1486.45 L444.183 1486.45 L444.183 1486.45 L406.127 1486.45 L406.127 1486.45  Z" fill="#e26f46" fill-rule="evenodd" fill-opacity="1"/>
<polyline clip-path="url(#clip672)" style="stroke:#000000; stroke-linecap:round; stroke-linejoin:round; stroke-width:4; stroke-opacity:1; fill:none" points="406.127,1486.45 406.127,1486.45 444.183,1486.45 406.127,1486.45 "/>
<path clip-path="url(#clip672)" d="M444.183 1473.45 L444.183 1486.45 L482.239 1486.45 L482.239 1473.45 L444.183 1473.45 L444.183 1473.45  Z" fill="#e26f46" fill-rule="evenodd" fill-opacity="1"/>
<polyline clip-path="url(#clip672)" style="stroke:#000000; stroke-linecap:round; stroke-linejoin:round; stroke-width:4; stroke-opacity:1; fill:none" points="444.183,1473.45 444.183,1486.45 482.239,1486.45 482.239,1473.45 444.183,1473.45 "/>
<path clip-path="url(#clip672)" d="M482.239 1453.02 L482.239 1486.45 L520.295 1486.45 L520.295 1453.02 L482.239 1453.02 L482.239 1453.02  Z" fill="#e26f46" fill-rule="evenodd" fill-opacity="1"/>
<polyline clip-path="url(#clip672)" style="stroke:#000000; stroke-linecap:round; stroke-linejoin:round; stroke-width:4; stroke-opacity:1; fill:none" points="482.239,1453.02 482.239,1486.45 520.295,1486.45 520.295,1453.02 482.239,1453.02 "/>
<path clip-path="url(#clip672)" d="M520.295 1427.02 L520.295 1486.45 L558.351 1486.45 L558.351 1427.02 L520.295 1427.02 L520.295 1427.02  Z" fill="#e26f46" fill-rule="evenodd" fill-opacity="1"/>
<polyline clip-path="url(#clip672)" style="stroke:#000000; stroke-linecap:round; stroke-linejoin:round; stroke-width:4; stroke-opacity:1; fill:none" points="520.295,1427.02 520.295,1486.45 558.351,1486.45 558.351,1427.02 520.295,1427.02 "/>
<path clip-path="url(#clip672)" d="M558.351 1388.02 L558.351 1486.45 L596.407 1486.45 L596.407 1388.02 L558.351 1388.02 L558.351 1388.02  Z" fill="#e26f46" fill-rule="evenodd" fill-opacity="1"/>
<polyline clip-path="url(#clip672)" style="stroke:#000000; stroke-linecap:round; stroke-linejoin:round; stroke-width:4; stroke-opacity:1; fill:none" points="558.351,1388.02 558.351,1486.45 596.407,1486.45 596.407,1388.02 558.351,1388.02 "/>
<path clip-path="url(#clip672)" d="M596.407 1486.45 L596.407 1486.45 L634.463 1486.45 L634.463 1486.45 L596.407 1486.45 L596.407 1486.45  Z" fill="#e26f46" fill-rule="evenodd" fill-opacity="1"/>
<polyline clip-path="url(#clip672)" style="stroke:#000000; stroke-linecap:round; stroke-linejoin:round; stroke-width:4; stroke-opacity:1; fill:none" points="596.407,1486.45 596.407,1486.45 634.463,1486.45 596.407,1486.45 "/>
<path clip-path="url(#clip672)" d="M634.463 1345.31 L634.463 1486.45 L672.519 1486.45 L672.519 1345.31 L634.463 1345.31 L634.463 1345.31  Z" fill="#e26f46" fill-rule="evenodd" fill-opacity="1"/>
<polyline clip-path="url(#clip672)" style="stroke:#000000; stroke-linecap:round; stroke-linejoin:round; stroke-width:4; stroke-opacity:1; fill:none" points="634.463,1345.31 634.463,1486.45 672.519,1486.45 672.519,1345.31 634.463,1345.31 "/>
<path clip-path="url(#clip672)" d="M672.519 1272.89 L672.519 1486.45 L710.575 1486.45 L710.575 1272.89 L672.519 1272.89 L672.519 1272.89  Z" fill="#e26f46" fill-rule="evenodd" fill-opacity="1"/>
<polyline clip-path="url(#clip672)" style="stroke:#000000; stroke-linecap:round; stroke-linejoin:round; stroke-width:4; stroke-opacity:1; fill:none" points="672.519,1272.89 672.519,1486.45 710.575,1486.45 710.575,1272.89 672.519,1272.89 "/>
<path clip-path="url(#clip672)" d="M710.575 1185.61 L710.575 1486.45 L748.63 1486.45 L748.63 1185.61 L710.575 1185.61 L710.575 1185.61  Z" fill="#e26f46" fill-rule="evenodd" fill-opacity="1"/>
<polyline clip-path="url(#clip672)" style="stroke:#000000; stroke-linecap:round; stroke-linejoin:round; stroke-width:4; stroke-opacity:1; fill:none" points="710.575,1185.61 710.575,1486.45 748.63,1486.45 748.63,1185.61 710.575,1185.61 "/>
<path clip-path="url(#clip672)" d="M748.63 955.335 L748.63 1486.45 L786.686 1486.45 L786.686 955.335 L748.63 955.335 L748.63 955.335  Z" fill="#e26f46" fill-rule="evenodd" fill-opacity="1"/>
<polyline clip-path="url(#clip672)" style="stroke:#000000; stroke-linecap:round; stroke-linejoin:round; stroke-width:4; stroke-opacity:1; fill:none" points="748.63,955.335 748.63,1486.45 786.686,1486.45 786.686,955.335 748.63,955.335 "/>
<path clip-path="url(#clip672)" d="M786.686 777.06 L786.686 1486.45 L824.742 1486.45 L824.742 777.06 L786.686 777.06 L786.686 777.06  Z" fill="#e26f46" fill-rule="evenodd" fill-opacity="1"/>
<polyline clip-path="url(#clip672)" style="stroke:#000000; stroke-linecap:round; stroke-linejoin:round; stroke-width:4; stroke-opacity:1; fill:none" points="786.686,777.06 786.686,1486.45 824.742,1486.45 824.742,777.06 786.686,777.06 "/>
<path clip-path="url(#clip672)" d="M824.742 1486.45 L824.742 1486.45 L862.798 1486.45 L862.798 1486.45 L824.742 1486.45 L824.742 1486.45  Z" fill="#e26f46" fill-rule="evenodd" fill-opacity="1"/>
<polyline clip-path="url(#clip672)" style="stroke:#000000; stroke-linecap:round; stroke-linejoin:round; stroke-width:4; stroke-opacity:1; fill:none" points="824.742,1486.45 824.742,1486.45 862.798,1486.45 824.742,1486.45 "/>
<path clip-path="url(#clip672)" d="M862.798 706.492 L862.798 1486.45 L900.854 1486.45 L900.854 706.492 L862.798 706.492 L862.798 706.492  Z" fill="#e26f46" fill-rule="evenodd" fill-opacity="1"/>
<polyline clip-path="url(#clip672)" style="stroke:#000000; stroke-linecap:round; stroke-linejoin:round; stroke-width:4; stroke-opacity:1; fill:none" points="862.798,706.492 862.798,1486.45 900.854,1486.45 900.854,706.492 862.798,706.492 "/>
<path clip-path="url(#clip672)" d="M900.854 478.077 L900.854 1486.45 L938.91 1486.45 L938.91 478.077 L900.854 478.077 L900.854 478.077  Z" fill="#e26f46" fill-rule="evenodd" fill-opacity="1"/>
<polyline clip-path="url(#clip672)" style="stroke:#000000; stroke-linecap:round; stroke-linejoin:round; stroke-width:4; stroke-opacity:1; fill:none" points="900.854,478.077 900.854,1486.45 938.91,1486.45 938.91,478.077 900.854,478.077 "/>
<path clip-path="url(#clip672)" d="M938.91 323.943 L938.91 1486.45 L976.966 1486.45 L976.966 323.943 L938.91 323.943 L938.91 323.943  Z" fill="#e26f46" fill-rule="evenodd" fill-opacity="1"/>
<polyline clip-path="url(#clip672)" style="stroke:#000000; stroke-linecap:round; stroke-linejoin:round; stroke-width:4; stroke-opacity:1; fill:none" points="938.91,323.943 938.91,1486.45 976.966,1486.45 976.966,323.943 938.91,323.943 "/>
<path clip-path="url(#clip672)" d="M976.966 89.9559 L976.966 1486.45 L1015.02 1486.45 L1015.02 89.9559 L976.966 89.9559 L976.966 89.9559  Z" fill="#e26f46" fill-rule="evenodd" fill-opacity="1"/>
<polyline clip-path="url(#clip672)" style="stroke:#000000; stroke-linecap:round; stroke-linejoin:round; stroke-width:4; stroke-opacity:1; fill:none" points="976.966,89.9559 976.966,1486.45 1015.02,1486.45 1015.02,89.9559 976.966,89.9559 "/>
<path clip-path="url(#clip672)" d="M1015.02 1486.45 L1015.02 1486.45 L1053.08 1486.45 L1053.08 1486.45 L1015.02 1486.45 L1015.02 1486.45  Z" fill="#e26f46" fill-rule="evenodd" fill-opacity="1"/>
<polyline clip-path="url(#clip672)" style="stroke:#000000; stroke-linecap:round; stroke-linejoin:round; stroke-width:4; stroke-opacity:1; fill:none" points="1015.02,1486.45 1015.02,1486.45 1053.08,1486.45 1015.02,1486.45 "/>
<path clip-path="url(#clip672)" d="M1053.08 60.2434 L1053.08 1486.45 L1091.13 1486.45 L1091.13 60.2434 L1053.08 60.2434 L1053.08 60.2434  Z" fill="#e26f46" fill-rule="evenodd" fill-opacity="1"/>
<polyline clip-path="url(#clip672)" style="stroke:#000000; stroke-linecap:round; stroke-linejoin:round; stroke-width:4; stroke-opacity:1; fill:none" points="1053.08,60.2434 1053.08,1486.45 1091.13,1486.45 1091.13,60.2434 1053.08,60.2434 "/>
<path clip-path="url(#clip672)" d="M1091.13 93.67 L1091.13 1486.45 L1129.19 1486.45 L1129.19 93.67 L1091.13 93.67 L1091.13 93.67  Z" fill="#e26f46" fill-rule="evenodd" fill-opacity="1"/>
<polyline clip-path="url(#clip672)" style="stroke:#000000; stroke-linecap:round; stroke-linejoin:round; stroke-width:4; stroke-opacity:1; fill:none" points="1091.13,93.67 1091.13,1486.45 1129.19,1486.45 1129.19,93.67 1091.13,93.67 "/>
<path clip-path="url(#clip672)" d="M1129.19 47.2441 L1129.19 1486.45 L1167.25 1486.45 L1167.25 47.2441 L1129.19 47.2441 L1129.19 47.2441  Z" fill="#e26f46" fill-rule="evenodd" fill-opacity="1"/>
<polyline clip-path="url(#clip672)" style="stroke:#000000; stroke-linecap:round; stroke-linejoin:round; stroke-width:4; stroke-opacity:1; fill:none" points="1129.19,47.2441 1129.19,1486.45 1167.25,1486.45 1167.25,47.2441 1129.19,47.2441 "/>
<path clip-path="url(#clip672)" d="M1167.25 80.6708 L1167.25 1486.45 L1205.3 1486.45 L1205.3 80.6708 L1167.25 80.6708 L1167.25 80.6708  Z" fill="#e26f46" fill-rule="evenodd" fill-opacity="1"/>
<polyline clip-path="url(#clip672)" style="stroke:#000000; stroke-linecap:round; stroke-linejoin:round; stroke-width:4; stroke-opacity:1; fill:none" points="1167.25,80.6708 1167.25,1486.45 1205.3,1486.45 1205.3,80.6708 1167.25,80.6708 "/>
<path clip-path="url(#clip672)" d="M1205.3 1486.45 L1205.3 1486.45 L1243.36 1486.45 L1243.36 1486.45 L1205.3 1486.45 L1205.3 1486.45  Z" fill="#e26f46" fill-rule="evenodd" fill-opacity="1"/>
<polyline clip-path="url(#clip672)" style="stroke:#000000; stroke-linecap:round; stroke-linejoin:round; stroke-width:4; stroke-opacity:1; fill:none" points="1205.3,1486.45 1205.3,1486.45 1243.36,1486.45 1205.3,1486.45 "/>
<path clip-path="url(#clip672)" d="M1243.36 136.382 L1243.36 1486.45 L1281.41 1486.45 L1281.41 136.382 L1243.36 136.382 L1243.36 136.382  Z" fill="#e26f46" fill-rule="evenodd" fill-opacity="1"/>
<polyline clip-path="url(#clip672)" style="stroke:#000000; stroke-linecap:round; stroke-linejoin:round; stroke-width:4; stroke-opacity:1; fill:none" points="1243.36,136.382 1243.36,1486.45 1281.41,1486.45 1281.41,136.382 1243.36,136.382 "/>
<path clip-path="url(#clip672)" d="M1281.41 359.226 L1281.41 1486.45 L1319.47 1486.45 L1319.47 359.226 L1281.41 359.226 L1281.41 359.226  Z" fill="#e26f46" fill-rule="evenodd" fill-opacity="1"/>
<polyline clip-path="url(#clip672)" style="stroke:#000000; stroke-linecap:round; stroke-linejoin:round; stroke-width:4; stroke-opacity:1; fill:none" points="1281.41,359.226 1281.41,1486.45 1319.47,1486.45 1319.47,359.226 1281.41,359.226 "/>
<path clip-path="url(#clip672)" d="M1319.47 518.932 L1319.47 1486.45 L1357.53 1486.45 L1357.53 518.932 L1319.47 518.932 L1319.47 518.932  Z" fill="#e26f46" fill-rule="evenodd" fill-opacity="1"/>
<polyline clip-path="url(#clip672)" style="stroke:#000000; stroke-linecap:round; stroke-linejoin:round; stroke-width:4; stroke-opacity:1; fill:none" points="1319.47,518.932 1319.47,1486.45 1357.53,1486.45 1357.53,518.932 1319.47,518.932 "/>
<path clip-path="url(#clip672)" d="M1357.53 693.493 L1357.53 1486.45 L1395.58 1486.45 L1395.58 693.493 L1357.53 693.493 L1357.53 693.493  Z" fill="#e26f46" fill-rule="evenodd" fill-opacity="1"/>
<polyline clip-path="url(#clip672)" style="stroke:#000000; stroke-linecap:round; stroke-linejoin:round; stroke-width:4; stroke-opacity:1; fill:none" points="1357.53,693.493 1357.53,1486.45 1395.58,1486.45 1395.58,693.493 1357.53,693.493 "/>
<path clip-path="url(#clip672)" d="M1395.58 851.341 L1395.58 1486.45 L1433.64 1486.45 L1433.64 851.341 L1395.58 851.341 L1395.58 851.341  Z" fill="#e26f46" fill-rule="evenodd" fill-opacity="1"/>
<polyline clip-path="url(#clip672)" style="stroke:#000000; stroke-linecap:round; stroke-linejoin:round; stroke-width:4; stroke-opacity:1; fill:none" points="1395.58,851.341 1395.58,1486.45 1433.64,1486.45 1433.64,851.341 1395.58,851.341 "/>
<path clip-path="url(#clip672)" d="M1433.64 1486.45 L1433.64 1486.45 L1471.69 1486.45 L1471.69 1486.45 L1433.64 1486.45 L1433.64 1486.45  Z" fill="#e26f46" fill-rule="evenodd" fill-opacity="1"/>
<polyline clip-path="url(#clip672)" style="stroke:#000000; stroke-linecap:round; stroke-linejoin:round; stroke-width:4; stroke-opacity:1; fill:none" points="1433.64,1486.45 1433.64,1486.45 1471.69,1486.45 1433.64,1486.45 "/>
<path clip-path="url(#clip672)" d="M1471.69 1016.62 L1471.69 1486.45 L1509.75 1486.45 L1509.75 1016.62 L1471.69 1016.62 L1471.69 1016.62  Z" fill="#e26f46" fill-rule="evenodd" fill-opacity="1"/>
<polyline clip-path="url(#clip672)" style="stroke:#000000; stroke-linecap:round; stroke-linejoin:round; stroke-width:4; stroke-opacity:1; fill:none" points="1471.69,1016.62 1471.69,1486.45 1509.75,1486.45 1509.75,1016.62 1471.69,1016.62 "/>
<path clip-path="url(#clip672)" d="M1509.75 1129.9 L1509.75 1486.45 L1547.8 1486.45 L1547.8 1129.9 L1509.75 1129.9 L1509.75 1129.9  Z" fill="#e26f46" fill-rule="evenodd" fill-opacity="1"/>
<polyline clip-path="url(#clip672)" style="stroke:#000000; stroke-linecap:round; stroke-linejoin:round; stroke-width:4; stroke-opacity:1; fill:none" points="1509.75,1129.9 1509.75,1486.45 1547.8,1486.45 1547.8,1129.9 1509.75,1129.9 "/>
<path clip-path="url(#clip672)" d="M1547.8 1209.75 L1547.8 1486.45 L1585.86 1486.45 L1585.86 1209.75 L1547.8 1209.75 L1547.8 1209.75  Z" fill="#e26f46" fill-rule="evenodd" fill-opacity="1"/>
<polyline clip-path="url(#clip672)" style="stroke:#000000; stroke-linecap:round; stroke-linejoin:round; stroke-width:4; stroke-opacity:1; fill:none" points="1547.8,1209.75 1547.8,1486.45 1585.86,1486.45 1585.86,1209.75 1547.8,1209.75 "/>
<path clip-path="url(#clip672)" d="M1585.86 1297.03 L1585.86 1486.45 L1623.92 1486.45 L1623.92 1297.03 L1585.86 1297.03 L1585.86 1297.03  Z" fill="#e26f46" fill-rule="evenodd" fill-opacity="1"/>
<polyline clip-path="url(#clip672)" style="stroke:#000000; stroke-linecap:round; stroke-linejoin:round; stroke-width:4; stroke-opacity:1; fill:none" points="1585.86,1297.03 1585.86,1486.45 1623.92,1486.45 1623.92,1297.03 1585.86,1297.03 "/>
<path clip-path="url(#clip672)" d="M1623.92 1486.45 L1623.92 1486.45 L1661.97 1486.45 L1661.97 1486.45 L1623.92 1486.45 L1623.92 1486.45  Z" fill="#e26f46" fill-rule="evenodd" fill-opacity="1"/>
<polyline clip-path="url(#clip672)" style="stroke:#000000; stroke-linecap:round; stroke-linejoin:round; stroke-width:4; stroke-opacity:1; fill:none" points="1623.92,1486.45 1623.92,1486.45 1661.97,1486.45 1623.92,1486.45 "/>
<path clip-path="url(#clip672)" d="M1661.97 1373.17 L1661.97 1486.45 L1700.03 1486.45 L1700.03 1373.17 L1661.97 1373.17 L1661.97 1373.17  Z" fill="#e26f46" fill-rule="evenodd" fill-opacity="1"/>
<polyline clip-path="url(#clip672)" style="stroke:#000000; stroke-linecap:round; stroke-linejoin:round; stroke-width:4; stroke-opacity:1; fill:none" points="1661.97,1373.17 1661.97,1486.45 1700.03,1486.45 1700.03,1373.17 1661.97,1373.17 "/>
<path clip-path="url(#clip672)" d="M1700.03 1419.59 L1700.03 1486.45 L1738.08 1486.45 L1738.08 1419.59 L1700.03 1419.59 L1700.03 1419.59  Z" fill="#e26f46" fill-rule="evenodd" fill-opacity="1"/>
<polyline clip-path="url(#clip672)" style="stroke:#000000; stroke-linecap:round; stroke-linejoin:round; stroke-width:4; stroke-opacity:1; fill:none" points="1700.03,1419.59 1700.03,1486.45 1738.08,1486.45 1738.08,1419.59 1700.03,1419.59 "/>
<path clip-path="url(#clip672)" d="M1738.08 1436.31 L1738.08 1486.45 L1776.14 1486.45 L1776.14 1436.31 L1738.08 1436.31 L1738.08 1436.31  Z" fill="#e26f46" fill-rule="evenodd" fill-opacity="1"/>
<polyline clip-path="url(#clip672)" style="stroke:#000000; stroke-linecap:round; stroke-linejoin:round; stroke-width:4; stroke-opacity:1; fill:none" points="1738.08,1436.31 1738.08,1486.45 1776.14,1486.45 1776.14,1436.31 1738.08,1436.31 "/>
<path clip-path="url(#clip672)" d="M1776.14 1460.45 L1776.14 1486.45 L1814.2 1486.45 L1814.2 1460.45 L1776.14 1460.45 L1776.14 1460.45  Z" fill="#e26f46" fill-rule="evenodd" fill-opacity="1"/>
<polyline clip-path="url(#clip672)" style="stroke:#000000; stroke-linecap:round; stroke-linejoin:round; stroke-width:4; stroke-opacity:1; fill:none" points="1776.14,1460.45 1776.14,1486.45 1814.2,1486.45 1814.2,1460.45 1776.14,1460.45 "/>
<path clip-path="url(#clip672)" d="M1814.2 1486.45 L1814.2 1486.45 L1852.25 1486.45 L1852.25 1486.45 L1814.2 1486.45 L1814.2 1486.45  Z" fill="#e26f46" fill-rule="evenodd" fill-opacity="1"/>
<polyline clip-path="url(#clip672)" style="stroke:#000000; stroke-linecap:round; stroke-linejoin:round; stroke-width:4; stroke-opacity:1; fill:none" points="1814.2,1486.45 1814.2,1486.45 1852.25,1486.45 1814.2,1486.45 "/>
<path clip-path="url(#clip672)" d="M1852.25 1477.16 L1852.25 1486.45 L1890.31 1486.45 L1890.31 1477.16 L1852.25 1477.16 L1852.25 1477.16  Z" fill="#e26f46" fill-rule="evenodd" fill-opacity="1"/>
<polyline clip-path="url(#clip672)" style="stroke:#000000; stroke-linecap:round; stroke-linejoin:round; stroke-width:4; stroke-opacity:1; fill:none" points="1852.25,1477.16 1852.25,1486.45 1890.31,1486.45 1890.31,1477.16 1852.25,1477.16 "/>
<path clip-path="url(#clip672)" d="M1890.31 1484.59 L1890.31 1486.45 L1928.36 1486.45 L1928.36 1484.59 L1890.31 1484.59 L1890.31 1484.59  Z" fill="#e26f46" fill-rule="evenodd" fill-opacity="1"/>
<polyline clip-path="url(#clip672)" style="stroke:#000000; stroke-linecap:round; stroke-linejoin:round; stroke-width:4; stroke-opacity:1; fill:none" points="1890.31,1484.59 1890.31,1486.45 1928.36,1486.45 1928.36,1484.59 1890.31,1484.59 "/>
<path clip-path="url(#clip672)" d="M1928.36 1484.59 L1928.36 1486.45 L1966.42 1486.45 L1966.42 1484.59 L1928.36 1484.59 L1928.36 1484.59  Z" fill="#e26f46" fill-rule="evenodd" fill-opacity="1"/>
<polyline clip-path="url(#clip672)" style="stroke:#000000; stroke-linecap:round; stroke-linejoin:round; stroke-width:4; stroke-opacity:1; fill:none" points="1928.36,1484.59 1928.36,1486.45 1966.42,1486.45 1966.42,1484.59 1928.36,1484.59 "/>
<path clip-path="url(#clip672)" d="M1966.42 1486.45 L1966.42 1486.45 L2004.48 1486.45 L2004.48 1486.45 L1966.42 1486.45 L1966.42 1486.45  Z" fill="#e26f46" fill-rule="evenodd" fill-opacity="1"/>
<polyline clip-path="url(#clip672)" style="stroke:#000000; stroke-linecap:round; stroke-linejoin:round; stroke-width:4; stroke-opacity:1; fill:none" points="1966.42,1486.45 1966.42,1486.45 2004.48,1486.45 1966.42,1486.45 "/>
<path clip-path="url(#clip672)" d="M2004.48 1486.45 L2004.48 1486.45 L2042.53 1486.45 L2042.53 1486.45 L2004.48 1486.45 L2004.48 1486.45  Z" fill="#e26f46" fill-rule="evenodd" fill-opacity="1"/>
<polyline clip-path="url(#clip672)" style="stroke:#000000; stroke-linecap:round; stroke-linejoin:round; stroke-width:4; stroke-opacity:1; fill:none" points="2004.48,1486.45 2004.48,1486.45 2042.53,1486.45 2004.48,1486.45 "/>
<path clip-path="url(#clip672)" d="M2042.53 1484.59 L2042.53 1486.45 L2080.59 1486.45 L2080.59 1484.59 L2042.53 1484.59 L2042.53 1484.59  Z" fill="#e26f46" fill-rule="evenodd" fill-opacity="1"/>
<polyline clip-path="url(#clip672)" style="stroke:#000000; stroke-linecap:round; stroke-linejoin:round; stroke-width:4; stroke-opacity:1; fill:none" points="2042.53,1484.59 2042.53,1486.45 2080.59,1486.45 2080.59,1484.59 2042.53,1484.59 "/>
<path clip-path="url(#clip672)" d="M2080.59 1486.45 L2080.59 1486.45 L2118.64 1486.45 L2118.64 1486.45 L2080.59 1486.45 L2080.59 1486.45  Z" fill="#e26f46" fill-rule="evenodd" fill-opacity="1"/>
<polyline clip-path="url(#clip672)" style="stroke:#000000; stroke-linecap:round; stroke-linejoin:round; stroke-width:4; stroke-opacity:1; fill:none" points="2080.59,1486.45 2080.59,1486.45 2118.64,1486.45 2080.59,1486.45 "/>
<path clip-path="url(#clip672)" d="M2118.64 1486.45 L2118.64 1486.45 L2156.7 1486.45 L2156.7 1486.45 L2118.64 1486.45 L2118.64 1486.45  Z" fill="#e26f46" fill-rule="evenodd" fill-opacity="1"/>
<polyline clip-path="url(#clip672)" style="stroke:#000000; stroke-linecap:round; stroke-linejoin:round; stroke-width:4; stroke-opacity:1; fill:none" points="2118.64,1486.45 2118.64,1486.45 2156.7,1486.45 2118.64,1486.45 "/>
<path clip-path="url(#clip672)" d="M2156.7 1486.45 L2156.7 1486.45 L2194.76 1486.45 L2194.76 1486.45 L2156.7 1486.45 L2156.7 1486.45  Z" fill="#e26f46" fill-rule="evenodd" fill-opacity="1"/>
<polyline clip-path="url(#clip672)" style="stroke:#000000; stroke-linecap:round; stroke-linejoin:round; stroke-width:4; stroke-opacity:1; fill:none" points="2156.7,1486.45 2156.7,1486.45 2194.76,1486.45 2156.7,1486.45 "/>
<path clip-path="url(#clip672)" d="M2194.76 1484.59 L2194.76 1486.45 L2232.81 1486.45 L2232.81 1484.59 L2194.76 1484.59 L2194.76 1484.59  Z" fill="#e26f46" fill-rule="evenodd" fill-opacity="1"/>
<polyline clip-path="url(#clip672)" style="stroke:#000000; stroke-linecap:round; stroke-linejoin:round; stroke-width:4; stroke-opacity:1; fill:none" points="2194.76,1484.59 2194.76,1486.45 2232.81,1486.45 2232.81,1484.59 2194.76,1484.59 "/>
<circle clip-path="url(#clip672)" style="fill:#e26f46; stroke:none; fill-opacity:0" cx="310.987" cy="1484.59" r="2"/>
<circle clip-path="url(#clip672)" style="fill:#e26f46; stroke:none; fill-opacity:0" cx="349.043" cy="1482.73" r="2"/>
<circle clip-path="url(#clip672)" style="fill:#e26f46; stroke:none; fill-opacity:0" cx="387.099" cy="1471.59" r="2"/>
<circle clip-path="url(#clip672)" style="fill:#e26f46; stroke:none; fill-opacity:0" cx="425.155" cy="1486.45" r="2"/>
<circle clip-path="url(#clip672)" style="fill:#e26f46; stroke:none; fill-opacity:0" cx="463.211" cy="1473.45" r="2"/>
<circle clip-path="url(#clip672)" style="fill:#e26f46; stroke:none; fill-opacity:0" cx="501.267" cy="1453.02" r="2"/>
<circle clip-path="url(#clip672)" style="fill:#e26f46; stroke:none; fill-opacity:0" cx="539.323" cy="1427.02" r="2"/>
<circle clip-path="url(#clip672)" style="fill:#e26f46; stroke:none; fill-opacity:0" cx="577.379" cy="1388.02" r="2"/>
<circle clip-path="url(#clip672)" style="fill:#e26f46; stroke:none; fill-opacity:0" cx="615.435" cy="1486.45" r="2"/>
<circle clip-path="url(#clip672)" style="fill:#e26f46; stroke:none; fill-opacity:0" cx="653.491" cy="1345.31" r="2"/>
<circle clip-path="url(#clip672)" style="fill:#e26f46; stroke:none; fill-opacity:0" cx="691.547" cy="1272.89" r="2"/>
<circle clip-path="url(#clip672)" style="fill:#e26f46; stroke:none; fill-opacity:0" cx="729.603" cy="1185.61" r="2"/>
<circle clip-path="url(#clip672)" style="fill:#e26f46; stroke:none; fill-opacity:0" cx="767.658" cy="955.335" r="2"/>
<circle clip-path="url(#clip672)" style="fill:#e26f46; stroke:none; fill-opacity:0" cx="805.714" cy="777.06" r="2"/>
<circle clip-path="url(#clip672)" style="fill:#e26f46; stroke:none; fill-opacity:0" cx="843.77" cy="1486.45" r="2"/>
<circle clip-path="url(#clip672)" style="fill:#e26f46; stroke:none; fill-opacity:0" cx="881.826" cy="706.492" r="2"/>
<circle clip-path="url(#clip672)" style="fill:#e26f46; stroke:none; fill-opacity:0" cx="919.882" cy="478.077" r="2"/>
<circle clip-path="url(#clip672)" style="fill:#e26f46; stroke:none; fill-opacity:0" cx="957.938" cy="323.943" r="2"/>
<circle clip-path="url(#clip672)" style="fill:#e26f46; stroke:none; fill-opacity:0" cx="995.994" cy="89.9559" r="2"/>
<circle clip-path="url(#clip672)" style="fill:#e26f46; stroke:none; fill-opacity:0" cx="1034.05" cy="1486.45" r="2"/>
<circle clip-path="url(#clip672)" style="fill:#e26f46; stroke:none; fill-opacity:0" cx="1072.11" cy="60.2434" r="2"/>
<circle clip-path="url(#clip672)" style="fill:#e26f46; stroke:none; fill-opacity:0" cx="1110.16" cy="93.67" r="2"/>
<circle clip-path="url(#clip672)" style="fill:#e26f46; stroke:none; fill-opacity:0" cx="1148.22" cy="47.2441" r="2"/>
<circle clip-path="url(#clip672)" style="fill:#e26f46; stroke:none; fill-opacity:0" cx="1186.27" cy="80.6708" r="2"/>
<circle clip-path="url(#clip672)" style="fill:#e26f46; stroke:none; fill-opacity:0" cx="1224.33" cy="1486.45" r="2"/>
<circle clip-path="url(#clip672)" style="fill:#e26f46; stroke:none; fill-opacity:0" cx="1262.39" cy="136.382" r="2"/>
<circle clip-path="url(#clip672)" style="fill:#e26f46; stroke:none; fill-opacity:0" cx="1300.44" cy="359.226" r="2"/>
<circle clip-path="url(#clip672)" style="fill:#e26f46; stroke:none; fill-opacity:0" cx="1338.5" cy="518.932" r="2"/>
<circle clip-path="url(#clip672)" style="fill:#e26f46; stroke:none; fill-opacity:0" cx="1376.55" cy="693.493" r="2"/>
<circle clip-path="url(#clip672)" style="fill:#e26f46; stroke:none; fill-opacity:0" cx="1414.61" cy="851.341" r="2"/>
<circle clip-path="url(#clip672)" style="fill:#e26f46; stroke:none; fill-opacity:0" cx="1452.66" cy="1486.45" r="2"/>
<circle clip-path="url(#clip672)" style="fill:#e26f46; stroke:none; fill-opacity:0" cx="1490.72" cy="1016.62" r="2"/>
<circle clip-path="url(#clip672)" style="fill:#e26f46; stroke:none; fill-opacity:0" cx="1528.78" cy="1129.9" r="2"/>
<circle clip-path="url(#clip672)" style="fill:#e26f46; stroke:none; fill-opacity:0" cx="1566.83" cy="1209.75" r="2"/>
<circle clip-path="url(#clip672)" style="fill:#e26f46; stroke:none; fill-opacity:0" cx="1604.89" cy="1297.03" r="2"/>
<circle clip-path="url(#clip672)" style="fill:#e26f46; stroke:none; fill-opacity:0" cx="1642.94" cy="1486.45" r="2"/>
<circle clip-path="url(#clip672)" style="fill:#e26f46; stroke:none; fill-opacity:0" cx="1681" cy="1373.17" r="2"/>
<circle clip-path="url(#clip672)" style="fill:#e26f46; stroke:none; fill-opacity:0" cx="1719.06" cy="1419.59" r="2"/>
<circle clip-path="url(#clip672)" style="fill:#e26f46; stroke:none; fill-opacity:0" cx="1757.11" cy="1436.31" r="2"/>
<circle clip-path="url(#clip672)" style="fill:#e26f46; stroke:none; fill-opacity:0" cx="1795.17" cy="1460.45" r="2"/>
<circle clip-path="url(#clip672)" style="fill:#e26f46; stroke:none; fill-opacity:0" cx="1833.22" cy="1486.45" r="2"/>
<circle clip-path="url(#clip672)" style="fill:#e26f46; stroke:none; fill-opacity:0" cx="1871.28" cy="1477.16" r="2"/>
<circle clip-path="url(#clip672)" style="fill:#e26f46; stroke:none; fill-opacity:0" cx="1909.34" cy="1484.59" r="2"/>
<circle clip-path="url(#clip672)" style="fill:#e26f46; stroke:none; fill-opacity:0" cx="1947.39" cy="1484.59" r="2"/>
<circle clip-path="url(#clip672)" style="fill:#e26f46; stroke:none; fill-opacity:0" cx="1985.45" cy="1486.45" r="2"/>
<circle clip-path="url(#clip672)" style="fill:#e26f46; stroke:none; fill-opacity:0" cx="2023.5" cy="1486.45" r="2"/>
<circle clip-path="url(#clip672)" style="fill:#e26f46; stroke:none; fill-opacity:0" cx="2061.56" cy="1484.59" r="2"/>
<circle clip-path="url(#clip672)" style="fill:#e26f46; stroke:none; fill-opacity:0" cx="2099.62" cy="1486.45" r="2"/>
<circle clip-path="url(#clip672)" style="fill:#e26f46; stroke:none; fill-opacity:0" cx="2137.67" cy="1486.45" r="2"/>
<circle clip-path="url(#clip672)" style="fill:#e26f46; stroke:none; fill-opacity:0" cx="2175.73" cy="1486.45" r="2"/>
<circle clip-path="url(#clip672)" style="fill:#e26f46; stroke:none; fill-opacity:0" cx="2213.78" cy="1484.59" r="2"/>
<path clip-path="url(#clip670)" d="M1812.25 250.738 L2280.06 250.738 L2280.06 95.2176 L1812.25 95.2176  Z" fill="#ffffff" fill-rule="evenodd" fill-opacity="1"/>
<polyline clip-path="url(#clip670)" style="stroke:#000000; stroke-linecap:round; stroke-linejoin:round; stroke-width:4; stroke-opacity:1; fill:none" points="1812.25,250.738 2280.06,250.738 2280.06,95.2176 1812.25,95.2176 1812.25,250.738 "/>
<path clip-path="url(#clip670)" d="M1836.48 167.794 L1981.86 167.794 L1981.86 126.322 L1836.48 126.322 L1836.48 167.794  Z" fill="#009af9" fill-rule="evenodd" fill-opacity="1"/>
<polyline clip-path="url(#clip670)" style="stroke:#000000; stroke-linecap:round; stroke-linejoin:round; stroke-width:4; stroke-opacity:1; fill:none" points="1836.48,167.794 1981.86,167.794 1981.86,126.322 1836.48,126.322 1836.48,167.794 "/>
<path clip-path="url(#clip670)" d="M2006.09 129.778 L2013.06 129.778 L2021.88 153.296 L2030.74 129.778 L2037.71 129.778 L2037.71 164.338 L2033.15 164.338 L2033.15 133.99 L2024.24 157.694 L2019.54 157.694 L2010.63 133.99 L2010.63 164.338 L2006.09 164.338 L2006.09 129.778 Z" fill="#000000" fill-rule="nonzero" fill-opacity="1" /><path clip-path="url(#clip670)" d="M2068.98 150.31 L2068.98 152.393 L2049.4 152.393 Q2049.68 156.791 2052.04 159.106 Q2054.42 161.398 2058.66 161.398 Q2061.11 161.398 2063.4 160.796 Q2065.72 160.194 2067.99 158.99 L2067.99 163.018 Q2065.7 163.99 2063.29 164.5 Q2060.88 165.009 2058.4 165.009 Q2052.2 165.009 2048.57 161.398 Q2044.96 157.787 2044.96 151.629 Q2044.96 145.264 2048.38 141.537 Q2051.83 137.787 2057.66 137.787 Q2062.9 137.787 2065.93 141.166 Q2068.98 144.523 2068.98 150.31 M2064.72 149.06 Q2064.68 145.565 2062.76 143.481 Q2060.86 141.398 2057.71 141.398 Q2054.15 141.398 2051.99 143.412 Q2049.86 145.426 2049.54 149.083 L2064.72 149.06 Z" fill="#000000" fill-rule="nonzero" fill-opacity="1" /><path clip-path="url(#clip670)" d="M2093.03 142.347 L2093.03 128.319 L2097.29 128.319 L2097.29 164.338 L2093.03 164.338 L2093.03 160.449 Q2091.69 162.763 2089.63 163.898 Q2087.59 165.009 2084.72 165.009 Q2080.02 165.009 2077.06 161.259 Q2074.12 157.509 2074.12 151.398 Q2074.12 145.287 2077.06 141.537 Q2080.02 137.787 2084.72 137.787 Q2087.59 137.787 2089.63 138.921 Q2091.69 140.032 2093.03 142.347 M2078.52 151.398 Q2078.52 156.097 2080.44 158.782 Q2082.39 161.444 2085.77 161.444 Q2089.15 161.444 2091.09 158.782 Q2093.03 156.097 2093.03 151.398 Q2093.03 146.699 2091.09 144.037 Q2089.15 141.352 2085.77 141.352 Q2082.39 141.352 2080.44 144.037 Q2078.52 146.699 2078.52 151.398 Z" fill="#000000" fill-rule="nonzero" fill-opacity="1" /><path clip-path="url(#clip670)" d="M2106.07 138.412 L2110.33 138.412 L2110.33 164.338 L2106.07 164.338 L2106.07 138.412 M2106.07 128.319 L2110.33 128.319 L2110.33 133.713 L2106.07 133.713 L2106.07 128.319 Z" fill="#000000" fill-rule="nonzero" fill-opacity="1" /><path clip-path="url(#clip670)" d="M2131.02 151.305 Q2125.86 151.305 2123.87 152.486 Q2121.88 153.666 2121.88 156.514 Q2121.88 158.782 2123.36 160.125 Q2124.86 161.444 2127.43 161.444 Q2130.97 161.444 2133.1 158.944 Q2135.26 156.421 2135.26 152.254 L2135.26 151.305 L2131.02 151.305 M2139.52 149.546 L2139.52 164.338 L2135.26 164.338 L2135.26 160.402 Q2133.8 162.763 2131.62 163.898 Q2129.45 165.009 2126.3 165.009 Q2122.32 165.009 2119.96 162.787 Q2117.62 160.541 2117.62 156.791 Q2117.62 152.416 2120.53 150.194 Q2123.47 147.972 2129.28 147.972 L2135.26 147.972 L2135.26 147.555 Q2135.26 144.615 2133.31 143.018 Q2131.39 141.398 2127.89 141.398 Q2125.67 141.398 2123.57 141.93 Q2121.46 142.463 2119.52 143.527 L2119.52 139.592 Q2121.85 138.69 2124.05 138.25 Q2126.25 137.787 2128.33 137.787 Q2133.96 137.787 2136.74 140.703 Q2139.52 143.62 2139.52 149.546 Z" fill="#000000" fill-rule="nonzero" fill-opacity="1" /><path clip-path="url(#clip670)" d="M1836.48 219.634 L1981.86 219.634 L1981.86 178.162 L1836.48 178.162 L1836.48 219.634  Z" fill="#e26f46" fill-rule="evenodd" fill-opacity="1"/>
<polyline clip-path="url(#clip670)" style="stroke:#000000; stroke-linecap:round; stroke-linejoin:round; stroke-width:4; stroke-opacity:1; fill:none" points="1836.48,219.634 1981.86,219.634 1981.86,178.162 1836.48,178.162 1836.48,219.634 "/>
<path clip-path="url(#clip670)" d="M2006.09 181.618 L2010.77 181.618 L2010.77 195.784 L2027.76 195.784 L2027.76 181.618 L2032.43 181.618 L2032.43 216.178 L2027.76 216.178 L2027.76 199.719 L2010.77 199.719 L2010.77 216.178 L2006.09 216.178 L2006.09 181.618 Z" fill="#000000" fill-rule="nonzero" fill-opacity="1" /><path clip-path="url(#clip670)" d="M2041.55 190.252 L2045.81 190.252 L2045.81 216.178 L2041.55 216.178 L2041.55 190.252 M2041.55 180.159 L2045.81 180.159 L2045.81 185.553 L2041.55 185.553 L2041.55 180.159 Z" fill="#000000" fill-rule="nonzero" fill-opacity="1" /><path clip-path="url(#clip670)" d="M2058.94 182.891 L2058.94 190.252 L2067.71 190.252 L2067.71 193.562 L2058.94 193.562 L2058.94 207.636 Q2058.94 210.807 2059.79 211.71 Q2060.67 212.613 2063.34 212.613 L2067.71 212.613 L2067.71 216.178 L2063.34 216.178 Q2058.4 216.178 2056.53 214.349 Q2054.65 212.497 2054.65 207.636 L2054.65 193.562 L2051.53 193.562 L2051.53 190.252 L2054.65 190.252 L2054.65 182.891 L2058.94 182.891 Z" fill="#000000" fill-rule="nonzero" fill-opacity="1" /><path clip-path="url(#clip670)" d="M2071.16 201.293 L2083.64 201.293 L2083.64 205.09 L2071.16 205.09 L2071.16 201.293 Z" fill="#000000" fill-rule="nonzero" fill-opacity="1" /><path clip-path="url(#clip670)" d="M2101.34 193.238 Q2097.92 193.238 2095.93 195.923 Q2093.94 198.585 2093.94 203.238 Q2093.94 207.891 2095.9 210.576 Q2097.9 213.238 2101.34 213.238 Q2104.75 213.238 2106.74 210.553 Q2108.73 207.867 2108.73 203.238 Q2108.73 198.631 2106.74 195.946 Q2104.75 193.238 2101.34 193.238 M2101.34 189.627 Q2106.9 189.627 2110.07 193.238 Q2113.24 196.849 2113.24 203.238 Q2113.24 209.604 2110.07 213.238 Q2106.9 216.849 2101.34 216.849 Q2095.77 216.849 2092.59 213.238 Q2089.45 209.604 2089.45 203.238 Q2089.45 196.849 2092.59 193.238 Q2095.77 189.627 2101.34 189.627 Z" fill="#000000" fill-rule="nonzero" fill-opacity="1" /><path clip-path="url(#clip670)" d="M2135.33 194.233 Q2134.61 193.817 2133.75 193.631 Q2132.92 193.423 2131.9 193.423 Q2128.29 193.423 2126.34 195.784 Q2124.42 198.122 2124.42 202.52 L2124.42 216.178 L2120.14 216.178 L2120.14 190.252 L2124.42 190.252 L2124.42 194.28 Q2125.77 191.918 2127.92 190.784 Q2130.07 189.627 2133.15 189.627 Q2133.59 189.627 2134.12 189.696 Q2134.65 189.743 2135.3 189.858 L2135.33 194.233 Z" fill="#000000" fill-rule="nonzero" fill-opacity="1" /><path clip-path="url(#clip670)" d="M2134.61 201.293 L2147.08 201.293 L2147.08 205.09 L2134.61 205.09 L2134.61 201.293 Z" fill="#000000" fill-rule="nonzero" fill-opacity="1" /><path clip-path="url(#clip670)" d="M2174.05 195.229 Q2175.65 192.358 2177.87 190.993 Q2180.09 189.627 2183.1 189.627 Q2187.15 189.627 2189.35 192.474 Q2191.55 195.298 2191.55 200.529 L2191.55 216.178 L2187.27 216.178 L2187.27 200.668 Q2187.27 196.942 2185.95 195.136 Q2184.63 193.33 2181.92 193.33 Q2178.61 193.33 2176.69 195.53 Q2174.77 197.729 2174.77 201.525 L2174.77 216.178 L2170.49 216.178 L2170.49 200.668 Q2170.49 196.918 2169.17 195.136 Q2167.85 193.33 2165.09 193.33 Q2161.83 193.33 2159.91 195.553 Q2157.99 197.752 2157.99 201.525 L2157.99 216.178 L2153.7 216.178 L2153.7 190.252 L2157.99 190.252 L2157.99 194.28 Q2159.45 191.895 2161.48 190.761 Q2163.52 189.627 2166.32 189.627 Q2169.14 189.627 2171.11 191.062 Q2173.1 192.497 2174.05 195.229 Z" fill="#000000" fill-rule="nonzero" fill-opacity="1" /><path clip-path="url(#clip670)" d="M2200.05 190.252 L2204.31 190.252 L2204.31 216.178 L2200.05 216.178 L2200.05 190.252 M2200.05 180.159 L2204.31 180.159 L2204.31 185.553 L2200.05 185.553 L2200.05 180.159 Z" fill="#000000" fill-rule="nonzero" fill-opacity="1" /><path clip-path="url(#clip670)" d="M2229.75 191.016 L2229.75 195.043 Q2227.94 194.117 2226 193.655 Q2224.05 193.192 2221.97 193.192 Q2218.8 193.192 2217.2 194.164 Q2215.63 195.136 2215.63 197.08 Q2215.63 198.562 2216.76 199.418 Q2217.89 200.252 2221.32 201.016 L2222.78 201.34 Q2227.32 202.312 2229.21 204.094 Q2231.14 205.854 2231.14 209.025 Q2231.14 212.636 2228.26 214.742 Q2225.42 216.849 2220.42 216.849 Q2218.33 216.849 2216.07 216.432 Q2213.82 216.039 2211.32 215.228 L2211.32 210.83 Q2213.68 212.057 2215.97 212.682 Q2218.26 213.284 2220.51 213.284 Q2223.52 213.284 2225.14 212.266 Q2226.76 211.224 2226.76 209.349 Q2226.76 207.613 2225.58 206.687 Q2224.42 205.761 2220.46 204.904 L2218.98 204.557 Q2215.02 203.724 2213.26 202.011 Q2211.51 200.275 2211.51 197.266 Q2211.51 193.608 2214.1 191.618 Q2216.69 189.627 2221.46 189.627 Q2223.82 189.627 2225.9 189.974 Q2227.99 190.321 2229.75 191.016 Z" fill="#000000" fill-rule="nonzero" fill-opacity="1" /><path clip-path="url(#clip670)" d="M2254.45 191.016 L2254.45 195.043 Q2252.64 194.117 2250.7 193.655 Q2248.75 193.192 2246.67 193.192 Q2243.5 193.192 2241.9 194.164 Q2240.32 195.136 2240.32 197.08 Q2240.32 198.562 2241.46 199.418 Q2242.59 200.252 2246.02 201.016 L2247.48 201.34 Q2252.01 202.312 2253.91 204.094 Q2255.83 205.854 2255.83 209.025 Q2255.83 212.636 2252.96 214.742 Q2250.12 216.849 2245.12 216.849 Q2243.03 216.849 2240.76 216.432 Q2238.52 216.039 2236.02 215.228 L2236.02 210.83 Q2238.38 212.057 2240.67 212.682 Q2242.96 213.284 2245.21 213.284 Q2248.22 213.284 2249.84 212.266 Q2251.46 211.224 2251.46 209.349 Q2251.46 207.613 2250.28 206.687 Q2249.12 205.761 2245.16 204.904 L2243.68 204.557 Q2239.72 203.724 2237.96 202.011 Q2236.2 200.275 2236.2 197.266 Q2236.2 193.608 2238.8 191.618 Q2241.39 189.627 2246.16 189.627 Q2248.52 189.627 2250.6 189.974 Q2252.69 190.321 2254.45 191.016 Z" fill="#000000" fill-rule="nonzero" fill-opacity="1" /></svg>
