<?xml version="1.0" encoding="utf-8"?>
<svg xmlns="http://www.w3.org/2000/svg" xmlns:xlink="http://www.w3.org/1999/xlink" width="600" height="400" viewBox="0 0 2400 1600">
<defs>
  <clipPath id="clip780">
    <rect x="0" y="0" width="2400" height="1600"/>
  </clipPath>
</defs>
<path clip-path="url(#clip780)" d="M0 1600 L2400 1600 L2400 0 L0 0  Z" fill="#ffffff" fill-rule="evenodd" fill-opacity="1"/>
<defs>
  <clipPath id="clip781">
    <rect x="480" y="0" width="1681" height="1600"/>
  </clipPath>
</defs>
<path clip-path="url(#clip780)" d="M172.015 1486.45 L2352.76 1486.45 L2352.76 47.2441 L172.015 47.2441  Z" fill="#ffffff" fill-rule="evenodd" fill-opacity="1"/>
<defs>
  <clipPath id="clip782">
    <rect x="172" y="47" width="2182" height="1440"/>
  </clipPath>
</defs>
<polyline clip-path="url(#clip782)" style="stroke:#000000; stroke-linecap:round; stroke-linejoin:round; stroke-width:2; stroke-opacity:0.1; fill:none" points="465.25,1486.45 465.25,47.2441 "/>
<polyline clip-path="url(#clip782)" style="stroke:#000000; stroke-linecap:round; stroke-linejoin:round; stroke-width:2; stroke-opacity:0.1; fill:none" points="898.476,1486.45 898.476,47.2441 "/>
<polyline clip-path="url(#clip782)" style="stroke:#000000; stroke-linecap:round; stroke-linejoin:round; stroke-width:2; stroke-opacity:0.1; fill:none" points="1331.7,1486.45 1331.7,47.2441 "/>
<polyline clip-path="url(#clip782)" style="stroke:#000000; stroke-linecap:round; stroke-linejoin:round; stroke-width:2; stroke-opacity:0.1; fill:none" points="1764.93,1486.45 1764.93,47.2441 "/>
<polyline clip-path="url(#clip782)" style="stroke:#000000; stroke-linecap:round; stroke-linejoin:round; stroke-width:2; stroke-opacity:0.1; fill:none" points="2198.15,1486.45 2198.15,47.2441 "/>
<polyline clip-path="url(#clip782)" style="stroke:#000000; stroke-linecap:round; stroke-linejoin:round; stroke-width:2; stroke-opacity:0.1; fill:none" points="172.015,1486.45 2352.76,1486.45 "/>
<polyline clip-path="url(#clip782)" style="stroke:#000000; stroke-linecap:round; stroke-linejoin:round; stroke-width:2; stroke-opacity:0.1; fill:none" points="172.015,1135.85 2352.76,1135.85 "/>
<polyline clip-path="url(#clip782)" style="stroke:#000000; stroke-linecap:round; stroke-linejoin:round; stroke-width:2; stroke-opacity:0.1; fill:none" points="172.015,785.252 2352.76,785.252 "/>
<polyline clip-path="url(#clip782)" style="stroke:#000000; stroke-linecap:round; stroke-linejoin:round; stroke-width:2; stroke-opacity:0.1; fill:none" points="172.015,434.655 2352.76,434.655 "/>
<polyline clip-path="url(#clip782)" style="stroke:#000000; stroke-linecap:round; stroke-linejoin:round; stroke-width:2; stroke-opacity:0.1; fill:none" points="172.015,84.0569 2352.76,84.0569 "/>
<polyline clip-path="url(#clip780)" style="stroke:#000000; stroke-linecap:round; stroke-linejoin:round; stroke-width:4; stroke-opacity:1; fill:none" points="172.015,1486.45 2352.76,1486.45 "/>
<polyline clip-path="url(#clip780)" style="stroke:#000000; stroke-linecap:round; stroke-linejoin:round; stroke-width:4; stroke-opacity:1; fill:none" points="465.25,1486.45 465.25,1467.55 "/>
<polyline clip-path="url(#clip780)" style="stroke:#000000; stroke-linecap:round; stroke-linejoin:round; stroke-width:4; stroke-opacity:1; fill:none" points="898.476,1486.45 898.476,1467.55 "/>
<polyline clip-path="url(#clip780)" style="stroke:#000000; stroke-linecap:round; stroke-linejoin:round; stroke-width:4; stroke-opacity:1; fill:none" points="1331.7,1486.45 1331.7,1467.55 "/>
<polyline clip-path="url(#clip780)" style="stroke:#000000; stroke-linecap:round; stroke-linejoin:round; stroke-width:4; stroke-opacity:1; fill:none" points="1764.93,1486.45 1764.93,1467.55 "/>
<polyline clip-path="url(#clip780)" style="stroke:#000000; stroke-linecap:round; stroke-linejoin:round; stroke-width:4; stroke-opacity:1; fill:none" points="2198.15,1486.45 2198.15,1467.55 "/>
<path clip-path="url(#clip780)" d="M417.322 1544.91 L424.961 1544.91 L424.961 1518.55 L416.651 1520.21 L416.651 1515.95 L424.914 1514.29 L429.59 1514.29 L429.59 1544.91 L437.229 1544.91 L437.229 1548.85 L417.322 1548.85 L417.322 1544.91 Z" fill="#000000" fill-rule="nonzero" fill-opacity="1" /><path clip-path="url(#clip780)" d="M446.674 1542.97 L451.558 1542.97 L451.558 1548.85 L446.674 1548.85 L446.674 1542.97 Z" fill="#000000" fill-rule="nonzero" fill-opacity="1" /><path clip-path="url(#clip780)" d="M461.789 1514.29 L480.146 1514.29 L480.146 1518.22 L466.072 1518.22 L466.072 1526.7 Q467.09 1526.35 468.109 1526.19 Q469.127 1526 470.146 1526 Q475.933 1526 479.312 1529.17 Q482.692 1532.34 482.692 1537.76 Q482.692 1543.34 479.22 1546.44 Q475.747 1549.52 469.428 1549.52 Q467.252 1549.52 464.984 1549.15 Q462.738 1548.78 460.331 1548.04 L460.331 1543.34 Q462.414 1544.47 464.636 1545.03 Q466.859 1545.58 469.335 1545.58 Q473.34 1545.58 475.678 1543.48 Q478.016 1541.37 478.016 1537.76 Q478.016 1534.15 475.678 1532.04 Q473.34 1529.94 469.335 1529.94 Q467.46 1529.94 465.585 1530.35 Q463.734 1530.77 461.789 1531.65 L461.789 1514.29 Z" fill="#000000" fill-rule="nonzero" fill-opacity="1" /><path clip-path="url(#clip780)" d="M501.905 1517.37 Q498.294 1517.37 496.465 1520.93 Q494.659 1524.47 494.659 1531.6 Q494.659 1538.71 496.465 1542.27 Q498.294 1545.82 501.905 1545.82 Q505.539 1545.82 507.344 1542.27 Q509.173 1538.71 509.173 1531.6 Q509.173 1524.47 507.344 1520.93 Q505.539 1517.37 501.905 1517.37 M501.905 1513.66 Q507.715 1513.66 510.77 1518.27 Q513.849 1522.85 513.849 1531.6 Q513.849 1540.33 510.77 1544.94 Q507.715 1549.52 501.905 1549.52 Q496.095 1549.52 493.016 1544.94 Q489.96 1540.33 489.96 1531.6 Q489.96 1522.85 493.016 1518.27 Q496.095 1513.66 501.905 1513.66 Z" fill="#000000" fill-rule="nonzero" fill-opacity="1" /><path clip-path="url(#clip780)" d="M851.045 1544.91 L858.684 1544.91 L858.684 1518.55 L850.374 1520.21 L850.374 1515.95 L858.638 1514.29 L863.314 1514.29 L863.314 1544.91 L870.953 1544.91 L870.953 1548.85 L851.045 1548.85 L851.045 1544.91 Z" fill="#000000" fill-rule="nonzero" fill-opacity="1" /><path clip-path="url(#clip780)" d="M880.397 1542.97 L885.281 1542.97 L885.281 1548.85 L880.397 1548.85 L880.397 1542.97 Z" fill="#000000" fill-rule="nonzero" fill-opacity="1" /><path clip-path="url(#clip780)" d="M894.286 1514.29 L916.508 1514.29 L916.508 1516.28 L903.962 1548.85 L899.077 1548.85 L910.883 1518.22 L894.286 1518.22 L894.286 1514.29 Z" fill="#000000" fill-rule="nonzero" fill-opacity="1" /><path clip-path="url(#clip780)" d="M925.675 1514.29 L944.031 1514.29 L944.031 1518.22 L929.957 1518.22 L929.957 1526.7 Q930.975 1526.35 931.994 1526.19 Q933.013 1526 934.031 1526 Q939.818 1526 943.198 1529.17 Q946.577 1532.34 946.577 1537.76 Q946.577 1543.34 943.105 1546.44 Q939.633 1549.52 933.313 1549.52 Q931.138 1549.52 928.869 1549.15 Q926.624 1548.78 924.216 1548.04 L924.216 1543.34 Q926.3 1544.47 928.522 1545.03 Q930.744 1545.58 933.221 1545.58 Q937.225 1545.58 939.563 1543.48 Q941.901 1541.37 941.901 1537.76 Q941.901 1534.15 939.563 1532.04 Q937.225 1529.94 933.221 1529.94 Q931.346 1529.94 929.471 1530.35 Q927.619 1530.77 925.675 1531.65 L925.675 1514.29 Z" fill="#000000" fill-rule="nonzero" fill-opacity="1" /><path clip-path="url(#clip780)" d="M1287.86 1544.91 L1304.18 1544.91 L1304.18 1548.85 L1282.23 1548.85 L1282.23 1544.91 Q1284.9 1542.16 1289.48 1537.53 Q1294.09 1532.88 1295.27 1531.53 Q1297.51 1529.01 1298.39 1527.27 Q1299.29 1525.51 1299.29 1523.82 Q1299.29 1521.07 1297.35 1519.33 Q1295.43 1517.6 1292.33 1517.6 Q1290.13 1517.6 1287.67 1518.36 Q1285.24 1519.13 1282.47 1520.68 L1282.47 1515.95 Q1285.29 1514.82 1287.74 1514.24 Q1290.2 1513.66 1292.23 1513.66 Q1297.6 1513.66 1300.8 1516.35 Q1303.99 1519.03 1303.99 1523.52 Q1303.99 1525.65 1303.18 1527.57 Q1302.4 1529.47 1300.29 1532.07 Q1299.71 1532.74 1296.61 1535.95 Q1293.51 1539.15 1287.86 1544.91 Z" fill="#000000" fill-rule="nonzero" fill-opacity="1" /><path clip-path="url(#clip780)" d="M1313.99 1542.97 L1318.88 1542.97 L1318.88 1548.85 L1313.99 1548.85 L1313.99 1542.97 Z" fill="#000000" fill-rule="nonzero" fill-opacity="1" /><path clip-path="url(#clip780)" d="M1339.06 1517.37 Q1335.45 1517.37 1333.62 1520.93 Q1331.82 1524.47 1331.82 1531.6 Q1331.82 1538.71 1333.62 1542.27 Q1335.45 1545.82 1339.06 1545.82 Q1342.7 1545.82 1344.5 1542.27 Q1346.33 1538.71 1346.33 1531.6 Q1346.33 1524.47 1344.5 1520.93 Q1342.7 1517.37 1339.06 1517.37 M1339.06 1513.66 Q1344.87 1513.66 1347.93 1518.27 Q1351.01 1522.85 1351.01 1531.6 Q1351.01 1540.33 1347.93 1544.94 Q1344.87 1549.52 1339.06 1549.52 Q1333.25 1549.52 1330.17 1544.94 Q1327.12 1540.33 1327.12 1531.6 Q1327.12 1522.85 1330.17 1518.27 Q1333.25 1513.66 1339.06 1513.66 Z" fill="#000000" fill-rule="nonzero" fill-opacity="1" /><path clip-path="url(#clip780)" d="M1369.22 1517.37 Q1365.61 1517.37 1363.78 1520.93 Q1361.98 1524.47 1361.98 1531.6 Q1361.98 1538.71 1363.78 1542.27 Q1365.61 1545.82 1369.22 1545.82 Q1372.86 1545.82 1374.66 1542.27 Q1376.49 1538.71 1376.49 1531.6 Q1376.49 1524.47 1374.66 1520.93 Q1372.86 1517.37 1369.22 1517.37 M1369.22 1513.66 Q1375.03 1513.66 1378.09 1518.27 Q1381.17 1522.85 1381.17 1531.6 Q1381.17 1540.33 1378.09 1544.94 Q1375.03 1549.52 1369.22 1549.52 Q1363.41 1549.52 1360.34 1544.94 Q1357.28 1540.33 1357.28 1531.6 Q1357.28 1522.85 1360.34 1518.27 Q1363.41 1513.66 1369.22 1513.66 Z" fill="#000000" fill-rule="nonzero" fill-opacity="1" /><path clip-path="url(#clip780)" d="M1721.58 1544.91 L1737.9 1544.91 L1737.9 1548.85 L1715.96 1548.85 L1715.96 1544.91 Q1718.62 1542.16 1723.2 1537.53 Q1727.81 1532.88 1728.99 1531.53 Q1731.24 1529.01 1732.12 1527.27 Q1733.02 1525.51 1733.02 1523.82 Q1733.02 1521.07 1731.07 1519.33 Q1729.15 1517.6 1726.05 1517.6 Q1723.85 1517.6 1721.4 1518.36 Q1718.97 1519.13 1716.19 1520.68 L1716.19 1515.95 Q1719.01 1514.82 1721.47 1514.24 Q1723.92 1513.66 1725.96 1513.66 Q1731.33 1513.66 1734.52 1516.35 Q1737.72 1519.03 1737.72 1523.52 Q1737.72 1525.65 1736.91 1527.57 Q1736.12 1529.47 1734.01 1532.07 Q1733.43 1532.74 1730.33 1535.95 Q1727.23 1539.15 1721.58 1544.91 Z" fill="#000000" fill-rule="nonzero" fill-opacity="1" /><path clip-path="url(#clip780)" d="M1747.72 1542.97 L1752.6 1542.97 L1752.6 1548.85 L1747.72 1548.85 L1747.72 1542.97 Z" fill="#000000" fill-rule="nonzero" fill-opacity="1" /><path clip-path="url(#clip780)" d="M1766.81 1544.91 L1783.13 1544.91 L1783.13 1548.85 L1761.19 1548.85 L1761.19 1544.91 Q1763.85 1542.16 1768.43 1537.53 Q1773.04 1532.88 1774.22 1531.53 Q1776.47 1529.01 1777.35 1527.27 Q1778.25 1525.51 1778.25 1523.82 Q1778.25 1521.07 1776.3 1519.33 Q1774.38 1517.6 1771.28 1517.6 Q1769.08 1517.6 1766.63 1518.36 Q1764.2 1519.13 1761.42 1520.68 L1761.42 1515.95 Q1764.24 1514.82 1766.7 1514.24 Q1769.15 1513.66 1771.19 1513.66 Q1776.56 1513.66 1779.75 1516.35 Q1782.95 1519.03 1782.95 1523.52 Q1782.95 1525.65 1782.14 1527.57 Q1781.35 1529.47 1779.24 1532.07 Q1778.67 1532.74 1775.56 1535.95 Q1772.46 1539.15 1766.81 1544.91 Z" fill="#000000" fill-rule="nonzero" fill-opacity="1" /><path clip-path="url(#clip780)" d="M1792.99 1514.29 L1811.35 1514.29 L1811.35 1518.22 L1797.28 1518.22 L1797.28 1526.7 Q1798.3 1526.35 1799.31 1526.19 Q1800.33 1526 1801.35 1526 Q1807.14 1526 1810.52 1529.17 Q1813.9 1532.34 1813.9 1537.76 Q1813.9 1543.34 1810.42 1546.44 Q1806.95 1549.52 1800.63 1549.52 Q1798.46 1549.52 1796.19 1549.15 Q1793.94 1548.78 1791.54 1548.04 L1791.54 1543.34 Q1793.62 1544.47 1795.84 1545.03 Q1798.06 1545.58 1800.54 1545.58 Q1804.55 1545.58 1806.88 1543.48 Q1809.22 1541.37 1809.22 1537.76 Q1809.22 1534.15 1806.88 1532.04 Q1804.55 1529.94 1800.54 1529.94 Q1798.67 1529.94 1796.79 1530.35 Q1794.94 1530.77 1792.99 1531.65 L1792.99 1514.29 Z" fill="#000000" fill-rule="nonzero" fill-opacity="1" /><path clip-path="url(#clip780)" d="M2154.31 1544.91 L2170.63 1544.91 L2170.63 1548.85 L2148.69 1548.85 L2148.69 1544.91 Q2151.35 1542.16 2155.93 1537.53 Q2160.54 1532.88 2161.72 1531.53 Q2163.96 1529.01 2164.84 1527.27 Q2165.75 1525.51 2165.75 1523.82 Q2165.75 1521.07 2163.8 1519.33 Q2161.88 1517.6 2158.78 1517.6 Q2156.58 1517.6 2154.13 1518.36 Q2151.7 1519.13 2148.92 1520.68 L2148.92 1515.95 Q2151.74 1514.82 2154.2 1514.24 Q2156.65 1513.66 2158.69 1513.66 Q2164.06 1513.66 2167.25 1516.35 Q2170.45 1519.03 2170.45 1523.52 Q2170.45 1525.65 2169.63 1527.57 Q2168.85 1529.47 2166.74 1532.07 Q2166.16 1532.74 2163.06 1535.95 Q2159.96 1539.15 2154.31 1544.91 Z" fill="#000000" fill-rule="nonzero" fill-opacity="1" /><path clip-path="url(#clip780)" d="M2180.44 1542.97 L2185.33 1542.97 L2185.33 1548.85 L2180.44 1548.85 L2180.44 1542.97 Z" fill="#000000" fill-rule="nonzero" fill-opacity="1" /><path clip-path="url(#clip780)" d="M2195.56 1514.29 L2213.92 1514.29 L2213.92 1518.22 L2199.84 1518.22 L2199.84 1526.7 Q2200.86 1526.35 2201.88 1526.19 Q2202.9 1526 2203.92 1526 Q2209.7 1526 2213.08 1529.17 Q2216.46 1532.34 2216.46 1537.76 Q2216.46 1543.34 2212.99 1546.44 Q2209.52 1549.52 2203.2 1549.52 Q2201.02 1549.52 2198.76 1549.15 Q2196.51 1548.78 2194.1 1548.04 L2194.1 1543.34 Q2196.19 1544.47 2198.41 1545.03 Q2200.63 1545.58 2203.11 1545.58 Q2207.11 1545.58 2209.45 1543.48 Q2211.79 1541.37 2211.79 1537.76 Q2211.79 1534.15 2209.45 1532.04 Q2207.11 1529.94 2203.11 1529.94 Q2201.23 1529.94 2199.36 1530.35 Q2197.51 1530.77 2195.56 1531.65 L2195.56 1514.29 Z" fill="#000000" fill-rule="nonzero" fill-opacity="1" /><path clip-path="url(#clip780)" d="M2235.68 1517.37 Q2232.07 1517.37 2230.24 1520.93 Q2228.43 1524.47 2228.43 1531.6 Q2228.43 1538.71 2230.24 1542.27 Q2232.07 1545.82 2235.68 1545.82 Q2239.31 1545.82 2241.12 1542.27 Q2242.94 1538.71 2242.94 1531.6 Q2242.94 1524.47 2241.12 1520.93 Q2239.31 1517.37 2235.68 1517.37 M2235.68 1513.66 Q2241.49 1513.66 2244.54 1518.27 Q2247.62 1522.85 2247.62 1531.6 Q2247.62 1540.33 2244.54 1544.94 Q2241.49 1549.52 2235.68 1549.52 Q2229.87 1549.52 2226.79 1544.94 Q2223.73 1540.33 2223.73 1531.6 Q2223.73 1522.85 2226.79 1518.27 Q2229.87 1513.66 2235.68 1513.66 Z" fill="#000000" fill-rule="nonzero" fill-opacity="1" /><polyline clip-path="url(#clip780)" style="stroke:#000000; stroke-linecap:round; stroke-linejoin:round; stroke-width:4; stroke-opacity:1; fill:none" points="172.015,1486.45 172.015,47.2441 "/>
<polyline clip-path="url(#clip780)" style="stroke:#000000; stroke-linecap:round; stroke-linejoin:round; stroke-width:4; stroke-opacity:1; fill:none" points="172.015,1486.45 190.912,1486.45 "/>
<polyline clip-path="url(#clip780)" style="stroke:#000000; stroke-linecap:round; stroke-linejoin:round; stroke-width:4; stroke-opacity:1; fill:none" points="172.015,1135.85 190.912,1135.85 "/>
<polyline clip-path="url(#clip780)" style="stroke:#000000; stroke-linecap:round; stroke-linejoin:round; stroke-width:4; stroke-opacity:1; fill:none" points="172.015,785.252 190.912,785.252 "/>
<polyline clip-path="url(#clip780)" style="stroke:#000000; stroke-linecap:round; stroke-linejoin:round; stroke-width:4; stroke-opacity:1; fill:none" points="172.015,434.655 190.912,434.655 "/>
<polyline clip-path="url(#clip780)" style="stroke:#000000; stroke-linecap:round; stroke-linejoin:round; stroke-width:4; stroke-opacity:1; fill:none" points="172.015,84.0569 190.912,84.0569 "/>
<path clip-path="url(#clip780)" d="M124.07 1472.25 Q120.459 1472.25 118.631 1475.81 Q116.825 1479.35 116.825 1486.48 Q116.825 1493.59 118.631 1497.15 Q120.459 1500.7 124.07 1500.7 Q127.705 1500.7 129.51 1497.15 Q131.339 1493.59 131.339 1486.48 Q131.339 1479.35 129.51 1475.81 Q127.705 1472.25 124.07 1472.25 M124.07 1468.54 Q129.881 1468.54 132.936 1473.15 Q136.015 1477.73 136.015 1486.48 Q136.015 1495.21 132.936 1499.82 Q129.881 1504.4 124.07 1504.4 Q118.26 1504.4 115.182 1499.82 Q112.126 1495.21 112.126 1486.48 Q112.126 1477.73 115.182 1473.15 Q118.26 1468.54 124.07 1468.54 Z" fill="#000000" fill-rule="nonzero" fill-opacity="1" /><path clip-path="url(#clip780)" d="M57.7745 1149.19 L74.0939 1149.19 L74.0939 1153.13 L52.1495 1153.13 L52.1495 1149.19 Q54.8115 1146.44 59.3949 1141.81 Q64.0013 1137.16 65.1819 1135.82 Q67.4272 1133.29 68.3068 1131.56 Q69.2096 1129.8 69.2096 1128.11 Q69.2096 1125.35 67.2652 1123.62 Q65.3439 1121.88 62.2421 1121.88 Q60.043 1121.88 57.5893 1122.64 Q55.1588 1123.41 52.381 1124.96 L52.381 1120.24 Q55.2051 1119.1 57.6588 1118.52 Q60.1124 1117.95 62.1495 1117.95 Q67.5198 1117.95 70.7142 1120.63 Q73.9087 1123.32 73.9087 1127.81 Q73.9087 1129.94 73.0985 1131.86 Q72.3115 1133.76 70.205 1136.35 Q69.6263 1137.02 66.5245 1140.24 Q63.4226 1143.43 57.7745 1149.19 Z" fill="#000000" fill-rule="nonzero" fill-opacity="1" /><path clip-path="url(#clip780)" d="M93.9086 1121.65 Q90.2975 1121.65 88.4688 1125.21 Q86.6632 1128.76 86.6632 1135.88 Q86.6632 1142.99 88.4688 1146.56 Q90.2975 1150.1 93.9086 1150.1 Q97.5428 1150.1 99.3483 1146.56 Q101.177 1142.99 101.177 1135.88 Q101.177 1128.76 99.3483 1125.21 Q97.5428 1121.65 93.9086 1121.65 M93.9086 1117.95 Q99.7187 1117.95 102.774 1122.55 Q105.853 1127.13 105.853 1135.88 Q105.853 1144.61 102.774 1149.22 Q99.7187 1153.8 93.9086 1153.8 Q88.0984 1153.8 85.0197 1149.22 Q81.9642 1144.61 81.9642 1135.88 Q81.9642 1127.13 85.0197 1122.55 Q88.0984 1117.95 93.9086 1117.95 Z" fill="#000000" fill-rule="nonzero" fill-opacity="1" /><path clip-path="url(#clip780)" d="M124.07 1121.65 Q120.459 1121.65 118.631 1125.21 Q116.825 1128.76 116.825 1135.88 Q116.825 1142.99 118.631 1146.56 Q120.459 1150.1 124.07 1150.1 Q127.705 1150.1 129.51 1146.56 Q131.339 1142.99 131.339 1135.88 Q131.339 1128.76 129.51 1125.21 Q127.705 1121.65 124.07 1121.65 M124.07 1117.95 Q129.881 1117.95 132.936 1122.55 Q136.015 1127.13 136.015 1135.88 Q136.015 1144.61 132.936 1149.22 Q129.881 1153.8 124.07 1153.8 Q118.26 1153.8 115.182 1149.22 Q112.126 1144.61 112.126 1135.88 Q112.126 1127.13 115.182 1122.55 Q118.26 1117.95 124.07 1117.95 Z" fill="#000000" fill-rule="nonzero" fill-opacity="1" /><path clip-path="url(#clip780)" d="M66.5939 772.046 L54.7884 790.495 L66.5939 790.495 L66.5939 772.046 M65.367 767.972 L71.2466 767.972 L71.2466 790.495 L76.1772 790.495 L76.1772 794.384 L71.2466 794.384 L71.2466 802.532 L66.5939 802.532 L66.5939 794.384 L50.9921 794.384 L50.9921 789.87 L65.367 767.972 Z" fill="#000000" fill-rule="nonzero" fill-opacity="1" /><path clip-path="url(#clip780)" d="M93.9086 771.051 Q90.2975 771.051 88.4688 774.616 Q86.6632 778.157 86.6632 785.287 Q86.6632 792.394 88.4688 795.958 Q90.2975 799.5 93.9086 799.5 Q97.5428 799.5 99.3483 795.958 Q101.177 792.394 101.177 785.287 Q101.177 778.157 99.3483 774.616 Q97.5428 771.051 93.9086 771.051 M93.9086 767.347 Q99.7187 767.347 102.774 771.954 Q105.853 776.537 105.853 785.287 Q105.853 794.014 102.774 798.62 Q99.7187 803.204 93.9086 803.204 Q88.0984 803.204 85.0197 798.62 Q81.9642 794.014 81.9642 785.287 Q81.9642 776.537 85.0197 771.954 Q88.0984 767.347 93.9086 767.347 Z" fill="#000000" fill-rule="nonzero" fill-opacity="1" /><path clip-path="url(#clip780)" d="M124.07 771.051 Q120.459 771.051 118.631 774.616 Q116.825 778.157 116.825 785.287 Q116.825 792.394 118.631 795.958 Q120.459 799.5 124.07 799.5 Q127.705 799.5 129.51 795.958 Q131.339 792.394 131.339 785.287 Q131.339 778.157 129.51 774.616 Q127.705 771.051 124.07 771.051 M124.07 767.347 Q129.881 767.347 132.936 771.954 Q136.015 776.537 136.015 785.287 Q136.015 794.014 132.936 798.62 Q129.881 803.204 124.07 803.204 Q118.26 803.204 115.182 798.62 Q112.126 794.014 112.126 785.287 Q112.126 776.537 115.182 771.954 Q118.26 767.347 124.07 767.347 Z" fill="#000000" fill-rule="nonzero" fill-opacity="1" /><path clip-path="url(#clip780)" d="M64.3254 432.791 Q61.1773 432.791 59.3254 434.944 Q57.4967 437.097 57.4967 440.847 Q57.4967 444.574 59.3254 446.749 Q61.1773 448.902 64.3254 448.902 Q67.4735 448.902 69.3022 446.749 Q71.1541 444.574 71.1541 440.847 Q71.1541 437.097 69.3022 434.944 Q67.4735 432.791 64.3254 432.791 M73.6077 418.138 L73.6077 422.398 Q71.8485 421.564 70.0429 421.125 Q68.2606 420.685 66.5013 420.685 Q61.8717 420.685 59.418 423.81 Q56.9875 426.935 56.6402 433.254 Q58.006 431.24 60.0662 430.175 Q62.1263 429.088 64.6032 429.088 Q69.8115 429.088 72.8207 432.259 Q75.8531 435.407 75.8531 440.847 Q75.8531 446.171 72.705 449.388 Q69.5568 452.606 64.3254 452.606 Q58.33 452.606 55.1588 448.023 Q51.9875 443.416 51.9875 434.689 Q51.9875 426.495 55.8764 421.634 Q59.7652 416.75 66.3161 416.75 Q68.0754 416.75 69.8578 417.097 Q71.6633 417.444 73.6077 418.138 Z" fill="#000000" fill-rule="nonzero" fill-opacity="1" /><path clip-path="url(#clip780)" d="M93.9086 420.453 Q90.2975 420.453 88.4688 424.018 Q86.6632 427.56 86.6632 434.689 Q86.6632 441.796 88.4688 445.361 Q90.2975 448.902 93.9086 448.902 Q97.5428 448.902 99.3483 445.361 Q101.177 441.796 101.177 434.689 Q101.177 427.56 99.3483 424.018 Q97.5428 420.453 93.9086 420.453 M93.9086 416.75 Q99.7187 416.75 102.774 421.356 Q105.853 425.939 105.853 434.689 Q105.853 443.416 102.774 448.023 Q99.7187 452.606 93.9086 452.606 Q88.0984 452.606 85.0197 448.023 Q81.9642 443.416 81.9642 434.689 Q81.9642 425.939 85.0197 421.356 Q88.0984 416.75 93.9086 416.75 Z" fill="#000000" fill-rule="nonzero" fill-opacity="1" /><path clip-path="url(#clip780)" d="M124.07 420.453 Q120.459 420.453 118.631 424.018 Q116.825 427.56 116.825 434.689 Q116.825 441.796 118.631 445.361 Q120.459 448.902 124.07 448.902 Q127.705 448.902 129.51 445.361 Q131.339 441.796 131.339 434.689 Q131.339 427.56 129.51 424.018 Q127.705 420.453 124.07 420.453 M124.07 416.75 Q129.881 416.75 132.936 421.356 Q136.015 425.939 136.015 434.689 Q136.015 443.416 132.936 448.023 Q129.881 452.606 124.07 452.606 Q118.26 452.606 115.182 448.023 Q112.126 443.416 112.126 434.689 Q112.126 425.939 115.182 421.356 Q118.26 416.75 124.07 416.75 Z" fill="#000000" fill-rule="nonzero" fill-opacity="1" /><path clip-path="url(#clip780)" d="M63.7467 84.9249 Q60.4134 84.9249 58.4921 86.7073 Q56.5939 88.4897 56.5939 91.6147 Q56.5939 94.7397 58.4921 96.5221 Q60.4134 98.3045 63.7467 98.3045 Q67.08 98.3045 69.0013 96.5221 Q70.9226 94.7165 70.9226 91.6147 Q70.9226 88.4897 69.0013 86.7073 Q67.1032 84.9249 63.7467 84.9249 M59.0708 82.9342 Q56.0615 82.1934 54.3717 80.1333 Q52.7051 78.0731 52.7051 75.1101 Q52.7051 70.9667 55.6449 68.5593 Q58.6078 66.1519 63.7467 66.1519 Q68.9087 66.1519 71.8485 68.5593 Q74.7883 70.9667 74.7883 75.1101 Q74.7883 78.0731 73.0985 80.1333 Q71.4318 82.1934 68.4457 82.9342 Q71.8253 83.7212 73.7003 86.0129 Q75.5985 88.3045 75.5985 91.6147 Q75.5985 96.6378 72.5198 99.323 Q69.4642 102.008 63.7467 102.008 Q58.0291 102.008 54.9504 99.323 Q51.8949 96.6378 51.8949 91.6147 Q51.8949 88.3045 53.793 86.0129 Q55.6912 83.7212 59.0708 82.9342 M57.3578 75.55 Q57.3578 78.2351 59.0245 79.7398 Q60.7143 81.2444 63.7467 81.2444 Q66.7559 81.2444 68.4457 79.7398 Q70.1587 78.2351 70.1587 75.55 Q70.1587 72.8648 68.4457 71.3602 Q66.7559 69.8555 63.7467 69.8555 Q60.7143 69.8555 59.0245 71.3602 Q57.3578 72.8648 57.3578 75.55 Z" fill="#000000" fill-rule="nonzero" fill-opacity="1" /><path clip-path="url(#clip780)" d="M93.9086 69.8555 Q90.2975 69.8555 88.4688 73.4203 Q86.6632 76.962 86.6632 84.0916 Q86.6632 91.198 88.4688 94.7628 Q90.2975 98.3045 93.9086 98.3045 Q97.5428 98.3045 99.3483 94.7628 Q101.177 91.198 101.177 84.0916 Q101.177 76.962 99.3483 73.4203 Q97.5428 69.8555 93.9086 69.8555 M93.9086 66.1519 Q99.7187 66.1519 102.774 70.7583 Q105.853 75.3416 105.853 84.0916 Q105.853 92.8184 102.774 97.4248 Q99.7187 102.008 93.9086 102.008 Q88.0984 102.008 85.0197 97.4248 Q81.9642 92.8184 81.9642 84.0916 Q81.9642 75.3416 85.0197 70.7583 Q88.0984 66.1519 93.9086 66.1519 Z" fill="#000000" fill-rule="nonzero" fill-opacity="1" /><path clip-path="url(#clip780)" d="M124.07 69.8555 Q120.459 69.8555 118.631 73.4203 Q116.825 76.962 116.825 84.0916 Q116.825 91.198 118.631 94.7628 Q120.459 98.3045 124.07 98.3045 Q127.705 98.3045 129.51 94.7628 Q131.339 91.198 131.339 84.0916 Q131.339 76.962 129.51 73.4203 Q127.705 69.8555 124.07 69.8555 M124.07 66.1519 Q129.881 66.1519 132.936 70.7583 Q136.015 75.3416 136.015 84.0916 Q136.015 92.8184 132.936 97.4248 Q129.881 102.008 124.07 102.008 Q118.26 102.008 115.182 97.4248 Q112.126 92.8184 112.126 84.0916 Q112.126 75.3416 115.182 70.7583 Q118.26 66.1519 124.07 66.1519 Z" fill="#000000" fill-rule="nonzero" fill-opacity="1" /><path clip-path="url(#clip782)" d="M673.198 1484.69 L673.198 1486.45 L707.856 1486.45 L707.856 1484.69 L673.198 1484.69 L673.198 1484.69  Z" fill="#009af9" fill-rule="evenodd" fill-opacity="1"/>
<polyline clip-path="url(#clip782)" style="stroke:#000000; stroke-linecap:round; stroke-linejoin:round; stroke-width:4; stroke-opacity:1; fill:none" points="673.198,1484.69 673.198,1486.45 707.856,1486.45 707.856,1484.69 673.198,1484.69 "/>
<path clip-path="url(#clip782)" d="M707.856 1482.94 L707.856 1486.45 L742.514 1486.45 L742.514 1482.94 L707.856 1482.94 L707.856 1482.94  Z" fill="#009af9" fill-rule="evenodd" fill-opacity="1"/>
<polyline clip-path="url(#clip782)" style="stroke:#000000; stroke-linecap:round; stroke-linejoin:round; stroke-width:4; stroke-opacity:1; fill:none" points="707.856,1482.94 707.856,1486.45 742.514,1486.45 742.514,1482.94 707.856,1482.94 "/>
<path clip-path="url(#clip782)" d="M742.514 1482.94 L742.514 1486.45 L777.172 1486.45 L777.172 1482.94 L742.514 1482.94 L742.514 1482.94  Z" fill="#009af9" fill-rule="evenodd" fill-opacity="1"/>
<polyline clip-path="url(#clip782)" style="stroke:#000000; stroke-linecap:round; stroke-linejoin:round; stroke-width:4; stroke-opacity:1; fill:none" points="742.514,1482.94 742.514,1486.45 777.172,1486.45 777.172,1482.94 742.514,1482.94 "/>
<path clip-path="url(#clip782)" d="M777.172 1481.19 L777.172 1486.45 L811.83 1486.45 L811.83 1481.19 L777.172 1481.19 L777.172 1481.19  Z" fill="#009af9" fill-rule="evenodd" fill-opacity="1"/>
<polyline clip-path="url(#clip782)" style="stroke:#000000; stroke-linecap:round; stroke-linejoin:round; stroke-width:4; stroke-opacity:1; fill:none" points="777.172,1481.19 777.172,1486.45 811.83,1486.45 811.83,1481.19 777.172,1481.19 "/>
<path clip-path="url(#clip782)" d="M811.83 1468.92 L811.83 1486.45 L846.489 1486.45 L846.489 1468.92 L811.83 1468.92 L811.83 1468.92  Z" fill="#009af9" fill-rule="evenodd" fill-opacity="1"/>
<polyline clip-path="url(#clip782)" style="stroke:#000000; stroke-linecap:round; stroke-linejoin:round; stroke-width:4; stroke-opacity:1; fill:none" points="811.83,1468.92 811.83,1486.45 846.489,1486.45 846.489,1468.92 811.83,1468.92 "/>
<path clip-path="url(#clip782)" d="M846.489 1458.4 L846.489 1486.45 L881.147 1486.45 L881.147 1458.4 L846.489 1458.4 L846.489 1458.4  Z" fill="#009af9" fill-rule="evenodd" fill-opacity="1"/>
<polyline clip-path="url(#clip782)" style="stroke:#000000; stroke-linecap:round; stroke-linejoin:round; stroke-width:4; stroke-opacity:1; fill:none" points="846.489,1458.4 846.489,1486.45 881.147,1486.45 881.147,1458.4 846.489,1458.4 "/>
<path clip-path="url(#clip782)" d="M881.147 1432.11 L881.147 1486.45 L915.805 1486.45 L915.805 1432.11 L881.147 1432.11 L881.147 1432.11  Z" fill="#009af9" fill-rule="evenodd" fill-opacity="1"/>
<polyline clip-path="url(#clip782)" style="stroke:#000000; stroke-linecap:round; stroke-linejoin:round; stroke-width:4; stroke-opacity:1; fill:none" points="881.147,1432.11 881.147,1486.45 915.805,1486.45 915.805,1432.11 881.147,1432.11 "/>
<path clip-path="url(#clip782)" d="M915.805 1425.09 L915.805 1486.45 L950.463 1486.45 L950.463 1425.09 L915.805 1425.09 L915.805 1425.09  Z" fill="#009af9" fill-rule="evenodd" fill-opacity="1"/>
<polyline clip-path="url(#clip782)" style="stroke:#000000; stroke-linecap:round; stroke-linejoin:round; stroke-width:4; stroke-opacity:1; fill:none" points="915.805,1425.09 915.805,1486.45 950.463,1486.45 950.463,1425.09 915.805,1425.09 "/>
<path clip-path="url(#clip782)" d="M950.463 1361.99 L950.463 1486.45 L985.121 1486.45 L985.121 1361.99 L950.463 1361.99 L950.463 1361.99  Z" fill="#009af9" fill-rule="evenodd" fill-opacity="1"/>
<polyline clip-path="url(#clip782)" style="stroke:#000000; stroke-linecap:round; stroke-linejoin:round; stroke-width:4; stroke-opacity:1; fill:none" points="950.463,1361.99 950.463,1486.45 985.121,1486.45 985.121,1361.99 950.463,1361.99 "/>
<path clip-path="url(#clip782)" d="M985.121 1311.15 L985.121 1486.45 L1019.78 1486.45 L1019.78 1311.15 L985.121 1311.15 L985.121 1311.15  Z" fill="#009af9" fill-rule="evenodd" fill-opacity="1"/>
<polyline clip-path="url(#clip782)" style="stroke:#000000; stroke-linecap:round; stroke-linejoin:round; stroke-width:4; stroke-opacity:1; fill:none" points="985.121,1311.15 985.121,1486.45 1019.78,1486.45 1019.78,1311.15 985.121,1311.15 "/>
<path clip-path="url(#clip782)" d="M1019.78 1135.85 L1019.78 1486.45 L1054.44 1486.45 L1054.44 1135.85 L1019.78 1135.85 L1019.78 1135.85  Z" fill="#009af9" fill-rule="evenodd" fill-opacity="1"/>
<polyline clip-path="url(#clip782)" style="stroke:#000000; stroke-linecap:round; stroke-linejoin:round; stroke-width:4; stroke-opacity:1; fill:none" points="1019.78,1135.85 1019.78,1486.45 1054.44,1486.45 1054.44,1135.85 1019.78,1135.85 "/>
<path clip-path="url(#clip782)" d="M1054.44 1060.47 L1054.44 1486.45 L1089.1 1486.45 L1089.1 1060.47 L1054.44 1060.47 L1054.44 1060.47  Z" fill="#009af9" fill-rule="evenodd" fill-opacity="1"/>
<polyline clip-path="url(#clip782)" style="stroke:#000000; stroke-linecap:round; stroke-linejoin:round; stroke-width:4; stroke-opacity:1; fill:none" points="1054.44,1060.47 1054.44,1486.45 1089.1,1486.45 1089.1,1060.47 1054.44,1060.47 "/>
<path clip-path="url(#clip782)" d="M1089.1 906.209 L1089.1 1486.45 L1123.75 1486.45 L1123.75 906.209 L1089.1 906.209 L1089.1 906.209  Z" fill="#009af9" fill-rule="evenodd" fill-opacity="1"/>
<polyline clip-path="url(#clip782)" style="stroke:#000000; stroke-linecap:round; stroke-linejoin:round; stroke-width:4; stroke-opacity:1; fill:none" points="1089.1,906.209 1089.1,1486.45 1123.75,1486.45 1123.75,906.209 1089.1,906.209 "/>
<path clip-path="url(#clip782)" d="M1123.75 725.651 L1123.75 1486.45 L1158.41 1486.45 L1158.41 725.651 L1123.75 725.651 L1123.75 725.651  Z" fill="#009af9" fill-rule="evenodd" fill-opacity="1"/>
<polyline clip-path="url(#clip782)" style="stroke:#000000; stroke-linecap:round; stroke-linejoin:round; stroke-width:4; stroke-opacity:1; fill:none" points="1123.75,725.651 1123.75,1486.45 1158.41,1486.45 1158.41,725.651 1123.75,725.651 "/>
<path clip-path="url(#clip782)" d="M1158.41 580.153 L1158.41 1486.45 L1193.07 1486.45 L1193.07 580.153 L1158.41 580.153 L1158.41 580.153  Z" fill="#009af9" fill-rule="evenodd" fill-opacity="1"/>
<polyline clip-path="url(#clip782)" style="stroke:#000000; stroke-linecap:round; stroke-linejoin:round; stroke-width:4; stroke-opacity:1; fill:none" points="1158.41,580.153 1158.41,1486.45 1193.07,1486.45 1193.07,580.153 1158.41,580.153 "/>
<path clip-path="url(#clip782)" d="M1193.07 375.053 L1193.07 1486.45 L1227.73 1486.45 L1227.73 375.053 L1193.07 375.053 L1193.07 375.053  Z" fill="#009af9" fill-rule="evenodd" fill-opacity="1"/>
<polyline clip-path="url(#clip782)" style="stroke:#000000; stroke-linecap:round; stroke-linejoin:round; stroke-width:4; stroke-opacity:1; fill:none" points="1193.07,375.053 1193.07,1486.45 1227.73,1486.45 1227.73,375.053 1193.07,375.053 "/>
<path clip-path="url(#clip782)" d="M1227.73 143.658 L1227.73 1486.45 L1262.39 1486.45 L1262.39 143.658 L1227.73 143.658 L1227.73 143.658  Z" fill="#009af9" fill-rule="evenodd" fill-opacity="1"/>
<polyline clip-path="url(#clip782)" style="stroke:#000000; stroke-linecap:round; stroke-linejoin:round; stroke-width:4; stroke-opacity:1; fill:none" points="1227.73,143.658 1227.73,1486.45 1262.39,1486.45 1262.39,143.658 1227.73,143.658 "/>
<path clip-path="url(#clip782)" d="M1262.39 117.364 L1262.39 1486.45 L1297.04 1486.45 L1297.04 117.364 L1262.39 117.364 L1262.39 117.364  Z" fill="#009af9" fill-rule="evenodd" fill-opacity="1"/>
<polyline clip-path="url(#clip782)" style="stroke:#000000; stroke-linecap:round; stroke-linejoin:round; stroke-width:4; stroke-opacity:1; fill:none" points="1262.39,117.364 1262.39,1486.45 1297.04,1486.45 1297.04,117.364 1262.39,117.364 "/>
<path clip-path="url(#clip782)" d="M1297.04 73.5389 L1297.04 1486.45 L1331.7 1486.45 L1331.7 73.5389 L1297.04 73.5389 L1297.04 73.5389  Z" fill="#009af9" fill-rule="evenodd" fill-opacity="1"/>
<polyline clip-path="url(#clip782)" style="stroke:#000000; stroke-linecap:round; stroke-linejoin:round; stroke-width:4; stroke-opacity:1; fill:none" points="1297.04,73.5389 1297.04,1486.45 1331.7,1486.45 1331.7,73.5389 1297.04,73.5389 "/>
<path clip-path="url(#clip782)" d="M1331.7 47.2441 L1331.7 1486.45 L1366.36 1486.45 L1366.36 47.2441 L1331.7 47.2441 L1331.7 47.2441  Z" fill="#009af9" fill-rule="evenodd" fill-opacity="1"/>
<polyline clip-path="url(#clip782)" style="stroke:#000000; stroke-linecap:round; stroke-linejoin:round; stroke-width:4; stroke-opacity:1; fill:none" points="1331.7,47.2441 1331.7,1486.45 1366.36,1486.45 1366.36,47.2441 1331.7,47.2441 "/>
<path clip-path="url(#clip782)" d="M1366.36 96.3278 L1366.36 1486.45 L1401.02 1486.45 L1401.02 96.3278 L1366.36 96.3278 L1366.36 96.3278  Z" fill="#009af9" fill-rule="evenodd" fill-opacity="1"/>
<polyline clip-path="url(#clip782)" style="stroke:#000000; stroke-linecap:round; stroke-linejoin:round; stroke-width:4; stroke-opacity:1; fill:none" points="1366.36,96.3278 1366.36,1486.45 1401.02,1486.45 1401.02,96.3278 1366.36,96.3278 "/>
<path clip-path="url(#clip782)" d="M1401.02 224.296 L1401.02 1486.45 L1435.68 1486.45 L1435.68 224.296 L1401.02 224.296 L1401.02 224.296  Z" fill="#009af9" fill-rule="evenodd" fill-opacity="1"/>
<polyline clip-path="url(#clip782)" style="stroke:#000000; stroke-linecap:round; stroke-linejoin:round; stroke-width:4; stroke-opacity:1; fill:none" points="1401.02,224.296 1401.02,1486.45 1435.68,1486.45 1435.68,224.296 1401.02,224.296 "/>
<path clip-path="url(#clip782)" d="M1435.68 397.842 L1435.68 1486.45 L1470.33 1486.45 L1470.33 397.842 L1435.68 397.842 L1435.68 397.842  Z" fill="#009af9" fill-rule="evenodd" fill-opacity="1"/>
<polyline clip-path="url(#clip782)" style="stroke:#000000; stroke-linecap:round; stroke-linejoin:round; stroke-width:4; stroke-opacity:1; fill:none" points="1435.68,397.842 1435.68,1486.45 1470.33,1486.45 1470.33,397.842 1435.68,397.842 "/>
<path clip-path="url(#clip782)" d="M1470.33 562.623 L1470.33 1486.45 L1504.99 1486.45 L1504.99 562.623 L1470.33 562.623 L1470.33 562.623  Z" fill="#009af9" fill-rule="evenodd" fill-opacity="1"/>
<polyline clip-path="url(#clip782)" style="stroke:#000000; stroke-linecap:round; stroke-linejoin:round; stroke-width:4; stroke-opacity:1; fill:none" points="1470.33,562.623 1470.33,1486.45 1504.99,1486.45 1504.99,562.623 1470.33,562.623 "/>
<path clip-path="url(#clip782)" d="M1504.99 660.79 L1504.99 1486.45 L1539.65 1486.45 L1539.65 660.79 L1504.99 660.79 L1504.99 660.79  Z" fill="#009af9" fill-rule="evenodd" fill-opacity="1"/>
<polyline clip-path="url(#clip782)" style="stroke:#000000; stroke-linecap:round; stroke-linejoin:round; stroke-width:4; stroke-opacity:1; fill:none" points="1504.99,660.79 1504.99,1486.45 1539.65,1486.45 1539.65,660.79 1504.99,660.79 "/>
<path clip-path="url(#clip782)" d="M1539.65 899.197 L1539.65 1486.45 L1574.31 1486.45 L1574.31 899.197 L1539.65 899.197 L1539.65 899.197  Z" fill="#009af9" fill-rule="evenodd" fill-opacity="1"/>
<polyline clip-path="url(#clip782)" style="stroke:#000000; stroke-linecap:round; stroke-linejoin:round; stroke-width:4; stroke-opacity:1; fill:none" points="1539.65,899.197 1539.65,1486.45 1574.31,1486.45 1574.31,899.197 1539.65,899.197 "/>
<path clip-path="url(#clip782)" d="M1574.31 1051.71 L1574.31 1486.45 L1608.97 1486.45 L1608.97 1051.71 L1574.31 1051.71 L1574.31 1051.71  Z" fill="#009af9" fill-rule="evenodd" fill-opacity="1"/>
<polyline clip-path="url(#clip782)" style="stroke:#000000; stroke-linecap:round; stroke-linejoin:round; stroke-width:4; stroke-opacity:1; fill:none" points="1574.31,1051.71 1574.31,1486.45 1608.97,1486.45 1608.97,1051.71 1574.31,1051.71 "/>
<path clip-path="url(#clip782)" d="M1608.97 1167.4 L1608.97 1486.45 L1643.62 1486.45 L1643.62 1167.4 L1608.97 1167.4 L1608.97 1167.4  Z" fill="#009af9" fill-rule="evenodd" fill-opacity="1"/>
<polyline clip-path="url(#clip782)" style="stroke:#000000; stroke-linecap:round; stroke-linejoin:round; stroke-width:4; stroke-opacity:1; fill:none" points="1608.97,1167.4 1608.97,1486.45 1643.62,1486.45 1643.62,1167.4 1608.97,1167.4 "/>
<path clip-path="url(#clip782)" d="M1643.62 1272.58 L1643.62 1486.45 L1678.28 1486.45 L1678.28 1272.58 L1643.62 1272.58 L1643.62 1272.58  Z" fill="#009af9" fill-rule="evenodd" fill-opacity="1"/>
<polyline clip-path="url(#clip782)" style="stroke:#000000; stroke-linecap:round; stroke-linejoin:round; stroke-width:4; stroke-opacity:1; fill:none" points="1643.62,1272.58 1643.62,1486.45 1678.28,1486.45 1678.28,1272.58 1643.62,1272.58 "/>
<path clip-path="url(#clip782)" d="M1678.28 1356.73 L1678.28 1486.45 L1712.94 1486.45 L1712.94 1356.73 L1678.28 1356.73 L1678.28 1356.73  Z" fill="#009af9" fill-rule="evenodd" fill-opacity="1"/>
<polyline clip-path="url(#clip782)" style="stroke:#000000; stroke-linecap:round; stroke-linejoin:round; stroke-width:4; stroke-opacity:1; fill:none" points="1678.28,1356.73 1678.28,1486.45 1712.94,1486.45 1712.94,1356.73 1678.28,1356.73 "/>
<path clip-path="url(#clip782)" d="M1712.94 1398.8 L1712.94 1486.45 L1747.6 1486.45 L1747.6 1398.8 L1712.94 1398.8 L1712.94 1398.8  Z" fill="#009af9" fill-rule="evenodd" fill-opacity="1"/>
<polyline clip-path="url(#clip782)" style="stroke:#000000; stroke-linecap:round; stroke-linejoin:round; stroke-width:4; stroke-opacity:1; fill:none" points="1712.94,1398.8 1712.94,1486.45 1747.6,1486.45 1747.6,1398.8 1712.94,1398.8 "/>
<path clip-path="url(#clip782)" d="M1747.6 1444.38 L1747.6 1486.45 L1782.26 1486.45 L1782.26 1444.38 L1747.6 1444.38 L1747.6 1444.38  Z" fill="#009af9" fill-rule="evenodd" fill-opacity="1"/>
<polyline clip-path="url(#clip782)" style="stroke:#000000; stroke-linecap:round; stroke-linejoin:round; stroke-width:4; stroke-opacity:1; fill:none" points="1747.6,1444.38 1747.6,1486.45 1782.26,1486.45 1782.26,1444.38 1747.6,1444.38 "/>
<path clip-path="url(#clip782)" d="M1782.26 1458.4 L1782.26 1486.45 L1816.91 1486.45 L1816.91 1458.4 L1782.26 1458.4 L1782.26 1458.4  Z" fill="#009af9" fill-rule="evenodd" fill-opacity="1"/>
<polyline clip-path="url(#clip782)" style="stroke:#000000; stroke-linecap:round; stroke-linejoin:round; stroke-width:4; stroke-opacity:1; fill:none" points="1782.26,1458.4 1782.26,1486.45 1816.91,1486.45 1816.91,1458.4 1782.26,1458.4 "/>
<path clip-path="url(#clip782)" d="M1816.91 1475.93 L1816.91 1486.45 L1851.57 1486.45 L1851.57 1475.93 L1816.91 1475.93 L1816.91 1475.93  Z" fill="#009af9" fill-rule="evenodd" fill-opacity="1"/>
<polyline clip-path="url(#clip782)" style="stroke:#000000; stroke-linecap:round; stroke-linejoin:round; stroke-width:4; stroke-opacity:1; fill:none" points="1816.91,1475.93 1816.91,1486.45 1851.57,1486.45 1851.57,1475.93 1816.91,1475.93 "/>
<path clip-path="url(#clip782)" d="M1851.57 1479.44 L1851.57 1486.45 L1886.23 1486.45 L1886.23 1479.44 L1851.57 1479.44 L1851.57 1479.44  Z" fill="#009af9" fill-rule="evenodd" fill-opacity="1"/>
<polyline clip-path="url(#clip782)" style="stroke:#000000; stroke-linecap:round; stroke-linejoin:round; stroke-width:4; stroke-opacity:1; fill:none" points="1851.57,1479.44 1851.57,1486.45 1886.23,1486.45 1886.23,1479.44 1851.57,1479.44 "/>
<path clip-path="url(#clip782)" d="M1886.23 1484.69 L1886.23 1486.45 L1920.89 1486.45 L1920.89 1484.69 L1886.23 1484.69 L1886.23 1484.69  Z" fill="#009af9" fill-rule="evenodd" fill-opacity="1"/>
<polyline clip-path="url(#clip782)" style="stroke:#000000; stroke-linecap:round; stroke-linejoin:round; stroke-width:4; stroke-opacity:1; fill:none" points="1886.23,1484.69 1886.23,1486.45 1920.89,1486.45 1920.89,1484.69 1886.23,1484.69 "/>
<path clip-path="url(#clip782)" d="M1920.89 1482.94 L1920.89 1486.45 L1955.55 1486.45 L1955.55 1482.94 L1920.89 1482.94 L1920.89 1482.94  Z" fill="#009af9" fill-rule="evenodd" fill-opacity="1"/>
<polyline clip-path="url(#clip782)" style="stroke:#000000; stroke-linecap:round; stroke-linejoin:round; stroke-width:4; stroke-opacity:1; fill:none" points="1920.89,1482.94 1920.89,1486.45 1955.55,1486.45 1955.55,1482.94 1920.89,1482.94 "/>
<circle clip-path="url(#clip782)" style="fill:#009af9; stroke:none; fill-opacity:0" cx="690.527" cy="1484.69" r="2"/>
<circle clip-path="url(#clip782)" style="fill:#009af9; stroke:none; fill-opacity:0" cx="725.185" cy="1482.94" r="2"/>
<circle clip-path="url(#clip782)" style="fill:#009af9; stroke:none; fill-opacity:0" cx="759.843" cy="1482.94" r="2"/>
<circle clip-path="url(#clip782)" style="fill:#009af9; stroke:none; fill-opacity:0" cx="794.501" cy="1481.19" r="2"/>
<circle clip-path="url(#clip782)" style="fill:#009af9; stroke:none; fill-opacity:0" cx="829.16" cy="1468.92" r="2"/>
<circle clip-path="url(#clip782)" style="fill:#009af9; stroke:none; fill-opacity:0" cx="863.818" cy="1458.4" r="2"/>
<circle clip-path="url(#clip782)" style="fill:#009af9; stroke:none; fill-opacity:0" cx="898.476" cy="1432.11" r="2"/>
<circle clip-path="url(#clip782)" style="fill:#009af9; stroke:none; fill-opacity:0" cx="933.134" cy="1425.09" r="2"/>
<circle clip-path="url(#clip782)" style="fill:#009af9; stroke:none; fill-opacity:0" cx="967.792" cy="1361.99" r="2"/>
<circle clip-path="url(#clip782)" style="fill:#009af9; stroke:none; fill-opacity:0" cx="1002.45" cy="1311.15" r="2"/>
<circle clip-path="url(#clip782)" style="fill:#009af9; stroke:none; fill-opacity:0" cx="1037.11" cy="1135.85" r="2"/>
<circle clip-path="url(#clip782)" style="fill:#009af9; stroke:none; fill-opacity:0" cx="1071.77" cy="1060.47" r="2"/>
<circle clip-path="url(#clip782)" style="fill:#009af9; stroke:none; fill-opacity:0" cx="1106.42" cy="906.209" r="2"/>
<circle clip-path="url(#clip782)" style="fill:#009af9; stroke:none; fill-opacity:0" cx="1141.08" cy="725.651" r="2"/>
<circle clip-path="url(#clip782)" style="fill:#009af9; stroke:none; fill-opacity:0" cx="1175.74" cy="580.153" r="2"/>
<circle clip-path="url(#clip782)" style="fill:#009af9; stroke:none; fill-opacity:0" cx="1210.4" cy="375.053" r="2"/>
<circle clip-path="url(#clip782)" style="fill:#009af9; stroke:none; fill-opacity:0" cx="1245.06" cy="143.658" r="2"/>
<circle clip-path="url(#clip782)" style="fill:#009af9; stroke:none; fill-opacity:0" cx="1279.71" cy="117.364" r="2"/>
<circle clip-path="url(#clip782)" style="fill:#009af9; stroke:none; fill-opacity:0" cx="1314.37" cy="73.5389" r="2"/>
<circle clip-path="url(#clip782)" style="fill:#009af9; stroke:none; fill-opacity:0" cx="1349.03" cy="47.2441" r="2"/>
<circle clip-path="url(#clip782)" style="fill:#009af9; stroke:none; fill-opacity:0" cx="1383.69" cy="96.3278" r="2"/>
<circle clip-path="url(#clip782)" style="fill:#009af9; stroke:none; fill-opacity:0" cx="1418.35" cy="224.296" r="2"/>
<circle clip-path="url(#clip782)" style="fill:#009af9; stroke:none; fill-opacity:0" cx="1453" cy="397.842" r="2"/>
<circle clip-path="url(#clip782)" style="fill:#009af9; stroke:none; fill-opacity:0" cx="1487.66" cy="562.623" r="2"/>
<circle clip-path="url(#clip782)" style="fill:#009af9; stroke:none; fill-opacity:0" cx="1522.32" cy="660.79" r="2"/>
<circle clip-path="url(#clip782)" style="fill:#009af9; stroke:none; fill-opacity:0" cx="1556.98" cy="899.197" r="2"/>
<circle clip-path="url(#clip782)" style="fill:#009af9; stroke:none; fill-opacity:0" cx="1591.64" cy="1051.71" r="2"/>
<circle clip-path="url(#clip782)" style="fill:#009af9; stroke:none; fill-opacity:0" cx="1626.3" cy="1167.4" r="2"/>
<circle clip-path="url(#clip782)" style="fill:#009af9; stroke:none; fill-opacity:0" cx="1660.95" cy="1272.58" r="2"/>
<circle clip-path="url(#clip782)" style="fill:#009af9; stroke:none; fill-opacity:0" cx="1695.61" cy="1356.73" r="2"/>
<circle clip-path="url(#clip782)" style="fill:#009af9; stroke:none; fill-opacity:0" cx="1730.27" cy="1398.8" r="2"/>
<circle clip-path="url(#clip782)" style="fill:#009af9; stroke:none; fill-opacity:0" cx="1764.93" cy="1444.38" r="2"/>
<circle clip-path="url(#clip782)" style="fill:#009af9; stroke:none; fill-opacity:0" cx="1799.59" cy="1458.4" r="2"/>
<circle clip-path="url(#clip782)" style="fill:#009af9; stroke:none; fill-opacity:0" cx="1834.24" cy="1475.93" r="2"/>
<circle clip-path="url(#clip782)" style="fill:#009af9; stroke:none; fill-opacity:0" cx="1868.9" cy="1479.44" r="2"/>
<circle clip-path="url(#clip782)" style="fill:#009af9; stroke:none; fill-opacity:0" cx="1903.56" cy="1484.69" r="2"/>
<circle clip-path="url(#clip782)" style="fill:#009af9; stroke:none; fill-opacity:0" cx="1938.22" cy="1482.94" r="2"/>
<path clip-path="url(#clip782)" d="M291.959 1484.69 L291.959 1486.45 L326.618 1486.45 L326.618 1484.69 L291.959 1484.69 L291.959 1484.69  Z" fill="#e26f46" fill-rule="evenodd" fill-opacity="1"/>
<polyline clip-path="url(#clip782)" style="stroke:#000000; stroke-linecap:round; stroke-linejoin:round; stroke-width:4; stroke-opacity:1; fill:none" points="291.959,1484.69 291.959,1486.45 326.618,1486.45 326.618,1484.69 291.959,1484.69 "/>
<path clip-path="url(#clip782)" d="M326.618 1486.45 L326.618 1486.45 L361.276 1486.45 L361.276 1486.45 L326.618 1486.45 L326.618 1486.45  Z" fill="#e26f46" fill-rule="evenodd" fill-opacity="1"/>
<polyline clip-path="url(#clip782)" style="stroke:#000000; stroke-linecap:round; stroke-linejoin:round; stroke-width:4; stroke-opacity:1; fill:none" points="326.618,1486.45 326.618,1486.45 361.276,1486.45 326.618,1486.45 "/>
<path clip-path="url(#clip782)" d="M361.276 1486.45 L361.276 1486.45 L395.934 1486.45 L395.934 1486.45 L361.276 1486.45 L361.276 1486.45  Z" fill="#e26f46" fill-rule="evenodd" fill-opacity="1"/>
<polyline clip-path="url(#clip782)" style="stroke:#000000; stroke-linecap:round; stroke-linejoin:round; stroke-width:4; stroke-opacity:1; fill:none" points="361.276,1486.45 361.276,1486.45 395.934,1486.45 361.276,1486.45 "/>
<path clip-path="url(#clip782)" d="M395.934 1482.94 L395.934 1486.45 L430.592 1486.45 L430.592 1482.94 L395.934 1482.94 L395.934 1482.94  Z" fill="#e26f46" fill-rule="evenodd" fill-opacity="1"/>
<polyline clip-path="url(#clip782)" style="stroke:#000000; stroke-linecap:round; stroke-linejoin:round; stroke-width:4; stroke-opacity:1; fill:none" points="395.934,1482.94 395.934,1486.45 430.592,1486.45 430.592,1482.94 395.934,1482.94 "/>
<path clip-path="url(#clip782)" d="M430.592 1486.45 L430.592 1486.45 L465.25 1486.45 L465.25 1486.45 L430.592 1486.45 L430.592 1486.45  Z" fill="#e26f46" fill-rule="evenodd" fill-opacity="1"/>
<polyline clip-path="url(#clip782)" style="stroke:#000000; stroke-linecap:round; stroke-linejoin:round; stroke-width:4; stroke-opacity:1; fill:none" points="430.592,1486.45 430.592,1486.45 465.25,1486.45 430.592,1486.45 "/>
<path clip-path="url(#clip782)" d="M465.25 1481.19 L465.25 1486.45 L499.908 1486.45 L499.908 1481.19 L465.25 1481.19 L465.25 1481.19  Z" fill="#e26f46" fill-rule="evenodd" fill-opacity="1"/>
<polyline clip-path="url(#clip782)" style="stroke:#000000; stroke-linecap:round; stroke-linejoin:round; stroke-width:4; stroke-opacity:1; fill:none" points="465.25,1481.19 465.25,1486.45 499.908,1486.45 499.908,1481.19 465.25,1481.19 "/>
<path clip-path="url(#clip782)" d="M499.908 1472.42 L499.908 1486.45 L534.566 1486.45 L534.566 1472.42 L499.908 1472.42 L499.908 1472.42  Z" fill="#e26f46" fill-rule="evenodd" fill-opacity="1"/>
<polyline clip-path="url(#clip782)" style="stroke:#000000; stroke-linecap:round; stroke-linejoin:round; stroke-width:4; stroke-opacity:1; fill:none" points="499.908,1472.42 499.908,1486.45 534.566,1486.45 534.566,1472.42 499.908,1472.42 "/>
<path clip-path="url(#clip782)" d="M534.566 1486.45 L534.566 1486.45 L569.224 1486.45 L569.224 1486.45 L534.566 1486.45 L534.566 1486.45  Z" fill="#e26f46" fill-rule="evenodd" fill-opacity="1"/>
<polyline clip-path="url(#clip782)" style="stroke:#000000; stroke-linecap:round; stroke-linejoin:round; stroke-width:4; stroke-opacity:1; fill:none" points="534.566,1486.45 534.566,1486.45 569.224,1486.45 534.566,1486.45 "/>
<path clip-path="url(#clip782)" d="M569.224 1456.65 L569.224 1486.45 L603.882 1486.45 L603.882 1456.65 L569.224 1456.65 L569.224 1456.65  Z" fill="#e26f46" fill-rule="evenodd" fill-opacity="1"/>
<polyline clip-path="url(#clip782)" style="stroke:#000000; stroke-linecap:round; stroke-linejoin:round; stroke-width:4; stroke-opacity:1; fill:none" points="569.224,1456.65 569.224,1486.45 603.882,1486.45 603.882,1456.65 569.224,1456.65 "/>
<path clip-path="url(#clip782)" d="M603.882 1486.45 L603.882 1486.45 L638.54 1486.45 L638.54 1486.45 L603.882 1486.45 L603.882 1486.45  Z" fill="#e26f46" fill-rule="evenodd" fill-opacity="1"/>
<polyline clip-path="url(#clip782)" style="stroke:#000000; stroke-linecap:round; stroke-linejoin:round; stroke-width:4; stroke-opacity:1; fill:none" points="603.882,1486.45 603.882,1486.45 638.54,1486.45 603.882,1486.45 "/>
<path clip-path="url(#clip782)" d="M638.54 1433.86 L638.54 1486.45 L673.198 1486.45 L673.198 1433.86 L638.54 1433.86 L638.54 1433.86  Z" fill="#e26f46" fill-rule="evenodd" fill-opacity="1"/>
<polyline clip-path="url(#clip782)" style="stroke:#000000; stroke-linecap:round; stroke-linejoin:round; stroke-width:4; stroke-opacity:1; fill:none" points="638.54,1433.86 638.54,1486.45 673.198,1486.45 673.198,1433.86 638.54,1433.86 "/>
<path clip-path="url(#clip782)" d="M673.198 1416.33 L673.198 1486.45 L707.856 1486.45 L707.856 1416.33 L673.198 1416.33 L673.198 1416.33  Z" fill="#e26f46" fill-rule="evenodd" fill-opacity="1"/>
<polyline clip-path="url(#clip782)" style="stroke:#000000; stroke-linecap:round; stroke-linejoin:round; stroke-width:4; stroke-opacity:1; fill:none" points="673.198,1416.33 673.198,1486.45 707.856,1486.45 707.856,1416.33 673.198,1416.33 "/>
<path clip-path="url(#clip782)" d="M707.856 1486.45 L707.856 1486.45 L742.514 1486.45 L742.514 1486.45 L707.856 1486.45 L707.856 1486.45  Z" fill="#e26f46" fill-rule="evenodd" fill-opacity="1"/>
<polyline clip-path="url(#clip782)" style="stroke:#000000; stroke-linecap:round; stroke-linejoin:round; stroke-width:4; stroke-opacity:1; fill:none" points="707.856,1486.45 707.856,1486.45 742.514,1486.45 707.856,1486.45 "/>
<path clip-path="url(#clip782)" d="M742.514 1339.2 L742.514 1486.45 L777.172 1486.45 L777.172 1339.2 L742.514 1339.2 L742.514 1339.2  Z" fill="#e26f46" fill-rule="evenodd" fill-opacity="1"/>
<polyline clip-path="url(#clip782)" style="stroke:#000000; stroke-linecap:round; stroke-linejoin:round; stroke-width:4; stroke-opacity:1; fill:none" points="742.514,1339.2 742.514,1486.45 777.172,1486.45 777.172,1339.2 742.514,1339.2 "/>
<path clip-path="url(#clip782)" d="M777.172 1297.13 L777.172 1486.45 L811.83 1486.45 L811.83 1297.13 L777.172 1297.13 L777.172 1297.13  Z" fill="#e26f46" fill-rule="evenodd" fill-opacity="1"/>
<polyline clip-path="url(#clip782)" style="stroke:#000000; stroke-linecap:round; stroke-linejoin:round; stroke-width:4; stroke-opacity:1; fill:none" points="777.172,1297.13 777.172,1486.45 811.83,1486.45 811.83,1297.13 777.172,1297.13 "/>
<path clip-path="url(#clip782)" d="M811.83 1486.45 L811.83 1486.45 L846.489 1486.45 L846.489 1486.45 L811.83 1486.45 L811.83 1486.45  Z" fill="#e26f46" fill-rule="evenodd" fill-opacity="1"/>
<polyline clip-path="url(#clip782)" style="stroke:#000000; stroke-linecap:round; stroke-linejoin:round; stroke-width:4; stroke-opacity:1; fill:none" points="811.83,1486.45 811.83,1486.45 846.489,1486.45 811.83,1486.45 "/>
<path clip-path="url(#clip782)" d="M846.489 1188.44 L846.489 1486.45 L881.147 1486.45 L881.147 1188.44 L846.489 1188.44 L846.489 1188.44  Z" fill="#e26f46" fill-rule="evenodd" fill-opacity="1"/>
<polyline clip-path="url(#clip782)" style="stroke:#000000; stroke-linecap:round; stroke-linejoin:round; stroke-width:4; stroke-opacity:1; fill:none" points="846.489,1188.44 846.489,1486.45 881.147,1486.45 881.147,1188.44 846.489,1188.44 "/>
<path clip-path="url(#clip782)" d="M881.147 1062.22 L881.147 1486.45 L915.805 1486.45 L915.805 1062.22 L881.147 1062.22 L881.147 1062.22  Z" fill="#e26f46" fill-rule="evenodd" fill-opacity="1"/>
<polyline clip-path="url(#clip782)" style="stroke:#000000; stroke-linecap:round; stroke-linejoin:round; stroke-width:4; stroke-opacity:1; fill:none" points="881.147,1062.22 881.147,1486.45 915.805,1486.45 915.805,1062.22 881.147,1062.22 "/>
<path clip-path="url(#clip782)" d="M915.805 1486.45 L915.805 1486.45 L950.463 1486.45 L950.463 1486.45 L915.805 1486.45 L915.805 1486.45  Z" fill="#e26f46" fill-rule="evenodd" fill-opacity="1"/>
<polyline clip-path="url(#clip782)" style="stroke:#000000; stroke-linecap:round; stroke-linejoin:round; stroke-width:4; stroke-opacity:1; fill:none" points="915.805,1486.45 915.805,1486.45 950.463,1486.45 915.805,1486.45 "/>
<path clip-path="url(#clip782)" d="M950.463 890.432 L950.463 1486.45 L985.121 1486.45 L985.121 890.432 L950.463 890.432 L950.463 890.432  Z" fill="#e26f46" fill-rule="evenodd" fill-opacity="1"/>
<polyline clip-path="url(#clip782)" style="stroke:#000000; stroke-linecap:round; stroke-linejoin:round; stroke-width:4; stroke-opacity:1; fill:none" points="950.463,890.432 950.463,1486.45 985.121,1486.45 985.121,890.432 950.463,890.432 "/>
<path clip-path="url(#clip782)" d="M985.121 1486.45 L985.121 1486.45 L1019.78 1486.45 L1019.78 1486.45 L985.121 1486.45 L985.121 1486.45  Z" fill="#e26f46" fill-rule="evenodd" fill-opacity="1"/>
<polyline clip-path="url(#clip782)" style="stroke:#000000; stroke-linecap:round; stroke-linejoin:round; stroke-width:4; stroke-opacity:1; fill:none" points="985.121,1486.45 985.121,1486.45 1019.78,1486.45 985.121,1486.45 "/>
<path clip-path="url(#clip782)" d="M1019.78 771.228 L1019.78 1486.45 L1054.44 1486.45 L1054.44 771.228 L1019.78 771.228 L1019.78 771.228  Z" fill="#e26f46" fill-rule="evenodd" fill-opacity="1"/>
<polyline clip-path="url(#clip782)" style="stroke:#000000; stroke-linecap:round; stroke-linejoin:round; stroke-width:4; stroke-opacity:1; fill:none" points="1019.78,771.228 1019.78,1486.45 1054.44,1486.45 1054.44,771.228 1019.78,771.228 "/>
<path clip-path="url(#clip782)" d="M1054.44 573.141 L1054.44 1486.45 L1089.1 1486.45 L1089.1 573.141 L1054.44 573.141 L1054.44 573.141  Z" fill="#e26f46" fill-rule="evenodd" fill-opacity="1"/>
<polyline clip-path="url(#clip782)" style="stroke:#000000; stroke-linecap:round; stroke-linejoin:round; stroke-width:4; stroke-opacity:1; fill:none" points="1054.44,573.141 1054.44,1486.45 1089.1,1486.45 1089.1,573.141 1054.44,573.141 "/>
<path clip-path="url(#clip782)" d="M1089.1 1486.45 L1089.1 1486.45 L1123.75 1486.45 L1123.75 1486.45 L1089.1 1486.45 L1089.1 1486.45  Z" fill="#e26f46" fill-rule="evenodd" fill-opacity="1"/>
<polyline clip-path="url(#clip782)" style="stroke:#000000; stroke-linecap:round; stroke-linejoin:round; stroke-width:4; stroke-opacity:1; fill:none" points="1089.1,1486.45 1089.1,1486.45 1123.75,1486.45 1089.1,1486.45 "/>
<path clip-path="url(#clip782)" d="M1123.75 434.655 L1123.75 1486.45 L1158.41 1486.45 L1158.41 434.655 L1123.75 434.655 L1123.75 434.655  Z" fill="#e26f46" fill-rule="evenodd" fill-opacity="1"/>
<polyline clip-path="url(#clip782)" style="stroke:#000000; stroke-linecap:round; stroke-linejoin:round; stroke-width:4; stroke-opacity:1; fill:none" points="1123.75,434.655 1123.75,1486.45 1158.41,1486.45 1158.41,434.655 1123.75,434.655 "/>
<path clip-path="url(#clip782)" d="M1158.41 227.802 L1158.41 1486.45 L1193.07 1486.45 L1193.07 227.802 L1158.41 227.802 L1158.41 227.802  Z" fill="#e26f46" fill-rule="evenodd" fill-opacity="1"/>
<polyline clip-path="url(#clip782)" style="stroke:#000000; stroke-linecap:round; stroke-linejoin:round; stroke-width:4; stroke-opacity:1; fill:none" points="1158.41,227.802 1158.41,1486.45 1193.07,1486.45 1193.07,227.802 1158.41,227.802 "/>
<path clip-path="url(#clip782)" d="M1193.07 1486.45 L1193.07 1486.45 L1227.73 1486.45 L1227.73 1486.45 L1193.07 1486.45 L1193.07 1486.45  Z" fill="#e26f46" fill-rule="evenodd" fill-opacity="1"/>
<polyline clip-path="url(#clip782)" style="stroke:#000000; stroke-linecap:round; stroke-linejoin:round; stroke-width:4; stroke-opacity:1; fill:none" points="1193.07,1486.45 1193.07,1486.45 1227.73,1486.45 1193.07,1486.45 "/>
<path clip-path="url(#clip782)" d="M1227.73 141.905 L1227.73 1486.45 L1262.39 1486.45 L1262.39 141.905 L1227.73 141.905 L1227.73 141.905  Z" fill="#e26f46" fill-rule="evenodd" fill-opacity="1"/>
<polyline clip-path="url(#clip782)" style="stroke:#000000; stroke-linecap:round; stroke-linejoin:round; stroke-width:4; stroke-opacity:1; fill:none" points="1227.73,141.905 1227.73,1486.45 1262.39,1486.45 1262.39,141.905 1227.73,141.905 "/>
<path clip-path="url(#clip782)" d="M1262.39 119.117 L1262.39 1486.45 L1297.04 1486.45 L1297.04 119.117 L1262.39 119.117 L1262.39 119.117  Z" fill="#e26f46" fill-rule="evenodd" fill-opacity="1"/>
<polyline clip-path="url(#clip782)" style="stroke:#000000; stroke-linecap:round; stroke-linejoin:round; stroke-width:4; stroke-opacity:1; fill:none" points="1262.39,119.117 1262.39,1486.45 1297.04,1486.45 1297.04,119.117 1262.39,119.117 "/>
<path clip-path="url(#clip782)" d="M1297.04 1486.45 L1297.04 1486.45 L1331.7 1486.45 L1331.7 1486.45 L1297.04 1486.45 L1297.04 1486.45  Z" fill="#e26f46" fill-rule="evenodd" fill-opacity="1"/>
<polyline clip-path="url(#clip782)" style="stroke:#000000; stroke-linecap:round; stroke-linejoin:round; stroke-width:4; stroke-opacity:1; fill:none" points="1297.04,1486.45 1297.04,1486.45 1331.7,1486.45 1297.04,1486.45 "/>
<path clip-path="url(#clip782)" d="M1331.7 48.9971 L1331.7 1486.45 L1366.36 1486.45 L1366.36 48.9971 L1331.7 48.9971 L1331.7 48.9971  Z" fill="#e26f46" fill-rule="evenodd" fill-opacity="1"/>
<polyline clip-path="url(#clip782)" style="stroke:#000000; stroke-linecap:round; stroke-linejoin:round; stroke-width:4; stroke-opacity:1; fill:none" points="1331.7,48.9971 1331.7,1486.45 1366.36,1486.45 1366.36,48.9971 1331.7,48.9971 "/>
<path clip-path="url(#clip782)" d="M1366.36 1486.45 L1366.36 1486.45 L1401.02 1486.45 L1401.02 1486.45 L1366.36 1486.45 L1366.36 1486.45  Z" fill="#e26f46" fill-rule="evenodd" fill-opacity="1"/>
<polyline clip-path="url(#clip782)" style="stroke:#000000; stroke-linecap:round; stroke-linejoin:round; stroke-width:4; stroke-opacity:1; fill:none" points="1366.36,1486.45 1366.36,1486.45 1401.02,1486.45 1366.36,1486.45 "/>
<path clip-path="url(#clip782)" d="M1401.02 78.7979 L1401.02 1486.45 L1435.68 1486.45 L1435.68 78.7979 L1401.02 78.7979 L1401.02 78.7979  Z" fill="#e26f46" fill-rule="evenodd" fill-opacity="1"/>
<polyline clip-path="url(#clip782)" style="stroke:#000000; stroke-linecap:round; stroke-linejoin:round; stroke-width:4; stroke-opacity:1; fill:none" points="1401.02,78.7979 1401.02,1486.45 1435.68,1486.45 1435.68,78.7979 1401.02,78.7979 "/>
<path clip-path="url(#clip782)" d="M1435.68 113.858 L1435.68 1486.45 L1470.33 1486.45 L1470.33 113.858 L1435.68 113.858 L1435.68 113.858  Z" fill="#e26f46" fill-rule="evenodd" fill-opacity="1"/>
<polyline clip-path="url(#clip782)" style="stroke:#000000; stroke-linecap:round; stroke-linejoin:round; stroke-width:4; stroke-opacity:1; fill:none" points="1435.68,113.858 1435.68,1486.45 1470.33,1486.45 1470.33,113.858 1435.68,113.858 "/>
<path clip-path="url(#clip782)" d="M1470.33 1486.45 L1470.33 1486.45 L1504.99 1486.45 L1504.99 1486.45 L1470.33 1486.45 L1470.33 1486.45  Z" fill="#e26f46" fill-rule="evenodd" fill-opacity="1"/>
<polyline clip-path="url(#clip782)" style="stroke:#000000; stroke-linecap:round; stroke-linejoin:round; stroke-width:4; stroke-opacity:1; fill:none" points="1470.33,1486.45 1470.33,1486.45 1504.99,1486.45 1470.33,1486.45 "/>
<path clip-path="url(#clip782)" d="M1504.99 271.627 L1504.99 1486.45 L1539.65 1486.45 L1539.65 271.627 L1504.99 271.627 L1504.99 271.627  Z" fill="#e26f46" fill-rule="evenodd" fill-opacity="1"/>
<polyline clip-path="url(#clip782)" style="stroke:#000000; stroke-linecap:round; stroke-linejoin:round; stroke-width:4; stroke-opacity:1; fill:none" points="1504.99,271.627 1504.99,1486.45 1539.65,1486.45 1539.65,271.627 1504.99,271.627 "/>
<path clip-path="url(#clip782)" d="M1539.65 511.786 L1539.65 1486.45 L1574.31 1486.45 L1574.31 511.786 L1539.65 511.786 L1539.65 511.786  Z" fill="#e26f46" fill-rule="evenodd" fill-opacity="1"/>
<polyline clip-path="url(#clip782)" style="stroke:#000000; stroke-linecap:round; stroke-linejoin:round; stroke-width:4; stroke-opacity:1; fill:none" points="1539.65,511.786 1539.65,1486.45 1574.31,1486.45 1574.31,511.786 1539.65,511.786 "/>
<path clip-path="url(#clip782)" d="M1574.31 1486.45 L1574.31 1486.45 L1608.97 1486.45 L1608.97 1486.45 L1574.31 1486.45 L1574.31 1486.45  Z" fill="#e26f46" fill-rule="evenodd" fill-opacity="1"/>
<polyline clip-path="url(#clip782)" style="stroke:#000000; stroke-linecap:round; stroke-linejoin:round; stroke-width:4; stroke-opacity:1; fill:none" points="1574.31,1486.45 1574.31,1486.45 1608.97,1486.45 1574.31,1486.45 "/>
<path clip-path="url(#clip782)" d="M1608.97 678.32 L1608.97 1486.45 L1643.62 1486.45 L1643.62 678.32 L1608.97 678.32 L1608.97 678.32  Z" fill="#e26f46" fill-rule="evenodd" fill-opacity="1"/>
<polyline clip-path="url(#clip782)" style="stroke:#000000; stroke-linecap:round; stroke-linejoin:round; stroke-width:4; stroke-opacity:1; fill:none" points="1608.97,678.32 1608.97,1486.45 1643.62,1486.45 1643.62,678.32 1608.97,678.32 "/>
<path clip-path="url(#clip782)" d="M1643.62 874.655 L1643.62 1486.45 L1678.28 1486.45 L1678.28 874.655 L1643.62 874.655 L1643.62 874.655  Z" fill="#e26f46" fill-rule="evenodd" fill-opacity="1"/>
<polyline clip-path="url(#clip782)" style="stroke:#000000; stroke-linecap:round; stroke-linejoin:round; stroke-width:4; stroke-opacity:1; fill:none" points="1643.62,874.655 1643.62,1486.45 1678.28,1486.45 1678.28,874.655 1643.62,874.655 "/>
<path clip-path="url(#clip782)" d="M1678.28 1486.45 L1678.28 1486.45 L1712.94 1486.45 L1712.94 1486.45 L1678.28 1486.45 L1678.28 1486.45  Z" fill="#e26f46" fill-rule="evenodd" fill-opacity="1"/>
<polyline clip-path="url(#clip782)" style="stroke:#000000; stroke-linecap:round; stroke-linejoin:round; stroke-width:4; stroke-opacity:1; fill:none" points="1678.28,1486.45 1678.28,1486.45 1712.94,1486.45 1678.28,1486.45 "/>
<path clip-path="url(#clip782)" d="M1712.94 1072.74 L1712.94 1486.45 L1747.6 1486.45 L1747.6 1072.74 L1712.94 1072.74 L1712.94 1072.74  Z" fill="#e26f46" fill-rule="evenodd" fill-opacity="1"/>
<polyline clip-path="url(#clip782)" style="stroke:#000000; stroke-linecap:round; stroke-linejoin:round; stroke-width:4; stroke-opacity:1; fill:none" points="1712.94,1072.74 1712.94,1486.45 1747.6,1486.45 1747.6,1072.74 1712.94,1072.74 "/>
<path clip-path="url(#clip782)" d="M1747.6 1486.45 L1747.6 1486.45 L1782.26 1486.45 L1782.26 1486.45 L1747.6 1486.45 L1747.6 1486.45  Z" fill="#e26f46" fill-rule="evenodd" fill-opacity="1"/>
<polyline clip-path="url(#clip782)" style="stroke:#000000; stroke-linecap:round; stroke-linejoin:round; stroke-width:4; stroke-opacity:1; fill:none" points="1747.6,1486.45 1747.6,1486.45 1782.26,1486.45 1747.6,1486.45 "/>
<path clip-path="url(#clip782)" d="M1782.26 1186.69 L1782.26 1486.45 L1816.91 1486.45 L1816.91 1186.69 L1782.26 1186.69 L1782.26 1186.69  Z" fill="#e26f46" fill-rule="evenodd" fill-opacity="1"/>
<polyline clip-path="url(#clip782)" style="stroke:#000000; stroke-linecap:round; stroke-linejoin:round; stroke-width:4; stroke-opacity:1; fill:none" points="1782.26,1186.69 1782.26,1486.45 1816.91,1486.45 1816.91,1186.69 1782.26,1186.69 "/>
<path clip-path="url(#clip782)" d="M1816.91 1290.11 L1816.91 1486.45 L1851.57 1486.45 L1851.57 1290.11 L1816.91 1290.11 L1816.91 1290.11  Z" fill="#e26f46" fill-rule="evenodd" fill-opacity="1"/>
<polyline clip-path="url(#clip782)" style="stroke:#000000; stroke-linecap:round; stroke-linejoin:round; stroke-width:4; stroke-opacity:1; fill:none" points="1816.91,1290.11 1816.91,1486.45 1851.57,1486.45 1851.57,1290.11 1816.91,1290.11 "/>
<path clip-path="url(#clip782)" d="M1851.57 1486.45 L1851.57 1486.45 L1886.23 1486.45 L1886.23 1486.45 L1851.57 1486.45 L1851.57 1486.45  Z" fill="#e26f46" fill-rule="evenodd" fill-opacity="1"/>
<polyline clip-path="url(#clip782)" style="stroke:#000000; stroke-linecap:round; stroke-linejoin:round; stroke-width:4; stroke-opacity:1; fill:none" points="1851.57,1486.45 1851.57,1486.45 1886.23,1486.45 1851.57,1486.45 "/>
<path clip-path="url(#clip782)" d="M1886.23 1351.47 L1886.23 1486.45 L1920.89 1486.45 L1920.89 1351.47 L1886.23 1351.47 L1886.23 1351.47  Z" fill="#e26f46" fill-rule="evenodd" fill-opacity="1"/>
<polyline clip-path="url(#clip782)" style="stroke:#000000; stroke-linecap:round; stroke-linejoin:round; stroke-width:4; stroke-opacity:1; fill:none" points="1886.23,1351.47 1886.23,1486.45 1920.89,1486.45 1920.89,1351.47 1886.23,1351.47 "/>
<path clip-path="url(#clip782)" d="M1920.89 1418.08 L1920.89 1486.45 L1955.55 1486.45 L1955.55 1418.08 L1920.89 1418.08 L1920.89 1418.08  Z" fill="#e26f46" fill-rule="evenodd" fill-opacity="1"/>
<polyline clip-path="url(#clip782)" style="stroke:#000000; stroke-linecap:round; stroke-linejoin:round; stroke-width:4; stroke-opacity:1; fill:none" points="1920.89,1418.08 1920.89,1486.45 1955.55,1486.45 1955.55,1418.08 1920.89,1418.08 "/>
<path clip-path="url(#clip782)" d="M1955.55 1486.45 L1955.55 1486.45 L1990.2 1486.45 L1990.2 1486.45 L1955.55 1486.45 L1955.55 1486.45  Z" fill="#e26f46" fill-rule="evenodd" fill-opacity="1"/>
<polyline clip-path="url(#clip782)" style="stroke:#000000; stroke-linecap:round; stroke-linejoin:round; stroke-width:4; stroke-opacity:1; fill:none" points="1955.55,1486.45 1955.55,1486.45 1990.2,1486.45 1955.55,1486.45 "/>
<path clip-path="url(#clip782)" d="M1990.2 1425.09 L1990.2 1486.45 L2024.86 1486.45 L2024.86 1425.09 L1990.2 1425.09 L1990.2 1425.09  Z" fill="#e26f46" fill-rule="evenodd" fill-opacity="1"/>
<polyline clip-path="url(#clip782)" style="stroke:#000000; stroke-linecap:round; stroke-linejoin:round; stroke-width:4; stroke-opacity:1; fill:none" points="1990.2,1425.09 1990.2,1486.45 2024.86,1486.45 2024.86,1425.09 1990.2,1425.09 "/>
<path clip-path="url(#clip782)" d="M2024.86 1460.15 L2024.86 1486.45 L2059.52 1486.45 L2059.52 1460.15 L2024.86 1460.15 L2024.86 1460.15  Z" fill="#e26f46" fill-rule="evenodd" fill-opacity="1"/>
<polyline clip-path="url(#clip782)" style="stroke:#000000; stroke-linecap:round; stroke-linejoin:round; stroke-width:4; stroke-opacity:1; fill:none" points="2024.86,1460.15 2024.86,1486.45 2059.52,1486.45 2059.52,1460.15 2024.86,1460.15 "/>
<path clip-path="url(#clip782)" d="M2059.52 1486.45 L2059.52 1486.45 L2094.18 1486.45 L2094.18 1486.45 L2059.52 1486.45 L2059.52 1486.45  Z" fill="#e26f46" fill-rule="evenodd" fill-opacity="1"/>
<polyline clip-path="url(#clip782)" style="stroke:#000000; stroke-linecap:round; stroke-linejoin:round; stroke-width:4; stroke-opacity:1; fill:none" points="2059.52,1486.45 2059.52,1486.45 2094.18,1486.45 2059.52,1486.45 "/>
<path clip-path="url(#clip782)" d="M2094.18 1472.42 L2094.18 1486.45 L2128.84 1486.45 L2128.84 1472.42 L2094.18 1472.42 L2094.18 1472.42  Z" fill="#e26f46" fill-rule="evenodd" fill-opacity="1"/>
<polyline clip-path="url(#clip782)" style="stroke:#000000; stroke-linecap:round; stroke-linejoin:round; stroke-width:4; stroke-opacity:1; fill:none" points="2094.18,1472.42 2094.18,1486.45 2128.84,1486.45 2128.84,1472.42 2094.18,1472.42 "/>
<path clip-path="url(#clip782)" d="M2128.84 1486.45 L2128.84 1486.45 L2163.5 1486.45 L2163.5 1486.45 L2128.84 1486.45 L2128.84 1486.45  Z" fill="#e26f46" fill-rule="evenodd" fill-opacity="1"/>
<polyline clip-path="url(#clip782)" style="stroke:#000000; stroke-linecap:round; stroke-linejoin:round; stroke-width:4; stroke-opacity:1; fill:none" points="2128.84,1486.45 2128.84,1486.45 2163.5,1486.45 2128.84,1486.45 "/>
<path clip-path="url(#clip782)" d="M2163.5 1482.94 L2163.5 1486.45 L2198.15 1486.45 L2198.15 1482.94 L2163.5 1482.94 L2163.5 1482.94  Z" fill="#e26f46" fill-rule="evenodd" fill-opacity="1"/>
<polyline clip-path="url(#clip782)" style="stroke:#000000; stroke-linecap:round; stroke-linejoin:round; stroke-width:4; stroke-opacity:1; fill:none" points="2163.5,1482.94 2163.5,1486.45 2198.15,1486.45 2198.15,1482.94 2163.5,1482.94 "/>
<path clip-path="url(#clip782)" d="M2198.15 1484.69 L2198.15 1486.45 L2232.81 1486.45 L2232.81 1484.69 L2198.15 1484.69 L2198.15 1484.69  Z" fill="#e26f46" fill-rule="evenodd" fill-opacity="1"/>
<polyline clip-path="url(#clip782)" style="stroke:#000000; stroke-linecap:round; stroke-linejoin:round; stroke-width:4; stroke-opacity:1; fill:none" points="2198.15,1484.69 2198.15,1486.45 2232.81,1486.45 2232.81,1484.69 2198.15,1484.69 "/>
<circle clip-path="url(#clip782)" style="fill:#e26f46; stroke:none; fill-opacity:0" cx="309.288" cy="1484.69" r="2"/>
<circle clip-path="url(#clip782)" style="fill:#e26f46; stroke:none; fill-opacity:0" cx="343.947" cy="1486.45" r="2"/>
<circle clip-path="url(#clip782)" style="fill:#e26f46; stroke:none; fill-opacity:0" cx="378.605" cy="1486.45" r="2"/>
<circle clip-path="url(#clip782)" style="fill:#e26f46; stroke:none; fill-opacity:0" cx="413.263" cy="1482.94" r="2"/>
<circle clip-path="url(#clip782)" style="fill:#e26f46; stroke:none; fill-opacity:0" cx="447.921" cy="1486.45" r="2"/>
<circle clip-path="url(#clip782)" style="fill:#e26f46; stroke:none; fill-opacity:0" cx="482.579" cy="1481.19" r="2"/>
<circle clip-path="url(#clip782)" style="fill:#e26f46; stroke:none; fill-opacity:0" cx="517.237" cy="1472.42" r="2"/>
<circle clip-path="url(#clip782)" style="fill:#e26f46; stroke:none; fill-opacity:0" cx="551.895" cy="1486.45" r="2"/>
<circle clip-path="url(#clip782)" style="fill:#e26f46; stroke:none; fill-opacity:0" cx="586.553" cy="1456.65" r="2"/>
<circle clip-path="url(#clip782)" style="fill:#e26f46; stroke:none; fill-opacity:0" cx="621.211" cy="1486.45" r="2"/>
<circle clip-path="url(#clip782)" style="fill:#e26f46; stroke:none; fill-opacity:0" cx="655.869" cy="1433.86" r="2"/>
<circle clip-path="url(#clip782)" style="fill:#e26f46; stroke:none; fill-opacity:0" cx="690.527" cy="1416.33" r="2"/>
<circle clip-path="url(#clip782)" style="fill:#e26f46; stroke:none; fill-opacity:0" cx="725.185" cy="1486.45" r="2"/>
<circle clip-path="url(#clip782)" style="fill:#e26f46; stroke:none; fill-opacity:0" cx="759.843" cy="1339.2" r="2"/>
<circle clip-path="url(#clip782)" style="fill:#e26f46; stroke:none; fill-opacity:0" cx="794.501" cy="1297.13" r="2"/>
<circle clip-path="url(#clip782)" style="fill:#e26f46; stroke:none; fill-opacity:0" cx="829.16" cy="1486.45" r="2"/>
<circle clip-path="url(#clip782)" style="fill:#e26f46; stroke:none; fill-opacity:0" cx="863.818" cy="1188.44" r="2"/>
<circle clip-path="url(#clip782)" style="fill:#e26f46; stroke:none; fill-opacity:0" cx="898.476" cy="1062.22" r="2"/>
<circle clip-path="url(#clip782)" style="fill:#e26f46; stroke:none; fill-opacity:0" cx="933.134" cy="1486.45" r="2"/>
<circle clip-path="url(#clip782)" style="fill:#e26f46; stroke:none; fill-opacity:0" cx="967.792" cy="890.432" r="2"/>
<circle clip-path="url(#clip782)" style="fill:#e26f46; stroke:none; fill-opacity:0" cx="1002.45" cy="1486.45" r="2"/>
<circle clip-path="url(#clip782)" style="fill:#e26f46; stroke:none; fill-opacity:0" cx="1037.11" cy="771.228" r="2"/>
<circle clip-path="url(#clip782)" style="fill:#e26f46; stroke:none; fill-opacity:0" cx="1071.77" cy="573.141" r="2"/>
<circle clip-path="url(#clip782)" style="fill:#e26f46; stroke:none; fill-opacity:0" cx="1106.42" cy="1486.45" r="2"/>
<circle clip-path="url(#clip782)" style="fill:#e26f46; stroke:none; fill-opacity:0" cx="1141.08" cy="434.655" r="2"/>
<circle clip-path="url(#clip782)" style="fill:#e26f46; stroke:none; fill-opacity:0" cx="1175.74" cy="227.802" r="2"/>
<circle clip-path="url(#clip782)" style="fill:#e26f46; stroke:none; fill-opacity:0" cx="1210.4" cy="1486.45" r="2"/>
<circle clip-path="url(#clip782)" style="fill:#e26f46; stroke:none; fill-opacity:0" cx="1245.06" cy="141.905" r="2"/>
<circle clip-path="url(#clip782)" style="fill:#e26f46; stroke:none; fill-opacity:0" cx="1279.71" cy="119.117" r="2"/>
<circle clip-path="url(#clip782)" style="fill:#e26f46; stroke:none; fill-opacity:0" cx="1314.37" cy="1486.45" r="2"/>
<circle clip-path="url(#clip782)" style="fill:#e26f46; stroke:none; fill-opacity:0" cx="1349.03" cy="48.9971" r="2"/>
<circle clip-path="url(#clip782)" style="fill:#e26f46; stroke:none; fill-opacity:0" cx="1383.69" cy="1486.45" r="2"/>
<circle clip-path="url(#clip782)" style="fill:#e26f46; stroke:none; fill-opacity:0" cx="1418.35" cy="78.7979" r="2"/>
<circle clip-path="url(#clip782)" style="fill:#e26f46; stroke:none; fill-opacity:0" cx="1453" cy="113.858" r="2"/>
<circle clip-path="url(#clip782)" style="fill:#e26f46; stroke:none; fill-opacity:0" cx="1487.66" cy="1486.45" r="2"/>
<circle clip-path="url(#clip782)" style="fill:#e26f46; stroke:none; fill-opacity:0" cx="1522.32" cy="271.627" r="2"/>
<circle clip-path="url(#clip782)" style="fill:#e26f46; stroke:none; fill-opacity:0" cx="1556.98" cy="511.786" r="2"/>
<circle clip-path="url(#clip782)" style="fill:#e26f46; stroke:none; fill-opacity:0" cx="1591.64" cy="1486.45" r="2"/>
<circle clip-path="url(#clip782)" style="fill:#e26f46; stroke:none; fill-opacity:0" cx="1626.3" cy="678.32" r="2"/>
<circle clip-path="url(#clip782)" style="fill:#e26f46; stroke:none; fill-opacity:0" cx="1660.95" cy="874.655" r="2"/>
<circle clip-path="url(#clip782)" style="fill:#e26f46; stroke:none; fill-opacity:0" cx="1695.61" cy="1486.45" r="2"/>
<circle clip-path="url(#clip782)" style="fill:#e26f46; stroke:none; fill-opacity:0" cx="1730.27" cy="1072.74" r="2"/>
<circle clip-path="url(#clip782)" style="fill:#e26f46; stroke:none; fill-opacity:0" cx="1764.93" cy="1486.45" r="2"/>
<circle clip-path="url(#clip782)" style="fill:#e26f46; stroke:none; fill-opacity:0" cx="1799.59" cy="1186.69" r="2"/>
<circle clip-path="url(#clip782)" style="fill:#e26f46; stroke:none; fill-opacity:0" cx="1834.24" cy="1290.11" r="2"/>
<circle clip-path="url(#clip782)" style="fill:#e26f46; stroke:none; fill-opacity:0" cx="1868.9" cy="1486.45" r="2"/>
<circle clip-path="url(#clip782)" style="fill:#e26f46; stroke:none; fill-opacity:0" cx="1903.56" cy="1351.47" r="2"/>
<circle clip-path="url(#clip782)" style="fill:#e26f46; stroke:none; fill-opacity:0" cx="1938.22" cy="1418.08" r="2"/>
<circle clip-path="url(#clip782)" style="fill:#e26f46; stroke:none; fill-opacity:0" cx="1972.88" cy="1486.45" r="2"/>
<circle clip-path="url(#clip782)" style="fill:#e26f46; stroke:none; fill-opacity:0" cx="2007.53" cy="1425.09" r="2"/>
<circle clip-path="url(#clip782)" style="fill:#e26f46; stroke:none; fill-opacity:0" cx="2042.19" cy="1460.15" r="2"/>
<circle clip-path="url(#clip782)" style="fill:#e26f46; stroke:none; fill-opacity:0" cx="2076.85" cy="1486.45" r="2"/>
<circle clip-path="url(#clip782)" style="fill:#e26f46; stroke:none; fill-opacity:0" cx="2111.51" cy="1472.42" r="2"/>
<circle clip-path="url(#clip782)" style="fill:#e26f46; stroke:none; fill-opacity:0" cx="2146.17" cy="1486.45" r="2"/>
<circle clip-path="url(#clip782)" style="fill:#e26f46; stroke:none; fill-opacity:0" cx="2180.82" cy="1482.94" r="2"/>
<circle clip-path="url(#clip782)" style="fill:#e26f46; stroke:none; fill-opacity:0" cx="2215.48" cy="1484.69" r="2"/>
<path clip-path="url(#clip780)" d="M1812.25 250.738 L2280.06 250.738 L2280.06 95.2176 L1812.25 95.2176  Z" fill="#ffffff" fill-rule="evenodd" fill-opacity="1"/>
<polyline clip-path="url(#clip780)" style="stroke:#000000; stroke-linecap:round; stroke-linejoin:round; stroke-width:4; stroke-opacity:1; fill:none" points="1812.25,250.738 2280.06,250.738 2280.06,95.2176 1812.25,95.2176 1812.25,250.738 "/>
<path clip-path="url(#clip780)" d="M1836.48 167.794 L1981.86 167.794 L1981.86 126.322 L1836.48 126.322 L1836.48 167.794  Z" fill="#009af9" fill-rule="evenodd" fill-opacity="1"/>
<polyline clip-path="url(#clip780)" style="stroke:#000000; stroke-linecap:round; stroke-linejoin:round; stroke-width:4; stroke-opacity:1; fill:none" points="1836.48,167.794 1981.86,167.794 1981.86,126.322 1836.48,126.322 1836.48,167.794 "/>
<path clip-path="url(#clip780)" d="M2006.09 129.778 L2013.06 129.778 L2021.88 153.296 L2030.74 129.778 L2037.71 129.778 L2037.71 164.338 L2033.15 164.338 L2033.15 133.99 L2024.24 157.694 L2019.54 157.694 L2010.63 133.99 L2010.63 164.338 L2006.09 164.338 L2006.09 129.778 Z" fill="#000000" fill-rule="nonzero" fill-opacity="1" /><path clip-path="url(#clip780)" d="M2068.98 150.31 L2068.98 152.393 L2049.4 152.393 Q2049.68 156.791 2052.04 159.106 Q2054.42 161.398 2058.66 161.398 Q2061.11 161.398 2063.4 160.796 Q2065.72 160.194 2067.99 158.99 L2067.99 163.018 Q2065.7 163.99 2063.29 164.5 Q2060.88 165.009 2058.4 165.009 Q2052.2 165.009 2048.57 161.398 Q2044.96 157.787 2044.96 151.629 Q2044.96 145.264 2048.38 141.537 Q2051.83 137.787 2057.66 137.787 Q2062.9 137.787 2065.93 141.166 Q2068.98 144.523 2068.98 150.31 M2064.72 149.06 Q2064.68 145.565 2062.76 143.481 Q2060.86 141.398 2057.71 141.398 Q2054.15 141.398 2051.99 143.412 Q2049.86 145.426 2049.54 149.083 L2064.72 149.06 Z" fill="#000000" fill-rule="nonzero" fill-opacity="1" /><path clip-path="url(#clip780)" d="M2093.03 142.347 L2093.03 128.319 L2097.29 128.319 L2097.29 164.338 L2093.03 164.338 L2093.03 160.449 Q2091.69 162.763 2089.63 163.898 Q2087.59 165.009 2084.72 165.009 Q2080.02 165.009 2077.06 161.259 Q2074.12 157.509 2074.12 151.398 Q2074.12 145.287 2077.06 141.537 Q2080.02 137.787 2084.72 137.787 Q2087.59 137.787 2089.63 138.921 Q2091.69 140.032 2093.03 142.347 M2078.52 151.398 Q2078.52 156.097 2080.44 158.782 Q2082.39 161.444 2085.77 161.444 Q2089.15 161.444 2091.09 158.782 Q2093.03 156.097 2093.03 151.398 Q2093.03 146.699 2091.09 144.037 Q2089.15 141.352 2085.77 141.352 Q2082.39 141.352 2080.44 144.037 Q2078.52 146.699 2078.52 151.398 Z" fill="#000000" fill-rule="nonzero" fill-opacity="1" /><path clip-path="url(#clip780)" d="M2106.07 138.412 L2110.33 138.412 L2110.33 164.338 L2106.07 164.338 L2106.07 138.412 M2106.07 128.319 L2110.33 128.319 L2110.33 133.713 L2106.07 133.713 L2106.07 128.319 Z" fill="#000000" fill-rule="nonzero" fill-opacity="1" /><path clip-path="url(#clip780)" d="M2131.02 151.305 Q2125.86 151.305 2123.87 152.486 Q2121.88 153.666 2121.88 156.514 Q2121.88 158.782 2123.36 160.125 Q2124.86 161.444 2127.43 161.444 Q2130.97 161.444 2133.1 158.944 Q2135.26 156.421 2135.26 152.254 L2135.26 151.305 L2131.02 151.305 M2139.52 149.546 L2139.52 164.338 L2135.26 164.338 L2135.26 160.402 Q2133.8 162.763 2131.62 163.898 Q2129.45 165.009 2126.3 165.009 Q2122.32 165.009 2119.96 162.787 Q2117.62 160.541 2117.62 156.791 Q2117.62 152.416 2120.53 150.194 Q2123.47 147.972 2129.28 147.972 L2135.26 147.972 L2135.26 147.555 Q2135.26 144.615 2133.31 143.018 Q2131.39 141.398 2127.89 141.398 Q2125.67 141.398 2123.57 141.93 Q2121.46 142.463 2119.52 143.527 L2119.52 139.592 Q2121.85 138.69 2124.05 138.25 Q2126.25 137.787 2128.33 137.787 Q2133.96 137.787 2136.74 140.703 Q2139.52 143.62 2139.52 149.546 Z" fill="#000000" fill-rule="nonzero" fill-opacity="1" /><path clip-path="url(#clip780)" d="M1836.48 219.634 L1981.86 219.634 L1981.86 178.162 L1836.48 178.162 L1836.48 219.634  Z" fill="#e26f46" fill-rule="evenodd" fill-opacity="1"/>
<polyline clip-path="url(#clip780)" style="stroke:#000000; stroke-linecap:round; stroke-linejoin:round; stroke-width:4; stroke-opacity:1; fill:none" points="1836.48,219.634 1981.86,219.634 1981.86,178.162 1836.48,178.162 1836.48,219.634 "/>
<path clip-path="url(#clip780)" d="M2006.09 181.618 L2010.77 181.618 L2010.77 195.784 L2027.76 195.784 L2027.76 181.618 L2032.43 181.618 L2032.43 216.178 L2027.76 216.178 L2027.76 199.719 L2010.77 199.719 L2010.77 216.178 L2006.09 216.178 L2006.09 181.618 Z" fill="#000000" fill-rule="nonzero" fill-opacity="1" /><path clip-path="url(#clip780)" d="M2041.55 190.252 L2045.81 190.252 L2045.81 216.178 L2041.55 216.178 L2041.55 190.252 M2041.55 180.159 L2045.81 180.159 L2045.81 185.553 L2041.55 185.553 L2041.55 180.159 Z" fill="#000000" fill-rule="nonzero" fill-opacity="1" /><path clip-path="url(#clip780)" d="M2058.94 182.891 L2058.94 190.252 L2067.71 190.252 L2067.71 193.562 L2058.94 193.562 L2058.94 207.636 Q2058.94 210.807 2059.79 211.71 Q2060.67 212.613 2063.34 212.613 L2067.71 212.613 L2067.71 216.178 L2063.34 216.178 Q2058.4 216.178 2056.53 214.349 Q2054.65 212.497 2054.65 207.636 L2054.65 193.562 L2051.53 193.562 L2051.53 190.252 L2054.65 190.252 L2054.65 182.891 L2058.94 182.891 Z" fill="#000000" fill-rule="nonzero" fill-opacity="1" /><path clip-path="url(#clip780)" d="M2071.16 201.293 L2083.64 201.293 L2083.64 205.09 L2071.16 205.09 L2071.16 201.293 Z" fill="#000000" fill-rule="nonzero" fill-opacity="1" /><path clip-path="url(#clip780)" d="M2101.34 193.238 Q2097.92 193.238 2095.93 195.923 Q2093.94 198.585 2093.94 203.238 Q2093.94 207.891 2095.9 210.576 Q2097.9 213.238 2101.34 213.238 Q2104.75 213.238 2106.74 210.553 Q2108.73 207.867 2108.73 203.238 Q2108.73 198.631 2106.74 195.946 Q2104.75 193.238 2101.34 193.238 M2101.34 189.627 Q2106.9 189.627 2110.07 193.238 Q2113.24 196.849 2113.24 203.238 Q2113.24 209.604 2110.07 213.238 Q2106.9 216.849 2101.34 216.849 Q2095.77 216.849 2092.59 213.238 Q2089.45 209.604 2089.45 203.238 Q2089.45 196.849 2092.59 193.238 Q2095.77 189.627 2101.34 189.627 Z" fill="#000000" fill-rule="nonzero" fill-opacity="1" /><path clip-path="url(#clip780)" d="M2135.33 194.233 Q2134.61 193.817 2133.75 193.631 Q2132.92 193.423 2131.9 193.423 Q2128.29 193.423 2126.34 195.784 Q2124.42 198.122 2124.42 202.52 L2124.42 216.178 L2120.14 216.178 L2120.14 190.252 L2124.42 190.252 L2124.42 194.28 Q2125.77 191.918 2127.92 190.784 Q2130.07 189.627 2133.15 189.627 Q2133.59 189.627 2134.12 189.696 Q2134.65 189.743 2135.3 189.858 L2135.33 194.233 Z" fill="#000000" fill-rule="nonzero" fill-opacity="1" /><path clip-path="url(#clip780)" d="M2134.61 201.293 L2147.08 201.293 L2147.08 205.09 L2134.61 205.09 L2134.61 201.293 Z" fill="#000000" fill-rule="nonzero" fill-opacity="1" /><path clip-path="url(#clip780)" d="M2174.05 195.229 Q2175.65 192.358 2177.87 190.993 Q2180.09 189.627 2183.1 189.627 Q2187.15 189.627 2189.35 192.474 Q2191.55 195.298 2191.55 200.529 L2191.55 216.178 L2187.27 216.178 L2187.27 200.668 Q2187.27 196.942 2185.95 195.136 Q2184.63 193.33 2181.92 193.33 Q2178.61 193.33 2176.69 195.53 Q2174.77 197.729 2174.77 201.525 L2174.77 216.178 L2170.49 216.178 L2170.49 200.668 Q2170.49 196.918 2169.17 195.136 Q2167.85 193.33 2165.09 193.33 Q2161.83 193.33 2159.91 195.553 Q2157.99 197.752 2157.99 201.525 L2157.99 216.178 L2153.7 216.178 L2153.7 190.252 L2157.99 190.252 L2157.99 194.28 Q2159.45 191.895 2161.48 190.761 Q2163.52 189.627 2166.32 189.627 Q2169.14 189.627 2171.11 191.062 Q2173.1 192.497 2174.05 195.229 Z" fill="#000000" fill-rule="nonzero" fill-opacity="1" /><path clip-path="url(#clip780)" d="M2200.05 190.252 L2204.31 190.252 L2204.31 216.178 L2200.05 216.178 L2200.05 190.252 M2200.05 180.159 L2204.31 180.159 L2204.31 185.553 L2200.05 185.553 L2200.05 180.159 Z" fill="#000000" fill-rule="nonzero" fill-opacity="1" /><path clip-path="url(#clip780)" d="M2229.75 191.016 L2229.75 195.043 Q2227.94 194.117 2226 193.655 Q2224.05 193.192 2221.97 193.192 Q2218.8 193.192 2217.2 194.164 Q2215.63 195.136 2215.63 197.08 Q2215.63 198.562 2216.76 199.418 Q2217.89 200.252 2221.32 201.016 L2222.78 201.34 Q2227.32 202.312 2229.21 204.094 Q2231.14 205.854 2231.14 209.025 Q2231.14 212.636 2228.26 214.742 Q2225.42 216.849 2220.42 216.849 Q2218.33 216.849 2216.07 216.432 Q2213.82 216.039 2211.32 215.228 L2211.32 210.83 Q2213.68 212.057 2215.97 212.682 Q2218.26 213.284 2220.51 213.284 Q2223.52 213.284 2225.14 212.266 Q2226.76 211.224 2226.76 209.349 Q2226.76 207.613 2225.58 206.687 Q2224.42 205.761 2220.46 204.904 L2218.98 204.557 Q2215.02 203.724 2213.26 202.011 Q2211.51 200.275 2211.51 197.266 Q2211.51 193.608 2214.1 191.618 Q2216.69 189.627 2221.46 189.627 Q2223.82 189.627 2225.9 189.974 Q2227.99 190.321 2229.75 191.016 Z" fill="#000000" fill-rule="nonzero" fill-opacity="1" /><path clip-path="url(#clip780)" d="M2254.45 191.016 L2254.45 195.043 Q2252.64 194.117 2250.7 193.655 Q2248.75 193.192 2246.67 193.192 Q2243.5 193.192 2241.9 194.164 Q2240.32 195.136 2240.32 197.08 Q2240.32 198.562 2241.46 199.418 Q2242.59 200.252 2246.02 201.016 L2247.48 201.34 Q2252.01 202.312 2253.91 204.094 Q2255.83 205.854 2255.83 209.025 Q2255.83 212.636 2252.96 214.742 Q2250.12 216.849 2245.12 216.849 Q2243.03 216.849 2240.76 216.432 Q2238.52 216.039 2236.02 215.228 L2236.02 210.83 Q2238.38 212.057 2240.67 212.682 Q2242.96 213.284 2245.21 213.284 Q2248.22 213.284 2249.84 212.266 Q2251.46 211.224 2251.46 209.349 Q2251.46 207.613 2250.28 206.687 Q2249.12 205.761 2245.16 204.904 L2243.68 204.557 Q2239.72 203.724 2237.96 202.011 Q2236.2 200.275 2236.2 197.266 Q2236.2 193.608 2238.8 191.618 Q2241.39 189.627 2246.16 189.627 Q2248.52 189.627 2250.6 189.974 Q2252.69 190.321 2254.45 191.016 Z" fill="#000000" fill-rule="nonzero" fill-opacity="1" /></svg>
