<?xml version="1.0" encoding="utf-8"?>
<svg xmlns="http://www.w3.org/2000/svg" xmlns:xlink="http://www.w3.org/1999/xlink" width="600" height="400" viewBox="0 0 2400 1600">
<defs>
  <clipPath id="clip280">
    <rect x="0" y="0" width="2400" height="1600"/>
  </clipPath>
</defs>
<path clip-path="url(#clip280)" d="M0 1600 L2400 1600 L2400 0 L0 0  Z" fill="#ffffff" fill-rule="evenodd" fill-opacity="1"/>
<defs>
  <clipPath id="clip281">
    <rect x="480" y="0" width="1681" height="1600"/>
  </clipPath>
</defs>
<path clip-path="url(#clip280)" d="M169.121 1486.45 L2352.76 1486.45 L2352.76 47.2441 L169.121 47.2441  Z" fill="#ffffff" fill-rule="evenodd" fill-opacity="1"/>
<defs>
  <clipPath id="clip282">
    <rect x="169" y="47" width="2185" height="1440"/>
  </clipPath>
</defs>
<polyline clip-path="url(#clip282)" style="stroke:#000000; stroke-linecap:round; stroke-linejoin:round; stroke-width:2; stroke-opacity:0.1; fill:none" points="438.719,1486.45 438.719,47.2441 "/>
<polyline clip-path="url(#clip282)" style="stroke:#000000; stroke-linecap:round; stroke-linejoin:round; stroke-width:2; stroke-opacity:0.1; fill:none" points="737.708,1486.45 737.708,47.2441 "/>
<polyline clip-path="url(#clip282)" style="stroke:#000000; stroke-linecap:round; stroke-linejoin:round; stroke-width:2; stroke-opacity:0.1; fill:none" points="1036.7,1486.45 1036.7,47.2441 "/>
<polyline clip-path="url(#clip282)" style="stroke:#000000; stroke-linecap:round; stroke-linejoin:round; stroke-width:2; stroke-opacity:0.1; fill:none" points="1335.69,1486.45 1335.69,47.2441 "/>
<polyline clip-path="url(#clip282)" style="stroke:#000000; stroke-linecap:round; stroke-linejoin:round; stroke-width:2; stroke-opacity:0.1; fill:none" points="1634.67,1486.45 1634.67,47.2441 "/>
<polyline clip-path="url(#clip282)" style="stroke:#000000; stroke-linecap:round; stroke-linejoin:round; stroke-width:2; stroke-opacity:0.1; fill:none" points="1933.66,1486.45 1933.66,47.2441 "/>
<polyline clip-path="url(#clip282)" style="stroke:#000000; stroke-linecap:round; stroke-linejoin:round; stroke-width:2; stroke-opacity:0.1; fill:none" points="2232.65,1486.45 2232.65,47.2441 "/>
<polyline clip-path="url(#clip282)" style="stroke:#000000; stroke-linecap:round; stroke-linejoin:round; stroke-width:2; stroke-opacity:0.1; fill:none" points="169.121,1486.45 2352.76,1486.45 "/>
<polyline clip-path="url(#clip282)" style="stroke:#000000; stroke-linecap:round; stroke-linejoin:round; stroke-width:2; stroke-opacity:0.1; fill:none" points="169.121,1105.71 2352.76,1105.71 "/>
<polyline clip-path="url(#clip282)" style="stroke:#000000; stroke-linecap:round; stroke-linejoin:round; stroke-width:2; stroke-opacity:0.1; fill:none" points="169.121,724.964 2352.76,724.964 "/>
<polyline clip-path="url(#clip282)" style="stroke:#000000; stroke-linecap:round; stroke-linejoin:round; stroke-width:2; stroke-opacity:0.1; fill:none" points="169.121,344.223 2352.76,344.223 "/>
<polyline clip-path="url(#clip280)" style="stroke:#000000; stroke-linecap:round; stroke-linejoin:round; stroke-width:4; stroke-opacity:1; fill:none" points="169.121,1486.45 2352.76,1486.45 "/>
<polyline clip-path="url(#clip280)" style="stroke:#000000; stroke-linecap:round; stroke-linejoin:round; stroke-width:4; stroke-opacity:1; fill:none" points="438.719,1486.45 438.719,1467.55 "/>
<polyline clip-path="url(#clip280)" style="stroke:#000000; stroke-linecap:round; stroke-linejoin:round; stroke-width:4; stroke-opacity:1; fill:none" points="737.708,1486.45 737.708,1467.55 "/>
<polyline clip-path="url(#clip280)" style="stroke:#000000; stroke-linecap:round; stroke-linejoin:round; stroke-width:4; stroke-opacity:1; fill:none" points="1036.7,1486.45 1036.7,1467.55 "/>
<polyline clip-path="url(#clip280)" style="stroke:#000000; stroke-linecap:round; stroke-linejoin:round; stroke-width:4; stroke-opacity:1; fill:none" points="1335.69,1486.45 1335.69,1467.55 "/>
<polyline clip-path="url(#clip280)" style="stroke:#000000; stroke-linecap:round; stroke-linejoin:round; stroke-width:4; stroke-opacity:1; fill:none" points="1634.67,1486.45 1634.67,1467.55 "/>
<polyline clip-path="url(#clip280)" style="stroke:#000000; stroke-linecap:round; stroke-linejoin:round; stroke-width:4; stroke-opacity:1; fill:none" points="1933.66,1486.45 1933.66,1467.55 "/>
<polyline clip-path="url(#clip280)" style="stroke:#000000; stroke-linecap:round; stroke-linejoin:round; stroke-width:4; stroke-opacity:1; fill:none" points="2232.65,1486.45 2232.65,1467.55 "/>
<path clip-path="url(#clip280)" d="M386.393 1517.37 Q382.782 1517.37 380.954 1520.93 Q379.148 1524.47 379.148 1531.6 Q379.148 1538.71 380.954 1542.27 Q382.782 1545.82 386.393 1545.82 Q390.028 1545.82 391.833 1542.27 Q393.662 1538.71 393.662 1531.6 Q393.662 1524.47 391.833 1520.93 Q390.028 1517.37 386.393 1517.37 M386.393 1513.66 Q392.204 1513.66 395.259 1518.27 Q398.338 1522.85 398.338 1531.6 Q398.338 1540.33 395.259 1544.94 Q392.204 1549.52 386.393 1549.52 Q380.583 1549.52 377.505 1544.94 Q374.449 1540.33 374.449 1531.6 Q374.449 1522.85 377.505 1518.27 Q380.583 1513.66 386.393 1513.66 Z" fill="#000000" fill-rule="nonzero" fill-opacity="1" /><path clip-path="url(#clip280)" d="M406.555 1542.97 L411.44 1542.97 L411.44 1548.85 L406.555 1548.85 L406.555 1542.97 Z" fill="#000000" fill-rule="nonzero" fill-opacity="1" /><path clip-path="url(#clip280)" d="M421.764 1548.13 L421.764 1543.87 Q423.523 1544.7 425.328 1545.14 Q427.134 1545.58 428.87 1545.58 Q433.5 1545.58 435.93 1542.48 Q438.384 1539.36 438.731 1533.01 Q437.388 1535.01 435.328 1536.07 Q433.268 1537.13 430.768 1537.13 Q425.583 1537.13 422.551 1534.01 Q419.541 1530.86 419.541 1525.42 Q419.541 1520.1 422.689 1516.88 Q425.838 1513.66 431.069 1513.66 Q437.064 1513.66 440.213 1518.27 Q443.384 1522.85 443.384 1531.6 Q443.384 1539.77 439.495 1544.66 Q435.629 1549.52 429.078 1549.52 Q427.319 1549.52 425.514 1549.17 Q423.708 1548.82 421.764 1548.13 M431.069 1533.48 Q434.217 1533.48 436.046 1531.32 Q437.898 1529.17 437.898 1525.42 Q437.898 1521.7 436.046 1519.54 Q434.217 1517.37 431.069 1517.37 Q427.921 1517.37 426.069 1519.54 Q424.24 1521.7 424.24 1525.42 Q424.24 1529.17 426.069 1531.32 Q427.921 1533.48 431.069 1533.48 Z" fill="#000000" fill-rule="nonzero" fill-opacity="1" /><path clip-path="url(#clip280)" d="M451.925 1548.13 L451.925 1543.87 Q453.685 1544.7 455.49 1545.14 Q457.296 1545.58 459.032 1545.58 Q463.661 1545.58 466.092 1542.48 Q468.546 1539.36 468.893 1533.01 Q467.55 1535.01 465.49 1536.07 Q463.43 1537.13 460.93 1537.13 Q455.745 1537.13 452.712 1534.01 Q449.703 1530.86 449.703 1525.42 Q449.703 1520.1 452.851 1516.88 Q455.999 1513.66 461.231 1513.66 Q467.226 1513.66 470.374 1518.27 Q473.546 1522.85 473.546 1531.6 Q473.546 1539.77 469.657 1544.66 Q465.791 1549.52 459.24 1549.52 Q457.481 1549.52 455.675 1549.17 Q453.87 1548.82 451.925 1548.13 M461.231 1533.48 Q464.379 1533.48 466.208 1531.32 Q468.06 1529.17 468.06 1525.42 Q468.06 1521.7 466.208 1519.54 Q464.379 1517.37 461.231 1517.37 Q458.083 1517.37 456.231 1519.54 Q454.402 1521.7 454.402 1525.42 Q454.402 1529.17 456.231 1531.32 Q458.083 1533.48 461.231 1533.48 Z" fill="#000000" fill-rule="nonzero" fill-opacity="1" /><path clip-path="url(#clip280)" d="M480.768 1514.29 L502.99 1514.29 L502.99 1516.28 L490.444 1548.85 L485.56 1548.85 L497.365 1518.22 L480.768 1518.22 L480.768 1514.29 Z" fill="#000000" fill-rule="nonzero" fill-opacity="1" /><path clip-path="url(#clip280)" d="M684.977 1517.37 Q681.366 1517.37 679.537 1520.93 Q677.732 1524.47 677.732 1531.6 Q677.732 1538.71 679.537 1542.27 Q681.366 1545.82 684.977 1545.82 Q688.611 1545.82 690.417 1542.27 Q692.246 1538.71 692.246 1531.6 Q692.246 1524.47 690.417 1520.93 Q688.611 1517.37 684.977 1517.37 M684.977 1513.66 Q690.787 1513.66 693.843 1518.27 Q696.921 1522.85 696.921 1531.6 Q696.921 1540.33 693.843 1544.94 Q690.787 1549.52 684.977 1549.52 Q679.167 1549.52 676.088 1544.94 Q673.033 1540.33 673.033 1531.6 Q673.033 1522.85 676.088 1518.27 Q679.167 1513.66 684.977 1513.66 Z" fill="#000000" fill-rule="nonzero" fill-opacity="1" /><path clip-path="url(#clip280)" d="M705.139 1542.97 L710.023 1542.97 L710.023 1548.85 L705.139 1548.85 L705.139 1542.97 Z" fill="#000000" fill-rule="nonzero" fill-opacity="1" /><path clip-path="url(#clip280)" d="M720.347 1548.13 L720.347 1543.87 Q722.106 1544.7 723.912 1545.14 Q725.718 1545.58 727.454 1545.58 Q732.083 1545.58 734.514 1542.48 Q736.968 1539.36 737.315 1533.01 Q735.972 1535.01 733.912 1536.07 Q731.852 1537.13 729.352 1537.13 Q724.167 1537.13 721.134 1534.01 Q718.125 1530.86 718.125 1525.42 Q718.125 1520.1 721.273 1516.88 Q724.421 1513.66 729.653 1513.66 Q735.648 1513.66 738.796 1518.27 Q741.967 1522.85 741.967 1531.6 Q741.967 1539.77 738.079 1544.66 Q734.213 1549.52 727.662 1549.52 Q725.903 1549.52 724.097 1549.17 Q722.292 1548.82 720.347 1548.13 M729.653 1533.48 Q732.801 1533.48 734.63 1531.32 Q736.481 1529.17 736.481 1525.42 Q736.481 1521.7 734.63 1519.54 Q732.801 1517.37 729.653 1517.37 Q726.505 1517.37 724.653 1519.54 Q722.824 1521.7 722.824 1525.42 Q722.824 1529.17 724.653 1531.32 Q726.505 1533.48 729.653 1533.48 Z" fill="#000000" fill-rule="nonzero" fill-opacity="1" /><path clip-path="url(#clip280)" d="M750.509 1548.13 L750.509 1543.87 Q752.268 1544.7 754.074 1545.14 Q755.879 1545.58 757.616 1545.58 Q762.245 1545.58 764.676 1542.48 Q767.129 1539.36 767.477 1533.01 Q766.134 1535.01 764.074 1536.07 Q762.014 1537.13 759.514 1537.13 Q754.329 1537.13 751.296 1534.01 Q748.287 1530.86 748.287 1525.42 Q748.287 1520.1 751.435 1516.88 Q754.583 1513.66 759.815 1513.66 Q765.81 1513.66 768.958 1518.27 Q772.129 1522.85 772.129 1531.6 Q772.129 1539.77 768.241 1544.66 Q764.375 1549.52 757.824 1549.52 Q756.065 1549.52 754.259 1549.17 Q752.454 1548.82 750.509 1548.13 M759.815 1533.48 Q762.963 1533.48 764.791 1531.32 Q766.643 1529.17 766.643 1525.42 Q766.643 1521.7 764.791 1519.54 Q762.963 1517.37 759.815 1517.37 Q756.666 1517.37 754.815 1519.54 Q752.986 1521.7 752.986 1525.42 Q752.986 1529.17 754.815 1531.32 Q756.666 1533.48 759.815 1533.48 Z" fill="#000000" fill-rule="nonzero" fill-opacity="1" /><path clip-path="url(#clip280)" d="M790.532 1532.44 Q787.199 1532.44 785.277 1534.22 Q783.379 1536 783.379 1539.13 Q783.379 1542.25 785.277 1544.03 Q787.199 1545.82 790.532 1545.82 Q793.865 1545.82 795.787 1544.03 Q797.708 1542.23 797.708 1539.13 Q797.708 1536 795.787 1534.22 Q793.889 1532.44 790.532 1532.44 M785.856 1530.45 Q782.847 1529.7 781.157 1527.64 Q779.49 1525.58 779.49 1522.62 Q779.49 1518.48 782.43 1516.07 Q785.393 1513.66 790.532 1513.66 Q795.694 1513.66 798.634 1516.07 Q801.574 1518.48 801.574 1522.62 Q801.574 1525.58 799.884 1527.64 Q798.217 1529.7 795.231 1530.45 Q798.611 1531.23 800.486 1533.52 Q802.384 1535.82 802.384 1539.13 Q802.384 1544.15 799.305 1546.83 Q796.25 1549.52 790.532 1549.52 Q784.814 1549.52 781.736 1546.83 Q778.68 1544.15 778.68 1539.13 Q778.68 1535.82 780.578 1533.52 Q782.477 1531.23 785.856 1530.45 M784.143 1523.06 Q784.143 1525.75 785.81 1527.25 Q787.5 1528.76 790.532 1528.76 Q793.541 1528.76 795.231 1527.25 Q796.944 1525.75 796.944 1523.06 Q796.944 1520.38 795.231 1518.87 Q793.541 1517.37 790.532 1517.37 Q787.5 1517.37 785.81 1518.87 Q784.143 1520.38 784.143 1523.06 Z" fill="#000000" fill-rule="nonzero" fill-opacity="1" /><path clip-path="url(#clip280)" d="M984.012 1517.37 Q980.401 1517.37 978.572 1520.93 Q976.767 1524.47 976.767 1531.6 Q976.767 1538.71 978.572 1542.27 Q980.401 1545.82 984.012 1545.82 Q987.646 1545.82 989.452 1542.27 Q991.281 1538.71 991.281 1531.6 Q991.281 1524.47 989.452 1520.93 Q987.646 1517.37 984.012 1517.37 M984.012 1513.66 Q989.822 1513.66 992.878 1518.27 Q995.957 1522.85 995.957 1531.6 Q995.957 1540.33 992.878 1544.94 Q989.822 1549.52 984.012 1549.52 Q978.202 1549.52 975.123 1544.94 Q972.068 1540.33 972.068 1531.6 Q972.068 1522.85 975.123 1518.27 Q978.202 1513.66 984.012 1513.66 Z" fill="#000000" fill-rule="nonzero" fill-opacity="1" /><path clip-path="url(#clip280)" d="M1004.17 1542.97 L1009.06 1542.97 L1009.06 1548.85 L1004.17 1548.85 L1004.17 1542.97 Z" fill="#000000" fill-rule="nonzero" fill-opacity="1" /><path clip-path="url(#clip280)" d="M1019.38 1548.13 L1019.38 1543.87 Q1021.14 1544.7 1022.95 1545.14 Q1024.75 1545.58 1026.49 1545.58 Q1031.12 1545.58 1033.55 1542.48 Q1036 1539.36 1036.35 1533.01 Q1035.01 1535.01 1032.95 1536.07 Q1030.89 1537.13 1028.39 1537.13 Q1023.2 1537.13 1020.17 1534.01 Q1017.16 1530.86 1017.16 1525.42 Q1017.16 1520.1 1020.31 1516.88 Q1023.46 1513.66 1028.69 1513.66 Q1034.68 1513.66 1037.83 1518.27 Q1041 1522.85 1041 1531.6 Q1041 1539.77 1037.11 1544.66 Q1033.25 1549.52 1026.7 1549.52 Q1024.94 1549.52 1023.13 1549.17 Q1021.33 1548.82 1019.38 1548.13 M1028.69 1533.48 Q1031.84 1533.48 1033.66 1531.32 Q1035.52 1529.17 1035.52 1525.42 Q1035.52 1521.7 1033.66 1519.54 Q1031.84 1517.37 1028.69 1517.37 Q1025.54 1517.37 1023.69 1519.54 Q1021.86 1521.7 1021.86 1525.42 Q1021.86 1529.17 1023.69 1531.32 Q1025.54 1533.48 1028.69 1533.48 Z" fill="#000000" fill-rule="nonzero" fill-opacity="1" /><path clip-path="url(#clip280)" d="M1049.54 1548.13 L1049.54 1543.87 Q1051.3 1544.7 1053.11 1545.14 Q1054.91 1545.58 1056.65 1545.58 Q1061.28 1545.58 1063.71 1542.48 Q1066.16 1539.36 1066.51 1533.01 Q1065.17 1535.01 1063.11 1536.07 Q1061.05 1537.13 1058.55 1537.13 Q1053.36 1537.13 1050.33 1534.01 Q1047.32 1530.86 1047.32 1525.42 Q1047.32 1520.1 1050.47 1516.88 Q1053.62 1513.66 1058.85 1513.66 Q1064.85 1513.66 1067.99 1518.27 Q1071.16 1522.85 1071.16 1531.6 Q1071.16 1539.77 1067.28 1544.66 Q1063.41 1549.52 1056.86 1549.52 Q1055.1 1549.52 1053.29 1549.17 Q1051.49 1548.82 1049.54 1548.13 M1058.85 1533.48 Q1062 1533.48 1063.83 1531.32 Q1065.68 1529.17 1065.68 1525.42 Q1065.68 1521.7 1063.83 1519.54 Q1062 1517.37 1058.85 1517.37 Q1055.7 1517.37 1053.85 1519.54 Q1052.02 1521.7 1052.02 1525.42 Q1052.02 1529.17 1053.85 1531.32 Q1055.7 1533.48 1058.85 1533.48 Z" fill="#000000" fill-rule="nonzero" fill-opacity="1" /><path clip-path="url(#clip280)" d="M1079.71 1548.13 L1079.71 1543.87 Q1081.47 1544.7 1083.27 1545.14 Q1085.08 1545.58 1086.81 1545.58 Q1091.44 1545.58 1093.87 1542.48 Q1096.33 1539.36 1096.67 1533.01 Q1095.33 1535.01 1093.27 1536.07 Q1091.21 1537.13 1088.71 1537.13 Q1083.53 1537.13 1080.49 1534.01 Q1077.48 1530.86 1077.48 1525.42 Q1077.48 1520.1 1080.63 1516.88 Q1083.78 1513.66 1089.01 1513.66 Q1095.01 1513.66 1098.16 1518.27 Q1101.33 1522.85 1101.33 1531.6 Q1101.33 1539.77 1097.44 1544.66 Q1093.57 1549.52 1087.02 1549.52 Q1085.26 1549.52 1083.46 1549.17 Q1081.65 1548.82 1079.71 1548.13 M1089.01 1533.48 Q1092.16 1533.48 1093.99 1531.32 Q1095.84 1529.17 1095.84 1525.42 Q1095.84 1521.7 1093.99 1519.54 Q1092.16 1517.37 1089.01 1517.37 Q1085.86 1517.37 1084.01 1519.54 Q1082.18 1521.7 1082.18 1525.42 Q1082.18 1529.17 1084.01 1531.32 Q1085.86 1533.48 1089.01 1533.48 Z" fill="#000000" fill-rule="nonzero" fill-opacity="1" /><path clip-path="url(#clip280)" d="M1272.68 1544.91 L1280.32 1544.91 L1280.32 1518.55 L1272.01 1520.21 L1272.01 1515.95 L1280.27 1514.29 L1284.95 1514.29 L1284.95 1544.91 L1292.58 1544.91 L1292.58 1548.85 L1272.68 1548.85 L1272.68 1544.91 Z" fill="#000000" fill-rule="nonzero" fill-opacity="1" /><path clip-path="url(#clip280)" d="M1302.03 1542.97 L1306.91 1542.97 L1306.91 1548.85 L1302.03 1548.85 L1302.03 1542.97 Z" fill="#000000" fill-rule="nonzero" fill-opacity="1" /><path clip-path="url(#clip280)" d="M1327.1 1517.37 Q1323.49 1517.37 1321.66 1520.93 Q1319.85 1524.47 1319.85 1531.6 Q1319.85 1538.71 1321.66 1542.27 Q1323.49 1545.82 1327.1 1545.82 Q1330.73 1545.82 1332.54 1542.27 Q1334.37 1538.71 1334.37 1531.6 Q1334.37 1524.47 1332.54 1520.93 Q1330.73 1517.37 1327.1 1517.37 M1327.1 1513.66 Q1332.91 1513.66 1335.96 1518.27 Q1339.04 1522.85 1339.04 1531.6 Q1339.04 1540.33 1335.96 1544.94 Q1332.91 1549.52 1327.1 1549.52 Q1321.29 1549.52 1318.21 1544.94 Q1315.15 1540.33 1315.15 1531.6 Q1315.15 1522.85 1318.21 1518.27 Q1321.29 1513.66 1327.1 1513.66 Z" fill="#000000" fill-rule="nonzero" fill-opacity="1" /><path clip-path="url(#clip280)" d="M1357.26 1517.37 Q1353.65 1517.37 1351.82 1520.93 Q1350.01 1524.47 1350.01 1531.6 Q1350.01 1538.71 1351.82 1542.27 Q1353.65 1545.82 1357.26 1545.82 Q1360.89 1545.82 1362.7 1542.27 Q1364.53 1538.71 1364.53 1531.6 Q1364.53 1524.47 1362.7 1520.93 Q1360.89 1517.37 1357.26 1517.37 M1357.26 1513.66 Q1363.07 1513.66 1366.13 1518.27 Q1369.2 1522.85 1369.2 1531.6 Q1369.2 1540.33 1366.13 1544.94 Q1363.07 1549.52 1357.26 1549.52 Q1351.45 1549.52 1348.37 1544.94 Q1345.32 1540.33 1345.32 1531.6 Q1345.32 1522.85 1348.37 1518.27 Q1351.45 1513.66 1357.26 1513.66 Z" fill="#000000" fill-rule="nonzero" fill-opacity="1" /><path clip-path="url(#clip280)" d="M1387.42 1517.37 Q1383.81 1517.37 1381.98 1520.93 Q1380.18 1524.47 1380.18 1531.6 Q1380.18 1538.71 1381.98 1542.27 Q1383.81 1545.82 1387.42 1545.82 Q1391.06 1545.82 1392.86 1542.27 Q1394.69 1538.71 1394.69 1531.6 Q1394.69 1524.47 1392.86 1520.93 Q1391.06 1517.37 1387.42 1517.37 M1387.42 1513.66 Q1393.23 1513.66 1396.29 1518.27 Q1399.37 1522.85 1399.37 1531.6 Q1399.37 1540.33 1396.29 1544.94 Q1393.23 1549.52 1387.42 1549.52 Q1381.61 1549.52 1378.53 1544.94 Q1375.48 1540.33 1375.48 1531.6 Q1375.48 1522.85 1378.53 1518.27 Q1381.61 1513.66 1387.42 1513.66 Z" fill="#000000" fill-rule="nonzero" fill-opacity="1" /><path clip-path="url(#clip280)" d="M1572.28 1544.91 L1579.92 1544.91 L1579.92 1518.55 L1571.61 1520.21 L1571.61 1515.95 L1579.87 1514.29 L1584.55 1514.29 L1584.55 1544.91 L1592.19 1544.91 L1592.19 1548.85 L1572.28 1548.85 L1572.28 1544.91 Z" fill="#000000" fill-rule="nonzero" fill-opacity="1" /><path clip-path="url(#clip280)" d="M1601.63 1542.97 L1606.52 1542.97 L1606.52 1548.85 L1601.63 1548.85 L1601.63 1542.97 Z" fill="#000000" fill-rule="nonzero" fill-opacity="1" /><path clip-path="url(#clip280)" d="M1626.7 1517.37 Q1623.09 1517.37 1621.26 1520.93 Q1619.45 1524.47 1619.45 1531.6 Q1619.45 1538.71 1621.26 1542.27 Q1623.09 1545.82 1626.7 1545.82 Q1630.33 1545.82 1632.14 1542.27 Q1633.97 1538.71 1633.97 1531.6 Q1633.97 1524.47 1632.14 1520.93 Q1630.33 1517.37 1626.7 1517.37 M1626.7 1513.66 Q1632.51 1513.66 1635.57 1518.27 Q1638.64 1522.85 1638.64 1531.6 Q1638.64 1540.33 1635.57 1544.94 Q1632.51 1549.52 1626.7 1549.52 Q1620.89 1549.52 1617.81 1544.94 Q1614.76 1540.33 1614.76 1531.6 Q1614.76 1522.85 1617.81 1518.27 Q1620.89 1513.66 1626.7 1513.66 Z" fill="#000000" fill-rule="nonzero" fill-opacity="1" /><path clip-path="url(#clip280)" d="M1656.86 1517.37 Q1653.25 1517.37 1651.42 1520.93 Q1649.62 1524.47 1649.62 1531.6 Q1649.62 1538.71 1651.42 1542.27 Q1653.25 1545.82 1656.86 1545.82 Q1660.5 1545.82 1662.3 1542.27 Q1664.13 1538.71 1664.13 1531.6 Q1664.13 1524.47 1662.3 1520.93 Q1660.5 1517.37 1656.86 1517.37 M1656.86 1513.66 Q1662.67 1513.66 1665.73 1518.27 Q1668.81 1522.85 1668.81 1531.6 Q1668.81 1540.33 1665.73 1544.94 Q1662.67 1549.52 1656.86 1549.52 Q1651.05 1549.52 1647.97 1544.94 Q1644.92 1540.33 1644.92 1531.6 Q1644.92 1522.85 1647.97 1518.27 Q1651.05 1513.66 1656.86 1513.66 Z" fill="#000000" fill-rule="nonzero" fill-opacity="1" /><path clip-path="url(#clip280)" d="M1677.83 1544.91 L1685.47 1544.91 L1685.47 1518.55 L1677.16 1520.21 L1677.16 1515.95 L1685.43 1514.29 L1690.1 1514.29 L1690.1 1544.91 L1697.74 1544.91 L1697.74 1548.85 L1677.83 1548.85 L1677.83 1544.91 Z" fill="#000000" fill-rule="nonzero" fill-opacity="1" /><path clip-path="url(#clip280)" d="M1871.45 1544.91 L1879.09 1544.91 L1879.09 1518.55 L1870.78 1520.21 L1870.78 1515.95 L1879.05 1514.29 L1883.72 1514.29 L1883.72 1544.91 L1891.36 1544.91 L1891.36 1548.85 L1871.45 1548.85 L1871.45 1544.91 Z" fill="#000000" fill-rule="nonzero" fill-opacity="1" /><path clip-path="url(#clip280)" d="M1900.8 1542.97 L1905.69 1542.97 L1905.69 1548.85 L1900.8 1548.85 L1900.8 1542.97 Z" fill="#000000" fill-rule="nonzero" fill-opacity="1" /><path clip-path="url(#clip280)" d="M1925.87 1517.37 Q1922.26 1517.37 1920.43 1520.93 Q1918.63 1524.47 1918.63 1531.6 Q1918.63 1538.71 1920.43 1542.27 Q1922.26 1545.82 1925.87 1545.82 Q1929.51 1545.82 1931.31 1542.27 Q1933.14 1538.71 1933.14 1531.6 Q1933.14 1524.47 1931.31 1520.93 Q1929.51 1517.37 1925.87 1517.37 M1925.87 1513.66 Q1931.68 1513.66 1934.74 1518.27 Q1937.82 1522.85 1937.82 1531.6 Q1937.82 1540.33 1934.74 1544.94 Q1931.68 1549.52 1925.87 1549.52 Q1920.06 1549.52 1916.99 1544.94 Q1913.93 1540.33 1913.93 1531.6 Q1913.93 1522.85 1916.99 1518.27 Q1920.06 1513.66 1925.87 1513.66 Z" fill="#000000" fill-rule="nonzero" fill-opacity="1" /><path clip-path="url(#clip280)" d="M1956.04 1517.37 Q1952.42 1517.37 1950.6 1520.93 Q1948.79 1524.47 1948.79 1531.6 Q1948.79 1538.71 1950.6 1542.27 Q1952.42 1545.82 1956.04 1545.82 Q1959.67 1545.82 1961.48 1542.27 Q1963.3 1538.71 1963.3 1531.6 Q1963.3 1524.47 1961.48 1520.93 Q1959.67 1517.37 1956.04 1517.37 M1956.04 1513.66 Q1961.85 1513.66 1964.9 1518.27 Q1967.98 1522.85 1967.98 1531.6 Q1967.98 1540.33 1964.9 1544.94 Q1961.85 1549.52 1956.04 1549.52 Q1950.23 1549.52 1947.15 1544.94 Q1944.09 1540.33 1944.09 1531.6 Q1944.09 1522.85 1947.15 1518.27 Q1950.23 1513.66 1956.04 1513.66 Z" fill="#000000" fill-rule="nonzero" fill-opacity="1" /><path clip-path="url(#clip280)" d="M1980.23 1544.91 L1996.54 1544.91 L1996.54 1548.85 L1974.6 1548.85 L1974.6 1544.91 Q1977.26 1542.16 1981.85 1537.53 Q1986.45 1532.88 1987.63 1531.53 Q1989.88 1529.01 1990.76 1527.27 Q1991.66 1525.51 1991.66 1523.82 Q1991.66 1521.07 1989.72 1519.33 Q1987.79 1517.6 1984.69 1517.6 Q1982.49 1517.6 1980.04 1518.36 Q1977.61 1519.13 1974.83 1520.68 L1974.83 1515.95 Q1977.66 1514.82 1980.11 1514.24 Q1982.56 1513.66 1984.6 1513.66 Q1989.97 1513.66 1993.17 1516.35 Q1996.36 1519.03 1996.36 1523.52 Q1996.36 1525.65 1995.55 1527.57 Q1994.76 1529.47 1992.66 1532.07 Q1992.08 1532.74 1988.98 1535.95 Q1985.87 1539.15 1980.23 1544.91 Z" fill="#000000" fill-rule="nonzero" fill-opacity="1" /><path clip-path="url(#clip280)" d="M2169.97 1544.91 L2177.61 1544.91 L2177.61 1518.55 L2169.3 1520.21 L2169.3 1515.95 L2177.56 1514.29 L2182.24 1514.29 L2182.24 1544.91 L2189.87 1544.91 L2189.87 1548.85 L2169.97 1548.85 L2169.97 1544.91 Z" fill="#000000" fill-rule="nonzero" fill-opacity="1" /><path clip-path="url(#clip280)" d="M2199.32 1542.97 L2204.2 1542.97 L2204.2 1548.85 L2199.32 1548.85 L2199.32 1542.97 Z" fill="#000000" fill-rule="nonzero" fill-opacity="1" /><path clip-path="url(#clip280)" d="M2224.39 1517.37 Q2220.78 1517.37 2218.95 1520.93 Q2217.14 1524.47 2217.14 1531.6 Q2217.14 1538.71 2218.95 1542.27 Q2220.78 1545.82 2224.39 1545.82 Q2228.02 1545.82 2229.83 1542.27 Q2231.66 1538.71 2231.66 1531.6 Q2231.66 1524.47 2229.83 1520.93 Q2228.02 1517.37 2224.39 1517.37 M2224.39 1513.66 Q2230.2 1513.66 2233.25 1518.27 Q2236.33 1522.85 2236.33 1531.6 Q2236.33 1540.33 2233.25 1544.94 Q2230.2 1549.52 2224.39 1549.52 Q2218.58 1549.52 2215.5 1544.94 Q2212.44 1540.33 2212.44 1531.6 Q2212.44 1522.85 2215.5 1518.27 Q2218.58 1513.66 2224.39 1513.66 Z" fill="#000000" fill-rule="nonzero" fill-opacity="1" /><path clip-path="url(#clip280)" d="M2254.55 1517.37 Q2250.94 1517.37 2249.11 1520.93 Q2247.3 1524.47 2247.3 1531.6 Q2247.3 1538.71 2249.11 1542.27 Q2250.94 1545.82 2254.55 1545.82 Q2258.18 1545.82 2259.99 1542.27 Q2261.82 1538.71 2261.82 1531.6 Q2261.82 1524.47 2259.99 1520.93 Q2258.18 1517.37 2254.55 1517.37 M2254.55 1513.66 Q2260.36 1513.66 2263.42 1518.27 Q2266.49 1522.85 2266.49 1531.6 Q2266.49 1540.33 2263.42 1544.94 Q2260.36 1549.52 2254.55 1549.52 Q2248.74 1549.52 2245.66 1544.94 Q2242.61 1540.33 2242.61 1531.6 Q2242.61 1522.85 2245.66 1518.27 Q2248.74 1513.66 2254.55 1513.66 Z" fill="#000000" fill-rule="nonzero" fill-opacity="1" /><path clip-path="url(#clip280)" d="M2288.88 1530.21 Q2292.24 1530.93 2294.11 1533.2 Q2296.01 1535.47 2296.01 1538.8 Q2296.01 1543.92 2292.49 1546.72 Q2288.97 1549.52 2282.49 1549.52 Q2280.31 1549.52 2278 1549.08 Q2275.71 1548.66 2273.25 1547.81 L2273.25 1543.29 Q2275.2 1544.43 2277.51 1545.01 Q2279.83 1545.58 2282.35 1545.58 Q2286.75 1545.58 2289.04 1543.85 Q2291.36 1542.11 2291.36 1538.8 Q2291.36 1535.75 2289.2 1534.03 Q2287.07 1532.3 2283.25 1532.3 L2279.23 1532.3 L2279.23 1528.45 L2283.44 1528.45 Q2286.89 1528.45 2288.72 1527.09 Q2290.55 1525.7 2290.55 1523.11 Q2290.55 1520.45 2288.65 1519.03 Q2286.77 1517.6 2283.25 1517.6 Q2281.33 1517.6 2279.13 1518.01 Q2276.93 1518.43 2274.3 1519.31 L2274.3 1515.14 Q2276.96 1514.4 2279.27 1514.03 Q2281.61 1513.66 2283.67 1513.66 Q2288.99 1513.66 2292.1 1516.09 Q2295.2 1518.5 2295.2 1522.62 Q2295.2 1525.49 2293.55 1527.48 Q2291.91 1529.45 2288.88 1530.21 Z" fill="#000000" fill-rule="nonzero" fill-opacity="1" /><polyline clip-path="url(#clip280)" style="stroke:#000000; stroke-linecap:round; stroke-linejoin:round; stroke-width:4; stroke-opacity:1; fill:none" points="169.121,1486.45 169.121,47.2441 "/>
<polyline clip-path="url(#clip280)" style="stroke:#000000; stroke-linecap:round; stroke-linejoin:round; stroke-width:4; stroke-opacity:1; fill:none" points="169.121,1486.45 188.019,1486.45 "/>
<polyline clip-path="url(#clip280)" style="stroke:#000000; stroke-linecap:round; stroke-linejoin:round; stroke-width:4; stroke-opacity:1; fill:none" points="169.121,1105.71 188.019,1105.71 "/>
<polyline clip-path="url(#clip280)" style="stroke:#000000; stroke-linecap:round; stroke-linejoin:round; stroke-width:4; stroke-opacity:1; fill:none" points="169.121,724.964 188.019,724.964 "/>
<polyline clip-path="url(#clip280)" style="stroke:#000000; stroke-linecap:round; stroke-linejoin:round; stroke-width:4; stroke-opacity:1; fill:none" points="169.121,344.223 188.019,344.223 "/>
<path clip-path="url(#clip280)" d="M121.177 1472.25 Q117.566 1472.25 115.737 1475.81 Q113.932 1479.35 113.932 1486.48 Q113.932 1493.59 115.737 1497.15 Q117.566 1500.7 121.177 1500.7 Q124.811 1500.7 126.617 1497.15 Q128.445 1493.59 128.445 1486.48 Q128.445 1479.35 126.617 1475.81 Q124.811 1472.25 121.177 1472.25 M121.177 1468.54 Q126.987 1468.54 130.043 1473.15 Q133.121 1477.73 133.121 1486.48 Q133.121 1495.21 130.043 1499.82 Q126.987 1504.4 121.177 1504.4 Q115.367 1504.4 112.288 1499.82 Q109.233 1495.21 109.233 1486.48 Q109.233 1477.73 112.288 1473.15 Q115.367 1468.54 121.177 1468.54 Z" fill="#000000" fill-rule="nonzero" fill-opacity="1" /><path clip-path="url(#clip280)" d="M81.0614 1088.43 L99.4178 1088.43 L99.4178 1092.36 L85.3438 1092.36 L85.3438 1100.83 Q86.3623 1100.49 87.3808 1100.32 Q88.3993 1100.14 89.4178 1100.14 Q95.2049 1100.14 98.5845 1103.31 Q101.964 1106.48 101.964 1111.9 Q101.964 1117.48 98.4919 1120.58 Q95.0197 1123.66 88.7003 1123.66 Q86.5243 1123.66 84.2558 1123.29 Q82.0105 1122.92 79.6031 1122.18 L79.6031 1117.48 Q81.6864 1118.61 83.9086 1119.17 Q86.1308 1119.72 88.6077 1119.72 Q92.6123 1119.72 94.9502 1117.62 Q97.2882 1115.51 97.2882 1111.9 Q97.2882 1108.29 94.9502 1106.18 Q92.6123 1104.07 88.6077 1104.07 Q86.7327 1104.07 84.8577 1104.49 Q83.0058 1104.91 81.0614 1105.79 L81.0614 1088.43 Z" fill="#000000" fill-rule="nonzero" fill-opacity="1" /><path clip-path="url(#clip280)" d="M121.177 1091.5 Q117.566 1091.5 115.737 1095.07 Q113.932 1098.61 113.932 1105.74 Q113.932 1112.85 115.737 1116.41 Q117.566 1119.95 121.177 1119.95 Q124.811 1119.95 126.617 1116.41 Q128.445 1112.85 128.445 1105.74 Q128.445 1098.61 126.617 1095.07 Q124.811 1091.5 121.177 1091.5 M121.177 1087.8 Q126.987 1087.8 130.043 1092.41 Q133.121 1096.99 133.121 1105.74 Q133.121 1114.47 130.043 1119.07 Q126.987 1123.66 121.177 1123.66 Q115.367 1123.66 112.288 1119.07 Q109.233 1114.47 109.233 1105.74 Q109.233 1096.99 112.288 1092.41 Q115.367 1087.8 121.177 1087.8 Z" fill="#000000" fill-rule="nonzero" fill-opacity="1" /><path clip-path="url(#clip280)" d="M51.6634 738.309 L59.3023 738.309 L59.3023 711.944 L50.9921 713.61 L50.9921 709.351 L59.256 707.684 L63.9319 707.684 L63.9319 738.309 L71.5707 738.309 L71.5707 742.244 L51.6634 742.244 L51.6634 738.309 Z" fill="#000000" fill-rule="nonzero" fill-opacity="1" /><path clip-path="url(#clip280)" d="M91.0151 710.763 Q87.404 710.763 85.5753 714.328 Q83.7697 717.87 83.7697 724.999 Q83.7697 732.106 85.5753 735.67 Q87.404 739.212 91.0151 739.212 Q94.6493 739.212 96.4548 735.67 Q98.2835 732.106 98.2835 724.999 Q98.2835 717.87 96.4548 714.328 Q94.6493 710.763 91.0151 710.763 M91.0151 707.059 Q96.8252 707.059 99.8808 711.666 Q102.959 716.249 102.959 724.999 Q102.959 733.726 99.8808 738.332 Q96.8252 742.916 91.0151 742.916 Q85.2049 742.916 82.1262 738.332 Q79.0707 733.726 79.0707 724.999 Q79.0707 716.249 82.1262 711.666 Q85.2049 707.059 91.0151 707.059 Z" fill="#000000" fill-rule="nonzero" fill-opacity="1" /><path clip-path="url(#clip280)" d="M121.177 710.763 Q117.566 710.763 115.737 714.328 Q113.932 717.87 113.932 724.999 Q113.932 732.106 115.737 735.67 Q117.566 739.212 121.177 739.212 Q124.811 739.212 126.617 735.67 Q128.445 732.106 128.445 724.999 Q128.445 717.87 126.617 714.328 Q124.811 710.763 121.177 710.763 M121.177 707.059 Q126.987 707.059 130.043 711.666 Q133.121 716.249 133.121 724.999 Q133.121 733.726 130.043 738.332 Q126.987 742.916 121.177 742.916 Q115.367 742.916 112.288 738.332 Q109.233 733.726 109.233 724.999 Q109.233 716.249 112.288 711.666 Q115.367 707.059 121.177 707.059 Z" fill="#000000" fill-rule="nonzero" fill-opacity="1" /><path clip-path="url(#clip280)" d="M51.6634 357.567 L59.3023 357.567 L59.3023 331.202 L50.9921 332.869 L50.9921 328.609 L59.256 326.943 L63.9319 326.943 L63.9319 357.567 L71.5707 357.567 L71.5707 361.503 L51.6634 361.503 L51.6634 357.567 Z" fill="#000000" fill-rule="nonzero" fill-opacity="1" /><path clip-path="url(#clip280)" d="M81.0614 326.943 L99.4178 326.943 L99.4178 330.878 L85.3438 330.878 L85.3438 339.35 Q86.3623 339.003 87.3808 338.841 Q88.3993 338.656 89.4178 338.656 Q95.2049 338.656 98.5845 341.827 Q101.964 344.998 101.964 350.415 Q101.964 355.993 98.4919 359.095 Q95.0197 362.174 88.7003 362.174 Q86.5243 362.174 84.2558 361.804 Q82.0105 361.433 79.6031 360.692 L79.6031 355.993 Q81.6864 357.128 83.9086 357.683 Q86.1308 358.239 88.6077 358.239 Q92.6123 358.239 94.9502 356.132 Q97.2882 354.026 97.2882 350.415 Q97.2882 346.804 94.9502 344.697 Q92.6123 342.591 88.6077 342.591 Q86.7327 342.591 84.8577 343.007 Q83.0058 343.424 81.0614 344.304 L81.0614 326.943 Z" fill="#000000" fill-rule="nonzero" fill-opacity="1" /><path clip-path="url(#clip280)" d="M121.177 330.021 Q117.566 330.021 115.737 333.586 Q113.932 337.128 113.932 344.257 Q113.932 351.364 115.737 354.929 Q117.566 358.47 121.177 358.47 Q124.811 358.47 126.617 354.929 Q128.445 351.364 128.445 344.257 Q128.445 337.128 126.617 333.586 Q124.811 330.021 121.177 330.021 M121.177 326.318 Q126.987 326.318 130.043 330.924 Q133.121 335.507 133.121 344.257 Q133.121 352.984 130.043 357.591 Q126.987 362.174 121.177 362.174 Q115.367 362.174 112.288 357.591 Q109.233 352.984 109.233 344.257 Q109.233 335.507 112.288 330.924 Q115.367 326.318 121.177 326.318 Z" fill="#000000" fill-rule="nonzero" fill-opacity="1" /><path clip-path="url(#clip282)" d="M289.225 1471.22 L289.225 1486.45 L438.719 1486.45 L438.719 1471.22 L289.225 1471.22 L289.225 1471.22  Z" fill="#009af9" fill-rule="evenodd" fill-opacity="1"/>
<polyline clip-path="url(#clip282)" style="stroke:#000000; stroke-linecap:round; stroke-linejoin:round; stroke-width:4; stroke-opacity:1; fill:none" points="289.225,1471.22 289.225,1486.45 438.719,1486.45 438.719,1471.22 289.225,1471.22 "/>
<path clip-path="url(#clip282)" d="M438.719 1478.83 L438.719 1486.45 L588.214 1486.45 L588.214 1478.83 L438.719 1478.83 L438.719 1478.83  Z" fill="#009af9" fill-rule="evenodd" fill-opacity="1"/>
<polyline clip-path="url(#clip282)" style="stroke:#000000; stroke-linecap:round; stroke-linejoin:round; stroke-width:4; stroke-opacity:1; fill:none" points="438.719,1478.83 438.719,1486.45 588.214,1486.45 588.214,1478.83 438.719,1478.83 "/>
<path clip-path="url(#clip282)" d="M588.214 1349.38 L588.214 1486.45 L737.708 1486.45 L737.708 1349.38 L588.214 1349.38 L588.214 1349.38  Z" fill="#009af9" fill-rule="evenodd" fill-opacity="1"/>
<polyline clip-path="url(#clip282)" style="stroke:#000000; stroke-linecap:round; stroke-linejoin:round; stroke-width:4; stroke-opacity:1; fill:none" points="588.214,1349.38 588.214,1486.45 737.708,1486.45 737.708,1349.38 588.214,1349.38 "/>
<path clip-path="url(#clip282)" d="M737.708 1090.48 L737.708 1486.45 L887.203 1486.45 L887.203 1090.48 L737.708 1090.48 L737.708 1090.48  Z" fill="#009af9" fill-rule="evenodd" fill-opacity="1"/>
<polyline clip-path="url(#clip282)" style="stroke:#000000; stroke-linecap:round; stroke-linejoin:round; stroke-width:4; stroke-opacity:1; fill:none" points="737.708,1090.48 737.708,1486.45 887.203,1486.45 887.203,1090.48 737.708,1090.48 "/>
<path clip-path="url(#clip282)" d="M887.203 839.187 L887.203 1486.45 L1036.7 1486.45 L1036.7 839.187 L887.203 839.187 L887.203 839.187  Z" fill="#009af9" fill-rule="evenodd" fill-opacity="1"/>
<polyline clip-path="url(#clip282)" style="stroke:#000000; stroke-linecap:round; stroke-linejoin:round; stroke-width:4; stroke-opacity:1; fill:none" points="887.203,839.187 887.203,1486.45 1036.7,1486.45 1036.7,839.187 887.203,839.187 "/>
<path clip-path="url(#clip282)" d="M1036.7 321.378 L1036.7 1486.45 L1186.19 1486.45 L1186.19 321.378 L1036.7 321.378 L1036.7 321.378  Z" fill="#009af9" fill-rule="evenodd" fill-opacity="1"/>
<polyline clip-path="url(#clip282)" style="stroke:#000000; stroke-linecap:round; stroke-linejoin:round; stroke-width:4; stroke-opacity:1; fill:none" points="1036.7,321.378 1036.7,1486.45 1186.19,1486.45 1186.19,321.378 1036.7,321.378 "/>
<path clip-path="url(#clip282)" d="M1186.19 85.3183 L1186.19 1486.45 L1335.69 1486.45 L1335.69 85.3183 L1186.19 85.3183 L1186.19 85.3183  Z" fill="#009af9" fill-rule="evenodd" fill-opacity="1"/>
<polyline clip-path="url(#clip282)" style="stroke:#000000; stroke-linecap:round; stroke-linejoin:round; stroke-width:4; stroke-opacity:1; fill:none" points="1186.19,85.3183 1186.19,1486.45 1335.69,1486.45 1335.69,85.3183 1186.19,85.3183 "/>
<path clip-path="url(#clip282)" d="M1335.69 47.2441 L1335.69 1486.45 L1485.18 1486.45 L1485.18 47.2441 L1335.69 47.2441 L1335.69 47.2441  Z" fill="#009af9" fill-rule="evenodd" fill-opacity="1"/>
<polyline clip-path="url(#clip282)" style="stroke:#000000; stroke-linecap:round; stroke-linejoin:round; stroke-width:4; stroke-opacity:1; fill:none" points="1335.69,47.2441 1335.69,1486.45 1485.18,1486.45 1485.18,47.2441 1335.69,47.2441 "/>
<path clip-path="url(#clip282)" d="M1485.18 214.77 L1485.18 1486.45 L1634.67 1486.45 L1634.67 214.77 L1485.18 214.77 L1485.18 214.77  Z" fill="#009af9" fill-rule="evenodd" fill-opacity="1"/>
<polyline clip-path="url(#clip282)" style="stroke:#000000; stroke-linecap:round; stroke-linejoin:round; stroke-width:4; stroke-opacity:1; fill:none" points="1485.18,214.77 1485.18,1486.45 1634.67,1486.45 1634.67,214.77 1485.18,214.77 "/>
<path clip-path="url(#clip282)" d="M1634.67 801.113 L1634.67 1486.45 L1784.17 1486.45 L1784.17 801.113 L1634.67 801.113 L1634.67 801.113  Z" fill="#009af9" fill-rule="evenodd" fill-opacity="1"/>
<polyline clip-path="url(#clip282)" style="stroke:#000000; stroke-linecap:round; stroke-linejoin:round; stroke-width:4; stroke-opacity:1; fill:none" points="1634.67,801.113 1634.67,1486.45 1784.17,1486.45 1784.17,801.113 1634.67,801.113 "/>
<path clip-path="url(#clip282)" d="M1784.17 1197.08 L1784.17 1486.45 L1933.66 1486.45 L1933.66 1197.08 L1784.17 1197.08 L1784.17 1197.08  Z" fill="#009af9" fill-rule="evenodd" fill-opacity="1"/>
<polyline clip-path="url(#clip282)" style="stroke:#000000; stroke-linecap:round; stroke-linejoin:round; stroke-width:4; stroke-opacity:1; fill:none" points="1784.17,1197.08 1784.17,1486.45 1933.66,1486.45 1933.66,1197.08 1784.17,1197.08 "/>
<path clip-path="url(#clip282)" d="M1933.66 1372.23 L1933.66 1486.45 L2083.16 1486.45 L2083.16 1372.23 L1933.66 1372.23 L1933.66 1372.23  Z" fill="#009af9" fill-rule="evenodd" fill-opacity="1"/>
<polyline clip-path="url(#clip282)" style="stroke:#000000; stroke-linecap:round; stroke-linejoin:round; stroke-width:4; stroke-opacity:1; fill:none" points="1933.66,1372.23 1933.66,1486.45 2083.16,1486.45 2083.16,1372.23 1933.66,1372.23 "/>
<path clip-path="url(#clip282)" d="M2083.16 1440.76 L2083.16 1486.45 L2232.65 1486.45 L2232.65 1440.76 L2083.16 1440.76 L2083.16 1440.76  Z" fill="#009af9" fill-rule="evenodd" fill-opacity="1"/>
<polyline clip-path="url(#clip282)" style="stroke:#000000; stroke-linecap:round; stroke-linejoin:round; stroke-width:4; stroke-opacity:1; fill:none" points="2083.16,1440.76 2083.16,1486.45 2232.65,1486.45 2232.65,1440.76 2083.16,1440.76 "/>
<circle clip-path="url(#clip282)" style="fill:#009af9; stroke:none; fill-opacity:0" cx="363.972" cy="1471.22" r="2"/>
<circle clip-path="url(#clip282)" style="fill:#009af9; stroke:none; fill-opacity:0" cx="513.467" cy="1478.83" r="2"/>
<circle clip-path="url(#clip282)" style="fill:#009af9; stroke:none; fill-opacity:0" cx="662.961" cy="1349.38" r="2"/>
<circle clip-path="url(#clip282)" style="fill:#009af9; stroke:none; fill-opacity:0" cx="812.455" cy="1090.48" r="2"/>
<circle clip-path="url(#clip282)" style="fill:#009af9; stroke:none; fill-opacity:0" cx="961.95" cy="839.187" r="2"/>
<circle clip-path="url(#clip282)" style="fill:#009af9; stroke:none; fill-opacity:0" cx="1111.44" cy="321.378" r="2"/>
<circle clip-path="url(#clip282)" style="fill:#009af9; stroke:none; fill-opacity:0" cx="1260.94" cy="85.3183" r="2"/>
<circle clip-path="url(#clip282)" style="fill:#009af9; stroke:none; fill-opacity:0" cx="1410.43" cy="47.2441" r="2"/>
<circle clip-path="url(#clip282)" style="fill:#009af9; stroke:none; fill-opacity:0" cx="1559.93" cy="214.77" r="2"/>
<circle clip-path="url(#clip282)" style="fill:#009af9; stroke:none; fill-opacity:0" cx="1709.42" cy="801.113" r="2"/>
<circle clip-path="url(#clip282)" style="fill:#009af9; stroke:none; fill-opacity:0" cx="1858.92" cy="1197.08" r="2"/>
<circle clip-path="url(#clip282)" style="fill:#009af9; stroke:none; fill-opacity:0" cx="2008.41" cy="1372.23" r="2"/>
<circle clip-path="url(#clip282)" style="fill:#009af9; stroke:none; fill-opacity:0" cx="2157.9" cy="1440.76" r="2"/>
</svg>
