<?xml version="1.0" encoding="utf-8"?>
<svg xmlns="http://www.w3.org/2000/svg" xmlns:xlink="http://www.w3.org/1999/xlink" width="600" height="400" viewBox="0 0 2400 1600">
<defs>
  <clipPath id="clip250">
    <rect x="0" y="0" width="2400" height="1600"/>
  </clipPath>
</defs>
<path clip-path="url(#clip250)" d="M0 1600 L2400 1600 L2400 0 L0 0  Z" fill="#ffffff" fill-rule="evenodd" fill-opacity="1"/>
<defs>
  <clipPath id="clip251">
    <rect x="480" y="0" width="1681" height="1600"/>
  </clipPath>
</defs>
<path clip-path="url(#clip250)" d="M289.514 1410.9 L2352.76 1410.9 L2352.76 47.2441 L289.514 47.2441  Z" fill="#ffffff" fill-rule="evenodd" fill-opacity="1"/>
<defs>
  <clipPath id="clip252">
    <rect x="289" y="47" width="2064" height="1365"/>
  </clipPath>
</defs>
<polyline clip-path="url(#clip252)" style="stroke:#000000; stroke-linecap:round; stroke-linejoin:round; stroke-width:2; stroke-opacity:0.1; fill:none" points="602.551,1410.9 602.551,47.2441 "/>
<polyline clip-path="url(#clip252)" style="stroke:#000000; stroke-linecap:round; stroke-linejoin:round; stroke-width:2; stroke-opacity:0.1; fill:none" points="1448.46,1410.9 1448.46,47.2441 "/>
<polyline clip-path="url(#clip252)" style="stroke:#000000; stroke-linecap:round; stroke-linejoin:round; stroke-width:2; stroke-opacity:0.1; fill:none" points="2294.36,1410.9 2294.36,47.2441 "/>
<polyline clip-path="url(#clip252)" style="stroke:#000000; stroke-linecap:round; stroke-linejoin:round; stroke-width:2; stroke-opacity:0.1; fill:none" points="289.514,1150.95 2352.76,1150.95 "/>
<polyline clip-path="url(#clip252)" style="stroke:#000000; stroke-linecap:round; stroke-linejoin:round; stroke-width:2; stroke-opacity:0.1; fill:none" points="289.514,814.289 2352.76,814.289 "/>
<polyline clip-path="url(#clip252)" style="stroke:#000000; stroke-linecap:round; stroke-linejoin:round; stroke-width:2; stroke-opacity:0.1; fill:none" points="289.514,477.624 2352.76,477.624 "/>
<polyline clip-path="url(#clip252)" style="stroke:#000000; stroke-linecap:round; stroke-linejoin:round; stroke-width:2; stroke-opacity:0.1; fill:none" points="289.514,140.959 2352.76,140.959 "/>
<polyline clip-path="url(#clip250)" style="stroke:#000000; stroke-linecap:round; stroke-linejoin:round; stroke-width:4; stroke-opacity:1; fill:none" points="289.514,1410.9 2352.76,1410.9 "/>
<polyline clip-path="url(#clip250)" style="stroke:#000000; stroke-linecap:round; stroke-linejoin:round; stroke-width:4; stroke-opacity:1; fill:none" points="602.551,1410.9 602.551,1392 "/>
<polyline clip-path="url(#clip250)" style="stroke:#000000; stroke-linecap:round; stroke-linejoin:round; stroke-width:4; stroke-opacity:1; fill:none" points="1448.46,1410.9 1448.46,1392 "/>
<polyline clip-path="url(#clip250)" style="stroke:#000000; stroke-linecap:round; stroke-linejoin:round; stroke-width:4; stroke-opacity:1; fill:none" points="2294.36,1410.9 2294.36,1392 "/>
<path clip-path="url(#clip250)" d="M567.995 1485.02 L575.633 1485.02 L575.633 1458.66 L567.323 1460.32 L567.323 1456.06 L575.587 1454.4 L580.263 1454.4 L580.263 1485.02 L587.902 1485.02 L587.902 1488.96 L567.995 1488.96 L567.995 1485.02 Z" fill="#000000" fill-rule="nonzero" fill-opacity="1" /><path clip-path="url(#clip250)" d="M607.346 1457.48 Q603.735 1457.48 601.906 1461.04 Q600.101 1464.58 600.101 1471.71 Q600.101 1478.82 601.906 1482.38 Q603.735 1485.92 607.346 1485.92 Q610.98 1485.92 612.786 1482.38 Q614.615 1478.82 614.615 1471.71 Q614.615 1464.58 612.786 1461.04 Q610.98 1457.48 607.346 1457.48 M607.346 1453.77 Q613.156 1453.77 616.212 1458.38 Q619.291 1462.96 619.291 1471.71 Q619.291 1480.44 616.212 1485.04 Q613.156 1489.63 607.346 1489.63 Q601.536 1489.63 598.457 1485.04 Q595.402 1480.44 595.402 1471.71 Q595.402 1462.96 598.457 1458.38 Q601.536 1453.77 607.346 1453.77 Z" fill="#000000" fill-rule="nonzero" fill-opacity="1" /><path clip-path="url(#clip250)" d="M631.986 1446.41 Q634.713 1446.99 636.236 1448.83 Q637.779 1450.68 637.779 1453.38 Q637.779 1457.54 634.92 1459.82 Q632.061 1462.09 626.795 1462.09 Q625.027 1462.09 623.146 1461.73 Q621.284 1461.4 619.291 1460.7 L619.291 1457.03 Q620.87 1457.95 622.751 1458.42 Q624.632 1458.89 626.682 1458.89 Q630.256 1458.89 632.117 1457.48 Q633.998 1456.07 633.998 1453.38 Q633.998 1450.9 632.249 1449.51 Q630.519 1448.1 627.416 1448.1 L624.143 1448.1 L624.143 1444.98 L627.566 1444.98 Q630.368 1444.98 631.854 1443.87 Q633.34 1442.74 633.34 1440.63 Q633.34 1438.47 631.798 1437.32 Q630.274 1436.16 627.416 1436.16 Q625.854 1436.16 624.068 1436.49 Q622.281 1436.83 620.137 1437.55 L620.137 1434.16 Q622.3 1433.56 624.181 1433.26 Q626.08 1432.96 627.754 1432.96 Q632.08 1432.96 634.6 1434.93 Q637.12 1436.89 637.12 1440.24 Q637.12 1442.57 635.785 1444.19 Q634.45 1445.79 631.986 1446.41 Z" fill="#000000" fill-rule="nonzero" fill-opacity="1" /><path clip-path="url(#clip250)" d="M1412.91 1485.02 L1420.55 1485.02 L1420.55 1458.66 L1412.24 1460.32 L1412.24 1456.06 L1420.51 1454.4 L1425.18 1454.4 L1425.18 1485.02 L1432.82 1485.02 L1432.82 1488.96 L1412.91 1488.96 L1412.91 1485.02 Z" fill="#000000" fill-rule="nonzero" fill-opacity="1" /><path clip-path="url(#clip250)" d="M1452.26 1457.48 Q1448.65 1457.48 1446.82 1461.04 Q1445.02 1464.58 1445.02 1471.71 Q1445.02 1478.82 1446.82 1482.38 Q1448.65 1485.92 1452.26 1485.92 Q1455.9 1485.92 1457.7 1482.38 Q1459.53 1478.82 1459.53 1471.71 Q1459.53 1464.58 1457.7 1461.04 Q1455.9 1457.48 1452.26 1457.48 M1452.26 1453.77 Q1458.07 1453.77 1461.13 1458.38 Q1464.21 1462.96 1464.21 1471.71 Q1464.21 1480.44 1461.13 1485.04 Q1458.07 1489.63 1452.26 1489.63 Q1446.45 1489.63 1443.38 1485.04 Q1440.32 1480.44 1440.32 1471.71 Q1440.32 1462.96 1443.38 1458.38 Q1446.45 1453.77 1452.26 1453.77 Z" fill="#000000" fill-rule="nonzero" fill-opacity="1" /><path clip-path="url(#clip250)" d="M1476.89 1436.78 L1467.29 1451.77 L1476.89 1451.77 L1476.89 1436.78 M1475.89 1433.47 L1480.67 1433.47 L1480.67 1451.77 L1484.67 1451.77 L1484.67 1454.93 L1480.67 1454.93 L1480.67 1461.55 L1476.89 1461.55 L1476.89 1454.93 L1464.21 1454.93 L1464.21 1451.26 L1475.89 1433.47 Z" fill="#000000" fill-rule="nonzero" fill-opacity="1" /><path clip-path="url(#clip250)" d="M2259.97 1485.02 L2267.6 1485.02 L2267.6 1458.66 L2259.29 1460.32 L2259.29 1456.06 L2267.56 1454.4 L2272.23 1454.4 L2272.23 1485.02 L2279.87 1485.02 L2279.87 1488.96 L2259.97 1488.96 L2259.97 1485.02 Z" fill="#000000" fill-rule="nonzero" fill-opacity="1" /><path clip-path="url(#clip250)" d="M2299.32 1457.48 Q2295.71 1457.48 2293.88 1461.04 Q2292.07 1464.58 2292.07 1471.71 Q2292.07 1478.82 2293.88 1482.38 Q2295.71 1485.92 2299.32 1485.92 Q2302.95 1485.92 2304.76 1482.38 Q2306.59 1478.82 2306.59 1471.71 Q2306.59 1464.58 2304.76 1461.04 Q2302.95 1457.48 2299.32 1457.48 M2299.32 1453.77 Q2305.13 1453.77 2308.18 1458.38 Q2311.26 1462.96 2311.26 1471.71 Q2311.26 1480.44 2308.18 1485.04 Q2305.13 1489.63 2299.32 1489.63 Q2293.51 1489.63 2290.43 1485.04 Q2287.37 1480.44 2287.37 1471.71 Q2287.37 1462.96 2290.43 1458.38 Q2293.51 1453.77 2299.32 1453.77 Z" fill="#000000" fill-rule="nonzero" fill-opacity="1" /><path clip-path="url(#clip250)" d="M2312.45 1433.47 L2327.36 1433.47 L2327.36 1436.66 L2315.93 1436.66 L2315.93 1443.55 Q2316.75 1443.27 2317.58 1443.13 Q2318.41 1442.98 2319.24 1442.98 Q2323.94 1442.98 2326.68 1445.56 Q2329.43 1448.14 2329.43 1452.54 Q2329.43 1457.07 2326.61 1459.59 Q2323.79 1462.09 2318.65 1462.09 Q2316.89 1462.09 2315.04 1461.79 Q2313.22 1461.49 2311.26 1460.89 L2311.26 1457.07 Q2312.95 1457.99 2314.76 1458.44 Q2316.57 1458.89 2318.58 1458.89 Q2321.83 1458.89 2323.73 1457.18 Q2325.63 1455.47 2325.63 1452.54 Q2325.63 1449.6 2323.73 1447.89 Q2321.83 1446.18 2318.58 1446.18 Q2317.05 1446.18 2315.53 1446.52 Q2314.03 1446.86 2312.45 1447.57 L2312.45 1433.47 Z" fill="#000000" fill-rule="nonzero" fill-opacity="1" /><path clip-path="url(#clip250)" d="M1303.15 1526.67 L1311.81 1526.67 L1332.88 1566.42 L1332.88 1526.67 L1339.12 1526.67 L1339.12 1574.19 L1330.46 1574.19 L1309.39 1534.43 L1309.39 1574.19 L1303.15 1574.19 L1303.15 1526.67 Z" fill="#000000" fill-rule="nonzero" fill-opacity="1" /><polyline clip-path="url(#clip250)" style="stroke:#000000; stroke-linecap:round; stroke-linejoin:round; stroke-width:4; stroke-opacity:1; fill:none" points="289.514,1410.9 289.514,47.2441 "/>
<polyline clip-path="url(#clip250)" style="stroke:#000000; stroke-linecap:round; stroke-linejoin:round; stroke-width:4; stroke-opacity:1; fill:none" points="289.514,1150.95 308.412,1150.95 "/>
<polyline clip-path="url(#clip250)" style="stroke:#000000; stroke-linecap:round; stroke-linejoin:round; stroke-width:4; stroke-opacity:1; fill:none" points="289.514,814.289 308.412,814.289 "/>
<polyline clip-path="url(#clip250)" style="stroke:#000000; stroke-linecap:round; stroke-linejoin:round; stroke-width:4; stroke-opacity:1; fill:none" points="289.514,477.624 308.412,477.624 "/>
<polyline clip-path="url(#clip250)" style="stroke:#000000; stroke-linecap:round; stroke-linejoin:round; stroke-width:4; stroke-opacity:1; fill:none" points="289.514,140.959 308.412,140.959 "/>
<path clip-path="url(#clip250)" d="M114.931 1170.75 L122.57 1170.75 L122.57 1144.38 L114.26 1146.05 L114.26 1141.79 L122.524 1140.12 L127.2 1140.12 L127.2 1170.75 L134.839 1170.75 L134.839 1174.68 L114.931 1174.68 L114.931 1170.75 Z" fill="#000000" fill-rule="nonzero" fill-opacity="1" /><path clip-path="url(#clip250)" d="M154.283 1143.2 Q150.672 1143.2 148.843 1146.77 Q147.038 1150.31 147.038 1157.44 Q147.038 1164.54 148.843 1168.11 Q150.672 1171.65 154.283 1171.65 Q157.917 1171.65 159.723 1168.11 Q161.552 1164.54 161.552 1157.44 Q161.552 1150.31 159.723 1146.77 Q157.917 1143.2 154.283 1143.2 M154.283 1139.5 Q160.093 1139.5 163.149 1144.1 Q166.227 1148.69 166.227 1157.44 Q166.227 1166.16 163.149 1170.77 Q160.093 1175.35 154.283 1175.35 Q148.473 1175.35 145.394 1170.77 Q142.339 1166.16 142.339 1157.44 Q142.339 1148.69 145.394 1144.1 Q148.473 1139.5 154.283 1139.5 Z" fill="#000000" fill-rule="nonzero" fill-opacity="1" /><path clip-path="url(#clip250)" d="M166.227 1133.6 L190.339 1133.6 L190.339 1136.8 L166.227 1136.8 L166.227 1133.6 Z" fill="#000000" fill-rule="nonzero" fill-opacity="1" /><path clip-path="url(#clip250)" d="M201.812 1144.07 L215.071 1144.07 L215.071 1147.27 L197.241 1147.27 L197.241 1144.07 Q199.404 1141.84 203.128 1138.07 Q206.871 1134.29 207.83 1133.2 Q209.655 1131.15 210.369 1129.74 Q211.103 1128.31 211.103 1126.94 Q211.103 1124.7 209.523 1123.29 Q207.962 1121.88 205.442 1121.88 Q203.655 1121.88 201.661 1122.5 Q199.686 1123.12 197.43 1124.38 L197.43 1120.55 Q199.724 1119.62 201.718 1119.15 Q203.711 1118.68 205.366 1118.68 Q209.73 1118.68 212.325 1120.87 Q214.921 1123.05 214.921 1126.7 Q214.921 1128.43 214.263 1129.99 Q213.623 1131.53 211.912 1133.64 Q211.441 1134.18 208.921 1136.8 Q206.401 1139.39 201.812 1144.07 Z" fill="#000000" fill-rule="nonzero" fill-opacity="1" /><path clip-path="url(#clip250)" d="M223.046 1142.49 L227.014 1142.49 L227.014 1147.27 L223.046 1147.27 L223.046 1142.49 Z" fill="#000000" fill-rule="nonzero" fill-opacity="1" /><path clip-path="url(#clip250)" d="M245.728 1122.5 L236.136 1137.49 L245.728 1137.49 L245.728 1122.5 M244.731 1119.19 L249.508 1119.19 L249.508 1137.49 L253.514 1137.49 L253.514 1140.65 L249.508 1140.65 L249.508 1147.27 L245.728 1147.27 L245.728 1140.65 L233.051 1140.65 L233.051 1136.98 L244.731 1119.19 Z" fill="#000000" fill-rule="nonzero" fill-opacity="1" /><path clip-path="url(#clip250)" d="M116.323 834.082 L123.962 834.082 L123.962 807.716 L115.652 809.383 L115.652 805.124 L123.916 803.457 L128.592 803.457 L128.592 834.082 L136.231 834.082 L136.231 838.017 L116.323 838.017 L116.323 834.082 Z" fill="#000000" fill-rule="nonzero" fill-opacity="1" /><path clip-path="url(#clip250)" d="M155.675 806.536 Q152.064 806.536 150.235 810.101 Q148.43 813.642 148.43 820.772 Q148.43 827.878 150.235 831.443 Q152.064 834.985 155.675 834.985 Q159.309 834.985 161.115 831.443 Q162.943 827.878 162.943 820.772 Q162.943 813.642 161.115 810.101 Q159.309 806.536 155.675 806.536 M155.675 802.832 Q161.485 802.832 164.541 807.438 Q167.619 812.022 167.619 820.772 Q167.619 829.499 164.541 834.105 Q161.485 838.688 155.675 838.688 Q149.865 838.688 146.786 834.105 Q143.73 829.499 143.73 820.772 Q143.73 812.022 146.786 807.438 Q149.865 802.832 155.675 802.832 Z" fill="#000000" fill-rule="nonzero" fill-opacity="1" /><path clip-path="url(#clip250)" d="M167.619 796.933 L191.731 796.933 L191.731 800.131 L167.619 800.131 L167.619 796.933 Z" fill="#000000" fill-rule="nonzero" fill-opacity="1" /><path clip-path="url(#clip250)" d="M203.204 807.409 L216.463 807.409 L216.463 810.607 L198.633 810.607 L198.633 807.409 Q200.796 805.171 204.52 801.41 Q208.263 797.629 209.222 796.538 Q211.046 794.488 211.761 793.078 Q212.495 791.648 212.495 790.275 Q212.495 788.037 210.915 786.627 Q209.354 785.216 206.833 785.216 Q205.047 785.216 203.053 785.837 Q201.078 786.457 198.821 787.718 L198.821 783.881 Q201.116 782.959 203.11 782.489 Q205.103 782.019 206.758 782.019 Q211.122 782.019 213.717 784.201 Q216.313 786.382 216.313 790.031 Q216.313 791.761 215.654 793.322 Q215.015 794.865 213.303 796.971 Q212.833 797.516 210.313 800.131 Q207.793 802.726 203.204 807.409 Z" fill="#000000" fill-rule="nonzero" fill-opacity="1" /><path clip-path="url(#clip250)" d="M224.438 805.829 L228.406 805.829 L228.406 810.607 L224.438 810.607 L224.438 805.829 Z" fill="#000000" fill-rule="nonzero" fill-opacity="1" /><path clip-path="url(#clip250)" d="M237.34 807.409 L243.546 807.409 L243.546 785.987 L236.794 787.341 L236.794 783.881 L243.509 782.527 L247.308 782.527 L247.308 807.409 L253.514 807.409 L253.514 810.607 L237.34 810.607 L237.34 807.409 Z" fill="#000000" fill-rule="nonzero" fill-opacity="1" /><path clip-path="url(#clip250)" d="M115.402 497.417 L123.04 497.417 L123.04 471.051 L114.73 472.718 L114.73 468.458 L122.994 466.792 L127.67 466.792 L127.67 497.417 L135.309 497.417 L135.309 501.352 L115.402 501.352 L115.402 497.417 Z" fill="#000000" fill-rule="nonzero" fill-opacity="1" /><path clip-path="url(#clip250)" d="M154.753 469.87 Q151.142 469.87 149.313 473.435 Q147.508 476.977 147.508 484.106 Q147.508 491.213 149.313 494.778 Q151.142 498.319 154.753 498.319 Q158.388 498.319 160.193 494.778 Q162.022 491.213 162.022 484.106 Q162.022 476.977 160.193 473.435 Q158.388 469.87 154.753 469.87 M154.753 466.167 Q160.563 466.167 163.619 470.773 Q166.698 475.357 166.698 484.106 Q166.698 492.833 163.619 497.44 Q160.563 502.023 154.753 502.023 Q148.943 502.023 145.864 497.44 Q142.809 492.833 142.809 484.106 Q142.809 475.357 145.864 470.773 Q148.943 466.167 154.753 466.167 Z" fill="#000000" fill-rule="nonzero" fill-opacity="1" /><path clip-path="url(#clip250)" d="M166.698 460.268 L190.809 460.268 L190.809 463.465 L166.698 463.465 L166.698 460.268 Z" fill="#000000" fill-rule="nonzero" fill-opacity="1" /><path clip-path="url(#clip250)" d="M199.668 470.744 L205.874 470.744 L205.874 449.322 L199.122 450.676 L199.122 447.216 L205.837 445.861 L209.636 445.861 L209.636 470.744 L215.842 470.744 L215.842 473.941 L199.668 473.941 L199.668 470.744 Z" fill="#000000" fill-rule="nonzero" fill-opacity="1" /><path clip-path="url(#clip250)" d="M223.516 469.164 L227.484 469.164 L227.484 473.941 L223.516 473.941 L223.516 469.164 Z" fill="#000000" fill-rule="nonzero" fill-opacity="1" /><path clip-path="url(#clip250)" d="M243.885 460.607 Q241.176 460.607 239.615 462.055 Q238.073 463.503 238.073 466.042 Q238.073 468.581 239.615 470.029 Q241.176 471.478 243.885 471.478 Q246.593 471.478 248.154 470.029 Q249.715 468.562 249.715 466.042 Q249.715 463.503 248.154 462.055 Q246.612 460.607 243.885 460.607 M240.086 458.989 Q237.641 458.387 236.268 456.713 Q234.913 455.04 234.913 452.632 Q234.913 449.266 237.302 447.31 Q239.709 445.354 243.885 445.354 Q248.079 445.354 250.467 447.31 Q252.856 449.266 252.856 452.632 Q252.856 455.04 251.483 456.713 Q250.129 458.387 247.703 458.989 Q250.449 459.629 251.972 461.491 Q253.514 463.353 253.514 466.042 Q253.514 470.123 251.013 472.305 Q248.53 474.487 243.885 474.487 Q239.239 474.487 236.738 472.305 Q234.255 470.123 234.255 466.042 Q234.255 463.353 235.797 461.491 Q237.34 459.629 240.086 458.989 M238.694 452.989 Q238.694 455.171 240.048 456.394 Q241.421 457.616 243.885 457.616 Q246.33 457.616 247.703 456.394 Q249.095 455.171 249.095 452.989 Q249.095 450.808 247.703 449.585 Q246.33 448.363 243.885 448.363 Q241.421 448.363 240.048 449.585 Q238.694 450.808 238.694 452.989 Z" fill="#000000" fill-rule="nonzero" fill-opacity="1" /><path clip-path="url(#clip250)" d="M116.135 160.751 L123.774 160.751 L123.774 134.386 L115.464 136.052 L115.464 131.793 L123.728 130.126 L128.404 130.126 L128.404 160.751 L136.042 160.751 L136.042 164.686 L116.135 164.686 L116.135 160.751 Z" fill="#000000" fill-rule="nonzero" fill-opacity="1" /><path clip-path="url(#clip250)" d="M155.487 133.205 Q151.876 133.205 150.047 136.77 Q148.241 140.312 148.241 147.441 Q148.241 154.548 150.047 158.112 Q151.876 161.654 155.487 161.654 Q159.121 161.654 160.927 158.112 Q162.755 154.548 162.755 147.441 Q162.755 140.312 160.927 136.77 Q159.121 133.205 155.487 133.205 M155.487 129.501 Q161.297 129.501 164.352 134.108 Q167.431 138.691 167.431 147.441 Q167.431 156.168 164.352 160.774 Q161.297 165.358 155.487 165.358 Q149.677 165.358 146.598 160.774 Q143.542 156.168 143.542 147.441 Q143.542 138.691 146.598 134.108 Q149.677 129.501 155.487 129.501 Z" fill="#000000" fill-rule="nonzero" fill-opacity="1" /><path clip-path="url(#clip250)" d="M167.431 123.603 L191.543 123.603 L191.543 126.8 L167.431 126.8 L167.431 123.603 Z" fill="#000000" fill-rule="nonzero" fill-opacity="1" /><path clip-path="url(#clip250)" d="M200.401 134.079 L206.608 134.079 L206.608 112.657 L199.856 114.011 L199.856 110.55 L206.57 109.196 L210.369 109.196 L210.369 134.079 L216.576 134.079 L216.576 137.276 L200.401 137.276 L200.401 134.079 Z" fill="#000000" fill-rule="nonzero" fill-opacity="1" /><path clip-path="url(#clip250)" d="M224.249 132.499 L228.218 132.499 L228.218 137.276 L224.249 137.276 L224.249 132.499 Z" fill="#000000" fill-rule="nonzero" fill-opacity="1" /><path clip-path="url(#clip250)" d="M236.531 109.196 L251.445 109.196 L251.445 112.393 L240.01 112.393 L240.01 119.277 Q240.838 118.995 241.665 118.863 Q242.493 118.713 243.321 118.713 Q248.022 118.713 250.768 121.289 Q253.514 123.866 253.514 128.267 Q253.514 132.8 250.693 135.32 Q247.872 137.822 242.737 137.822 Q240.97 137.822 239.126 137.521 Q237.302 137.22 235.346 136.618 L235.346 132.8 Q237.039 133.721 238.844 134.173 Q240.65 134.624 242.662 134.624 Q245.916 134.624 247.816 132.913 Q249.715 131.201 249.715 128.267 Q249.715 125.333 247.816 123.622 Q245.916 121.91 242.662 121.91 Q241.139 121.91 239.615 122.249 Q238.111 122.587 236.531 123.302 L236.531 109.196 Z" fill="#000000" fill-rule="nonzero" fill-opacity="1" /><path clip-path="url(#clip250)" d="M16.4842 822.917 L16.4842 792.871 L21.895 792.871 L21.895 816.487 L35.9632 816.487 L35.9632 793.857 L41.3741 793.857 L41.3741 816.487 L58.5933 816.487 L58.5933 792.298 L64.0042 792.298 L64.0042 822.917 L16.4842 822.917 Z" fill="#000000" fill-rule="nonzero" fill-opacity="1" /><path clip-path="url(#clip250)" d="M33.8307 761.329 Q33.2578 762.315 33.0032 763.493 Q32.7167 764.639 32.7167 766.039 Q32.7167 771.004 35.9632 773.678 Q39.1779 776.32 45.2253 776.32 L64.0042 776.32 L64.0042 782.208 L28.3562 782.208 L28.3562 776.32 L33.8944 776.32 Q30.6479 774.474 29.0883 771.514 Q27.4968 768.554 27.4968 764.32 Q27.4968 763.716 27.5923 762.984 Q27.656 762.252 27.8151 761.36 L33.8307 761.329 Z" fill="#000000" fill-rule="nonzero" fill-opacity="1" /><path clip-path="url(#clip250)" d="M33.8307 735.675 Q33.2578 736.661 33.0032 737.839 Q32.7167 738.985 32.7167 740.385 Q32.7167 745.351 35.9632 748.024 Q39.1779 750.666 45.2253 750.666 L64.0042 750.666 L64.0042 756.554 L28.3562 756.554 L28.3562 750.666 L33.8944 750.666 Q30.6479 748.82 29.0883 745.86 Q27.4968 742.9 27.4968 738.667 Q27.4968 738.062 27.5923 737.33 Q27.656 736.598 27.8151 735.707 L33.8307 735.675 Z" fill="#000000" fill-rule="nonzero" fill-opacity="1" /><path clip-path="url(#clip250)" d="M32.4621 717.151 Q32.4621 721.861 36.1542 724.598 Q39.8145 727.336 46.212 727.336 Q52.6095 727.336 56.3017 724.63 Q59.9619 721.893 59.9619 717.151 Q59.9619 712.472 56.2698 709.735 Q52.5777 706.997 46.212 706.997 Q39.8781 706.997 36.186 709.735 Q32.4621 712.472 32.4621 717.151 M27.4968 717.151 Q27.4968 709.512 32.4621 705.151 Q37.4273 700.791 46.212 700.791 Q54.9649 700.791 59.9619 705.151 Q64.9272 709.512 64.9272 717.151 Q64.9272 724.821 59.9619 729.182 Q54.9649 733.51 46.212 733.51 Q37.4273 733.51 32.4621 729.182 Q27.4968 724.821 27.4968 717.151 Z" fill="#000000" fill-rule="nonzero" fill-opacity="1" /><path clip-path="url(#clip250)" d="M33.8307 670.426 Q33.2578 671.413 33.0032 672.591 Q32.7167 673.736 32.7167 675.137 Q32.7167 680.102 35.9632 682.776 Q39.1779 685.418 45.2253 685.418 L64.0042 685.418 L64.0042 691.306 L28.3562 691.306 L28.3562 685.418 L33.8944 685.418 Q30.6479 683.571 29.0883 680.611 Q27.4968 677.651 27.4968 673.418 Q27.4968 672.813 27.5923 672.081 Q27.656 671.349 27.8151 670.458 L33.8307 670.426 Z" fill="#000000" fill-rule="nonzero" fill-opacity="1" /><path clip-path="url(#clip250)" d="M44.7161 635.224 L47.5806 635.224 L47.5806 662.151 Q53.6281 661.769 56.8109 658.522 Q59.9619 655.244 59.9619 649.419 Q59.9619 646.046 59.1344 642.895 Q58.3069 639.712 56.6518 636.593 L62.1899 636.593 Q63.5267 639.744 64.227 643.054 Q64.9272 646.364 64.9272 649.77 Q64.9272 658.3 59.9619 663.297 Q54.9967 668.262 46.5303 668.262 Q37.7774 668.262 32.6531 663.551 Q27.4968 658.809 27.4968 650.788 Q27.4968 643.595 32.1438 639.425 Q36.7589 635.224 44.7161 635.224 M42.9973 641.08 Q38.1912 641.144 35.3266 643.786 Q32.4621 646.396 32.4621 650.724 Q32.4621 655.626 35.2312 658.586 Q38.0002 661.514 43.0292 661.96 L42.9973 641.08 Z" fill="#000000" fill-rule="nonzero" fill-opacity="1" /><circle clip-path="url(#clip252)" cx="347.908" cy="85.838" r="14.4" fill="#009af9" fill-rule="evenodd" fill-opacity="1" stroke="#000000" stroke-opacity="1" stroke-width="3.2"/>
<circle clip-path="url(#clip252)" cx="602.551" cy="251.328" r="14.4" fill="#009af9" fill-rule="evenodd" fill-opacity="1" stroke="#000000" stroke-opacity="1" stroke-width="3.2"/>
<circle clip-path="url(#clip252)" cx="1193.81" cy="643.436" r="14.4" fill="#009af9" fill-rule="evenodd" fill-opacity="1" stroke="#000000" stroke-opacity="1" stroke-width="3.2"/>
<circle clip-path="url(#clip252)" cx="1448.46" cy="812.879" r="14.4" fill="#009af9" fill-rule="evenodd" fill-opacity="1" stroke="#000000" stroke-opacity="1" stroke-width="3.2"/>
<circle clip-path="url(#clip252)" cx="2039.72" cy="1210.33" r="14.4" fill="#009af9" fill-rule="evenodd" fill-opacity="1" stroke="#000000" stroke-opacity="1" stroke-width="3.2"/>
<circle clip-path="url(#clip252)" cx="2294.36" cy="1372.3" r="14.4" fill="#009af9" fill-rule="evenodd" fill-opacity="1" stroke="#000000" stroke-opacity="1" stroke-width="3.2"/>
<path clip-path="url(#clip250)" d="M2025.23 196.379 L2283.98 196.379 L2283.98 92.6992 L2025.23 92.6992  Z" fill="#ffffff" fill-rule="evenodd" fill-opacity="1"/>
<polyline clip-path="url(#clip250)" style="stroke:#000000; stroke-linecap:round; stroke-linejoin:round; stroke-width:4; stroke-opacity:1; fill:none" points="2025.23,196.379 2283.98,196.379 2283.98,92.6992 2025.23,92.6992 2025.23,196.379 "/>
<circle clip-path="url(#clip250)" cx="2116.93" cy="144.539" r="20.48" fill="#009af9" fill-rule="evenodd" fill-opacity="1" stroke="#000000" stroke-opacity="1" stroke-width="4.55111"/>
<path clip-path="url(#clip250)" d="M2222.47 164.227 Q2220.66 168.856 2218.95 170.268 Q2217.24 171.68 2214.37 171.68 L2210.96 171.68 L2210.96 168.115 L2213.46 168.115 Q2215.22 168.115 2216.2 167.282 Q2217.17 166.449 2218.35 163.347 L2219.11 161.403 L2208.63 135.893 L2213.14 135.893 L2221.24 156.171 L2229.34 135.893 L2233.86 135.893 L2222.47 164.227 Z" fill="#000000" fill-rule="nonzero" fill-opacity="1" /><path clip-path="url(#clip250)" d="M2241.15 157.884 L2248.79 157.884 L2248.79 131.518 L2240.48 133.185 L2240.48 128.926 L2248.74 127.259 L2253.42 127.259 L2253.42 157.884 L2261.06 157.884 L2261.06 161.819 L2241.15 161.819 L2241.15 157.884 Z" fill="#000000" fill-rule="nonzero" fill-opacity="1" /></svg>
