<?xml version="1.0" encoding="utf-8"?>
<svg xmlns="http://www.w3.org/2000/svg" xmlns:xlink="http://www.w3.org/1999/xlink" width="600" height="400" viewBox="0 0 2400 1600">
<defs>
  <clipPath id="clip110">
    <rect x="0" y="0" width="2400" height="1600"/>
  </clipPath>
</defs>
<path clip-path="url(#clip110)" d="M0 1600 L2400 1600 L2400 0 L0 0  Z" fill="#ffffff" fill-rule="evenodd" fill-opacity="1"/>
<defs>
  <clipPath id="clip111">
    <rect x="480" y="0" width="1681" height="1600"/>
  </clipPath>
</defs>
<path clip-path="url(#clip110)" d="M170.857 1486.45 L2352.76 1486.45 L2352.76 47.2441 L170.857 47.2441  Z" fill="#ffffff" fill-rule="evenodd" fill-opacity="1"/>
<defs>
  <clipPath id="clip112">
    <rect x="170" y="47" width="2183" height="1440"/>
  </clipPath>
</defs>
<polyline clip-path="url(#clip112)" style="stroke:#000000; stroke-linecap:round; stroke-linejoin:round; stroke-width:2; stroke-opacity:0.1; fill:none" points="568.277,1486.45 568.277,47.2441 "/>
<polyline clip-path="url(#clip112)" style="stroke:#000000; stroke-linecap:round; stroke-linejoin:round; stroke-width:2; stroke-opacity:0.1; fill:none" points="1123.1,1486.45 1123.1,47.2441 "/>
<polyline clip-path="url(#clip112)" style="stroke:#000000; stroke-linecap:round; stroke-linejoin:round; stroke-width:2; stroke-opacity:0.1; fill:none" points="1677.92,1486.45 1677.92,47.2441 "/>
<polyline clip-path="url(#clip112)" style="stroke:#000000; stroke-linecap:round; stroke-linejoin:round; stroke-width:2; stroke-opacity:0.1; fill:none" points="2232.75,1486.45 2232.75,47.2441 "/>
<polyline clip-path="url(#clip110)" style="stroke:#000000; stroke-linecap:round; stroke-linejoin:round; stroke-width:4; stroke-opacity:1; fill:none" points="170.857,1486.45 2352.76,1486.45 "/>
<polyline clip-path="url(#clip110)" style="stroke:#000000; stroke-linecap:round; stroke-linejoin:round; stroke-width:4; stroke-opacity:1; fill:none" points="568.277,1486.45 568.277,1467.55 "/>
<polyline clip-path="url(#clip110)" style="stroke:#000000; stroke-linecap:round; stroke-linejoin:round; stroke-width:4; stroke-opacity:1; fill:none" points="1123.1,1486.45 1123.1,1467.55 "/>
<polyline clip-path="url(#clip110)" style="stroke:#000000; stroke-linecap:round; stroke-linejoin:round; stroke-width:4; stroke-opacity:1; fill:none" points="1677.92,1486.45 1677.92,1467.55 "/>
<polyline clip-path="url(#clip110)" style="stroke:#000000; stroke-linecap:round; stroke-linejoin:round; stroke-width:4; stroke-opacity:1; fill:none" points="2232.75,1486.45 2232.75,1467.55 "/>
<path clip-path="url(#clip110)" d="M505.315 1544.91 L512.954 1544.91 L512.954 1518.55 L504.643 1520.21 L504.643 1515.95 L512.907 1514.29 L517.583 1514.29 L517.583 1544.91 L525.222 1544.91 L525.222 1548.85 L505.315 1548.85 L505.315 1544.91 Z" fill="#000000" fill-rule="nonzero" fill-opacity="1" /><path clip-path="url(#clip110)" d="M534.666 1542.97 L539.551 1542.97 L539.551 1548.85 L534.666 1548.85 L534.666 1542.97 Z" fill="#000000" fill-rule="nonzero" fill-opacity="1" /><path clip-path="url(#clip110)" d="M549.875 1548.13 L549.875 1543.87 Q551.634 1544.7 553.44 1545.14 Q555.245 1545.58 556.981 1545.58 Q561.611 1545.58 564.041 1542.48 Q566.495 1539.36 566.842 1533.01 Q565.5 1535.01 563.439 1536.07 Q561.379 1537.13 558.879 1537.13 Q553.694 1537.13 550.662 1534.01 Q547.653 1530.86 547.653 1525.42 Q547.653 1520.1 550.801 1516.88 Q553.949 1513.66 559.18 1513.66 Q565.176 1513.66 568.324 1518.27 Q571.495 1522.85 571.495 1531.6 Q571.495 1539.77 567.606 1544.66 Q563.74 1549.52 557.19 1549.52 Q555.43 1549.52 553.625 1549.17 Q551.819 1548.82 549.875 1548.13 M559.18 1533.48 Q562.328 1533.48 564.157 1531.32 Q566.009 1529.17 566.009 1525.42 Q566.009 1521.7 564.157 1519.54 Q562.328 1517.37 559.18 1517.37 Q556.032 1517.37 554.18 1519.54 Q552.352 1521.7 552.352 1525.42 Q552.352 1529.17 554.18 1531.32 Q556.032 1533.48 559.18 1533.48 Z" fill="#000000" fill-rule="nonzero" fill-opacity="1" /><path clip-path="url(#clip110)" d="M580.037 1548.13 L580.037 1543.87 Q581.796 1544.7 583.601 1545.14 Q585.407 1545.58 587.143 1545.58 Q591.773 1545.58 594.203 1542.48 Q596.657 1539.36 597.004 1533.01 Q595.662 1535.01 593.601 1536.07 Q591.541 1537.13 589.041 1537.13 Q583.856 1537.13 580.824 1534.01 Q577.814 1530.86 577.814 1525.42 Q577.814 1520.1 580.963 1516.88 Q584.111 1513.66 589.342 1513.66 Q595.337 1513.66 598.486 1518.27 Q601.657 1522.85 601.657 1531.6 Q601.657 1539.77 597.768 1544.66 Q593.902 1549.52 587.351 1549.52 Q585.592 1549.52 583.787 1549.17 Q581.981 1548.82 580.037 1548.13 M589.342 1533.48 Q592.49 1533.48 594.319 1531.32 Q596.171 1529.17 596.171 1525.42 Q596.171 1521.7 594.319 1519.54 Q592.49 1517.37 589.342 1517.37 Q586.194 1517.37 584.342 1519.54 Q582.513 1521.7 582.513 1525.42 Q582.513 1529.17 584.342 1531.32 Q586.194 1533.48 589.342 1533.48 Z" fill="#000000" fill-rule="nonzero" fill-opacity="1" /><path clip-path="url(#clip110)" d="M620.06 1532.44 Q616.726 1532.44 614.805 1534.22 Q612.907 1536 612.907 1539.13 Q612.907 1542.25 614.805 1544.03 Q616.726 1545.82 620.06 1545.82 Q623.393 1545.82 625.314 1544.03 Q627.235 1542.23 627.235 1539.13 Q627.235 1536 625.314 1534.22 Q623.416 1532.44 620.06 1532.44 M615.384 1530.45 Q612.374 1529.7 610.685 1527.64 Q609.018 1525.58 609.018 1522.62 Q609.018 1518.48 611.958 1516.07 Q614.921 1513.66 620.06 1513.66 Q625.222 1513.66 628.161 1516.07 Q631.101 1518.48 631.101 1522.62 Q631.101 1525.58 629.411 1527.64 Q627.745 1529.7 624.759 1530.45 Q628.138 1531.23 630.013 1533.52 Q631.911 1535.82 631.911 1539.13 Q631.911 1544.15 628.833 1546.83 Q625.777 1549.52 620.06 1549.52 Q614.342 1549.52 611.263 1546.83 Q608.208 1544.15 608.208 1539.13 Q608.208 1535.82 610.106 1533.52 Q612.004 1531.23 615.384 1530.45 M613.671 1523.06 Q613.671 1525.75 615.337 1527.25 Q617.027 1528.76 620.06 1528.76 Q623.069 1528.76 624.759 1527.25 Q626.472 1525.75 626.472 1523.06 Q626.472 1520.38 624.759 1518.87 Q623.069 1517.37 620.06 1517.37 Q617.027 1517.37 615.337 1518.87 Q613.671 1520.38 613.671 1523.06 Z" fill="#000000" fill-rule="nonzero" fill-opacity="1" /><path clip-path="url(#clip110)" d="M1064.18 1544.91 L1080.5 1544.91 L1080.5 1548.85 L1058.55 1548.85 L1058.55 1544.91 Q1061.21 1542.16 1065.8 1537.53 Q1070.4 1532.88 1071.58 1531.53 Q1073.83 1529.01 1074.71 1527.27 Q1075.61 1525.51 1075.61 1523.82 Q1075.61 1521.07 1073.67 1519.33 Q1071.75 1517.6 1068.65 1517.6 Q1066.45 1517.6 1063.99 1518.36 Q1061.56 1519.13 1058.78 1520.68 L1058.78 1515.95 Q1061.61 1514.82 1064.06 1514.24 Q1066.52 1513.66 1068.55 1513.66 Q1073.92 1513.66 1077.12 1516.35 Q1080.31 1519.03 1080.31 1523.52 Q1080.31 1525.65 1079.5 1527.57 Q1078.71 1529.47 1076.61 1532.07 Q1076.03 1532.74 1072.93 1535.95 Q1069.83 1539.15 1064.18 1544.91 Z" fill="#000000" fill-rule="nonzero" fill-opacity="1" /><path clip-path="url(#clip110)" d="M1090.31 1542.97 L1095.2 1542.97 L1095.2 1548.85 L1090.31 1548.85 L1090.31 1542.97 Z" fill="#000000" fill-rule="nonzero" fill-opacity="1" /><path clip-path="url(#clip110)" d="M1115.38 1517.37 Q1111.77 1517.37 1109.94 1520.93 Q1108.14 1524.47 1108.14 1531.6 Q1108.14 1538.71 1109.94 1542.27 Q1111.77 1545.82 1115.38 1545.82 Q1119.02 1545.82 1120.82 1542.27 Q1122.65 1538.71 1122.65 1531.6 Q1122.65 1524.47 1120.82 1520.93 Q1119.02 1517.37 1115.38 1517.37 M1115.38 1513.66 Q1121.19 1513.66 1124.25 1518.27 Q1127.33 1522.85 1127.33 1531.6 Q1127.33 1540.33 1124.25 1544.94 Q1121.19 1549.52 1115.38 1549.52 Q1109.57 1549.52 1106.49 1544.94 Q1103.44 1540.33 1103.44 1531.6 Q1103.44 1522.85 1106.49 1518.27 Q1109.57 1513.66 1115.38 1513.66 Z" fill="#000000" fill-rule="nonzero" fill-opacity="1" /><path clip-path="url(#clip110)" d="M1145.54 1517.37 Q1141.93 1517.37 1140.1 1520.93 Q1138.3 1524.47 1138.3 1531.6 Q1138.3 1538.71 1140.1 1542.27 Q1141.93 1545.82 1145.54 1545.82 Q1149.18 1545.82 1150.98 1542.27 Q1152.81 1538.71 1152.81 1531.6 Q1152.81 1524.47 1150.98 1520.93 Q1149.18 1517.37 1145.54 1517.37 M1145.54 1513.66 Q1151.35 1513.66 1154.41 1518.27 Q1157.49 1522.85 1157.49 1531.6 Q1157.49 1540.33 1154.41 1544.94 Q1151.35 1549.52 1145.54 1549.52 Q1139.73 1549.52 1136.65 1544.94 Q1133.6 1540.33 1133.6 1531.6 Q1133.6 1522.85 1136.65 1518.27 Q1139.73 1513.66 1145.54 1513.66 Z" fill="#000000" fill-rule="nonzero" fill-opacity="1" /><path clip-path="url(#clip110)" d="M1175.7 1517.37 Q1172.09 1517.37 1170.26 1520.93 Q1168.46 1524.47 1168.46 1531.6 Q1168.46 1538.71 1170.26 1542.27 Q1172.09 1545.82 1175.7 1545.82 Q1179.34 1545.82 1181.14 1542.27 Q1182.97 1538.71 1182.97 1531.6 Q1182.97 1524.47 1181.14 1520.93 Q1179.34 1517.37 1175.7 1517.37 M1175.7 1513.66 Q1181.51 1513.66 1184.57 1518.27 Q1187.65 1522.85 1187.65 1531.6 Q1187.65 1540.33 1184.57 1544.94 Q1181.51 1549.52 1175.7 1549.52 Q1169.89 1549.52 1166.82 1544.94 Q1163.76 1540.33 1163.76 1531.6 Q1163.76 1522.85 1166.82 1518.27 Q1169.89 1513.66 1175.7 1513.66 Z" fill="#000000" fill-rule="nonzero" fill-opacity="1" /><path clip-path="url(#clip110)" d="M1619.8 1544.91 L1636.12 1544.91 L1636.12 1548.85 L1614.17 1548.85 L1614.17 1544.91 Q1616.84 1542.16 1621.42 1537.53 Q1626.03 1532.88 1627.21 1531.53 Q1629.45 1529.01 1630.33 1527.27 Q1631.23 1525.51 1631.23 1523.82 Q1631.23 1521.07 1629.29 1519.33 Q1627.37 1517.6 1624.27 1517.6 Q1622.07 1517.6 1619.61 1518.36 Q1617.18 1519.13 1614.41 1520.68 L1614.41 1515.95 Q1617.23 1514.82 1619.68 1514.24 Q1622.14 1513.66 1624.17 1513.66 Q1629.54 1513.66 1632.74 1516.35 Q1635.93 1519.03 1635.93 1523.52 Q1635.93 1525.65 1635.12 1527.57 Q1634.34 1529.47 1632.23 1532.07 Q1631.65 1532.74 1628.55 1535.95 Q1625.45 1539.15 1619.8 1544.91 Z" fill="#000000" fill-rule="nonzero" fill-opacity="1" /><path clip-path="url(#clip110)" d="M1645.93 1542.97 L1650.82 1542.97 L1650.82 1548.85 L1645.93 1548.85 L1645.93 1542.97 Z" fill="#000000" fill-rule="nonzero" fill-opacity="1" /><path clip-path="url(#clip110)" d="M1671 1517.37 Q1667.39 1517.37 1665.56 1520.93 Q1663.76 1524.47 1663.76 1531.6 Q1663.76 1538.71 1665.56 1542.27 Q1667.39 1545.82 1671 1545.82 Q1674.64 1545.82 1676.44 1542.27 Q1678.27 1538.71 1678.27 1531.6 Q1678.27 1524.47 1676.44 1520.93 Q1674.64 1517.37 1671 1517.37 M1671 1513.66 Q1676.81 1513.66 1679.87 1518.27 Q1682.95 1522.85 1682.95 1531.6 Q1682.95 1540.33 1679.87 1544.94 Q1676.81 1549.52 1671 1549.52 Q1665.19 1549.52 1662.11 1544.94 Q1659.06 1540.33 1659.06 1531.6 Q1659.06 1522.85 1662.11 1518.27 Q1665.19 1513.66 1671 1513.66 Z" fill="#000000" fill-rule="nonzero" fill-opacity="1" /><path clip-path="url(#clip110)" d="M1701.16 1517.37 Q1697.55 1517.37 1695.73 1520.93 Q1693.92 1524.47 1693.92 1531.6 Q1693.92 1538.71 1695.73 1542.27 Q1697.55 1545.82 1701.16 1545.82 Q1704.8 1545.82 1706.6 1542.27 Q1708.43 1538.71 1708.43 1531.6 Q1708.43 1524.47 1706.6 1520.93 Q1704.8 1517.37 1701.16 1517.37 M1701.16 1513.66 Q1706.97 1513.66 1710.03 1518.27 Q1713.11 1522.85 1713.11 1531.6 Q1713.11 1540.33 1710.03 1544.94 Q1706.97 1549.52 1701.16 1549.52 Q1695.35 1549.52 1692.28 1544.94 Q1689.22 1540.33 1689.22 1531.6 Q1689.22 1522.85 1692.28 1518.27 Q1695.35 1513.66 1701.16 1513.66 Z" fill="#000000" fill-rule="nonzero" fill-opacity="1" /><path clip-path="url(#clip110)" d="M1725.35 1544.91 L1741.67 1544.91 L1741.67 1548.85 L1719.73 1548.85 L1719.73 1544.91 Q1722.39 1542.16 1726.97 1537.53 Q1731.58 1532.88 1732.76 1531.53 Q1735.01 1529.01 1735.89 1527.27 Q1736.79 1525.51 1736.79 1523.82 Q1736.79 1521.07 1734.85 1519.33 Q1732.92 1517.6 1729.82 1517.6 Q1727.62 1517.6 1725.17 1518.36 Q1722.74 1519.13 1719.96 1520.68 L1719.96 1515.95 Q1722.79 1514.82 1725.24 1514.24 Q1727.69 1513.66 1729.73 1513.66 Q1735.1 1513.66 1738.29 1516.35 Q1741.49 1519.03 1741.49 1523.52 Q1741.49 1525.65 1740.68 1527.57 Q1739.89 1529.47 1737.78 1532.07 Q1737.21 1532.74 1734.1 1535.95 Q1731 1539.15 1725.35 1544.91 Z" fill="#000000" fill-rule="nonzero" fill-opacity="1" /><path clip-path="url(#clip110)" d="M2173.58 1544.91 L2189.9 1544.91 L2189.9 1548.85 L2167.96 1548.85 L2167.96 1544.91 Q2170.62 1542.16 2175.2 1537.53 Q2179.81 1532.88 2180.99 1531.53 Q2183.23 1529.01 2184.11 1527.27 Q2185.02 1525.51 2185.02 1523.82 Q2185.02 1521.07 2183.07 1519.33 Q2181.15 1517.6 2178.05 1517.6 Q2175.85 1517.6 2173.4 1518.36 Q2170.97 1519.13 2168.19 1520.68 L2168.19 1515.95 Q2171.01 1514.82 2173.47 1514.24 Q2175.92 1513.66 2177.96 1513.66 Q2183.33 1513.66 2186.52 1516.35 Q2189.72 1519.03 2189.72 1523.52 Q2189.72 1525.65 2188.91 1527.57 Q2188.12 1529.47 2186.01 1532.07 Q2185.43 1532.74 2182.33 1535.95 Q2179.23 1539.15 2173.58 1544.91 Z" fill="#000000" fill-rule="nonzero" fill-opacity="1" /><path clip-path="url(#clip110)" d="M2199.72 1542.97 L2204.6 1542.97 L2204.6 1548.85 L2199.72 1548.85 L2199.72 1542.97 Z" fill="#000000" fill-rule="nonzero" fill-opacity="1" /><path clip-path="url(#clip110)" d="M2224.78 1517.37 Q2221.17 1517.37 2219.34 1520.93 Q2217.54 1524.47 2217.54 1531.6 Q2217.54 1538.71 2219.34 1542.27 Q2221.17 1545.82 2224.78 1545.82 Q2228.42 1545.82 2230.22 1542.27 Q2232.05 1538.71 2232.05 1531.6 Q2232.05 1524.47 2230.22 1520.93 Q2228.42 1517.37 2224.78 1517.37 M2224.78 1513.66 Q2230.59 1513.66 2233.65 1518.27 Q2236.73 1522.85 2236.73 1531.6 Q2236.73 1540.33 2233.65 1544.94 Q2230.59 1549.52 2224.78 1549.52 Q2218.97 1549.52 2215.9 1544.94 Q2212.84 1540.33 2212.84 1531.6 Q2212.84 1522.85 2215.9 1518.27 Q2218.97 1513.66 2224.78 1513.66 Z" fill="#000000" fill-rule="nonzero" fill-opacity="1" /><path clip-path="url(#clip110)" d="M2254.95 1517.37 Q2251.34 1517.37 2249.51 1520.93 Q2247.7 1524.47 2247.7 1531.6 Q2247.7 1538.71 2249.51 1542.27 Q2251.34 1545.82 2254.95 1545.82 Q2258.58 1545.82 2260.39 1542.27 Q2262.22 1538.71 2262.22 1531.6 Q2262.22 1524.47 2260.39 1520.93 Q2258.58 1517.37 2254.95 1517.37 M2254.95 1513.66 Q2260.76 1513.66 2263.81 1518.27 Q2266.89 1522.85 2266.89 1531.6 Q2266.89 1540.33 2263.81 1544.94 Q2260.76 1549.52 2254.95 1549.52 Q2249.14 1549.52 2246.06 1544.94 Q2243 1540.33 2243 1531.6 Q2243 1522.85 2246.06 1518.27 Q2249.14 1513.66 2254.95 1513.66 Z" fill="#000000" fill-rule="nonzero" fill-opacity="1" /><path clip-path="url(#clip110)" d="M2287.96 1518.36 L2276.15 1536.81 L2287.96 1536.81 L2287.96 1518.36 M2286.73 1514.29 L2292.61 1514.29 L2292.61 1536.81 L2297.54 1536.81 L2297.54 1540.7 L2292.61 1540.7 L2292.61 1548.85 L2287.96 1548.85 L2287.96 1540.7 L2272.35 1540.7 L2272.35 1536.19 L2286.73 1514.29 Z" fill="#000000" fill-rule="nonzero" fill-opacity="1" /><polyline clip-path="url(#clip112)" style="stroke:#000000; stroke-linecap:round; stroke-linejoin:round; stroke-width:2; stroke-opacity:0.1; fill:none" points="170.857,1486.45 2352.76,1486.45 "/>
<polyline clip-path="url(#clip112)" style="stroke:#000000; stroke-linecap:round; stroke-linejoin:round; stroke-width:2; stroke-opacity:0.1; fill:none" points="170.857,1138.81 2352.76,1138.81 "/>
<polyline clip-path="url(#clip112)" style="stroke:#000000; stroke-linecap:round; stroke-linejoin:round; stroke-width:2; stroke-opacity:0.1; fill:none" points="170.857,791.18 2352.76,791.18 "/>
<polyline clip-path="url(#clip112)" style="stroke:#000000; stroke-linecap:round; stroke-linejoin:round; stroke-width:2; stroke-opacity:0.1; fill:none" points="170.857,443.547 2352.76,443.547 "/>
<polyline clip-path="url(#clip112)" style="stroke:#000000; stroke-linecap:round; stroke-linejoin:round; stroke-width:2; stroke-opacity:0.1; fill:none" points="170.857,95.9128 2352.76,95.9128 "/>
<polyline clip-path="url(#clip110)" style="stroke:#000000; stroke-linecap:round; stroke-linejoin:round; stroke-width:4; stroke-opacity:1; fill:none" points="170.857,1486.45 170.857,47.2441 "/>
<polyline clip-path="url(#clip110)" style="stroke:#000000; stroke-linecap:round; stroke-linejoin:round; stroke-width:4; stroke-opacity:1; fill:none" points="170.857,1486.45 189.755,1486.45 "/>
<polyline clip-path="url(#clip110)" style="stroke:#000000; stroke-linecap:round; stroke-linejoin:round; stroke-width:4; stroke-opacity:1; fill:none" points="170.857,1138.81 189.755,1138.81 "/>
<polyline clip-path="url(#clip110)" style="stroke:#000000; stroke-linecap:round; stroke-linejoin:round; stroke-width:4; stroke-opacity:1; fill:none" points="170.857,791.18 189.755,791.18 "/>
<polyline clip-path="url(#clip110)" style="stroke:#000000; stroke-linecap:round; stroke-linejoin:round; stroke-width:4; stroke-opacity:1; fill:none" points="170.857,443.547 189.755,443.547 "/>
<polyline clip-path="url(#clip110)" style="stroke:#000000; stroke-linecap:round; stroke-linejoin:round; stroke-width:4; stroke-opacity:1; fill:none" points="170.857,95.9128 189.755,95.9128 "/>
<path clip-path="url(#clip110)" d="M122.913 1472.25 Q119.302 1472.25 117.473 1475.81 Q115.668 1479.35 115.668 1486.48 Q115.668 1493.59 117.473 1497.15 Q119.302 1500.7 122.913 1500.7 Q126.547 1500.7 128.353 1497.15 Q130.182 1493.59 130.182 1486.48 Q130.182 1479.35 128.353 1475.81 Q126.547 1472.25 122.913 1472.25 M122.913 1468.54 Q128.723 1468.54 131.779 1473.15 Q134.857 1477.73 134.857 1486.48 Q134.857 1495.21 131.779 1499.82 Q128.723 1504.4 122.913 1504.4 Q117.103 1504.4 114.024 1499.82 Q110.969 1495.21 110.969 1486.48 Q110.969 1477.73 114.024 1473.15 Q117.103 1468.54 122.913 1468.54 Z" fill="#000000" fill-rule="nonzero" fill-opacity="1" /><path clip-path="url(#clip110)" d="M82.7975 1121.53 L101.154 1121.53 L101.154 1125.47 L87.0799 1125.47 L87.0799 1133.94 Q88.0984 1133.59 89.1169 1133.43 Q90.1354 1133.25 91.1539 1133.25 Q96.941 1133.25 100.321 1136.42 Q103.7 1139.59 103.7 1145.01 Q103.7 1150.58 100.228 1153.69 Q96.7558 1156.77 90.4364 1156.77 Q88.2604 1156.77 85.9919 1156.4 Q83.7466 1156.02 81.3392 1155.28 L81.3392 1150.58 Q83.4225 1151.72 85.6447 1152.27 Q87.8669 1152.83 90.3438 1152.83 Q94.3484 1152.83 96.6863 1150.72 Q99.0243 1148.62 99.0243 1145.01 Q99.0243 1141.4 96.6863 1139.29 Q94.3484 1137.18 90.3438 1137.18 Q88.4688 1137.18 86.5938 1137.6 Q84.7419 1138.02 82.7975 1138.9 L82.7975 1121.53 Z" fill="#000000" fill-rule="nonzero" fill-opacity="1" /><path clip-path="url(#clip110)" d="M122.913 1124.61 Q119.302 1124.61 117.473 1128.18 Q115.668 1131.72 115.668 1138.85 Q115.668 1145.96 117.473 1149.52 Q119.302 1153.06 122.913 1153.06 Q126.547 1153.06 128.353 1149.52 Q130.182 1145.96 130.182 1138.85 Q130.182 1131.72 128.353 1128.18 Q126.547 1124.61 122.913 1124.61 M122.913 1120.91 Q128.723 1120.91 131.779 1125.52 Q134.857 1130.1 134.857 1138.85 Q134.857 1147.58 131.779 1152.18 Q128.723 1156.77 122.913 1156.77 Q117.103 1156.77 114.024 1152.18 Q110.969 1147.58 110.969 1138.85 Q110.969 1130.1 114.024 1125.52 Q117.103 1120.91 122.913 1120.91 Z" fill="#000000" fill-rule="nonzero" fill-opacity="1" /><path clip-path="url(#clip110)" d="M53.3995 804.525 L61.0384 804.525 L61.0384 778.16 L52.7282 779.826 L52.7282 775.567 L60.9921 773.9 L65.668 773.9 L65.668 804.525 L73.3068 804.525 L73.3068 808.46 L53.3995 808.46 L53.3995 804.525 Z" fill="#000000" fill-rule="nonzero" fill-opacity="1" /><path clip-path="url(#clip110)" d="M92.7512 776.979 Q89.1401 776.979 87.3114 780.544 Q85.5058 784.085 85.5058 791.215 Q85.5058 798.322 87.3114 801.886 Q89.1401 805.428 92.7512 805.428 Q96.3854 805.428 98.1909 801.886 Q100.02 798.322 100.02 791.215 Q100.02 784.085 98.1909 780.544 Q96.3854 776.979 92.7512 776.979 M92.7512 773.275 Q98.5613 773.275 101.617 777.882 Q104.696 782.465 104.696 791.215 Q104.696 799.942 101.617 804.548 Q98.5613 809.132 92.7512 809.132 Q86.941 809.132 83.8623 804.548 Q80.8068 799.942 80.8068 791.215 Q80.8068 782.465 83.8623 777.882 Q86.941 773.275 92.7512 773.275 Z" fill="#000000" fill-rule="nonzero" fill-opacity="1" /><path clip-path="url(#clip110)" d="M122.913 776.979 Q119.302 776.979 117.473 780.544 Q115.668 784.085 115.668 791.215 Q115.668 798.322 117.473 801.886 Q119.302 805.428 122.913 805.428 Q126.547 805.428 128.353 801.886 Q130.182 798.322 130.182 791.215 Q130.182 784.085 128.353 780.544 Q126.547 776.979 122.913 776.979 M122.913 773.275 Q128.723 773.275 131.779 777.882 Q134.857 782.465 134.857 791.215 Q134.857 799.942 131.779 804.548 Q128.723 809.132 122.913 809.132 Q117.103 809.132 114.024 804.548 Q110.969 799.942 110.969 791.215 Q110.969 782.465 114.024 777.882 Q117.103 773.275 122.913 773.275 Z" fill="#000000" fill-rule="nonzero" fill-opacity="1" /><path clip-path="url(#clip110)" d="M53.3995 456.891 L61.0384 456.891 L61.0384 430.526 L52.7282 432.192 L52.7282 427.933 L60.9921 426.267 L65.668 426.267 L65.668 456.891 L73.3068 456.891 L73.3068 460.827 L53.3995 460.827 L53.3995 456.891 Z" fill="#000000" fill-rule="nonzero" fill-opacity="1" /><path clip-path="url(#clip110)" d="M82.7975 426.267 L101.154 426.267 L101.154 430.202 L87.0799 430.202 L87.0799 438.674 Q88.0984 438.327 89.1169 438.165 Q90.1354 437.979 91.1539 437.979 Q96.941 437.979 100.321 441.151 Q103.7 444.322 103.7 449.739 Q103.7 455.317 100.228 458.419 Q96.7558 461.498 90.4364 461.498 Q88.2604 461.498 85.9919 461.128 Q83.7466 460.757 81.3392 460.016 L81.3392 455.317 Q83.4225 456.452 85.6447 457.007 Q87.8669 457.563 90.3438 457.563 Q94.3484 457.563 96.6863 455.456 Q99.0243 453.35 99.0243 449.739 Q99.0243 446.128 96.6863 444.021 Q94.3484 441.915 90.3438 441.915 Q88.4688 441.915 86.5938 442.331 Q84.7419 442.748 82.7975 443.628 L82.7975 426.267 Z" fill="#000000" fill-rule="nonzero" fill-opacity="1" /><path clip-path="url(#clip110)" d="M122.913 429.345 Q119.302 429.345 117.473 432.91 Q115.668 436.452 115.668 443.581 Q115.668 450.688 117.473 454.253 Q119.302 457.794 122.913 457.794 Q126.547 457.794 128.353 454.253 Q130.182 450.688 130.182 443.581 Q130.182 436.452 128.353 432.91 Q126.547 429.345 122.913 429.345 M122.913 425.642 Q128.723 425.642 131.779 430.248 Q134.857 434.831 134.857 443.581 Q134.857 452.308 131.779 456.915 Q128.723 461.498 122.913 461.498 Q117.103 461.498 114.024 456.915 Q110.969 452.308 110.969 443.581 Q110.969 434.831 114.024 430.248 Q117.103 425.642 122.913 425.642 Z" fill="#000000" fill-rule="nonzero" fill-opacity="1" /><path clip-path="url(#clip110)" d="M56.6171 109.258 L72.9365 109.258 L72.9365 113.193 L50.9921 113.193 L50.9921 109.258 Q53.6541 106.503 58.2375 101.873 Q62.8439 97.2207 64.0245 95.8781 Q66.2698 93.355 67.1494 91.6189 Q68.0522 89.8596 68.0522 88.1698 Q68.0522 85.4152 66.1078 83.6791 Q64.1865 81.943 61.0847 81.943 Q58.8856 81.943 56.4319 82.7069 Q54.0014 83.4708 51.2236 85.0217 L51.2236 80.2995 Q54.0477 79.1652 56.5014 78.5865 Q58.955 78.0078 60.9921 78.0078 Q66.3624 78.0078 69.5568 80.693 Q72.7513 83.3782 72.7513 87.8689 Q72.7513 89.9985 71.9411 91.9198 Q71.1541 93.8179 69.0476 96.4105 Q68.4689 97.0818 65.367 100.299 Q62.2652 103.494 56.6171 109.258 Z" fill="#000000" fill-rule="nonzero" fill-opacity="1" /><path clip-path="url(#clip110)" d="M92.7512 81.7115 Q89.1401 81.7115 87.3114 85.2763 Q85.5058 88.818 85.5058 95.9475 Q85.5058 103.054 87.3114 106.619 Q89.1401 110.16 92.7512 110.16 Q96.3854 110.16 98.1909 106.619 Q100.02 103.054 100.02 95.9475 Q100.02 88.818 98.1909 85.2763 Q96.3854 81.7115 92.7512 81.7115 M92.7512 78.0078 Q98.5613 78.0078 101.617 82.6143 Q104.696 87.1976 104.696 95.9475 Q104.696 104.674 101.617 109.281 Q98.5613 113.864 92.7512 113.864 Q86.941 113.864 83.8623 109.281 Q80.8068 104.674 80.8068 95.9475 Q80.8068 87.1976 83.8623 82.6143 Q86.941 78.0078 92.7512 78.0078 Z" fill="#000000" fill-rule="nonzero" fill-opacity="1" /><path clip-path="url(#clip110)" d="M122.913 81.7115 Q119.302 81.7115 117.473 85.2763 Q115.668 88.818 115.668 95.9475 Q115.668 103.054 117.473 106.619 Q119.302 110.16 122.913 110.16 Q126.547 110.16 128.353 106.619 Q130.182 103.054 130.182 95.9475 Q130.182 88.818 128.353 85.2763 Q126.547 81.7115 122.913 81.7115 M122.913 78.0078 Q128.723 78.0078 131.779 82.6143 Q134.857 87.1976 134.857 95.9475 Q134.857 104.674 131.779 109.281 Q128.723 113.864 122.913 113.864 Q117.103 113.864 114.024 109.281 Q110.969 104.674 110.969 95.9475 Q110.969 87.1976 114.024 82.6143 Q117.103 78.0078 122.913 78.0078 Z" fill="#000000" fill-rule="nonzero" fill-opacity="1" /><path clip-path="url(#clip112)" d="M290.866 1472.54 L290.866 1486.45 L429.572 1486.45 L429.572 1472.54 L290.866 1472.54 L290.866 1472.54  Z" fill="#009af9" fill-rule="evenodd" fill-opacity="1"/>
<polyline clip-path="url(#clip112)" style="stroke:#000000; stroke-linecap:round; stroke-linejoin:round; stroke-width:4; stroke-opacity:1; fill:none" points="290.866,1472.54 290.866,1486.45 429.572,1486.45 429.572,1472.54 290.866,1472.54 "/>
<path clip-path="url(#clip112)" d="M429.572 1382.16 L429.572 1486.45 L568.277 1486.45 L568.277 1382.16 L429.572 1382.16 L429.572 1382.16  Z" fill="#009af9" fill-rule="evenodd" fill-opacity="1"/>
<polyline clip-path="url(#clip112)" style="stroke:#000000; stroke-linecap:round; stroke-linejoin:round; stroke-width:4; stroke-opacity:1; fill:none" points="429.572,1382.16 429.572,1486.45 568.277,1486.45 568.277,1382.16 429.572,1382.16 "/>
<path clip-path="url(#clip112)" d="M568.277 1145.77 L568.277 1486.45 L706.983 1486.45 L706.983 1145.77 L568.277 1145.77 L568.277 1145.77  Z" fill="#009af9" fill-rule="evenodd" fill-opacity="1"/>
<polyline clip-path="url(#clip112)" style="stroke:#000000; stroke-linecap:round; stroke-linejoin:round; stroke-width:4; stroke-opacity:1; fill:none" points="568.277,1145.77 568.277,1486.45 706.983,1486.45 706.983,1145.77 568.277,1145.77 "/>
<path clip-path="url(#clip112)" d="M706.983 846.802 L706.983 1486.45 L845.689 1486.45 L845.689 846.802 L706.983 846.802 L706.983 846.802  Z" fill="#009af9" fill-rule="evenodd" fill-opacity="1"/>
<polyline clip-path="url(#clip112)" style="stroke:#000000; stroke-linecap:round; stroke-linejoin:round; stroke-width:4; stroke-opacity:1; fill:none" points="706.983,846.802 706.983,1486.45 845.689,1486.45 845.689,846.802 706.983,846.802 "/>
<path clip-path="url(#clip112)" d="M845.689 513.073 L845.689 1486.45 L984.395 1486.45 L984.395 513.073 L845.689 513.073 L845.689 513.073  Z" fill="#009af9" fill-rule="evenodd" fill-opacity="1"/>
<polyline clip-path="url(#clip112)" style="stroke:#000000; stroke-linecap:round; stroke-linejoin:round; stroke-width:4; stroke-opacity:1; fill:none" points="845.689,513.073 845.689,1486.45 984.395,1486.45 984.395,513.073 845.689,513.073 "/>
<path clip-path="url(#clip112)" d="M984.395 47.2441 L984.395 1486.45 L1123.1 1486.45 L1123.1 47.2441 L984.395 47.2441 L984.395 47.2441  Z" fill="#009af9" fill-rule="evenodd" fill-opacity="1"/>
<polyline clip-path="url(#clip112)" style="stroke:#000000; stroke-linecap:round; stroke-linejoin:round; stroke-width:4; stroke-opacity:1; fill:none" points="984.395,47.2441 984.395,1486.45 1123.1,1486.45 1123.1,47.2441 984.395,47.2441 "/>
<path clip-path="url(#clip112)" d="M1123.1 193.25 L1123.1 1486.45 L1261.81 1486.45 L1261.81 193.25 L1123.1 193.25 L1123.1 193.25  Z" fill="#009af9" fill-rule="evenodd" fill-opacity="1"/>
<polyline clip-path="url(#clip112)" style="stroke:#000000; stroke-linecap:round; stroke-linejoin:round; stroke-width:4; stroke-opacity:1; fill:none" points="1123.1,193.25 1123.1,1486.45 1261.81,1486.45 1261.81,193.25 1123.1,193.25 "/>
<path clip-path="url(#clip112)" d="M1261.81 478.31 L1261.81 1486.45 L1400.51 1486.45 L1400.51 478.31 L1261.81 478.31 L1261.81 478.31  Z" fill="#009af9" fill-rule="evenodd" fill-opacity="1"/>
<polyline clip-path="url(#clip112)" style="stroke:#000000; stroke-linecap:round; stroke-linejoin:round; stroke-width:4; stroke-opacity:1; fill:none" points="1261.81,478.31 1261.81,1486.45 1400.51,1486.45 1400.51,478.31 1261.81,478.31 "/>
<path clip-path="url(#clip112)" d="M1400.51 791.18 L1400.51 1486.45 L1539.22 1486.45 L1539.22 791.18 L1400.51 791.18 L1400.51 791.18  Z" fill="#009af9" fill-rule="evenodd" fill-opacity="1"/>
<polyline clip-path="url(#clip112)" style="stroke:#000000; stroke-linecap:round; stroke-linejoin:round; stroke-width:4; stroke-opacity:1; fill:none" points="1400.51,791.18 1400.51,1486.45 1539.22,1486.45 1539.22,791.18 1400.51,791.18 "/>
<path clip-path="url(#clip112)" d="M1539.22 1215.29 L1539.22 1486.45 L1677.92 1486.45 L1677.92 1215.29 L1539.22 1215.29 L1539.22 1215.29  Z" fill="#009af9" fill-rule="evenodd" fill-opacity="1"/>
<polyline clip-path="url(#clip112)" style="stroke:#000000; stroke-linecap:round; stroke-linejoin:round; stroke-width:4; stroke-opacity:1; fill:none" points="1539.22,1215.29 1539.22,1486.45 1677.92,1486.45 1677.92,1215.29 1539.22,1215.29 "/>
<path clip-path="url(#clip112)" d="M1677.92 1354.35 L1677.92 1486.45 L1816.63 1486.45 L1816.63 1354.35 L1677.92 1354.35 L1677.92 1354.35  Z" fill="#009af9" fill-rule="evenodd" fill-opacity="1"/>
<polyline clip-path="url(#clip112)" style="stroke:#000000; stroke-linecap:round; stroke-linejoin:round; stroke-width:4; stroke-opacity:1; fill:none" points="1677.92,1354.35 1677.92,1486.45 1816.63,1486.45 1816.63,1354.35 1677.92,1354.35 "/>
<path clip-path="url(#clip112)" d="M1816.63 1465.59 L1816.63 1486.45 L1955.34 1486.45 L1955.34 1465.59 L1816.63 1465.59 L1816.63 1465.59  Z" fill="#009af9" fill-rule="evenodd" fill-opacity="1"/>
<polyline clip-path="url(#clip112)" style="stroke:#000000; stroke-linecap:round; stroke-linejoin:round; stroke-width:4; stroke-opacity:1; fill:none" points="1816.63,1465.59 1816.63,1486.45 1955.34,1486.45 1955.34,1465.59 1816.63,1465.59 "/>
<path clip-path="url(#clip112)" d="M1955.34 1472.54 L1955.34 1486.45 L2094.04 1486.45 L2094.04 1472.54 L1955.34 1472.54 L1955.34 1472.54  Z" fill="#009af9" fill-rule="evenodd" fill-opacity="1"/>
<polyline clip-path="url(#clip112)" style="stroke:#000000; stroke-linecap:round; stroke-linejoin:round; stroke-width:4; stroke-opacity:1; fill:none" points="1955.34,1472.54 1955.34,1486.45 2094.04,1486.45 2094.04,1472.54 1955.34,1472.54 "/>
<path clip-path="url(#clip112)" d="M2094.04 1479.5 L2094.04 1486.45 L2232.75 1486.45 L2232.75 1479.5 L2094.04 1479.5 L2094.04 1479.5  Z" fill="#009af9" fill-rule="evenodd" fill-opacity="1"/>
<polyline clip-path="url(#clip112)" style="stroke:#000000; stroke-linecap:round; stroke-linejoin:round; stroke-width:4; stroke-opacity:1; fill:none" points="2094.04,1479.5 2094.04,1486.45 2232.75,1486.45 2232.75,1479.5 2094.04,1479.5 "/>
<circle clip-path="url(#clip112)" style="fill:#009af9; stroke:none; fill-opacity:0" cx="360.219" cy="1472.54" r="2"/>
<circle clip-path="url(#clip112)" style="fill:#009af9; stroke:none; fill-opacity:0" cx="498.924" cy="1382.16" r="2"/>
<circle clip-path="url(#clip112)" style="fill:#009af9; stroke:none; fill-opacity:0" cx="637.63" cy="1145.77" r="2"/>
<circle clip-path="url(#clip112)" style="fill:#009af9; stroke:none; fill-opacity:0" cx="776.336" cy="846.802" r="2"/>
<circle clip-path="url(#clip112)" style="fill:#009af9; stroke:none; fill-opacity:0" cx="915.042" cy="513.073" r="2"/>
<circle clip-path="url(#clip112)" style="fill:#009af9; stroke:none; fill-opacity:0" cx="1053.75" cy="47.2441" r="2"/>
<circle clip-path="url(#clip112)" style="fill:#009af9; stroke:none; fill-opacity:0" cx="1192.45" cy="193.25" r="2"/>
<circle clip-path="url(#clip112)" style="fill:#009af9; stroke:none; fill-opacity:0" cx="1331.16" cy="478.31" r="2"/>
<circle clip-path="url(#clip112)" style="fill:#009af9; stroke:none; fill-opacity:0" cx="1469.87" cy="791.18" r="2"/>
<circle clip-path="url(#clip112)" style="fill:#009af9; stroke:none; fill-opacity:0" cx="1608.57" cy="1215.29" r="2"/>
<circle clip-path="url(#clip112)" style="fill:#009af9; stroke:none; fill-opacity:0" cx="1747.28" cy="1354.35" r="2"/>
<circle clip-path="url(#clip112)" style="fill:#009af9; stroke:none; fill-opacity:0" cx="1885.98" cy="1465.59" r="2"/>
<circle clip-path="url(#clip112)" style="fill:#009af9; stroke:none; fill-opacity:0" cx="2024.69" cy="1472.54" r="2"/>
<circle clip-path="url(#clip112)" style="fill:#009af9; stroke:none; fill-opacity:0" cx="2163.39" cy="1479.5" r="2"/>
</svg>
