<?xml version="1.0" encoding="utf-8"?>
<svg xmlns="http://www.w3.org/2000/svg" xmlns:xlink="http://www.w3.org/1999/xlink" width="600" height="400" viewBox="0 0 2400 1600">
<defs>
  <clipPath id="clip660">
    <rect x="0" y="0" width="2400" height="1600"/>
  </clipPath>
</defs>
<path clip-path="url(#clip660)" d="M0 1600 L2400 1600 L2400 0 L0 0  Z" fill="#ffffff" fill-rule="evenodd" fill-opacity="1"/>
<defs>
  <clipPath id="clip661">
    <rect x="480" y="0" width="1681" height="1600"/>
  </clipPath>
</defs>
<path clip-path="url(#clip660)" d="M289.514 1410.9 L2352.76 1410.9 L2352.76 47.2441 L289.514 47.2441  Z" fill="#ffffff" fill-rule="evenodd" fill-opacity="1"/>
<defs>
  <clipPath id="clip662">
    <rect x="289" y="47" width="2064" height="1365"/>
  </clipPath>
</defs>
<polyline clip-path="url(#clip662)" style="stroke:#000000; stroke-linecap:round; stroke-linejoin:round; stroke-width:2; stroke-opacity:0.1; fill:none" points="602.551,1410.9 602.551,47.2441 "/>
<polyline clip-path="url(#clip662)" style="stroke:#000000; stroke-linecap:round; stroke-linejoin:round; stroke-width:2; stroke-opacity:0.1; fill:none" points="1448.46,1410.9 1448.46,47.2441 "/>
<polyline clip-path="url(#clip662)" style="stroke:#000000; stroke-linecap:round; stroke-linejoin:round; stroke-width:2; stroke-opacity:0.1; fill:none" points="2294.36,1410.9 2294.36,47.2441 "/>
<polyline clip-path="url(#clip662)" style="stroke:#000000; stroke-linecap:round; stroke-linejoin:round; stroke-width:2; stroke-opacity:0.1; fill:none" points="289.514,1156.93 2352.76,1156.93 "/>
<polyline clip-path="url(#clip662)" style="stroke:#000000; stroke-linecap:round; stroke-linejoin:round; stroke-width:2; stroke-opacity:0.1; fill:none" points="289.514,820.184 2352.76,820.184 "/>
<polyline clip-path="url(#clip662)" style="stroke:#000000; stroke-linecap:round; stroke-linejoin:round; stroke-width:2; stroke-opacity:0.1; fill:none" points="289.514,483.442 2352.76,483.442 "/>
<polyline clip-path="url(#clip662)" style="stroke:#000000; stroke-linecap:round; stroke-linejoin:round; stroke-width:2; stroke-opacity:0.1; fill:none" points="289.514,146.699 2352.76,146.699 "/>
<polyline clip-path="url(#clip660)" style="stroke:#000000; stroke-linecap:round; stroke-linejoin:round; stroke-width:4; stroke-opacity:1; fill:none" points="289.514,1410.9 2352.76,1410.9 "/>
<polyline clip-path="url(#clip660)" style="stroke:#000000; stroke-linecap:round; stroke-linejoin:round; stroke-width:4; stroke-opacity:1; fill:none" points="602.551,1410.9 602.551,1392 "/>
<polyline clip-path="url(#clip660)" style="stroke:#000000; stroke-linecap:round; stroke-linejoin:round; stroke-width:4; stroke-opacity:1; fill:none" points="1448.46,1410.9 1448.46,1392 "/>
<polyline clip-path="url(#clip660)" style="stroke:#000000; stroke-linecap:round; stroke-linejoin:round; stroke-width:4; stroke-opacity:1; fill:none" points="2294.36,1410.9 2294.36,1392 "/>
<path clip-path="url(#clip660)" d="M567.995 1485.02 L575.633 1485.02 L575.633 1458.66 L567.323 1460.32 L567.323 1456.06 L575.587 1454.4 L580.263 1454.4 L580.263 1485.02 L587.902 1485.02 L587.902 1488.96 L567.995 1488.96 L567.995 1485.02 Z" fill="#000000" fill-rule="nonzero" fill-opacity="1" /><path clip-path="url(#clip660)" d="M607.346 1457.48 Q603.735 1457.48 601.906 1461.04 Q600.101 1464.58 600.101 1471.71 Q600.101 1478.82 601.906 1482.38 Q603.735 1485.92 607.346 1485.92 Q610.98 1485.92 612.786 1482.38 Q614.615 1478.82 614.615 1471.71 Q614.615 1464.58 612.786 1461.04 Q610.98 1457.48 607.346 1457.48 M607.346 1453.77 Q613.156 1453.77 616.212 1458.38 Q619.291 1462.96 619.291 1471.71 Q619.291 1480.44 616.212 1485.04 Q613.156 1489.63 607.346 1489.63 Q601.536 1489.63 598.457 1485.04 Q595.402 1480.44 595.402 1471.71 Q595.402 1462.96 598.457 1458.38 Q601.536 1453.77 607.346 1453.77 Z" fill="#000000" fill-rule="nonzero" fill-opacity="1" /><path clip-path="url(#clip660)" d="M631.986 1446.41 Q634.713 1446.99 636.236 1448.83 Q637.779 1450.68 637.779 1453.38 Q637.779 1457.54 634.92 1459.82 Q632.061 1462.09 626.795 1462.09 Q625.027 1462.09 623.146 1461.73 Q621.284 1461.4 619.291 1460.7 L619.291 1457.03 Q620.87 1457.95 622.751 1458.42 Q624.632 1458.89 626.682 1458.89 Q630.256 1458.89 632.117 1457.48 Q633.998 1456.07 633.998 1453.38 Q633.998 1450.9 632.249 1449.51 Q630.519 1448.1 627.416 1448.1 L624.143 1448.1 L624.143 1444.98 L627.566 1444.98 Q630.368 1444.98 631.854 1443.87 Q633.34 1442.74 633.34 1440.63 Q633.34 1438.47 631.798 1437.32 Q630.274 1436.16 627.416 1436.16 Q625.854 1436.16 624.068 1436.49 Q622.281 1436.83 620.137 1437.55 L620.137 1434.16 Q622.3 1433.56 624.181 1433.26 Q626.08 1432.96 627.754 1432.96 Q632.08 1432.96 634.6 1434.93 Q637.12 1436.89 637.12 1440.24 Q637.12 1442.57 635.785 1444.19 Q634.45 1445.79 631.986 1446.41 Z" fill="#000000" fill-rule="nonzero" fill-opacity="1" /><path clip-path="url(#clip660)" d="M1412.91 1485.02 L1420.55 1485.02 L1420.55 1458.66 L1412.24 1460.32 L1412.24 1456.06 L1420.51 1454.4 L1425.18 1454.4 L1425.18 1485.02 L1432.82 1485.02 L1432.82 1488.96 L1412.91 1488.96 L1412.91 1485.02 Z" fill="#000000" fill-rule="nonzero" fill-opacity="1" /><path clip-path="url(#clip660)" d="M1452.26 1457.48 Q1448.65 1457.48 1446.82 1461.04 Q1445.02 1464.58 1445.02 1471.71 Q1445.02 1478.82 1446.82 1482.38 Q1448.65 1485.92 1452.26 1485.92 Q1455.9 1485.92 1457.7 1482.38 Q1459.53 1478.82 1459.53 1471.71 Q1459.53 1464.58 1457.7 1461.04 Q1455.9 1457.48 1452.26 1457.48 M1452.26 1453.77 Q1458.07 1453.77 1461.13 1458.38 Q1464.21 1462.96 1464.21 1471.71 Q1464.21 1480.44 1461.13 1485.04 Q1458.07 1489.63 1452.26 1489.63 Q1446.45 1489.63 1443.38 1485.04 Q1440.32 1480.44 1440.32 1471.71 Q1440.32 1462.96 1443.38 1458.38 Q1446.45 1453.77 1452.26 1453.77 Z" fill="#000000" fill-rule="nonzero" fill-opacity="1" /><path clip-path="url(#clip660)" d="M1476.89 1436.78 L1467.29 1451.77 L1476.89 1451.77 L1476.89 1436.78 M1475.89 1433.47 L1480.67 1433.47 L1480.67 1451.77 L1484.67 1451.77 L1484.67 1454.93 L1480.67 1454.93 L1480.67 1461.55 L1476.89 1461.55 L1476.89 1454.93 L1464.21 1454.93 L1464.21 1451.26 L1475.89 1433.47 Z" fill="#000000" fill-rule="nonzero" fill-opacity="1" /><path clip-path="url(#clip660)" d="M2259.97 1485.02 L2267.6 1485.02 L2267.6 1458.66 L2259.29 1460.32 L2259.29 1456.06 L2267.56 1454.4 L2272.23 1454.4 L2272.23 1485.02 L2279.87 1485.02 L2279.87 1488.96 L2259.97 1488.96 L2259.97 1485.02 Z" fill="#000000" fill-rule="nonzero" fill-opacity="1" /><path clip-path="url(#clip660)" d="M2299.32 1457.48 Q2295.71 1457.48 2293.88 1461.04 Q2292.07 1464.58 2292.07 1471.71 Q2292.07 1478.82 2293.88 1482.38 Q2295.71 1485.92 2299.32 1485.92 Q2302.95 1485.92 2304.76 1482.38 Q2306.59 1478.82 2306.59 1471.71 Q2306.59 1464.58 2304.76 1461.04 Q2302.95 1457.48 2299.32 1457.48 M2299.32 1453.77 Q2305.13 1453.77 2308.18 1458.38 Q2311.26 1462.96 2311.26 1471.71 Q2311.26 1480.44 2308.18 1485.04 Q2305.13 1489.63 2299.32 1489.63 Q2293.51 1489.63 2290.43 1485.04 Q2287.37 1480.44 2287.37 1471.71 Q2287.37 1462.96 2290.43 1458.38 Q2293.51 1453.77 2299.32 1453.77 Z" fill="#000000" fill-rule="nonzero" fill-opacity="1" /><path clip-path="url(#clip660)" d="M2312.45 1433.47 L2327.36 1433.47 L2327.36 1436.66 L2315.93 1436.66 L2315.93 1443.55 Q2316.75 1443.27 2317.58 1443.13 Q2318.41 1442.98 2319.24 1442.98 Q2323.94 1442.98 2326.68 1445.56 Q2329.43 1448.14 2329.43 1452.54 Q2329.43 1457.07 2326.61 1459.59 Q2323.79 1462.09 2318.65 1462.09 Q2316.89 1462.09 2315.04 1461.79 Q2313.22 1461.49 2311.26 1460.89 L2311.26 1457.07 Q2312.95 1457.99 2314.76 1458.44 Q2316.57 1458.89 2318.58 1458.89 Q2321.83 1458.89 2323.73 1457.18 Q2325.63 1455.47 2325.63 1452.54 Q2325.63 1449.6 2323.73 1447.89 Q2321.83 1446.18 2318.58 1446.18 Q2317.05 1446.18 2315.53 1446.52 Q2314.03 1446.86 2312.45 1447.57 L2312.45 1433.47 Z" fill="#000000" fill-rule="nonzero" fill-opacity="1" /><path clip-path="url(#clip660)" d="M1303.15 1526.67 L1311.81 1526.67 L1332.88 1566.42 L1332.88 1526.67 L1339.12 1526.67 L1339.12 1574.19 L1330.46 1574.19 L1309.39 1534.43 L1309.39 1574.19 L1303.15 1574.19 L1303.15 1526.67 Z" fill="#000000" fill-rule="nonzero" fill-opacity="1" /><polyline clip-path="url(#clip660)" style="stroke:#000000; stroke-linecap:round; stroke-linejoin:round; stroke-width:4; stroke-opacity:1; fill:none" points="289.514,1410.9 289.514,47.2441 "/>
<polyline clip-path="url(#clip660)" style="stroke:#000000; stroke-linecap:round; stroke-linejoin:round; stroke-width:4; stroke-opacity:1; fill:none" points="289.514,1156.93 308.412,1156.93 "/>
<polyline clip-path="url(#clip660)" style="stroke:#000000; stroke-linecap:round; stroke-linejoin:round; stroke-width:4; stroke-opacity:1; fill:none" points="289.514,820.184 308.412,820.184 "/>
<polyline clip-path="url(#clip660)" style="stroke:#000000; stroke-linecap:round; stroke-linejoin:round; stroke-width:4; stroke-opacity:1; fill:none" points="289.514,483.442 308.412,483.442 "/>
<polyline clip-path="url(#clip660)" style="stroke:#000000; stroke-linecap:round; stroke-linejoin:round; stroke-width:4; stroke-opacity:1; fill:none" points="289.514,146.699 308.412,146.699 "/>
<path clip-path="url(#clip660)" d="M114.931 1176.72 L122.57 1176.72 L122.57 1150.35 L114.26 1152.02 L114.26 1147.76 L122.524 1146.09 L127.2 1146.09 L127.2 1176.72 L134.839 1176.72 L134.839 1180.65 L114.931 1180.65 L114.931 1176.72 Z" fill="#000000" fill-rule="nonzero" fill-opacity="1" /><path clip-path="url(#clip660)" d="M154.283 1149.17 Q150.672 1149.17 148.843 1152.74 Q147.038 1156.28 147.038 1163.41 Q147.038 1170.52 148.843 1174.08 Q150.672 1177.62 154.283 1177.62 Q157.917 1177.62 159.723 1174.08 Q161.552 1170.52 161.552 1163.41 Q161.552 1156.28 159.723 1152.74 Q157.917 1149.17 154.283 1149.17 M154.283 1145.47 Q160.093 1145.47 163.149 1150.08 Q166.227 1154.66 166.227 1163.41 Q166.227 1172.14 163.149 1176.74 Q160.093 1181.33 154.283 1181.33 Q148.473 1181.33 145.394 1176.74 Q142.339 1172.14 142.339 1163.41 Q142.339 1154.66 145.394 1150.08 Q148.473 1145.47 154.283 1145.47 Z" fill="#000000" fill-rule="nonzero" fill-opacity="1" /><path clip-path="url(#clip660)" d="M166.227 1139.57 L190.339 1139.57 L190.339 1142.77 L166.227 1142.77 L166.227 1139.57 Z" fill="#000000" fill-rule="nonzero" fill-opacity="1" /><path clip-path="url(#clip660)" d="M201.812 1150.05 L215.071 1150.05 L215.071 1153.24 L197.241 1153.24 L197.241 1150.05 Q199.404 1147.81 203.128 1144.05 Q206.871 1140.27 207.83 1139.18 Q209.655 1137.13 210.369 1135.72 Q211.103 1134.29 211.103 1132.91 Q211.103 1130.68 209.523 1129.26 Q207.962 1127.85 205.442 1127.85 Q203.655 1127.85 201.661 1128.47 Q199.686 1129.1 197.43 1130.36 L197.43 1126.52 Q199.724 1125.6 201.718 1125.13 Q203.711 1124.66 205.366 1124.66 Q209.73 1124.66 212.325 1126.84 Q214.921 1129.02 214.921 1132.67 Q214.921 1134.4 214.263 1135.96 Q213.623 1137.5 211.912 1139.61 Q211.441 1140.15 208.921 1142.77 Q206.401 1145.36 201.812 1150.05 Z" fill="#000000" fill-rule="nonzero" fill-opacity="1" /><path clip-path="url(#clip660)" d="M223.046 1148.47 L227.014 1148.47 L227.014 1153.24 L223.046 1153.24 L223.046 1148.47 Z" fill="#000000" fill-rule="nonzero" fill-opacity="1" /><path clip-path="url(#clip660)" d="M245.728 1128.47 L236.136 1143.46 L245.728 1143.46 L245.728 1128.47 M244.731 1125.16 L249.508 1125.16 L249.508 1143.46 L253.514 1143.46 L253.514 1146.62 L249.508 1146.62 L249.508 1153.24 L245.728 1153.24 L245.728 1146.62 L233.051 1146.62 L233.051 1142.96 L244.731 1125.16 Z" fill="#000000" fill-rule="nonzero" fill-opacity="1" /><path clip-path="url(#clip660)" d="M116.323 839.977 L123.962 839.977 L123.962 813.611 L115.652 815.278 L115.652 811.019 L123.916 809.352 L128.592 809.352 L128.592 839.977 L136.231 839.977 L136.231 843.912 L116.323 843.912 L116.323 839.977 Z" fill="#000000" fill-rule="nonzero" fill-opacity="1" /><path clip-path="url(#clip660)" d="M155.675 812.431 Q152.064 812.431 150.235 815.996 Q148.43 819.537 148.43 826.667 Q148.43 833.773 150.235 837.338 Q152.064 840.88 155.675 840.88 Q159.309 840.88 161.115 837.338 Q162.943 833.773 162.943 826.667 Q162.943 819.537 161.115 815.996 Q159.309 812.431 155.675 812.431 M155.675 808.727 Q161.485 808.727 164.541 813.334 Q167.619 817.917 167.619 826.667 Q167.619 835.394 164.541 840 Q161.485 844.583 155.675 844.583 Q149.865 844.583 146.786 840 Q143.73 835.394 143.73 826.667 Q143.73 817.917 146.786 813.334 Q149.865 808.727 155.675 808.727 Z" fill="#000000" fill-rule="nonzero" fill-opacity="1" /><path clip-path="url(#clip660)" d="M167.619 802.828 L191.731 802.828 L191.731 806.026 L167.619 806.026 L167.619 802.828 Z" fill="#000000" fill-rule="nonzero" fill-opacity="1" /><path clip-path="url(#clip660)" d="M203.204 813.304 L216.463 813.304 L216.463 816.502 L198.633 816.502 L198.633 813.304 Q200.796 811.066 204.52 807.305 Q208.263 803.524 209.222 802.433 Q211.046 800.383 211.761 798.973 Q212.495 797.543 212.495 796.17 Q212.495 793.932 210.915 792.522 Q209.354 791.111 206.833 791.111 Q205.047 791.111 203.053 791.732 Q201.078 792.352 198.821 793.613 L198.821 789.776 Q201.116 788.854 203.11 788.384 Q205.103 787.914 206.758 787.914 Q211.122 787.914 213.717 790.096 Q216.313 792.277 216.313 795.926 Q216.313 797.656 215.654 799.217 Q215.015 800.76 213.303 802.866 Q212.833 803.411 210.313 806.026 Q207.793 808.621 203.204 813.304 Z" fill="#000000" fill-rule="nonzero" fill-opacity="1" /><path clip-path="url(#clip660)" d="M224.438 811.724 L228.406 811.724 L228.406 816.502 L224.438 816.502 L224.438 811.724 Z" fill="#000000" fill-rule="nonzero" fill-opacity="1" /><path clip-path="url(#clip660)" d="M237.34 813.304 L243.546 813.304 L243.546 791.882 L236.794 793.236 L236.794 789.776 L243.509 788.422 L247.308 788.422 L247.308 813.304 L253.514 813.304 L253.514 816.502 L237.34 816.502 L237.34 813.304 Z" fill="#000000" fill-rule="nonzero" fill-opacity="1" /><path clip-path="url(#clip660)" d="M115.402 503.234 L123.04 503.234 L123.04 476.868 L114.73 478.535 L114.73 474.276 L122.994 472.609 L127.67 472.609 L127.67 503.234 L135.309 503.234 L135.309 507.169 L115.402 507.169 L115.402 503.234 Z" fill="#000000" fill-rule="nonzero" fill-opacity="1" /><path clip-path="url(#clip660)" d="M154.753 475.688 Q151.142 475.688 149.313 479.253 Q147.508 482.794 147.508 489.924 Q147.508 497.03 149.313 500.595 Q151.142 504.137 154.753 504.137 Q158.388 504.137 160.193 500.595 Q162.022 497.03 162.022 489.924 Q162.022 482.794 160.193 479.253 Q158.388 475.688 154.753 475.688 M154.753 471.984 Q160.563 471.984 163.619 476.591 Q166.698 481.174 166.698 489.924 Q166.698 498.651 163.619 503.257 Q160.563 507.84 154.753 507.84 Q148.943 507.84 145.864 503.257 Q142.809 498.651 142.809 489.924 Q142.809 481.174 145.864 476.591 Q148.943 471.984 154.753 471.984 Z" fill="#000000" fill-rule="nonzero" fill-opacity="1" /><path clip-path="url(#clip660)" d="M166.698 466.085 L190.809 466.085 L190.809 469.283 L166.698 469.283 L166.698 466.085 Z" fill="#000000" fill-rule="nonzero" fill-opacity="1" /><path clip-path="url(#clip660)" d="M199.668 476.561 L205.874 476.561 L205.874 455.139 L199.122 456.494 L199.122 453.033 L205.837 451.679 L209.636 451.679 L209.636 476.561 L215.842 476.561 L215.842 479.759 L199.668 479.759 L199.668 476.561 Z" fill="#000000" fill-rule="nonzero" fill-opacity="1" /><path clip-path="url(#clip660)" d="M223.516 474.982 L227.484 474.982 L227.484 479.759 L223.516 479.759 L223.516 474.982 Z" fill="#000000" fill-rule="nonzero" fill-opacity="1" /><path clip-path="url(#clip660)" d="M243.885 466.424 Q241.176 466.424 239.615 467.872 Q238.073 469.32 238.073 471.859 Q238.073 474.399 239.615 475.847 Q241.176 477.295 243.885 477.295 Q246.593 477.295 248.154 475.847 Q249.715 474.38 249.715 471.859 Q249.715 469.32 248.154 467.872 Q246.612 466.424 243.885 466.424 M240.086 464.807 Q237.641 464.205 236.268 462.531 Q234.913 460.857 234.913 458.45 Q234.913 455.083 237.302 453.127 Q239.709 451.171 243.885 451.171 Q248.079 451.171 250.467 453.127 Q252.856 455.083 252.856 458.45 Q252.856 460.857 251.483 462.531 Q250.129 464.205 247.703 464.807 Q250.449 465.446 251.972 467.308 Q253.514 469.17 253.514 471.859 Q253.514 475.941 251.013 478.122 Q248.53 480.304 243.885 480.304 Q239.239 480.304 236.738 478.122 Q234.255 475.941 234.255 471.859 Q234.255 469.17 235.797 467.308 Q237.34 465.446 240.086 464.807 M238.694 458.807 Q238.694 460.989 240.048 462.211 Q241.421 463.434 243.885 463.434 Q246.33 463.434 247.703 462.211 Q249.095 460.989 249.095 458.807 Q249.095 456.625 247.703 455.403 Q246.33 454.18 243.885 454.18 Q241.421 454.18 240.048 455.403 Q238.694 456.625 238.694 458.807 Z" fill="#000000" fill-rule="nonzero" fill-opacity="1" /><path clip-path="url(#clip660)" d="M116.135 166.491 L123.774 166.491 L123.774 140.125 L115.464 141.792 L115.464 137.533 L123.728 135.866 L128.404 135.866 L128.404 166.491 L136.042 166.491 L136.042 170.426 L116.135 170.426 L116.135 166.491 Z" fill="#000000" fill-rule="nonzero" fill-opacity="1" /><path clip-path="url(#clip660)" d="M155.487 138.945 Q151.876 138.945 150.047 142.51 Q148.241 146.051 148.241 153.181 Q148.241 160.287 150.047 163.852 Q151.876 167.394 155.487 167.394 Q159.121 167.394 160.927 163.852 Q162.755 160.287 162.755 153.181 Q162.755 146.051 160.927 142.51 Q159.121 138.945 155.487 138.945 M155.487 135.241 Q161.297 135.241 164.352 139.848 Q167.431 144.431 167.431 153.181 Q167.431 161.908 164.352 166.514 Q161.297 171.098 155.487 171.098 Q149.677 171.098 146.598 166.514 Q143.542 161.908 143.542 153.181 Q143.542 144.431 146.598 139.848 Q149.677 135.241 155.487 135.241 Z" fill="#000000" fill-rule="nonzero" fill-opacity="1" /><path clip-path="url(#clip660)" d="M167.431 129.343 L191.543 129.343 L191.543 132.54 L167.431 132.54 L167.431 129.343 Z" fill="#000000" fill-rule="nonzero" fill-opacity="1" /><path clip-path="url(#clip660)" d="M200.401 139.819 L206.608 139.819 L206.608 118.396 L199.856 119.751 L199.856 116.29 L206.57 114.936 L210.369 114.936 L210.369 139.819 L216.576 139.819 L216.576 143.016 L200.401 143.016 L200.401 139.819 Z" fill="#000000" fill-rule="nonzero" fill-opacity="1" /><path clip-path="url(#clip660)" d="M224.249 138.239 L228.218 138.239 L228.218 143.016 L224.249 143.016 L224.249 138.239 Z" fill="#000000" fill-rule="nonzero" fill-opacity="1" /><path clip-path="url(#clip660)" d="M236.531 114.936 L251.445 114.936 L251.445 118.133 L240.01 118.133 L240.01 125.017 Q240.838 124.735 241.665 124.603 Q242.493 124.453 243.321 124.453 Q248.022 124.453 250.768 127.029 Q253.514 129.606 253.514 134.007 Q253.514 138.54 250.693 141.06 Q247.872 143.561 242.737 143.561 Q240.97 143.561 239.126 143.26 Q237.302 142.959 235.346 142.358 L235.346 138.54 Q237.039 139.461 238.844 139.913 Q240.65 140.364 242.662 140.364 Q245.916 140.364 247.816 138.652 Q249.715 136.941 249.715 134.007 Q249.715 131.073 247.816 129.361 Q245.916 127.65 242.662 127.65 Q241.139 127.65 239.615 127.988 Q238.111 128.327 236.531 129.042 L236.531 114.936 Z" fill="#000000" fill-rule="nonzero" fill-opacity="1" /><path clip-path="url(#clip660)" d="M16.4842 822.917 L16.4842 792.871 L21.895 792.871 L21.895 816.487 L35.9632 816.487 L35.9632 793.857 L41.3741 793.857 L41.3741 816.487 L58.5933 816.487 L58.5933 792.298 L64.0042 792.298 L64.0042 822.917 L16.4842 822.917 Z" fill="#000000" fill-rule="nonzero" fill-opacity="1" /><path clip-path="url(#clip660)" d="M33.8307 761.329 Q33.2578 762.315 33.0032 763.493 Q32.7167 764.639 32.7167 766.039 Q32.7167 771.004 35.9632 773.678 Q39.1779 776.32 45.2253 776.32 L64.0042 776.32 L64.0042 782.208 L28.3562 782.208 L28.3562 776.32 L33.8944 776.32 Q30.6479 774.474 29.0883 771.514 Q27.4968 768.554 27.4968 764.32 Q27.4968 763.716 27.5923 762.984 Q27.656 762.252 27.8151 761.36 L33.8307 761.329 Z" fill="#000000" fill-rule="nonzero" fill-opacity="1" /><path clip-path="url(#clip660)" d="M33.8307 735.675 Q33.2578 736.661 33.0032 737.839 Q32.7167 738.985 32.7167 740.385 Q32.7167 745.351 35.9632 748.024 Q39.1779 750.666 45.2253 750.666 L64.0042 750.666 L64.0042 756.554 L28.3562 756.554 L28.3562 750.666 L33.8944 750.666 Q30.6479 748.82 29.0883 745.86 Q27.4968 742.9 27.4968 738.667 Q27.4968 738.062 27.5923 737.33 Q27.656 736.598 27.8151 735.707 L33.8307 735.675 Z" fill="#000000" fill-rule="nonzero" fill-opacity="1" /><path clip-path="url(#clip660)" d="M32.4621 717.151 Q32.4621 721.861 36.1542 724.598 Q39.8145 727.336 46.212 727.336 Q52.6095 727.336 56.3017 724.63 Q59.9619 721.893 59.9619 717.151 Q59.9619 712.472 56.2698 709.735 Q52.5777 706.997 46.212 706.997 Q39.8781 706.997 36.186 709.735 Q32.4621 712.472 32.4621 717.151 M27.4968 717.151 Q27.4968 709.512 32.4621 705.151 Q37.4273 700.791 46.212 700.791 Q54.9649 700.791 59.9619 705.151 Q64.9272 709.512 64.9272 717.151 Q64.9272 724.821 59.9619 729.182 Q54.9649 733.51 46.212 733.51 Q37.4273 733.51 32.4621 729.182 Q27.4968 724.821 27.4968 717.151 Z" fill="#000000" fill-rule="nonzero" fill-opacity="1" /><path clip-path="url(#clip660)" d="M33.8307 670.426 Q33.2578 671.413 33.0032 672.591 Q32.7167 673.736 32.7167 675.137 Q32.7167 680.102 35.9632 682.776 Q39.1779 685.418 45.2253 685.418 L64.0042 685.418 L64.0042 691.306 L28.3562 691.306 L28.3562 685.418 L33.8944 685.418 Q30.6479 683.571 29.0883 680.611 Q27.4968 677.651 27.4968 673.418 Q27.4968 672.813 27.5923 672.081 Q27.656 671.349 27.8151 670.458 L33.8307 670.426 Z" fill="#000000" fill-rule="nonzero" fill-opacity="1" /><path clip-path="url(#clip660)" d="M44.7161 635.224 L47.5806 635.224 L47.5806 662.151 Q53.6281 661.769 56.8109 658.522 Q59.9619 655.244 59.9619 649.419 Q59.9619 646.046 59.1344 642.895 Q58.3069 639.712 56.6518 636.593 L62.1899 636.593 Q63.5267 639.744 64.227 643.054 Q64.9272 646.364 64.9272 649.77 Q64.9272 658.3 59.9619 663.297 Q54.9967 668.262 46.5303 668.262 Q37.7774 668.262 32.6531 663.551 Q27.4968 658.809 27.4968 650.788 Q27.4968 643.595 32.1438 639.425 Q36.7589 635.224 44.7161 635.224 M42.9973 641.08 Q38.1912 641.144 35.3266 643.786 Q32.4621 646.396 32.4621 650.724 Q32.4621 655.626 35.2312 658.586 Q38.0002 661.514 43.0292 661.96 L42.9973 641.08 Z" fill="#000000" fill-rule="nonzero" fill-opacity="1" /><circle clip-path="url(#clip662)" cx="347.908" cy="85.838" r="14.4" fill="#009af9" fill-rule="evenodd" fill-opacity="1" stroke="#000000" stroke-opacity="1" stroke-width="3.2"/>
<circle clip-path="url(#clip662)" cx="602.551" cy="255.781" r="14.4" fill="#009af9" fill-rule="evenodd" fill-opacity="1" stroke="#000000" stroke-opacity="1" stroke-width="3.2"/>
<circle clip-path="url(#clip662)" cx="1193.81" cy="657.274" r="14.4" fill="#009af9" fill-rule="evenodd" fill-opacity="1" stroke="#000000" stroke-opacity="1" stroke-width="3.2"/>
<circle clip-path="url(#clip662)" cx="1448.46" cy="816.845" r="14.4" fill="#009af9" fill-rule="evenodd" fill-opacity="1" stroke="#000000" stroke-opacity="1" stroke-width="3.2"/>
<circle clip-path="url(#clip662)" cx="2039.72" cy="1217.22" r="14.4" fill="#009af9" fill-rule="evenodd" fill-opacity="1" stroke="#000000" stroke-opacity="1" stroke-width="3.2"/>
<circle clip-path="url(#clip662)" cx="2294.36" cy="1372.3" r="14.4" fill="#009af9" fill-rule="evenodd" fill-opacity="1" stroke="#000000" stroke-opacity="1" stroke-width="3.2"/>
<path clip-path="url(#clip660)" d="M2025.23 196.379 L2283.98 196.379 L2283.98 92.6992 L2025.23 92.6992  Z" fill="#ffffff" fill-rule="evenodd" fill-opacity="1"/>
<polyline clip-path="url(#clip660)" style="stroke:#000000; stroke-linecap:round; stroke-linejoin:round; stroke-width:4; stroke-opacity:1; fill:none" points="2025.23,196.379 2283.98,196.379 2283.98,92.6992 2025.23,92.6992 2025.23,196.379 "/>
<circle clip-path="url(#clip660)" cx="2116.93" cy="144.539" r="20.48" fill="#009af9" fill-rule="evenodd" fill-opacity="1" stroke="#000000" stroke-opacity="1" stroke-width="4.55111"/>
<path clip-path="url(#clip660)" d="M2222.47 164.227 Q2220.66 168.856 2218.95 170.268 Q2217.24 171.68 2214.37 171.68 L2210.96 171.68 L2210.96 168.115 L2213.46 168.115 Q2215.22 168.115 2216.2 167.282 Q2217.17 166.449 2218.35 163.347 L2219.11 161.403 L2208.63 135.893 L2213.14 135.893 L2221.24 156.171 L2229.34 135.893 L2233.86 135.893 L2222.47 164.227 Z" fill="#000000" fill-rule="nonzero" fill-opacity="1" /><path clip-path="url(#clip660)" d="M2241.15 157.884 L2248.79 157.884 L2248.79 131.518 L2240.48 133.185 L2240.48 128.926 L2248.74 127.259 L2253.42 127.259 L2253.42 157.884 L2261.06 157.884 L2261.06 161.819 L2241.15 161.819 L2241.15 157.884 Z" fill="#000000" fill-rule="nonzero" fill-opacity="1" /></svg>
