<?xml version="1.0" encoding="utf-8"?>
<svg xmlns="http://www.w3.org/2000/svg" xmlns:xlink="http://www.w3.org/1999/xlink" width="600" height="400" viewBox="0 0 2400 1600">
<defs>
  <clipPath id="clip190">
    <rect x="0" y="0" width="2400" height="1600"/>
  </clipPath>
</defs>
<path clip-path="url(#clip190)" d="
M0 1600 L2400 1600 L2400 0 L0 0  Z
  " fill="#ffffff" fill-rule="evenodd" fill-opacity="1"/>
<defs>
  <clipPath id="clip191">
    <rect x="480" y="0" width="1681" height="1600"/>
  </clipPath>
</defs>
<path clip-path="url(#clip190)" d="
M172.015 1486.45 L2352.76 1486.45 L2352.76 47.2441 L172.015 47.2441  Z
  " fill="#ffffff" fill-rule="evenodd" fill-opacity="1"/>
<defs>
  <clipPath id="clip192">
    <rect x="172" y="47" width="2182" height="1440"/>
  </clipPath>
</defs>
<polyline clip-path="url(#clip192)" style="stroke:#000000; stroke-linecap:round; stroke-linejoin:round; stroke-width:2; stroke-opacity:0.1; fill:none" points="
  465.25,1486.45 465.25,47.2441 
  "/>
<polyline clip-path="url(#clip192)" style="stroke:#000000; stroke-linecap:round; stroke-linejoin:round; stroke-width:2; stroke-opacity:0.1; fill:none" points="
  898.476,1486.45 898.476,47.2441 
  "/>
<polyline clip-path="url(#clip192)" style="stroke:#000000; stroke-linecap:round; stroke-linejoin:round; stroke-width:2; stroke-opacity:0.1; fill:none" points="
  1331.7,1486.45 1331.7,47.2441 
  "/>
<polyline clip-path="url(#clip192)" style="stroke:#000000; stroke-linecap:round; stroke-linejoin:round; stroke-width:2; stroke-opacity:0.1; fill:none" points="
  1764.93,1486.45 1764.93,47.2441 
  "/>
<polyline clip-path="url(#clip192)" style="stroke:#000000; stroke-linecap:round; stroke-linejoin:round; stroke-width:2; stroke-opacity:0.1; fill:none" points="
  2198.15,1486.45 2198.15,47.2441 
  "/>
<polyline clip-path="url(#clip190)" style="stroke:#000000; stroke-linecap:round; stroke-linejoin:round; stroke-width:4; stroke-opacity:1; fill:none" points="
  172.015,1486.45 2352.76,1486.45 
  "/>
<polyline clip-path="url(#clip190)" style="stroke:#000000; stroke-linecap:round; stroke-linejoin:round; stroke-width:4; stroke-opacity:1; fill:none" points="
  465.25,1486.45 465.25,1467.55 
  "/>
<polyline clip-path="url(#clip190)" style="stroke:#000000; stroke-linecap:round; stroke-linejoin:round; stroke-width:4; stroke-opacity:1; fill:none" points="
  898.476,1486.45 898.476,1467.55 
  "/>
<polyline clip-path="url(#clip190)" style="stroke:#000000; stroke-linecap:round; stroke-linejoin:round; stroke-width:4; stroke-opacity:1; fill:none" points="
  1331.7,1486.45 1331.7,1467.55 
  "/>
<polyline clip-path="url(#clip190)" style="stroke:#000000; stroke-linecap:round; stroke-linejoin:round; stroke-width:4; stroke-opacity:1; fill:none" points="
  1764.93,1486.45 1764.93,1467.55 
  "/>
<polyline clip-path="url(#clip190)" style="stroke:#000000; stroke-linecap:round; stroke-linejoin:round; stroke-width:4; stroke-opacity:1; fill:none" points="
  2198.15,1486.45 2198.15,1467.55 
  "/>
<path clip-path="url(#clip190)" d="M417.322 1544.91 L424.961 1544.91 L424.961 1518.55 L416.651 1520.21 L416.651 1515.95 L424.914 1514.29 L429.59 1514.29 L429.59 1544.91 L437.229 1544.91 L437.229 1548.85 L417.322 1548.85 L417.322 1544.91 Z" fill="#000000" fill-rule="evenodd" fill-opacity="1" /><path clip-path="url(#clip190)" d="M446.674 1542.97 L451.558 1542.97 L451.558 1548.85 L446.674 1548.85 L446.674 1542.97 Z" fill="#000000" fill-rule="evenodd" fill-opacity="1" /><path clip-path="url(#clip190)" d="M461.789 1514.29 L480.146 1514.29 L480.146 1518.22 L466.072 1518.22 L466.072 1526.7 Q467.09 1526.35 468.109 1526.19 Q469.127 1526 470.146 1526 Q475.933 1526 479.312 1529.17 Q482.692 1532.34 482.692 1537.76 Q482.692 1543.34 479.22 1546.44 Q475.747 1549.52 469.428 1549.52 Q467.252 1549.52 464.984 1549.15 Q462.738 1548.78 460.331 1548.04 L460.331 1543.34 Q462.414 1544.47 464.636 1545.03 Q466.859 1545.58 469.335 1545.58 Q473.34 1545.58 475.678 1543.48 Q478.016 1541.37 478.016 1537.76 Q478.016 1534.15 475.678 1532.04 Q473.34 1529.94 469.335 1529.94 Q467.46 1529.94 465.585 1530.35 Q463.734 1530.77 461.789 1531.65 L461.789 1514.29 Z" fill="#000000" fill-rule="evenodd" fill-opacity="1" /><path clip-path="url(#clip190)" d="M501.905 1517.37 Q498.294 1517.37 496.465 1520.93 Q494.659 1524.47 494.659 1531.6 Q494.659 1538.71 496.465 1542.27 Q498.294 1545.82 501.905 1545.82 Q505.539 1545.82 507.344 1542.27 Q509.173 1538.71 509.173 1531.6 Q509.173 1524.47 507.344 1520.93 Q505.539 1517.37 501.905 1517.37 M501.905 1513.66 Q507.715 1513.66 510.77 1518.27 Q513.849 1522.85 513.849 1531.6 Q513.849 1540.33 510.77 1544.94 Q507.715 1549.52 501.905 1549.52 Q496.095 1549.52 493.016 1544.94 Q489.96 1540.33 489.96 1531.6 Q489.96 1522.85 493.016 1518.27 Q496.095 1513.66 501.905 1513.66 Z" fill="#000000" fill-rule="evenodd" fill-opacity="1" /><path clip-path="url(#clip190)" d="M851.045 1544.91 L858.684 1544.91 L858.684 1518.55 L850.374 1520.21 L850.374 1515.95 L858.638 1514.29 L863.314 1514.29 L863.314 1544.91 L870.953 1544.91 L870.953 1548.85 L851.045 1548.85 L851.045 1544.91 Z" fill="#000000" fill-rule="evenodd" fill-opacity="1" /><path clip-path="url(#clip190)" d="M880.397 1542.97 L885.281 1542.97 L885.281 1548.85 L880.397 1548.85 L880.397 1542.97 Z" fill="#000000" fill-rule="evenodd" fill-opacity="1" /><path clip-path="url(#clip190)" d="M894.286 1514.29 L916.508 1514.29 L916.508 1516.28 L903.962 1548.85 L899.077 1548.85 L910.883 1518.22 L894.286 1518.22 L894.286 1514.29 Z" fill="#000000" fill-rule="evenodd" fill-opacity="1" /><path clip-path="url(#clip190)" d="M925.675 1514.29 L944.031 1514.29 L944.031 1518.22 L929.957 1518.22 L929.957 1526.7 Q930.975 1526.35 931.994 1526.19 Q933.013 1526 934.031 1526 Q939.818 1526 943.198 1529.17 Q946.577 1532.34 946.577 1537.76 Q946.577 1543.34 943.105 1546.44 Q939.633 1549.52 933.313 1549.52 Q931.138 1549.52 928.869 1549.15 Q926.624 1548.78 924.216 1548.04 L924.216 1543.34 Q926.3 1544.47 928.522 1545.03 Q930.744 1545.58 933.221 1545.58 Q937.225 1545.58 939.563 1543.48 Q941.901 1541.37 941.901 1537.76 Q941.901 1534.15 939.563 1532.04 Q937.225 1529.94 933.221 1529.94 Q931.346 1529.94 929.471 1530.35 Q927.619 1530.77 925.675 1531.65 L925.675 1514.29 Z" fill="#000000" fill-rule="evenodd" fill-opacity="1" /><path clip-path="url(#clip190)" d="M1287.86 1544.91 L1304.18 1544.91 L1304.18 1548.85 L1282.23 1548.85 L1282.23 1544.91 Q1284.9 1542.16 1289.48 1537.53 Q1294.09 1532.88 1295.27 1531.53 Q1297.51 1529.01 1298.39 1527.27 Q1299.29 1525.51 1299.29 1523.82 Q1299.29 1521.07 1297.35 1519.33 Q1295.43 1517.6 1292.33 1517.6 Q1290.13 1517.6 1287.67 1518.36 Q1285.24 1519.13 1282.47 1520.68 L1282.47 1515.95 Q1285.29 1514.82 1287.74 1514.24 Q1290.2 1513.66 1292.23 1513.66 Q1297.6 1513.66 1300.8 1516.35 Q1303.99 1519.03 1303.99 1523.52 Q1303.99 1525.65 1303.18 1527.57 Q1302.4 1529.47 1300.29 1532.07 Q1299.71 1532.74 1296.61 1535.95 Q1293.51 1539.15 1287.86 1544.91 Z" fill="#000000" fill-rule="evenodd" fill-opacity="1" /><path clip-path="url(#clip190)" d="M1313.99 1542.97 L1318.88 1542.97 L1318.88 1548.85 L1313.99 1548.85 L1313.99 1542.97 Z" fill="#000000" fill-rule="evenodd" fill-opacity="1" /><path clip-path="url(#clip190)" d="M1339.06 1517.37 Q1335.45 1517.37 1333.62 1520.93 Q1331.82 1524.47 1331.82 1531.6 Q1331.82 1538.71 1333.62 1542.27 Q1335.45 1545.82 1339.06 1545.82 Q1342.7 1545.82 1344.5 1542.27 Q1346.33 1538.71 1346.33 1531.6 Q1346.33 1524.47 1344.5 1520.93 Q1342.7 1517.37 1339.06 1517.37 M1339.06 1513.66 Q1344.87 1513.66 1347.93 1518.27 Q1351.01 1522.85 1351.01 1531.6 Q1351.01 1540.33 1347.93 1544.94 Q1344.87 1549.52 1339.06 1549.52 Q1333.25 1549.52 1330.17 1544.94 Q1327.12 1540.33 1327.12 1531.6 Q1327.12 1522.85 1330.17 1518.27 Q1333.25 1513.66 1339.06 1513.66 Z" fill="#000000" fill-rule="evenodd" fill-opacity="1" /><path clip-path="url(#clip190)" d="M1369.22 1517.37 Q1365.61 1517.37 1363.78 1520.93 Q1361.98 1524.47 1361.98 1531.6 Q1361.98 1538.71 1363.78 1542.27 Q1365.61 1545.82 1369.22 1545.82 Q1372.86 1545.82 1374.66 1542.27 Q1376.49 1538.71 1376.49 1531.6 Q1376.49 1524.47 1374.66 1520.93 Q1372.86 1517.37 1369.22 1517.37 M1369.22 1513.66 Q1375.03 1513.66 1378.09 1518.27 Q1381.17 1522.85 1381.17 1531.6 Q1381.17 1540.33 1378.09 1544.94 Q1375.03 1549.52 1369.22 1549.52 Q1363.41 1549.52 1360.34 1544.94 Q1357.28 1540.33 1357.28 1531.6 Q1357.28 1522.85 1360.34 1518.27 Q1363.41 1513.66 1369.22 1513.66 Z" fill="#000000" fill-rule="evenodd" fill-opacity="1" /><path clip-path="url(#clip190)" d="M1721.58 1544.91 L1737.9 1544.91 L1737.9 1548.85 L1715.96 1548.85 L1715.96 1544.91 Q1718.62 1542.16 1723.2 1537.53 Q1727.81 1532.88 1728.99 1531.53 Q1731.24 1529.01 1732.12 1527.27 Q1733.02 1525.51 1733.02 1523.82 Q1733.02 1521.07 1731.07 1519.33 Q1729.15 1517.6 1726.05 1517.6 Q1723.85 1517.6 1721.4 1518.36 Q1718.97 1519.13 1716.19 1520.68 L1716.19 1515.95 Q1719.01 1514.82 1721.47 1514.24 Q1723.92 1513.66 1725.96 1513.66 Q1731.33 1513.66 1734.52 1516.35 Q1737.72 1519.03 1737.72 1523.52 Q1737.72 1525.65 1736.91 1527.57 Q1736.12 1529.47 1734.01 1532.07 Q1733.43 1532.74 1730.33 1535.95 Q1727.23 1539.15 1721.58 1544.91 Z" fill="#000000" fill-rule="evenodd" fill-opacity="1" /><path clip-path="url(#clip190)" d="M1747.72 1542.97 L1752.6 1542.97 L1752.6 1548.85 L1747.72 1548.85 L1747.72 1542.97 Z" fill="#000000" fill-rule="evenodd" fill-opacity="1" /><path clip-path="url(#clip190)" d="M1766.81 1544.91 L1783.13 1544.91 L1783.13 1548.85 L1761.19 1548.85 L1761.19 1544.91 Q1763.85 1542.16 1768.43 1537.53 Q1773.04 1532.88 1774.22 1531.53 Q1776.47 1529.01 1777.35 1527.27 Q1778.25 1525.51 1778.25 1523.82 Q1778.25 1521.07 1776.3 1519.33 Q1774.38 1517.6 1771.28 1517.6 Q1769.08 1517.6 1766.63 1518.36 Q1764.2 1519.13 1761.42 1520.68 L1761.42 1515.95 Q1764.24 1514.82 1766.7 1514.24 Q1769.15 1513.66 1771.19 1513.66 Q1776.56 1513.66 1779.75 1516.35 Q1782.95 1519.03 1782.95 1523.52 Q1782.95 1525.65 1782.14 1527.57 Q1781.35 1529.47 1779.24 1532.07 Q1778.67 1532.74 1775.56 1535.95 Q1772.46 1539.15 1766.81 1544.91 Z" fill="#000000" fill-rule="evenodd" fill-opacity="1" /><path clip-path="url(#clip190)" d="M1792.99 1514.29 L1811.35 1514.29 L1811.35 1518.22 L1797.28 1518.22 L1797.28 1526.7 Q1798.3 1526.35 1799.31 1526.19 Q1800.33 1526 1801.35 1526 Q1807.14 1526 1810.52 1529.17 Q1813.9 1532.34 1813.9 1537.76 Q1813.9 1543.34 1810.42 1546.44 Q1806.95 1549.52 1800.63 1549.52 Q1798.46 1549.52 1796.19 1549.15 Q1793.94 1548.78 1791.54 1548.04 L1791.54 1543.34 Q1793.62 1544.47 1795.84 1545.03 Q1798.06 1545.58 1800.54 1545.58 Q1804.55 1545.58 1806.88 1543.48 Q1809.22 1541.37 1809.22 1537.76 Q1809.22 1534.15 1806.88 1532.04 Q1804.55 1529.94 1800.54 1529.94 Q1798.67 1529.94 1796.79 1530.35 Q1794.94 1530.77 1792.99 1531.65 L1792.99 1514.29 Z" fill="#000000" fill-rule="evenodd" fill-opacity="1" /><path clip-path="url(#clip190)" d="M2154.31 1544.91 L2170.63 1544.91 L2170.63 1548.85 L2148.69 1548.85 L2148.69 1544.91 Q2151.35 1542.16 2155.93 1537.53 Q2160.54 1532.88 2161.72 1531.53 Q2163.96 1529.01 2164.84 1527.27 Q2165.75 1525.51 2165.75 1523.82 Q2165.75 1521.07 2163.8 1519.33 Q2161.88 1517.6 2158.78 1517.6 Q2156.58 1517.6 2154.13 1518.36 Q2151.7 1519.13 2148.92 1520.68 L2148.92 1515.95 Q2151.74 1514.82 2154.2 1514.24 Q2156.65 1513.66 2158.69 1513.66 Q2164.06 1513.66 2167.25 1516.35 Q2170.45 1519.03 2170.45 1523.52 Q2170.45 1525.65 2169.63 1527.57 Q2168.85 1529.47 2166.74 1532.07 Q2166.16 1532.74 2163.06 1535.95 Q2159.96 1539.15 2154.31 1544.91 Z" fill="#000000" fill-rule="evenodd" fill-opacity="1" /><path clip-path="url(#clip190)" d="M2180.44 1542.97 L2185.33 1542.97 L2185.33 1548.85 L2180.44 1548.85 L2180.44 1542.97 Z" fill="#000000" fill-rule="evenodd" fill-opacity="1" /><path clip-path="url(#clip190)" d="M2195.56 1514.29 L2213.92 1514.29 L2213.92 1518.22 L2199.84 1518.22 L2199.84 1526.7 Q2200.86 1526.35 2201.88 1526.19 Q2202.9 1526 2203.92 1526 Q2209.7 1526 2213.08 1529.17 Q2216.46 1532.34 2216.46 1537.76 Q2216.46 1543.34 2212.99 1546.44 Q2209.52 1549.52 2203.2 1549.52 Q2201.02 1549.52 2198.76 1549.15 Q2196.51 1548.78 2194.1 1548.04 L2194.1 1543.34 Q2196.19 1544.47 2198.41 1545.03 Q2200.63 1545.58 2203.11 1545.58 Q2207.11 1545.58 2209.45 1543.48 Q2211.79 1541.37 2211.79 1537.76 Q2211.79 1534.15 2209.45 1532.04 Q2207.11 1529.94 2203.11 1529.94 Q2201.23 1529.94 2199.36 1530.35 Q2197.51 1530.77 2195.56 1531.65 L2195.56 1514.29 Z" fill="#000000" fill-rule="evenodd" fill-opacity="1" /><path clip-path="url(#clip190)" d="M2235.68 1517.37 Q2232.07 1517.37 2230.24 1520.93 Q2228.43 1524.47 2228.43 1531.6 Q2228.43 1538.71 2230.24 1542.27 Q2232.07 1545.82 2235.68 1545.82 Q2239.31 1545.82 2241.12 1542.27 Q2242.94 1538.71 2242.94 1531.6 Q2242.94 1524.47 2241.12 1520.93 Q2239.31 1517.37 2235.68 1517.37 M2235.68 1513.66 Q2241.49 1513.66 2244.54 1518.27 Q2247.62 1522.85 2247.62 1531.6 Q2247.62 1540.33 2244.54 1544.94 Q2241.49 1549.52 2235.68 1549.52 Q2229.87 1549.52 2226.79 1544.94 Q2223.73 1540.33 2223.73 1531.6 Q2223.73 1522.85 2226.79 1518.27 Q2229.87 1513.66 2235.68 1513.66 Z" fill="#000000" fill-rule="evenodd" fill-opacity="1" /><polyline clip-path="url(#clip192)" style="stroke:#000000; stroke-linecap:round; stroke-linejoin:round; stroke-width:2; stroke-opacity:0.1; fill:none" points="
  172.015,1445.72 2352.76,1445.72 
  "/>
<polyline clip-path="url(#clip192)" style="stroke:#000000; stroke-linecap:round; stroke-linejoin:round; stroke-width:2; stroke-opacity:0.1; fill:none" points="
  172.015,1114.96 2352.76,1114.96 
  "/>
<polyline clip-path="url(#clip192)" style="stroke:#000000; stroke-linecap:round; stroke-linejoin:round; stroke-width:2; stroke-opacity:0.1; fill:none" points="
  172.015,784.21 2352.76,784.21 
  "/>
<polyline clip-path="url(#clip192)" style="stroke:#000000; stroke-linecap:round; stroke-linejoin:round; stroke-width:2; stroke-opacity:0.1; fill:none" points="
  172.015,453.458 2352.76,453.458 
  "/>
<polyline clip-path="url(#clip192)" style="stroke:#000000; stroke-linecap:round; stroke-linejoin:round; stroke-width:2; stroke-opacity:0.1; fill:none" points="
  172.015,122.705 2352.76,122.705 
  "/>
<polyline clip-path="url(#clip190)" style="stroke:#000000; stroke-linecap:round; stroke-linejoin:round; stroke-width:4; stroke-opacity:1; fill:none" points="
  172.015,1486.45 172.015,47.2441 
  "/>
<polyline clip-path="url(#clip190)" style="stroke:#000000; stroke-linecap:round; stroke-linejoin:round; stroke-width:4; stroke-opacity:1; fill:none" points="
  172.015,1445.72 190.912,1445.72 
  "/>
<polyline clip-path="url(#clip190)" style="stroke:#000000; stroke-linecap:round; stroke-linejoin:round; stroke-width:4; stroke-opacity:1; fill:none" points="
  172.015,1114.96 190.912,1114.96 
  "/>
<polyline clip-path="url(#clip190)" style="stroke:#000000; stroke-linecap:round; stroke-linejoin:round; stroke-width:4; stroke-opacity:1; fill:none" points="
  172.015,784.21 190.912,784.21 
  "/>
<polyline clip-path="url(#clip190)" style="stroke:#000000; stroke-linecap:round; stroke-linejoin:round; stroke-width:4; stroke-opacity:1; fill:none" points="
  172.015,453.458 190.912,453.458 
  "/>
<polyline clip-path="url(#clip190)" style="stroke:#000000; stroke-linecap:round; stroke-linejoin:round; stroke-width:4; stroke-opacity:1; fill:none" points="
  172.015,122.705 190.912,122.705 
  "/>
<path clip-path="url(#clip190)" d="M124.07 1431.51 Q120.459 1431.51 118.631 1435.08 Q116.825 1438.62 116.825 1445.75 Q116.825 1452.86 118.631 1456.42 Q120.459 1459.96 124.07 1459.96 Q127.705 1459.96 129.51 1456.42 Q131.339 1452.86 131.339 1445.75 Q131.339 1438.62 129.51 1435.08 Q127.705 1431.51 124.07 1431.51 M124.07 1427.81 Q129.881 1427.81 132.936 1432.42 Q136.015 1437 136.015 1445.75 Q136.015 1454.48 132.936 1459.08 Q129.881 1463.67 124.07 1463.67 Q118.26 1463.67 115.182 1459.08 Q112.126 1454.48 112.126 1445.75 Q112.126 1437 115.182 1432.42 Q118.26 1427.81 124.07 1427.81 Z" fill="#000000" fill-rule="evenodd" fill-opacity="1" /><path clip-path="url(#clip190)" d="M57.7745 1128.31 L74.0939 1128.31 L74.0939 1132.24 L52.1495 1132.24 L52.1495 1128.31 Q54.8115 1125.55 59.3949 1120.92 Q64.0013 1116.27 65.1819 1114.93 Q67.4272 1112.41 68.3068 1110.67 Q69.2096 1108.91 69.2096 1107.22 Q69.2096 1104.47 67.2652 1102.73 Q65.3439 1100.99 62.2421 1100.99 Q60.043 1100.99 57.5893 1101.76 Q55.1588 1102.52 52.381 1104.07 L52.381 1099.35 Q55.2051 1098.22 57.6588 1097.64 Q60.1124 1097.06 62.1495 1097.06 Q67.5198 1097.06 70.7142 1099.74 Q73.9087 1102.43 73.9087 1106.92 Q73.9087 1109.05 73.0985 1110.97 Q72.3115 1112.87 70.205 1115.46 Q69.6263 1116.13 66.5245 1119.35 Q63.4226 1122.54 57.7745 1128.31 Z" fill="#000000" fill-rule="evenodd" fill-opacity="1" /><path clip-path="url(#clip190)" d="M93.9086 1100.76 Q90.2975 1100.76 88.4688 1104.33 Q86.6632 1107.87 86.6632 1115 Q86.6632 1122.1 88.4688 1125.67 Q90.2975 1129.21 93.9086 1129.21 Q97.5428 1129.21 99.3483 1125.67 Q101.177 1122.1 101.177 1115 Q101.177 1107.87 99.3483 1104.33 Q97.5428 1100.76 93.9086 1100.76 M93.9086 1097.06 Q99.7187 1097.06 102.774 1101.66 Q105.853 1106.25 105.853 1115 Q105.853 1123.72 102.774 1128.33 Q99.7187 1132.91 93.9086 1132.91 Q88.0984 1132.91 85.0197 1128.33 Q81.9642 1123.72 81.9642 1115 Q81.9642 1106.25 85.0197 1101.66 Q88.0984 1097.06 93.9086 1097.06 Z" fill="#000000" fill-rule="evenodd" fill-opacity="1" /><path clip-path="url(#clip190)" d="M124.07 1100.76 Q120.459 1100.76 118.631 1104.33 Q116.825 1107.87 116.825 1115 Q116.825 1122.1 118.631 1125.67 Q120.459 1129.21 124.07 1129.21 Q127.705 1129.21 129.51 1125.67 Q131.339 1122.1 131.339 1115 Q131.339 1107.87 129.51 1104.33 Q127.705 1100.76 124.07 1100.76 M124.07 1097.06 Q129.881 1097.06 132.936 1101.66 Q136.015 1106.25 136.015 1115 Q136.015 1123.72 132.936 1128.33 Q129.881 1132.91 124.07 1132.91 Q118.26 1132.91 115.182 1128.33 Q112.126 1123.72 112.126 1115 Q112.126 1106.25 115.182 1101.66 Q118.26 1097.06 124.07 1097.06 Z" fill="#000000" fill-rule="evenodd" fill-opacity="1" /><path clip-path="url(#clip190)" d="M66.5939 771.005 L54.7884 789.454 L66.5939 789.454 L66.5939 771.005 M65.367 766.93 L71.2466 766.93 L71.2466 789.454 L76.1772 789.454 L76.1772 793.342 L71.2466 793.342 L71.2466 801.49 L66.5939 801.49 L66.5939 793.342 L50.9921 793.342 L50.9921 788.829 L65.367 766.93 Z" fill="#000000" fill-rule="evenodd" fill-opacity="1" /><path clip-path="url(#clip190)" d="M93.9086 770.009 Q90.2975 770.009 88.4688 773.574 Q86.6632 777.116 86.6632 784.245 Q86.6632 791.352 88.4688 794.916 Q90.2975 798.458 93.9086 798.458 Q97.5428 798.458 99.3483 794.916 Q101.177 791.352 101.177 784.245 Q101.177 777.116 99.3483 773.574 Q97.5428 770.009 93.9086 770.009 M93.9086 766.305 Q99.7187 766.305 102.774 770.912 Q105.853 775.495 105.853 784.245 Q105.853 792.972 102.774 797.578 Q99.7187 802.162 93.9086 802.162 Q88.0984 802.162 85.0197 797.578 Q81.9642 792.972 81.9642 784.245 Q81.9642 775.495 85.0197 770.912 Q88.0984 766.305 93.9086 766.305 Z" fill="#000000" fill-rule="evenodd" fill-opacity="1" /><path clip-path="url(#clip190)" d="M124.07 770.009 Q120.459 770.009 118.631 773.574 Q116.825 777.116 116.825 784.245 Q116.825 791.352 118.631 794.916 Q120.459 798.458 124.07 798.458 Q127.705 798.458 129.51 794.916 Q131.339 791.352 131.339 784.245 Q131.339 777.116 129.51 773.574 Q127.705 770.009 124.07 770.009 M124.07 766.305 Q129.881 766.305 132.936 770.912 Q136.015 775.495 136.015 784.245 Q136.015 792.972 132.936 797.578 Q129.881 802.162 124.07 802.162 Q118.26 802.162 115.182 797.578 Q112.126 792.972 112.126 784.245 Q112.126 775.495 115.182 770.912 Q118.26 766.305 124.07 766.305 Z" fill="#000000" fill-rule="evenodd" fill-opacity="1" /><path clip-path="url(#clip190)" d="M64.3254 451.594 Q61.1773 451.594 59.3254 453.747 Q57.4967 455.9 57.4967 459.65 Q57.4967 463.377 59.3254 465.553 Q61.1773 467.706 64.3254 467.706 Q67.4735 467.706 69.3022 465.553 Q71.1541 463.377 71.1541 459.65 Q71.1541 455.9 69.3022 453.747 Q67.4735 451.594 64.3254 451.594 M73.6077 436.942 L73.6077 441.201 Q71.8485 440.368 70.0429 439.928 Q68.2606 439.488 66.5013 439.488 Q61.8717 439.488 59.418 442.613 Q56.9875 445.738 56.6402 452.057 Q58.006 450.044 60.0662 448.979 Q62.1263 447.891 64.6032 447.891 Q69.8115 447.891 72.8207 451.062 Q75.8531 454.21 75.8531 459.65 Q75.8531 464.974 72.705 468.192 Q69.5568 471.409 64.3254 471.409 Q58.33 471.409 55.1588 466.826 Q51.9875 462.219 51.9875 453.493 Q51.9875 445.298 55.8764 440.437 Q59.7652 435.553 66.3161 435.553 Q68.0754 435.553 69.8578 435.9 Q71.6633 436.247 73.6077 436.942 Z" fill="#000000" fill-rule="evenodd" fill-opacity="1" /><path clip-path="url(#clip190)" d="M93.9086 439.257 Q90.2975 439.257 88.4688 442.821 Q86.6632 446.363 86.6632 453.493 Q86.6632 460.599 88.4688 464.164 Q90.2975 467.706 93.9086 467.706 Q97.5428 467.706 99.3483 464.164 Q101.177 460.599 101.177 453.493 Q101.177 446.363 99.3483 442.821 Q97.5428 439.257 93.9086 439.257 M93.9086 435.553 Q99.7187 435.553 102.774 440.159 Q105.853 444.743 105.853 453.493 Q105.853 462.219 102.774 466.826 Q99.7187 471.409 93.9086 471.409 Q88.0984 471.409 85.0197 466.826 Q81.9642 462.219 81.9642 453.493 Q81.9642 444.743 85.0197 440.159 Q88.0984 435.553 93.9086 435.553 Z" fill="#000000" fill-rule="evenodd" fill-opacity="1" /><path clip-path="url(#clip190)" d="M124.07 439.257 Q120.459 439.257 118.631 442.821 Q116.825 446.363 116.825 453.493 Q116.825 460.599 118.631 464.164 Q120.459 467.706 124.07 467.706 Q127.705 467.706 129.51 464.164 Q131.339 460.599 131.339 453.493 Q131.339 446.363 129.51 442.821 Q127.705 439.257 124.07 439.257 M124.07 435.553 Q129.881 435.553 132.936 440.159 Q136.015 444.743 136.015 453.493 Q136.015 462.219 132.936 466.826 Q129.881 471.409 124.07 471.409 Q118.26 471.409 115.182 466.826 Q112.126 462.219 112.126 453.493 Q112.126 444.743 115.182 440.159 Q118.26 435.553 124.07 435.553 Z" fill="#000000" fill-rule="evenodd" fill-opacity="1" /><path clip-path="url(#clip190)" d="M63.7467 123.573 Q60.4134 123.573 58.4921 125.356 Q56.5939 127.138 56.5939 130.263 Q56.5939 133.388 58.4921 135.171 Q60.4134 136.953 63.7467 136.953 Q67.08 136.953 69.0013 135.171 Q70.9226 133.365 70.9226 130.263 Q70.9226 127.138 69.0013 125.356 Q67.1032 123.573 63.7467 123.573 M59.0708 121.583 Q56.0615 120.842 54.3717 118.782 Q52.7051 116.722 52.7051 113.759 Q52.7051 109.615 55.6449 107.208 Q58.6078 104.8 63.7467 104.8 Q68.9087 104.8 71.8485 107.208 Q74.7883 109.615 74.7883 113.759 Q74.7883 116.722 73.0985 118.782 Q71.4318 120.842 68.4457 121.583 Q71.8253 122.37 73.7003 124.661 Q75.5985 126.953 75.5985 130.263 Q75.5985 135.286 72.5198 137.971 Q69.4642 140.657 63.7467 140.657 Q58.0291 140.657 54.9504 137.971 Q51.8949 135.286 51.8949 130.263 Q51.8949 126.953 53.793 124.661 Q55.6912 122.37 59.0708 121.583 M57.3578 114.198 Q57.3578 116.884 59.0245 118.388 Q60.7143 119.893 63.7467 119.893 Q66.7559 119.893 68.4457 118.388 Q70.1587 116.884 70.1587 114.198 Q70.1587 111.513 68.4457 110.009 Q66.7559 108.504 63.7467 108.504 Q60.7143 108.504 59.0245 110.009 Q57.3578 111.513 57.3578 114.198 Z" fill="#000000" fill-rule="evenodd" fill-opacity="1" /><path clip-path="url(#clip190)" d="M93.9086 108.504 Q90.2975 108.504 88.4688 112.069 Q86.6632 115.61 86.6632 122.74 Q86.6632 129.846 88.4688 133.411 Q90.2975 136.953 93.9086 136.953 Q97.5428 136.953 99.3483 133.411 Q101.177 129.846 101.177 122.74 Q101.177 115.61 99.3483 112.069 Q97.5428 108.504 93.9086 108.504 M93.9086 104.8 Q99.7187 104.8 102.774 109.407 Q105.853 113.99 105.853 122.74 Q105.853 131.467 102.774 136.073 Q99.7187 140.657 93.9086 140.657 Q88.0984 140.657 85.0197 136.073 Q81.9642 131.467 81.9642 122.74 Q81.9642 113.99 85.0197 109.407 Q88.0984 104.8 93.9086 104.8 Z" fill="#000000" fill-rule="evenodd" fill-opacity="1" /><path clip-path="url(#clip190)" d="M124.07 108.504 Q120.459 108.504 118.631 112.069 Q116.825 115.61 116.825 122.74 Q116.825 129.846 118.631 133.411 Q120.459 136.953 124.07 136.953 Q127.705 136.953 129.51 133.411 Q131.339 129.846 131.339 122.74 Q131.339 115.61 129.51 112.069 Q127.705 108.504 124.07 108.504 M124.07 104.8 Q129.881 104.8 132.936 109.407 Q136.015 113.99 136.015 122.74 Q136.015 131.467 132.936 136.073 Q129.881 140.657 124.07 140.657 Q118.26 140.657 115.182 136.073 Q112.126 131.467 112.126 122.74 Q112.126 113.99 115.182 109.407 Q118.26 104.8 124.07 104.8 Z" fill="#000000" fill-rule="evenodd" fill-opacity="1" /><path clip-path="url(#clip192)" d="
M673.198 1444.06 L673.198 1445.72 L707.856 1445.72 L707.856 1444.06 L673.198 1444.06 L673.198 1444.06  Z
  " fill="#009af9" fill-rule="evenodd" fill-opacity="1"/>
<polyline clip-path="url(#clip192)" style="stroke:#000000; stroke-linecap:round; stroke-linejoin:round; stroke-width:4; stroke-opacity:1; fill:none" points="
  673.198,1444.06 673.198,1445.72 707.856,1445.72 707.856,1444.06 673.198,1444.06 
  "/>
<path clip-path="url(#clip192)" d="
M707.856 1442.41 L707.856 1445.72 L742.514 1445.72 L742.514 1442.41 L707.856 1442.41 L707.856 1442.41  Z
  " fill="#009af9" fill-rule="evenodd" fill-opacity="1"/>
<polyline clip-path="url(#clip192)" style="stroke:#000000; stroke-linecap:round; stroke-linejoin:round; stroke-width:4; stroke-opacity:1; fill:none" points="
  707.856,1442.41 707.856,1445.72 742.514,1445.72 742.514,1442.41 707.856,1442.41 
  "/>
<path clip-path="url(#clip192)" d="
M742.514 1442.41 L742.514 1445.72 L777.172 1445.72 L777.172 1442.41 L742.514 1442.41 L742.514 1442.41  Z
  " fill="#009af9" fill-rule="evenodd" fill-opacity="1"/>
<polyline clip-path="url(#clip192)" style="stroke:#000000; stroke-linecap:round; stroke-linejoin:round; stroke-width:4; stroke-opacity:1; fill:none" points="
  742.514,1442.41 742.514,1445.72 777.172,1445.72 777.172,1442.41 742.514,1442.41 
  "/>
<path clip-path="url(#clip192)" d="
M777.172 1440.75 L777.172 1445.72 L811.83 1445.72 L811.83 1440.75 L777.172 1440.75 L777.172 1440.75  Z
  " fill="#009af9" fill-rule="evenodd" fill-opacity="1"/>
<polyline clip-path="url(#clip192)" style="stroke:#000000; stroke-linecap:round; stroke-linejoin:round; stroke-width:4; stroke-opacity:1; fill:none" points="
  777.172,1440.75 777.172,1445.72 811.83,1445.72 811.83,1440.75 777.172,1440.75 
  "/>
<path clip-path="url(#clip192)" d="
M811.83 1429.18 L811.83 1445.72 L846.489 1445.72 L846.489 1429.18 L811.83 1429.18 L811.83 1429.18  Z
  " fill="#009af9" fill-rule="evenodd" fill-opacity="1"/>
<polyline clip-path="url(#clip192)" style="stroke:#000000; stroke-linecap:round; stroke-linejoin:round; stroke-width:4; stroke-opacity:1; fill:none" points="
  811.83,1429.18 811.83,1445.72 846.489,1445.72 846.489,1429.18 811.83,1429.18 
  "/>
<path clip-path="url(#clip192)" d="
M846.489 1419.26 L846.489 1445.72 L881.147 1445.72 L881.147 1419.26 L846.489 1419.26 L846.489 1419.26  Z
  " fill="#009af9" fill-rule="evenodd" fill-opacity="1"/>
<polyline clip-path="url(#clip192)" style="stroke:#000000; stroke-linecap:round; stroke-linejoin:round; stroke-width:4; stroke-opacity:1; fill:none" points="
  846.489,1419.26 846.489,1445.72 881.147,1445.72 881.147,1419.26 846.489,1419.26 
  "/>
<path clip-path="url(#clip192)" d="
M881.147 1394.45 L881.147 1445.72 L915.805 1445.72 L915.805 1394.45 L881.147 1394.45 L881.147 1394.45  Z
  " fill="#009af9" fill-rule="evenodd" fill-opacity="1"/>
<polyline clip-path="url(#clip192)" style="stroke:#000000; stroke-linecap:round; stroke-linejoin:round; stroke-width:4; stroke-opacity:1; fill:none" points="
  881.147,1394.45 881.147,1445.72 915.805,1445.72 915.805,1394.45 881.147,1394.45 
  "/>
<path clip-path="url(#clip192)" d="
M915.805 1387.83 L915.805 1445.72 L950.463 1445.72 L950.463 1387.83 L915.805 1387.83 L915.805 1387.83  Z
  " fill="#009af9" fill-rule="evenodd" fill-opacity="1"/>
<polyline clip-path="url(#clip192)" style="stroke:#000000; stroke-linecap:round; stroke-linejoin:round; stroke-width:4; stroke-opacity:1; fill:none" points="
  915.805,1387.83 915.805,1445.72 950.463,1445.72 950.463,1387.83 915.805,1387.83 
  "/>
<path clip-path="url(#clip192)" d="
M950.463 1328.3 L950.463 1445.72 L985.121 1445.72 L985.121 1328.3 L950.463 1328.3 L950.463 1328.3  Z
  " fill="#009af9" fill-rule="evenodd" fill-opacity="1"/>
<polyline clip-path="url(#clip192)" style="stroke:#000000; stroke-linecap:round; stroke-linejoin:round; stroke-width:4; stroke-opacity:1; fill:none" points="
  950.463,1328.3 950.463,1445.72 985.121,1445.72 985.121,1328.3 950.463,1328.3 
  "/>
<path clip-path="url(#clip192)" d="
M985.121 1280.34 L985.121 1445.72 L1019.78 1445.72 L1019.78 1280.34 L985.121 1280.34 L985.121 1280.34  Z
  " fill="#009af9" fill-rule="evenodd" fill-opacity="1"/>
<polyline clip-path="url(#clip192)" style="stroke:#000000; stroke-linecap:round; stroke-linejoin:round; stroke-width:4; stroke-opacity:1; fill:none" points="
  985.121,1280.34 985.121,1445.72 1019.78,1445.72 1019.78,1280.34 985.121,1280.34 
  "/>
<path clip-path="url(#clip192)" d="
M1019.78 1114.96 L1019.78 1445.72 L1054.44 1445.72 L1054.44 1114.96 L1019.78 1114.96 L1019.78 1114.96  Z
  " fill="#009af9" fill-rule="evenodd" fill-opacity="1"/>
<polyline clip-path="url(#clip192)" style="stroke:#000000; stroke-linecap:round; stroke-linejoin:round; stroke-width:4; stroke-opacity:1; fill:none" points="
  1019.78,1114.96 1019.78,1445.72 1054.44,1445.72 1054.44,1114.96 1019.78,1114.96 
  "/>
<path clip-path="url(#clip192)" d="
M1054.44 1043.85 L1054.44 1445.72 L1089.1 1445.72 L1089.1 1043.85 L1054.44 1043.85 L1054.44 1043.85  Z
  " fill="#009af9" fill-rule="evenodd" fill-opacity="1"/>
<polyline clip-path="url(#clip192)" style="stroke:#000000; stroke-linecap:round; stroke-linejoin:round; stroke-width:4; stroke-opacity:1; fill:none" points="
  1054.44,1043.85 1054.44,1445.72 1089.1,1445.72 1089.1,1043.85 1054.44,1043.85 
  "/>
<path clip-path="url(#clip192)" d="
M1089.1 898.32 L1089.1 1445.72 L1123.75 1445.72 L1123.75 898.32 L1089.1 898.32 L1089.1 898.32  Z
  " fill="#009af9" fill-rule="evenodd" fill-opacity="1"/>
<polyline clip-path="url(#clip192)" style="stroke:#000000; stroke-linecap:round; stroke-linejoin:round; stroke-width:4; stroke-opacity:1; fill:none" points="
  1089.1,898.32 1089.1,1445.72 1123.75,1445.72 1123.75,898.32 1089.1,898.32 
  "/>
<path clip-path="url(#clip192)" d="
M1123.75 727.983 L1123.75 1445.72 L1158.41 1445.72 L1158.41 727.983 L1123.75 727.983 L1123.75 727.983  Z
  " fill="#009af9" fill-rule="evenodd" fill-opacity="1"/>
<polyline clip-path="url(#clip192)" style="stroke:#000000; stroke-linecap:round; stroke-linejoin:round; stroke-width:4; stroke-opacity:1; fill:none" points="
  1123.75,727.983 1123.75,1445.72 1158.41,1445.72 1158.41,727.983 1123.75,727.983 
  "/>
<path clip-path="url(#clip192)" d="
M1158.41 590.72 L1158.41 1445.72 L1193.07 1445.72 L1193.07 590.72 L1158.41 590.72 L1158.41 590.72  Z
  " fill="#009af9" fill-rule="evenodd" fill-opacity="1"/>
<polyline clip-path="url(#clip192)" style="stroke:#000000; stroke-linecap:round; stroke-linejoin:round; stroke-width:4; stroke-opacity:1; fill:none" points="
  1158.41,590.72 1158.41,1445.72 1193.07,1445.72 1193.07,590.72 1158.41,590.72 
  "/>
<path clip-path="url(#clip192)" d="
M1193.07 397.23 L1193.07 1445.72 L1227.73 1445.72 L1227.73 397.23 L1193.07 397.23 L1193.07 397.23  Z
  " fill="#009af9" fill-rule="evenodd" fill-opacity="1"/>
<polyline clip-path="url(#clip192)" style="stroke:#000000; stroke-linecap:round; stroke-linejoin:round; stroke-width:4; stroke-opacity:1; fill:none" points="
  1193.07,397.23 1193.07,1445.72 1227.73,1445.72 1227.73,397.23 1193.07,397.23 
  "/>
<path clip-path="url(#clip192)" d="
M1227.73 178.933 L1227.73 1445.72 L1262.39 1445.72 L1262.39 178.933 L1227.73 178.933 L1227.73 178.933  Z
  " fill="#009af9" fill-rule="evenodd" fill-opacity="1"/>
<polyline clip-path="url(#clip192)" style="stroke:#000000; stroke-linecap:round; stroke-linejoin:round; stroke-width:4; stroke-opacity:1; fill:none" points="
  1227.73,178.933 1227.73,1445.72 1262.39,1445.72 1262.39,178.933 1227.73,178.933 
  "/>
<path clip-path="url(#clip192)" d="
M1262.39 154.127 L1262.39 1445.72 L1297.04 1445.72 L1297.04 154.127 L1262.39 154.127 L1262.39 154.127  Z
  " fill="#009af9" fill-rule="evenodd" fill-opacity="1"/>
<polyline clip-path="url(#clip192)" style="stroke:#000000; stroke-linecap:round; stroke-linejoin:round; stroke-width:4; stroke-opacity:1; fill:none" points="
  1262.39,154.127 1262.39,1445.72 1297.04,1445.72 1297.04,154.127 1262.39,154.127 
  "/>
<path clip-path="url(#clip192)" d="
M1297.04 112.783 L1297.04 1445.72 L1331.7 1445.72 L1331.7 112.783 L1297.04 112.783 L1297.04 112.783  Z
  " fill="#009af9" fill-rule="evenodd" fill-opacity="1"/>
<polyline clip-path="url(#clip192)" style="stroke:#000000; stroke-linecap:round; stroke-linejoin:round; stroke-width:4; stroke-opacity:1; fill:none" points="
  1297.04,112.783 1297.04,1445.72 1331.7,1445.72 1331.7,112.783 1297.04,112.783 
  "/>
<path clip-path="url(#clip192)" d="
M1331.7 87.9763 L1331.7 1445.72 L1366.36 1445.72 L1366.36 87.9763 L1331.7 87.9763 L1331.7 87.9763  Z
  " fill="#009af9" fill-rule="evenodd" fill-opacity="1"/>
<polyline clip-path="url(#clip192)" style="stroke:#000000; stroke-linecap:round; stroke-linejoin:round; stroke-width:4; stroke-opacity:1; fill:none" points="
  1331.7,87.9763 1331.7,1445.72 1366.36,1445.72 1366.36,87.9763 1331.7,87.9763 
  "/>
<path clip-path="url(#clip192)" d="
M1366.36 134.282 L1366.36 1445.72 L1401.02 1445.72 L1401.02 134.282 L1366.36 134.282 L1366.36 134.282  Z
  " fill="#009af9" fill-rule="evenodd" fill-opacity="1"/>
<polyline clip-path="url(#clip192)" style="stroke:#000000; stroke-linecap:round; stroke-linejoin:round; stroke-width:4; stroke-opacity:1; fill:none" points="
  1366.36,134.282 1366.36,1445.72 1401.02,1445.72 1401.02,134.282 1366.36,134.282 
  "/>
<path clip-path="url(#clip192)" d="
M1401.02 255.006 L1401.02 1445.72 L1435.68 1445.72 L1435.68 255.006 L1401.02 255.006 L1401.02 255.006  Z
  " fill="#009af9" fill-rule="evenodd" fill-opacity="1"/>
<polyline clip-path="url(#clip192)" style="stroke:#000000; stroke-linecap:round; stroke-linejoin:round; stroke-width:4; stroke-opacity:1; fill:none" points="
  1401.02,255.006 1401.02,1445.72 1435.68,1445.72 1435.68,255.006 1401.02,255.006 
  "/>
<path clip-path="url(#clip192)" d="
M1435.68 418.729 L1435.68 1445.72 L1470.33 1445.72 L1470.33 418.729 L1435.68 418.729 L1435.68 418.729  Z
  " fill="#009af9" fill-rule="evenodd" fill-opacity="1"/>
<polyline clip-path="url(#clip192)" style="stroke:#000000; stroke-linecap:round; stroke-linejoin:round; stroke-width:4; stroke-opacity:1; fill:none" points="
  1435.68,418.729 1435.68,1445.72 1470.33,1445.72 1470.33,418.729 1435.68,418.729 
  "/>
<path clip-path="url(#clip192)" d="
M1470.33 574.183 L1470.33 1445.72 L1504.99 1445.72 L1504.99 574.183 L1470.33 574.183 L1470.33 574.183  Z
  " fill="#009af9" fill-rule="evenodd" fill-opacity="1"/>
<polyline clip-path="url(#clip192)" style="stroke:#000000; stroke-linecap:round; stroke-linejoin:round; stroke-width:4; stroke-opacity:1; fill:none" points="
  1470.33,574.183 1470.33,1445.72 1504.99,1445.72 1504.99,574.183 1470.33,574.183 
  "/>
<path clip-path="url(#clip192)" d="
M1504.99 666.793 L1504.99 1445.72 L1539.65 1445.72 L1539.65 666.793 L1504.99 666.793 L1504.99 666.793  Z
  " fill="#009af9" fill-rule="evenodd" fill-opacity="1"/>
<polyline clip-path="url(#clip192)" style="stroke:#000000; stroke-linecap:round; stroke-linejoin:round; stroke-width:4; stroke-opacity:1; fill:none" points="
  1504.99,666.793 1504.99,1445.72 1539.65,1445.72 1539.65,666.793 1504.99,666.793 
  "/>
<path clip-path="url(#clip192)" d="
M1539.65 891.705 L1539.65 1445.72 L1574.31 1445.72 L1574.31 891.705 L1539.65 891.705 L1539.65 891.705  Z
  " fill="#009af9" fill-rule="evenodd" fill-opacity="1"/>
<polyline clip-path="url(#clip192)" style="stroke:#000000; stroke-linecap:round; stroke-linejoin:round; stroke-width:4; stroke-opacity:1; fill:none" points="
  1539.65,891.705 1539.65,1445.72 1574.31,1445.72 1574.31,891.705 1539.65,891.705 
  "/>
<path clip-path="url(#clip192)" d="
M1574.31 1035.58 L1574.31 1445.72 L1608.97 1445.72 L1608.97 1035.58 L1574.31 1035.58 L1574.31 1035.58  Z
  " fill="#009af9" fill-rule="evenodd" fill-opacity="1"/>
<polyline clip-path="url(#clip192)" style="stroke:#000000; stroke-linecap:round; stroke-linejoin:round; stroke-width:4; stroke-opacity:1; fill:none" points="
  1574.31,1035.58 1574.31,1445.72 1608.97,1445.72 1608.97,1035.58 1574.31,1035.58 
  "/>
<path clip-path="url(#clip192)" d="
M1608.97 1144.73 L1608.97 1445.72 L1643.62 1445.72 L1643.62 1144.73 L1608.97 1144.73 L1608.97 1144.73  Z
  " fill="#009af9" fill-rule="evenodd" fill-opacity="1"/>
<polyline clip-path="url(#clip192)" style="stroke:#000000; stroke-linecap:round; stroke-linejoin:round; stroke-width:4; stroke-opacity:1; fill:none" points="
  1608.97,1144.73 1608.97,1445.72 1643.62,1445.72 1643.62,1144.73 1608.97,1144.73 
  "/>
<path clip-path="url(#clip192)" d="
M1643.62 1243.96 L1643.62 1445.72 L1678.28 1445.72 L1678.28 1243.96 L1643.62 1243.96 L1643.62 1243.96  Z
  " fill="#009af9" fill-rule="evenodd" fill-opacity="1"/>
<polyline clip-path="url(#clip192)" style="stroke:#000000; stroke-linecap:round; stroke-linejoin:round; stroke-width:4; stroke-opacity:1; fill:none" points="
  1643.62,1243.96 1643.62,1445.72 1678.28,1445.72 1678.28,1243.96 1643.62,1243.96 
  "/>
<path clip-path="url(#clip192)" d="
M1678.28 1323.34 L1678.28 1445.72 L1712.94 1445.72 L1712.94 1323.34 L1678.28 1323.34 L1678.28 1323.34  Z
  " fill="#009af9" fill-rule="evenodd" fill-opacity="1"/>
<polyline clip-path="url(#clip192)" style="stroke:#000000; stroke-linecap:round; stroke-linejoin:round; stroke-width:4; stroke-opacity:1; fill:none" points="
  1678.28,1323.34 1678.28,1445.72 1712.94,1445.72 1712.94,1323.34 1678.28,1323.34 
  "/>
<path clip-path="url(#clip192)" d="
M1712.94 1363.03 L1712.94 1445.72 L1747.6 1445.72 L1747.6 1363.03 L1712.94 1363.03 L1712.94 1363.03  Z
  " fill="#009af9" fill-rule="evenodd" fill-opacity="1"/>
<polyline clip-path="url(#clip192)" style="stroke:#000000; stroke-linecap:round; stroke-linejoin:round; stroke-width:4; stroke-opacity:1; fill:none" points="
  1712.94,1363.03 1712.94,1445.72 1747.6,1445.72 1747.6,1363.03 1712.94,1363.03 
  "/>
<path clip-path="url(#clip192)" d="
M1747.6 1406.03 L1747.6 1445.72 L1782.26 1445.72 L1782.26 1406.03 L1747.6 1406.03 L1747.6 1406.03  Z
  " fill="#009af9" fill-rule="evenodd" fill-opacity="1"/>
<polyline clip-path="url(#clip192)" style="stroke:#000000; stroke-linecap:round; stroke-linejoin:round; stroke-width:4; stroke-opacity:1; fill:none" points="
  1747.6,1406.03 1747.6,1445.72 1782.26,1445.72 1782.26,1406.03 1747.6,1406.03 
  "/>
<path clip-path="url(#clip192)" d="
M1782.26 1419.26 L1782.26 1445.72 L1816.91 1445.72 L1816.91 1419.26 L1782.26 1419.26 L1782.26 1419.26  Z
  " fill="#009af9" fill-rule="evenodd" fill-opacity="1"/>
<polyline clip-path="url(#clip192)" style="stroke:#000000; stroke-linecap:round; stroke-linejoin:round; stroke-width:4; stroke-opacity:1; fill:none" points="
  1782.26,1419.26 1782.26,1445.72 1816.91,1445.72 1816.91,1419.26 1782.26,1419.26 
  "/>
<path clip-path="url(#clip192)" d="
M1816.91 1435.79 L1816.91 1445.72 L1851.57 1445.72 L1851.57 1435.79 L1816.91 1435.79 L1816.91 1435.79  Z
  " fill="#009af9" fill-rule="evenodd" fill-opacity="1"/>
<polyline clip-path="url(#clip192)" style="stroke:#000000; stroke-linecap:round; stroke-linejoin:round; stroke-width:4; stroke-opacity:1; fill:none" points="
  1816.91,1435.79 1816.91,1445.72 1851.57,1445.72 1851.57,1435.79 1816.91,1435.79 
  "/>
<path clip-path="url(#clip192)" d="
M1851.57 1439.1 L1851.57 1445.72 L1886.23 1445.72 L1886.23 1439.1 L1851.57 1439.1 L1851.57 1439.1  Z
  " fill="#009af9" fill-rule="evenodd" fill-opacity="1"/>
<polyline clip-path="url(#clip192)" style="stroke:#000000; stroke-linecap:round; stroke-linejoin:round; stroke-width:4; stroke-opacity:1; fill:none" points="
  1851.57,1439.1 1851.57,1445.72 1886.23,1445.72 1886.23,1439.1 1851.57,1439.1 
  "/>
<path clip-path="url(#clip192)" d="
M1886.23 1444.06 L1886.23 1445.72 L1920.89 1445.72 L1920.89 1444.06 L1886.23 1444.06 L1886.23 1444.06  Z
  " fill="#009af9" fill-rule="evenodd" fill-opacity="1"/>
<polyline clip-path="url(#clip192)" style="stroke:#000000; stroke-linecap:round; stroke-linejoin:round; stroke-width:4; stroke-opacity:1; fill:none" points="
  1886.23,1444.06 1886.23,1445.72 1920.89,1445.72 1920.89,1444.06 1886.23,1444.06 
  "/>
<path clip-path="url(#clip192)" d="
M1920.89 1442.41 L1920.89 1445.72 L1955.55 1445.72 L1955.55 1442.41 L1920.89 1442.41 L1920.89 1442.41  Z
  " fill="#009af9" fill-rule="evenodd" fill-opacity="1"/>
<polyline clip-path="url(#clip192)" style="stroke:#000000; stroke-linecap:round; stroke-linejoin:round; stroke-width:4; stroke-opacity:1; fill:none" points="
  1920.89,1442.41 1920.89,1445.72 1955.55,1445.72 1955.55,1442.41 1920.89,1442.41 
  "/>
<circle clip-path="url(#clip192)" style="fill:#009af9; stroke:none; fill-opacity:0" cx="690.527" cy="1444.06" r="2"/>
<circle clip-path="url(#clip192)" style="fill:#009af9; stroke:none; fill-opacity:0" cx="725.185" cy="1442.41" r="2"/>
<circle clip-path="url(#clip192)" style="fill:#009af9; stroke:none; fill-opacity:0" cx="759.843" cy="1442.41" r="2"/>
<circle clip-path="url(#clip192)" style="fill:#009af9; stroke:none; fill-opacity:0" cx="794.501" cy="1440.75" r="2"/>
<circle clip-path="url(#clip192)" style="fill:#009af9; stroke:none; fill-opacity:0" cx="829.16" cy="1429.18" r="2"/>
<circle clip-path="url(#clip192)" style="fill:#009af9; stroke:none; fill-opacity:0" cx="863.818" cy="1419.26" r="2"/>
<circle clip-path="url(#clip192)" style="fill:#009af9; stroke:none; fill-opacity:0" cx="898.476" cy="1394.45" r="2"/>
<circle clip-path="url(#clip192)" style="fill:#009af9; stroke:none; fill-opacity:0" cx="933.134" cy="1387.83" r="2"/>
<circle clip-path="url(#clip192)" style="fill:#009af9; stroke:none; fill-opacity:0" cx="967.792" cy="1328.3" r="2"/>
<circle clip-path="url(#clip192)" style="fill:#009af9; stroke:none; fill-opacity:0" cx="1002.45" cy="1280.34" r="2"/>
<circle clip-path="url(#clip192)" style="fill:#009af9; stroke:none; fill-opacity:0" cx="1037.11" cy="1114.96" r="2"/>
<circle clip-path="url(#clip192)" style="fill:#009af9; stroke:none; fill-opacity:0" cx="1071.77" cy="1043.85" r="2"/>
<circle clip-path="url(#clip192)" style="fill:#009af9; stroke:none; fill-opacity:0" cx="1106.42" cy="898.32" r="2"/>
<circle clip-path="url(#clip192)" style="fill:#009af9; stroke:none; fill-opacity:0" cx="1141.08" cy="727.983" r="2"/>
<circle clip-path="url(#clip192)" style="fill:#009af9; stroke:none; fill-opacity:0" cx="1175.74" cy="590.72" r="2"/>
<circle clip-path="url(#clip192)" style="fill:#009af9; stroke:none; fill-opacity:0" cx="1210.4" cy="397.23" r="2"/>
<circle clip-path="url(#clip192)" style="fill:#009af9; stroke:none; fill-opacity:0" cx="1245.06" cy="178.933" r="2"/>
<circle clip-path="url(#clip192)" style="fill:#009af9; stroke:none; fill-opacity:0" cx="1279.71" cy="154.127" r="2"/>
<circle clip-path="url(#clip192)" style="fill:#009af9; stroke:none; fill-opacity:0" cx="1314.37" cy="112.783" r="2"/>
<circle clip-path="url(#clip192)" style="fill:#009af9; stroke:none; fill-opacity:0" cx="1349.03" cy="87.9763" r="2"/>
<circle clip-path="url(#clip192)" style="fill:#009af9; stroke:none; fill-opacity:0" cx="1383.69" cy="134.282" r="2"/>
<circle clip-path="url(#clip192)" style="fill:#009af9; stroke:none; fill-opacity:0" cx="1418.35" cy="255.006" r="2"/>
<circle clip-path="url(#clip192)" style="fill:#009af9; stroke:none; fill-opacity:0" cx="1453" cy="418.729" r="2"/>
<circle clip-path="url(#clip192)" style="fill:#009af9; stroke:none; fill-opacity:0" cx="1487.66" cy="574.183" r="2"/>
<circle clip-path="url(#clip192)" style="fill:#009af9; stroke:none; fill-opacity:0" cx="1522.32" cy="666.793" r="2"/>
<circle clip-path="url(#clip192)" style="fill:#009af9; stroke:none; fill-opacity:0" cx="1556.98" cy="891.705" r="2"/>
<circle clip-path="url(#clip192)" style="fill:#009af9; stroke:none; fill-opacity:0" cx="1591.64" cy="1035.58" r="2"/>
<circle clip-path="url(#clip192)" style="fill:#009af9; stroke:none; fill-opacity:0" cx="1626.3" cy="1144.73" r="2"/>
<circle clip-path="url(#clip192)" style="fill:#009af9; stroke:none; fill-opacity:0" cx="1660.95" cy="1243.96" r="2"/>
<circle clip-path="url(#clip192)" style="fill:#009af9; stroke:none; fill-opacity:0" cx="1695.61" cy="1323.34" r="2"/>
<circle clip-path="url(#clip192)" style="fill:#009af9; stroke:none; fill-opacity:0" cx="1730.27" cy="1363.03" r="2"/>
<circle clip-path="url(#clip192)" style="fill:#009af9; stroke:none; fill-opacity:0" cx="1764.93" cy="1406.03" r="2"/>
<circle clip-path="url(#clip192)" style="fill:#009af9; stroke:none; fill-opacity:0" cx="1799.59" cy="1419.26" r="2"/>
<circle clip-path="url(#clip192)" style="fill:#009af9; stroke:none; fill-opacity:0" cx="1834.24" cy="1435.79" r="2"/>
<circle clip-path="url(#clip192)" style="fill:#009af9; stroke:none; fill-opacity:0" cx="1868.9" cy="1439.1" r="2"/>
<circle clip-path="url(#clip192)" style="fill:#009af9; stroke:none; fill-opacity:0" cx="1903.56" cy="1444.06" r="2"/>
<circle clip-path="url(#clip192)" style="fill:#009af9; stroke:none; fill-opacity:0" cx="1938.22" cy="1442.41" r="2"/>
<path clip-path="url(#clip192)" d="
M291.959 1444.06 L291.959 1445.72 L326.618 1445.72 L326.618 1444.06 L291.959 1444.06 L291.959 1444.06  Z
  " fill="#e26f46" fill-rule="evenodd" fill-opacity="1"/>
<polyline clip-path="url(#clip192)" style="stroke:#000000; stroke-linecap:round; stroke-linejoin:round; stroke-width:4; stroke-opacity:1; fill:none" points="
  291.959,1444.06 291.959,1445.72 326.618,1445.72 326.618,1444.06 291.959,1444.06 
  "/>
<path clip-path="url(#clip192)" d="
M326.618 1445.72 L326.618 1445.72 L361.276 1445.72 L361.276 1445.72 L326.618 1445.72 L326.618 1445.72  Z
  " fill="#e26f46" fill-rule="evenodd" fill-opacity="1"/>
<polyline clip-path="url(#clip192)" style="stroke:#000000; stroke-linecap:round; stroke-linejoin:round; stroke-width:4; stroke-opacity:1; fill:none" points="
  326.618,1445.72 326.618,1445.72 361.276,1445.72 326.618,1445.72 
  "/>
<path clip-path="url(#clip192)" d="
M361.276 1445.72 L361.276 1445.72 L395.934 1445.72 L395.934 1445.72 L361.276 1445.72 L361.276 1445.72  Z
  " fill="#e26f46" fill-rule="evenodd" fill-opacity="1"/>
<polyline clip-path="url(#clip192)" style="stroke:#000000; stroke-linecap:round; stroke-linejoin:round; stroke-width:4; stroke-opacity:1; fill:none" points="
  361.276,1445.72 361.276,1445.72 395.934,1445.72 361.276,1445.72 
  "/>
<path clip-path="url(#clip192)" d="
M395.934 1442.41 L395.934 1445.72 L430.592 1445.72 L430.592 1442.41 L395.934 1442.41 L395.934 1442.41  Z
  " fill="#e26f46" fill-rule="evenodd" fill-opacity="1"/>
<polyline clip-path="url(#clip192)" style="stroke:#000000; stroke-linecap:round; stroke-linejoin:round; stroke-width:4; stroke-opacity:1; fill:none" points="
  395.934,1442.41 395.934,1445.72 430.592,1445.72 430.592,1442.41 395.934,1442.41 
  "/>
<path clip-path="url(#clip192)" d="
M430.592 1445.72 L430.592 1445.72 L465.25 1445.72 L465.25 1445.72 L430.592 1445.72 L430.592 1445.72  Z
  " fill="#e26f46" fill-rule="evenodd" fill-opacity="1"/>
<polyline clip-path="url(#clip192)" style="stroke:#000000; stroke-linecap:round; stroke-linejoin:round; stroke-width:4; stroke-opacity:1; fill:none" points="
  430.592,1445.72 430.592,1445.72 465.25,1445.72 430.592,1445.72 
  "/>
<path clip-path="url(#clip192)" d="
M465.25 1440.75 L465.25 1445.72 L499.908 1445.72 L499.908 1440.75 L465.25 1440.75 L465.25 1440.75  Z
  " fill="#e26f46" fill-rule="evenodd" fill-opacity="1"/>
<polyline clip-path="url(#clip192)" style="stroke:#000000; stroke-linecap:round; stroke-linejoin:round; stroke-width:4; stroke-opacity:1; fill:none" points="
  465.25,1440.75 465.25,1445.72 499.908,1445.72 499.908,1440.75 465.25,1440.75 
  "/>
<path clip-path="url(#clip192)" d="
M499.908 1432.49 L499.908 1445.72 L534.566 1445.72 L534.566 1432.49 L499.908 1432.49 L499.908 1432.49  Z
  " fill="#e26f46" fill-rule="evenodd" fill-opacity="1"/>
<polyline clip-path="url(#clip192)" style="stroke:#000000; stroke-linecap:round; stroke-linejoin:round; stroke-width:4; stroke-opacity:1; fill:none" points="
  499.908,1432.49 499.908,1445.72 534.566,1445.72 534.566,1432.49 499.908,1432.49 
  "/>
<path clip-path="url(#clip192)" d="
M534.566 1445.72 L534.566 1445.72 L569.224 1445.72 L569.224 1445.72 L534.566 1445.72 L534.566 1445.72  Z
  " fill="#e26f46" fill-rule="evenodd" fill-opacity="1"/>
<polyline clip-path="url(#clip192)" style="stroke:#000000; stroke-linecap:round; stroke-linejoin:round; stroke-width:4; stroke-opacity:1; fill:none" points="
  534.566,1445.72 534.566,1445.72 569.224,1445.72 534.566,1445.72 
  "/>
<path clip-path="url(#clip192)" d="
M569.224 1417.6 L569.224 1445.72 L603.882 1445.72 L603.882 1417.6 L569.224 1417.6 L569.224 1417.6  Z
  " fill="#e26f46" fill-rule="evenodd" fill-opacity="1"/>
<polyline clip-path="url(#clip192)" style="stroke:#000000; stroke-linecap:round; stroke-linejoin:round; stroke-width:4; stroke-opacity:1; fill:none" points="
  569.224,1417.6 569.224,1445.72 603.882,1445.72 603.882,1417.6 569.224,1417.6 
  "/>
<path clip-path="url(#clip192)" d="
M603.882 1445.72 L603.882 1445.72 L638.54 1445.72 L638.54 1445.72 L603.882 1445.72 L603.882 1445.72  Z
  " fill="#e26f46" fill-rule="evenodd" fill-opacity="1"/>
<polyline clip-path="url(#clip192)" style="stroke:#000000; stroke-linecap:round; stroke-linejoin:round; stroke-width:4; stroke-opacity:1; fill:none" points="
  603.882,1445.72 603.882,1445.72 638.54,1445.72 603.882,1445.72 
  "/>
<path clip-path="url(#clip192)" d="
M638.54 1396.1 L638.54 1445.72 L673.198 1445.72 L673.198 1396.1 L638.54 1396.1 L638.54 1396.1  Z
  " fill="#e26f46" fill-rule="evenodd" fill-opacity="1"/>
<polyline clip-path="url(#clip192)" style="stroke:#000000; stroke-linecap:round; stroke-linejoin:round; stroke-width:4; stroke-opacity:1; fill:none" points="
  638.54,1396.1 638.54,1445.72 673.198,1445.72 673.198,1396.1 638.54,1396.1 
  "/>
<path clip-path="url(#clip192)" d="
M673.198 1379.57 L673.198 1445.72 L707.856 1445.72 L707.856 1379.57 L673.198 1379.57 L673.198 1379.57  Z
  " fill="#e26f46" fill-rule="evenodd" fill-opacity="1"/>
<polyline clip-path="url(#clip192)" style="stroke:#000000; stroke-linecap:round; stroke-linejoin:round; stroke-width:4; stroke-opacity:1; fill:none" points="
  673.198,1379.57 673.198,1445.72 707.856,1445.72 707.856,1379.57 673.198,1379.57 
  "/>
<path clip-path="url(#clip192)" d="
M707.856 1445.72 L707.856 1445.72 L742.514 1445.72 L742.514 1445.72 L707.856 1445.72 L707.856 1445.72  Z
  " fill="#e26f46" fill-rule="evenodd" fill-opacity="1"/>
<polyline clip-path="url(#clip192)" style="stroke:#000000; stroke-linecap:round; stroke-linejoin:round; stroke-width:4; stroke-opacity:1; fill:none" points="
  707.856,1445.72 707.856,1445.72 742.514,1445.72 707.856,1445.72 
  "/>
<path clip-path="url(#clip192)" d="
M742.514 1306.8 L742.514 1445.72 L777.172 1445.72 L777.172 1306.8 L742.514 1306.8 L742.514 1306.8  Z
  " fill="#e26f46" fill-rule="evenodd" fill-opacity="1"/>
<polyline clip-path="url(#clip192)" style="stroke:#000000; stroke-linecap:round; stroke-linejoin:round; stroke-width:4; stroke-opacity:1; fill:none" points="
  742.514,1306.8 742.514,1445.72 777.172,1445.72 777.172,1306.8 742.514,1306.8 
  "/>
<path clip-path="url(#clip192)" d="
M777.172 1267.11 L777.172 1445.72 L811.83 1445.72 L811.83 1267.11 L777.172 1267.11 L777.172 1267.11  Z
  " fill="#e26f46" fill-rule="evenodd" fill-opacity="1"/>
<polyline clip-path="url(#clip192)" style="stroke:#000000; stroke-linecap:round; stroke-linejoin:round; stroke-width:4; stroke-opacity:1; fill:none" points="
  777.172,1267.11 777.172,1445.72 811.83,1445.72 811.83,1267.11 777.172,1267.11 
  "/>
<path clip-path="url(#clip192)" d="
M811.83 1445.72 L811.83 1445.72 L846.489 1445.72 L846.489 1445.72 L811.83 1445.72 L811.83 1445.72  Z
  " fill="#e26f46" fill-rule="evenodd" fill-opacity="1"/>
<polyline clip-path="url(#clip192)" style="stroke:#000000; stroke-linecap:round; stroke-linejoin:round; stroke-width:4; stroke-opacity:1; fill:none" points="
  811.83,1445.72 811.83,1445.72 846.489,1445.72 811.83,1445.72 
  "/>
<path clip-path="url(#clip192)" d="
M846.489 1164.58 L846.489 1445.72 L881.147 1445.72 L881.147 1164.58 L846.489 1164.58 L846.489 1164.58  Z
  " fill="#e26f46" fill-rule="evenodd" fill-opacity="1"/>
<polyline clip-path="url(#clip192)" style="stroke:#000000; stroke-linecap:round; stroke-linejoin:round; stroke-width:4; stroke-opacity:1; fill:none" points="
  846.489,1164.58 846.489,1445.72 881.147,1445.72 881.147,1164.58 846.489,1164.58 
  "/>
<path clip-path="url(#clip192)" d="
M881.147 1045.51 L881.147 1445.72 L915.805 1445.72 L915.805 1045.51 L881.147 1045.51 L881.147 1045.51  Z
  " fill="#e26f46" fill-rule="evenodd" fill-opacity="1"/>
<polyline clip-path="url(#clip192)" style="stroke:#000000; stroke-linecap:round; stroke-linejoin:round; stroke-width:4; stroke-opacity:1; fill:none" points="
  881.147,1045.51 881.147,1445.72 915.805,1445.72 915.805,1045.51 881.147,1045.51 
  "/>
<path clip-path="url(#clip192)" d="
M915.805 1445.72 L915.805 1445.72 L950.463 1445.72 L950.463 1445.72 L915.805 1445.72 L915.805 1445.72  Z
  " fill="#e26f46" fill-rule="evenodd" fill-opacity="1"/>
<polyline clip-path="url(#clip192)" style="stroke:#000000; stroke-linecap:round; stroke-linejoin:round; stroke-width:4; stroke-opacity:1; fill:none" points="
  915.805,1445.72 915.805,1445.72 950.463,1445.72 915.805,1445.72 
  "/>
<path clip-path="url(#clip192)" d="
M950.463 883.436 L950.463 1445.72 L985.121 1445.72 L985.121 883.436 L950.463 883.436 L950.463 883.436  Z
  " fill="#e26f46" fill-rule="evenodd" fill-opacity="1"/>
<polyline clip-path="url(#clip192)" style="stroke:#000000; stroke-linecap:round; stroke-linejoin:round; stroke-width:4; stroke-opacity:1; fill:none" points="
  950.463,883.436 950.463,1445.72 985.121,1445.72 985.121,883.436 950.463,883.436 
  "/>
<path clip-path="url(#clip192)" d="
M985.121 1445.72 L985.121 1445.72 L1019.78 1445.72 L1019.78 1445.72 L985.121 1445.72 L985.121 1445.72  Z
  " fill="#e26f46" fill-rule="evenodd" fill-opacity="1"/>
<polyline clip-path="url(#clip192)" style="stroke:#000000; stroke-linecap:round; stroke-linejoin:round; stroke-width:4; stroke-opacity:1; fill:none" points="
  985.121,1445.72 985.121,1445.72 1019.78,1445.72 985.121,1445.72 
  "/>
<path clip-path="url(#clip192)" d="
M1019.78 770.98 L1019.78 1445.72 L1054.44 1445.72 L1054.44 770.98 L1019.78 770.98 L1019.78 770.98  Z
  " fill="#e26f46" fill-rule="evenodd" fill-opacity="1"/>
<polyline clip-path="url(#clip192)" style="stroke:#000000; stroke-linecap:round; stroke-linejoin:round; stroke-width:4; stroke-opacity:1; fill:none" points="
  1019.78,770.98 1019.78,1445.72 1054.44,1445.72 1054.44,770.98 1019.78,770.98 
  "/>
<path clip-path="url(#clip192)" d="
M1054.44 584.105 L1054.44 1445.72 L1089.1 1445.72 L1089.1 584.105 L1054.44 584.105 L1054.44 584.105  Z
  " fill="#e26f46" fill-rule="evenodd" fill-opacity="1"/>
<polyline clip-path="url(#clip192)" style="stroke:#000000; stroke-linecap:round; stroke-linejoin:round; stroke-width:4; stroke-opacity:1; fill:none" points="
  1054.44,584.105 1054.44,1445.72 1089.1,1445.72 1089.1,584.105 1054.44,584.105 
  "/>
<path clip-path="url(#clip192)" d="
M1089.1 1445.72 L1089.1 1445.72 L1123.75 1445.72 L1123.75 1445.72 L1089.1 1445.72 L1089.1 1445.72  Z
  " fill="#e26f46" fill-rule="evenodd" fill-opacity="1"/>
<polyline clip-path="url(#clip192)" style="stroke:#000000; stroke-linecap:round; stroke-linejoin:round; stroke-width:4; stroke-opacity:1; fill:none" points="
  1089.1,1445.72 1089.1,1445.72 1123.75,1445.72 1089.1,1445.72 
  "/>
<path clip-path="url(#clip192)" d="
M1123.75 453.458 L1123.75 1445.72 L1158.41 1445.72 L1158.41 453.458 L1123.75 453.458 L1123.75 453.458  Z
  " fill="#e26f46" fill-rule="evenodd" fill-opacity="1"/>
<polyline clip-path="url(#clip192)" style="stroke:#000000; stroke-linecap:round; stroke-linejoin:round; stroke-width:4; stroke-opacity:1; fill:none" points="
  1123.75,453.458 1123.75,1445.72 1158.41,1445.72 1158.41,453.458 1123.75,453.458 
  "/>
<path clip-path="url(#clip192)" d="
M1158.41 258.314 L1158.41 1445.72 L1193.07 1445.72 L1193.07 258.314 L1158.41 258.314 L1158.41 258.314  Z
  " fill="#e26f46" fill-rule="evenodd" fill-opacity="1"/>
<polyline clip-path="url(#clip192)" style="stroke:#000000; stroke-linecap:round; stroke-linejoin:round; stroke-width:4; stroke-opacity:1; fill:none" points="
  1158.41,258.314 1158.41,1445.72 1193.07,1445.72 1193.07,258.314 1158.41,258.314 
  "/>
<path clip-path="url(#clip192)" d="
M1193.07 1445.72 L1193.07 1445.72 L1227.73 1445.72 L1227.73 1445.72 L1193.07 1445.72 L1193.07 1445.72  Z
  " fill="#e26f46" fill-rule="evenodd" fill-opacity="1"/>
<polyline clip-path="url(#clip192)" style="stroke:#000000; stroke-linecap:round; stroke-linejoin:round; stroke-width:4; stroke-opacity:1; fill:none" points="
  1193.07,1445.72 1193.07,1445.72 1227.73,1445.72 1193.07,1445.72 
  "/>
<path clip-path="url(#clip192)" d="
M1227.73 177.279 L1227.73 1445.72 L1262.39 1445.72 L1262.39 177.279 L1227.73 177.279 L1227.73 177.279  Z
  " fill="#e26f46" fill-rule="evenodd" fill-opacity="1"/>
<polyline clip-path="url(#clip192)" style="stroke:#000000; stroke-linecap:round; stroke-linejoin:round; stroke-width:4; stroke-opacity:1; fill:none" points="
  1227.73,177.279 1227.73,1445.72 1262.39,1445.72 1262.39,177.279 1227.73,177.279 
  "/>
<path clip-path="url(#clip192)" d="
M1262.39 155.781 L1262.39 1445.72 L1297.04 1445.72 L1297.04 155.781 L1262.39 155.781 L1262.39 155.781  Z
  " fill="#e26f46" fill-rule="evenodd" fill-opacity="1"/>
<polyline clip-path="url(#clip192)" style="stroke:#000000; stroke-linecap:round; stroke-linejoin:round; stroke-width:4; stroke-opacity:1; fill:none" points="
  1262.39,155.781 1262.39,1445.72 1297.04,1445.72 1297.04,155.781 1262.39,155.781 
  "/>
<path clip-path="url(#clip192)" d="
M1297.04 1445.72 L1297.04 1445.72 L1331.7 1445.72 L1331.7 1445.72 L1297.04 1445.72 L1297.04 1445.72  Z
  " fill="#e26f46" fill-rule="evenodd" fill-opacity="1"/>
<polyline clip-path="url(#clip192)" style="stroke:#000000; stroke-linecap:round; stroke-linejoin:round; stroke-width:4; stroke-opacity:1; fill:none" points="
  1297.04,1445.72 1297.04,1445.72 1331.7,1445.72 1297.04,1445.72 
  "/>
<path clip-path="url(#clip192)" d="
M1331.7 89.63 L1331.7 1445.72 L1366.36 1445.72 L1366.36 89.63 L1331.7 89.63 L1331.7 89.63  Z
  " fill="#e26f46" fill-rule="evenodd" fill-opacity="1"/>
<polyline clip-path="url(#clip192)" style="stroke:#000000; stroke-linecap:round; stroke-linejoin:round; stroke-width:4; stroke-opacity:1; fill:none" points="
  1331.7,89.63 1331.7,1445.72 1366.36,1445.72 1366.36,89.63 1331.7,89.63 
  "/>
<path clip-path="url(#clip192)" d="
M1366.36 1445.72 L1366.36 1445.72 L1401.02 1445.72 L1401.02 1445.72 L1366.36 1445.72 L1366.36 1445.72  Z
  " fill="#e26f46" fill-rule="evenodd" fill-opacity="1"/>
<polyline clip-path="url(#clip192)" style="stroke:#000000; stroke-linecap:round; stroke-linejoin:round; stroke-width:4; stroke-opacity:1; fill:none" points="
  1366.36,1445.72 1366.36,1445.72 1401.02,1445.72 1366.36,1445.72 
  "/>
<path clip-path="url(#clip192)" d="
M1401.02 117.744 L1401.02 1445.72 L1435.68 1445.72 L1435.68 117.744 L1401.02 117.744 L1401.02 117.744  Z
  " fill="#e26f46" fill-rule="evenodd" fill-opacity="1"/>
<polyline clip-path="url(#clip192)" style="stroke:#000000; stroke-linecap:round; stroke-linejoin:round; stroke-width:4; stroke-opacity:1; fill:none" points="
  1401.02,117.744 1401.02,1445.72 1435.68,1445.72 1435.68,117.744 1401.02,117.744 
  "/>
<path clip-path="url(#clip192)" d="
M1435.68 150.819 L1435.68 1445.72 L1470.33 1445.72 L1470.33 150.819 L1435.68 150.819 L1435.68 150.819  Z
  " fill="#e26f46" fill-rule="evenodd" fill-opacity="1"/>
<polyline clip-path="url(#clip192)" style="stroke:#000000; stroke-linecap:round; stroke-linejoin:round; stroke-width:4; stroke-opacity:1; fill:none" points="
  1435.68,150.819 1435.68,1445.72 1470.33,1445.72 1470.33,150.819 1435.68,150.819 
  "/>
<path clip-path="url(#clip192)" d="
M1470.33 1445.72 L1470.33 1445.72 L1504.99 1445.72 L1504.99 1445.72 L1470.33 1445.72 L1470.33 1445.72  Z
  " fill="#e26f46" fill-rule="evenodd" fill-opacity="1"/>
<polyline clip-path="url(#clip192)" style="stroke:#000000; stroke-linecap:round; stroke-linejoin:round; stroke-width:4; stroke-opacity:1; fill:none" points="
  1470.33,1445.72 1470.33,1445.72 1504.99,1445.72 1470.33,1445.72 
  "/>
<path clip-path="url(#clip192)" d="
M1504.99 299.658 L1504.99 1445.72 L1539.65 1445.72 L1539.65 299.658 L1504.99 299.658 L1504.99 299.658  Z
  " fill="#e26f46" fill-rule="evenodd" fill-opacity="1"/>
<polyline clip-path="url(#clip192)" style="stroke:#000000; stroke-linecap:round; stroke-linejoin:round; stroke-width:4; stroke-opacity:1; fill:none" points="
  1504.99,299.658 1504.99,1445.72 1539.65,1445.72 1539.65,299.658 1504.99,299.658 
  "/>
<path clip-path="url(#clip192)" d="
M1539.65 526.223 L1539.65 1445.72 L1574.31 1445.72 L1574.31 526.223 L1539.65 526.223 L1539.65 526.223  Z
  " fill="#e26f46" fill-rule="evenodd" fill-opacity="1"/>
<polyline clip-path="url(#clip192)" style="stroke:#000000; stroke-linecap:round; stroke-linejoin:round; stroke-width:4; stroke-opacity:1; fill:none" points="
  1539.65,526.223 1539.65,1445.72 1574.31,1445.72 1574.31,526.223 1539.65,526.223 
  "/>
<path clip-path="url(#clip192)" d="
M1574.31 1445.72 L1574.31 1445.72 L1608.97 1445.72 L1608.97 1445.72 L1574.31 1445.72 L1574.31 1445.72  Z
  " fill="#e26f46" fill-rule="evenodd" fill-opacity="1"/>
<polyline clip-path="url(#clip192)" style="stroke:#000000; stroke-linecap:round; stroke-linejoin:round; stroke-width:4; stroke-opacity:1; fill:none" points="
  1574.31,1445.72 1574.31,1445.72 1608.97,1445.72 1574.31,1445.72 
  "/>
<path clip-path="url(#clip192)" d="
M1608.97 683.331 L1608.97 1445.72 L1643.62 1445.72 L1643.62 683.331 L1608.97 683.331 L1608.97 683.331  Z
  " fill="#e26f46" fill-rule="evenodd" fill-opacity="1"/>
<polyline clip-path="url(#clip192)" style="stroke:#000000; stroke-linecap:round; stroke-linejoin:round; stroke-width:4; stroke-opacity:1; fill:none" points="
  1608.97,683.331 1608.97,1445.72 1643.62,1445.72 1643.62,683.331 1608.97,683.331 
  "/>
<path clip-path="url(#clip192)" d="
M1643.62 868.552 L1643.62 1445.72 L1678.28 1445.72 L1678.28 868.552 L1643.62 868.552 L1643.62 868.552  Z
  " fill="#e26f46" fill-rule="evenodd" fill-opacity="1"/>
<polyline clip-path="url(#clip192)" style="stroke:#000000; stroke-linecap:round; stroke-linejoin:round; stroke-width:4; stroke-opacity:1; fill:none" points="
  1643.62,868.552 1643.62,1445.72 1678.28,1445.72 1678.28,868.552 1643.62,868.552 
  "/>
<path clip-path="url(#clip192)" d="
M1678.28 1445.72 L1678.28 1445.72 L1712.94 1445.72 L1712.94 1445.72 L1678.28 1445.72 L1678.28 1445.72  Z
  " fill="#e26f46" fill-rule="evenodd" fill-opacity="1"/>
<polyline clip-path="url(#clip192)" style="stroke:#000000; stroke-linecap:round; stroke-linejoin:round; stroke-width:4; stroke-opacity:1; fill:none" points="
  1678.28,1445.72 1678.28,1445.72 1712.94,1445.72 1678.28,1445.72 
  "/>
<path clip-path="url(#clip192)" d="
M1712.94 1055.43 L1712.94 1445.72 L1747.6 1445.72 L1747.6 1055.43 L1712.94 1055.43 L1712.94 1055.43  Z
  " fill="#e26f46" fill-rule="evenodd" fill-opacity="1"/>
<polyline clip-path="url(#clip192)" style="stroke:#000000; stroke-linecap:round; stroke-linejoin:round; stroke-width:4; stroke-opacity:1; fill:none" points="
  1712.94,1055.43 1712.94,1445.72 1747.6,1445.72 1747.6,1055.43 1712.94,1055.43 
  "/>
<path clip-path="url(#clip192)" d="
M1747.6 1445.72 L1747.6 1445.72 L1782.26 1445.72 L1782.26 1445.72 L1747.6 1445.72 L1747.6 1445.72  Z
  " fill="#e26f46" fill-rule="evenodd" fill-opacity="1"/>
<polyline clip-path="url(#clip192)" style="stroke:#000000; stroke-linecap:round; stroke-linejoin:round; stroke-width:4; stroke-opacity:1; fill:none" points="
  1747.6,1445.72 1747.6,1445.72 1782.26,1445.72 1747.6,1445.72 
  "/>
<path clip-path="url(#clip192)" d="
M1782.26 1162.92 L1782.26 1445.72 L1816.91 1445.72 L1816.91 1162.92 L1782.26 1162.92 L1782.26 1162.92  Z
  " fill="#e26f46" fill-rule="evenodd" fill-opacity="1"/>
<polyline clip-path="url(#clip192)" style="stroke:#000000; stroke-linecap:round; stroke-linejoin:round; stroke-width:4; stroke-opacity:1; fill:none" points="
  1782.26,1162.92 1782.26,1445.72 1816.91,1445.72 1816.91,1162.92 1782.26,1162.92 
  "/>
<path clip-path="url(#clip192)" d="
M1816.91 1260.49 L1816.91 1445.72 L1851.57 1445.72 L1851.57 1260.49 L1816.91 1260.49 L1816.91 1260.49  Z
  " fill="#e26f46" fill-rule="evenodd" fill-opacity="1"/>
<polyline clip-path="url(#clip192)" style="stroke:#000000; stroke-linecap:round; stroke-linejoin:round; stroke-width:4; stroke-opacity:1; fill:none" points="
  1816.91,1260.49 1816.91,1445.72 1851.57,1445.72 1851.57,1260.49 1816.91,1260.49 
  "/>
<path clip-path="url(#clip192)" d="
M1851.57 1445.72 L1851.57 1445.72 L1886.23 1445.72 L1886.23 1445.72 L1851.57 1445.72 L1851.57 1445.72  Z
  " fill="#e26f46" fill-rule="evenodd" fill-opacity="1"/>
<polyline clip-path="url(#clip192)" style="stroke:#000000; stroke-linecap:round; stroke-linejoin:round; stroke-width:4; stroke-opacity:1; fill:none" points="
  1851.57,1445.72 1851.57,1445.72 1886.23,1445.72 1851.57,1445.72 
  "/>
<path clip-path="url(#clip192)" d="
M1886.23 1318.38 L1886.23 1445.72 L1920.89 1445.72 L1920.89 1318.38 L1886.23 1318.38 L1886.23 1318.38  Z
  " fill="#e26f46" fill-rule="evenodd" fill-opacity="1"/>
<polyline clip-path="url(#clip192)" style="stroke:#000000; stroke-linecap:round; stroke-linejoin:round; stroke-width:4; stroke-opacity:1; fill:none" points="
  1886.23,1318.38 1886.23,1445.72 1920.89,1445.72 1920.89,1318.38 1886.23,1318.38 
  "/>
<path clip-path="url(#clip192)" d="
M1920.89 1381.22 L1920.89 1445.72 L1955.55 1445.72 L1955.55 1381.22 L1920.89 1381.22 L1920.89 1381.22  Z
  " fill="#e26f46" fill-rule="evenodd" fill-opacity="1"/>
<polyline clip-path="url(#clip192)" style="stroke:#000000; stroke-linecap:round; stroke-linejoin:round; stroke-width:4; stroke-opacity:1; fill:none" points="
  1920.89,1381.22 1920.89,1445.72 1955.55,1445.72 1955.55,1381.22 1920.89,1381.22 
  "/>
<path clip-path="url(#clip192)" d="
M1955.55 1445.72 L1955.55 1445.72 L1990.2 1445.72 L1990.2 1445.72 L1955.55 1445.72 L1955.55 1445.72  Z
  " fill="#e26f46" fill-rule="evenodd" fill-opacity="1"/>
<polyline clip-path="url(#clip192)" style="stroke:#000000; stroke-linecap:round; stroke-linejoin:round; stroke-width:4; stroke-opacity:1; fill:none" points="
  1955.55,1445.72 1955.55,1445.72 1990.2,1445.72 1955.55,1445.72 
  "/>
<path clip-path="url(#clip192)" d="
M1990.2 1387.83 L1990.2 1445.72 L2024.86 1445.72 L2024.86 1387.83 L1990.2 1387.83 L1990.2 1387.83  Z
  " fill="#e26f46" fill-rule="evenodd" fill-opacity="1"/>
<polyline clip-path="url(#clip192)" style="stroke:#000000; stroke-linecap:round; stroke-linejoin:round; stroke-width:4; stroke-opacity:1; fill:none" points="
  1990.2,1387.83 1990.2,1445.72 2024.86,1445.72 2024.86,1387.83 1990.2,1387.83 
  "/>
<path clip-path="url(#clip192)" d="
M2024.86 1420.91 L2024.86 1445.72 L2059.52 1445.72 L2059.52 1420.91 L2024.86 1420.91 L2024.86 1420.91  Z
  " fill="#e26f46" fill-rule="evenodd" fill-opacity="1"/>
<polyline clip-path="url(#clip192)" style="stroke:#000000; stroke-linecap:round; stroke-linejoin:round; stroke-width:4; stroke-opacity:1; fill:none" points="
  2024.86,1420.91 2024.86,1445.72 2059.52,1445.72 2059.52,1420.91 2024.86,1420.91 
  "/>
<path clip-path="url(#clip192)" d="
M2059.52 1445.72 L2059.52 1445.72 L2094.18 1445.72 L2094.18 1445.72 L2059.52 1445.72 L2059.52 1445.72  Z
  " fill="#e26f46" fill-rule="evenodd" fill-opacity="1"/>
<polyline clip-path="url(#clip192)" style="stroke:#000000; stroke-linecap:round; stroke-linejoin:round; stroke-width:4; stroke-opacity:1; fill:none" points="
  2059.52,1445.72 2059.52,1445.72 2094.18,1445.72 2059.52,1445.72 
  "/>
<path clip-path="url(#clip192)" d="
M2094.18 1432.49 L2094.18 1445.72 L2128.84 1445.72 L2128.84 1432.49 L2094.18 1432.49 L2094.18 1432.49  Z
  " fill="#e26f46" fill-rule="evenodd" fill-opacity="1"/>
<polyline clip-path="url(#clip192)" style="stroke:#000000; stroke-linecap:round; stroke-linejoin:round; stroke-width:4; stroke-opacity:1; fill:none" points="
  2094.18,1432.49 2094.18,1445.72 2128.84,1445.72 2128.84,1432.49 2094.18,1432.49 
  "/>
<path clip-path="url(#clip192)" d="
M2128.84 1445.72 L2128.84 1445.72 L2163.5 1445.72 L2163.5 1445.72 L2128.84 1445.72 L2128.84 1445.72  Z
  " fill="#e26f46" fill-rule="evenodd" fill-opacity="1"/>
<polyline clip-path="url(#clip192)" style="stroke:#000000; stroke-linecap:round; stroke-linejoin:round; stroke-width:4; stroke-opacity:1; fill:none" points="
  2128.84,1445.72 2128.84,1445.72 2163.5,1445.72 2128.84,1445.72 
  "/>
<path clip-path="url(#clip192)" d="
M2163.5 1442.41 L2163.5 1445.72 L2198.15 1445.72 L2198.15 1442.41 L2163.5 1442.41 L2163.5 1442.41  Z
  " fill="#e26f46" fill-rule="evenodd" fill-opacity="1"/>
<polyline clip-path="url(#clip192)" style="stroke:#000000; stroke-linecap:round; stroke-linejoin:round; stroke-width:4; stroke-opacity:1; fill:none" points="
  2163.5,1442.41 2163.5,1445.72 2198.15,1445.72 2198.15,1442.41 2163.5,1442.41 
  "/>
<path clip-path="url(#clip192)" d="
M2198.15 1444.06 L2198.15 1445.72 L2232.81 1445.72 L2232.81 1444.06 L2198.15 1444.06 L2198.15 1444.06  Z
  " fill="#e26f46" fill-rule="evenodd" fill-opacity="1"/>
<polyline clip-path="url(#clip192)" style="stroke:#000000; stroke-linecap:round; stroke-linejoin:round; stroke-width:4; stroke-opacity:1; fill:none" points="
  2198.15,1444.06 2198.15,1445.72 2232.81,1445.72 2232.81,1444.06 2198.15,1444.06 
  "/>
<circle clip-path="url(#clip192)" style="fill:#e26f46; stroke:none; fill-opacity:0" cx="309.288" cy="1444.06" r="2"/>
<circle clip-path="url(#clip192)" style="fill:#e26f46; stroke:none; fill-opacity:0" cx="343.947" cy="1445.72" r="2"/>
<circle clip-path="url(#clip192)" style="fill:#e26f46; stroke:none; fill-opacity:0" cx="378.605" cy="1445.72" r="2"/>
<circle clip-path="url(#clip192)" style="fill:#e26f46; stroke:none; fill-opacity:0" cx="413.263" cy="1442.41" r="2"/>
<circle clip-path="url(#clip192)" style="fill:#e26f46; stroke:none; fill-opacity:0" cx="447.921" cy="1445.72" r="2"/>
<circle clip-path="url(#clip192)" style="fill:#e26f46; stroke:none; fill-opacity:0" cx="482.579" cy="1440.75" r="2"/>
<circle clip-path="url(#clip192)" style="fill:#e26f46; stroke:none; fill-opacity:0" cx="517.237" cy="1432.49" r="2"/>
<circle clip-path="url(#clip192)" style="fill:#e26f46; stroke:none; fill-opacity:0" cx="551.895" cy="1445.72" r="2"/>
<circle clip-path="url(#clip192)" style="fill:#e26f46; stroke:none; fill-opacity:0" cx="586.553" cy="1417.6" r="2"/>
<circle clip-path="url(#clip192)" style="fill:#e26f46; stroke:none; fill-opacity:0" cx="621.211" cy="1445.72" r="2"/>
<circle clip-path="url(#clip192)" style="fill:#e26f46; stroke:none; fill-opacity:0" cx="655.869" cy="1396.1" r="2"/>
<circle clip-path="url(#clip192)" style="fill:#e26f46; stroke:none; fill-opacity:0" cx="690.527" cy="1379.57" r="2"/>
<circle clip-path="url(#clip192)" style="fill:#e26f46; stroke:none; fill-opacity:0" cx="725.185" cy="1445.72" r="2"/>
<circle clip-path="url(#clip192)" style="fill:#e26f46; stroke:none; fill-opacity:0" cx="759.843" cy="1306.8" r="2"/>
<circle clip-path="url(#clip192)" style="fill:#e26f46; stroke:none; fill-opacity:0" cx="794.501" cy="1267.11" r="2"/>
<circle clip-path="url(#clip192)" style="fill:#e26f46; stroke:none; fill-opacity:0" cx="829.16" cy="1445.72" r="2"/>
<circle clip-path="url(#clip192)" style="fill:#e26f46; stroke:none; fill-opacity:0" cx="863.818" cy="1164.58" r="2"/>
<circle clip-path="url(#clip192)" style="fill:#e26f46; stroke:none; fill-opacity:0" cx="898.476" cy="1045.51" r="2"/>
<circle clip-path="url(#clip192)" style="fill:#e26f46; stroke:none; fill-opacity:0" cx="933.134" cy="1445.72" r="2"/>
<circle clip-path="url(#clip192)" style="fill:#e26f46; stroke:none; fill-opacity:0" cx="967.792" cy="883.436" r="2"/>
<circle clip-path="url(#clip192)" style="fill:#e26f46; stroke:none; fill-opacity:0" cx="1002.45" cy="1445.72" r="2"/>
<circle clip-path="url(#clip192)" style="fill:#e26f46; stroke:none; fill-opacity:0" cx="1037.11" cy="770.98" r="2"/>
<circle clip-path="url(#clip192)" style="fill:#e26f46; stroke:none; fill-opacity:0" cx="1071.77" cy="584.105" r="2"/>
<circle clip-path="url(#clip192)" style="fill:#e26f46; stroke:none; fill-opacity:0" cx="1106.42" cy="1445.72" r="2"/>
<circle clip-path="url(#clip192)" style="fill:#e26f46; stroke:none; fill-opacity:0" cx="1141.08" cy="453.458" r="2"/>
<circle clip-path="url(#clip192)" style="fill:#e26f46; stroke:none; fill-opacity:0" cx="1175.74" cy="258.314" r="2"/>
<circle clip-path="url(#clip192)" style="fill:#e26f46; stroke:none; fill-opacity:0" cx="1210.4" cy="1445.72" r="2"/>
<circle clip-path="url(#clip192)" style="fill:#e26f46; stroke:none; fill-opacity:0" cx="1245.06" cy="177.279" r="2"/>
<circle clip-path="url(#clip192)" style="fill:#e26f46; stroke:none; fill-opacity:0" cx="1279.71" cy="155.781" r="2"/>
<circle clip-path="url(#clip192)" style="fill:#e26f46; stroke:none; fill-opacity:0" cx="1314.37" cy="1445.72" r="2"/>
<circle clip-path="url(#clip192)" style="fill:#e26f46; stroke:none; fill-opacity:0" cx="1349.03" cy="89.63" r="2"/>
<circle clip-path="url(#clip192)" style="fill:#e26f46; stroke:none; fill-opacity:0" cx="1383.69" cy="1445.72" r="2"/>
<circle clip-path="url(#clip192)" style="fill:#e26f46; stroke:none; fill-opacity:0" cx="1418.35" cy="117.744" r="2"/>
<circle clip-path="url(#clip192)" style="fill:#e26f46; stroke:none; fill-opacity:0" cx="1453" cy="150.819" r="2"/>
<circle clip-path="url(#clip192)" style="fill:#e26f46; stroke:none; fill-opacity:0" cx="1487.66" cy="1445.72" r="2"/>
<circle clip-path="url(#clip192)" style="fill:#e26f46; stroke:none; fill-opacity:0" cx="1522.32" cy="299.658" r="2"/>
<circle clip-path="url(#clip192)" style="fill:#e26f46; stroke:none; fill-opacity:0" cx="1556.98" cy="526.223" r="2"/>
<circle clip-path="url(#clip192)" style="fill:#e26f46; stroke:none; fill-opacity:0" cx="1591.64" cy="1445.72" r="2"/>
<circle clip-path="url(#clip192)" style="fill:#e26f46; stroke:none; fill-opacity:0" cx="1626.3" cy="683.331" r="2"/>
<circle clip-path="url(#clip192)" style="fill:#e26f46; stroke:none; fill-opacity:0" cx="1660.95" cy="868.552" r="2"/>
<circle clip-path="url(#clip192)" style="fill:#e26f46; stroke:none; fill-opacity:0" cx="1695.61" cy="1445.72" r="2"/>
<circle clip-path="url(#clip192)" style="fill:#e26f46; stroke:none; fill-opacity:0" cx="1730.27" cy="1055.43" r="2"/>
<circle clip-path="url(#clip192)" style="fill:#e26f46; stroke:none; fill-opacity:0" cx="1764.93" cy="1445.72" r="2"/>
<circle clip-path="url(#clip192)" style="fill:#e26f46; stroke:none; fill-opacity:0" cx="1799.59" cy="1162.92" r="2"/>
<circle clip-path="url(#clip192)" style="fill:#e26f46; stroke:none; fill-opacity:0" cx="1834.24" cy="1260.49" r="2"/>
<circle clip-path="url(#clip192)" style="fill:#e26f46; stroke:none; fill-opacity:0" cx="1868.9" cy="1445.72" r="2"/>
<circle clip-path="url(#clip192)" style="fill:#e26f46; stroke:none; fill-opacity:0" cx="1903.56" cy="1318.38" r="2"/>
<circle clip-path="url(#clip192)" style="fill:#e26f46; stroke:none; fill-opacity:0" cx="1938.22" cy="1381.22" r="2"/>
<circle clip-path="url(#clip192)" style="fill:#e26f46; stroke:none; fill-opacity:0" cx="1972.88" cy="1445.72" r="2"/>
<circle clip-path="url(#clip192)" style="fill:#e26f46; stroke:none; fill-opacity:0" cx="2007.53" cy="1387.83" r="2"/>
<circle clip-path="url(#clip192)" style="fill:#e26f46; stroke:none; fill-opacity:0" cx="2042.19" cy="1420.91" r="2"/>
<circle clip-path="url(#clip192)" style="fill:#e26f46; stroke:none; fill-opacity:0" cx="2076.85" cy="1445.72" r="2"/>
<circle clip-path="url(#clip192)" style="fill:#e26f46; stroke:none; fill-opacity:0" cx="2111.51" cy="1432.49" r="2"/>
<circle clip-path="url(#clip192)" style="fill:#e26f46; stroke:none; fill-opacity:0" cx="2146.17" cy="1445.72" r="2"/>
<circle clip-path="url(#clip192)" style="fill:#e26f46; stroke:none; fill-opacity:0" cx="2180.82" cy="1442.41" r="2"/>
<circle clip-path="url(#clip192)" style="fill:#e26f46; stroke:none; fill-opacity:0" cx="2215.48" cy="1444.06" r="2"/>
<path clip-path="url(#clip190)" d="
M1812.25 250.738 L2280.06 250.738 L2280.06 95.2176 L1812.25 95.2176  Z
  " fill="#ffffff" fill-rule="evenodd" fill-opacity="1"/>
<polyline clip-path="url(#clip190)" style="stroke:#000000; stroke-linecap:round; stroke-linejoin:round; stroke-width:4; stroke-opacity:1; fill:none" points="
  1812.25,250.738 2280.06,250.738 2280.06,95.2176 1812.25,95.2176 1812.25,250.738 
  "/>
<path clip-path="url(#clip190)" d="
M1836.48 167.794 L1981.86 167.794 L1981.86 126.322 L1836.48 126.322 L1836.48 167.794  Z
  " fill="#009af9" fill-rule="evenodd" fill-opacity="1"/>
<polyline clip-path="url(#clip190)" style="stroke:#000000; stroke-linecap:round; stroke-linejoin:round; stroke-width:4; stroke-opacity:1; fill:none" points="
  1836.48,167.794 1981.86,167.794 1981.86,126.322 1836.48,126.322 1836.48,167.794 
  "/>
<path clip-path="url(#clip190)" d="M2006.09 129.778 L2013.06 129.778 L2021.88 153.296 L2030.74 129.778 L2037.71 129.778 L2037.71 164.338 L2033.15 164.338 L2033.15 133.99 L2024.24 157.694 L2019.54 157.694 L2010.63 133.99 L2010.63 164.338 L2006.09 164.338 L2006.09 129.778 Z" fill="#000000" fill-rule="evenodd" fill-opacity="1" /><path clip-path="url(#clip190)" d="M2068.98 150.31 L2068.98 152.393 L2049.4 152.393 Q2049.68 156.791 2052.04 159.106 Q2054.42 161.398 2058.66 161.398 Q2061.11 161.398 2063.4 160.796 Q2065.72 160.194 2067.99 158.99 L2067.99 163.018 Q2065.7 163.99 2063.29 164.5 Q2060.88 165.009 2058.4 165.009 Q2052.2 165.009 2048.57 161.398 Q2044.96 157.787 2044.96 151.629 Q2044.96 145.264 2048.38 141.537 Q2051.83 137.787 2057.66 137.787 Q2062.9 137.787 2065.93 141.166 Q2068.98 144.523 2068.98 150.31 M2064.72 149.06 Q2064.68 145.565 2062.76 143.481 Q2060.86 141.398 2057.71 141.398 Q2054.15 141.398 2051.99 143.412 Q2049.86 145.426 2049.54 149.083 L2064.72 149.06 Z" fill="#000000" fill-rule="evenodd" fill-opacity="1" /><path clip-path="url(#clip190)" d="M2093.03 142.347 L2093.03 128.319 L2097.29 128.319 L2097.29 164.338 L2093.03 164.338 L2093.03 160.449 Q2091.69 162.763 2089.63 163.898 Q2087.59 165.009 2084.72 165.009 Q2080.02 165.009 2077.06 161.259 Q2074.12 157.509 2074.12 151.398 Q2074.12 145.287 2077.06 141.537 Q2080.02 137.787 2084.72 137.787 Q2087.59 137.787 2089.63 138.921 Q2091.69 140.032 2093.03 142.347 M2078.52 151.398 Q2078.52 156.097 2080.44 158.782 Q2082.39 161.444 2085.77 161.444 Q2089.15 161.444 2091.09 158.782 Q2093.03 156.097 2093.03 151.398 Q2093.03 146.699 2091.09 144.037 Q2089.15 141.352 2085.77 141.352 Q2082.39 141.352 2080.44 144.037 Q2078.52 146.699 2078.52 151.398 Z" fill="#000000" fill-rule="evenodd" fill-opacity="1" /><path clip-path="url(#clip190)" d="M2106.07 138.412 L2110.33 138.412 L2110.33 164.338 L2106.07 164.338 L2106.07 138.412 M2106.07 128.319 L2110.33 128.319 L2110.33 133.713 L2106.07 133.713 L2106.07 128.319 Z" fill="#000000" fill-rule="evenodd" fill-opacity="1" /><path clip-path="url(#clip190)" d="M2131.02 151.305 Q2125.86 151.305 2123.87 152.486 Q2121.88 153.666 2121.88 156.514 Q2121.88 158.782 2123.36 160.125 Q2124.86 161.444 2127.43 161.444 Q2130.97 161.444 2133.1 158.944 Q2135.26 156.421 2135.26 152.254 L2135.26 151.305 L2131.02 151.305 M2139.52 149.546 L2139.52 164.338 L2135.26 164.338 L2135.26 160.402 Q2133.8 162.763 2131.62 163.898 Q2129.45 165.009 2126.3 165.009 Q2122.32 165.009 2119.96 162.787 Q2117.62 160.541 2117.62 156.791 Q2117.62 152.416 2120.53 150.194 Q2123.47 147.972 2129.28 147.972 L2135.26 147.972 L2135.26 147.555 Q2135.26 144.615 2133.31 143.018 Q2131.39 141.398 2127.89 141.398 Q2125.67 141.398 2123.57 141.93 Q2121.46 142.463 2119.52 143.527 L2119.52 139.592 Q2121.85 138.69 2124.05 138.25 Q2126.25 137.787 2128.33 137.787 Q2133.96 137.787 2136.74 140.703 Q2139.52 143.62 2139.52 149.546 Z" fill="#000000" fill-rule="evenodd" fill-opacity="1" /><path clip-path="url(#clip190)" d="
M1836.48 219.634 L1981.86 219.634 L1981.86 178.162 L1836.48 178.162 L1836.48 219.634  Z
  " fill="#e26f46" fill-rule="evenodd" fill-opacity="1"/>
<polyline clip-path="url(#clip190)" style="stroke:#000000; stroke-linecap:round; stroke-linejoin:round; stroke-width:4; stroke-opacity:1; fill:none" points="
  1836.48,219.634 1981.86,219.634 1981.86,178.162 1836.48,178.162 1836.48,219.634 
  "/>
<path clip-path="url(#clip190)" d="M2006.09 181.618 L2010.77 181.618 L2010.77 195.784 L2027.76 195.784 L2027.76 181.618 L2032.43 181.618 L2032.43 216.178 L2027.76 216.178 L2027.76 199.719 L2010.77 199.719 L2010.77 216.178 L2006.09 216.178 L2006.09 181.618 Z" fill="#000000" fill-rule="evenodd" fill-opacity="1" /><path clip-path="url(#clip190)" d="M2041.55 190.252 L2045.81 190.252 L2045.81 216.178 L2041.55 216.178 L2041.55 190.252 M2041.55 180.159 L2045.81 180.159 L2045.81 185.553 L2041.55 185.553 L2041.55 180.159 Z" fill="#000000" fill-rule="evenodd" fill-opacity="1" /><path clip-path="url(#clip190)" d="M2058.94 182.891 L2058.94 190.252 L2067.71 190.252 L2067.71 193.562 L2058.94 193.562 L2058.94 207.636 Q2058.94 210.807 2059.79 211.71 Q2060.67 212.613 2063.34 212.613 L2067.71 212.613 L2067.71 216.178 L2063.34 216.178 Q2058.4 216.178 2056.53 214.349 Q2054.65 212.497 2054.65 207.636 L2054.65 193.562 L2051.53 193.562 L2051.53 190.252 L2054.65 190.252 L2054.65 182.891 L2058.94 182.891 Z" fill="#000000" fill-rule="evenodd" fill-opacity="1" /><path clip-path="url(#clip190)" d="M2071.16 201.293 L2083.64 201.293 L2083.64 205.09 L2071.16 205.09 L2071.16 201.293 Z" fill="#000000" fill-rule="evenodd" fill-opacity="1" /><path clip-path="url(#clip190)" d="M2101.34 193.238 Q2097.92 193.238 2095.93 195.923 Q2093.94 198.585 2093.94 203.238 Q2093.94 207.891 2095.9 210.576 Q2097.9 213.238 2101.34 213.238 Q2104.75 213.238 2106.74 210.553 Q2108.73 207.867 2108.73 203.238 Q2108.73 198.631 2106.74 195.946 Q2104.75 193.238 2101.34 193.238 M2101.34 189.627 Q2106.9 189.627 2110.07 193.238 Q2113.24 196.849 2113.24 203.238 Q2113.24 209.604 2110.07 213.238 Q2106.9 216.849 2101.34 216.849 Q2095.77 216.849 2092.59 213.238 Q2089.45 209.604 2089.45 203.238 Q2089.45 196.849 2092.59 193.238 Q2095.77 189.627 2101.34 189.627 Z" fill="#000000" fill-rule="evenodd" fill-opacity="1" /><path clip-path="url(#clip190)" d="M2135.33 194.233 Q2134.61 193.817 2133.75 193.631 Q2132.92 193.423 2131.9 193.423 Q2128.29 193.423 2126.34 195.784 Q2124.42 198.122 2124.42 202.52 L2124.42 216.178 L2120.14 216.178 L2120.14 190.252 L2124.42 190.252 L2124.42 194.28 Q2125.77 191.918 2127.92 190.784 Q2130.07 189.627 2133.15 189.627 Q2133.59 189.627 2134.12 189.696 Q2134.65 189.743 2135.3 189.858 L2135.33 194.233 Z" fill="#000000" fill-rule="evenodd" fill-opacity="1" /><path clip-path="url(#clip190)" d="M2134.61 201.293 L2147.08 201.293 L2147.08 205.09 L2134.61 205.09 L2134.61 201.293 Z" fill="#000000" fill-rule="evenodd" fill-opacity="1" /><path clip-path="url(#clip190)" d="M2174.05 195.229 Q2175.65 192.358 2177.87 190.993 Q2180.09 189.627 2183.1 189.627 Q2187.15 189.627 2189.35 192.474 Q2191.55 195.298 2191.55 200.529 L2191.55 216.178 L2187.27 216.178 L2187.27 200.668 Q2187.27 196.942 2185.95 195.136 Q2184.63 193.33 2181.92 193.33 Q2178.61 193.33 2176.69 195.53 Q2174.77 197.729 2174.77 201.525 L2174.77 216.178 L2170.49 216.178 L2170.49 200.668 Q2170.49 196.918 2169.17 195.136 Q2167.85 193.33 2165.09 193.33 Q2161.83 193.33 2159.91 195.553 Q2157.99 197.752 2157.99 201.525 L2157.99 216.178 L2153.7 216.178 L2153.7 190.252 L2157.99 190.252 L2157.99 194.28 Q2159.45 191.895 2161.48 190.761 Q2163.52 189.627 2166.32 189.627 Q2169.14 189.627 2171.11 191.062 Q2173.1 192.497 2174.05 195.229 Z" fill="#000000" fill-rule="evenodd" fill-opacity="1" /><path clip-path="url(#clip190)" d="M2200.05 190.252 L2204.31 190.252 L2204.31 216.178 L2200.05 216.178 L2200.05 190.252 M2200.05 180.159 L2204.31 180.159 L2204.31 185.553 L2200.05 185.553 L2200.05 180.159 Z" fill="#000000" fill-rule="evenodd" fill-opacity="1" /><path clip-path="url(#clip190)" d="M2229.75 191.016 L2229.75 195.043 Q2227.94 194.117 2226 193.655 Q2224.05 193.192 2221.97 193.192 Q2218.8 193.192 2217.2 194.164 Q2215.63 195.136 2215.63 197.08 Q2215.63 198.562 2216.76 199.418 Q2217.89 200.252 2221.32 201.016 L2222.78 201.34 Q2227.32 202.312 2229.21 204.094 Q2231.14 205.854 2231.14 209.025 Q2231.14 212.636 2228.26 214.742 Q2225.42 216.849 2220.42 216.849 Q2218.33 216.849 2216.07 216.432 Q2213.82 216.039 2211.32 215.228 L2211.32 210.83 Q2213.68 212.057 2215.97 212.682 Q2218.26 213.284 2220.51 213.284 Q2223.52 213.284 2225.14 212.266 Q2226.76 211.224 2226.76 209.349 Q2226.76 207.613 2225.58 206.687 Q2224.42 205.761 2220.46 204.904 L2218.98 204.557 Q2215.02 203.724 2213.26 202.011 Q2211.51 200.275 2211.51 197.266 Q2211.51 193.608 2214.1 191.618 Q2216.69 189.627 2221.46 189.627 Q2223.82 189.627 2225.9 189.974 Q2227.99 190.321 2229.75 191.016 Z" fill="#000000" fill-rule="evenodd" fill-opacity="1" /><path clip-path="url(#clip190)" d="M2254.45 191.016 L2254.45 195.043 Q2252.64 194.117 2250.7 193.655 Q2248.75 193.192 2246.67 193.192 Q2243.5 193.192 2241.9 194.164 Q2240.32 195.136 2240.32 197.08 Q2240.32 198.562 2241.46 199.418 Q2242.59 200.252 2246.02 201.016 L2247.48 201.34 Q2252.01 202.312 2253.91 204.094 Q2255.83 205.854 2255.83 209.025 Q2255.83 212.636 2252.96 214.742 Q2250.12 216.849 2245.12 216.849 Q2243.03 216.849 2240.76 216.432 Q2238.52 216.039 2236.02 215.228 L2236.02 210.83 Q2238.38 212.057 2240.67 212.682 Q2242.96 213.284 2245.21 213.284 Q2248.22 213.284 2249.84 212.266 Q2251.46 211.224 2251.46 209.349 Q2251.46 207.613 2250.28 206.687 Q2249.12 205.761 2245.16 204.904 L2243.68 204.557 Q2239.72 203.724 2237.96 202.011 Q2236.2 200.275 2236.2 197.266 Q2236.2 193.608 2238.8 191.618 Q2241.39 189.627 2246.16 189.627 Q2248.52 189.627 2250.6 189.974 Q2252.69 190.321 2254.45 191.016 Z" fill="#000000" fill-rule="evenodd" fill-opacity="1" /></svg>
