<?xml version="1.0" encoding="utf-8"?>
<svg xmlns="http://www.w3.org/2000/svg" xmlns:xlink="http://www.w3.org/1999/xlink" width="600" height="400" viewBox="0 0 2400 1600">
<defs>
  <clipPath id="clip350">
    <rect x="0" y="0" width="2400" height="1600"/>
  </clipPath>
</defs>
<path clip-path="url(#clip350)" d="
M0 1600 L2400 1600 L2400 0 L0 0  Z
  " fill="#ffffff" fill-rule="evenodd" fill-opacity="1"/>
<defs>
  <clipPath id="clip351">
    <rect x="480" y="0" width="1681" height="1600"/>
  </clipPath>
</defs>
<path clip-path="url(#clip350)" d="
M172.015 1486.45 L2352.76 1486.45 L2352.76 47.2441 L172.015 47.2441  Z
  " fill="#ffffff" fill-rule="evenodd" fill-opacity="1"/>
<defs>
  <clipPath id="clip352">
    <rect x="172" y="47" width="2182" height="1440"/>
  </clipPath>
</defs>
<polyline clip-path="url(#clip352)" style="stroke:#000000; stroke-linecap:round; stroke-linejoin:round; stroke-width:2; stroke-opacity:0.1; fill:none" points="
  240.884,1486.45 240.884,47.2441 
  "/>
<polyline clip-path="url(#clip352)" style="stroke:#000000; stroke-linecap:round; stroke-linejoin:round; stroke-width:2; stroke-opacity:0.1; fill:none" points="
  751.635,1486.45 751.635,47.2441 
  "/>
<polyline clip-path="url(#clip352)" style="stroke:#000000; stroke-linecap:round; stroke-linejoin:round; stroke-width:2; stroke-opacity:0.1; fill:none" points="
  1262.39,1486.45 1262.39,47.2441 
  "/>
<polyline clip-path="url(#clip352)" style="stroke:#000000; stroke-linecap:round; stroke-linejoin:round; stroke-width:2; stroke-opacity:0.1; fill:none" points="
  1773.14,1486.45 1773.14,47.2441 
  "/>
<polyline clip-path="url(#clip352)" style="stroke:#000000; stroke-linecap:round; stroke-linejoin:round; stroke-width:2; stroke-opacity:0.1; fill:none" points="
  2283.89,1486.45 2283.89,47.2441 
  "/>
<polyline clip-path="url(#clip350)" style="stroke:#000000; stroke-linecap:round; stroke-linejoin:round; stroke-width:4; stroke-opacity:1; fill:none" points="
  172.015,1486.45 2352.76,1486.45 
  "/>
<polyline clip-path="url(#clip350)" style="stroke:#000000; stroke-linecap:round; stroke-linejoin:round; stroke-width:4; stroke-opacity:1; fill:none" points="
  240.884,1486.45 240.884,1467.55 
  "/>
<polyline clip-path="url(#clip350)" style="stroke:#000000; stroke-linecap:round; stroke-linejoin:round; stroke-width:4; stroke-opacity:1; fill:none" points="
  751.635,1486.45 751.635,1467.55 
  "/>
<polyline clip-path="url(#clip350)" style="stroke:#000000; stroke-linecap:round; stroke-linejoin:round; stroke-width:4; stroke-opacity:1; fill:none" points="
  1262.39,1486.45 1262.39,1467.55 
  "/>
<polyline clip-path="url(#clip350)" style="stroke:#000000; stroke-linecap:round; stroke-linejoin:round; stroke-width:4; stroke-opacity:1; fill:none" points="
  1773.14,1486.45 1773.14,1467.55 
  "/>
<polyline clip-path="url(#clip350)" style="stroke:#000000; stroke-linecap:round; stroke-linejoin:round; stroke-width:4; stroke-opacity:1; fill:none" points="
  2283.89,1486.45 2283.89,1467.55 
  "/>
<path clip-path="url(#clip350)" d="M210.827 1532.02 L240.502 1532.02 L240.502 1535.95 L210.827 1535.95 L210.827 1532.02 Z" fill="#000000" fill-rule="evenodd" fill-opacity="1" /><path clip-path="url(#clip350)" d="M254.623 1544.91 L270.942 1544.91 L270.942 1548.85 L248.998 1548.85 L248.998 1544.91 Q251.66 1542.16 256.243 1537.53 Q260.85 1532.88 262.03 1531.53 Q264.275 1529.01 265.155 1527.27 Q266.058 1525.51 266.058 1523.82 Q266.058 1521.07 264.113 1519.33 Q262.192 1517.6 259.09 1517.6 Q256.891 1517.6 254.438 1518.36 Q252.007 1519.13 249.229 1520.68 L249.229 1515.95 Q252.053 1514.82 254.507 1514.24 Q256.961 1513.66 258.998 1513.66 Q264.368 1513.66 267.563 1516.35 Q270.757 1519.03 270.757 1523.52 Q270.757 1525.65 269.947 1527.57 Q269.16 1529.47 267.053 1532.07 Q266.475 1532.74 263.373 1535.95 Q260.271 1539.15 254.623 1544.91 Z" fill="#000000" fill-rule="evenodd" fill-opacity="1" /><path clip-path="url(#clip350)" d="M751.635 1517.37 Q748.024 1517.37 746.195 1520.93 Q744.39 1524.47 744.39 1531.6 Q744.39 1538.71 746.195 1542.27 Q748.024 1545.82 751.635 1545.82 Q755.269 1545.82 757.075 1542.27 Q758.903 1538.71 758.903 1531.6 Q758.903 1524.47 757.075 1520.93 Q755.269 1517.37 751.635 1517.37 M751.635 1513.66 Q757.445 1513.66 760.501 1518.27 Q763.579 1522.85 763.579 1531.6 Q763.579 1540.33 760.501 1544.94 Q757.445 1549.52 751.635 1549.52 Q745.825 1549.52 742.746 1544.94 Q739.691 1540.33 739.691 1531.6 Q739.691 1522.85 742.746 1518.27 Q745.825 1513.66 751.635 1513.66 Z" fill="#000000" fill-rule="evenodd" fill-opacity="1" /><path clip-path="url(#clip350)" d="M1257.04 1544.91 L1273.36 1544.91 L1273.36 1548.85 L1251.41 1548.85 L1251.41 1544.91 Q1254.08 1542.16 1258.66 1537.53 Q1263.26 1532.88 1264.45 1531.53 Q1266.69 1529.01 1267.57 1527.27 Q1268.47 1525.51 1268.47 1523.82 Q1268.47 1521.07 1266.53 1519.33 Q1264.61 1517.6 1261.51 1517.6 Q1259.31 1517.6 1256.85 1518.36 Q1254.42 1519.13 1251.64 1520.68 L1251.64 1515.95 Q1254.47 1514.82 1256.92 1514.24 Q1259.38 1513.66 1261.41 1513.66 Q1266.78 1513.66 1269.98 1516.35 Q1273.17 1519.03 1273.17 1523.52 Q1273.17 1525.65 1272.36 1527.57 Q1271.58 1529.47 1269.47 1532.07 Q1268.89 1532.74 1265.79 1535.95 Q1262.69 1539.15 1257.04 1544.91 Z" fill="#000000" fill-rule="evenodd" fill-opacity="1" /><path clip-path="url(#clip350)" d="M1776.15 1518.36 L1764.34 1536.81 L1776.15 1536.81 L1776.15 1518.36 M1774.92 1514.29 L1780.8 1514.29 L1780.8 1536.81 L1785.73 1536.81 L1785.73 1540.7 L1780.8 1540.7 L1780.8 1548.85 L1776.15 1548.85 L1776.15 1540.7 L1760.54 1540.7 L1760.54 1536.19 L1774.92 1514.29 Z" fill="#000000" fill-rule="evenodd" fill-opacity="1" /><path clip-path="url(#clip350)" d="M2284.29 1529.7 Q2281.14 1529.7 2279.29 1531.86 Q2277.46 1534.01 2277.46 1537.76 Q2277.46 1541.49 2279.29 1543.66 Q2281.14 1545.82 2284.29 1545.82 Q2287.44 1545.82 2289.27 1543.66 Q2291.12 1541.49 2291.12 1537.76 Q2291.12 1534.01 2289.27 1531.86 Q2287.44 1529.7 2284.29 1529.7 M2293.57 1515.05 L2293.57 1519.31 Q2291.81 1518.48 2290.01 1518.04 Q2288.23 1517.6 2286.47 1517.6 Q2281.84 1517.6 2279.38 1520.72 Q2276.95 1523.85 2276.61 1530.17 Q2277.97 1528.15 2280.03 1527.09 Q2282.09 1526 2284.57 1526 Q2289.78 1526 2292.79 1529.17 Q2295.82 1532.32 2295.82 1537.76 Q2295.82 1543.08 2292.67 1546.3 Q2289.52 1549.52 2284.29 1549.52 Q2278.3 1549.52 2275.12 1544.94 Q2271.95 1540.33 2271.95 1531.6 Q2271.95 1523.41 2275.84 1518.55 Q2279.73 1513.66 2286.28 1513.66 Q2288.04 1513.66 2289.82 1514.01 Q2291.63 1514.36 2293.57 1515.05 Z" fill="#000000" fill-rule="evenodd" fill-opacity="1" /><polyline clip-path="url(#clip352)" style="stroke:#000000; stroke-linecap:round; stroke-linejoin:round; stroke-width:2; stroke-opacity:0.1; fill:none" points="
  172.015,1445.72 2352.76,1445.72 
  "/>
<polyline clip-path="url(#clip352)" style="stroke:#000000; stroke-linecap:round; stroke-linejoin:round; stroke-width:2; stroke-opacity:0.1; fill:none" points="
  172.015,1103.28 2352.76,1103.28 
  "/>
<polyline clip-path="url(#clip352)" style="stroke:#000000; stroke-linecap:round; stroke-linejoin:round; stroke-width:2; stroke-opacity:0.1; fill:none" points="
  172.015,760.853 2352.76,760.853 
  "/>
<polyline clip-path="url(#clip352)" style="stroke:#000000; stroke-linecap:round; stroke-linejoin:round; stroke-width:2; stroke-opacity:0.1; fill:none" points="
  172.015,418.422 2352.76,418.422 
  "/>
<polyline clip-path="url(#clip352)" style="stroke:#000000; stroke-linecap:round; stroke-linejoin:round; stroke-width:2; stroke-opacity:0.1; fill:none" points="
  172.015,75.9912 2352.76,75.9912 
  "/>
<polyline clip-path="url(#clip350)" style="stroke:#000000; stroke-linecap:round; stroke-linejoin:round; stroke-width:4; stroke-opacity:1; fill:none" points="
  172.015,1486.45 172.015,47.2441 
  "/>
<polyline clip-path="url(#clip350)" style="stroke:#000000; stroke-linecap:round; stroke-linejoin:round; stroke-width:4; stroke-opacity:1; fill:none" points="
  172.015,1445.72 190.912,1445.72 
  "/>
<polyline clip-path="url(#clip350)" style="stroke:#000000; stroke-linecap:round; stroke-linejoin:round; stroke-width:4; stroke-opacity:1; fill:none" points="
  172.015,1103.28 190.912,1103.28 
  "/>
<polyline clip-path="url(#clip350)" style="stroke:#000000; stroke-linecap:round; stroke-linejoin:round; stroke-width:4; stroke-opacity:1; fill:none" points="
  172.015,760.853 190.912,760.853 
  "/>
<polyline clip-path="url(#clip350)" style="stroke:#000000; stroke-linecap:round; stroke-linejoin:round; stroke-width:4; stroke-opacity:1; fill:none" points="
  172.015,418.422 190.912,418.422 
  "/>
<polyline clip-path="url(#clip350)" style="stroke:#000000; stroke-linecap:round; stroke-linejoin:round; stroke-width:4; stroke-opacity:1; fill:none" points="
  172.015,75.9912 190.912,75.9912 
  "/>
<path clip-path="url(#clip350)" d="M124.07 1431.51 Q120.459 1431.51 118.631 1435.08 Q116.825 1438.62 116.825 1445.75 Q116.825 1452.86 118.631 1456.42 Q120.459 1459.96 124.07 1459.96 Q127.705 1459.96 129.51 1456.42 Q131.339 1452.86 131.339 1445.75 Q131.339 1438.62 129.51 1435.08 Q127.705 1431.51 124.07 1431.51 M124.07 1427.81 Q129.881 1427.81 132.936 1432.42 Q136.015 1437 136.015 1445.75 Q136.015 1454.48 132.936 1459.08 Q129.881 1463.67 124.07 1463.67 Q118.26 1463.67 115.182 1459.08 Q112.126 1454.48 112.126 1445.75 Q112.126 1437 115.182 1432.42 Q118.26 1427.81 124.07 1427.81 Z" fill="#000000" fill-rule="evenodd" fill-opacity="1" /><path clip-path="url(#clip350)" d="M57.7745 1116.63 L74.0939 1116.63 L74.0939 1120.56 L52.1495 1120.56 L52.1495 1116.63 Q54.8115 1113.87 59.3949 1109.25 Q64.0013 1104.59 65.1819 1103.25 Q67.4272 1100.73 68.3068 1098.99 Q69.2096 1097.23 69.2096 1095.54 Q69.2096 1092.79 67.2652 1091.05 Q65.3439 1089.31 62.2421 1089.31 Q60.043 1089.31 57.5893 1090.08 Q55.1588 1090.84 52.381 1092.39 L52.381 1087.67 Q55.2051 1086.54 57.6588 1085.96 Q60.1124 1085.38 62.1495 1085.38 Q67.5198 1085.38 70.7142 1088.06 Q73.9087 1090.75 73.9087 1095.24 Q73.9087 1097.37 73.0985 1099.29 Q72.3115 1101.19 70.205 1103.78 Q69.6263 1104.45 66.5245 1107.67 Q63.4226 1110.87 57.7745 1116.63 Z" fill="#000000" fill-rule="evenodd" fill-opacity="1" /><path clip-path="url(#clip350)" d="M93.9086 1089.08 Q90.2975 1089.08 88.4688 1092.65 Q86.6632 1096.19 86.6632 1103.32 Q86.6632 1110.43 88.4688 1113.99 Q90.2975 1117.53 93.9086 1117.53 Q97.5428 1117.53 99.3483 1113.99 Q101.177 1110.43 101.177 1103.32 Q101.177 1096.19 99.3483 1092.65 Q97.5428 1089.08 93.9086 1089.08 M93.9086 1085.38 Q99.7187 1085.38 102.774 1089.99 Q105.853 1094.57 105.853 1103.32 Q105.853 1112.05 102.774 1116.65 Q99.7187 1121.24 93.9086 1121.24 Q88.0984 1121.24 85.0197 1116.65 Q81.9642 1112.05 81.9642 1103.32 Q81.9642 1094.57 85.0197 1089.99 Q88.0984 1085.38 93.9086 1085.38 Z" fill="#000000" fill-rule="evenodd" fill-opacity="1" /><path clip-path="url(#clip350)" d="M124.07 1089.08 Q120.459 1089.08 118.631 1092.65 Q116.825 1096.19 116.825 1103.32 Q116.825 1110.43 118.631 1113.99 Q120.459 1117.53 124.07 1117.53 Q127.705 1117.53 129.51 1113.99 Q131.339 1110.43 131.339 1103.32 Q131.339 1096.19 129.51 1092.65 Q127.705 1089.08 124.07 1089.08 M124.07 1085.38 Q129.881 1085.38 132.936 1089.99 Q136.015 1094.57 136.015 1103.32 Q136.015 1112.05 132.936 1116.65 Q129.881 1121.24 124.07 1121.24 Q118.26 1121.24 115.182 1116.65 Q112.126 1112.05 112.126 1103.32 Q112.126 1094.57 115.182 1089.99 Q118.26 1085.38 124.07 1085.38 Z" fill="#000000" fill-rule="evenodd" fill-opacity="1" /><path clip-path="url(#clip350)" d="M66.5939 747.647 L54.7884 766.096 L66.5939 766.096 L66.5939 747.647 M65.367 743.573 L71.2466 743.573 L71.2466 766.096 L76.1772 766.096 L76.1772 769.985 L71.2466 769.985 L71.2466 778.133 L66.5939 778.133 L66.5939 769.985 L50.9921 769.985 L50.9921 765.471 L65.367 743.573 Z" fill="#000000" fill-rule="evenodd" fill-opacity="1" /><path clip-path="url(#clip350)" d="M93.9086 746.652 Q90.2975 746.652 88.4688 750.217 Q86.6632 753.759 86.6632 760.888 Q86.6632 767.995 88.4688 771.559 Q90.2975 775.101 93.9086 775.101 Q97.5428 775.101 99.3483 771.559 Q101.177 767.995 101.177 760.888 Q101.177 753.759 99.3483 750.217 Q97.5428 746.652 93.9086 746.652 M93.9086 742.948 Q99.7187 742.948 102.774 747.555 Q105.853 752.138 105.853 760.888 Q105.853 769.615 102.774 774.221 Q99.7187 778.805 93.9086 778.805 Q88.0984 778.805 85.0197 774.221 Q81.9642 769.615 81.9642 760.888 Q81.9642 752.138 85.0197 747.555 Q88.0984 742.948 93.9086 742.948 Z" fill="#000000" fill-rule="evenodd" fill-opacity="1" /><path clip-path="url(#clip350)" d="M124.07 746.652 Q120.459 746.652 118.631 750.217 Q116.825 753.759 116.825 760.888 Q116.825 767.995 118.631 771.559 Q120.459 775.101 124.07 775.101 Q127.705 775.101 129.51 771.559 Q131.339 767.995 131.339 760.888 Q131.339 753.759 129.51 750.217 Q127.705 746.652 124.07 746.652 M124.07 742.948 Q129.881 742.948 132.936 747.555 Q136.015 752.138 136.015 760.888 Q136.015 769.615 132.936 774.221 Q129.881 778.805 124.07 778.805 Q118.26 778.805 115.182 774.221 Q112.126 769.615 112.126 760.888 Q112.126 752.138 115.182 747.555 Q118.26 742.948 124.07 742.948 Z" fill="#000000" fill-rule="evenodd" fill-opacity="1" /><path clip-path="url(#clip350)" d="M64.3254 416.559 Q61.1773 416.559 59.3254 418.712 Q57.4967 420.864 57.4967 424.614 Q57.4967 428.341 59.3254 430.517 Q61.1773 432.67 64.3254 432.67 Q67.4735 432.67 69.3022 430.517 Q71.1541 428.341 71.1541 424.614 Q71.1541 420.864 69.3022 418.712 Q67.4735 416.559 64.3254 416.559 M73.6077 401.906 L73.6077 406.165 Q71.8485 405.332 70.0429 404.892 Q68.2606 404.452 66.5013 404.452 Q61.8717 404.452 59.418 407.577 Q56.9875 410.702 56.6402 417.022 Q58.006 415.008 60.0662 413.943 Q62.1263 412.855 64.6032 412.855 Q69.8115 412.855 72.8207 416.026 Q75.8531 419.175 75.8531 424.614 Q75.8531 429.938 72.705 433.156 Q69.5568 436.374 64.3254 436.374 Q58.33 436.374 55.1588 431.79 Q51.9875 427.184 51.9875 418.457 Q51.9875 410.263 55.8764 405.402 Q59.7652 400.517 66.3161 400.517 Q68.0754 400.517 69.8578 400.865 Q71.6633 401.212 73.6077 401.906 Z" fill="#000000" fill-rule="evenodd" fill-opacity="1" /><path clip-path="url(#clip350)" d="M93.9086 404.221 Q90.2975 404.221 88.4688 407.786 Q86.6632 411.327 86.6632 418.457 Q86.6632 425.563 88.4688 429.128 Q90.2975 432.67 93.9086 432.67 Q97.5428 432.67 99.3483 429.128 Q101.177 425.563 101.177 418.457 Q101.177 411.327 99.3483 407.786 Q97.5428 404.221 93.9086 404.221 M93.9086 400.517 Q99.7187 400.517 102.774 405.124 Q105.853 409.707 105.853 418.457 Q105.853 427.184 102.774 431.79 Q99.7187 436.374 93.9086 436.374 Q88.0984 436.374 85.0197 431.79 Q81.9642 427.184 81.9642 418.457 Q81.9642 409.707 85.0197 405.124 Q88.0984 400.517 93.9086 400.517 Z" fill="#000000" fill-rule="evenodd" fill-opacity="1" /><path clip-path="url(#clip350)" d="M124.07 404.221 Q120.459 404.221 118.631 407.786 Q116.825 411.327 116.825 418.457 Q116.825 425.563 118.631 429.128 Q120.459 432.67 124.07 432.67 Q127.705 432.67 129.51 429.128 Q131.339 425.563 131.339 418.457 Q131.339 411.327 129.51 407.786 Q127.705 404.221 124.07 404.221 M124.07 400.517 Q129.881 400.517 132.936 405.124 Q136.015 409.707 136.015 418.457 Q136.015 427.184 132.936 431.79 Q129.881 436.374 124.07 436.374 Q118.26 436.374 115.182 431.79 Q112.126 427.184 112.126 418.457 Q112.126 409.707 115.182 405.124 Q118.26 400.517 124.07 400.517 Z" fill="#000000" fill-rule="evenodd" fill-opacity="1" /><path clip-path="url(#clip350)" d="M63.7467 76.8592 Q60.4134 76.8592 58.4921 78.6416 Q56.5939 80.424 56.5939 83.549 Q56.5939 86.674 58.4921 88.4564 Q60.4134 90.2388 63.7467 90.2388 Q67.08 90.2388 69.0013 88.4564 Q70.9226 86.6509 70.9226 83.549 Q70.9226 80.424 69.0013 78.6416 Q67.1032 76.8592 63.7467 76.8592 M59.0708 74.8685 Q56.0615 74.1278 54.3717 72.0676 Q52.7051 70.0074 52.7051 67.0445 Q52.7051 62.901 55.6449 60.4936 Q58.6078 58.0862 63.7467 58.0862 Q68.9087 58.0862 71.8485 60.4936 Q74.7883 62.901 74.7883 67.0445 Q74.7883 70.0074 73.0985 72.0676 Q71.4318 74.1278 68.4457 74.8685 Q71.8253 75.6555 73.7003 77.9472 Q75.5985 80.2388 75.5985 83.549 Q75.5985 88.5721 72.5198 91.2573 Q69.4642 93.9425 63.7467 93.9425 Q58.0291 93.9425 54.9504 91.2573 Q51.8949 88.5721 51.8949 83.549 Q51.8949 80.2388 53.793 77.9472 Q55.6912 75.6555 59.0708 74.8685 M57.3578 67.4843 Q57.3578 70.1695 59.0245 71.6741 Q60.7143 73.1787 63.7467 73.1787 Q66.7559 73.1787 68.4457 71.6741 Q70.1587 70.1695 70.1587 67.4843 Q70.1587 64.7991 68.4457 63.2945 Q66.7559 61.7899 63.7467 61.7899 Q60.7143 61.7899 59.0245 63.2945 Q57.3578 64.7991 57.3578 67.4843 Z" fill="#000000" fill-rule="evenodd" fill-opacity="1" /><path clip-path="url(#clip350)" d="M93.9086 61.7899 Q90.2975 61.7899 88.4688 65.3547 Q86.6632 68.8963 86.6632 76.0259 Q86.6632 83.1324 88.4688 86.6971 Q90.2975 90.2388 93.9086 90.2388 Q97.5428 90.2388 99.3483 86.6971 Q101.177 83.1324 101.177 76.0259 Q101.177 68.8963 99.3483 65.3547 Q97.5428 61.7899 93.9086 61.7899 M93.9086 58.0862 Q99.7187 58.0862 102.774 62.6926 Q105.853 67.276 105.853 76.0259 Q105.853 84.7527 102.774 89.3592 Q99.7187 93.9425 93.9086 93.9425 Q88.0984 93.9425 85.0197 89.3592 Q81.9642 84.7527 81.9642 76.0259 Q81.9642 67.276 85.0197 62.6926 Q88.0984 58.0862 93.9086 58.0862 Z" fill="#000000" fill-rule="evenodd" fill-opacity="1" /><path clip-path="url(#clip350)" d="M124.07 61.7899 Q120.459 61.7899 118.631 65.3547 Q116.825 68.8963 116.825 76.0259 Q116.825 83.1324 118.631 86.6971 Q120.459 90.2388 124.07 90.2388 Q127.705 90.2388 129.51 86.6971 Q131.339 83.1324 131.339 76.0259 Q131.339 68.8963 129.51 65.3547 Q127.705 61.7899 124.07 61.7899 M124.07 58.0862 Q129.881 58.0862 132.936 62.6926 Q136.015 67.276 136.015 76.0259 Q136.015 84.7527 132.936 89.3592 Q129.881 93.9425 124.07 93.9425 Q118.26 93.9425 115.182 89.3592 Q112.126 84.7527 112.126 76.0259 Q112.126 67.276 115.182 62.6926 Q118.26 58.0862 124.07 58.0862 Z" fill="#000000" fill-rule="evenodd" fill-opacity="1" /><path clip-path="url(#clip352)" d="
M291.959 1444 L291.959 1445.72 L343.035 1445.72 L343.035 1444 L291.959 1444 L291.959 1444  Z
  " fill="#009af9" fill-rule="evenodd" fill-opacity="1"/>
<polyline clip-path="url(#clip352)" style="stroke:#000000; stroke-linecap:round; stroke-linejoin:round; stroke-width:4; stroke-opacity:1; fill:none" points="
  291.959,1444 291.959,1445.72 343.035,1445.72 343.035,1444 291.959,1444 
  "/>
<path clip-path="url(#clip352)" d="
M343.035 1442.29 L343.035 1445.72 L394.11 1445.72 L394.11 1442.29 L343.035 1442.29 L343.035 1442.29  Z
  " fill="#009af9" fill-rule="evenodd" fill-opacity="1"/>
<polyline clip-path="url(#clip352)" style="stroke:#000000; stroke-linecap:round; stroke-linejoin:round; stroke-width:4; stroke-opacity:1; fill:none" points="
  343.035,1442.29 343.035,1445.72 394.11,1445.72 394.11,1442.29 343.035,1442.29 
  "/>
<path clip-path="url(#clip352)" d="
M394.11 1440.58 L394.11 1445.72 L445.185 1445.72 L445.185 1440.58 L394.11 1440.58 L394.11 1440.58  Z
  " fill="#009af9" fill-rule="evenodd" fill-opacity="1"/>
<polyline clip-path="url(#clip352)" style="stroke:#000000; stroke-linecap:round; stroke-linejoin:round; stroke-width:4; stroke-opacity:1; fill:none" points="
  394.11,1440.58 394.11,1445.72 445.185,1445.72 445.185,1440.58 394.11,1440.58 
  "/>
<path clip-path="url(#clip352)" d="
M445.185 1442.29 L445.185 1445.72 L496.26 1445.72 L496.26 1442.29 L445.185 1442.29 L445.185 1442.29  Z
  " fill="#009af9" fill-rule="evenodd" fill-opacity="1"/>
<polyline clip-path="url(#clip352)" style="stroke:#000000; stroke-linecap:round; stroke-linejoin:round; stroke-width:4; stroke-opacity:1; fill:none" points="
  445.185,1442.29 445.185,1445.72 496.26,1445.72 496.26,1442.29 445.185,1442.29 
  "/>
<path clip-path="url(#clip352)" d="
M496.26 1425.17 L496.26 1445.72 L547.335 1445.72 L547.335 1425.17 L496.26 1425.17 L496.26 1425.17  Z
  " fill="#009af9" fill-rule="evenodd" fill-opacity="1"/>
<polyline clip-path="url(#clip352)" style="stroke:#000000; stroke-linecap:round; stroke-linejoin:round; stroke-width:4; stroke-opacity:1; fill:none" points="
  496.26,1425.17 496.26,1445.72 547.335,1445.72 547.335,1425.17 496.26,1425.17 
  "/>
<path clip-path="url(#clip352)" d="
M547.335 1401.2 L547.335 1445.72 L598.41 1445.72 L598.41 1401.2 L547.335 1401.2 L547.335 1401.2  Z
  " fill="#009af9" fill-rule="evenodd" fill-opacity="1"/>
<polyline clip-path="url(#clip352)" style="stroke:#000000; stroke-linecap:round; stroke-linejoin:round; stroke-width:4; stroke-opacity:1; fill:none" points="
  547.335,1401.2 547.335,1445.72 598.41,1445.72 598.41,1401.2 547.335,1401.2 
  "/>
<path clip-path="url(#clip352)" d="
M598.41 1377.23 L598.41 1445.72 L649.485 1445.72 L649.485 1377.23 L598.41 1377.23 L598.41 1377.23  Z
  " fill="#009af9" fill-rule="evenodd" fill-opacity="1"/>
<polyline clip-path="url(#clip352)" style="stroke:#000000; stroke-linecap:round; stroke-linejoin:round; stroke-width:4; stroke-opacity:1; fill:none" points="
  598.41,1377.23 598.41,1445.72 649.485,1445.72 649.485,1377.23 598.41,1377.23 
  "/>
<path clip-path="url(#clip352)" d="
M649.485 1354.97 L649.485 1445.72 L700.56 1445.72 L700.56 1354.97 L649.485 1354.97 L649.485 1354.97  Z
  " fill="#009af9" fill-rule="evenodd" fill-opacity="1"/>
<polyline clip-path="url(#clip352)" style="stroke:#000000; stroke-linecap:round; stroke-linejoin:round; stroke-width:4; stroke-opacity:1; fill:none" points="
  649.485,1354.97 649.485,1445.72 700.56,1445.72 700.56,1354.97 649.485,1354.97 
  "/>
<path clip-path="url(#clip352)" d="
M700.56 1255.67 L700.56 1445.72 L751.635 1445.72 L751.635 1255.67 L700.56 1255.67 L700.56 1255.67  Z
  " fill="#009af9" fill-rule="evenodd" fill-opacity="1"/>
<polyline clip-path="url(#clip352)" style="stroke:#000000; stroke-linecap:round; stroke-linejoin:round; stroke-width:4; stroke-opacity:1; fill:none" points="
  700.56,1255.67 700.56,1445.72 751.635,1445.72 751.635,1255.67 700.56,1255.67 
  "/>
<path clip-path="url(#clip352)" d="
M751.635 1245.39 L751.635 1445.72 L802.71 1445.72 L802.71 1245.39 L751.635 1245.39 L751.635 1245.39  Z
  " fill="#009af9" fill-rule="evenodd" fill-opacity="1"/>
<polyline clip-path="url(#clip352)" style="stroke:#000000; stroke-linecap:round; stroke-linejoin:round; stroke-width:4; stroke-opacity:1; fill:none" points="
  751.635,1245.39 751.635,1445.72 802.71,1445.72 802.71,1245.39 751.635,1245.39 
  "/>
<path clip-path="url(#clip352)" d="
M802.71 1110.13 L802.71 1445.72 L853.785 1445.72 L853.785 1110.13 L802.71 1110.13 L802.71 1110.13  Z
  " fill="#009af9" fill-rule="evenodd" fill-opacity="1"/>
<polyline clip-path="url(#clip352)" style="stroke:#000000; stroke-linecap:round; stroke-linejoin:round; stroke-width:4; stroke-opacity:1; fill:none" points="
  802.71,1110.13 802.71,1445.72 853.785,1445.72 853.785,1110.13 802.71,1110.13 
  "/>
<path clip-path="url(#clip352)" d="
M853.785 969.736 L853.785 1445.72 L904.86 1445.72 L904.86 969.736 L853.785 969.736 L853.785 969.736  Z
  " fill="#009af9" fill-rule="evenodd" fill-opacity="1"/>
<polyline clip-path="url(#clip352)" style="stroke:#000000; stroke-linecap:round; stroke-linejoin:round; stroke-width:4; stroke-opacity:1; fill:none" points="
  853.785,969.736 853.785,1445.72 904.86,1445.72 904.86,969.736 853.785,969.736 
  "/>
<path clip-path="url(#clip352)" d="
M904.86 884.129 L904.86 1445.72 L955.935 1445.72 L955.935 884.129 L904.86 884.129 L904.86 884.129  Z
  " fill="#009af9" fill-rule="evenodd" fill-opacity="1"/>
<polyline clip-path="url(#clip352)" style="stroke:#000000; stroke-linecap:round; stroke-linejoin:round; stroke-width:4; stroke-opacity:1; fill:none" points="
  904.86,884.129 904.86,1445.72 955.935,1445.72 955.935,884.129 904.86,884.129 
  "/>
<path clip-path="url(#clip352)" d="
M955.935 617.032 L955.935 1445.72 L1007.01 1445.72 L1007.01 617.032 L955.935 617.032 L955.935 617.032  Z
  " fill="#009af9" fill-rule="evenodd" fill-opacity="1"/>
<polyline clip-path="url(#clip352)" style="stroke:#000000; stroke-linecap:round; stroke-linejoin:round; stroke-width:4; stroke-opacity:1; fill:none" points="
  955.935,617.032 955.935,1445.72 1007.01,1445.72 1007.01,617.032 955.935,617.032 
  "/>
<path clip-path="url(#clip352)" d="
M1007.01 548.546 L1007.01 1445.72 L1058.09 1445.72 L1058.09 548.546 L1007.01 548.546 L1007.01 548.546  Z
  " fill="#009af9" fill-rule="evenodd" fill-opacity="1"/>
<polyline clip-path="url(#clip352)" style="stroke:#000000; stroke-linecap:round; stroke-linejoin:round; stroke-width:4; stroke-opacity:1; fill:none" points="
  1007.01,548.546 1007.01,1445.72 1058.09,1445.72 1058.09,548.546 1007.01,548.546 
  "/>
<path clip-path="url(#clip352)" d="
M1058.09 379.043 L1058.09 1445.72 L1109.16 1445.72 L1109.16 379.043 L1058.09 379.043 L1058.09 379.043  Z
  " fill="#009af9" fill-rule="evenodd" fill-opacity="1"/>
<polyline clip-path="url(#clip352)" style="stroke:#000000; stroke-linecap:round; stroke-linejoin:round; stroke-width:4; stroke-opacity:1; fill:none" points="
  1058.09,379.043 1058.09,1445.72 1109.16,1445.72 1109.16,379.043 1058.09,379.043 
  "/>
<path clip-path="url(#clip352)" d="
M1109.16 177.008 L1109.16 1445.72 L1160.24 1445.72 L1160.24 177.008 L1109.16 177.008 L1109.16 177.008  Z
  " fill="#009af9" fill-rule="evenodd" fill-opacity="1"/>
<polyline clip-path="url(#clip352)" style="stroke:#000000; stroke-linecap:round; stroke-linejoin:round; stroke-width:4; stroke-opacity:1; fill:none" points="
  1109.16,177.008 1109.16,1445.72 1160.24,1445.72 1160.24,177.008 1109.16,177.008 
  "/>
<path clip-path="url(#clip352)" d="
M1160.24 177.008 L1160.24 1445.72 L1211.31 1445.72 L1211.31 177.008 L1160.24 177.008 L1160.24 177.008  Z
  " fill="#009af9" fill-rule="evenodd" fill-opacity="1"/>
<polyline clip-path="url(#clip352)" style="stroke:#000000; stroke-linecap:round; stroke-linejoin:round; stroke-width:4; stroke-opacity:1; fill:none" points="
  1160.24,177.008 1160.24,1445.72 1211.31,1445.72 1211.31,177.008 1160.24,177.008 
  "/>
<path clip-path="url(#clip352)" d="
M1211.31 111.946 L1211.31 1445.72 L1262.39 1445.72 L1262.39 111.946 L1211.31 111.946 L1211.31 111.946  Z
  " fill="#009af9" fill-rule="evenodd" fill-opacity="1"/>
<polyline clip-path="url(#clip352)" style="stroke:#000000; stroke-linecap:round; stroke-linejoin:round; stroke-width:4; stroke-opacity:1; fill:none" points="
  1211.31,111.946 1211.31,1445.72 1262.39,1445.72 1262.39,111.946 1211.31,111.946 
  "/>
<path clip-path="url(#clip352)" d="
M1262.39 87.9763 L1262.39 1445.72 L1313.46 1445.72 L1313.46 87.9763 L1262.39 87.9763 L1262.39 87.9763  Z
  " fill="#009af9" fill-rule="evenodd" fill-opacity="1"/>
<polyline clip-path="url(#clip352)" style="stroke:#000000; stroke-linecap:round; stroke-linejoin:round; stroke-width:4; stroke-opacity:1; fill:none" points="
  1262.39,87.9763 1262.39,1445.72 1313.46,1445.72 1313.46,87.9763 1262.39,87.9763 
  "/>
<path clip-path="url(#clip352)" d="
M1313.46 130.78 L1313.46 1445.72 L1364.54 1445.72 L1364.54 130.78 L1313.46 130.78 L1313.46 130.78  Z
  " fill="#009af9" fill-rule="evenodd" fill-opacity="1"/>
<polyline clip-path="url(#clip352)" style="stroke:#000000; stroke-linecap:round; stroke-linejoin:round; stroke-width:4; stroke-opacity:1; fill:none" points="
  1313.46,130.78 1313.46,1445.72 1364.54,1445.72 1364.54,130.78 1313.46,130.78 
  "/>
<path clip-path="url(#clip352)" d="
M1364.54 259.192 L1364.54 1445.72 L1415.61 1445.72 L1415.61 259.192 L1364.54 259.192 L1364.54 259.192  Z
  " fill="#009af9" fill-rule="evenodd" fill-opacity="1"/>
<polyline clip-path="url(#clip352)" style="stroke:#000000; stroke-linecap:round; stroke-linejoin:round; stroke-width:4; stroke-opacity:1; fill:none" points="
  1364.54,259.192 1364.54,1445.72 1415.61,1445.72 1415.61,259.192 1364.54,259.192 
  "/>
<path clip-path="url(#clip352)" d="
M1415.61 432.12 L1415.61 1445.72 L1466.69 1445.72 L1466.69 432.12 L1415.61 432.12 L1415.61 432.12  Z
  " fill="#009af9" fill-rule="evenodd" fill-opacity="1"/>
<polyline clip-path="url(#clip352)" style="stroke:#000000; stroke-linecap:round; stroke-linejoin:round; stroke-width:4; stroke-opacity:1; fill:none" points="
  1415.61,432.12 1415.61,1445.72 1466.69,1445.72 1466.69,432.12 1415.61,432.12 
  "/>
<path clip-path="url(#clip352)" d="
M1466.69 534.849 L1466.69 1445.72 L1517.76 1445.72 L1517.76 534.849 L1466.69 534.849 L1466.69 534.849  Z
  " fill="#009af9" fill-rule="evenodd" fill-opacity="1"/>
<polyline clip-path="url(#clip352)" style="stroke:#000000; stroke-linecap:round; stroke-linejoin:round; stroke-width:4; stroke-opacity:1; fill:none" points="
  1466.69,534.849 1466.69,1445.72 1517.76,1445.72 1517.76,534.849 1466.69,534.849 
  "/>
<path clip-path="url(#clip352)" d="
M1517.76 683.806 L1517.76 1445.72 L1568.84 1445.72 L1568.84 683.806 L1517.76 683.806 L1517.76 683.806  Z
  " fill="#009af9" fill-rule="evenodd" fill-opacity="1"/>
<polyline clip-path="url(#clip352)" style="stroke:#000000; stroke-linecap:round; stroke-linejoin:round; stroke-width:4; stroke-opacity:1; fill:none" points="
  1517.76,683.806 1517.76,1445.72 1568.84,1445.72 1568.84,683.806 1517.76,683.806 
  "/>
<path clip-path="url(#clip352)" d="
M1568.84 899.538 L1568.84 1445.72 L1619.91 1445.72 L1619.91 899.538 L1568.84 899.538 L1568.84 899.538  Z
  " fill="#009af9" fill-rule="evenodd" fill-opacity="1"/>
<polyline clip-path="url(#clip352)" style="stroke:#000000; stroke-linecap:round; stroke-linejoin:round; stroke-width:4; stroke-opacity:1; fill:none" points="
  1568.84,899.538 1568.84,1445.72 1619.91,1445.72 1619.91,899.538 1568.84,899.538 
  "/>
<path clip-path="url(#clip352)" d="
M1619.91 991.994 L1619.91 1445.72 L1670.99 1445.72 L1670.99 991.994 L1619.91 991.994 L1619.91 991.994  Z
  " fill="#009af9" fill-rule="evenodd" fill-opacity="1"/>
<polyline clip-path="url(#clip352)" style="stroke:#000000; stroke-linecap:round; stroke-linejoin:round; stroke-width:4; stroke-opacity:1; fill:none" points="
  1619.91,991.994 1619.91,1445.72 1670.99,1445.72 1670.99,991.994 1619.91,991.994 
  "/>
<path clip-path="url(#clip352)" d="
M1670.99 1089.59 L1670.99 1445.72 L1722.06 1445.72 L1722.06 1089.59 L1670.99 1089.59 L1670.99 1089.59  Z
  " fill="#009af9" fill-rule="evenodd" fill-opacity="1"/>
<polyline clip-path="url(#clip352)" style="stroke:#000000; stroke-linecap:round; stroke-linejoin:round; stroke-width:4; stroke-opacity:1; fill:none" points="
  1670.99,1089.59 1670.99,1445.72 1722.06,1445.72 1722.06,1089.59 1670.99,1089.59 
  "/>
<path clip-path="url(#clip352)" d="
M1722.06 1245.39 L1722.06 1445.72 L1773.14 1445.72 L1773.14 1245.39 L1722.06 1245.39 L1722.06 1245.39  Z
  " fill="#009af9" fill-rule="evenodd" fill-opacity="1"/>
<polyline clip-path="url(#clip352)" style="stroke:#000000; stroke-linecap:round; stroke-linejoin:round; stroke-width:4; stroke-opacity:1; fill:none" points="
  1722.06,1245.39 1722.06,1445.72 1773.14,1445.72 1773.14,1245.39 1722.06,1245.39 
  "/>
<path clip-path="url(#clip352)" d="
M1773.14 1307.03 L1773.14 1445.72 L1824.21 1445.72 L1824.21 1307.03 L1773.14 1307.03 L1773.14 1307.03  Z
  " fill="#009af9" fill-rule="evenodd" fill-opacity="1"/>
<polyline clip-path="url(#clip352)" style="stroke:#000000; stroke-linecap:round; stroke-linejoin:round; stroke-width:4; stroke-opacity:1; fill:none" points="
  1773.14,1307.03 1773.14,1445.72 1824.21,1445.72 1824.21,1307.03 1773.14,1307.03 
  "/>
<path clip-path="url(#clip352)" d="
M1824.21 1342.99 L1824.21 1445.72 L1875.29 1445.72 L1875.29 1342.99 L1824.21 1342.99 L1824.21 1342.99  Z
  " fill="#009af9" fill-rule="evenodd" fill-opacity="1"/>
<polyline clip-path="url(#clip352)" style="stroke:#000000; stroke-linecap:round; stroke-linejoin:round; stroke-width:4; stroke-opacity:1; fill:none" points="
  1824.21,1342.99 1824.21,1445.72 1875.29,1445.72 1875.29,1342.99 1824.21,1342.99 
  "/>
<path clip-path="url(#clip352)" d="
M1875.29 1401.2 L1875.29 1445.72 L1926.36 1445.72 L1926.36 1401.2 L1875.29 1401.2 L1875.29 1401.2  Z
  " fill="#009af9" fill-rule="evenodd" fill-opacity="1"/>
<polyline clip-path="url(#clip352)" style="stroke:#000000; stroke-linecap:round; stroke-linejoin:round; stroke-width:4; stroke-opacity:1; fill:none" points="
  1875.29,1401.2 1875.29,1445.72 1926.36,1445.72 1926.36,1401.2 1875.29,1401.2 
  "/>
<path clip-path="url(#clip352)" d="
M1926.36 1411.47 L1926.36 1445.72 L1977.44 1445.72 L1977.44 1411.47 L1926.36 1411.47 L1926.36 1411.47  Z
  " fill="#009af9" fill-rule="evenodd" fill-opacity="1"/>
<polyline clip-path="url(#clip352)" style="stroke:#000000; stroke-linecap:round; stroke-linejoin:round; stroke-width:4; stroke-opacity:1; fill:none" points="
  1926.36,1411.47 1926.36,1445.72 1977.44,1445.72 1977.44,1411.47 1926.36,1411.47 
  "/>
<path clip-path="url(#clip352)" d="
M1977.44 1430.31 L1977.44 1445.72 L2028.51 1445.72 L2028.51 1430.31 L1977.44 1430.31 L1977.44 1430.31  Z
  " fill="#009af9" fill-rule="evenodd" fill-opacity="1"/>
<polyline clip-path="url(#clip352)" style="stroke:#000000; stroke-linecap:round; stroke-linejoin:round; stroke-width:4; stroke-opacity:1; fill:none" points="
  1977.44,1430.31 1977.44,1445.72 2028.51,1445.72 2028.51,1430.31 1977.44,1430.31 
  "/>
<path clip-path="url(#clip352)" d="
M2028.51 1435.44 L2028.51 1445.72 L2079.59 1445.72 L2079.59 1435.44 L2028.51 1435.44 L2028.51 1435.44  Z
  " fill="#009af9" fill-rule="evenodd" fill-opacity="1"/>
<polyline clip-path="url(#clip352)" style="stroke:#000000; stroke-linecap:round; stroke-linejoin:round; stroke-width:4; stroke-opacity:1; fill:none" points="
  2028.51,1435.44 2028.51,1445.72 2079.59,1445.72 2079.59,1435.44 2028.51,1435.44 
  "/>
<path clip-path="url(#clip352)" d="
M2079.59 1444 L2079.59 1445.72 L2130.66 1445.72 L2130.66 1444 L2079.59 1444 L2079.59 1444  Z
  " fill="#009af9" fill-rule="evenodd" fill-opacity="1"/>
<polyline clip-path="url(#clip352)" style="stroke:#000000; stroke-linecap:round; stroke-linejoin:round; stroke-width:4; stroke-opacity:1; fill:none" points="
  2079.59,1444 2079.59,1445.72 2130.66,1445.72 2130.66,1444 2079.59,1444 
  "/>
<path clip-path="url(#clip352)" d="
M2130.66 1440.58 L2130.66 1445.72 L2181.74 1445.72 L2181.74 1440.58 L2130.66 1440.58 L2130.66 1440.58  Z
  " fill="#009af9" fill-rule="evenodd" fill-opacity="1"/>
<polyline clip-path="url(#clip352)" style="stroke:#000000; stroke-linecap:round; stroke-linejoin:round; stroke-width:4; stroke-opacity:1; fill:none" points="
  2130.66,1440.58 2130.66,1445.72 2181.74,1445.72 2181.74,1440.58 2130.66,1440.58 
  "/>
<path clip-path="url(#clip352)" d="
M2181.74 1444 L2181.74 1445.72 L2232.81 1445.72 L2232.81 1444 L2181.74 1444 L2181.74 1444  Z
  " fill="#009af9" fill-rule="evenodd" fill-opacity="1"/>
<polyline clip-path="url(#clip352)" style="stroke:#000000; stroke-linecap:round; stroke-linejoin:round; stroke-width:4; stroke-opacity:1; fill:none" points="
  2181.74,1444 2181.74,1445.72 2232.81,1445.72 2232.81,1444 2181.74,1444 
  "/>
<circle clip-path="url(#clip352)" style="fill:#009af9; stroke:none; fill-opacity:0" cx="317.497" cy="1444" r="2"/>
<circle clip-path="url(#clip352)" style="fill:#009af9; stroke:none; fill-opacity:0" cx="368.572" cy="1442.29" r="2"/>
<circle clip-path="url(#clip352)" style="fill:#009af9; stroke:none; fill-opacity:0" cx="419.647" cy="1440.58" r="2"/>
<circle clip-path="url(#clip352)" style="fill:#009af9; stroke:none; fill-opacity:0" cx="470.722" cy="1442.29" r="2"/>
<circle clip-path="url(#clip352)" style="fill:#009af9; stroke:none; fill-opacity:0" cx="521.797" cy="1425.17" r="2"/>
<circle clip-path="url(#clip352)" style="fill:#009af9; stroke:none; fill-opacity:0" cx="572.872" cy="1401.2" r="2"/>
<circle clip-path="url(#clip352)" style="fill:#009af9; stroke:none; fill-opacity:0" cx="623.947" cy="1377.23" r="2"/>
<circle clip-path="url(#clip352)" style="fill:#009af9; stroke:none; fill-opacity:0" cx="675.022" cy="1354.97" r="2"/>
<circle clip-path="url(#clip352)" style="fill:#009af9; stroke:none; fill-opacity:0" cx="726.097" cy="1255.67" r="2"/>
<circle clip-path="url(#clip352)" style="fill:#009af9; stroke:none; fill-opacity:0" cx="777.172" cy="1245.39" r="2"/>
<circle clip-path="url(#clip352)" style="fill:#009af9; stroke:none; fill-opacity:0" cx="828.247" cy="1110.13" r="2"/>
<circle clip-path="url(#clip352)" style="fill:#009af9; stroke:none; fill-opacity:0" cx="879.323" cy="969.736" r="2"/>
<circle clip-path="url(#clip352)" style="fill:#009af9; stroke:none; fill-opacity:0" cx="930.398" cy="884.129" r="2"/>
<circle clip-path="url(#clip352)" style="fill:#009af9; stroke:none; fill-opacity:0" cx="981.473" cy="617.032" r="2"/>
<circle clip-path="url(#clip352)" style="fill:#009af9; stroke:none; fill-opacity:0" cx="1032.55" cy="548.546" r="2"/>
<circle clip-path="url(#clip352)" style="fill:#009af9; stroke:none; fill-opacity:0" cx="1083.62" cy="379.043" r="2"/>
<circle clip-path="url(#clip352)" style="fill:#009af9; stroke:none; fill-opacity:0" cx="1134.7" cy="177.008" r="2"/>
<circle clip-path="url(#clip352)" style="fill:#009af9; stroke:none; fill-opacity:0" cx="1185.77" cy="177.008" r="2"/>
<circle clip-path="url(#clip352)" style="fill:#009af9; stroke:none; fill-opacity:0" cx="1236.85" cy="111.946" r="2"/>
<circle clip-path="url(#clip352)" style="fill:#009af9; stroke:none; fill-opacity:0" cx="1287.92" cy="87.9763" r="2"/>
<circle clip-path="url(#clip352)" style="fill:#009af9; stroke:none; fill-opacity:0" cx="1339" cy="130.78" r="2"/>
<circle clip-path="url(#clip352)" style="fill:#009af9; stroke:none; fill-opacity:0" cx="1390.07" cy="259.192" r="2"/>
<circle clip-path="url(#clip352)" style="fill:#009af9; stroke:none; fill-opacity:0" cx="1441.15" cy="432.12" r="2"/>
<circle clip-path="url(#clip352)" style="fill:#009af9; stroke:none; fill-opacity:0" cx="1492.22" cy="534.849" r="2"/>
<circle clip-path="url(#clip352)" style="fill:#009af9; stroke:none; fill-opacity:0" cx="1543.3" cy="683.806" r="2"/>
<circle clip-path="url(#clip352)" style="fill:#009af9; stroke:none; fill-opacity:0" cx="1594.37" cy="899.538" r="2"/>
<circle clip-path="url(#clip352)" style="fill:#009af9; stroke:none; fill-opacity:0" cx="1645.45" cy="991.994" r="2"/>
<circle clip-path="url(#clip352)" style="fill:#009af9; stroke:none; fill-opacity:0" cx="1696.52" cy="1089.59" r="2"/>
<circle clip-path="url(#clip352)" style="fill:#009af9; stroke:none; fill-opacity:0" cx="1747.6" cy="1245.39" r="2"/>
<circle clip-path="url(#clip352)" style="fill:#009af9; stroke:none; fill-opacity:0" cx="1798.67" cy="1307.03" r="2"/>
<circle clip-path="url(#clip352)" style="fill:#009af9; stroke:none; fill-opacity:0" cx="1849.75" cy="1342.99" r="2"/>
<circle clip-path="url(#clip352)" style="fill:#009af9; stroke:none; fill-opacity:0" cx="1900.82" cy="1401.2" r="2"/>
<circle clip-path="url(#clip352)" style="fill:#009af9; stroke:none; fill-opacity:0" cx="1951.9" cy="1411.47" r="2"/>
<circle clip-path="url(#clip352)" style="fill:#009af9; stroke:none; fill-opacity:0" cx="2002.97" cy="1430.31" r="2"/>
<circle clip-path="url(#clip352)" style="fill:#009af9; stroke:none; fill-opacity:0" cx="2054.05" cy="1435.44" r="2"/>
<circle clip-path="url(#clip352)" style="fill:#009af9; stroke:none; fill-opacity:0" cx="2105.12" cy="1444" r="2"/>
<circle clip-path="url(#clip352)" style="fill:#009af9; stroke:none; fill-opacity:0" cx="2156.2" cy="1440.58" r="2"/>
<circle clip-path="url(#clip352)" style="fill:#009af9; stroke:none; fill-opacity:0" cx="2207.27" cy="1444" r="2"/>
</svg>
