<?xml version="1.0" encoding="utf-8"?>
<svg xmlns="http://www.w3.org/2000/svg" xmlns:xlink="http://www.w3.org/1999/xlink" width="600" height="400" viewBox="0 0 2400 1600">
<defs>
  <clipPath id="clip240">
    <rect x="0" y="0" width="2400" height="1600"/>
  </clipPath>
</defs>
<path clip-path="url(#clip240)" d="
M0 1600 L2400 1600 L2400 0 L0 0  Z
  " fill="#ffffff" fill-rule="evenodd" fill-opacity="1"/>
<defs>
  <clipPath id="clip241">
    <rect x="480" y="0" width="1681" height="1600"/>
  </clipPath>
</defs>
<path clip-path="url(#clip240)" d="
M172.015 1486.45 L2352.76 1486.45 L2352.76 47.2441 L172.015 47.2441  Z
  " fill="#ffffff" fill-rule="evenodd" fill-opacity="1"/>
<defs>
  <clipPath id="clip242">
    <rect x="172" y="47" width="2182" height="1440"/>
  </clipPath>
</defs>
<polyline clip-path="url(#clip242)" style="stroke:#000000; stroke-linecap:round; stroke-linejoin:round; stroke-width:2; stroke-opacity:0.1; fill:none" points="
  239.504,1486.45 239.504,47.2441 
  "/>
<polyline clip-path="url(#clip242)" style="stroke:#000000; stroke-linecap:round; stroke-linejoin:round; stroke-width:2; stroke-opacity:0.1; fill:none" points="
  764.059,1486.45 764.059,47.2441 
  "/>
<polyline clip-path="url(#clip242)" style="stroke:#000000; stroke-linecap:round; stroke-linejoin:round; stroke-width:2; stroke-opacity:0.1; fill:none" points="
  1288.61,1486.45 1288.61,47.2441 
  "/>
<polyline clip-path="url(#clip242)" style="stroke:#000000; stroke-linecap:round; stroke-linejoin:round; stroke-width:2; stroke-opacity:0.1; fill:none" points="
  1813.17,1486.45 1813.17,47.2441 
  "/>
<polyline clip-path="url(#clip242)" style="stroke:#000000; stroke-linecap:round; stroke-linejoin:round; stroke-width:2; stroke-opacity:0.1; fill:none" points="
  2337.72,1486.45 2337.72,47.2441 
  "/>
<polyline clip-path="url(#clip240)" style="stroke:#000000; stroke-linecap:round; stroke-linejoin:round; stroke-width:4; stroke-opacity:1; fill:none" points="
  172.015,1486.45 2352.76,1486.45 
  "/>
<polyline clip-path="url(#clip240)" style="stroke:#000000; stroke-linecap:round; stroke-linejoin:round; stroke-width:4; stroke-opacity:1; fill:none" points="
  239.504,1486.45 239.504,1467.55 
  "/>
<polyline clip-path="url(#clip240)" style="stroke:#000000; stroke-linecap:round; stroke-linejoin:round; stroke-width:4; stroke-opacity:1; fill:none" points="
  764.059,1486.45 764.059,1467.55 
  "/>
<polyline clip-path="url(#clip240)" style="stroke:#000000; stroke-linecap:round; stroke-linejoin:round; stroke-width:4; stroke-opacity:1; fill:none" points="
  1288.61,1486.45 1288.61,1467.55 
  "/>
<polyline clip-path="url(#clip240)" style="stroke:#000000; stroke-linecap:round; stroke-linejoin:round; stroke-width:4; stroke-opacity:1; fill:none" points="
  1813.17,1486.45 1813.17,1467.55 
  "/>
<polyline clip-path="url(#clip240)" style="stroke:#000000; stroke-linecap:round; stroke-linejoin:round; stroke-width:4; stroke-opacity:1; fill:none" points="
  2337.72,1486.45 2337.72,1467.55 
  "/>
<path clip-path="url(#clip240)" d="M209.446 1532.02 L239.122 1532.02 L239.122 1535.95 L209.446 1535.95 L209.446 1532.02 Z" fill="#000000" fill-rule="evenodd" fill-opacity="1" /><path clip-path="url(#clip240)" d="M253.242 1544.91 L269.562 1544.91 L269.562 1548.85 L247.617 1548.85 L247.617 1544.91 Q250.279 1542.16 254.863 1537.53 Q259.469 1532.88 260.65 1531.53 Q262.895 1529.01 263.775 1527.27 Q264.677 1525.51 264.677 1523.82 Q264.677 1521.07 262.733 1519.33 Q260.812 1517.6 257.71 1517.6 Q255.511 1517.6 253.057 1518.36 Q250.627 1519.13 247.849 1520.68 L247.849 1515.95 Q250.673 1514.82 253.127 1514.24 Q255.58 1513.66 257.617 1513.66 Q262.988 1513.66 266.182 1516.35 Q269.377 1519.03 269.377 1523.52 Q269.377 1525.65 268.566 1527.57 Q267.779 1529.47 265.673 1532.07 Q265.094 1532.74 261.992 1535.95 Q258.89 1539.15 253.242 1544.91 Z" fill="#000000" fill-rule="evenodd" fill-opacity="1" /><path clip-path="url(#clip240)" d="M764.059 1517.37 Q760.447 1517.37 758.619 1520.93 Q756.813 1524.47 756.813 1531.6 Q756.813 1538.71 758.619 1542.27 Q760.447 1545.82 764.059 1545.82 Q767.693 1545.82 769.498 1542.27 Q771.327 1538.71 771.327 1531.6 Q771.327 1524.47 769.498 1520.93 Q767.693 1517.37 764.059 1517.37 M764.059 1513.66 Q769.869 1513.66 772.924 1518.27 Q776.003 1522.85 776.003 1531.6 Q776.003 1540.33 772.924 1544.94 Q769.869 1549.52 764.059 1549.52 Q758.248 1549.52 755.17 1544.94 Q752.114 1540.33 752.114 1531.6 Q752.114 1522.85 755.17 1518.27 Q758.248 1513.66 764.059 1513.66 Z" fill="#000000" fill-rule="evenodd" fill-opacity="1" /><path clip-path="url(#clip240)" d="M1283.27 1544.91 L1299.59 1544.91 L1299.59 1548.85 L1277.64 1548.85 L1277.64 1544.91 Q1280.3 1542.16 1284.89 1537.53 Q1289.49 1532.88 1290.67 1531.53 Q1292.92 1529.01 1293.8 1527.27 Q1294.7 1525.51 1294.7 1523.82 Q1294.7 1521.07 1292.76 1519.33 Q1290.84 1517.6 1287.73 1517.6 Q1285.53 1517.6 1283.08 1518.36 Q1280.65 1519.13 1277.87 1520.68 L1277.87 1515.95 Q1280.7 1514.82 1283.15 1514.24 Q1285.6 1513.66 1287.64 1513.66 Q1293.01 1513.66 1296.21 1516.35 Q1299.4 1519.03 1299.4 1523.52 Q1299.4 1525.65 1298.59 1527.57 Q1297.8 1529.47 1295.7 1532.07 Q1295.12 1532.74 1292.02 1535.95 Q1288.91 1539.15 1283.27 1544.91 Z" fill="#000000" fill-rule="evenodd" fill-opacity="1" /><path clip-path="url(#clip240)" d="M1816.18 1518.36 L1804.37 1536.81 L1816.18 1536.81 L1816.18 1518.36 M1814.95 1514.29 L1820.83 1514.29 L1820.83 1536.81 L1825.76 1536.81 L1825.76 1540.7 L1820.83 1540.7 L1820.83 1548.85 L1816.18 1548.85 L1816.18 1540.7 L1800.58 1540.7 L1800.58 1536.19 L1814.95 1514.29 Z" fill="#000000" fill-rule="evenodd" fill-opacity="1" /><path clip-path="url(#clip240)" d="M2338.13 1529.7 Q2334.98 1529.7 2333.13 1531.86 Q2331.3 1534.01 2331.3 1537.76 Q2331.3 1541.49 2333.13 1543.66 Q2334.98 1545.82 2338.13 1545.82 Q2341.28 1545.82 2343.1 1543.66 Q2344.96 1541.49 2344.96 1537.76 Q2344.96 1534.01 2343.1 1531.86 Q2341.28 1529.7 2338.13 1529.7 M2347.41 1515.05 L2347.41 1519.31 Q2345.65 1518.48 2343.84 1518.04 Q2342.06 1517.6 2340.3 1517.6 Q2335.67 1517.6 2333.22 1520.72 Q2330.79 1523.85 2330.44 1530.17 Q2331.81 1528.15 2333.87 1527.09 Q2335.93 1526 2338.41 1526 Q2343.61 1526 2346.62 1529.17 Q2349.65 1532.32 2349.65 1537.76 Q2349.65 1543.08 2346.51 1546.3 Q2343.36 1549.52 2338.13 1549.52 Q2332.13 1549.52 2328.96 1544.94 Q2325.79 1540.33 2325.79 1531.6 Q2325.79 1523.41 2329.68 1518.55 Q2333.57 1513.66 2340.12 1513.66 Q2341.88 1513.66 2343.66 1514.01 Q2345.47 1514.36 2347.41 1515.05 Z" fill="#000000" fill-rule="evenodd" fill-opacity="1" /><polyline clip-path="url(#clip242)" style="stroke:#000000; stroke-linecap:round; stroke-linejoin:round; stroke-width:2; stroke-opacity:0.1; fill:none" points="
  172.015,1445.72 2352.76,1445.72 
  "/>
<polyline clip-path="url(#clip242)" style="stroke:#000000; stroke-linecap:round; stroke-linejoin:round; stroke-width:2; stroke-opacity:0.1; fill:none" points="
  172.015,1126.62 2352.76,1126.62 
  "/>
<polyline clip-path="url(#clip242)" style="stroke:#000000; stroke-linecap:round; stroke-linejoin:round; stroke-width:2; stroke-opacity:0.1; fill:none" points="
  172.015,807.53 2352.76,807.53 
  "/>
<polyline clip-path="url(#clip242)" style="stroke:#000000; stroke-linecap:round; stroke-linejoin:round; stroke-width:2; stroke-opacity:0.1; fill:none" points="
  172.015,488.438 2352.76,488.438 
  "/>
<polyline clip-path="url(#clip242)" style="stroke:#000000; stroke-linecap:round; stroke-linejoin:round; stroke-width:2; stroke-opacity:0.1; fill:none" points="
  172.015,169.345 2352.76,169.345 
  "/>
<polyline clip-path="url(#clip240)" style="stroke:#000000; stroke-linecap:round; stroke-linejoin:round; stroke-width:4; stroke-opacity:1; fill:none" points="
  172.015,1486.45 172.015,47.2441 
  "/>
<polyline clip-path="url(#clip240)" style="stroke:#000000; stroke-linecap:round; stroke-linejoin:round; stroke-width:4; stroke-opacity:1; fill:none" points="
  172.015,1445.72 190.912,1445.72 
  "/>
<polyline clip-path="url(#clip240)" style="stroke:#000000; stroke-linecap:round; stroke-linejoin:round; stroke-width:4; stroke-opacity:1; fill:none" points="
  172.015,1126.62 190.912,1126.62 
  "/>
<polyline clip-path="url(#clip240)" style="stroke:#000000; stroke-linecap:round; stroke-linejoin:round; stroke-width:4; stroke-opacity:1; fill:none" points="
  172.015,807.53 190.912,807.53 
  "/>
<polyline clip-path="url(#clip240)" style="stroke:#000000; stroke-linecap:round; stroke-linejoin:round; stroke-width:4; stroke-opacity:1; fill:none" points="
  172.015,488.438 190.912,488.438 
  "/>
<polyline clip-path="url(#clip240)" style="stroke:#000000; stroke-linecap:round; stroke-linejoin:round; stroke-width:4; stroke-opacity:1; fill:none" points="
  172.015,169.345 190.912,169.345 
  "/>
<path clip-path="url(#clip240)" d="M124.07 1431.51 Q120.459 1431.51 118.631 1435.08 Q116.825 1438.62 116.825 1445.75 Q116.825 1452.86 118.631 1456.42 Q120.459 1459.96 124.07 1459.96 Q127.705 1459.96 129.51 1456.42 Q131.339 1452.86 131.339 1445.75 Q131.339 1438.62 129.51 1435.08 Q127.705 1431.51 124.07 1431.51 M124.07 1427.81 Q129.881 1427.81 132.936 1432.42 Q136.015 1437 136.015 1445.75 Q136.015 1454.48 132.936 1459.08 Q129.881 1463.67 124.07 1463.67 Q118.26 1463.67 115.182 1459.08 Q112.126 1454.48 112.126 1445.75 Q112.126 1437 115.182 1432.42 Q118.26 1427.81 124.07 1427.81 Z" fill="#000000" fill-rule="evenodd" fill-opacity="1" /><path clip-path="url(#clip240)" d="M57.7745 1139.97 L74.0939 1139.97 L74.0939 1143.9 L52.1495 1143.9 L52.1495 1139.97 Q54.8115 1137.21 59.3949 1132.58 Q64.0013 1127.93 65.1819 1126.59 Q67.4272 1124.07 68.3068 1122.33 Q69.2096 1120.57 69.2096 1118.88 Q69.2096 1116.13 67.2652 1114.39 Q65.3439 1112.65 62.2421 1112.65 Q60.043 1112.65 57.5893 1113.42 Q55.1588 1114.18 52.381 1115.73 L52.381 1111.01 Q55.2051 1109.88 57.6588 1109.3 Q60.1124 1108.72 62.1495 1108.72 Q67.5198 1108.72 70.7142 1111.4 Q73.9087 1114.09 73.9087 1118.58 Q73.9087 1120.71 73.0985 1122.63 Q72.3115 1124.53 70.205 1127.12 Q69.6263 1127.79 66.5245 1131.01 Q63.4226 1134.2 57.7745 1139.97 Z" fill="#000000" fill-rule="evenodd" fill-opacity="1" /><path clip-path="url(#clip240)" d="M93.9086 1112.42 Q90.2975 1112.42 88.4688 1115.99 Q86.6632 1119.53 86.6632 1126.66 Q86.6632 1133.76 88.4688 1137.33 Q90.2975 1140.87 93.9086 1140.87 Q97.5428 1140.87 99.3483 1137.33 Q101.177 1133.76 101.177 1126.66 Q101.177 1119.53 99.3483 1115.99 Q97.5428 1112.42 93.9086 1112.42 M93.9086 1108.72 Q99.7187 1108.72 102.774 1113.32 Q105.853 1117.91 105.853 1126.66 Q105.853 1135.38 102.774 1139.99 Q99.7187 1144.57 93.9086 1144.57 Q88.0984 1144.57 85.0197 1139.99 Q81.9642 1135.38 81.9642 1126.66 Q81.9642 1117.91 85.0197 1113.32 Q88.0984 1108.72 93.9086 1108.72 Z" fill="#000000" fill-rule="evenodd" fill-opacity="1" /><path clip-path="url(#clip240)" d="M124.07 1112.42 Q120.459 1112.42 118.631 1115.99 Q116.825 1119.53 116.825 1126.66 Q116.825 1133.76 118.631 1137.33 Q120.459 1140.87 124.07 1140.87 Q127.705 1140.87 129.51 1137.33 Q131.339 1133.76 131.339 1126.66 Q131.339 1119.53 129.51 1115.99 Q127.705 1112.42 124.07 1112.42 M124.07 1108.72 Q129.881 1108.72 132.936 1113.32 Q136.015 1117.91 136.015 1126.66 Q136.015 1135.38 132.936 1139.99 Q129.881 1144.57 124.07 1144.57 Q118.26 1144.57 115.182 1139.99 Q112.126 1135.38 112.126 1126.66 Q112.126 1117.91 115.182 1113.32 Q118.26 1108.72 124.07 1108.72 Z" fill="#000000" fill-rule="evenodd" fill-opacity="1" /><path clip-path="url(#clip240)" d="M66.5939 794.324 L54.7884 812.773 L66.5939 812.773 L66.5939 794.324 M65.367 790.25 L71.2466 790.25 L71.2466 812.773 L76.1772 812.773 L76.1772 816.662 L71.2466 816.662 L71.2466 824.81 L66.5939 824.81 L66.5939 816.662 L50.9921 816.662 L50.9921 812.148 L65.367 790.25 Z" fill="#000000" fill-rule="evenodd" fill-opacity="1" /><path clip-path="url(#clip240)" d="M93.9086 793.329 Q90.2975 793.329 88.4688 796.894 Q86.6632 800.435 86.6632 807.565 Q86.6632 814.671 88.4688 818.236 Q90.2975 821.778 93.9086 821.778 Q97.5428 821.778 99.3483 818.236 Q101.177 814.671 101.177 807.565 Q101.177 800.435 99.3483 796.894 Q97.5428 793.329 93.9086 793.329 M93.9086 789.625 Q99.7187 789.625 102.774 794.232 Q105.853 798.815 105.853 807.565 Q105.853 816.292 102.774 820.898 Q99.7187 825.482 93.9086 825.482 Q88.0984 825.482 85.0197 820.898 Q81.9642 816.292 81.9642 807.565 Q81.9642 798.815 85.0197 794.232 Q88.0984 789.625 93.9086 789.625 Z" fill="#000000" fill-rule="evenodd" fill-opacity="1" /><path clip-path="url(#clip240)" d="M124.07 793.329 Q120.459 793.329 118.631 796.894 Q116.825 800.435 116.825 807.565 Q116.825 814.671 118.631 818.236 Q120.459 821.778 124.07 821.778 Q127.705 821.778 129.51 818.236 Q131.339 814.671 131.339 807.565 Q131.339 800.435 129.51 796.894 Q127.705 793.329 124.07 793.329 M124.07 789.625 Q129.881 789.625 132.936 794.232 Q136.015 798.815 136.015 807.565 Q136.015 816.292 132.936 820.898 Q129.881 825.482 124.07 825.482 Q118.26 825.482 115.182 820.898 Q112.126 816.292 112.126 807.565 Q112.126 798.815 115.182 794.232 Q118.26 789.625 124.07 789.625 Z" fill="#000000" fill-rule="evenodd" fill-opacity="1" /><path clip-path="url(#clip240)" d="M64.3254 486.574 Q61.1773 486.574 59.3254 488.727 Q57.4967 490.88 57.4967 494.63 Q57.4967 498.357 59.3254 500.532 Q61.1773 502.685 64.3254 502.685 Q67.4735 502.685 69.3022 500.532 Q71.1541 498.357 71.1541 494.63 Q71.1541 490.88 69.3022 488.727 Q67.4735 486.574 64.3254 486.574 M73.6077 471.921 L73.6077 476.181 Q71.8485 475.347 70.0429 474.908 Q68.2606 474.468 66.5013 474.468 Q61.8717 474.468 59.418 477.593 Q56.9875 480.718 56.6402 487.037 Q58.006 485.023 60.0662 483.958 Q62.1263 482.871 64.6032 482.871 Q69.8115 482.871 72.8207 486.042 Q75.8531 489.19 75.8531 494.63 Q75.8531 499.954 72.705 503.171 Q69.5568 506.389 64.3254 506.389 Q58.33 506.389 55.1588 501.806 Q51.9875 497.199 51.9875 488.472 Q51.9875 480.278 55.8764 475.417 Q59.7652 470.533 66.3161 470.533 Q68.0754 470.533 69.8578 470.88 Q71.6633 471.227 73.6077 471.921 Z" fill="#000000" fill-rule="evenodd" fill-opacity="1" /><path clip-path="url(#clip240)" d="M93.9086 474.236 Q90.2975 474.236 88.4688 477.801 Q86.6632 481.343 86.6632 488.472 Q86.6632 495.579 88.4688 499.144 Q90.2975 502.685 93.9086 502.685 Q97.5428 502.685 99.3483 499.144 Q101.177 495.579 101.177 488.472 Q101.177 481.343 99.3483 477.801 Q97.5428 474.236 93.9086 474.236 M93.9086 470.533 Q99.7187 470.533 102.774 475.139 Q105.853 479.722 105.853 488.472 Q105.853 497.199 102.774 501.806 Q99.7187 506.389 93.9086 506.389 Q88.0984 506.389 85.0197 501.806 Q81.9642 497.199 81.9642 488.472 Q81.9642 479.722 85.0197 475.139 Q88.0984 470.533 93.9086 470.533 Z" fill="#000000" fill-rule="evenodd" fill-opacity="1" /><path clip-path="url(#clip240)" d="M124.07 474.236 Q120.459 474.236 118.631 477.801 Q116.825 481.343 116.825 488.472 Q116.825 495.579 118.631 499.144 Q120.459 502.685 124.07 502.685 Q127.705 502.685 129.51 499.144 Q131.339 495.579 131.339 488.472 Q131.339 481.343 129.51 477.801 Q127.705 474.236 124.07 474.236 M124.07 470.533 Q129.881 470.533 132.936 475.139 Q136.015 479.722 136.015 488.472 Q136.015 497.199 132.936 501.806 Q129.881 506.389 124.07 506.389 Q118.26 506.389 115.182 501.806 Q112.126 497.199 112.126 488.472 Q112.126 479.722 115.182 475.139 Q118.26 470.533 124.07 470.533 Z" fill="#000000" fill-rule="evenodd" fill-opacity="1" /><path clip-path="url(#clip240)" d="M63.7467 170.213 Q60.4134 170.213 58.4921 171.995 Q56.5939 173.778 56.5939 176.903 Q56.5939 180.028 58.4921 181.81 Q60.4134 183.593 63.7467 183.593 Q67.08 183.593 69.0013 181.81 Q70.9226 180.005 70.9226 176.903 Q70.9226 173.778 69.0013 171.995 Q67.1032 170.213 63.7467 170.213 M59.0708 168.222 Q56.0615 167.481 54.3717 165.421 Q52.7051 163.361 52.7051 160.398 Q52.7051 156.255 55.6449 153.847 Q58.6078 151.44 63.7467 151.44 Q68.9087 151.44 71.8485 153.847 Q74.7883 156.255 74.7883 160.398 Q74.7883 163.361 73.0985 165.421 Q71.4318 167.481 68.4457 168.222 Q71.8253 169.009 73.7003 171.301 Q75.5985 173.593 75.5985 176.903 Q75.5985 181.926 72.5198 184.611 Q69.4642 187.296 63.7467 187.296 Q58.0291 187.296 54.9504 184.611 Q51.8949 181.926 51.8949 176.903 Q51.8949 173.593 53.793 171.301 Q55.6912 169.009 59.0708 168.222 M57.3578 160.838 Q57.3578 163.523 59.0245 165.028 Q60.7143 166.532 63.7467 166.532 Q66.7559 166.532 68.4457 165.028 Q70.1587 163.523 70.1587 160.838 Q70.1587 158.153 68.4457 156.648 Q66.7559 155.144 63.7467 155.144 Q60.7143 155.144 59.0245 156.648 Q57.3578 158.153 57.3578 160.838 Z" fill="#000000" fill-rule="evenodd" fill-opacity="1" /><path clip-path="url(#clip240)" d="M93.9086 155.144 Q90.2975 155.144 88.4688 158.708 Q86.6632 162.25 86.6632 169.38 Q86.6632 176.486 88.4688 180.051 Q90.2975 183.593 93.9086 183.593 Q97.5428 183.593 99.3483 180.051 Q101.177 176.486 101.177 169.38 Q101.177 162.25 99.3483 158.708 Q97.5428 155.144 93.9086 155.144 M93.9086 151.44 Q99.7187 151.44 102.774 156.046 Q105.853 160.63 105.853 169.38 Q105.853 178.106 102.774 182.713 Q99.7187 187.296 93.9086 187.296 Q88.0984 187.296 85.0197 182.713 Q81.9642 178.106 81.9642 169.38 Q81.9642 160.63 85.0197 156.046 Q88.0984 151.44 93.9086 151.44 Z" fill="#000000" fill-rule="evenodd" fill-opacity="1" /><path clip-path="url(#clip240)" d="M124.07 155.144 Q120.459 155.144 118.631 158.708 Q116.825 162.25 116.825 169.38 Q116.825 176.486 118.631 180.051 Q120.459 183.593 124.07 183.593 Q127.705 183.593 129.51 180.051 Q131.339 176.486 131.339 169.38 Q131.339 162.25 129.51 158.708 Q127.705 155.144 124.07 155.144 M124.07 151.44 Q129.881 151.44 132.936 156.046 Q136.015 160.63 136.015 169.38 Q136.015 178.106 132.936 182.713 Q129.881 187.296 124.07 187.296 Q118.26 187.296 115.182 182.713 Q112.126 178.106 112.126 169.38 Q112.126 160.63 115.182 156.046 Q118.26 151.44 124.07 151.44 Z" fill="#000000" fill-rule="evenodd" fill-opacity="1" /><path clip-path="url(#clip242)" d="
M291.959 1444.12 L291.959 1445.72 L344.415 1445.72 L344.415 1444.12 L291.959 1444.12 L291.959 1444.12  Z
  " fill="#009af9" fill-rule="evenodd" fill-opacity="1"/>
<polyline clip-path="url(#clip242)" style="stroke:#000000; stroke-linecap:round; stroke-linejoin:round; stroke-width:4; stroke-opacity:1; fill:none" points="
  291.959,1444.12 291.959,1445.72 344.415,1445.72 344.415,1444.12 291.959,1444.12 
  "/>
<path clip-path="url(#clip242)" d="
M344.415 1442.52 L344.415 1445.72 L396.87 1445.72 L396.87 1442.52 L344.415 1442.52 L344.415 1442.52  Z
  " fill="#009af9" fill-rule="evenodd" fill-opacity="1"/>
<polyline clip-path="url(#clip242)" style="stroke:#000000; stroke-linecap:round; stroke-linejoin:round; stroke-width:4; stroke-opacity:1; fill:none" points="
  344.415,1442.52 344.415,1445.72 396.87,1445.72 396.87,1442.52 344.415,1442.52 
  "/>
<path clip-path="url(#clip242)" d="
M396.87 1440.93 L396.87 1445.72 L449.326 1445.72 L449.326 1440.93 L396.87 1440.93 L396.87 1440.93  Z
  " fill="#009af9" fill-rule="evenodd" fill-opacity="1"/>
<polyline clip-path="url(#clip242)" style="stroke:#000000; stroke-linecap:round; stroke-linejoin:round; stroke-width:4; stroke-opacity:1; fill:none" points="
  396.87,1440.93 396.87,1445.72 449.326,1445.72 449.326,1440.93 396.87,1440.93 
  "/>
<path clip-path="url(#clip242)" d="
M449.326 1436.14 L449.326 1445.72 L501.781 1445.72 L501.781 1436.14 L449.326 1436.14 L449.326 1436.14  Z
  " fill="#009af9" fill-rule="evenodd" fill-opacity="1"/>
<polyline clip-path="url(#clip242)" style="stroke:#000000; stroke-linecap:round; stroke-linejoin:round; stroke-width:4; stroke-opacity:1; fill:none" points="
  449.326,1436.14 449.326,1445.72 501.781,1445.72 501.781,1436.14 449.326,1436.14 
  "/>
<path clip-path="url(#clip242)" d="
M501.781 1432.95 L501.781 1445.72 L554.237 1445.72 L554.237 1432.95 L501.781 1432.95 L501.781 1432.95  Z
  " fill="#009af9" fill-rule="evenodd" fill-opacity="1"/>
<polyline clip-path="url(#clip242)" style="stroke:#000000; stroke-linecap:round; stroke-linejoin:round; stroke-width:4; stroke-opacity:1; fill:none" points="
  501.781,1432.95 501.781,1445.72 554.237,1445.72 554.237,1432.95 501.781,1432.95 
  "/>
<path clip-path="url(#clip242)" d="
M554.237 1404.23 L554.237 1445.72 L606.692 1445.72 L606.692 1404.23 L554.237 1404.23 L554.237 1404.23  Z
  " fill="#009af9" fill-rule="evenodd" fill-opacity="1"/>
<polyline clip-path="url(#clip242)" style="stroke:#000000; stroke-linecap:round; stroke-linejoin:round; stroke-width:4; stroke-opacity:1; fill:none" points="
  554.237,1404.23 554.237,1445.72 606.692,1445.72 606.692,1404.23 554.237,1404.23 
  "/>
<path clip-path="url(#clip242)" d="
M606.692 1401.04 L606.692 1445.72 L659.148 1445.72 L659.148 1401.04 L606.692 1401.04 L606.692 1401.04  Z
  " fill="#009af9" fill-rule="evenodd" fill-opacity="1"/>
<polyline clip-path="url(#clip242)" style="stroke:#000000; stroke-linecap:round; stroke-linejoin:round; stroke-width:4; stroke-opacity:1; fill:none" points="
  606.692,1401.04 606.692,1445.72 659.148,1445.72 659.148,1401.04 606.692,1401.04 
  "/>
<path clip-path="url(#clip242)" d="
M659.148 1351.58 L659.148 1445.72 L711.603 1445.72 L711.603 1351.58 L659.148 1351.58 L659.148 1351.58  Z
  " fill="#009af9" fill-rule="evenodd" fill-opacity="1"/>
<polyline clip-path="url(#clip242)" style="stroke:#000000; stroke-linecap:round; stroke-linejoin:round; stroke-width:4; stroke-opacity:1; fill:none" points="
  659.148,1351.58 659.148,1445.72 711.603,1445.72 711.603,1351.58 659.148,1351.58 
  "/>
<path clip-path="url(#clip242)" d="
M711.603 1290.96 L711.603 1445.72 L764.059 1445.72 L764.059 1290.96 L711.603 1290.96 L711.603 1290.96  Z
  " fill="#009af9" fill-rule="evenodd" fill-opacity="1"/>
<polyline clip-path="url(#clip242)" style="stroke:#000000; stroke-linecap:round; stroke-linejoin:round; stroke-width:4; stroke-opacity:1; fill:none" points="
  711.603,1290.96 711.603,1445.72 764.059,1445.72 764.059,1290.96 711.603,1290.96 
  "/>
<path clip-path="url(#clip242)" d="
M764.059 1275 L764.059 1445.72 L816.514 1445.72 L816.514 1275 L764.059 1275 L764.059 1275  Z
  " fill="#009af9" fill-rule="evenodd" fill-opacity="1"/>
<polyline clip-path="url(#clip242)" style="stroke:#000000; stroke-linecap:round; stroke-linejoin:round; stroke-width:4; stroke-opacity:1; fill:none" points="
  764.059,1275 764.059,1445.72 816.514,1445.72 816.514,1275 764.059,1275 
  "/>
<path clip-path="url(#clip242)" d="
M816.514 1200.01 L816.514 1445.72 L868.969 1445.72 L868.969 1200.01 L816.514 1200.01 L816.514 1200.01  Z
  " fill="#009af9" fill-rule="evenodd" fill-opacity="1"/>
<polyline clip-path="url(#clip242)" style="stroke:#000000; stroke-linecap:round; stroke-linejoin:round; stroke-width:4; stroke-opacity:1; fill:none" points="
  816.514,1200.01 816.514,1445.72 868.969,1445.72 868.969,1200.01 816.514,1200.01 
  "/>
<path clip-path="url(#clip242)" d="
M868.969 1006.96 L868.969 1445.72 L921.425 1445.72 L921.425 1006.96 L868.969 1006.96 L868.969 1006.96  Z
  " fill="#009af9" fill-rule="evenodd" fill-opacity="1"/>
<polyline clip-path="url(#clip242)" style="stroke:#000000; stroke-linecap:round; stroke-linejoin:round; stroke-width:4; stroke-opacity:1; fill:none" points="
  868.969,1006.96 868.969,1445.72 921.425,1445.72 921.425,1006.96 868.969,1006.96 
  "/>
<path clip-path="url(#clip242)" d="
M921.425 860.181 L921.425 1445.72 L973.88 1445.72 L973.88 860.181 L921.425 860.181 L921.425 860.181  Z
  " fill="#009af9" fill-rule="evenodd" fill-opacity="1"/>
<polyline clip-path="url(#clip242)" style="stroke:#000000; stroke-linecap:round; stroke-linejoin:round; stroke-width:4; stroke-opacity:1; fill:none" points="
  921.425,860.181 921.425,1445.72 973.88,1445.72 973.88,860.181 921.425,860.181 
  "/>
<path clip-path="url(#clip242)" d="
M973.88 678.298 L973.88 1445.72 L1026.34 1445.72 L1026.34 678.298 L973.88 678.298 L973.88 678.298  Z
  " fill="#009af9" fill-rule="evenodd" fill-opacity="1"/>
<polyline clip-path="url(#clip242)" style="stroke:#000000; stroke-linecap:round; stroke-linejoin:round; stroke-width:4; stroke-opacity:1; fill:none" points="
  973.88,678.298 973.88,1445.72 1026.34,1445.72 1026.34,678.298 973.88,678.298 
  "/>
<path clip-path="url(#clip242)" d="
M1026.34 667.13 L1026.34 1445.72 L1078.79 1445.72 L1078.79 667.13 L1026.34 667.13 L1026.34 667.13  Z
  " fill="#009af9" fill-rule="evenodd" fill-opacity="1"/>
<polyline clip-path="url(#clip242)" style="stroke:#000000; stroke-linecap:round; stroke-linejoin:round; stroke-width:4; stroke-opacity:1; fill:none" points="
  1026.34,667.13 1026.34,1445.72 1078.79,1445.72 1078.79,667.13 1026.34,667.13 
  "/>
<path clip-path="url(#clip242)" d="
M1078.79 474.078 L1078.79 1445.72 L1131.25 1445.72 L1131.25 474.078 L1078.79 474.078 L1078.79 474.078  Z
  " fill="#009af9" fill-rule="evenodd" fill-opacity="1"/>
<polyline clip-path="url(#clip242)" style="stroke:#000000; stroke-linecap:round; stroke-linejoin:round; stroke-width:4; stroke-opacity:1; fill:none" points="
  1078.79,474.078 1078.79,1445.72 1131.25,1445.72 1131.25,474.078 1078.79,474.078 
  "/>
<path clip-path="url(#clip242)" d="
M1131.25 373.564 L1131.25 1445.72 L1183.7 1445.72 L1183.7 373.564 L1131.25 373.564 L1131.25 373.564  Z
  " fill="#009af9" fill-rule="evenodd" fill-opacity="1"/>
<polyline clip-path="url(#clip242)" style="stroke:#000000; stroke-linecap:round; stroke-linejoin:round; stroke-width:4; stroke-opacity:1; fill:none" points="
  1131.25,373.564 1131.25,1445.72 1183.7,1445.72 1183.7,373.564 1131.25,373.564 
  "/>
<path clip-path="url(#clip242)" d="
M1183.7 212.422 L1183.7 1445.72 L1236.16 1445.72 L1236.16 212.422 L1183.7 212.422 L1183.7 212.422  Z
  " fill="#009af9" fill-rule="evenodd" fill-opacity="1"/>
<polyline clip-path="url(#clip242)" style="stroke:#000000; stroke-linecap:round; stroke-linejoin:round; stroke-width:4; stroke-opacity:1; fill:none" points="
  1183.7,212.422 1183.7,1445.72 1236.16,1445.72 1236.16,212.422 1183.7,212.422 
  "/>
<path clip-path="url(#clip242)" d="
M1236.16 214.018 L1236.16 1445.72 L1288.61 1445.72 L1288.61 214.018 L1236.16 214.018 L1236.16 214.018  Z
  " fill="#009af9" fill-rule="evenodd" fill-opacity="1"/>
<polyline clip-path="url(#clip242)" style="stroke:#000000; stroke-linecap:round; stroke-linejoin:round; stroke-width:4; stroke-opacity:1; fill:none" points="
  1236.16,214.018 1236.16,1445.72 1288.61,1445.72 1288.61,214.018 1236.16,214.018 
  "/>
<path clip-path="url(#clip242)" d="
M1288.61 87.9763 L1288.61 1445.72 L1341.07 1445.72 L1341.07 87.9763 L1288.61 87.9763 L1288.61 87.9763  Z
  " fill="#009af9" fill-rule="evenodd" fill-opacity="1"/>
<polyline clip-path="url(#clip242)" style="stroke:#000000; stroke-linecap:round; stroke-linejoin:round; stroke-width:4; stroke-opacity:1; fill:none" points="
  1288.61,87.9763 1288.61,1445.72 1341.07,1445.72 1341.07,87.9763 1288.61,87.9763 
  "/>
<path clip-path="url(#clip242)" d="
M1341.07 212.422 L1341.07 1445.72 L1393.52 1445.72 L1393.52 212.422 L1341.07 212.422 L1341.07 212.422  Z
  " fill="#009af9" fill-rule="evenodd" fill-opacity="1"/>
<polyline clip-path="url(#clip242)" style="stroke:#000000; stroke-linecap:round; stroke-linejoin:round; stroke-width:4; stroke-opacity:1; fill:none" points="
  1341.07,212.422 1341.07,1445.72 1393.52,1445.72 1393.52,212.422 1341.07,212.422 
  "/>
<path clip-path="url(#clip242)" d="
M1393.52 397.496 L1393.52 1445.72 L1445.98 1445.72 L1445.98 397.496 L1393.52 397.496 L1393.52 397.496  Z
  " fill="#009af9" fill-rule="evenodd" fill-opacity="1"/>
<polyline clip-path="url(#clip242)" style="stroke:#000000; stroke-linecap:round; stroke-linejoin:round; stroke-width:4; stroke-opacity:1; fill:none" points="
  1393.52,397.496 1393.52,1445.72 1445.98,1445.72 1445.98,397.496 1393.52,397.496 
  "/>
<path clip-path="url(#clip242)" d="
M1445.98 442.169 L1445.98 1445.72 L1498.43 1445.72 L1498.43 442.169 L1445.98 442.169 L1445.98 442.169  Z
  " fill="#009af9" fill-rule="evenodd" fill-opacity="1"/>
<polyline clip-path="url(#clip242)" style="stroke:#000000; stroke-linecap:round; stroke-linejoin:round; stroke-width:4; stroke-opacity:1; fill:none" points="
  1445.98,442.169 1445.98,1445.72 1498.43,1445.72 1498.43,442.169 1445.98,442.169 
  "/>
<path clip-path="url(#clip242)" d="
M1498.43 593.738 L1498.43 1445.72 L1550.89 1445.72 L1550.89 593.738 L1498.43 593.738 L1498.43 593.738  Z
  " fill="#009af9" fill-rule="evenodd" fill-opacity="1"/>
<polyline clip-path="url(#clip242)" style="stroke:#000000; stroke-linecap:round; stroke-linejoin:round; stroke-width:4; stroke-opacity:1; fill:none" points="
  1498.43,593.738 1498.43,1445.72 1550.89,1445.72 1550.89,593.738 1498.43,593.738 
  "/>
<path clip-path="url(#clip242)" d="
M1550.89 737.33 L1550.89 1445.72 L1603.35 1445.72 L1603.35 737.33 L1550.89 737.33 L1550.89 737.33  Z
  " fill="#009af9" fill-rule="evenodd" fill-opacity="1"/>
<polyline clip-path="url(#clip242)" style="stroke:#000000; stroke-linecap:round; stroke-linejoin:round; stroke-width:4; stroke-opacity:1; fill:none" points="
  1550.89,737.33 1550.89,1445.72 1603.35,1445.72 1603.35,737.33 1550.89,737.33 
  "/>
<path clip-path="url(#clip242)" d="
M1603.35 912.831 L1603.35 1445.72 L1655.8 1445.72 L1655.8 912.831 L1603.35 912.831 L1603.35 912.831  Z
  " fill="#009af9" fill-rule="evenodd" fill-opacity="1"/>
<polyline clip-path="url(#clip242)" style="stroke:#000000; stroke-linecap:round; stroke-linejoin:round; stroke-width:4; stroke-opacity:1; fill:none" points="
  1603.35,912.831 1603.35,1445.72 1655.8,1445.72 1655.8,912.831 1603.35,912.831 
  "/>
<path clip-path="url(#clip242)" d="
M1655.8 1016.54 L1655.8 1445.72 L1708.26 1445.72 L1708.26 1016.54 L1655.8 1016.54 L1655.8 1016.54  Z
  " fill="#009af9" fill-rule="evenodd" fill-opacity="1"/>
<polyline clip-path="url(#clip242)" style="stroke:#000000; stroke-linecap:round; stroke-linejoin:round; stroke-width:4; stroke-opacity:1; fill:none" points="
  1655.8,1016.54 1655.8,1445.72 1708.26,1445.72 1708.26,1016.54 1655.8,1016.54 
  "/>
<path clip-path="url(#clip242)" d="
M1708.26 1121.84 L1708.26 1445.72 L1760.71 1445.72 L1760.71 1121.84 L1708.26 1121.84 L1708.26 1121.84  Z
  " fill="#009af9" fill-rule="evenodd" fill-opacity="1"/>
<polyline clip-path="url(#clip242)" style="stroke:#000000; stroke-linecap:round; stroke-linejoin:round; stroke-width:4; stroke-opacity:1; fill:none" points="
  1708.26,1121.84 1708.26,1445.72 1760.71,1445.72 1760.71,1121.84 1708.26,1121.84 
  "/>
<path clip-path="url(#clip242)" d="
M1760.71 1233.52 L1760.71 1445.72 L1813.17 1445.72 L1813.17 1233.52 L1760.71 1233.52 L1760.71 1233.52  Z
  " fill="#009af9" fill-rule="evenodd" fill-opacity="1"/>
<polyline clip-path="url(#clip242)" style="stroke:#000000; stroke-linecap:round; stroke-linejoin:round; stroke-width:4; stroke-opacity:1; fill:none" points="
  1760.71,1233.52 1760.71,1445.72 1813.17,1445.72 1813.17,1233.52 1760.71,1233.52 
  "/>
<path clip-path="url(#clip242)" d="
M1813.17 1294.15 L1813.17 1445.72 L1865.62 1445.72 L1865.62 1294.15 L1813.17 1294.15 L1813.17 1294.15  Z
  " fill="#009af9" fill-rule="evenodd" fill-opacity="1"/>
<polyline clip-path="url(#clip242)" style="stroke:#000000; stroke-linecap:round; stroke-linejoin:round; stroke-width:4; stroke-opacity:1; fill:none" points="
  1813.17,1294.15 1813.17,1445.72 1865.62,1445.72 1865.62,1294.15 1813.17,1294.15 
  "/>
<path clip-path="url(#clip242)" d="
M1865.62 1346.8 L1865.62 1445.72 L1918.08 1445.72 L1918.08 1346.8 L1865.62 1346.8 L1865.62 1346.8  Z
  " fill="#009af9" fill-rule="evenodd" fill-opacity="1"/>
<polyline clip-path="url(#clip242)" style="stroke:#000000; stroke-linecap:round; stroke-linejoin:round; stroke-width:4; stroke-opacity:1; fill:none" points="
  1865.62,1346.8 1865.62,1445.72 1918.08,1445.72 1918.08,1346.8 1865.62,1346.8 
  "/>
<path clip-path="url(#clip242)" d="
M1918.08 1396.26 L1918.08 1445.72 L1970.53 1445.72 L1970.53 1396.26 L1918.08 1396.26 L1918.08 1396.26  Z
  " fill="#009af9" fill-rule="evenodd" fill-opacity="1"/>
<polyline clip-path="url(#clip242)" style="stroke:#000000; stroke-linecap:round; stroke-linejoin:round; stroke-width:4; stroke-opacity:1; fill:none" points="
  1918.08,1396.26 1918.08,1445.72 1970.53,1445.72 1970.53,1396.26 1918.08,1396.26 
  "/>
<path clip-path="url(#clip242)" d="
M1970.53 1401.04 L1970.53 1445.72 L2022.99 1445.72 L2022.99 1401.04 L1970.53 1401.04 L1970.53 1401.04  Z
  " fill="#009af9" fill-rule="evenodd" fill-opacity="1"/>
<polyline clip-path="url(#clip242)" style="stroke:#000000; stroke-linecap:round; stroke-linejoin:round; stroke-width:4; stroke-opacity:1; fill:none" points="
  1970.53,1401.04 1970.53,1445.72 2022.99,1445.72 2022.99,1401.04 1970.53,1401.04 
  "/>
<path clip-path="url(#clip242)" d="
M2022.99 1421.78 L2022.99 1445.72 L2075.44 1445.72 L2075.44 1421.78 L2022.99 1421.78 L2022.99 1421.78  Z
  " fill="#009af9" fill-rule="evenodd" fill-opacity="1"/>
<polyline clip-path="url(#clip242)" style="stroke:#000000; stroke-linecap:round; stroke-linejoin:round; stroke-width:4; stroke-opacity:1; fill:none" points="
  2022.99,1421.78 2022.99,1445.72 2075.44,1445.72 2075.44,1421.78 2022.99,1421.78 
  "/>
<path clip-path="url(#clip242)" d="
M2075.44 1437.74 L2075.44 1445.72 L2127.9 1445.72 L2127.9 1437.74 L2075.44 1437.74 L2075.44 1437.74  Z
  " fill="#009af9" fill-rule="evenodd" fill-opacity="1"/>
<polyline clip-path="url(#clip242)" style="stroke:#000000; stroke-linecap:round; stroke-linejoin:round; stroke-width:4; stroke-opacity:1; fill:none" points="
  2075.44,1437.74 2075.44,1445.72 2127.9,1445.72 2127.9,1437.74 2075.44,1437.74 
  "/>
<path clip-path="url(#clip242)" d="
M2127.9 1434.55 L2127.9 1445.72 L2180.36 1445.72 L2180.36 1434.55 L2127.9 1434.55 L2127.9 1434.55  Z
  " fill="#009af9" fill-rule="evenodd" fill-opacity="1"/>
<polyline clip-path="url(#clip242)" style="stroke:#000000; stroke-linecap:round; stroke-linejoin:round; stroke-width:4; stroke-opacity:1; fill:none" points="
  2127.9,1434.55 2127.9,1445.72 2180.36,1445.72 2180.36,1434.55 2127.9,1434.55 
  "/>
<path clip-path="url(#clip242)" d="
M2180.36 1442.52 L2180.36 1445.72 L2232.81 1445.72 L2232.81 1442.52 L2180.36 1442.52 L2180.36 1442.52  Z
  " fill="#009af9" fill-rule="evenodd" fill-opacity="1"/>
<polyline clip-path="url(#clip242)" style="stroke:#000000; stroke-linecap:round; stroke-linejoin:round; stroke-width:4; stroke-opacity:1; fill:none" points="
  2180.36,1442.52 2180.36,1445.72 2232.81,1445.72 2232.81,1442.52 2180.36,1442.52 
  "/>
<circle clip-path="url(#clip242)" style="fill:#009af9; stroke:none; fill-opacity:0" cx="318.187" cy="1444.12" r="2"/>
<circle clip-path="url(#clip242)" style="fill:#009af9; stroke:none; fill-opacity:0" cx="370.643" cy="1442.52" r="2"/>
<circle clip-path="url(#clip242)" style="fill:#009af9; stroke:none; fill-opacity:0" cx="423.098" cy="1440.93" r="2"/>
<circle clip-path="url(#clip242)" style="fill:#009af9; stroke:none; fill-opacity:0" cx="475.554" cy="1436.14" r="2"/>
<circle clip-path="url(#clip242)" style="fill:#009af9; stroke:none; fill-opacity:0" cx="528.009" cy="1432.95" r="2"/>
<circle clip-path="url(#clip242)" style="fill:#009af9; stroke:none; fill-opacity:0" cx="580.464" cy="1404.23" r="2"/>
<circle clip-path="url(#clip242)" style="fill:#009af9; stroke:none; fill-opacity:0" cx="632.92" cy="1401.04" r="2"/>
<circle clip-path="url(#clip242)" style="fill:#009af9; stroke:none; fill-opacity:0" cx="685.375" cy="1351.58" r="2"/>
<circle clip-path="url(#clip242)" style="fill:#009af9; stroke:none; fill-opacity:0" cx="737.831" cy="1290.96" r="2"/>
<circle clip-path="url(#clip242)" style="fill:#009af9; stroke:none; fill-opacity:0" cx="790.286" cy="1275" r="2"/>
<circle clip-path="url(#clip242)" style="fill:#009af9; stroke:none; fill-opacity:0" cx="842.742" cy="1200.01" r="2"/>
<circle clip-path="url(#clip242)" style="fill:#009af9; stroke:none; fill-opacity:0" cx="895.197" cy="1006.96" r="2"/>
<circle clip-path="url(#clip242)" style="fill:#009af9; stroke:none; fill-opacity:0" cx="947.653" cy="860.181" r="2"/>
<circle clip-path="url(#clip242)" style="fill:#009af9; stroke:none; fill-opacity:0" cx="1000.11" cy="678.298" r="2"/>
<circle clip-path="url(#clip242)" style="fill:#009af9; stroke:none; fill-opacity:0" cx="1052.56" cy="667.13" r="2"/>
<circle clip-path="url(#clip242)" style="fill:#009af9; stroke:none; fill-opacity:0" cx="1105.02" cy="474.078" r="2"/>
<circle clip-path="url(#clip242)" style="fill:#009af9; stroke:none; fill-opacity:0" cx="1157.47" cy="373.564" r="2"/>
<circle clip-path="url(#clip242)" style="fill:#009af9; stroke:none; fill-opacity:0" cx="1209.93" cy="212.422" r="2"/>
<circle clip-path="url(#clip242)" style="fill:#009af9; stroke:none; fill-opacity:0" cx="1262.39" cy="214.018" r="2"/>
<circle clip-path="url(#clip242)" style="fill:#009af9; stroke:none; fill-opacity:0" cx="1314.84" cy="87.9763" r="2"/>
<circle clip-path="url(#clip242)" style="fill:#009af9; stroke:none; fill-opacity:0" cx="1367.3" cy="212.422" r="2"/>
<circle clip-path="url(#clip242)" style="fill:#009af9; stroke:none; fill-opacity:0" cx="1419.75" cy="397.496" r="2"/>
<circle clip-path="url(#clip242)" style="fill:#009af9; stroke:none; fill-opacity:0" cx="1472.21" cy="442.169" r="2"/>
<circle clip-path="url(#clip242)" style="fill:#009af9; stroke:none; fill-opacity:0" cx="1524.66" cy="593.738" r="2"/>
<circle clip-path="url(#clip242)" style="fill:#009af9; stroke:none; fill-opacity:0" cx="1577.12" cy="737.33" r="2"/>
<circle clip-path="url(#clip242)" style="fill:#009af9; stroke:none; fill-opacity:0" cx="1629.57" cy="912.831" r="2"/>
<circle clip-path="url(#clip242)" style="fill:#009af9; stroke:none; fill-opacity:0" cx="1682.03" cy="1016.54" r="2"/>
<circle clip-path="url(#clip242)" style="fill:#009af9; stroke:none; fill-opacity:0" cx="1734.48" cy="1121.84" r="2"/>
<circle clip-path="url(#clip242)" style="fill:#009af9; stroke:none; fill-opacity:0" cx="1786.94" cy="1233.52" r="2"/>
<circle clip-path="url(#clip242)" style="fill:#009af9; stroke:none; fill-opacity:0" cx="1839.4" cy="1294.15" r="2"/>
<circle clip-path="url(#clip242)" style="fill:#009af9; stroke:none; fill-opacity:0" cx="1891.85" cy="1346.8" r="2"/>
<circle clip-path="url(#clip242)" style="fill:#009af9; stroke:none; fill-opacity:0" cx="1944.31" cy="1396.26" r="2"/>
<circle clip-path="url(#clip242)" style="fill:#009af9; stroke:none; fill-opacity:0" cx="1996.76" cy="1401.04" r="2"/>
<circle clip-path="url(#clip242)" style="fill:#009af9; stroke:none; fill-opacity:0" cx="2049.22" cy="1421.78" r="2"/>
<circle clip-path="url(#clip242)" style="fill:#009af9; stroke:none; fill-opacity:0" cx="2101.67" cy="1437.74" r="2"/>
<circle clip-path="url(#clip242)" style="fill:#009af9; stroke:none; fill-opacity:0" cx="2154.13" cy="1434.55" r="2"/>
<circle clip-path="url(#clip242)" style="fill:#009af9; stroke:none; fill-opacity:0" cx="2206.58" cy="1442.52" r="2"/>
</svg>
