<?xml version="1.0" encoding="utf-8"?>
<svg xmlns="http://www.w3.org/2000/svg" xmlns:xlink="http://www.w3.org/1999/xlink" width="600" height="400" viewBox="0 0 2400 1600">
<defs>
  <clipPath id="clip310">
    <rect x="0" y="0" width="2400" height="1600"/>
  </clipPath>
</defs>
<path clip-path="url(#clip310)" d="M0 1600 L2400 1600 L2400 0 L0 0  Z" fill="#ffffff" fill-rule="evenodd" fill-opacity="1"/>
<defs>
  <clipPath id="clip311">
    <rect x="480" y="0" width="1681" height="1600"/>
  </clipPath>
</defs>
<path clip-path="url(#clip310)" d="M172.015 1486.45 L2352.76 1486.45 L2352.76 47.2441 L172.015 47.2441  Z" fill="#ffffff" fill-rule="evenodd" fill-opacity="1"/>
<defs>
  <clipPath id="clip312">
    <rect x="172" y="47" width="2182" height="1440"/>
  </clipPath>
</defs>
<polyline clip-path="url(#clip312)" style="stroke:#000000; stroke-linecap:round; stroke-linejoin:round; stroke-width:2; stroke-opacity:0.1; fill:none" points="291.959,1486.45 291.959,47.2441 "/>
<polyline clip-path="url(#clip312)" style="stroke:#000000; stroke-linecap:round; stroke-linejoin:round; stroke-width:2; stroke-opacity:0.1; fill:none" points="706.671,1486.45 706.671,47.2441 "/>
<polyline clip-path="url(#clip312)" style="stroke:#000000; stroke-linecap:round; stroke-linejoin:round; stroke-width:2; stroke-opacity:0.1; fill:none" points="1121.38,1486.45 1121.38,47.2441 "/>
<polyline clip-path="url(#clip312)" style="stroke:#000000; stroke-linecap:round; stroke-linejoin:round; stroke-width:2; stroke-opacity:0.1; fill:none" points="1536.1,1486.45 1536.1,47.2441 "/>
<polyline clip-path="url(#clip312)" style="stroke:#000000; stroke-linecap:round; stroke-linejoin:round; stroke-width:2; stroke-opacity:0.1; fill:none" points="1950.81,1486.45 1950.81,47.2441 "/>
<polyline clip-path="url(#clip310)" style="stroke:#000000; stroke-linecap:round; stroke-linejoin:round; stroke-width:4; stroke-opacity:1; fill:none" points="172.015,1486.45 2352.76,1486.45 "/>
<polyline clip-path="url(#clip310)" style="stroke:#000000; stroke-linecap:round; stroke-linejoin:round; stroke-width:4; stroke-opacity:1; fill:none" points="291.959,1486.45 291.959,1467.55 "/>
<polyline clip-path="url(#clip310)" style="stroke:#000000; stroke-linecap:round; stroke-linejoin:round; stroke-width:4; stroke-opacity:1; fill:none" points="706.671,1486.45 706.671,1467.55 "/>
<polyline clip-path="url(#clip310)" style="stroke:#000000; stroke-linecap:round; stroke-linejoin:round; stroke-width:4; stroke-opacity:1; fill:none" points="1121.38,1486.45 1121.38,1467.55 "/>
<polyline clip-path="url(#clip310)" style="stroke:#000000; stroke-linecap:round; stroke-linejoin:round; stroke-width:4; stroke-opacity:1; fill:none" points="1536.1,1486.45 1536.1,1467.55 "/>
<polyline clip-path="url(#clip310)" style="stroke:#000000; stroke-linecap:round; stroke-linejoin:round; stroke-width:4; stroke-opacity:1; fill:none" points="1950.81,1486.45 1950.81,1467.55 "/>
<path clip-path="url(#clip310)" d="M269.344 1517.37 Q265.733 1517.37 263.904 1520.93 Q262.099 1524.47 262.099 1531.6 Q262.099 1538.71 263.904 1542.27 Q265.733 1545.82 269.344 1545.82 Q272.978 1545.82 274.784 1542.27 Q276.612 1538.71 276.612 1531.6 Q276.612 1524.47 274.784 1520.93 Q272.978 1517.37 269.344 1517.37 M269.344 1513.66 Q275.154 1513.66 278.21 1518.27 Q281.288 1522.85 281.288 1531.6 Q281.288 1540.33 278.21 1544.94 Q275.154 1549.52 269.344 1549.52 Q263.534 1549.52 260.455 1544.94 Q257.399 1540.33 257.399 1531.6 Q257.399 1522.85 260.455 1518.27 Q263.534 1513.66 269.344 1513.66 Z" fill="#000000" fill-rule="nonzero" fill-opacity="1" /><path clip-path="url(#clip310)" d="M289.506 1542.97 L294.39 1542.97 L294.39 1548.85 L289.506 1548.85 L289.506 1542.97 Z" fill="#000000" fill-rule="nonzero" fill-opacity="1" /><path clip-path="url(#clip310)" d="M314.575 1517.37 Q310.964 1517.37 309.135 1520.93 Q307.33 1524.47 307.33 1531.6 Q307.33 1538.71 309.135 1542.27 Q310.964 1545.82 314.575 1545.82 Q318.209 1545.82 320.015 1542.27 Q321.844 1538.71 321.844 1531.6 Q321.844 1524.47 320.015 1520.93 Q318.209 1517.37 314.575 1517.37 M314.575 1513.66 Q320.385 1513.66 323.441 1518.27 Q326.519 1522.85 326.519 1531.6 Q326.519 1540.33 323.441 1544.94 Q320.385 1549.52 314.575 1549.52 Q308.765 1549.52 305.686 1544.94 Q302.631 1540.33 302.631 1531.6 Q302.631 1522.85 305.686 1518.27 Q308.765 1513.66 314.575 1513.66 Z" fill="#000000" fill-rule="nonzero" fill-opacity="1" /><path clip-path="url(#clip310)" d="M678.408 1544.91 L694.727 1544.91 L694.727 1548.85 L672.783 1548.85 L672.783 1544.91 Q675.445 1542.16 680.028 1537.53 Q684.634 1532.88 685.815 1531.53 Q688.06 1529.01 688.94 1527.27 Q689.843 1525.51 689.843 1523.82 Q689.843 1521.07 687.898 1519.33 Q685.977 1517.6 682.875 1517.6 Q680.676 1517.6 678.222 1518.36 Q675.792 1519.13 673.014 1520.68 L673.014 1515.95 Q675.838 1514.82 678.292 1514.24 Q680.746 1513.66 682.783 1513.66 Q688.153 1513.66 691.347 1516.35 Q694.542 1519.03 694.542 1523.52 Q694.542 1525.65 693.732 1527.57 Q692.945 1529.47 690.838 1532.07 Q690.259 1532.74 687.158 1535.95 Q684.056 1539.15 678.408 1544.91 Z" fill="#000000" fill-rule="nonzero" fill-opacity="1" /><path clip-path="url(#clip310)" d="M704.542 1542.97 L709.426 1542.97 L709.426 1548.85 L704.542 1548.85 L704.542 1542.97 Z" fill="#000000" fill-rule="nonzero" fill-opacity="1" /><path clip-path="url(#clip310)" d="M719.657 1514.29 L738.014 1514.29 L738.014 1518.22 L723.94 1518.22 L723.94 1526.7 Q724.958 1526.35 725.977 1526.19 Q726.995 1526 728.014 1526 Q733.801 1526 737.18 1529.17 Q740.56 1532.34 740.56 1537.76 Q740.56 1543.34 737.088 1546.44 Q733.616 1549.52 727.296 1549.52 Q725.12 1549.52 722.852 1549.15 Q720.606 1548.78 718.199 1548.04 L718.199 1543.34 Q720.282 1544.47 722.505 1545.03 Q724.727 1545.58 727.204 1545.58 Q731.208 1545.58 733.546 1543.48 Q735.884 1541.37 735.884 1537.76 Q735.884 1534.15 733.546 1532.04 Q731.208 1529.94 727.204 1529.94 Q725.329 1529.94 723.454 1530.35 Q721.602 1530.77 719.657 1531.65 L719.657 1514.29 Z" fill="#000000" fill-rule="nonzero" fill-opacity="1" /><path clip-path="url(#clip310)" d="M1088.55 1514.29 L1106.9 1514.29 L1106.9 1518.22 L1092.83 1518.22 L1092.83 1526.7 Q1093.85 1526.35 1094.87 1526.19 Q1095.89 1526 1096.9 1526 Q1102.69 1526 1106.07 1529.17 Q1109.45 1532.34 1109.45 1537.76 Q1109.45 1543.34 1105.98 1546.44 Q1102.51 1549.52 1096.19 1549.52 Q1094.01 1549.52 1091.74 1549.15 Q1089.5 1548.78 1087.09 1548.04 L1087.09 1543.34 Q1089.17 1544.47 1091.4 1545.03 Q1093.62 1545.58 1096.09 1545.58 Q1100.1 1545.58 1102.44 1543.48 Q1104.77 1541.37 1104.77 1537.76 Q1104.77 1534.15 1102.44 1532.04 Q1100.1 1529.94 1096.09 1529.94 Q1094.22 1529.94 1092.34 1530.35 Q1090.49 1530.77 1088.55 1531.65 L1088.55 1514.29 Z" fill="#000000" fill-rule="nonzero" fill-opacity="1" /><path clip-path="url(#clip310)" d="M1118.66 1542.97 L1123.55 1542.97 L1123.55 1548.85 L1118.66 1548.85 L1118.66 1542.97 Z" fill="#000000" fill-rule="nonzero" fill-opacity="1" /><path clip-path="url(#clip310)" d="M1143.73 1517.37 Q1140.12 1517.37 1138.29 1520.93 Q1136.49 1524.47 1136.49 1531.6 Q1136.49 1538.71 1138.29 1542.27 Q1140.12 1545.82 1143.73 1545.82 Q1147.37 1545.82 1149.17 1542.27 Q1151 1538.71 1151 1531.6 Q1151 1524.47 1149.17 1520.93 Q1147.37 1517.37 1143.73 1517.37 M1143.73 1513.66 Q1149.54 1513.66 1152.6 1518.27 Q1155.68 1522.85 1155.68 1531.6 Q1155.68 1540.33 1152.6 1544.94 Q1149.54 1549.52 1143.73 1549.52 Q1137.92 1549.52 1134.84 1544.94 Q1131.79 1540.33 1131.79 1531.6 Q1131.79 1522.85 1134.84 1518.27 Q1137.92 1513.66 1143.73 1513.66 Z" fill="#000000" fill-rule="nonzero" fill-opacity="1" /><path clip-path="url(#clip310)" d="M1502.41 1514.29 L1524.64 1514.29 L1524.64 1516.28 L1512.09 1548.85 L1507.21 1548.85 L1519.01 1518.22 L1502.41 1518.22 L1502.41 1514.29 Z" fill="#000000" fill-rule="nonzero" fill-opacity="1" /><path clip-path="url(#clip310)" d="M1533.76 1542.97 L1538.64 1542.97 L1538.64 1548.85 L1533.76 1548.85 L1533.76 1542.97 Z" fill="#000000" fill-rule="nonzero" fill-opacity="1" /><path clip-path="url(#clip310)" d="M1548.87 1514.29 L1567.23 1514.29 L1567.23 1518.22 L1553.16 1518.22 L1553.16 1526.7 Q1554.17 1526.35 1555.19 1526.19 Q1556.21 1526 1557.23 1526 Q1563.02 1526 1566.4 1529.17 Q1569.78 1532.34 1569.78 1537.76 Q1569.78 1543.34 1566.3 1546.44 Q1562.83 1549.52 1556.51 1549.52 Q1554.34 1549.52 1552.07 1549.15 Q1549.82 1548.78 1547.41 1548.04 L1547.41 1543.34 Q1549.5 1544.47 1551.72 1545.03 Q1553.94 1545.58 1556.42 1545.58 Q1560.42 1545.58 1562.76 1543.48 Q1565.1 1541.37 1565.1 1537.76 Q1565.1 1534.15 1562.76 1532.04 Q1560.42 1529.94 1556.42 1529.94 Q1554.54 1529.94 1552.67 1530.35 Q1550.82 1530.77 1548.87 1531.65 L1548.87 1514.29 Z" fill="#000000" fill-rule="nonzero" fill-opacity="1" /><path clip-path="url(#clip310)" d="M1902.88 1544.91 L1910.52 1544.91 L1910.52 1518.55 L1902.21 1520.21 L1902.21 1515.95 L1910.47 1514.29 L1915.15 1514.29 L1915.15 1544.91 L1922.79 1544.91 L1922.79 1548.85 L1902.88 1548.85 L1902.88 1544.91 Z" fill="#000000" fill-rule="nonzero" fill-opacity="1" /><path clip-path="url(#clip310)" d="M1942.23 1517.37 Q1938.62 1517.37 1936.79 1520.93 Q1934.99 1524.47 1934.99 1531.6 Q1934.99 1538.71 1936.79 1542.27 Q1938.62 1545.82 1942.23 1545.82 Q1945.87 1545.82 1947.67 1542.27 Q1949.5 1538.71 1949.5 1531.6 Q1949.5 1524.47 1947.67 1520.93 Q1945.87 1517.37 1942.23 1517.37 M1942.23 1513.66 Q1948.04 1513.66 1951.1 1518.27 Q1954.18 1522.85 1954.18 1531.6 Q1954.18 1540.33 1951.1 1544.94 Q1948.04 1549.52 1942.23 1549.52 Q1936.42 1549.52 1933.34 1544.94 Q1930.29 1540.33 1930.29 1531.6 Q1930.29 1522.85 1933.34 1518.27 Q1936.42 1513.66 1942.23 1513.66 Z" fill="#000000" fill-rule="nonzero" fill-opacity="1" /><path clip-path="url(#clip310)" d="M1962.39 1542.97 L1967.28 1542.97 L1967.28 1548.85 L1962.39 1548.85 L1962.39 1542.97 Z" fill="#000000" fill-rule="nonzero" fill-opacity="1" /><path clip-path="url(#clip310)" d="M1987.46 1517.37 Q1983.85 1517.37 1982.02 1520.93 Q1980.22 1524.47 1980.22 1531.6 Q1980.22 1538.71 1982.02 1542.27 Q1983.85 1545.82 1987.46 1545.82 Q1991.1 1545.82 1992.9 1542.27 Q1994.73 1538.71 1994.73 1531.6 Q1994.73 1524.47 1992.9 1520.93 Q1991.1 1517.37 1987.46 1517.37 M1987.46 1513.66 Q1993.27 1513.66 1996.33 1518.27 Q1999.41 1522.85 1999.41 1531.6 Q1999.41 1540.33 1996.33 1544.94 Q1993.27 1549.52 1987.46 1549.52 Q1981.65 1549.52 1978.57 1544.94 Q1975.52 1540.33 1975.52 1531.6 Q1975.52 1522.85 1978.57 1518.27 Q1981.65 1513.66 1987.46 1513.66 Z" fill="#000000" fill-rule="nonzero" fill-opacity="1" /><polyline clip-path="url(#clip312)" style="stroke:#000000; stroke-linecap:round; stroke-linejoin:round; stroke-width:2; stroke-opacity:0.1; fill:none" points="172.015,1486.45 2352.76,1486.45 "/>
<polyline clip-path="url(#clip312)" style="stroke:#000000; stroke-linecap:round; stroke-linejoin:round; stroke-width:2; stroke-opacity:0.1; fill:none" points="172.015,1188.48 2352.76,1188.48 "/>
<polyline clip-path="url(#clip312)" style="stroke:#000000; stroke-linecap:round; stroke-linejoin:round; stroke-width:2; stroke-opacity:0.1; fill:none" points="172.015,890.504 2352.76,890.504 "/>
<polyline clip-path="url(#clip312)" style="stroke:#000000; stroke-linecap:round; stroke-linejoin:round; stroke-width:2; stroke-opacity:0.1; fill:none" points="172.015,592.532 2352.76,592.532 "/>
<polyline clip-path="url(#clip312)" style="stroke:#000000; stroke-linecap:round; stroke-linejoin:round; stroke-width:2; stroke-opacity:0.1; fill:none" points="172.015,294.561 2352.76,294.561 "/>
<polyline clip-path="url(#clip310)" style="stroke:#000000; stroke-linecap:round; stroke-linejoin:round; stroke-width:4; stroke-opacity:1; fill:none" points="172.015,1486.45 172.015,47.2441 "/>
<polyline clip-path="url(#clip310)" style="stroke:#000000; stroke-linecap:round; stroke-linejoin:round; stroke-width:4; stroke-opacity:1; fill:none" points="172.015,1486.45 190.912,1486.45 "/>
<polyline clip-path="url(#clip310)" style="stroke:#000000; stroke-linecap:round; stroke-linejoin:round; stroke-width:4; stroke-opacity:1; fill:none" points="172.015,1188.48 190.912,1188.48 "/>
<polyline clip-path="url(#clip310)" style="stroke:#000000; stroke-linecap:round; stroke-linejoin:round; stroke-width:4; stroke-opacity:1; fill:none" points="172.015,890.504 190.912,890.504 "/>
<polyline clip-path="url(#clip310)" style="stroke:#000000; stroke-linecap:round; stroke-linejoin:round; stroke-width:4; stroke-opacity:1; fill:none" points="172.015,592.532 190.912,592.532 "/>
<polyline clip-path="url(#clip310)" style="stroke:#000000; stroke-linecap:round; stroke-linejoin:round; stroke-width:4; stroke-opacity:1; fill:none" points="172.015,294.561 190.912,294.561 "/>
<path clip-path="url(#clip310)" d="M124.07 1472.25 Q120.459 1472.25 118.631 1475.81 Q116.825 1479.35 116.825 1486.48 Q116.825 1493.59 118.631 1497.15 Q120.459 1500.7 124.07 1500.7 Q127.705 1500.7 129.51 1497.15 Q131.339 1493.59 131.339 1486.48 Q131.339 1479.35 129.51 1475.81 Q127.705 1472.25 124.07 1472.25 M124.07 1468.54 Q129.881 1468.54 132.936 1473.15 Q136.015 1477.73 136.015 1486.48 Q136.015 1495.21 132.936 1499.82 Q129.881 1504.4 124.07 1504.4 Q118.26 1504.4 115.182 1499.82 Q112.126 1495.21 112.126 1486.48 Q112.126 1477.73 115.182 1473.15 Q118.26 1468.54 124.07 1468.54 Z" fill="#000000" fill-rule="nonzero" fill-opacity="1" /><path clip-path="url(#clip310)" d="M57.7745 1201.82 L74.0939 1201.82 L74.0939 1205.76 L52.1495 1205.76 L52.1495 1201.82 Q54.8115 1199.07 59.3949 1194.44 Q64.0013 1189.78 65.1819 1188.44 Q67.4272 1185.92 68.3068 1184.18 Q69.2096 1182.42 69.2096 1180.73 Q69.2096 1177.98 67.2652 1176.24 Q65.3439 1174.51 62.2421 1174.51 Q60.043 1174.51 57.5893 1175.27 Q55.1588 1176.03 52.381 1177.58 L52.381 1172.86 Q55.2051 1171.73 57.6588 1171.15 Q60.1124 1170.57 62.1495 1170.57 Q67.5198 1170.57 70.7142 1173.26 Q73.9087 1175.94 73.9087 1180.43 Q73.9087 1182.56 73.0985 1184.48 Q72.3115 1186.38 70.205 1188.97 Q69.6263 1189.65 66.5245 1192.86 Q63.4226 1196.06 57.7745 1201.82 Z" fill="#000000" fill-rule="nonzero" fill-opacity="1" /><path clip-path="url(#clip310)" d="M93.9086 1174.27 Q90.2975 1174.27 88.4688 1177.84 Q86.6632 1181.38 86.6632 1188.51 Q86.6632 1195.62 88.4688 1199.18 Q90.2975 1202.72 93.9086 1202.72 Q97.5428 1202.72 99.3483 1199.18 Q101.177 1195.62 101.177 1188.51 Q101.177 1181.38 99.3483 1177.84 Q97.5428 1174.27 93.9086 1174.27 M93.9086 1170.57 Q99.7187 1170.57 102.774 1175.18 Q105.853 1179.76 105.853 1188.51 Q105.853 1197.24 102.774 1201.84 Q99.7187 1206.43 93.9086 1206.43 Q88.0984 1206.43 85.0197 1201.84 Q81.9642 1197.24 81.9642 1188.51 Q81.9642 1179.76 85.0197 1175.18 Q88.0984 1170.57 93.9086 1170.57 Z" fill="#000000" fill-rule="nonzero" fill-opacity="1" /><path clip-path="url(#clip310)" d="M124.07 1174.27 Q120.459 1174.27 118.631 1177.84 Q116.825 1181.38 116.825 1188.51 Q116.825 1195.62 118.631 1199.18 Q120.459 1202.72 124.07 1202.72 Q127.705 1202.72 129.51 1199.18 Q131.339 1195.62 131.339 1188.51 Q131.339 1181.38 129.51 1177.84 Q127.705 1174.27 124.07 1174.27 M124.07 1170.57 Q129.881 1170.57 132.936 1175.18 Q136.015 1179.76 136.015 1188.51 Q136.015 1197.24 132.936 1201.84 Q129.881 1206.43 124.07 1206.43 Q118.26 1206.43 115.182 1201.84 Q112.126 1197.24 112.126 1188.51 Q112.126 1179.76 115.182 1175.18 Q118.26 1170.57 124.07 1170.57 Z" fill="#000000" fill-rule="nonzero" fill-opacity="1" /><path clip-path="url(#clip310)" d="M66.5939 877.298 L54.7884 895.747 L66.5939 895.747 L66.5939 877.298 M65.367 873.224 L71.2466 873.224 L71.2466 895.747 L76.1772 895.747 L76.1772 899.636 L71.2466 899.636 L71.2466 907.784 L66.5939 907.784 L66.5939 899.636 L50.9921 899.636 L50.9921 895.122 L65.367 873.224 Z" fill="#000000" fill-rule="nonzero" fill-opacity="1" /><path clip-path="url(#clip310)" d="M93.9086 876.303 Q90.2975 876.303 88.4688 879.868 Q86.6632 883.409 86.6632 890.539 Q86.6632 897.645 88.4688 901.21 Q90.2975 904.752 93.9086 904.752 Q97.5428 904.752 99.3483 901.21 Q101.177 897.645 101.177 890.539 Q101.177 883.409 99.3483 879.868 Q97.5428 876.303 93.9086 876.303 M93.9086 872.599 Q99.7187 872.599 102.774 877.206 Q105.853 881.789 105.853 890.539 Q105.853 899.266 102.774 903.872 Q99.7187 908.456 93.9086 908.456 Q88.0984 908.456 85.0197 903.872 Q81.9642 899.266 81.9642 890.539 Q81.9642 881.789 85.0197 877.206 Q88.0984 872.599 93.9086 872.599 Z" fill="#000000" fill-rule="nonzero" fill-opacity="1" /><path clip-path="url(#clip310)" d="M124.07 876.303 Q120.459 876.303 118.631 879.868 Q116.825 883.409 116.825 890.539 Q116.825 897.645 118.631 901.21 Q120.459 904.752 124.07 904.752 Q127.705 904.752 129.51 901.21 Q131.339 897.645 131.339 890.539 Q131.339 883.409 129.51 879.868 Q127.705 876.303 124.07 876.303 M124.07 872.599 Q129.881 872.599 132.936 877.206 Q136.015 881.789 136.015 890.539 Q136.015 899.266 132.936 903.872 Q129.881 908.456 124.07 908.456 Q118.26 908.456 115.182 903.872 Q112.126 899.266 112.126 890.539 Q112.126 881.789 115.182 877.206 Q118.26 872.599 124.07 872.599 Z" fill="#000000" fill-rule="nonzero" fill-opacity="1" /><path clip-path="url(#clip310)" d="M64.3254 590.669 Q61.1773 590.669 59.3254 592.822 Q57.4967 594.975 57.4967 598.725 Q57.4967 602.451 59.3254 604.627 Q61.1773 606.78 64.3254 606.78 Q67.4735 606.78 69.3022 604.627 Q71.1541 602.451 71.1541 598.725 Q71.1541 594.975 69.3022 592.822 Q67.4735 590.669 64.3254 590.669 M73.6077 576.016 L73.6077 580.276 Q71.8485 579.442 70.0429 579.002 Q68.2606 578.563 66.5013 578.563 Q61.8717 578.563 59.418 581.688 Q56.9875 584.813 56.6402 591.132 Q58.006 589.118 60.0662 588.053 Q62.1263 586.965 64.6032 586.965 Q69.8115 586.965 72.8207 590.137 Q75.8531 593.285 75.8531 598.725 Q75.8531 604.049 72.705 607.266 Q69.5568 610.484 64.3254 610.484 Q58.33 610.484 55.1588 605.9 Q51.9875 601.294 51.9875 592.567 Q51.9875 584.373 55.8764 579.512 Q59.7652 574.627 66.3161 574.627 Q68.0754 574.627 69.8578 574.975 Q71.6633 575.322 73.6077 576.016 Z" fill="#000000" fill-rule="nonzero" fill-opacity="1" /><path clip-path="url(#clip310)" d="M93.9086 578.331 Q90.2975 578.331 88.4688 581.896 Q86.6632 585.438 86.6632 592.567 Q86.6632 599.674 88.4688 603.238 Q90.2975 606.78 93.9086 606.78 Q97.5428 606.78 99.3483 603.238 Q101.177 599.674 101.177 592.567 Q101.177 585.438 99.3483 581.896 Q97.5428 578.331 93.9086 578.331 M93.9086 574.627 Q99.7187 574.627 102.774 579.234 Q105.853 583.817 105.853 592.567 Q105.853 601.294 102.774 605.9 Q99.7187 610.484 93.9086 610.484 Q88.0984 610.484 85.0197 605.9 Q81.9642 601.294 81.9642 592.567 Q81.9642 583.817 85.0197 579.234 Q88.0984 574.627 93.9086 574.627 Z" fill="#000000" fill-rule="nonzero" fill-opacity="1" /><path clip-path="url(#clip310)" d="M124.07 578.331 Q120.459 578.331 118.631 581.896 Q116.825 585.438 116.825 592.567 Q116.825 599.674 118.631 603.238 Q120.459 606.78 124.07 606.78 Q127.705 606.78 129.51 603.238 Q131.339 599.674 131.339 592.567 Q131.339 585.438 129.51 581.896 Q127.705 578.331 124.07 578.331 M124.07 574.627 Q129.881 574.627 132.936 579.234 Q136.015 583.817 136.015 592.567 Q136.015 601.294 132.936 605.9 Q129.881 610.484 124.07 610.484 Q118.26 610.484 115.182 605.9 Q112.126 601.294 112.126 592.567 Q112.126 583.817 115.182 579.234 Q118.26 574.627 124.07 574.627 Z" fill="#000000" fill-rule="nonzero" fill-opacity="1" /><path clip-path="url(#clip310)" d="M63.7467 295.429 Q60.4134 295.429 58.4921 297.211 Q56.5939 298.994 56.5939 302.119 Q56.5939 305.243 58.4921 307.026 Q60.4134 308.808 63.7467 308.808 Q67.08 308.808 69.0013 307.026 Q70.9226 305.22 70.9226 302.119 Q70.9226 298.994 69.0013 297.211 Q67.1032 295.429 63.7467 295.429 M59.0708 293.438 Q56.0615 292.697 54.3717 290.637 Q52.7051 288.577 52.7051 285.614 Q52.7051 281.47 55.6449 279.063 Q58.6078 276.656 63.7467 276.656 Q68.9087 276.656 71.8485 279.063 Q74.7883 281.47 74.7883 285.614 Q74.7883 288.577 73.0985 290.637 Q71.4318 292.697 68.4457 293.438 Q71.8253 294.225 73.7003 296.517 Q75.5985 298.808 75.5985 302.119 Q75.5985 307.142 72.5198 309.827 Q69.4642 312.512 63.7467 312.512 Q58.0291 312.512 54.9504 309.827 Q51.8949 307.142 51.8949 302.119 Q51.8949 298.808 53.793 296.517 Q55.6912 294.225 59.0708 293.438 M57.3578 286.054 Q57.3578 288.739 59.0245 290.244 Q60.7143 291.748 63.7467 291.748 Q66.7559 291.748 68.4457 290.244 Q70.1587 288.739 70.1587 286.054 Q70.1587 283.369 68.4457 281.864 Q66.7559 280.359 63.7467 280.359 Q60.7143 280.359 59.0245 281.864 Q57.3578 283.369 57.3578 286.054 Z" fill="#000000" fill-rule="nonzero" fill-opacity="1" /><path clip-path="url(#clip310)" d="M93.9086 280.359 Q90.2975 280.359 88.4688 283.924 Q86.6632 287.466 86.6632 294.595 Q86.6632 301.702 88.4688 305.267 Q90.2975 308.808 93.9086 308.808 Q97.5428 308.808 99.3483 305.267 Q101.177 301.702 101.177 294.595 Q101.177 287.466 99.3483 283.924 Q97.5428 280.359 93.9086 280.359 M93.9086 276.656 Q99.7187 276.656 102.774 281.262 Q105.853 285.845 105.853 294.595 Q105.853 303.322 102.774 307.929 Q99.7187 312.512 93.9086 312.512 Q88.0984 312.512 85.0197 307.929 Q81.9642 303.322 81.9642 294.595 Q81.9642 285.845 85.0197 281.262 Q88.0984 276.656 93.9086 276.656 Z" fill="#000000" fill-rule="nonzero" fill-opacity="1" /><path clip-path="url(#clip310)" d="M124.07 280.359 Q120.459 280.359 118.631 283.924 Q116.825 287.466 116.825 294.595 Q116.825 301.702 118.631 305.267 Q120.459 308.808 124.07 308.808 Q127.705 308.808 129.51 305.267 Q131.339 301.702 131.339 294.595 Q131.339 287.466 129.51 283.924 Q127.705 280.359 124.07 280.359 M124.07 276.656 Q129.881 276.656 132.936 281.262 Q136.015 285.845 136.015 294.595 Q136.015 303.322 132.936 307.929 Q129.881 312.512 124.07 312.512 Q118.26 312.512 115.182 307.929 Q112.126 303.322 112.126 294.595 Q112.126 285.845 115.182 281.262 Q118.26 276.656 124.07 276.656 Z" fill="#000000" fill-rule="nonzero" fill-opacity="1" /><path clip-path="url(#clip312)" d="M291.959 47.2441 L291.959 1486.45 L308.548 1486.45 L308.548 47.2441 L291.959 47.2441 L291.959 47.2441  Z" fill="#009af9" fill-rule="evenodd" fill-opacity="1"/>
<polyline clip-path="url(#clip312)" style="stroke:#000000; stroke-linecap:round; stroke-linejoin:round; stroke-width:4; stroke-opacity:1; fill:none" points="291.959,47.2441 291.959,1486.45 308.548,1486.45 308.548,47.2441 291.959,47.2441 "/>
<path clip-path="url(#clip312)" d="M308.548 245.395 L308.548 1486.45 L325.136 1486.45 L325.136 245.395 L308.548 245.395 L308.548 245.395  Z" fill="#009af9" fill-rule="evenodd" fill-opacity="1"/>
<polyline clip-path="url(#clip312)" style="stroke:#000000; stroke-linecap:round; stroke-linejoin:round; stroke-width:4; stroke-opacity:1; fill:none" points="308.548,245.395 308.548,1486.45 325.136,1486.45 325.136,245.395 308.548,245.395 "/>
<path clip-path="url(#clip312)" d="M325.136 334.787 L325.136 1486.45 L341.725 1486.45 L341.725 334.787 L325.136 334.787 L325.136 334.787  Z" fill="#009af9" fill-rule="evenodd" fill-opacity="1"/>
<polyline clip-path="url(#clip312)" style="stroke:#000000; stroke-linecap:round; stroke-linejoin:round; stroke-width:4; stroke-opacity:1; fill:none" points="325.136,334.787 325.136,1486.45 341.725,1486.45 341.725,334.787 325.136,334.787 "/>
<path clip-path="url(#clip312)" d="M341.725 413.749 L341.725 1486.45 L358.313 1486.45 L358.313 413.749 L341.725 413.749 L341.725 413.749  Z" fill="#009af9" fill-rule="evenodd" fill-opacity="1"/>
<polyline clip-path="url(#clip312)" style="stroke:#000000; stroke-linecap:round; stroke-linejoin:round; stroke-width:4; stroke-opacity:1; fill:none" points="341.725,413.749 341.725,1486.45 358.313,1486.45 358.313,413.749 341.725,413.749 "/>
<path clip-path="url(#clip312)" d="M358.313 532.938 L358.313 1486.45 L374.902 1486.45 L374.902 532.938 L358.313 532.938 L358.313 532.938  Z" fill="#009af9" fill-rule="evenodd" fill-opacity="1"/>
<polyline clip-path="url(#clip312)" style="stroke:#000000; stroke-linecap:round; stroke-linejoin:round; stroke-width:4; stroke-opacity:1; fill:none" points="358.313,532.938 358.313,1486.45 374.902,1486.45 374.902,532.938 358.313,532.938 "/>
<path clip-path="url(#clip312)" d="M374.902 598.492 L374.902 1486.45 L391.49 1486.45 L391.49 598.492 L374.902 598.492 L374.902 598.492  Z" fill="#009af9" fill-rule="evenodd" fill-opacity="1"/>
<polyline clip-path="url(#clip312)" style="stroke:#000000; stroke-linecap:round; stroke-linejoin:round; stroke-width:4; stroke-opacity:1; fill:none" points="374.902,598.492 374.902,1486.45 391.49,1486.45 391.49,598.492 374.902,598.492 "/>
<path clip-path="url(#clip312)" d="M391.49 720.66 L391.49 1486.45 L408.079 1486.45 L408.079 720.66 L391.49 720.66 L391.49 720.66  Z" fill="#009af9" fill-rule="evenodd" fill-opacity="1"/>
<polyline clip-path="url(#clip312)" style="stroke:#000000; stroke-linecap:round; stroke-linejoin:round; stroke-width:4; stroke-opacity:1; fill:none" points="391.49,720.66 391.49,1486.45 408.079,1486.45 408.079,720.66 391.49,720.66 "/>
<path clip-path="url(#clip312)" d="M408.079 741.518 L408.079 1486.45 L424.667 1486.45 L424.667 741.518 L408.079 741.518 L408.079 741.518  Z" fill="#009af9" fill-rule="evenodd" fill-opacity="1"/>
<polyline clip-path="url(#clip312)" style="stroke:#000000; stroke-linecap:round; stroke-linejoin:round; stroke-width:4; stroke-opacity:1; fill:none" points="408.079,741.518 408.079,1486.45 424.667,1486.45 424.667,741.518 408.079,741.518 "/>
<path clip-path="url(#clip312)" d="M424.667 833.89 L424.667 1486.45 L441.256 1486.45 L441.256 833.89 L424.667 833.89 L424.667 833.89  Z" fill="#009af9" fill-rule="evenodd" fill-opacity="1"/>
<polyline clip-path="url(#clip312)" style="stroke:#000000; stroke-linecap:round; stroke-linejoin:round; stroke-width:4; stroke-opacity:1; fill:none" points="424.667,833.89 424.667,1486.45 441.256,1486.45 441.256,833.89 424.667,833.89 "/>
<path clip-path="url(#clip312)" d="M441.256 856.238 L441.256 1486.45 L457.844 1486.45 L457.844 856.238 L441.256 856.238 L441.256 856.238  Z" fill="#009af9" fill-rule="evenodd" fill-opacity="1"/>
<polyline clip-path="url(#clip312)" style="stroke:#000000; stroke-linecap:round; stroke-linejoin:round; stroke-width:4; stroke-opacity:1; fill:none" points="441.256,856.238 441.256,1486.45 457.844,1486.45 457.844,856.238 441.256,856.238 "/>
<path clip-path="url(#clip312)" d="M457.844 967.977 L457.844 1486.45 L474.433 1486.45 L474.433 967.977 L457.844 967.977 L457.844 967.977  Z" fill="#009af9" fill-rule="evenodd" fill-opacity="1"/>
<polyline clip-path="url(#clip312)" style="stroke:#000000; stroke-linecap:round; stroke-linejoin:round; stroke-width:4; stroke-opacity:1; fill:none" points="457.844,967.977 457.844,1486.45 474.433,1486.45 474.433,967.977 457.844,967.977 "/>
<path clip-path="url(#clip312)" d="M474.433 979.896 L474.433 1486.45 L491.021 1486.45 L491.021 979.896 L474.433 979.896 L474.433 979.896  Z" fill="#009af9" fill-rule="evenodd" fill-opacity="1"/>
<polyline clip-path="url(#clip312)" style="stroke:#000000; stroke-linecap:round; stroke-linejoin:round; stroke-width:4; stroke-opacity:1; fill:none" points="474.433,979.896 474.433,1486.45 491.021,1486.45 491.021,979.896 474.433,979.896 "/>
<path clip-path="url(#clip312)" d="M491.021 1090.15 L491.021 1486.45 L507.61 1486.45 L507.61 1090.15 L491.021 1090.15 L491.021 1090.15  Z" fill="#009af9" fill-rule="evenodd" fill-opacity="1"/>
<polyline clip-path="url(#clip312)" style="stroke:#000000; stroke-linecap:round; stroke-linejoin:round; stroke-width:4; stroke-opacity:1; fill:none" points="491.021,1090.15 491.021,1486.45 507.61,1486.45 507.61,1090.15 491.021,1090.15 "/>
<path clip-path="url(#clip312)" d="M507.61 1105.04 L507.61 1486.45 L524.198 1486.45 L524.198 1105.04 L507.61 1105.04 L507.61 1105.04  Z" fill="#009af9" fill-rule="evenodd" fill-opacity="1"/>
<polyline clip-path="url(#clip312)" style="stroke:#000000; stroke-linecap:round; stroke-linejoin:round; stroke-width:4; stroke-opacity:1; fill:none" points="507.61,1105.04 507.61,1486.45 524.198,1486.45 524.198,1105.04 507.61,1105.04 "/>
<path clip-path="url(#clip312)" d="M524.198 1146.76 L524.198 1486.45 L540.787 1486.45 L540.787 1146.76 L524.198 1146.76 L524.198 1146.76  Z" fill="#009af9" fill-rule="evenodd" fill-opacity="1"/>
<polyline clip-path="url(#clip312)" style="stroke:#000000; stroke-linecap:round; stroke-linejoin:round; stroke-width:4; stroke-opacity:1; fill:none" points="524.198,1146.76 524.198,1486.45 540.787,1486.45 540.787,1146.76 524.198,1146.76 "/>
<path clip-path="url(#clip312)" d="M540.787 1182.52 L540.787 1486.45 L557.375 1486.45 L557.375 1182.52 L540.787 1182.52 L540.787 1182.52  Z" fill="#009af9" fill-rule="evenodd" fill-opacity="1"/>
<polyline clip-path="url(#clip312)" style="stroke:#000000; stroke-linecap:round; stroke-linejoin:round; stroke-width:4; stroke-opacity:1; fill:none" points="540.787,1182.52 540.787,1486.45 557.375,1486.45 557.375,1182.52 540.787,1182.52 "/>
<path clip-path="url(#clip312)" d="M557.375 1221.25 L557.375 1486.45 L573.964 1486.45 L573.964 1221.25 L557.375 1221.25 L557.375 1221.25  Z" fill="#009af9" fill-rule="evenodd" fill-opacity="1"/>
<polyline clip-path="url(#clip312)" style="stroke:#000000; stroke-linecap:round; stroke-linejoin:round; stroke-width:4; stroke-opacity:1; fill:none" points="557.375,1221.25 557.375,1486.45 573.964,1486.45 573.964,1221.25 557.375,1221.25 "/>
<path clip-path="url(#clip312)" d="M573.964 1237.64 L573.964 1486.45 L590.552 1486.45 L590.552 1237.64 L573.964 1237.64 L573.964 1237.64  Z" fill="#009af9" fill-rule="evenodd" fill-opacity="1"/>
<polyline clip-path="url(#clip312)" style="stroke:#000000; stroke-linecap:round; stroke-linejoin:round; stroke-width:4; stroke-opacity:1; fill:none" points="573.964,1237.64 573.964,1486.45 590.552,1486.45 590.552,1237.64 573.964,1237.64 "/>
<path clip-path="url(#clip312)" d="M590.552 1259.99 L590.552 1486.45 L607.141 1486.45 L607.141 1259.99 L590.552 1259.99 L590.552 1259.99  Z" fill="#009af9" fill-rule="evenodd" fill-opacity="1"/>
<polyline clip-path="url(#clip312)" style="stroke:#000000; stroke-linecap:round; stroke-linejoin:round; stroke-width:4; stroke-opacity:1; fill:none" points="590.552,1259.99 590.552,1486.45 607.141,1486.45 607.141,1259.99 590.552,1259.99 "/>
<path clip-path="url(#clip312)" d="M607.141 1252.54 L607.141 1486.45 L623.729 1486.45 L623.729 1252.54 L607.141 1252.54 L607.141 1252.54  Z" fill="#009af9" fill-rule="evenodd" fill-opacity="1"/>
<polyline clip-path="url(#clip312)" style="stroke:#000000; stroke-linecap:round; stroke-linejoin:round; stroke-width:4; stroke-opacity:1; fill:none" points="607.141,1252.54 607.141,1486.45 623.729,1486.45 623.729,1252.54 607.141,1252.54 "/>
<path clip-path="url(#clip312)" d="M623.729 1300.22 L623.729 1486.45 L640.317 1486.45 L640.317 1300.22 L623.729 1300.22 L623.729 1300.22  Z" fill="#009af9" fill-rule="evenodd" fill-opacity="1"/>
<polyline clip-path="url(#clip312)" style="stroke:#000000; stroke-linecap:round; stroke-linejoin:round; stroke-width:4; stroke-opacity:1; fill:none" points="623.729,1300.22 623.729,1486.45 640.317,1486.45 640.317,1300.22 623.729,1300.22 "/>
<path clip-path="url(#clip312)" d="M640.317 1321.07 L640.317 1486.45 L656.906 1486.45 L656.906 1321.07 L640.317 1321.07 L640.317 1321.07  Z" fill="#009af9" fill-rule="evenodd" fill-opacity="1"/>
<polyline clip-path="url(#clip312)" style="stroke:#000000; stroke-linecap:round; stroke-linejoin:round; stroke-width:4; stroke-opacity:1; fill:none" points="640.317,1321.07 640.317,1486.45 656.906,1486.45 656.906,1321.07 640.317,1321.07 "/>
<path clip-path="url(#clip312)" d="M656.906 1321.07 L656.906 1486.45 L673.494 1486.45 L673.494 1321.07 L656.906 1321.07 L656.906 1321.07  Z" fill="#009af9" fill-rule="evenodd" fill-opacity="1"/>
<polyline clip-path="url(#clip312)" style="stroke:#000000; stroke-linecap:round; stroke-linejoin:round; stroke-width:4; stroke-opacity:1; fill:none" points="656.906,1321.07 656.906,1486.45 673.494,1486.45 673.494,1321.07 656.906,1321.07 "/>
<path clip-path="url(#clip312)" d="M673.494 1365.77 L673.494 1486.45 L690.083 1486.45 L690.083 1365.77 L673.494 1365.77 L673.494 1365.77  Z" fill="#009af9" fill-rule="evenodd" fill-opacity="1"/>
<polyline clip-path="url(#clip312)" style="stroke:#000000; stroke-linecap:round; stroke-linejoin:round; stroke-width:4; stroke-opacity:1; fill:none" points="673.494,1365.77 673.494,1486.45 690.083,1486.45 690.083,1365.77 673.494,1365.77 "/>
<path clip-path="url(#clip312)" d="M690.083 1343.42 L690.083 1486.45 L706.671 1486.45 L706.671 1343.42 L690.083 1343.42 L690.083 1343.42  Z" fill="#009af9" fill-rule="evenodd" fill-opacity="1"/>
<polyline clip-path="url(#clip312)" style="stroke:#000000; stroke-linecap:round; stroke-linejoin:round; stroke-width:4; stroke-opacity:1; fill:none" points="690.083,1343.42 690.083,1486.45 706.671,1486.45 706.671,1343.42 690.083,1343.42 "/>
<path clip-path="url(#clip312)" d="M706.671 1413.44 L706.671 1486.45 L723.26 1486.45 L723.26 1413.44 L706.671 1413.44 L706.671 1413.44  Z" fill="#009af9" fill-rule="evenodd" fill-opacity="1"/>
<polyline clip-path="url(#clip312)" style="stroke:#000000; stroke-linecap:round; stroke-linejoin:round; stroke-width:4; stroke-opacity:1; fill:none" points="706.671,1413.44 706.671,1486.45 723.26,1486.45 723.26,1413.44 706.671,1413.44 "/>
<path clip-path="url(#clip312)" d="M723.26 1368.75 L723.26 1486.45 L739.848 1486.45 L739.848 1368.75 L723.26 1368.75 L723.26 1368.75  Z" fill="#009af9" fill-rule="evenodd" fill-opacity="1"/>
<polyline clip-path="url(#clip312)" style="stroke:#000000; stroke-linecap:round; stroke-linejoin:round; stroke-width:4; stroke-opacity:1; fill:none" points="723.26,1368.75 723.26,1486.45 739.848,1486.45 739.848,1368.75 723.26,1368.75 "/>
<path clip-path="url(#clip312)" d="M739.848 1395.57 L739.848 1486.45 L756.437 1486.45 L756.437 1395.57 L739.848 1395.57 L739.848 1395.57  Z" fill="#009af9" fill-rule="evenodd" fill-opacity="1"/>
<polyline clip-path="url(#clip312)" style="stroke:#000000; stroke-linecap:round; stroke-linejoin:round; stroke-width:4; stroke-opacity:1; fill:none" points="739.848,1395.57 739.848,1486.45 756.437,1486.45 756.437,1395.57 739.848,1395.57 "/>
<path clip-path="url(#clip312)" d="M756.437 1403.02 L756.437 1486.45 L773.025 1486.45 L773.025 1403.02 L756.437 1403.02 L756.437 1403.02  Z" fill="#009af9" fill-rule="evenodd" fill-opacity="1"/>
<polyline clip-path="url(#clip312)" style="stroke:#000000; stroke-linecap:round; stroke-linejoin:round; stroke-width:4; stroke-opacity:1; fill:none" points="756.437,1403.02 756.437,1486.45 773.025,1486.45 773.025,1403.02 756.437,1403.02 "/>
<path clip-path="url(#clip312)" d="M773.025 1425.36 L773.025 1486.45 L789.614 1486.45 L789.614 1425.36 L773.025 1425.36 L773.025 1425.36  Z" fill="#009af9" fill-rule="evenodd" fill-opacity="1"/>
<polyline clip-path="url(#clip312)" style="stroke:#000000; stroke-linecap:round; stroke-linejoin:round; stroke-width:4; stroke-opacity:1; fill:none" points="773.025,1425.36 773.025,1486.45 789.614,1486.45 789.614,1425.36 773.025,1425.36 "/>
<path clip-path="url(#clip312)" d="M789.614 1411.95 L789.614 1486.45 L806.202 1486.45 L806.202 1411.95 L789.614 1411.95 L789.614 1411.95  Z" fill="#009af9" fill-rule="evenodd" fill-opacity="1"/>
<polyline clip-path="url(#clip312)" style="stroke:#000000; stroke-linecap:round; stroke-linejoin:round; stroke-width:4; stroke-opacity:1; fill:none" points="789.614,1411.95 789.614,1486.45 806.202,1486.45 806.202,1411.95 789.614,1411.95 "/>
<path clip-path="url(#clip312)" d="M806.202 1410.47 L806.202 1486.45 L822.791 1486.45 L822.791 1410.47 L806.202 1410.47 L806.202 1410.47  Z" fill="#009af9" fill-rule="evenodd" fill-opacity="1"/>
<polyline clip-path="url(#clip312)" style="stroke:#000000; stroke-linecap:round; stroke-linejoin:round; stroke-width:4; stroke-opacity:1; fill:none" points="806.202,1410.47 806.202,1486.45 822.791,1486.45 822.791,1410.47 806.202,1410.47 "/>
<path clip-path="url(#clip312)" d="M822.791 1431.32 L822.791 1486.45 L839.379 1486.45 L839.379 1431.32 L822.791 1431.32 L822.791 1431.32  Z" fill="#009af9" fill-rule="evenodd" fill-opacity="1"/>
<polyline clip-path="url(#clip312)" style="stroke:#000000; stroke-linecap:round; stroke-linejoin:round; stroke-width:4; stroke-opacity:1; fill:none" points="822.791,1431.32 822.791,1486.45 839.379,1486.45 839.379,1431.32 822.791,1431.32 "/>
<path clip-path="url(#clip312)" d="M839.379 1432.81 L839.379 1486.45 L855.968 1486.45 L855.968 1432.81 L839.379 1432.81 L839.379 1432.81  Z" fill="#009af9" fill-rule="evenodd" fill-opacity="1"/>
<polyline clip-path="url(#clip312)" style="stroke:#000000; stroke-linecap:round; stroke-linejoin:round; stroke-width:4; stroke-opacity:1; fill:none" points="839.379,1432.81 839.379,1486.45 855.968,1486.45 855.968,1432.81 839.379,1432.81 "/>
<path clip-path="url(#clip312)" d="M855.968 1437.28 L855.968 1486.45 L872.556 1486.45 L872.556 1437.28 L855.968 1437.28 L855.968 1437.28  Z" fill="#009af9" fill-rule="evenodd" fill-opacity="1"/>
<polyline clip-path="url(#clip312)" style="stroke:#000000; stroke-linecap:round; stroke-linejoin:round; stroke-width:4; stroke-opacity:1; fill:none" points="855.968,1437.28 855.968,1486.45 872.556,1486.45 872.556,1437.28 855.968,1437.28 "/>
<path clip-path="url(#clip312)" d="M872.556 1447.71 L872.556 1486.45 L889.145 1486.45 L889.145 1447.71 L872.556 1447.71 L872.556 1447.71  Z" fill="#009af9" fill-rule="evenodd" fill-opacity="1"/>
<polyline clip-path="url(#clip312)" style="stroke:#000000; stroke-linecap:round; stroke-linejoin:round; stroke-width:4; stroke-opacity:1; fill:none" points="872.556,1447.71 872.556,1486.45 889.145,1486.45 889.145,1447.71 872.556,1447.71 "/>
<path clip-path="url(#clip312)" d="M889.145 1446.22 L889.145 1486.45 L905.733 1486.45 L905.733 1446.22 L889.145 1446.22 L889.145 1446.22  Z" fill="#009af9" fill-rule="evenodd" fill-opacity="1"/>
<polyline clip-path="url(#clip312)" style="stroke:#000000; stroke-linecap:round; stroke-linejoin:round; stroke-width:4; stroke-opacity:1; fill:none" points="889.145,1446.22 889.145,1486.45 905.733,1486.45 905.733,1446.22 889.145,1446.22 "/>
<path clip-path="url(#clip312)" d="M905.733 1453.67 L905.733 1486.45 L922.322 1486.45 L922.322 1453.67 L905.733 1453.67 L905.733 1453.67  Z" fill="#009af9" fill-rule="evenodd" fill-opacity="1"/>
<polyline clip-path="url(#clip312)" style="stroke:#000000; stroke-linecap:round; stroke-linejoin:round; stroke-width:4; stroke-opacity:1; fill:none" points="905.733,1453.67 905.733,1486.45 922.322,1486.45 922.322,1453.67 905.733,1453.67 "/>
<path clip-path="url(#clip312)" d="M922.322 1461.12 L922.322 1486.45 L938.91 1486.45 L938.91 1461.12 L922.322 1461.12 L922.322 1461.12  Z" fill="#009af9" fill-rule="evenodd" fill-opacity="1"/>
<polyline clip-path="url(#clip312)" style="stroke:#000000; stroke-linecap:round; stroke-linejoin:round; stroke-width:4; stroke-opacity:1; fill:none" points="922.322,1461.12 922.322,1486.45 938.91,1486.45 938.91,1461.12 922.322,1461.12 "/>
<path clip-path="url(#clip312)" d="M938.91 1455.16 L938.91 1486.45 L955.499 1486.45 L955.499 1455.16 L938.91 1455.16 L938.91 1455.16  Z" fill="#009af9" fill-rule="evenodd" fill-opacity="1"/>
<polyline clip-path="url(#clip312)" style="stroke:#000000; stroke-linecap:round; stroke-linejoin:round; stroke-width:4; stroke-opacity:1; fill:none" points="938.91,1455.16 938.91,1486.45 955.499,1486.45 955.499,1455.16 938.91,1455.16 "/>
<path clip-path="url(#clip312)" d="M955.499 1467.08 L955.499 1486.45 L972.087 1486.45 L972.087 1467.08 L955.499 1467.08 L955.499 1467.08  Z" fill="#009af9" fill-rule="evenodd" fill-opacity="1"/>
<polyline clip-path="url(#clip312)" style="stroke:#000000; stroke-linecap:round; stroke-linejoin:round; stroke-width:4; stroke-opacity:1; fill:none" points="955.499,1467.08 955.499,1486.45 972.087,1486.45 972.087,1467.08 955.499,1467.08 "/>
<path clip-path="url(#clip312)" d="M972.087 1458.14 L972.087 1486.45 L988.675 1486.45 L988.675 1458.14 L972.087 1458.14 L972.087 1458.14  Z" fill="#009af9" fill-rule="evenodd" fill-opacity="1"/>
<polyline clip-path="url(#clip312)" style="stroke:#000000; stroke-linecap:round; stroke-linejoin:round; stroke-width:4; stroke-opacity:1; fill:none" points="972.087,1458.14 972.087,1486.45 988.675,1486.45 988.675,1458.14 972.087,1458.14 "/>
<path clip-path="url(#clip312)" d="M988.675 1468.57 L988.675 1486.45 L1005.26 1486.45 L1005.26 1468.57 L988.675 1468.57 L988.675 1468.57  Z" fill="#009af9" fill-rule="evenodd" fill-opacity="1"/>
<polyline clip-path="url(#clip312)" style="stroke:#000000; stroke-linecap:round; stroke-linejoin:round; stroke-width:4; stroke-opacity:1; fill:none" points="988.675,1468.57 988.675,1486.45 1005.26,1486.45 1005.26,1468.57 988.675,1468.57 "/>
<path clip-path="url(#clip312)" d="M1005.26 1461.12 L1005.26 1486.45 L1021.85 1486.45 L1021.85 1461.12 L1005.26 1461.12 L1005.26 1461.12  Z" fill="#009af9" fill-rule="evenodd" fill-opacity="1"/>
<polyline clip-path="url(#clip312)" style="stroke:#000000; stroke-linecap:round; stroke-linejoin:round; stroke-width:4; stroke-opacity:1; fill:none" points="1005.26,1461.12 1005.26,1486.45 1021.85,1486.45 1021.85,1461.12 1005.26,1461.12 "/>
<path clip-path="url(#clip312)" d="M1021.85 1476.02 L1021.85 1486.45 L1038.44 1486.45 L1038.44 1476.02 L1021.85 1476.02 L1021.85 1476.02  Z" fill="#009af9" fill-rule="evenodd" fill-opacity="1"/>
<polyline clip-path="url(#clip312)" style="stroke:#000000; stroke-linecap:round; stroke-linejoin:round; stroke-width:4; stroke-opacity:1; fill:none" points="1021.85,1476.02 1021.85,1486.45 1038.44,1486.45 1038.44,1476.02 1021.85,1476.02 "/>
<path clip-path="url(#clip312)" d="M1038.44 1476.02 L1038.44 1486.45 L1055.03 1486.45 L1055.03 1476.02 L1038.44 1476.02 L1038.44 1476.02  Z" fill="#009af9" fill-rule="evenodd" fill-opacity="1"/>
<polyline clip-path="url(#clip312)" style="stroke:#000000; stroke-linecap:round; stroke-linejoin:round; stroke-width:4; stroke-opacity:1; fill:none" points="1038.44,1476.02 1038.44,1486.45 1055.03,1486.45 1055.03,1476.02 1038.44,1476.02 "/>
<path clip-path="url(#clip312)" d="M1055.03 1468.57 L1055.03 1486.45 L1071.62 1486.45 L1071.62 1468.57 L1055.03 1468.57 L1055.03 1468.57  Z" fill="#009af9" fill-rule="evenodd" fill-opacity="1"/>
<polyline clip-path="url(#clip312)" style="stroke:#000000; stroke-linecap:round; stroke-linejoin:round; stroke-width:4; stroke-opacity:1; fill:none" points="1055.03,1468.57 1055.03,1486.45 1071.62,1486.45 1071.62,1468.57 1055.03,1468.57 "/>
<path clip-path="url(#clip312)" d="M1071.62 1477.51 L1071.62 1486.45 L1088.21 1486.45 L1088.21 1477.51 L1071.62 1477.51 L1071.62 1477.51  Z" fill="#009af9" fill-rule="evenodd" fill-opacity="1"/>
<polyline clip-path="url(#clip312)" style="stroke:#000000; stroke-linecap:round; stroke-linejoin:round; stroke-width:4; stroke-opacity:1; fill:none" points="1071.62,1477.51 1071.62,1486.45 1088.21,1486.45 1088.21,1477.51 1071.62,1477.51 "/>
<path clip-path="url(#clip312)" d="M1088.21 1480.49 L1088.21 1486.45 L1104.79 1486.45 L1104.79 1480.49 L1088.21 1480.49 L1088.21 1480.49  Z" fill="#009af9" fill-rule="evenodd" fill-opacity="1"/>
<polyline clip-path="url(#clip312)" style="stroke:#000000; stroke-linecap:round; stroke-linejoin:round; stroke-width:4; stroke-opacity:1; fill:none" points="1088.21,1480.49 1088.21,1486.45 1104.79,1486.45 1104.79,1480.49 1088.21,1480.49 "/>
<path clip-path="url(#clip312)" d="M1104.79 1465.59 L1104.79 1486.45 L1121.38 1486.45 L1121.38 1465.59 L1104.79 1465.59 L1104.79 1465.59  Z" fill="#009af9" fill-rule="evenodd" fill-opacity="1"/>
<polyline clip-path="url(#clip312)" style="stroke:#000000; stroke-linecap:round; stroke-linejoin:round; stroke-width:4; stroke-opacity:1; fill:none" points="1104.79,1465.59 1104.79,1486.45 1121.38,1486.45 1121.38,1465.59 1104.79,1465.59 "/>
<path clip-path="url(#clip312)" d="M1121.38 1481.98 L1121.38 1486.45 L1137.97 1486.45 L1137.97 1481.98 L1121.38 1481.98 L1121.38 1481.98  Z" fill="#009af9" fill-rule="evenodd" fill-opacity="1"/>
<polyline clip-path="url(#clip312)" style="stroke:#000000; stroke-linecap:round; stroke-linejoin:round; stroke-width:4; stroke-opacity:1; fill:none" points="1121.38,1481.98 1121.38,1486.45 1137.97,1486.45 1137.97,1481.98 1121.38,1481.98 "/>
<path clip-path="url(#clip312)" d="M1137.97 1486.45 L1137.97 1486.45 L1154.56 1486.45 L1154.56 1486.45 L1137.97 1486.45 L1137.97 1486.45  Z" fill="#009af9" fill-rule="evenodd" fill-opacity="1"/>
<polyline clip-path="url(#clip312)" style="stroke:#000000; stroke-linecap:round; stroke-linejoin:round; stroke-width:4; stroke-opacity:1; fill:none" points="1137.97,1486.45 1137.97,1486.45 1154.56,1486.45 1137.97,1486.45 "/>
<path clip-path="url(#clip312)" d="M1154.56 1481.98 L1154.56 1486.45 L1171.15 1486.45 L1171.15 1481.98 L1154.56 1481.98 L1154.56 1481.98  Z" fill="#009af9" fill-rule="evenodd" fill-opacity="1"/>
<polyline clip-path="url(#clip312)" style="stroke:#000000; stroke-linecap:round; stroke-linejoin:round; stroke-width:4; stroke-opacity:1; fill:none" points="1154.56,1481.98 1154.56,1486.45 1171.15,1486.45 1171.15,1481.98 1154.56,1481.98 "/>
<path clip-path="url(#clip312)" d="M1171.15 1480.49 L1171.15 1486.45 L1187.74 1486.45 L1187.74 1480.49 L1171.15 1480.49 L1171.15 1480.49  Z" fill="#009af9" fill-rule="evenodd" fill-opacity="1"/>
<polyline clip-path="url(#clip312)" style="stroke:#000000; stroke-linecap:round; stroke-linejoin:round; stroke-width:4; stroke-opacity:1; fill:none" points="1171.15,1480.49 1171.15,1486.45 1187.74,1486.45 1187.74,1480.49 1171.15,1480.49 "/>
<path clip-path="url(#clip312)" d="M1187.74 1484.96 L1187.74 1486.45 L1204.33 1486.45 L1204.33 1484.96 L1187.74 1484.96 L1187.74 1484.96  Z" fill="#009af9" fill-rule="evenodd" fill-opacity="1"/>
<polyline clip-path="url(#clip312)" style="stroke:#000000; stroke-linecap:round; stroke-linejoin:round; stroke-width:4; stroke-opacity:1; fill:none" points="1187.74,1484.96 1187.74,1486.45 1204.33,1486.45 1204.33,1484.96 1187.74,1484.96 "/>
<path clip-path="url(#clip312)" d="M1204.33 1483.47 L1204.33 1486.45 L1220.91 1486.45 L1220.91 1483.47 L1204.33 1483.47 L1204.33 1483.47  Z" fill="#009af9" fill-rule="evenodd" fill-opacity="1"/>
<polyline clip-path="url(#clip312)" style="stroke:#000000; stroke-linecap:round; stroke-linejoin:round; stroke-width:4; stroke-opacity:1; fill:none" points="1204.33,1483.47 1204.33,1486.45 1220.91,1486.45 1220.91,1483.47 1204.33,1483.47 "/>
<path clip-path="url(#clip312)" d="M1220.91 1480.49 L1220.91 1486.45 L1237.5 1486.45 L1237.5 1480.49 L1220.91 1480.49 L1220.91 1480.49  Z" fill="#009af9" fill-rule="evenodd" fill-opacity="1"/>
<polyline clip-path="url(#clip312)" style="stroke:#000000; stroke-linecap:round; stroke-linejoin:round; stroke-width:4; stroke-opacity:1; fill:none" points="1220.91,1480.49 1220.91,1486.45 1237.5,1486.45 1237.5,1480.49 1220.91,1480.49 "/>
<path clip-path="url(#clip312)" d="M1237.5 1480.49 L1237.5 1486.45 L1254.09 1486.45 L1254.09 1480.49 L1237.5 1480.49 L1237.5 1480.49  Z" fill="#009af9" fill-rule="evenodd" fill-opacity="1"/>
<polyline clip-path="url(#clip312)" style="stroke:#000000; stroke-linecap:round; stroke-linejoin:round; stroke-width:4; stroke-opacity:1; fill:none" points="1237.5,1480.49 1237.5,1486.45 1254.09,1486.45 1254.09,1480.49 1237.5,1480.49 "/>
<path clip-path="url(#clip312)" d="M1254.09 1483.47 L1254.09 1486.45 L1270.68 1486.45 L1270.68 1483.47 L1254.09 1483.47 L1254.09 1483.47  Z" fill="#009af9" fill-rule="evenodd" fill-opacity="1"/>
<polyline clip-path="url(#clip312)" style="stroke:#000000; stroke-linecap:round; stroke-linejoin:round; stroke-width:4; stroke-opacity:1; fill:none" points="1254.09,1483.47 1254.09,1486.45 1270.68,1486.45 1270.68,1483.47 1254.09,1483.47 "/>
<path clip-path="url(#clip312)" d="M1270.68 1477.51 L1270.68 1486.45 L1287.27 1486.45 L1287.27 1477.51 L1270.68 1477.51 L1270.68 1477.51  Z" fill="#009af9" fill-rule="evenodd" fill-opacity="1"/>
<polyline clip-path="url(#clip312)" style="stroke:#000000; stroke-linecap:round; stroke-linejoin:round; stroke-width:4; stroke-opacity:1; fill:none" points="1270.68,1477.51 1270.68,1486.45 1287.27,1486.45 1287.27,1477.51 1270.68,1477.51 "/>
<path clip-path="url(#clip312)" d="M1287.27 1483.47 L1287.27 1486.45 L1303.86 1486.45 L1303.86 1483.47 L1287.27 1483.47 L1287.27 1483.47  Z" fill="#009af9" fill-rule="evenodd" fill-opacity="1"/>
<polyline clip-path="url(#clip312)" style="stroke:#000000; stroke-linecap:round; stroke-linejoin:round; stroke-width:4; stroke-opacity:1; fill:none" points="1287.27,1483.47 1287.27,1486.45 1303.86,1486.45 1303.86,1483.47 1287.27,1483.47 "/>
<path clip-path="url(#clip312)" d="M1303.86 1481.98 L1303.86 1486.45 L1320.45 1486.45 L1320.45 1481.98 L1303.86 1481.98 L1303.86 1481.98  Z" fill="#009af9" fill-rule="evenodd" fill-opacity="1"/>
<polyline clip-path="url(#clip312)" style="stroke:#000000; stroke-linecap:round; stroke-linejoin:round; stroke-width:4; stroke-opacity:1; fill:none" points="1303.86,1481.98 1303.86,1486.45 1320.45,1486.45 1320.45,1481.98 1303.86,1481.98 "/>
<path clip-path="url(#clip312)" d="M1320.45 1481.98 L1320.45 1486.45 L1337.03 1486.45 L1337.03 1481.98 L1320.45 1481.98 L1320.45 1481.98  Z" fill="#009af9" fill-rule="evenodd" fill-opacity="1"/>
<polyline clip-path="url(#clip312)" style="stroke:#000000; stroke-linecap:round; stroke-linejoin:round; stroke-width:4; stroke-opacity:1; fill:none" points="1320.45,1481.98 1320.45,1486.45 1337.03,1486.45 1337.03,1481.98 1320.45,1481.98 "/>
<path clip-path="url(#clip312)" d="M1337.03 1484.96 L1337.03 1486.45 L1353.62 1486.45 L1353.62 1484.96 L1337.03 1484.96 L1337.03 1484.96  Z" fill="#009af9" fill-rule="evenodd" fill-opacity="1"/>
<polyline clip-path="url(#clip312)" style="stroke:#000000; stroke-linecap:round; stroke-linejoin:round; stroke-width:4; stroke-opacity:1; fill:none" points="1337.03,1484.96 1337.03,1486.45 1353.62,1486.45 1353.62,1484.96 1337.03,1484.96 "/>
<path clip-path="url(#clip312)" d="M1353.62 1483.47 L1353.62 1486.45 L1370.21 1486.45 L1370.21 1483.47 L1353.62 1483.47 L1353.62 1483.47  Z" fill="#009af9" fill-rule="evenodd" fill-opacity="1"/>
<polyline clip-path="url(#clip312)" style="stroke:#000000; stroke-linecap:round; stroke-linejoin:round; stroke-width:4; stroke-opacity:1; fill:none" points="1353.62,1483.47 1353.62,1486.45 1370.21,1486.45 1370.21,1483.47 1353.62,1483.47 "/>
<path clip-path="url(#clip312)" d="M1370.21 1483.47 L1370.21 1486.45 L1386.8 1486.45 L1386.8 1483.47 L1370.21 1483.47 L1370.21 1483.47  Z" fill="#009af9" fill-rule="evenodd" fill-opacity="1"/>
<polyline clip-path="url(#clip312)" style="stroke:#000000; stroke-linecap:round; stroke-linejoin:round; stroke-width:4; stroke-opacity:1; fill:none" points="1370.21,1483.47 1370.21,1486.45 1386.8,1486.45 1386.8,1483.47 1370.21,1483.47 "/>
<path clip-path="url(#clip312)" d="M1386.8 1486.45 L1386.8 1486.45 L1403.39 1486.45 L1403.39 1486.45 L1386.8 1486.45 L1386.8 1486.45  Z" fill="#009af9" fill-rule="evenodd" fill-opacity="1"/>
<polyline clip-path="url(#clip312)" style="stroke:#000000; stroke-linecap:round; stroke-linejoin:round; stroke-width:4; stroke-opacity:1; fill:none" points="1386.8,1486.45 1386.8,1486.45 1403.39,1486.45 1386.8,1486.45 "/>
<path clip-path="url(#clip312)" d="M1403.39 1484.96 L1403.39 1486.45 L1419.98 1486.45 L1419.98 1484.96 L1403.39 1484.96 L1403.39 1484.96  Z" fill="#009af9" fill-rule="evenodd" fill-opacity="1"/>
<polyline clip-path="url(#clip312)" style="stroke:#000000; stroke-linecap:round; stroke-linejoin:round; stroke-width:4; stroke-opacity:1; fill:none" points="1403.39,1484.96 1403.39,1486.45 1419.98,1486.45 1419.98,1484.96 1403.39,1484.96 "/>
<path clip-path="url(#clip312)" d="M1419.98 1483.47 L1419.98 1486.45 L1436.56 1486.45 L1436.56 1483.47 L1419.98 1483.47 L1419.98 1483.47  Z" fill="#009af9" fill-rule="evenodd" fill-opacity="1"/>
<polyline clip-path="url(#clip312)" style="stroke:#000000; stroke-linecap:round; stroke-linejoin:round; stroke-width:4; stroke-opacity:1; fill:none" points="1419.98,1483.47 1419.98,1486.45 1436.56,1486.45 1436.56,1483.47 1419.98,1483.47 "/>
<path clip-path="url(#clip312)" d="M1436.56 1483.47 L1436.56 1486.45 L1453.15 1486.45 L1453.15 1483.47 L1436.56 1483.47 L1436.56 1483.47  Z" fill="#009af9" fill-rule="evenodd" fill-opacity="1"/>
<polyline clip-path="url(#clip312)" style="stroke:#000000; stroke-linecap:round; stroke-linejoin:round; stroke-width:4; stroke-opacity:1; fill:none" points="1436.56,1483.47 1436.56,1486.45 1453.15,1486.45 1453.15,1483.47 1436.56,1483.47 "/>
<path clip-path="url(#clip312)" d="M1453.15 1484.96 L1453.15 1486.45 L1469.74 1486.45 L1469.74 1484.96 L1453.15 1484.96 L1453.15 1484.96  Z" fill="#009af9" fill-rule="evenodd" fill-opacity="1"/>
<polyline clip-path="url(#clip312)" style="stroke:#000000; stroke-linecap:round; stroke-linejoin:round; stroke-width:4; stroke-opacity:1; fill:none" points="1453.15,1484.96 1453.15,1486.45 1469.74,1486.45 1469.74,1484.96 1453.15,1484.96 "/>
<path clip-path="url(#clip312)" d="M1469.74 1484.96 L1469.74 1486.45 L1486.33 1486.45 L1486.33 1484.96 L1469.74 1484.96 L1469.74 1484.96  Z" fill="#009af9" fill-rule="evenodd" fill-opacity="1"/>
<polyline clip-path="url(#clip312)" style="stroke:#000000; stroke-linecap:round; stroke-linejoin:round; stroke-width:4; stroke-opacity:1; fill:none" points="1469.74,1484.96 1469.74,1486.45 1486.33,1486.45 1486.33,1484.96 1469.74,1484.96 "/>
<path clip-path="url(#clip312)" d="M1486.33 1483.47 L1486.33 1486.45 L1502.92 1486.45 L1502.92 1483.47 L1486.33 1483.47 L1486.33 1483.47  Z" fill="#009af9" fill-rule="evenodd" fill-opacity="1"/>
<polyline clip-path="url(#clip312)" style="stroke:#000000; stroke-linecap:round; stroke-linejoin:round; stroke-width:4; stroke-opacity:1; fill:none" points="1486.33,1483.47 1486.33,1486.45 1502.92,1486.45 1502.92,1483.47 1486.33,1483.47 "/>
<path clip-path="url(#clip312)" d="M1502.92 1484.96 L1502.92 1486.45 L1519.51 1486.45 L1519.51 1484.96 L1502.92 1484.96 L1502.92 1484.96  Z" fill="#009af9" fill-rule="evenodd" fill-opacity="1"/>
<polyline clip-path="url(#clip312)" style="stroke:#000000; stroke-linecap:round; stroke-linejoin:round; stroke-width:4; stroke-opacity:1; fill:none" points="1502.92,1484.96 1502.92,1486.45 1519.51,1486.45 1519.51,1484.96 1502.92,1484.96 "/>
<path clip-path="url(#clip312)" d="M1519.51 1483.47 L1519.51 1486.45 L1536.1 1486.45 L1536.1 1483.47 L1519.51 1483.47 L1519.51 1483.47  Z" fill="#009af9" fill-rule="evenodd" fill-opacity="1"/>
<polyline clip-path="url(#clip312)" style="stroke:#000000; stroke-linecap:round; stroke-linejoin:round; stroke-width:4; stroke-opacity:1; fill:none" points="1519.51,1483.47 1519.51,1486.45 1536.1,1486.45 1536.1,1483.47 1519.51,1483.47 "/>
<path clip-path="url(#clip312)" d="M1536.1 1486.45 L1536.1 1486.45 L1552.68 1486.45 L1552.68 1486.45 L1536.1 1486.45 L1536.1 1486.45  Z" fill="#009af9" fill-rule="evenodd" fill-opacity="1"/>
<polyline clip-path="url(#clip312)" style="stroke:#000000; stroke-linecap:round; stroke-linejoin:round; stroke-width:4; stroke-opacity:1; fill:none" points="1536.1,1486.45 1536.1,1486.45 1552.68,1486.45 1536.1,1486.45 "/>
<path clip-path="url(#clip312)" d="M1552.68 1484.96 L1552.68 1486.45 L1569.27 1486.45 L1569.27 1484.96 L1552.68 1484.96 L1552.68 1484.96  Z" fill="#009af9" fill-rule="evenodd" fill-opacity="1"/>
<polyline clip-path="url(#clip312)" style="stroke:#000000; stroke-linecap:round; stroke-linejoin:round; stroke-width:4; stroke-opacity:1; fill:none" points="1552.68,1484.96 1552.68,1486.45 1569.27,1486.45 1569.27,1484.96 1552.68,1484.96 "/>
<path clip-path="url(#clip312)" d="M1569.27 1486.45 L1569.27 1486.45 L1585.86 1486.45 L1585.86 1486.45 L1569.27 1486.45 L1569.27 1486.45  Z" fill="#009af9" fill-rule="evenodd" fill-opacity="1"/>
<polyline clip-path="url(#clip312)" style="stroke:#000000; stroke-linecap:round; stroke-linejoin:round; stroke-width:4; stroke-opacity:1; fill:none" points="1569.27,1486.45 1569.27,1486.45 1585.86,1486.45 1569.27,1486.45 "/>
<path clip-path="url(#clip312)" d="M1585.86 1486.45 L1585.86 1486.45 L1602.45 1486.45 L1602.45 1486.45 L1585.86 1486.45 L1585.86 1486.45  Z" fill="#009af9" fill-rule="evenodd" fill-opacity="1"/>
<polyline clip-path="url(#clip312)" style="stroke:#000000; stroke-linecap:round; stroke-linejoin:round; stroke-width:4; stroke-opacity:1; fill:none" points="1585.86,1486.45 1585.86,1486.45 1602.45,1486.45 1585.86,1486.45 "/>
<path clip-path="url(#clip312)" d="M1602.45 1486.45 L1602.45 1486.45 L1619.04 1486.45 L1619.04 1486.45 L1602.45 1486.45 L1602.45 1486.45  Z" fill="#009af9" fill-rule="evenodd" fill-opacity="1"/>
<polyline clip-path="url(#clip312)" style="stroke:#000000; stroke-linecap:round; stroke-linejoin:round; stroke-width:4; stroke-opacity:1; fill:none" points="1602.45,1486.45 1602.45,1486.45 1619.04,1486.45 1602.45,1486.45 "/>
<path clip-path="url(#clip312)" d="M1619.04 1486.45 L1619.04 1486.45 L1635.63 1486.45 L1635.63 1486.45 L1619.04 1486.45 L1619.04 1486.45  Z" fill="#009af9" fill-rule="evenodd" fill-opacity="1"/>
<polyline clip-path="url(#clip312)" style="stroke:#000000; stroke-linecap:round; stroke-linejoin:round; stroke-width:4; stroke-opacity:1; fill:none" points="1619.04,1486.45 1619.04,1486.45 1635.63,1486.45 1619.04,1486.45 "/>
<path clip-path="url(#clip312)" d="M1635.63 1486.45 L1635.63 1486.45 L1652.21 1486.45 L1652.21 1486.45 L1635.63 1486.45 L1635.63 1486.45  Z" fill="#009af9" fill-rule="evenodd" fill-opacity="1"/>
<polyline clip-path="url(#clip312)" style="stroke:#000000; stroke-linecap:round; stroke-linejoin:round; stroke-width:4; stroke-opacity:1; fill:none" points="1635.63,1486.45 1635.63,1486.45 1652.21,1486.45 1635.63,1486.45 "/>
<path clip-path="url(#clip312)" d="M1652.21 1486.45 L1652.21 1486.45 L1668.8 1486.45 L1668.8 1486.45 L1652.21 1486.45 L1652.21 1486.45  Z" fill="#009af9" fill-rule="evenodd" fill-opacity="1"/>
<polyline clip-path="url(#clip312)" style="stroke:#000000; stroke-linecap:round; stroke-linejoin:round; stroke-width:4; stroke-opacity:1; fill:none" points="1652.21,1486.45 1652.21,1486.45 1668.8,1486.45 1652.21,1486.45 "/>
<path clip-path="url(#clip312)" d="M1668.8 1486.45 L1668.8 1486.45 L1685.39 1486.45 L1685.39 1486.45 L1668.8 1486.45 L1668.8 1486.45  Z" fill="#009af9" fill-rule="evenodd" fill-opacity="1"/>
<polyline clip-path="url(#clip312)" style="stroke:#000000; stroke-linecap:round; stroke-linejoin:round; stroke-width:4; stroke-opacity:1; fill:none" points="1668.8,1486.45 1668.8,1486.45 1685.39,1486.45 1668.8,1486.45 "/>
<path clip-path="url(#clip312)" d="M1685.39 1484.96 L1685.39 1486.45 L1701.98 1486.45 L1701.98 1484.96 L1685.39 1484.96 L1685.39 1484.96  Z" fill="#009af9" fill-rule="evenodd" fill-opacity="1"/>
<polyline clip-path="url(#clip312)" style="stroke:#000000; stroke-linecap:round; stroke-linejoin:round; stroke-width:4; stroke-opacity:1; fill:none" points="1685.39,1484.96 1685.39,1486.45 1701.98,1486.45 1701.98,1484.96 1685.39,1484.96 "/>
<path clip-path="url(#clip312)" d="M1701.98 1486.45 L1701.98 1486.45 L1718.57 1486.45 L1718.57 1486.45 L1701.98 1486.45 L1701.98 1486.45  Z" fill="#009af9" fill-rule="evenodd" fill-opacity="1"/>
<polyline clip-path="url(#clip312)" style="stroke:#000000; stroke-linecap:round; stroke-linejoin:round; stroke-width:4; stroke-opacity:1; fill:none" points="1701.98,1486.45 1701.98,1486.45 1718.57,1486.45 1701.98,1486.45 "/>
<path clip-path="url(#clip312)" d="M1718.57 1486.45 L1718.57 1486.45 L1735.16 1486.45 L1735.16 1486.45 L1718.57 1486.45 L1718.57 1486.45  Z" fill="#009af9" fill-rule="evenodd" fill-opacity="1"/>
<polyline clip-path="url(#clip312)" style="stroke:#000000; stroke-linecap:round; stroke-linejoin:round; stroke-width:4; stroke-opacity:1; fill:none" points="1718.57,1486.45 1718.57,1486.45 1735.16,1486.45 1718.57,1486.45 "/>
<path clip-path="url(#clip312)" d="M1735.16 1484.96 L1735.16 1486.45 L1751.75 1486.45 L1751.75 1484.96 L1735.16 1484.96 L1735.16 1484.96  Z" fill="#009af9" fill-rule="evenodd" fill-opacity="1"/>
<polyline clip-path="url(#clip312)" style="stroke:#000000; stroke-linecap:round; stroke-linejoin:round; stroke-width:4; stroke-opacity:1; fill:none" points="1735.16,1484.96 1735.16,1486.45 1751.75,1486.45 1751.75,1484.96 1735.16,1484.96 "/>
<path clip-path="url(#clip312)" d="M1751.75 1486.45 L1751.75 1486.45 L1768.33 1486.45 L1768.33 1486.45 L1751.75 1486.45 L1751.75 1486.45  Z" fill="#009af9" fill-rule="evenodd" fill-opacity="1"/>
<polyline clip-path="url(#clip312)" style="stroke:#000000; stroke-linecap:round; stroke-linejoin:round; stroke-width:4; stroke-opacity:1; fill:none" points="1751.75,1486.45 1751.75,1486.45 1768.33,1486.45 1751.75,1486.45 "/>
<path clip-path="url(#clip312)" d="M1768.33 1486.45 L1768.33 1486.45 L1784.92 1486.45 L1784.92 1486.45 L1768.33 1486.45 L1768.33 1486.45  Z" fill="#009af9" fill-rule="evenodd" fill-opacity="1"/>
<polyline clip-path="url(#clip312)" style="stroke:#000000; stroke-linecap:round; stroke-linejoin:round; stroke-width:4; stroke-opacity:1; fill:none" points="1768.33,1486.45 1768.33,1486.45 1784.92,1486.45 1768.33,1486.45 "/>
<path clip-path="url(#clip312)" d="M1784.92 1486.45 L1784.92 1486.45 L1801.51 1486.45 L1801.51 1486.45 L1784.92 1486.45 L1784.92 1486.45  Z" fill="#009af9" fill-rule="evenodd" fill-opacity="1"/>
<polyline clip-path="url(#clip312)" style="stroke:#000000; stroke-linecap:round; stroke-linejoin:round; stroke-width:4; stroke-opacity:1; fill:none" points="1784.92,1486.45 1784.92,1486.45 1801.51,1486.45 1784.92,1486.45 "/>
<path clip-path="url(#clip312)" d="M1801.51 1484.96 L1801.51 1486.45 L1818.1 1486.45 L1818.1 1484.96 L1801.51 1484.96 L1801.51 1484.96  Z" fill="#009af9" fill-rule="evenodd" fill-opacity="1"/>
<polyline clip-path="url(#clip312)" style="stroke:#000000; stroke-linecap:round; stroke-linejoin:round; stroke-width:4; stroke-opacity:1; fill:none" points="1801.51,1484.96 1801.51,1486.45 1818.1,1486.45 1818.1,1484.96 1801.51,1484.96 "/>
<path clip-path="url(#clip312)" d="M1818.1 1486.45 L1818.1 1486.45 L1834.69 1486.45 L1834.69 1486.45 L1818.1 1486.45 L1818.1 1486.45  Z" fill="#009af9" fill-rule="evenodd" fill-opacity="1"/>
<polyline clip-path="url(#clip312)" style="stroke:#000000; stroke-linecap:round; stroke-linejoin:round; stroke-width:4; stroke-opacity:1; fill:none" points="1818.1,1486.45 1818.1,1486.45 1834.69,1486.45 1818.1,1486.45 "/>
<path clip-path="url(#clip312)" d="M1834.69 1486.45 L1834.69 1486.45 L1851.28 1486.45 L1851.28 1486.45 L1834.69 1486.45 L1834.69 1486.45  Z" fill="#009af9" fill-rule="evenodd" fill-opacity="1"/>
<polyline clip-path="url(#clip312)" style="stroke:#000000; stroke-linecap:round; stroke-linejoin:round; stroke-width:4; stroke-opacity:1; fill:none" points="1834.69,1486.45 1834.69,1486.45 1851.28,1486.45 1834.69,1486.45 "/>
<path clip-path="url(#clip312)" d="M1851.28 1484.96 L1851.28 1486.45 L1867.86 1486.45 L1867.86 1484.96 L1851.28 1484.96 L1851.28 1484.96  Z" fill="#009af9" fill-rule="evenodd" fill-opacity="1"/>
<polyline clip-path="url(#clip312)" style="stroke:#000000; stroke-linecap:round; stroke-linejoin:round; stroke-width:4; stroke-opacity:1; fill:none" points="1851.28,1484.96 1851.28,1486.45 1867.86,1486.45 1867.86,1484.96 1851.28,1484.96 "/>
<path clip-path="url(#clip312)" d="M1867.86 1486.45 L1867.86 1486.45 L1884.45 1486.45 L1884.45 1486.45 L1867.86 1486.45 L1867.86 1486.45  Z" fill="#009af9" fill-rule="evenodd" fill-opacity="1"/>
<polyline clip-path="url(#clip312)" style="stroke:#000000; stroke-linecap:round; stroke-linejoin:round; stroke-width:4; stroke-opacity:1; fill:none" points="1867.86,1486.45 1867.86,1486.45 1884.45,1486.45 1867.86,1486.45 "/>
<path clip-path="url(#clip312)" d="M1884.45 1486.45 L1884.45 1486.45 L1901.04 1486.45 L1901.04 1486.45 L1884.45 1486.45 L1884.45 1486.45  Z" fill="#009af9" fill-rule="evenodd" fill-opacity="1"/>
<polyline clip-path="url(#clip312)" style="stroke:#000000; stroke-linecap:round; stroke-linejoin:round; stroke-width:4; stroke-opacity:1; fill:none" points="1884.45,1486.45 1884.45,1486.45 1901.04,1486.45 1884.45,1486.45 "/>
<path clip-path="url(#clip312)" d="M1901.04 1486.45 L1901.04 1486.45 L1917.63 1486.45 L1917.63 1486.45 L1901.04 1486.45 L1901.04 1486.45  Z" fill="#009af9" fill-rule="evenodd" fill-opacity="1"/>
<polyline clip-path="url(#clip312)" style="stroke:#000000; stroke-linecap:round; stroke-linejoin:round; stroke-width:4; stroke-opacity:1; fill:none" points="1901.04,1486.45 1901.04,1486.45 1917.63,1486.45 1901.04,1486.45 "/>
<path clip-path="url(#clip312)" d="M1917.63 1486.45 L1917.63 1486.45 L1934.22 1486.45 L1934.22 1486.45 L1917.63 1486.45 L1917.63 1486.45  Z" fill="#009af9" fill-rule="evenodd" fill-opacity="1"/>
<polyline clip-path="url(#clip312)" style="stroke:#000000; stroke-linecap:round; stroke-linejoin:round; stroke-width:4; stroke-opacity:1; fill:none" points="1917.63,1486.45 1917.63,1486.45 1934.22,1486.45 1917.63,1486.45 "/>
<path clip-path="url(#clip312)" d="M1934.22 1486.45 L1934.22 1486.45 L1950.81 1486.45 L1950.81 1486.45 L1934.22 1486.45 L1934.22 1486.45  Z" fill="#009af9" fill-rule="evenodd" fill-opacity="1"/>
<polyline clip-path="url(#clip312)" style="stroke:#000000; stroke-linecap:round; stroke-linejoin:round; stroke-width:4; stroke-opacity:1; fill:none" points="1934.22,1486.45 1934.22,1486.45 1950.81,1486.45 1934.22,1486.45 "/>
<path clip-path="url(#clip312)" d="M1950.81 1486.45 L1950.81 1486.45 L1967.4 1486.45 L1967.4 1486.45 L1950.81 1486.45 L1950.81 1486.45  Z" fill="#009af9" fill-rule="evenodd" fill-opacity="1"/>
<polyline clip-path="url(#clip312)" style="stroke:#000000; stroke-linecap:round; stroke-linejoin:round; stroke-width:4; stroke-opacity:1; fill:none" points="1950.81,1486.45 1950.81,1486.45 1967.4,1486.45 1950.81,1486.45 "/>
<path clip-path="url(#clip312)" d="M1967.4 1486.45 L1967.4 1486.45 L1983.98 1486.45 L1983.98 1486.45 L1967.4 1486.45 L1967.4 1486.45  Z" fill="#009af9" fill-rule="evenodd" fill-opacity="1"/>
<polyline clip-path="url(#clip312)" style="stroke:#000000; stroke-linecap:round; stroke-linejoin:round; stroke-width:4; stroke-opacity:1; fill:none" points="1967.4,1486.45 1967.4,1486.45 1983.98,1486.45 1967.4,1486.45 "/>
<path clip-path="url(#clip312)" d="M1983.98 1486.45 L1983.98 1486.45 L2000.57 1486.45 L2000.57 1486.45 L1983.98 1486.45 L1983.98 1486.45  Z" fill="#009af9" fill-rule="evenodd" fill-opacity="1"/>
<polyline clip-path="url(#clip312)" style="stroke:#000000; stroke-linecap:round; stroke-linejoin:round; stroke-width:4; stroke-opacity:1; fill:none" points="1983.98,1486.45 1983.98,1486.45 2000.57,1486.45 1983.98,1486.45 "/>
<path clip-path="url(#clip312)" d="M2000.57 1486.45 L2000.57 1486.45 L2017.16 1486.45 L2017.16 1486.45 L2000.57 1486.45 L2000.57 1486.45  Z" fill="#009af9" fill-rule="evenodd" fill-opacity="1"/>
<polyline clip-path="url(#clip312)" style="stroke:#000000; stroke-linecap:round; stroke-linejoin:round; stroke-width:4; stroke-opacity:1; fill:none" points="2000.57,1486.45 2000.57,1486.45 2017.16,1486.45 2000.57,1486.45 "/>
<path clip-path="url(#clip312)" d="M2017.16 1486.45 L2017.16 1486.45 L2033.75 1486.45 L2033.75 1486.45 L2017.16 1486.45 L2017.16 1486.45  Z" fill="#009af9" fill-rule="evenodd" fill-opacity="1"/>
<polyline clip-path="url(#clip312)" style="stroke:#000000; stroke-linecap:round; stroke-linejoin:round; stroke-width:4; stroke-opacity:1; fill:none" points="2017.16,1486.45 2017.16,1486.45 2033.75,1486.45 2017.16,1486.45 "/>
<path clip-path="url(#clip312)" d="M2033.75 1486.45 L2033.75 1486.45 L2050.34 1486.45 L2050.34 1486.45 L2033.75 1486.45 L2033.75 1486.45  Z" fill="#009af9" fill-rule="evenodd" fill-opacity="1"/>
<polyline clip-path="url(#clip312)" style="stroke:#000000; stroke-linecap:round; stroke-linejoin:round; stroke-width:4; stroke-opacity:1; fill:none" points="2033.75,1486.45 2033.75,1486.45 2050.34,1486.45 2033.75,1486.45 "/>
<path clip-path="url(#clip312)" d="M2050.34 1486.45 L2050.34 1486.45 L2066.93 1486.45 L2066.93 1486.45 L2050.34 1486.45 L2050.34 1486.45  Z" fill="#009af9" fill-rule="evenodd" fill-opacity="1"/>
<polyline clip-path="url(#clip312)" style="stroke:#000000; stroke-linecap:round; stroke-linejoin:round; stroke-width:4; stroke-opacity:1; fill:none" points="2050.34,1486.45 2050.34,1486.45 2066.93,1486.45 2050.34,1486.45 "/>
<path clip-path="url(#clip312)" d="M2066.93 1486.45 L2066.93 1486.45 L2083.51 1486.45 L2083.51 1486.45 L2066.93 1486.45 L2066.93 1486.45  Z" fill="#009af9" fill-rule="evenodd" fill-opacity="1"/>
<polyline clip-path="url(#clip312)" style="stroke:#000000; stroke-linecap:round; stroke-linejoin:round; stroke-width:4; stroke-opacity:1; fill:none" points="2066.93,1486.45 2066.93,1486.45 2083.51,1486.45 2066.93,1486.45 "/>
<path clip-path="url(#clip312)" d="M2083.51 1486.45 L2083.51 1486.45 L2100.1 1486.45 L2100.1 1486.45 L2083.51 1486.45 L2083.51 1486.45  Z" fill="#009af9" fill-rule="evenodd" fill-opacity="1"/>
<polyline clip-path="url(#clip312)" style="stroke:#000000; stroke-linecap:round; stroke-linejoin:round; stroke-width:4; stroke-opacity:1; fill:none" points="2083.51,1486.45 2083.51,1486.45 2100.1,1486.45 2083.51,1486.45 "/>
<path clip-path="url(#clip312)" d="M2100.1 1486.45 L2100.1 1486.45 L2116.69 1486.45 L2116.69 1486.45 L2100.1 1486.45 L2100.1 1486.45  Z" fill="#009af9" fill-rule="evenodd" fill-opacity="1"/>
<polyline clip-path="url(#clip312)" style="stroke:#000000; stroke-linecap:round; stroke-linejoin:round; stroke-width:4; stroke-opacity:1; fill:none" points="2100.1,1486.45 2100.1,1486.45 2116.69,1486.45 2100.1,1486.45 "/>
<path clip-path="url(#clip312)" d="M2116.69 1486.45 L2116.69 1486.45 L2133.28 1486.45 L2133.28 1486.45 L2116.69 1486.45 L2116.69 1486.45  Z" fill="#009af9" fill-rule="evenodd" fill-opacity="1"/>
<polyline clip-path="url(#clip312)" style="stroke:#000000; stroke-linecap:round; stroke-linejoin:round; stroke-width:4; stroke-opacity:1; fill:none" points="2116.69,1486.45 2116.69,1486.45 2133.28,1486.45 2116.69,1486.45 "/>
<path clip-path="url(#clip312)" d="M2133.28 1486.45 L2133.28 1486.45 L2149.87 1486.45 L2149.87 1486.45 L2133.28 1486.45 L2133.28 1486.45  Z" fill="#009af9" fill-rule="evenodd" fill-opacity="1"/>
<polyline clip-path="url(#clip312)" style="stroke:#000000; stroke-linecap:round; stroke-linejoin:round; stroke-width:4; stroke-opacity:1; fill:none" points="2133.28,1486.45 2133.28,1486.45 2149.87,1486.45 2133.28,1486.45 "/>
<path clip-path="url(#clip312)" d="M2149.87 1486.45 L2149.87 1486.45 L2166.46 1486.45 L2166.46 1486.45 L2149.87 1486.45 L2149.87 1486.45  Z" fill="#009af9" fill-rule="evenodd" fill-opacity="1"/>
<polyline clip-path="url(#clip312)" style="stroke:#000000; stroke-linecap:round; stroke-linejoin:round; stroke-width:4; stroke-opacity:1; fill:none" points="2149.87,1486.45 2149.87,1486.45 2166.46,1486.45 2149.87,1486.45 "/>
<path clip-path="url(#clip312)" d="M2166.46 1486.45 L2166.46 1486.45 L2183.05 1486.45 L2183.05 1486.45 L2166.46 1486.45 L2166.46 1486.45  Z" fill="#009af9" fill-rule="evenodd" fill-opacity="1"/>
<polyline clip-path="url(#clip312)" style="stroke:#000000; stroke-linecap:round; stroke-linejoin:round; stroke-width:4; stroke-opacity:1; fill:none" points="2166.46,1486.45 2166.46,1486.45 2183.05,1486.45 2166.46,1486.45 "/>
<path clip-path="url(#clip312)" d="M2183.05 1486.45 L2183.05 1486.45 L2199.63 1486.45 L2199.63 1486.45 L2183.05 1486.45 L2183.05 1486.45  Z" fill="#009af9" fill-rule="evenodd" fill-opacity="1"/>
<polyline clip-path="url(#clip312)" style="stroke:#000000; stroke-linecap:round; stroke-linejoin:round; stroke-width:4; stroke-opacity:1; fill:none" points="2183.05,1486.45 2183.05,1486.45 2199.63,1486.45 2183.05,1486.45 "/>
<path clip-path="url(#clip312)" d="M2199.63 1486.45 L2199.63 1486.45 L2216.22 1486.45 L2216.22 1486.45 L2199.63 1486.45 L2199.63 1486.45  Z" fill="#009af9" fill-rule="evenodd" fill-opacity="1"/>
<polyline clip-path="url(#clip312)" style="stroke:#000000; stroke-linecap:round; stroke-linejoin:round; stroke-width:4; stroke-opacity:1; fill:none" points="2199.63,1486.45 2199.63,1486.45 2216.22,1486.45 2199.63,1486.45 "/>
<path clip-path="url(#clip312)" d="M2216.22 1484.96 L2216.22 1486.45 L2232.81 1486.45 L2232.81 1484.96 L2216.22 1484.96 L2216.22 1484.96  Z" fill="#009af9" fill-rule="evenodd" fill-opacity="1"/>
<polyline clip-path="url(#clip312)" style="stroke:#000000; stroke-linecap:round; stroke-linejoin:round; stroke-width:4; stroke-opacity:1; fill:none" points="2216.22,1484.96 2216.22,1486.45 2232.81,1486.45 2232.81,1484.96 2216.22,1484.96 "/>
<circle clip-path="url(#clip312)" style="fill:#009af9; stroke:none; fill-opacity:0" cx="300.254" cy="47.2441" r="2"/>
<circle clip-path="url(#clip312)" style="fill:#009af9; stroke:none; fill-opacity:0" cx="316.842" cy="245.395" r="2"/>
<circle clip-path="url(#clip312)" style="fill:#009af9; stroke:none; fill-opacity:0" cx="333.431" cy="334.787" r="2"/>
<circle clip-path="url(#clip312)" style="fill:#009af9; stroke:none; fill-opacity:0" cx="350.019" cy="413.749" r="2"/>
<circle clip-path="url(#clip312)" style="fill:#009af9; stroke:none; fill-opacity:0" cx="366.608" cy="532.938" r="2"/>
<circle clip-path="url(#clip312)" style="fill:#009af9; stroke:none; fill-opacity:0" cx="383.196" cy="598.492" r="2"/>
<circle clip-path="url(#clip312)" style="fill:#009af9; stroke:none; fill-opacity:0" cx="399.785" cy="720.66" r="2"/>
<circle clip-path="url(#clip312)" style="fill:#009af9; stroke:none; fill-opacity:0" cx="416.373" cy="741.518" r="2"/>
<circle clip-path="url(#clip312)" style="fill:#009af9; stroke:none; fill-opacity:0" cx="432.962" cy="833.89" r="2"/>
<circle clip-path="url(#clip312)" style="fill:#009af9; stroke:none; fill-opacity:0" cx="449.55" cy="856.238" r="2"/>
<circle clip-path="url(#clip312)" style="fill:#009af9; stroke:none; fill-opacity:0" cx="466.138" cy="967.977" r="2"/>
<circle clip-path="url(#clip312)" style="fill:#009af9; stroke:none; fill-opacity:0" cx="482.727" cy="979.896" r="2"/>
<circle clip-path="url(#clip312)" style="fill:#009af9; stroke:none; fill-opacity:0" cx="499.315" cy="1090.15" r="2"/>
<circle clip-path="url(#clip312)" style="fill:#009af9; stroke:none; fill-opacity:0" cx="515.904" cy="1105.04" r="2"/>
<circle clip-path="url(#clip312)" style="fill:#009af9; stroke:none; fill-opacity:0" cx="532.492" cy="1146.76" r="2"/>
<circle clip-path="url(#clip312)" style="fill:#009af9; stroke:none; fill-opacity:0" cx="549.081" cy="1182.52" r="2"/>
<circle clip-path="url(#clip312)" style="fill:#009af9; stroke:none; fill-opacity:0" cx="565.669" cy="1221.25" r="2"/>
<circle clip-path="url(#clip312)" style="fill:#009af9; stroke:none; fill-opacity:0" cx="582.258" cy="1237.64" r="2"/>
<circle clip-path="url(#clip312)" style="fill:#009af9; stroke:none; fill-opacity:0" cx="598.846" cy="1259.99" r="2"/>
<circle clip-path="url(#clip312)" style="fill:#009af9; stroke:none; fill-opacity:0" cx="615.435" cy="1252.54" r="2"/>
<circle clip-path="url(#clip312)" style="fill:#009af9; stroke:none; fill-opacity:0" cx="632.023" cy="1300.22" r="2"/>
<circle clip-path="url(#clip312)" style="fill:#009af9; stroke:none; fill-opacity:0" cx="648.612" cy="1321.07" r="2"/>
<circle clip-path="url(#clip312)" style="fill:#009af9; stroke:none; fill-opacity:0" cx="665.2" cy="1321.07" r="2"/>
<circle clip-path="url(#clip312)" style="fill:#009af9; stroke:none; fill-opacity:0" cx="681.789" cy="1365.77" r="2"/>
<circle clip-path="url(#clip312)" style="fill:#009af9; stroke:none; fill-opacity:0" cx="698.377" cy="1343.42" r="2"/>
<circle clip-path="url(#clip312)" style="fill:#009af9; stroke:none; fill-opacity:0" cx="714.966" cy="1413.44" r="2"/>
<circle clip-path="url(#clip312)" style="fill:#009af9; stroke:none; fill-opacity:0" cx="731.554" cy="1368.75" r="2"/>
<circle clip-path="url(#clip312)" style="fill:#009af9; stroke:none; fill-opacity:0" cx="748.143" cy="1395.57" r="2"/>
<circle clip-path="url(#clip312)" style="fill:#009af9; stroke:none; fill-opacity:0" cx="764.731" cy="1403.02" r="2"/>
<circle clip-path="url(#clip312)" style="fill:#009af9; stroke:none; fill-opacity:0" cx="781.32" cy="1425.36" r="2"/>
<circle clip-path="url(#clip312)" style="fill:#009af9; stroke:none; fill-opacity:0" cx="797.908" cy="1411.95" r="2"/>
<circle clip-path="url(#clip312)" style="fill:#009af9; stroke:none; fill-opacity:0" cx="814.496" cy="1410.47" r="2"/>
<circle clip-path="url(#clip312)" style="fill:#009af9; stroke:none; fill-opacity:0" cx="831.085" cy="1431.32" r="2"/>
<circle clip-path="url(#clip312)" style="fill:#009af9; stroke:none; fill-opacity:0" cx="847.673" cy="1432.81" r="2"/>
<circle clip-path="url(#clip312)" style="fill:#009af9; stroke:none; fill-opacity:0" cx="864.262" cy="1437.28" r="2"/>
<circle clip-path="url(#clip312)" style="fill:#009af9; stroke:none; fill-opacity:0" cx="880.85" cy="1447.71" r="2"/>
<circle clip-path="url(#clip312)" style="fill:#009af9; stroke:none; fill-opacity:0" cx="897.439" cy="1446.22" r="2"/>
<circle clip-path="url(#clip312)" style="fill:#009af9; stroke:none; fill-opacity:0" cx="914.027" cy="1453.67" r="2"/>
<circle clip-path="url(#clip312)" style="fill:#009af9; stroke:none; fill-opacity:0" cx="930.616" cy="1461.12" r="2"/>
<circle clip-path="url(#clip312)" style="fill:#009af9; stroke:none; fill-opacity:0" cx="947.204" cy="1455.16" r="2"/>
<circle clip-path="url(#clip312)" style="fill:#009af9; stroke:none; fill-opacity:0" cx="963.793" cy="1467.08" r="2"/>
<circle clip-path="url(#clip312)" style="fill:#009af9; stroke:none; fill-opacity:0" cx="980.381" cy="1458.14" r="2"/>
<circle clip-path="url(#clip312)" style="fill:#009af9; stroke:none; fill-opacity:0" cx="996.97" cy="1468.57" r="2"/>
<circle clip-path="url(#clip312)" style="fill:#009af9; stroke:none; fill-opacity:0" cx="1013.56" cy="1461.12" r="2"/>
<circle clip-path="url(#clip312)" style="fill:#009af9; stroke:none; fill-opacity:0" cx="1030.15" cy="1476.02" r="2"/>
<circle clip-path="url(#clip312)" style="fill:#009af9; stroke:none; fill-opacity:0" cx="1046.74" cy="1476.02" r="2"/>
<circle clip-path="url(#clip312)" style="fill:#009af9; stroke:none; fill-opacity:0" cx="1063.32" cy="1468.57" r="2"/>
<circle clip-path="url(#clip312)" style="fill:#009af9; stroke:none; fill-opacity:0" cx="1079.91" cy="1477.51" r="2"/>
<circle clip-path="url(#clip312)" style="fill:#009af9; stroke:none; fill-opacity:0" cx="1096.5" cy="1480.49" r="2"/>
<circle clip-path="url(#clip312)" style="fill:#009af9; stroke:none; fill-opacity:0" cx="1113.09" cy="1465.59" r="2"/>
<circle clip-path="url(#clip312)" style="fill:#009af9; stroke:none; fill-opacity:0" cx="1129.68" cy="1481.98" r="2"/>
<circle clip-path="url(#clip312)" style="fill:#009af9; stroke:none; fill-opacity:0" cx="1146.27" cy="1486.45" r="2"/>
<circle clip-path="url(#clip312)" style="fill:#009af9; stroke:none; fill-opacity:0" cx="1162.85" cy="1481.98" r="2"/>
<circle clip-path="url(#clip312)" style="fill:#009af9; stroke:none; fill-opacity:0" cx="1179.44" cy="1480.49" r="2"/>
<circle clip-path="url(#clip312)" style="fill:#009af9; stroke:none; fill-opacity:0" cx="1196.03" cy="1484.96" r="2"/>
<circle clip-path="url(#clip312)" style="fill:#009af9; stroke:none; fill-opacity:0" cx="1212.62" cy="1483.47" r="2"/>
<circle clip-path="url(#clip312)" style="fill:#009af9; stroke:none; fill-opacity:0" cx="1229.21" cy="1480.49" r="2"/>
<circle clip-path="url(#clip312)" style="fill:#009af9; stroke:none; fill-opacity:0" cx="1245.8" cy="1480.49" r="2"/>
<circle clip-path="url(#clip312)" style="fill:#009af9; stroke:none; fill-opacity:0" cx="1262.39" cy="1483.47" r="2"/>
<circle clip-path="url(#clip312)" style="fill:#009af9; stroke:none; fill-opacity:0" cx="1278.97" cy="1477.51" r="2"/>
<circle clip-path="url(#clip312)" style="fill:#009af9; stroke:none; fill-opacity:0" cx="1295.56" cy="1483.47" r="2"/>
<circle clip-path="url(#clip312)" style="fill:#009af9; stroke:none; fill-opacity:0" cx="1312.15" cy="1481.98" r="2"/>
<circle clip-path="url(#clip312)" style="fill:#009af9; stroke:none; fill-opacity:0" cx="1328.74" cy="1481.98" r="2"/>
<circle clip-path="url(#clip312)" style="fill:#009af9; stroke:none; fill-opacity:0" cx="1345.33" cy="1484.96" r="2"/>
<circle clip-path="url(#clip312)" style="fill:#009af9; stroke:none; fill-opacity:0" cx="1361.92" cy="1483.47" r="2"/>
<circle clip-path="url(#clip312)" style="fill:#009af9; stroke:none; fill-opacity:0" cx="1378.5" cy="1483.47" r="2"/>
<circle clip-path="url(#clip312)" style="fill:#009af9; stroke:none; fill-opacity:0" cx="1395.09" cy="1486.45" r="2"/>
<circle clip-path="url(#clip312)" style="fill:#009af9; stroke:none; fill-opacity:0" cx="1411.68" cy="1484.96" r="2"/>
<circle clip-path="url(#clip312)" style="fill:#009af9; stroke:none; fill-opacity:0" cx="1428.27" cy="1483.47" r="2"/>
<circle clip-path="url(#clip312)" style="fill:#009af9; stroke:none; fill-opacity:0" cx="1444.86" cy="1483.47" r="2"/>
<circle clip-path="url(#clip312)" style="fill:#009af9; stroke:none; fill-opacity:0" cx="1461.45" cy="1484.96" r="2"/>
<circle clip-path="url(#clip312)" style="fill:#009af9; stroke:none; fill-opacity:0" cx="1478.04" cy="1484.96" r="2"/>
<circle clip-path="url(#clip312)" style="fill:#009af9; stroke:none; fill-opacity:0" cx="1494.62" cy="1483.47" r="2"/>
<circle clip-path="url(#clip312)" style="fill:#009af9; stroke:none; fill-opacity:0" cx="1511.21" cy="1484.96" r="2"/>
<circle clip-path="url(#clip312)" style="fill:#009af9; stroke:none; fill-opacity:0" cx="1527.8" cy="1483.47" r="2"/>
<circle clip-path="url(#clip312)" style="fill:#009af9; stroke:none; fill-opacity:0" cx="1544.39" cy="1486.45" r="2"/>
<circle clip-path="url(#clip312)" style="fill:#009af9; stroke:none; fill-opacity:0" cx="1560.98" cy="1484.96" r="2"/>
<circle clip-path="url(#clip312)" style="fill:#009af9; stroke:none; fill-opacity:0" cx="1577.57" cy="1486.45" r="2"/>
<circle clip-path="url(#clip312)" style="fill:#009af9; stroke:none; fill-opacity:0" cx="1594.15" cy="1486.45" r="2"/>
<circle clip-path="url(#clip312)" style="fill:#009af9; stroke:none; fill-opacity:0" cx="1610.74" cy="1486.45" r="2"/>
<circle clip-path="url(#clip312)" style="fill:#009af9; stroke:none; fill-opacity:0" cx="1627.33" cy="1486.45" r="2"/>
<circle clip-path="url(#clip312)" style="fill:#009af9; stroke:none; fill-opacity:0" cx="1643.92" cy="1486.45" r="2"/>
<circle clip-path="url(#clip312)" style="fill:#009af9; stroke:none; fill-opacity:0" cx="1660.51" cy="1486.45" r="2"/>
<circle clip-path="url(#clip312)" style="fill:#009af9; stroke:none; fill-opacity:0" cx="1677.1" cy="1486.45" r="2"/>
<circle clip-path="url(#clip312)" style="fill:#009af9; stroke:none; fill-opacity:0" cx="1693.69" cy="1484.96" r="2"/>
<circle clip-path="url(#clip312)" style="fill:#009af9; stroke:none; fill-opacity:0" cx="1710.27" cy="1486.45" r="2"/>
<circle clip-path="url(#clip312)" style="fill:#009af9; stroke:none; fill-opacity:0" cx="1726.86" cy="1486.45" r="2"/>
<circle clip-path="url(#clip312)" style="fill:#009af9; stroke:none; fill-opacity:0" cx="1743.45" cy="1484.96" r="2"/>
<circle clip-path="url(#clip312)" style="fill:#009af9; stroke:none; fill-opacity:0" cx="1760.04" cy="1486.45" r="2"/>
<circle clip-path="url(#clip312)" style="fill:#009af9; stroke:none; fill-opacity:0" cx="1776.63" cy="1486.45" r="2"/>
<circle clip-path="url(#clip312)" style="fill:#009af9; stroke:none; fill-opacity:0" cx="1793.22" cy="1486.45" r="2"/>
<circle clip-path="url(#clip312)" style="fill:#009af9; stroke:none; fill-opacity:0" cx="1809.81" cy="1484.96" r="2"/>
<circle clip-path="url(#clip312)" style="fill:#009af9; stroke:none; fill-opacity:0" cx="1826.39" cy="1486.45" r="2"/>
<circle clip-path="url(#clip312)" style="fill:#009af9; stroke:none; fill-opacity:0" cx="1842.98" cy="1486.45" r="2"/>
<circle clip-path="url(#clip312)" style="fill:#009af9; stroke:none; fill-opacity:0" cx="1859.57" cy="1484.96" r="2"/>
<circle clip-path="url(#clip312)" style="fill:#009af9; stroke:none; fill-opacity:0" cx="1876.16" cy="1486.45" r="2"/>
<circle clip-path="url(#clip312)" style="fill:#009af9; stroke:none; fill-opacity:0" cx="1892.75" cy="1486.45" r="2"/>
<circle clip-path="url(#clip312)" style="fill:#009af9; stroke:none; fill-opacity:0" cx="1909.34" cy="1486.45" r="2"/>
<circle clip-path="url(#clip312)" style="fill:#009af9; stroke:none; fill-opacity:0" cx="1925.92" cy="1486.45" r="2"/>
<circle clip-path="url(#clip312)" style="fill:#009af9; stroke:none; fill-opacity:0" cx="1942.51" cy="1486.45" r="2"/>
<circle clip-path="url(#clip312)" style="fill:#009af9; stroke:none; fill-opacity:0" cx="1959.1" cy="1486.45" r="2"/>
<circle clip-path="url(#clip312)" style="fill:#009af9; stroke:none; fill-opacity:0" cx="1975.69" cy="1486.45" r="2"/>
<circle clip-path="url(#clip312)" style="fill:#009af9; stroke:none; fill-opacity:0" cx="1992.28" cy="1486.45" r="2"/>
<circle clip-path="url(#clip312)" style="fill:#009af9; stroke:none; fill-opacity:0" cx="2008.87" cy="1486.45" r="2"/>
<circle clip-path="url(#clip312)" style="fill:#009af9; stroke:none; fill-opacity:0" cx="2025.46" cy="1486.45" r="2"/>
<circle clip-path="url(#clip312)" style="fill:#009af9; stroke:none; fill-opacity:0" cx="2042.04" cy="1486.45" r="2"/>
<circle clip-path="url(#clip312)" style="fill:#009af9; stroke:none; fill-opacity:0" cx="2058.63" cy="1486.45" r="2"/>
<circle clip-path="url(#clip312)" style="fill:#009af9; stroke:none; fill-opacity:0" cx="2075.22" cy="1486.45" r="2"/>
<circle clip-path="url(#clip312)" style="fill:#009af9; stroke:none; fill-opacity:0" cx="2091.81" cy="1486.45" r="2"/>
<circle clip-path="url(#clip312)" style="fill:#009af9; stroke:none; fill-opacity:0" cx="2108.4" cy="1486.45" r="2"/>
<circle clip-path="url(#clip312)" style="fill:#009af9; stroke:none; fill-opacity:0" cx="2124.99" cy="1486.45" r="2"/>
<circle clip-path="url(#clip312)" style="fill:#009af9; stroke:none; fill-opacity:0" cx="2141.57" cy="1486.45" r="2"/>
<circle clip-path="url(#clip312)" style="fill:#009af9; stroke:none; fill-opacity:0" cx="2158.16" cy="1486.45" r="2"/>
<circle clip-path="url(#clip312)" style="fill:#009af9; stroke:none; fill-opacity:0" cx="2174.75" cy="1486.45" r="2"/>
<circle clip-path="url(#clip312)" style="fill:#009af9; stroke:none; fill-opacity:0" cx="2191.34" cy="1486.45" r="2"/>
<circle clip-path="url(#clip312)" style="fill:#009af9; stroke:none; fill-opacity:0" cx="2207.93" cy="1486.45" r="2"/>
<circle clip-path="url(#clip312)" style="fill:#009af9; stroke:none; fill-opacity:0" cx="2224.52" cy="1484.96" r="2"/>
</svg>
