<?xml version="1.0" encoding="utf-8"?>
<svg xmlns="http://www.w3.org/2000/svg" xmlns:xlink="http://www.w3.org/1999/xlink" width="600" height="400" viewBox="0 0 2400 1600">
<defs>
  <clipPath id="clip740">
    <rect x="0" y="0" width="2400" height="1600"/>
  </clipPath>
</defs>
<path clip-path="url(#clip740)" d="
M0 1600 L2400 1600 L2400 0 L0 0  Z
  " fill="#ffffff" fill-rule="evenodd" fill-opacity="1"/>
<defs>
  <clipPath id="clip741">
    <rect x="480" y="0" width="1681" height="1600"/>
  </clipPath>
</defs>
<path clip-path="url(#clip740)" d="
M172.015 1486.45 L2352.76 1486.45 L2352.76 47.2441 L172.015 47.2441  Z
  " fill="#ffffff" fill-rule="evenodd" fill-opacity="1"/>
<defs>
  <clipPath id="clip742">
    <rect x="172" y="47" width="2182" height="1440"/>
  </clipPath>
</defs>
<polyline clip-path="url(#clip742)" style="stroke:#000000; stroke-linecap:butt; stroke-linejoin:round; stroke-width:2; stroke-opacity:0.1; fill:none" points="
  240.884,1486.45 240.884,47.2441 
  "/>
<polyline clip-path="url(#clip742)" style="stroke:#000000; stroke-linecap:butt; stroke-linejoin:round; stroke-width:2; stroke-opacity:0.1; fill:none" points="
  751.635,1486.45 751.635,47.2441 
  "/>
<polyline clip-path="url(#clip742)" style="stroke:#000000; stroke-linecap:butt; stroke-linejoin:round; stroke-width:2; stroke-opacity:0.1; fill:none" points="
  1262.39,1486.45 1262.39,47.2441 
  "/>
<polyline clip-path="url(#clip742)" style="stroke:#000000; stroke-linecap:butt; stroke-linejoin:round; stroke-width:2; stroke-opacity:0.1; fill:none" points="
  1773.14,1486.45 1773.14,47.2441 
  "/>
<polyline clip-path="url(#clip742)" style="stroke:#000000; stroke-linecap:butt; stroke-linejoin:round; stroke-width:2; stroke-opacity:0.1; fill:none" points="
  2283.89,1486.45 2283.89,47.2441 
  "/>
<polyline clip-path="url(#clip740)" style="stroke:#000000; stroke-linecap:butt; stroke-linejoin:round; stroke-width:4; stroke-opacity:1; fill:none" points="
  172.015,1486.45 2352.76,1486.45 
  "/>
<polyline clip-path="url(#clip740)" style="stroke:#000000; stroke-linecap:butt; stroke-linejoin:round; stroke-width:4; stroke-opacity:1; fill:none" points="
  240.884,1486.45 240.884,1467.55 
  "/>
<polyline clip-path="url(#clip740)" style="stroke:#000000; stroke-linecap:butt; stroke-linejoin:round; stroke-width:4; stroke-opacity:1; fill:none" points="
  751.635,1486.45 751.635,1467.55 
  "/>
<polyline clip-path="url(#clip740)" style="stroke:#000000; stroke-linecap:butt; stroke-linejoin:round; stroke-width:4; stroke-opacity:1; fill:none" points="
  1262.39,1486.45 1262.39,1467.55 
  "/>
<polyline clip-path="url(#clip740)" style="stroke:#000000; stroke-linecap:butt; stroke-linejoin:round; stroke-width:4; stroke-opacity:1; fill:none" points="
  1773.14,1486.45 1773.14,1467.55 
  "/>
<polyline clip-path="url(#clip740)" style="stroke:#000000; stroke-linecap:butt; stroke-linejoin:round; stroke-width:4; stroke-opacity:1; fill:none" points="
  2283.89,1486.45 2283.89,1467.55 
  "/>
<path clip-path="url(#clip740)" d="M210.827 1532.02 L240.502 1532.02 L240.502 1535.95 L210.827 1535.95 L210.827 1532.02 Z" fill="#000000" fill-rule="evenodd" fill-opacity="1" /><path clip-path="url(#clip740)" d="M254.623 1544.91 L270.942 1544.91 L270.942 1548.85 L248.998 1548.85 L248.998 1544.91 Q251.66 1542.16 256.243 1537.53 Q260.85 1532.88 262.03 1531.53 Q264.275 1529.01 265.155 1527.27 Q266.058 1525.51 266.058 1523.82 Q266.058 1521.07 264.113 1519.33 Q262.192 1517.6 259.09 1517.6 Q256.891 1517.6 254.438 1518.36 Q252.007 1519.13 249.229 1520.68 L249.229 1515.95 Q252.053 1514.82 254.507 1514.24 Q256.961 1513.66 258.998 1513.66 Q264.368 1513.66 267.563 1516.35 Q270.757 1519.03 270.757 1523.52 Q270.757 1525.65 269.947 1527.57 Q269.16 1529.47 267.053 1532.07 Q266.475 1532.74 263.373 1535.95 Q260.271 1539.15 254.623 1544.91 Z" fill="#000000" fill-rule="evenodd" fill-opacity="1" /><path clip-path="url(#clip740)" d="M751.635 1517.37 Q748.024 1517.37 746.195 1520.93 Q744.39 1524.47 744.39 1531.6 Q744.39 1538.71 746.195 1542.27 Q748.024 1545.82 751.635 1545.82 Q755.269 1545.82 757.075 1542.27 Q758.903 1538.71 758.903 1531.6 Q758.903 1524.47 757.075 1520.93 Q755.269 1517.37 751.635 1517.37 M751.635 1513.66 Q757.445 1513.66 760.501 1518.27 Q763.579 1522.85 763.579 1531.6 Q763.579 1540.33 760.501 1544.94 Q757.445 1549.52 751.635 1549.52 Q745.825 1549.52 742.746 1544.94 Q739.691 1540.33 739.691 1531.6 Q739.691 1522.85 742.746 1518.27 Q745.825 1513.66 751.635 1513.66 Z" fill="#000000" fill-rule="evenodd" fill-opacity="1" /><path clip-path="url(#clip740)" d="M1257.04 1544.91 L1273.36 1544.91 L1273.36 1548.85 L1251.41 1548.85 L1251.41 1544.91 Q1254.08 1542.16 1258.66 1537.53 Q1263.26 1532.88 1264.45 1531.53 Q1266.69 1529.01 1267.57 1527.27 Q1268.47 1525.51 1268.47 1523.82 Q1268.47 1521.07 1266.53 1519.33 Q1264.61 1517.6 1261.51 1517.6 Q1259.31 1517.6 1256.85 1518.36 Q1254.42 1519.13 1251.64 1520.68 L1251.64 1515.95 Q1254.47 1514.82 1256.92 1514.24 Q1259.38 1513.66 1261.41 1513.66 Q1266.78 1513.66 1269.98 1516.35 Q1273.17 1519.03 1273.17 1523.52 Q1273.17 1525.65 1272.36 1527.57 Q1271.58 1529.47 1269.47 1532.07 Q1268.89 1532.74 1265.79 1535.95 Q1262.69 1539.15 1257.04 1544.91 Z" fill="#000000" fill-rule="evenodd" fill-opacity="1" /><path clip-path="url(#clip740)" d="M1776.15 1518.36 L1764.34 1536.81 L1776.15 1536.81 L1776.15 1518.36 M1774.92 1514.29 L1780.8 1514.29 L1780.8 1536.81 L1785.73 1536.81 L1785.73 1540.7 L1780.8 1540.7 L1780.8 1548.85 L1776.15 1548.85 L1776.15 1540.7 L1760.54 1540.7 L1760.54 1536.19 L1774.92 1514.29 Z" fill="#000000" fill-rule="evenodd" fill-opacity="1" /><path clip-path="url(#clip740)" d="M2284.29 1529.7 Q2281.14 1529.7 2279.29 1531.86 Q2277.46 1534.01 2277.46 1537.76 Q2277.46 1541.49 2279.29 1543.66 Q2281.14 1545.82 2284.29 1545.82 Q2287.44 1545.82 2289.27 1543.66 Q2291.12 1541.49 2291.12 1537.76 Q2291.12 1534.01 2289.27 1531.86 Q2287.44 1529.7 2284.29 1529.7 M2293.57 1515.05 L2293.57 1519.31 Q2291.81 1518.48 2290.01 1518.04 Q2288.23 1517.6 2286.47 1517.6 Q2281.84 1517.6 2279.38 1520.72 Q2276.95 1523.85 2276.61 1530.17 Q2277.97 1528.15 2280.03 1527.09 Q2282.09 1526 2284.57 1526 Q2289.78 1526 2292.79 1529.17 Q2295.82 1532.32 2295.82 1537.76 Q2295.82 1543.08 2292.67 1546.3 Q2289.52 1549.52 2284.29 1549.52 Q2278.3 1549.52 2275.12 1544.94 Q2271.95 1540.33 2271.95 1531.6 Q2271.95 1523.41 2275.84 1518.55 Q2279.73 1513.66 2286.28 1513.66 Q2288.04 1513.66 2289.82 1514.01 Q2291.63 1514.36 2293.57 1515.05 Z" fill="#000000" fill-rule="evenodd" fill-opacity="1" /><polyline clip-path="url(#clip742)" style="stroke:#000000; stroke-linecap:butt; stroke-linejoin:round; stroke-width:2; stroke-opacity:0.1; fill:none" points="
  172.015,1445.72 2352.76,1445.72 
  "/>
<polyline clip-path="url(#clip742)" style="stroke:#000000; stroke-linecap:butt; stroke-linejoin:round; stroke-width:2; stroke-opacity:0.1; fill:none" points="
  172.015,1105 2352.76,1105 
  "/>
<polyline clip-path="url(#clip742)" style="stroke:#000000; stroke-linecap:butt; stroke-linejoin:round; stroke-width:2; stroke-opacity:0.1; fill:none" points="
  172.015,764.291 2352.76,764.291 
  "/>
<polyline clip-path="url(#clip742)" style="stroke:#000000; stroke-linecap:butt; stroke-linejoin:round; stroke-width:2; stroke-opacity:0.1; fill:none" points="
  172.015,423.578 2352.76,423.578 
  "/>
<polyline clip-path="url(#clip742)" style="stroke:#000000; stroke-linecap:butt; stroke-linejoin:round; stroke-width:2; stroke-opacity:0.1; fill:none" points="
  172.015,82.8656 2352.76,82.8656 
  "/>
<polyline clip-path="url(#clip740)" style="stroke:#000000; stroke-linecap:butt; stroke-linejoin:round; stroke-width:4; stroke-opacity:1; fill:none" points="
  172.015,1486.45 172.015,47.2441 
  "/>
<polyline clip-path="url(#clip740)" style="stroke:#000000; stroke-linecap:butt; stroke-linejoin:round; stroke-width:4; stroke-opacity:1; fill:none" points="
  172.015,1445.72 190.912,1445.72 
  "/>
<polyline clip-path="url(#clip740)" style="stroke:#000000; stroke-linecap:butt; stroke-linejoin:round; stroke-width:4; stroke-opacity:1; fill:none" points="
  172.015,1105 190.912,1105 
  "/>
<polyline clip-path="url(#clip740)" style="stroke:#000000; stroke-linecap:butt; stroke-linejoin:round; stroke-width:4; stroke-opacity:1; fill:none" points="
  172.015,764.291 190.912,764.291 
  "/>
<polyline clip-path="url(#clip740)" style="stroke:#000000; stroke-linecap:butt; stroke-linejoin:round; stroke-width:4; stroke-opacity:1; fill:none" points="
  172.015,423.578 190.912,423.578 
  "/>
<polyline clip-path="url(#clip740)" style="stroke:#000000; stroke-linecap:butt; stroke-linejoin:round; stroke-width:4; stroke-opacity:1; fill:none" points="
  172.015,82.8656 190.912,82.8656 
  "/>
<path clip-path="url(#clip740)" d="M124.07 1431.51 Q120.459 1431.51 118.631 1435.08 Q116.825 1438.62 116.825 1445.75 Q116.825 1452.86 118.631 1456.42 Q120.459 1459.96 124.07 1459.96 Q127.705 1459.96 129.51 1456.42 Q131.339 1452.86 131.339 1445.75 Q131.339 1438.62 129.51 1435.08 Q127.705 1431.51 124.07 1431.51 M124.07 1427.81 Q129.881 1427.81 132.936 1432.42 Q136.015 1437 136.015 1445.75 Q136.015 1454.48 132.936 1459.08 Q129.881 1463.67 124.07 1463.67 Q118.26 1463.67 115.182 1459.08 Q112.126 1454.48 112.126 1445.75 Q112.126 1437 115.182 1432.42 Q118.26 1427.81 124.07 1427.81 Z" fill="#000000" fill-rule="evenodd" fill-opacity="1" /><path clip-path="url(#clip740)" d="M57.7745 1118.35 L74.0939 1118.35 L74.0939 1122.28 L52.1495 1122.28 L52.1495 1118.35 Q54.8115 1115.59 59.3949 1110.96 Q64.0013 1106.31 65.1819 1104.97 Q67.4272 1102.45 68.3068 1100.71 Q69.2096 1098.95 69.2096 1097.26 Q69.2096 1094.51 67.2652 1092.77 Q65.3439 1091.03 62.2421 1091.03 Q60.043 1091.03 57.5893 1091.8 Q55.1588 1092.56 52.381 1094.11 L52.381 1089.39 Q55.2051 1088.26 57.6588 1087.68 Q60.1124 1087.1 62.1495 1087.1 Q67.5198 1087.1 70.7142 1089.78 Q73.9087 1092.47 73.9087 1096.96 Q73.9087 1099.09 73.0985 1101.01 Q72.3115 1102.91 70.205 1105.5 Q69.6263 1106.17 66.5245 1109.39 Q63.4226 1112.58 57.7745 1118.35 Z" fill="#000000" fill-rule="evenodd" fill-opacity="1" /><path clip-path="url(#clip740)" d="M93.9086 1090.8 Q90.2975 1090.8 88.4688 1094.37 Q86.6632 1097.91 86.6632 1105.04 Q86.6632 1112.14 88.4688 1115.71 Q90.2975 1119.25 93.9086 1119.25 Q97.5428 1119.25 99.3483 1115.71 Q101.177 1112.14 101.177 1105.04 Q101.177 1097.91 99.3483 1094.37 Q97.5428 1090.8 93.9086 1090.8 M93.9086 1087.1 Q99.7187 1087.1 102.774 1091.7 Q105.853 1096.29 105.853 1105.04 Q105.853 1113.76 102.774 1118.37 Q99.7187 1122.95 93.9086 1122.95 Q88.0984 1122.95 85.0197 1118.37 Q81.9642 1113.76 81.9642 1105.04 Q81.9642 1096.29 85.0197 1091.7 Q88.0984 1087.1 93.9086 1087.1 Z" fill="#000000" fill-rule="evenodd" fill-opacity="1" /><path clip-path="url(#clip740)" d="M124.07 1090.8 Q120.459 1090.8 118.631 1094.37 Q116.825 1097.91 116.825 1105.04 Q116.825 1112.14 118.631 1115.71 Q120.459 1119.25 124.07 1119.25 Q127.705 1119.25 129.51 1115.71 Q131.339 1112.14 131.339 1105.04 Q131.339 1097.91 129.51 1094.37 Q127.705 1090.8 124.07 1090.8 M124.07 1087.1 Q129.881 1087.1 132.936 1091.7 Q136.015 1096.29 136.015 1105.04 Q136.015 1113.76 132.936 1118.37 Q129.881 1122.95 124.07 1122.95 Q118.26 1122.95 115.182 1118.37 Q112.126 1113.76 112.126 1105.04 Q112.126 1096.29 115.182 1091.7 Q118.26 1087.1 124.07 1087.1 Z" fill="#000000" fill-rule="evenodd" fill-opacity="1" /><path clip-path="url(#clip740)" d="M66.5939 751.085 L54.7884 769.534 L66.5939 769.534 L66.5939 751.085 M65.367 747.011 L71.2466 747.011 L71.2466 769.534 L76.1772 769.534 L76.1772 773.423 L71.2466 773.423 L71.2466 781.571 L66.5939 781.571 L66.5939 773.423 L50.9921 773.423 L50.9921 768.909 L65.367 747.011 Z" fill="#000000" fill-rule="evenodd" fill-opacity="1" /><path clip-path="url(#clip740)" d="M93.9086 750.089 Q90.2975 750.089 88.4688 753.654 Q86.6632 757.196 86.6632 764.325 Q86.6632 771.432 88.4688 774.997 Q90.2975 778.538 93.9086 778.538 Q97.5428 778.538 99.3483 774.997 Q101.177 771.432 101.177 764.325 Q101.177 757.196 99.3483 753.654 Q97.5428 750.089 93.9086 750.089 M93.9086 746.386 Q99.7187 746.386 102.774 750.992 Q105.853 755.575 105.853 764.325 Q105.853 773.052 102.774 777.659 Q99.7187 782.242 93.9086 782.242 Q88.0984 782.242 85.0197 777.659 Q81.9642 773.052 81.9642 764.325 Q81.9642 755.575 85.0197 750.992 Q88.0984 746.386 93.9086 746.386 Z" fill="#000000" fill-rule="evenodd" fill-opacity="1" /><path clip-path="url(#clip740)" d="M124.07 750.089 Q120.459 750.089 118.631 753.654 Q116.825 757.196 116.825 764.325 Q116.825 771.432 118.631 774.997 Q120.459 778.538 124.07 778.538 Q127.705 778.538 129.51 774.997 Q131.339 771.432 131.339 764.325 Q131.339 757.196 129.51 753.654 Q127.705 750.089 124.07 750.089 M124.07 746.386 Q129.881 746.386 132.936 750.992 Q136.015 755.575 136.015 764.325 Q136.015 773.052 132.936 777.659 Q129.881 782.242 124.07 782.242 Q118.26 782.242 115.182 777.659 Q112.126 773.052 112.126 764.325 Q112.126 755.575 115.182 750.992 Q118.26 746.386 124.07 746.386 Z" fill="#000000" fill-rule="evenodd" fill-opacity="1" /><path clip-path="url(#clip740)" d="M64.3254 421.715 Q61.1773 421.715 59.3254 423.867 Q57.4967 426.02 57.4967 429.77 Q57.4967 433.497 59.3254 435.673 Q61.1773 437.826 64.3254 437.826 Q67.4735 437.826 69.3022 435.673 Q71.1541 433.497 71.1541 429.77 Q71.1541 426.02 69.3022 423.867 Q67.4735 421.715 64.3254 421.715 M73.6077 407.062 L73.6077 411.321 Q71.8485 410.488 70.0429 410.048 Q68.2606 409.608 66.5013 409.608 Q61.8717 409.608 59.418 412.733 Q56.9875 415.858 56.6402 422.178 Q58.006 420.164 60.0662 419.099 Q62.1263 418.011 64.6032 418.011 Q69.8115 418.011 72.8207 421.182 Q75.8531 424.33 75.8531 429.77 Q75.8531 435.094 72.705 438.312 Q69.5568 441.529 64.3254 441.529 Q58.33 441.529 55.1588 436.946 Q51.9875 432.34 51.9875 423.613 Q51.9875 415.418 55.8764 410.557 Q59.7652 405.673 66.3161 405.673 Q68.0754 405.673 69.8578 406.02 Q71.6633 406.368 73.6077 407.062 Z" fill="#000000" fill-rule="evenodd" fill-opacity="1" /><path clip-path="url(#clip740)" d="M93.9086 409.377 Q90.2975 409.377 88.4688 412.942 Q86.6632 416.483 86.6632 423.613 Q86.6632 430.719 88.4688 434.284 Q90.2975 437.826 93.9086 437.826 Q97.5428 437.826 99.3483 434.284 Q101.177 430.719 101.177 423.613 Q101.177 416.483 99.3483 412.942 Q97.5428 409.377 93.9086 409.377 M93.9086 405.673 Q99.7187 405.673 102.774 410.28 Q105.853 414.863 105.853 423.613 Q105.853 432.34 102.774 436.946 Q99.7187 441.529 93.9086 441.529 Q88.0984 441.529 85.0197 436.946 Q81.9642 432.34 81.9642 423.613 Q81.9642 414.863 85.0197 410.28 Q88.0984 405.673 93.9086 405.673 Z" fill="#000000" fill-rule="evenodd" fill-opacity="1" /><path clip-path="url(#clip740)" d="M124.07 409.377 Q120.459 409.377 118.631 412.942 Q116.825 416.483 116.825 423.613 Q116.825 430.719 118.631 434.284 Q120.459 437.826 124.07 437.826 Q127.705 437.826 129.51 434.284 Q131.339 430.719 131.339 423.613 Q131.339 416.483 129.51 412.942 Q127.705 409.377 124.07 409.377 M124.07 405.673 Q129.881 405.673 132.936 410.28 Q136.015 414.863 136.015 423.613 Q136.015 432.34 132.936 436.946 Q129.881 441.529 124.07 441.529 Q118.26 441.529 115.182 436.946 Q112.126 432.34 112.126 423.613 Q112.126 414.863 115.182 410.28 Q118.26 405.673 124.07 405.673 Z" fill="#000000" fill-rule="evenodd" fill-opacity="1" /><path clip-path="url(#clip740)" d="M63.7467 83.7336 Q60.4134 83.7336 58.4921 85.516 Q56.5939 87.2984 56.5939 90.4234 Q56.5939 93.5484 58.4921 95.3308 Q60.4134 97.1132 63.7467 97.1132 Q67.08 97.1132 69.0013 95.3308 Q70.9226 93.5253 70.9226 90.4234 Q70.9226 87.2984 69.0013 85.516 Q67.1032 83.7336 63.7467 83.7336 M59.0708 81.7429 Q56.0615 81.0022 54.3717 78.942 Q52.7051 76.8818 52.7051 73.9189 Q52.7051 69.7754 55.6449 67.368 Q58.6078 64.9606 63.7467 64.9606 Q68.9087 64.9606 71.8485 67.368 Q74.7883 69.7754 74.7883 73.9189 Q74.7883 76.8818 73.0985 78.942 Q71.4318 81.0022 68.4457 81.7429 Q71.8253 82.5299 73.7003 84.8216 Q75.5985 87.1133 75.5985 90.4234 Q75.5985 95.4465 72.5198 98.1317 Q69.4642 100.817 63.7467 100.817 Q58.0291 100.817 54.9504 98.1317 Q51.8949 95.4465 51.8949 90.4234 Q51.8949 87.1133 53.793 84.8216 Q55.6912 82.5299 59.0708 81.7429 M57.3578 74.3587 Q57.3578 77.0439 59.0245 78.5485 Q60.7143 80.0531 63.7467 80.0531 Q66.7559 80.0531 68.4457 78.5485 Q70.1587 77.0439 70.1587 74.3587 Q70.1587 71.6735 68.4457 70.1689 Q66.7559 68.6643 63.7467 68.6643 Q60.7143 68.6643 59.0245 70.1689 Q57.3578 71.6735 57.3578 74.3587 Z" fill="#000000" fill-rule="evenodd" fill-opacity="1" /><path clip-path="url(#clip740)" d="M93.9086 68.6643 Q90.2975 68.6643 88.4688 72.2291 Q86.6632 75.7707 86.6632 82.9003 Q86.6632 90.0068 88.4688 93.5716 Q90.2975 97.1132 93.9086 97.1132 Q97.5428 97.1132 99.3483 93.5716 Q101.177 90.0068 101.177 82.9003 Q101.177 75.7707 99.3483 72.2291 Q97.5428 68.6643 93.9086 68.6643 M93.9086 64.9606 Q99.7187 64.9606 102.774 69.567 Q105.853 74.1504 105.853 82.9003 Q105.853 91.6271 102.774 96.2336 Q99.7187 100.817 93.9086 100.817 Q88.0984 100.817 85.0197 96.2336 Q81.9642 91.6271 81.9642 82.9003 Q81.9642 74.1504 85.0197 69.567 Q88.0984 64.9606 93.9086 64.9606 Z" fill="#000000" fill-rule="evenodd" fill-opacity="1" /><path clip-path="url(#clip740)" d="M124.07 68.6643 Q120.459 68.6643 118.631 72.2291 Q116.825 75.7707 116.825 82.9003 Q116.825 90.0068 118.631 93.5716 Q120.459 97.1132 124.07 97.1132 Q127.705 97.1132 129.51 93.5716 Q131.339 90.0068 131.339 82.9003 Q131.339 75.7707 129.51 72.2291 Q127.705 68.6643 124.07 68.6643 M124.07 64.9606 Q129.881 64.9606 132.936 69.567 Q136.015 74.1504 136.015 82.9003 Q136.015 91.6271 132.936 96.2336 Q129.881 100.817 124.07 100.817 Q118.26 100.817 115.182 96.2336 Q112.126 91.6271 112.126 82.9003 Q112.126 74.1504 115.182 69.567 Q118.26 64.9606 124.07 64.9606 Z" fill="#000000" fill-rule="evenodd" fill-opacity="1" /><path clip-path="url(#clip742)" d="
M291.959 1444.01 L291.959 1445.72 L343.035 1445.72 L343.035 1444.01 L291.959 1444.01 L291.959 1444.01  Z
  " fill="#009af9" fill-rule="evenodd" fill-opacity="1"/>
<polyline clip-path="url(#clip742)" style="stroke:#000000; stroke-linecap:butt; stroke-linejoin:round; stroke-width:4; stroke-opacity:1; fill:none" points="
  291.959,1444.01 291.959,1445.72 343.035,1445.72 343.035,1444.01 291.959,1444.01 
  "/>
<path clip-path="url(#clip742)" d="
M343.035 1438.9 L343.035 1445.72 L394.11 1445.72 L394.11 1438.9 L343.035 1438.9 L343.035 1438.9  Z
  " fill="#009af9" fill-rule="evenodd" fill-opacity="1"/>
<polyline clip-path="url(#clip742)" style="stroke:#000000; stroke-linecap:butt; stroke-linejoin:round; stroke-width:4; stroke-opacity:1; fill:none" points="
  343.035,1438.9 343.035,1445.72 394.11,1445.72 394.11,1438.9 343.035,1438.9 
  "/>
<path clip-path="url(#clip742)" d="
M394.11 1438.9 L394.11 1445.72 L445.185 1445.72 L445.185 1438.9 L394.11 1438.9 L394.11 1438.9  Z
  " fill="#009af9" fill-rule="evenodd" fill-opacity="1"/>
<polyline clip-path="url(#clip742)" style="stroke:#000000; stroke-linecap:butt; stroke-linejoin:round; stroke-width:4; stroke-opacity:1; fill:none" points="
  394.11,1438.9 394.11,1445.72 445.185,1445.72 445.185,1438.9 394.11,1438.9 
  "/>
<path clip-path="url(#clip742)" d="
M445.185 1435.49 L445.185 1445.72 L496.26 1445.72 L496.26 1435.49 L445.185 1435.49 L445.185 1435.49  Z
  " fill="#009af9" fill-rule="evenodd" fill-opacity="1"/>
<polyline clip-path="url(#clip742)" style="stroke:#000000; stroke-linecap:butt; stroke-linejoin:round; stroke-width:4; stroke-opacity:1; fill:none" points="
  445.185,1435.49 445.185,1445.72 496.26,1445.72 496.26,1435.49 445.185,1435.49 
  "/>
<path clip-path="url(#clip742)" d="
M496.26 1430.38 L496.26 1445.72 L547.335 1445.72 L547.335 1430.38 L496.26 1430.38 L496.26 1430.38  Z
  " fill="#009af9" fill-rule="evenodd" fill-opacity="1"/>
<polyline clip-path="url(#clip742)" style="stroke:#000000; stroke-linecap:butt; stroke-linejoin:round; stroke-width:4; stroke-opacity:1; fill:none" points="
  496.26,1430.38 496.26,1445.72 547.335,1445.72 547.335,1430.38 496.26,1430.38 
  "/>
<path clip-path="url(#clip742)" d="
M547.335 1406.53 L547.335 1445.72 L598.41 1445.72 L598.41 1406.53 L547.335 1406.53 L547.335 1406.53  Z
  " fill="#009af9" fill-rule="evenodd" fill-opacity="1"/>
<polyline clip-path="url(#clip742)" style="stroke:#000000; stroke-linecap:butt; stroke-linejoin:round; stroke-width:4; stroke-opacity:1; fill:none" points="
  547.335,1406.53 547.335,1445.72 598.41,1445.72 598.41,1406.53 547.335,1406.53 
  "/>
<path clip-path="url(#clip742)" d="
M598.41 1389.5 L598.41 1445.72 L649.485 1445.72 L649.485 1389.5 L598.41 1389.5 L598.41 1389.5  Z
  " fill="#009af9" fill-rule="evenodd" fill-opacity="1"/>
<polyline clip-path="url(#clip742)" style="stroke:#000000; stroke-linecap:butt; stroke-linejoin:round; stroke-width:4; stroke-opacity:1; fill:none" points="
  598.41,1389.5 598.41,1445.72 649.485,1445.72 649.485,1389.5 598.41,1389.5 
  "/>
<path clip-path="url(#clip742)" d="
M649.485 1343.5 L649.485 1445.72 L700.56 1445.72 L700.56 1343.5 L649.485 1343.5 L649.485 1343.5  Z
  " fill="#009af9" fill-rule="evenodd" fill-opacity="1"/>
<polyline clip-path="url(#clip742)" style="stroke:#000000; stroke-linecap:butt; stroke-linejoin:round; stroke-width:4; stroke-opacity:1; fill:none" points="
  649.485,1343.5 649.485,1445.72 700.56,1445.72 700.56,1343.5 649.485,1343.5 
  "/>
<path clip-path="url(#clip742)" d="
M700.56 1295.8 L700.56 1445.72 L751.635 1445.72 L751.635 1295.8 L700.56 1295.8 L700.56 1295.8  Z
  " fill="#009af9" fill-rule="evenodd" fill-opacity="1"/>
<polyline clip-path="url(#clip742)" style="stroke:#000000; stroke-linecap:butt; stroke-linejoin:round; stroke-width:4; stroke-opacity:1; fill:none" points="
  700.56,1295.8 700.56,1445.72 751.635,1445.72 751.635,1295.8 700.56,1295.8 
  "/>
<path clip-path="url(#clip742)" d="
M751.635 1222.55 L751.635 1445.72 L802.71 1445.72 L802.71 1222.55 L751.635 1222.55 L751.635 1222.55  Z
  " fill="#009af9" fill-rule="evenodd" fill-opacity="1"/>
<polyline clip-path="url(#clip742)" style="stroke:#000000; stroke-linecap:butt; stroke-linejoin:round; stroke-width:4; stroke-opacity:1; fill:none" points="
  751.635,1222.55 751.635,1445.72 802.71,1445.72 802.71,1222.55 751.635,1222.55 
  "/>
<path clip-path="url(#clip742)" d="
M802.71 1127.15 L802.71 1445.72 L853.785 1445.72 L853.785 1127.15 L802.71 1127.15 L802.71 1127.15  Z
  " fill="#009af9" fill-rule="evenodd" fill-opacity="1"/>
<polyline clip-path="url(#clip742)" style="stroke:#000000; stroke-linecap:butt; stroke-linejoin:round; stroke-width:4; stroke-opacity:1; fill:none" points="
  802.71,1127.15 802.71,1445.72 853.785,1445.72 853.785,1127.15 802.71,1127.15 
  "/>
<path clip-path="url(#clip742)" d="
M853.785 977.236 L853.785 1445.72 L904.86 1445.72 L904.86 977.236 L853.785 977.236 L853.785 977.236  Z
  " fill="#009af9" fill-rule="evenodd" fill-opacity="1"/>
<polyline clip-path="url(#clip742)" style="stroke:#000000; stroke-linecap:butt; stroke-linejoin:round; stroke-width:4; stroke-opacity:1; fill:none" points="
  853.785,977.236 853.785,1445.72 904.86,1445.72 904.86,977.236 853.785,977.236 
  "/>
<path clip-path="url(#clip742)" d="
M904.86 808.583 L904.86 1445.72 L955.935 1445.72 L955.935 808.583 L904.86 808.583 L904.86 808.583  Z
  " fill="#009af9" fill-rule="evenodd" fill-opacity="1"/>
<polyline clip-path="url(#clip742)" style="stroke:#000000; stroke-linecap:butt; stroke-linejoin:round; stroke-width:4; stroke-opacity:1; fill:none" points="
  904.86,808.583 904.86,1445.72 955.935,1445.72 955.935,808.583 904.86,808.583 
  "/>
<path clip-path="url(#clip742)" d="
M955.935 672.298 L955.935 1445.72 L1007.01 1445.72 L1007.01 672.298 L955.935 672.298 L955.935 672.298  Z
  " fill="#009af9" fill-rule="evenodd" fill-opacity="1"/>
<polyline clip-path="url(#clip742)" style="stroke:#000000; stroke-linecap:butt; stroke-linejoin:round; stroke-width:4; stroke-opacity:1; fill:none" points="
  955.935,672.298 955.935,1445.72 1007.01,1445.72 1007.01,672.298 955.935,672.298 
  "/>
<path clip-path="url(#clip742)" d="
M1007.01 524.088 L1007.01 1445.72 L1058.09 1445.72 L1058.09 524.088 L1007.01 524.088 L1007.01 524.088  Z
  " fill="#009af9" fill-rule="evenodd" fill-opacity="1"/>
<polyline clip-path="url(#clip742)" style="stroke:#000000; stroke-linecap:butt; stroke-linejoin:round; stroke-width:4; stroke-opacity:1; fill:none" points="
  1007.01,524.088 1007.01,1445.72 1058.09,1445.72 1058.09,524.088 1007.01,524.088 
  "/>
<path clip-path="url(#clip742)" d="
M1058.09 416.764 L1058.09 1445.72 L1109.16 1445.72 L1109.16 416.764 L1058.09 416.764 L1058.09 416.764  Z
  " fill="#009af9" fill-rule="evenodd" fill-opacity="1"/>
<polyline clip-path="url(#clip742)" style="stroke:#000000; stroke-linecap:butt; stroke-linejoin:round; stroke-width:4; stroke-opacity:1; fill:none" points="
  1058.09,416.764 1058.09,1445.72 1109.16,1445.72 1109.16,416.764 1058.09,416.764 
  "/>
<path clip-path="url(#clip742)" d="
M1109.16 271.961 L1109.16 1445.72 L1160.24 1445.72 L1160.24 271.961 L1109.16 271.961 L1109.16 271.961  Z
  " fill="#009af9" fill-rule="evenodd" fill-opacity="1"/>
<polyline clip-path="url(#clip742)" style="stroke:#000000; stroke-linecap:butt; stroke-linejoin:round; stroke-width:4; stroke-opacity:1; fill:none" points="
  1109.16,271.961 1109.16,1445.72 1160.24,1445.72 1160.24,271.961 1109.16,271.961 
  "/>
<path clip-path="url(#clip742)" d="
M1160.24 87.9763 L1160.24 1445.72 L1211.31 1445.72 L1211.31 87.9763 L1160.24 87.9763 L1160.24 87.9763  Z
  " fill="#009af9" fill-rule="evenodd" fill-opacity="1"/>
<polyline clip-path="url(#clip742)" style="stroke:#000000; stroke-linecap:butt; stroke-linejoin:round; stroke-width:4; stroke-opacity:1; fill:none" points="
  1160.24,87.9763 1160.24,1445.72 1211.31,1445.72 1211.31,87.9763 1160.24,87.9763 
  "/>
<path clip-path="url(#clip742)" d="
M1211.31 115.233 L1211.31 1445.72 L1262.39 1445.72 L1262.39 115.233 L1211.31 115.233 L1211.31 115.233  Z
  " fill="#009af9" fill-rule="evenodd" fill-opacity="1"/>
<polyline clip-path="url(#clip742)" style="stroke:#000000; stroke-linecap:butt; stroke-linejoin:round; stroke-width:4; stroke-opacity:1; fill:none" points="
  1211.31,115.233 1211.31,1445.72 1262.39,1445.72 1262.39,115.233 1211.31,115.233 
  "/>
<path clip-path="url(#clip742)" d="
M1262.39 152.712 L1262.39 1445.72 L1313.46 1445.72 L1313.46 152.712 L1262.39 152.712 L1262.39 152.712  Z
  " fill="#009af9" fill-rule="evenodd" fill-opacity="1"/>
<polyline clip-path="url(#clip742)" style="stroke:#000000; stroke-linecap:butt; stroke-linejoin:round; stroke-width:4; stroke-opacity:1; fill:none" points="
  1262.39,152.712 1262.39,1445.72 1313.46,1445.72 1313.46,152.712 1262.39,152.712 
  "/>
<path clip-path="url(#clip742)" d="
M1313.46 174.858 L1313.46 1445.72 L1364.54 1445.72 L1364.54 174.858 L1313.46 174.858 L1313.46 174.858  Z
  " fill="#009af9" fill-rule="evenodd" fill-opacity="1"/>
<polyline clip-path="url(#clip742)" style="stroke:#000000; stroke-linecap:butt; stroke-linejoin:round; stroke-width:4; stroke-opacity:1; fill:none" points="
  1313.46,174.858 1313.46,1445.72 1364.54,1445.72 1364.54,174.858 1313.46,174.858 
  "/>
<path clip-path="url(#clip742)" d="
M1364.54 323.068 L1364.54 1445.72 L1415.61 1445.72 L1415.61 323.068 L1364.54 323.068 L1364.54 323.068  Z
  " fill="#009af9" fill-rule="evenodd" fill-opacity="1"/>
<polyline clip-path="url(#clip742)" style="stroke:#000000; stroke-linecap:butt; stroke-linejoin:round; stroke-width:4; stroke-opacity:1; fill:none" points="
  1364.54,323.068 1364.54,1445.72 1415.61,1445.72 1415.61,323.068 1364.54,323.068 
  "/>
<path clip-path="url(#clip742)" d="
M1415.61 380.989 L1415.61 1445.72 L1466.69 1445.72 L1466.69 380.989 L1415.61 380.989 L1415.61 380.989  Z
  " fill="#009af9" fill-rule="evenodd" fill-opacity="1"/>
<polyline clip-path="url(#clip742)" style="stroke:#000000; stroke-linecap:butt; stroke-linejoin:round; stroke-width:4; stroke-opacity:1; fill:none" points="
  1415.61,380.989 1415.61,1445.72 1466.69,1445.72 1466.69,380.989 1415.61,380.989 
  "/>
<path clip-path="url(#clip742)" d="
M1466.69 508.756 L1466.69 1445.72 L1517.76 1445.72 L1517.76 508.756 L1466.69 508.756 L1466.69 508.756  Z
  " fill="#009af9" fill-rule="evenodd" fill-opacity="1"/>
<polyline clip-path="url(#clip742)" style="stroke:#000000; stroke-linecap:butt; stroke-linejoin:round; stroke-width:4; stroke-opacity:1; fill:none" points="
  1466.69,508.756 1466.69,1445.72 1517.76,1445.72 1517.76,508.756 1466.69,508.756 
  "/>
<path clip-path="url(#clip742)" d="
M1517.76 684.223 L1517.76 1445.72 L1568.84 1445.72 L1568.84 684.223 L1517.76 684.223 L1517.76 684.223  Z
  " fill="#009af9" fill-rule="evenodd" fill-opacity="1"/>
<polyline clip-path="url(#clip742)" style="stroke:#000000; stroke-linecap:butt; stroke-linejoin:round; stroke-width:4; stroke-opacity:1; fill:none" points="
  1517.76,684.223 1517.76,1445.72 1568.84,1445.72 1568.84,684.223 1517.76,684.223 
  "/>
<path clip-path="url(#clip742)" d="
M1568.84 863.097 L1568.84 1445.72 L1619.91 1445.72 L1619.91 863.097 L1568.84 863.097 L1568.84 863.097  Z
  " fill="#009af9" fill-rule="evenodd" fill-opacity="1"/>
<polyline clip-path="url(#clip742)" style="stroke:#000000; stroke-linecap:butt; stroke-linejoin:round; stroke-width:4; stroke-opacity:1; fill:none" points="
  1568.84,863.097 1568.84,1445.72 1619.91,1445.72 1619.91,863.097 1568.84,863.097 
  "/>
<path clip-path="url(#clip742)" d="
M1619.91 984.05 L1619.91 1445.72 L1670.99 1445.72 L1670.99 984.05 L1619.91 984.05 L1619.91 984.05  Z
  " fill="#009af9" fill-rule="evenodd" fill-opacity="1"/>
<polyline clip-path="url(#clip742)" style="stroke:#000000; stroke-linecap:butt; stroke-linejoin:round; stroke-width:4; stroke-opacity:1; fill:none" points="
  1619.91,984.05 1619.91,1445.72 1670.99,1445.72 1670.99,984.05 1619.91,984.05 
  "/>
<path clip-path="url(#clip742)" d="
M1670.99 1128.85 L1670.99 1445.72 L1722.06 1445.72 L1722.06 1128.85 L1670.99 1128.85 L1670.99 1128.85  Z
  " fill="#009af9" fill-rule="evenodd" fill-opacity="1"/>
<polyline clip-path="url(#clip742)" style="stroke:#000000; stroke-linecap:butt; stroke-linejoin:round; stroke-width:4; stroke-opacity:1; fill:none" points="
  1670.99,1128.85 1670.99,1445.72 1722.06,1445.72 1722.06,1128.85 1670.99,1128.85 
  "/>
<path clip-path="url(#clip742)" d="
M1722.06 1215.73 L1722.06 1445.72 L1773.14 1445.72 L1773.14 1215.73 L1722.06 1215.73 L1722.06 1215.73  Z
  " fill="#009af9" fill-rule="evenodd" fill-opacity="1"/>
<polyline clip-path="url(#clip742)" style="stroke:#000000; stroke-linecap:butt; stroke-linejoin:round; stroke-width:4; stroke-opacity:1; fill:none" points="
  1722.06,1215.73 1722.06,1445.72 1773.14,1445.72 1773.14,1215.73 1722.06,1215.73 
  "/>
<path clip-path="url(#clip742)" d="
M1773.14 1294.1 L1773.14 1445.72 L1824.21 1445.72 L1824.21 1294.1 L1773.14 1294.1 L1773.14 1294.1  Z
  " fill="#009af9" fill-rule="evenodd" fill-opacity="1"/>
<polyline clip-path="url(#clip742)" style="stroke:#000000; stroke-linecap:butt; stroke-linejoin:round; stroke-width:4; stroke-opacity:1; fill:none" points="
  1773.14,1294.1 1773.14,1445.72 1824.21,1445.72 1824.21,1294.1 1773.14,1294.1 
  "/>
<path clip-path="url(#clip742)" d="
M1824.21 1362.24 L1824.21 1445.72 L1875.29 1445.72 L1875.29 1362.24 L1824.21 1362.24 L1824.21 1362.24  Z
  " fill="#009af9" fill-rule="evenodd" fill-opacity="1"/>
<polyline clip-path="url(#clip742)" style="stroke:#000000; stroke-linecap:butt; stroke-linejoin:round; stroke-width:4; stroke-opacity:1; fill:none" points="
  1824.21,1362.24 1824.21,1445.72 1875.29,1445.72 1875.29,1362.24 1824.21,1362.24 
  "/>
<path clip-path="url(#clip742)" d="
M1875.29 1391.2 L1875.29 1445.72 L1926.36 1445.72 L1926.36 1391.2 L1875.29 1391.2 L1875.29 1391.2  Z
  " fill="#009af9" fill-rule="evenodd" fill-opacity="1"/>
<polyline clip-path="url(#clip742)" style="stroke:#000000; stroke-linecap:butt; stroke-linejoin:round; stroke-width:4; stroke-opacity:1; fill:none" points="
  1875.29,1391.2 1875.29,1445.72 1926.36,1445.72 1926.36,1391.2 1875.29,1391.2 
  "/>
<path clip-path="url(#clip742)" d="
M1926.36 1409.94 L1926.36 1445.72 L1977.44 1445.72 L1977.44 1409.94 L1926.36 1409.94 L1926.36 1409.94  Z
  " fill="#009af9" fill-rule="evenodd" fill-opacity="1"/>
<polyline clip-path="url(#clip742)" style="stroke:#000000; stroke-linecap:butt; stroke-linejoin:round; stroke-width:4; stroke-opacity:1; fill:none" points="
  1926.36,1409.94 1926.36,1445.72 1977.44,1445.72 1977.44,1409.94 1926.36,1409.94 
  "/>
<path clip-path="url(#clip742)" d="
M1977.44 1428.68 L1977.44 1445.72 L2028.51 1445.72 L2028.51 1428.68 L1977.44 1428.68 L1977.44 1428.68  Z
  " fill="#009af9" fill-rule="evenodd" fill-opacity="1"/>
<polyline clip-path="url(#clip742)" style="stroke:#000000; stroke-linecap:butt; stroke-linejoin:round; stroke-width:4; stroke-opacity:1; fill:none" points="
  1977.44,1428.68 1977.44,1445.72 2028.51,1445.72 2028.51,1428.68 1977.44,1428.68 
  "/>
<path clip-path="url(#clip742)" d="
M2028.51 1433.79 L2028.51 1445.72 L2079.59 1445.72 L2079.59 1433.79 L2028.51 1433.79 L2028.51 1433.79  Z
  " fill="#009af9" fill-rule="evenodd" fill-opacity="1"/>
<polyline clip-path="url(#clip742)" style="stroke:#000000; stroke-linecap:butt; stroke-linejoin:round; stroke-width:4; stroke-opacity:1; fill:none" points="
  2028.51,1433.79 2028.51,1445.72 2079.59,1445.72 2079.59,1433.79 2028.51,1433.79 
  "/>
<path clip-path="url(#clip742)" d="
M2079.59 1437.2 L2079.59 1445.72 L2130.66 1445.72 L2130.66 1437.2 L2079.59 1437.2 L2079.59 1437.2  Z
  " fill="#009af9" fill-rule="evenodd" fill-opacity="1"/>
<polyline clip-path="url(#clip742)" style="stroke:#000000; stroke-linecap:butt; stroke-linejoin:round; stroke-width:4; stroke-opacity:1; fill:none" points="
  2079.59,1437.2 2079.59,1445.72 2130.66,1445.72 2130.66,1437.2 2079.59,1437.2 
  "/>
<path clip-path="url(#clip742)" d="
M2130.66 1438.9 L2130.66 1445.72 L2181.74 1445.72 L2181.74 1438.9 L2130.66 1438.9 L2130.66 1438.9  Z
  " fill="#009af9" fill-rule="evenodd" fill-opacity="1"/>
<polyline clip-path="url(#clip742)" style="stroke:#000000; stroke-linecap:butt; stroke-linejoin:round; stroke-width:4; stroke-opacity:1; fill:none" points="
  2130.66,1438.9 2130.66,1445.72 2181.74,1445.72 2181.74,1438.9 2130.66,1438.9 
  "/>
<path clip-path="url(#clip742)" d="
M2181.74 1442.31 L2181.74 1445.72 L2232.81 1445.72 L2232.81 1442.31 L2181.74 1442.31 L2181.74 1442.31  Z
  " fill="#009af9" fill-rule="evenodd" fill-opacity="1"/>
<polyline clip-path="url(#clip742)" style="stroke:#000000; stroke-linecap:butt; stroke-linejoin:round; stroke-width:4; stroke-opacity:1; fill:none" points="
  2181.74,1442.31 2181.74,1445.72 2232.81,1445.72 2232.81,1442.31 2181.74,1442.31 
  "/>
<circle clip-path="url(#clip742)" style="fill:#009af9; stroke:none; fill-opacity:0" cx="317.497" cy="1444.01" r="2"/>
<circle clip-path="url(#clip742)" style="fill:#009af9; stroke:none; fill-opacity:0" cx="368.572" cy="1438.9" r="2"/>
<circle clip-path="url(#clip742)" style="fill:#009af9; stroke:none; fill-opacity:0" cx="419.647" cy="1438.9" r="2"/>
<circle clip-path="url(#clip742)" style="fill:#009af9; stroke:none; fill-opacity:0" cx="470.722" cy="1435.49" r="2"/>
<circle clip-path="url(#clip742)" style="fill:#009af9; stroke:none; fill-opacity:0" cx="521.797" cy="1430.38" r="2"/>
<circle clip-path="url(#clip742)" style="fill:#009af9; stroke:none; fill-opacity:0" cx="572.872" cy="1406.53" r="2"/>
<circle clip-path="url(#clip742)" style="fill:#009af9; stroke:none; fill-opacity:0" cx="623.947" cy="1389.5" r="2"/>
<circle clip-path="url(#clip742)" style="fill:#009af9; stroke:none; fill-opacity:0" cx="675.022" cy="1343.5" r="2"/>
<circle clip-path="url(#clip742)" style="fill:#009af9; stroke:none; fill-opacity:0" cx="726.097" cy="1295.8" r="2"/>
<circle clip-path="url(#clip742)" style="fill:#009af9; stroke:none; fill-opacity:0" cx="777.172" cy="1222.55" r="2"/>
<circle clip-path="url(#clip742)" style="fill:#009af9; stroke:none; fill-opacity:0" cx="828.247" cy="1127.15" r="2"/>
<circle clip-path="url(#clip742)" style="fill:#009af9; stroke:none; fill-opacity:0" cx="879.323" cy="977.236" r="2"/>
<circle clip-path="url(#clip742)" style="fill:#009af9; stroke:none; fill-opacity:0" cx="930.398" cy="808.583" r="2"/>
<circle clip-path="url(#clip742)" style="fill:#009af9; stroke:none; fill-opacity:0" cx="981.473" cy="672.298" r="2"/>
<circle clip-path="url(#clip742)" style="fill:#009af9; stroke:none; fill-opacity:0" cx="1032.55" cy="524.088" r="2"/>
<circle clip-path="url(#clip742)" style="fill:#009af9; stroke:none; fill-opacity:0" cx="1083.62" cy="416.764" r="2"/>
<circle clip-path="url(#clip742)" style="fill:#009af9; stroke:none; fill-opacity:0" cx="1134.7" cy="271.961" r="2"/>
<circle clip-path="url(#clip742)" style="fill:#009af9; stroke:none; fill-opacity:0" cx="1185.77" cy="87.9763" r="2"/>
<circle clip-path="url(#clip742)" style="fill:#009af9; stroke:none; fill-opacity:0" cx="1236.85" cy="115.233" r="2"/>
<circle clip-path="url(#clip742)" style="fill:#009af9; stroke:none; fill-opacity:0" cx="1287.92" cy="152.712" r="2"/>
<circle clip-path="url(#clip742)" style="fill:#009af9; stroke:none; fill-opacity:0" cx="1339" cy="174.858" r="2"/>
<circle clip-path="url(#clip742)" style="fill:#009af9; stroke:none; fill-opacity:0" cx="1390.07" cy="323.068" r="2"/>
<circle clip-path="url(#clip742)" style="fill:#009af9; stroke:none; fill-opacity:0" cx="1441.15" cy="380.989" r="2"/>
<circle clip-path="url(#clip742)" style="fill:#009af9; stroke:none; fill-opacity:0" cx="1492.22" cy="508.756" r="2"/>
<circle clip-path="url(#clip742)" style="fill:#009af9; stroke:none; fill-opacity:0" cx="1543.3" cy="684.223" r="2"/>
<circle clip-path="url(#clip742)" style="fill:#009af9; stroke:none; fill-opacity:0" cx="1594.37" cy="863.097" r="2"/>
<circle clip-path="url(#clip742)" style="fill:#009af9; stroke:none; fill-opacity:0" cx="1645.45" cy="984.05" r="2"/>
<circle clip-path="url(#clip742)" style="fill:#009af9; stroke:none; fill-opacity:0" cx="1696.52" cy="1128.85" r="2"/>
<circle clip-path="url(#clip742)" style="fill:#009af9; stroke:none; fill-opacity:0" cx="1747.6" cy="1215.73" r="2"/>
<circle clip-path="url(#clip742)" style="fill:#009af9; stroke:none; fill-opacity:0" cx="1798.67" cy="1294.1" r="2"/>
<circle clip-path="url(#clip742)" style="fill:#009af9; stroke:none; fill-opacity:0" cx="1849.75" cy="1362.24" r="2"/>
<circle clip-path="url(#clip742)" style="fill:#009af9; stroke:none; fill-opacity:0" cx="1900.82" cy="1391.2" r="2"/>
<circle clip-path="url(#clip742)" style="fill:#009af9; stroke:none; fill-opacity:0" cx="1951.9" cy="1409.94" r="2"/>
<circle clip-path="url(#clip742)" style="fill:#009af9; stroke:none; fill-opacity:0" cx="2002.97" cy="1428.68" r="2"/>
<circle clip-path="url(#clip742)" style="fill:#009af9; stroke:none; fill-opacity:0" cx="2054.05" cy="1433.79" r="2"/>
<circle clip-path="url(#clip742)" style="fill:#009af9; stroke:none; fill-opacity:0" cx="2105.12" cy="1437.2" r="2"/>
<circle clip-path="url(#clip742)" style="fill:#009af9; stroke:none; fill-opacity:0" cx="2156.2" cy="1438.9" r="2"/>
<circle clip-path="url(#clip742)" style="fill:#009af9; stroke:none; fill-opacity:0" cx="2207.27" cy="1442.31" r="2"/>
</svg>
