<?xml version="1.0" encoding="utf-8"?>
<svg xmlns="http://www.w3.org/2000/svg" xmlns:xlink="http://www.w3.org/1999/xlink" width="600" height="400" viewBox="0 0 2400 1600">
<defs>
  <clipPath id="clip740">
    <rect x="0" y="0" width="2400" height="1600"/>
  </clipPath>
</defs>
<path clip-path="url(#clip740)" d="
M0 1600 L2400 1600 L2400 0 L0 0  Z
  " fill="#ffffff" fill-rule="evenodd" fill-opacity="1"/>
<defs>
  <clipPath id="clip741">
    <rect x="480" y="0" width="1681" height="1600"/>
  </clipPath>
</defs>
<path clip-path="url(#clip740)" d="
M172.015 1486.45 L2352.76 1486.45 L2352.76 47.2441 L172.015 47.2441  Z
  " fill="#ffffff" fill-rule="evenodd" fill-opacity="1"/>
<defs>
  <clipPath id="clip742">
    <rect x="172" y="47" width="2182" height="1440"/>
  </clipPath>
</defs>
<polyline clip-path="url(#clip742)" style="stroke:#000000; stroke-linecap:round; stroke-linejoin:round; stroke-width:2; stroke-opacity:0.1; fill:none" points="
  291.959,1486.45 291.959,47.2441 
  "/>
<polyline clip-path="url(#clip742)" style="stroke:#000000; stroke-linecap:round; stroke-linejoin:round; stroke-width:2; stroke-opacity:0.1; fill:none" points="
  777.172,1486.45 777.172,47.2441 
  "/>
<polyline clip-path="url(#clip742)" style="stroke:#000000; stroke-linecap:round; stroke-linejoin:round; stroke-width:2; stroke-opacity:0.1; fill:none" points="
  1262.39,1486.45 1262.39,47.2441 
  "/>
<polyline clip-path="url(#clip742)" style="stroke:#000000; stroke-linecap:round; stroke-linejoin:round; stroke-width:2; stroke-opacity:0.1; fill:none" points="
  1747.6,1486.45 1747.6,47.2441 
  "/>
<polyline clip-path="url(#clip742)" style="stroke:#000000; stroke-linecap:round; stroke-linejoin:round; stroke-width:2; stroke-opacity:0.1; fill:none" points="
  2232.81,1486.45 2232.81,47.2441 
  "/>
<polyline clip-path="url(#clip740)" style="stroke:#000000; stroke-linecap:round; stroke-linejoin:round; stroke-width:4; stroke-opacity:1; fill:none" points="
  172.015,1486.45 2352.76,1486.45 
  "/>
<polyline clip-path="url(#clip740)" style="stroke:#000000; stroke-linecap:round; stroke-linejoin:round; stroke-width:4; stroke-opacity:1; fill:none" points="
  291.959,1486.45 291.959,1467.55 
  "/>
<polyline clip-path="url(#clip740)" style="stroke:#000000; stroke-linecap:round; stroke-linejoin:round; stroke-width:4; stroke-opacity:1; fill:none" points="
  777.172,1486.45 777.172,1467.55 
  "/>
<polyline clip-path="url(#clip740)" style="stroke:#000000; stroke-linecap:round; stroke-linejoin:round; stroke-width:4; stroke-opacity:1; fill:none" points="
  1262.39,1486.45 1262.39,1467.55 
  "/>
<polyline clip-path="url(#clip740)" style="stroke:#000000; stroke-linecap:round; stroke-linejoin:round; stroke-width:4; stroke-opacity:1; fill:none" points="
  1747.6,1486.45 1747.6,1467.55 
  "/>
<polyline clip-path="url(#clip740)" style="stroke:#000000; stroke-linecap:round; stroke-linejoin:round; stroke-width:4; stroke-opacity:1; fill:none" points="
  2232.81,1486.45 2232.81,1467.55 
  "/>
<path clip-path="url(#clip740)" d="M254.263 1517.37 Q250.652 1517.37 248.823 1520.93 Q247.018 1524.47 247.018 1531.6 Q247.018 1538.71 248.823 1542.27 Q250.652 1545.82 254.263 1545.82 Q257.897 1545.82 259.703 1542.27 Q261.531 1538.71 261.531 1531.6 Q261.531 1524.47 259.703 1520.93 Q257.897 1517.37 254.263 1517.37 M254.263 1513.66 Q260.073 1513.66 263.129 1518.27 Q266.207 1522.85 266.207 1531.6 Q266.207 1540.33 263.129 1544.94 Q260.073 1549.52 254.263 1549.52 Q248.453 1549.52 245.374 1544.94 Q242.319 1540.33 242.319 1531.6 Q242.319 1522.85 245.374 1518.27 Q248.453 1513.66 254.263 1513.66 Z" fill="#000000" fill-rule="evenodd" fill-opacity="1" /><path clip-path="url(#clip740)" d="M274.425 1542.97 L279.309 1542.97 L279.309 1548.85 L274.425 1548.85 L274.425 1542.97 Z" fill="#000000" fill-rule="evenodd" fill-opacity="1" /><path clip-path="url(#clip740)" d="M299.494 1517.37 Q295.883 1517.37 294.054 1520.93 Q292.249 1524.47 292.249 1531.6 Q292.249 1538.71 294.054 1542.27 Q295.883 1545.82 299.494 1545.82 Q303.128 1545.82 304.934 1542.27 Q306.763 1538.71 306.763 1531.6 Q306.763 1524.47 304.934 1520.93 Q303.128 1517.37 299.494 1517.37 M299.494 1513.66 Q305.304 1513.66 308.36 1518.27 Q311.439 1522.85 311.439 1531.6 Q311.439 1540.33 308.36 1544.94 Q305.304 1549.52 299.494 1549.52 Q293.684 1549.52 290.605 1544.94 Q287.55 1540.33 287.55 1531.6 Q287.55 1522.85 290.605 1518.27 Q293.684 1513.66 299.494 1513.66 Z" fill="#000000" fill-rule="evenodd" fill-opacity="1" /><path clip-path="url(#clip740)" d="M329.656 1517.37 Q326.045 1517.37 324.216 1520.93 Q322.411 1524.47 322.411 1531.6 Q322.411 1538.71 324.216 1542.27 Q326.045 1545.82 329.656 1545.82 Q333.29 1545.82 335.096 1542.27 Q336.924 1538.71 336.924 1531.6 Q336.924 1524.47 335.096 1520.93 Q333.29 1517.37 329.656 1517.37 M329.656 1513.66 Q335.466 1513.66 338.522 1518.27 Q341.6 1522.85 341.6 1531.6 Q341.6 1540.33 338.522 1544.94 Q335.466 1549.52 329.656 1549.52 Q323.846 1549.52 320.767 1544.94 Q317.712 1540.33 317.712 1531.6 Q317.712 1522.85 320.767 1518.27 Q323.846 1513.66 329.656 1513.66 Z" fill="#000000" fill-rule="evenodd" fill-opacity="1" /><path clip-path="url(#clip740)" d="M739.974 1517.37 Q736.362 1517.37 734.534 1520.93 Q732.728 1524.47 732.728 1531.6 Q732.728 1538.71 734.534 1542.27 Q736.362 1545.82 739.974 1545.82 Q743.608 1545.82 745.413 1542.27 Q747.242 1538.71 747.242 1531.6 Q747.242 1524.47 745.413 1520.93 Q743.608 1517.37 739.974 1517.37 M739.974 1513.66 Q745.784 1513.66 748.839 1518.27 Q751.918 1522.85 751.918 1531.6 Q751.918 1540.33 748.839 1544.94 Q745.784 1549.52 739.974 1549.52 Q734.163 1549.52 731.085 1544.94 Q728.029 1540.33 728.029 1531.6 Q728.029 1522.85 731.085 1518.27 Q734.163 1513.66 739.974 1513.66 Z" fill="#000000" fill-rule="evenodd" fill-opacity="1" /><path clip-path="url(#clip740)" d="M760.135 1542.97 L765.02 1542.97 L765.02 1548.85 L760.135 1548.85 L760.135 1542.97 Z" fill="#000000" fill-rule="evenodd" fill-opacity="1" /><path clip-path="url(#clip740)" d="M779.233 1544.91 L795.552 1544.91 L795.552 1548.85 L773.608 1548.85 L773.608 1544.91 Q776.27 1542.16 780.853 1537.53 Q785.459 1532.88 786.64 1531.53 Q788.885 1529.01 789.765 1527.27 Q790.668 1525.51 790.668 1523.82 Q790.668 1521.07 788.723 1519.33 Q786.802 1517.6 783.7 1517.6 Q781.501 1517.6 779.047 1518.36 Q776.617 1519.13 773.839 1520.68 L773.839 1515.95 Q776.663 1514.82 779.117 1514.24 Q781.571 1513.66 783.608 1513.66 Q788.978 1513.66 792.172 1516.35 Q795.367 1519.03 795.367 1523.52 Q795.367 1525.65 794.557 1527.57 Q793.77 1529.47 791.663 1532.07 Q791.084 1532.74 787.983 1535.95 Q784.881 1539.15 779.233 1544.91 Z" fill="#000000" fill-rule="evenodd" fill-opacity="1" /><path clip-path="url(#clip740)" d="M805.413 1514.29 L823.769 1514.29 L823.769 1518.22 L809.695 1518.22 L809.695 1526.7 Q810.714 1526.35 811.732 1526.19 Q812.751 1526 813.769 1526 Q819.556 1526 822.936 1529.17 Q826.316 1532.34 826.316 1537.76 Q826.316 1543.34 822.843 1546.44 Q819.371 1549.52 813.052 1549.52 Q810.876 1549.52 808.607 1549.15 Q806.362 1548.78 803.955 1548.04 L803.955 1543.34 Q806.038 1544.47 808.26 1545.03 Q810.482 1545.58 812.959 1545.58 Q816.964 1545.58 819.302 1543.48 Q821.64 1541.37 821.64 1537.76 Q821.64 1534.15 819.302 1532.04 Q816.964 1529.94 812.959 1529.94 Q811.084 1529.94 809.209 1530.35 Q807.357 1530.77 805.413 1531.65 L805.413 1514.29 Z" fill="#000000" fill-rule="evenodd" fill-opacity="1" /><path clip-path="url(#clip740)" d="M1224.69 1517.37 Q1221.08 1517.37 1219.25 1520.93 Q1217.44 1524.47 1217.44 1531.6 Q1217.44 1538.71 1219.25 1542.27 Q1221.08 1545.82 1224.69 1545.82 Q1228.32 1545.82 1230.13 1542.27 Q1231.96 1538.71 1231.96 1531.6 Q1231.96 1524.47 1230.13 1520.93 Q1228.32 1517.37 1224.69 1517.37 M1224.69 1513.66 Q1230.5 1513.66 1233.55 1518.27 Q1236.63 1522.85 1236.63 1531.6 Q1236.63 1540.33 1233.55 1544.94 Q1230.5 1549.52 1224.69 1549.52 Q1218.88 1549.52 1215.8 1544.94 Q1212.74 1540.33 1212.74 1531.6 Q1212.74 1522.85 1215.8 1518.27 Q1218.88 1513.66 1224.69 1513.66 Z" fill="#000000" fill-rule="evenodd" fill-opacity="1" /><path clip-path="url(#clip740)" d="M1244.85 1542.97 L1249.73 1542.97 L1249.73 1548.85 L1244.85 1548.85 L1244.85 1542.97 Z" fill="#000000" fill-rule="evenodd" fill-opacity="1" /><path clip-path="url(#clip740)" d="M1259.97 1514.29 L1278.32 1514.29 L1278.32 1518.22 L1264.25 1518.22 L1264.25 1526.7 Q1265.27 1526.35 1266.29 1526.19 Q1267.3 1526 1268.32 1526 Q1274.11 1526 1277.49 1529.17 Q1280.87 1532.34 1280.87 1537.76 Q1280.87 1543.34 1277.4 1546.44 Q1273.92 1549.52 1267.61 1549.52 Q1265.43 1549.52 1263.16 1549.15 Q1260.92 1548.78 1258.51 1548.04 L1258.51 1543.34 Q1260.59 1544.47 1262.81 1545.03 Q1265.04 1545.58 1267.51 1545.58 Q1271.52 1545.58 1273.86 1543.48 Q1276.19 1541.37 1276.19 1537.76 Q1276.19 1534.15 1273.86 1532.04 Q1271.52 1529.94 1267.51 1529.94 Q1265.64 1529.94 1263.76 1530.35 Q1261.91 1530.77 1259.97 1531.65 L1259.97 1514.29 Z" fill="#000000" fill-rule="evenodd" fill-opacity="1" /><path clip-path="url(#clip740)" d="M1300.08 1517.37 Q1296.47 1517.37 1294.64 1520.93 Q1292.84 1524.47 1292.84 1531.6 Q1292.84 1538.71 1294.64 1542.27 Q1296.47 1545.82 1300.08 1545.82 Q1303.72 1545.82 1305.52 1542.27 Q1307.35 1538.71 1307.35 1531.6 Q1307.35 1524.47 1305.52 1520.93 Q1303.72 1517.37 1300.08 1517.37 M1300.08 1513.66 Q1305.89 1513.66 1308.95 1518.27 Q1312.03 1522.85 1312.03 1531.6 Q1312.03 1540.33 1308.95 1544.94 Q1305.89 1549.52 1300.08 1549.52 Q1294.27 1549.52 1291.19 1544.94 Q1288.14 1540.33 1288.14 1531.6 Q1288.14 1522.85 1291.19 1518.27 Q1294.27 1513.66 1300.08 1513.66 Z" fill="#000000" fill-rule="evenodd" fill-opacity="1" /><path clip-path="url(#clip740)" d="M1710.4 1517.37 Q1706.79 1517.37 1704.96 1520.93 Q1703.15 1524.47 1703.15 1531.6 Q1703.15 1538.71 1704.96 1542.27 Q1706.79 1545.82 1710.4 1545.82 Q1714.03 1545.82 1715.84 1542.27 Q1717.67 1538.71 1717.67 1531.6 Q1717.67 1524.47 1715.84 1520.93 Q1714.03 1517.37 1710.4 1517.37 M1710.4 1513.66 Q1716.21 1513.66 1719.27 1518.27 Q1722.34 1522.85 1722.34 1531.6 Q1722.34 1540.33 1719.27 1544.94 Q1716.21 1549.52 1710.4 1549.52 Q1704.59 1549.52 1701.51 1544.94 Q1698.46 1540.33 1698.46 1531.6 Q1698.46 1522.85 1701.51 1518.27 Q1704.59 1513.66 1710.4 1513.66 Z" fill="#000000" fill-rule="evenodd" fill-opacity="1" /><path clip-path="url(#clip740)" d="M1730.56 1542.97 L1735.45 1542.97 L1735.45 1548.85 L1730.56 1548.85 L1730.56 1542.97 Z" fill="#000000" fill-rule="evenodd" fill-opacity="1" /><path clip-path="url(#clip740)" d="M1744.45 1514.29 L1766.67 1514.29 L1766.67 1516.28 L1754.13 1548.85 L1749.24 1548.85 L1761.05 1518.22 L1744.45 1518.22 L1744.45 1514.29 Z" fill="#000000" fill-rule="evenodd" fill-opacity="1" /><path clip-path="url(#clip740)" d="M1775.84 1514.29 L1794.2 1514.29 L1794.2 1518.22 L1780.12 1518.22 L1780.12 1526.7 Q1781.14 1526.35 1782.16 1526.19 Q1783.18 1526 1784.2 1526 Q1789.98 1526 1793.36 1529.17 Q1796.74 1532.34 1796.74 1537.76 Q1796.74 1543.34 1793.27 1546.44 Q1789.8 1549.52 1783.48 1549.52 Q1781.3 1549.52 1779.03 1549.15 Q1776.79 1548.78 1774.38 1548.04 L1774.38 1543.34 Q1776.46 1544.47 1778.69 1545.03 Q1780.91 1545.58 1783.39 1545.58 Q1787.39 1545.58 1789.73 1543.48 Q1792.07 1541.37 1792.07 1537.76 Q1792.07 1534.15 1789.73 1532.04 Q1787.39 1529.94 1783.39 1529.94 Q1781.51 1529.94 1779.64 1530.35 Q1777.78 1530.77 1775.84 1531.65 L1775.84 1514.29 Z" fill="#000000" fill-rule="evenodd" fill-opacity="1" /><path clip-path="url(#clip740)" d="M2184.88 1544.91 L2192.52 1544.91 L2192.52 1518.55 L2184.21 1520.21 L2184.21 1515.95 L2192.48 1514.29 L2197.15 1514.29 L2197.15 1544.91 L2204.79 1544.91 L2204.79 1548.85 L2184.88 1548.85 L2184.88 1544.91 Z" fill="#000000" fill-rule="evenodd" fill-opacity="1" /><path clip-path="url(#clip740)" d="M2214.23 1542.97 L2219.12 1542.97 L2219.12 1548.85 L2214.23 1548.85 L2214.23 1542.97 Z" fill="#000000" fill-rule="evenodd" fill-opacity="1" /><path clip-path="url(#clip740)" d="M2239.3 1517.37 Q2235.69 1517.37 2233.86 1520.93 Q2232.06 1524.47 2232.06 1531.6 Q2232.06 1538.71 2233.86 1542.27 Q2235.69 1545.82 2239.3 1545.82 Q2242.94 1545.82 2244.74 1542.27 Q2246.57 1538.71 2246.57 1531.6 Q2246.57 1524.47 2244.74 1520.93 Q2242.94 1517.37 2239.3 1517.37 M2239.3 1513.66 Q2245.11 1513.66 2248.17 1518.27 Q2251.25 1522.85 2251.25 1531.6 Q2251.25 1540.33 2248.17 1544.94 Q2245.11 1549.52 2239.3 1549.52 Q2233.49 1549.52 2230.42 1544.94 Q2227.36 1540.33 2227.36 1531.6 Q2227.36 1522.85 2230.42 1518.27 Q2233.49 1513.66 2239.3 1513.66 Z" fill="#000000" fill-rule="evenodd" fill-opacity="1" /><path clip-path="url(#clip740)" d="M2269.47 1517.37 Q2265.86 1517.37 2264.03 1520.93 Q2262.22 1524.47 2262.22 1531.6 Q2262.22 1538.71 2264.03 1542.27 Q2265.86 1545.82 2269.47 1545.82 Q2273.1 1545.82 2274.91 1542.27 Q2276.73 1538.71 2276.73 1531.6 Q2276.73 1524.47 2274.91 1520.93 Q2273.1 1517.37 2269.47 1517.37 M2269.47 1513.66 Q2275.28 1513.66 2278.33 1518.27 Q2281.41 1522.85 2281.41 1531.6 Q2281.41 1540.33 2278.33 1544.94 Q2275.28 1549.52 2269.47 1549.52 Q2263.66 1549.52 2260.58 1544.94 Q2257.52 1540.33 2257.52 1531.6 Q2257.52 1522.85 2260.58 1518.27 Q2263.66 1513.66 2269.47 1513.66 Z" fill="#000000" fill-rule="evenodd" fill-opacity="1" /><polyline clip-path="url(#clip742)" style="stroke:#000000; stroke-linecap:round; stroke-linejoin:round; stroke-width:2; stroke-opacity:0.1; fill:none" points="
  172.015,1445.72 2352.76,1445.72 
  "/>
<polyline clip-path="url(#clip742)" style="stroke:#000000; stroke-linecap:round; stroke-linejoin:round; stroke-width:2; stroke-opacity:0.1; fill:none" points="
  172.015,1191.93 2352.76,1191.93 
  "/>
<polyline clip-path="url(#clip742)" style="stroke:#000000; stroke-linecap:round; stroke-linejoin:round; stroke-width:2; stroke-opacity:0.1; fill:none" points="
  172.015,938.15 2352.76,938.15 
  "/>
<polyline clip-path="url(#clip742)" style="stroke:#000000; stroke-linecap:round; stroke-linejoin:round; stroke-width:2; stroke-opacity:0.1; fill:none" points="
  172.015,684.366 2352.76,684.366 
  "/>
<polyline clip-path="url(#clip742)" style="stroke:#000000; stroke-linecap:round; stroke-linejoin:round; stroke-width:2; stroke-opacity:0.1; fill:none" points="
  172.015,430.583 2352.76,430.583 
  "/>
<polyline clip-path="url(#clip742)" style="stroke:#000000; stroke-linecap:round; stroke-linejoin:round; stroke-width:2; stroke-opacity:0.1; fill:none" points="
  172.015,176.8 2352.76,176.8 
  "/>
<polyline clip-path="url(#clip740)" style="stroke:#000000; stroke-linecap:round; stroke-linejoin:round; stroke-width:4; stroke-opacity:1; fill:none" points="
  172.015,1486.45 172.015,47.2441 
  "/>
<polyline clip-path="url(#clip740)" style="stroke:#000000; stroke-linecap:round; stroke-linejoin:round; stroke-width:4; stroke-opacity:1; fill:none" points="
  172.015,1445.72 190.912,1445.72 
  "/>
<polyline clip-path="url(#clip740)" style="stroke:#000000; stroke-linecap:round; stroke-linejoin:round; stroke-width:4; stroke-opacity:1; fill:none" points="
  172.015,1191.93 190.912,1191.93 
  "/>
<polyline clip-path="url(#clip740)" style="stroke:#000000; stroke-linecap:round; stroke-linejoin:round; stroke-width:4; stroke-opacity:1; fill:none" points="
  172.015,938.15 190.912,938.15 
  "/>
<polyline clip-path="url(#clip740)" style="stroke:#000000; stroke-linecap:round; stroke-linejoin:round; stroke-width:4; stroke-opacity:1; fill:none" points="
  172.015,684.366 190.912,684.366 
  "/>
<polyline clip-path="url(#clip740)" style="stroke:#000000; stroke-linecap:round; stroke-linejoin:round; stroke-width:4; stroke-opacity:1; fill:none" points="
  172.015,430.583 190.912,430.583 
  "/>
<polyline clip-path="url(#clip740)" style="stroke:#000000; stroke-linecap:round; stroke-linejoin:round; stroke-width:4; stroke-opacity:1; fill:none" points="
  172.015,176.8 190.912,176.8 
  "/>
<path clip-path="url(#clip740)" d="M124.07 1431.51 Q120.459 1431.51 118.631 1435.08 Q116.825 1438.62 116.825 1445.75 Q116.825 1452.86 118.631 1456.42 Q120.459 1459.96 124.07 1459.96 Q127.705 1459.96 129.51 1456.42 Q131.339 1452.86 131.339 1445.75 Q131.339 1438.62 129.51 1435.08 Q127.705 1431.51 124.07 1431.51 M124.07 1427.81 Q129.881 1427.81 132.936 1432.42 Q136.015 1437 136.015 1445.75 Q136.015 1454.48 132.936 1459.08 Q129.881 1463.67 124.07 1463.67 Q118.26 1463.67 115.182 1459.08 Q112.126 1454.48 112.126 1445.75 Q112.126 1437 115.182 1432.42 Q118.26 1427.81 124.07 1427.81 Z" fill="#000000" fill-rule="evenodd" fill-opacity="1" /><path clip-path="url(#clip740)" d="M54.5569 1205.28 L62.1958 1205.28 L62.1958 1178.91 L53.8856 1180.58 L53.8856 1176.32 L62.1495 1174.65 L66.8254 1174.65 L66.8254 1205.28 L74.4642 1205.28 L74.4642 1209.21 L54.5569 1209.21 L54.5569 1205.28 Z" fill="#000000" fill-rule="evenodd" fill-opacity="1" /><path clip-path="url(#clip740)" d="M93.9086 1177.73 Q90.2975 1177.73 88.4688 1181.3 Q86.6632 1184.84 86.6632 1191.97 Q86.6632 1199.07 88.4688 1202.64 Q90.2975 1206.18 93.9086 1206.18 Q97.5428 1206.18 99.3483 1202.64 Q101.177 1199.07 101.177 1191.97 Q101.177 1184.84 99.3483 1181.3 Q97.5428 1177.73 93.9086 1177.73 M93.9086 1174.03 Q99.7187 1174.03 102.774 1178.63 Q105.853 1183.22 105.853 1191.97 Q105.853 1200.69 102.774 1205.3 Q99.7187 1209.88 93.9086 1209.88 Q88.0984 1209.88 85.0197 1205.3 Q81.9642 1200.69 81.9642 1191.97 Q81.9642 1183.22 85.0197 1178.63 Q88.0984 1174.03 93.9086 1174.03 Z" fill="#000000" fill-rule="evenodd" fill-opacity="1" /><path clip-path="url(#clip740)" d="M124.07 1177.73 Q120.459 1177.73 118.631 1181.3 Q116.825 1184.84 116.825 1191.97 Q116.825 1199.07 118.631 1202.64 Q120.459 1206.18 124.07 1206.18 Q127.705 1206.18 129.51 1202.64 Q131.339 1199.07 131.339 1191.97 Q131.339 1184.84 129.51 1181.3 Q127.705 1177.73 124.07 1177.73 M124.07 1174.03 Q129.881 1174.03 132.936 1178.63 Q136.015 1183.22 136.015 1191.97 Q136.015 1200.69 132.936 1205.3 Q129.881 1209.88 124.07 1209.88 Q118.26 1209.88 115.182 1205.3 Q112.126 1200.69 112.126 1191.97 Q112.126 1183.22 115.182 1178.63 Q118.26 1174.03 124.07 1174.03 Z" fill="#000000" fill-rule="evenodd" fill-opacity="1" /><path clip-path="url(#clip740)" d="M57.7745 951.494 L74.0939 951.494 L74.0939 955.43 L52.1495 955.43 L52.1495 951.494 Q54.8115 948.74 59.3949 944.11 Q64.0013 939.457 65.1819 938.115 Q67.4272 935.592 68.3068 933.856 Q69.2096 932.096 69.2096 930.407 Q69.2096 927.652 67.2652 925.916 Q65.3439 924.18 62.2421 924.18 Q60.043 924.18 57.5893 924.944 Q55.1588 925.707 52.381 927.258 L52.381 922.536 Q55.2051 921.402 57.6588 920.823 Q60.1124 920.245 62.1495 920.245 Q67.5198 920.245 70.7142 922.93 Q73.9087 925.615 73.9087 930.106 Q73.9087 932.235 73.0985 934.157 Q72.3115 936.055 70.205 938.647 Q69.6263 939.319 66.5245 942.536 Q63.4226 945.731 57.7745 951.494 Z" fill="#000000" fill-rule="evenodd" fill-opacity="1" /><path clip-path="url(#clip740)" d="M93.9086 923.948 Q90.2975 923.948 88.4688 927.513 Q86.6632 931.055 86.6632 938.184 Q86.6632 945.291 88.4688 948.856 Q90.2975 952.397 93.9086 952.397 Q97.5428 952.397 99.3483 948.856 Q101.177 945.291 101.177 938.184 Q101.177 931.055 99.3483 927.513 Q97.5428 923.948 93.9086 923.948 M93.9086 920.245 Q99.7187 920.245 102.774 924.851 Q105.853 929.434 105.853 938.184 Q105.853 946.911 102.774 951.518 Q99.7187 956.101 93.9086 956.101 Q88.0984 956.101 85.0197 951.518 Q81.9642 946.911 81.9642 938.184 Q81.9642 929.434 85.0197 924.851 Q88.0984 920.245 93.9086 920.245 Z" fill="#000000" fill-rule="evenodd" fill-opacity="1" /><path clip-path="url(#clip740)" d="M124.07 923.948 Q120.459 923.948 118.631 927.513 Q116.825 931.055 116.825 938.184 Q116.825 945.291 118.631 948.856 Q120.459 952.397 124.07 952.397 Q127.705 952.397 129.51 948.856 Q131.339 945.291 131.339 938.184 Q131.339 931.055 129.51 927.513 Q127.705 923.948 124.07 923.948 M124.07 920.245 Q129.881 920.245 132.936 924.851 Q136.015 929.434 136.015 938.184 Q136.015 946.911 132.936 951.518 Q129.881 956.101 124.07 956.101 Q118.26 956.101 115.182 951.518 Q112.126 946.911 112.126 938.184 Q112.126 929.434 115.182 924.851 Q118.26 920.245 124.07 920.245 Z" fill="#000000" fill-rule="evenodd" fill-opacity="1" /><path clip-path="url(#clip740)" d="M67.9133 683.012 Q71.2698 683.73 73.1448 685.998 Q75.0429 688.267 75.0429 691.6 Q75.0429 696.716 71.5244 699.517 Q68.0059 702.318 61.5245 702.318 Q59.3486 702.318 57.0338 701.878 Q54.7421 701.461 52.2884 700.605 L52.2884 696.091 Q54.2328 697.225 56.5477 697.804 Q58.8625 698.383 61.3856 698.383 Q65.7837 698.383 68.0754 696.647 Q70.3902 694.91 70.3902 691.6 Q70.3902 688.545 68.2374 686.832 Q66.1078 685.096 62.2884 685.096 L58.2606 685.096 L58.2606 681.253 L62.4735 681.253 Q65.9226 681.253 67.7513 679.887 Q69.58 678.498 69.58 675.906 Q69.58 673.244 67.6819 671.832 Q65.8069 670.397 62.2884 670.397 Q60.3671 670.397 58.168 670.813 Q55.969 671.23 53.3301 672.11 L53.3301 667.943 Q55.9921 667.202 58.3069 666.832 Q60.6449 666.461 62.705 666.461 Q68.0291 666.461 71.1309 668.892 Q74.2327 671.299 74.2327 675.42 Q74.2327 678.29 72.5892 680.281 Q70.9457 682.248 67.9133 683.012 Z" fill="#000000" fill-rule="evenodd" fill-opacity="1" /><path clip-path="url(#clip740)" d="M93.9086 670.165 Q90.2975 670.165 88.4688 673.73 Q86.6632 677.272 86.6632 684.401 Q86.6632 691.508 88.4688 695.072 Q90.2975 698.614 93.9086 698.614 Q97.5428 698.614 99.3483 695.072 Q101.177 691.508 101.177 684.401 Q101.177 677.272 99.3483 673.73 Q97.5428 670.165 93.9086 670.165 M93.9086 666.461 Q99.7187 666.461 102.774 671.068 Q105.853 675.651 105.853 684.401 Q105.853 693.128 102.774 697.734 Q99.7187 702.318 93.9086 702.318 Q88.0984 702.318 85.0197 697.734 Q81.9642 693.128 81.9642 684.401 Q81.9642 675.651 85.0197 671.068 Q88.0984 666.461 93.9086 666.461 Z" fill="#000000" fill-rule="evenodd" fill-opacity="1" /><path clip-path="url(#clip740)" d="M124.07 670.165 Q120.459 670.165 118.631 673.73 Q116.825 677.272 116.825 684.401 Q116.825 691.508 118.631 695.072 Q120.459 698.614 124.07 698.614 Q127.705 698.614 129.51 695.072 Q131.339 691.508 131.339 684.401 Q131.339 677.272 129.51 673.73 Q127.705 670.165 124.07 670.165 M124.07 666.461 Q129.881 666.461 132.936 671.068 Q136.015 675.651 136.015 684.401 Q136.015 693.128 132.936 697.734 Q129.881 702.318 124.07 702.318 Q118.26 702.318 115.182 697.734 Q112.126 693.128 112.126 684.401 Q112.126 675.651 115.182 671.068 Q118.26 666.461 124.07 666.461 Z" fill="#000000" fill-rule="evenodd" fill-opacity="1" /><path clip-path="url(#clip740)" d="M66.5939 417.377 L54.7884 435.826 L66.5939 435.826 L66.5939 417.377 M65.367 413.303 L71.2466 413.303 L71.2466 435.826 L76.1772 435.826 L76.1772 439.715 L71.2466 439.715 L71.2466 447.863 L66.5939 447.863 L66.5939 439.715 L50.9921 439.715 L50.9921 435.201 L65.367 413.303 Z" fill="#000000" fill-rule="evenodd" fill-opacity="1" /><path clip-path="url(#clip740)" d="M93.9086 416.382 Q90.2975 416.382 88.4688 419.947 Q86.6632 423.489 86.6632 430.618 Q86.6632 437.725 88.4688 441.289 Q90.2975 444.831 93.9086 444.831 Q97.5428 444.831 99.3483 441.289 Q101.177 437.725 101.177 430.618 Q101.177 423.489 99.3483 419.947 Q97.5428 416.382 93.9086 416.382 M93.9086 412.678 Q99.7187 412.678 102.774 417.285 Q105.853 421.868 105.853 430.618 Q105.853 439.345 102.774 443.951 Q99.7187 448.535 93.9086 448.535 Q88.0984 448.535 85.0197 443.951 Q81.9642 439.345 81.9642 430.618 Q81.9642 421.868 85.0197 417.285 Q88.0984 412.678 93.9086 412.678 Z" fill="#000000" fill-rule="evenodd" fill-opacity="1" /><path clip-path="url(#clip740)" d="M124.07 416.382 Q120.459 416.382 118.631 419.947 Q116.825 423.489 116.825 430.618 Q116.825 437.725 118.631 441.289 Q120.459 444.831 124.07 444.831 Q127.705 444.831 129.51 441.289 Q131.339 437.725 131.339 430.618 Q131.339 423.489 129.51 419.947 Q127.705 416.382 124.07 416.382 M124.07 412.678 Q129.881 412.678 132.936 417.285 Q136.015 421.868 136.015 430.618 Q136.015 439.345 132.936 443.951 Q129.881 448.535 124.07 448.535 Q118.26 448.535 115.182 443.951 Q112.126 439.345 112.126 430.618 Q112.126 421.868 115.182 417.285 Q118.26 412.678 124.07 412.678 Z" fill="#000000" fill-rule="evenodd" fill-opacity="1" /><path clip-path="url(#clip740)" d="M53.793 159.52 L72.1494 159.52 L72.1494 163.456 L58.0754 163.456 L58.0754 171.928 Q59.0939 171.58 60.1124 171.418 Q61.131 171.233 62.1495 171.233 Q67.9365 171.233 71.3161 174.405 Q74.6957 177.576 74.6957 182.992 Q74.6957 188.571 71.2235 191.673 Q67.7513 194.752 61.4319 194.752 Q59.256 194.752 56.9875 194.381 Q54.7421 194.011 52.3347 193.27 L52.3347 188.571 Q54.418 189.705 56.6402 190.261 Q58.8625 190.816 61.3393 190.816 Q65.3439 190.816 67.6819 188.71 Q70.0198 186.604 70.0198 182.992 Q70.0198 179.381 67.6819 177.275 Q65.3439 175.168 61.3393 175.168 Q59.4643 175.168 57.5893 175.585 Q55.7375 176.002 53.793 176.881 L53.793 159.52 Z" fill="#000000" fill-rule="evenodd" fill-opacity="1" /><path clip-path="url(#clip740)" d="M93.9086 162.599 Q90.2975 162.599 88.4688 166.164 Q86.6632 169.705 86.6632 176.835 Q86.6632 183.942 88.4688 187.506 Q90.2975 191.048 93.9086 191.048 Q97.5428 191.048 99.3483 187.506 Q101.177 183.942 101.177 176.835 Q101.177 169.705 99.3483 166.164 Q97.5428 162.599 93.9086 162.599 M93.9086 158.895 Q99.7187 158.895 102.774 163.502 Q105.853 168.085 105.853 176.835 Q105.853 185.562 102.774 190.168 Q99.7187 194.752 93.9086 194.752 Q88.0984 194.752 85.0197 190.168 Q81.9642 185.562 81.9642 176.835 Q81.9642 168.085 85.0197 163.502 Q88.0984 158.895 93.9086 158.895 Z" fill="#000000" fill-rule="evenodd" fill-opacity="1" /><path clip-path="url(#clip740)" d="M124.07 162.599 Q120.459 162.599 118.631 166.164 Q116.825 169.705 116.825 176.835 Q116.825 183.942 118.631 187.506 Q120.459 191.048 124.07 191.048 Q127.705 191.048 129.51 187.506 Q131.339 183.942 131.339 176.835 Q131.339 169.705 129.51 166.164 Q127.705 162.599 124.07 162.599 M124.07 158.895 Q129.881 158.895 132.936 163.502 Q136.015 168.085 136.015 176.835 Q136.015 185.562 132.936 190.168 Q129.881 194.752 124.07 194.752 Q118.26 194.752 115.182 190.168 Q112.126 185.562 112.126 176.835 Q112.126 168.085 115.182 163.502 Q118.26 158.895 124.07 158.895 Z" fill="#000000" fill-rule="evenodd" fill-opacity="1" /><path clip-path="url(#clip742)" d="
M291.959 151.422 L291.959 1445.72 L389.002 1445.72 L389.002 151.422 L291.959 151.422 L291.959 151.422  Z
  " fill="#009af9" fill-rule="evenodd" fill-opacity="1"/>
<polyline clip-path="url(#clip742)" style="stroke:#000000; stroke-linecap:round; stroke-linejoin:round; stroke-width:4; stroke-opacity:1; fill:none" points="
  291.959,151.422 291.959,1445.72 389.002,1445.72 389.002,151.422 291.959,151.422 
  "/>
<path clip-path="url(#clip742)" d="
M389.002 181.876 L389.002 1445.72 L486.045 1445.72 L486.045 181.876 L389.002 181.876 L389.002 181.876  Z
  " fill="#009af9" fill-rule="evenodd" fill-opacity="1"/>
<polyline clip-path="url(#clip742)" style="stroke:#000000; stroke-linecap:round; stroke-linejoin:round; stroke-width:4; stroke-opacity:1; fill:none" points="
  389.002,181.876 389.002,1445.72 486.045,1445.72 486.045,181.876 389.002,181.876 
  "/>
<path clip-path="url(#clip742)" d="
M486.045 242.784 L486.045 1445.72 L583.087 1445.72 L583.087 242.784 L486.045 242.784 L486.045 242.784  Z
  " fill="#009af9" fill-rule="evenodd" fill-opacity="1"/>
<polyline clip-path="url(#clip742)" style="stroke:#000000; stroke-linecap:round; stroke-linejoin:round; stroke-width:4; stroke-opacity:1; fill:none" points="
  486.045,242.784 486.045,1445.72 583.087,1445.72 583.087,242.784 486.045,242.784 
  "/>
<path clip-path="url(#clip742)" d="
M583.087 174.263 L583.087 1445.72 L680.13 1445.72 L680.13 174.263 L583.087 174.263 L583.087 174.263  Z
  " fill="#009af9" fill-rule="evenodd" fill-opacity="1"/>
<polyline clip-path="url(#clip742)" style="stroke:#000000; stroke-linecap:round; stroke-linejoin:round; stroke-width:4; stroke-opacity:1; fill:none" points="
  583.087,174.263 583.087,1445.72 680.13,1445.72 680.13,174.263 583.087,174.263 
  "/>
<path clip-path="url(#clip742)" d="
M680.13 235.17 L680.13 1445.72 L777.172 1445.72 L777.172 235.17 L680.13 235.17 L680.13 235.17  Z
  " fill="#009af9" fill-rule="evenodd" fill-opacity="1"/>
<polyline clip-path="url(#clip742)" style="stroke:#000000; stroke-linecap:round; stroke-linejoin:round; stroke-width:4; stroke-opacity:1; fill:none" points="
  680.13,235.17 680.13,1445.72 777.172,1445.72 777.172,235.17 680.13,235.17 
  "/>
<path clip-path="url(#clip742)" d="
M777.172 87.9763 L777.172 1445.72 L874.215 1445.72 L874.215 87.9763 L777.172 87.9763 L777.172 87.9763  Z
  " fill="#009af9" fill-rule="evenodd" fill-opacity="1"/>
<polyline clip-path="url(#clip742)" style="stroke:#000000; stroke-linecap:round; stroke-linejoin:round; stroke-width:4; stroke-opacity:1; fill:none" points="
  777.172,87.9763 777.172,1445.72 874.215,1445.72 874.215,87.9763 777.172,87.9763 
  "/>
<path clip-path="url(#clip742)" d="
M874.215 126.044 L874.215 1445.72 L971.258 1445.72 L971.258 126.044 L874.215 126.044 L874.215 126.044  Z
  " fill="#009af9" fill-rule="evenodd" fill-opacity="1"/>
<polyline clip-path="url(#clip742)" style="stroke:#000000; stroke-linecap:round; stroke-linejoin:round; stroke-width:4; stroke-opacity:1; fill:none" points="
  874.215,126.044 874.215,1445.72 971.258,1445.72 971.258,126.044 874.215,126.044 
  "/>
<path clip-path="url(#clip742)" d="
M971.258 204.716 L971.258 1445.72 L1068.3 1445.72 L1068.3 204.716 L971.258 204.716 L971.258 204.716  Z
  " fill="#009af9" fill-rule="evenodd" fill-opacity="1"/>
<polyline clip-path="url(#clip742)" style="stroke:#000000; stroke-linecap:round; stroke-linejoin:round; stroke-width:4; stroke-opacity:1; fill:none" points="
  971.258,204.716 971.258,1445.72 1068.3,1445.72 1068.3,204.716 971.258,204.716 
  "/>
<path clip-path="url(#clip742)" d="
M1068.3 138.733 L1068.3 1445.72 L1165.34 1445.72 L1165.34 138.733 L1068.3 138.733 L1068.3 138.733  Z
  " fill="#009af9" fill-rule="evenodd" fill-opacity="1"/>
<polyline clip-path="url(#clip742)" style="stroke:#000000; stroke-linecap:round; stroke-linejoin:round; stroke-width:4; stroke-opacity:1; fill:none" points="
  1068.3,138.733 1068.3,1445.72 1165.34,1445.72 1165.34,138.733 1068.3,138.733 
  "/>
<path clip-path="url(#clip742)" d="
M1165.34 214.868 L1165.34 1445.72 L1262.39 1445.72 L1262.39 214.868 L1165.34 214.868 L1165.34 214.868  Z
  " fill="#009af9" fill-rule="evenodd" fill-opacity="1"/>
<polyline clip-path="url(#clip742)" style="stroke:#000000; stroke-linecap:round; stroke-linejoin:round; stroke-width:4; stroke-opacity:1; fill:none" points="
  1165.34,214.868 1165.34,1445.72 1262.39,1445.72 1262.39,214.868 1165.34,214.868 
  "/>
<path clip-path="url(#clip742)" d="
M1262.39 115.892 L1262.39 1445.72 L1359.43 1445.72 L1359.43 115.892 L1262.39 115.892 L1262.39 115.892  Z
  " fill="#009af9" fill-rule="evenodd" fill-opacity="1"/>
<polyline clip-path="url(#clip742)" style="stroke:#000000; stroke-linecap:round; stroke-linejoin:round; stroke-width:4; stroke-opacity:1; fill:none" points="
  1262.39,115.892 1262.39,1445.72 1359.43,1445.72 1359.43,115.892 1262.39,115.892 
  "/>
<path clip-path="url(#clip742)" d="
M1359.43 103.203 L1359.43 1445.72 L1456.47 1445.72 L1456.47 103.203 L1359.43 103.203 L1359.43 103.203  Z
  " fill="#009af9" fill-rule="evenodd" fill-opacity="1"/>
<polyline clip-path="url(#clip742)" style="stroke:#000000; stroke-linecap:round; stroke-linejoin:round; stroke-width:4; stroke-opacity:1; fill:none" points="
  1359.43,103.203 1359.43,1445.72 1456.47,1445.72 1456.47,103.203 1359.43,103.203 
  "/>
<path clip-path="url(#clip742)" d="
M1456.47 113.355 L1456.47 1445.72 L1553.51 1445.72 L1553.51 113.355 L1456.47 113.355 L1456.47 113.355  Z
  " fill="#009af9" fill-rule="evenodd" fill-opacity="1"/>
<polyline clip-path="url(#clip742)" style="stroke:#000000; stroke-linecap:round; stroke-linejoin:round; stroke-width:4; stroke-opacity:1; fill:none" points="
  1456.47,113.355 1456.47,1445.72 1553.51,1445.72 1553.51,113.355 1456.47,113.355 
  "/>
<path clip-path="url(#clip742)" d="
M1553.51 115.892 L1553.51 1445.72 L1650.56 1445.72 L1650.56 115.892 L1553.51 115.892 L1553.51 115.892  Z
  " fill="#009af9" fill-rule="evenodd" fill-opacity="1"/>
<polyline clip-path="url(#clip742)" style="stroke:#000000; stroke-linecap:round; stroke-linejoin:round; stroke-width:4; stroke-opacity:1; fill:none" points="
  1553.51,115.892 1553.51,1445.72 1650.56,1445.72 1650.56,115.892 1553.51,115.892 
  "/>
<path clip-path="url(#clip742)" d="
M1650.56 252.935 L1650.56 1445.72 L1747.6 1445.72 L1747.6 252.935 L1650.56 252.935 L1650.56 252.935  Z
  " fill="#009af9" fill-rule="evenodd" fill-opacity="1"/>
<polyline clip-path="url(#clip742)" style="stroke:#000000; stroke-linecap:round; stroke-linejoin:round; stroke-width:4; stroke-opacity:1; fill:none" points="
  1650.56,252.935 1650.56,1445.72 1747.6,1445.72 1747.6,252.935 1650.56,252.935 
  "/>
<path clip-path="url(#clip742)" d="
M1747.6 235.17 L1747.6 1445.72 L1844.64 1445.72 L1844.64 235.17 L1747.6 235.17 L1747.6 235.17  Z
  " fill="#009af9" fill-rule="evenodd" fill-opacity="1"/>
<polyline clip-path="url(#clip742)" style="stroke:#000000; stroke-linecap:round; stroke-linejoin:round; stroke-width:4; stroke-opacity:1; fill:none" points="
  1747.6,235.17 1747.6,1445.72 1844.64,1445.72 1844.64,235.17 1747.6,235.17 
  "/>
<path clip-path="url(#clip742)" d="
M1844.64 212.33 L1844.64 1445.72 L1941.68 1445.72 L1941.68 212.33 L1844.64 212.33 L1844.64 212.33  Z
  " fill="#009af9" fill-rule="evenodd" fill-opacity="1"/>
<polyline clip-path="url(#clip742)" style="stroke:#000000; stroke-linecap:round; stroke-linejoin:round; stroke-width:4; stroke-opacity:1; fill:none" points="
  1844.64,212.33 1844.64,1445.72 1941.68,1445.72 1941.68,212.33 1844.64,212.33 
  "/>
<path clip-path="url(#clip742)" d="
M1941.68 148.884 L1941.68 1445.72 L2038.73 1445.72 L2038.73 148.884 L1941.68 148.884 L1941.68 148.884  Z
  " fill="#009af9" fill-rule="evenodd" fill-opacity="1"/>
<polyline clip-path="url(#clip742)" style="stroke:#000000; stroke-linecap:round; stroke-linejoin:round; stroke-width:4; stroke-opacity:1; fill:none" points="
  1941.68,148.884 1941.68,1445.72 2038.73,1445.72 2038.73,148.884 1941.68,148.884 
  "/>
<path clip-path="url(#clip742)" d="
M2038.73 288.465 L2038.73 1445.72 L2135.77 1445.72 L2135.77 288.465 L2038.73 288.465 L2038.73 288.465  Z
  " fill="#009af9" fill-rule="evenodd" fill-opacity="1"/>
<polyline clip-path="url(#clip742)" style="stroke:#000000; stroke-linecap:round; stroke-linejoin:round; stroke-width:4; stroke-opacity:1; fill:none" points="
  2038.73,288.465 2038.73,1445.72 2135.77,1445.72 2135.77,288.465 2038.73,288.465 
  "/>
<path clip-path="url(#clip742)" d="
M2135.77 192.027 L2135.77 1445.72 L2232.81 1445.72 L2232.81 192.027 L2135.77 192.027 L2135.77 192.027  Z
  " fill="#009af9" fill-rule="evenodd" fill-opacity="1"/>
<polyline clip-path="url(#clip742)" style="stroke:#000000; stroke-linecap:round; stroke-linejoin:round; stroke-width:4; stroke-opacity:1; fill:none" points="
  2135.77,192.027 2135.77,1445.72 2232.81,1445.72 2232.81,192.027 2135.77,192.027 
  "/>
<circle clip-path="url(#clip742)" style="fill:#009af9; stroke:none; fill-opacity:0" cx="340.481" cy="151.422" r="2"/>
<circle clip-path="url(#clip742)" style="fill:#009af9; stroke:none; fill-opacity:0" cx="437.523" cy="181.876" r="2"/>
<circle clip-path="url(#clip742)" style="fill:#009af9; stroke:none; fill-opacity:0" cx="534.566" cy="242.784" r="2"/>
<circle clip-path="url(#clip742)" style="fill:#009af9; stroke:none; fill-opacity:0" cx="631.609" cy="174.263" r="2"/>
<circle clip-path="url(#clip742)" style="fill:#009af9; stroke:none; fill-opacity:0" cx="728.651" cy="235.17" r="2"/>
<circle clip-path="url(#clip742)" style="fill:#009af9; stroke:none; fill-opacity:0" cx="825.694" cy="87.9763" r="2"/>
<circle clip-path="url(#clip742)" style="fill:#009af9; stroke:none; fill-opacity:0" cx="922.736" cy="126.044" r="2"/>
<circle clip-path="url(#clip742)" style="fill:#009af9; stroke:none; fill-opacity:0" cx="1019.78" cy="204.716" r="2"/>
<circle clip-path="url(#clip742)" style="fill:#009af9; stroke:none; fill-opacity:0" cx="1116.82" cy="138.733" r="2"/>
<circle clip-path="url(#clip742)" style="fill:#009af9; stroke:none; fill-opacity:0" cx="1213.86" cy="214.868" r="2"/>
<circle clip-path="url(#clip742)" style="fill:#009af9; stroke:none; fill-opacity:0" cx="1310.91" cy="115.892" r="2"/>
<circle clip-path="url(#clip742)" style="fill:#009af9; stroke:none; fill-opacity:0" cx="1407.95" cy="103.203" r="2"/>
<circle clip-path="url(#clip742)" style="fill:#009af9; stroke:none; fill-opacity:0" cx="1504.99" cy="113.355" r="2"/>
<circle clip-path="url(#clip742)" style="fill:#009af9; stroke:none; fill-opacity:0" cx="1602.03" cy="115.892" r="2"/>
<circle clip-path="url(#clip742)" style="fill:#009af9; stroke:none; fill-opacity:0" cx="1699.08" cy="252.935" r="2"/>
<circle clip-path="url(#clip742)" style="fill:#009af9; stroke:none; fill-opacity:0" cx="1796.12" cy="235.17" r="2"/>
<circle clip-path="url(#clip742)" style="fill:#009af9; stroke:none; fill-opacity:0" cx="1893.16" cy="212.33" r="2"/>
<circle clip-path="url(#clip742)" style="fill:#009af9; stroke:none; fill-opacity:0" cx="1990.2" cy="148.884" r="2"/>
<circle clip-path="url(#clip742)" style="fill:#009af9; stroke:none; fill-opacity:0" cx="2087.25" cy="288.465" r="2"/>
<circle clip-path="url(#clip742)" style="fill:#009af9; stroke:none; fill-opacity:0" cx="2184.29" cy="192.027" r="2"/>
</svg>
