<?xml version="1.0" encoding="utf-8"?>
<svg xmlns="http://www.w3.org/2000/svg" xmlns:xlink="http://www.w3.org/1999/xlink" width="600" height="400" viewBox="0 0 2400 1600">
<defs>
  <clipPath id="clip010">
    <rect x="0" y="0" width="2400" height="1600"/>
  </clipPath>
</defs>
<path clip-path="url(#clip010)" d="M0 1600 L2400 1600 L2400 0 L0 0  Z" fill="#ffffff" fill-rule="evenodd" fill-opacity="1"/>
<defs>
  <clipPath id="clip011">
    <rect x="480" y="0" width="1681" height="1600"/>
  </clipPath>
</defs>
<path clip-path="url(#clip010)" d="M172.015 1486.45 L2352.76 1486.45 L2352.76 47.2441 L172.015 47.2441  Z" fill="#ffffff" fill-rule="evenodd" fill-opacity="1"/>
<defs>
  <clipPath id="clip012">
    <rect x="172" y="47" width="2182" height="1440"/>
  </clipPath>
</defs>
<polyline clip-path="url(#clip012)" style="stroke:#000000; stroke-linecap:round; stroke-linejoin:round; stroke-width:2; stroke-opacity:0.1; fill:none" points="291.959,1486.45 291.959,47.2441 "/>
<polyline clip-path="url(#clip012)" style="stroke:#000000; stroke-linecap:round; stroke-linejoin:round; stroke-width:2; stroke-opacity:0.1; fill:none" points="777.172,1486.45 777.172,47.2441 "/>
<polyline clip-path="url(#clip012)" style="stroke:#000000; stroke-linecap:round; stroke-linejoin:round; stroke-width:2; stroke-opacity:0.1; fill:none" points="1262.39,1486.45 1262.39,47.2441 "/>
<polyline clip-path="url(#clip012)" style="stroke:#000000; stroke-linecap:round; stroke-linejoin:round; stroke-width:2; stroke-opacity:0.1; fill:none" points="1747.6,1486.45 1747.6,47.2441 "/>
<polyline clip-path="url(#clip012)" style="stroke:#000000; stroke-linecap:round; stroke-linejoin:round; stroke-width:2; stroke-opacity:0.1; fill:none" points="2232.81,1486.45 2232.81,47.2441 "/>
<polyline clip-path="url(#clip012)" style="stroke:#000000; stroke-linecap:round; stroke-linejoin:round; stroke-width:2; stroke-opacity:0.1; fill:none" points="172.015,1486.45 2352.76,1486.45 "/>
<polyline clip-path="url(#clip012)" style="stroke:#000000; stroke-linecap:round; stroke-linejoin:round; stroke-width:2; stroke-opacity:0.1; fill:none" points="172.015,1222.37 2352.76,1222.37 "/>
<polyline clip-path="url(#clip012)" style="stroke:#000000; stroke-linecap:round; stroke-linejoin:round; stroke-width:2; stroke-opacity:0.1; fill:none" points="172.015,958.3 2352.76,958.3 "/>
<polyline clip-path="url(#clip012)" style="stroke:#000000; stroke-linecap:round; stroke-linejoin:round; stroke-width:2; stroke-opacity:0.1; fill:none" points="172.015,694.226 2352.76,694.226 "/>
<polyline clip-path="url(#clip012)" style="stroke:#000000; stroke-linecap:round; stroke-linejoin:round; stroke-width:2; stroke-opacity:0.1; fill:none" points="172.015,430.152 2352.76,430.152 "/>
<polyline clip-path="url(#clip012)" style="stroke:#000000; stroke-linecap:round; stroke-linejoin:round; stroke-width:2; stroke-opacity:0.1; fill:none" points="172.015,166.077 2352.76,166.077 "/>
<polyline clip-path="url(#clip010)" style="stroke:#000000; stroke-linecap:round; stroke-linejoin:round; stroke-width:4; stroke-opacity:1; fill:none" points="172.015,1486.45 2352.76,1486.45 "/>
<polyline clip-path="url(#clip010)" style="stroke:#000000; stroke-linecap:round; stroke-linejoin:round; stroke-width:4; stroke-opacity:1; fill:none" points="291.959,1486.45 291.959,1467.55 "/>
<polyline clip-path="url(#clip010)" style="stroke:#000000; stroke-linecap:round; stroke-linejoin:round; stroke-width:4; stroke-opacity:1; fill:none" points="777.172,1486.45 777.172,1467.55 "/>
<polyline clip-path="url(#clip010)" style="stroke:#000000; stroke-linecap:round; stroke-linejoin:round; stroke-width:4; stroke-opacity:1; fill:none" points="1262.39,1486.45 1262.39,1467.55 "/>
<polyline clip-path="url(#clip010)" style="stroke:#000000; stroke-linecap:round; stroke-linejoin:round; stroke-width:4; stroke-opacity:1; fill:none" points="1747.6,1486.45 1747.6,1467.55 "/>
<polyline clip-path="url(#clip010)" style="stroke:#000000; stroke-linecap:round; stroke-linejoin:round; stroke-width:4; stroke-opacity:1; fill:none" points="2232.81,1486.45 2232.81,1467.55 "/>
<path clip-path="url(#clip010)" d="M254.263 1517.37 Q250.652 1517.37 248.823 1520.93 Q247.018 1524.47 247.018 1531.6 Q247.018 1538.71 248.823 1542.27 Q250.652 1545.82 254.263 1545.82 Q257.897 1545.82 259.703 1542.27 Q261.531 1538.71 261.531 1531.6 Q261.531 1524.47 259.703 1520.93 Q257.897 1517.37 254.263 1517.37 M254.263 1513.66 Q260.073 1513.66 263.129 1518.27 Q266.207 1522.85 266.207 1531.6 Q266.207 1540.33 263.129 1544.94 Q260.073 1549.52 254.263 1549.52 Q248.453 1549.52 245.374 1544.94 Q242.319 1540.33 242.319 1531.6 Q242.319 1522.85 245.374 1518.27 Q248.453 1513.66 254.263 1513.66 Z" fill="#000000" fill-rule="nonzero" fill-opacity="1" /><path clip-path="url(#clip010)" d="M274.425 1542.97 L279.309 1542.97 L279.309 1548.85 L274.425 1548.85 L274.425 1542.97 Z" fill="#000000" fill-rule="nonzero" fill-opacity="1" /><path clip-path="url(#clip010)" d="M299.494 1517.37 Q295.883 1517.37 294.054 1520.93 Q292.249 1524.47 292.249 1531.6 Q292.249 1538.71 294.054 1542.27 Q295.883 1545.82 299.494 1545.82 Q303.128 1545.82 304.934 1542.27 Q306.763 1538.71 306.763 1531.6 Q306.763 1524.47 304.934 1520.93 Q303.128 1517.37 299.494 1517.37 M299.494 1513.66 Q305.304 1513.66 308.36 1518.27 Q311.439 1522.85 311.439 1531.6 Q311.439 1540.33 308.36 1544.94 Q305.304 1549.52 299.494 1549.52 Q293.684 1549.52 290.605 1544.94 Q287.55 1540.33 287.55 1531.6 Q287.55 1522.85 290.605 1518.27 Q293.684 1513.66 299.494 1513.66 Z" fill="#000000" fill-rule="nonzero" fill-opacity="1" /><path clip-path="url(#clip010)" d="M329.656 1517.37 Q326.045 1517.37 324.216 1520.93 Q322.411 1524.47 322.411 1531.6 Q322.411 1538.71 324.216 1542.27 Q326.045 1545.82 329.656 1545.82 Q333.29 1545.82 335.096 1542.27 Q336.924 1538.71 336.924 1531.6 Q336.924 1524.47 335.096 1520.93 Q333.29 1517.37 329.656 1517.37 M329.656 1513.66 Q335.466 1513.66 338.522 1518.27 Q341.6 1522.85 341.6 1531.6 Q341.6 1540.33 338.522 1544.94 Q335.466 1549.52 329.656 1549.52 Q323.846 1549.52 320.767 1544.94 Q317.712 1540.33 317.712 1531.6 Q317.712 1522.85 320.767 1518.27 Q323.846 1513.66 329.656 1513.66 Z" fill="#000000" fill-rule="nonzero" fill-opacity="1" /><path clip-path="url(#clip010)" d="M739.974 1517.37 Q736.362 1517.37 734.534 1520.93 Q732.728 1524.47 732.728 1531.6 Q732.728 1538.71 734.534 1542.27 Q736.362 1545.82 739.974 1545.82 Q743.608 1545.82 745.413 1542.27 Q747.242 1538.71 747.242 1531.6 Q747.242 1524.47 745.413 1520.93 Q743.608 1517.37 739.974 1517.37 M739.974 1513.66 Q745.784 1513.66 748.839 1518.27 Q751.918 1522.85 751.918 1531.6 Q751.918 1540.33 748.839 1544.94 Q745.784 1549.52 739.974 1549.52 Q734.163 1549.52 731.085 1544.94 Q728.029 1540.33 728.029 1531.6 Q728.029 1522.85 731.085 1518.27 Q734.163 1513.66 739.974 1513.66 Z" fill="#000000" fill-rule="nonzero" fill-opacity="1" /><path clip-path="url(#clip010)" d="M760.135 1542.97 L765.02 1542.97 L765.02 1548.85 L760.135 1548.85 L760.135 1542.97 Z" fill="#000000" fill-rule="nonzero" fill-opacity="1" /><path clip-path="url(#clip010)" d="M779.233 1544.91 L795.552 1544.91 L795.552 1548.85 L773.608 1548.85 L773.608 1544.91 Q776.27 1542.16 780.853 1537.53 Q785.459 1532.88 786.64 1531.53 Q788.885 1529.01 789.765 1527.27 Q790.668 1525.51 790.668 1523.82 Q790.668 1521.07 788.723 1519.33 Q786.802 1517.6 783.7 1517.6 Q781.501 1517.6 779.047 1518.36 Q776.617 1519.13 773.839 1520.68 L773.839 1515.95 Q776.663 1514.82 779.117 1514.24 Q781.571 1513.66 783.608 1513.66 Q788.978 1513.66 792.172 1516.35 Q795.367 1519.03 795.367 1523.52 Q795.367 1525.65 794.557 1527.57 Q793.77 1529.47 791.663 1532.07 Q791.084 1532.74 787.983 1535.95 Q784.881 1539.15 779.233 1544.91 Z" fill="#000000" fill-rule="nonzero" fill-opacity="1" /><path clip-path="url(#clip010)" d="M805.413 1514.29 L823.769 1514.29 L823.769 1518.22 L809.695 1518.22 L809.695 1526.7 Q810.714 1526.35 811.732 1526.19 Q812.751 1526 813.769 1526 Q819.556 1526 822.936 1529.17 Q826.316 1532.34 826.316 1537.76 Q826.316 1543.34 822.843 1546.44 Q819.371 1549.52 813.052 1549.52 Q810.876 1549.52 808.607 1549.15 Q806.362 1548.78 803.955 1548.04 L803.955 1543.34 Q806.038 1544.47 808.26 1545.03 Q810.482 1545.58 812.959 1545.58 Q816.964 1545.58 819.302 1543.48 Q821.64 1541.37 821.64 1537.76 Q821.64 1534.15 819.302 1532.04 Q816.964 1529.94 812.959 1529.94 Q811.084 1529.94 809.209 1530.35 Q807.357 1530.77 805.413 1531.65 L805.413 1514.29 Z" fill="#000000" fill-rule="nonzero" fill-opacity="1" /><path clip-path="url(#clip010)" d="M1224.69 1517.37 Q1221.08 1517.37 1219.25 1520.93 Q1217.44 1524.47 1217.44 1531.6 Q1217.44 1538.71 1219.25 1542.27 Q1221.08 1545.82 1224.69 1545.82 Q1228.32 1545.82 1230.13 1542.27 Q1231.96 1538.71 1231.96 1531.6 Q1231.96 1524.47 1230.13 1520.93 Q1228.32 1517.37 1224.69 1517.37 M1224.69 1513.66 Q1230.5 1513.66 1233.55 1518.27 Q1236.63 1522.85 1236.63 1531.6 Q1236.63 1540.33 1233.55 1544.94 Q1230.5 1549.52 1224.69 1549.52 Q1218.88 1549.52 1215.8 1544.94 Q1212.74 1540.33 1212.74 1531.6 Q1212.74 1522.85 1215.8 1518.27 Q1218.88 1513.66 1224.69 1513.66 Z" fill="#000000" fill-rule="nonzero" fill-opacity="1" /><path clip-path="url(#clip010)" d="M1244.85 1542.97 L1249.73 1542.97 L1249.73 1548.85 L1244.85 1548.85 L1244.85 1542.97 Z" fill="#000000" fill-rule="nonzero" fill-opacity="1" /><path clip-path="url(#clip010)" d="M1259.97 1514.29 L1278.32 1514.29 L1278.32 1518.22 L1264.25 1518.22 L1264.25 1526.7 Q1265.27 1526.35 1266.29 1526.19 Q1267.3 1526 1268.32 1526 Q1274.11 1526 1277.49 1529.17 Q1280.87 1532.34 1280.87 1537.76 Q1280.87 1543.34 1277.4 1546.44 Q1273.92 1549.52 1267.61 1549.52 Q1265.43 1549.52 1263.16 1549.15 Q1260.92 1548.78 1258.51 1548.04 L1258.51 1543.34 Q1260.59 1544.47 1262.81 1545.03 Q1265.04 1545.58 1267.51 1545.58 Q1271.52 1545.58 1273.86 1543.48 Q1276.19 1541.37 1276.19 1537.76 Q1276.19 1534.15 1273.86 1532.04 Q1271.52 1529.94 1267.51 1529.94 Q1265.64 1529.94 1263.76 1530.35 Q1261.91 1530.77 1259.97 1531.65 L1259.97 1514.29 Z" fill="#000000" fill-rule="nonzero" fill-opacity="1" /><path clip-path="url(#clip010)" d="M1300.08 1517.37 Q1296.47 1517.37 1294.64 1520.93 Q1292.84 1524.47 1292.84 1531.6 Q1292.84 1538.71 1294.64 1542.27 Q1296.47 1545.82 1300.08 1545.82 Q1303.72 1545.82 1305.52 1542.27 Q1307.35 1538.71 1307.35 1531.6 Q1307.35 1524.47 1305.52 1520.93 Q1303.72 1517.37 1300.08 1517.37 M1300.08 1513.66 Q1305.89 1513.66 1308.95 1518.27 Q1312.03 1522.85 1312.03 1531.6 Q1312.03 1540.33 1308.95 1544.94 Q1305.89 1549.52 1300.08 1549.52 Q1294.27 1549.52 1291.19 1544.94 Q1288.14 1540.33 1288.14 1531.6 Q1288.14 1522.85 1291.19 1518.27 Q1294.27 1513.66 1300.08 1513.66 Z" fill="#000000" fill-rule="nonzero" fill-opacity="1" /><path clip-path="url(#clip010)" d="M1710.4 1517.37 Q1706.79 1517.37 1704.96 1520.93 Q1703.15 1524.47 1703.15 1531.6 Q1703.15 1538.71 1704.96 1542.27 Q1706.79 1545.82 1710.4 1545.82 Q1714.03 1545.82 1715.84 1542.27 Q1717.67 1538.71 1717.67 1531.6 Q1717.67 1524.47 1715.84 1520.93 Q1714.03 1517.37 1710.4 1517.37 M1710.4 1513.66 Q1716.21 1513.66 1719.27 1518.27 Q1722.34 1522.85 1722.34 1531.6 Q1722.34 1540.33 1719.27 1544.94 Q1716.21 1549.52 1710.4 1549.52 Q1704.59 1549.52 1701.51 1544.94 Q1698.46 1540.33 1698.46 1531.6 Q1698.46 1522.85 1701.51 1518.27 Q1704.59 1513.66 1710.4 1513.66 Z" fill="#000000" fill-rule="nonzero" fill-opacity="1" /><path clip-path="url(#clip010)" d="M1730.56 1542.97 L1735.45 1542.97 L1735.45 1548.85 L1730.56 1548.85 L1730.56 1542.97 Z" fill="#000000" fill-rule="nonzero" fill-opacity="1" /><path clip-path="url(#clip010)" d="M1744.45 1514.29 L1766.67 1514.29 L1766.67 1516.28 L1754.13 1548.85 L1749.24 1548.85 L1761.05 1518.22 L1744.45 1518.22 L1744.45 1514.29 Z" fill="#000000" fill-rule="nonzero" fill-opacity="1" /><path clip-path="url(#clip010)" d="M1775.84 1514.29 L1794.2 1514.29 L1794.2 1518.22 L1780.12 1518.22 L1780.12 1526.7 Q1781.14 1526.35 1782.16 1526.19 Q1783.18 1526 1784.2 1526 Q1789.98 1526 1793.36 1529.17 Q1796.74 1532.34 1796.74 1537.76 Q1796.74 1543.34 1793.27 1546.44 Q1789.8 1549.52 1783.48 1549.52 Q1781.3 1549.52 1779.03 1549.15 Q1776.79 1548.78 1774.38 1548.04 L1774.38 1543.34 Q1776.46 1544.47 1778.69 1545.03 Q1780.91 1545.58 1783.39 1545.58 Q1787.39 1545.58 1789.73 1543.48 Q1792.07 1541.37 1792.07 1537.76 Q1792.07 1534.15 1789.73 1532.04 Q1787.39 1529.94 1783.39 1529.94 Q1781.51 1529.94 1779.64 1530.35 Q1777.78 1530.77 1775.84 1531.65 L1775.84 1514.29 Z" fill="#000000" fill-rule="nonzero" fill-opacity="1" /><path clip-path="url(#clip010)" d="M2184.88 1544.91 L2192.52 1544.91 L2192.52 1518.55 L2184.21 1520.21 L2184.21 1515.95 L2192.48 1514.29 L2197.15 1514.29 L2197.15 1544.91 L2204.79 1544.91 L2204.79 1548.85 L2184.88 1548.85 L2184.88 1544.91 Z" fill="#000000" fill-rule="nonzero" fill-opacity="1" /><path clip-path="url(#clip010)" d="M2214.23 1542.97 L2219.12 1542.97 L2219.12 1548.85 L2214.23 1548.85 L2214.23 1542.97 Z" fill="#000000" fill-rule="nonzero" fill-opacity="1" /><path clip-path="url(#clip010)" d="M2239.3 1517.37 Q2235.69 1517.37 2233.86 1520.93 Q2232.06 1524.47 2232.06 1531.6 Q2232.06 1538.71 2233.86 1542.27 Q2235.69 1545.82 2239.3 1545.82 Q2242.94 1545.82 2244.74 1542.27 Q2246.57 1538.71 2246.57 1531.6 Q2246.57 1524.47 2244.74 1520.93 Q2242.94 1517.37 2239.3 1517.37 M2239.3 1513.66 Q2245.11 1513.66 2248.17 1518.27 Q2251.25 1522.85 2251.25 1531.6 Q2251.25 1540.33 2248.17 1544.94 Q2245.11 1549.52 2239.3 1549.52 Q2233.49 1549.52 2230.42 1544.94 Q2227.36 1540.33 2227.36 1531.6 Q2227.36 1522.85 2230.42 1518.27 Q2233.49 1513.66 2239.3 1513.66 Z" fill="#000000" fill-rule="nonzero" fill-opacity="1" /><path clip-path="url(#clip010)" d="M2269.47 1517.37 Q2265.86 1517.37 2264.03 1520.93 Q2262.22 1524.47 2262.22 1531.6 Q2262.22 1538.71 2264.03 1542.27 Q2265.86 1545.82 2269.47 1545.82 Q2273.1 1545.82 2274.91 1542.27 Q2276.73 1538.71 2276.73 1531.6 Q2276.73 1524.47 2274.91 1520.93 Q2273.1 1517.37 2269.47 1517.37 M2269.47 1513.66 Q2275.28 1513.66 2278.33 1518.27 Q2281.41 1522.85 2281.41 1531.6 Q2281.41 1540.33 2278.33 1544.94 Q2275.28 1549.52 2269.47 1549.52 Q2263.66 1549.52 2260.58 1544.94 Q2257.52 1540.33 2257.52 1531.6 Q2257.52 1522.85 2260.58 1518.27 Q2263.66 1513.66 2269.47 1513.66 Z" fill="#000000" fill-rule="nonzero" fill-opacity="1" /><polyline clip-path="url(#clip010)" style="stroke:#000000; stroke-linecap:round; stroke-linejoin:round; stroke-width:4; stroke-opacity:1; fill:none" points="172.015,1486.45 172.015,47.2441 "/>
<polyline clip-path="url(#clip010)" style="stroke:#000000; stroke-linecap:round; stroke-linejoin:round; stroke-width:4; stroke-opacity:1; fill:none" points="172.015,1486.45 190.912,1486.45 "/>
<polyline clip-path="url(#clip010)" style="stroke:#000000; stroke-linecap:round; stroke-linejoin:round; stroke-width:4; stroke-opacity:1; fill:none" points="172.015,1222.37 190.912,1222.37 "/>
<polyline clip-path="url(#clip010)" style="stroke:#000000; stroke-linecap:round; stroke-linejoin:round; stroke-width:4; stroke-opacity:1; fill:none" points="172.015,958.3 190.912,958.3 "/>
<polyline clip-path="url(#clip010)" style="stroke:#000000; stroke-linecap:round; stroke-linejoin:round; stroke-width:4; stroke-opacity:1; fill:none" points="172.015,694.226 190.912,694.226 "/>
<polyline clip-path="url(#clip010)" style="stroke:#000000; stroke-linecap:round; stroke-linejoin:round; stroke-width:4; stroke-opacity:1; fill:none" points="172.015,430.152 190.912,430.152 "/>
<polyline clip-path="url(#clip010)" style="stroke:#000000; stroke-linecap:round; stroke-linejoin:round; stroke-width:4; stroke-opacity:1; fill:none" points="172.015,166.077 190.912,166.077 "/>
<path clip-path="url(#clip010)" d="M124.07 1472.25 Q120.459 1472.25 118.631 1475.81 Q116.825 1479.35 116.825 1486.48 Q116.825 1493.59 118.631 1497.15 Q120.459 1500.7 124.07 1500.7 Q127.705 1500.7 129.51 1497.15 Q131.339 1493.59 131.339 1486.48 Q131.339 1479.35 129.51 1475.81 Q127.705 1472.25 124.07 1472.25 M124.07 1468.54 Q129.881 1468.54 132.936 1473.15 Q136.015 1477.73 136.015 1486.48 Q136.015 1495.21 132.936 1499.82 Q129.881 1504.4 124.07 1504.4 Q118.26 1504.4 115.182 1499.82 Q112.126 1495.21 112.126 1486.48 Q112.126 1477.73 115.182 1473.15 Q118.26 1468.54 124.07 1468.54 Z" fill="#000000" fill-rule="nonzero" fill-opacity="1" /><path clip-path="url(#clip010)" d="M54.5569 1235.72 L62.1958 1235.72 L62.1958 1209.35 L53.8856 1211.02 L53.8856 1206.76 L62.1495 1205.09 L66.8254 1205.09 L66.8254 1235.72 L74.4642 1235.72 L74.4642 1239.65 L54.5569 1239.65 L54.5569 1235.72 Z" fill="#000000" fill-rule="nonzero" fill-opacity="1" /><path clip-path="url(#clip010)" d="M93.9086 1208.17 Q90.2975 1208.17 88.4688 1211.74 Q86.6632 1215.28 86.6632 1222.41 Q86.6632 1229.51 88.4688 1233.08 Q90.2975 1236.62 93.9086 1236.62 Q97.5428 1236.62 99.3483 1233.08 Q101.177 1229.51 101.177 1222.41 Q101.177 1215.28 99.3483 1211.74 Q97.5428 1208.17 93.9086 1208.17 M93.9086 1204.47 Q99.7187 1204.47 102.774 1209.08 Q105.853 1213.66 105.853 1222.41 Q105.853 1231.14 102.774 1235.74 Q99.7187 1240.33 93.9086 1240.33 Q88.0984 1240.33 85.0197 1235.74 Q81.9642 1231.14 81.9642 1222.41 Q81.9642 1213.66 85.0197 1209.08 Q88.0984 1204.47 93.9086 1204.47 Z" fill="#000000" fill-rule="nonzero" fill-opacity="1" /><path clip-path="url(#clip010)" d="M124.07 1208.17 Q120.459 1208.17 118.631 1211.74 Q116.825 1215.28 116.825 1222.41 Q116.825 1229.51 118.631 1233.08 Q120.459 1236.62 124.07 1236.62 Q127.705 1236.62 129.51 1233.08 Q131.339 1229.51 131.339 1222.41 Q131.339 1215.28 129.51 1211.74 Q127.705 1208.17 124.07 1208.17 M124.07 1204.47 Q129.881 1204.47 132.936 1209.08 Q136.015 1213.66 136.015 1222.41 Q136.015 1231.14 132.936 1235.74 Q129.881 1240.33 124.07 1240.33 Q118.26 1240.33 115.182 1235.74 Q112.126 1231.14 112.126 1222.41 Q112.126 1213.66 115.182 1209.08 Q118.26 1204.47 124.07 1204.47 Z" fill="#000000" fill-rule="nonzero" fill-opacity="1" /><path clip-path="url(#clip010)" d="M57.7745 971.645 L74.0939 971.645 L74.0939 975.58 L52.1495 975.58 L52.1495 971.645 Q54.8115 968.89 59.3949 964.26 Q64.0013 959.608 65.1819 958.265 Q67.4272 955.742 68.3068 954.006 Q69.2096 952.246 69.2096 950.557 Q69.2096 947.802 67.2652 946.066 Q65.3439 944.33 62.2421 944.33 Q60.043 944.33 57.5893 945.094 Q55.1588 945.858 52.381 947.409 L52.381 942.686 Q55.2051 941.552 57.6588 940.973 Q60.1124 940.395 62.1495 940.395 Q67.5198 940.395 70.7142 943.08 Q73.9087 945.765 73.9087 950.256 Q73.9087 952.385 73.0985 954.307 Q72.3115 956.205 70.205 958.797 Q69.6263 959.469 66.5245 962.686 Q63.4226 965.881 57.7745 971.645 Z" fill="#000000" fill-rule="nonzero" fill-opacity="1" /><path clip-path="url(#clip010)" d="M93.9086 944.098 Q90.2975 944.098 88.4688 947.663 Q86.6632 951.205 86.6632 958.334 Q86.6632 965.441 88.4688 969.006 Q90.2975 972.547 93.9086 972.547 Q97.5428 972.547 99.3483 969.006 Q101.177 965.441 101.177 958.334 Q101.177 951.205 99.3483 947.663 Q97.5428 944.098 93.9086 944.098 M93.9086 940.395 Q99.7187 940.395 102.774 945.001 Q105.853 949.584 105.853 958.334 Q105.853 967.061 102.774 971.668 Q99.7187 976.251 93.9086 976.251 Q88.0984 976.251 85.0197 971.668 Q81.9642 967.061 81.9642 958.334 Q81.9642 949.584 85.0197 945.001 Q88.0984 940.395 93.9086 940.395 Z" fill="#000000" fill-rule="nonzero" fill-opacity="1" /><path clip-path="url(#clip010)" d="M124.07 944.098 Q120.459 944.098 118.631 947.663 Q116.825 951.205 116.825 958.334 Q116.825 965.441 118.631 969.006 Q120.459 972.547 124.07 972.547 Q127.705 972.547 129.51 969.006 Q131.339 965.441 131.339 958.334 Q131.339 951.205 129.51 947.663 Q127.705 944.098 124.07 944.098 M124.07 940.395 Q129.881 940.395 132.936 945.001 Q136.015 949.584 136.015 958.334 Q136.015 967.061 132.936 971.668 Q129.881 976.251 124.07 976.251 Q118.26 976.251 115.182 971.668 Q112.126 967.061 112.126 958.334 Q112.126 949.584 115.182 945.001 Q118.26 940.395 124.07 940.395 Z" fill="#000000" fill-rule="nonzero" fill-opacity="1" /><path clip-path="url(#clip010)" d="M67.9133 692.871 Q71.2698 693.589 73.1448 695.858 Q75.0429 698.126 75.0429 701.459 Q75.0429 706.575 71.5244 709.376 Q68.0059 712.177 61.5245 712.177 Q59.3486 712.177 57.0338 711.737 Q54.7421 711.32 52.2884 710.464 L52.2884 705.95 Q54.2328 707.084 56.5477 707.663 Q58.8625 708.242 61.3856 708.242 Q65.7837 708.242 68.0754 706.506 Q70.3902 704.77 70.3902 701.459 Q70.3902 698.404 68.2374 696.691 Q66.1078 694.955 62.2884 694.955 L58.2606 694.955 L58.2606 691.112 L62.4735 691.112 Q65.9226 691.112 67.7513 689.746 Q69.58 688.358 69.58 685.765 Q69.58 683.103 67.6819 681.691 Q65.8069 680.256 62.2884 680.256 Q60.3671 680.256 58.168 680.672 Q55.969 681.089 53.3301 681.969 L53.3301 677.802 Q55.9921 677.061 58.3069 676.691 Q60.6449 676.321 62.705 676.321 Q68.0291 676.321 71.1309 678.751 Q74.2327 681.159 74.2327 685.279 Q74.2327 688.149 72.5892 690.14 Q70.9457 692.108 67.9133 692.871 Z" fill="#000000" fill-rule="nonzero" fill-opacity="1" /><path clip-path="url(#clip010)" d="M93.9086 680.024 Q90.2975 680.024 88.4688 683.589 Q86.6632 687.131 86.6632 694.26 Q86.6632 701.367 88.4688 704.932 Q90.2975 708.473 93.9086 708.473 Q97.5428 708.473 99.3483 704.932 Q101.177 701.367 101.177 694.26 Q101.177 687.131 99.3483 683.589 Q97.5428 680.024 93.9086 680.024 M93.9086 676.321 Q99.7187 676.321 102.774 680.927 Q105.853 685.51 105.853 694.26 Q105.853 702.987 102.774 707.594 Q99.7187 712.177 93.9086 712.177 Q88.0984 712.177 85.0197 707.594 Q81.9642 702.987 81.9642 694.26 Q81.9642 685.51 85.0197 680.927 Q88.0984 676.321 93.9086 676.321 Z" fill="#000000" fill-rule="nonzero" fill-opacity="1" /><path clip-path="url(#clip010)" d="M124.07 680.024 Q120.459 680.024 118.631 683.589 Q116.825 687.131 116.825 694.26 Q116.825 701.367 118.631 704.932 Q120.459 708.473 124.07 708.473 Q127.705 708.473 129.51 704.932 Q131.339 701.367 131.339 694.26 Q131.339 687.131 129.51 683.589 Q127.705 680.024 124.07 680.024 M124.07 676.321 Q129.881 676.321 132.936 680.927 Q136.015 685.51 136.015 694.26 Q136.015 702.987 132.936 707.594 Q129.881 712.177 124.07 712.177 Q118.26 712.177 115.182 707.594 Q112.126 702.987 112.126 694.26 Q112.126 685.51 115.182 680.927 Q118.26 676.321 124.07 676.321 Z" fill="#000000" fill-rule="nonzero" fill-opacity="1" /><path clip-path="url(#clip010)" d="M66.5939 416.946 L54.7884 435.395 L66.5939 435.395 L66.5939 416.946 M65.367 412.872 L71.2466 412.872 L71.2466 435.395 L76.1772 435.395 L76.1772 439.283 L71.2466 439.283 L71.2466 447.432 L66.5939 447.432 L66.5939 439.283 L50.9921 439.283 L50.9921 434.77 L65.367 412.872 Z" fill="#000000" fill-rule="nonzero" fill-opacity="1" /><path clip-path="url(#clip010)" d="M93.9086 415.95 Q90.2975 415.95 88.4688 419.515 Q86.6632 423.057 86.6632 430.186 Q86.6632 437.293 88.4688 440.857 Q90.2975 444.399 93.9086 444.399 Q97.5428 444.399 99.3483 440.857 Q101.177 437.293 101.177 430.186 Q101.177 423.057 99.3483 419.515 Q97.5428 415.95 93.9086 415.95 M93.9086 412.247 Q99.7187 412.247 102.774 416.853 Q105.853 421.436 105.853 430.186 Q105.853 438.913 102.774 443.52 Q99.7187 448.103 93.9086 448.103 Q88.0984 448.103 85.0197 443.52 Q81.9642 438.913 81.9642 430.186 Q81.9642 421.436 85.0197 416.853 Q88.0984 412.247 93.9086 412.247 Z" fill="#000000" fill-rule="nonzero" fill-opacity="1" /><path clip-path="url(#clip010)" d="M124.07 415.95 Q120.459 415.95 118.631 419.515 Q116.825 423.057 116.825 430.186 Q116.825 437.293 118.631 440.857 Q120.459 444.399 124.07 444.399 Q127.705 444.399 129.51 440.857 Q131.339 437.293 131.339 430.186 Q131.339 423.057 129.51 419.515 Q127.705 415.95 124.07 415.95 M124.07 412.247 Q129.881 412.247 132.936 416.853 Q136.015 421.436 136.015 430.186 Q136.015 438.913 132.936 443.52 Q129.881 448.103 124.07 448.103 Q118.26 448.103 115.182 443.52 Q112.126 438.913 112.126 430.186 Q112.126 421.436 115.182 416.853 Q118.26 412.247 124.07 412.247 Z" fill="#000000" fill-rule="nonzero" fill-opacity="1" /><path clip-path="url(#clip010)" d="M53.793 148.797 L72.1494 148.797 L72.1494 152.733 L58.0754 152.733 L58.0754 161.205 Q59.0939 160.858 60.1124 160.696 Q61.131 160.51 62.1495 160.51 Q67.9365 160.51 71.3161 163.682 Q74.6957 166.853 74.6957 172.27 Q74.6957 177.848 71.2235 180.95 Q67.7513 184.029 61.4319 184.029 Q59.256 184.029 56.9875 183.658 Q54.7421 183.288 52.3347 182.547 L52.3347 177.848 Q54.418 178.982 56.6402 179.538 Q58.8625 180.094 61.3393 180.094 Q65.3439 180.094 67.6819 177.987 Q70.0198 175.881 70.0198 172.27 Q70.0198 168.658 67.6819 166.552 Q65.3439 164.445 61.3393 164.445 Q59.4643 164.445 57.5893 164.862 Q55.7375 165.279 53.793 166.158 L53.793 148.797 Z" fill="#000000" fill-rule="nonzero" fill-opacity="1" /><path clip-path="url(#clip010)" d="M93.9086 151.876 Q90.2975 151.876 88.4688 155.441 Q86.6632 158.983 86.6632 166.112 Q86.6632 173.219 88.4688 176.783 Q90.2975 180.325 93.9086 180.325 Q97.5428 180.325 99.3483 176.783 Q101.177 173.219 101.177 166.112 Q101.177 158.983 99.3483 155.441 Q97.5428 151.876 93.9086 151.876 M93.9086 148.172 Q99.7187 148.172 102.774 152.779 Q105.853 157.362 105.853 166.112 Q105.853 174.839 102.774 179.445 Q99.7187 184.029 93.9086 184.029 Q88.0984 184.029 85.0197 179.445 Q81.9642 174.839 81.9642 166.112 Q81.9642 157.362 85.0197 152.779 Q88.0984 148.172 93.9086 148.172 Z" fill="#000000" fill-rule="nonzero" fill-opacity="1" /><path clip-path="url(#clip010)" d="M124.07 151.876 Q120.459 151.876 118.631 155.441 Q116.825 158.983 116.825 166.112 Q116.825 173.219 118.631 176.783 Q120.459 180.325 124.07 180.325 Q127.705 180.325 129.51 176.783 Q131.339 173.219 131.339 166.112 Q131.339 158.983 129.51 155.441 Q127.705 151.876 124.07 151.876 M124.07 148.172 Q129.881 148.172 132.936 152.779 Q136.015 157.362 136.015 166.112 Q136.015 174.839 132.936 179.445 Q129.881 184.029 124.07 184.029 Q118.26 184.029 115.182 179.445 Q112.126 174.839 112.126 166.112 Q112.126 157.362 115.182 152.779 Q118.26 148.172 124.07 148.172 Z" fill="#000000" fill-rule="nonzero" fill-opacity="1" /><path clip-path="url(#clip012)" d="M291.959 47.2441 L291.959 1486.45 L389.002 1486.45 L389.002 47.2441 L291.959 47.2441 L291.959 47.2441  Z" fill="#009af9" fill-rule="evenodd" fill-opacity="1"/>
<polyline clip-path="url(#clip012)" style="stroke:#000000; stroke-linecap:round; stroke-linejoin:round; stroke-width:4; stroke-opacity:1; fill:none" points="291.959,47.2441 291.959,1486.45 389.002,1486.45 389.002,47.2441 291.959,47.2441 "/>
<path clip-path="url(#clip012)" d="M389.002 255.863 L389.002 1486.45 L486.045 1486.45 L486.045 255.863 L389.002 255.863 L389.002 255.863  Z" fill="#009af9" fill-rule="evenodd" fill-opacity="1"/>
<polyline clip-path="url(#clip012)" style="stroke:#000000; stroke-linecap:round; stroke-linejoin:round; stroke-width:4; stroke-opacity:1; fill:none" points="389.002,255.863 389.002,1486.45 486.045,1486.45 486.045,255.863 389.002,255.863 "/>
<path clip-path="url(#clip012)" d="M486.045 174 L486.045 1486.45 L583.087 1486.45 L583.087 174 L486.045 174 L486.045 174  Z" fill="#009af9" fill-rule="evenodd" fill-opacity="1"/>
<polyline clip-path="url(#clip012)" style="stroke:#000000; stroke-linecap:round; stroke-linejoin:round; stroke-width:4; stroke-opacity:1; fill:none" points="486.045,174 486.045,1486.45 583.087,1486.45 583.087,174 486.045,174 "/>
<path clip-path="url(#clip012)" d="M583.087 110.622 L583.087 1486.45 L680.13 1486.45 L680.13 110.622 L583.087 110.622 L583.087 110.622  Z" fill="#009af9" fill-rule="evenodd" fill-opacity="1"/>
<polyline clip-path="url(#clip012)" style="stroke:#000000; stroke-linecap:round; stroke-linejoin:round; stroke-width:4; stroke-opacity:1; fill:none" points="583.087,110.622 583.087,1486.45 680.13,1486.45 680.13,110.622 583.087,110.622 "/>
<path clip-path="url(#clip012)" d="M680.13 152.874 L680.13 1486.45 L777.172 1486.45 L777.172 152.874 L680.13 152.874 L680.13 152.874  Z" fill="#009af9" fill-rule="evenodd" fill-opacity="1"/>
<polyline clip-path="url(#clip012)" style="stroke:#000000; stroke-linecap:round; stroke-linejoin:round; stroke-width:4; stroke-opacity:1; fill:none" points="680.13,152.874 680.13,1486.45 777.172,1486.45 777.172,152.874 680.13,152.874 "/>
<path clip-path="url(#clip012)" d="M777.172 102.7 L777.172 1486.45 L874.215 1486.45 L874.215 102.7 L777.172 102.7 L777.172 102.7  Z" fill="#009af9" fill-rule="evenodd" fill-opacity="1"/>
<polyline clip-path="url(#clip012)" style="stroke:#000000; stroke-linecap:round; stroke-linejoin:round; stroke-width:4; stroke-opacity:1; fill:none" points="777.172,102.7 777.172,1486.45 874.215,1486.45 874.215,102.7 777.172,102.7 "/>
<path clip-path="url(#clip012)" d="M874.215 144.952 L874.215 1486.45 L971.258 1486.45 L971.258 144.952 L874.215 144.952 L874.215 144.952  Z" fill="#009af9" fill-rule="evenodd" fill-opacity="1"/>
<polyline clip-path="url(#clip012)" style="stroke:#000000; stroke-linecap:round; stroke-linejoin:round; stroke-width:4; stroke-opacity:1; fill:none" points="874.215,144.952 874.215,1486.45 971.258,1486.45 971.258,144.952 874.215,144.952 "/>
<path clip-path="url(#clip012)" d="M971.258 184.563 L971.258 1486.45 L1068.3 1486.45 L1068.3 184.563 L971.258 184.563 L971.258 184.563  Z" fill="#009af9" fill-rule="evenodd" fill-opacity="1"/>
<polyline clip-path="url(#clip012)" style="stroke:#000000; stroke-linecap:round; stroke-linejoin:round; stroke-width:4; stroke-opacity:1; fill:none" points="971.258,184.563 971.258,1486.45 1068.3,1486.45 1068.3,184.563 971.258,184.563 "/>
<path clip-path="url(#clip012)" d="M1068.3 174 L1068.3 1486.45 L1165.34 1486.45 L1165.34 174 L1068.3 174 L1068.3 174  Z" fill="#009af9" fill-rule="evenodd" fill-opacity="1"/>
<polyline clip-path="url(#clip012)" style="stroke:#000000; stroke-linecap:round; stroke-linejoin:round; stroke-width:4; stroke-opacity:1; fill:none" points="1068.3,174 1068.3,1486.45 1165.34,1486.45 1165.34,174 1068.3,174 "/>
<path clip-path="url(#clip012)" d="M1165.34 237.377 L1165.34 1486.45 L1262.39 1486.45 L1262.39 237.377 L1165.34 237.377 L1165.34 237.377  Z" fill="#009af9" fill-rule="evenodd" fill-opacity="1"/>
<polyline clip-path="url(#clip012)" style="stroke:#000000; stroke-linecap:round; stroke-linejoin:round; stroke-width:4; stroke-opacity:1; fill:none" points="1165.34,237.377 1165.34,1486.45 1262.39,1486.45 1262.39,237.377 1165.34,237.377 "/>
<path clip-path="url(#clip012)" d="M1262.39 263.785 L1262.39 1486.45 L1359.43 1486.45 L1359.43 263.785 L1262.39 263.785 L1262.39 263.785  Z" fill="#009af9" fill-rule="evenodd" fill-opacity="1"/>
<polyline clip-path="url(#clip012)" style="stroke:#000000; stroke-linecap:round; stroke-linejoin:round; stroke-width:4; stroke-opacity:1; fill:none" points="1262.39,263.785 1262.39,1486.45 1359.43,1486.45 1359.43,263.785 1262.39,263.785 "/>
<path clip-path="url(#clip012)" d="M1359.43 142.311 L1359.43 1486.45 L1456.47 1486.45 L1456.47 142.311 L1359.43 142.311 L1359.43 142.311  Z" fill="#009af9" fill-rule="evenodd" fill-opacity="1"/>
<polyline clip-path="url(#clip012)" style="stroke:#000000; stroke-linecap:round; stroke-linejoin:round; stroke-width:4; stroke-opacity:1; fill:none" points="1359.43,142.311 1359.43,1486.45 1456.47,1486.45 1456.47,142.311 1359.43,142.311 "/>
<path clip-path="url(#clip012)" d="M1456.47 126.466 L1456.47 1486.45 L1553.51 1486.45 L1553.51 126.466 L1456.47 126.466 L1456.47 126.466  Z" fill="#009af9" fill-rule="evenodd" fill-opacity="1"/>
<polyline clip-path="url(#clip012)" style="stroke:#000000; stroke-linecap:round; stroke-linejoin:round; stroke-width:4; stroke-opacity:1; fill:none" points="1456.47,126.466 1456.47,1486.45 1553.51,1486.45 1553.51,126.466 1456.47,126.466 "/>
<path clip-path="url(#clip012)" d="M1553.51 197.766 L1553.51 1486.45 L1650.56 1486.45 L1650.56 197.766 L1553.51 197.766 L1553.51 197.766  Z" fill="#009af9" fill-rule="evenodd" fill-opacity="1"/>
<polyline clip-path="url(#clip012)" style="stroke:#000000; stroke-linecap:round; stroke-linejoin:round; stroke-width:4; stroke-opacity:1; fill:none" points="1553.51,197.766 1553.51,1486.45 1650.56,1486.45 1650.56,197.766 1553.51,197.766 "/>
<path clip-path="url(#clip012)" d="M1650.56 179.281 L1650.56 1486.45 L1747.6 1486.45 L1747.6 179.281 L1650.56 179.281 L1650.56 179.281  Z" fill="#009af9" fill-rule="evenodd" fill-opacity="1"/>
<polyline clip-path="url(#clip012)" style="stroke:#000000; stroke-linecap:round; stroke-linejoin:round; stroke-width:4; stroke-opacity:1; fill:none" points="1650.56,179.281 1650.56,1486.45 1747.6,1486.45 1747.6,179.281 1650.56,179.281 "/>
<path clip-path="url(#clip012)" d="M1747.6 89.4959 L1747.6 1486.45 L1844.64 1486.45 L1844.64 89.4959 L1747.6 89.4959 L1747.6 89.4959  Z" fill="#009af9" fill-rule="evenodd" fill-opacity="1"/>
<polyline clip-path="url(#clip012)" style="stroke:#000000; stroke-linecap:round; stroke-linejoin:round; stroke-width:4; stroke-opacity:1; fill:none" points="1747.6,89.4959 1747.6,1486.45 1844.64,1486.45 1844.64,89.4959 1747.6,89.4959 "/>
<path clip-path="url(#clip012)" d="M1844.64 57.8071 L1844.64 1486.45 L1941.68 1486.45 L1941.68 57.8071 L1844.64 57.8071 L1844.64 57.8071  Z" fill="#009af9" fill-rule="evenodd" fill-opacity="1"/>
<polyline clip-path="url(#clip012)" style="stroke:#000000; stroke-linecap:round; stroke-linejoin:round; stroke-width:4; stroke-opacity:1; fill:none" points="1844.64,57.8071 1844.64,1486.45 1941.68,1486.45 1941.68,57.8071 1844.64,57.8071 "/>
<path clip-path="url(#clip012)" d="M1941.68 287.552 L1941.68 1486.45 L2038.73 1486.45 L2038.73 287.552 L1941.68 287.552 L1941.68 287.552  Z" fill="#009af9" fill-rule="evenodd" fill-opacity="1"/>
<polyline clip-path="url(#clip012)" style="stroke:#000000; stroke-linecap:round; stroke-linejoin:round; stroke-width:4; stroke-opacity:1; fill:none" points="1941.68,287.552 1941.68,1486.45 2038.73,1486.45 2038.73,287.552 1941.68,287.552 "/>
<path clip-path="url(#clip012)" d="M2038.73 166.077 L2038.73 1486.45 L2135.77 1486.45 L2135.77 166.077 L2038.73 166.077 L2038.73 166.077  Z" fill="#009af9" fill-rule="evenodd" fill-opacity="1"/>
<polyline clip-path="url(#clip012)" style="stroke:#000000; stroke-linecap:round; stroke-linejoin:round; stroke-width:4; stroke-opacity:1; fill:none" points="2038.73,166.077 2038.73,1486.45 2135.77,1486.45 2135.77,166.077 2038.73,166.077 "/>
<path clip-path="url(#clip012)" d="M2135.77 226.814 L2135.77 1486.45 L2232.81 1486.45 L2232.81 226.814 L2135.77 226.814 L2135.77 226.814  Z" fill="#009af9" fill-rule="evenodd" fill-opacity="1"/>
<polyline clip-path="url(#clip012)" style="stroke:#000000; stroke-linecap:round; stroke-linejoin:round; stroke-width:4; stroke-opacity:1; fill:none" points="2135.77,226.814 2135.77,1486.45 2232.81,1486.45 2232.81,226.814 2135.77,226.814 "/>
<circle clip-path="url(#clip012)" style="fill:#009af9; stroke:none; fill-opacity:0" cx="340.481" cy="47.2441" r="2"/>
<circle clip-path="url(#clip012)" style="fill:#009af9; stroke:none; fill-opacity:0" cx="437.523" cy="255.863" r="2"/>
<circle clip-path="url(#clip012)" style="fill:#009af9; stroke:none; fill-opacity:0" cx="534.566" cy="174" r="2"/>
<circle clip-path="url(#clip012)" style="fill:#009af9; stroke:none; fill-opacity:0" cx="631.609" cy="110.622" r="2"/>
<circle clip-path="url(#clip012)" style="fill:#009af9; stroke:none; fill-opacity:0" cx="728.651" cy="152.874" r="2"/>
<circle clip-path="url(#clip012)" style="fill:#009af9; stroke:none; fill-opacity:0" cx="825.694" cy="102.7" r="2"/>
<circle clip-path="url(#clip012)" style="fill:#009af9; stroke:none; fill-opacity:0" cx="922.736" cy="144.952" r="2"/>
<circle clip-path="url(#clip012)" style="fill:#009af9; stroke:none; fill-opacity:0" cx="1019.78" cy="184.563" r="2"/>
<circle clip-path="url(#clip012)" style="fill:#009af9; stroke:none; fill-opacity:0" cx="1116.82" cy="174" r="2"/>
<circle clip-path="url(#clip012)" style="fill:#009af9; stroke:none; fill-opacity:0" cx="1213.86" cy="237.377" r="2"/>
<circle clip-path="url(#clip012)" style="fill:#009af9; stroke:none; fill-opacity:0" cx="1310.91" cy="263.785" r="2"/>
<circle clip-path="url(#clip012)" style="fill:#009af9; stroke:none; fill-opacity:0" cx="1407.95" cy="142.311" r="2"/>
<circle clip-path="url(#clip012)" style="fill:#009af9; stroke:none; fill-opacity:0" cx="1504.99" cy="126.466" r="2"/>
<circle clip-path="url(#clip012)" style="fill:#009af9; stroke:none; fill-opacity:0" cx="1602.03" cy="197.766" r="2"/>
<circle clip-path="url(#clip012)" style="fill:#009af9; stroke:none; fill-opacity:0" cx="1699.08" cy="179.281" r="2"/>
<circle clip-path="url(#clip012)" style="fill:#009af9; stroke:none; fill-opacity:0" cx="1796.12" cy="89.4959" r="2"/>
<circle clip-path="url(#clip012)" style="fill:#009af9; stroke:none; fill-opacity:0" cx="1893.16" cy="57.8071" r="2"/>
<circle clip-path="url(#clip012)" style="fill:#009af9; stroke:none; fill-opacity:0" cx="1990.2" cy="287.552" r="2"/>
<circle clip-path="url(#clip012)" style="fill:#009af9; stroke:none; fill-opacity:0" cx="2087.25" cy="166.077" r="2"/>
<circle clip-path="url(#clip012)" style="fill:#009af9; stroke:none; fill-opacity:0" cx="2184.29" cy="226.814" r="2"/>
</svg>
