<?xml version="1.0" encoding="utf-8"?>
<svg xmlns="http://www.w3.org/2000/svg" xmlns:xlink="http://www.w3.org/1999/xlink" width="600" height="400" viewBox="0 0 2400 1600">
<defs>
  <clipPath id="clip040">
    <rect x="0" y="0" width="2400" height="1600"/>
  </clipPath>
</defs>
<path clip-path="url(#clip040)" d="M0 1600 L2400 1600 L2400 0 L0 0  Z" fill="#ffffff" fill-rule="evenodd" fill-opacity="1"/>
<defs>
  <clipPath id="clip041">
    <rect x="480" y="0" width="1681" height="1600"/>
  </clipPath>
</defs>
<path clip-path="url(#clip040)" d="M172.015 1486.45 L2352.76 1486.45 L2352.76 47.2441 L172.015 47.2441  Z" fill="#ffffff" fill-rule="evenodd" fill-opacity="1"/>
<defs>
  <clipPath id="clip042">
    <rect x="172" y="47" width="2182" height="1440"/>
  </clipPath>
</defs>
<polyline clip-path="url(#clip042)" style="stroke:#000000; stroke-linecap:round; stroke-linejoin:round; stroke-width:2; stroke-opacity:0.1; fill:none" points="291.959,1486.45 291.959,47.2441 "/>
<polyline clip-path="url(#clip042)" style="stroke:#000000; stroke-linecap:round; stroke-linejoin:round; stroke-width:2; stroke-opacity:0.1; fill:none" points="605,1486.45 605,47.2441 "/>
<polyline clip-path="url(#clip042)" style="stroke:#000000; stroke-linecap:round; stroke-linejoin:round; stroke-width:2; stroke-opacity:0.1; fill:none" points="918.041,1486.45 918.041,47.2441 "/>
<polyline clip-path="url(#clip042)" style="stroke:#000000; stroke-linecap:round; stroke-linejoin:round; stroke-width:2; stroke-opacity:0.1; fill:none" points="1231.08,1486.45 1231.08,47.2441 "/>
<polyline clip-path="url(#clip042)" style="stroke:#000000; stroke-linecap:round; stroke-linejoin:round; stroke-width:2; stroke-opacity:0.1; fill:none" points="1544.12,1486.45 1544.12,47.2441 "/>
<polyline clip-path="url(#clip042)" style="stroke:#000000; stroke-linecap:round; stroke-linejoin:round; stroke-width:2; stroke-opacity:0.1; fill:none" points="1857.16,1486.45 1857.16,47.2441 "/>
<polyline clip-path="url(#clip042)" style="stroke:#000000; stroke-linecap:round; stroke-linejoin:round; stroke-width:2; stroke-opacity:0.1; fill:none" points="2170.2,1486.45 2170.2,47.2441 "/>
<polyline clip-path="url(#clip042)" style="stroke:#000000; stroke-linecap:round; stroke-linejoin:round; stroke-width:2; stroke-opacity:0.1; fill:none" points="172.015,1486.45 2352.76,1486.45 "/>
<polyline clip-path="url(#clip042)" style="stroke:#000000; stroke-linecap:round; stroke-linejoin:round; stroke-width:2; stroke-opacity:0.1; fill:none" points="172.015,1188.78 2352.76,1188.78 "/>
<polyline clip-path="url(#clip042)" style="stroke:#000000; stroke-linecap:round; stroke-linejoin:round; stroke-width:2; stroke-opacity:0.1; fill:none" points="172.015,891.121 2352.76,891.121 "/>
<polyline clip-path="url(#clip042)" style="stroke:#000000; stroke-linecap:round; stroke-linejoin:round; stroke-width:2; stroke-opacity:0.1; fill:none" points="172.015,593.457 2352.76,593.457 "/>
<polyline clip-path="url(#clip042)" style="stroke:#000000; stroke-linecap:round; stroke-linejoin:round; stroke-width:2; stroke-opacity:0.1; fill:none" points="172.015,295.793 2352.76,295.793 "/>
<polyline clip-path="url(#clip040)" style="stroke:#000000; stroke-linecap:round; stroke-linejoin:round; stroke-width:4; stroke-opacity:1; fill:none" points="172.015,1486.45 2352.76,1486.45 "/>
<polyline clip-path="url(#clip040)" style="stroke:#000000; stroke-linecap:round; stroke-linejoin:round; stroke-width:4; stroke-opacity:1; fill:none" points="291.959,1486.45 291.959,1467.55 "/>
<polyline clip-path="url(#clip040)" style="stroke:#000000; stroke-linecap:round; stroke-linejoin:round; stroke-width:4; stroke-opacity:1; fill:none" points="605,1486.45 605,1467.55 "/>
<polyline clip-path="url(#clip040)" style="stroke:#000000; stroke-linecap:round; stroke-linejoin:round; stroke-width:4; stroke-opacity:1; fill:none" points="918.041,1486.45 918.041,1467.55 "/>
<polyline clip-path="url(#clip040)" style="stroke:#000000; stroke-linecap:round; stroke-linejoin:round; stroke-width:4; stroke-opacity:1; fill:none" points="1231.08,1486.45 1231.08,1467.55 "/>
<polyline clip-path="url(#clip040)" style="stroke:#000000; stroke-linecap:round; stroke-linejoin:round; stroke-width:4; stroke-opacity:1; fill:none" points="1544.12,1486.45 1544.12,1467.55 "/>
<polyline clip-path="url(#clip040)" style="stroke:#000000; stroke-linecap:round; stroke-linejoin:round; stroke-width:4; stroke-opacity:1; fill:none" points="1857.16,1486.45 1857.16,1467.55 "/>
<polyline clip-path="url(#clip040)" style="stroke:#000000; stroke-linecap:round; stroke-linejoin:round; stroke-width:4; stroke-opacity:1; fill:none" points="2170.2,1486.45 2170.2,1467.55 "/>
<path clip-path="url(#clip040)" d="M291.959 1517.37 Q288.348 1517.37 286.52 1520.93 Q284.714 1524.47 284.714 1531.6 Q284.714 1538.71 286.52 1542.27 Q288.348 1545.82 291.959 1545.82 Q295.594 1545.82 297.399 1542.27 Q299.228 1538.71 299.228 1531.6 Q299.228 1524.47 297.399 1520.93 Q295.594 1517.37 291.959 1517.37 M291.959 1513.66 Q297.77 1513.66 300.825 1518.27 Q303.904 1522.85 303.904 1531.6 Q303.904 1540.33 300.825 1544.94 Q297.77 1549.52 291.959 1549.52 Q286.149 1549.52 283.071 1544.94 Q280.015 1540.33 280.015 1531.6 Q280.015 1522.85 283.071 1518.27 Q286.149 1513.66 291.959 1513.66 Z" fill="#000000" fill-rule="nonzero" fill-opacity="1" /><path clip-path="url(#clip040)" d="M599.653 1544.91 L615.972 1544.91 L615.972 1548.85 L594.028 1548.85 L594.028 1544.91 Q596.69 1542.16 601.273 1537.53 Q605.88 1532.88 607.06 1531.53 Q609.306 1529.01 610.185 1527.27 Q611.088 1525.51 611.088 1523.82 Q611.088 1521.07 609.144 1519.33 Q607.222 1517.6 604.12 1517.6 Q601.921 1517.6 599.468 1518.36 Q597.037 1519.13 594.259 1520.68 L594.259 1515.95 Q597.083 1514.82 599.537 1514.24 Q601.991 1513.66 604.028 1513.66 Q609.398 1513.66 612.593 1516.35 Q615.787 1519.03 615.787 1523.52 Q615.787 1525.65 614.977 1527.57 Q614.19 1529.47 612.083 1532.07 Q611.505 1532.74 608.403 1535.95 Q605.301 1539.15 599.653 1544.91 Z" fill="#000000" fill-rule="nonzero" fill-opacity="1" /><path clip-path="url(#clip040)" d="M921.05 1518.36 L909.244 1536.81 L921.05 1536.81 L921.05 1518.36 M919.823 1514.29 L925.703 1514.29 L925.703 1536.81 L930.633 1536.81 L930.633 1540.7 L925.703 1540.7 L925.703 1548.85 L921.05 1548.85 L921.05 1540.7 L905.448 1540.7 L905.448 1536.19 L919.823 1514.29 Z" fill="#000000" fill-rule="nonzero" fill-opacity="1" /><path clip-path="url(#clip040)" d="M1231.49 1529.7 Q1228.34 1529.7 1226.49 1531.86 Q1224.66 1534.01 1224.66 1537.76 Q1224.66 1541.49 1226.49 1543.66 Q1228.34 1545.82 1231.49 1545.82 Q1234.63 1545.82 1236.46 1543.66 Q1238.32 1541.49 1238.32 1537.76 Q1238.32 1534.01 1236.46 1531.86 Q1234.63 1529.7 1231.49 1529.7 M1240.77 1515.05 L1240.77 1519.31 Q1239.01 1518.48 1237.2 1518.04 Q1235.42 1517.6 1233.66 1517.6 Q1229.03 1517.6 1226.58 1520.72 Q1224.15 1523.85 1223.8 1530.17 Q1225.17 1528.15 1227.23 1527.09 Q1229.29 1526 1231.76 1526 Q1236.97 1526 1239.98 1529.17 Q1243.01 1532.32 1243.01 1537.76 Q1243.01 1543.08 1239.87 1546.3 Q1236.72 1549.52 1231.49 1549.52 Q1225.49 1549.52 1222.32 1544.94 Q1219.15 1540.33 1219.15 1531.6 Q1219.15 1523.41 1223.04 1518.55 Q1226.93 1513.66 1233.48 1513.66 Q1235.24 1513.66 1237.02 1514.01 Q1238.82 1514.36 1240.77 1515.05 Z" fill="#000000" fill-rule="nonzero" fill-opacity="1" /><path clip-path="url(#clip040)" d="M1544.12 1532.44 Q1540.79 1532.44 1538.87 1534.22 Q1536.97 1536 1536.97 1539.13 Q1536.97 1542.25 1538.87 1544.03 Q1540.79 1545.82 1544.12 1545.82 Q1547.46 1545.82 1549.38 1544.03 Q1551.3 1542.23 1551.3 1539.13 Q1551.3 1536 1549.38 1534.22 Q1547.48 1532.44 1544.12 1532.44 M1539.45 1530.45 Q1536.44 1529.7 1534.75 1527.64 Q1533.08 1525.58 1533.08 1522.62 Q1533.08 1518.48 1536.02 1516.07 Q1538.98 1513.66 1544.12 1513.66 Q1549.28 1513.66 1552.22 1516.07 Q1555.16 1518.48 1555.16 1522.62 Q1555.16 1525.58 1553.47 1527.64 Q1551.81 1529.7 1548.82 1530.45 Q1552.2 1531.23 1554.08 1533.52 Q1555.97 1535.82 1555.97 1539.13 Q1555.97 1544.15 1552.9 1546.83 Q1549.84 1549.52 1544.12 1549.52 Q1538.4 1549.52 1535.33 1546.83 Q1532.27 1544.15 1532.27 1539.13 Q1532.27 1535.82 1534.17 1533.52 Q1536.07 1531.23 1539.45 1530.45 M1537.73 1523.06 Q1537.73 1525.75 1539.4 1527.25 Q1541.09 1528.76 1544.12 1528.76 Q1547.13 1528.76 1548.82 1527.25 Q1550.53 1525.75 1550.53 1523.06 Q1550.53 1520.38 1548.82 1518.87 Q1547.13 1517.37 1544.12 1517.37 Q1541.09 1517.37 1539.4 1518.87 Q1537.73 1520.38 1537.73 1523.06 Z" fill="#000000" fill-rule="nonzero" fill-opacity="1" /><path clip-path="url(#clip040)" d="M1831.85 1544.91 L1839.49 1544.91 L1839.49 1518.55 L1831.18 1520.21 L1831.18 1515.95 L1839.44 1514.29 L1844.12 1514.29 L1844.12 1544.91 L1851.76 1544.91 L1851.76 1548.85 L1831.85 1548.85 L1831.85 1544.91 Z" fill="#000000" fill-rule="nonzero" fill-opacity="1" /><path clip-path="url(#clip040)" d="M1871.2 1517.37 Q1867.59 1517.37 1865.76 1520.93 Q1863.96 1524.47 1863.96 1531.6 Q1863.96 1538.71 1865.76 1542.27 Q1867.59 1545.82 1871.2 1545.82 Q1874.84 1545.82 1876.64 1542.27 Q1878.47 1538.71 1878.47 1531.6 Q1878.47 1524.47 1876.64 1520.93 Q1874.84 1517.37 1871.2 1517.37 M1871.2 1513.66 Q1877.01 1513.66 1880.07 1518.27 Q1883.15 1522.85 1883.15 1531.6 Q1883.15 1540.33 1880.07 1544.94 Q1877.01 1549.52 1871.2 1549.52 Q1865.39 1549.52 1862.31 1544.94 Q1859.26 1540.33 1859.26 1531.6 Q1859.26 1522.85 1862.31 1518.27 Q1865.39 1513.66 1871.2 1513.66 Z" fill="#000000" fill-rule="nonzero" fill-opacity="1" /><path clip-path="url(#clip040)" d="M2145.69 1544.91 L2153.33 1544.91 L2153.33 1518.55 L2145.02 1520.21 L2145.02 1515.95 L2153.28 1514.29 L2157.96 1514.29 L2157.96 1544.91 L2165.6 1544.91 L2165.6 1548.85 L2145.69 1548.85 L2145.69 1544.91 Z" fill="#000000" fill-rule="nonzero" fill-opacity="1" /><path clip-path="url(#clip040)" d="M2179.07 1544.91 L2195.39 1544.91 L2195.39 1548.85 L2173.44 1548.85 L2173.44 1544.91 Q2176.11 1542.16 2180.69 1537.53 Q2185.3 1532.88 2186.48 1531.53 Q2188.72 1529.01 2189.6 1527.27 Q2190.5 1525.51 2190.5 1523.82 Q2190.5 1521.07 2188.56 1519.33 Q2186.64 1517.6 2183.54 1517.6 Q2181.34 1517.6 2178.88 1518.36 Q2176.45 1519.13 2173.68 1520.68 L2173.68 1515.95 Q2176.5 1514.82 2178.95 1514.24 Q2181.41 1513.66 2183.44 1513.66 Q2188.81 1513.66 2192.01 1516.35 Q2195.2 1519.03 2195.2 1523.52 Q2195.2 1525.65 2194.39 1527.57 Q2193.61 1529.47 2191.5 1532.07 Q2190.92 1532.74 2187.82 1535.95 Q2184.72 1539.15 2179.07 1544.91 Z" fill="#000000" fill-rule="nonzero" fill-opacity="1" /><polyline clip-path="url(#clip040)" style="stroke:#000000; stroke-linecap:round; stroke-linejoin:round; stroke-width:4; stroke-opacity:1; fill:none" points="172.015,1486.45 172.015,47.2441 "/>
<polyline clip-path="url(#clip040)" style="stroke:#000000; stroke-linecap:round; stroke-linejoin:round; stroke-width:4; stroke-opacity:1; fill:none" points="172.015,1486.45 190.912,1486.45 "/>
<polyline clip-path="url(#clip040)" style="stroke:#000000; stroke-linecap:round; stroke-linejoin:round; stroke-width:4; stroke-opacity:1; fill:none" points="172.015,1188.78 190.912,1188.78 "/>
<polyline clip-path="url(#clip040)" style="stroke:#000000; stroke-linecap:round; stroke-linejoin:round; stroke-width:4; stroke-opacity:1; fill:none" points="172.015,891.121 190.912,891.121 "/>
<polyline clip-path="url(#clip040)" style="stroke:#000000; stroke-linecap:round; stroke-linejoin:round; stroke-width:4; stroke-opacity:1; fill:none" points="172.015,593.457 190.912,593.457 "/>
<polyline clip-path="url(#clip040)" style="stroke:#000000; stroke-linecap:round; stroke-linejoin:round; stroke-width:4; stroke-opacity:1; fill:none" points="172.015,295.793 190.912,295.793 "/>
<path clip-path="url(#clip040)" d="M124.07 1472.25 Q120.459 1472.25 118.631 1475.81 Q116.825 1479.35 116.825 1486.48 Q116.825 1493.59 118.631 1497.15 Q120.459 1500.7 124.07 1500.7 Q127.705 1500.7 129.51 1497.15 Q131.339 1493.59 131.339 1486.48 Q131.339 1479.35 129.51 1475.81 Q127.705 1472.25 124.07 1472.25 M124.07 1468.54 Q129.881 1468.54 132.936 1473.15 Q136.015 1477.73 136.015 1486.48 Q136.015 1495.21 132.936 1499.82 Q129.881 1504.4 124.07 1504.4 Q118.26 1504.4 115.182 1499.82 Q112.126 1495.21 112.126 1486.48 Q112.126 1477.73 115.182 1473.15 Q118.26 1468.54 124.07 1468.54 Z" fill="#000000" fill-rule="nonzero" fill-opacity="1" /><path clip-path="url(#clip040)" d="M57.7745 1202.13 L74.0939 1202.13 L74.0939 1206.06 L52.1495 1206.06 L52.1495 1202.13 Q54.8115 1199.37 59.3949 1194.74 Q64.0013 1190.09 65.1819 1188.75 Q67.4272 1186.23 68.3068 1184.49 Q69.2096 1182.73 69.2096 1181.04 Q69.2096 1178.29 67.2652 1176.55 Q65.3439 1174.81 62.2421 1174.81 Q60.043 1174.81 57.5893 1175.58 Q55.1588 1176.34 52.381 1177.89 L52.381 1173.17 Q55.2051 1172.04 57.6588 1171.46 Q60.1124 1170.88 62.1495 1170.88 Q67.5198 1170.88 70.7142 1173.56 Q73.9087 1176.25 73.9087 1180.74 Q73.9087 1182.87 73.0985 1184.79 Q72.3115 1186.69 70.205 1189.28 Q69.6263 1189.95 66.5245 1193.17 Q63.4226 1196.37 57.7745 1202.13 Z" fill="#000000" fill-rule="nonzero" fill-opacity="1" /><path clip-path="url(#clip040)" d="M93.9086 1174.58 Q90.2975 1174.58 88.4688 1178.15 Q86.6632 1181.69 86.6632 1188.82 Q86.6632 1195.93 88.4688 1199.49 Q90.2975 1203.03 93.9086 1203.03 Q97.5428 1203.03 99.3483 1199.49 Q101.177 1195.93 101.177 1188.82 Q101.177 1181.69 99.3483 1178.15 Q97.5428 1174.58 93.9086 1174.58 M93.9086 1170.88 Q99.7187 1170.88 102.774 1175.49 Q105.853 1180.07 105.853 1188.82 Q105.853 1197.55 102.774 1202.15 Q99.7187 1206.74 93.9086 1206.74 Q88.0984 1206.74 85.0197 1202.15 Q81.9642 1197.55 81.9642 1188.82 Q81.9642 1180.07 85.0197 1175.49 Q88.0984 1170.88 93.9086 1170.88 Z" fill="#000000" fill-rule="nonzero" fill-opacity="1" /><path clip-path="url(#clip040)" d="M124.07 1174.58 Q120.459 1174.58 118.631 1178.15 Q116.825 1181.69 116.825 1188.82 Q116.825 1195.93 118.631 1199.49 Q120.459 1203.03 124.07 1203.03 Q127.705 1203.03 129.51 1199.49 Q131.339 1195.93 131.339 1188.82 Q131.339 1181.69 129.51 1178.15 Q127.705 1174.58 124.07 1174.58 M124.07 1170.88 Q129.881 1170.88 132.936 1175.49 Q136.015 1180.07 136.015 1188.82 Q136.015 1197.55 132.936 1202.15 Q129.881 1206.74 124.07 1206.74 Q118.26 1206.74 115.182 1202.15 Q112.126 1197.55 112.126 1188.82 Q112.126 1180.07 115.182 1175.49 Q118.26 1170.88 124.07 1170.88 Z" fill="#000000" fill-rule="nonzero" fill-opacity="1" /><path clip-path="url(#clip040)" d="M66.5939 877.915 L54.7884 896.364 L66.5939 896.364 L66.5939 877.915 M65.367 873.841 L71.2466 873.841 L71.2466 896.364 L76.1772 896.364 L76.1772 900.252 L71.2466 900.252 L71.2466 908.401 L66.5939 908.401 L66.5939 900.252 L50.9921 900.252 L50.9921 895.739 L65.367 873.841 Z" fill="#000000" fill-rule="nonzero" fill-opacity="1" /><path clip-path="url(#clip040)" d="M93.9086 876.919 Q90.2975 876.919 88.4688 880.484 Q86.6632 884.026 86.6632 891.155 Q86.6632 898.262 88.4688 901.827 Q90.2975 905.368 93.9086 905.368 Q97.5428 905.368 99.3483 901.827 Q101.177 898.262 101.177 891.155 Q101.177 884.026 99.3483 880.484 Q97.5428 876.919 93.9086 876.919 M93.9086 873.216 Q99.7187 873.216 102.774 877.822 Q105.853 882.405 105.853 891.155 Q105.853 899.882 102.774 904.489 Q99.7187 909.072 93.9086 909.072 Q88.0984 909.072 85.0197 904.489 Q81.9642 899.882 81.9642 891.155 Q81.9642 882.405 85.0197 877.822 Q88.0984 873.216 93.9086 873.216 Z" fill="#000000" fill-rule="nonzero" fill-opacity="1" /><path clip-path="url(#clip040)" d="M124.07 876.919 Q120.459 876.919 118.631 880.484 Q116.825 884.026 116.825 891.155 Q116.825 898.262 118.631 901.827 Q120.459 905.368 124.07 905.368 Q127.705 905.368 129.51 901.827 Q131.339 898.262 131.339 891.155 Q131.339 884.026 129.51 880.484 Q127.705 876.919 124.07 876.919 M124.07 873.216 Q129.881 873.216 132.936 877.822 Q136.015 882.405 136.015 891.155 Q136.015 899.882 132.936 904.489 Q129.881 909.072 124.07 909.072 Q118.26 909.072 115.182 904.489 Q112.126 899.882 112.126 891.155 Q112.126 882.405 115.182 877.822 Q118.26 873.216 124.07 873.216 Z" fill="#000000" fill-rule="nonzero" fill-opacity="1" /><path clip-path="url(#clip040)" d="M64.3254 591.593 Q61.1773 591.593 59.3254 593.746 Q57.4967 595.899 57.4967 599.649 Q57.4967 603.376 59.3254 605.552 Q61.1773 607.705 64.3254 607.705 Q67.4735 607.705 69.3022 605.552 Q71.1541 603.376 71.1541 599.649 Q71.1541 595.899 69.3022 593.746 Q67.4735 591.593 64.3254 591.593 M73.6077 576.941 L73.6077 581.2 Q71.8485 580.367 70.0429 579.927 Q68.2606 579.487 66.5013 579.487 Q61.8717 579.487 59.418 582.612 Q56.9875 585.737 56.6402 592.056 Q58.006 590.043 60.0662 588.978 Q62.1263 587.89 64.6032 587.89 Q69.8115 587.89 72.8207 591.061 Q75.8531 594.209 75.8531 599.649 Q75.8531 604.973 72.705 608.191 Q69.5568 611.408 64.3254 611.408 Q58.33 611.408 55.1588 606.825 Q51.9875 602.218 51.9875 593.492 Q51.9875 585.297 55.8764 580.436 Q59.7652 575.552 66.3161 575.552 Q68.0754 575.552 69.8578 575.899 Q71.6633 576.246 73.6077 576.941 Z" fill="#000000" fill-rule="nonzero" fill-opacity="1" /><path clip-path="url(#clip040)" d="M93.9086 579.256 Q90.2975 579.256 88.4688 582.82 Q86.6632 586.362 86.6632 593.492 Q86.6632 600.598 88.4688 604.163 Q90.2975 607.705 93.9086 607.705 Q97.5428 607.705 99.3483 604.163 Q101.177 600.598 101.177 593.492 Q101.177 586.362 99.3483 582.82 Q97.5428 579.256 93.9086 579.256 M93.9086 575.552 Q99.7187 575.552 102.774 580.158 Q105.853 584.742 105.853 593.492 Q105.853 602.218 102.774 606.825 Q99.7187 611.408 93.9086 611.408 Q88.0984 611.408 85.0197 606.825 Q81.9642 602.218 81.9642 593.492 Q81.9642 584.742 85.0197 580.158 Q88.0984 575.552 93.9086 575.552 Z" fill="#000000" fill-rule="nonzero" fill-opacity="1" /><path clip-path="url(#clip040)" d="M124.07 579.256 Q120.459 579.256 118.631 582.82 Q116.825 586.362 116.825 593.492 Q116.825 600.598 118.631 604.163 Q120.459 607.705 124.07 607.705 Q127.705 607.705 129.51 604.163 Q131.339 600.598 131.339 593.492 Q131.339 586.362 129.51 582.82 Q127.705 579.256 124.07 579.256 M124.07 575.552 Q129.881 575.552 132.936 580.158 Q136.015 584.742 136.015 593.492 Q136.015 602.218 132.936 606.825 Q129.881 611.408 124.07 611.408 Q118.26 611.408 115.182 606.825 Q112.126 602.218 112.126 593.492 Q112.126 584.742 115.182 580.158 Q118.26 575.552 124.07 575.552 Z" fill="#000000" fill-rule="nonzero" fill-opacity="1" /><path clip-path="url(#clip040)" d="M63.7467 296.661 Q60.4134 296.661 58.4921 298.444 Q56.5939 300.226 56.5939 303.351 Q56.5939 306.476 58.4921 308.258 Q60.4134 310.041 63.7467 310.041 Q67.08 310.041 69.0013 308.258 Q70.9226 306.453 70.9226 303.351 Q70.9226 300.226 69.0013 298.444 Q67.1032 296.661 63.7467 296.661 M59.0708 294.671 Q56.0615 293.93 54.3717 291.87 Q52.7051 289.809 52.7051 286.847 Q52.7051 282.703 55.6449 280.296 Q58.6078 277.888 63.7467 277.888 Q68.9087 277.888 71.8485 280.296 Q74.7883 282.703 74.7883 286.847 Q74.7883 289.809 73.0985 291.87 Q71.4318 293.93 68.4457 294.671 Q71.8253 295.458 73.7003 297.749 Q75.5985 300.041 75.5985 303.351 Q75.5985 308.374 72.5198 311.059 Q69.4642 313.745 63.7467 313.745 Q58.0291 313.745 54.9504 311.059 Q51.8949 308.374 51.8949 303.351 Q51.8949 300.041 53.793 297.749 Q55.6912 295.458 59.0708 294.671 M57.3578 287.286 Q57.3578 289.972 59.0245 291.476 Q60.7143 292.981 63.7467 292.981 Q66.7559 292.981 68.4457 291.476 Q70.1587 289.972 70.1587 287.286 Q70.1587 284.601 68.4457 283.097 Q66.7559 281.592 63.7467 281.592 Q60.7143 281.592 59.0245 283.097 Q57.3578 284.601 57.3578 287.286 Z" fill="#000000" fill-rule="nonzero" fill-opacity="1" /><path clip-path="url(#clip040)" d="M93.9086 281.592 Q90.2975 281.592 88.4688 285.157 Q86.6632 288.698 86.6632 295.828 Q86.6632 302.934 88.4688 306.499 Q90.2975 310.041 93.9086 310.041 Q97.5428 310.041 99.3483 306.499 Q101.177 302.934 101.177 295.828 Q101.177 288.698 99.3483 285.157 Q97.5428 281.592 93.9086 281.592 M93.9086 277.888 Q99.7187 277.888 102.774 282.495 Q105.853 287.078 105.853 295.828 Q105.853 304.555 102.774 309.161 Q99.7187 313.745 93.9086 313.745 Q88.0984 313.745 85.0197 309.161 Q81.9642 304.555 81.9642 295.828 Q81.9642 287.078 85.0197 282.495 Q88.0984 277.888 93.9086 277.888 Z" fill="#000000" fill-rule="nonzero" fill-opacity="1" /><path clip-path="url(#clip040)" d="M124.07 281.592 Q120.459 281.592 118.631 285.157 Q116.825 288.698 116.825 295.828 Q116.825 302.934 118.631 306.499 Q120.459 310.041 124.07 310.041 Q127.705 310.041 129.51 306.499 Q131.339 302.934 131.339 295.828 Q131.339 288.698 129.51 285.157 Q127.705 281.592 124.07 281.592 M124.07 277.888 Q129.881 277.888 132.936 282.495 Q136.015 287.078 136.015 295.828 Q136.015 304.555 132.936 309.161 Q129.881 313.745 124.07 313.745 Q118.26 313.745 115.182 309.161 Q112.126 304.555 112.126 295.828 Q112.126 287.078 115.182 282.495 Q118.26 277.888 124.07 277.888 Z" fill="#000000" fill-rule="nonzero" fill-opacity="1" /><path clip-path="url(#clip042)" d="M291.959 47.2441 L291.959 1486.45 L307.611 1486.45 L307.611 47.2441 L291.959 47.2441 L291.959 47.2441  Z" fill="#009af9" fill-rule="evenodd" fill-opacity="1"/>
<polyline clip-path="url(#clip042)" style="stroke:#000000; stroke-linecap:round; stroke-linejoin:round; stroke-width:4; stroke-opacity:1; fill:none" points="291.959,47.2441 291.959,1486.45 307.611,1486.45 307.611,47.2441 291.959,47.2441 "/>
<path clip-path="url(#clip042)" d="M307.611 205.006 L307.611 1486.45 L323.264 1486.45 L323.264 205.006 L307.611 205.006 L307.611 205.006  Z" fill="#009af9" fill-rule="evenodd" fill-opacity="1"/>
<polyline clip-path="url(#clip042)" style="stroke:#000000; stroke-linecap:round; stroke-linejoin:round; stroke-width:4; stroke-opacity:1; fill:none" points="307.611,205.006 307.611,1486.45 323.264,1486.45 323.264,205.006 307.611,205.006 "/>
<path clip-path="url(#clip042)" d="M323.264 285.375 L323.264 1486.45 L338.916 1486.45 L338.916 285.375 L323.264 285.375 L323.264 285.375  Z" fill="#009af9" fill-rule="evenodd" fill-opacity="1"/>
<polyline clip-path="url(#clip042)" style="stroke:#000000; stroke-linecap:round; stroke-linejoin:round; stroke-width:4; stroke-opacity:1; fill:none" points="323.264,285.375 323.264,1486.45 338.916,1486.45 338.916,285.375 323.264,285.375 "/>
<path clip-path="url(#clip042)" d="M338.916 413.37 L338.916 1486.45 L354.568 1486.45 L354.568 413.37 L338.916 413.37 L338.916 413.37  Z" fill="#009af9" fill-rule="evenodd" fill-opacity="1"/>
<polyline clip-path="url(#clip042)" style="stroke:#000000; stroke-linecap:round; stroke-linejoin:round; stroke-width:4; stroke-opacity:1; fill:none" points="338.916,413.37 338.916,1486.45 354.568,1486.45 354.568,413.37 338.916,413.37 "/>
<path clip-path="url(#clip042)" d="M354.568 538.389 L354.568 1486.45 L370.22 1486.45 L370.22 538.389 L354.568 538.389 L354.568 538.389  Z" fill="#009af9" fill-rule="evenodd" fill-opacity="1"/>
<polyline clip-path="url(#clip042)" style="stroke:#000000; stroke-linecap:round; stroke-linejoin:round; stroke-width:4; stroke-opacity:1; fill:none" points="354.568,538.389 354.568,1486.45 370.22,1486.45 370.22,538.389 354.568,538.389 "/>
<path clip-path="url(#clip042)" d="M370.22 635.13 L370.22 1486.45 L385.872 1486.45 L385.872 635.13 L370.22 635.13 L370.22 635.13  Z" fill="#009af9" fill-rule="evenodd" fill-opacity="1"/>
<polyline clip-path="url(#clip042)" style="stroke:#000000; stroke-linecap:round; stroke-linejoin:round; stroke-width:4; stroke-opacity:1; fill:none" points="370.22,635.13 370.22,1486.45 385.872,1486.45 385.872,635.13 370.22,635.13 "/>
<path clip-path="url(#clip042)" d="M385.872 743.777 L385.872 1486.45 L401.524 1486.45 L401.524 743.777 L385.872 743.777 L385.872 743.777  Z" fill="#009af9" fill-rule="evenodd" fill-opacity="1"/>
<polyline clip-path="url(#clip042)" style="stroke:#000000; stroke-linecap:round; stroke-linejoin:round; stroke-width:4; stroke-opacity:1; fill:none" points="385.872,743.777 385.872,1486.45 401.524,1486.45 401.524,743.777 385.872,743.777 "/>
<path clip-path="url(#clip042)" d="M401.524 837.541 L401.524 1486.45 L417.176 1486.45 L417.176 837.541 L401.524 837.541 L401.524 837.541  Z" fill="#009af9" fill-rule="evenodd" fill-opacity="1"/>
<polyline clip-path="url(#clip042)" style="stroke:#000000; stroke-linecap:round; stroke-linejoin:round; stroke-width:4; stroke-opacity:1; fill:none" points="401.524,837.541 401.524,1486.45 417.176,1486.45 417.176,837.541 401.524,837.541 "/>
<path clip-path="url(#clip042)" d="M417.176 849.448 L417.176 1486.45 L432.828 1486.45 L432.828 849.448 L417.176 849.448 L417.176 849.448  Z" fill="#009af9" fill-rule="evenodd" fill-opacity="1"/>
<polyline clip-path="url(#clip042)" style="stroke:#000000; stroke-linecap:round; stroke-linejoin:round; stroke-width:4; stroke-opacity:1; fill:none" points="417.176,849.448 417.176,1486.45 432.828,1486.45 432.828,849.448 417.176,849.448 "/>
<path clip-path="url(#clip042)" d="M432.828 891.121 L432.828 1486.45 L448.48 1486.45 L448.48 891.121 L432.828 891.121 L432.828 891.121  Z" fill="#009af9" fill-rule="evenodd" fill-opacity="1"/>
<polyline clip-path="url(#clip042)" style="stroke:#000000; stroke-linecap:round; stroke-linejoin:round; stroke-width:4; stroke-opacity:1; fill:none" points="432.828,891.121 432.828,1486.45 448.48,1486.45 448.48,891.121 432.828,891.121 "/>
<path clip-path="url(#clip042)" d="M448.48 947.677 L448.48 1486.45 L464.132 1486.45 L464.132 947.677 L448.48 947.677 L448.48 947.677  Z" fill="#009af9" fill-rule="evenodd" fill-opacity="1"/>
<polyline clip-path="url(#clip042)" style="stroke:#000000; stroke-linecap:round; stroke-linejoin:round; stroke-width:4; stroke-opacity:1; fill:none" points="448.48,947.677 448.48,1486.45 464.132,1486.45 464.132,947.677 448.48,947.677 "/>
<path clip-path="url(#clip042)" d="M464.132 1031.02 L464.132 1486.45 L479.784 1486.45 L479.784 1031.02 L464.132 1031.02 L464.132 1031.02  Z" fill="#009af9" fill-rule="evenodd" fill-opacity="1"/>
<polyline clip-path="url(#clip042)" style="stroke:#000000; stroke-linecap:round; stroke-linejoin:round; stroke-width:4; stroke-opacity:1; fill:none" points="464.132,1031.02 464.132,1486.45 479.784,1486.45 479.784,1031.02 464.132,1031.02 "/>
<path clip-path="url(#clip042)" d="M479.784 1045.91 L479.784 1486.45 L495.436 1486.45 L495.436 1045.91 L479.784 1045.91 L479.784 1045.91  Z" fill="#009af9" fill-rule="evenodd" fill-opacity="1"/>
<polyline clip-path="url(#clip042)" style="stroke:#000000; stroke-linecap:round; stroke-linejoin:round; stroke-width:4; stroke-opacity:1; fill:none" points="479.784,1045.91 479.784,1486.45 495.436,1486.45 495.436,1045.91 479.784,1045.91 "/>
<path clip-path="url(#clip042)" d="M495.436 1111.39 L495.436 1486.45 L511.088 1486.45 L511.088 1111.39 L495.436 1111.39 L495.436 1111.39  Z" fill="#009af9" fill-rule="evenodd" fill-opacity="1"/>
<polyline clip-path="url(#clip042)" style="stroke:#000000; stroke-linecap:round; stroke-linejoin:round; stroke-width:4; stroke-opacity:1; fill:none" points="495.436,1111.39 495.436,1486.45 511.088,1486.45 511.088,1111.39 495.436,1111.39 "/>
<path clip-path="url(#clip042)" d="M511.088 1139.67 L511.088 1486.45 L526.74 1486.45 L526.74 1139.67 L511.088 1139.67 L511.088 1139.67  Z" fill="#009af9" fill-rule="evenodd" fill-opacity="1"/>
<polyline clip-path="url(#clip042)" style="stroke:#000000; stroke-linecap:round; stroke-linejoin:round; stroke-width:4; stroke-opacity:1; fill:none" points="511.088,1139.67 511.088,1486.45 526.74,1486.45 526.74,1139.67 511.088,1139.67 "/>
<path clip-path="url(#clip042)" d="M526.74 1136.69 L526.74 1486.45 L542.392 1486.45 L542.392 1136.69 L526.74 1136.69 L526.74 1136.69  Z" fill="#009af9" fill-rule="evenodd" fill-opacity="1"/>
<polyline clip-path="url(#clip042)" style="stroke:#000000; stroke-linecap:round; stroke-linejoin:round; stroke-width:4; stroke-opacity:1; fill:none" points="526.74,1136.69 526.74,1486.45 542.392,1486.45 542.392,1136.69 526.74,1136.69 "/>
<path clip-path="url(#clip042)" d="M542.392 1170.92 L542.392 1486.45 L558.044 1486.45 L558.044 1170.92 L542.392 1170.92 L542.392 1170.92  Z" fill="#009af9" fill-rule="evenodd" fill-opacity="1"/>
<polyline clip-path="url(#clip042)" style="stroke:#000000; stroke-linecap:round; stroke-linejoin:round; stroke-width:4; stroke-opacity:1; fill:none" points="542.392,1170.92 542.392,1486.45 558.044,1486.45 558.044,1170.92 542.392,1170.92 "/>
<path clip-path="url(#clip042)" d="M558.044 1209.62 L558.044 1486.45 L573.696 1486.45 L573.696 1209.62 L558.044 1209.62 L558.044 1209.62  Z" fill="#009af9" fill-rule="evenodd" fill-opacity="1"/>
<polyline clip-path="url(#clip042)" style="stroke:#000000; stroke-linecap:round; stroke-linejoin:round; stroke-width:4; stroke-opacity:1; fill:none" points="558.044,1209.62 558.044,1486.45 573.696,1486.45 573.696,1209.62 558.044,1209.62 "/>
<path clip-path="url(#clip042)" d="M573.696 1242.36 L573.696 1486.45 L589.348 1486.45 L589.348 1242.36 L573.696 1242.36 L573.696 1242.36  Z" fill="#009af9" fill-rule="evenodd" fill-opacity="1"/>
<polyline clip-path="url(#clip042)" style="stroke:#000000; stroke-linecap:round; stroke-linejoin:round; stroke-width:4; stroke-opacity:1; fill:none" points="573.696,1242.36 573.696,1486.45 589.348,1486.45 589.348,1242.36 573.696,1242.36 "/>
<path clip-path="url(#clip042)" d="M589.348 1297.43 L589.348 1486.45 L605 1486.45 L605 1297.43 L589.348 1297.43 L589.348 1297.43  Z" fill="#009af9" fill-rule="evenodd" fill-opacity="1"/>
<polyline clip-path="url(#clip042)" style="stroke:#000000; stroke-linecap:round; stroke-linejoin:round; stroke-width:4; stroke-opacity:1; fill:none" points="589.348,1297.43 589.348,1486.45 605,1486.45 605,1297.43 589.348,1297.43 "/>
<path clip-path="url(#clip042)" d="M605 1310.83 L605 1486.45 L620.652 1486.45 L620.652 1310.83 L605 1310.83 L605 1310.83  Z" fill="#009af9" fill-rule="evenodd" fill-opacity="1"/>
<polyline clip-path="url(#clip042)" style="stroke:#000000; stroke-linecap:round; stroke-linejoin:round; stroke-width:4; stroke-opacity:1; fill:none" points="605,1310.83 605,1486.45 620.652,1486.45 620.652,1310.83 605,1310.83 "/>
<path clip-path="url(#clip042)" d="M620.652 1324.22 L620.652 1486.45 L636.304 1486.45 L636.304 1324.22 L620.652 1324.22 L620.652 1324.22  Z" fill="#009af9" fill-rule="evenodd" fill-opacity="1"/>
<polyline clip-path="url(#clip042)" style="stroke:#000000; stroke-linecap:round; stroke-linejoin:round; stroke-width:4; stroke-opacity:1; fill:none" points="620.652,1324.22 620.652,1486.45 636.304,1486.45 636.304,1324.22 620.652,1324.22 "/>
<path clip-path="url(#clip042)" d="M636.304 1346.55 L636.304 1486.45 L651.956 1486.45 L651.956 1346.55 L636.304 1346.55 L636.304 1346.55  Z" fill="#009af9" fill-rule="evenodd" fill-opacity="1"/>
<polyline clip-path="url(#clip042)" style="stroke:#000000; stroke-linecap:round; stroke-linejoin:round; stroke-width:4; stroke-opacity:1; fill:none" points="636.304,1346.55 636.304,1486.45 651.956,1486.45 651.956,1346.55 636.304,1346.55 "/>
<path clip-path="url(#clip042)" d="M651.956 1359.94 L651.956 1486.45 L667.608 1486.45 L667.608 1359.94 L651.956 1359.94 L651.956 1359.94  Z" fill="#009af9" fill-rule="evenodd" fill-opacity="1"/>
<polyline clip-path="url(#clip042)" style="stroke:#000000; stroke-linecap:round; stroke-linejoin:round; stroke-width:4; stroke-opacity:1; fill:none" points="651.956,1359.94 651.956,1486.45 667.608,1486.45 667.608,1359.94 651.956,1359.94 "/>
<path clip-path="url(#clip042)" d="M667.608 1362.92 L667.608 1486.45 L683.26 1486.45 L683.26 1362.92 L667.608 1362.92 L667.608 1362.92  Z" fill="#009af9" fill-rule="evenodd" fill-opacity="1"/>
<polyline clip-path="url(#clip042)" style="stroke:#000000; stroke-linecap:round; stroke-linejoin:round; stroke-width:4; stroke-opacity:1; fill:none" points="667.608,1362.92 667.608,1486.45 683.26,1486.45 683.26,1362.92 667.608,1362.92 "/>
<path clip-path="url(#clip042)" d="M683.26 1376.31 L683.26 1486.45 L698.912 1486.45 L698.912 1376.31 L683.26 1376.31 L683.26 1376.31  Z" fill="#009af9" fill-rule="evenodd" fill-opacity="1"/>
<polyline clip-path="url(#clip042)" style="stroke:#000000; stroke-linecap:round; stroke-linejoin:round; stroke-width:4; stroke-opacity:1; fill:none" points="683.26,1376.31 683.26,1486.45 698.912,1486.45 698.912,1376.31 683.26,1376.31 "/>
<path clip-path="url(#clip042)" d="M698.912 1373.34 L698.912 1486.45 L714.564 1486.45 L714.564 1373.34 L698.912 1373.34 L698.912 1373.34  Z" fill="#009af9" fill-rule="evenodd" fill-opacity="1"/>
<polyline clip-path="url(#clip042)" style="stroke:#000000; stroke-linecap:round; stroke-linejoin:round; stroke-width:4; stroke-opacity:1; fill:none" points="698.912,1373.34 698.912,1486.45 714.564,1486.45 714.564,1373.34 698.912,1373.34 "/>
<path clip-path="url(#clip042)" d="M714.564 1397.15 L714.564 1486.45 L730.216 1486.45 L730.216 1397.15 L714.564 1397.15 L714.564 1397.15  Z" fill="#009af9" fill-rule="evenodd" fill-opacity="1"/>
<polyline clip-path="url(#clip042)" style="stroke:#000000; stroke-linecap:round; stroke-linejoin:round; stroke-width:4; stroke-opacity:1; fill:none" points="714.564,1397.15 714.564,1486.45 730.216,1486.45 730.216,1397.15 714.564,1397.15 "/>
<path clip-path="url(#clip042)" d="M730.216 1380.78 L730.216 1486.45 L745.868 1486.45 L745.868 1380.78 L730.216 1380.78 L730.216 1380.78  Z" fill="#009af9" fill-rule="evenodd" fill-opacity="1"/>
<polyline clip-path="url(#clip042)" style="stroke:#000000; stroke-linecap:round; stroke-linejoin:round; stroke-width:4; stroke-opacity:1; fill:none" points="730.216,1380.78 730.216,1486.45 745.868,1486.45 745.868,1380.78 730.216,1380.78 "/>
<path clip-path="url(#clip042)" d="M745.868 1404.59 L745.868 1486.45 L761.52 1486.45 L761.52 1404.59 L745.868 1404.59 L745.868 1404.59  Z" fill="#009af9" fill-rule="evenodd" fill-opacity="1"/>
<polyline clip-path="url(#clip042)" style="stroke:#000000; stroke-linecap:round; stroke-linejoin:round; stroke-width:4; stroke-opacity:1; fill:none" points="745.868,1404.59 745.868,1486.45 761.52,1486.45 761.52,1404.59 745.868,1404.59 "/>
<path clip-path="url(#clip042)" d="M761.52 1429.89 L761.52 1486.45 L777.172 1486.45 L777.172 1429.89 L761.52 1429.89 L761.52 1429.89  Z" fill="#009af9" fill-rule="evenodd" fill-opacity="1"/>
<polyline clip-path="url(#clip042)" style="stroke:#000000; stroke-linecap:round; stroke-linejoin:round; stroke-width:4; stroke-opacity:1; fill:none" points="761.52,1429.89 761.52,1486.45 777.172,1486.45 777.172,1429.89 761.52,1429.89 "/>
<path clip-path="url(#clip042)" d="M777.172 1415.01 L777.172 1486.45 L792.824 1486.45 L792.824 1415.01 L777.172 1415.01 L777.172 1415.01  Z" fill="#009af9" fill-rule="evenodd" fill-opacity="1"/>
<polyline clip-path="url(#clip042)" style="stroke:#000000; stroke-linecap:round; stroke-linejoin:round; stroke-width:4; stroke-opacity:1; fill:none" points="777.172,1415.01 777.172,1486.45 792.824,1486.45 792.824,1415.01 777.172,1415.01 "/>
<path clip-path="url(#clip042)" d="M792.824 1447.75 L792.824 1486.45 L808.476 1486.45 L808.476 1447.75 L792.824 1447.75 L792.824 1447.75  Z" fill="#009af9" fill-rule="evenodd" fill-opacity="1"/>
<polyline clip-path="url(#clip042)" style="stroke:#000000; stroke-linecap:round; stroke-linejoin:round; stroke-width:4; stroke-opacity:1; fill:none" points="792.824,1447.75 792.824,1486.45 808.476,1486.45 808.476,1447.75 792.824,1447.75 "/>
<path clip-path="url(#clip042)" d="M808.476 1434.36 L808.476 1486.45 L824.129 1486.45 L824.129 1434.36 L808.476 1434.36 L808.476 1434.36  Z" fill="#009af9" fill-rule="evenodd" fill-opacity="1"/>
<polyline clip-path="url(#clip042)" style="stroke:#000000; stroke-linecap:round; stroke-linejoin:round; stroke-width:4; stroke-opacity:1; fill:none" points="808.476,1434.36 808.476,1486.45 824.129,1486.45 824.129,1434.36 808.476,1434.36 "/>
<path clip-path="url(#clip042)" d="M824.129 1431.38 L824.129 1486.45 L839.781 1486.45 L839.781 1431.38 L824.129 1431.38 L824.129 1431.38  Z" fill="#009af9" fill-rule="evenodd" fill-opacity="1"/>
<polyline clip-path="url(#clip042)" style="stroke:#000000; stroke-linecap:round; stroke-linejoin:round; stroke-width:4; stroke-opacity:1; fill:none" points="824.129,1431.38 824.129,1486.45 839.781,1486.45 839.781,1431.38 824.129,1431.38 "/>
<path clip-path="url(#clip042)" d="M839.781 1441.8 L839.781 1486.45 L855.433 1486.45 L855.433 1441.8 L839.781 1441.8 L839.781 1441.8  Z" fill="#009af9" fill-rule="evenodd" fill-opacity="1"/>
<polyline clip-path="url(#clip042)" style="stroke:#000000; stroke-linecap:round; stroke-linejoin:round; stroke-width:4; stroke-opacity:1; fill:none" points="839.781,1441.8 839.781,1486.45 855.433,1486.45 855.433,1441.8 839.781,1441.8 "/>
<path clip-path="url(#clip042)" d="M855.433 1459.66 L855.433 1486.45 L871.085 1486.45 L871.085 1459.66 L855.433 1459.66 L855.433 1459.66  Z" fill="#009af9" fill-rule="evenodd" fill-opacity="1"/>
<polyline clip-path="url(#clip042)" style="stroke:#000000; stroke-linecap:round; stroke-linejoin:round; stroke-width:4; stroke-opacity:1; fill:none" points="855.433,1459.66 855.433,1486.45 871.085,1486.45 871.085,1459.66 855.433,1459.66 "/>
<path clip-path="url(#clip042)" d="M871.085 1449.24 L871.085 1486.45 L886.737 1486.45 L886.737 1449.24 L871.085 1449.24 L871.085 1449.24  Z" fill="#009af9" fill-rule="evenodd" fill-opacity="1"/>
<polyline clip-path="url(#clip042)" style="stroke:#000000; stroke-linecap:round; stroke-linejoin:round; stroke-width:4; stroke-opacity:1; fill:none" points="871.085,1449.24 871.085,1486.45 886.737,1486.45 886.737,1449.24 871.085,1449.24 "/>
<path clip-path="url(#clip042)" d="M886.737 1444.77 L886.737 1486.45 L902.389 1486.45 L902.389 1444.77 L886.737 1444.77 L886.737 1444.77  Z" fill="#009af9" fill-rule="evenodd" fill-opacity="1"/>
<polyline clip-path="url(#clip042)" style="stroke:#000000; stroke-linecap:round; stroke-linejoin:round; stroke-width:4; stroke-opacity:1; fill:none" points="886.737,1444.77 886.737,1486.45 902.389,1486.45 902.389,1444.77 886.737,1444.77 "/>
<path clip-path="url(#clip042)" d="M902.389 1462.63 L902.389 1486.45 L918.041 1486.45 L918.041 1462.63 L902.389 1462.63 L902.389 1462.63  Z" fill="#009af9" fill-rule="evenodd" fill-opacity="1"/>
<polyline clip-path="url(#clip042)" style="stroke:#000000; stroke-linecap:round; stroke-linejoin:round; stroke-width:4; stroke-opacity:1; fill:none" points="902.389,1462.63 902.389,1486.45 918.041,1486.45 918.041,1462.63 902.389,1462.63 "/>
<path clip-path="url(#clip042)" d="M918.041 1452.22 L918.041 1486.45 L933.693 1486.45 L933.693 1452.22 L918.041 1452.22 L918.041 1452.22  Z" fill="#009af9" fill-rule="evenodd" fill-opacity="1"/>
<polyline clip-path="url(#clip042)" style="stroke:#000000; stroke-linecap:round; stroke-linejoin:round; stroke-width:4; stroke-opacity:1; fill:none" points="918.041,1452.22 918.041,1486.45 933.693,1486.45 933.693,1452.22 918.041,1452.22 "/>
<path clip-path="url(#clip042)" d="M933.693 1464.12 L933.693 1486.45 L949.345 1486.45 L949.345 1464.12 L933.693 1464.12 L933.693 1464.12  Z" fill="#009af9" fill-rule="evenodd" fill-opacity="1"/>
<polyline clip-path="url(#clip042)" style="stroke:#000000; stroke-linecap:round; stroke-linejoin:round; stroke-width:4; stroke-opacity:1; fill:none" points="933.693,1464.12 933.693,1486.45 949.345,1486.45 949.345,1464.12 933.693,1464.12 "/>
<path clip-path="url(#clip042)" d="M949.345 1465.61 L949.345 1486.45 L964.997 1486.45 L964.997 1465.61 L949.345 1465.61 L949.345 1465.61  Z" fill="#009af9" fill-rule="evenodd" fill-opacity="1"/>
<polyline clip-path="url(#clip042)" style="stroke:#000000; stroke-linecap:round; stroke-linejoin:round; stroke-width:4; stroke-opacity:1; fill:none" points="949.345,1465.61 949.345,1486.45 964.997,1486.45 964.997,1465.61 949.345,1465.61 "/>
<path clip-path="url(#clip042)" d="M964.997 1465.61 L964.997 1486.45 L980.649 1486.45 L980.649 1465.61 L964.997 1465.61 L964.997 1465.61  Z" fill="#009af9" fill-rule="evenodd" fill-opacity="1"/>
<polyline clip-path="url(#clip042)" style="stroke:#000000; stroke-linecap:round; stroke-linejoin:round; stroke-width:4; stroke-opacity:1; fill:none" points="964.997,1465.61 964.997,1486.45 980.649,1486.45 980.649,1465.61 964.997,1465.61 "/>
<path clip-path="url(#clip042)" d="M980.649 1470.08 L980.649 1486.45 L996.301 1486.45 L996.301 1470.08 L980.649 1470.08 L980.649 1470.08  Z" fill="#009af9" fill-rule="evenodd" fill-opacity="1"/>
<polyline clip-path="url(#clip042)" style="stroke:#000000; stroke-linecap:round; stroke-linejoin:round; stroke-width:4; stroke-opacity:1; fill:none" points="980.649,1470.08 980.649,1486.45 996.301,1486.45 996.301,1470.08 980.649,1470.08 "/>
<path clip-path="url(#clip042)" d="M996.301 1470.08 L996.301 1486.45 L1011.95 1486.45 L1011.95 1470.08 L996.301 1470.08 L996.301 1470.08  Z" fill="#009af9" fill-rule="evenodd" fill-opacity="1"/>
<polyline clip-path="url(#clip042)" style="stroke:#000000; stroke-linecap:round; stroke-linejoin:round; stroke-width:4; stroke-opacity:1; fill:none" points="996.301,1470.08 996.301,1486.45 1011.95,1486.45 1011.95,1470.08 996.301,1470.08 "/>
<path clip-path="url(#clip042)" d="M1011.95 1473.05 L1011.95 1486.45 L1027.6 1486.45 L1027.6 1473.05 L1011.95 1473.05 L1011.95 1473.05  Z" fill="#009af9" fill-rule="evenodd" fill-opacity="1"/>
<polyline clip-path="url(#clip042)" style="stroke:#000000; stroke-linecap:round; stroke-linejoin:round; stroke-width:4; stroke-opacity:1; fill:none" points="1011.95,1473.05 1011.95,1486.45 1027.6,1486.45 1027.6,1473.05 1011.95,1473.05 "/>
<path clip-path="url(#clip042)" d="M1027.6 1476.03 L1027.6 1486.45 L1043.26 1486.45 L1043.26 1476.03 L1027.6 1476.03 L1027.6 1476.03  Z" fill="#009af9" fill-rule="evenodd" fill-opacity="1"/>
<polyline clip-path="url(#clip042)" style="stroke:#000000; stroke-linecap:round; stroke-linejoin:round; stroke-width:4; stroke-opacity:1; fill:none" points="1027.6,1476.03 1027.6,1486.45 1043.26,1486.45 1043.26,1476.03 1027.6,1476.03 "/>
<path clip-path="url(#clip042)" d="M1043.26 1479.01 L1043.26 1486.45 L1058.91 1486.45 L1058.91 1479.01 L1043.26 1479.01 L1043.26 1479.01  Z" fill="#009af9" fill-rule="evenodd" fill-opacity="1"/>
<polyline clip-path="url(#clip042)" style="stroke:#000000; stroke-linecap:round; stroke-linejoin:round; stroke-width:4; stroke-opacity:1; fill:none" points="1043.26,1479.01 1043.26,1486.45 1058.91,1486.45 1058.91,1479.01 1043.26,1479.01 "/>
<path clip-path="url(#clip042)" d="M1058.91 1479.01 L1058.91 1486.45 L1074.56 1486.45 L1074.56 1479.01 L1058.91 1479.01 L1058.91 1479.01  Z" fill="#009af9" fill-rule="evenodd" fill-opacity="1"/>
<polyline clip-path="url(#clip042)" style="stroke:#000000; stroke-linecap:round; stroke-linejoin:round; stroke-width:4; stroke-opacity:1; fill:none" points="1058.91,1479.01 1058.91,1486.45 1074.56,1486.45 1074.56,1479.01 1058.91,1479.01 "/>
<path clip-path="url(#clip042)" d="M1074.56 1474.54 L1074.56 1486.45 L1090.21 1486.45 L1090.21 1474.54 L1074.56 1474.54 L1074.56 1474.54  Z" fill="#009af9" fill-rule="evenodd" fill-opacity="1"/>
<polyline clip-path="url(#clip042)" style="stroke:#000000; stroke-linecap:round; stroke-linejoin:round; stroke-width:4; stroke-opacity:1; fill:none" points="1074.56,1474.54 1074.56,1486.45 1090.21,1486.45 1090.21,1474.54 1074.56,1474.54 "/>
<path clip-path="url(#clip042)" d="M1090.21 1480.49 L1090.21 1486.45 L1105.87 1486.45 L1105.87 1480.49 L1090.21 1480.49 L1090.21 1480.49  Z" fill="#009af9" fill-rule="evenodd" fill-opacity="1"/>
<polyline clip-path="url(#clip042)" style="stroke:#000000; stroke-linecap:round; stroke-linejoin:round; stroke-width:4; stroke-opacity:1; fill:none" points="1090.21,1480.49 1090.21,1486.45 1105.87,1486.45 1105.87,1480.49 1090.21,1480.49 "/>
<path clip-path="url(#clip042)" d="M1105.87 1486.45 L1105.87 1486.45 L1121.52 1486.45 L1121.52 1486.45 L1105.87 1486.45 L1105.87 1486.45  Z" fill="#009af9" fill-rule="evenodd" fill-opacity="1"/>
<polyline clip-path="url(#clip042)" style="stroke:#000000; stroke-linecap:round; stroke-linejoin:round; stroke-width:4; stroke-opacity:1; fill:none" points="1105.87,1486.45 1105.87,1486.45 1121.52,1486.45 1105.87,1486.45 "/>
<path clip-path="url(#clip042)" d="M1121.52 1474.54 L1121.52 1486.45 L1137.17 1486.45 L1137.17 1474.54 L1121.52 1474.54 L1121.52 1474.54  Z" fill="#009af9" fill-rule="evenodd" fill-opacity="1"/>
<polyline clip-path="url(#clip042)" style="stroke:#000000; stroke-linecap:round; stroke-linejoin:round; stroke-width:4; stroke-opacity:1; fill:none" points="1121.52,1474.54 1121.52,1486.45 1137.17,1486.45 1137.17,1474.54 1121.52,1474.54 "/>
<path clip-path="url(#clip042)" d="M1137.17 1484.96 L1137.17 1486.45 L1152.82 1486.45 L1152.82 1484.96 L1137.17 1484.96 L1137.17 1484.96  Z" fill="#009af9" fill-rule="evenodd" fill-opacity="1"/>
<polyline clip-path="url(#clip042)" style="stroke:#000000; stroke-linecap:round; stroke-linejoin:round; stroke-width:4; stroke-opacity:1; fill:none" points="1137.17,1484.96 1137.17,1486.45 1152.82,1486.45 1152.82,1484.96 1137.17,1484.96 "/>
<path clip-path="url(#clip042)" d="M1152.82 1481.98 L1152.82 1486.45 L1168.47 1486.45 L1168.47 1481.98 L1152.82 1481.98 L1152.82 1481.98  Z" fill="#009af9" fill-rule="evenodd" fill-opacity="1"/>
<polyline clip-path="url(#clip042)" style="stroke:#000000; stroke-linecap:round; stroke-linejoin:round; stroke-width:4; stroke-opacity:1; fill:none" points="1152.82,1481.98 1152.82,1486.45 1168.47,1486.45 1168.47,1481.98 1152.82,1481.98 "/>
<path clip-path="url(#clip042)" d="M1168.47 1474.54 L1168.47 1486.45 L1184.13 1486.45 L1184.13 1474.54 L1168.47 1474.54 L1168.47 1474.54  Z" fill="#009af9" fill-rule="evenodd" fill-opacity="1"/>
<polyline clip-path="url(#clip042)" style="stroke:#000000; stroke-linecap:round; stroke-linejoin:round; stroke-width:4; stroke-opacity:1; fill:none" points="1168.47,1474.54 1168.47,1486.45 1184.13,1486.45 1184.13,1474.54 1168.47,1474.54 "/>
<path clip-path="url(#clip042)" d="M1184.13 1484.96 L1184.13 1486.45 L1199.78 1486.45 L1199.78 1484.96 L1184.13 1484.96 L1184.13 1484.96  Z" fill="#009af9" fill-rule="evenodd" fill-opacity="1"/>
<polyline clip-path="url(#clip042)" style="stroke:#000000; stroke-linecap:round; stroke-linejoin:round; stroke-width:4; stroke-opacity:1; fill:none" points="1184.13,1484.96 1184.13,1486.45 1199.78,1486.45 1199.78,1484.96 1184.13,1484.96 "/>
<path clip-path="url(#clip042)" d="M1199.78 1486.45 L1199.78 1486.45 L1215.43 1486.45 L1215.43 1486.45 L1199.78 1486.45 L1199.78 1486.45  Z" fill="#009af9" fill-rule="evenodd" fill-opacity="1"/>
<polyline clip-path="url(#clip042)" style="stroke:#000000; stroke-linecap:round; stroke-linejoin:round; stroke-width:4; stroke-opacity:1; fill:none" points="1199.78,1486.45 1199.78,1486.45 1215.43,1486.45 1199.78,1486.45 "/>
<path clip-path="url(#clip042)" d="M1215.43 1483.47 L1215.43 1486.45 L1231.08 1486.45 L1231.08 1483.47 L1215.43 1483.47 L1215.43 1483.47  Z" fill="#009af9" fill-rule="evenodd" fill-opacity="1"/>
<polyline clip-path="url(#clip042)" style="stroke:#000000; stroke-linecap:round; stroke-linejoin:round; stroke-width:4; stroke-opacity:1; fill:none" points="1215.43,1483.47 1215.43,1486.45 1231.08,1486.45 1231.08,1483.47 1215.43,1483.47 "/>
<path clip-path="url(#clip042)" d="M1231.08 1484.96 L1231.08 1486.45 L1246.73 1486.45 L1246.73 1484.96 L1231.08 1484.96 L1231.08 1484.96  Z" fill="#009af9" fill-rule="evenodd" fill-opacity="1"/>
<polyline clip-path="url(#clip042)" style="stroke:#000000; stroke-linecap:round; stroke-linejoin:round; stroke-width:4; stroke-opacity:1; fill:none" points="1231.08,1484.96 1231.08,1486.45 1246.73,1486.45 1246.73,1484.96 1231.08,1484.96 "/>
<path clip-path="url(#clip042)" d="M1246.73 1486.45 L1246.73 1486.45 L1262.39 1486.45 L1262.39 1486.45 L1246.73 1486.45 L1246.73 1486.45  Z" fill="#009af9" fill-rule="evenodd" fill-opacity="1"/>
<polyline clip-path="url(#clip042)" style="stroke:#000000; stroke-linecap:round; stroke-linejoin:round; stroke-width:4; stroke-opacity:1; fill:none" points="1246.73,1486.45 1246.73,1486.45 1262.39,1486.45 1246.73,1486.45 "/>
<path clip-path="url(#clip042)" d="M1262.39 1484.96 L1262.39 1486.45 L1278.04 1486.45 L1278.04 1484.96 L1262.39 1484.96 L1262.39 1484.96  Z" fill="#009af9" fill-rule="evenodd" fill-opacity="1"/>
<polyline clip-path="url(#clip042)" style="stroke:#000000; stroke-linecap:round; stroke-linejoin:round; stroke-width:4; stroke-opacity:1; fill:none" points="1262.39,1484.96 1262.39,1486.45 1278.04,1486.45 1278.04,1484.96 1262.39,1484.96 "/>
<path clip-path="url(#clip042)" d="M1278.04 1484.96 L1278.04 1486.45 L1293.69 1486.45 L1293.69 1484.96 L1278.04 1484.96 L1278.04 1484.96  Z" fill="#009af9" fill-rule="evenodd" fill-opacity="1"/>
<polyline clip-path="url(#clip042)" style="stroke:#000000; stroke-linecap:round; stroke-linejoin:round; stroke-width:4; stroke-opacity:1; fill:none" points="1278.04,1484.96 1278.04,1486.45 1293.69,1486.45 1293.69,1484.96 1278.04,1484.96 "/>
<path clip-path="url(#clip042)" d="M1293.69 1483.47 L1293.69 1486.45 L1309.34 1486.45 L1309.34 1483.47 L1293.69 1483.47 L1293.69 1483.47  Z" fill="#009af9" fill-rule="evenodd" fill-opacity="1"/>
<polyline clip-path="url(#clip042)" style="stroke:#000000; stroke-linecap:round; stroke-linejoin:round; stroke-width:4; stroke-opacity:1; fill:none" points="1293.69,1483.47 1293.69,1486.45 1309.34,1486.45 1309.34,1483.47 1293.69,1483.47 "/>
<path clip-path="url(#clip042)" d="M1309.34 1486.45 L1309.34 1486.45 L1324.99 1486.45 L1324.99 1486.45 L1309.34 1486.45 L1309.34 1486.45  Z" fill="#009af9" fill-rule="evenodd" fill-opacity="1"/>
<polyline clip-path="url(#clip042)" style="stroke:#000000; stroke-linecap:round; stroke-linejoin:round; stroke-width:4; stroke-opacity:1; fill:none" points="1309.34,1486.45 1309.34,1486.45 1324.99,1486.45 1309.34,1486.45 "/>
<path clip-path="url(#clip042)" d="M1324.99 1481.98 L1324.99 1486.45 L1340.65 1486.45 L1340.65 1481.98 L1324.99 1481.98 L1324.99 1481.98  Z" fill="#009af9" fill-rule="evenodd" fill-opacity="1"/>
<polyline clip-path="url(#clip042)" style="stroke:#000000; stroke-linecap:round; stroke-linejoin:round; stroke-width:4; stroke-opacity:1; fill:none" points="1324.99,1481.98 1324.99,1486.45 1340.65,1486.45 1340.65,1481.98 1324.99,1481.98 "/>
<path clip-path="url(#clip042)" d="M1340.65 1484.96 L1340.65 1486.45 L1356.3 1486.45 L1356.3 1484.96 L1340.65 1484.96 L1340.65 1484.96  Z" fill="#009af9" fill-rule="evenodd" fill-opacity="1"/>
<polyline clip-path="url(#clip042)" style="stroke:#000000; stroke-linecap:round; stroke-linejoin:round; stroke-width:4; stroke-opacity:1; fill:none" points="1340.65,1484.96 1340.65,1486.45 1356.3,1486.45 1356.3,1484.96 1340.65,1484.96 "/>
<path clip-path="url(#clip042)" d="M1356.3 1486.45 L1356.3 1486.45 L1371.95 1486.45 L1371.95 1486.45 L1356.3 1486.45 L1356.3 1486.45  Z" fill="#009af9" fill-rule="evenodd" fill-opacity="1"/>
<polyline clip-path="url(#clip042)" style="stroke:#000000; stroke-linecap:round; stroke-linejoin:round; stroke-width:4; stroke-opacity:1; fill:none" points="1356.3,1486.45 1356.3,1486.45 1371.95,1486.45 1356.3,1486.45 "/>
<path clip-path="url(#clip042)" d="M1371.95 1484.96 L1371.95 1486.45 L1387.6 1486.45 L1387.6 1484.96 L1371.95 1484.96 L1371.95 1484.96  Z" fill="#009af9" fill-rule="evenodd" fill-opacity="1"/>
<polyline clip-path="url(#clip042)" style="stroke:#000000; stroke-linecap:round; stroke-linejoin:round; stroke-width:4; stroke-opacity:1; fill:none" points="1371.95,1484.96 1371.95,1486.45 1387.6,1486.45 1387.6,1484.96 1371.95,1484.96 "/>
<path clip-path="url(#clip042)" d="M1387.6 1484.96 L1387.6 1486.45 L1403.25 1486.45 L1403.25 1484.96 L1387.6 1484.96 L1387.6 1484.96  Z" fill="#009af9" fill-rule="evenodd" fill-opacity="1"/>
<polyline clip-path="url(#clip042)" style="stroke:#000000; stroke-linecap:round; stroke-linejoin:round; stroke-width:4; stroke-opacity:1; fill:none" points="1387.6,1484.96 1387.6,1486.45 1403.25,1486.45 1403.25,1484.96 1387.6,1484.96 "/>
<path clip-path="url(#clip042)" d="M1403.25 1484.96 L1403.25 1486.45 L1418.91 1486.45 L1418.91 1484.96 L1403.25 1484.96 L1403.25 1484.96  Z" fill="#009af9" fill-rule="evenodd" fill-opacity="1"/>
<polyline clip-path="url(#clip042)" style="stroke:#000000; stroke-linecap:round; stroke-linejoin:round; stroke-width:4; stroke-opacity:1; fill:none" points="1403.25,1484.96 1403.25,1486.45 1418.91,1486.45 1418.91,1484.96 1403.25,1484.96 "/>
<path clip-path="url(#clip042)" d="M1418.91 1483.47 L1418.91 1486.45 L1434.56 1486.45 L1434.56 1483.47 L1418.91 1483.47 L1418.91 1483.47  Z" fill="#009af9" fill-rule="evenodd" fill-opacity="1"/>
<polyline clip-path="url(#clip042)" style="stroke:#000000; stroke-linecap:round; stroke-linejoin:round; stroke-width:4; stroke-opacity:1; fill:none" points="1418.91,1483.47 1418.91,1486.45 1434.56,1486.45 1434.56,1483.47 1418.91,1483.47 "/>
<path clip-path="url(#clip042)" d="M1434.56 1486.45 L1434.56 1486.45 L1450.21 1486.45 L1450.21 1486.45 L1434.56 1486.45 L1434.56 1486.45  Z" fill="#009af9" fill-rule="evenodd" fill-opacity="1"/>
<polyline clip-path="url(#clip042)" style="stroke:#000000; stroke-linecap:round; stroke-linejoin:round; stroke-width:4; stroke-opacity:1; fill:none" points="1434.56,1486.45 1434.56,1486.45 1450.21,1486.45 1434.56,1486.45 "/>
<path clip-path="url(#clip042)" d="M1450.21 1486.45 L1450.21 1486.45 L1465.86 1486.45 L1465.86 1486.45 L1450.21 1486.45 L1450.21 1486.45  Z" fill="#009af9" fill-rule="evenodd" fill-opacity="1"/>
<polyline clip-path="url(#clip042)" style="stroke:#000000; stroke-linecap:round; stroke-linejoin:round; stroke-width:4; stroke-opacity:1; fill:none" points="1450.21,1486.45 1450.21,1486.45 1465.86,1486.45 1450.21,1486.45 "/>
<path clip-path="url(#clip042)" d="M1465.86 1484.96 L1465.86 1486.45 L1481.51 1486.45 L1481.51 1484.96 L1465.86 1484.96 L1465.86 1484.96  Z" fill="#009af9" fill-rule="evenodd" fill-opacity="1"/>
<polyline clip-path="url(#clip042)" style="stroke:#000000; stroke-linecap:round; stroke-linejoin:round; stroke-width:4; stroke-opacity:1; fill:none" points="1465.86,1484.96 1465.86,1486.45 1481.51,1486.45 1481.51,1484.96 1465.86,1484.96 "/>
<path clip-path="url(#clip042)" d="M1481.51 1484.96 L1481.51 1486.45 L1497.17 1486.45 L1497.17 1484.96 L1481.51 1484.96 L1481.51 1484.96  Z" fill="#009af9" fill-rule="evenodd" fill-opacity="1"/>
<polyline clip-path="url(#clip042)" style="stroke:#000000; stroke-linecap:round; stroke-linejoin:round; stroke-width:4; stroke-opacity:1; fill:none" points="1481.51,1484.96 1481.51,1486.45 1497.17,1486.45 1497.17,1484.96 1481.51,1484.96 "/>
<path clip-path="url(#clip042)" d="M1497.17 1484.96 L1497.17 1486.45 L1512.82 1486.45 L1512.82 1484.96 L1497.17 1484.96 L1497.17 1484.96  Z" fill="#009af9" fill-rule="evenodd" fill-opacity="1"/>
<polyline clip-path="url(#clip042)" style="stroke:#000000; stroke-linecap:round; stroke-linejoin:round; stroke-width:4; stroke-opacity:1; fill:none" points="1497.17,1484.96 1497.17,1486.45 1512.82,1486.45 1512.82,1484.96 1497.17,1484.96 "/>
<path clip-path="url(#clip042)" d="M1512.82 1484.96 L1512.82 1486.45 L1528.47 1486.45 L1528.47 1484.96 L1512.82 1484.96 L1512.82 1484.96  Z" fill="#009af9" fill-rule="evenodd" fill-opacity="1"/>
<polyline clip-path="url(#clip042)" style="stroke:#000000; stroke-linecap:round; stroke-linejoin:round; stroke-width:4; stroke-opacity:1; fill:none" points="1512.82,1484.96 1512.82,1486.45 1528.47,1486.45 1528.47,1484.96 1512.82,1484.96 "/>
<path clip-path="url(#clip042)" d="M1528.47 1483.47 L1528.47 1486.45 L1544.12 1486.45 L1544.12 1483.47 L1528.47 1483.47 L1528.47 1483.47  Z" fill="#009af9" fill-rule="evenodd" fill-opacity="1"/>
<polyline clip-path="url(#clip042)" style="stroke:#000000; stroke-linecap:round; stroke-linejoin:round; stroke-width:4; stroke-opacity:1; fill:none" points="1528.47,1483.47 1528.47,1486.45 1544.12,1486.45 1544.12,1483.47 1528.47,1483.47 "/>
<path clip-path="url(#clip042)" d="M1544.12 1486.45 L1544.12 1486.45 L1559.77 1486.45 L1559.77 1486.45 L1544.12 1486.45 L1544.12 1486.45  Z" fill="#009af9" fill-rule="evenodd" fill-opacity="1"/>
<polyline clip-path="url(#clip042)" style="stroke:#000000; stroke-linecap:round; stroke-linejoin:round; stroke-width:4; stroke-opacity:1; fill:none" points="1544.12,1486.45 1544.12,1486.45 1559.77,1486.45 1544.12,1486.45 "/>
<path clip-path="url(#clip042)" d="M1559.77 1483.47 L1559.77 1486.45 L1575.43 1486.45 L1575.43 1483.47 L1559.77 1483.47 L1559.77 1483.47  Z" fill="#009af9" fill-rule="evenodd" fill-opacity="1"/>
<polyline clip-path="url(#clip042)" style="stroke:#000000; stroke-linecap:round; stroke-linejoin:round; stroke-width:4; stroke-opacity:1; fill:none" points="1559.77,1483.47 1559.77,1486.45 1575.43,1486.45 1575.43,1483.47 1559.77,1483.47 "/>
<path clip-path="url(#clip042)" d="M1575.43 1486.45 L1575.43 1486.45 L1591.08 1486.45 L1591.08 1486.45 L1575.43 1486.45 L1575.43 1486.45  Z" fill="#009af9" fill-rule="evenodd" fill-opacity="1"/>
<polyline clip-path="url(#clip042)" style="stroke:#000000; stroke-linecap:round; stroke-linejoin:round; stroke-width:4; stroke-opacity:1; fill:none" points="1575.43,1486.45 1575.43,1486.45 1591.08,1486.45 1575.43,1486.45 "/>
<path clip-path="url(#clip042)" d="M1591.08 1484.96 L1591.08 1486.45 L1606.73 1486.45 L1606.73 1484.96 L1591.08 1484.96 L1591.08 1484.96  Z" fill="#009af9" fill-rule="evenodd" fill-opacity="1"/>
<polyline clip-path="url(#clip042)" style="stroke:#000000; stroke-linecap:round; stroke-linejoin:round; stroke-width:4; stroke-opacity:1; fill:none" points="1591.08,1484.96 1591.08,1486.45 1606.73,1486.45 1606.73,1484.96 1591.08,1484.96 "/>
<path clip-path="url(#clip042)" d="M1606.73 1486.45 L1606.73 1486.45 L1622.38 1486.45 L1622.38 1486.45 L1606.73 1486.45 L1606.73 1486.45  Z" fill="#009af9" fill-rule="evenodd" fill-opacity="1"/>
<polyline clip-path="url(#clip042)" style="stroke:#000000; stroke-linecap:round; stroke-linejoin:round; stroke-width:4; stroke-opacity:1; fill:none" points="1606.73,1486.45 1606.73,1486.45 1622.38,1486.45 1606.73,1486.45 "/>
<path clip-path="url(#clip042)" d="M1622.38 1486.45 L1622.38 1486.45 L1638.03 1486.45 L1638.03 1486.45 L1622.38 1486.45 L1622.38 1486.45  Z" fill="#009af9" fill-rule="evenodd" fill-opacity="1"/>
<polyline clip-path="url(#clip042)" style="stroke:#000000; stroke-linecap:round; stroke-linejoin:round; stroke-width:4; stroke-opacity:1; fill:none" points="1622.38,1486.45 1622.38,1486.45 1638.03,1486.45 1622.38,1486.45 "/>
<path clip-path="url(#clip042)" d="M1638.03 1486.45 L1638.03 1486.45 L1653.69 1486.45 L1653.69 1486.45 L1638.03 1486.45 L1638.03 1486.45  Z" fill="#009af9" fill-rule="evenodd" fill-opacity="1"/>
<polyline clip-path="url(#clip042)" style="stroke:#000000; stroke-linecap:round; stroke-linejoin:round; stroke-width:4; stroke-opacity:1; fill:none" points="1638.03,1486.45 1638.03,1486.45 1653.69,1486.45 1638.03,1486.45 "/>
<path clip-path="url(#clip042)" d="M1653.69 1486.45 L1653.69 1486.45 L1669.34 1486.45 L1669.34 1486.45 L1653.69 1486.45 L1653.69 1486.45  Z" fill="#009af9" fill-rule="evenodd" fill-opacity="1"/>
<polyline clip-path="url(#clip042)" style="stroke:#000000; stroke-linecap:round; stroke-linejoin:round; stroke-width:4; stroke-opacity:1; fill:none" points="1653.69,1486.45 1653.69,1486.45 1669.34,1486.45 1653.69,1486.45 "/>
<path clip-path="url(#clip042)" d="M1669.34 1486.45 L1669.34 1486.45 L1684.99 1486.45 L1684.99 1486.45 L1669.34 1486.45 L1669.34 1486.45  Z" fill="#009af9" fill-rule="evenodd" fill-opacity="1"/>
<polyline clip-path="url(#clip042)" style="stroke:#000000; stroke-linecap:round; stroke-linejoin:round; stroke-width:4; stroke-opacity:1; fill:none" points="1669.34,1486.45 1669.34,1486.45 1684.99,1486.45 1669.34,1486.45 "/>
<path clip-path="url(#clip042)" d="M1684.99 1486.45 L1684.99 1486.45 L1700.64 1486.45 L1700.64 1486.45 L1684.99 1486.45 L1684.99 1486.45  Z" fill="#009af9" fill-rule="evenodd" fill-opacity="1"/>
<polyline clip-path="url(#clip042)" style="stroke:#000000; stroke-linecap:round; stroke-linejoin:round; stroke-width:4; stroke-opacity:1; fill:none" points="1684.99,1486.45 1684.99,1486.45 1700.64,1486.45 1684.99,1486.45 "/>
<path clip-path="url(#clip042)" d="M1700.64 1486.45 L1700.64 1486.45 L1716.29 1486.45 L1716.29 1486.45 L1700.64 1486.45 L1700.64 1486.45  Z" fill="#009af9" fill-rule="evenodd" fill-opacity="1"/>
<polyline clip-path="url(#clip042)" style="stroke:#000000; stroke-linecap:round; stroke-linejoin:round; stroke-width:4; stroke-opacity:1; fill:none" points="1700.64,1486.45 1700.64,1486.45 1716.29,1486.45 1700.64,1486.45 "/>
<path clip-path="url(#clip042)" d="M1716.29 1486.45 L1716.29 1486.45 L1731.95 1486.45 L1731.95 1486.45 L1716.29 1486.45 L1716.29 1486.45  Z" fill="#009af9" fill-rule="evenodd" fill-opacity="1"/>
<polyline clip-path="url(#clip042)" style="stroke:#000000; stroke-linecap:round; stroke-linejoin:round; stroke-width:4; stroke-opacity:1; fill:none" points="1716.29,1486.45 1716.29,1486.45 1731.95,1486.45 1716.29,1486.45 "/>
<path clip-path="url(#clip042)" d="M1731.95 1486.45 L1731.95 1486.45 L1747.6 1486.45 L1747.6 1486.45 L1731.95 1486.45 L1731.95 1486.45  Z" fill="#009af9" fill-rule="evenodd" fill-opacity="1"/>
<polyline clip-path="url(#clip042)" style="stroke:#000000; stroke-linecap:round; stroke-linejoin:round; stroke-width:4; stroke-opacity:1; fill:none" points="1731.95,1486.45 1731.95,1486.45 1747.6,1486.45 1731.95,1486.45 "/>
<path clip-path="url(#clip042)" d="M1747.6 1486.45 L1747.6 1486.45 L1763.25 1486.45 L1763.25 1486.45 L1747.6 1486.45 L1747.6 1486.45  Z" fill="#009af9" fill-rule="evenodd" fill-opacity="1"/>
<polyline clip-path="url(#clip042)" style="stroke:#000000; stroke-linecap:round; stroke-linejoin:round; stroke-width:4; stroke-opacity:1; fill:none" points="1747.6,1486.45 1747.6,1486.45 1763.25,1486.45 1747.6,1486.45 "/>
<path clip-path="url(#clip042)" d="M1763.25 1486.45 L1763.25 1486.45 L1778.9 1486.45 L1778.9 1486.45 L1763.25 1486.45 L1763.25 1486.45  Z" fill="#009af9" fill-rule="evenodd" fill-opacity="1"/>
<polyline clip-path="url(#clip042)" style="stroke:#000000; stroke-linecap:round; stroke-linejoin:round; stroke-width:4; stroke-opacity:1; fill:none" points="1763.25,1486.45 1763.25,1486.45 1778.9,1486.45 1763.25,1486.45 "/>
<path clip-path="url(#clip042)" d="M1778.9 1486.45 L1778.9 1486.45 L1794.55 1486.45 L1794.55 1486.45 L1778.9 1486.45 L1778.9 1486.45  Z" fill="#009af9" fill-rule="evenodd" fill-opacity="1"/>
<polyline clip-path="url(#clip042)" style="stroke:#000000; stroke-linecap:round; stroke-linejoin:round; stroke-width:4; stroke-opacity:1; fill:none" points="1778.9,1486.45 1778.9,1486.45 1794.55,1486.45 1778.9,1486.45 "/>
<path clip-path="url(#clip042)" d="M1794.55 1486.45 L1794.55 1486.45 L1810.21 1486.45 L1810.21 1486.45 L1794.55 1486.45 L1794.55 1486.45  Z" fill="#009af9" fill-rule="evenodd" fill-opacity="1"/>
<polyline clip-path="url(#clip042)" style="stroke:#000000; stroke-linecap:round; stroke-linejoin:round; stroke-width:4; stroke-opacity:1; fill:none" points="1794.55,1486.45 1794.55,1486.45 1810.21,1486.45 1794.55,1486.45 "/>
<path clip-path="url(#clip042)" d="M1810.21 1486.45 L1810.21 1486.45 L1825.86 1486.45 L1825.86 1486.45 L1810.21 1486.45 L1810.21 1486.45  Z" fill="#009af9" fill-rule="evenodd" fill-opacity="1"/>
<polyline clip-path="url(#clip042)" style="stroke:#000000; stroke-linecap:round; stroke-linejoin:round; stroke-width:4; stroke-opacity:1; fill:none" points="1810.21,1486.45 1810.21,1486.45 1825.86,1486.45 1810.21,1486.45 "/>
<path clip-path="url(#clip042)" d="M1825.86 1486.45 L1825.86 1486.45 L1841.51 1486.45 L1841.51 1486.45 L1825.86 1486.45 L1825.86 1486.45  Z" fill="#009af9" fill-rule="evenodd" fill-opacity="1"/>
<polyline clip-path="url(#clip042)" style="stroke:#000000; stroke-linecap:round; stroke-linejoin:round; stroke-width:4; stroke-opacity:1; fill:none" points="1825.86,1486.45 1825.86,1486.45 1841.51,1486.45 1825.86,1486.45 "/>
<path clip-path="url(#clip042)" d="M1841.51 1486.45 L1841.51 1486.45 L1857.16 1486.45 L1857.16 1486.45 L1841.51 1486.45 L1841.51 1486.45  Z" fill="#009af9" fill-rule="evenodd" fill-opacity="1"/>
<polyline clip-path="url(#clip042)" style="stroke:#000000; stroke-linecap:round; stroke-linejoin:round; stroke-width:4; stroke-opacity:1; fill:none" points="1841.51,1486.45 1841.51,1486.45 1857.16,1486.45 1841.51,1486.45 "/>
<path clip-path="url(#clip042)" d="M1857.16 1486.45 L1857.16 1486.45 L1872.81 1486.45 L1872.81 1486.45 L1857.16 1486.45 L1857.16 1486.45  Z" fill="#009af9" fill-rule="evenodd" fill-opacity="1"/>
<polyline clip-path="url(#clip042)" style="stroke:#000000; stroke-linecap:round; stroke-linejoin:round; stroke-width:4; stroke-opacity:1; fill:none" points="1857.16,1486.45 1857.16,1486.45 1872.81,1486.45 1857.16,1486.45 "/>
<path clip-path="url(#clip042)" d="M1872.81 1486.45 L1872.81 1486.45 L1888.47 1486.45 L1888.47 1486.45 L1872.81 1486.45 L1872.81 1486.45  Z" fill="#009af9" fill-rule="evenodd" fill-opacity="1"/>
<polyline clip-path="url(#clip042)" style="stroke:#000000; stroke-linecap:round; stroke-linejoin:round; stroke-width:4; stroke-opacity:1; fill:none" points="1872.81,1486.45 1872.81,1486.45 1888.47,1486.45 1872.81,1486.45 "/>
<path clip-path="url(#clip042)" d="M1888.47 1486.45 L1888.47 1486.45 L1904.12 1486.45 L1904.12 1486.45 L1888.47 1486.45 L1888.47 1486.45  Z" fill="#009af9" fill-rule="evenodd" fill-opacity="1"/>
<polyline clip-path="url(#clip042)" style="stroke:#000000; stroke-linecap:round; stroke-linejoin:round; stroke-width:4; stroke-opacity:1; fill:none" points="1888.47,1486.45 1888.47,1486.45 1904.12,1486.45 1888.47,1486.45 "/>
<path clip-path="url(#clip042)" d="M1904.12 1486.45 L1904.12 1486.45 L1919.77 1486.45 L1919.77 1486.45 L1904.12 1486.45 L1904.12 1486.45  Z" fill="#009af9" fill-rule="evenodd" fill-opacity="1"/>
<polyline clip-path="url(#clip042)" style="stroke:#000000; stroke-linecap:round; stroke-linejoin:round; stroke-width:4; stroke-opacity:1; fill:none" points="1904.12,1486.45 1904.12,1486.45 1919.77,1486.45 1904.12,1486.45 "/>
<path clip-path="url(#clip042)" d="M1919.77 1486.45 L1919.77 1486.45 L1935.42 1486.45 L1935.42 1486.45 L1919.77 1486.45 L1919.77 1486.45  Z" fill="#009af9" fill-rule="evenodd" fill-opacity="1"/>
<polyline clip-path="url(#clip042)" style="stroke:#000000; stroke-linecap:round; stroke-linejoin:round; stroke-width:4; stroke-opacity:1; fill:none" points="1919.77,1486.45 1919.77,1486.45 1935.42,1486.45 1919.77,1486.45 "/>
<path clip-path="url(#clip042)" d="M1935.42 1486.45 L1935.42 1486.45 L1951.07 1486.45 L1951.07 1486.45 L1935.42 1486.45 L1935.42 1486.45  Z" fill="#009af9" fill-rule="evenodd" fill-opacity="1"/>
<polyline clip-path="url(#clip042)" style="stroke:#000000; stroke-linecap:round; stroke-linejoin:round; stroke-width:4; stroke-opacity:1; fill:none" points="1935.42,1486.45 1935.42,1486.45 1951.07,1486.45 1935.42,1486.45 "/>
<path clip-path="url(#clip042)" d="M1951.07 1486.45 L1951.07 1486.45 L1966.73 1486.45 L1966.73 1486.45 L1951.07 1486.45 L1951.07 1486.45  Z" fill="#009af9" fill-rule="evenodd" fill-opacity="1"/>
<polyline clip-path="url(#clip042)" style="stroke:#000000; stroke-linecap:round; stroke-linejoin:round; stroke-width:4; stroke-opacity:1; fill:none" points="1951.07,1486.45 1951.07,1486.45 1966.73,1486.45 1951.07,1486.45 "/>
<path clip-path="url(#clip042)" d="M1966.73 1486.45 L1966.73 1486.45 L1982.38 1486.45 L1982.38 1486.45 L1966.73 1486.45 L1966.73 1486.45  Z" fill="#009af9" fill-rule="evenodd" fill-opacity="1"/>
<polyline clip-path="url(#clip042)" style="stroke:#000000; stroke-linecap:round; stroke-linejoin:round; stroke-width:4; stroke-opacity:1; fill:none" points="1966.73,1486.45 1966.73,1486.45 1982.38,1486.45 1966.73,1486.45 "/>
<path clip-path="url(#clip042)" d="M1982.38 1486.45 L1982.38 1486.45 L1998.03 1486.45 L1998.03 1486.45 L1982.38 1486.45 L1982.38 1486.45  Z" fill="#009af9" fill-rule="evenodd" fill-opacity="1"/>
<polyline clip-path="url(#clip042)" style="stroke:#000000; stroke-linecap:round; stroke-linejoin:round; stroke-width:4; stroke-opacity:1; fill:none" points="1982.38,1486.45 1982.38,1486.45 1998.03,1486.45 1982.38,1486.45 "/>
<path clip-path="url(#clip042)" d="M1998.03 1486.45 L1998.03 1486.45 L2013.68 1486.45 L2013.68 1486.45 L1998.03 1486.45 L1998.03 1486.45  Z" fill="#009af9" fill-rule="evenodd" fill-opacity="1"/>
<polyline clip-path="url(#clip042)" style="stroke:#000000; stroke-linecap:round; stroke-linejoin:round; stroke-width:4; stroke-opacity:1; fill:none" points="1998.03,1486.45 1998.03,1486.45 2013.68,1486.45 1998.03,1486.45 "/>
<path clip-path="url(#clip042)" d="M2013.68 1486.45 L2013.68 1486.45 L2029.33 1486.45 L2029.33 1486.45 L2013.68 1486.45 L2013.68 1486.45  Z" fill="#009af9" fill-rule="evenodd" fill-opacity="1"/>
<polyline clip-path="url(#clip042)" style="stroke:#000000; stroke-linecap:round; stroke-linejoin:round; stroke-width:4; stroke-opacity:1; fill:none" points="2013.68,1486.45 2013.68,1486.45 2029.33,1486.45 2013.68,1486.45 "/>
<path clip-path="url(#clip042)" d="M2029.33 1486.45 L2029.33 1486.45 L2044.99 1486.45 L2044.99 1486.45 L2029.33 1486.45 L2029.33 1486.45  Z" fill="#009af9" fill-rule="evenodd" fill-opacity="1"/>
<polyline clip-path="url(#clip042)" style="stroke:#000000; stroke-linecap:round; stroke-linejoin:round; stroke-width:4; stroke-opacity:1; fill:none" points="2029.33,1486.45 2029.33,1486.45 2044.99,1486.45 2029.33,1486.45 "/>
<path clip-path="url(#clip042)" d="M2044.99 1486.45 L2044.99 1486.45 L2060.64 1486.45 L2060.64 1486.45 L2044.99 1486.45 L2044.99 1486.45  Z" fill="#009af9" fill-rule="evenodd" fill-opacity="1"/>
<polyline clip-path="url(#clip042)" style="stroke:#000000; stroke-linecap:round; stroke-linejoin:round; stroke-width:4; stroke-opacity:1; fill:none" points="2044.99,1486.45 2044.99,1486.45 2060.64,1486.45 2044.99,1486.45 "/>
<path clip-path="url(#clip042)" d="M2060.64 1486.45 L2060.64 1486.45 L2076.29 1486.45 L2076.29 1486.45 L2060.64 1486.45 L2060.64 1486.45  Z" fill="#009af9" fill-rule="evenodd" fill-opacity="1"/>
<polyline clip-path="url(#clip042)" style="stroke:#000000; stroke-linecap:round; stroke-linejoin:round; stroke-width:4; stroke-opacity:1; fill:none" points="2060.64,1486.45 2060.64,1486.45 2076.29,1486.45 2060.64,1486.45 "/>
<path clip-path="url(#clip042)" d="M2076.29 1486.45 L2076.29 1486.45 L2091.94 1486.45 L2091.94 1486.45 L2076.29 1486.45 L2076.29 1486.45  Z" fill="#009af9" fill-rule="evenodd" fill-opacity="1"/>
<polyline clip-path="url(#clip042)" style="stroke:#000000; stroke-linecap:round; stroke-linejoin:round; stroke-width:4; stroke-opacity:1; fill:none" points="2076.29,1486.45 2076.29,1486.45 2091.94,1486.45 2076.29,1486.45 "/>
<path clip-path="url(#clip042)" d="M2091.94 1486.45 L2091.94 1486.45 L2107.6 1486.45 L2107.6 1486.45 L2091.94 1486.45 L2091.94 1486.45  Z" fill="#009af9" fill-rule="evenodd" fill-opacity="1"/>
<polyline clip-path="url(#clip042)" style="stroke:#000000; stroke-linecap:round; stroke-linejoin:round; stroke-width:4; stroke-opacity:1; fill:none" points="2091.94,1486.45 2091.94,1486.45 2107.6,1486.45 2091.94,1486.45 "/>
<path clip-path="url(#clip042)" d="M2107.6 1486.45 L2107.6 1486.45 L2123.25 1486.45 L2123.25 1486.45 L2107.6 1486.45 L2107.6 1486.45  Z" fill="#009af9" fill-rule="evenodd" fill-opacity="1"/>
<polyline clip-path="url(#clip042)" style="stroke:#000000; stroke-linecap:round; stroke-linejoin:round; stroke-width:4; stroke-opacity:1; fill:none" points="2107.6,1486.45 2107.6,1486.45 2123.25,1486.45 2107.6,1486.45 "/>
<path clip-path="url(#clip042)" d="M2123.25 1486.45 L2123.25 1486.45 L2138.9 1486.45 L2138.9 1486.45 L2123.25 1486.45 L2123.25 1486.45  Z" fill="#009af9" fill-rule="evenodd" fill-opacity="1"/>
<polyline clip-path="url(#clip042)" style="stroke:#000000; stroke-linecap:round; stroke-linejoin:round; stroke-width:4; stroke-opacity:1; fill:none" points="2123.25,1486.45 2123.25,1486.45 2138.9,1486.45 2123.25,1486.45 "/>
<path clip-path="url(#clip042)" d="M2138.9 1486.45 L2138.9 1486.45 L2154.55 1486.45 L2154.55 1486.45 L2138.9 1486.45 L2138.9 1486.45  Z" fill="#009af9" fill-rule="evenodd" fill-opacity="1"/>
<polyline clip-path="url(#clip042)" style="stroke:#000000; stroke-linecap:round; stroke-linejoin:round; stroke-width:4; stroke-opacity:1; fill:none" points="2138.9,1486.45 2138.9,1486.45 2154.55,1486.45 2138.9,1486.45 "/>
<path clip-path="url(#clip042)" d="M2154.55 1486.45 L2154.55 1486.45 L2170.2 1486.45 L2170.2 1486.45 L2154.55 1486.45 L2154.55 1486.45  Z" fill="#009af9" fill-rule="evenodd" fill-opacity="1"/>
<polyline clip-path="url(#clip042)" style="stroke:#000000; stroke-linecap:round; stroke-linejoin:round; stroke-width:4; stroke-opacity:1; fill:none" points="2154.55,1486.45 2154.55,1486.45 2170.2,1486.45 2154.55,1486.45 "/>
<path clip-path="url(#clip042)" d="M2170.2 1486.45 L2170.2 1486.45 L2185.86 1486.45 L2185.86 1486.45 L2170.2 1486.45 L2170.2 1486.45  Z" fill="#009af9" fill-rule="evenodd" fill-opacity="1"/>
<polyline clip-path="url(#clip042)" style="stroke:#000000; stroke-linecap:round; stroke-linejoin:round; stroke-width:4; stroke-opacity:1; fill:none" points="2170.2,1486.45 2170.2,1486.45 2185.86,1486.45 2170.2,1486.45 "/>
<path clip-path="url(#clip042)" d="M2185.86 1486.45 L2185.86 1486.45 L2201.51 1486.45 L2201.51 1486.45 L2185.86 1486.45 L2185.86 1486.45  Z" fill="#009af9" fill-rule="evenodd" fill-opacity="1"/>
<polyline clip-path="url(#clip042)" style="stroke:#000000; stroke-linecap:round; stroke-linejoin:round; stroke-width:4; stroke-opacity:1; fill:none" points="2185.86,1486.45 2185.86,1486.45 2201.51,1486.45 2185.86,1486.45 "/>
<path clip-path="url(#clip042)" d="M2201.51 1486.45 L2201.51 1486.45 L2217.16 1486.45 L2217.16 1486.45 L2201.51 1486.45 L2201.51 1486.45  Z" fill="#009af9" fill-rule="evenodd" fill-opacity="1"/>
<polyline clip-path="url(#clip042)" style="stroke:#000000; stroke-linecap:round; stroke-linejoin:round; stroke-width:4; stroke-opacity:1; fill:none" points="2201.51,1486.45 2201.51,1486.45 2217.16,1486.45 2201.51,1486.45 "/>
<path clip-path="url(#clip042)" d="M2217.16 1484.96 L2217.16 1486.45 L2232.81 1486.45 L2232.81 1484.96 L2217.16 1484.96 L2217.16 1484.96  Z" fill="#009af9" fill-rule="evenodd" fill-opacity="1"/>
<polyline clip-path="url(#clip042)" style="stroke:#000000; stroke-linecap:round; stroke-linejoin:round; stroke-width:4; stroke-opacity:1; fill:none" points="2217.16,1484.96 2217.16,1486.45 2232.81,1486.45 2232.81,1484.96 2217.16,1484.96 "/>
<circle clip-path="url(#clip042)" style="fill:#009af9; stroke:none; fill-opacity:0" cx="299.785" cy="47.2441" r="2"/>
<circle clip-path="url(#clip042)" style="fill:#009af9; stroke:none; fill-opacity:0" cx="315.438" cy="205.006" r="2"/>
<circle clip-path="url(#clip042)" style="fill:#009af9; stroke:none; fill-opacity:0" cx="331.09" cy="285.375" r="2"/>
<circle clip-path="url(#clip042)" style="fill:#009af9; stroke:none; fill-opacity:0" cx="346.742" cy="413.37" r="2"/>
<circle clip-path="url(#clip042)" style="fill:#009af9; stroke:none; fill-opacity:0" cx="362.394" cy="538.389" r="2"/>
<circle clip-path="url(#clip042)" style="fill:#009af9; stroke:none; fill-opacity:0" cx="378.046" cy="635.13" r="2"/>
<circle clip-path="url(#clip042)" style="fill:#009af9; stroke:none; fill-opacity:0" cx="393.698" cy="743.777" r="2"/>
<circle clip-path="url(#clip042)" style="fill:#009af9; stroke:none; fill-opacity:0" cx="409.35" cy="837.541" r="2"/>
<circle clip-path="url(#clip042)" style="fill:#009af9; stroke:none; fill-opacity:0" cx="425.002" cy="849.448" r="2"/>
<circle clip-path="url(#clip042)" style="fill:#009af9; stroke:none; fill-opacity:0" cx="440.654" cy="891.121" r="2"/>
<circle clip-path="url(#clip042)" style="fill:#009af9; stroke:none; fill-opacity:0" cx="456.306" cy="947.677" r="2"/>
<circle clip-path="url(#clip042)" style="fill:#009af9; stroke:none; fill-opacity:0" cx="471.958" cy="1031.02" r="2"/>
<circle clip-path="url(#clip042)" style="fill:#009af9; stroke:none; fill-opacity:0" cx="487.61" cy="1045.91" r="2"/>
<circle clip-path="url(#clip042)" style="fill:#009af9; stroke:none; fill-opacity:0" cx="503.262" cy="1111.39" r="2"/>
<circle clip-path="url(#clip042)" style="fill:#009af9; stroke:none; fill-opacity:0" cx="518.914" cy="1139.67" r="2"/>
<circle clip-path="url(#clip042)" style="fill:#009af9; stroke:none; fill-opacity:0" cx="534.566" cy="1136.69" r="2"/>
<circle clip-path="url(#clip042)" style="fill:#009af9; stroke:none; fill-opacity:0" cx="550.218" cy="1170.92" r="2"/>
<circle clip-path="url(#clip042)" style="fill:#009af9; stroke:none; fill-opacity:0" cx="565.87" cy="1209.62" r="2"/>
<circle clip-path="url(#clip042)" style="fill:#009af9; stroke:none; fill-opacity:0" cx="581.522" cy="1242.36" r="2"/>
<circle clip-path="url(#clip042)" style="fill:#009af9; stroke:none; fill-opacity:0" cx="597.174" cy="1297.43" r="2"/>
<circle clip-path="url(#clip042)" style="fill:#009af9; stroke:none; fill-opacity:0" cx="612.826" cy="1310.83" r="2"/>
<circle clip-path="url(#clip042)" style="fill:#009af9; stroke:none; fill-opacity:0" cx="628.478" cy="1324.22" r="2"/>
<circle clip-path="url(#clip042)" style="fill:#009af9; stroke:none; fill-opacity:0" cx="644.13" cy="1346.55" r="2"/>
<circle clip-path="url(#clip042)" style="fill:#009af9; stroke:none; fill-opacity:0" cx="659.782" cy="1359.94" r="2"/>
<circle clip-path="url(#clip042)" style="fill:#009af9; stroke:none; fill-opacity:0" cx="675.434" cy="1362.92" r="2"/>
<circle clip-path="url(#clip042)" style="fill:#009af9; stroke:none; fill-opacity:0" cx="691.086" cy="1376.31" r="2"/>
<circle clip-path="url(#clip042)" style="fill:#009af9; stroke:none; fill-opacity:0" cx="706.738" cy="1373.34" r="2"/>
<circle clip-path="url(#clip042)" style="fill:#009af9; stroke:none; fill-opacity:0" cx="722.39" cy="1397.15" r="2"/>
<circle clip-path="url(#clip042)" style="fill:#009af9; stroke:none; fill-opacity:0" cx="738.042" cy="1380.78" r="2"/>
<circle clip-path="url(#clip042)" style="fill:#009af9; stroke:none; fill-opacity:0" cx="753.694" cy="1404.59" r="2"/>
<circle clip-path="url(#clip042)" style="fill:#009af9; stroke:none; fill-opacity:0" cx="769.346" cy="1429.89" r="2"/>
<circle clip-path="url(#clip042)" style="fill:#009af9; stroke:none; fill-opacity:0" cx="784.998" cy="1415.01" r="2"/>
<circle clip-path="url(#clip042)" style="fill:#009af9; stroke:none; fill-opacity:0" cx="800.65" cy="1447.75" r="2"/>
<circle clip-path="url(#clip042)" style="fill:#009af9; stroke:none; fill-opacity:0" cx="816.302" cy="1434.36" r="2"/>
<circle clip-path="url(#clip042)" style="fill:#009af9; stroke:none; fill-opacity:0" cx="831.955" cy="1431.38" r="2"/>
<circle clip-path="url(#clip042)" style="fill:#009af9; stroke:none; fill-opacity:0" cx="847.607" cy="1441.8" r="2"/>
<circle clip-path="url(#clip042)" style="fill:#009af9; stroke:none; fill-opacity:0" cx="863.259" cy="1459.66" r="2"/>
<circle clip-path="url(#clip042)" style="fill:#009af9; stroke:none; fill-opacity:0" cx="878.911" cy="1449.24" r="2"/>
<circle clip-path="url(#clip042)" style="fill:#009af9; stroke:none; fill-opacity:0" cx="894.563" cy="1444.77" r="2"/>
<circle clip-path="url(#clip042)" style="fill:#009af9; stroke:none; fill-opacity:0" cx="910.215" cy="1462.63" r="2"/>
<circle clip-path="url(#clip042)" style="fill:#009af9; stroke:none; fill-opacity:0" cx="925.867" cy="1452.22" r="2"/>
<circle clip-path="url(#clip042)" style="fill:#009af9; stroke:none; fill-opacity:0" cx="941.519" cy="1464.12" r="2"/>
<circle clip-path="url(#clip042)" style="fill:#009af9; stroke:none; fill-opacity:0" cx="957.171" cy="1465.61" r="2"/>
<circle clip-path="url(#clip042)" style="fill:#009af9; stroke:none; fill-opacity:0" cx="972.823" cy="1465.61" r="2"/>
<circle clip-path="url(#clip042)" style="fill:#009af9; stroke:none; fill-opacity:0" cx="988.475" cy="1470.08" r="2"/>
<circle clip-path="url(#clip042)" style="fill:#009af9; stroke:none; fill-opacity:0" cx="1004.13" cy="1470.08" r="2"/>
<circle clip-path="url(#clip042)" style="fill:#009af9; stroke:none; fill-opacity:0" cx="1019.78" cy="1473.05" r="2"/>
<circle clip-path="url(#clip042)" style="fill:#009af9; stroke:none; fill-opacity:0" cx="1035.43" cy="1476.03" r="2"/>
<circle clip-path="url(#clip042)" style="fill:#009af9; stroke:none; fill-opacity:0" cx="1051.08" cy="1479.01" r="2"/>
<circle clip-path="url(#clip042)" style="fill:#009af9; stroke:none; fill-opacity:0" cx="1066.73" cy="1479.01" r="2"/>
<circle clip-path="url(#clip042)" style="fill:#009af9; stroke:none; fill-opacity:0" cx="1082.39" cy="1474.54" r="2"/>
<circle clip-path="url(#clip042)" style="fill:#009af9; stroke:none; fill-opacity:0" cx="1098.04" cy="1480.49" r="2"/>
<circle clip-path="url(#clip042)" style="fill:#009af9; stroke:none; fill-opacity:0" cx="1113.69" cy="1486.45" r="2"/>
<circle clip-path="url(#clip042)" style="fill:#009af9; stroke:none; fill-opacity:0" cx="1129.34" cy="1474.54" r="2"/>
<circle clip-path="url(#clip042)" style="fill:#009af9; stroke:none; fill-opacity:0" cx="1145" cy="1484.96" r="2"/>
<circle clip-path="url(#clip042)" style="fill:#009af9; stroke:none; fill-opacity:0" cx="1160.65" cy="1481.98" r="2"/>
<circle clip-path="url(#clip042)" style="fill:#009af9; stroke:none; fill-opacity:0" cx="1176.3" cy="1474.54" r="2"/>
<circle clip-path="url(#clip042)" style="fill:#009af9; stroke:none; fill-opacity:0" cx="1191.95" cy="1484.96" r="2"/>
<circle clip-path="url(#clip042)" style="fill:#009af9; stroke:none; fill-opacity:0" cx="1207.6" cy="1486.45" r="2"/>
<circle clip-path="url(#clip042)" style="fill:#009af9; stroke:none; fill-opacity:0" cx="1223.26" cy="1483.47" r="2"/>
<circle clip-path="url(#clip042)" style="fill:#009af9; stroke:none; fill-opacity:0" cx="1238.91" cy="1484.96" r="2"/>
<circle clip-path="url(#clip042)" style="fill:#009af9; stroke:none; fill-opacity:0" cx="1254.56" cy="1486.45" r="2"/>
<circle clip-path="url(#clip042)" style="fill:#009af9; stroke:none; fill-opacity:0" cx="1270.21" cy="1484.96" r="2"/>
<circle clip-path="url(#clip042)" style="fill:#009af9; stroke:none; fill-opacity:0" cx="1285.86" cy="1484.96" r="2"/>
<circle clip-path="url(#clip042)" style="fill:#009af9; stroke:none; fill-opacity:0" cx="1301.52" cy="1483.47" r="2"/>
<circle clip-path="url(#clip042)" style="fill:#009af9; stroke:none; fill-opacity:0" cx="1317.17" cy="1486.45" r="2"/>
<circle clip-path="url(#clip042)" style="fill:#009af9; stroke:none; fill-opacity:0" cx="1332.82" cy="1481.98" r="2"/>
<circle clip-path="url(#clip042)" style="fill:#009af9; stroke:none; fill-opacity:0" cx="1348.47" cy="1484.96" r="2"/>
<circle clip-path="url(#clip042)" style="fill:#009af9; stroke:none; fill-opacity:0" cx="1364.12" cy="1486.45" r="2"/>
<circle clip-path="url(#clip042)" style="fill:#009af9; stroke:none; fill-opacity:0" cx="1379.78" cy="1484.96" r="2"/>
<circle clip-path="url(#clip042)" style="fill:#009af9; stroke:none; fill-opacity:0" cx="1395.43" cy="1484.96" r="2"/>
<circle clip-path="url(#clip042)" style="fill:#009af9; stroke:none; fill-opacity:0" cx="1411.08" cy="1484.96" r="2"/>
<circle clip-path="url(#clip042)" style="fill:#009af9; stroke:none; fill-opacity:0" cx="1426.73" cy="1483.47" r="2"/>
<circle clip-path="url(#clip042)" style="fill:#009af9; stroke:none; fill-opacity:0" cx="1442.38" cy="1486.45" r="2"/>
<circle clip-path="url(#clip042)" style="fill:#009af9; stroke:none; fill-opacity:0" cx="1458.04" cy="1486.45" r="2"/>
<circle clip-path="url(#clip042)" style="fill:#009af9; stroke:none; fill-opacity:0" cx="1473.69" cy="1484.96" r="2"/>
<circle clip-path="url(#clip042)" style="fill:#009af9; stroke:none; fill-opacity:0" cx="1489.34" cy="1484.96" r="2"/>
<circle clip-path="url(#clip042)" style="fill:#009af9; stroke:none; fill-opacity:0" cx="1504.99" cy="1484.96" r="2"/>
<circle clip-path="url(#clip042)" style="fill:#009af9; stroke:none; fill-opacity:0" cx="1520.64" cy="1484.96" r="2"/>
<circle clip-path="url(#clip042)" style="fill:#009af9; stroke:none; fill-opacity:0" cx="1536.3" cy="1483.47" r="2"/>
<circle clip-path="url(#clip042)" style="fill:#009af9; stroke:none; fill-opacity:0" cx="1551.95" cy="1486.45" r="2"/>
<circle clip-path="url(#clip042)" style="fill:#009af9; stroke:none; fill-opacity:0" cx="1567.6" cy="1483.47" r="2"/>
<circle clip-path="url(#clip042)" style="fill:#009af9; stroke:none; fill-opacity:0" cx="1583.25" cy="1486.45" r="2"/>
<circle clip-path="url(#clip042)" style="fill:#009af9; stroke:none; fill-opacity:0" cx="1598.9" cy="1484.96" r="2"/>
<circle clip-path="url(#clip042)" style="fill:#009af9; stroke:none; fill-opacity:0" cx="1614.56" cy="1486.45" r="2"/>
<circle clip-path="url(#clip042)" style="fill:#009af9; stroke:none; fill-opacity:0" cx="1630.21" cy="1486.45" r="2"/>
<circle clip-path="url(#clip042)" style="fill:#009af9; stroke:none; fill-opacity:0" cx="1645.86" cy="1486.45" r="2"/>
<circle clip-path="url(#clip042)" style="fill:#009af9; stroke:none; fill-opacity:0" cx="1661.51" cy="1486.45" r="2"/>
<circle clip-path="url(#clip042)" style="fill:#009af9; stroke:none; fill-opacity:0" cx="1677.16" cy="1486.45" r="2"/>
<circle clip-path="url(#clip042)" style="fill:#009af9; stroke:none; fill-opacity:0" cx="1692.82" cy="1486.45" r="2"/>
<circle clip-path="url(#clip042)" style="fill:#009af9; stroke:none; fill-opacity:0" cx="1708.47" cy="1486.45" r="2"/>
<circle clip-path="url(#clip042)" style="fill:#009af9; stroke:none; fill-opacity:0" cx="1724.12" cy="1486.45" r="2"/>
<circle clip-path="url(#clip042)" style="fill:#009af9; stroke:none; fill-opacity:0" cx="1739.77" cy="1486.45" r="2"/>
<circle clip-path="url(#clip042)" style="fill:#009af9; stroke:none; fill-opacity:0" cx="1755.42" cy="1486.45" r="2"/>
<circle clip-path="url(#clip042)" style="fill:#009af9; stroke:none; fill-opacity:0" cx="1771.08" cy="1486.45" r="2"/>
<circle clip-path="url(#clip042)" style="fill:#009af9; stroke:none; fill-opacity:0" cx="1786.73" cy="1486.45" r="2"/>
<circle clip-path="url(#clip042)" style="fill:#009af9; stroke:none; fill-opacity:0" cx="1802.38" cy="1486.45" r="2"/>
<circle clip-path="url(#clip042)" style="fill:#009af9; stroke:none; fill-opacity:0" cx="1818.03" cy="1486.45" r="2"/>
<circle clip-path="url(#clip042)" style="fill:#009af9; stroke:none; fill-opacity:0" cx="1833.68" cy="1486.45" r="2"/>
<circle clip-path="url(#clip042)" style="fill:#009af9; stroke:none; fill-opacity:0" cx="1849.34" cy="1486.45" r="2"/>
<circle clip-path="url(#clip042)" style="fill:#009af9; stroke:none; fill-opacity:0" cx="1864.99" cy="1486.45" r="2"/>
<circle clip-path="url(#clip042)" style="fill:#009af9; stroke:none; fill-opacity:0" cx="1880.64" cy="1486.45" r="2"/>
<circle clip-path="url(#clip042)" style="fill:#009af9; stroke:none; fill-opacity:0" cx="1896.29" cy="1486.45" r="2"/>
<circle clip-path="url(#clip042)" style="fill:#009af9; stroke:none; fill-opacity:0" cx="1911.94" cy="1486.45" r="2"/>
<circle clip-path="url(#clip042)" style="fill:#009af9; stroke:none; fill-opacity:0" cx="1927.6" cy="1486.45" r="2"/>
<circle clip-path="url(#clip042)" style="fill:#009af9; stroke:none; fill-opacity:0" cx="1943.25" cy="1486.45" r="2"/>
<circle clip-path="url(#clip042)" style="fill:#009af9; stroke:none; fill-opacity:0" cx="1958.9" cy="1486.45" r="2"/>
<circle clip-path="url(#clip042)" style="fill:#009af9; stroke:none; fill-opacity:0" cx="1974.55" cy="1486.45" r="2"/>
<circle clip-path="url(#clip042)" style="fill:#009af9; stroke:none; fill-opacity:0" cx="1990.2" cy="1486.45" r="2"/>
<circle clip-path="url(#clip042)" style="fill:#009af9; stroke:none; fill-opacity:0" cx="2005.86" cy="1486.45" r="2"/>
<circle clip-path="url(#clip042)" style="fill:#009af9; stroke:none; fill-opacity:0" cx="2021.51" cy="1486.45" r="2"/>
<circle clip-path="url(#clip042)" style="fill:#009af9; stroke:none; fill-opacity:0" cx="2037.16" cy="1486.45" r="2"/>
<circle clip-path="url(#clip042)" style="fill:#009af9; stroke:none; fill-opacity:0" cx="2052.81" cy="1486.45" r="2"/>
<circle clip-path="url(#clip042)" style="fill:#009af9; stroke:none; fill-opacity:0" cx="2068.46" cy="1486.45" r="2"/>
<circle clip-path="url(#clip042)" style="fill:#009af9; stroke:none; fill-opacity:0" cx="2084.12" cy="1486.45" r="2"/>
<circle clip-path="url(#clip042)" style="fill:#009af9; stroke:none; fill-opacity:0" cx="2099.77" cy="1486.45" r="2"/>
<circle clip-path="url(#clip042)" style="fill:#009af9; stroke:none; fill-opacity:0" cx="2115.42" cy="1486.45" r="2"/>
<circle clip-path="url(#clip042)" style="fill:#009af9; stroke:none; fill-opacity:0" cx="2131.07" cy="1486.45" r="2"/>
<circle clip-path="url(#clip042)" style="fill:#009af9; stroke:none; fill-opacity:0" cx="2146.73" cy="1486.45" r="2"/>
<circle clip-path="url(#clip042)" style="fill:#009af9; stroke:none; fill-opacity:0" cx="2162.38" cy="1486.45" r="2"/>
<circle clip-path="url(#clip042)" style="fill:#009af9; stroke:none; fill-opacity:0" cx="2178.03" cy="1486.45" r="2"/>
<circle clip-path="url(#clip042)" style="fill:#009af9; stroke:none; fill-opacity:0" cx="2193.68" cy="1486.45" r="2"/>
<circle clip-path="url(#clip042)" style="fill:#009af9; stroke:none; fill-opacity:0" cx="2209.33" cy="1486.45" r="2"/>
<circle clip-path="url(#clip042)" style="fill:#009af9; stroke:none; fill-opacity:0" cx="2224.99" cy="1484.96" r="2"/>
</svg>
