<?xml version="1.0" encoding="utf-8"?>
<svg xmlns="http://www.w3.org/2000/svg" xmlns:xlink="http://www.w3.org/1999/xlink" width="600" height="400" viewBox="0 0 2400 1600">
<defs>
  <clipPath id="clip990">
    <rect x="0" y="0" width="2400" height="1600"/>
  </clipPath>
</defs>
<path clip-path="url(#clip990)" d="M0 1600 L2400 1600 L2400 0 L0 0  Z" fill="#ffffff" fill-rule="evenodd" fill-opacity="1"/>
<defs>
  <clipPath id="clip991">
    <rect x="480" y="0" width="1681" height="1600"/>
  </clipPath>
</defs>
<path clip-path="url(#clip990)" d="M172.015 1486.45 L2352.76 1486.45 L2352.76 47.2441 L172.015 47.2441  Z" fill="#ffffff" fill-rule="evenodd" fill-opacity="1"/>
<defs>
  <clipPath id="clip992">
    <rect x="172" y="47" width="2182" height="1440"/>
  </clipPath>
</defs>
<polyline clip-path="url(#clip992)" style="stroke:#000000; stroke-linecap:round; stroke-linejoin:round; stroke-width:2; stroke-opacity:0.1; fill:none" points="291.959,1486.45 291.959,47.2441 "/>
<polyline clip-path="url(#clip992)" style="stroke:#000000; stroke-linecap:round; stroke-linejoin:round; stroke-width:2; stroke-opacity:0.1; fill:none" points="777.172,1486.45 777.172,47.2441 "/>
<polyline clip-path="url(#clip992)" style="stroke:#000000; stroke-linecap:round; stroke-linejoin:round; stroke-width:2; stroke-opacity:0.1; fill:none" points="1262.39,1486.45 1262.39,47.2441 "/>
<polyline clip-path="url(#clip992)" style="stroke:#000000; stroke-linecap:round; stroke-linejoin:round; stroke-width:2; stroke-opacity:0.1; fill:none" points="1747.6,1486.45 1747.6,47.2441 "/>
<polyline clip-path="url(#clip992)" style="stroke:#000000; stroke-linecap:round; stroke-linejoin:round; stroke-width:2; stroke-opacity:0.1; fill:none" points="2232.81,1486.45 2232.81,47.2441 "/>
<polyline clip-path="url(#clip992)" style="stroke:#000000; stroke-linecap:round; stroke-linejoin:round; stroke-width:2; stroke-opacity:0.1; fill:none" points="172.015,1486.45 2352.76,1486.45 "/>
<polyline clip-path="url(#clip992)" style="stroke:#000000; stroke-linecap:round; stroke-linejoin:round; stroke-width:2; stroke-opacity:0.1; fill:none" points="172.015,1217.44 2352.76,1217.44 "/>
<polyline clip-path="url(#clip992)" style="stroke:#000000; stroke-linecap:round; stroke-linejoin:round; stroke-width:2; stroke-opacity:0.1; fill:none" points="172.015,948.428 2352.76,948.428 "/>
<polyline clip-path="url(#clip992)" style="stroke:#000000; stroke-linecap:round; stroke-linejoin:round; stroke-width:2; stroke-opacity:0.1; fill:none" points="172.015,679.418 2352.76,679.418 "/>
<polyline clip-path="url(#clip992)" style="stroke:#000000; stroke-linecap:round; stroke-linejoin:round; stroke-width:2; stroke-opacity:0.1; fill:none" points="172.015,410.408 2352.76,410.408 "/>
<polyline clip-path="url(#clip992)" style="stroke:#000000; stroke-linecap:round; stroke-linejoin:round; stroke-width:2; stroke-opacity:0.1; fill:none" points="172.015,141.398 2352.76,141.398 "/>
<polyline clip-path="url(#clip990)" style="stroke:#000000; stroke-linecap:round; stroke-linejoin:round; stroke-width:4; stroke-opacity:1; fill:none" points="172.015,1486.45 2352.76,1486.45 "/>
<polyline clip-path="url(#clip990)" style="stroke:#000000; stroke-linecap:round; stroke-linejoin:round; stroke-width:4; stroke-opacity:1; fill:none" points="291.959,1486.45 291.959,1467.55 "/>
<polyline clip-path="url(#clip990)" style="stroke:#000000; stroke-linecap:round; stroke-linejoin:round; stroke-width:4; stroke-opacity:1; fill:none" points="777.172,1486.45 777.172,1467.55 "/>
<polyline clip-path="url(#clip990)" style="stroke:#000000; stroke-linecap:round; stroke-linejoin:round; stroke-width:4; stroke-opacity:1; fill:none" points="1262.39,1486.45 1262.39,1467.55 "/>
<polyline clip-path="url(#clip990)" style="stroke:#000000; stroke-linecap:round; stroke-linejoin:round; stroke-width:4; stroke-opacity:1; fill:none" points="1747.6,1486.45 1747.6,1467.55 "/>
<polyline clip-path="url(#clip990)" style="stroke:#000000; stroke-linecap:round; stroke-linejoin:round; stroke-width:4; stroke-opacity:1; fill:none" points="2232.81,1486.45 2232.81,1467.55 "/>
<path clip-path="url(#clip990)" d="M254.263 1517.37 Q250.652 1517.37 248.823 1520.93 Q247.018 1524.47 247.018 1531.6 Q247.018 1538.71 248.823 1542.27 Q250.652 1545.82 254.263 1545.82 Q257.897 1545.82 259.703 1542.27 Q261.531 1538.71 261.531 1531.6 Q261.531 1524.47 259.703 1520.93 Q257.897 1517.37 254.263 1517.37 M254.263 1513.66 Q260.073 1513.66 263.129 1518.27 Q266.207 1522.85 266.207 1531.6 Q266.207 1540.33 263.129 1544.94 Q260.073 1549.52 254.263 1549.52 Q248.453 1549.52 245.374 1544.94 Q242.319 1540.33 242.319 1531.6 Q242.319 1522.85 245.374 1518.27 Q248.453 1513.66 254.263 1513.66 Z" fill="#000000" fill-rule="nonzero" fill-opacity="1" /><path clip-path="url(#clip990)" d="M274.425 1542.97 L279.309 1542.97 L279.309 1548.85 L274.425 1548.85 L274.425 1542.97 Z" fill="#000000" fill-rule="nonzero" fill-opacity="1" /><path clip-path="url(#clip990)" d="M299.494 1517.37 Q295.883 1517.37 294.054 1520.93 Q292.249 1524.47 292.249 1531.6 Q292.249 1538.71 294.054 1542.27 Q295.883 1545.82 299.494 1545.82 Q303.128 1545.82 304.934 1542.27 Q306.763 1538.71 306.763 1531.6 Q306.763 1524.47 304.934 1520.93 Q303.128 1517.37 299.494 1517.37 M299.494 1513.66 Q305.304 1513.66 308.36 1518.27 Q311.439 1522.85 311.439 1531.6 Q311.439 1540.33 308.36 1544.94 Q305.304 1549.52 299.494 1549.52 Q293.684 1549.52 290.605 1544.94 Q287.55 1540.33 287.55 1531.6 Q287.55 1522.85 290.605 1518.27 Q293.684 1513.66 299.494 1513.66 Z" fill="#000000" fill-rule="nonzero" fill-opacity="1" /><path clip-path="url(#clip990)" d="M329.656 1517.37 Q326.045 1517.37 324.216 1520.93 Q322.411 1524.47 322.411 1531.6 Q322.411 1538.71 324.216 1542.27 Q326.045 1545.82 329.656 1545.82 Q333.29 1545.82 335.096 1542.27 Q336.924 1538.71 336.924 1531.6 Q336.924 1524.47 335.096 1520.93 Q333.29 1517.37 329.656 1517.37 M329.656 1513.66 Q335.466 1513.66 338.522 1518.27 Q341.6 1522.85 341.6 1531.6 Q341.6 1540.33 338.522 1544.94 Q335.466 1549.52 329.656 1549.52 Q323.846 1549.52 320.767 1544.94 Q317.712 1540.33 317.712 1531.6 Q317.712 1522.85 320.767 1518.27 Q323.846 1513.66 329.656 1513.66 Z" fill="#000000" fill-rule="nonzero" fill-opacity="1" /><path clip-path="url(#clip990)" d="M739.974 1517.37 Q736.362 1517.37 734.534 1520.93 Q732.728 1524.47 732.728 1531.6 Q732.728 1538.71 734.534 1542.27 Q736.362 1545.82 739.974 1545.82 Q743.608 1545.82 745.413 1542.27 Q747.242 1538.71 747.242 1531.6 Q747.242 1524.47 745.413 1520.93 Q743.608 1517.37 739.974 1517.37 M739.974 1513.66 Q745.784 1513.66 748.839 1518.27 Q751.918 1522.85 751.918 1531.6 Q751.918 1540.33 748.839 1544.94 Q745.784 1549.52 739.974 1549.52 Q734.163 1549.52 731.085 1544.94 Q728.029 1540.33 728.029 1531.6 Q728.029 1522.85 731.085 1518.27 Q734.163 1513.66 739.974 1513.66 Z" fill="#000000" fill-rule="nonzero" fill-opacity="1" /><path clip-path="url(#clip990)" d="M760.135 1542.97 L765.02 1542.97 L765.02 1548.85 L760.135 1548.85 L760.135 1542.97 Z" fill="#000000" fill-rule="nonzero" fill-opacity="1" /><path clip-path="url(#clip990)" d="M779.233 1544.91 L795.552 1544.91 L795.552 1548.85 L773.608 1548.85 L773.608 1544.91 Q776.27 1542.16 780.853 1537.53 Q785.459 1532.88 786.64 1531.53 Q788.885 1529.01 789.765 1527.27 Q790.668 1525.51 790.668 1523.82 Q790.668 1521.07 788.723 1519.33 Q786.802 1517.6 783.7 1517.6 Q781.501 1517.6 779.047 1518.36 Q776.617 1519.13 773.839 1520.68 L773.839 1515.95 Q776.663 1514.82 779.117 1514.24 Q781.571 1513.66 783.608 1513.66 Q788.978 1513.66 792.172 1516.35 Q795.367 1519.03 795.367 1523.52 Q795.367 1525.65 794.557 1527.57 Q793.77 1529.47 791.663 1532.07 Q791.084 1532.74 787.983 1535.95 Q784.881 1539.15 779.233 1544.91 Z" fill="#000000" fill-rule="nonzero" fill-opacity="1" /><path clip-path="url(#clip990)" d="M805.413 1514.29 L823.769 1514.29 L823.769 1518.22 L809.695 1518.22 L809.695 1526.7 Q810.714 1526.35 811.732 1526.19 Q812.751 1526 813.769 1526 Q819.556 1526 822.936 1529.17 Q826.316 1532.34 826.316 1537.76 Q826.316 1543.34 822.843 1546.44 Q819.371 1549.52 813.052 1549.52 Q810.876 1549.52 808.607 1549.15 Q806.362 1548.78 803.955 1548.04 L803.955 1543.34 Q806.038 1544.47 808.26 1545.03 Q810.482 1545.58 812.959 1545.58 Q816.964 1545.58 819.302 1543.48 Q821.64 1541.37 821.64 1537.76 Q821.64 1534.15 819.302 1532.04 Q816.964 1529.94 812.959 1529.94 Q811.084 1529.94 809.209 1530.35 Q807.357 1530.77 805.413 1531.65 L805.413 1514.29 Z" fill="#000000" fill-rule="nonzero" fill-opacity="1" /><path clip-path="url(#clip990)" d="M1224.69 1517.37 Q1221.08 1517.37 1219.25 1520.93 Q1217.44 1524.47 1217.44 1531.6 Q1217.44 1538.71 1219.25 1542.27 Q1221.08 1545.82 1224.69 1545.82 Q1228.32 1545.82 1230.13 1542.27 Q1231.96 1538.71 1231.96 1531.6 Q1231.96 1524.47 1230.13 1520.93 Q1228.32 1517.37 1224.69 1517.37 M1224.69 1513.66 Q1230.5 1513.66 1233.55 1518.27 Q1236.63 1522.85 1236.63 1531.6 Q1236.63 1540.33 1233.55 1544.94 Q1230.5 1549.52 1224.69 1549.52 Q1218.88 1549.52 1215.8 1544.94 Q1212.74 1540.33 1212.74 1531.6 Q1212.74 1522.85 1215.8 1518.27 Q1218.88 1513.66 1224.69 1513.66 Z" fill="#000000" fill-rule="nonzero" fill-opacity="1" /><path clip-path="url(#clip990)" d="M1244.85 1542.97 L1249.73 1542.97 L1249.73 1548.85 L1244.85 1548.85 L1244.85 1542.97 Z" fill="#000000" fill-rule="nonzero" fill-opacity="1" /><path clip-path="url(#clip990)" d="M1259.97 1514.29 L1278.32 1514.29 L1278.32 1518.22 L1264.25 1518.22 L1264.25 1526.7 Q1265.27 1526.35 1266.29 1526.19 Q1267.3 1526 1268.32 1526 Q1274.11 1526 1277.49 1529.17 Q1280.87 1532.34 1280.87 1537.76 Q1280.87 1543.34 1277.4 1546.44 Q1273.92 1549.52 1267.61 1549.52 Q1265.43 1549.52 1263.16 1549.15 Q1260.92 1548.78 1258.51 1548.04 L1258.51 1543.34 Q1260.59 1544.47 1262.81 1545.03 Q1265.04 1545.58 1267.51 1545.58 Q1271.52 1545.58 1273.86 1543.48 Q1276.19 1541.37 1276.19 1537.76 Q1276.19 1534.15 1273.86 1532.04 Q1271.52 1529.94 1267.51 1529.94 Q1265.64 1529.94 1263.76 1530.35 Q1261.91 1530.77 1259.97 1531.65 L1259.97 1514.29 Z" fill="#000000" fill-rule="nonzero" fill-opacity="1" /><path clip-path="url(#clip990)" d="M1300.08 1517.37 Q1296.47 1517.37 1294.64 1520.93 Q1292.84 1524.47 1292.84 1531.6 Q1292.84 1538.71 1294.64 1542.27 Q1296.47 1545.82 1300.08 1545.82 Q1303.72 1545.82 1305.52 1542.27 Q1307.35 1538.71 1307.35 1531.6 Q1307.35 1524.47 1305.52 1520.93 Q1303.72 1517.37 1300.08 1517.37 M1300.08 1513.66 Q1305.89 1513.66 1308.95 1518.27 Q1312.03 1522.85 1312.03 1531.6 Q1312.03 1540.33 1308.95 1544.94 Q1305.89 1549.52 1300.08 1549.52 Q1294.27 1549.52 1291.19 1544.94 Q1288.14 1540.33 1288.14 1531.6 Q1288.14 1522.85 1291.19 1518.27 Q1294.27 1513.66 1300.08 1513.66 Z" fill="#000000" fill-rule="nonzero" fill-opacity="1" /><path clip-path="url(#clip990)" d="M1710.4 1517.37 Q1706.79 1517.37 1704.96 1520.93 Q1703.15 1524.47 1703.15 1531.6 Q1703.15 1538.71 1704.96 1542.27 Q1706.79 1545.82 1710.4 1545.82 Q1714.03 1545.82 1715.84 1542.27 Q1717.67 1538.71 1717.67 1531.6 Q1717.67 1524.47 1715.84 1520.93 Q1714.03 1517.37 1710.4 1517.37 M1710.4 1513.66 Q1716.21 1513.66 1719.27 1518.27 Q1722.34 1522.85 1722.34 1531.6 Q1722.34 1540.33 1719.27 1544.94 Q1716.21 1549.52 1710.4 1549.52 Q1704.59 1549.52 1701.51 1544.94 Q1698.46 1540.33 1698.46 1531.6 Q1698.46 1522.85 1701.51 1518.27 Q1704.59 1513.66 1710.4 1513.66 Z" fill="#000000" fill-rule="nonzero" fill-opacity="1" /><path clip-path="url(#clip990)" d="M1730.56 1542.97 L1735.45 1542.97 L1735.45 1548.85 L1730.56 1548.85 L1730.56 1542.97 Z" fill="#000000" fill-rule="nonzero" fill-opacity="1" /><path clip-path="url(#clip990)" d="M1744.45 1514.29 L1766.67 1514.29 L1766.67 1516.28 L1754.13 1548.85 L1749.24 1548.85 L1761.05 1518.22 L1744.45 1518.22 L1744.45 1514.29 Z" fill="#000000" fill-rule="nonzero" fill-opacity="1" /><path clip-path="url(#clip990)" d="M1775.84 1514.29 L1794.2 1514.29 L1794.2 1518.22 L1780.12 1518.22 L1780.12 1526.7 Q1781.14 1526.35 1782.16 1526.19 Q1783.18 1526 1784.2 1526 Q1789.98 1526 1793.36 1529.17 Q1796.74 1532.34 1796.74 1537.76 Q1796.74 1543.34 1793.27 1546.44 Q1789.8 1549.52 1783.48 1549.52 Q1781.3 1549.52 1779.03 1549.15 Q1776.79 1548.78 1774.38 1548.04 L1774.38 1543.34 Q1776.46 1544.47 1778.69 1545.03 Q1780.91 1545.58 1783.39 1545.58 Q1787.39 1545.58 1789.73 1543.48 Q1792.07 1541.37 1792.07 1537.76 Q1792.07 1534.15 1789.73 1532.04 Q1787.39 1529.94 1783.39 1529.94 Q1781.51 1529.94 1779.64 1530.35 Q1777.78 1530.77 1775.84 1531.65 L1775.84 1514.29 Z" fill="#000000" fill-rule="nonzero" fill-opacity="1" /><path clip-path="url(#clip990)" d="M2184.88 1544.91 L2192.52 1544.91 L2192.52 1518.55 L2184.21 1520.21 L2184.21 1515.95 L2192.48 1514.29 L2197.15 1514.29 L2197.15 1544.91 L2204.79 1544.91 L2204.79 1548.85 L2184.88 1548.85 L2184.88 1544.91 Z" fill="#000000" fill-rule="nonzero" fill-opacity="1" /><path clip-path="url(#clip990)" d="M2214.23 1542.97 L2219.12 1542.97 L2219.12 1548.85 L2214.23 1548.85 L2214.23 1542.97 Z" fill="#000000" fill-rule="nonzero" fill-opacity="1" /><path clip-path="url(#clip990)" d="M2239.3 1517.37 Q2235.69 1517.37 2233.86 1520.93 Q2232.06 1524.47 2232.06 1531.6 Q2232.06 1538.71 2233.86 1542.27 Q2235.69 1545.82 2239.3 1545.82 Q2242.94 1545.82 2244.74 1542.27 Q2246.57 1538.71 2246.57 1531.6 Q2246.57 1524.47 2244.74 1520.93 Q2242.94 1517.37 2239.3 1517.37 M2239.3 1513.66 Q2245.11 1513.66 2248.17 1518.27 Q2251.25 1522.85 2251.25 1531.6 Q2251.25 1540.33 2248.17 1544.94 Q2245.11 1549.52 2239.3 1549.52 Q2233.49 1549.52 2230.42 1544.94 Q2227.36 1540.33 2227.36 1531.6 Q2227.36 1522.85 2230.42 1518.27 Q2233.49 1513.66 2239.3 1513.66 Z" fill="#000000" fill-rule="nonzero" fill-opacity="1" /><path clip-path="url(#clip990)" d="M2269.47 1517.37 Q2265.86 1517.37 2264.03 1520.93 Q2262.22 1524.47 2262.22 1531.6 Q2262.22 1538.71 2264.03 1542.27 Q2265.86 1545.82 2269.47 1545.82 Q2273.1 1545.82 2274.91 1542.27 Q2276.73 1538.71 2276.73 1531.6 Q2276.73 1524.47 2274.91 1520.93 Q2273.1 1517.37 2269.47 1517.37 M2269.47 1513.66 Q2275.28 1513.66 2278.33 1518.27 Q2281.41 1522.85 2281.41 1531.6 Q2281.41 1540.33 2278.33 1544.94 Q2275.28 1549.52 2269.47 1549.52 Q2263.66 1549.52 2260.58 1544.94 Q2257.52 1540.33 2257.52 1531.6 Q2257.52 1522.85 2260.58 1518.27 Q2263.66 1513.66 2269.47 1513.66 Z" fill="#000000" fill-rule="nonzero" fill-opacity="1" /><polyline clip-path="url(#clip990)" style="stroke:#000000; stroke-linecap:round; stroke-linejoin:round; stroke-width:4; stroke-opacity:1; fill:none" points="172.015,1486.45 172.015,47.2441 "/>
<polyline clip-path="url(#clip990)" style="stroke:#000000; stroke-linecap:round; stroke-linejoin:round; stroke-width:4; stroke-opacity:1; fill:none" points="172.015,1486.45 190.912,1486.45 "/>
<polyline clip-path="url(#clip990)" style="stroke:#000000; stroke-linecap:round; stroke-linejoin:round; stroke-width:4; stroke-opacity:1; fill:none" points="172.015,1217.44 190.912,1217.44 "/>
<polyline clip-path="url(#clip990)" style="stroke:#000000; stroke-linecap:round; stroke-linejoin:round; stroke-width:4; stroke-opacity:1; fill:none" points="172.015,948.428 190.912,948.428 "/>
<polyline clip-path="url(#clip990)" style="stroke:#000000; stroke-linecap:round; stroke-linejoin:round; stroke-width:4; stroke-opacity:1; fill:none" points="172.015,679.418 190.912,679.418 "/>
<polyline clip-path="url(#clip990)" style="stroke:#000000; stroke-linecap:round; stroke-linejoin:round; stroke-width:4; stroke-opacity:1; fill:none" points="172.015,410.408 190.912,410.408 "/>
<polyline clip-path="url(#clip990)" style="stroke:#000000; stroke-linecap:round; stroke-linejoin:round; stroke-width:4; stroke-opacity:1; fill:none" points="172.015,141.398 190.912,141.398 "/>
<path clip-path="url(#clip990)" d="M124.07 1472.25 Q120.459 1472.25 118.631 1475.81 Q116.825 1479.35 116.825 1486.48 Q116.825 1493.59 118.631 1497.15 Q120.459 1500.7 124.07 1500.7 Q127.705 1500.7 129.51 1497.15 Q131.339 1493.59 131.339 1486.48 Q131.339 1479.35 129.51 1475.81 Q127.705 1472.25 124.07 1472.25 M124.07 1468.54 Q129.881 1468.54 132.936 1473.15 Q136.015 1477.73 136.015 1486.48 Q136.015 1495.21 132.936 1499.82 Q129.881 1504.4 124.07 1504.4 Q118.26 1504.4 115.182 1499.82 Q112.126 1495.21 112.126 1486.48 Q112.126 1477.73 115.182 1473.15 Q118.26 1468.54 124.07 1468.54 Z" fill="#000000" fill-rule="nonzero" fill-opacity="1" /><path clip-path="url(#clip990)" d="M54.5569 1230.78 L62.1958 1230.78 L62.1958 1204.42 L53.8856 1206.08 L53.8856 1201.82 L62.1495 1200.16 L66.8254 1200.16 L66.8254 1230.78 L74.4642 1230.78 L74.4642 1234.72 L54.5569 1234.72 L54.5569 1230.78 Z" fill="#000000" fill-rule="nonzero" fill-opacity="1" /><path clip-path="url(#clip990)" d="M93.9086 1203.24 Q90.2975 1203.24 88.4688 1206.8 Q86.6632 1210.34 86.6632 1217.47 Q86.6632 1224.58 88.4688 1228.14 Q90.2975 1231.69 93.9086 1231.69 Q97.5428 1231.69 99.3483 1228.14 Q101.177 1224.58 101.177 1217.47 Q101.177 1210.34 99.3483 1206.8 Q97.5428 1203.24 93.9086 1203.24 M93.9086 1199.53 Q99.7187 1199.53 102.774 1204.14 Q105.853 1208.72 105.853 1217.47 Q105.853 1226.2 102.774 1230.81 Q99.7187 1235.39 93.9086 1235.39 Q88.0984 1235.39 85.0197 1230.81 Q81.9642 1226.2 81.9642 1217.47 Q81.9642 1208.72 85.0197 1204.14 Q88.0984 1199.53 93.9086 1199.53 Z" fill="#000000" fill-rule="nonzero" fill-opacity="1" /><path clip-path="url(#clip990)" d="M124.07 1203.24 Q120.459 1203.24 118.631 1206.8 Q116.825 1210.34 116.825 1217.47 Q116.825 1224.58 118.631 1228.14 Q120.459 1231.69 124.07 1231.69 Q127.705 1231.69 129.51 1228.14 Q131.339 1224.58 131.339 1217.47 Q131.339 1210.34 129.51 1206.8 Q127.705 1203.24 124.07 1203.24 M124.07 1199.53 Q129.881 1199.53 132.936 1204.14 Q136.015 1208.72 136.015 1217.47 Q136.015 1226.2 132.936 1230.81 Q129.881 1235.39 124.07 1235.39 Q118.26 1235.39 115.182 1230.81 Q112.126 1226.2 112.126 1217.47 Q112.126 1208.72 115.182 1204.14 Q118.26 1199.53 124.07 1199.53 Z" fill="#000000" fill-rule="nonzero" fill-opacity="1" /><path clip-path="url(#clip990)" d="M57.7745 961.773 L74.0939 961.773 L74.0939 965.708 L52.1495 965.708 L52.1495 961.773 Q54.8115 959.018 59.3949 954.388 Q64.0013 949.736 65.1819 948.393 Q67.4272 945.87 68.3068 944.134 Q69.2096 942.375 69.2096 940.685 Q69.2096 937.93 67.2652 936.194 Q65.3439 934.458 62.2421 934.458 Q60.043 934.458 57.5893 935.222 Q55.1588 935.986 52.381 937.537 L52.381 932.814 Q55.2051 931.68 57.6588 931.101 Q60.1124 930.523 62.1495 930.523 Q67.5198 930.523 70.7142 933.208 Q73.9087 935.893 73.9087 940.384 Q73.9087 942.513 73.0985 944.435 Q72.3115 946.333 70.205 948.925 Q69.6263 949.597 66.5245 952.814 Q63.4226 956.009 57.7745 961.773 Z" fill="#000000" fill-rule="nonzero" fill-opacity="1" /><path clip-path="url(#clip990)" d="M93.9086 934.226 Q90.2975 934.226 88.4688 937.791 Q86.6632 941.333 86.6632 948.462 Q86.6632 955.569 88.4688 959.134 Q90.2975 962.675 93.9086 962.675 Q97.5428 962.675 99.3483 959.134 Q101.177 955.569 101.177 948.462 Q101.177 941.333 99.3483 937.791 Q97.5428 934.226 93.9086 934.226 M93.9086 930.523 Q99.7187 930.523 102.774 935.129 Q105.853 939.713 105.853 948.462 Q105.853 957.189 102.774 961.796 Q99.7187 966.379 93.9086 966.379 Q88.0984 966.379 85.0197 961.796 Q81.9642 957.189 81.9642 948.462 Q81.9642 939.713 85.0197 935.129 Q88.0984 930.523 93.9086 930.523 Z" fill="#000000" fill-rule="nonzero" fill-opacity="1" /><path clip-path="url(#clip990)" d="M124.07 934.226 Q120.459 934.226 118.631 937.791 Q116.825 941.333 116.825 948.462 Q116.825 955.569 118.631 959.134 Q120.459 962.675 124.07 962.675 Q127.705 962.675 129.51 959.134 Q131.339 955.569 131.339 948.462 Q131.339 941.333 129.51 937.791 Q127.705 934.226 124.07 934.226 M124.07 930.523 Q129.881 930.523 132.936 935.129 Q136.015 939.713 136.015 948.462 Q136.015 957.189 132.936 961.796 Q129.881 966.379 124.07 966.379 Q118.26 966.379 115.182 961.796 Q112.126 957.189 112.126 948.462 Q112.126 939.713 115.182 935.129 Q118.26 930.523 124.07 930.523 Z" fill="#000000" fill-rule="nonzero" fill-opacity="1" /><path clip-path="url(#clip990)" d="M67.9133 678.064 Q71.2698 678.781 73.1448 681.05 Q75.0429 683.318 75.0429 686.651 Q75.0429 691.767 71.5244 694.568 Q68.0059 697.369 61.5245 697.369 Q59.3486 697.369 57.0338 696.929 Q54.7421 696.513 52.2884 695.656 L52.2884 691.142 Q54.2328 692.276 56.5477 692.855 Q58.8625 693.434 61.3856 693.434 Q65.7837 693.434 68.0754 691.698 Q70.3902 689.962 70.3902 686.651 Q70.3902 683.596 68.2374 681.883 Q66.1078 680.147 62.2884 680.147 L58.2606 680.147 L58.2606 676.304 L62.4735 676.304 Q65.9226 676.304 67.7513 674.939 Q69.58 673.55 69.58 670.957 Q69.58 668.295 67.6819 666.883 Q65.8069 665.448 62.2884 665.448 Q60.3671 665.448 58.168 665.865 Q55.969 666.281 53.3301 667.161 L53.3301 662.994 Q55.9921 662.253 58.3069 661.883 Q60.6449 661.513 62.705 661.513 Q68.0291 661.513 71.1309 663.943 Q74.2327 666.351 74.2327 670.471 Q74.2327 673.341 72.5892 675.332 Q70.9457 677.3 67.9133 678.064 Z" fill="#000000" fill-rule="nonzero" fill-opacity="1" /><path clip-path="url(#clip990)" d="M93.9086 665.216 Q90.2975 665.216 88.4688 668.781 Q86.6632 672.323 86.6632 679.452 Q86.6632 686.559 88.4688 690.124 Q90.2975 693.665 93.9086 693.665 Q97.5428 693.665 99.3483 690.124 Q101.177 686.559 101.177 679.452 Q101.177 672.323 99.3483 668.781 Q97.5428 665.216 93.9086 665.216 M93.9086 661.513 Q99.7187 661.513 102.774 666.119 Q105.853 670.702 105.853 679.452 Q105.853 688.179 102.774 692.786 Q99.7187 697.369 93.9086 697.369 Q88.0984 697.369 85.0197 692.786 Q81.9642 688.179 81.9642 679.452 Q81.9642 670.702 85.0197 666.119 Q88.0984 661.513 93.9086 661.513 Z" fill="#000000" fill-rule="nonzero" fill-opacity="1" /><path clip-path="url(#clip990)" d="M124.07 665.216 Q120.459 665.216 118.631 668.781 Q116.825 672.323 116.825 679.452 Q116.825 686.559 118.631 690.124 Q120.459 693.665 124.07 693.665 Q127.705 693.665 129.51 690.124 Q131.339 686.559 131.339 679.452 Q131.339 672.323 129.51 668.781 Q127.705 665.216 124.07 665.216 M124.07 661.513 Q129.881 661.513 132.936 666.119 Q136.015 670.702 136.015 679.452 Q136.015 688.179 132.936 692.786 Q129.881 697.369 124.07 697.369 Q118.26 697.369 115.182 692.786 Q112.126 688.179 112.126 679.452 Q112.126 670.702 115.182 666.119 Q118.26 661.513 124.07 661.513 Z" fill="#000000" fill-rule="nonzero" fill-opacity="1" /><path clip-path="url(#clip990)" d="M66.5939 397.202 L54.7884 415.651 L66.5939 415.651 L66.5939 397.202 M65.367 393.128 L71.2466 393.128 L71.2466 415.651 L76.1772 415.651 L76.1772 419.54 L71.2466 419.54 L71.2466 427.688 L66.5939 427.688 L66.5939 419.54 L50.9921 419.54 L50.9921 415.026 L65.367 393.128 Z" fill="#000000" fill-rule="nonzero" fill-opacity="1" /><path clip-path="url(#clip990)" d="M93.9086 396.206 Q90.2975 396.206 88.4688 399.771 Q86.6632 403.313 86.6632 410.442 Q86.6632 417.549 88.4688 421.114 Q90.2975 424.655 93.9086 424.655 Q97.5428 424.655 99.3483 421.114 Q101.177 417.549 101.177 410.442 Q101.177 403.313 99.3483 399.771 Q97.5428 396.206 93.9086 396.206 M93.9086 392.503 Q99.7187 392.503 102.774 397.109 Q105.853 401.692 105.853 410.442 Q105.853 419.169 102.774 423.776 Q99.7187 428.359 93.9086 428.359 Q88.0984 428.359 85.0197 423.776 Q81.9642 419.169 81.9642 410.442 Q81.9642 401.692 85.0197 397.109 Q88.0984 392.503 93.9086 392.503 Z" fill="#000000" fill-rule="nonzero" fill-opacity="1" /><path clip-path="url(#clip990)" d="M124.07 396.206 Q120.459 396.206 118.631 399.771 Q116.825 403.313 116.825 410.442 Q116.825 417.549 118.631 421.114 Q120.459 424.655 124.07 424.655 Q127.705 424.655 129.51 421.114 Q131.339 417.549 131.339 410.442 Q131.339 403.313 129.51 399.771 Q127.705 396.206 124.07 396.206 M124.07 392.503 Q129.881 392.503 132.936 397.109 Q136.015 401.692 136.015 410.442 Q136.015 419.169 132.936 423.776 Q129.881 428.359 124.07 428.359 Q118.26 428.359 115.182 423.776 Q112.126 419.169 112.126 410.442 Q112.126 401.692 115.182 397.109 Q118.26 392.503 124.07 392.503 Z" fill="#000000" fill-rule="nonzero" fill-opacity="1" /><path clip-path="url(#clip990)" d="M53.793 124.118 L72.1494 124.118 L72.1494 128.053 L58.0754 128.053 L58.0754 136.525 Q59.0939 136.178 60.1124 136.016 Q61.131 135.831 62.1495 135.831 Q67.9365 135.831 71.3161 139.002 Q74.6957 142.173 74.6957 147.59 Q74.6957 153.168 71.2235 156.27 Q67.7513 159.349 61.4319 159.349 Q59.256 159.349 56.9875 158.979 Q54.7421 158.608 52.3347 157.867 L52.3347 153.168 Q54.418 154.303 56.6402 154.858 Q58.8625 155.414 61.3393 155.414 Q65.3439 155.414 67.6819 153.307 Q70.0198 151.201 70.0198 147.59 Q70.0198 143.979 67.6819 141.872 Q65.3439 139.766 61.3393 139.766 Q59.4643 139.766 57.5893 140.182 Q55.7375 140.599 53.793 141.479 L53.793 124.118 Z" fill="#000000" fill-rule="nonzero" fill-opacity="1" /><path clip-path="url(#clip990)" d="M93.9086 127.196 Q90.2975 127.196 88.4688 130.761 Q86.6632 134.303 86.6632 141.432 Q86.6632 148.539 88.4688 152.104 Q90.2975 155.645 93.9086 155.645 Q97.5428 155.645 99.3483 152.104 Q101.177 148.539 101.177 141.432 Q101.177 134.303 99.3483 130.761 Q97.5428 127.196 93.9086 127.196 M93.9086 123.493 Q99.7187 123.493 102.774 128.099 Q105.853 132.682 105.853 141.432 Q105.853 150.159 102.774 154.766 Q99.7187 159.349 93.9086 159.349 Q88.0984 159.349 85.0197 154.766 Q81.9642 150.159 81.9642 141.432 Q81.9642 132.682 85.0197 128.099 Q88.0984 123.493 93.9086 123.493 Z" fill="#000000" fill-rule="nonzero" fill-opacity="1" /><path clip-path="url(#clip990)" d="M124.07 127.196 Q120.459 127.196 118.631 130.761 Q116.825 134.303 116.825 141.432 Q116.825 148.539 118.631 152.104 Q120.459 155.645 124.07 155.645 Q127.705 155.645 129.51 152.104 Q131.339 148.539 131.339 141.432 Q131.339 134.303 129.51 130.761 Q127.705 127.196 124.07 127.196 M124.07 123.493 Q129.881 123.493 132.936 128.099 Q136.015 132.682 136.015 141.432 Q136.015 150.159 132.936 154.766 Q129.881 159.349 124.07 159.349 Q118.26 159.349 115.182 154.766 Q112.126 150.159 112.126 141.432 Q112.126 132.682 115.182 128.099 Q118.26 123.493 124.07 123.493 Z" fill="#000000" fill-rule="nonzero" fill-opacity="1" /><path clip-path="url(#clip992)" d="M291.959 114.497 L291.959 1486.45 L389.002 1486.45 L389.002 114.497 L291.959 114.497 L291.959 114.497  Z" fill="#009af9" fill-rule="evenodd" fill-opacity="1"/>
<polyline clip-path="url(#clip992)" style="stroke:#000000; stroke-linecap:round; stroke-linejoin:round; stroke-width:4; stroke-opacity:1; fill:none" points="291.959,114.497 291.959,1486.45 389.002,1486.45 389.002,114.497 291.959,114.497 "/>
<path clip-path="url(#clip992)" d="M389.002 146.778 L389.002 1486.45 L486.045 1486.45 L486.045 146.778 L389.002 146.778 L389.002 146.778  Z" fill="#009af9" fill-rule="evenodd" fill-opacity="1"/>
<polyline clip-path="url(#clip992)" style="stroke:#000000; stroke-linecap:round; stroke-linejoin:round; stroke-width:4; stroke-opacity:1; fill:none" points="389.002,146.778 389.002,1486.45 486.045,1486.45 486.045,146.778 389.002,146.778 "/>
<path clip-path="url(#clip992)" d="M486.045 211.34 L486.045 1486.45 L583.087 1486.45 L583.087 211.34 L486.045 211.34 L486.045 211.34  Z" fill="#009af9" fill-rule="evenodd" fill-opacity="1"/>
<polyline clip-path="url(#clip992)" style="stroke:#000000; stroke-linecap:round; stroke-linejoin:round; stroke-width:4; stroke-opacity:1; fill:none" points="486.045,211.34 486.045,1486.45 583.087,1486.45 583.087,211.34 486.045,211.34 "/>
<path clip-path="url(#clip992)" d="M583.087 138.708 L583.087 1486.45 L680.13 1486.45 L680.13 138.708 L583.087 138.708 L583.087 138.708  Z" fill="#009af9" fill-rule="evenodd" fill-opacity="1"/>
<polyline clip-path="url(#clip992)" style="stroke:#000000; stroke-linecap:round; stroke-linejoin:round; stroke-width:4; stroke-opacity:1; fill:none" points="583.087,138.708 583.087,1486.45 680.13,1486.45 680.13,138.708 583.087,138.708 "/>
<path clip-path="url(#clip992)" d="M680.13 203.27 L680.13 1486.45 L777.172 1486.45 L777.172 203.27 L680.13 203.27 L680.13 203.27  Z" fill="#009af9" fill-rule="evenodd" fill-opacity="1"/>
<polyline clip-path="url(#clip992)" style="stroke:#000000; stroke-linecap:round; stroke-linejoin:round; stroke-width:4; stroke-opacity:1; fill:none" points="680.13,203.27 680.13,1486.45 777.172,1486.45 777.172,203.27 680.13,203.27 "/>
<path clip-path="url(#clip992)" d="M777.172 47.2441 L777.172 1486.45 L874.215 1486.45 L874.215 47.2441 L777.172 47.2441 L777.172 47.2441  Z" fill="#009af9" fill-rule="evenodd" fill-opacity="1"/>
<polyline clip-path="url(#clip992)" style="stroke:#000000; stroke-linecap:round; stroke-linejoin:round; stroke-width:4; stroke-opacity:1; fill:none" points="777.172,47.2441 777.172,1486.45 874.215,1486.45 874.215,47.2441 777.172,47.2441 "/>
<path clip-path="url(#clip992)" d="M874.215 87.5956 L874.215 1486.45 L971.258 1486.45 L971.258 87.5956 L874.215 87.5956 L874.215 87.5956  Z" fill="#009af9" fill-rule="evenodd" fill-opacity="1"/>
<polyline clip-path="url(#clip992)" style="stroke:#000000; stroke-linecap:round; stroke-linejoin:round; stroke-width:4; stroke-opacity:1; fill:none" points="874.215,87.5956 874.215,1486.45 971.258,1486.45 971.258,87.5956 874.215,87.5956 "/>
<path clip-path="url(#clip992)" d="M971.258 170.989 L971.258 1486.45 L1068.3 1486.45 L1068.3 170.989 L971.258 170.989 L971.258 170.989  Z" fill="#009af9" fill-rule="evenodd" fill-opacity="1"/>
<polyline clip-path="url(#clip992)" style="stroke:#000000; stroke-linecap:round; stroke-linejoin:round; stroke-width:4; stroke-opacity:1; fill:none" points="971.258,170.989 971.258,1486.45 1068.3,1486.45 1068.3,170.989 971.258,170.989 "/>
<path clip-path="url(#clip992)" d="M1068.3 101.046 L1068.3 1486.45 L1165.34 1486.45 L1165.34 101.046 L1068.3 101.046 L1068.3 101.046  Z" fill="#009af9" fill-rule="evenodd" fill-opacity="1"/>
<polyline clip-path="url(#clip992)" style="stroke:#000000; stroke-linecap:round; stroke-linejoin:round; stroke-width:4; stroke-opacity:1; fill:none" points="1068.3,101.046 1068.3,1486.45 1165.34,1486.45 1165.34,101.046 1068.3,101.046 "/>
<path clip-path="url(#clip992)" d="M1165.34 181.749 L1165.34 1486.45 L1262.39 1486.45 L1262.39 181.749 L1165.34 181.749 L1165.34 181.749  Z" fill="#009af9" fill-rule="evenodd" fill-opacity="1"/>
<polyline clip-path="url(#clip992)" style="stroke:#000000; stroke-linecap:round; stroke-linejoin:round; stroke-width:4; stroke-opacity:1; fill:none" points="1165.34,181.749 1165.34,1486.45 1262.39,1486.45 1262.39,181.749 1165.34,181.749 "/>
<path clip-path="url(#clip992)" d="M1262.39 76.8352 L1262.39 1486.45 L1359.43 1486.45 L1359.43 76.8352 L1262.39 76.8352 L1262.39 76.8352  Z" fill="#009af9" fill-rule="evenodd" fill-opacity="1"/>
<polyline clip-path="url(#clip992)" style="stroke:#000000; stroke-linecap:round; stroke-linejoin:round; stroke-width:4; stroke-opacity:1; fill:none" points="1262.39,76.8352 1262.39,1486.45 1359.43,1486.45 1359.43,76.8352 1262.39,76.8352 "/>
<path clip-path="url(#clip992)" d="M1359.43 63.3847 L1359.43 1486.45 L1456.47 1486.45 L1456.47 63.3847 L1359.43 63.3847 L1359.43 63.3847  Z" fill="#009af9" fill-rule="evenodd" fill-opacity="1"/>
<polyline clip-path="url(#clip992)" style="stroke:#000000; stroke-linecap:round; stroke-linejoin:round; stroke-width:4; stroke-opacity:1; fill:none" points="1359.43,63.3847 1359.43,1486.45 1456.47,1486.45 1456.47,63.3847 1359.43,63.3847 "/>
<path clip-path="url(#clip992)" d="M1456.47 74.1451 L1456.47 1486.45 L1553.51 1486.45 L1553.51 74.1451 L1456.47 74.1451 L1456.47 74.1451  Z" fill="#009af9" fill-rule="evenodd" fill-opacity="1"/>
<polyline clip-path="url(#clip992)" style="stroke:#000000; stroke-linecap:round; stroke-linejoin:round; stroke-width:4; stroke-opacity:1; fill:none" points="1456.47,74.1451 1456.47,1486.45 1553.51,1486.45 1553.51,74.1451 1456.47,74.1451 "/>
<path clip-path="url(#clip992)" d="M1553.51 76.8352 L1553.51 1486.45 L1650.56 1486.45 L1650.56 76.8352 L1553.51 76.8352 L1553.51 76.8352  Z" fill="#009af9" fill-rule="evenodd" fill-opacity="1"/>
<polyline clip-path="url(#clip992)" style="stroke:#000000; stroke-linecap:round; stroke-linejoin:round; stroke-width:4; stroke-opacity:1; fill:none" points="1553.51,76.8352 1553.51,1486.45 1650.56,1486.45 1650.56,76.8352 1553.51,76.8352 "/>
<path clip-path="url(#clip992)" d="M1650.56 222.101 L1650.56 1486.45 L1747.6 1486.45 L1747.6 222.101 L1650.56 222.101 L1650.56 222.101  Z" fill="#009af9" fill-rule="evenodd" fill-opacity="1"/>
<polyline clip-path="url(#clip992)" style="stroke:#000000; stroke-linecap:round; stroke-linejoin:round; stroke-width:4; stroke-opacity:1; fill:none" points="1650.56,222.101 1650.56,1486.45 1747.6,1486.45 1747.6,222.101 1650.56,222.101 "/>
<path clip-path="url(#clip992)" d="M1747.6 203.27 L1747.6 1486.45 L1844.64 1486.45 L1844.64 203.27 L1747.6 203.27 L1747.6 203.27  Z" fill="#009af9" fill-rule="evenodd" fill-opacity="1"/>
<polyline clip-path="url(#clip992)" style="stroke:#000000; stroke-linecap:round; stroke-linejoin:round; stroke-width:4; stroke-opacity:1; fill:none" points="1747.6,203.27 1747.6,1486.45 1844.64,1486.45 1844.64,203.27 1747.6,203.27 "/>
<path clip-path="url(#clip992)" d="M1844.64 179.059 L1844.64 1486.45 L1941.68 1486.45 L1941.68 179.059 L1844.64 179.059 L1844.64 179.059  Z" fill="#009af9" fill-rule="evenodd" fill-opacity="1"/>
<polyline clip-path="url(#clip992)" style="stroke:#000000; stroke-linecap:round; stroke-linejoin:round; stroke-width:4; stroke-opacity:1; fill:none" points="1844.64,179.059 1844.64,1486.45 1941.68,1486.45 1941.68,179.059 1844.64,179.059 "/>
<path clip-path="url(#clip992)" d="M1941.68 111.807 L1941.68 1486.45 L2038.73 1486.45 L2038.73 111.807 L1941.68 111.807 L1941.68 111.807  Z" fill="#009af9" fill-rule="evenodd" fill-opacity="1"/>
<polyline clip-path="url(#clip992)" style="stroke:#000000; stroke-linecap:round; stroke-linejoin:round; stroke-width:4; stroke-opacity:1; fill:none" points="1941.68,111.807 1941.68,1486.45 2038.73,1486.45 2038.73,111.807 1941.68,111.807 "/>
<path clip-path="url(#clip992)" d="M2038.73 259.762 L2038.73 1486.45 L2135.77 1486.45 L2135.77 259.762 L2038.73 259.762 L2038.73 259.762  Z" fill="#009af9" fill-rule="evenodd" fill-opacity="1"/>
<polyline clip-path="url(#clip992)" style="stroke:#000000; stroke-linecap:round; stroke-linejoin:round; stroke-width:4; stroke-opacity:1; fill:none" points="2038.73,259.762 2038.73,1486.45 2135.77,1486.45 2135.77,259.762 2038.73,259.762 "/>
<path clip-path="url(#clip992)" d="M2135.77 157.538 L2135.77 1486.45 L2232.81 1486.45 L2232.81 157.538 L2135.77 157.538 L2135.77 157.538  Z" fill="#009af9" fill-rule="evenodd" fill-opacity="1"/>
<polyline clip-path="url(#clip992)" style="stroke:#000000; stroke-linecap:round; stroke-linejoin:round; stroke-width:4; stroke-opacity:1; fill:none" points="2135.77,157.538 2135.77,1486.45 2232.81,1486.45 2232.81,157.538 2135.77,157.538 "/>
<circle clip-path="url(#clip992)" style="fill:#009af9; stroke:none; fill-opacity:0" cx="340.481" cy="114.497" r="2"/>
<circle clip-path="url(#clip992)" style="fill:#009af9; stroke:none; fill-opacity:0" cx="437.523" cy="146.778" r="2"/>
<circle clip-path="url(#clip992)" style="fill:#009af9; stroke:none; fill-opacity:0" cx="534.566" cy="211.34" r="2"/>
<circle clip-path="url(#clip992)" style="fill:#009af9; stroke:none; fill-opacity:0" cx="631.609" cy="138.708" r="2"/>
<circle clip-path="url(#clip992)" style="fill:#009af9; stroke:none; fill-opacity:0" cx="728.651" cy="203.27" r="2"/>
<circle clip-path="url(#clip992)" style="fill:#009af9; stroke:none; fill-opacity:0" cx="825.694" cy="47.2441" r="2"/>
<circle clip-path="url(#clip992)" style="fill:#009af9; stroke:none; fill-opacity:0" cx="922.736" cy="87.5956" r="2"/>
<circle clip-path="url(#clip992)" style="fill:#009af9; stroke:none; fill-opacity:0" cx="1019.78" cy="170.989" r="2"/>
<circle clip-path="url(#clip992)" style="fill:#009af9; stroke:none; fill-opacity:0" cx="1116.82" cy="101.046" r="2"/>
<circle clip-path="url(#clip992)" style="fill:#009af9; stroke:none; fill-opacity:0" cx="1213.86" cy="181.749" r="2"/>
<circle clip-path="url(#clip992)" style="fill:#009af9; stroke:none; fill-opacity:0" cx="1310.91" cy="76.8352" r="2"/>
<circle clip-path="url(#clip992)" style="fill:#009af9; stroke:none; fill-opacity:0" cx="1407.95" cy="63.3847" r="2"/>
<circle clip-path="url(#clip992)" style="fill:#009af9; stroke:none; fill-opacity:0" cx="1504.99" cy="74.1451" r="2"/>
<circle clip-path="url(#clip992)" style="fill:#009af9; stroke:none; fill-opacity:0" cx="1602.03" cy="76.8352" r="2"/>
<circle clip-path="url(#clip992)" style="fill:#009af9; stroke:none; fill-opacity:0" cx="1699.08" cy="222.101" r="2"/>
<circle clip-path="url(#clip992)" style="fill:#009af9; stroke:none; fill-opacity:0" cx="1796.12" cy="203.27" r="2"/>
<circle clip-path="url(#clip992)" style="fill:#009af9; stroke:none; fill-opacity:0" cx="1893.16" cy="179.059" r="2"/>
<circle clip-path="url(#clip992)" style="fill:#009af9; stroke:none; fill-opacity:0" cx="1990.2" cy="111.807" r="2"/>
<circle clip-path="url(#clip992)" style="fill:#009af9; stroke:none; fill-opacity:0" cx="2087.25" cy="259.762" r="2"/>
<circle clip-path="url(#clip992)" style="fill:#009af9; stroke:none; fill-opacity:0" cx="2184.29" cy="157.538" r="2"/>
</svg>
