<?xml version="1.0" encoding="utf-8"?>
<svg xmlns="http://www.w3.org/2000/svg" xmlns:xlink="http://www.w3.org/1999/xlink" width="600" height="400" viewBox="0 0 2400 1600">
<defs>
  <clipPath id="clip770">
    <rect x="0" y="0" width="2400" height="1600"/>
  </clipPath>
</defs>
<path clip-path="url(#clip770)" d="
M0 1600 L2400 1600 L2400 0 L0 0  Z
  " fill="#ffffff" fill-rule="evenodd" fill-opacity="1"/>
<defs>
  <clipPath id="clip771">
    <rect x="480" y="0" width="1681" height="1600"/>
  </clipPath>
</defs>
<path clip-path="url(#clip770)" d="
M172.015 1486.45 L2352.76 1486.45 L2352.76 47.2441 L172.015 47.2441  Z
  " fill="#ffffff" fill-rule="evenodd" fill-opacity="1"/>
<defs>
  <clipPath id="clip772">
    <rect x="172" y="47" width="2182" height="1440"/>
  </clipPath>
</defs>
<polyline clip-path="url(#clip772)" style="stroke:#000000; stroke-linecap:round; stroke-linejoin:round; stroke-width:2; stroke-opacity:0.1; fill:none" points="
  291.959,1486.45 291.959,47.2441 
  "/>
<polyline clip-path="url(#clip772)" style="stroke:#000000; stroke-linecap:round; stroke-linejoin:round; stroke-width:2; stroke-opacity:0.1; fill:none" points="
  706.671,1486.45 706.671,47.2441 
  "/>
<polyline clip-path="url(#clip772)" style="stroke:#000000; stroke-linecap:round; stroke-linejoin:round; stroke-width:2; stroke-opacity:0.1; fill:none" points="
  1121.38,1486.45 1121.38,47.2441 
  "/>
<polyline clip-path="url(#clip772)" style="stroke:#000000; stroke-linecap:round; stroke-linejoin:round; stroke-width:2; stroke-opacity:0.1; fill:none" points="
  1536.1,1486.45 1536.1,47.2441 
  "/>
<polyline clip-path="url(#clip772)" style="stroke:#000000; stroke-linecap:round; stroke-linejoin:round; stroke-width:2; stroke-opacity:0.1; fill:none" points="
  1950.81,1486.45 1950.81,47.2441 
  "/>
<polyline clip-path="url(#clip770)" style="stroke:#000000; stroke-linecap:round; stroke-linejoin:round; stroke-width:4; stroke-opacity:1; fill:none" points="
  172.015,1486.45 2352.76,1486.45 
  "/>
<polyline clip-path="url(#clip770)" style="stroke:#000000; stroke-linecap:round; stroke-linejoin:round; stroke-width:4; stroke-opacity:1; fill:none" points="
  291.959,1486.45 291.959,1467.55 
  "/>
<polyline clip-path="url(#clip770)" style="stroke:#000000; stroke-linecap:round; stroke-linejoin:round; stroke-width:4; stroke-opacity:1; fill:none" points="
  706.671,1486.45 706.671,1467.55 
  "/>
<polyline clip-path="url(#clip770)" style="stroke:#000000; stroke-linecap:round; stroke-linejoin:round; stroke-width:4; stroke-opacity:1; fill:none" points="
  1121.38,1486.45 1121.38,1467.55 
  "/>
<polyline clip-path="url(#clip770)" style="stroke:#000000; stroke-linecap:round; stroke-linejoin:round; stroke-width:4; stroke-opacity:1; fill:none" points="
  1536.1,1486.45 1536.1,1467.55 
  "/>
<polyline clip-path="url(#clip770)" style="stroke:#000000; stroke-linecap:round; stroke-linejoin:round; stroke-width:4; stroke-opacity:1; fill:none" points="
  1950.81,1486.45 1950.81,1467.55 
  "/>
<path clip-path="url(#clip770)" d="M269.344 1517.37 Q265.733 1517.37 263.904 1520.93 Q262.099 1524.47 262.099 1531.6 Q262.099 1538.71 263.904 1542.27 Q265.733 1545.82 269.344 1545.82 Q272.978 1545.82 274.784 1542.27 Q276.612 1538.71 276.612 1531.6 Q276.612 1524.47 274.784 1520.93 Q272.978 1517.37 269.344 1517.37 M269.344 1513.66 Q275.154 1513.66 278.21 1518.27 Q281.288 1522.85 281.288 1531.6 Q281.288 1540.33 278.21 1544.94 Q275.154 1549.52 269.344 1549.52 Q263.534 1549.52 260.455 1544.94 Q257.399 1540.33 257.399 1531.6 Q257.399 1522.85 260.455 1518.27 Q263.534 1513.66 269.344 1513.66 Z" fill="#000000" fill-rule="evenodd" fill-opacity="1" /><path clip-path="url(#clip770)" d="M289.506 1542.97 L294.39 1542.97 L294.39 1548.85 L289.506 1548.85 L289.506 1542.97 Z" fill="#000000" fill-rule="evenodd" fill-opacity="1" /><path clip-path="url(#clip770)" d="M314.575 1517.37 Q310.964 1517.37 309.135 1520.93 Q307.33 1524.47 307.33 1531.6 Q307.33 1538.71 309.135 1542.27 Q310.964 1545.82 314.575 1545.82 Q318.209 1545.82 320.015 1542.27 Q321.844 1538.71 321.844 1531.6 Q321.844 1524.47 320.015 1520.93 Q318.209 1517.37 314.575 1517.37 M314.575 1513.66 Q320.385 1513.66 323.441 1518.27 Q326.519 1522.85 326.519 1531.6 Q326.519 1540.33 323.441 1544.94 Q320.385 1549.52 314.575 1549.52 Q308.765 1549.52 305.686 1544.94 Q302.631 1540.33 302.631 1531.6 Q302.631 1522.85 305.686 1518.27 Q308.765 1513.66 314.575 1513.66 Z" fill="#000000" fill-rule="evenodd" fill-opacity="1" /><path clip-path="url(#clip770)" d="M678.408 1544.91 L694.727 1544.91 L694.727 1548.85 L672.783 1548.85 L672.783 1544.91 Q675.445 1542.16 680.028 1537.53 Q684.634 1532.88 685.815 1531.53 Q688.06 1529.01 688.94 1527.27 Q689.843 1525.51 689.843 1523.82 Q689.843 1521.07 687.898 1519.33 Q685.977 1517.6 682.875 1517.6 Q680.676 1517.6 678.222 1518.36 Q675.792 1519.13 673.014 1520.68 L673.014 1515.95 Q675.838 1514.82 678.292 1514.24 Q680.746 1513.66 682.783 1513.66 Q688.153 1513.66 691.347 1516.35 Q694.542 1519.03 694.542 1523.52 Q694.542 1525.65 693.732 1527.57 Q692.945 1529.47 690.838 1532.07 Q690.259 1532.74 687.158 1535.95 Q684.056 1539.15 678.408 1544.91 Z" fill="#000000" fill-rule="evenodd" fill-opacity="1" /><path clip-path="url(#clip770)" d="M704.542 1542.97 L709.426 1542.97 L709.426 1548.85 L704.542 1548.85 L704.542 1542.97 Z" fill="#000000" fill-rule="evenodd" fill-opacity="1" /><path clip-path="url(#clip770)" d="M719.657 1514.29 L738.014 1514.29 L738.014 1518.22 L723.94 1518.22 L723.94 1526.7 Q724.958 1526.35 725.977 1526.19 Q726.995 1526 728.014 1526 Q733.801 1526 737.18 1529.17 Q740.56 1532.34 740.56 1537.76 Q740.56 1543.34 737.088 1546.44 Q733.616 1549.52 727.296 1549.52 Q725.12 1549.52 722.852 1549.15 Q720.606 1548.78 718.199 1548.04 L718.199 1543.34 Q720.282 1544.47 722.505 1545.03 Q724.727 1545.58 727.204 1545.58 Q731.208 1545.58 733.546 1543.48 Q735.884 1541.37 735.884 1537.76 Q735.884 1534.15 733.546 1532.04 Q731.208 1529.94 727.204 1529.94 Q725.329 1529.94 723.454 1530.35 Q721.602 1530.77 719.657 1531.65 L719.657 1514.29 Z" fill="#000000" fill-rule="evenodd" fill-opacity="1" /><path clip-path="url(#clip770)" d="M1088.55 1514.29 L1106.9 1514.29 L1106.9 1518.22 L1092.83 1518.22 L1092.83 1526.7 Q1093.85 1526.35 1094.87 1526.19 Q1095.89 1526 1096.9 1526 Q1102.69 1526 1106.07 1529.17 Q1109.45 1532.34 1109.45 1537.76 Q1109.45 1543.34 1105.98 1546.44 Q1102.51 1549.52 1096.19 1549.52 Q1094.01 1549.52 1091.74 1549.15 Q1089.5 1548.78 1087.09 1548.04 L1087.09 1543.34 Q1089.17 1544.47 1091.4 1545.03 Q1093.62 1545.58 1096.09 1545.58 Q1100.1 1545.58 1102.44 1543.48 Q1104.77 1541.37 1104.77 1537.76 Q1104.77 1534.15 1102.44 1532.04 Q1100.1 1529.94 1096.09 1529.94 Q1094.22 1529.94 1092.34 1530.35 Q1090.49 1530.77 1088.55 1531.65 L1088.55 1514.29 Z" fill="#000000" fill-rule="evenodd" fill-opacity="1" /><path clip-path="url(#clip770)" d="M1118.66 1542.97 L1123.55 1542.97 L1123.55 1548.85 L1118.66 1548.85 L1118.66 1542.97 Z" fill="#000000" fill-rule="evenodd" fill-opacity="1" /><path clip-path="url(#clip770)" d="M1143.73 1517.37 Q1140.12 1517.37 1138.29 1520.93 Q1136.49 1524.47 1136.49 1531.6 Q1136.49 1538.71 1138.29 1542.27 Q1140.12 1545.82 1143.73 1545.82 Q1147.37 1545.82 1149.17 1542.27 Q1151 1538.71 1151 1531.6 Q1151 1524.47 1149.17 1520.93 Q1147.37 1517.37 1143.73 1517.37 M1143.73 1513.66 Q1149.54 1513.66 1152.6 1518.27 Q1155.68 1522.85 1155.68 1531.6 Q1155.68 1540.33 1152.6 1544.94 Q1149.54 1549.52 1143.73 1549.52 Q1137.92 1549.52 1134.84 1544.94 Q1131.79 1540.33 1131.79 1531.6 Q1131.79 1522.85 1134.84 1518.27 Q1137.92 1513.66 1143.73 1513.66 Z" fill="#000000" fill-rule="evenodd" fill-opacity="1" /><path clip-path="url(#clip770)" d="M1502.41 1514.29 L1524.64 1514.29 L1524.64 1516.28 L1512.09 1548.85 L1507.21 1548.85 L1519.01 1518.22 L1502.41 1518.22 L1502.41 1514.29 Z" fill="#000000" fill-rule="evenodd" fill-opacity="1" /><path clip-path="url(#clip770)" d="M1533.76 1542.97 L1538.64 1542.97 L1538.64 1548.85 L1533.76 1548.85 L1533.76 1542.97 Z" fill="#000000" fill-rule="evenodd" fill-opacity="1" /><path clip-path="url(#clip770)" d="M1548.87 1514.29 L1567.23 1514.29 L1567.23 1518.22 L1553.16 1518.22 L1553.16 1526.7 Q1554.17 1526.35 1555.19 1526.19 Q1556.21 1526 1557.23 1526 Q1563.02 1526 1566.4 1529.17 Q1569.78 1532.34 1569.78 1537.76 Q1569.78 1543.34 1566.3 1546.44 Q1562.83 1549.52 1556.51 1549.52 Q1554.34 1549.52 1552.07 1549.15 Q1549.82 1548.78 1547.41 1548.04 L1547.41 1543.34 Q1549.5 1544.47 1551.72 1545.03 Q1553.94 1545.58 1556.42 1545.58 Q1560.42 1545.58 1562.76 1543.48 Q1565.1 1541.37 1565.1 1537.76 Q1565.1 1534.15 1562.76 1532.04 Q1560.42 1529.94 1556.42 1529.94 Q1554.54 1529.94 1552.67 1530.35 Q1550.82 1530.77 1548.87 1531.65 L1548.87 1514.29 Z" fill="#000000" fill-rule="evenodd" fill-opacity="1" /><path clip-path="url(#clip770)" d="M1902.88 1544.91 L1910.52 1544.91 L1910.52 1518.55 L1902.21 1520.21 L1902.21 1515.95 L1910.47 1514.29 L1915.15 1514.29 L1915.15 1544.91 L1922.79 1544.91 L1922.79 1548.85 L1902.88 1548.85 L1902.88 1544.91 Z" fill="#000000" fill-rule="evenodd" fill-opacity="1" /><path clip-path="url(#clip770)" d="M1942.23 1517.37 Q1938.62 1517.37 1936.79 1520.93 Q1934.99 1524.47 1934.99 1531.6 Q1934.99 1538.71 1936.79 1542.27 Q1938.62 1545.82 1942.23 1545.82 Q1945.87 1545.82 1947.67 1542.27 Q1949.5 1538.71 1949.5 1531.6 Q1949.5 1524.47 1947.67 1520.93 Q1945.87 1517.37 1942.23 1517.37 M1942.23 1513.66 Q1948.04 1513.66 1951.1 1518.27 Q1954.18 1522.85 1954.18 1531.6 Q1954.18 1540.33 1951.1 1544.94 Q1948.04 1549.52 1942.23 1549.52 Q1936.42 1549.52 1933.34 1544.94 Q1930.29 1540.33 1930.29 1531.6 Q1930.29 1522.85 1933.34 1518.27 Q1936.42 1513.66 1942.23 1513.66 Z" fill="#000000" fill-rule="evenodd" fill-opacity="1" /><path clip-path="url(#clip770)" d="M1962.39 1542.97 L1967.28 1542.97 L1967.28 1548.85 L1962.39 1548.85 L1962.39 1542.97 Z" fill="#000000" fill-rule="evenodd" fill-opacity="1" /><path clip-path="url(#clip770)" d="M1987.46 1517.37 Q1983.85 1517.37 1982.02 1520.93 Q1980.22 1524.47 1980.22 1531.6 Q1980.22 1538.71 1982.02 1542.27 Q1983.85 1545.82 1987.46 1545.82 Q1991.1 1545.82 1992.9 1542.27 Q1994.73 1538.71 1994.73 1531.6 Q1994.73 1524.47 1992.9 1520.93 Q1991.1 1517.37 1987.46 1517.37 M1987.46 1513.66 Q1993.27 1513.66 1996.33 1518.27 Q1999.41 1522.85 1999.41 1531.6 Q1999.41 1540.33 1996.33 1544.94 Q1993.27 1549.52 1987.46 1549.52 Q1981.65 1549.52 1978.57 1544.94 Q1975.52 1540.33 1975.52 1531.6 Q1975.52 1522.85 1978.57 1518.27 Q1981.65 1513.66 1987.46 1513.66 Z" fill="#000000" fill-rule="evenodd" fill-opacity="1" /><polyline clip-path="url(#clip772)" style="stroke:#000000; stroke-linecap:round; stroke-linejoin:round; stroke-width:2; stroke-opacity:0.1; fill:none" points="
  172.015,1445.72 2352.76,1445.72 
  "/>
<polyline clip-path="url(#clip772)" style="stroke:#000000; stroke-linecap:round; stroke-linejoin:round; stroke-width:2; stroke-opacity:0.1; fill:none" points="
  172.015,1164.61 2352.76,1164.61 
  "/>
<polyline clip-path="url(#clip772)" style="stroke:#000000; stroke-linecap:round; stroke-linejoin:round; stroke-width:2; stroke-opacity:0.1; fill:none" points="
  172.015,883.505 2352.76,883.505 
  "/>
<polyline clip-path="url(#clip772)" style="stroke:#000000; stroke-linecap:round; stroke-linejoin:round; stroke-width:2; stroke-opacity:0.1; fill:none" points="
  172.015,602.399 2352.76,602.399 
  "/>
<polyline clip-path="url(#clip772)" style="stroke:#000000; stroke-linecap:round; stroke-linejoin:round; stroke-width:2; stroke-opacity:0.1; fill:none" points="
  172.015,321.294 2352.76,321.294 
  "/>
<polyline clip-path="url(#clip770)" style="stroke:#000000; stroke-linecap:round; stroke-linejoin:round; stroke-width:4; stroke-opacity:1; fill:none" points="
  172.015,1486.45 172.015,47.2441 
  "/>
<polyline clip-path="url(#clip770)" style="stroke:#000000; stroke-linecap:round; stroke-linejoin:round; stroke-width:4; stroke-opacity:1; fill:none" points="
  172.015,1445.72 190.912,1445.72 
  "/>
<polyline clip-path="url(#clip770)" style="stroke:#000000; stroke-linecap:round; stroke-linejoin:round; stroke-width:4; stroke-opacity:1; fill:none" points="
  172.015,1164.61 190.912,1164.61 
  "/>
<polyline clip-path="url(#clip770)" style="stroke:#000000; stroke-linecap:round; stroke-linejoin:round; stroke-width:4; stroke-opacity:1; fill:none" points="
  172.015,883.505 190.912,883.505 
  "/>
<polyline clip-path="url(#clip770)" style="stroke:#000000; stroke-linecap:round; stroke-linejoin:round; stroke-width:4; stroke-opacity:1; fill:none" points="
  172.015,602.399 190.912,602.399 
  "/>
<polyline clip-path="url(#clip770)" style="stroke:#000000; stroke-linecap:round; stroke-linejoin:round; stroke-width:4; stroke-opacity:1; fill:none" points="
  172.015,321.294 190.912,321.294 
  "/>
<path clip-path="url(#clip770)" d="M124.07 1431.51 Q120.459 1431.51 118.631 1435.08 Q116.825 1438.62 116.825 1445.75 Q116.825 1452.86 118.631 1456.42 Q120.459 1459.96 124.07 1459.96 Q127.705 1459.96 129.51 1456.42 Q131.339 1452.86 131.339 1445.75 Q131.339 1438.62 129.51 1435.08 Q127.705 1431.51 124.07 1431.51 M124.07 1427.81 Q129.881 1427.81 132.936 1432.42 Q136.015 1437 136.015 1445.75 Q136.015 1454.48 132.936 1459.08 Q129.881 1463.67 124.07 1463.67 Q118.26 1463.67 115.182 1459.08 Q112.126 1454.48 112.126 1445.75 Q112.126 1437 115.182 1432.42 Q118.26 1427.81 124.07 1427.81 Z" fill="#000000" fill-rule="evenodd" fill-opacity="1" /><path clip-path="url(#clip770)" d="M57.7745 1177.96 L74.0939 1177.96 L74.0939 1181.89 L52.1495 1181.89 L52.1495 1177.96 Q54.8115 1175.2 59.3949 1170.57 Q64.0013 1165.92 65.1819 1164.58 Q67.4272 1162.05 68.3068 1160.32 Q69.2096 1158.56 69.2096 1156.87 Q69.2096 1154.11 67.2652 1152.38 Q65.3439 1150.64 62.2421 1150.64 Q60.043 1150.64 57.5893 1151.4 Q55.1588 1152.17 52.381 1153.72 L52.381 1149 Q55.2051 1147.86 57.6588 1147.28 Q60.1124 1146.71 62.1495 1146.71 Q67.5198 1146.71 70.7142 1149.39 Q73.9087 1152.08 73.9087 1156.57 Q73.9087 1158.7 73.0985 1160.62 Q72.3115 1162.52 70.205 1165.11 Q69.6263 1165.78 66.5245 1169 Q63.4226 1172.19 57.7745 1177.96 Z" fill="#000000" fill-rule="evenodd" fill-opacity="1" /><path clip-path="url(#clip770)" d="M93.9086 1150.41 Q90.2975 1150.41 88.4688 1153.97 Q86.6632 1157.52 86.6632 1164.64 Q86.6632 1171.75 88.4688 1175.32 Q90.2975 1178.86 93.9086 1178.86 Q97.5428 1178.86 99.3483 1175.32 Q101.177 1171.75 101.177 1164.64 Q101.177 1157.52 99.3483 1153.97 Q97.5428 1150.41 93.9086 1150.41 M93.9086 1146.71 Q99.7187 1146.71 102.774 1151.31 Q105.853 1155.89 105.853 1164.64 Q105.853 1173.37 102.774 1177.98 Q99.7187 1182.56 93.9086 1182.56 Q88.0984 1182.56 85.0197 1177.98 Q81.9642 1173.37 81.9642 1164.64 Q81.9642 1155.89 85.0197 1151.31 Q88.0984 1146.71 93.9086 1146.71 Z" fill="#000000" fill-rule="evenodd" fill-opacity="1" /><path clip-path="url(#clip770)" d="M124.07 1150.41 Q120.459 1150.41 118.631 1153.97 Q116.825 1157.52 116.825 1164.64 Q116.825 1171.75 118.631 1175.32 Q120.459 1178.86 124.07 1178.86 Q127.705 1178.86 129.51 1175.32 Q131.339 1171.75 131.339 1164.64 Q131.339 1157.52 129.51 1153.97 Q127.705 1150.41 124.07 1150.41 M124.07 1146.71 Q129.881 1146.71 132.936 1151.31 Q136.015 1155.89 136.015 1164.64 Q136.015 1173.37 132.936 1177.98 Q129.881 1182.56 124.07 1182.56 Q118.26 1182.56 115.182 1177.98 Q112.126 1173.37 112.126 1164.64 Q112.126 1155.89 115.182 1151.31 Q118.26 1146.71 124.07 1146.71 Z" fill="#000000" fill-rule="evenodd" fill-opacity="1" /><path clip-path="url(#clip770)" d="M66.5939 870.299 L54.7884 888.748 L66.5939 888.748 L66.5939 870.299 M65.367 866.225 L71.2466 866.225 L71.2466 888.748 L76.1772 888.748 L76.1772 892.637 L71.2466 892.637 L71.2466 900.785 L66.5939 900.785 L66.5939 892.637 L50.9921 892.637 L50.9921 888.123 L65.367 866.225 Z" fill="#000000" fill-rule="evenodd" fill-opacity="1" /><path clip-path="url(#clip770)" d="M93.9086 869.303 Q90.2975 869.303 88.4688 872.868 Q86.6632 876.41 86.6632 883.539 Q86.6632 890.646 88.4688 894.211 Q90.2975 897.752 93.9086 897.752 Q97.5428 897.752 99.3483 894.211 Q101.177 890.646 101.177 883.539 Q101.177 876.41 99.3483 872.868 Q97.5428 869.303 93.9086 869.303 M93.9086 865.6 Q99.7187 865.6 102.774 870.206 Q105.853 874.79 105.853 883.539 Q105.853 892.266 102.774 896.873 Q99.7187 901.456 93.9086 901.456 Q88.0984 901.456 85.0197 896.873 Q81.9642 892.266 81.9642 883.539 Q81.9642 874.79 85.0197 870.206 Q88.0984 865.6 93.9086 865.6 Z" fill="#000000" fill-rule="evenodd" fill-opacity="1" /><path clip-path="url(#clip770)" d="M124.07 869.303 Q120.459 869.303 118.631 872.868 Q116.825 876.41 116.825 883.539 Q116.825 890.646 118.631 894.211 Q120.459 897.752 124.07 897.752 Q127.705 897.752 129.51 894.211 Q131.339 890.646 131.339 883.539 Q131.339 876.41 129.51 872.868 Q127.705 869.303 124.07 869.303 M124.07 865.6 Q129.881 865.6 132.936 870.206 Q136.015 874.79 136.015 883.539 Q136.015 892.266 132.936 896.873 Q129.881 901.456 124.07 901.456 Q118.26 901.456 115.182 896.873 Q112.126 892.266 112.126 883.539 Q112.126 874.79 115.182 870.206 Q118.26 865.6 124.07 865.6 Z" fill="#000000" fill-rule="evenodd" fill-opacity="1" /><path clip-path="url(#clip770)" d="M64.3254 600.536 Q61.1773 600.536 59.3254 602.689 Q57.4967 604.841 57.4967 608.591 Q57.4967 612.318 59.3254 614.494 Q61.1773 616.647 64.3254 616.647 Q67.4735 616.647 69.3022 614.494 Q71.1541 612.318 71.1541 608.591 Q71.1541 604.841 69.3022 602.689 Q67.4735 600.536 64.3254 600.536 M73.6077 585.883 L73.6077 590.142 Q71.8485 589.309 70.0429 588.869 Q68.2606 588.429 66.5013 588.429 Q61.8717 588.429 59.418 591.554 Q56.9875 594.679 56.6402 600.999 Q58.006 598.985 60.0662 597.92 Q62.1263 596.832 64.6032 596.832 Q69.8115 596.832 72.8207 600.003 Q75.8531 603.152 75.8531 608.591 Q75.8531 613.915 72.705 617.133 Q69.5568 620.351 64.3254 620.351 Q58.33 620.351 55.1588 615.767 Q51.9875 611.161 51.9875 602.434 Q51.9875 594.24 55.8764 589.379 Q59.7652 584.494 66.3161 584.494 Q68.0754 584.494 69.8578 584.842 Q71.6633 585.189 73.6077 585.883 Z" fill="#000000" fill-rule="evenodd" fill-opacity="1" /><path clip-path="url(#clip770)" d="M93.9086 588.198 Q90.2975 588.198 88.4688 591.763 Q86.6632 595.304 86.6632 602.434 Q86.6632 609.54 88.4688 613.105 Q90.2975 616.647 93.9086 616.647 Q97.5428 616.647 99.3483 613.105 Q101.177 609.54 101.177 602.434 Q101.177 595.304 99.3483 591.763 Q97.5428 588.198 93.9086 588.198 M93.9086 584.494 Q99.7187 584.494 102.774 589.101 Q105.853 593.684 105.853 602.434 Q105.853 611.161 102.774 615.767 Q99.7187 620.351 93.9086 620.351 Q88.0984 620.351 85.0197 615.767 Q81.9642 611.161 81.9642 602.434 Q81.9642 593.684 85.0197 589.101 Q88.0984 584.494 93.9086 584.494 Z" fill="#000000" fill-rule="evenodd" fill-opacity="1" /><path clip-path="url(#clip770)" d="M124.07 588.198 Q120.459 588.198 118.631 591.763 Q116.825 595.304 116.825 602.434 Q116.825 609.54 118.631 613.105 Q120.459 616.647 124.07 616.647 Q127.705 616.647 129.51 613.105 Q131.339 609.54 131.339 602.434 Q131.339 595.304 129.51 591.763 Q127.705 588.198 124.07 588.198 M124.07 584.494 Q129.881 584.494 132.936 589.101 Q136.015 593.684 136.015 602.434 Q136.015 611.161 132.936 615.767 Q129.881 620.351 124.07 620.351 Q118.26 620.351 115.182 615.767 Q112.126 611.161 112.126 602.434 Q112.126 593.684 115.182 589.101 Q118.26 584.494 124.07 584.494 Z" fill="#000000" fill-rule="evenodd" fill-opacity="1" /><path clip-path="url(#clip770)" d="M63.7467 322.162 Q60.4134 322.162 58.4921 323.944 Q56.5939 325.727 56.5939 328.852 Q56.5939 331.977 58.4921 333.759 Q60.4134 335.541 63.7467 335.541 Q67.08 335.541 69.0013 333.759 Q70.9226 331.953 70.9226 328.852 Q70.9226 325.727 69.0013 323.944 Q67.1032 322.162 63.7467 322.162 M59.0708 320.171 Q56.0615 319.43 54.3717 317.37 Q52.7051 315.31 52.7051 312.347 Q52.7051 308.204 55.6449 305.796 Q58.6078 303.389 63.7467 303.389 Q68.9087 303.389 71.8485 305.796 Q74.7883 308.204 74.7883 312.347 Q74.7883 315.31 73.0985 317.37 Q71.4318 319.43 68.4457 320.171 Q71.8253 320.958 73.7003 323.25 Q75.5985 325.541 75.5985 328.852 Q75.5985 333.875 72.5198 336.56 Q69.4642 339.245 63.7467 339.245 Q58.0291 339.245 54.9504 336.56 Q51.8949 333.875 51.8949 328.852 Q51.8949 325.541 53.793 323.25 Q55.6912 320.958 59.0708 320.171 M57.3578 312.787 Q57.3578 315.472 59.0245 316.977 Q60.7143 318.481 63.7467 318.481 Q66.7559 318.481 68.4457 316.977 Q70.1587 315.472 70.1587 312.787 Q70.1587 310.102 68.4457 308.597 Q66.7559 307.093 63.7467 307.093 Q60.7143 307.093 59.0245 308.597 Q57.3578 310.102 57.3578 312.787 Z" fill="#000000" fill-rule="evenodd" fill-opacity="1" /><path clip-path="url(#clip770)" d="M93.9086 307.093 Q90.2975 307.093 88.4688 310.657 Q86.6632 314.199 86.6632 321.329 Q86.6632 328.435 88.4688 332 Q90.2975 335.541 93.9086 335.541 Q97.5428 335.541 99.3483 332 Q101.177 328.435 101.177 321.329 Q101.177 314.199 99.3483 310.657 Q97.5428 307.093 93.9086 307.093 M93.9086 303.389 Q99.7187 303.389 102.774 307.995 Q105.853 312.579 105.853 321.329 Q105.853 330.055 102.774 334.662 Q99.7187 339.245 93.9086 339.245 Q88.0984 339.245 85.0197 334.662 Q81.9642 330.055 81.9642 321.329 Q81.9642 312.579 85.0197 307.995 Q88.0984 303.389 93.9086 303.389 Z" fill="#000000" fill-rule="evenodd" fill-opacity="1" /><path clip-path="url(#clip770)" d="M124.07 307.093 Q120.459 307.093 118.631 310.657 Q116.825 314.199 116.825 321.329 Q116.825 328.435 118.631 332 Q120.459 335.541 124.07 335.541 Q127.705 335.541 129.51 332 Q131.339 328.435 131.339 321.329 Q131.339 314.199 129.51 310.657 Q127.705 307.093 124.07 307.093 M124.07 303.389 Q129.881 303.389 132.936 307.995 Q136.015 312.579 136.015 321.329 Q136.015 330.055 132.936 334.662 Q129.881 339.245 124.07 339.245 Q118.26 339.245 115.182 334.662 Q112.126 330.055 112.126 321.329 Q112.126 312.579 115.182 307.995 Q118.26 303.389 124.07 303.389 Z" fill="#000000" fill-rule="evenodd" fill-opacity="1" /><path clip-path="url(#clip772)" d="
M291.959 87.9763 L291.959 1445.72 L308.548 1445.72 L308.548 87.9763 L291.959 87.9763 L291.959 87.9763  Z
  " fill="#009af9" fill-rule="evenodd" fill-opacity="1"/>
<polyline clip-path="url(#clip772)" style="stroke:#000000; stroke-linecap:round; stroke-linejoin:round; stroke-width:4; stroke-opacity:1; fill:none" points="
  291.959,87.9763 291.959,1445.72 308.548,1445.72 308.548,87.9763 291.959,87.9763 
  "/>
<path clip-path="url(#clip772)" d="
M308.548 274.911 L308.548 1445.72 L325.136 1445.72 L325.136 274.911 L308.548 274.911 L308.548 274.911  Z
  " fill="#009af9" fill-rule="evenodd" fill-opacity="1"/>
<polyline clip-path="url(#clip772)" style="stroke:#000000; stroke-linecap:round; stroke-linejoin:round; stroke-width:4; stroke-opacity:1; fill:none" points="
  308.548,274.911 308.548,1445.72 325.136,1445.72 325.136,274.911 308.548,274.911 
  "/>
<path clip-path="url(#clip772)" d="
M325.136 359.243 L325.136 1445.72 L341.725 1445.72 L341.725 359.243 L325.136 359.243 L325.136 359.243  Z
  " fill="#009af9" fill-rule="evenodd" fill-opacity="1"/>
<polyline clip-path="url(#clip772)" style="stroke:#000000; stroke-linecap:round; stroke-linejoin:round; stroke-width:4; stroke-opacity:1; fill:none" points="
  325.136,359.243 325.136,1445.72 341.725,1445.72 341.725,359.243 325.136,359.243 
  "/>
<path clip-path="url(#clip772)" d="
M341.725 433.736 L341.725 1445.72 L358.313 1445.72 L358.313 433.736 L341.725 433.736 L341.725 433.736  Z
  " fill="#009af9" fill-rule="evenodd" fill-opacity="1"/>
<polyline clip-path="url(#clip772)" style="stroke:#000000; stroke-linecap:round; stroke-linejoin:round; stroke-width:4; stroke-opacity:1; fill:none" points="
  341.725,433.736 341.725,1445.72 358.313,1445.72 358.313,433.736 341.725,433.736 
  "/>
<path clip-path="url(#clip772)" d="
M358.313 546.178 L358.313 1445.72 L374.902 1445.72 L374.902 546.178 L358.313 546.178 L358.313 546.178  Z
  " fill="#009af9" fill-rule="evenodd" fill-opacity="1"/>
<polyline clip-path="url(#clip772)" style="stroke:#000000; stroke-linecap:round; stroke-linejoin:round; stroke-width:4; stroke-opacity:1; fill:none" points="
  358.313,546.178 358.313,1445.72 374.902,1445.72 374.902,546.178 358.313,546.178 
  "/>
<path clip-path="url(#clip772)" d="
M374.902 608.021 L374.902 1445.72 L391.49 1445.72 L391.49 608.021 L374.902 608.021 L374.902 608.021  Z
  " fill="#009af9" fill-rule="evenodd" fill-opacity="1"/>
<polyline clip-path="url(#clip772)" style="stroke:#000000; stroke-linecap:round; stroke-linejoin:round; stroke-width:4; stroke-opacity:1; fill:none" points="
  374.902,608.021 374.902,1445.72 391.49,1445.72 391.49,608.021 374.902,608.021 
  "/>
<path clip-path="url(#clip772)" d="
M391.49 723.275 L391.49 1445.72 L408.079 1445.72 L408.079 723.275 L391.49 723.275 L391.49 723.275  Z
  " fill="#009af9" fill-rule="evenodd" fill-opacity="1"/>
<polyline clip-path="url(#clip772)" style="stroke:#000000; stroke-linecap:round; stroke-linejoin:round; stroke-width:4; stroke-opacity:1; fill:none" points="
  391.49,723.275 391.49,1445.72 408.079,1445.72 408.079,723.275 391.49,723.275 
  "/>
<path clip-path="url(#clip772)" d="
M408.079 742.952 L408.079 1445.72 L424.667 1445.72 L424.667 742.952 L408.079 742.952 L408.079 742.952  Z
  " fill="#009af9" fill-rule="evenodd" fill-opacity="1"/>
<polyline clip-path="url(#clip772)" style="stroke:#000000; stroke-linecap:round; stroke-linejoin:round; stroke-width:4; stroke-opacity:1; fill:none" points="
  408.079,742.952 408.079,1445.72 424.667,1445.72 424.667,742.952 408.079,742.952 
  "/>
<path clip-path="url(#clip772)" d="
M424.667 830.095 L424.667 1445.72 L441.256 1445.72 L441.256 830.095 L424.667 830.095 L424.667 830.095  Z
  " fill="#009af9" fill-rule="evenodd" fill-opacity="1"/>
<polyline clip-path="url(#clip772)" style="stroke:#000000; stroke-linecap:round; stroke-linejoin:round; stroke-width:4; stroke-opacity:1; fill:none" points="
  424.667,830.095 424.667,1445.72 441.256,1445.72 441.256,830.095 424.667,830.095 
  "/>
<path clip-path="url(#clip772)" d="
M441.256 851.178 L441.256 1445.72 L457.844 1445.72 L457.844 851.178 L441.256 851.178 L441.256 851.178  Z
  " fill="#009af9" fill-rule="evenodd" fill-opacity="1"/>
<polyline clip-path="url(#clip772)" style="stroke:#000000; stroke-linecap:round; stroke-linejoin:round; stroke-width:4; stroke-opacity:1; fill:none" points="
  441.256,851.178 441.256,1445.72 457.844,1445.72 457.844,851.178 441.256,851.178 
  "/>
<path clip-path="url(#clip772)" d="
M457.844 956.592 L457.844 1445.72 L474.433 1445.72 L474.433 956.592 L457.844 956.592 L457.844 956.592  Z
  " fill="#009af9" fill-rule="evenodd" fill-opacity="1"/>
<polyline clip-path="url(#clip772)" style="stroke:#000000; stroke-linecap:round; stroke-linejoin:round; stroke-width:4; stroke-opacity:1; fill:none" points="
  457.844,956.592 457.844,1445.72 474.433,1445.72 474.433,956.592 457.844,956.592 
  "/>
<path clip-path="url(#clip772)" d="
M474.433 967.836 L474.433 1445.72 L491.021 1445.72 L491.021 967.836 L474.433 967.836 L474.433 967.836  Z
  " fill="#009af9" fill-rule="evenodd" fill-opacity="1"/>
<polyline clip-path="url(#clip772)" style="stroke:#000000; stroke-linecap:round; stroke-linejoin:round; stroke-width:4; stroke-opacity:1; fill:none" points="
  474.433,967.836 474.433,1445.72 491.021,1445.72 491.021,967.836 474.433,967.836 
  "/>
<path clip-path="url(#clip772)" d="
M491.021 1071.85 L491.021 1445.72 L507.61 1445.72 L507.61 1071.85 L491.021 1071.85 L491.021 1071.85  Z
  " fill="#009af9" fill-rule="evenodd" fill-opacity="1"/>
<polyline clip-path="url(#clip772)" style="stroke:#000000; stroke-linecap:round; stroke-linejoin:round; stroke-width:4; stroke-opacity:1; fill:none" points="
  491.021,1071.85 491.021,1445.72 507.61,1445.72 507.61,1071.85 491.021,1071.85 
  "/>
<path clip-path="url(#clip772)" d="
M507.61 1085.9 L507.61 1445.72 L524.198 1445.72 L524.198 1085.9 L507.61 1085.9 L507.61 1085.9  Z
  " fill="#009af9" fill-rule="evenodd" fill-opacity="1"/>
<polyline clip-path="url(#clip772)" style="stroke:#000000; stroke-linecap:round; stroke-linejoin:round; stroke-width:4; stroke-opacity:1; fill:none" points="
  507.61,1085.9 507.61,1445.72 524.198,1445.72 524.198,1085.9 507.61,1085.9 
  "/>
<path clip-path="url(#clip772)" d="
M524.198 1125.26 L524.198 1445.72 L540.787 1445.72 L540.787 1125.26 L524.198 1125.26 L524.198 1125.26  Z
  " fill="#009af9" fill-rule="evenodd" fill-opacity="1"/>
<polyline clip-path="url(#clip772)" style="stroke:#000000; stroke-linecap:round; stroke-linejoin:round; stroke-width:4; stroke-opacity:1; fill:none" points="
  524.198,1125.26 524.198,1445.72 540.787,1445.72 540.787,1125.26 524.198,1125.26 
  "/>
<path clip-path="url(#clip772)" d="
M540.787 1158.99 L540.787 1445.72 L557.375 1445.72 L557.375 1158.99 L540.787 1158.99 L540.787 1158.99  Z
  " fill="#009af9" fill-rule="evenodd" fill-opacity="1"/>
<polyline clip-path="url(#clip772)" style="stroke:#000000; stroke-linecap:round; stroke-linejoin:round; stroke-width:4; stroke-opacity:1; fill:none" points="
  540.787,1158.99 540.787,1445.72 557.375,1445.72 557.375,1158.99 540.787,1158.99 
  "/>
<path clip-path="url(#clip772)" d="
M557.375 1195.53 L557.375 1445.72 L573.964 1445.72 L573.964 1195.53 L557.375 1195.53 L557.375 1195.53  Z
  " fill="#009af9" fill-rule="evenodd" fill-opacity="1"/>
<polyline clip-path="url(#clip772)" style="stroke:#000000; stroke-linecap:round; stroke-linejoin:round; stroke-width:4; stroke-opacity:1; fill:none" points="
  557.375,1195.53 557.375,1445.72 573.964,1445.72 573.964,1195.53 557.375,1195.53 
  "/>
<path clip-path="url(#clip772)" d="
M573.964 1210.99 L573.964 1445.72 L590.552 1445.72 L590.552 1210.99 L573.964 1210.99 L573.964 1210.99  Z
  " fill="#009af9" fill-rule="evenodd" fill-opacity="1"/>
<polyline clip-path="url(#clip772)" style="stroke:#000000; stroke-linecap:round; stroke-linejoin:round; stroke-width:4; stroke-opacity:1; fill:none" points="
  573.964,1210.99 573.964,1445.72 590.552,1445.72 590.552,1210.99 573.964,1210.99 
  "/>
<path clip-path="url(#clip772)" d="
M590.552 1232.08 L590.552 1445.72 L607.141 1445.72 L607.141 1232.08 L590.552 1232.08 L590.552 1232.08  Z
  " fill="#009af9" fill-rule="evenodd" fill-opacity="1"/>
<polyline clip-path="url(#clip772)" style="stroke:#000000; stroke-linecap:round; stroke-linejoin:round; stroke-width:4; stroke-opacity:1; fill:none" points="
  590.552,1232.08 590.552,1445.72 607.141,1445.72 607.141,1232.08 590.552,1232.08 
  "/>
<path clip-path="url(#clip772)" d="
M607.141 1225.05 L607.141 1445.72 L623.729 1445.72 L623.729 1225.05 L607.141 1225.05 L607.141 1225.05  Z
  " fill="#009af9" fill-rule="evenodd" fill-opacity="1"/>
<polyline clip-path="url(#clip772)" style="stroke:#000000; stroke-linecap:round; stroke-linejoin:round; stroke-width:4; stroke-opacity:1; fill:none" points="
  607.141,1225.05 607.141,1445.72 623.729,1445.72 623.729,1225.05 607.141,1225.05 
  "/>
<path clip-path="url(#clip772)" d="
M623.729 1270.02 L623.729 1445.72 L640.317 1445.72 L640.317 1270.02 L623.729 1270.02 L623.729 1270.02  Z
  " fill="#009af9" fill-rule="evenodd" fill-opacity="1"/>
<polyline clip-path="url(#clip772)" style="stroke:#000000; stroke-linecap:round; stroke-linejoin:round; stroke-width:4; stroke-opacity:1; fill:none" points="
  623.729,1270.02 623.729,1445.72 640.317,1445.72 640.317,1270.02 623.729,1270.02 
  "/>
<path clip-path="url(#clip772)" d="
M640.317 1289.7 L640.317 1445.72 L656.906 1445.72 L656.906 1289.7 L640.317 1289.7 L640.317 1289.7  Z
  " fill="#009af9" fill-rule="evenodd" fill-opacity="1"/>
<polyline clip-path="url(#clip772)" style="stroke:#000000; stroke-linecap:round; stroke-linejoin:round; stroke-width:4; stroke-opacity:1; fill:none" points="
  640.317,1289.7 640.317,1445.72 656.906,1445.72 656.906,1289.7 640.317,1289.7 
  "/>
<path clip-path="url(#clip772)" d="
M656.906 1289.7 L656.906 1445.72 L673.494 1445.72 L673.494 1289.7 L656.906 1289.7 L656.906 1289.7  Z
  " fill="#009af9" fill-rule="evenodd" fill-opacity="1"/>
<polyline clip-path="url(#clip772)" style="stroke:#000000; stroke-linecap:round; stroke-linejoin:round; stroke-width:4; stroke-opacity:1; fill:none" points="
  656.906,1289.7 656.906,1445.72 673.494,1445.72 673.494,1289.7 656.906,1289.7 
  "/>
<path clip-path="url(#clip772)" d="
M673.494 1331.87 L673.494 1445.72 L690.083 1445.72 L690.083 1331.87 L673.494 1331.87 L673.494 1331.87  Z
  " fill="#009af9" fill-rule="evenodd" fill-opacity="1"/>
<polyline clip-path="url(#clip772)" style="stroke:#000000; stroke-linecap:round; stroke-linejoin:round; stroke-width:4; stroke-opacity:1; fill:none" points="
  673.494,1331.87 673.494,1445.72 690.083,1445.72 690.083,1331.87 673.494,1331.87 
  "/>
<path clip-path="url(#clip772)" d="
M690.083 1310.79 L690.083 1445.72 L706.671 1445.72 L706.671 1310.79 L690.083 1310.79 L690.083 1310.79  Z
  " fill="#009af9" fill-rule="evenodd" fill-opacity="1"/>
<polyline clip-path="url(#clip772)" style="stroke:#000000; stroke-linecap:round; stroke-linejoin:round; stroke-width:4; stroke-opacity:1; fill:none" points="
  690.083,1310.79 690.083,1445.72 706.671,1445.72 706.671,1310.79 690.083,1310.79 
  "/>
<path clip-path="url(#clip772)" d="
M706.671 1376.84 L706.671 1445.72 L723.26 1445.72 L723.26 1376.84 L706.671 1376.84 L706.671 1376.84  Z
  " fill="#009af9" fill-rule="evenodd" fill-opacity="1"/>
<polyline clip-path="url(#clip772)" style="stroke:#000000; stroke-linecap:round; stroke-linejoin:round; stroke-width:4; stroke-opacity:1; fill:none" points="
  706.671,1376.84 706.671,1445.72 723.26,1445.72 723.26,1376.84 706.671,1376.84 
  "/>
<path clip-path="url(#clip772)" d="
M723.26 1334.68 L723.26 1445.72 L739.848 1445.72 L739.848 1334.68 L723.26 1334.68 L723.26 1334.68  Z
  " fill="#009af9" fill-rule="evenodd" fill-opacity="1"/>
<polyline clip-path="url(#clip772)" style="stroke:#000000; stroke-linecap:round; stroke-linejoin:round; stroke-width:4; stroke-opacity:1; fill:none" points="
  723.26,1334.68 723.26,1445.72 739.848,1445.72 739.848,1334.68 723.26,1334.68 
  "/>
<path clip-path="url(#clip772)" d="
M739.848 1359.98 L739.848 1445.72 L756.437 1445.72 L756.437 1359.98 L739.848 1359.98 L739.848 1359.98  Z
  " fill="#009af9" fill-rule="evenodd" fill-opacity="1"/>
<polyline clip-path="url(#clip772)" style="stroke:#000000; stroke-linecap:round; stroke-linejoin:round; stroke-width:4; stroke-opacity:1; fill:none" points="
  739.848,1359.98 739.848,1445.72 756.437,1445.72 756.437,1359.98 739.848,1359.98 
  "/>
<path clip-path="url(#clip772)" d="
M756.437 1367.01 L756.437 1445.72 L773.025 1445.72 L773.025 1367.01 L756.437 1367.01 L756.437 1367.01  Z
  " fill="#009af9" fill-rule="evenodd" fill-opacity="1"/>
<polyline clip-path="url(#clip772)" style="stroke:#000000; stroke-linecap:round; stroke-linejoin:round; stroke-width:4; stroke-opacity:1; fill:none" points="
  756.437,1367.01 756.437,1445.72 773.025,1445.72 773.025,1367.01 756.437,1367.01 
  "/>
<path clip-path="url(#clip772)" d="
M773.025 1388.09 L773.025 1445.72 L789.614 1445.72 L789.614 1388.09 L773.025 1388.09 L773.025 1388.09  Z
  " fill="#009af9" fill-rule="evenodd" fill-opacity="1"/>
<polyline clip-path="url(#clip772)" style="stroke:#000000; stroke-linecap:round; stroke-linejoin:round; stroke-width:4; stroke-opacity:1; fill:none" points="
  773.025,1388.09 773.025,1445.72 789.614,1445.72 789.614,1388.09 773.025,1388.09 
  "/>
<path clip-path="url(#clip772)" d="
M789.614 1375.44 L789.614 1445.72 L806.202 1445.72 L806.202 1375.44 L789.614 1375.44 L789.614 1375.44  Z
  " fill="#009af9" fill-rule="evenodd" fill-opacity="1"/>
<polyline clip-path="url(#clip772)" style="stroke:#000000; stroke-linecap:round; stroke-linejoin:round; stroke-width:4; stroke-opacity:1; fill:none" points="
  789.614,1375.44 789.614,1445.72 806.202,1445.72 806.202,1375.44 789.614,1375.44 
  "/>
<path clip-path="url(#clip772)" d="
M806.202 1374.03 L806.202 1445.72 L822.791 1445.72 L822.791 1374.03 L806.202 1374.03 L806.202 1374.03  Z
  " fill="#009af9" fill-rule="evenodd" fill-opacity="1"/>
<polyline clip-path="url(#clip772)" style="stroke:#000000; stroke-linecap:round; stroke-linejoin:round; stroke-width:4; stroke-opacity:1; fill:none" points="
  806.202,1374.03 806.202,1445.72 822.791,1445.72 822.791,1374.03 806.202,1374.03 
  "/>
<path clip-path="url(#clip772)" d="
M822.791 1393.71 L822.791 1445.72 L839.379 1445.72 L839.379 1393.71 L822.791 1393.71 L822.791 1393.71  Z
  " fill="#009af9" fill-rule="evenodd" fill-opacity="1"/>
<polyline clip-path="url(#clip772)" style="stroke:#000000; stroke-linecap:round; stroke-linejoin:round; stroke-width:4; stroke-opacity:1; fill:none" points="
  822.791,1393.71 822.791,1445.72 839.379,1445.72 839.379,1393.71 822.791,1393.71 
  "/>
<path clip-path="url(#clip772)" d="
M839.379 1395.12 L839.379 1445.72 L855.968 1445.72 L855.968 1395.12 L839.379 1395.12 L839.379 1395.12  Z
  " fill="#009af9" fill-rule="evenodd" fill-opacity="1"/>
<polyline clip-path="url(#clip772)" style="stroke:#000000; stroke-linecap:round; stroke-linejoin:round; stroke-width:4; stroke-opacity:1; fill:none" points="
  839.379,1395.12 839.379,1445.72 855.968,1445.72 855.968,1395.12 839.379,1395.12 
  "/>
<path clip-path="url(#clip772)" d="
M855.968 1399.33 L855.968 1445.72 L872.556 1445.72 L872.556 1399.33 L855.968 1399.33 L855.968 1399.33  Z
  " fill="#009af9" fill-rule="evenodd" fill-opacity="1"/>
<polyline clip-path="url(#clip772)" style="stroke:#000000; stroke-linecap:round; stroke-linejoin:round; stroke-width:4; stroke-opacity:1; fill:none" points="
  855.968,1399.33 855.968,1445.72 872.556,1445.72 872.556,1399.33 855.968,1399.33 
  "/>
<path clip-path="url(#clip772)" d="
M872.556 1409.17 L872.556 1445.72 L889.145 1445.72 L889.145 1409.17 L872.556 1409.17 L872.556 1409.17  Z
  " fill="#009af9" fill-rule="evenodd" fill-opacity="1"/>
<polyline clip-path="url(#clip772)" style="stroke:#000000; stroke-linecap:round; stroke-linejoin:round; stroke-width:4; stroke-opacity:1; fill:none" points="
  872.556,1409.17 872.556,1445.72 889.145,1445.72 889.145,1409.17 872.556,1409.17 
  "/>
<path clip-path="url(#clip772)" d="
M889.145 1407.77 L889.145 1445.72 L905.733 1445.72 L905.733 1407.77 L889.145 1407.77 L889.145 1407.77  Z
  " fill="#009af9" fill-rule="evenodd" fill-opacity="1"/>
<polyline clip-path="url(#clip772)" style="stroke:#000000; stroke-linecap:round; stroke-linejoin:round; stroke-width:4; stroke-opacity:1; fill:none" points="
  889.145,1407.77 889.145,1445.72 905.733,1445.72 905.733,1407.77 889.145,1407.77 
  "/>
<path clip-path="url(#clip772)" d="
M905.733 1414.79 L905.733 1445.72 L922.322 1445.72 L922.322 1414.79 L905.733 1414.79 L905.733 1414.79  Z
  " fill="#009af9" fill-rule="evenodd" fill-opacity="1"/>
<polyline clip-path="url(#clip772)" style="stroke:#000000; stroke-linecap:round; stroke-linejoin:round; stroke-width:4; stroke-opacity:1; fill:none" points="
  905.733,1414.79 905.733,1445.72 922.322,1445.72 922.322,1414.79 905.733,1414.79 
  "/>
<path clip-path="url(#clip772)" d="
M922.322 1421.82 L922.322 1445.72 L938.91 1445.72 L938.91 1421.82 L922.322 1421.82 L922.322 1421.82  Z
  " fill="#009af9" fill-rule="evenodd" fill-opacity="1"/>
<polyline clip-path="url(#clip772)" style="stroke:#000000; stroke-linecap:round; stroke-linejoin:round; stroke-width:4; stroke-opacity:1; fill:none" points="
  922.322,1421.82 922.322,1445.72 938.91,1445.72 938.91,1421.82 922.322,1421.82 
  "/>
<path clip-path="url(#clip772)" d="
M938.91 1416.2 L938.91 1445.72 L955.499 1445.72 L955.499 1416.2 L938.91 1416.2 L938.91 1416.2  Z
  " fill="#009af9" fill-rule="evenodd" fill-opacity="1"/>
<polyline clip-path="url(#clip772)" style="stroke:#000000; stroke-linecap:round; stroke-linejoin:round; stroke-width:4; stroke-opacity:1; fill:none" points="
  938.91,1416.2 938.91,1445.72 955.499,1445.72 955.499,1416.2 938.91,1416.2 
  "/>
<path clip-path="url(#clip772)" d="
M955.499 1427.44 L955.499 1445.72 L972.087 1445.72 L972.087 1427.44 L955.499 1427.44 L955.499 1427.44  Z
  " fill="#009af9" fill-rule="evenodd" fill-opacity="1"/>
<polyline clip-path="url(#clip772)" style="stroke:#000000; stroke-linecap:round; stroke-linejoin:round; stroke-width:4; stroke-opacity:1; fill:none" points="
  955.499,1427.44 955.499,1445.72 972.087,1445.72 972.087,1427.44 955.499,1427.44 
  "/>
<path clip-path="url(#clip772)" d="
M972.087 1419.01 L972.087 1445.72 L988.675 1445.72 L988.675 1419.01 L972.087 1419.01 L972.087 1419.01  Z
  " fill="#009af9" fill-rule="evenodd" fill-opacity="1"/>
<polyline clip-path="url(#clip772)" style="stroke:#000000; stroke-linecap:round; stroke-linejoin:round; stroke-width:4; stroke-opacity:1; fill:none" points="
  972.087,1419.01 972.087,1445.72 988.675,1445.72 988.675,1419.01 972.087,1419.01 
  "/>
<path clip-path="url(#clip772)" d="
M988.675 1428.85 L988.675 1445.72 L1005.26 1445.72 L1005.26 1428.85 L988.675 1428.85 L988.675 1428.85  Z
  " fill="#009af9" fill-rule="evenodd" fill-opacity="1"/>
<polyline clip-path="url(#clip772)" style="stroke:#000000; stroke-linecap:round; stroke-linejoin:round; stroke-width:4; stroke-opacity:1; fill:none" points="
  988.675,1428.85 988.675,1445.72 1005.26,1445.72 1005.26,1428.85 988.675,1428.85 
  "/>
<path clip-path="url(#clip772)" d="
M1005.26 1421.82 L1005.26 1445.72 L1021.85 1445.72 L1021.85 1421.82 L1005.26 1421.82 L1005.26 1421.82  Z
  " fill="#009af9" fill-rule="evenodd" fill-opacity="1"/>
<polyline clip-path="url(#clip772)" style="stroke:#000000; stroke-linecap:round; stroke-linejoin:round; stroke-width:4; stroke-opacity:1; fill:none" points="
  1005.26,1421.82 1005.26,1445.72 1021.85,1445.72 1021.85,1421.82 1005.26,1421.82 
  "/>
<path clip-path="url(#clip772)" d="
M1021.85 1435.88 L1021.85 1445.72 L1038.44 1445.72 L1038.44 1435.88 L1021.85 1435.88 L1021.85 1435.88  Z
  " fill="#009af9" fill-rule="evenodd" fill-opacity="1"/>
<polyline clip-path="url(#clip772)" style="stroke:#000000; stroke-linecap:round; stroke-linejoin:round; stroke-width:4; stroke-opacity:1; fill:none" points="
  1021.85,1435.88 1021.85,1445.72 1038.44,1445.72 1038.44,1435.88 1021.85,1435.88 
  "/>
<path clip-path="url(#clip772)" d="
M1038.44 1435.88 L1038.44 1445.72 L1055.03 1445.72 L1055.03 1435.88 L1038.44 1435.88 L1038.44 1435.88  Z
  " fill="#009af9" fill-rule="evenodd" fill-opacity="1"/>
<polyline clip-path="url(#clip772)" style="stroke:#000000; stroke-linecap:round; stroke-linejoin:round; stroke-width:4; stroke-opacity:1; fill:none" points="
  1038.44,1435.88 1038.44,1445.72 1055.03,1445.72 1055.03,1435.88 1038.44,1435.88 
  "/>
<path clip-path="url(#clip772)" d="
M1055.03 1428.85 L1055.03 1445.72 L1071.62 1445.72 L1071.62 1428.85 L1055.03 1428.85 L1055.03 1428.85  Z
  " fill="#009af9" fill-rule="evenodd" fill-opacity="1"/>
<polyline clip-path="url(#clip772)" style="stroke:#000000; stroke-linecap:round; stroke-linejoin:round; stroke-width:4; stroke-opacity:1; fill:none" points="
  1055.03,1428.85 1055.03,1445.72 1071.62,1445.72 1071.62,1428.85 1055.03,1428.85 
  "/>
<path clip-path="url(#clip772)" d="
M1071.62 1437.28 L1071.62 1445.72 L1088.21 1445.72 L1088.21 1437.28 L1071.62 1437.28 L1071.62 1437.28  Z
  " fill="#009af9" fill-rule="evenodd" fill-opacity="1"/>
<polyline clip-path="url(#clip772)" style="stroke:#000000; stroke-linecap:round; stroke-linejoin:round; stroke-width:4; stroke-opacity:1; fill:none" points="
  1071.62,1437.28 1071.62,1445.72 1088.21,1445.72 1088.21,1437.28 1071.62,1437.28 
  "/>
<path clip-path="url(#clip772)" d="
M1088.21 1440.09 L1088.21 1445.72 L1104.79 1445.72 L1104.79 1440.09 L1088.21 1440.09 L1088.21 1440.09  Z
  " fill="#009af9" fill-rule="evenodd" fill-opacity="1"/>
<polyline clip-path="url(#clip772)" style="stroke:#000000; stroke-linecap:round; stroke-linejoin:round; stroke-width:4; stroke-opacity:1; fill:none" points="
  1088.21,1440.09 1088.21,1445.72 1104.79,1445.72 1104.79,1440.09 1088.21,1440.09 
  "/>
<path clip-path="url(#clip772)" d="
M1104.79 1426.04 L1104.79 1445.72 L1121.38 1445.72 L1121.38 1426.04 L1104.79 1426.04 L1104.79 1426.04  Z
  " fill="#009af9" fill-rule="evenodd" fill-opacity="1"/>
<polyline clip-path="url(#clip772)" style="stroke:#000000; stroke-linecap:round; stroke-linejoin:round; stroke-width:4; stroke-opacity:1; fill:none" points="
  1104.79,1426.04 1104.79,1445.72 1121.38,1445.72 1121.38,1426.04 1104.79,1426.04 
  "/>
<path clip-path="url(#clip772)" d="
M1121.38 1441.5 L1121.38 1445.72 L1137.97 1445.72 L1137.97 1441.5 L1121.38 1441.5 L1121.38 1441.5  Z
  " fill="#009af9" fill-rule="evenodd" fill-opacity="1"/>
<polyline clip-path="url(#clip772)" style="stroke:#000000; stroke-linecap:round; stroke-linejoin:round; stroke-width:4; stroke-opacity:1; fill:none" points="
  1121.38,1441.5 1121.38,1445.72 1137.97,1445.72 1137.97,1441.5 1121.38,1441.5 
  "/>
<path clip-path="url(#clip772)" d="
M1137.97 1445.72 L1137.97 1445.72 L1154.56 1445.72 L1154.56 1445.72 L1137.97 1445.72 L1137.97 1445.72  Z
  " fill="#009af9" fill-rule="evenodd" fill-opacity="1"/>
<polyline clip-path="url(#clip772)" style="stroke:#000000; stroke-linecap:round; stroke-linejoin:round; stroke-width:4; stroke-opacity:1; fill:none" points="
  1137.97,1445.72 1137.97,1445.72 1154.56,1445.72 1137.97,1445.72 
  "/>
<path clip-path="url(#clip772)" d="
M1154.56 1441.5 L1154.56 1445.72 L1171.15 1445.72 L1171.15 1441.5 L1154.56 1441.5 L1154.56 1441.5  Z
  " fill="#009af9" fill-rule="evenodd" fill-opacity="1"/>
<polyline clip-path="url(#clip772)" style="stroke:#000000; stroke-linecap:round; stroke-linejoin:round; stroke-width:4; stroke-opacity:1; fill:none" points="
  1154.56,1441.5 1154.56,1445.72 1171.15,1445.72 1171.15,1441.5 1154.56,1441.5 
  "/>
<path clip-path="url(#clip772)" d="
M1171.15 1440.09 L1171.15 1445.72 L1187.74 1445.72 L1187.74 1440.09 L1171.15 1440.09 L1171.15 1440.09  Z
  " fill="#009af9" fill-rule="evenodd" fill-opacity="1"/>
<polyline clip-path="url(#clip772)" style="stroke:#000000; stroke-linecap:round; stroke-linejoin:round; stroke-width:4; stroke-opacity:1; fill:none" points="
  1171.15,1440.09 1171.15,1445.72 1187.74,1445.72 1187.74,1440.09 1171.15,1440.09 
  "/>
<path clip-path="url(#clip772)" d="
M1187.74 1444.31 L1187.74 1445.72 L1204.33 1445.72 L1204.33 1444.31 L1187.74 1444.31 L1187.74 1444.31  Z
  " fill="#009af9" fill-rule="evenodd" fill-opacity="1"/>
<polyline clip-path="url(#clip772)" style="stroke:#000000; stroke-linecap:round; stroke-linejoin:round; stroke-width:4; stroke-opacity:1; fill:none" points="
  1187.74,1444.31 1187.74,1445.72 1204.33,1445.72 1204.33,1444.31 1187.74,1444.31 
  "/>
<path clip-path="url(#clip772)" d="
M1204.33 1442.9 L1204.33 1445.72 L1220.91 1445.72 L1220.91 1442.9 L1204.33 1442.9 L1204.33 1442.9  Z
  " fill="#009af9" fill-rule="evenodd" fill-opacity="1"/>
<polyline clip-path="url(#clip772)" style="stroke:#000000; stroke-linecap:round; stroke-linejoin:round; stroke-width:4; stroke-opacity:1; fill:none" points="
  1204.33,1442.9 1204.33,1445.72 1220.91,1445.72 1220.91,1442.9 1204.33,1442.9 
  "/>
<path clip-path="url(#clip772)" d="
M1220.91 1440.09 L1220.91 1445.72 L1237.5 1445.72 L1237.5 1440.09 L1220.91 1440.09 L1220.91 1440.09  Z
  " fill="#009af9" fill-rule="evenodd" fill-opacity="1"/>
<polyline clip-path="url(#clip772)" style="stroke:#000000; stroke-linecap:round; stroke-linejoin:round; stroke-width:4; stroke-opacity:1; fill:none" points="
  1220.91,1440.09 1220.91,1445.72 1237.5,1445.72 1237.5,1440.09 1220.91,1440.09 
  "/>
<path clip-path="url(#clip772)" d="
M1237.5 1440.09 L1237.5 1445.72 L1254.09 1445.72 L1254.09 1440.09 L1237.5 1440.09 L1237.5 1440.09  Z
  " fill="#009af9" fill-rule="evenodd" fill-opacity="1"/>
<polyline clip-path="url(#clip772)" style="stroke:#000000; stroke-linecap:round; stroke-linejoin:round; stroke-width:4; stroke-opacity:1; fill:none" points="
  1237.5,1440.09 1237.5,1445.72 1254.09,1445.72 1254.09,1440.09 1237.5,1440.09 
  "/>
<path clip-path="url(#clip772)" d="
M1254.09 1442.9 L1254.09 1445.72 L1270.68 1445.72 L1270.68 1442.9 L1254.09 1442.9 L1254.09 1442.9  Z
  " fill="#009af9" fill-rule="evenodd" fill-opacity="1"/>
<polyline clip-path="url(#clip772)" style="stroke:#000000; stroke-linecap:round; stroke-linejoin:round; stroke-width:4; stroke-opacity:1; fill:none" points="
  1254.09,1442.9 1254.09,1445.72 1270.68,1445.72 1270.68,1442.9 1254.09,1442.9 
  "/>
<path clip-path="url(#clip772)" d="
M1270.68 1437.28 L1270.68 1445.72 L1287.27 1445.72 L1287.27 1437.28 L1270.68 1437.28 L1270.68 1437.28  Z
  " fill="#009af9" fill-rule="evenodd" fill-opacity="1"/>
<polyline clip-path="url(#clip772)" style="stroke:#000000; stroke-linecap:round; stroke-linejoin:round; stroke-width:4; stroke-opacity:1; fill:none" points="
  1270.68,1437.28 1270.68,1445.72 1287.27,1445.72 1287.27,1437.28 1270.68,1437.28 
  "/>
<path clip-path="url(#clip772)" d="
M1287.27 1442.9 L1287.27 1445.72 L1303.86 1445.72 L1303.86 1442.9 L1287.27 1442.9 L1287.27 1442.9  Z
  " fill="#009af9" fill-rule="evenodd" fill-opacity="1"/>
<polyline clip-path="url(#clip772)" style="stroke:#000000; stroke-linecap:round; stroke-linejoin:round; stroke-width:4; stroke-opacity:1; fill:none" points="
  1287.27,1442.9 1287.27,1445.72 1303.86,1445.72 1303.86,1442.9 1287.27,1442.9 
  "/>
<path clip-path="url(#clip772)" d="
M1303.86 1441.5 L1303.86 1445.72 L1320.45 1445.72 L1320.45 1441.5 L1303.86 1441.5 L1303.86 1441.5  Z
  " fill="#009af9" fill-rule="evenodd" fill-opacity="1"/>
<polyline clip-path="url(#clip772)" style="stroke:#000000; stroke-linecap:round; stroke-linejoin:round; stroke-width:4; stroke-opacity:1; fill:none" points="
  1303.86,1441.5 1303.86,1445.72 1320.45,1445.72 1320.45,1441.5 1303.86,1441.5 
  "/>
<path clip-path="url(#clip772)" d="
M1320.45 1441.5 L1320.45 1445.72 L1337.03 1445.72 L1337.03 1441.5 L1320.45 1441.5 L1320.45 1441.5  Z
  " fill="#009af9" fill-rule="evenodd" fill-opacity="1"/>
<polyline clip-path="url(#clip772)" style="stroke:#000000; stroke-linecap:round; stroke-linejoin:round; stroke-width:4; stroke-opacity:1; fill:none" points="
  1320.45,1441.5 1320.45,1445.72 1337.03,1445.72 1337.03,1441.5 1320.45,1441.5 
  "/>
<path clip-path="url(#clip772)" d="
M1337.03 1444.31 L1337.03 1445.72 L1353.62 1445.72 L1353.62 1444.31 L1337.03 1444.31 L1337.03 1444.31  Z
  " fill="#009af9" fill-rule="evenodd" fill-opacity="1"/>
<polyline clip-path="url(#clip772)" style="stroke:#000000; stroke-linecap:round; stroke-linejoin:round; stroke-width:4; stroke-opacity:1; fill:none" points="
  1337.03,1444.31 1337.03,1445.72 1353.62,1445.72 1353.62,1444.31 1337.03,1444.31 
  "/>
<path clip-path="url(#clip772)" d="
M1353.62 1442.9 L1353.62 1445.72 L1370.21 1445.72 L1370.21 1442.9 L1353.62 1442.9 L1353.62 1442.9  Z
  " fill="#009af9" fill-rule="evenodd" fill-opacity="1"/>
<polyline clip-path="url(#clip772)" style="stroke:#000000; stroke-linecap:round; stroke-linejoin:round; stroke-width:4; stroke-opacity:1; fill:none" points="
  1353.62,1442.9 1353.62,1445.72 1370.21,1445.72 1370.21,1442.9 1353.62,1442.9 
  "/>
<path clip-path="url(#clip772)" d="
M1370.21 1442.9 L1370.21 1445.72 L1386.8 1445.72 L1386.8 1442.9 L1370.21 1442.9 L1370.21 1442.9  Z
  " fill="#009af9" fill-rule="evenodd" fill-opacity="1"/>
<polyline clip-path="url(#clip772)" style="stroke:#000000; stroke-linecap:round; stroke-linejoin:round; stroke-width:4; stroke-opacity:1; fill:none" points="
  1370.21,1442.9 1370.21,1445.72 1386.8,1445.72 1386.8,1442.9 1370.21,1442.9 
  "/>
<path clip-path="url(#clip772)" d="
M1386.8 1445.72 L1386.8 1445.72 L1403.39 1445.72 L1403.39 1445.72 L1386.8 1445.72 L1386.8 1445.72  Z
  " fill="#009af9" fill-rule="evenodd" fill-opacity="1"/>
<polyline clip-path="url(#clip772)" style="stroke:#000000; stroke-linecap:round; stroke-linejoin:round; stroke-width:4; stroke-opacity:1; fill:none" points="
  1386.8,1445.72 1386.8,1445.72 1403.39,1445.72 1386.8,1445.72 
  "/>
<path clip-path="url(#clip772)" d="
M1403.39 1444.31 L1403.39 1445.72 L1419.98 1445.72 L1419.98 1444.31 L1403.39 1444.31 L1403.39 1444.31  Z
  " fill="#009af9" fill-rule="evenodd" fill-opacity="1"/>
<polyline clip-path="url(#clip772)" style="stroke:#000000; stroke-linecap:round; stroke-linejoin:round; stroke-width:4; stroke-opacity:1; fill:none" points="
  1403.39,1444.31 1403.39,1445.72 1419.98,1445.72 1419.98,1444.31 1403.39,1444.31 
  "/>
<path clip-path="url(#clip772)" d="
M1419.98 1442.9 L1419.98 1445.72 L1436.56 1445.72 L1436.56 1442.9 L1419.98 1442.9 L1419.98 1442.9  Z
  " fill="#009af9" fill-rule="evenodd" fill-opacity="1"/>
<polyline clip-path="url(#clip772)" style="stroke:#000000; stroke-linecap:round; stroke-linejoin:round; stroke-width:4; stroke-opacity:1; fill:none" points="
  1419.98,1442.9 1419.98,1445.72 1436.56,1445.72 1436.56,1442.9 1419.98,1442.9 
  "/>
<path clip-path="url(#clip772)" d="
M1436.56 1442.9 L1436.56 1445.72 L1453.15 1445.72 L1453.15 1442.9 L1436.56 1442.9 L1436.56 1442.9  Z
  " fill="#009af9" fill-rule="evenodd" fill-opacity="1"/>
<polyline clip-path="url(#clip772)" style="stroke:#000000; stroke-linecap:round; stroke-linejoin:round; stroke-width:4; stroke-opacity:1; fill:none" points="
  1436.56,1442.9 1436.56,1445.72 1453.15,1445.72 1453.15,1442.9 1436.56,1442.9 
  "/>
<path clip-path="url(#clip772)" d="
M1453.15 1444.31 L1453.15 1445.72 L1469.74 1445.72 L1469.74 1444.31 L1453.15 1444.31 L1453.15 1444.31  Z
  " fill="#009af9" fill-rule="evenodd" fill-opacity="1"/>
<polyline clip-path="url(#clip772)" style="stroke:#000000; stroke-linecap:round; stroke-linejoin:round; stroke-width:4; stroke-opacity:1; fill:none" points="
  1453.15,1444.31 1453.15,1445.72 1469.74,1445.72 1469.74,1444.31 1453.15,1444.31 
  "/>
<path clip-path="url(#clip772)" d="
M1469.74 1444.31 L1469.74 1445.72 L1486.33 1445.72 L1486.33 1444.31 L1469.74 1444.31 L1469.74 1444.31  Z
  " fill="#009af9" fill-rule="evenodd" fill-opacity="1"/>
<polyline clip-path="url(#clip772)" style="stroke:#000000; stroke-linecap:round; stroke-linejoin:round; stroke-width:4; stroke-opacity:1; fill:none" points="
  1469.74,1444.31 1469.74,1445.72 1486.33,1445.72 1486.33,1444.31 1469.74,1444.31 
  "/>
<path clip-path="url(#clip772)" d="
M1486.33 1442.9 L1486.33 1445.72 L1502.92 1445.72 L1502.92 1442.9 L1486.33 1442.9 L1486.33 1442.9  Z
  " fill="#009af9" fill-rule="evenodd" fill-opacity="1"/>
<polyline clip-path="url(#clip772)" style="stroke:#000000; stroke-linecap:round; stroke-linejoin:round; stroke-width:4; stroke-opacity:1; fill:none" points="
  1486.33,1442.9 1486.33,1445.72 1502.92,1445.72 1502.92,1442.9 1486.33,1442.9 
  "/>
<path clip-path="url(#clip772)" d="
M1502.92 1444.31 L1502.92 1445.72 L1519.51 1445.72 L1519.51 1444.31 L1502.92 1444.31 L1502.92 1444.31  Z
  " fill="#009af9" fill-rule="evenodd" fill-opacity="1"/>
<polyline clip-path="url(#clip772)" style="stroke:#000000; stroke-linecap:round; stroke-linejoin:round; stroke-width:4; stroke-opacity:1; fill:none" points="
  1502.92,1444.31 1502.92,1445.72 1519.51,1445.72 1519.51,1444.31 1502.92,1444.31 
  "/>
<path clip-path="url(#clip772)" d="
M1519.51 1442.9 L1519.51 1445.72 L1536.1 1445.72 L1536.1 1442.9 L1519.51 1442.9 L1519.51 1442.9  Z
  " fill="#009af9" fill-rule="evenodd" fill-opacity="1"/>
<polyline clip-path="url(#clip772)" style="stroke:#000000; stroke-linecap:round; stroke-linejoin:round; stroke-width:4; stroke-opacity:1; fill:none" points="
  1519.51,1442.9 1519.51,1445.72 1536.1,1445.72 1536.1,1442.9 1519.51,1442.9 
  "/>
<path clip-path="url(#clip772)" d="
M1536.1 1445.72 L1536.1 1445.72 L1552.68 1445.72 L1552.68 1445.72 L1536.1 1445.72 L1536.1 1445.72  Z
  " fill="#009af9" fill-rule="evenodd" fill-opacity="1"/>
<polyline clip-path="url(#clip772)" style="stroke:#000000; stroke-linecap:round; stroke-linejoin:round; stroke-width:4; stroke-opacity:1; fill:none" points="
  1536.1,1445.72 1536.1,1445.72 1552.68,1445.72 1536.1,1445.72 
  "/>
<path clip-path="url(#clip772)" d="
M1552.68 1444.31 L1552.68 1445.72 L1569.27 1445.72 L1569.27 1444.31 L1552.68 1444.31 L1552.68 1444.31  Z
  " fill="#009af9" fill-rule="evenodd" fill-opacity="1"/>
<polyline clip-path="url(#clip772)" style="stroke:#000000; stroke-linecap:round; stroke-linejoin:round; stroke-width:4; stroke-opacity:1; fill:none" points="
  1552.68,1444.31 1552.68,1445.72 1569.27,1445.72 1569.27,1444.31 1552.68,1444.31 
  "/>
<path clip-path="url(#clip772)" d="
M1569.27 1445.72 L1569.27 1445.72 L1585.86 1445.72 L1585.86 1445.72 L1569.27 1445.72 L1569.27 1445.72  Z
  " fill="#009af9" fill-rule="evenodd" fill-opacity="1"/>
<polyline clip-path="url(#clip772)" style="stroke:#000000; stroke-linecap:round; stroke-linejoin:round; stroke-width:4; stroke-opacity:1; fill:none" points="
  1569.27,1445.72 1569.27,1445.72 1585.86,1445.72 1569.27,1445.72 
  "/>
<path clip-path="url(#clip772)" d="
M1585.86 1445.72 L1585.86 1445.72 L1602.45 1445.72 L1602.45 1445.72 L1585.86 1445.72 L1585.86 1445.72  Z
  " fill="#009af9" fill-rule="evenodd" fill-opacity="1"/>
<polyline clip-path="url(#clip772)" style="stroke:#000000; stroke-linecap:round; stroke-linejoin:round; stroke-width:4; stroke-opacity:1; fill:none" points="
  1585.86,1445.72 1585.86,1445.72 1602.45,1445.72 1585.86,1445.72 
  "/>
<path clip-path="url(#clip772)" d="
M1602.45 1445.72 L1602.45 1445.72 L1619.04 1445.72 L1619.04 1445.72 L1602.45 1445.72 L1602.45 1445.72  Z
  " fill="#009af9" fill-rule="evenodd" fill-opacity="1"/>
<polyline clip-path="url(#clip772)" style="stroke:#000000; stroke-linecap:round; stroke-linejoin:round; stroke-width:4; stroke-opacity:1; fill:none" points="
  1602.45,1445.72 1602.45,1445.72 1619.04,1445.72 1602.45,1445.72 
  "/>
<path clip-path="url(#clip772)" d="
M1619.04 1445.72 L1619.04 1445.72 L1635.63 1445.72 L1635.63 1445.72 L1619.04 1445.72 L1619.04 1445.72  Z
  " fill="#009af9" fill-rule="evenodd" fill-opacity="1"/>
<polyline clip-path="url(#clip772)" style="stroke:#000000; stroke-linecap:round; stroke-linejoin:round; stroke-width:4; stroke-opacity:1; fill:none" points="
  1619.04,1445.72 1619.04,1445.72 1635.63,1445.72 1619.04,1445.72 
  "/>
<path clip-path="url(#clip772)" d="
M1635.63 1445.72 L1635.63 1445.72 L1652.21 1445.72 L1652.21 1445.72 L1635.63 1445.72 L1635.63 1445.72  Z
  " fill="#009af9" fill-rule="evenodd" fill-opacity="1"/>
<polyline clip-path="url(#clip772)" style="stroke:#000000; stroke-linecap:round; stroke-linejoin:round; stroke-width:4; stroke-opacity:1; fill:none" points="
  1635.63,1445.72 1635.63,1445.72 1652.21,1445.72 1635.63,1445.72 
  "/>
<path clip-path="url(#clip772)" d="
M1652.21 1445.72 L1652.21 1445.72 L1668.8 1445.72 L1668.8 1445.72 L1652.21 1445.72 L1652.21 1445.72  Z
  " fill="#009af9" fill-rule="evenodd" fill-opacity="1"/>
<polyline clip-path="url(#clip772)" style="stroke:#000000; stroke-linecap:round; stroke-linejoin:round; stroke-width:4; stroke-opacity:1; fill:none" points="
  1652.21,1445.72 1652.21,1445.72 1668.8,1445.72 1652.21,1445.72 
  "/>
<path clip-path="url(#clip772)" d="
M1668.8 1445.72 L1668.8 1445.72 L1685.39 1445.72 L1685.39 1445.72 L1668.8 1445.72 L1668.8 1445.72  Z
  " fill="#009af9" fill-rule="evenodd" fill-opacity="1"/>
<polyline clip-path="url(#clip772)" style="stroke:#000000; stroke-linecap:round; stroke-linejoin:round; stroke-width:4; stroke-opacity:1; fill:none" points="
  1668.8,1445.72 1668.8,1445.72 1685.39,1445.72 1668.8,1445.72 
  "/>
<path clip-path="url(#clip772)" d="
M1685.39 1444.31 L1685.39 1445.72 L1701.98 1445.72 L1701.98 1444.31 L1685.39 1444.31 L1685.39 1444.31  Z
  " fill="#009af9" fill-rule="evenodd" fill-opacity="1"/>
<polyline clip-path="url(#clip772)" style="stroke:#000000; stroke-linecap:round; stroke-linejoin:round; stroke-width:4; stroke-opacity:1; fill:none" points="
  1685.39,1444.31 1685.39,1445.72 1701.98,1445.72 1701.98,1444.31 1685.39,1444.31 
  "/>
<path clip-path="url(#clip772)" d="
M1701.98 1445.72 L1701.98 1445.72 L1718.57 1445.72 L1718.57 1445.72 L1701.98 1445.72 L1701.98 1445.72  Z
  " fill="#009af9" fill-rule="evenodd" fill-opacity="1"/>
<polyline clip-path="url(#clip772)" style="stroke:#000000; stroke-linecap:round; stroke-linejoin:round; stroke-width:4; stroke-opacity:1; fill:none" points="
  1701.98,1445.72 1701.98,1445.72 1718.57,1445.72 1701.98,1445.72 
  "/>
<path clip-path="url(#clip772)" d="
M1718.57 1445.72 L1718.57 1445.72 L1735.16 1445.72 L1735.16 1445.72 L1718.57 1445.72 L1718.57 1445.72  Z
  " fill="#009af9" fill-rule="evenodd" fill-opacity="1"/>
<polyline clip-path="url(#clip772)" style="stroke:#000000; stroke-linecap:round; stroke-linejoin:round; stroke-width:4; stroke-opacity:1; fill:none" points="
  1718.57,1445.72 1718.57,1445.72 1735.16,1445.72 1718.57,1445.72 
  "/>
<path clip-path="url(#clip772)" d="
M1735.16 1444.31 L1735.16 1445.72 L1751.75 1445.72 L1751.75 1444.31 L1735.16 1444.31 L1735.16 1444.31  Z
  " fill="#009af9" fill-rule="evenodd" fill-opacity="1"/>
<polyline clip-path="url(#clip772)" style="stroke:#000000; stroke-linecap:round; stroke-linejoin:round; stroke-width:4; stroke-opacity:1; fill:none" points="
  1735.16,1444.31 1735.16,1445.72 1751.75,1445.72 1751.75,1444.31 1735.16,1444.31 
  "/>
<path clip-path="url(#clip772)" d="
M1751.75 1445.72 L1751.75 1445.72 L1768.33 1445.72 L1768.33 1445.72 L1751.75 1445.72 L1751.75 1445.72  Z
  " fill="#009af9" fill-rule="evenodd" fill-opacity="1"/>
<polyline clip-path="url(#clip772)" style="stroke:#000000; stroke-linecap:round; stroke-linejoin:round; stroke-width:4; stroke-opacity:1; fill:none" points="
  1751.75,1445.72 1751.75,1445.72 1768.33,1445.72 1751.75,1445.72 
  "/>
<path clip-path="url(#clip772)" d="
M1768.33 1445.72 L1768.33 1445.72 L1784.92 1445.72 L1784.92 1445.72 L1768.33 1445.72 L1768.33 1445.72  Z
  " fill="#009af9" fill-rule="evenodd" fill-opacity="1"/>
<polyline clip-path="url(#clip772)" style="stroke:#000000; stroke-linecap:round; stroke-linejoin:round; stroke-width:4; stroke-opacity:1; fill:none" points="
  1768.33,1445.72 1768.33,1445.72 1784.92,1445.72 1768.33,1445.72 
  "/>
<path clip-path="url(#clip772)" d="
M1784.92 1445.72 L1784.92 1445.72 L1801.51 1445.72 L1801.51 1445.72 L1784.92 1445.72 L1784.92 1445.72  Z
  " fill="#009af9" fill-rule="evenodd" fill-opacity="1"/>
<polyline clip-path="url(#clip772)" style="stroke:#000000; stroke-linecap:round; stroke-linejoin:round; stroke-width:4; stroke-opacity:1; fill:none" points="
  1784.92,1445.72 1784.92,1445.72 1801.51,1445.72 1784.92,1445.72 
  "/>
<path clip-path="url(#clip772)" d="
M1801.51 1444.31 L1801.51 1445.72 L1818.1 1445.72 L1818.1 1444.31 L1801.51 1444.31 L1801.51 1444.31  Z
  " fill="#009af9" fill-rule="evenodd" fill-opacity="1"/>
<polyline clip-path="url(#clip772)" style="stroke:#000000; stroke-linecap:round; stroke-linejoin:round; stroke-width:4; stroke-opacity:1; fill:none" points="
  1801.51,1444.31 1801.51,1445.72 1818.1,1445.72 1818.1,1444.31 1801.51,1444.31 
  "/>
<path clip-path="url(#clip772)" d="
M1818.1 1445.72 L1818.1 1445.72 L1834.69 1445.72 L1834.69 1445.72 L1818.1 1445.72 L1818.1 1445.72  Z
  " fill="#009af9" fill-rule="evenodd" fill-opacity="1"/>
<polyline clip-path="url(#clip772)" style="stroke:#000000; stroke-linecap:round; stroke-linejoin:round; stroke-width:4; stroke-opacity:1; fill:none" points="
  1818.1,1445.72 1818.1,1445.72 1834.69,1445.72 1818.1,1445.72 
  "/>
<path clip-path="url(#clip772)" d="
M1834.69 1445.72 L1834.69 1445.72 L1851.28 1445.72 L1851.28 1445.72 L1834.69 1445.72 L1834.69 1445.72  Z
  " fill="#009af9" fill-rule="evenodd" fill-opacity="1"/>
<polyline clip-path="url(#clip772)" style="stroke:#000000; stroke-linecap:round; stroke-linejoin:round; stroke-width:4; stroke-opacity:1; fill:none" points="
  1834.69,1445.72 1834.69,1445.72 1851.28,1445.72 1834.69,1445.72 
  "/>
<path clip-path="url(#clip772)" d="
M1851.28 1444.31 L1851.28 1445.72 L1867.86 1445.72 L1867.86 1444.31 L1851.28 1444.31 L1851.28 1444.31  Z
  " fill="#009af9" fill-rule="evenodd" fill-opacity="1"/>
<polyline clip-path="url(#clip772)" style="stroke:#000000; stroke-linecap:round; stroke-linejoin:round; stroke-width:4; stroke-opacity:1; fill:none" points="
  1851.28,1444.31 1851.28,1445.72 1867.86,1445.72 1867.86,1444.31 1851.28,1444.31 
  "/>
<path clip-path="url(#clip772)" d="
M1867.86 1445.72 L1867.86 1445.72 L1884.45 1445.72 L1884.45 1445.72 L1867.86 1445.72 L1867.86 1445.72  Z
  " fill="#009af9" fill-rule="evenodd" fill-opacity="1"/>
<polyline clip-path="url(#clip772)" style="stroke:#000000; stroke-linecap:round; stroke-linejoin:round; stroke-width:4; stroke-opacity:1; fill:none" points="
  1867.86,1445.72 1867.86,1445.72 1884.45,1445.72 1867.86,1445.72 
  "/>
<path clip-path="url(#clip772)" d="
M1884.45 1445.72 L1884.45 1445.72 L1901.04 1445.72 L1901.04 1445.72 L1884.45 1445.72 L1884.45 1445.72  Z
  " fill="#009af9" fill-rule="evenodd" fill-opacity="1"/>
<polyline clip-path="url(#clip772)" style="stroke:#000000; stroke-linecap:round; stroke-linejoin:round; stroke-width:4; stroke-opacity:1; fill:none" points="
  1884.45,1445.72 1884.45,1445.72 1901.04,1445.72 1884.45,1445.72 
  "/>
<path clip-path="url(#clip772)" d="
M1901.04 1445.72 L1901.04 1445.72 L1917.63 1445.72 L1917.63 1445.72 L1901.04 1445.72 L1901.04 1445.72  Z
  " fill="#009af9" fill-rule="evenodd" fill-opacity="1"/>
<polyline clip-path="url(#clip772)" style="stroke:#000000; stroke-linecap:round; stroke-linejoin:round; stroke-width:4; stroke-opacity:1; fill:none" points="
  1901.04,1445.72 1901.04,1445.72 1917.63,1445.72 1901.04,1445.72 
  "/>
<path clip-path="url(#clip772)" d="
M1917.63 1445.72 L1917.63 1445.72 L1934.22 1445.72 L1934.22 1445.72 L1917.63 1445.72 L1917.63 1445.72  Z
  " fill="#009af9" fill-rule="evenodd" fill-opacity="1"/>
<polyline clip-path="url(#clip772)" style="stroke:#000000; stroke-linecap:round; stroke-linejoin:round; stroke-width:4; stroke-opacity:1; fill:none" points="
  1917.63,1445.72 1917.63,1445.72 1934.22,1445.72 1917.63,1445.72 
  "/>
<path clip-path="url(#clip772)" d="
M1934.22 1445.72 L1934.22 1445.72 L1950.81 1445.72 L1950.81 1445.72 L1934.22 1445.72 L1934.22 1445.72  Z
  " fill="#009af9" fill-rule="evenodd" fill-opacity="1"/>
<polyline clip-path="url(#clip772)" style="stroke:#000000; stroke-linecap:round; stroke-linejoin:round; stroke-width:4; stroke-opacity:1; fill:none" points="
  1934.22,1445.72 1934.22,1445.72 1950.81,1445.72 1934.22,1445.72 
  "/>
<path clip-path="url(#clip772)" d="
M1950.81 1445.72 L1950.81 1445.72 L1967.4 1445.72 L1967.4 1445.72 L1950.81 1445.72 L1950.81 1445.72  Z
  " fill="#009af9" fill-rule="evenodd" fill-opacity="1"/>
<polyline clip-path="url(#clip772)" style="stroke:#000000; stroke-linecap:round; stroke-linejoin:round; stroke-width:4; stroke-opacity:1; fill:none" points="
  1950.81,1445.72 1950.81,1445.72 1967.4,1445.72 1950.81,1445.72 
  "/>
<path clip-path="url(#clip772)" d="
M1967.4 1445.72 L1967.4 1445.72 L1983.98 1445.72 L1983.98 1445.72 L1967.4 1445.72 L1967.4 1445.72  Z
  " fill="#009af9" fill-rule="evenodd" fill-opacity="1"/>
<polyline clip-path="url(#clip772)" style="stroke:#000000; stroke-linecap:round; stroke-linejoin:round; stroke-width:4; stroke-opacity:1; fill:none" points="
  1967.4,1445.72 1967.4,1445.72 1983.98,1445.72 1967.4,1445.72 
  "/>
<path clip-path="url(#clip772)" d="
M1983.98 1445.72 L1983.98 1445.72 L2000.57 1445.72 L2000.57 1445.72 L1983.98 1445.72 L1983.98 1445.72  Z
  " fill="#009af9" fill-rule="evenodd" fill-opacity="1"/>
<polyline clip-path="url(#clip772)" style="stroke:#000000; stroke-linecap:round; stroke-linejoin:round; stroke-width:4; stroke-opacity:1; fill:none" points="
  1983.98,1445.72 1983.98,1445.72 2000.57,1445.72 1983.98,1445.72 
  "/>
<path clip-path="url(#clip772)" d="
M2000.57 1445.72 L2000.57 1445.72 L2017.16 1445.72 L2017.16 1445.72 L2000.57 1445.72 L2000.57 1445.72  Z
  " fill="#009af9" fill-rule="evenodd" fill-opacity="1"/>
<polyline clip-path="url(#clip772)" style="stroke:#000000; stroke-linecap:round; stroke-linejoin:round; stroke-width:4; stroke-opacity:1; fill:none" points="
  2000.57,1445.72 2000.57,1445.72 2017.16,1445.72 2000.57,1445.72 
  "/>
<path clip-path="url(#clip772)" d="
M2017.16 1445.72 L2017.16 1445.72 L2033.75 1445.72 L2033.75 1445.72 L2017.16 1445.72 L2017.16 1445.72  Z
  " fill="#009af9" fill-rule="evenodd" fill-opacity="1"/>
<polyline clip-path="url(#clip772)" style="stroke:#000000; stroke-linecap:round; stroke-linejoin:round; stroke-width:4; stroke-opacity:1; fill:none" points="
  2017.16,1445.72 2017.16,1445.72 2033.75,1445.72 2017.16,1445.72 
  "/>
<path clip-path="url(#clip772)" d="
M2033.75 1445.72 L2033.75 1445.72 L2050.34 1445.72 L2050.34 1445.72 L2033.75 1445.72 L2033.75 1445.72  Z
  " fill="#009af9" fill-rule="evenodd" fill-opacity="1"/>
<polyline clip-path="url(#clip772)" style="stroke:#000000; stroke-linecap:round; stroke-linejoin:round; stroke-width:4; stroke-opacity:1; fill:none" points="
  2033.75,1445.72 2033.75,1445.72 2050.34,1445.72 2033.75,1445.72 
  "/>
<path clip-path="url(#clip772)" d="
M2050.34 1445.72 L2050.34 1445.72 L2066.93 1445.72 L2066.93 1445.72 L2050.34 1445.72 L2050.34 1445.72  Z
  " fill="#009af9" fill-rule="evenodd" fill-opacity="1"/>
<polyline clip-path="url(#clip772)" style="stroke:#000000; stroke-linecap:round; stroke-linejoin:round; stroke-width:4; stroke-opacity:1; fill:none" points="
  2050.34,1445.72 2050.34,1445.72 2066.93,1445.72 2050.34,1445.72 
  "/>
<path clip-path="url(#clip772)" d="
M2066.93 1445.72 L2066.93 1445.72 L2083.51 1445.72 L2083.51 1445.72 L2066.93 1445.72 L2066.93 1445.72  Z
  " fill="#009af9" fill-rule="evenodd" fill-opacity="1"/>
<polyline clip-path="url(#clip772)" style="stroke:#000000; stroke-linecap:round; stroke-linejoin:round; stroke-width:4; stroke-opacity:1; fill:none" points="
  2066.93,1445.72 2066.93,1445.72 2083.51,1445.72 2066.93,1445.72 
  "/>
<path clip-path="url(#clip772)" d="
M2083.51 1445.72 L2083.51 1445.72 L2100.1 1445.72 L2100.1 1445.72 L2083.51 1445.72 L2083.51 1445.72  Z
  " fill="#009af9" fill-rule="evenodd" fill-opacity="1"/>
<polyline clip-path="url(#clip772)" style="stroke:#000000; stroke-linecap:round; stroke-linejoin:round; stroke-width:4; stroke-opacity:1; fill:none" points="
  2083.51,1445.72 2083.51,1445.72 2100.1,1445.72 2083.51,1445.72 
  "/>
<path clip-path="url(#clip772)" d="
M2100.1 1445.72 L2100.1 1445.72 L2116.69 1445.72 L2116.69 1445.72 L2100.1 1445.72 L2100.1 1445.72  Z
  " fill="#009af9" fill-rule="evenodd" fill-opacity="1"/>
<polyline clip-path="url(#clip772)" style="stroke:#000000; stroke-linecap:round; stroke-linejoin:round; stroke-width:4; stroke-opacity:1; fill:none" points="
  2100.1,1445.72 2100.1,1445.72 2116.69,1445.72 2100.1,1445.72 
  "/>
<path clip-path="url(#clip772)" d="
M2116.69 1445.72 L2116.69 1445.72 L2133.28 1445.72 L2133.28 1445.72 L2116.69 1445.72 L2116.69 1445.72  Z
  " fill="#009af9" fill-rule="evenodd" fill-opacity="1"/>
<polyline clip-path="url(#clip772)" style="stroke:#000000; stroke-linecap:round; stroke-linejoin:round; stroke-width:4; stroke-opacity:1; fill:none" points="
  2116.69,1445.72 2116.69,1445.72 2133.28,1445.72 2116.69,1445.72 
  "/>
<path clip-path="url(#clip772)" d="
M2133.28 1445.72 L2133.28 1445.72 L2149.87 1445.72 L2149.87 1445.72 L2133.28 1445.72 L2133.28 1445.72  Z
  " fill="#009af9" fill-rule="evenodd" fill-opacity="1"/>
<polyline clip-path="url(#clip772)" style="stroke:#000000; stroke-linecap:round; stroke-linejoin:round; stroke-width:4; stroke-opacity:1; fill:none" points="
  2133.28,1445.72 2133.28,1445.72 2149.87,1445.72 2133.28,1445.72 
  "/>
<path clip-path="url(#clip772)" d="
M2149.87 1445.72 L2149.87 1445.72 L2166.46 1445.72 L2166.46 1445.72 L2149.87 1445.72 L2149.87 1445.72  Z
  " fill="#009af9" fill-rule="evenodd" fill-opacity="1"/>
<polyline clip-path="url(#clip772)" style="stroke:#000000; stroke-linecap:round; stroke-linejoin:round; stroke-width:4; stroke-opacity:1; fill:none" points="
  2149.87,1445.72 2149.87,1445.72 2166.46,1445.72 2149.87,1445.72 
  "/>
<path clip-path="url(#clip772)" d="
M2166.46 1445.72 L2166.46 1445.72 L2183.05 1445.72 L2183.05 1445.72 L2166.46 1445.72 L2166.46 1445.72  Z
  " fill="#009af9" fill-rule="evenodd" fill-opacity="1"/>
<polyline clip-path="url(#clip772)" style="stroke:#000000; stroke-linecap:round; stroke-linejoin:round; stroke-width:4; stroke-opacity:1; fill:none" points="
  2166.46,1445.72 2166.46,1445.72 2183.05,1445.72 2166.46,1445.72 
  "/>
<path clip-path="url(#clip772)" d="
M2183.05 1445.72 L2183.05 1445.72 L2199.63 1445.72 L2199.63 1445.72 L2183.05 1445.72 L2183.05 1445.72  Z
  " fill="#009af9" fill-rule="evenodd" fill-opacity="1"/>
<polyline clip-path="url(#clip772)" style="stroke:#000000; stroke-linecap:round; stroke-linejoin:round; stroke-width:4; stroke-opacity:1; fill:none" points="
  2183.05,1445.72 2183.05,1445.72 2199.63,1445.72 2183.05,1445.72 
  "/>
<path clip-path="url(#clip772)" d="
M2199.63 1445.72 L2199.63 1445.72 L2216.22 1445.72 L2216.22 1445.72 L2199.63 1445.72 L2199.63 1445.72  Z
  " fill="#009af9" fill-rule="evenodd" fill-opacity="1"/>
<polyline clip-path="url(#clip772)" style="stroke:#000000; stroke-linecap:round; stroke-linejoin:round; stroke-width:4; stroke-opacity:1; fill:none" points="
  2199.63,1445.72 2199.63,1445.72 2216.22,1445.72 2199.63,1445.72 
  "/>
<path clip-path="url(#clip772)" d="
M2216.22 1444.31 L2216.22 1445.72 L2232.81 1445.72 L2232.81 1444.31 L2216.22 1444.31 L2216.22 1444.31  Z
  " fill="#009af9" fill-rule="evenodd" fill-opacity="1"/>
<polyline clip-path="url(#clip772)" style="stroke:#000000; stroke-linecap:round; stroke-linejoin:round; stroke-width:4; stroke-opacity:1; fill:none" points="
  2216.22,1444.31 2216.22,1445.72 2232.81,1445.72 2232.81,1444.31 2216.22,1444.31 
  "/>
<circle clip-path="url(#clip772)" style="fill:#009af9; stroke:none; fill-opacity:0" cx="300.254" cy="87.9763" r="2"/>
<circle clip-path="url(#clip772)" style="fill:#009af9; stroke:none; fill-opacity:0" cx="316.842" cy="274.911" r="2"/>
<circle clip-path="url(#clip772)" style="fill:#009af9; stroke:none; fill-opacity:0" cx="333.431" cy="359.243" r="2"/>
<circle clip-path="url(#clip772)" style="fill:#009af9; stroke:none; fill-opacity:0" cx="350.019" cy="433.736" r="2"/>
<circle clip-path="url(#clip772)" style="fill:#009af9; stroke:none; fill-opacity:0" cx="366.608" cy="546.178" r="2"/>
<circle clip-path="url(#clip772)" style="fill:#009af9; stroke:none; fill-opacity:0" cx="383.196" cy="608.021" r="2"/>
<circle clip-path="url(#clip772)" style="fill:#009af9; stroke:none; fill-opacity:0" cx="399.785" cy="723.275" r="2"/>
<circle clip-path="url(#clip772)" style="fill:#009af9; stroke:none; fill-opacity:0" cx="416.373" cy="742.952" r="2"/>
<circle clip-path="url(#clip772)" style="fill:#009af9; stroke:none; fill-opacity:0" cx="432.962" cy="830.095" r="2"/>
<circle clip-path="url(#clip772)" style="fill:#009af9; stroke:none; fill-opacity:0" cx="449.55" cy="851.178" r="2"/>
<circle clip-path="url(#clip772)" style="fill:#009af9; stroke:none; fill-opacity:0" cx="466.138" cy="956.592" r="2"/>
<circle clip-path="url(#clip772)" style="fill:#009af9; stroke:none; fill-opacity:0" cx="482.727" cy="967.836" r="2"/>
<circle clip-path="url(#clip772)" style="fill:#009af9; stroke:none; fill-opacity:0" cx="499.315" cy="1071.85" r="2"/>
<circle clip-path="url(#clip772)" style="fill:#009af9; stroke:none; fill-opacity:0" cx="515.904" cy="1085.9" r="2"/>
<circle clip-path="url(#clip772)" style="fill:#009af9; stroke:none; fill-opacity:0" cx="532.492" cy="1125.26" r="2"/>
<circle clip-path="url(#clip772)" style="fill:#009af9; stroke:none; fill-opacity:0" cx="549.081" cy="1158.99" r="2"/>
<circle clip-path="url(#clip772)" style="fill:#009af9; stroke:none; fill-opacity:0" cx="565.669" cy="1195.53" r="2"/>
<circle clip-path="url(#clip772)" style="fill:#009af9; stroke:none; fill-opacity:0" cx="582.258" cy="1210.99" r="2"/>
<circle clip-path="url(#clip772)" style="fill:#009af9; stroke:none; fill-opacity:0" cx="598.846" cy="1232.08" r="2"/>
<circle clip-path="url(#clip772)" style="fill:#009af9; stroke:none; fill-opacity:0" cx="615.435" cy="1225.05" r="2"/>
<circle clip-path="url(#clip772)" style="fill:#009af9; stroke:none; fill-opacity:0" cx="632.023" cy="1270.02" r="2"/>
<circle clip-path="url(#clip772)" style="fill:#009af9; stroke:none; fill-opacity:0" cx="648.612" cy="1289.7" r="2"/>
<circle clip-path="url(#clip772)" style="fill:#009af9; stroke:none; fill-opacity:0" cx="665.2" cy="1289.7" r="2"/>
<circle clip-path="url(#clip772)" style="fill:#009af9; stroke:none; fill-opacity:0" cx="681.789" cy="1331.87" r="2"/>
<circle clip-path="url(#clip772)" style="fill:#009af9; stroke:none; fill-opacity:0" cx="698.377" cy="1310.79" r="2"/>
<circle clip-path="url(#clip772)" style="fill:#009af9; stroke:none; fill-opacity:0" cx="714.966" cy="1376.84" r="2"/>
<circle clip-path="url(#clip772)" style="fill:#009af9; stroke:none; fill-opacity:0" cx="731.554" cy="1334.68" r="2"/>
<circle clip-path="url(#clip772)" style="fill:#009af9; stroke:none; fill-opacity:0" cx="748.143" cy="1359.98" r="2"/>
<circle clip-path="url(#clip772)" style="fill:#009af9; stroke:none; fill-opacity:0" cx="764.731" cy="1367.01" r="2"/>
<circle clip-path="url(#clip772)" style="fill:#009af9; stroke:none; fill-opacity:0" cx="781.32" cy="1388.09" r="2"/>
<circle clip-path="url(#clip772)" style="fill:#009af9; stroke:none; fill-opacity:0" cx="797.908" cy="1375.44" r="2"/>
<circle clip-path="url(#clip772)" style="fill:#009af9; stroke:none; fill-opacity:0" cx="814.496" cy="1374.03" r="2"/>
<circle clip-path="url(#clip772)" style="fill:#009af9; stroke:none; fill-opacity:0" cx="831.085" cy="1393.71" r="2"/>
<circle clip-path="url(#clip772)" style="fill:#009af9; stroke:none; fill-opacity:0" cx="847.673" cy="1395.12" r="2"/>
<circle clip-path="url(#clip772)" style="fill:#009af9; stroke:none; fill-opacity:0" cx="864.262" cy="1399.33" r="2"/>
<circle clip-path="url(#clip772)" style="fill:#009af9; stroke:none; fill-opacity:0" cx="880.85" cy="1409.17" r="2"/>
<circle clip-path="url(#clip772)" style="fill:#009af9; stroke:none; fill-opacity:0" cx="897.439" cy="1407.77" r="2"/>
<circle clip-path="url(#clip772)" style="fill:#009af9; stroke:none; fill-opacity:0" cx="914.027" cy="1414.79" r="2"/>
<circle clip-path="url(#clip772)" style="fill:#009af9; stroke:none; fill-opacity:0" cx="930.616" cy="1421.82" r="2"/>
<circle clip-path="url(#clip772)" style="fill:#009af9; stroke:none; fill-opacity:0" cx="947.204" cy="1416.2" r="2"/>
<circle clip-path="url(#clip772)" style="fill:#009af9; stroke:none; fill-opacity:0" cx="963.793" cy="1427.44" r="2"/>
<circle clip-path="url(#clip772)" style="fill:#009af9; stroke:none; fill-opacity:0" cx="980.381" cy="1419.01" r="2"/>
<circle clip-path="url(#clip772)" style="fill:#009af9; stroke:none; fill-opacity:0" cx="996.97" cy="1428.85" r="2"/>
<circle clip-path="url(#clip772)" style="fill:#009af9; stroke:none; fill-opacity:0" cx="1013.56" cy="1421.82" r="2"/>
<circle clip-path="url(#clip772)" style="fill:#009af9; stroke:none; fill-opacity:0" cx="1030.15" cy="1435.88" r="2"/>
<circle clip-path="url(#clip772)" style="fill:#009af9; stroke:none; fill-opacity:0" cx="1046.74" cy="1435.88" r="2"/>
<circle clip-path="url(#clip772)" style="fill:#009af9; stroke:none; fill-opacity:0" cx="1063.32" cy="1428.85" r="2"/>
<circle clip-path="url(#clip772)" style="fill:#009af9; stroke:none; fill-opacity:0" cx="1079.91" cy="1437.28" r="2"/>
<circle clip-path="url(#clip772)" style="fill:#009af9; stroke:none; fill-opacity:0" cx="1096.5" cy="1440.09" r="2"/>
<circle clip-path="url(#clip772)" style="fill:#009af9; stroke:none; fill-opacity:0" cx="1113.09" cy="1426.04" r="2"/>
<circle clip-path="url(#clip772)" style="fill:#009af9; stroke:none; fill-opacity:0" cx="1129.68" cy="1441.5" r="2"/>
<circle clip-path="url(#clip772)" style="fill:#009af9; stroke:none; fill-opacity:0" cx="1146.27" cy="1445.72" r="2"/>
<circle clip-path="url(#clip772)" style="fill:#009af9; stroke:none; fill-opacity:0" cx="1162.85" cy="1441.5" r="2"/>
<circle clip-path="url(#clip772)" style="fill:#009af9; stroke:none; fill-opacity:0" cx="1179.44" cy="1440.09" r="2"/>
<circle clip-path="url(#clip772)" style="fill:#009af9; stroke:none; fill-opacity:0" cx="1196.03" cy="1444.31" r="2"/>
<circle clip-path="url(#clip772)" style="fill:#009af9; stroke:none; fill-opacity:0" cx="1212.62" cy="1442.9" r="2"/>
<circle clip-path="url(#clip772)" style="fill:#009af9; stroke:none; fill-opacity:0" cx="1229.21" cy="1440.09" r="2"/>
<circle clip-path="url(#clip772)" style="fill:#009af9; stroke:none; fill-opacity:0" cx="1245.8" cy="1440.09" r="2"/>
<circle clip-path="url(#clip772)" style="fill:#009af9; stroke:none; fill-opacity:0" cx="1262.39" cy="1442.9" r="2"/>
<circle clip-path="url(#clip772)" style="fill:#009af9; stroke:none; fill-opacity:0" cx="1278.97" cy="1437.28" r="2"/>
<circle clip-path="url(#clip772)" style="fill:#009af9; stroke:none; fill-opacity:0" cx="1295.56" cy="1442.9" r="2"/>
<circle clip-path="url(#clip772)" style="fill:#009af9; stroke:none; fill-opacity:0" cx="1312.15" cy="1441.5" r="2"/>
<circle clip-path="url(#clip772)" style="fill:#009af9; stroke:none; fill-opacity:0" cx="1328.74" cy="1441.5" r="2"/>
<circle clip-path="url(#clip772)" style="fill:#009af9; stroke:none; fill-opacity:0" cx="1345.33" cy="1444.31" r="2"/>
<circle clip-path="url(#clip772)" style="fill:#009af9; stroke:none; fill-opacity:0" cx="1361.92" cy="1442.9" r="2"/>
<circle clip-path="url(#clip772)" style="fill:#009af9; stroke:none; fill-opacity:0" cx="1378.5" cy="1442.9" r="2"/>
<circle clip-path="url(#clip772)" style="fill:#009af9; stroke:none; fill-opacity:0" cx="1395.09" cy="1445.72" r="2"/>
<circle clip-path="url(#clip772)" style="fill:#009af9; stroke:none; fill-opacity:0" cx="1411.68" cy="1444.31" r="2"/>
<circle clip-path="url(#clip772)" style="fill:#009af9; stroke:none; fill-opacity:0" cx="1428.27" cy="1442.9" r="2"/>
<circle clip-path="url(#clip772)" style="fill:#009af9; stroke:none; fill-opacity:0" cx="1444.86" cy="1442.9" r="2"/>
<circle clip-path="url(#clip772)" style="fill:#009af9; stroke:none; fill-opacity:0" cx="1461.45" cy="1444.31" r="2"/>
<circle clip-path="url(#clip772)" style="fill:#009af9; stroke:none; fill-opacity:0" cx="1478.04" cy="1444.31" r="2"/>
<circle clip-path="url(#clip772)" style="fill:#009af9; stroke:none; fill-opacity:0" cx="1494.62" cy="1442.9" r="2"/>
<circle clip-path="url(#clip772)" style="fill:#009af9; stroke:none; fill-opacity:0" cx="1511.21" cy="1444.31" r="2"/>
<circle clip-path="url(#clip772)" style="fill:#009af9; stroke:none; fill-opacity:0" cx="1527.8" cy="1442.9" r="2"/>
<circle clip-path="url(#clip772)" style="fill:#009af9; stroke:none; fill-opacity:0" cx="1544.39" cy="1445.72" r="2"/>
<circle clip-path="url(#clip772)" style="fill:#009af9; stroke:none; fill-opacity:0" cx="1560.98" cy="1444.31" r="2"/>
<circle clip-path="url(#clip772)" style="fill:#009af9; stroke:none; fill-opacity:0" cx="1577.57" cy="1445.72" r="2"/>
<circle clip-path="url(#clip772)" style="fill:#009af9; stroke:none; fill-opacity:0" cx="1594.15" cy="1445.72" r="2"/>
<circle clip-path="url(#clip772)" style="fill:#009af9; stroke:none; fill-opacity:0" cx="1610.74" cy="1445.72" r="2"/>
<circle clip-path="url(#clip772)" style="fill:#009af9; stroke:none; fill-opacity:0" cx="1627.33" cy="1445.72" r="2"/>
<circle clip-path="url(#clip772)" style="fill:#009af9; stroke:none; fill-opacity:0" cx="1643.92" cy="1445.72" r="2"/>
<circle clip-path="url(#clip772)" style="fill:#009af9; stroke:none; fill-opacity:0" cx="1660.51" cy="1445.72" r="2"/>
<circle clip-path="url(#clip772)" style="fill:#009af9; stroke:none; fill-opacity:0" cx="1677.1" cy="1445.72" r="2"/>
<circle clip-path="url(#clip772)" style="fill:#009af9; stroke:none; fill-opacity:0" cx="1693.69" cy="1444.31" r="2"/>
<circle clip-path="url(#clip772)" style="fill:#009af9; stroke:none; fill-opacity:0" cx="1710.27" cy="1445.72" r="2"/>
<circle clip-path="url(#clip772)" style="fill:#009af9; stroke:none; fill-opacity:0" cx="1726.86" cy="1445.72" r="2"/>
<circle clip-path="url(#clip772)" style="fill:#009af9; stroke:none; fill-opacity:0" cx="1743.45" cy="1444.31" r="2"/>
<circle clip-path="url(#clip772)" style="fill:#009af9; stroke:none; fill-opacity:0" cx="1760.04" cy="1445.72" r="2"/>
<circle clip-path="url(#clip772)" style="fill:#009af9; stroke:none; fill-opacity:0" cx="1776.63" cy="1445.72" r="2"/>
<circle clip-path="url(#clip772)" style="fill:#009af9; stroke:none; fill-opacity:0" cx="1793.22" cy="1445.72" r="2"/>
<circle clip-path="url(#clip772)" style="fill:#009af9; stroke:none; fill-opacity:0" cx="1809.81" cy="1444.31" r="2"/>
<circle clip-path="url(#clip772)" style="fill:#009af9; stroke:none; fill-opacity:0" cx="1826.39" cy="1445.72" r="2"/>
<circle clip-path="url(#clip772)" style="fill:#009af9; stroke:none; fill-opacity:0" cx="1842.98" cy="1445.72" r="2"/>
<circle clip-path="url(#clip772)" style="fill:#009af9; stroke:none; fill-opacity:0" cx="1859.57" cy="1444.31" r="2"/>
<circle clip-path="url(#clip772)" style="fill:#009af9; stroke:none; fill-opacity:0" cx="1876.16" cy="1445.72" r="2"/>
<circle clip-path="url(#clip772)" style="fill:#009af9; stroke:none; fill-opacity:0" cx="1892.75" cy="1445.72" r="2"/>
<circle clip-path="url(#clip772)" style="fill:#009af9; stroke:none; fill-opacity:0" cx="1909.34" cy="1445.72" r="2"/>
<circle clip-path="url(#clip772)" style="fill:#009af9; stroke:none; fill-opacity:0" cx="1925.92" cy="1445.72" r="2"/>
<circle clip-path="url(#clip772)" style="fill:#009af9; stroke:none; fill-opacity:0" cx="1942.51" cy="1445.72" r="2"/>
<circle clip-path="url(#clip772)" style="fill:#009af9; stroke:none; fill-opacity:0" cx="1959.1" cy="1445.72" r="2"/>
<circle clip-path="url(#clip772)" style="fill:#009af9; stroke:none; fill-opacity:0" cx="1975.69" cy="1445.72" r="2"/>
<circle clip-path="url(#clip772)" style="fill:#009af9; stroke:none; fill-opacity:0" cx="1992.28" cy="1445.72" r="2"/>
<circle clip-path="url(#clip772)" style="fill:#009af9; stroke:none; fill-opacity:0" cx="2008.87" cy="1445.72" r="2"/>
<circle clip-path="url(#clip772)" style="fill:#009af9; stroke:none; fill-opacity:0" cx="2025.46" cy="1445.72" r="2"/>
<circle clip-path="url(#clip772)" style="fill:#009af9; stroke:none; fill-opacity:0" cx="2042.04" cy="1445.72" r="2"/>
<circle clip-path="url(#clip772)" style="fill:#009af9; stroke:none; fill-opacity:0" cx="2058.63" cy="1445.72" r="2"/>
<circle clip-path="url(#clip772)" style="fill:#009af9; stroke:none; fill-opacity:0" cx="2075.22" cy="1445.72" r="2"/>
<circle clip-path="url(#clip772)" style="fill:#009af9; stroke:none; fill-opacity:0" cx="2091.81" cy="1445.72" r="2"/>
<circle clip-path="url(#clip772)" style="fill:#009af9; stroke:none; fill-opacity:0" cx="2108.4" cy="1445.72" r="2"/>
<circle clip-path="url(#clip772)" style="fill:#009af9; stroke:none; fill-opacity:0" cx="2124.99" cy="1445.72" r="2"/>
<circle clip-path="url(#clip772)" style="fill:#009af9; stroke:none; fill-opacity:0" cx="2141.57" cy="1445.72" r="2"/>
<circle clip-path="url(#clip772)" style="fill:#009af9; stroke:none; fill-opacity:0" cx="2158.16" cy="1445.72" r="2"/>
<circle clip-path="url(#clip772)" style="fill:#009af9; stroke:none; fill-opacity:0" cx="2174.75" cy="1445.72" r="2"/>
<circle clip-path="url(#clip772)" style="fill:#009af9; stroke:none; fill-opacity:0" cx="2191.34" cy="1445.72" r="2"/>
<circle clip-path="url(#clip772)" style="fill:#009af9; stroke:none; fill-opacity:0" cx="2207.93" cy="1445.72" r="2"/>
<circle clip-path="url(#clip772)" style="fill:#009af9; stroke:none; fill-opacity:0" cx="2224.52" cy="1444.31" r="2"/>
</svg>
