<?xml version="1.0" encoding="utf-8"?>
<svg xmlns="http://www.w3.org/2000/svg" xmlns:xlink="http://www.w3.org/1999/xlink" width="600" height="400" viewBox="0 0 2400 1600">
<defs>
  <clipPath id="clip100">
    <rect x="0" y="0" width="2400" height="1600"/>
  </clipPath>
</defs>
<path clip-path="url(#clip100)" d="M0 1600 L2400 1600 L2400 0 L0 0  Z" fill="#ffffff" fill-rule="evenodd" fill-opacity="1"/>
<defs>
  <clipPath id="clip101">
    <rect x="480" y="0" width="1681" height="1600"/>
  </clipPath>
</defs>
<path clip-path="url(#clip100)" d="M172.015 1486.45 L2352.76 1486.45 L2352.76 47.2441 L172.015 47.2441  Z" fill="#ffffff" fill-rule="evenodd" fill-opacity="1"/>
<defs>
  <clipPath id="clip102">
    <rect x="172" y="47" width="2182" height="1440"/>
  </clipPath>
</defs>
<polyline clip-path="url(#clip102)" style="stroke:#000000; stroke-linecap:round; stroke-linejoin:round; stroke-width:2; stroke-opacity:0.1; fill:none" points="680.13,1486.45 680.13,47.2441 "/>
<polyline clip-path="url(#clip102)" style="stroke:#000000; stroke-linecap:round; stroke-linejoin:round; stroke-width:2; stroke-opacity:0.1; fill:none" points="1234.66,1486.45 1234.66,47.2441 "/>
<polyline clip-path="url(#clip102)" style="stroke:#000000; stroke-linecap:round; stroke-linejoin:round; stroke-width:2; stroke-opacity:0.1; fill:none" points="1789.19,1486.45 1789.19,47.2441 "/>
<polyline clip-path="url(#clip102)" style="stroke:#000000; stroke-linecap:round; stroke-linejoin:round; stroke-width:2; stroke-opacity:0.1; fill:none" points="2343.72,1486.45 2343.72,47.2441 "/>
<polyline clip-path="url(#clip102)" style="stroke:#000000; stroke-linecap:round; stroke-linejoin:round; stroke-width:2; stroke-opacity:0.1; fill:none" points="172.015,1486.45 2352.76,1486.45 "/>
<polyline clip-path="url(#clip102)" style="stroke:#000000; stroke-linecap:round; stroke-linejoin:round; stroke-width:2; stroke-opacity:0.1; fill:none" points="172.015,1133.27 2352.76,1133.27 "/>
<polyline clip-path="url(#clip102)" style="stroke:#000000; stroke-linecap:round; stroke-linejoin:round; stroke-width:2; stroke-opacity:0.1; fill:none" points="172.015,780.09 2352.76,780.09 "/>
<polyline clip-path="url(#clip102)" style="stroke:#000000; stroke-linecap:round; stroke-linejoin:round; stroke-width:2; stroke-opacity:0.1; fill:none" points="172.015,426.911 2352.76,426.911 "/>
<polyline clip-path="url(#clip102)" style="stroke:#000000; stroke-linecap:round; stroke-linejoin:round; stroke-width:2; stroke-opacity:0.1; fill:none" points="172.015,73.7325 2352.76,73.7325 "/>
<polyline clip-path="url(#clip100)" style="stroke:#000000; stroke-linecap:round; stroke-linejoin:round; stroke-width:4; stroke-opacity:1; fill:none" points="172.015,1486.45 2352.76,1486.45 "/>
<polyline clip-path="url(#clip100)" style="stroke:#000000; stroke-linecap:round; stroke-linejoin:round; stroke-width:4; stroke-opacity:1; fill:none" points="680.13,1486.45 680.13,1467.55 "/>
<polyline clip-path="url(#clip100)" style="stroke:#000000; stroke-linecap:round; stroke-linejoin:round; stroke-width:4; stroke-opacity:1; fill:none" points="1234.66,1486.45 1234.66,1467.55 "/>
<polyline clip-path="url(#clip100)" style="stroke:#000000; stroke-linecap:round; stroke-linejoin:round; stroke-width:4; stroke-opacity:1; fill:none" points="1789.19,1486.45 1789.19,1467.55 "/>
<polyline clip-path="url(#clip100)" style="stroke:#000000; stroke-linecap:round; stroke-linejoin:round; stroke-width:4; stroke-opacity:1; fill:none" points="2343.72,1486.45 2343.72,1467.55 "/>
<path clip-path="url(#clip100)" d="M680.13 1517.37 Q676.519 1517.37 674.69 1520.93 Q672.884 1524.47 672.884 1531.6 Q672.884 1538.71 674.69 1542.27 Q676.519 1545.82 680.13 1545.82 Q683.764 1545.82 685.57 1542.27 Q687.398 1538.71 687.398 1531.6 Q687.398 1524.47 685.57 1520.93 Q683.764 1517.37 680.13 1517.37 M680.13 1513.66 Q685.94 1513.66 688.996 1518.27 Q692.074 1522.85 692.074 1531.6 Q692.074 1540.33 688.996 1544.94 Q685.94 1549.52 680.13 1549.52 Q674.32 1549.52 671.241 1544.94 Q668.185 1540.33 668.185 1531.6 Q668.185 1522.85 671.241 1518.27 Q674.32 1513.66 680.13 1513.66 Z" fill="#000000" fill-rule="nonzero" fill-opacity="1" /><path clip-path="url(#clip100)" d="M1229.31 1544.91 L1245.63 1544.91 L1245.63 1548.85 L1223.69 1548.85 L1223.69 1544.91 Q1226.35 1542.16 1230.93 1537.53 Q1235.54 1532.88 1236.72 1531.53 Q1238.96 1529.01 1239.84 1527.27 Q1240.75 1525.51 1240.75 1523.82 Q1240.75 1521.07 1238.8 1519.33 Q1236.88 1517.6 1233.78 1517.6 Q1231.58 1517.6 1229.13 1518.36 Q1226.7 1519.13 1223.92 1520.68 L1223.92 1515.95 Q1226.74 1514.82 1229.2 1514.24 Q1231.65 1513.66 1233.69 1513.66 Q1239.06 1513.66 1242.25 1516.35 Q1245.45 1519.03 1245.45 1523.52 Q1245.45 1525.65 1244.64 1527.57 Q1243.85 1529.47 1241.74 1532.07 Q1241.16 1532.74 1238.06 1535.95 Q1234.96 1539.15 1229.31 1544.91 Z" fill="#000000" fill-rule="nonzero" fill-opacity="1" /><path clip-path="url(#clip100)" d="M1792.2 1518.36 L1780.39 1536.81 L1792.2 1536.81 L1792.2 1518.36 M1790.97 1514.29 L1796.85 1514.29 L1796.85 1536.81 L1801.78 1536.81 L1801.78 1540.7 L1796.85 1540.7 L1796.85 1548.85 L1792.2 1548.85 L1792.2 1540.7 L1776.6 1540.7 L1776.6 1536.19 L1790.97 1514.29 Z" fill="#000000" fill-rule="nonzero" fill-opacity="1" /><path clip-path="url(#clip100)" d="M2344.12 1529.7 Q2340.97 1529.7 2339.12 1531.86 Q2337.29 1534.01 2337.29 1537.76 Q2337.29 1541.49 2339.12 1543.66 Q2340.97 1545.82 2344.12 1545.82 Q2347.27 1545.82 2349.1 1543.66 Q2350.95 1541.49 2350.95 1537.76 Q2350.95 1534.01 2349.1 1531.86 Q2347.27 1529.7 2344.12 1529.7 M2353.4 1515.05 L2353.4 1519.31 Q2351.65 1518.48 2349.84 1518.04 Q2348.06 1517.6 2346.3 1517.6 Q2341.67 1517.6 2339.21 1520.72 Q2336.78 1523.85 2336.44 1530.17 Q2337.8 1528.15 2339.86 1527.09 Q2341.92 1526 2344.4 1526 Q2349.61 1526 2352.62 1529.17 Q2355.65 1532.32 2355.65 1537.76 Q2355.65 1543.08 2352.5 1546.3 Q2349.35 1549.52 2344.12 1549.52 Q2338.13 1549.52 2334.96 1544.94 Q2331.78 1540.33 2331.78 1531.6 Q2331.78 1523.41 2335.67 1518.55 Q2339.56 1513.66 2346.11 1513.66 Q2347.87 1513.66 2349.65 1514.01 Q2351.46 1514.36 2353.4 1515.05 Z" fill="#000000" fill-rule="nonzero" fill-opacity="1" /><polyline clip-path="url(#clip100)" style="stroke:#000000; stroke-linecap:round; stroke-linejoin:round; stroke-width:4; stroke-opacity:1; fill:none" points="172.015,1486.45 172.015,47.2441 "/>
<polyline clip-path="url(#clip100)" style="stroke:#000000; stroke-linecap:round; stroke-linejoin:round; stroke-width:4; stroke-opacity:1; fill:none" points="172.015,1486.45 190.912,1486.45 "/>
<polyline clip-path="url(#clip100)" style="stroke:#000000; stroke-linecap:round; stroke-linejoin:round; stroke-width:4; stroke-opacity:1; fill:none" points="172.015,1133.27 190.912,1133.27 "/>
<polyline clip-path="url(#clip100)" style="stroke:#000000; stroke-linecap:round; stroke-linejoin:round; stroke-width:4; stroke-opacity:1; fill:none" points="172.015,780.09 190.912,780.09 "/>
<polyline clip-path="url(#clip100)" style="stroke:#000000; stroke-linecap:round; stroke-linejoin:round; stroke-width:4; stroke-opacity:1; fill:none" points="172.015,426.911 190.912,426.911 "/>
<polyline clip-path="url(#clip100)" style="stroke:#000000; stroke-linecap:round; stroke-linejoin:round; stroke-width:4; stroke-opacity:1; fill:none" points="172.015,73.7325 190.912,73.7325 "/>
<path clip-path="url(#clip100)" d="M124.07 1472.25 Q120.459 1472.25 118.631 1475.81 Q116.825 1479.35 116.825 1486.48 Q116.825 1493.59 118.631 1497.15 Q120.459 1500.7 124.07 1500.7 Q127.705 1500.7 129.51 1497.15 Q131.339 1493.59 131.339 1486.48 Q131.339 1479.35 129.51 1475.81 Q127.705 1472.25 124.07 1472.25 M124.07 1468.54 Q129.881 1468.54 132.936 1473.15 Q136.015 1477.73 136.015 1486.48 Q136.015 1495.21 132.936 1499.82 Q129.881 1504.4 124.07 1504.4 Q118.26 1504.4 115.182 1499.82 Q112.126 1495.21 112.126 1486.48 Q112.126 1477.73 115.182 1473.15 Q118.26 1468.54 124.07 1468.54 Z" fill="#000000" fill-rule="nonzero" fill-opacity="1" /><path clip-path="url(#clip100)" d="M57.7745 1146.61 L74.0939 1146.61 L74.0939 1150.55 L52.1495 1150.55 L52.1495 1146.61 Q54.8115 1143.86 59.3949 1139.23 Q64.0013 1134.58 65.1819 1133.23 Q67.4272 1130.71 68.3068 1128.98 Q69.2096 1127.22 69.2096 1125.53 Q69.2096 1122.77 67.2652 1121.04 Q65.3439 1119.3 62.2421 1119.3 Q60.043 1119.3 57.5893 1120.06 Q55.1588 1120.83 52.381 1122.38 L52.381 1117.66 Q55.2051 1116.52 57.6588 1115.94 Q60.1124 1115.36 62.1495 1115.36 Q67.5198 1115.36 70.7142 1118.05 Q73.9087 1120.73 73.9087 1125.23 Q73.9087 1127.35 73.0985 1129.28 Q72.3115 1131.17 70.205 1133.77 Q69.6263 1134.44 66.5245 1137.66 Q63.4226 1140.85 57.7745 1146.61 Z" fill="#000000" fill-rule="nonzero" fill-opacity="1" /><path clip-path="url(#clip100)" d="M93.9086 1119.07 Q90.2975 1119.07 88.4688 1122.63 Q86.6632 1126.17 86.6632 1133.3 Q86.6632 1140.41 88.4688 1143.97 Q90.2975 1147.52 93.9086 1147.52 Q97.5428 1147.52 99.3483 1143.97 Q101.177 1140.41 101.177 1133.3 Q101.177 1126.17 99.3483 1122.63 Q97.5428 1119.07 93.9086 1119.07 M93.9086 1115.36 Q99.7187 1115.36 102.774 1119.97 Q105.853 1124.55 105.853 1133.3 Q105.853 1142.03 102.774 1146.64 Q99.7187 1151.22 93.9086 1151.22 Q88.0984 1151.22 85.0197 1146.64 Q81.9642 1142.03 81.9642 1133.3 Q81.9642 1124.55 85.0197 1119.97 Q88.0984 1115.36 93.9086 1115.36 Z" fill="#000000" fill-rule="nonzero" fill-opacity="1" /><path clip-path="url(#clip100)" d="M124.07 1119.07 Q120.459 1119.07 118.631 1122.63 Q116.825 1126.17 116.825 1133.3 Q116.825 1140.41 118.631 1143.97 Q120.459 1147.52 124.07 1147.52 Q127.705 1147.52 129.51 1143.97 Q131.339 1140.41 131.339 1133.3 Q131.339 1126.17 129.51 1122.63 Q127.705 1119.07 124.07 1119.07 M124.07 1115.36 Q129.881 1115.36 132.936 1119.97 Q136.015 1124.55 136.015 1133.3 Q136.015 1142.03 132.936 1146.64 Q129.881 1151.22 124.07 1151.22 Q118.26 1151.22 115.182 1146.64 Q112.126 1142.03 112.126 1133.3 Q112.126 1124.55 115.182 1119.97 Q118.26 1115.36 124.07 1115.36 Z" fill="#000000" fill-rule="nonzero" fill-opacity="1" /><path clip-path="url(#clip100)" d="M66.5939 766.884 L54.7884 785.333 L66.5939 785.333 L66.5939 766.884 M65.367 762.81 L71.2466 762.81 L71.2466 785.333 L76.1772 785.333 L76.1772 789.222 L71.2466 789.222 L71.2466 797.37 L66.5939 797.37 L66.5939 789.222 L50.9921 789.222 L50.9921 784.708 L65.367 762.81 Z" fill="#000000" fill-rule="nonzero" fill-opacity="1" /><path clip-path="url(#clip100)" d="M93.9086 765.889 Q90.2975 765.889 88.4688 769.454 Q86.6632 772.995 86.6632 780.125 Q86.6632 787.231 88.4688 790.796 Q90.2975 794.338 93.9086 794.338 Q97.5428 794.338 99.3483 790.796 Q101.177 787.231 101.177 780.125 Q101.177 772.995 99.3483 769.454 Q97.5428 765.889 93.9086 765.889 M93.9086 762.185 Q99.7187 762.185 102.774 766.792 Q105.853 771.375 105.853 780.125 Q105.853 788.852 102.774 793.458 Q99.7187 798.041 93.9086 798.041 Q88.0984 798.041 85.0197 793.458 Q81.9642 788.852 81.9642 780.125 Q81.9642 771.375 85.0197 766.792 Q88.0984 762.185 93.9086 762.185 Z" fill="#000000" fill-rule="nonzero" fill-opacity="1" /><path clip-path="url(#clip100)" d="M124.07 765.889 Q120.459 765.889 118.631 769.454 Q116.825 772.995 116.825 780.125 Q116.825 787.231 118.631 790.796 Q120.459 794.338 124.07 794.338 Q127.705 794.338 129.51 790.796 Q131.339 787.231 131.339 780.125 Q131.339 772.995 129.51 769.454 Q127.705 765.889 124.07 765.889 M124.07 762.185 Q129.881 762.185 132.936 766.792 Q136.015 771.375 136.015 780.125 Q136.015 788.852 132.936 793.458 Q129.881 798.041 124.07 798.041 Q118.26 798.041 115.182 793.458 Q112.126 788.852 112.126 780.125 Q112.126 771.375 115.182 766.792 Q118.26 762.185 124.07 762.185 Z" fill="#000000" fill-rule="nonzero" fill-opacity="1" /><path clip-path="url(#clip100)" d="M64.3254 425.048 Q61.1773 425.048 59.3254 427.201 Q57.4967 429.353 57.4967 433.103 Q57.4967 436.83 59.3254 439.006 Q61.1773 441.159 64.3254 441.159 Q67.4735 441.159 69.3022 439.006 Q71.1541 436.83 71.1541 433.103 Q71.1541 429.353 69.3022 427.201 Q67.4735 425.048 64.3254 425.048 M73.6077 410.395 L73.6077 414.654 Q71.8485 413.821 70.0429 413.381 Q68.2606 412.942 66.5013 412.942 Q61.8717 412.942 59.418 416.066 Q56.9875 419.191 56.6402 425.511 Q58.006 423.497 60.0662 422.432 Q62.1263 421.344 64.6032 421.344 Q69.8115 421.344 72.8207 424.516 Q75.8531 427.664 75.8531 433.103 Q75.8531 438.427 72.705 441.645 Q69.5568 444.863 64.3254 444.863 Q58.33 444.863 55.1588 440.279 Q51.9875 435.673 51.9875 426.946 Q51.9875 418.752 55.8764 413.891 Q59.7652 409.006 66.3161 409.006 Q68.0754 409.006 69.8578 409.354 Q71.6633 409.701 73.6077 410.395 Z" fill="#000000" fill-rule="nonzero" fill-opacity="1" /><path clip-path="url(#clip100)" d="M93.9086 412.71 Q90.2975 412.71 88.4688 416.275 Q86.6632 419.816 86.6632 426.946 Q86.6632 434.053 88.4688 437.617 Q90.2975 441.159 93.9086 441.159 Q97.5428 441.159 99.3483 437.617 Q101.177 434.053 101.177 426.946 Q101.177 419.816 99.3483 416.275 Q97.5428 412.71 93.9086 412.71 M93.9086 409.006 Q99.7187 409.006 102.774 413.613 Q105.853 418.196 105.853 426.946 Q105.853 435.673 102.774 440.279 Q99.7187 444.863 93.9086 444.863 Q88.0984 444.863 85.0197 440.279 Q81.9642 435.673 81.9642 426.946 Q81.9642 418.196 85.0197 413.613 Q88.0984 409.006 93.9086 409.006 Z" fill="#000000" fill-rule="nonzero" fill-opacity="1" /><path clip-path="url(#clip100)" d="M124.07 412.71 Q120.459 412.71 118.631 416.275 Q116.825 419.816 116.825 426.946 Q116.825 434.053 118.631 437.617 Q120.459 441.159 124.07 441.159 Q127.705 441.159 129.51 437.617 Q131.339 434.053 131.339 426.946 Q131.339 419.816 129.51 416.275 Q127.705 412.71 124.07 412.71 M124.07 409.006 Q129.881 409.006 132.936 413.613 Q136.015 418.196 136.015 426.946 Q136.015 435.673 132.936 440.279 Q129.881 444.863 124.07 444.863 Q118.26 444.863 115.182 440.279 Q112.126 435.673 112.126 426.946 Q112.126 418.196 115.182 413.613 Q118.26 409.006 124.07 409.006 Z" fill="#000000" fill-rule="nonzero" fill-opacity="1" /><path clip-path="url(#clip100)" d="M63.7467 74.6006 Q60.4134 74.6006 58.4921 76.383 Q56.5939 78.1654 56.5939 81.2903 Q56.5939 84.4153 58.4921 86.1977 Q60.4134 87.9801 63.7467 87.9801 Q67.08 87.9801 69.0013 86.1977 Q70.9226 84.3922 70.9226 81.2903 Q70.9226 78.1654 69.0013 76.383 Q67.1032 74.6006 63.7467 74.6006 M59.0708 72.6098 Q56.0615 71.8691 54.3717 69.8089 Q52.7051 67.7487 52.7051 64.7858 Q52.7051 60.6423 55.6449 58.2349 Q58.6078 55.8275 63.7467 55.8275 Q68.9087 55.8275 71.8485 58.2349 Q74.7883 60.6423 74.7883 64.7858 Q74.7883 67.7487 73.0985 69.8089 Q71.4318 71.8691 68.4457 72.6098 Q71.8253 73.3969 73.7003 75.6885 Q75.5985 77.9802 75.5985 81.2903 Q75.5985 86.3135 72.5198 88.9986 Q69.4642 91.6838 63.7467 91.6838 Q58.0291 91.6838 54.9504 88.9986 Q51.8949 86.3135 51.8949 81.2903 Q51.8949 77.9802 53.793 75.6885 Q55.6912 73.3969 59.0708 72.6098 M57.3578 65.2256 Q57.3578 67.9108 59.0245 69.4154 Q60.7143 70.92 63.7467 70.92 Q66.7559 70.92 68.4457 69.4154 Q70.1587 67.9108 70.1587 65.2256 Q70.1587 62.5404 68.4457 61.0358 Q66.7559 59.5312 63.7467 59.5312 Q60.7143 59.5312 59.0245 61.0358 Q57.3578 62.5404 57.3578 65.2256 Z" fill="#000000" fill-rule="nonzero" fill-opacity="1" /><path clip-path="url(#clip100)" d="M93.9086 59.5312 Q90.2975 59.5312 88.4688 63.096 Q86.6632 66.6376 86.6632 73.7672 Q86.6632 80.8737 88.4688 84.4385 Q90.2975 87.9801 93.9086 87.9801 Q97.5428 87.9801 99.3483 84.4385 Q101.177 80.8737 101.177 73.7672 Q101.177 66.6376 99.3483 63.096 Q97.5428 59.5312 93.9086 59.5312 M93.9086 55.8275 Q99.7187 55.8275 102.774 60.434 Q105.853 65.0173 105.853 73.7672 Q105.853 82.494 102.774 87.1005 Q99.7187 91.6838 93.9086 91.6838 Q88.0984 91.6838 85.0197 87.1005 Q81.9642 82.494 81.9642 73.7672 Q81.9642 65.0173 85.0197 60.434 Q88.0984 55.8275 93.9086 55.8275 Z" fill="#000000" fill-rule="nonzero" fill-opacity="1" /><path clip-path="url(#clip100)" d="M124.07 59.5312 Q120.459 59.5312 118.631 63.096 Q116.825 66.6376 116.825 73.7672 Q116.825 80.8737 118.631 84.4385 Q120.459 87.9801 124.07 87.9801 Q127.705 87.9801 129.51 84.4385 Q131.339 80.8737 131.339 73.7672 Q131.339 66.6376 129.51 63.096 Q127.705 59.5312 124.07 59.5312 M124.07 55.8275 Q129.881 55.8275 132.936 60.434 Q136.015 65.0173 136.015 73.7672 Q136.015 82.494 132.936 87.1005 Q129.881 91.6838 124.07 91.6838 Q118.26 91.6838 115.182 87.1005 Q112.126 82.494 112.126 73.7672 Q112.126 65.0173 115.182 60.434 Q118.26 55.8275 124.07 55.8275 Z" fill="#000000" fill-rule="nonzero" fill-opacity="1" /><path clip-path="url(#clip102)" d="M291.959 1477.62 L291.959 1486.45 L347.412 1486.45 L347.412 1477.62 L291.959 1477.62 L291.959 1477.62  Z" fill="#009af9" fill-rule="evenodd" fill-opacity="1"/>
<polyline clip-path="url(#clip102)" style="stroke:#000000; stroke-linecap:round; stroke-linejoin:round; stroke-width:4; stroke-opacity:1; fill:none" points="291.959,1477.62 291.959,1486.45 347.412,1486.45 347.412,1477.62 291.959,1477.62 "/>
<path clip-path="url(#clip102)" d="M347.412 1472.32 L347.412 1486.45 L402.865 1486.45 L402.865 1472.32 L347.412 1472.32 L347.412 1472.32  Z" fill="#009af9" fill-rule="evenodd" fill-opacity="1"/>
<polyline clip-path="url(#clip102)" style="stroke:#000000; stroke-linecap:round; stroke-linejoin:round; stroke-width:4; stroke-opacity:1; fill:none" points="347.412,1472.32 347.412,1486.45 402.865,1486.45 402.865,1472.32 347.412,1472.32 "/>
<path clip-path="url(#clip102)" d="M402.865 1463.49 L402.865 1486.45 L458.318 1486.45 L458.318 1463.49 L402.865 1463.49 L402.865 1463.49  Z" fill="#009af9" fill-rule="evenodd" fill-opacity="1"/>
<polyline clip-path="url(#clip102)" style="stroke:#000000; stroke-linecap:round; stroke-linejoin:round; stroke-width:4; stroke-opacity:1; fill:none" points="402.865,1463.49 402.865,1486.45 458.318,1486.45 458.318,1463.49 402.865,1463.49 "/>
<path clip-path="url(#clip102)" d="M458.318 1456.43 L458.318 1486.45 L513.771 1486.45 L513.771 1456.43 L458.318 1456.43 L458.318 1456.43  Z" fill="#009af9" fill-rule="evenodd" fill-opacity="1"/>
<polyline clip-path="url(#clip102)" style="stroke:#000000; stroke-linecap:round; stroke-linejoin:round; stroke-width:4; stroke-opacity:1; fill:none" points="458.318,1456.43 458.318,1486.45 513.771,1486.45 513.771,1456.43 458.318,1456.43 "/>
<path clip-path="url(#clip102)" d="M513.771 1437 L513.771 1486.45 L569.224 1486.45 L569.224 1437 L513.771 1437 L513.771 1437  Z" fill="#009af9" fill-rule="evenodd" fill-opacity="1"/>
<polyline clip-path="url(#clip102)" style="stroke:#000000; stroke-linecap:round; stroke-linejoin:round; stroke-width:4; stroke-opacity:1; fill:none" points="513.771,1437 513.771,1486.45 569.224,1486.45 569.224,1437 513.771,1437 "/>
<path clip-path="url(#clip102)" d="M569.224 1364.6 L569.224 1486.45 L624.677 1486.45 L624.677 1364.6 L569.224 1364.6 L569.224 1364.6  Z" fill="#009af9" fill-rule="evenodd" fill-opacity="1"/>
<polyline clip-path="url(#clip102)" style="stroke:#000000; stroke-linecap:round; stroke-linejoin:round; stroke-width:4; stroke-opacity:1; fill:none" points="569.224,1364.6 569.224,1486.45 624.677,1486.45 624.677,1364.6 569.224,1364.6 "/>
<path clip-path="url(#clip102)" d="M624.677 1339.88 L624.677 1486.45 L680.13 1486.45 L680.13 1339.88 L624.677 1339.88 L624.677 1339.88  Z" fill="#009af9" fill-rule="evenodd" fill-opacity="1"/>
<polyline clip-path="url(#clip102)" style="stroke:#000000; stroke-linecap:round; stroke-linejoin:round; stroke-width:4; stroke-opacity:1; fill:none" points="624.677,1339.88 624.677,1486.45 680.13,1486.45 680.13,1339.88 624.677,1339.88 "/>
<path clip-path="url(#clip102)" d="M680.13 1239.22 L680.13 1486.45 L735.583 1486.45 L735.583 1239.22 L680.13 1239.22 L680.13 1239.22  Z" fill="#009af9" fill-rule="evenodd" fill-opacity="1"/>
<polyline clip-path="url(#clip102)" style="stroke:#000000; stroke-linecap:round; stroke-linejoin:round; stroke-width:4; stroke-opacity:1; fill:none" points="680.13,1239.22 680.13,1486.45 735.583,1486.45 735.583,1239.22 680.13,1239.22 "/>
<path clip-path="url(#clip102)" d="M735.583 1094.42 L735.583 1486.45 L791.036 1486.45 L791.036 1094.42 L735.583 1094.42 L735.583 1094.42  Z" fill="#009af9" fill-rule="evenodd" fill-opacity="1"/>
<polyline clip-path="url(#clip102)" style="stroke:#000000; stroke-linecap:round; stroke-linejoin:round; stroke-width:4; stroke-opacity:1; fill:none" points="735.583,1094.42 735.583,1486.45 791.036,1486.45 791.036,1094.42 735.583,1094.42 "/>
<path clip-path="url(#clip102)" d="M791.036 1013.19 L791.036 1486.45 L846.489 1486.45 L846.489 1013.19 L791.036 1013.19 L791.036 1013.19  Z" fill="#009af9" fill-rule="evenodd" fill-opacity="1"/>
<polyline clip-path="url(#clip102)" style="stroke:#000000; stroke-linecap:round; stroke-linejoin:round; stroke-width:4; stroke-opacity:1; fill:none" points="791.036,1013.19 791.036,1486.45 846.489,1486.45 846.489,1013.19 791.036,1013.19 "/>
<path clip-path="url(#clip102)" d="M846.489 841.896 L846.489 1486.45 L901.941 1486.45 L901.941 841.896 L846.489 841.896 L846.489 841.896  Z" fill="#009af9" fill-rule="evenodd" fill-opacity="1"/>
<polyline clip-path="url(#clip102)" style="stroke:#000000; stroke-linecap:round; stroke-linejoin:round; stroke-width:4; stroke-opacity:1; fill:none" points="846.489,841.896 846.489,1486.45 901.941,1486.45 901.941,841.896 846.489,841.896 "/>
<path clip-path="url(#clip102)" d="M901.941 712.986 L901.941 1486.45 L957.394 1486.45 L957.394 712.986 L901.941 712.986 L901.941 712.986  Z" fill="#009af9" fill-rule="evenodd" fill-opacity="1"/>
<polyline clip-path="url(#clip102)" style="stroke:#000000; stroke-linecap:round; stroke-linejoin:round; stroke-width:4; stroke-opacity:1; fill:none" points="901.941,712.986 901.941,1486.45 957.394,1486.45 957.394,712.986 901.941,712.986 "/>
<path clip-path="url(#clip102)" d="M957.394 532.865 L957.394 1486.45 L1012.85 1486.45 L1012.85 532.865 L957.394 532.865 L957.394 532.865  Z" fill="#009af9" fill-rule="evenodd" fill-opacity="1"/>
<polyline clip-path="url(#clip102)" style="stroke:#000000; stroke-linecap:round; stroke-linejoin:round; stroke-width:4; stroke-opacity:1; fill:none" points="957.394,532.865 957.394,1486.45 1012.85,1486.45 1012.85,532.865 957.394,532.865 "/>
<path clip-path="url(#clip102)" d="M1012.85 356.276 L1012.85 1486.45 L1068.3 1486.45 L1068.3 356.276 L1012.85 356.276 L1012.85 356.276  Z" fill="#009af9" fill-rule="evenodd" fill-opacity="1"/>
<polyline clip-path="url(#clip102)" style="stroke:#000000; stroke-linecap:round; stroke-linejoin:round; stroke-width:4; stroke-opacity:1; fill:none" points="1012.85,356.276 1012.85,1486.45 1068.3,1486.45 1068.3,356.276 1012.85,356.276 "/>
<path clip-path="url(#clip102)" d="M1068.3 227.365 L1068.3 1486.45 L1123.75 1486.45 L1123.75 227.365 L1068.3 227.365 L1068.3 227.365  Z" fill="#009af9" fill-rule="evenodd" fill-opacity="1"/>
<polyline clip-path="url(#clip102)" style="stroke:#000000; stroke-linecap:round; stroke-linejoin:round; stroke-width:4; stroke-opacity:1; fill:none" points="1068.3,227.365 1068.3,1486.45 1123.75,1486.45 1123.75,227.365 1068.3,227.365 "/>
<path clip-path="url(#clip102)" d="M1123.75 163.793 L1123.75 1486.45 L1179.21 1486.45 L1179.21 163.793 L1123.75 163.793 L1123.75 163.793  Z" fill="#009af9" fill-rule="evenodd" fill-opacity="1"/>
<polyline clip-path="url(#clip102)" style="stroke:#000000; stroke-linecap:round; stroke-linejoin:round; stroke-width:4; stroke-opacity:1; fill:none" points="1123.75,163.793 1123.75,1486.45 1179.21,1486.45 1179.21,163.793 1123.75,163.793 "/>
<path clip-path="url(#clip102)" d="M1179.21 47.2441 L1179.21 1486.45 L1234.66 1486.45 L1234.66 47.2441 L1179.21 47.2441 L1179.21 47.2441  Z" fill="#009af9" fill-rule="evenodd" fill-opacity="1"/>
<polyline clip-path="url(#clip102)" style="stroke:#000000; stroke-linecap:round; stroke-linejoin:round; stroke-width:4; stroke-opacity:1; fill:none" points="1179.21,47.2441 1179.21,1486.45 1234.66,1486.45 1234.66,47.2441 1179.21,47.2441 "/>
<path clip-path="url(#clip102)" d="M1234.66 139.071 L1234.66 1486.45 L1290.11 1486.45 L1290.11 139.071 L1234.66 139.071 L1234.66 139.071  Z" fill="#009af9" fill-rule="evenodd" fill-opacity="1"/>
<polyline clip-path="url(#clip102)" style="stroke:#000000; stroke-linecap:round; stroke-linejoin:round; stroke-width:4; stroke-opacity:1; fill:none" points="1234.66,139.071 1234.66,1486.45 1290.11,1486.45 1290.11,139.071 1234.66,139.071 "/>
<path clip-path="url(#clip102)" d="M1290.11 126.709 L1290.11 1486.45 L1345.56 1486.45 L1345.56 126.709 L1290.11 126.709 L1290.11 126.709  Z" fill="#009af9" fill-rule="evenodd" fill-opacity="1"/>
<polyline clip-path="url(#clip102)" style="stroke:#000000; stroke-linecap:round; stroke-linejoin:round; stroke-width:4; stroke-opacity:1; fill:none" points="1290.11,126.709 1290.11,1486.45 1345.56,1486.45 1345.56,126.709 1290.11,126.709 "/>
<path clip-path="url(#clip102)" d="M1345.56 282.108 L1345.56 1486.45 L1401.02 1486.45 L1401.02 282.108 L1345.56 282.108 L1345.56 282.108  Z" fill="#009af9" fill-rule="evenodd" fill-opacity="1"/>
<polyline clip-path="url(#clip102)" style="stroke:#000000; stroke-linecap:round; stroke-linejoin:round; stroke-width:4; stroke-opacity:1; fill:none" points="1345.56,282.108 1345.56,1486.45 1401.02,1486.45 1401.02,282.108 1345.56,282.108 "/>
<path clip-path="url(#clip102)" d="M1401.02 347.446 L1401.02 1486.45 L1456.47 1486.45 L1456.47 347.446 L1401.02 347.446 L1401.02 347.446  Z" fill="#009af9" fill-rule="evenodd" fill-opacity="1"/>
<polyline clip-path="url(#clip102)" style="stroke:#000000; stroke-linecap:round; stroke-linejoin:round; stroke-width:4; stroke-opacity:1; fill:none" points="1401.02,347.446 1401.02,1486.45 1456.47,1486.45 1456.47,347.446 1401.02,347.446 "/>
<path clip-path="url(#clip102)" d="M1456.47 615.862 L1456.47 1486.45 L1511.92 1486.45 L1511.92 615.862 L1456.47 615.862 L1456.47 615.862  Z" fill="#009af9" fill-rule="evenodd" fill-opacity="1"/>
<polyline clip-path="url(#clip102)" style="stroke:#000000; stroke-linecap:round; stroke-linejoin:round; stroke-width:4; stroke-opacity:1; fill:none" points="1456.47,615.862 1456.47,1486.45 1511.92,1486.45 1511.92,615.862 1456.47,615.862 "/>
<path clip-path="url(#clip102)" d="M1511.92 771.261 L1511.92 1486.45 L1567.38 1486.45 L1567.38 771.261 L1511.92 771.261 L1511.92 771.261  Z" fill="#009af9" fill-rule="evenodd" fill-opacity="1"/>
<polyline clip-path="url(#clip102)" style="stroke:#000000; stroke-linecap:round; stroke-linejoin:round; stroke-width:4; stroke-opacity:1; fill:none" points="1511.92,771.261 1511.92,1486.45 1567.38,1486.45 1567.38,771.261 1511.92,771.261 "/>
<path clip-path="url(#clip102)" d="M1567.38 875.448 L1567.38 1486.45 L1622.83 1486.45 L1622.83 875.448 L1567.38 875.448 L1567.38 875.448  Z" fill="#009af9" fill-rule="evenodd" fill-opacity="1"/>
<polyline clip-path="url(#clip102)" style="stroke:#000000; stroke-linecap:round; stroke-linejoin:round; stroke-width:4; stroke-opacity:1; fill:none" points="1567.38,875.448 1567.38,1486.45 1622.83,1486.45 1622.83,875.448 1567.38,875.448 "/>
<path clip-path="url(#clip102)" d="M1622.83 1018.49 L1622.83 1486.45 L1678.28 1486.45 L1678.28 1018.49 L1622.83 1018.49 L1622.83 1018.49  Z" fill="#009af9" fill-rule="evenodd" fill-opacity="1"/>
<polyline clip-path="url(#clip102)" style="stroke:#000000; stroke-linecap:round; stroke-linejoin:round; stroke-width:4; stroke-opacity:1; fill:none" points="1622.83,1018.49 1622.83,1486.45 1678.28,1486.45 1678.28,1018.49 1622.83,1018.49 "/>
<path clip-path="url(#clip102)" d="M1678.28 1177.42 L1678.28 1486.45 L1733.74 1486.45 L1733.74 1177.42 L1678.28 1177.42 L1678.28 1177.42  Z" fill="#009af9" fill-rule="evenodd" fill-opacity="1"/>
<polyline clip-path="url(#clip102)" style="stroke:#000000; stroke-linecap:round; stroke-linejoin:round; stroke-width:4; stroke-opacity:1; fill:none" points="1678.28,1177.42 1678.28,1486.45 1733.74,1486.45 1733.74,1177.42 1678.28,1177.42 "/>
<path clip-path="url(#clip102)" d="M1733.74 1240.99 L1733.74 1486.45 L1789.19 1486.45 L1789.19 1240.99 L1733.74 1240.99 L1733.74 1240.99  Z" fill="#009af9" fill-rule="evenodd" fill-opacity="1"/>
<polyline clip-path="url(#clip102)" style="stroke:#000000; stroke-linecap:round; stroke-linejoin:round; stroke-width:4; stroke-opacity:1; fill:none" points="1733.74,1240.99 1733.74,1486.45 1789.19,1486.45 1789.19,1240.99 1733.74,1240.99 "/>
<path clip-path="url(#clip102)" d="M1789.19 1352.24 L1789.19 1486.45 L1844.64 1486.45 L1844.64 1352.24 L1789.19 1352.24 L1789.19 1352.24  Z" fill="#009af9" fill-rule="evenodd" fill-opacity="1"/>
<polyline clip-path="url(#clip102)" style="stroke:#000000; stroke-linecap:round; stroke-linejoin:round; stroke-width:4; stroke-opacity:1; fill:none" points="1789.19,1352.24 1789.19,1486.45 1844.64,1486.45 1844.64,1352.24 1789.19,1352.24 "/>
<path clip-path="url(#clip102)" d="M1844.64 1375.2 L1844.64 1486.45 L1900.09 1486.45 L1900.09 1375.2 L1844.64 1375.2 L1844.64 1375.2  Z" fill="#009af9" fill-rule="evenodd" fill-opacity="1"/>
<polyline clip-path="url(#clip102)" style="stroke:#000000; stroke-linecap:round; stroke-linejoin:round; stroke-width:4; stroke-opacity:1; fill:none" points="1844.64,1375.2 1844.64,1486.45 1900.09,1486.45 1900.09,1375.2 1844.64,1375.2 "/>
<path clip-path="url(#clip102)" d="M1900.09 1435.24 L1900.09 1486.45 L1955.55 1486.45 L1955.55 1435.24 L1900.09 1435.24 L1900.09 1435.24  Z" fill="#009af9" fill-rule="evenodd" fill-opacity="1"/>
<polyline clip-path="url(#clip102)" style="stroke:#000000; stroke-linecap:round; stroke-linejoin:round; stroke-width:4; stroke-opacity:1; fill:none" points="1900.09,1435.24 1900.09,1486.45 1955.55,1486.45 1955.55,1435.24 1900.09,1435.24 "/>
<path clip-path="url(#clip102)" d="M1955.55 1456.43 L1955.55 1486.45 L2011 1486.45 L2011 1456.43 L1955.55 1456.43 L1955.55 1456.43  Z" fill="#009af9" fill-rule="evenodd" fill-opacity="1"/>
<polyline clip-path="url(#clip102)" style="stroke:#000000; stroke-linecap:round; stroke-linejoin:round; stroke-width:4; stroke-opacity:1; fill:none" points="1955.55,1456.43 1955.55,1486.45 2011,1486.45 2011,1456.43 1955.55,1456.43 "/>
<path clip-path="url(#clip102)" d="M2011 1463.49 L2011 1486.45 L2066.45 1486.45 L2066.45 1463.49 L2011 1463.49 L2011 1463.49  Z" fill="#009af9" fill-rule="evenodd" fill-opacity="1"/>
<polyline clip-path="url(#clip102)" style="stroke:#000000; stroke-linecap:round; stroke-linejoin:round; stroke-width:4; stroke-opacity:1; fill:none" points="2011,1463.49 2011,1486.45 2066.45,1486.45 2066.45,1463.49 2011,1463.49 "/>
<path clip-path="url(#clip102)" d="M2066.45 1482.92 L2066.45 1486.45 L2121.91 1486.45 L2121.91 1482.92 L2066.45 1482.92 L2066.45 1482.92  Z" fill="#009af9" fill-rule="evenodd" fill-opacity="1"/>
<polyline clip-path="url(#clip102)" style="stroke:#000000; stroke-linecap:round; stroke-linejoin:round; stroke-width:4; stroke-opacity:1; fill:none" points="2066.45,1482.92 2066.45,1486.45 2121.91,1486.45 2121.91,1482.92 2066.45,1482.92 "/>
<path clip-path="url(#clip102)" d="M2121.91 1481.15 L2121.91 1486.45 L2177.36 1486.45 L2177.36 1481.15 L2121.91 1481.15 L2121.91 1481.15  Z" fill="#009af9" fill-rule="evenodd" fill-opacity="1"/>
<polyline clip-path="url(#clip102)" style="stroke:#000000; stroke-linecap:round; stroke-linejoin:round; stroke-width:4; stroke-opacity:1; fill:none" points="2121.91,1481.15 2121.91,1486.45 2177.36,1486.45 2177.36,1481.15 2121.91,1481.15 "/>
<path clip-path="url(#clip102)" d="M2177.36 1484.68 L2177.36 1486.45 L2232.81 1486.45 L2232.81 1484.68 L2177.36 1484.68 L2177.36 1484.68  Z" fill="#009af9" fill-rule="evenodd" fill-opacity="1"/>
<polyline clip-path="url(#clip102)" style="stroke:#000000; stroke-linecap:round; stroke-linejoin:round; stroke-width:4; stroke-opacity:1; fill:none" points="2177.36,1484.68 2177.36,1486.45 2232.81,1486.45 2232.81,1484.68 2177.36,1484.68 "/>
<circle clip-path="url(#clip102)" style="fill:#009af9; stroke:none; fill-opacity:0" cx="319.686" cy="1477.62" r="2"/>
<circle clip-path="url(#clip102)" style="fill:#009af9; stroke:none; fill-opacity:0" cx="375.139" cy="1472.32" r="2"/>
<circle clip-path="url(#clip102)" style="fill:#009af9; stroke:none; fill-opacity:0" cx="430.592" cy="1463.49" r="2"/>
<circle clip-path="url(#clip102)" style="fill:#009af9; stroke:none; fill-opacity:0" cx="486.045" cy="1456.43" r="2"/>
<circle clip-path="url(#clip102)" style="fill:#009af9; stroke:none; fill-opacity:0" cx="541.498" cy="1437" r="2"/>
<circle clip-path="url(#clip102)" style="fill:#009af9; stroke:none; fill-opacity:0" cx="596.95" cy="1364.6" r="2"/>
<circle clip-path="url(#clip102)" style="fill:#009af9; stroke:none; fill-opacity:0" cx="652.403" cy="1339.88" r="2"/>
<circle clip-path="url(#clip102)" style="fill:#009af9; stroke:none; fill-opacity:0" cx="707.856" cy="1239.22" r="2"/>
<circle clip-path="url(#clip102)" style="fill:#009af9; stroke:none; fill-opacity:0" cx="763.309" cy="1094.42" r="2"/>
<circle clip-path="url(#clip102)" style="fill:#009af9; stroke:none; fill-opacity:0" cx="818.762" cy="1013.19" r="2"/>
<circle clip-path="url(#clip102)" style="fill:#009af9; stroke:none; fill-opacity:0" cx="874.215" cy="841.896" r="2"/>
<circle clip-path="url(#clip102)" style="fill:#009af9; stroke:none; fill-opacity:0" cx="929.668" cy="712.986" r="2"/>
<circle clip-path="url(#clip102)" style="fill:#009af9; stroke:none; fill-opacity:0" cx="985.121" cy="532.865" r="2"/>
<circle clip-path="url(#clip102)" style="fill:#009af9; stroke:none; fill-opacity:0" cx="1040.57" cy="356.276" r="2"/>
<circle clip-path="url(#clip102)" style="fill:#009af9; stroke:none; fill-opacity:0" cx="1096.03" cy="227.365" r="2"/>
<circle clip-path="url(#clip102)" style="fill:#009af9; stroke:none; fill-opacity:0" cx="1151.48" cy="163.793" r="2"/>
<circle clip-path="url(#clip102)" style="fill:#009af9; stroke:none; fill-opacity:0" cx="1206.93" cy="47.2441" r="2"/>
<circle clip-path="url(#clip102)" style="fill:#009af9; stroke:none; fill-opacity:0" cx="1262.39" cy="139.071" r="2"/>
<circle clip-path="url(#clip102)" style="fill:#009af9; stroke:none; fill-opacity:0" cx="1317.84" cy="126.709" r="2"/>
<circle clip-path="url(#clip102)" style="fill:#009af9; stroke:none; fill-opacity:0" cx="1373.29" cy="282.108" r="2"/>
<circle clip-path="url(#clip102)" style="fill:#009af9; stroke:none; fill-opacity:0" cx="1428.74" cy="347.446" r="2"/>
<circle clip-path="url(#clip102)" style="fill:#009af9; stroke:none; fill-opacity:0" cx="1484.2" cy="615.862" r="2"/>
<circle clip-path="url(#clip102)" style="fill:#009af9; stroke:none; fill-opacity:0" cx="1539.65" cy="771.261" r="2"/>
<circle clip-path="url(#clip102)" style="fill:#009af9; stroke:none; fill-opacity:0" cx="1595.1" cy="875.448" r="2"/>
<circle clip-path="url(#clip102)" style="fill:#009af9; stroke:none; fill-opacity:0" cx="1650.56" cy="1018.49" r="2"/>
<circle clip-path="url(#clip102)" style="fill:#009af9; stroke:none; fill-opacity:0" cx="1706.01" cy="1177.42" r="2"/>
<circle clip-path="url(#clip102)" style="fill:#009af9; stroke:none; fill-opacity:0" cx="1761.46" cy="1240.99" r="2"/>
<circle clip-path="url(#clip102)" style="fill:#009af9; stroke:none; fill-opacity:0" cx="1816.91" cy="1352.24" r="2"/>
<circle clip-path="url(#clip102)" style="fill:#009af9; stroke:none; fill-opacity:0" cx="1872.37" cy="1375.2" r="2"/>
<circle clip-path="url(#clip102)" style="fill:#009af9; stroke:none; fill-opacity:0" cx="1927.82" cy="1435.24" r="2"/>
<circle clip-path="url(#clip102)" style="fill:#009af9; stroke:none; fill-opacity:0" cx="1983.27" cy="1456.43" r="2"/>
<circle clip-path="url(#clip102)" style="fill:#009af9; stroke:none; fill-opacity:0" cx="2038.73" cy="1463.49" r="2"/>
<circle clip-path="url(#clip102)" style="fill:#009af9; stroke:none; fill-opacity:0" cx="2094.18" cy="1482.92" r="2"/>
<circle clip-path="url(#clip102)" style="fill:#009af9; stroke:none; fill-opacity:0" cx="2149.63" cy="1481.15" r="2"/>
<circle clip-path="url(#clip102)" style="fill:#009af9; stroke:none; fill-opacity:0" cx="2205.08" cy="1484.68" r="2"/>
</svg>
