<?xml version="1.0" encoding="utf-8"?>
<svg xmlns="http://www.w3.org/2000/svg" xmlns:xlink="http://www.w3.org/1999/xlink" width="600" height="400" viewBox="0 0 2400 1600">
<defs>
  <clipPath id="clip070">
    <rect x="0" y="0" width="2400" height="1600"/>
  </clipPath>
</defs>
<path clip-path="url(#clip070)" d="M0 1600 L2400 1600 L2400 0 L0 0  Z" fill="#ffffff" fill-rule="evenodd" fill-opacity="1"/>
<defs>
  <clipPath id="clip071">
    <rect x="480" y="0" width="1681" height="1600"/>
  </clipPath>
</defs>
<path clip-path="url(#clip070)" d="M172.015 1486.45 L2352.76 1486.45 L2352.76 47.2441 L172.015 47.2441  Z" fill="#ffffff" fill-rule="evenodd" fill-opacity="1"/>
<defs>
  <clipPath id="clip072">
    <rect x="172" y="47" width="2182" height="1440"/>
  </clipPath>
</defs>
<polyline clip-path="url(#clip072)" style="stroke:#000000; stroke-linecap:round; stroke-linejoin:round; stroke-width:2; stroke-opacity:0.1; fill:none" points="291.959,1486.45 291.959,47.2441 "/>
<polyline clip-path="url(#clip072)" style="stroke:#000000; stroke-linecap:round; stroke-linejoin:round; stroke-width:2; stroke-opacity:0.1; fill:none" points="777.172,1486.45 777.172,47.2441 "/>
<polyline clip-path="url(#clip072)" style="stroke:#000000; stroke-linecap:round; stroke-linejoin:round; stroke-width:2; stroke-opacity:0.1; fill:none" points="1262.39,1486.45 1262.39,47.2441 "/>
<polyline clip-path="url(#clip072)" style="stroke:#000000; stroke-linecap:round; stroke-linejoin:round; stroke-width:2; stroke-opacity:0.1; fill:none" points="1747.6,1486.45 1747.6,47.2441 "/>
<polyline clip-path="url(#clip072)" style="stroke:#000000; stroke-linecap:round; stroke-linejoin:round; stroke-width:2; stroke-opacity:0.1; fill:none" points="2232.81,1486.45 2232.81,47.2441 "/>
<polyline clip-path="url(#clip072)" style="stroke:#000000; stroke-linecap:round; stroke-linejoin:round; stroke-width:2; stroke-opacity:0.1; fill:none" points="172.015,1486.45 2352.76,1486.45 "/>
<polyline clip-path="url(#clip072)" style="stroke:#000000; stroke-linecap:round; stroke-linejoin:round; stroke-width:2; stroke-opacity:0.1; fill:none" points="172.015,1140.49 2352.76,1140.49 "/>
<polyline clip-path="url(#clip072)" style="stroke:#000000; stroke-linecap:round; stroke-linejoin:round; stroke-width:2; stroke-opacity:0.1; fill:none" points="172.015,794.523 2352.76,794.523 "/>
<polyline clip-path="url(#clip072)" style="stroke:#000000; stroke-linecap:round; stroke-linejoin:round; stroke-width:2; stroke-opacity:0.1; fill:none" points="172.015,448.561 2352.76,448.561 "/>
<polyline clip-path="url(#clip072)" style="stroke:#000000; stroke-linecap:round; stroke-linejoin:round; stroke-width:2; stroke-opacity:0.1; fill:none" points="172.015,102.598 2352.76,102.598 "/>
<polyline clip-path="url(#clip070)" style="stroke:#000000; stroke-linecap:round; stroke-linejoin:round; stroke-width:4; stroke-opacity:1; fill:none" points="172.015,1486.45 2352.76,1486.45 "/>
<polyline clip-path="url(#clip070)" style="stroke:#000000; stroke-linecap:round; stroke-linejoin:round; stroke-width:4; stroke-opacity:1; fill:none" points="291.959,1486.45 291.959,1467.55 "/>
<polyline clip-path="url(#clip070)" style="stroke:#000000; stroke-linecap:round; stroke-linejoin:round; stroke-width:4; stroke-opacity:1; fill:none" points="777.172,1486.45 777.172,1467.55 "/>
<polyline clip-path="url(#clip070)" style="stroke:#000000; stroke-linecap:round; stroke-linejoin:round; stroke-width:4; stroke-opacity:1; fill:none" points="1262.39,1486.45 1262.39,1467.55 "/>
<polyline clip-path="url(#clip070)" style="stroke:#000000; stroke-linecap:round; stroke-linejoin:round; stroke-width:4; stroke-opacity:1; fill:none" points="1747.6,1486.45 1747.6,1467.55 "/>
<polyline clip-path="url(#clip070)" style="stroke:#000000; stroke-linecap:round; stroke-linejoin:round; stroke-width:4; stroke-opacity:1; fill:none" points="2232.81,1486.45 2232.81,1467.55 "/>
<path clip-path="url(#clip070)" d="M261.902 1532.02 L291.578 1532.02 L291.578 1535.95 L261.902 1535.95 L261.902 1532.02 Z" fill="#000000" fill-rule="nonzero" fill-opacity="1" /><path clip-path="url(#clip070)" d="M305.698 1544.91 L322.017 1544.91 L322.017 1548.85 L300.073 1548.85 L300.073 1544.91 Q302.735 1542.16 307.318 1537.53 Q311.925 1532.88 313.105 1531.53 Q315.351 1529.01 316.23 1527.27 Q317.133 1525.51 317.133 1523.82 Q317.133 1521.07 315.189 1519.33 Q313.267 1517.6 310.165 1517.6 Q307.966 1517.6 305.513 1518.36 Q303.082 1519.13 300.304 1520.68 L300.304 1515.95 Q303.128 1514.82 305.582 1514.24 Q308.036 1513.66 310.073 1513.66 Q315.443 1513.66 318.638 1516.35 Q321.832 1519.03 321.832 1523.52 Q321.832 1525.65 321.022 1527.57 Q320.235 1529.47 318.128 1532.07 Q317.55 1532.74 314.448 1535.95 Q311.346 1539.15 305.698 1544.91 Z" fill="#000000" fill-rule="nonzero" fill-opacity="1" /><path clip-path="url(#clip070)" d="M777.172 1517.37 Q773.561 1517.37 771.733 1520.93 Q769.927 1524.47 769.927 1531.6 Q769.927 1538.71 771.733 1542.27 Q773.561 1545.82 777.172 1545.82 Q780.807 1545.82 782.612 1542.27 Q784.441 1538.71 784.441 1531.6 Q784.441 1524.47 782.612 1520.93 Q780.807 1517.37 777.172 1517.37 M777.172 1513.66 Q782.983 1513.66 786.038 1518.27 Q789.117 1522.85 789.117 1531.6 Q789.117 1540.33 786.038 1544.94 Q782.983 1549.52 777.172 1549.52 Q771.362 1549.52 768.284 1544.94 Q765.228 1540.33 765.228 1531.6 Q765.228 1522.85 768.284 1518.27 Q771.362 1513.66 777.172 1513.66 Z" fill="#000000" fill-rule="nonzero" fill-opacity="1" /><path clip-path="url(#clip070)" d="M1257.04 1544.91 L1273.36 1544.91 L1273.36 1548.85 L1251.41 1548.85 L1251.41 1544.91 Q1254.08 1542.16 1258.66 1537.53 Q1263.26 1532.88 1264.45 1531.53 Q1266.69 1529.01 1267.57 1527.27 Q1268.47 1525.51 1268.47 1523.82 Q1268.47 1521.07 1266.53 1519.33 Q1264.61 1517.6 1261.51 1517.6 Q1259.31 1517.6 1256.85 1518.36 Q1254.42 1519.13 1251.64 1520.68 L1251.64 1515.95 Q1254.47 1514.82 1256.92 1514.24 Q1259.38 1513.66 1261.41 1513.66 Q1266.78 1513.66 1269.98 1516.35 Q1273.17 1519.03 1273.17 1523.52 Q1273.17 1525.65 1272.36 1527.57 Q1271.58 1529.47 1269.47 1532.07 Q1268.89 1532.74 1265.79 1535.95 Q1262.69 1539.15 1257.04 1544.91 Z" fill="#000000" fill-rule="nonzero" fill-opacity="1" /><path clip-path="url(#clip070)" d="M1750.61 1518.36 L1738.8 1536.81 L1750.61 1536.81 L1750.61 1518.36 M1749.38 1514.29 L1755.26 1514.29 L1755.26 1536.81 L1760.19 1536.81 L1760.19 1540.7 L1755.26 1540.7 L1755.26 1548.85 L1750.61 1548.85 L1750.61 1540.7 L1735.01 1540.7 L1735.01 1536.19 L1749.38 1514.29 Z" fill="#000000" fill-rule="nonzero" fill-opacity="1" /><path clip-path="url(#clip070)" d="M2233.22 1529.7 Q2230.07 1529.7 2228.22 1531.86 Q2226.39 1534.01 2226.39 1537.76 Q2226.39 1541.49 2228.22 1543.66 Q2230.07 1545.82 2233.22 1545.82 Q2236.36 1545.82 2238.19 1543.66 Q2240.05 1541.49 2240.05 1537.76 Q2240.05 1534.01 2238.19 1531.86 Q2236.36 1529.7 2233.22 1529.7 M2242.5 1515.05 L2242.5 1519.31 Q2240.74 1518.48 2238.93 1518.04 Q2237.15 1517.6 2235.39 1517.6 Q2230.76 1517.6 2228.31 1520.72 Q2225.88 1523.85 2225.53 1530.17 Q2226.9 1528.15 2228.96 1527.09 Q2231.02 1526 2233.49 1526 Q2238.7 1526 2241.71 1529.17 Q2244.74 1532.32 2244.74 1537.76 Q2244.74 1543.08 2241.6 1546.3 Q2238.45 1549.52 2233.22 1549.52 Q2227.22 1549.52 2224.05 1544.94 Q2220.88 1540.33 2220.88 1531.6 Q2220.88 1523.41 2224.77 1518.55 Q2228.66 1513.66 2235.21 1513.66 Q2236.97 1513.66 2238.75 1514.01 Q2240.55 1514.36 2242.5 1515.05 Z" fill="#000000" fill-rule="nonzero" fill-opacity="1" /><polyline clip-path="url(#clip070)" style="stroke:#000000; stroke-linecap:round; stroke-linejoin:round; stroke-width:4; stroke-opacity:1; fill:none" points="172.015,1486.45 172.015,47.2441 "/>
<polyline clip-path="url(#clip070)" style="stroke:#000000; stroke-linecap:round; stroke-linejoin:round; stroke-width:4; stroke-opacity:1; fill:none" points="172.015,1486.45 190.912,1486.45 "/>
<polyline clip-path="url(#clip070)" style="stroke:#000000; stroke-linecap:round; stroke-linejoin:round; stroke-width:4; stroke-opacity:1; fill:none" points="172.015,1140.49 190.912,1140.49 "/>
<polyline clip-path="url(#clip070)" style="stroke:#000000; stroke-linecap:round; stroke-linejoin:round; stroke-width:4; stroke-opacity:1; fill:none" points="172.015,794.523 190.912,794.523 "/>
<polyline clip-path="url(#clip070)" style="stroke:#000000; stroke-linecap:round; stroke-linejoin:round; stroke-width:4; stroke-opacity:1; fill:none" points="172.015,448.561 190.912,448.561 "/>
<polyline clip-path="url(#clip070)" style="stroke:#000000; stroke-linecap:round; stroke-linejoin:round; stroke-width:4; stroke-opacity:1; fill:none" points="172.015,102.598 190.912,102.598 "/>
<path clip-path="url(#clip070)" d="M124.07 1472.25 Q120.459 1472.25 118.631 1475.81 Q116.825 1479.35 116.825 1486.48 Q116.825 1493.59 118.631 1497.15 Q120.459 1500.7 124.07 1500.7 Q127.705 1500.7 129.51 1497.15 Q131.339 1493.59 131.339 1486.48 Q131.339 1479.35 129.51 1475.81 Q127.705 1472.25 124.07 1472.25 M124.07 1468.54 Q129.881 1468.54 132.936 1473.15 Q136.015 1477.73 136.015 1486.48 Q136.015 1495.21 132.936 1499.82 Q129.881 1504.4 124.07 1504.4 Q118.26 1504.4 115.182 1499.82 Q112.126 1495.21 112.126 1486.48 Q112.126 1477.73 115.182 1473.15 Q118.26 1468.54 124.07 1468.54 Z" fill="#000000" fill-rule="nonzero" fill-opacity="1" /><path clip-path="url(#clip070)" d="M57.7745 1153.83 L74.0939 1153.83 L74.0939 1157.77 L52.1495 1157.77 L52.1495 1153.83 Q54.8115 1151.08 59.3949 1146.45 Q64.0013 1141.79 65.1819 1140.45 Q67.4272 1137.93 68.3068 1136.19 Q69.2096 1134.43 69.2096 1132.74 Q69.2096 1129.99 67.2652 1128.25 Q65.3439 1126.52 62.2421 1126.52 Q60.043 1126.52 57.5893 1127.28 Q55.1588 1128.04 52.381 1129.59 L52.381 1124.87 Q55.2051 1123.74 57.6588 1123.16 Q60.1124 1122.58 62.1495 1122.58 Q67.5198 1122.58 70.7142 1125.27 Q73.9087 1127.95 73.9087 1132.44 Q73.9087 1134.57 73.0985 1136.49 Q72.3115 1138.39 70.205 1140.98 Q69.6263 1141.65 66.5245 1144.87 Q63.4226 1148.07 57.7745 1153.83 Z" fill="#000000" fill-rule="nonzero" fill-opacity="1" /><path clip-path="url(#clip070)" d="M93.9086 1126.28 Q90.2975 1126.28 88.4688 1129.85 Q86.6632 1133.39 86.6632 1140.52 Q86.6632 1147.63 88.4688 1151.19 Q90.2975 1154.73 93.9086 1154.73 Q97.5428 1154.73 99.3483 1151.19 Q101.177 1147.63 101.177 1140.52 Q101.177 1133.39 99.3483 1129.85 Q97.5428 1126.28 93.9086 1126.28 M93.9086 1122.58 Q99.7187 1122.58 102.774 1127.19 Q105.853 1131.77 105.853 1140.52 Q105.853 1149.25 102.774 1153.85 Q99.7187 1158.44 93.9086 1158.44 Q88.0984 1158.44 85.0197 1153.85 Q81.9642 1149.25 81.9642 1140.52 Q81.9642 1131.77 85.0197 1127.19 Q88.0984 1122.58 93.9086 1122.58 Z" fill="#000000" fill-rule="nonzero" fill-opacity="1" /><path clip-path="url(#clip070)" d="M124.07 1126.28 Q120.459 1126.28 118.631 1129.85 Q116.825 1133.39 116.825 1140.52 Q116.825 1147.63 118.631 1151.19 Q120.459 1154.73 124.07 1154.73 Q127.705 1154.73 129.51 1151.19 Q131.339 1147.63 131.339 1140.52 Q131.339 1133.39 129.51 1129.85 Q127.705 1126.28 124.07 1126.28 M124.07 1122.58 Q129.881 1122.58 132.936 1127.19 Q136.015 1131.77 136.015 1140.52 Q136.015 1149.25 132.936 1153.85 Q129.881 1158.44 124.07 1158.44 Q118.26 1158.44 115.182 1153.85 Q112.126 1149.25 112.126 1140.52 Q112.126 1131.77 115.182 1127.19 Q118.26 1122.58 124.07 1122.58 Z" fill="#000000" fill-rule="nonzero" fill-opacity="1" /><path clip-path="url(#clip070)" d="M66.5939 781.317 L54.7884 799.766 L66.5939 799.766 L66.5939 781.317 M65.367 777.243 L71.2466 777.243 L71.2466 799.766 L76.1772 799.766 L76.1772 803.655 L71.2466 803.655 L71.2466 811.803 L66.5939 811.803 L66.5939 803.655 L50.9921 803.655 L50.9921 799.141 L65.367 777.243 Z" fill="#000000" fill-rule="nonzero" fill-opacity="1" /><path clip-path="url(#clip070)" d="M93.9086 780.322 Q90.2975 780.322 88.4688 783.886 Q86.6632 787.428 86.6632 794.558 Q86.6632 801.664 88.4688 805.229 Q90.2975 808.771 93.9086 808.771 Q97.5428 808.771 99.3483 805.229 Q101.177 801.664 101.177 794.558 Q101.177 787.428 99.3483 783.886 Q97.5428 780.322 93.9086 780.322 M93.9086 776.618 Q99.7187 776.618 102.774 781.224 Q105.853 785.808 105.853 794.558 Q105.853 803.285 102.774 807.891 Q99.7187 812.474 93.9086 812.474 Q88.0984 812.474 85.0197 807.891 Q81.9642 803.285 81.9642 794.558 Q81.9642 785.808 85.0197 781.224 Q88.0984 776.618 93.9086 776.618 Z" fill="#000000" fill-rule="nonzero" fill-opacity="1" /><path clip-path="url(#clip070)" d="M124.07 780.322 Q120.459 780.322 118.631 783.886 Q116.825 787.428 116.825 794.558 Q116.825 801.664 118.631 805.229 Q120.459 808.771 124.07 808.771 Q127.705 808.771 129.51 805.229 Q131.339 801.664 131.339 794.558 Q131.339 787.428 129.51 783.886 Q127.705 780.322 124.07 780.322 M124.07 776.618 Q129.881 776.618 132.936 781.224 Q136.015 785.808 136.015 794.558 Q136.015 803.285 132.936 807.891 Q129.881 812.474 124.07 812.474 Q118.26 812.474 115.182 807.891 Q112.126 803.285 112.126 794.558 Q112.126 785.808 115.182 781.224 Q118.26 776.618 124.07 776.618 Z" fill="#000000" fill-rule="nonzero" fill-opacity="1" /><path clip-path="url(#clip070)" d="M64.3254 446.697 Q61.1773 446.697 59.3254 448.85 Q57.4967 451.003 57.4967 454.753 Q57.4967 458.479 59.3254 460.655 Q61.1773 462.808 64.3254 462.808 Q67.4735 462.808 69.3022 460.655 Q71.1541 458.479 71.1541 454.753 Q71.1541 451.003 69.3022 448.85 Q67.4735 446.697 64.3254 446.697 M73.6077 432.044 L73.6077 436.304 Q71.8485 435.47 70.0429 435.031 Q68.2606 434.591 66.5013 434.591 Q61.8717 434.591 59.418 437.716 Q56.9875 440.841 56.6402 447.16 Q58.006 445.146 60.0662 444.081 Q62.1263 442.993 64.6032 442.993 Q69.8115 442.993 72.8207 446.165 Q75.8531 449.313 75.8531 454.753 Q75.8531 460.077 72.705 463.294 Q69.5568 466.512 64.3254 466.512 Q58.33 466.512 55.1588 461.929 Q51.9875 457.322 51.9875 448.595 Q51.9875 440.401 55.8764 435.54 Q59.7652 430.656 66.3161 430.656 Q68.0754 430.656 69.8578 431.003 Q71.6633 431.35 73.6077 432.044 Z" fill="#000000" fill-rule="nonzero" fill-opacity="1" /><path clip-path="url(#clip070)" d="M93.9086 434.359 Q90.2975 434.359 88.4688 437.924 Q86.6632 441.466 86.6632 448.595 Q86.6632 455.702 88.4688 459.266 Q90.2975 462.808 93.9086 462.808 Q97.5428 462.808 99.3483 459.266 Q101.177 455.702 101.177 448.595 Q101.177 441.466 99.3483 437.924 Q97.5428 434.359 93.9086 434.359 M93.9086 430.656 Q99.7187 430.656 102.774 435.262 Q105.853 439.845 105.853 448.595 Q105.853 457.322 102.774 461.929 Q99.7187 466.512 93.9086 466.512 Q88.0984 466.512 85.0197 461.929 Q81.9642 457.322 81.9642 448.595 Q81.9642 439.845 85.0197 435.262 Q88.0984 430.656 93.9086 430.656 Z" fill="#000000" fill-rule="nonzero" fill-opacity="1" /><path clip-path="url(#clip070)" d="M124.07 434.359 Q120.459 434.359 118.631 437.924 Q116.825 441.466 116.825 448.595 Q116.825 455.702 118.631 459.266 Q120.459 462.808 124.07 462.808 Q127.705 462.808 129.51 459.266 Q131.339 455.702 131.339 448.595 Q131.339 441.466 129.51 437.924 Q127.705 434.359 124.07 434.359 M124.07 430.656 Q129.881 430.656 132.936 435.262 Q136.015 439.845 136.015 448.595 Q136.015 457.322 132.936 461.929 Q129.881 466.512 124.07 466.512 Q118.26 466.512 115.182 461.929 Q112.126 457.322 112.126 448.595 Q112.126 439.845 115.182 435.262 Q118.26 430.656 124.07 430.656 Z" fill="#000000" fill-rule="nonzero" fill-opacity="1" /><path clip-path="url(#clip070)" d="M63.7467 103.466 Q60.4134 103.466 58.4921 105.249 Q56.5939 107.031 56.5939 110.156 Q56.5939 113.281 58.4921 115.063 Q60.4134 116.846 63.7467 116.846 Q67.08 116.846 69.0013 115.063 Q70.9226 113.258 70.9226 110.156 Q70.9226 107.031 69.0013 105.249 Q67.1032 103.466 63.7467 103.466 M59.0708 101.475 Q56.0615 100.735 54.3717 98.6745 Q52.7051 96.6143 52.7051 93.6514 Q52.7051 89.5079 55.6449 87.1005 Q58.6078 84.6931 63.7467 84.6931 Q68.9087 84.6931 71.8485 87.1005 Q74.7883 89.5079 74.7883 93.6514 Q74.7883 96.6143 73.0985 98.6745 Q71.4318 100.735 68.4457 101.475 Q71.8253 102.262 73.7003 104.554 Q75.5985 106.846 75.5985 110.156 Q75.5985 115.179 72.5198 117.864 Q69.4642 120.549 63.7467 120.549 Q58.0291 120.549 54.9504 117.864 Q51.8949 115.179 51.8949 110.156 Q51.8949 106.846 53.793 104.554 Q55.6912 102.262 59.0708 101.475 M57.3578 94.0912 Q57.3578 96.7764 59.0245 98.281 Q60.7143 99.7856 63.7467 99.7856 Q66.7559 99.7856 68.4457 98.281 Q70.1587 96.7764 70.1587 94.0912 Q70.1587 91.406 68.4457 89.9014 Q66.7559 88.3968 63.7467 88.3968 Q60.7143 88.3968 59.0245 89.9014 Q57.3578 91.406 57.3578 94.0912 Z" fill="#000000" fill-rule="nonzero" fill-opacity="1" /><path clip-path="url(#clip070)" d="M93.9086 88.3968 Q90.2975 88.3968 88.4688 91.9616 Q86.6632 95.5032 86.6632 102.633 Q86.6632 109.739 88.4688 113.304 Q90.2975 116.846 93.9086 116.846 Q97.5428 116.846 99.3483 113.304 Q101.177 109.739 101.177 102.633 Q101.177 95.5032 99.3483 91.9616 Q97.5428 88.3968 93.9086 88.3968 M93.9086 84.6931 Q99.7187 84.6931 102.774 89.2995 Q105.853 93.8829 105.853 102.633 Q105.853 111.36 102.774 115.966 Q99.7187 120.549 93.9086 120.549 Q88.0984 120.549 85.0197 115.966 Q81.9642 111.36 81.9642 102.633 Q81.9642 93.8829 85.0197 89.2995 Q88.0984 84.6931 93.9086 84.6931 Z" fill="#000000" fill-rule="nonzero" fill-opacity="1" /><path clip-path="url(#clip070)" d="M124.07 88.3968 Q120.459 88.3968 118.631 91.9616 Q116.825 95.5032 116.825 102.633 Q116.825 109.739 118.631 113.304 Q120.459 116.846 124.07 116.846 Q127.705 116.846 129.51 113.304 Q131.339 109.739 131.339 102.633 Q131.339 95.5032 129.51 91.9616 Q127.705 88.3968 124.07 88.3968 M124.07 84.6931 Q129.881 84.6931 132.936 89.2995 Q136.015 93.8829 136.015 102.633 Q136.015 111.36 132.936 115.966 Q129.881 120.549 124.07 120.549 Q118.26 120.549 115.182 115.966 Q112.126 111.36 112.126 102.633 Q112.126 93.8829 115.182 89.2995 Q118.26 84.6931 124.07 84.6931 Z" fill="#000000" fill-rule="nonzero" fill-opacity="1" /><path clip-path="url(#clip072)" d="M291.959 1484.72 L291.959 1486.45 L340.481 1486.45 L340.481 1484.72 L291.959 1484.72 L291.959 1484.72  Z" fill="#009af9" fill-rule="evenodd" fill-opacity="1"/>
<polyline clip-path="url(#clip072)" style="stroke:#000000; stroke-linecap:round; stroke-linejoin:round; stroke-width:4; stroke-opacity:1; fill:none" points="291.959,1484.72 291.959,1486.45 340.481,1486.45 340.481,1484.72 291.959,1484.72 "/>
<path clip-path="url(#clip072)" d="M340.481 1484.72 L340.481 1486.45 L389.002 1486.45 L389.002 1484.72 L340.481 1484.72 L340.481 1484.72  Z" fill="#009af9" fill-rule="evenodd" fill-opacity="1"/>
<polyline clip-path="url(#clip072)" style="stroke:#000000; stroke-linecap:round; stroke-linejoin:round; stroke-width:4; stroke-opacity:1; fill:none" points="340.481,1484.72 340.481,1486.45 389.002,1486.45 389.002,1484.72 340.481,1484.72 "/>
<path clip-path="url(#clip072)" d="M389.002 1482.99 L389.002 1486.45 L437.523 1486.45 L437.523 1482.99 L389.002 1482.99 L389.002 1482.99  Z" fill="#009af9" fill-rule="evenodd" fill-opacity="1"/>
<polyline clip-path="url(#clip072)" style="stroke:#000000; stroke-linecap:round; stroke-linejoin:round; stroke-width:4; stroke-opacity:1; fill:none" points="389.002,1482.99 389.002,1486.45 437.523,1486.45 437.523,1482.99 389.002,1482.99 "/>
<path clip-path="url(#clip072)" d="M437.523 1477.8 L437.523 1486.45 L486.045 1486.45 L486.045 1477.8 L437.523 1477.8 L437.523 1477.8  Z" fill="#009af9" fill-rule="evenodd" fill-opacity="1"/>
<polyline clip-path="url(#clip072)" style="stroke:#000000; stroke-linecap:round; stroke-linejoin:round; stroke-width:4; stroke-opacity:1; fill:none" points="437.523,1477.8 437.523,1486.45 486.045,1486.45 486.045,1477.8 437.523,1477.8 "/>
<path clip-path="url(#clip072)" d="M486.045 1470.88 L486.045 1486.45 L534.566 1486.45 L534.566 1470.88 L486.045 1470.88 L486.045 1470.88  Z" fill="#009af9" fill-rule="evenodd" fill-opacity="1"/>
<polyline clip-path="url(#clip072)" style="stroke:#000000; stroke-linecap:round; stroke-linejoin:round; stroke-width:4; stroke-opacity:1; fill:none" points="486.045,1470.88 486.045,1486.45 534.566,1486.45 534.566,1470.88 486.045,1470.88 "/>
<path clip-path="url(#clip072)" d="M534.566 1474.34 L534.566 1486.45 L583.087 1486.45 L583.087 1474.34 L534.566 1474.34 L534.566 1474.34  Z" fill="#009af9" fill-rule="evenodd" fill-opacity="1"/>
<polyline clip-path="url(#clip072)" style="stroke:#000000; stroke-linecap:round; stroke-linejoin:round; stroke-width:4; stroke-opacity:1; fill:none" points="534.566,1474.34 534.566,1486.45 583.087,1486.45 583.087,1474.34 534.566,1474.34 "/>
<path clip-path="url(#clip072)" d="M583.087 1453.58 L583.087 1486.45 L631.609 1486.45 L631.609 1453.58 L583.087 1453.58 L583.087 1453.58  Z" fill="#009af9" fill-rule="evenodd" fill-opacity="1"/>
<polyline clip-path="url(#clip072)" style="stroke:#000000; stroke-linecap:round; stroke-linejoin:round; stroke-width:4; stroke-opacity:1; fill:none" points="583.087,1453.58 583.087,1486.45 631.609,1486.45 631.609,1453.58 583.087,1453.58 "/>
<path clip-path="url(#clip072)" d="M631.609 1432.82 L631.609 1486.45 L680.13 1486.45 L680.13 1432.82 L631.609 1432.82 L631.609 1432.82  Z" fill="#009af9" fill-rule="evenodd" fill-opacity="1"/>
<polyline clip-path="url(#clip072)" style="stroke:#000000; stroke-linecap:round; stroke-linejoin:round; stroke-width:4; stroke-opacity:1; fill:none" points="631.609,1432.82 631.609,1486.45 680.13,1486.45 680.13,1432.82 631.609,1432.82 "/>
<path clip-path="url(#clip072)" d="M680.13 1399.96 L680.13 1486.45 L728.651 1486.45 L728.651 1399.96 L680.13 1399.96 L680.13 1399.96  Z" fill="#009af9" fill-rule="evenodd" fill-opacity="1"/>
<polyline clip-path="url(#clip072)" style="stroke:#000000; stroke-linecap:round; stroke-linejoin:round; stroke-width:4; stroke-opacity:1; fill:none" points="680.13,1399.96 680.13,1486.45 728.651,1486.45 728.651,1399.96 680.13,1399.96 "/>
<path clip-path="url(#clip072)" d="M728.651 1297.9 L728.651 1486.45 L777.172 1486.45 L777.172 1297.9 L728.651 1297.9 L728.651 1297.9  Z" fill="#009af9" fill-rule="evenodd" fill-opacity="1"/>
<polyline clip-path="url(#clip072)" style="stroke:#000000; stroke-linecap:round; stroke-linejoin:round; stroke-width:4; stroke-opacity:1; fill:none" points="728.651,1297.9 728.651,1486.45 777.172,1486.45 777.172,1297.9 728.651,1297.9 "/>
<path clip-path="url(#clip072)" d="M777.172 1239.08 L777.172 1486.45 L825.694 1486.45 L825.694 1239.08 L777.172 1239.08 L777.172 1239.08  Z" fill="#009af9" fill-rule="evenodd" fill-opacity="1"/>
<polyline clip-path="url(#clip072)" style="stroke:#000000; stroke-linecap:round; stroke-linejoin:round; stroke-width:4; stroke-opacity:1; fill:none" points="777.172,1239.08 777.172,1486.45 825.694,1486.45 825.694,1239.08 777.172,1239.08 "/>
<path clip-path="url(#clip072)" d="M825.694 1166.43 L825.694 1486.45 L874.215 1486.45 L874.215 1166.43 L825.694 1166.43 L825.694 1166.43  Z" fill="#009af9" fill-rule="evenodd" fill-opacity="1"/>
<polyline clip-path="url(#clip072)" style="stroke:#000000; stroke-linecap:round; stroke-linejoin:round; stroke-width:4; stroke-opacity:1; fill:none" points="825.694,1166.43 825.694,1486.45 874.215,1486.45 874.215,1166.43 825.694,1166.43 "/>
<path clip-path="url(#clip072)" d="M874.215 1022.86 L874.215 1486.45 L922.736 1486.45 L922.736 1022.86 L874.215 1022.86 L874.215 1022.86  Z" fill="#009af9" fill-rule="evenodd" fill-opacity="1"/>
<polyline clip-path="url(#clip072)" style="stroke:#000000; stroke-linecap:round; stroke-linejoin:round; stroke-width:4; stroke-opacity:1; fill:none" points="874.215,1022.86 874.215,1486.45 922.736,1486.45 922.736,1022.86 874.215,1022.86 "/>
<path clip-path="url(#clip072)" d="M922.736 951.936 L922.736 1486.45 L971.258 1486.45 L971.258 951.936 L922.736 951.936 L922.736 951.936  Z" fill="#009af9" fill-rule="evenodd" fill-opacity="1"/>
<polyline clip-path="url(#clip072)" style="stroke:#000000; stroke-linecap:round; stroke-linejoin:round; stroke-width:4; stroke-opacity:1; fill:none" points="922.736,951.936 922.736,1486.45 971.258,1486.45 971.258,951.936 922.736,951.936 "/>
<path clip-path="url(#clip072)" d="M971.258 702.843 L971.258 1486.45 L1019.78 1486.45 L1019.78 702.843 L971.258 702.843 L971.258 702.843  Z" fill="#009af9" fill-rule="evenodd" fill-opacity="1"/>
<polyline clip-path="url(#clip072)" style="stroke:#000000; stroke-linecap:round; stroke-linejoin:round; stroke-width:4; stroke-opacity:1; fill:none" points="971.258,702.843 971.258,1486.45 1019.78,1486.45 1019.78,702.843 971.258,702.843 "/>
<path clip-path="url(#clip072)" d="M1019.78 533.321 L1019.78 1486.45 L1068.3 1486.45 L1068.3 533.321 L1019.78 533.321 L1019.78 533.321  Z" fill="#009af9" fill-rule="evenodd" fill-opacity="1"/>
<polyline clip-path="url(#clip072)" style="stroke:#000000; stroke-linecap:round; stroke-linejoin:round; stroke-width:4; stroke-opacity:1; fill:none" points="1019.78,533.321 1019.78,1486.45 1068.3,1486.45 1068.3,533.321 1019.78,533.321 "/>
<path clip-path="url(#clip072)" d="M1068.3 434.722 L1068.3 1486.45 L1116.82 1486.45 L1116.82 434.722 L1068.3 434.722 L1068.3 434.722  Z" fill="#009af9" fill-rule="evenodd" fill-opacity="1"/>
<polyline clip-path="url(#clip072)" style="stroke:#000000; stroke-linecap:round; stroke-linejoin:round; stroke-width:4; stroke-opacity:1; fill:none" points="1068.3,434.722 1068.3,1486.45 1116.82,1486.45 1116.82,434.722 1068.3,434.722 "/>
<path clip-path="url(#clip072)" d="M1116.82 353.421 L1116.82 1486.45 L1165.34 1486.45 L1165.34 353.421 L1116.82 353.421 L1116.82 353.421  Z" fill="#009af9" fill-rule="evenodd" fill-opacity="1"/>
<polyline clip-path="url(#clip072)" style="stroke:#000000; stroke-linecap:round; stroke-linejoin:round; stroke-width:4; stroke-opacity:1; fill:none" points="1116.82,353.421 1116.82,1486.45 1165.34,1486.45 1165.34,353.421 1116.82,353.421 "/>
<path clip-path="url(#clip072)" d="M1165.34 145.843 L1165.34 1486.45 L1213.86 1486.45 L1213.86 145.843 L1165.34 145.843 L1165.34 145.843  Z" fill="#009af9" fill-rule="evenodd" fill-opacity="1"/>
<polyline clip-path="url(#clip072)" style="stroke:#000000; stroke-linecap:round; stroke-linejoin:round; stroke-width:4; stroke-opacity:1; fill:none" points="1165.34,145.843 1165.34,1486.45 1213.86,1486.45 1213.86,145.843 1165.34,145.843 "/>
<path clip-path="url(#clip072)" d="M1213.86 114.707 L1213.86 1486.45 L1262.39 1486.45 L1262.39 114.707 L1213.86 114.707 L1213.86 114.707  Z" fill="#009af9" fill-rule="evenodd" fill-opacity="1"/>
<polyline clip-path="url(#clip072)" style="stroke:#000000; stroke-linecap:round; stroke-linejoin:round; stroke-width:4; stroke-opacity:1; fill:none" points="1213.86,114.707 1213.86,1486.45 1262.39,1486.45 1262.39,114.707 1213.86,114.707 "/>
<path clip-path="url(#clip072)" d="M1262.39 47.2441 L1262.39 1486.45 L1310.91 1486.45 L1310.91 47.2441 L1262.39 47.2441 L1262.39 47.2441  Z" fill="#009af9" fill-rule="evenodd" fill-opacity="1"/>
<polyline clip-path="url(#clip072)" style="stroke:#000000; stroke-linecap:round; stroke-linejoin:round; stroke-width:4; stroke-opacity:1; fill:none" points="1262.39,47.2441 1262.39,1486.45 1310.91,1486.45 1310.91,47.2441 1262.39,47.2441 "/>
<path clip-path="url(#clip072)" d="M1310.91 164.871 L1310.91 1486.45 L1359.43 1486.45 L1359.43 164.871 L1310.91 164.871 L1310.91 164.871  Z" fill="#009af9" fill-rule="evenodd" fill-opacity="1"/>
<polyline clip-path="url(#clip072)" style="stroke:#000000; stroke-linecap:round; stroke-linejoin:round; stroke-width:4; stroke-opacity:1; fill:none" points="1310.91,164.871 1310.91,1486.45 1359.43,1486.45 1359.43,164.871 1310.91,164.871 "/>
<path clip-path="url(#clip072)" d="M1359.43 247.902 L1359.43 1486.45 L1407.95 1486.45 L1407.95 247.902 L1359.43 247.902 L1359.43 247.902  Z" fill="#009af9" fill-rule="evenodd" fill-opacity="1"/>
<polyline clip-path="url(#clip072)" style="stroke:#000000; stroke-linecap:round; stroke-linejoin:round; stroke-width:4; stroke-opacity:1; fill:none" points="1359.43,247.902 1359.43,1486.45 1407.95,1486.45 1407.95,247.902 1359.43,247.902 "/>
<path clip-path="url(#clip072)" d="M1407.95 453.75 L1407.95 1486.45 L1456.47 1486.45 L1456.47 453.75 L1407.95 453.75 L1407.95 453.75  Z" fill="#009af9" fill-rule="evenodd" fill-opacity="1"/>
<polyline clip-path="url(#clip072)" style="stroke:#000000; stroke-linecap:round; stroke-linejoin:round; stroke-width:4; stroke-opacity:1; fill:none" points="1407.95,453.75 1407.95,1486.45 1456.47,1486.45 1456.47,453.75 1407.95,453.75 "/>
<path clip-path="url(#clip072)" d="M1456.47 590.405 L1456.47 1486.45 L1504.99 1486.45 L1504.99 590.405 L1456.47 590.405 L1456.47 590.405  Z" fill="#009af9" fill-rule="evenodd" fill-opacity="1"/>
<polyline clip-path="url(#clip072)" style="stroke:#000000; stroke-linecap:round; stroke-linejoin:round; stroke-width:4; stroke-opacity:1; fill:none" points="1456.47,590.405 1456.47,1486.45 1504.99,1486.45 1504.99,590.405 1456.47,590.405 "/>
<path clip-path="url(#clip072)" d="M1504.99 804.902 L1504.99 1486.45 L1553.51 1486.45 L1553.51 804.902 L1504.99 804.902 L1504.99 804.902  Z" fill="#009af9" fill-rule="evenodd" fill-opacity="1"/>
<polyline clip-path="url(#clip072)" style="stroke:#000000; stroke-linecap:round; stroke-linejoin:round; stroke-width:4; stroke-opacity:1; fill:none" points="1504.99,804.902 1504.99,1486.45 1553.51,1486.45 1553.51,804.902 1504.99,804.902 "/>
<path clip-path="url(#clip072)" d="M1553.51 848.147 L1553.51 1486.45 L1602.03 1486.45 L1602.03 848.147 L1553.51 848.147 L1553.51 848.147  Z" fill="#009af9" fill-rule="evenodd" fill-opacity="1"/>
<polyline clip-path="url(#clip072)" style="stroke:#000000; stroke-linecap:round; stroke-linejoin:round; stroke-width:4; stroke-opacity:1; fill:none" points="1553.51,848.147 1553.51,1486.45 1602.03,1486.45 1602.03,848.147 1553.51,848.147 "/>
<path clip-path="url(#clip072)" d="M1602.03 1062.64 L1602.03 1486.45 L1650.56 1486.45 L1650.56 1062.64 L1602.03 1062.64 L1602.03 1062.64  Z" fill="#009af9" fill-rule="evenodd" fill-opacity="1"/>
<polyline clip-path="url(#clip072)" style="stroke:#000000; stroke-linecap:round; stroke-linejoin:round; stroke-width:4; stroke-opacity:1; fill:none" points="1602.03,1062.64 1602.03,1486.45 1650.56,1486.45 1650.56,1062.64 1602.03,1062.64 "/>
<path clip-path="url(#clip072)" d="M1650.56 1168.16 L1650.56 1486.45 L1699.08 1486.45 L1699.08 1168.16 L1650.56 1168.16 L1650.56 1168.16  Z" fill="#009af9" fill-rule="evenodd" fill-opacity="1"/>
<polyline clip-path="url(#clip072)" style="stroke:#000000; stroke-linecap:round; stroke-linejoin:round; stroke-width:4; stroke-opacity:1; fill:none" points="1650.56,1168.16 1650.56,1486.45 1699.08,1486.45 1699.08,1168.16 1650.56,1168.16 "/>
<path clip-path="url(#clip072)" d="M1699.08 1239.08 L1699.08 1486.45 L1747.6 1486.45 L1747.6 1239.08 L1699.08 1239.08 L1699.08 1239.08  Z" fill="#009af9" fill-rule="evenodd" fill-opacity="1"/>
<polyline clip-path="url(#clip072)" style="stroke:#000000; stroke-linecap:round; stroke-linejoin:round; stroke-width:4; stroke-opacity:1; fill:none" points="1699.08,1239.08 1699.08,1486.45 1747.6,1486.45 1747.6,1239.08 1699.08,1239.08 "/>
<path clip-path="url(#clip072)" d="M1747.6 1320.39 L1747.6 1486.45 L1796.12 1486.45 L1796.12 1320.39 L1747.6 1320.39 L1747.6 1320.39  Z" fill="#009af9" fill-rule="evenodd" fill-opacity="1"/>
<polyline clip-path="url(#clip072)" style="stroke:#000000; stroke-linecap:round; stroke-linejoin:round; stroke-width:4; stroke-opacity:1; fill:none" points="1747.6,1320.39 1747.6,1486.45 1796.12,1486.45 1796.12,1320.39 1747.6,1320.39 "/>
<path clip-path="url(#clip072)" d="M1796.12 1377.47 L1796.12 1486.45 L1844.64 1486.45 L1844.64 1377.47 L1796.12 1377.47 L1796.12 1377.47  Z" fill="#009af9" fill-rule="evenodd" fill-opacity="1"/>
<polyline clip-path="url(#clip072)" style="stroke:#000000; stroke-linecap:round; stroke-linejoin:round; stroke-width:4; stroke-opacity:1; fill:none" points="1796.12,1377.47 1796.12,1486.45 1844.64,1486.45 1844.64,1377.47 1796.12,1377.47 "/>
<path clip-path="url(#clip072)" d="M1844.64 1415.53 L1844.64 1486.45 L1893.16 1486.45 L1893.16 1415.53 L1844.64 1415.53 L1844.64 1415.53  Z" fill="#009af9" fill-rule="evenodd" fill-opacity="1"/>
<polyline clip-path="url(#clip072)" style="stroke:#000000; stroke-linecap:round; stroke-linejoin:round; stroke-width:4; stroke-opacity:1; fill:none" points="1844.64,1415.53 1844.64,1486.45 1893.16,1486.45 1893.16,1415.53 1844.64,1415.53 "/>
<path clip-path="url(#clip072)" d="M1893.16 1450.12 L1893.16 1486.45 L1941.68 1486.45 L1941.68 1450.12 L1893.16 1450.12 L1893.16 1450.12  Z" fill="#009af9" fill-rule="evenodd" fill-opacity="1"/>
<polyline clip-path="url(#clip072)" style="stroke:#000000; stroke-linecap:round; stroke-linejoin:round; stroke-width:4; stroke-opacity:1; fill:none" points="1893.16,1450.12 1893.16,1486.45 1941.68,1486.45 1941.68,1450.12 1893.16,1450.12 "/>
<path clip-path="url(#clip072)" d="M1941.68 1451.85 L1941.68 1486.45 L1990.2 1486.45 L1990.2 1451.85 L1941.68 1451.85 L1941.68 1451.85  Z" fill="#009af9" fill-rule="evenodd" fill-opacity="1"/>
<polyline clip-path="url(#clip072)" style="stroke:#000000; stroke-linecap:round; stroke-linejoin:round; stroke-width:4; stroke-opacity:1; fill:none" points="1941.68,1451.85 1941.68,1486.45 1990.2,1486.45 1990.2,1451.85 1941.68,1451.85 "/>
<path clip-path="url(#clip072)" d="M1990.2 1463.96 L1990.2 1486.45 L2038.73 1486.45 L2038.73 1463.96 L1990.2 1463.96 L1990.2 1463.96  Z" fill="#009af9" fill-rule="evenodd" fill-opacity="1"/>
<polyline clip-path="url(#clip072)" style="stroke:#000000; stroke-linecap:round; stroke-linejoin:round; stroke-width:4; stroke-opacity:1; fill:none" points="1990.2,1463.96 1990.2,1486.45 2038.73,1486.45 2038.73,1463.96 1990.2,1463.96 "/>
<path clip-path="url(#clip072)" d="M2038.73 1481.26 L2038.73 1486.45 L2087.25 1486.45 L2087.25 1481.26 L2038.73 1481.26 L2038.73 1481.26  Z" fill="#009af9" fill-rule="evenodd" fill-opacity="1"/>
<polyline clip-path="url(#clip072)" style="stroke:#000000; stroke-linecap:round; stroke-linejoin:round; stroke-width:4; stroke-opacity:1; fill:none" points="2038.73,1481.26 2038.73,1486.45 2087.25,1486.45 2087.25,1481.26 2038.73,1481.26 "/>
<path clip-path="url(#clip072)" d="M2087.25 1479.53 L2087.25 1486.45 L2135.77 1486.45 L2135.77 1479.53 L2087.25 1479.53 L2087.25 1479.53  Z" fill="#009af9" fill-rule="evenodd" fill-opacity="1"/>
<polyline clip-path="url(#clip072)" style="stroke:#000000; stroke-linecap:round; stroke-linejoin:round; stroke-width:4; stroke-opacity:1; fill:none" points="2087.25,1479.53 2087.25,1486.45 2135.77,1486.45 2135.77,1479.53 2087.25,1479.53 "/>
<path clip-path="url(#clip072)" d="M2135.77 1482.99 L2135.77 1486.45 L2184.29 1486.45 L2184.29 1482.99 L2135.77 1482.99 L2135.77 1482.99  Z" fill="#009af9" fill-rule="evenodd" fill-opacity="1"/>
<polyline clip-path="url(#clip072)" style="stroke:#000000; stroke-linecap:round; stroke-linejoin:round; stroke-width:4; stroke-opacity:1; fill:none" points="2135.77,1482.99 2135.77,1486.45 2184.29,1486.45 2184.29,1482.99 2135.77,1482.99 "/>
<path clip-path="url(#clip072)" d="M2184.29 1484.72 L2184.29 1486.45 L2232.81 1486.45 L2232.81 1484.72 L2184.29 1484.72 L2184.29 1484.72  Z" fill="#009af9" fill-rule="evenodd" fill-opacity="1"/>
<polyline clip-path="url(#clip072)" style="stroke:#000000; stroke-linecap:round; stroke-linejoin:round; stroke-width:4; stroke-opacity:1; fill:none" points="2184.29,1484.72 2184.29,1486.45 2232.81,1486.45 2232.81,1484.72 2184.29,1484.72 "/>
<circle clip-path="url(#clip072)" style="fill:#009af9; stroke:none; fill-opacity:0" cx="316.22" cy="1484.72" r="2"/>
<circle clip-path="url(#clip072)" style="fill:#009af9; stroke:none; fill-opacity:0" cx="364.741" cy="1484.72" r="2"/>
<circle clip-path="url(#clip072)" style="fill:#009af9; stroke:none; fill-opacity:0" cx="413.263" cy="1482.99" r="2"/>
<circle clip-path="url(#clip072)" style="fill:#009af9; stroke:none; fill-opacity:0" cx="461.784" cy="1477.8" r="2"/>
<circle clip-path="url(#clip072)" style="fill:#009af9; stroke:none; fill-opacity:0" cx="510.305" cy="1470.88" r="2"/>
<circle clip-path="url(#clip072)" style="fill:#009af9; stroke:none; fill-opacity:0" cx="558.827" cy="1474.34" r="2"/>
<circle clip-path="url(#clip072)" style="fill:#009af9; stroke:none; fill-opacity:0" cx="607.348" cy="1453.58" r="2"/>
<circle clip-path="url(#clip072)" style="fill:#009af9; stroke:none; fill-opacity:0" cx="655.869" cy="1432.82" r="2"/>
<circle clip-path="url(#clip072)" style="fill:#009af9; stroke:none; fill-opacity:0" cx="704.39" cy="1399.96" r="2"/>
<circle clip-path="url(#clip072)" style="fill:#009af9; stroke:none; fill-opacity:0" cx="752.912" cy="1297.9" r="2"/>
<circle clip-path="url(#clip072)" style="fill:#009af9; stroke:none; fill-opacity:0" cx="801.433" cy="1239.08" r="2"/>
<circle clip-path="url(#clip072)" style="fill:#009af9; stroke:none; fill-opacity:0" cx="849.954" cy="1166.43" r="2"/>
<circle clip-path="url(#clip072)" style="fill:#009af9; stroke:none; fill-opacity:0" cx="898.476" cy="1022.86" r="2"/>
<circle clip-path="url(#clip072)" style="fill:#009af9; stroke:none; fill-opacity:0" cx="946.997" cy="951.936" r="2"/>
<circle clip-path="url(#clip072)" style="fill:#009af9; stroke:none; fill-opacity:0" cx="995.518" cy="702.843" r="2"/>
<circle clip-path="url(#clip072)" style="fill:#009af9; stroke:none; fill-opacity:0" cx="1044.04" cy="533.321" r="2"/>
<circle clip-path="url(#clip072)" style="fill:#009af9; stroke:none; fill-opacity:0" cx="1092.56" cy="434.722" r="2"/>
<circle clip-path="url(#clip072)" style="fill:#009af9; stroke:none; fill-opacity:0" cx="1141.08" cy="353.421" r="2"/>
<circle clip-path="url(#clip072)" style="fill:#009af9; stroke:none; fill-opacity:0" cx="1189.6" cy="145.843" r="2"/>
<circle clip-path="url(#clip072)" style="fill:#009af9; stroke:none; fill-opacity:0" cx="1238.12" cy="114.707" r="2"/>
<circle clip-path="url(#clip072)" style="fill:#009af9; stroke:none; fill-opacity:0" cx="1286.65" cy="47.2441" r="2"/>
<circle clip-path="url(#clip072)" style="fill:#009af9; stroke:none; fill-opacity:0" cx="1335.17" cy="164.871" r="2"/>
<circle clip-path="url(#clip072)" style="fill:#009af9; stroke:none; fill-opacity:0" cx="1383.69" cy="247.902" r="2"/>
<circle clip-path="url(#clip072)" style="fill:#009af9; stroke:none; fill-opacity:0" cx="1432.21" cy="453.75" r="2"/>
<circle clip-path="url(#clip072)" style="fill:#009af9; stroke:none; fill-opacity:0" cx="1480.73" cy="590.405" r="2"/>
<circle clip-path="url(#clip072)" style="fill:#009af9; stroke:none; fill-opacity:0" cx="1529.25" cy="804.902" r="2"/>
<circle clip-path="url(#clip072)" style="fill:#009af9; stroke:none; fill-opacity:0" cx="1577.77" cy="848.147" r="2"/>
<circle clip-path="url(#clip072)" style="fill:#009af9; stroke:none; fill-opacity:0" cx="1626.3" cy="1062.64" r="2"/>
<circle clip-path="url(#clip072)" style="fill:#009af9; stroke:none; fill-opacity:0" cx="1674.82" cy="1168.16" r="2"/>
<circle clip-path="url(#clip072)" style="fill:#009af9; stroke:none; fill-opacity:0" cx="1723.34" cy="1239.08" r="2"/>
<circle clip-path="url(#clip072)" style="fill:#009af9; stroke:none; fill-opacity:0" cx="1771.86" cy="1320.39" r="2"/>
<circle clip-path="url(#clip072)" style="fill:#009af9; stroke:none; fill-opacity:0" cx="1820.38" cy="1377.47" r="2"/>
<circle clip-path="url(#clip072)" style="fill:#009af9; stroke:none; fill-opacity:0" cx="1868.9" cy="1415.53" r="2"/>
<circle clip-path="url(#clip072)" style="fill:#009af9; stroke:none; fill-opacity:0" cx="1917.42" cy="1450.12" r="2"/>
<circle clip-path="url(#clip072)" style="fill:#009af9; stroke:none; fill-opacity:0" cx="1965.94" cy="1451.85" r="2"/>
<circle clip-path="url(#clip072)" style="fill:#009af9; stroke:none; fill-opacity:0" cx="2014.47" cy="1463.96" r="2"/>
<circle clip-path="url(#clip072)" style="fill:#009af9; stroke:none; fill-opacity:0" cx="2062.99" cy="1481.26" r="2"/>
<circle clip-path="url(#clip072)" style="fill:#009af9; stroke:none; fill-opacity:0" cx="2111.51" cy="1479.53" r="2"/>
<circle clip-path="url(#clip072)" style="fill:#009af9; stroke:none; fill-opacity:0" cx="2160.03" cy="1482.99" r="2"/>
<circle clip-path="url(#clip072)" style="fill:#009af9; stroke:none; fill-opacity:0" cx="2208.55" cy="1484.72" r="2"/>
</svg>
