<?xml version="1.0" encoding="utf-8"?>
<svg xmlns="http://www.w3.org/2000/svg" xmlns:xlink="http://www.w3.org/1999/xlink" width="600" height="400" viewBox="0 0 2400 1600">
<defs>
  <clipPath id="clip550">
    <rect x="0" y="0" width="2400" height="1600"/>
  </clipPath>
</defs>
<path clip-path="url(#clip550)" d="M0 1600 L2400 1600 L2400 0 L0 0  Z" fill="#ffffff" fill-rule="evenodd" fill-opacity="1"/>
<defs>
  <clipPath id="clip551">
    <rect x="480" y="0" width="1681" height="1600"/>
  </clipPath>
</defs>
<path clip-path="url(#clip550)" d="M172.015 1486.45 L2352.76 1486.45 L2352.76 47.2441 L172.015 47.2441  Z" fill="#ffffff" fill-rule="evenodd" fill-opacity="1"/>
<defs>
  <clipPath id="clip552">
    <rect x="172" y="47" width="2182" height="1440"/>
  </clipPath>
</defs>
<polyline clip-path="url(#clip552)" style="stroke:#000000; stroke-linecap:round; stroke-linejoin:round; stroke-width:2; stroke-opacity:0.1; fill:none" points="240.884,1486.45 240.884,47.2441 "/>
<polyline clip-path="url(#clip552)" style="stroke:#000000; stroke-linecap:round; stroke-linejoin:round; stroke-width:2; stroke-opacity:0.1; fill:none" points="751.635,1486.45 751.635,47.2441 "/>
<polyline clip-path="url(#clip552)" style="stroke:#000000; stroke-linecap:round; stroke-linejoin:round; stroke-width:2; stroke-opacity:0.1; fill:none" points="1262.39,1486.45 1262.39,47.2441 "/>
<polyline clip-path="url(#clip552)" style="stroke:#000000; stroke-linecap:round; stroke-linejoin:round; stroke-width:2; stroke-opacity:0.1; fill:none" points="1773.14,1486.45 1773.14,47.2441 "/>
<polyline clip-path="url(#clip552)" style="stroke:#000000; stroke-linecap:round; stroke-linejoin:round; stroke-width:2; stroke-opacity:0.1; fill:none" points="2283.89,1486.45 2283.89,47.2441 "/>
<polyline clip-path="url(#clip552)" style="stroke:#000000; stroke-linecap:round; stroke-linejoin:round; stroke-width:2; stroke-opacity:0.1; fill:none" points="172.015,1486.45 2352.76,1486.45 "/>
<polyline clip-path="url(#clip552)" style="stroke:#000000; stroke-linecap:round; stroke-linejoin:round; stroke-width:2; stroke-opacity:0.1; fill:none" points="172.015,1125.29 2352.76,1125.29 "/>
<polyline clip-path="url(#clip552)" style="stroke:#000000; stroke-linecap:round; stroke-linejoin:round; stroke-width:2; stroke-opacity:0.1; fill:none" points="172.015,764.137 2352.76,764.137 "/>
<polyline clip-path="url(#clip552)" style="stroke:#000000; stroke-linecap:round; stroke-linejoin:round; stroke-width:2; stroke-opacity:0.1; fill:none" points="172.015,402.982 2352.76,402.982 "/>
<polyline clip-path="url(#clip550)" style="stroke:#000000; stroke-linecap:round; stroke-linejoin:round; stroke-width:4; stroke-opacity:1; fill:none" points="172.015,1486.45 2352.76,1486.45 "/>
<polyline clip-path="url(#clip550)" style="stroke:#000000; stroke-linecap:round; stroke-linejoin:round; stroke-width:4; stroke-opacity:1; fill:none" points="240.884,1486.45 240.884,1467.55 "/>
<polyline clip-path="url(#clip550)" style="stroke:#000000; stroke-linecap:round; stroke-linejoin:round; stroke-width:4; stroke-opacity:1; fill:none" points="751.635,1486.45 751.635,1467.55 "/>
<polyline clip-path="url(#clip550)" style="stroke:#000000; stroke-linecap:round; stroke-linejoin:round; stroke-width:4; stroke-opacity:1; fill:none" points="1262.39,1486.45 1262.39,1467.55 "/>
<polyline clip-path="url(#clip550)" style="stroke:#000000; stroke-linecap:round; stroke-linejoin:round; stroke-width:4; stroke-opacity:1; fill:none" points="1773.14,1486.45 1773.14,1467.55 "/>
<polyline clip-path="url(#clip550)" style="stroke:#000000; stroke-linecap:round; stroke-linejoin:round; stroke-width:4; stroke-opacity:1; fill:none" points="2283.89,1486.45 2283.89,1467.55 "/>
<path clip-path="url(#clip550)" d="M210.827 1532.02 L240.502 1532.02 L240.502 1535.95 L210.827 1535.95 L210.827 1532.02 Z" fill="#000000" fill-rule="nonzero" fill-opacity="1" /><path clip-path="url(#clip550)" d="M254.623 1544.91 L270.942 1544.91 L270.942 1548.85 L248.998 1548.85 L248.998 1544.91 Q251.66 1542.16 256.243 1537.53 Q260.85 1532.88 262.03 1531.53 Q264.275 1529.01 265.155 1527.27 Q266.058 1525.51 266.058 1523.82 Q266.058 1521.07 264.113 1519.33 Q262.192 1517.6 259.09 1517.6 Q256.891 1517.6 254.438 1518.36 Q252.007 1519.13 249.229 1520.68 L249.229 1515.95 Q252.053 1514.82 254.507 1514.24 Q256.961 1513.66 258.998 1513.66 Q264.368 1513.66 267.563 1516.35 Q270.757 1519.03 270.757 1523.52 Q270.757 1525.65 269.947 1527.57 Q269.16 1529.47 267.053 1532.07 Q266.475 1532.74 263.373 1535.95 Q260.271 1539.15 254.623 1544.91 Z" fill="#000000" fill-rule="nonzero" fill-opacity="1" /><path clip-path="url(#clip550)" d="M751.635 1517.37 Q748.024 1517.37 746.195 1520.93 Q744.39 1524.47 744.39 1531.6 Q744.39 1538.71 746.195 1542.27 Q748.024 1545.82 751.635 1545.82 Q755.269 1545.82 757.075 1542.27 Q758.903 1538.71 758.903 1531.6 Q758.903 1524.47 757.075 1520.93 Q755.269 1517.37 751.635 1517.37 M751.635 1513.66 Q757.445 1513.66 760.501 1518.27 Q763.579 1522.85 763.579 1531.6 Q763.579 1540.33 760.501 1544.94 Q757.445 1549.52 751.635 1549.52 Q745.825 1549.52 742.746 1544.94 Q739.691 1540.33 739.691 1531.6 Q739.691 1522.85 742.746 1518.27 Q745.825 1513.66 751.635 1513.66 Z" fill="#000000" fill-rule="nonzero" fill-opacity="1" /><path clip-path="url(#clip550)" d="M1257.04 1544.91 L1273.36 1544.91 L1273.36 1548.85 L1251.41 1548.85 L1251.41 1544.91 Q1254.08 1542.16 1258.66 1537.53 Q1263.26 1532.88 1264.45 1531.53 Q1266.69 1529.01 1267.57 1527.27 Q1268.47 1525.51 1268.47 1523.82 Q1268.47 1521.07 1266.53 1519.33 Q1264.61 1517.6 1261.51 1517.6 Q1259.31 1517.6 1256.85 1518.36 Q1254.42 1519.13 1251.64 1520.68 L1251.64 1515.95 Q1254.47 1514.82 1256.92 1514.24 Q1259.38 1513.66 1261.41 1513.66 Q1266.78 1513.66 1269.98 1516.35 Q1273.17 1519.03 1273.17 1523.52 Q1273.17 1525.65 1272.36 1527.57 Q1271.58 1529.47 1269.47 1532.07 Q1268.89 1532.74 1265.79 1535.95 Q1262.69 1539.15 1257.04 1544.91 Z" fill="#000000" fill-rule="nonzero" fill-opacity="1" /><path clip-path="url(#clip550)" d="M1776.15 1518.36 L1764.34 1536.81 L1776.15 1536.81 L1776.15 1518.36 M1774.92 1514.29 L1780.8 1514.29 L1780.8 1536.81 L1785.73 1536.81 L1785.73 1540.7 L1780.8 1540.7 L1780.8 1548.85 L1776.15 1548.85 L1776.15 1540.7 L1760.54 1540.7 L1760.54 1536.19 L1774.92 1514.29 Z" fill="#000000" fill-rule="nonzero" fill-opacity="1" /><path clip-path="url(#clip550)" d="M2284.29 1529.7 Q2281.14 1529.7 2279.29 1531.86 Q2277.46 1534.01 2277.46 1537.76 Q2277.46 1541.49 2279.29 1543.66 Q2281.14 1545.82 2284.29 1545.82 Q2287.44 1545.82 2289.27 1543.66 Q2291.12 1541.49 2291.12 1537.76 Q2291.12 1534.01 2289.27 1531.86 Q2287.44 1529.7 2284.29 1529.7 M2293.57 1515.05 L2293.57 1519.31 Q2291.81 1518.48 2290.01 1518.04 Q2288.23 1517.6 2286.47 1517.6 Q2281.84 1517.6 2279.38 1520.72 Q2276.95 1523.85 2276.61 1530.17 Q2277.97 1528.15 2280.03 1527.09 Q2282.09 1526 2284.57 1526 Q2289.78 1526 2292.79 1529.17 Q2295.82 1532.32 2295.82 1537.76 Q2295.82 1543.08 2292.67 1546.3 Q2289.52 1549.52 2284.29 1549.52 Q2278.3 1549.52 2275.12 1544.94 Q2271.95 1540.33 2271.95 1531.6 Q2271.95 1523.41 2275.84 1518.55 Q2279.73 1513.66 2286.28 1513.66 Q2288.04 1513.66 2289.82 1514.01 Q2291.63 1514.36 2293.57 1515.05 Z" fill="#000000" fill-rule="nonzero" fill-opacity="1" /><polyline clip-path="url(#clip550)" style="stroke:#000000; stroke-linecap:round; stroke-linejoin:round; stroke-width:4; stroke-opacity:1; fill:none" points="172.015,1486.45 172.015,47.2441 "/>
<polyline clip-path="url(#clip550)" style="stroke:#000000; stroke-linecap:round; stroke-linejoin:round; stroke-width:4; stroke-opacity:1; fill:none" points="172.015,1486.45 190.912,1486.45 "/>
<polyline clip-path="url(#clip550)" style="stroke:#000000; stroke-linecap:round; stroke-linejoin:round; stroke-width:4; stroke-opacity:1; fill:none" points="172.015,1125.29 190.912,1125.29 "/>
<polyline clip-path="url(#clip550)" style="stroke:#000000; stroke-linecap:round; stroke-linejoin:round; stroke-width:4; stroke-opacity:1; fill:none" points="172.015,764.137 190.912,764.137 "/>
<polyline clip-path="url(#clip550)" style="stroke:#000000; stroke-linecap:round; stroke-linejoin:round; stroke-width:4; stroke-opacity:1; fill:none" points="172.015,402.982 190.912,402.982 "/>
<path clip-path="url(#clip550)" d="M124.07 1472.25 Q120.459 1472.25 118.631 1475.81 Q116.825 1479.35 116.825 1486.48 Q116.825 1493.59 118.631 1497.15 Q120.459 1500.7 124.07 1500.7 Q127.705 1500.7 129.51 1497.15 Q131.339 1493.59 131.339 1486.48 Q131.339 1479.35 129.51 1475.81 Q127.705 1472.25 124.07 1472.25 M124.07 1468.54 Q129.881 1468.54 132.936 1473.15 Q136.015 1477.73 136.015 1486.48 Q136.015 1495.21 132.936 1499.82 Q129.881 1504.4 124.07 1504.4 Q118.26 1504.4 115.182 1499.82 Q112.126 1495.21 112.126 1486.48 Q112.126 1477.73 115.182 1473.15 Q118.26 1468.54 124.07 1468.54 Z" fill="#000000" fill-rule="nonzero" fill-opacity="1" /><path clip-path="url(#clip550)" d="M57.7745 1138.64 L74.0939 1138.64 L74.0939 1142.57 L52.1495 1142.57 L52.1495 1138.64 Q54.8115 1135.88 59.3949 1131.25 Q64.0013 1126.6 65.1819 1125.26 Q67.4272 1122.73 68.3068 1121 Q69.2096 1119.24 69.2096 1117.55 Q69.2096 1114.79 67.2652 1113.06 Q65.3439 1111.32 62.2421 1111.32 Q60.043 1111.32 57.5893 1112.09 Q55.1588 1112.85 52.381 1114.4 L52.381 1109.68 Q55.2051 1108.55 57.6588 1107.97 Q60.1124 1107.39 62.1495 1107.39 Q67.5198 1107.39 70.7142 1110.07 Q73.9087 1112.76 73.9087 1117.25 Q73.9087 1119.38 73.0985 1121.3 Q72.3115 1123.2 70.205 1125.79 Q69.6263 1126.46 66.5245 1129.68 Q63.4226 1132.87 57.7745 1138.64 Z" fill="#000000" fill-rule="nonzero" fill-opacity="1" /><path clip-path="url(#clip550)" d="M93.9086 1111.09 Q90.2975 1111.09 88.4688 1114.66 Q86.6632 1118.2 86.6632 1125.33 Q86.6632 1132.43 88.4688 1136 Q90.2975 1139.54 93.9086 1139.54 Q97.5428 1139.54 99.3483 1136 Q101.177 1132.43 101.177 1125.33 Q101.177 1118.2 99.3483 1114.66 Q97.5428 1111.09 93.9086 1111.09 M93.9086 1107.39 Q99.7187 1107.39 102.774 1111.99 Q105.853 1116.58 105.853 1125.33 Q105.853 1134.05 102.774 1138.66 Q99.7187 1143.24 93.9086 1143.24 Q88.0984 1143.24 85.0197 1138.66 Q81.9642 1134.05 81.9642 1125.33 Q81.9642 1116.58 85.0197 1111.99 Q88.0984 1107.39 93.9086 1107.39 Z" fill="#000000" fill-rule="nonzero" fill-opacity="1" /><path clip-path="url(#clip550)" d="M124.07 1111.09 Q120.459 1111.09 118.631 1114.66 Q116.825 1118.2 116.825 1125.33 Q116.825 1132.43 118.631 1136 Q120.459 1139.54 124.07 1139.54 Q127.705 1139.54 129.51 1136 Q131.339 1132.43 131.339 1125.33 Q131.339 1118.2 129.51 1114.66 Q127.705 1111.09 124.07 1111.09 M124.07 1107.39 Q129.881 1107.39 132.936 1111.99 Q136.015 1116.58 136.015 1125.33 Q136.015 1134.05 132.936 1138.66 Q129.881 1143.24 124.07 1143.24 Q118.26 1143.24 115.182 1138.66 Q112.126 1134.05 112.126 1125.33 Q112.126 1116.58 115.182 1111.99 Q118.26 1107.39 124.07 1107.39 Z" fill="#000000" fill-rule="nonzero" fill-opacity="1" /><path clip-path="url(#clip550)" d="M66.5939 750.931 L54.7884 769.38 L66.5939 769.38 L66.5939 750.931 M65.367 746.857 L71.2466 746.857 L71.2466 769.38 L76.1772 769.38 L76.1772 773.269 L71.2466 773.269 L71.2466 781.417 L66.5939 781.417 L66.5939 773.269 L50.9921 773.269 L50.9921 768.755 L65.367 746.857 Z" fill="#000000" fill-rule="nonzero" fill-opacity="1" /><path clip-path="url(#clip550)" d="M93.9086 749.936 Q90.2975 749.936 88.4688 753.501 Q86.6632 757.042 86.6632 764.172 Q86.6632 771.278 88.4688 774.843 Q90.2975 778.385 93.9086 778.385 Q97.5428 778.385 99.3483 774.843 Q101.177 771.278 101.177 764.172 Q101.177 757.042 99.3483 753.501 Q97.5428 749.936 93.9086 749.936 M93.9086 746.232 Q99.7187 746.232 102.774 750.839 Q105.853 755.422 105.853 764.172 Q105.853 772.899 102.774 777.505 Q99.7187 782.089 93.9086 782.089 Q88.0984 782.089 85.0197 777.505 Q81.9642 772.899 81.9642 764.172 Q81.9642 755.422 85.0197 750.839 Q88.0984 746.232 93.9086 746.232 Z" fill="#000000" fill-rule="nonzero" fill-opacity="1" /><path clip-path="url(#clip550)" d="M124.07 749.936 Q120.459 749.936 118.631 753.501 Q116.825 757.042 116.825 764.172 Q116.825 771.278 118.631 774.843 Q120.459 778.385 124.07 778.385 Q127.705 778.385 129.51 774.843 Q131.339 771.278 131.339 764.172 Q131.339 757.042 129.51 753.501 Q127.705 749.936 124.07 749.936 M124.07 746.232 Q129.881 746.232 132.936 750.839 Q136.015 755.422 136.015 764.172 Q136.015 772.899 132.936 777.505 Q129.881 782.089 124.07 782.089 Q118.26 782.089 115.182 777.505 Q112.126 772.899 112.126 764.172 Q112.126 755.422 115.182 750.839 Q118.26 746.232 124.07 746.232 Z" fill="#000000" fill-rule="nonzero" fill-opacity="1" /><path clip-path="url(#clip550)" d="M64.3254 401.119 Q61.1773 401.119 59.3254 403.271 Q57.4967 405.424 57.4967 409.174 Q57.4967 412.901 59.3254 415.077 Q61.1773 417.23 64.3254 417.23 Q67.4735 417.23 69.3022 415.077 Q71.1541 412.901 71.1541 409.174 Q71.1541 405.424 69.3022 403.271 Q67.4735 401.119 64.3254 401.119 M73.6077 386.466 L73.6077 390.725 Q71.8485 389.892 70.0429 389.452 Q68.2606 389.012 66.5013 389.012 Q61.8717 389.012 59.418 392.137 Q56.9875 395.262 56.6402 401.582 Q58.006 399.568 60.0662 398.503 Q62.1263 397.415 64.6032 397.415 Q69.8115 397.415 72.8207 400.586 Q75.8531 403.734 75.8531 409.174 Q75.8531 414.498 72.705 417.716 Q69.5568 420.933 64.3254 420.933 Q58.33 420.933 55.1588 416.35 Q51.9875 411.744 51.9875 403.017 Q51.9875 394.822 55.8764 389.961 Q59.7652 385.077 66.3161 385.077 Q68.0754 385.077 69.8578 385.424 Q71.6633 385.771 73.6077 386.466 Z" fill="#000000" fill-rule="nonzero" fill-opacity="1" /><path clip-path="url(#clip550)" d="M93.9086 388.781 Q90.2975 388.781 88.4688 392.346 Q86.6632 395.887 86.6632 403.017 Q86.6632 410.123 88.4688 413.688 Q90.2975 417.23 93.9086 417.23 Q97.5428 417.23 99.3483 413.688 Q101.177 410.123 101.177 403.017 Q101.177 395.887 99.3483 392.346 Q97.5428 388.781 93.9086 388.781 M93.9086 385.077 Q99.7187 385.077 102.774 389.684 Q105.853 394.267 105.853 403.017 Q105.853 411.744 102.774 416.35 Q99.7187 420.933 93.9086 420.933 Q88.0984 420.933 85.0197 416.35 Q81.9642 411.744 81.9642 403.017 Q81.9642 394.267 85.0197 389.684 Q88.0984 385.077 93.9086 385.077 Z" fill="#000000" fill-rule="nonzero" fill-opacity="1" /><path clip-path="url(#clip550)" d="M124.07 388.781 Q120.459 388.781 118.631 392.346 Q116.825 395.887 116.825 403.017 Q116.825 410.123 118.631 413.688 Q120.459 417.23 124.07 417.23 Q127.705 417.23 129.51 413.688 Q131.339 410.123 131.339 403.017 Q131.339 395.887 129.51 392.346 Q127.705 388.781 124.07 388.781 M124.07 385.077 Q129.881 385.077 132.936 389.684 Q136.015 394.267 136.015 403.017 Q136.015 411.744 132.936 416.35 Q129.881 420.933 124.07 420.933 Q118.26 420.933 115.182 416.35 Q112.126 411.744 112.126 403.017 Q112.126 394.267 115.182 389.684 Q118.26 385.077 124.07 385.077 Z" fill="#000000" fill-rule="nonzero" fill-opacity="1" /><path clip-path="url(#clip552)" d="M291.959 1484.64 L291.959 1486.45 L343.035 1486.45 L343.035 1484.64 L291.959 1484.64 L291.959 1484.64  Z" fill="#009af9" fill-rule="evenodd" fill-opacity="1"/>
<polyline clip-path="url(#clip552)" style="stroke:#000000; stroke-linecap:round; stroke-linejoin:round; stroke-width:4; stroke-opacity:1; fill:none" points="291.959,1484.64 291.959,1486.45 343.035,1486.45 343.035,1484.64 291.959,1484.64 "/>
<path clip-path="url(#clip552)" d="M343.035 1479.22 L343.035 1486.45 L394.11 1486.45 L394.11 1479.22 L343.035 1479.22 L343.035 1479.22  Z" fill="#009af9" fill-rule="evenodd" fill-opacity="1"/>
<polyline clip-path="url(#clip552)" style="stroke:#000000; stroke-linecap:round; stroke-linejoin:round; stroke-width:4; stroke-opacity:1; fill:none" points="343.035,1479.22 343.035,1486.45 394.11,1486.45 394.11,1479.22 343.035,1479.22 "/>
<path clip-path="url(#clip552)" d="M394.11 1479.22 L394.11 1486.45 L445.185 1486.45 L445.185 1479.22 L394.11 1479.22 L394.11 1479.22  Z" fill="#009af9" fill-rule="evenodd" fill-opacity="1"/>
<polyline clip-path="url(#clip552)" style="stroke:#000000; stroke-linecap:round; stroke-linejoin:round; stroke-width:4; stroke-opacity:1; fill:none" points="394.11,1479.22 394.11,1486.45 445.185,1486.45 445.185,1479.22 394.11,1479.22 "/>
<path clip-path="url(#clip552)" d="M445.185 1475.61 L445.185 1486.45 L496.26 1486.45 L496.26 1475.61 L445.185 1475.61 L445.185 1475.61  Z" fill="#009af9" fill-rule="evenodd" fill-opacity="1"/>
<polyline clip-path="url(#clip552)" style="stroke:#000000; stroke-linecap:round; stroke-linejoin:round; stroke-width:4; stroke-opacity:1; fill:none" points="445.185,1475.61 445.185,1486.45 496.26,1486.45 496.26,1475.61 445.185,1475.61 "/>
<path clip-path="url(#clip552)" d="M496.26 1470.2 L496.26 1486.45 L547.335 1486.45 L547.335 1470.2 L496.26 1470.2 L496.26 1470.2  Z" fill="#009af9" fill-rule="evenodd" fill-opacity="1"/>
<polyline clip-path="url(#clip552)" style="stroke:#000000; stroke-linecap:round; stroke-linejoin:round; stroke-width:4; stroke-opacity:1; fill:none" points="496.26,1470.2 496.26,1486.45 547.335,1486.45 547.335,1470.2 496.26,1470.2 "/>
<path clip-path="url(#clip552)" d="M547.335 1444.92 L547.335 1486.45 L598.41 1486.45 L598.41 1444.92 L547.335 1444.92 L547.335 1444.92  Z" fill="#009af9" fill-rule="evenodd" fill-opacity="1"/>
<polyline clip-path="url(#clip552)" style="stroke:#000000; stroke-linecap:round; stroke-linejoin:round; stroke-width:4; stroke-opacity:1; fill:none" points="547.335,1444.92 547.335,1486.45 598.41,1486.45 598.41,1444.92 547.335,1444.92 "/>
<path clip-path="url(#clip552)" d="M598.41 1426.86 L598.41 1486.45 L649.485 1486.45 L649.485 1426.86 L598.41 1426.86 L598.41 1426.86  Z" fill="#009af9" fill-rule="evenodd" fill-opacity="1"/>
<polyline clip-path="url(#clip552)" style="stroke:#000000; stroke-linecap:round; stroke-linejoin:round; stroke-width:4; stroke-opacity:1; fill:none" points="598.41,1426.86 598.41,1486.45 649.485,1486.45 649.485,1426.86 598.41,1426.86 "/>
<path clip-path="url(#clip552)" d="M649.485 1378.1 L649.485 1486.45 L700.56 1486.45 L700.56 1378.1 L649.485 1378.1 L649.485 1378.1  Z" fill="#009af9" fill-rule="evenodd" fill-opacity="1"/>
<polyline clip-path="url(#clip552)" style="stroke:#000000; stroke-linecap:round; stroke-linejoin:round; stroke-width:4; stroke-opacity:1; fill:none" points="649.485,1378.1 649.485,1486.45 700.56,1486.45 700.56,1378.1 649.485,1378.1 "/>
<path clip-path="url(#clip552)" d="M700.56 1327.54 L700.56 1486.45 L751.635 1486.45 L751.635 1327.54 L700.56 1327.54 L700.56 1327.54  Z" fill="#009af9" fill-rule="evenodd" fill-opacity="1"/>
<polyline clip-path="url(#clip552)" style="stroke:#000000; stroke-linecap:round; stroke-linejoin:round; stroke-width:4; stroke-opacity:1; fill:none" points="700.56,1327.54 700.56,1486.45 751.635,1486.45 751.635,1327.54 700.56,1327.54 "/>
<path clip-path="url(#clip552)" d="M751.635 1249.89 L751.635 1486.45 L802.71 1486.45 L802.71 1249.89 L751.635 1249.89 L751.635 1249.89  Z" fill="#009af9" fill-rule="evenodd" fill-opacity="1"/>
<polyline clip-path="url(#clip552)" style="stroke:#000000; stroke-linecap:round; stroke-linejoin:round; stroke-width:4; stroke-opacity:1; fill:none" points="751.635,1249.89 751.635,1486.45 802.71,1486.45 802.71,1249.89 751.635,1249.89 "/>
<path clip-path="url(#clip552)" d="M802.71 1148.77 L802.71 1486.45 L853.785 1486.45 L853.785 1148.77 L802.71 1148.77 L802.71 1148.77  Z" fill="#009af9" fill-rule="evenodd" fill-opacity="1"/>
<polyline clip-path="url(#clip552)" style="stroke:#000000; stroke-linecap:round; stroke-linejoin:round; stroke-width:4; stroke-opacity:1; fill:none" points="802.71,1148.77 802.71,1486.45 853.785,1486.45 853.785,1148.77 802.71,1148.77 "/>
<path clip-path="url(#clip552)" d="M853.785 989.859 L853.785 1486.45 L904.86 1486.45 L904.86 989.859 L853.785 989.859 L853.785 989.859  Z" fill="#009af9" fill-rule="evenodd" fill-opacity="1"/>
<polyline clip-path="url(#clip552)" style="stroke:#000000; stroke-linecap:round; stroke-linejoin:round; stroke-width:4; stroke-opacity:1; fill:none" points="853.785,989.859 853.785,1486.45 904.86,1486.45 904.86,989.859 853.785,989.859 "/>
<path clip-path="url(#clip552)" d="M904.86 811.088 L904.86 1486.45 L955.935 1486.45 L955.935 811.088 L904.86 811.088 L904.86 811.088  Z" fill="#009af9" fill-rule="evenodd" fill-opacity="1"/>
<polyline clip-path="url(#clip552)" style="stroke:#000000; stroke-linecap:round; stroke-linejoin:round; stroke-width:4; stroke-opacity:1; fill:none" points="904.86,811.088 904.86,1486.45 955.935,1486.45 955.935,811.088 904.86,811.088 "/>
<path clip-path="url(#clip552)" d="M955.935 666.625 L955.935 1486.45 L1007.01 1486.45 L1007.01 666.625 L955.935 666.625 L955.935 666.625  Z" fill="#009af9" fill-rule="evenodd" fill-opacity="1"/>
<polyline clip-path="url(#clip552)" style="stroke:#000000; stroke-linecap:round; stroke-linejoin:round; stroke-width:4; stroke-opacity:1; fill:none" points="955.935,666.625 955.935,1486.45 1007.01,1486.45 1007.01,666.625 955.935,666.625 "/>
<path clip-path="url(#clip552)" d="M1007.01 509.523 L1007.01 1486.45 L1058.09 1486.45 L1058.09 509.523 L1007.01 509.523 L1007.01 509.523  Z" fill="#009af9" fill-rule="evenodd" fill-opacity="1"/>
<polyline clip-path="url(#clip552)" style="stroke:#000000; stroke-linecap:round; stroke-linejoin:round; stroke-width:4; stroke-opacity:1; fill:none" points="1007.01,509.523 1007.01,1486.45 1058.09,1486.45 1058.09,509.523 1007.01,509.523 "/>
<path clip-path="url(#clip552)" d="M1058.09 395.759 L1058.09 1486.45 L1109.16 1486.45 L1109.16 395.759 L1058.09 395.759 L1058.09 395.759  Z" fill="#009af9" fill-rule="evenodd" fill-opacity="1"/>
<polyline clip-path="url(#clip552)" style="stroke:#000000; stroke-linecap:round; stroke-linejoin:round; stroke-width:4; stroke-opacity:1; fill:none" points="1058.09,395.759 1058.09,1486.45 1109.16,1486.45 1109.16,395.759 1058.09,395.759 "/>
<path clip-path="url(#clip552)" d="M1109.16 242.268 L1109.16 1486.45 L1160.24 1486.45 L1160.24 242.268 L1109.16 242.268 L1109.16 242.268  Z" fill="#009af9" fill-rule="evenodd" fill-opacity="1"/>
<polyline clip-path="url(#clip552)" style="stroke:#000000; stroke-linecap:round; stroke-linejoin:round; stroke-width:4; stroke-opacity:1; fill:none" points="1109.16,242.268 1109.16,1486.45 1160.24,1486.45 1160.24,242.268 1109.16,242.268 "/>
<path clip-path="url(#clip552)" d="M1160.24 47.2441 L1160.24 1486.45 L1211.31 1486.45 L1211.31 47.2441 L1160.24 47.2441 L1160.24 47.2441  Z" fill="#009af9" fill-rule="evenodd" fill-opacity="1"/>
<polyline clip-path="url(#clip552)" style="stroke:#000000; stroke-linecap:round; stroke-linejoin:round; stroke-width:4; stroke-opacity:1; fill:none" points="1160.24,47.2441 1160.24,1486.45 1211.31,1486.45 1211.31,47.2441 1160.24,47.2441 "/>
<path clip-path="url(#clip552)" d="M1211.31 76.1365 L1211.31 1486.45 L1262.39 1486.45 L1262.39 76.1365 L1211.31 76.1365 L1211.31 76.1365  Z" fill="#009af9" fill-rule="evenodd" fill-opacity="1"/>
<polyline clip-path="url(#clip552)" style="stroke:#000000; stroke-linecap:round; stroke-linejoin:round; stroke-width:4; stroke-opacity:1; fill:none" points="1211.31,76.1365 1211.31,1486.45 1262.39,1486.45 1262.39,76.1365 1211.31,76.1365 "/>
<path clip-path="url(#clip552)" d="M1262.39 115.864 L1262.39 1486.45 L1313.46 1486.45 L1313.46 115.864 L1262.39 115.864 L1262.39 115.864  Z" fill="#009af9" fill-rule="evenodd" fill-opacity="1"/>
<polyline clip-path="url(#clip552)" style="stroke:#000000; stroke-linecap:round; stroke-linejoin:round; stroke-width:4; stroke-opacity:1; fill:none" points="1262.39,115.864 1262.39,1486.45 1313.46,1486.45 1313.46,115.864 1262.39,115.864 "/>
<path clip-path="url(#clip552)" d="M1313.46 139.339 L1313.46 1486.45 L1364.54 1486.45 L1364.54 139.339 L1313.46 139.339 L1313.46 139.339  Z" fill="#009af9" fill-rule="evenodd" fill-opacity="1"/>
<polyline clip-path="url(#clip552)" style="stroke:#000000; stroke-linecap:round; stroke-linejoin:round; stroke-width:4; stroke-opacity:1; fill:none" points="1313.46,139.339 1313.46,1486.45 1364.54,1486.45 1364.54,139.339 1313.46,139.339 "/>
<path clip-path="url(#clip552)" d="M1364.54 296.441 L1364.54 1486.45 L1415.61 1486.45 L1415.61 296.441 L1364.54 296.441 L1364.54 296.441  Z" fill="#009af9" fill-rule="evenodd" fill-opacity="1"/>
<polyline clip-path="url(#clip552)" style="stroke:#000000; stroke-linecap:round; stroke-linejoin:round; stroke-width:4; stroke-opacity:1; fill:none" points="1364.54,296.441 1364.54,1486.45 1415.61,1486.45 1415.61,296.441 1364.54,296.441 "/>
<path clip-path="url(#clip552)" d="M1415.61 357.838 L1415.61 1486.45 L1466.69 1486.45 L1466.69 357.838 L1415.61 357.838 L1415.61 357.838  Z" fill="#009af9" fill-rule="evenodd" fill-opacity="1"/>
<polyline clip-path="url(#clip552)" style="stroke:#000000; stroke-linecap:round; stroke-linejoin:round; stroke-width:4; stroke-opacity:1; fill:none" points="1415.61,357.838 1415.61,1486.45 1466.69,1486.45 1466.69,357.838 1415.61,357.838 "/>
<path clip-path="url(#clip552)" d="M1466.69 493.271 L1466.69 1486.45 L1517.76 1486.45 L1517.76 493.271 L1466.69 493.271 L1466.69 493.271  Z" fill="#009af9" fill-rule="evenodd" fill-opacity="1"/>
<polyline clip-path="url(#clip552)" style="stroke:#000000; stroke-linecap:round; stroke-linejoin:round; stroke-width:4; stroke-opacity:1; fill:none" points="1466.69,493.271 1466.69,1486.45 1517.76,1486.45 1517.76,493.271 1466.69,493.271 "/>
<path clip-path="url(#clip552)" d="M1517.76 679.266 L1517.76 1486.45 L1568.84 1486.45 L1568.84 679.266 L1517.76 679.266 L1517.76 679.266  Z" fill="#009af9" fill-rule="evenodd" fill-opacity="1"/>
<polyline clip-path="url(#clip552)" style="stroke:#000000; stroke-linecap:round; stroke-linejoin:round; stroke-width:4; stroke-opacity:1; fill:none" points="1517.76,679.266 1517.76,1486.45 1568.84,1486.45 1568.84,679.266 1517.76,679.266 "/>
<path clip-path="url(#clip552)" d="M1568.84 868.872 L1568.84 1486.45 L1619.91 1486.45 L1619.91 868.872 L1568.84 868.872 L1568.84 868.872  Z" fill="#009af9" fill-rule="evenodd" fill-opacity="1"/>
<polyline clip-path="url(#clip552)" style="stroke:#000000; stroke-linecap:round; stroke-linejoin:round; stroke-width:4; stroke-opacity:1; fill:none" points="1568.84,868.872 1568.84,1486.45 1619.91,1486.45 1619.91,868.872 1568.84,868.872 "/>
<path clip-path="url(#clip552)" d="M1619.91 997.082 L1619.91 1486.45 L1670.99 1486.45 L1670.99 997.082 L1619.91 997.082 L1619.91 997.082  Z" fill="#009af9" fill-rule="evenodd" fill-opacity="1"/>
<polyline clip-path="url(#clip552)" style="stroke:#000000; stroke-linecap:round; stroke-linejoin:round; stroke-width:4; stroke-opacity:1; fill:none" points="1619.91,997.082 1619.91,1486.45 1670.99,1486.45 1670.99,997.082 1619.91,997.082 "/>
<path clip-path="url(#clip552)" d="M1670.99 1150.57 L1670.99 1486.45 L1722.06 1486.45 L1722.06 1150.57 L1670.99 1150.57 L1670.99 1150.57  Z" fill="#009af9" fill-rule="evenodd" fill-opacity="1"/>
<polyline clip-path="url(#clip552)" style="stroke:#000000; stroke-linecap:round; stroke-linejoin:round; stroke-width:4; stroke-opacity:1; fill:none" points="1670.99,1150.57 1670.99,1486.45 1722.06,1486.45 1722.06,1150.57 1670.99,1150.57 "/>
<path clip-path="url(#clip552)" d="M1722.06 1242.67 L1722.06 1486.45 L1773.14 1486.45 L1773.14 1242.67 L1722.06 1242.67 L1722.06 1242.67  Z" fill="#009af9" fill-rule="evenodd" fill-opacity="1"/>
<polyline clip-path="url(#clip552)" style="stroke:#000000; stroke-linecap:round; stroke-linejoin:round; stroke-width:4; stroke-opacity:1; fill:none" points="1722.06,1242.67 1722.06,1486.45 1773.14,1486.45 1773.14,1242.67 1722.06,1242.67 "/>
<path clip-path="url(#clip552)" d="M1773.14 1325.73 L1773.14 1486.45 L1824.21 1486.45 L1824.21 1325.73 L1773.14 1325.73 L1773.14 1325.73  Z" fill="#009af9" fill-rule="evenodd" fill-opacity="1"/>
<polyline clip-path="url(#clip552)" style="stroke:#000000; stroke-linecap:round; stroke-linejoin:round; stroke-width:4; stroke-opacity:1; fill:none" points="1773.14,1325.73 1773.14,1486.45 1824.21,1486.45 1824.21,1325.73 1773.14,1325.73 "/>
<path clip-path="url(#clip552)" d="M1824.21 1397.96 L1824.21 1486.45 L1875.29 1486.45 L1875.29 1397.96 L1824.21 1397.96 L1824.21 1397.96  Z" fill="#009af9" fill-rule="evenodd" fill-opacity="1"/>
<polyline clip-path="url(#clip552)" style="stroke:#000000; stroke-linecap:round; stroke-linejoin:round; stroke-width:4; stroke-opacity:1; fill:none" points="1824.21,1397.96 1824.21,1486.45 1875.29,1486.45 1875.29,1397.96 1824.21,1397.96 "/>
<path clip-path="url(#clip552)" d="M1875.29 1428.66 L1875.29 1486.45 L1926.36 1486.45 L1926.36 1428.66 L1875.29 1428.66 L1875.29 1428.66  Z" fill="#009af9" fill-rule="evenodd" fill-opacity="1"/>
<polyline clip-path="url(#clip552)" style="stroke:#000000; stroke-linecap:round; stroke-linejoin:round; stroke-width:4; stroke-opacity:1; fill:none" points="1875.29,1428.66 1875.29,1486.45 1926.36,1486.45 1926.36,1428.66 1875.29,1428.66 "/>
<path clip-path="url(#clip552)" d="M1926.36 1448.53 L1926.36 1486.45 L1977.44 1486.45 L1977.44 1448.53 L1926.36 1448.53 L1926.36 1448.53  Z" fill="#009af9" fill-rule="evenodd" fill-opacity="1"/>
<polyline clip-path="url(#clip552)" style="stroke:#000000; stroke-linecap:round; stroke-linejoin:round; stroke-width:4; stroke-opacity:1; fill:none" points="1926.36,1448.53 1926.36,1486.45 1977.44,1486.45 1977.44,1448.53 1926.36,1448.53 "/>
<path clip-path="url(#clip552)" d="M1977.44 1468.39 L1977.44 1486.45 L2028.51 1486.45 L2028.51 1468.39 L1977.44 1468.39 L1977.44 1468.39  Z" fill="#009af9" fill-rule="evenodd" fill-opacity="1"/>
<polyline clip-path="url(#clip552)" style="stroke:#000000; stroke-linecap:round; stroke-linejoin:round; stroke-width:4; stroke-opacity:1; fill:none" points="1977.44,1468.39 1977.44,1486.45 2028.51,1486.45 2028.51,1468.39 1977.44,1468.39 "/>
<path clip-path="url(#clip552)" d="M2028.51 1473.81 L2028.51 1486.45 L2079.59 1486.45 L2079.59 1473.81 L2028.51 1473.81 L2028.51 1473.81  Z" fill="#009af9" fill-rule="evenodd" fill-opacity="1"/>
<polyline clip-path="url(#clip552)" style="stroke:#000000; stroke-linecap:round; stroke-linejoin:round; stroke-width:4; stroke-opacity:1; fill:none" points="2028.51,1473.81 2028.51,1486.45 2079.59,1486.45 2079.59,1473.81 2028.51,1473.81 "/>
<path clip-path="url(#clip552)" d="M2079.59 1477.42 L2079.59 1486.45 L2130.66 1486.45 L2130.66 1477.42 L2079.59 1477.42 L2079.59 1477.42  Z" fill="#009af9" fill-rule="evenodd" fill-opacity="1"/>
<polyline clip-path="url(#clip552)" style="stroke:#000000; stroke-linecap:round; stroke-linejoin:round; stroke-width:4; stroke-opacity:1; fill:none" points="2079.59,1477.42 2079.59,1486.45 2130.66,1486.45 2130.66,1477.42 2079.59,1477.42 "/>
<path clip-path="url(#clip552)" d="M2130.66 1479.22 L2130.66 1486.45 L2181.74 1486.45 L2181.74 1479.22 L2130.66 1479.22 L2130.66 1479.22  Z" fill="#009af9" fill-rule="evenodd" fill-opacity="1"/>
<polyline clip-path="url(#clip552)" style="stroke:#000000; stroke-linecap:round; stroke-linejoin:round; stroke-width:4; stroke-opacity:1; fill:none" points="2130.66,1479.22 2130.66,1486.45 2181.74,1486.45 2181.74,1479.22 2130.66,1479.22 "/>
<path clip-path="url(#clip552)" d="M2181.74 1482.84 L2181.74 1486.45 L2232.81 1486.45 L2232.81 1482.84 L2181.74 1482.84 L2181.74 1482.84  Z" fill="#009af9" fill-rule="evenodd" fill-opacity="1"/>
<polyline clip-path="url(#clip552)" style="stroke:#000000; stroke-linecap:round; stroke-linejoin:round; stroke-width:4; stroke-opacity:1; fill:none" points="2181.74,1482.84 2181.74,1486.45 2232.81,1486.45 2232.81,1482.84 2181.74,1482.84 "/>
<circle clip-path="url(#clip552)" style="fill:#009af9; stroke:none; fill-opacity:0" cx="317.497" cy="1484.64" r="2"/>
<circle clip-path="url(#clip552)" style="fill:#009af9; stroke:none; fill-opacity:0" cx="368.572" cy="1479.22" r="2"/>
<circle clip-path="url(#clip552)" style="fill:#009af9; stroke:none; fill-opacity:0" cx="419.647" cy="1479.22" r="2"/>
<circle clip-path="url(#clip552)" style="fill:#009af9; stroke:none; fill-opacity:0" cx="470.722" cy="1475.61" r="2"/>
<circle clip-path="url(#clip552)" style="fill:#009af9; stroke:none; fill-opacity:0" cx="521.797" cy="1470.2" r="2"/>
<circle clip-path="url(#clip552)" style="fill:#009af9; stroke:none; fill-opacity:0" cx="572.872" cy="1444.92" r="2"/>
<circle clip-path="url(#clip552)" style="fill:#009af9; stroke:none; fill-opacity:0" cx="623.947" cy="1426.86" r="2"/>
<circle clip-path="url(#clip552)" style="fill:#009af9; stroke:none; fill-opacity:0" cx="675.022" cy="1378.1" r="2"/>
<circle clip-path="url(#clip552)" style="fill:#009af9; stroke:none; fill-opacity:0" cx="726.097" cy="1327.54" r="2"/>
<circle clip-path="url(#clip552)" style="fill:#009af9; stroke:none; fill-opacity:0" cx="777.172" cy="1249.89" r="2"/>
<circle clip-path="url(#clip552)" style="fill:#009af9; stroke:none; fill-opacity:0" cx="828.247" cy="1148.77" r="2"/>
<circle clip-path="url(#clip552)" style="fill:#009af9; stroke:none; fill-opacity:0" cx="879.323" cy="989.859" r="2"/>
<circle clip-path="url(#clip552)" style="fill:#009af9; stroke:none; fill-opacity:0" cx="930.398" cy="811.088" r="2"/>
<circle clip-path="url(#clip552)" style="fill:#009af9; stroke:none; fill-opacity:0" cx="981.473" cy="666.625" r="2"/>
<circle clip-path="url(#clip552)" style="fill:#009af9; stroke:none; fill-opacity:0" cx="1032.55" cy="509.523" r="2"/>
<circle clip-path="url(#clip552)" style="fill:#009af9; stroke:none; fill-opacity:0" cx="1083.62" cy="395.759" r="2"/>
<circle clip-path="url(#clip552)" style="fill:#009af9; stroke:none; fill-opacity:0" cx="1134.7" cy="242.268" r="2"/>
<circle clip-path="url(#clip552)" style="fill:#009af9; stroke:none; fill-opacity:0" cx="1185.77" cy="47.2441" r="2"/>
<circle clip-path="url(#clip552)" style="fill:#009af9; stroke:none; fill-opacity:0" cx="1236.85" cy="76.1365" r="2"/>
<circle clip-path="url(#clip552)" style="fill:#009af9; stroke:none; fill-opacity:0" cx="1287.92" cy="115.864" r="2"/>
<circle clip-path="url(#clip552)" style="fill:#009af9; stroke:none; fill-opacity:0" cx="1339" cy="139.339" r="2"/>
<circle clip-path="url(#clip552)" style="fill:#009af9; stroke:none; fill-opacity:0" cx="1390.07" cy="296.441" r="2"/>
<circle clip-path="url(#clip552)" style="fill:#009af9; stroke:none; fill-opacity:0" cx="1441.15" cy="357.838" r="2"/>
<circle clip-path="url(#clip552)" style="fill:#009af9; stroke:none; fill-opacity:0" cx="1492.22" cy="493.271" r="2"/>
<circle clip-path="url(#clip552)" style="fill:#009af9; stroke:none; fill-opacity:0" cx="1543.3" cy="679.266" r="2"/>
<circle clip-path="url(#clip552)" style="fill:#009af9; stroke:none; fill-opacity:0" cx="1594.37" cy="868.872" r="2"/>
<circle clip-path="url(#clip552)" style="fill:#009af9; stroke:none; fill-opacity:0" cx="1645.45" cy="997.082" r="2"/>
<circle clip-path="url(#clip552)" style="fill:#009af9; stroke:none; fill-opacity:0" cx="1696.52" cy="1150.57" r="2"/>
<circle clip-path="url(#clip552)" style="fill:#009af9; stroke:none; fill-opacity:0" cx="1747.6" cy="1242.67" r="2"/>
<circle clip-path="url(#clip552)" style="fill:#009af9; stroke:none; fill-opacity:0" cx="1798.67" cy="1325.73" r="2"/>
<circle clip-path="url(#clip552)" style="fill:#009af9; stroke:none; fill-opacity:0" cx="1849.75" cy="1397.96" r="2"/>
<circle clip-path="url(#clip552)" style="fill:#009af9; stroke:none; fill-opacity:0" cx="1900.82" cy="1428.66" r="2"/>
<circle clip-path="url(#clip552)" style="fill:#009af9; stroke:none; fill-opacity:0" cx="1951.9" cy="1448.53" r="2"/>
<circle clip-path="url(#clip552)" style="fill:#009af9; stroke:none; fill-opacity:0" cx="2002.97" cy="1468.39" r="2"/>
<circle clip-path="url(#clip552)" style="fill:#009af9; stroke:none; fill-opacity:0" cx="2054.05" cy="1473.81" r="2"/>
<circle clip-path="url(#clip552)" style="fill:#009af9; stroke:none; fill-opacity:0" cx="2105.12" cy="1477.42" r="2"/>
<circle clip-path="url(#clip552)" style="fill:#009af9; stroke:none; fill-opacity:0" cx="2156.2" cy="1479.22" r="2"/>
<circle clip-path="url(#clip552)" style="fill:#009af9; stroke:none; fill-opacity:0" cx="2207.27" cy="1482.84" r="2"/>
</svg>
