<?xml version="1.0" encoding="utf-8"?>
<svg xmlns="http://www.w3.org/2000/svg" xmlns:xlink="http://www.w3.org/1999/xlink" width="600" height="400" viewBox="0 0 2400 1600">
<defs>
  <clipPath id="clip020">
    <rect x="0" y="0" width="2400" height="1600"/>
  </clipPath>
</defs>
<path clip-path="url(#clip020)" d="M0 1600 L2400 1600 L2400 0 L0 0  Z" fill="#ffffff" fill-rule="evenodd" fill-opacity="1"/>
<defs>
  <clipPath id="clip021">
    <rect x="480" y="0" width="1681" height="1600"/>
  </clipPath>
</defs>
<path clip-path="url(#clip020)" d="M172.015 1486.45 L2352.76 1486.45 L2352.76 47.2441 L172.015 47.2441  Z" fill="#ffffff" fill-rule="evenodd" fill-opacity="1"/>
<defs>
  <clipPath id="clip022">
    <rect x="172" y="47" width="2182" height="1440"/>
  </clipPath>
</defs>
<polyline clip-path="url(#clip022)" style="stroke:#000000; stroke-linecap:round; stroke-linejoin:round; stroke-width:2; stroke-opacity:0.1; fill:none" points="240.884,1486.45 240.884,47.2441 "/>
<polyline clip-path="url(#clip022)" style="stroke:#000000; stroke-linecap:round; stroke-linejoin:round; stroke-width:2; stroke-opacity:0.1; fill:none" points="751.635,1486.45 751.635,47.2441 "/>
<polyline clip-path="url(#clip022)" style="stroke:#000000; stroke-linecap:round; stroke-linejoin:round; stroke-width:2; stroke-opacity:0.1; fill:none" points="1262.39,1486.45 1262.39,47.2441 "/>
<polyline clip-path="url(#clip022)" style="stroke:#000000; stroke-linecap:round; stroke-linejoin:round; stroke-width:2; stroke-opacity:0.1; fill:none" points="1773.14,1486.45 1773.14,47.2441 "/>
<polyline clip-path="url(#clip022)" style="stroke:#000000; stroke-linecap:round; stroke-linejoin:round; stroke-width:2; stroke-opacity:0.1; fill:none" points="2283.89,1486.45 2283.89,47.2441 "/>
<polyline clip-path="url(#clip020)" style="stroke:#000000; stroke-linecap:round; stroke-linejoin:round; stroke-width:4; stroke-opacity:1; fill:none" points="172.015,1486.45 2352.76,1486.45 "/>
<polyline clip-path="url(#clip020)" style="stroke:#000000; stroke-linecap:round; stroke-linejoin:round; stroke-width:4; stroke-opacity:1; fill:none" points="240.884,1486.45 240.884,1467.55 "/>
<polyline clip-path="url(#clip020)" style="stroke:#000000; stroke-linecap:round; stroke-linejoin:round; stroke-width:4; stroke-opacity:1; fill:none" points="751.635,1486.45 751.635,1467.55 "/>
<polyline clip-path="url(#clip020)" style="stroke:#000000; stroke-linecap:round; stroke-linejoin:round; stroke-width:4; stroke-opacity:1; fill:none" points="1262.39,1486.45 1262.39,1467.55 "/>
<polyline clip-path="url(#clip020)" style="stroke:#000000; stroke-linecap:round; stroke-linejoin:round; stroke-width:4; stroke-opacity:1; fill:none" points="1773.14,1486.45 1773.14,1467.55 "/>
<polyline clip-path="url(#clip020)" style="stroke:#000000; stroke-linecap:round; stroke-linejoin:round; stroke-width:4; stroke-opacity:1; fill:none" points="2283.89,1486.45 2283.89,1467.55 "/>
<path clip-path="url(#clip020)" d="M210.827 1532.02 L240.502 1532.02 L240.502 1535.95 L210.827 1535.95 L210.827 1532.02 Z" fill="#000000" fill-rule="nonzero" fill-opacity="1" /><path clip-path="url(#clip020)" d="M254.623 1544.91 L270.942 1544.91 L270.942 1548.85 L248.998 1548.85 L248.998 1544.91 Q251.66 1542.16 256.243 1537.53 Q260.85 1532.88 262.03 1531.53 Q264.275 1529.01 265.155 1527.27 Q266.058 1525.51 266.058 1523.82 Q266.058 1521.07 264.113 1519.33 Q262.192 1517.6 259.09 1517.6 Q256.891 1517.6 254.438 1518.36 Q252.007 1519.13 249.229 1520.68 L249.229 1515.95 Q252.053 1514.82 254.507 1514.24 Q256.961 1513.66 258.998 1513.66 Q264.368 1513.66 267.563 1516.35 Q270.757 1519.03 270.757 1523.52 Q270.757 1525.65 269.947 1527.57 Q269.16 1529.47 267.053 1532.07 Q266.475 1532.74 263.373 1535.95 Q260.271 1539.15 254.623 1544.91 Z" fill="#000000" fill-rule="nonzero" fill-opacity="1" /><path clip-path="url(#clip020)" d="M751.635 1517.37 Q748.024 1517.37 746.195 1520.93 Q744.39 1524.47 744.39 1531.6 Q744.39 1538.71 746.195 1542.27 Q748.024 1545.82 751.635 1545.82 Q755.269 1545.82 757.075 1542.27 Q758.903 1538.71 758.903 1531.6 Q758.903 1524.47 757.075 1520.93 Q755.269 1517.37 751.635 1517.37 M751.635 1513.66 Q757.445 1513.66 760.501 1518.27 Q763.579 1522.85 763.579 1531.6 Q763.579 1540.33 760.501 1544.94 Q757.445 1549.52 751.635 1549.52 Q745.825 1549.52 742.746 1544.94 Q739.691 1540.33 739.691 1531.6 Q739.691 1522.85 742.746 1518.27 Q745.825 1513.66 751.635 1513.66 Z" fill="#000000" fill-rule="nonzero" fill-opacity="1" /><path clip-path="url(#clip020)" d="M1257.04 1544.91 L1273.36 1544.91 L1273.36 1548.85 L1251.41 1548.85 L1251.41 1544.91 Q1254.08 1542.16 1258.66 1537.53 Q1263.26 1532.88 1264.45 1531.53 Q1266.69 1529.01 1267.57 1527.27 Q1268.47 1525.51 1268.47 1523.82 Q1268.47 1521.07 1266.53 1519.33 Q1264.61 1517.6 1261.51 1517.6 Q1259.31 1517.6 1256.85 1518.36 Q1254.42 1519.13 1251.64 1520.68 L1251.64 1515.95 Q1254.47 1514.82 1256.92 1514.24 Q1259.38 1513.66 1261.41 1513.66 Q1266.78 1513.66 1269.98 1516.35 Q1273.17 1519.03 1273.17 1523.52 Q1273.17 1525.65 1272.36 1527.57 Q1271.58 1529.47 1269.47 1532.07 Q1268.89 1532.74 1265.79 1535.95 Q1262.69 1539.15 1257.04 1544.91 Z" fill="#000000" fill-rule="nonzero" fill-opacity="1" /><path clip-path="url(#clip020)" d="M1776.15 1518.36 L1764.34 1536.81 L1776.15 1536.81 L1776.15 1518.36 M1774.92 1514.29 L1780.8 1514.29 L1780.8 1536.81 L1785.73 1536.81 L1785.73 1540.7 L1780.8 1540.7 L1780.8 1548.85 L1776.15 1548.85 L1776.15 1540.7 L1760.54 1540.7 L1760.54 1536.19 L1774.92 1514.29 Z" fill="#000000" fill-rule="nonzero" fill-opacity="1" /><path clip-path="url(#clip020)" d="M2284.29 1529.7 Q2281.14 1529.7 2279.29 1531.86 Q2277.46 1534.01 2277.46 1537.76 Q2277.46 1541.49 2279.29 1543.66 Q2281.14 1545.82 2284.29 1545.82 Q2287.44 1545.82 2289.27 1543.66 Q2291.12 1541.49 2291.12 1537.76 Q2291.12 1534.01 2289.27 1531.86 Q2287.44 1529.7 2284.29 1529.7 M2293.57 1515.05 L2293.57 1519.31 Q2291.81 1518.48 2290.01 1518.04 Q2288.23 1517.6 2286.47 1517.6 Q2281.84 1517.6 2279.38 1520.72 Q2276.95 1523.85 2276.61 1530.17 Q2277.97 1528.15 2280.03 1527.09 Q2282.09 1526 2284.57 1526 Q2289.78 1526 2292.79 1529.17 Q2295.82 1532.32 2295.82 1537.76 Q2295.82 1543.08 2292.67 1546.3 Q2289.52 1549.52 2284.29 1549.52 Q2278.3 1549.52 2275.12 1544.94 Q2271.95 1540.33 2271.95 1531.6 Q2271.95 1523.41 2275.84 1518.55 Q2279.73 1513.66 2286.28 1513.66 Q2288.04 1513.66 2289.82 1514.01 Q2291.63 1514.36 2293.57 1515.05 Z" fill="#000000" fill-rule="nonzero" fill-opacity="1" /><polyline clip-path="url(#clip022)" style="stroke:#000000; stroke-linecap:round; stroke-linejoin:round; stroke-width:2; stroke-opacity:0.1; fill:none" points="172.015,1486.45 2352.76,1486.45 "/>
<polyline clip-path="url(#clip022)" style="stroke:#000000; stroke-linecap:round; stroke-linejoin:round; stroke-width:2; stroke-opacity:0.1; fill:none" points="172.015,1123.47 2352.76,1123.47 "/>
<polyline clip-path="url(#clip022)" style="stroke:#000000; stroke-linecap:round; stroke-linejoin:round; stroke-width:2; stroke-opacity:0.1; fill:none" points="172.015,760.494 2352.76,760.494 "/>
<polyline clip-path="url(#clip022)" style="stroke:#000000; stroke-linecap:round; stroke-linejoin:round; stroke-width:2; stroke-opacity:0.1; fill:none" points="172.015,397.517 2352.76,397.517 "/>
<polyline clip-path="url(#clip020)" style="stroke:#000000; stroke-linecap:round; stroke-linejoin:round; stroke-width:4; stroke-opacity:1; fill:none" points="172.015,1486.45 172.015,47.2441 "/>
<polyline clip-path="url(#clip020)" style="stroke:#000000; stroke-linecap:round; stroke-linejoin:round; stroke-width:4; stroke-opacity:1; fill:none" points="172.015,1486.45 190.912,1486.45 "/>
<polyline clip-path="url(#clip020)" style="stroke:#000000; stroke-linecap:round; stroke-linejoin:round; stroke-width:4; stroke-opacity:1; fill:none" points="172.015,1123.47 190.912,1123.47 "/>
<polyline clip-path="url(#clip020)" style="stroke:#000000; stroke-linecap:round; stroke-linejoin:round; stroke-width:4; stroke-opacity:1; fill:none" points="172.015,760.494 190.912,760.494 "/>
<polyline clip-path="url(#clip020)" style="stroke:#000000; stroke-linecap:round; stroke-linejoin:round; stroke-width:4; stroke-opacity:1; fill:none" points="172.015,397.517 190.912,397.517 "/>
<path clip-path="url(#clip020)" d="M124.07 1472.25 Q120.459 1472.25 118.631 1475.81 Q116.825 1479.35 116.825 1486.48 Q116.825 1493.59 118.631 1497.15 Q120.459 1500.7 124.07 1500.7 Q127.705 1500.7 129.51 1497.15 Q131.339 1493.59 131.339 1486.48 Q131.339 1479.35 129.51 1475.81 Q127.705 1472.25 124.07 1472.25 M124.07 1468.54 Q129.881 1468.54 132.936 1473.15 Q136.015 1477.73 136.015 1486.48 Q136.015 1495.21 132.936 1499.82 Q129.881 1504.4 124.07 1504.4 Q118.26 1504.4 115.182 1499.82 Q112.126 1495.21 112.126 1486.48 Q112.126 1477.73 115.182 1473.15 Q118.26 1468.54 124.07 1468.54 Z" fill="#000000" fill-rule="nonzero" fill-opacity="1" /><path clip-path="url(#clip020)" d="M57.7745 1136.82 L74.0939 1136.82 L74.0939 1140.75 L52.1495 1140.75 L52.1495 1136.82 Q54.8115 1134.06 59.3949 1129.43 Q64.0013 1124.78 65.1819 1123.44 Q67.4272 1120.91 68.3068 1119.18 Q69.2096 1117.42 69.2096 1115.73 Q69.2096 1112.97 67.2652 1111.24 Q65.3439 1109.5 62.2421 1109.5 Q60.043 1109.5 57.5893 1110.26 Q55.1588 1111.03 52.381 1112.58 L52.381 1107.86 Q55.2051 1106.72 57.6588 1106.14 Q60.1124 1105.57 62.1495 1105.57 Q67.5198 1105.57 70.7142 1108.25 Q73.9087 1110.94 73.9087 1115.43 Q73.9087 1117.56 73.0985 1119.48 Q72.3115 1121.38 70.205 1123.97 Q69.6263 1124.64 66.5245 1127.86 Q63.4226 1131.05 57.7745 1136.82 Z" fill="#000000" fill-rule="nonzero" fill-opacity="1" /><path clip-path="url(#clip020)" d="M93.9086 1109.27 Q90.2975 1109.27 88.4688 1112.83 Q86.6632 1116.38 86.6632 1123.51 Q86.6632 1130.61 88.4688 1134.18 Q90.2975 1137.72 93.9086 1137.72 Q97.5428 1137.72 99.3483 1134.18 Q101.177 1130.61 101.177 1123.51 Q101.177 1116.38 99.3483 1112.83 Q97.5428 1109.27 93.9086 1109.27 M93.9086 1105.57 Q99.7187 1105.57 102.774 1110.17 Q105.853 1114.76 105.853 1123.51 Q105.853 1132.23 102.774 1136.84 Q99.7187 1141.42 93.9086 1141.42 Q88.0984 1141.42 85.0197 1136.84 Q81.9642 1132.23 81.9642 1123.51 Q81.9642 1114.76 85.0197 1110.17 Q88.0984 1105.57 93.9086 1105.57 Z" fill="#000000" fill-rule="nonzero" fill-opacity="1" /><path clip-path="url(#clip020)" d="M124.07 1109.27 Q120.459 1109.27 118.631 1112.83 Q116.825 1116.38 116.825 1123.51 Q116.825 1130.61 118.631 1134.18 Q120.459 1137.72 124.07 1137.72 Q127.705 1137.72 129.51 1134.18 Q131.339 1130.61 131.339 1123.51 Q131.339 1116.38 129.51 1112.83 Q127.705 1109.27 124.07 1109.27 M124.07 1105.57 Q129.881 1105.57 132.936 1110.17 Q136.015 1114.76 136.015 1123.51 Q136.015 1132.23 132.936 1136.84 Q129.881 1141.42 124.07 1141.42 Q118.26 1141.42 115.182 1136.84 Q112.126 1132.23 112.126 1123.51 Q112.126 1114.76 115.182 1110.17 Q118.26 1105.57 124.07 1105.57 Z" fill="#000000" fill-rule="nonzero" fill-opacity="1" /><path clip-path="url(#clip020)" d="M66.5939 747.288 L54.7884 765.737 L66.5939 765.737 L66.5939 747.288 M65.367 743.214 L71.2466 743.214 L71.2466 765.737 L76.1772 765.737 L76.1772 769.626 L71.2466 769.626 L71.2466 777.774 L66.5939 777.774 L66.5939 769.626 L50.9921 769.626 L50.9921 765.112 L65.367 743.214 Z" fill="#000000" fill-rule="nonzero" fill-opacity="1" /><path clip-path="url(#clip020)" d="M93.9086 746.293 Q90.2975 746.293 88.4688 749.857 Q86.6632 753.399 86.6632 760.529 Q86.6632 767.635 88.4688 771.2 Q90.2975 774.741 93.9086 774.741 Q97.5428 774.741 99.3483 771.2 Q101.177 767.635 101.177 760.529 Q101.177 753.399 99.3483 749.857 Q97.5428 746.293 93.9086 746.293 M93.9086 742.589 Q99.7187 742.589 102.774 747.195 Q105.853 751.779 105.853 760.529 Q105.853 769.255 102.774 773.862 Q99.7187 778.445 93.9086 778.445 Q88.0984 778.445 85.0197 773.862 Q81.9642 769.255 81.9642 760.529 Q81.9642 751.779 85.0197 747.195 Q88.0984 742.589 93.9086 742.589 Z" fill="#000000" fill-rule="nonzero" fill-opacity="1" /><path clip-path="url(#clip020)" d="M124.07 746.293 Q120.459 746.293 118.631 749.857 Q116.825 753.399 116.825 760.529 Q116.825 767.635 118.631 771.2 Q120.459 774.741 124.07 774.741 Q127.705 774.741 129.51 771.2 Q131.339 767.635 131.339 760.529 Q131.339 753.399 129.51 749.857 Q127.705 746.293 124.07 746.293 M124.07 742.589 Q129.881 742.589 132.936 747.195 Q136.015 751.779 136.015 760.529 Q136.015 769.255 132.936 773.862 Q129.881 778.445 124.07 778.445 Q118.26 778.445 115.182 773.862 Q112.126 769.255 112.126 760.529 Q112.126 751.779 115.182 747.195 Q118.26 742.589 124.07 742.589 Z" fill="#000000" fill-rule="nonzero" fill-opacity="1" /><path clip-path="url(#clip020)" d="M64.3254 395.653 Q61.1773 395.653 59.3254 397.806 Q57.4967 399.959 57.4967 403.709 Q57.4967 407.436 59.3254 409.612 Q61.1773 411.765 64.3254 411.765 Q67.4735 411.765 69.3022 409.612 Q71.1541 407.436 71.1541 403.709 Q71.1541 399.959 69.3022 397.806 Q67.4735 395.653 64.3254 395.653 M73.6077 381.001 L73.6077 385.26 Q71.8485 384.427 70.0429 383.987 Q68.2606 383.547 66.5013 383.547 Q61.8717 383.547 59.418 386.672 Q56.9875 389.797 56.6402 396.116 Q58.006 394.103 60.0662 393.038 Q62.1263 391.95 64.6032 391.95 Q69.8115 391.95 72.8207 395.121 Q75.8531 398.269 75.8531 403.709 Q75.8531 409.033 72.705 412.251 Q69.5568 415.468 64.3254 415.468 Q58.33 415.468 55.1588 410.885 Q51.9875 406.278 51.9875 397.552 Q51.9875 389.357 55.8764 384.496 Q59.7652 379.612 66.3161 379.612 Q68.0754 379.612 69.8578 379.959 Q71.6633 380.306 73.6077 381.001 Z" fill="#000000" fill-rule="nonzero" fill-opacity="1" /><path clip-path="url(#clip020)" d="M93.9086 383.316 Q90.2975 383.316 88.4688 386.88 Q86.6632 390.422 86.6632 397.552 Q86.6632 404.658 88.4688 408.223 Q90.2975 411.765 93.9086 411.765 Q97.5428 411.765 99.3483 408.223 Q101.177 404.658 101.177 397.552 Q101.177 390.422 99.3483 386.88 Q97.5428 383.316 93.9086 383.316 M93.9086 379.612 Q99.7187 379.612 102.774 384.218 Q105.853 388.802 105.853 397.552 Q105.853 406.278 102.774 410.885 Q99.7187 415.468 93.9086 415.468 Q88.0984 415.468 85.0197 410.885 Q81.9642 406.278 81.9642 397.552 Q81.9642 388.802 85.0197 384.218 Q88.0984 379.612 93.9086 379.612 Z" fill="#000000" fill-rule="nonzero" fill-opacity="1" /><path clip-path="url(#clip020)" d="M124.07 383.316 Q120.459 383.316 118.631 386.88 Q116.825 390.422 116.825 397.552 Q116.825 404.658 118.631 408.223 Q120.459 411.765 124.07 411.765 Q127.705 411.765 129.51 408.223 Q131.339 404.658 131.339 397.552 Q131.339 390.422 129.51 386.88 Q127.705 383.316 124.07 383.316 M124.07 379.612 Q129.881 379.612 132.936 384.218 Q136.015 388.802 136.015 397.552 Q136.015 406.278 132.936 410.885 Q129.881 415.468 124.07 415.468 Q118.26 415.468 115.182 410.885 Q112.126 406.278 112.126 397.552 Q112.126 388.802 115.182 384.218 Q118.26 379.612 124.07 379.612 Z" fill="#000000" fill-rule="nonzero" fill-opacity="1" /><path clip-path="url(#clip022)" d="M291.959 1484.63 L291.959 1486.45 L343.035 1486.45 L343.035 1484.63 L291.959 1484.63 L291.959 1484.63  Z" fill="#009af9" fill-rule="evenodd" fill-opacity="1"/>
<polyline clip-path="url(#clip022)" style="stroke:#000000; stroke-linecap:round; stroke-linejoin:round; stroke-width:4; stroke-opacity:1; fill:none" points="291.959,1484.63 291.959,1486.45 343.035,1486.45 343.035,1484.63 291.959,1484.63 "/>
<path clip-path="url(#clip022)" d="M343.035 1482.82 L343.035 1486.45 L394.11 1486.45 L394.11 1482.82 L343.035 1482.82 L343.035 1482.82  Z" fill="#009af9" fill-rule="evenodd" fill-opacity="1"/>
<polyline clip-path="url(#clip022)" style="stroke:#000000; stroke-linecap:round; stroke-linejoin:round; stroke-width:4; stroke-opacity:1; fill:none" points="343.035,1482.82 343.035,1486.45 394.11,1486.45 394.11,1482.82 343.035,1482.82 "/>
<path clip-path="url(#clip022)" d="M394.11 1481 L394.11 1486.45 L445.185 1486.45 L445.185 1481 L394.11 1481 L394.11 1481  Z" fill="#009af9" fill-rule="evenodd" fill-opacity="1"/>
<polyline clip-path="url(#clip022)" style="stroke:#000000; stroke-linecap:round; stroke-linejoin:round; stroke-width:4; stroke-opacity:1; fill:none" points="394.11,1481 394.11,1486.45 445.185,1486.45 445.185,1481 394.11,1481 "/>
<path clip-path="url(#clip022)" d="M445.185 1482.82 L445.185 1486.45 L496.26 1486.45 L496.26 1482.82 L445.185 1482.82 L445.185 1482.82  Z" fill="#009af9" fill-rule="evenodd" fill-opacity="1"/>
<polyline clip-path="url(#clip022)" style="stroke:#000000; stroke-linecap:round; stroke-linejoin:round; stroke-width:4; stroke-opacity:1; fill:none" points="445.185,1482.82 445.185,1486.45 496.26,1486.45 496.26,1482.82 445.185,1482.82 "/>
<path clip-path="url(#clip022)" d="M496.26 1464.67 L496.26 1486.45 L547.335 1486.45 L547.335 1464.67 L496.26 1464.67 L496.26 1464.67  Z" fill="#009af9" fill-rule="evenodd" fill-opacity="1"/>
<polyline clip-path="url(#clip022)" style="stroke:#000000; stroke-linecap:round; stroke-linejoin:round; stroke-width:4; stroke-opacity:1; fill:none" points="496.26,1464.67 496.26,1486.45 547.335,1486.45 547.335,1464.67 496.26,1464.67 "/>
<path clip-path="url(#clip022)" d="M547.335 1439.26 L547.335 1486.45 L598.41 1486.45 L598.41 1439.26 L547.335 1439.26 L547.335 1439.26  Z" fill="#009af9" fill-rule="evenodd" fill-opacity="1"/>
<polyline clip-path="url(#clip022)" style="stroke:#000000; stroke-linecap:round; stroke-linejoin:round; stroke-width:4; stroke-opacity:1; fill:none" points="547.335,1439.26 547.335,1486.45 598.41,1486.45 598.41,1439.26 547.335,1439.26 "/>
<path clip-path="url(#clip022)" d="M598.41 1413.85 L598.41 1486.45 L649.485 1486.45 L649.485 1413.85 L598.41 1413.85 L598.41 1413.85  Z" fill="#009af9" fill-rule="evenodd" fill-opacity="1"/>
<polyline clip-path="url(#clip022)" style="stroke:#000000; stroke-linecap:round; stroke-linejoin:round; stroke-width:4; stroke-opacity:1; fill:none" points="598.41,1413.85 598.41,1486.45 649.485,1486.45 649.485,1413.85 598.41,1413.85 "/>
<path clip-path="url(#clip022)" d="M649.485 1390.26 L649.485 1486.45 L700.56 1486.45 L700.56 1390.26 L649.485 1390.26 L649.485 1390.26  Z" fill="#009af9" fill-rule="evenodd" fill-opacity="1"/>
<polyline clip-path="url(#clip022)" style="stroke:#000000; stroke-linecap:round; stroke-linejoin:round; stroke-width:4; stroke-opacity:1; fill:none" points="649.485,1390.26 649.485,1486.45 700.56,1486.45 700.56,1390.26 649.485,1390.26 "/>
<path clip-path="url(#clip022)" d="M700.56 1285 L700.56 1486.45 L751.635 1486.45 L751.635 1285 L700.56 1285 L700.56 1285  Z" fill="#009af9" fill-rule="evenodd" fill-opacity="1"/>
<polyline clip-path="url(#clip022)" style="stroke:#000000; stroke-linecap:round; stroke-linejoin:round; stroke-width:4; stroke-opacity:1; fill:none" points="700.56,1285 700.56,1486.45 751.635,1486.45 751.635,1285 700.56,1285 "/>
<path clip-path="url(#clip022)" d="M751.635 1274.11 L751.635 1486.45 L802.71 1486.45 L802.71 1274.11 L751.635 1274.11 L751.635 1274.11  Z" fill="#009af9" fill-rule="evenodd" fill-opacity="1"/>
<polyline clip-path="url(#clip022)" style="stroke:#000000; stroke-linecap:round; stroke-linejoin:round; stroke-width:4; stroke-opacity:1; fill:none" points="751.635,1274.11 751.635,1486.45 802.71,1486.45 802.71,1274.11 751.635,1274.11 "/>
<path clip-path="url(#clip022)" d="M802.71 1130.73 L802.71 1486.45 L853.785 1486.45 L853.785 1130.73 L802.71 1130.73 L802.71 1130.73  Z" fill="#009af9" fill-rule="evenodd" fill-opacity="1"/>
<polyline clip-path="url(#clip022)" style="stroke:#000000; stroke-linecap:round; stroke-linejoin:round; stroke-width:4; stroke-opacity:1; fill:none" points="802.71,1130.73 802.71,1486.45 853.785,1486.45 853.785,1130.73 802.71,1130.73 "/>
<path clip-path="url(#clip022)" d="M853.785 981.91 L853.785 1486.45 L904.86 1486.45 L904.86 981.91 L853.785 981.91 L853.785 981.91  Z" fill="#009af9" fill-rule="evenodd" fill-opacity="1"/>
<polyline clip-path="url(#clip022)" style="stroke:#000000; stroke-linecap:round; stroke-linejoin:round; stroke-width:4; stroke-opacity:1; fill:none" points="853.785,981.91 853.785,1486.45 904.86,1486.45 904.86,981.91 853.785,981.91 "/>
<path clip-path="url(#clip022)" d="M904.86 891.166 L904.86 1486.45 L955.935 1486.45 L955.935 891.166 L904.86 891.166 L904.86 891.166  Z" fill="#009af9" fill-rule="evenodd" fill-opacity="1"/>
<polyline clip-path="url(#clip022)" style="stroke:#000000; stroke-linecap:round; stroke-linejoin:round; stroke-width:4; stroke-opacity:1; fill:none" points="904.86,891.166 904.86,1486.45 955.935,1486.45 955.935,891.166 904.86,891.166 "/>
<path clip-path="url(#clip022)" d="M955.935 608.044 L955.935 1486.45 L1007.01 1486.45 L1007.01 608.044 L955.935 608.044 L955.935 608.044  Z" fill="#009af9" fill-rule="evenodd" fill-opacity="1"/>
<polyline clip-path="url(#clip022)" style="stroke:#000000; stroke-linecap:round; stroke-linejoin:round; stroke-width:4; stroke-opacity:1; fill:none" points="955.935,608.044 955.935,1486.45 1007.01,1486.45 1007.01,608.044 955.935,608.044 "/>
<path clip-path="url(#clip022)" d="M1007.01 535.448 L1007.01 1486.45 L1058.09 1486.45 L1058.09 535.448 L1007.01 535.448 L1007.01 535.448  Z" fill="#009af9" fill-rule="evenodd" fill-opacity="1"/>
<polyline clip-path="url(#clip022)" style="stroke:#000000; stroke-linecap:round; stroke-linejoin:round; stroke-width:4; stroke-opacity:1; fill:none" points="1007.01,535.448 1007.01,1486.45 1058.09,1486.45 1058.09,535.448 1007.01,535.448 "/>
<path clip-path="url(#clip022)" d="M1058.09 355.775 L1058.09 1486.45 L1109.16 1486.45 L1109.16 355.775 L1058.09 355.775 L1058.09 355.775  Z" fill="#009af9" fill-rule="evenodd" fill-opacity="1"/>
<polyline clip-path="url(#clip022)" style="stroke:#000000; stroke-linecap:round; stroke-linejoin:round; stroke-width:4; stroke-opacity:1; fill:none" points="1058.09,355.775 1058.09,1486.45 1109.16,1486.45 1109.16,355.775 1058.09,355.775 "/>
<path clip-path="url(#clip022)" d="M1109.16 141.618 L1109.16 1486.45 L1160.24 1486.45 L1160.24 141.618 L1109.16 141.618 L1109.16 141.618  Z" fill="#009af9" fill-rule="evenodd" fill-opacity="1"/>
<polyline clip-path="url(#clip022)" style="stroke:#000000; stroke-linecap:round; stroke-linejoin:round; stroke-width:4; stroke-opacity:1; fill:none" points="1109.16,141.618 1109.16,1486.45 1160.24,1486.45 1160.24,141.618 1109.16,141.618 "/>
<path clip-path="url(#clip022)" d="M1160.24 141.618 L1160.24 1486.45 L1211.31 1486.45 L1211.31 141.618 L1160.24 141.618 L1160.24 141.618  Z" fill="#009af9" fill-rule="evenodd" fill-opacity="1"/>
<polyline clip-path="url(#clip022)" style="stroke:#000000; stroke-linecap:round; stroke-linejoin:round; stroke-width:4; stroke-opacity:1; fill:none" points="1160.24,141.618 1160.24,1486.45 1211.31,1486.45 1211.31,141.618 1160.24,141.618 "/>
<path clip-path="url(#clip022)" d="M1211.31 72.6525 L1211.31 1486.45 L1262.39 1486.45 L1262.39 72.6525 L1211.31 72.6525 L1211.31 72.6525  Z" fill="#009af9" fill-rule="evenodd" fill-opacity="1"/>
<polyline clip-path="url(#clip022)" style="stroke:#000000; stroke-linecap:round; stroke-linejoin:round; stroke-width:4; stroke-opacity:1; fill:none" points="1211.31,72.6525 1211.31,1486.45 1262.39,1486.45 1262.39,72.6525 1211.31,72.6525 "/>
<path clip-path="url(#clip022)" d="M1262.39 47.2441 L1262.39 1486.45 L1313.46 1486.45 L1313.46 47.2441 L1262.39 47.2441 L1262.39 47.2441  Z" fill="#009af9" fill-rule="evenodd" fill-opacity="1"/>
<polyline clip-path="url(#clip022)" style="stroke:#000000; stroke-linecap:round; stroke-linejoin:round; stroke-width:4; stroke-opacity:1; fill:none" points="1262.39,47.2441 1262.39,1486.45 1313.46,1486.45 1313.46,47.2441 1262.39,47.2441 "/>
<path clip-path="url(#clip022)" d="M1313.46 92.6162 L1313.46 1486.45 L1364.54 1486.45 L1364.54 92.6162 L1313.46 92.6162 L1313.46 92.6162  Z" fill="#009af9" fill-rule="evenodd" fill-opacity="1"/>
<polyline clip-path="url(#clip022)" style="stroke:#000000; stroke-linecap:round; stroke-linejoin:round; stroke-width:4; stroke-opacity:1; fill:none" points="1313.46,92.6162 1313.46,1486.45 1364.54,1486.45 1364.54,92.6162 1313.46,92.6162 "/>
<path clip-path="url(#clip022)" d="M1364.54 228.733 L1364.54 1486.45 L1415.61 1486.45 L1415.61 228.733 L1364.54 228.733 L1364.54 228.733  Z" fill="#009af9" fill-rule="evenodd" fill-opacity="1"/>
<polyline clip-path="url(#clip022)" style="stroke:#000000; stroke-linecap:round; stroke-linejoin:round; stroke-width:4; stroke-opacity:1; fill:none" points="1364.54,228.733 1364.54,1486.45 1415.61,1486.45 1415.61,228.733 1364.54,228.733 "/>
<path clip-path="url(#clip022)" d="M1415.61 412.036 L1415.61 1486.45 L1466.69 1486.45 L1466.69 412.036 L1415.61 412.036 L1415.61 412.036  Z" fill="#009af9" fill-rule="evenodd" fill-opacity="1"/>
<polyline clip-path="url(#clip022)" style="stroke:#000000; stroke-linecap:round; stroke-linejoin:round; stroke-width:4; stroke-opacity:1; fill:none" points="1415.61,412.036 1415.61,1486.45 1466.69,1486.45 1466.69,412.036 1415.61,412.036 "/>
<path clip-path="url(#clip022)" d="M1466.69 520.929 L1466.69 1486.45 L1517.76 1486.45 L1517.76 520.929 L1466.69 520.929 L1466.69 520.929  Z" fill="#009af9" fill-rule="evenodd" fill-opacity="1"/>
<polyline clip-path="url(#clip022)" style="stroke:#000000; stroke-linecap:round; stroke-linejoin:round; stroke-width:4; stroke-opacity:1; fill:none" points="1466.69,520.929 1466.69,1486.45 1517.76,1486.45 1517.76,520.929 1466.69,520.929 "/>
<path clip-path="url(#clip022)" d="M1517.76 678.824 L1517.76 1486.45 L1568.84 1486.45 L1568.84 678.824 L1517.76 678.824 L1517.76 678.824  Z" fill="#009af9" fill-rule="evenodd" fill-opacity="1"/>
<polyline clip-path="url(#clip022)" style="stroke:#000000; stroke-linecap:round; stroke-linejoin:round; stroke-width:4; stroke-opacity:1; fill:none" points="1517.76,678.824 1517.76,1486.45 1568.84,1486.45 1568.84,678.824 1517.76,678.824 "/>
<path clip-path="url(#clip022)" d="M1568.84 907.5 L1568.84 1486.45 L1619.91 1486.45 L1619.91 907.5 L1568.84 907.5 L1568.84 907.5  Z" fill="#009af9" fill-rule="evenodd" fill-opacity="1"/>
<polyline clip-path="url(#clip022)" style="stroke:#000000; stroke-linecap:round; stroke-linejoin:round; stroke-width:4; stroke-opacity:1; fill:none" points="1568.84,907.5 1568.84,1486.45 1619.91,1486.45 1619.91,907.5 1568.84,907.5 "/>
<path clip-path="url(#clip022)" d="M1619.91 1005.5 L1619.91 1486.45 L1670.99 1486.45 L1670.99 1005.5 L1619.91 1005.5 L1619.91 1005.5  Z" fill="#009af9" fill-rule="evenodd" fill-opacity="1"/>
<polyline clip-path="url(#clip022)" style="stroke:#000000; stroke-linecap:round; stroke-linejoin:round; stroke-width:4; stroke-opacity:1; fill:none" points="1619.91,1005.5 1619.91,1486.45 1670.99,1486.45 1670.99,1005.5 1619.91,1005.5 "/>
<path clip-path="url(#clip022)" d="M1670.99 1108.95 L1670.99 1486.45 L1722.06 1486.45 L1722.06 1108.95 L1670.99 1108.95 L1670.99 1108.95  Z" fill="#009af9" fill-rule="evenodd" fill-opacity="1"/>
<polyline clip-path="url(#clip022)" style="stroke:#000000; stroke-linecap:round; stroke-linejoin:round; stroke-width:4; stroke-opacity:1; fill:none" points="1670.99,1108.95 1670.99,1486.45 1722.06,1486.45 1722.06,1108.95 1670.99,1108.95 "/>
<path clip-path="url(#clip022)" d="M1722.06 1274.11 L1722.06 1486.45 L1773.14 1486.45 L1773.14 1274.11 L1722.06 1274.11 L1722.06 1274.11  Z" fill="#009af9" fill-rule="evenodd" fill-opacity="1"/>
<polyline clip-path="url(#clip022)" style="stroke:#000000; stroke-linecap:round; stroke-linejoin:round; stroke-width:4; stroke-opacity:1; fill:none" points="1722.06,1274.11 1722.06,1486.45 1773.14,1486.45 1773.14,1274.11 1722.06,1274.11 "/>
<path clip-path="url(#clip022)" d="M1773.14 1339.44 L1773.14 1486.45 L1824.21 1486.45 L1824.21 1339.44 L1773.14 1339.44 L1773.14 1339.44  Z" fill="#009af9" fill-rule="evenodd" fill-opacity="1"/>
<polyline clip-path="url(#clip022)" style="stroke:#000000; stroke-linecap:round; stroke-linejoin:round; stroke-width:4; stroke-opacity:1; fill:none" points="1773.14,1339.44 1773.14,1486.45 1824.21,1486.45 1824.21,1339.44 1773.14,1339.44 "/>
<path clip-path="url(#clip022)" d="M1824.21 1377.55 L1824.21 1486.45 L1875.29 1486.45 L1875.29 1377.55 L1824.21 1377.55 L1824.21 1377.55  Z" fill="#009af9" fill-rule="evenodd" fill-opacity="1"/>
<polyline clip-path="url(#clip022)" style="stroke:#000000; stroke-linecap:round; stroke-linejoin:round; stroke-width:4; stroke-opacity:1; fill:none" points="1824.21,1377.55 1824.21,1486.45 1875.29,1486.45 1875.29,1377.55 1824.21,1377.55 "/>
<path clip-path="url(#clip022)" d="M1875.29 1439.26 L1875.29 1486.45 L1926.36 1486.45 L1926.36 1439.26 L1875.29 1439.26 L1875.29 1439.26  Z" fill="#009af9" fill-rule="evenodd" fill-opacity="1"/>
<polyline clip-path="url(#clip022)" style="stroke:#000000; stroke-linecap:round; stroke-linejoin:round; stroke-width:4; stroke-opacity:1; fill:none" points="1875.29,1439.26 1875.29,1486.45 1926.36,1486.45 1926.36,1439.26 1875.29,1439.26 "/>
<path clip-path="url(#clip022)" d="M1926.36 1450.15 L1926.36 1486.45 L1977.44 1486.45 L1977.44 1450.15 L1926.36 1450.15 L1926.36 1450.15  Z" fill="#009af9" fill-rule="evenodd" fill-opacity="1"/>
<polyline clip-path="url(#clip022)" style="stroke:#000000; stroke-linecap:round; stroke-linejoin:round; stroke-width:4; stroke-opacity:1; fill:none" points="1926.36,1450.15 1926.36,1486.45 1977.44,1486.45 1977.44,1450.15 1926.36,1450.15 "/>
<path clip-path="url(#clip022)" d="M1977.44 1470.11 L1977.44 1486.45 L2028.51 1486.45 L2028.51 1470.11 L1977.44 1470.11 L1977.44 1470.11  Z" fill="#009af9" fill-rule="evenodd" fill-opacity="1"/>
<polyline clip-path="url(#clip022)" style="stroke:#000000; stroke-linecap:round; stroke-linejoin:round; stroke-width:4; stroke-opacity:1; fill:none" points="1977.44,1470.11 1977.44,1486.45 2028.51,1486.45 2028.51,1470.11 1977.44,1470.11 "/>
<path clip-path="url(#clip022)" d="M2028.51 1475.56 L2028.51 1486.45 L2079.59 1486.45 L2079.59 1475.56 L2028.51 1475.56 L2028.51 1475.56  Z" fill="#009af9" fill-rule="evenodd" fill-opacity="1"/>
<polyline clip-path="url(#clip022)" style="stroke:#000000; stroke-linecap:round; stroke-linejoin:round; stroke-width:4; stroke-opacity:1; fill:none" points="2028.51,1475.56 2028.51,1486.45 2079.59,1486.45 2079.59,1475.56 2028.51,1475.56 "/>
<path clip-path="url(#clip022)" d="M2079.59 1484.63 L2079.59 1486.45 L2130.66 1486.45 L2130.66 1484.63 L2079.59 1484.63 L2079.59 1484.63  Z" fill="#009af9" fill-rule="evenodd" fill-opacity="1"/>
<polyline clip-path="url(#clip022)" style="stroke:#000000; stroke-linecap:round; stroke-linejoin:round; stroke-width:4; stroke-opacity:1; fill:none" points="2079.59,1484.63 2079.59,1486.45 2130.66,1486.45 2130.66,1484.63 2079.59,1484.63 "/>
<path clip-path="url(#clip022)" d="M2130.66 1481 L2130.66 1486.45 L2181.74 1486.45 L2181.74 1481 L2130.66 1481 L2130.66 1481  Z" fill="#009af9" fill-rule="evenodd" fill-opacity="1"/>
<polyline clip-path="url(#clip022)" style="stroke:#000000; stroke-linecap:round; stroke-linejoin:round; stroke-width:4; stroke-opacity:1; fill:none" points="2130.66,1481 2130.66,1486.45 2181.74,1486.45 2181.74,1481 2130.66,1481 "/>
<path clip-path="url(#clip022)" d="M2181.74 1484.63 L2181.74 1486.45 L2232.81 1486.45 L2232.81 1484.63 L2181.74 1484.63 L2181.74 1484.63  Z" fill="#009af9" fill-rule="evenodd" fill-opacity="1"/>
<polyline clip-path="url(#clip022)" style="stroke:#000000; stroke-linecap:round; stroke-linejoin:round; stroke-width:4; stroke-opacity:1; fill:none" points="2181.74,1484.63 2181.74,1486.45 2232.81,1486.45 2232.81,1484.63 2181.74,1484.63 "/>
<circle clip-path="url(#clip022)" style="fill:#009af9; stroke:none; fill-opacity:0" cx="317.497" cy="1484.63" r="2"/>
<circle clip-path="url(#clip022)" style="fill:#009af9; stroke:none; fill-opacity:0" cx="368.572" cy="1482.82" r="2"/>
<circle clip-path="url(#clip022)" style="fill:#009af9; stroke:none; fill-opacity:0" cx="419.647" cy="1481" r="2"/>
<circle clip-path="url(#clip022)" style="fill:#009af9; stroke:none; fill-opacity:0" cx="470.722" cy="1482.82" r="2"/>
<circle clip-path="url(#clip022)" style="fill:#009af9; stroke:none; fill-opacity:0" cx="521.797" cy="1464.67" r="2"/>
<circle clip-path="url(#clip022)" style="fill:#009af9; stroke:none; fill-opacity:0" cx="572.872" cy="1439.26" r="2"/>
<circle clip-path="url(#clip022)" style="fill:#009af9; stroke:none; fill-opacity:0" cx="623.947" cy="1413.85" r="2"/>
<circle clip-path="url(#clip022)" style="fill:#009af9; stroke:none; fill-opacity:0" cx="675.022" cy="1390.26" r="2"/>
<circle clip-path="url(#clip022)" style="fill:#009af9; stroke:none; fill-opacity:0" cx="726.097" cy="1285" r="2"/>
<circle clip-path="url(#clip022)" style="fill:#009af9; stroke:none; fill-opacity:0" cx="777.172" cy="1274.11" r="2"/>
<circle clip-path="url(#clip022)" style="fill:#009af9; stroke:none; fill-opacity:0" cx="828.247" cy="1130.73" r="2"/>
<circle clip-path="url(#clip022)" style="fill:#009af9; stroke:none; fill-opacity:0" cx="879.323" cy="981.91" r="2"/>
<circle clip-path="url(#clip022)" style="fill:#009af9; stroke:none; fill-opacity:0" cx="930.398" cy="891.166" r="2"/>
<circle clip-path="url(#clip022)" style="fill:#009af9; stroke:none; fill-opacity:0" cx="981.473" cy="608.044" r="2"/>
<circle clip-path="url(#clip022)" style="fill:#009af9; stroke:none; fill-opacity:0" cx="1032.55" cy="535.448" r="2"/>
<circle clip-path="url(#clip022)" style="fill:#009af9; stroke:none; fill-opacity:0" cx="1083.62" cy="355.775" r="2"/>
<circle clip-path="url(#clip022)" style="fill:#009af9; stroke:none; fill-opacity:0" cx="1134.7" cy="141.618" r="2"/>
<circle clip-path="url(#clip022)" style="fill:#009af9; stroke:none; fill-opacity:0" cx="1185.77" cy="141.618" r="2"/>
<circle clip-path="url(#clip022)" style="fill:#009af9; stroke:none; fill-opacity:0" cx="1236.85" cy="72.6525" r="2"/>
<circle clip-path="url(#clip022)" style="fill:#009af9; stroke:none; fill-opacity:0" cx="1287.92" cy="47.2441" r="2"/>
<circle clip-path="url(#clip022)" style="fill:#009af9; stroke:none; fill-opacity:0" cx="1339" cy="92.6162" r="2"/>
<circle clip-path="url(#clip022)" style="fill:#009af9; stroke:none; fill-opacity:0" cx="1390.07" cy="228.733" r="2"/>
<circle clip-path="url(#clip022)" style="fill:#009af9; stroke:none; fill-opacity:0" cx="1441.15" cy="412.036" r="2"/>
<circle clip-path="url(#clip022)" style="fill:#009af9; stroke:none; fill-opacity:0" cx="1492.22" cy="520.929" r="2"/>
<circle clip-path="url(#clip022)" style="fill:#009af9; stroke:none; fill-opacity:0" cx="1543.3" cy="678.824" r="2"/>
<circle clip-path="url(#clip022)" style="fill:#009af9; stroke:none; fill-opacity:0" cx="1594.37" cy="907.5" r="2"/>
<circle clip-path="url(#clip022)" style="fill:#009af9; stroke:none; fill-opacity:0" cx="1645.45" cy="1005.5" r="2"/>
<circle clip-path="url(#clip022)" style="fill:#009af9; stroke:none; fill-opacity:0" cx="1696.52" cy="1108.95" r="2"/>
<circle clip-path="url(#clip022)" style="fill:#009af9; stroke:none; fill-opacity:0" cx="1747.6" cy="1274.11" r="2"/>
<circle clip-path="url(#clip022)" style="fill:#009af9; stroke:none; fill-opacity:0" cx="1798.67" cy="1339.44" r="2"/>
<circle clip-path="url(#clip022)" style="fill:#009af9; stroke:none; fill-opacity:0" cx="1849.75" cy="1377.55" r="2"/>
<circle clip-path="url(#clip022)" style="fill:#009af9; stroke:none; fill-opacity:0" cx="1900.82" cy="1439.26" r="2"/>
<circle clip-path="url(#clip022)" style="fill:#009af9; stroke:none; fill-opacity:0" cx="1951.9" cy="1450.15" r="2"/>
<circle clip-path="url(#clip022)" style="fill:#009af9; stroke:none; fill-opacity:0" cx="2002.97" cy="1470.11" r="2"/>
<circle clip-path="url(#clip022)" style="fill:#009af9; stroke:none; fill-opacity:0" cx="2054.05" cy="1475.56" r="2"/>
<circle clip-path="url(#clip022)" style="fill:#009af9; stroke:none; fill-opacity:0" cx="2105.12" cy="1484.63" r="2"/>
<circle clip-path="url(#clip022)" style="fill:#009af9; stroke:none; fill-opacity:0" cx="2156.2" cy="1481" r="2"/>
<circle clip-path="url(#clip022)" style="fill:#009af9; stroke:none; fill-opacity:0" cx="2207.27" cy="1484.63" r="2"/>
</svg>
