<?xml version="1.0" encoding="utf-8"?>
<svg xmlns="http://www.w3.org/2000/svg" xmlns:xlink="http://www.w3.org/1999/xlink" width="600" height="400" viewBox="0 0 2400 1600">
<defs>
  <clipPath id="clip220">
    <rect x="0" y="0" width="2400" height="1600"/>
  </clipPath>
</defs>
<path clip-path="url(#clip220)" d="M0 1600 L2400 1600 L2400 0 L0 0  Z" fill="#ffffff" fill-rule="evenodd" fill-opacity="1"/>
<defs>
  <clipPath id="clip221">
    <rect x="480" y="0" width="1681" height="1600"/>
  </clipPath>
</defs>
<path clip-path="url(#clip220)" d="M172.015 1486.45 L2352.76 1486.45 L2352.76 47.2441 L172.015 47.2441  Z" fill="#ffffff" fill-rule="evenodd" fill-opacity="1"/>
<defs>
  <clipPath id="clip222">
    <rect x="172" y="47" width="2182" height="1440"/>
  </clipPath>
</defs>
<polyline clip-path="url(#clip222)" style="stroke:#000000; stroke-linecap:round; stroke-linejoin:round; stroke-width:2; stroke-opacity:0.1; fill:none" points="239.504,1486.45 239.504,47.2441 "/>
<polyline clip-path="url(#clip222)" style="stroke:#000000; stroke-linecap:round; stroke-linejoin:round; stroke-width:2; stroke-opacity:0.1; fill:none" points="764.059,1486.45 764.059,47.2441 "/>
<polyline clip-path="url(#clip222)" style="stroke:#000000; stroke-linecap:round; stroke-linejoin:round; stroke-width:2; stroke-opacity:0.1; fill:none" points="1288.61,1486.45 1288.61,47.2441 "/>
<polyline clip-path="url(#clip222)" style="stroke:#000000; stroke-linecap:round; stroke-linejoin:round; stroke-width:2; stroke-opacity:0.1; fill:none" points="1813.17,1486.45 1813.17,47.2441 "/>
<polyline clip-path="url(#clip222)" style="stroke:#000000; stroke-linecap:round; stroke-linejoin:round; stroke-width:2; stroke-opacity:0.1; fill:none" points="2337.72,1486.45 2337.72,47.2441 "/>
<polyline clip-path="url(#clip222)" style="stroke:#000000; stroke-linecap:round; stroke-linejoin:round; stroke-width:2; stroke-opacity:0.1; fill:none" points="172.015,1486.45 2352.76,1486.45 "/>
<polyline clip-path="url(#clip222)" style="stroke:#000000; stroke-linecap:round; stroke-linejoin:round; stroke-width:2; stroke-opacity:0.1; fill:none" points="172.015,1148.21 2352.76,1148.21 "/>
<polyline clip-path="url(#clip222)" style="stroke:#000000; stroke-linecap:round; stroke-linejoin:round; stroke-width:2; stroke-opacity:0.1; fill:none" points="172.015,809.971 2352.76,809.971 "/>
<polyline clip-path="url(#clip222)" style="stroke:#000000; stroke-linecap:round; stroke-linejoin:round; stroke-width:2; stroke-opacity:0.1; fill:none" points="172.015,471.733 2352.76,471.733 "/>
<polyline clip-path="url(#clip222)" style="stroke:#000000; stroke-linecap:round; stroke-linejoin:round; stroke-width:2; stroke-opacity:0.1; fill:none" points="172.015,133.495 2352.76,133.495 "/>
<polyline clip-path="url(#clip220)" style="stroke:#000000; stroke-linecap:round; stroke-linejoin:round; stroke-width:4; stroke-opacity:1; fill:none" points="172.015,1486.45 2352.76,1486.45 "/>
<polyline clip-path="url(#clip220)" style="stroke:#000000; stroke-linecap:round; stroke-linejoin:round; stroke-width:4; stroke-opacity:1; fill:none" points="239.504,1486.45 239.504,1467.55 "/>
<polyline clip-path="url(#clip220)" style="stroke:#000000; stroke-linecap:round; stroke-linejoin:round; stroke-width:4; stroke-opacity:1; fill:none" points="764.059,1486.45 764.059,1467.55 "/>
<polyline clip-path="url(#clip220)" style="stroke:#000000; stroke-linecap:round; stroke-linejoin:round; stroke-width:4; stroke-opacity:1; fill:none" points="1288.61,1486.45 1288.61,1467.55 "/>
<polyline clip-path="url(#clip220)" style="stroke:#000000; stroke-linecap:round; stroke-linejoin:round; stroke-width:4; stroke-opacity:1; fill:none" points="1813.17,1486.45 1813.17,1467.55 "/>
<polyline clip-path="url(#clip220)" style="stroke:#000000; stroke-linecap:round; stroke-linejoin:round; stroke-width:4; stroke-opacity:1; fill:none" points="2337.72,1486.45 2337.72,1467.55 "/>
<path clip-path="url(#clip220)" d="M209.446 1532.02 L239.122 1532.02 L239.122 1535.95 L209.446 1535.95 L209.446 1532.02 Z" fill="#000000" fill-rule="nonzero" fill-opacity="1" /><path clip-path="url(#clip220)" d="M253.242 1544.91 L269.562 1544.91 L269.562 1548.85 L247.617 1548.85 L247.617 1544.91 Q250.279 1542.16 254.863 1537.53 Q259.469 1532.88 260.65 1531.53 Q262.895 1529.01 263.775 1527.27 Q264.677 1525.51 264.677 1523.82 Q264.677 1521.07 262.733 1519.33 Q260.812 1517.6 257.71 1517.6 Q255.511 1517.6 253.057 1518.36 Q250.627 1519.13 247.849 1520.68 L247.849 1515.95 Q250.673 1514.82 253.127 1514.24 Q255.58 1513.66 257.617 1513.66 Q262.988 1513.66 266.182 1516.35 Q269.377 1519.03 269.377 1523.52 Q269.377 1525.65 268.566 1527.57 Q267.779 1529.47 265.673 1532.07 Q265.094 1532.74 261.992 1535.95 Q258.89 1539.15 253.242 1544.91 Z" fill="#000000" fill-rule="nonzero" fill-opacity="1" /><path clip-path="url(#clip220)" d="M764.059 1517.37 Q760.447 1517.37 758.619 1520.93 Q756.813 1524.47 756.813 1531.6 Q756.813 1538.71 758.619 1542.27 Q760.447 1545.82 764.059 1545.82 Q767.693 1545.82 769.498 1542.27 Q771.327 1538.71 771.327 1531.6 Q771.327 1524.47 769.498 1520.93 Q767.693 1517.37 764.059 1517.37 M764.059 1513.66 Q769.869 1513.66 772.924 1518.27 Q776.003 1522.85 776.003 1531.6 Q776.003 1540.33 772.924 1544.94 Q769.869 1549.52 764.059 1549.52 Q758.248 1549.52 755.17 1544.94 Q752.114 1540.33 752.114 1531.6 Q752.114 1522.85 755.17 1518.27 Q758.248 1513.66 764.059 1513.66 Z" fill="#000000" fill-rule="nonzero" fill-opacity="1" /><path clip-path="url(#clip220)" d="M1283.27 1544.91 L1299.59 1544.91 L1299.59 1548.85 L1277.64 1548.85 L1277.64 1544.91 Q1280.3 1542.16 1284.89 1537.53 Q1289.49 1532.88 1290.67 1531.53 Q1292.92 1529.01 1293.8 1527.27 Q1294.7 1525.51 1294.7 1523.82 Q1294.7 1521.07 1292.76 1519.33 Q1290.84 1517.6 1287.73 1517.6 Q1285.53 1517.6 1283.08 1518.36 Q1280.65 1519.13 1277.87 1520.68 L1277.87 1515.95 Q1280.7 1514.82 1283.15 1514.24 Q1285.6 1513.66 1287.64 1513.66 Q1293.01 1513.66 1296.21 1516.35 Q1299.4 1519.03 1299.4 1523.52 Q1299.4 1525.65 1298.59 1527.57 Q1297.8 1529.47 1295.7 1532.07 Q1295.12 1532.74 1292.02 1535.95 Q1288.91 1539.15 1283.27 1544.91 Z" fill="#000000" fill-rule="nonzero" fill-opacity="1" /><path clip-path="url(#clip220)" d="M1816.18 1518.36 L1804.37 1536.81 L1816.18 1536.81 L1816.18 1518.36 M1814.95 1514.29 L1820.83 1514.29 L1820.83 1536.81 L1825.76 1536.81 L1825.76 1540.7 L1820.83 1540.7 L1820.83 1548.85 L1816.18 1548.85 L1816.18 1540.7 L1800.58 1540.7 L1800.58 1536.19 L1814.95 1514.29 Z" fill="#000000" fill-rule="nonzero" fill-opacity="1" /><path clip-path="url(#clip220)" d="M2338.13 1529.7 Q2334.98 1529.7 2333.13 1531.86 Q2331.3 1534.01 2331.3 1537.76 Q2331.3 1541.49 2333.13 1543.66 Q2334.98 1545.82 2338.13 1545.82 Q2341.28 1545.82 2343.1 1543.66 Q2344.96 1541.49 2344.96 1537.76 Q2344.96 1534.01 2343.1 1531.86 Q2341.28 1529.7 2338.13 1529.7 M2347.41 1515.05 L2347.41 1519.31 Q2345.65 1518.48 2343.84 1518.04 Q2342.06 1517.6 2340.3 1517.6 Q2335.67 1517.6 2333.22 1520.72 Q2330.79 1523.85 2330.44 1530.17 Q2331.81 1528.15 2333.87 1527.09 Q2335.93 1526 2338.41 1526 Q2343.61 1526 2346.62 1529.17 Q2349.65 1532.32 2349.65 1537.76 Q2349.65 1543.08 2346.51 1546.3 Q2343.36 1549.52 2338.13 1549.52 Q2332.13 1549.52 2328.96 1544.94 Q2325.79 1540.33 2325.79 1531.6 Q2325.79 1523.41 2329.68 1518.55 Q2333.57 1513.66 2340.12 1513.66 Q2341.88 1513.66 2343.66 1514.01 Q2345.47 1514.36 2347.41 1515.05 Z" fill="#000000" fill-rule="nonzero" fill-opacity="1" /><polyline clip-path="url(#clip220)" style="stroke:#000000; stroke-linecap:round; stroke-linejoin:round; stroke-width:4; stroke-opacity:1; fill:none" points="172.015,1486.45 172.015,47.2441 "/>
<polyline clip-path="url(#clip220)" style="stroke:#000000; stroke-linecap:round; stroke-linejoin:round; stroke-width:4; stroke-opacity:1; fill:none" points="172.015,1486.45 190.912,1486.45 "/>
<polyline clip-path="url(#clip220)" style="stroke:#000000; stroke-linecap:round; stroke-linejoin:round; stroke-width:4; stroke-opacity:1; fill:none" points="172.015,1148.21 190.912,1148.21 "/>
<polyline clip-path="url(#clip220)" style="stroke:#000000; stroke-linecap:round; stroke-linejoin:round; stroke-width:4; stroke-opacity:1; fill:none" points="172.015,809.971 190.912,809.971 "/>
<polyline clip-path="url(#clip220)" style="stroke:#000000; stroke-linecap:round; stroke-linejoin:round; stroke-width:4; stroke-opacity:1; fill:none" points="172.015,471.733 190.912,471.733 "/>
<polyline clip-path="url(#clip220)" style="stroke:#000000; stroke-linecap:round; stroke-linejoin:round; stroke-width:4; stroke-opacity:1; fill:none" points="172.015,133.495 190.912,133.495 "/>
<path clip-path="url(#clip220)" d="M124.07 1472.25 Q120.459 1472.25 118.631 1475.81 Q116.825 1479.35 116.825 1486.48 Q116.825 1493.59 118.631 1497.15 Q120.459 1500.7 124.07 1500.7 Q127.705 1500.7 129.51 1497.15 Q131.339 1493.59 131.339 1486.48 Q131.339 1479.35 129.51 1475.81 Q127.705 1472.25 124.07 1472.25 M124.07 1468.54 Q129.881 1468.54 132.936 1473.15 Q136.015 1477.73 136.015 1486.48 Q136.015 1495.21 132.936 1499.82 Q129.881 1504.4 124.07 1504.4 Q118.26 1504.4 115.182 1499.82 Q112.126 1495.21 112.126 1486.48 Q112.126 1477.73 115.182 1473.15 Q118.26 1468.54 124.07 1468.54 Z" fill="#000000" fill-rule="nonzero" fill-opacity="1" /><path clip-path="url(#clip220)" d="M57.7745 1161.55 L74.0939 1161.55 L74.0939 1165.49 L52.1495 1165.49 L52.1495 1161.55 Q54.8115 1158.8 59.3949 1154.17 Q64.0013 1149.52 65.1819 1148.17 Q67.4272 1145.65 68.3068 1143.92 Q69.2096 1142.16 69.2096 1140.47 Q69.2096 1137.71 67.2652 1135.98 Q65.3439 1134.24 62.2421 1134.24 Q60.043 1134.24 57.5893 1135 Q55.1588 1135.77 52.381 1137.32 L52.381 1132.6 Q55.2051 1131.46 57.6588 1130.88 Q60.1124 1130.3 62.1495 1130.3 Q67.5198 1130.3 70.7142 1132.99 Q73.9087 1135.67 73.9087 1140.17 Q73.9087 1142.3 73.0985 1144.22 Q72.3115 1146.11 70.205 1148.71 Q69.6263 1149.38 66.5245 1152.6 Q63.4226 1155.79 57.7745 1161.55 Z" fill="#000000" fill-rule="nonzero" fill-opacity="1" /><path clip-path="url(#clip220)" d="M93.9086 1134.01 Q90.2975 1134.01 88.4688 1137.57 Q86.6632 1141.11 86.6632 1148.24 Q86.6632 1155.35 88.4688 1158.92 Q90.2975 1162.46 93.9086 1162.46 Q97.5428 1162.46 99.3483 1158.92 Q101.177 1155.35 101.177 1148.24 Q101.177 1141.11 99.3483 1137.57 Q97.5428 1134.01 93.9086 1134.01 M93.9086 1130.3 Q99.7187 1130.3 102.774 1134.91 Q105.853 1139.49 105.853 1148.24 Q105.853 1156.97 102.774 1161.58 Q99.7187 1166.16 93.9086 1166.16 Q88.0984 1166.16 85.0197 1161.58 Q81.9642 1156.97 81.9642 1148.24 Q81.9642 1139.49 85.0197 1134.91 Q88.0984 1130.3 93.9086 1130.3 Z" fill="#000000" fill-rule="nonzero" fill-opacity="1" /><path clip-path="url(#clip220)" d="M124.07 1134.01 Q120.459 1134.01 118.631 1137.57 Q116.825 1141.11 116.825 1148.24 Q116.825 1155.35 118.631 1158.92 Q120.459 1162.46 124.07 1162.46 Q127.705 1162.46 129.51 1158.92 Q131.339 1155.35 131.339 1148.24 Q131.339 1141.11 129.51 1137.57 Q127.705 1134.01 124.07 1134.01 M124.07 1130.3 Q129.881 1130.3 132.936 1134.91 Q136.015 1139.49 136.015 1148.24 Q136.015 1156.97 132.936 1161.58 Q129.881 1166.16 124.07 1166.16 Q118.26 1166.16 115.182 1161.58 Q112.126 1156.97 112.126 1148.24 Q112.126 1139.49 115.182 1134.91 Q118.26 1130.3 124.07 1130.3 Z" fill="#000000" fill-rule="nonzero" fill-opacity="1" /><path clip-path="url(#clip220)" d="M66.5939 796.765 L54.7884 815.214 L66.5939 815.214 L66.5939 796.765 M65.367 792.691 L71.2466 792.691 L71.2466 815.214 L76.1772 815.214 L76.1772 819.103 L71.2466 819.103 L71.2466 827.251 L66.5939 827.251 L66.5939 819.103 L50.9921 819.103 L50.9921 814.589 L65.367 792.691 Z" fill="#000000" fill-rule="nonzero" fill-opacity="1" /><path clip-path="url(#clip220)" d="M93.9086 795.77 Q90.2975 795.77 88.4688 799.335 Q86.6632 802.876 86.6632 810.006 Q86.6632 817.113 88.4688 820.677 Q90.2975 824.219 93.9086 824.219 Q97.5428 824.219 99.3483 820.677 Q101.177 817.113 101.177 810.006 Q101.177 802.876 99.3483 799.335 Q97.5428 795.77 93.9086 795.77 M93.9086 792.066 Q99.7187 792.066 102.774 796.673 Q105.853 801.256 105.853 810.006 Q105.853 818.733 102.774 823.339 Q99.7187 827.923 93.9086 827.923 Q88.0984 827.923 85.0197 823.339 Q81.9642 818.733 81.9642 810.006 Q81.9642 801.256 85.0197 796.673 Q88.0984 792.066 93.9086 792.066 Z" fill="#000000" fill-rule="nonzero" fill-opacity="1" /><path clip-path="url(#clip220)" d="M124.07 795.77 Q120.459 795.77 118.631 799.335 Q116.825 802.876 116.825 810.006 Q116.825 817.113 118.631 820.677 Q120.459 824.219 124.07 824.219 Q127.705 824.219 129.51 820.677 Q131.339 817.113 131.339 810.006 Q131.339 802.876 129.51 799.335 Q127.705 795.77 124.07 795.77 M124.07 792.066 Q129.881 792.066 132.936 796.673 Q136.015 801.256 136.015 810.006 Q136.015 818.733 132.936 823.339 Q129.881 827.923 124.07 827.923 Q118.26 827.923 115.182 823.339 Q112.126 818.733 112.126 810.006 Q112.126 801.256 115.182 796.673 Q118.26 792.066 124.07 792.066 Z" fill="#000000" fill-rule="nonzero" fill-opacity="1" /><path clip-path="url(#clip220)" d="M64.3254 469.87 Q61.1773 469.87 59.3254 472.022 Q57.4967 474.175 57.4967 477.925 Q57.4967 481.652 59.3254 483.828 Q61.1773 485.981 64.3254 485.981 Q67.4735 485.981 69.3022 483.828 Q71.1541 481.652 71.1541 477.925 Q71.1541 474.175 69.3022 472.022 Q67.4735 469.87 64.3254 469.87 M73.6077 455.217 L73.6077 459.476 Q71.8485 458.643 70.0429 458.203 Q68.2606 457.763 66.5013 457.763 Q61.8717 457.763 59.418 460.888 Q56.9875 464.013 56.6402 470.333 Q58.006 468.319 60.0662 467.254 Q62.1263 466.166 64.6032 466.166 Q69.8115 466.166 72.8207 469.337 Q75.8531 472.485 75.8531 477.925 Q75.8531 483.249 72.705 486.467 Q69.5568 489.684 64.3254 489.684 Q58.33 489.684 55.1588 485.101 Q51.9875 480.495 51.9875 471.768 Q51.9875 463.573 55.8764 458.712 Q59.7652 453.828 66.3161 453.828 Q68.0754 453.828 69.8578 454.175 Q71.6633 454.523 73.6077 455.217 Z" fill="#000000" fill-rule="nonzero" fill-opacity="1" /><path clip-path="url(#clip220)" d="M93.9086 457.532 Q90.2975 457.532 88.4688 461.097 Q86.6632 464.638 86.6632 471.768 Q86.6632 478.874 88.4688 482.439 Q90.2975 485.981 93.9086 485.981 Q97.5428 485.981 99.3483 482.439 Q101.177 478.874 101.177 471.768 Q101.177 464.638 99.3483 461.097 Q97.5428 457.532 93.9086 457.532 M93.9086 453.828 Q99.7187 453.828 102.774 458.435 Q105.853 463.018 105.853 471.768 Q105.853 480.495 102.774 485.101 Q99.7187 489.684 93.9086 489.684 Q88.0984 489.684 85.0197 485.101 Q81.9642 480.495 81.9642 471.768 Q81.9642 463.018 85.0197 458.435 Q88.0984 453.828 93.9086 453.828 Z" fill="#000000" fill-rule="nonzero" fill-opacity="1" /><path clip-path="url(#clip220)" d="M124.07 457.532 Q120.459 457.532 118.631 461.097 Q116.825 464.638 116.825 471.768 Q116.825 478.874 118.631 482.439 Q120.459 485.981 124.07 485.981 Q127.705 485.981 129.51 482.439 Q131.339 478.874 131.339 471.768 Q131.339 464.638 129.51 461.097 Q127.705 457.532 124.07 457.532 M124.07 453.828 Q129.881 453.828 132.936 458.435 Q136.015 463.018 136.015 471.768 Q136.015 480.495 132.936 485.101 Q129.881 489.684 124.07 489.684 Q118.26 489.684 115.182 485.101 Q112.126 480.495 112.126 471.768 Q112.126 463.018 115.182 458.435 Q118.26 453.828 124.07 453.828 Z" fill="#000000" fill-rule="nonzero" fill-opacity="1" /><path clip-path="url(#clip220)" d="M63.7467 134.363 Q60.4134 134.363 58.4921 136.145 Q56.5939 137.928 56.5939 141.053 Q56.5939 144.178 58.4921 145.96 Q60.4134 147.742 63.7467 147.742 Q67.08 147.742 69.0013 145.96 Q70.9226 144.155 70.9226 141.053 Q70.9226 137.928 69.0013 136.145 Q67.1032 134.363 63.7467 134.363 M59.0708 132.372 Q56.0615 131.631 54.3717 129.571 Q52.7051 127.511 52.7051 124.548 Q52.7051 120.405 55.6449 117.997 Q58.6078 115.59 63.7467 115.59 Q68.9087 115.59 71.8485 117.997 Q74.7883 120.405 74.7883 124.548 Q74.7883 127.511 73.0985 129.571 Q71.4318 131.631 68.4457 132.372 Q71.8253 133.159 73.7003 135.451 Q75.5985 137.743 75.5985 141.053 Q75.5985 146.076 72.5198 148.761 Q69.4642 151.446 63.7467 151.446 Q58.0291 151.446 54.9504 148.761 Q51.8949 146.076 51.8949 141.053 Q51.8949 137.743 53.793 135.451 Q55.6912 133.159 59.0708 132.372 M57.3578 124.988 Q57.3578 127.673 59.0245 129.178 Q60.7143 130.682 63.7467 130.682 Q66.7559 130.682 68.4457 129.178 Q70.1587 127.673 70.1587 124.988 Q70.1587 122.303 68.4457 120.798 Q66.7559 119.294 63.7467 119.294 Q60.7143 119.294 59.0245 120.798 Q57.3578 122.303 57.3578 124.988 Z" fill="#000000" fill-rule="nonzero" fill-opacity="1" /><path clip-path="url(#clip220)" d="M93.9086 119.294 Q90.2975 119.294 88.4688 122.858 Q86.6632 126.4 86.6632 133.53 Q86.6632 140.636 88.4688 144.201 Q90.2975 147.742 93.9086 147.742 Q97.5428 147.742 99.3483 144.201 Q101.177 140.636 101.177 133.53 Q101.177 126.4 99.3483 122.858 Q97.5428 119.294 93.9086 119.294 M93.9086 115.59 Q99.7187 115.59 102.774 120.196 Q105.853 124.78 105.853 133.53 Q105.853 142.256 102.774 146.863 Q99.7187 151.446 93.9086 151.446 Q88.0984 151.446 85.0197 146.863 Q81.9642 142.256 81.9642 133.53 Q81.9642 124.78 85.0197 120.196 Q88.0984 115.59 93.9086 115.59 Z" fill="#000000" fill-rule="nonzero" fill-opacity="1" /><path clip-path="url(#clip220)" d="M124.07 119.294 Q120.459 119.294 118.631 122.858 Q116.825 126.4 116.825 133.53 Q116.825 140.636 118.631 144.201 Q120.459 147.742 124.07 147.742 Q127.705 147.742 129.51 144.201 Q131.339 140.636 131.339 133.53 Q131.339 126.4 129.51 122.858 Q127.705 119.294 124.07 119.294 M124.07 115.59 Q129.881 115.59 132.936 120.196 Q136.015 124.78 136.015 133.53 Q136.015 142.256 132.936 146.863 Q129.881 151.446 124.07 151.446 Q118.26 151.446 115.182 146.863 Q112.126 142.256 112.126 133.53 Q112.126 124.78 115.182 120.196 Q118.26 115.59 124.07 115.59 Z" fill="#000000" fill-rule="nonzero" fill-opacity="1" /><path clip-path="url(#clip222)" d="M291.959 1484.76 L291.959 1486.45 L344.415 1486.45 L344.415 1484.76 L291.959 1484.76 L291.959 1484.76  Z" fill="#009af9" fill-rule="evenodd" fill-opacity="1"/>
<polyline clip-path="url(#clip222)" style="stroke:#000000; stroke-linecap:round; stroke-linejoin:round; stroke-width:4; stroke-opacity:1; fill:none" points="291.959,1484.76 291.959,1486.45 344.415,1486.45 344.415,1484.76 291.959,1484.76 "/>
<path clip-path="url(#clip222)" d="M344.415 1483.07 L344.415 1486.45 L396.87 1486.45 L396.87 1483.07 L344.415 1483.07 L344.415 1483.07  Z" fill="#009af9" fill-rule="evenodd" fill-opacity="1"/>
<polyline clip-path="url(#clip222)" style="stroke:#000000; stroke-linecap:round; stroke-linejoin:round; stroke-width:4; stroke-opacity:1; fill:none" points="344.415,1483.07 344.415,1486.45 396.87,1486.45 396.87,1483.07 344.415,1483.07 "/>
<path clip-path="url(#clip222)" d="M396.87 1481.37 L396.87 1486.45 L449.326 1486.45 L449.326 1481.37 L396.87 1481.37 L396.87 1481.37  Z" fill="#009af9" fill-rule="evenodd" fill-opacity="1"/>
<polyline clip-path="url(#clip222)" style="stroke:#000000; stroke-linecap:round; stroke-linejoin:round; stroke-width:4; stroke-opacity:1; fill:none" points="396.87,1481.37 396.87,1486.45 449.326,1486.45 449.326,1481.37 396.87,1481.37 "/>
<path clip-path="url(#clip222)" d="M449.326 1476.3 L449.326 1486.45 L501.781 1486.45 L501.781 1476.3 L449.326 1476.3 L449.326 1476.3  Z" fill="#009af9" fill-rule="evenodd" fill-opacity="1"/>
<polyline clip-path="url(#clip222)" style="stroke:#000000; stroke-linecap:round; stroke-linejoin:round; stroke-width:4; stroke-opacity:1; fill:none" points="449.326,1476.3 449.326,1486.45 501.781,1486.45 501.781,1476.3 449.326,1476.3 "/>
<path clip-path="url(#clip222)" d="M501.781 1472.92 L501.781 1486.45 L554.237 1486.45 L554.237 1472.92 L501.781 1472.92 L501.781 1472.92  Z" fill="#009af9" fill-rule="evenodd" fill-opacity="1"/>
<polyline clip-path="url(#clip222)" style="stroke:#000000; stroke-linecap:round; stroke-linejoin:round; stroke-width:4; stroke-opacity:1; fill:none" points="501.781,1472.92 501.781,1486.45 554.237,1486.45 554.237,1472.92 501.781,1472.92 "/>
<path clip-path="url(#clip222)" d="M554.237 1442.48 L554.237 1486.45 L606.692 1486.45 L606.692 1442.48 L554.237 1442.48 L554.237 1442.48  Z" fill="#009af9" fill-rule="evenodd" fill-opacity="1"/>
<polyline clip-path="url(#clip222)" style="stroke:#000000; stroke-linecap:round; stroke-linejoin:round; stroke-width:4; stroke-opacity:1; fill:none" points="554.237,1442.48 554.237,1486.45 606.692,1486.45 606.692,1442.48 554.237,1442.48 "/>
<path clip-path="url(#clip222)" d="M606.692 1439.09 L606.692 1486.45 L659.148 1486.45 L659.148 1439.09 L606.692 1439.09 L606.692 1439.09  Z" fill="#009af9" fill-rule="evenodd" fill-opacity="1"/>
<polyline clip-path="url(#clip222)" style="stroke:#000000; stroke-linecap:round; stroke-linejoin:round; stroke-width:4; stroke-opacity:1; fill:none" points="606.692,1439.09 606.692,1486.45 659.148,1486.45 659.148,1439.09 606.692,1439.09 "/>
<path clip-path="url(#clip222)" d="M659.148 1386.67 L659.148 1486.45 L711.603 1486.45 L711.603 1386.67 L659.148 1386.67 L659.148 1386.67  Z" fill="#009af9" fill-rule="evenodd" fill-opacity="1"/>
<polyline clip-path="url(#clip222)" style="stroke:#000000; stroke-linecap:round; stroke-linejoin:round; stroke-width:4; stroke-opacity:1; fill:none" points="659.148,1386.67 659.148,1486.45 711.603,1486.45 711.603,1386.67 659.148,1386.67 "/>
<path clip-path="url(#clip222)" d="M711.603 1322.4 L711.603 1486.45 L764.059 1486.45 L764.059 1322.4 L711.603 1322.4 L711.603 1322.4  Z" fill="#009af9" fill-rule="evenodd" fill-opacity="1"/>
<polyline clip-path="url(#clip222)" style="stroke:#000000; stroke-linecap:round; stroke-linejoin:round; stroke-width:4; stroke-opacity:1; fill:none" points="711.603,1322.4 711.603,1486.45 764.059,1486.45 764.059,1322.4 711.603,1322.4 "/>
<path clip-path="url(#clip222)" d="M764.059 1305.49 L764.059 1486.45 L816.514 1486.45 L816.514 1305.49 L764.059 1305.49 L764.059 1305.49  Z" fill="#009af9" fill-rule="evenodd" fill-opacity="1"/>
<polyline clip-path="url(#clip222)" style="stroke:#000000; stroke-linecap:round; stroke-linejoin:round; stroke-width:4; stroke-opacity:1; fill:none" points="764.059,1305.49 764.059,1486.45 816.514,1486.45 816.514,1305.49 764.059,1305.49 "/>
<path clip-path="url(#clip222)" d="M816.514 1226 L816.514 1486.45 L868.969 1486.45 L868.969 1226 L816.514 1226 L816.514 1226  Z" fill="#009af9" fill-rule="evenodd" fill-opacity="1"/>
<polyline clip-path="url(#clip222)" style="stroke:#000000; stroke-linecap:round; stroke-linejoin:round; stroke-width:4; stroke-opacity:1; fill:none" points="816.514,1226 816.514,1486.45 868.969,1486.45 868.969,1226 816.514,1226 "/>
<path clip-path="url(#clip222)" d="M868.969 1021.37 L868.969 1486.45 L921.425 1486.45 L921.425 1021.37 L868.969 1021.37 L868.969 1021.37  Z" fill="#009af9" fill-rule="evenodd" fill-opacity="1"/>
<polyline clip-path="url(#clip222)" style="stroke:#000000; stroke-linecap:round; stroke-linejoin:round; stroke-width:4; stroke-opacity:1; fill:none" points="868.969,1021.37 868.969,1486.45 921.425,1486.45 921.425,1021.37 868.969,1021.37 "/>
<path clip-path="url(#clip222)" d="M921.425 865.781 L921.425 1486.45 L973.88 1486.45 L973.88 865.781 L921.425 865.781 L921.425 865.781  Z" fill="#009af9" fill-rule="evenodd" fill-opacity="1"/>
<polyline clip-path="url(#clip222)" style="stroke:#000000; stroke-linecap:round; stroke-linejoin:round; stroke-width:4; stroke-opacity:1; fill:none" points="921.425,865.781 921.425,1486.45 973.88,1486.45 973.88,865.781 921.425,865.781 "/>
<path clip-path="url(#clip222)" d="M973.88 672.985 L973.88 1486.45 L1026.34 1486.45 L1026.34 672.985 L973.88 672.985 L973.88 672.985  Z" fill="#009af9" fill-rule="evenodd" fill-opacity="1"/>
<polyline clip-path="url(#clip222)" style="stroke:#000000; stroke-linecap:round; stroke-linejoin:round; stroke-width:4; stroke-opacity:1; fill:none" points="973.88,672.985 973.88,1486.45 1026.34,1486.45 1026.34,672.985 973.88,672.985 "/>
<path clip-path="url(#clip222)" d="M1026.34 661.147 L1026.34 1486.45 L1078.79 1486.45 L1078.79 661.147 L1026.34 661.147 L1026.34 661.147  Z" fill="#009af9" fill-rule="evenodd" fill-opacity="1"/>
<polyline clip-path="url(#clip222)" style="stroke:#000000; stroke-linecap:round; stroke-linejoin:round; stroke-width:4; stroke-opacity:1; fill:none" points="1026.34,661.147 1026.34,1486.45 1078.79,1486.45 1078.79,661.147 1026.34,661.147 "/>
<path clip-path="url(#clip222)" d="M1078.79 456.512 L1078.79 1486.45 L1131.25 1486.45 L1131.25 456.512 L1078.79 456.512 L1078.79 456.512  Z" fill="#009af9" fill-rule="evenodd" fill-opacity="1"/>
<polyline clip-path="url(#clip222)" style="stroke:#000000; stroke-linecap:round; stroke-linejoin:round; stroke-width:4; stroke-opacity:1; fill:none" points="1078.79,456.512 1078.79,1486.45 1131.25,1486.45 1131.25,456.512 1078.79,456.512 "/>
<path clip-path="url(#clip222)" d="M1131.25 349.967 L1131.25 1486.45 L1183.7 1486.45 L1183.7 349.967 L1131.25 349.967 L1131.25 349.967  Z" fill="#009af9" fill-rule="evenodd" fill-opacity="1"/>
<polyline clip-path="url(#clip222)" style="stroke:#000000; stroke-linecap:round; stroke-linejoin:round; stroke-width:4; stroke-opacity:1; fill:none" points="1131.25,349.967 1131.25,1486.45 1183.7,1486.45 1183.7,349.967 1131.25,349.967 "/>
<path clip-path="url(#clip222)" d="M1183.7 179.157 L1183.7 1486.45 L1236.16 1486.45 L1236.16 179.157 L1183.7 179.157 L1183.7 179.157  Z" fill="#009af9" fill-rule="evenodd" fill-opacity="1"/>
<polyline clip-path="url(#clip222)" style="stroke:#000000; stroke-linecap:round; stroke-linejoin:round; stroke-width:4; stroke-opacity:1; fill:none" points="1183.7,179.157 1183.7,1486.45 1236.16,1486.45 1236.16,179.157 1183.7,179.157 "/>
<path clip-path="url(#clip222)" d="M1236.16 180.848 L1236.16 1486.45 L1288.61 1486.45 L1288.61 180.848 L1236.16 180.848 L1236.16 180.848  Z" fill="#009af9" fill-rule="evenodd" fill-opacity="1"/>
<polyline clip-path="url(#clip222)" style="stroke:#000000; stroke-linecap:round; stroke-linejoin:round; stroke-width:4; stroke-opacity:1; fill:none" points="1236.16,180.848 1236.16,1486.45 1288.61,1486.45 1288.61,180.848 1236.16,180.848 "/>
<path clip-path="url(#clip222)" d="M1288.61 47.2441 L1288.61 1486.45 L1341.07 1486.45 L1341.07 47.2441 L1288.61 47.2441 L1288.61 47.2441  Z" fill="#009af9" fill-rule="evenodd" fill-opacity="1"/>
<polyline clip-path="url(#clip222)" style="stroke:#000000; stroke-linecap:round; stroke-linejoin:round; stroke-width:4; stroke-opacity:1; fill:none" points="1288.61,47.2441 1288.61,1486.45 1341.07,1486.45 1341.07,47.2441 1288.61,47.2441 "/>
<path clip-path="url(#clip222)" d="M1341.07 179.157 L1341.07 1486.45 L1393.52 1486.45 L1393.52 179.157 L1341.07 179.157 L1341.07 179.157  Z" fill="#009af9" fill-rule="evenodd" fill-opacity="1"/>
<polyline clip-path="url(#clip222)" style="stroke:#000000; stroke-linecap:round; stroke-linejoin:round; stroke-width:4; stroke-opacity:1; fill:none" points="1341.07,179.157 1341.07,1486.45 1393.52,1486.45 1393.52,179.157 1341.07,179.157 "/>
<path clip-path="url(#clip222)" d="M1393.52 375.335 L1393.52 1486.45 L1445.98 1486.45 L1445.98 375.335 L1393.52 375.335 L1393.52 375.335  Z" fill="#009af9" fill-rule="evenodd" fill-opacity="1"/>
<polyline clip-path="url(#clip222)" style="stroke:#000000; stroke-linecap:round; stroke-linejoin:round; stroke-width:4; stroke-opacity:1; fill:none" points="1393.52,375.335 1393.52,1486.45 1445.98,1486.45 1445.98,375.335 1393.52,375.335 "/>
<path clip-path="url(#clip222)" d="M1445.98 422.689 L1445.98 1486.45 L1498.43 1486.45 L1498.43 422.689 L1445.98 422.689 L1445.98 422.689  Z" fill="#009af9" fill-rule="evenodd" fill-opacity="1"/>
<polyline clip-path="url(#clip222)" style="stroke:#000000; stroke-linecap:round; stroke-linejoin:round; stroke-width:4; stroke-opacity:1; fill:none" points="1445.98,422.689 1445.98,1486.45 1498.43,1486.45 1498.43,422.689 1445.98,422.689 "/>
<path clip-path="url(#clip222)" d="M1498.43 583.352 L1498.43 1486.45 L1550.89 1486.45 L1550.89 583.352 L1498.43 583.352 L1498.43 583.352  Z" fill="#009af9" fill-rule="evenodd" fill-opacity="1"/>
<polyline clip-path="url(#clip222)" style="stroke:#000000; stroke-linecap:round; stroke-linejoin:round; stroke-width:4; stroke-opacity:1; fill:none" points="1498.43,583.352 1498.43,1486.45 1550.89,1486.45 1550.89,583.352 1498.43,583.352 "/>
<path clip-path="url(#clip222)" d="M1550.89 735.559 L1550.89 1486.45 L1603.35 1486.45 L1603.35 735.559 L1550.89 735.559 L1550.89 735.559  Z" fill="#009af9" fill-rule="evenodd" fill-opacity="1"/>
<polyline clip-path="url(#clip222)" style="stroke:#000000; stroke-linecap:round; stroke-linejoin:round; stroke-width:4; stroke-opacity:1; fill:none" points="1550.89,735.559 1550.89,1486.45 1603.35,1486.45 1603.35,735.559 1550.89,735.559 "/>
<path clip-path="url(#clip222)" d="M1603.35 921.59 L1603.35 1486.45 L1655.8 1486.45 L1655.8 921.59 L1603.35 921.59 L1603.35 921.59  Z" fill="#009af9" fill-rule="evenodd" fill-opacity="1"/>
<polyline clip-path="url(#clip222)" style="stroke:#000000; stroke-linecap:round; stroke-linejoin:round; stroke-width:4; stroke-opacity:1; fill:none" points="1603.35,921.59 1603.35,1486.45 1655.8,1486.45 1655.8,921.59 1603.35,921.59 "/>
<path clip-path="url(#clip222)" d="M1655.8 1031.52 L1655.8 1486.45 L1708.26 1486.45 L1708.26 1031.52 L1655.8 1031.52 L1655.8 1031.52  Z" fill="#009af9" fill-rule="evenodd" fill-opacity="1"/>
<polyline clip-path="url(#clip222)" style="stroke:#000000; stroke-linecap:round; stroke-linejoin:round; stroke-width:4; stroke-opacity:1; fill:none" points="1655.8,1031.52 1655.8,1486.45 1708.26,1486.45 1708.26,1031.52 1655.8,1031.52 "/>
<path clip-path="url(#clip222)" d="M1708.26 1143.14 L1708.26 1486.45 L1760.71 1486.45 L1760.71 1143.14 L1708.26 1143.14 L1708.26 1143.14  Z" fill="#009af9" fill-rule="evenodd" fill-opacity="1"/>
<polyline clip-path="url(#clip222)" style="stroke:#000000; stroke-linecap:round; stroke-linejoin:round; stroke-width:4; stroke-opacity:1; fill:none" points="1708.26,1143.14 1708.26,1486.45 1760.71,1486.45 1760.71,1143.14 1708.26,1143.14 "/>
<path clip-path="url(#clip222)" d="M1760.71 1261.52 L1760.71 1486.45 L1813.17 1486.45 L1813.17 1261.52 L1760.71 1261.52 L1760.71 1261.52  Z" fill="#009af9" fill-rule="evenodd" fill-opacity="1"/>
<polyline clip-path="url(#clip222)" style="stroke:#000000; stroke-linecap:round; stroke-linejoin:round; stroke-width:4; stroke-opacity:1; fill:none" points="1760.71,1261.52 1760.71,1486.45 1813.17,1486.45 1813.17,1261.52 1760.71,1261.52 "/>
<path clip-path="url(#clip222)" d="M1813.17 1325.78 L1813.17 1486.45 L1865.62 1486.45 L1865.62 1325.78 L1813.17 1325.78 L1813.17 1325.78  Z" fill="#009af9" fill-rule="evenodd" fill-opacity="1"/>
<polyline clip-path="url(#clip222)" style="stroke:#000000; stroke-linecap:round; stroke-linejoin:round; stroke-width:4; stroke-opacity:1; fill:none" points="1813.17,1325.78 1813.17,1486.45 1865.62,1486.45 1865.62,1325.78 1813.17,1325.78 "/>
<path clip-path="url(#clip222)" d="M1865.62 1381.59 L1865.62 1486.45 L1918.08 1486.45 L1918.08 1381.59 L1865.62 1381.59 L1865.62 1381.59  Z" fill="#009af9" fill-rule="evenodd" fill-opacity="1"/>
<polyline clip-path="url(#clip222)" style="stroke:#000000; stroke-linecap:round; stroke-linejoin:round; stroke-width:4; stroke-opacity:1; fill:none" points="1865.62,1381.59 1865.62,1486.45 1918.08,1486.45 1918.08,1381.59 1865.62,1381.59 "/>
<path clip-path="url(#clip222)" d="M1918.08 1434.02 L1918.08 1486.45 L1970.53 1486.45 L1970.53 1434.02 L1918.08 1434.02 L1918.08 1434.02  Z" fill="#009af9" fill-rule="evenodd" fill-opacity="1"/>
<polyline clip-path="url(#clip222)" style="stroke:#000000; stroke-linecap:round; stroke-linejoin:round; stroke-width:4; stroke-opacity:1; fill:none" points="1918.08,1434.02 1918.08,1486.45 1970.53,1486.45 1970.53,1434.02 1918.08,1434.02 "/>
<path clip-path="url(#clip222)" d="M1970.53 1439.09 L1970.53 1486.45 L2022.99 1486.45 L2022.99 1439.09 L1970.53 1439.09 L1970.53 1439.09  Z" fill="#009af9" fill-rule="evenodd" fill-opacity="1"/>
<polyline clip-path="url(#clip222)" style="stroke:#000000; stroke-linecap:round; stroke-linejoin:round; stroke-width:4; stroke-opacity:1; fill:none" points="1970.53,1439.09 1970.53,1486.45 2022.99,1486.45 2022.99,1439.09 1970.53,1439.09 "/>
<path clip-path="url(#clip222)" d="M2022.99 1461.08 L2022.99 1486.45 L2075.44 1486.45 L2075.44 1461.08 L2022.99 1461.08 L2022.99 1461.08  Z" fill="#009af9" fill-rule="evenodd" fill-opacity="1"/>
<polyline clip-path="url(#clip222)" style="stroke:#000000; stroke-linecap:round; stroke-linejoin:round; stroke-width:4; stroke-opacity:1; fill:none" points="2022.99,1461.08 2022.99,1486.45 2075.44,1486.45 2075.44,1461.08 2022.99,1461.08 "/>
<path clip-path="url(#clip222)" d="M2075.44 1477.99 L2075.44 1486.45 L2127.9 1486.45 L2127.9 1477.99 L2075.44 1477.99 L2075.44 1477.99  Z" fill="#009af9" fill-rule="evenodd" fill-opacity="1"/>
<polyline clip-path="url(#clip222)" style="stroke:#000000; stroke-linecap:round; stroke-linejoin:round; stroke-width:4; stroke-opacity:1; fill:none" points="2075.44,1477.99 2075.44,1486.45 2127.9,1486.45 2127.9,1477.99 2075.44,1477.99 "/>
<path clip-path="url(#clip222)" d="M2127.9 1474.61 L2127.9 1486.45 L2180.36 1486.45 L2180.36 1474.61 L2127.9 1474.61 L2127.9 1474.61  Z" fill="#009af9" fill-rule="evenodd" fill-opacity="1"/>
<polyline clip-path="url(#clip222)" style="stroke:#000000; stroke-linecap:round; stroke-linejoin:round; stroke-width:4; stroke-opacity:1; fill:none" points="2127.9,1474.61 2127.9,1486.45 2180.36,1486.45 2180.36,1474.61 2127.9,1474.61 "/>
<path clip-path="url(#clip222)" d="M2180.36 1483.07 L2180.36 1486.45 L2232.81 1486.45 L2232.81 1483.07 L2180.36 1483.07 L2180.36 1483.07  Z" fill="#009af9" fill-rule="evenodd" fill-opacity="1"/>
<polyline clip-path="url(#clip222)" style="stroke:#000000; stroke-linecap:round; stroke-linejoin:round; stroke-width:4; stroke-opacity:1; fill:none" points="2180.36,1483.07 2180.36,1486.45 2232.81,1486.45 2232.81,1483.07 2180.36,1483.07 "/>
<circle clip-path="url(#clip222)" style="fill:#009af9; stroke:none; fill-opacity:0" cx="318.187" cy="1484.76" r="2"/>
<circle clip-path="url(#clip222)" style="fill:#009af9; stroke:none; fill-opacity:0" cx="370.643" cy="1483.07" r="2"/>
<circle clip-path="url(#clip222)" style="fill:#009af9; stroke:none; fill-opacity:0" cx="423.098" cy="1481.37" r="2"/>
<circle clip-path="url(#clip222)" style="fill:#009af9; stroke:none; fill-opacity:0" cx="475.554" cy="1476.3" r="2"/>
<circle clip-path="url(#clip222)" style="fill:#009af9; stroke:none; fill-opacity:0" cx="528.009" cy="1472.92" r="2"/>
<circle clip-path="url(#clip222)" style="fill:#009af9; stroke:none; fill-opacity:0" cx="580.464" cy="1442.48" r="2"/>
<circle clip-path="url(#clip222)" style="fill:#009af9; stroke:none; fill-opacity:0" cx="632.92" cy="1439.09" r="2"/>
<circle clip-path="url(#clip222)" style="fill:#009af9; stroke:none; fill-opacity:0" cx="685.375" cy="1386.67" r="2"/>
<circle clip-path="url(#clip222)" style="fill:#009af9; stroke:none; fill-opacity:0" cx="737.831" cy="1322.4" r="2"/>
<circle clip-path="url(#clip222)" style="fill:#009af9; stroke:none; fill-opacity:0" cx="790.286" cy="1305.49" r="2"/>
<circle clip-path="url(#clip222)" style="fill:#009af9; stroke:none; fill-opacity:0" cx="842.742" cy="1226" r="2"/>
<circle clip-path="url(#clip222)" style="fill:#009af9; stroke:none; fill-opacity:0" cx="895.197" cy="1021.37" r="2"/>
<circle clip-path="url(#clip222)" style="fill:#009af9; stroke:none; fill-opacity:0" cx="947.653" cy="865.781" r="2"/>
<circle clip-path="url(#clip222)" style="fill:#009af9; stroke:none; fill-opacity:0" cx="1000.11" cy="672.985" r="2"/>
<circle clip-path="url(#clip222)" style="fill:#009af9; stroke:none; fill-opacity:0" cx="1052.56" cy="661.147" r="2"/>
<circle clip-path="url(#clip222)" style="fill:#009af9; stroke:none; fill-opacity:0" cx="1105.02" cy="456.512" r="2"/>
<circle clip-path="url(#clip222)" style="fill:#009af9; stroke:none; fill-opacity:0" cx="1157.47" cy="349.967" r="2"/>
<circle clip-path="url(#clip222)" style="fill:#009af9; stroke:none; fill-opacity:0" cx="1209.93" cy="179.157" r="2"/>
<circle clip-path="url(#clip222)" style="fill:#009af9; stroke:none; fill-opacity:0" cx="1262.39" cy="180.848" r="2"/>
<circle clip-path="url(#clip222)" style="fill:#009af9; stroke:none; fill-opacity:0" cx="1314.84" cy="47.2441" r="2"/>
<circle clip-path="url(#clip222)" style="fill:#009af9; stroke:none; fill-opacity:0" cx="1367.3" cy="179.157" r="2"/>
<circle clip-path="url(#clip222)" style="fill:#009af9; stroke:none; fill-opacity:0" cx="1419.75" cy="375.335" r="2"/>
<circle clip-path="url(#clip222)" style="fill:#009af9; stroke:none; fill-opacity:0" cx="1472.21" cy="422.689" r="2"/>
<circle clip-path="url(#clip222)" style="fill:#009af9; stroke:none; fill-opacity:0" cx="1524.66" cy="583.352" r="2"/>
<circle clip-path="url(#clip222)" style="fill:#009af9; stroke:none; fill-opacity:0" cx="1577.12" cy="735.559" r="2"/>
<circle clip-path="url(#clip222)" style="fill:#009af9; stroke:none; fill-opacity:0" cx="1629.57" cy="921.59" r="2"/>
<circle clip-path="url(#clip222)" style="fill:#009af9; stroke:none; fill-opacity:0" cx="1682.03" cy="1031.52" r="2"/>
<circle clip-path="url(#clip222)" style="fill:#009af9; stroke:none; fill-opacity:0" cx="1734.48" cy="1143.14" r="2"/>
<circle clip-path="url(#clip222)" style="fill:#009af9; stroke:none; fill-opacity:0" cx="1786.94" cy="1261.52" r="2"/>
<circle clip-path="url(#clip222)" style="fill:#009af9; stroke:none; fill-opacity:0" cx="1839.4" cy="1325.78" r="2"/>
<circle clip-path="url(#clip222)" style="fill:#009af9; stroke:none; fill-opacity:0" cx="1891.85" cy="1381.59" r="2"/>
<circle clip-path="url(#clip222)" style="fill:#009af9; stroke:none; fill-opacity:0" cx="1944.31" cy="1434.02" r="2"/>
<circle clip-path="url(#clip222)" style="fill:#009af9; stroke:none; fill-opacity:0" cx="1996.76" cy="1439.09" r="2"/>
<circle clip-path="url(#clip222)" style="fill:#009af9; stroke:none; fill-opacity:0" cx="2049.22" cy="1461.08" r="2"/>
<circle clip-path="url(#clip222)" style="fill:#009af9; stroke:none; fill-opacity:0" cx="2101.67" cy="1477.99" r="2"/>
<circle clip-path="url(#clip222)" style="fill:#009af9; stroke:none; fill-opacity:0" cx="2154.13" cy="1474.61" r="2"/>
<circle clip-path="url(#clip222)" style="fill:#009af9; stroke:none; fill-opacity:0" cx="2206.58" cy="1483.07" r="2"/>
</svg>
