<?xml version="1.0" encoding="utf-8"?>
<svg xmlns="http://www.w3.org/2000/svg" xmlns:xlink="http://www.w3.org/1999/xlink" width="600" height="400" viewBox="0 0 2400 1600">
<defs>
  <clipPath id="clip180">
    <rect x="0" y="0" width="2400" height="1600"/>
  </clipPath>
</defs>
<path clip-path="url(#clip180)" d="M0 1600 L2400 1600 L2400 0 L0 0  Z" fill="#ffffff" fill-rule="evenodd" fill-opacity="1"/>
<defs>
  <clipPath id="clip181">
    <rect x="480" y="0" width="1681" height="1600"/>
  </clipPath>
</defs>
<path clip-path="url(#clip180)" d="M276.876 1410.9 L2352.76 1410.9 L2352.76 47.2441 L276.876 47.2441  Z" fill="#ffffff" fill-rule="evenodd" fill-opacity="1"/>
<defs>
  <clipPath id="clip182">
    <rect x="276" y="47" width="2077" height="1365"/>
  </clipPath>
</defs>
<polyline clip-path="url(#clip182)" style="stroke:#000000; stroke-linecap:round; stroke-linejoin:round; stroke-width:2; stroke-opacity:0.1; fill:none" points="335.627,1410.9 335.627,47.2441 "/>
<polyline clip-path="url(#clip182)" style="stroke:#000000; stroke-linecap:round; stroke-linejoin:round; stroke-width:2; stroke-opacity:0.1; fill:none" points="1314.82,1410.9 1314.82,47.2441 "/>
<polyline clip-path="url(#clip182)" style="stroke:#000000; stroke-linecap:round; stroke-linejoin:round; stroke-width:2; stroke-opacity:0.1; fill:none" points="2294,1410.9 2294,47.2441 "/>
<polyline clip-path="url(#clip182)" style="stroke:#000000; stroke-linecap:round; stroke-linejoin:round; stroke-width:2; stroke-opacity:0.1; fill:none" points="276.876,1143.18 2352.76,1143.18 "/>
<polyline clip-path="url(#clip182)" style="stroke:#000000; stroke-linecap:round; stroke-linejoin:round; stroke-width:2; stroke-opacity:0.1; fill:none" points="276.876,674.449 2352.76,674.449 "/>
<polyline clip-path="url(#clip182)" style="stroke:#000000; stroke-linecap:round; stroke-linejoin:round; stroke-width:2; stroke-opacity:0.1; fill:none" points="276.876,205.716 2352.76,205.716 "/>
<polyline clip-path="url(#clip180)" style="stroke:#000000; stroke-linecap:round; stroke-linejoin:round; stroke-width:4; stroke-opacity:1; fill:none" points="276.876,1410.9 2352.76,1410.9 "/>
<polyline clip-path="url(#clip180)" style="stroke:#000000; stroke-linecap:round; stroke-linejoin:round; stroke-width:4; stroke-opacity:1; fill:none" points="335.627,1410.9 335.627,1392 "/>
<polyline clip-path="url(#clip180)" style="stroke:#000000; stroke-linecap:round; stroke-linejoin:round; stroke-width:4; stroke-opacity:1; fill:none" points="1314.82,1410.9 1314.82,1392 "/>
<polyline clip-path="url(#clip180)" style="stroke:#000000; stroke-linecap:round; stroke-linejoin:round; stroke-width:4; stroke-opacity:1; fill:none" points="2294,1410.9 2294,1392 "/>
<path clip-path="url(#clip180)" d="M285.507 1485.02 L293.146 1485.02 L293.146 1458.66 L284.836 1460.32 L284.836 1456.06 L293.1 1454.4 L297.775 1454.4 L297.775 1485.02 L305.414 1485.02 L305.414 1488.96 L285.507 1488.96 L285.507 1485.02 Z" fill="#000000" fill-rule="nonzero" fill-opacity="1" /><path clip-path="url(#clip180)" d="M324.859 1457.48 Q321.248 1457.48 319.419 1461.04 Q317.613 1464.58 317.613 1471.71 Q317.613 1478.82 319.419 1482.38 Q321.248 1485.92 324.859 1485.92 Q328.493 1485.92 330.298 1482.38 Q332.127 1478.82 332.127 1471.71 Q332.127 1464.58 330.298 1461.04 Q328.493 1457.48 324.859 1457.48 M324.859 1453.77 Q330.669 1453.77 333.724 1458.38 Q336.803 1462.96 336.803 1471.71 Q336.803 1480.44 333.724 1485.04 Q330.669 1489.63 324.859 1489.63 Q319.049 1489.63 315.97 1485.04 Q312.914 1480.44 312.914 1471.71 Q312.914 1462.96 315.97 1458.38 Q319.049 1453.77 324.859 1453.77 Z" fill="#000000" fill-rule="nonzero" fill-opacity="1" /><path clip-path="url(#clip180)" d="M336.803 1447.87 L360.915 1447.87 L360.915 1451.07 L336.803 1451.07 L336.803 1447.87 Z" fill="#000000" fill-rule="nonzero" fill-opacity="1" /><path clip-path="url(#clip180)" d="M380.625 1446.41 Q383.352 1446.99 384.876 1448.83 Q386.418 1450.68 386.418 1453.38 Q386.418 1457.54 383.559 1459.82 Q380.7 1462.09 375.434 1462.09 Q373.666 1462.09 371.786 1461.73 Q369.924 1461.4 367.93 1460.7 L367.93 1457.03 Q369.51 1457.95 371.391 1458.42 Q373.271 1458.89 375.321 1458.89 Q378.895 1458.89 380.757 1457.48 Q382.638 1456.07 382.638 1453.38 Q382.638 1450.9 380.888 1449.51 Q379.158 1448.1 376.055 1448.1 L372.782 1448.1 L372.782 1444.98 L376.205 1444.98 Q379.008 1444.98 380.493 1443.87 Q381.979 1442.74 381.979 1440.63 Q381.979 1438.47 380.437 1437.32 Q378.914 1436.16 376.055 1436.16 Q374.494 1436.16 372.707 1436.49 Q370.92 1436.83 368.776 1437.55 L368.776 1434.16 Q370.939 1433.56 372.82 1433.26 Q374.72 1432.96 376.393 1432.96 Q380.719 1432.96 383.239 1434.93 Q385.76 1436.89 385.76 1440.24 Q385.76 1442.57 384.424 1444.19 Q383.089 1445.79 380.625 1446.41 Z" fill="#000000" fill-rule="nonzero" fill-opacity="1" /><path clip-path="url(#clip180)" d="M1265.08 1485.02 L1272.72 1485.02 L1272.72 1458.66 L1264.41 1460.32 L1264.41 1456.06 L1272.67 1454.4 L1277.35 1454.4 L1277.35 1485.02 L1284.99 1485.02 L1284.99 1488.96 L1265.08 1488.96 L1265.08 1485.02 Z" fill="#000000" fill-rule="nonzero" fill-opacity="1" /><path clip-path="url(#clip180)" d="M1304.43 1457.48 Q1300.82 1457.48 1298.99 1461.04 Q1297.19 1464.58 1297.19 1471.71 Q1297.19 1478.82 1298.99 1482.38 Q1300.82 1485.92 1304.43 1485.92 Q1308.07 1485.92 1309.87 1482.38 Q1311.7 1478.82 1311.7 1471.71 Q1311.7 1464.58 1309.87 1461.04 Q1308.07 1457.48 1304.43 1457.48 M1304.43 1453.77 Q1310.24 1453.77 1313.3 1458.38 Q1316.38 1462.96 1316.38 1471.71 Q1316.38 1480.44 1313.3 1485.04 Q1310.24 1489.63 1304.43 1489.63 Q1298.62 1489.63 1295.54 1485.04 Q1292.49 1480.44 1292.49 1471.71 Q1292.49 1462.96 1295.54 1458.38 Q1298.62 1453.77 1304.43 1453.77 Z" fill="#000000" fill-rule="nonzero" fill-opacity="1" /><path clip-path="url(#clip180)" d="M1316.38 1447.87 L1340.49 1447.87 L1340.49 1451.07 L1316.38 1451.07 L1316.38 1447.87 Z" fill="#000000" fill-rule="nonzero" fill-opacity="1" /><path clip-path="url(#clip180)" d="M1351.96 1458.35 L1365.22 1458.35 L1365.22 1461.55 L1347.39 1461.55 L1347.39 1458.35 Q1349.55 1456.11 1353.28 1452.35 Q1357.02 1448.57 1357.98 1447.48 Q1359.8 1445.43 1360.52 1444.02 Q1361.25 1442.59 1361.25 1441.22 Q1361.25 1438.98 1359.67 1437.57 Q1358.11 1436.16 1355.59 1436.16 Q1353.8 1436.16 1351.81 1436.78 Q1349.84 1437.4 1347.58 1438.66 L1347.58 1434.82 Q1349.87 1433.9 1351.87 1433.43 Q1353.86 1432.96 1355.52 1432.96 Q1359.88 1432.96 1362.48 1435.14 Q1365.07 1437.32 1365.07 1440.97 Q1365.07 1442.7 1364.41 1444.26 Q1363.77 1445.8 1362.06 1447.91 Q1361.59 1448.46 1359.07 1451.07 Q1356.55 1453.67 1351.96 1458.35 Z" fill="#000000" fill-rule="nonzero" fill-opacity="1" /><path clip-path="url(#clip180)" d="M2244.12 1485.02 L2251.76 1485.02 L2251.76 1458.66 L2243.45 1460.32 L2243.45 1456.06 L2251.71 1454.4 L2256.39 1454.4 L2256.39 1485.02 L2264.03 1485.02 L2264.03 1488.96 L2244.12 1488.96 L2244.12 1485.02 Z" fill="#000000" fill-rule="nonzero" fill-opacity="1" /><path clip-path="url(#clip180)" d="M2283.47 1457.48 Q2279.86 1457.48 2278.03 1461.04 Q2276.23 1464.58 2276.23 1471.71 Q2276.23 1478.82 2278.03 1482.38 Q2279.86 1485.92 2283.47 1485.92 Q2287.11 1485.92 2288.91 1482.38 Q2290.74 1478.82 2290.74 1471.71 Q2290.74 1464.58 2288.91 1461.04 Q2287.11 1457.48 2283.47 1457.48 M2283.47 1453.77 Q2289.28 1453.77 2292.34 1458.38 Q2295.42 1462.96 2295.42 1471.71 Q2295.42 1480.44 2292.34 1485.04 Q2289.28 1489.63 2283.47 1489.63 Q2277.66 1489.63 2274.58 1485.04 Q2271.53 1480.44 2271.53 1471.71 Q2271.53 1462.96 2274.58 1458.38 Q2277.66 1453.77 2283.47 1453.77 Z" fill="#000000" fill-rule="nonzero" fill-opacity="1" /><path clip-path="url(#clip180)" d="M2295.42 1447.87 L2319.53 1447.87 L2319.53 1451.07 L2295.42 1451.07 L2295.42 1447.87 Z" fill="#000000" fill-rule="nonzero" fill-opacity="1" /><path clip-path="url(#clip180)" d="M2328.39 1458.35 L2334.59 1458.35 L2334.59 1436.93 L2327.84 1438.28 L2327.84 1434.82 L2334.55 1433.47 L2338.35 1433.47 L2338.35 1458.35 L2344.56 1458.35 L2344.56 1461.55 L2328.39 1461.55 L2328.39 1458.35 Z" fill="#000000" fill-rule="nonzero" fill-opacity="1" /><path clip-path="url(#clip180)" d="M990.69 1531.95 L990.69 1549.8 L998.774 1549.8 Q1003.26 1549.8 1005.71 1547.48 Q1008.16 1545.16 1008.16 1540.86 Q1008.16 1536.6 1005.71 1534.27 Q1003.26 1531.95 998.774 1531.95 L990.69 1531.95 M984.26 1526.67 L998.774 1526.67 Q1006.76 1526.67 1010.84 1530.29 Q1014.94 1533.89 1014.94 1540.86 Q1014.94 1547.9 1010.84 1551.49 Q1006.76 1555.09 998.774 1555.09 L990.69 1555.09 L990.69 1574.19 L984.26 1574.19 L984.26 1526.67 Z" fill="#000000" fill-rule="nonzero" fill-opacity="1" /><path clip-path="url(#clip180)" d="M1036.59 1556.27 Q1029.49 1556.27 1026.75 1557.89 Q1024.01 1559.51 1024.01 1563.43 Q1024.01 1566.55 1026.05 1568.39 Q1028.12 1570.21 1031.65 1570.21 Q1036.52 1570.21 1039.45 1566.77 Q1042.41 1563.3 1042.41 1557.57 L1042.41 1556.27 L1036.59 1556.27 M1048.27 1553.85 L1048.27 1574.19 L1042.41 1574.19 L1042.41 1568.77 Q1040.41 1572.02 1037.41 1573.58 Q1034.42 1575.11 1030.09 1575.11 Q1024.62 1575.11 1021.37 1572.05 Q1018.16 1568.97 1018.16 1563.81 Q1018.16 1557.79 1022.17 1554.74 Q1026.21 1551.68 1034.2 1551.68 L1042.41 1551.68 L1042.41 1551.11 Q1042.41 1547.07 1039.74 1544.87 Q1037.1 1542.64 1032.29 1542.64 Q1029.23 1542.64 1026.34 1543.38 Q1023.44 1544.11 1020.77 1545.57 L1020.77 1540.16 Q1023.98 1538.92 1027.01 1538.31 Q1030.03 1537.68 1032.89 1537.68 Q1040.63 1537.68 1044.45 1541.69 Q1048.27 1545.7 1048.27 1553.85 Z" fill="#000000" fill-rule="nonzero" fill-opacity="1" /><path clip-path="url(#clip180)" d="M1083.06 1539.59 L1083.06 1545.13 Q1080.57 1543.85 1077.9 1543.22 Q1075.23 1542.58 1072.36 1542.58 Q1068 1542.58 1065.81 1543.92 Q1063.64 1545.25 1063.64 1547.93 Q1063.64 1549.96 1065.2 1551.14 Q1066.76 1552.29 1071.47 1553.34 L1073.48 1553.78 Q1079.71 1555.12 1082.32 1557.57 Q1084.97 1559.99 1084.97 1564.35 Q1084.97 1569.32 1081.02 1572.21 Q1077.1 1575.11 1070.23 1575.11 Q1067.36 1575.11 1064.25 1574.54 Q1061.16 1573.99 1057.72 1572.88 L1057.72 1566.83 Q1060.97 1568.52 1064.12 1569.38 Q1067.27 1570.21 1070.36 1570.21 Q1074.49 1570.21 1076.72 1568.81 Q1078.95 1567.37 1078.95 1564.8 Q1078.95 1562.41 1077.33 1561.14 Q1075.74 1559.86 1070.29 1558.68 L1068.26 1558.21 Q1062.81 1557.06 1060.39 1554.71 Q1057.98 1552.32 1057.98 1548.18 Q1057.98 1543.15 1061.54 1540.42 Q1065.1 1537.68 1071.66 1537.68 Q1074.91 1537.68 1077.77 1538.16 Q1080.64 1538.63 1083.06 1539.59 Z" fill="#000000" fill-rule="nonzero" fill-opacity="1" /><path clip-path="url(#clip180)" d="M1117.02 1539.59 L1117.02 1545.13 Q1114.53 1543.85 1111.86 1543.22 Q1109.19 1542.58 1106.32 1542.58 Q1101.96 1542.58 1099.77 1543.92 Q1097.6 1545.25 1097.6 1547.93 Q1097.6 1549.96 1099.16 1551.14 Q1100.72 1552.29 1105.43 1553.34 L1107.44 1553.78 Q1113.68 1555.12 1116.29 1557.57 Q1118.93 1559.99 1118.93 1564.35 Q1118.93 1569.32 1114.98 1572.21 Q1111.07 1575.11 1104.19 1575.11 Q1101.33 1575.11 1098.21 1574.54 Q1095.12 1573.99 1091.68 1572.88 L1091.68 1566.83 Q1094.93 1568.52 1098.08 1569.38 Q1101.23 1570.21 1104.32 1570.21 Q1108.46 1570.21 1110.68 1568.81 Q1112.91 1567.37 1112.91 1564.8 Q1112.91 1562.41 1111.29 1561.14 Q1109.7 1559.86 1104.25 1558.68 L1102.22 1558.21 Q1096.77 1557.06 1094.36 1554.71 Q1091.94 1552.32 1091.94 1548.18 Q1091.94 1543.15 1095.5 1540.42 Q1099.07 1537.68 1105.62 1537.68 Q1108.87 1537.68 1111.73 1538.16 Q1114.6 1538.63 1117.02 1539.59 Z" fill="#000000" fill-rule="nonzero" fill-opacity="1" /><path clip-path="url(#clip180)" d="M1142.07 1542.64 Q1137.36 1542.64 1134.62 1546.34 Q1131.88 1550 1131.88 1556.39 Q1131.88 1562.79 1134.59 1566.48 Q1137.32 1570.14 1142.07 1570.14 Q1146.75 1570.14 1149.48 1566.45 Q1152.22 1562.76 1152.22 1556.39 Q1152.22 1550.06 1149.48 1546.37 Q1146.75 1542.64 1142.07 1542.64 M1142.07 1537.68 Q1149.71 1537.68 1154.07 1542.64 Q1158.43 1547.61 1158.43 1556.39 Q1158.43 1565.15 1154.07 1570.14 Q1149.71 1575.11 1142.07 1575.11 Q1134.4 1575.11 1130.04 1570.14 Q1125.71 1565.15 1125.71 1556.39 Q1125.71 1547.61 1130.04 1542.64 Q1134.4 1537.68 1142.07 1537.68 Z" fill="#000000" fill-rule="nonzero" fill-opacity="1" /><path clip-path="url(#clip180)" d="M1212.31 1543.95 L1212.31 1524.66 L1218.17 1524.66 L1218.17 1574.19 L1212.31 1574.19 L1212.31 1568.84 Q1210.47 1572.02 1207.63 1573.58 Q1204.83 1575.11 1200.89 1575.11 Q1194.42 1575.11 1190.35 1569.95 Q1186.31 1564.8 1186.31 1556.39 Q1186.31 1547.99 1190.35 1542.83 Q1194.42 1537.68 1200.89 1537.68 Q1204.83 1537.68 1207.63 1539.24 Q1210.47 1540.77 1212.31 1543.95 M1192.36 1556.39 Q1192.36 1562.85 1195 1566.55 Q1197.67 1570.21 1202.32 1570.21 Q1206.96 1570.21 1209.64 1566.55 Q1212.31 1562.85 1212.31 1556.39 Q1212.31 1549.93 1209.64 1546.27 Q1206.96 1542.58 1202.32 1542.58 Q1197.67 1542.58 1195 1546.27 Q1192.36 1549.93 1192.36 1556.39 Z" fill="#000000" fill-rule="nonzero" fill-opacity="1" /><path clip-path="url(#clip180)" d="M1235.77 1526.67 L1235.77 1544.33 L1230.36 1544.33 L1230.36 1526.67 L1235.77 1526.67 Z" fill="#000000" fill-rule="nonzero" fill-opacity="1" /><path clip-path="url(#clip180)" d="M1248.15 1538.54 L1254.01 1538.54 L1254.01 1574.19 L1248.15 1574.19 L1248.15 1538.54 M1248.15 1524.66 L1254.01 1524.66 L1254.01 1532.08 L1248.15 1532.08 L1248.15 1524.66 Z" fill="#000000" fill-rule="nonzero" fill-opacity="1" /><path clip-path="url(#clip180)" d="M1295.89 1552.67 L1295.89 1574.19 L1290.04 1574.19 L1290.04 1552.86 Q1290.04 1547.8 1288.06 1545.29 Q1286.09 1542.77 1282.14 1542.77 Q1277.4 1542.77 1274.66 1545.79 Q1271.93 1548.82 1271.93 1554.04 L1271.93 1574.19 L1266.04 1574.19 L1266.04 1538.54 L1271.93 1538.54 L1271.93 1544.08 Q1274.03 1540.86 1276.86 1539.27 Q1279.72 1537.68 1283.45 1537.68 Q1289.59 1537.68 1292.74 1541.5 Q1295.89 1545.29 1295.89 1552.67 Z" fill="#000000" fill-rule="nonzero" fill-opacity="1" /><path clip-path="url(#clip180)" d="M1313.37 1528.42 L1313.37 1538.54 L1325.43 1538.54 L1325.43 1543.09 L1313.37 1543.09 L1313.37 1562.44 Q1313.37 1566.8 1314.55 1568.04 Q1315.75 1569.28 1319.41 1569.28 L1325.43 1569.28 L1325.43 1574.19 L1319.41 1574.19 Q1312.64 1574.19 1310.06 1571.67 Q1307.48 1569.12 1307.48 1562.44 L1307.48 1543.09 L1303.18 1543.09 L1303.18 1538.54 L1307.48 1538.54 L1307.48 1528.42 L1313.37 1528.42 Z" fill="#000000" fill-rule="nonzero" fill-opacity="1" /><path clip-path="url(#clip180)" d="M1363.62 1554.9 L1363.62 1557.76 L1336.7 1557.76 Q1337.08 1563.81 1340.33 1566.99 Q1343.6 1570.14 1349.43 1570.14 Q1352.8 1570.14 1355.95 1569.32 Q1359.14 1568.49 1362.26 1566.83 L1362.26 1572.37 Q1359.11 1573.71 1355.79 1574.41 Q1352.48 1575.11 1349.08 1575.11 Q1340.55 1575.11 1335.55 1570.14 Q1330.59 1565.18 1330.59 1556.71 Q1330.59 1547.96 1335.3 1542.83 Q1340.04 1537.68 1348.06 1537.68 Q1355.25 1537.68 1359.42 1542.33 Q1363.62 1546.94 1363.62 1554.9 M1357.77 1553.18 Q1357.7 1548.37 1355.06 1545.51 Q1352.45 1542.64 1348.12 1542.64 Q1343.22 1542.64 1340.26 1545.41 Q1337.33 1548.18 1336.89 1553.21 L1357.77 1553.18 Z" fill="#000000" fill-rule="nonzero" fill-opacity="1" /><path clip-path="url(#clip180)" d="M1396.69 1555.95 Q1396.69 1549.58 1394.05 1546.08 Q1391.44 1542.58 1386.7 1542.58 Q1381.99 1542.58 1379.35 1546.08 Q1376.74 1549.58 1376.74 1555.95 Q1376.74 1562.28 1379.35 1565.78 Q1381.99 1569.28 1386.7 1569.28 Q1391.44 1569.28 1394.05 1565.78 Q1396.69 1562.28 1396.69 1555.95 M1402.55 1569.76 Q1402.55 1578.86 1398.51 1583.29 Q1394.47 1587.74 1386.13 1587.74 Q1383.04 1587.74 1380.3 1587.27 Q1377.57 1586.82 1374.99 1585.87 L1374.99 1580.17 Q1377.57 1581.57 1380.08 1582.24 Q1382.59 1582.91 1385.2 1582.91 Q1390.97 1582.91 1393.83 1579.88 Q1396.69 1576.89 1396.69 1570.81 L1396.69 1567.92 Q1394.88 1571.07 1392.05 1572.63 Q1389.21 1574.19 1385.27 1574.19 Q1378.71 1574.19 1374.7 1569.19 Q1370.69 1564.19 1370.69 1555.95 Q1370.69 1547.67 1374.7 1542.68 Q1378.71 1537.68 1385.27 1537.68 Q1389.21 1537.68 1392.05 1539.24 Q1394.88 1540.8 1396.69 1543.95 L1396.69 1538.54 L1402.55 1538.54 L1402.55 1569.76 Z" fill="#000000" fill-rule="nonzero" fill-opacity="1" /><path clip-path="url(#clip180)" d="M1435.27 1544.01 Q1434.28 1543.44 1433.11 1543.18 Q1431.96 1542.9 1430.56 1542.9 Q1425.59 1542.9 1422.92 1546.14 Q1420.28 1549.36 1420.28 1555.41 L1420.28 1574.19 L1414.39 1574.19 L1414.39 1538.54 L1420.28 1538.54 L1420.28 1544.08 Q1422.13 1540.83 1425.09 1539.27 Q1428.05 1537.68 1432.28 1537.68 Q1432.88 1537.68 1433.62 1537.77 Q1434.35 1537.84 1435.24 1538 L1435.27 1544.01 Z" fill="#000000" fill-rule="nonzero" fill-opacity="1" /><path clip-path="url(#clip180)" d="M1457.61 1556.27 Q1450.52 1556.27 1447.78 1557.89 Q1445.04 1559.51 1445.04 1563.43 Q1445.04 1566.55 1447.08 1568.39 Q1449.15 1570.21 1452.68 1570.21 Q1457.55 1570.21 1460.48 1566.77 Q1463.44 1563.3 1463.44 1557.57 L1463.44 1556.27 L1457.61 1556.27 M1469.3 1553.85 L1469.3 1574.19 L1463.44 1574.19 L1463.44 1568.77 Q1461.43 1572.02 1458.44 1573.58 Q1455.45 1575.11 1451.12 1575.11 Q1445.65 1575.11 1442.4 1572.05 Q1439.19 1568.97 1439.19 1563.81 Q1439.19 1557.79 1443.2 1554.74 Q1447.24 1551.68 1455.23 1551.68 L1463.44 1551.68 L1463.44 1551.11 Q1463.44 1547.07 1460.77 1544.87 Q1458.12 1542.64 1453.32 1542.64 Q1450.26 1542.64 1447.37 1543.38 Q1444.47 1544.11 1441.8 1545.57 L1441.8 1540.16 Q1445.01 1538.92 1448.03 1538.31 Q1451.06 1537.68 1453.92 1537.68 Q1461.66 1537.68 1465.48 1541.69 Q1469.3 1545.7 1469.3 1553.85 Z" fill="#000000" fill-rule="nonzero" fill-opacity="1" /><path clip-path="url(#clip180)" d="M1478.81 1538.54 L1506.63 1538.54 L1506.63 1543.88 L1484.61 1569.51 L1506.63 1569.51 L1506.63 1574.19 L1478.02 1574.19 L1478.02 1568.84 L1500.04 1543.22 L1478.81 1543.22 L1478.81 1538.54 Z" fill="#000000" fill-rule="nonzero" fill-opacity="1" /><path clip-path="url(#clip180)" d="M1515.57 1538.54 L1521.43 1538.54 L1521.43 1574.19 L1515.57 1574.19 L1515.57 1538.54 M1515.57 1524.66 L1521.43 1524.66 L1521.43 1532.08 L1515.57 1532.08 L1515.57 1524.66 Z" fill="#000000" fill-rule="nonzero" fill-opacity="1" /><path clip-path="url(#clip180)" d="M1547.5 1542.64 Q1542.79 1542.64 1540.05 1546.34 Q1537.31 1550 1537.31 1556.39 Q1537.31 1562.79 1540.02 1566.48 Q1542.76 1570.14 1547.5 1570.14 Q1552.18 1570.14 1554.91 1566.45 Q1557.65 1562.76 1557.65 1556.39 Q1557.65 1550.06 1554.91 1546.37 Q1552.18 1542.64 1547.5 1542.64 M1547.5 1537.68 Q1555.14 1537.68 1559.5 1542.64 Q1563.86 1547.61 1563.86 1556.39 Q1563.86 1565.15 1559.5 1570.14 Q1555.14 1575.11 1547.5 1575.11 Q1539.83 1575.11 1535.47 1570.14 Q1531.14 1565.15 1531.14 1556.39 Q1531.14 1547.61 1535.47 1542.64 Q1539.83 1537.68 1547.5 1537.68 Z" fill="#000000" fill-rule="nonzero" fill-opacity="1" /><path clip-path="url(#clip180)" d="M1603.2 1552.67 L1603.2 1574.19 L1597.34 1574.19 L1597.34 1552.86 Q1597.34 1547.8 1595.37 1545.29 Q1593.39 1542.77 1589.45 1542.77 Q1584.71 1542.77 1581.97 1545.79 Q1579.23 1548.82 1579.23 1554.04 L1579.23 1574.19 L1573.34 1574.19 L1573.34 1538.54 L1579.23 1538.54 L1579.23 1544.08 Q1581.33 1540.86 1584.16 1539.27 Q1587.03 1537.68 1590.75 1537.68 Q1596.9 1537.68 1600.05 1541.5 Q1603.2 1545.29 1603.2 1552.67 Z" fill="#000000" fill-rule="nonzero" fill-opacity="1" /><path clip-path="url(#clip180)" d="M1645.37 1554.9 L1645.37 1557.76 L1618.44 1557.76 Q1618.83 1563.81 1622.07 1566.99 Q1625.35 1570.14 1631.18 1570.14 Q1634.55 1570.14 1637.7 1569.32 Q1640.88 1568.49 1644 1566.83 L1644 1572.37 Q1640.85 1573.71 1637.54 1574.41 Q1634.23 1575.11 1630.83 1575.11 Q1622.3 1575.11 1617.3 1570.14 Q1612.33 1565.18 1612.33 1556.71 Q1612.33 1547.96 1617.04 1542.83 Q1621.79 1537.68 1629.81 1537.68 Q1637 1537.68 1641.17 1542.33 Q1645.37 1546.94 1645.37 1554.9 M1639.51 1553.18 Q1639.45 1548.37 1636.81 1545.51 Q1634.2 1542.64 1629.87 1542.64 Q1624.97 1542.64 1622.01 1545.41 Q1619.08 1548.18 1618.63 1553.21 L1639.51 1553.18 Z" fill="#000000" fill-rule="nonzero" fill-opacity="1" /><polyline clip-path="url(#clip180)" style="stroke:#000000; stroke-linecap:round; stroke-linejoin:round; stroke-width:4; stroke-opacity:1; fill:none" points="276.876,1410.9 276.876,47.2441 "/>
<polyline clip-path="url(#clip180)" style="stroke:#000000; stroke-linecap:round; stroke-linejoin:round; stroke-width:4; stroke-opacity:1; fill:none" points="276.876,1143.18 295.773,1143.18 "/>
<polyline clip-path="url(#clip180)" style="stroke:#000000; stroke-linecap:round; stroke-linejoin:round; stroke-width:4; stroke-opacity:1; fill:none" points="276.876,674.449 295.773,674.449 "/>
<polyline clip-path="url(#clip180)" style="stroke:#000000; stroke-linecap:round; stroke-linejoin:round; stroke-width:4; stroke-opacity:1; fill:none" points="276.876,205.716 295.773,205.716 "/>
<path clip-path="url(#clip180)" d="M114.931 1162.97 L122.57 1162.97 L122.57 1136.61 L114.26 1138.28 L114.26 1134.02 L122.524 1132.35 L127.2 1132.35 L127.2 1162.97 L134.839 1162.97 L134.839 1166.91 L114.931 1166.91 L114.931 1162.97 Z" fill="#000000" fill-rule="nonzero" fill-opacity="1" /><path clip-path="url(#clip180)" d="M154.283 1135.43 Q150.672 1135.43 148.843 1138.99 Q147.038 1142.53 147.038 1149.66 Q147.038 1156.77 148.843 1160.34 Q150.672 1163.88 154.283 1163.88 Q157.917 1163.88 159.723 1160.34 Q161.552 1156.77 161.552 1149.66 Q161.552 1142.53 159.723 1138.99 Q157.917 1135.43 154.283 1135.43 M154.283 1131.72 Q160.093 1131.72 163.149 1136.33 Q166.227 1140.91 166.227 1149.66 Q166.227 1158.39 163.149 1163 Q160.093 1167.58 154.283 1167.58 Q148.473 1167.58 145.394 1163 Q142.339 1158.39 142.339 1149.66 Q142.339 1140.91 145.394 1136.33 Q148.473 1131.72 154.283 1131.72 Z" fill="#000000" fill-rule="nonzero" fill-opacity="1" /><path clip-path="url(#clip180)" d="M166.227 1125.83 L190.339 1125.83 L190.339 1129.02 L166.227 1129.02 L166.227 1125.83 Z" fill="#000000" fill-rule="nonzero" fill-opacity="1" /><path clip-path="url(#clip180)" d="M199.197 1136.3 L205.404 1136.3 L205.404 1114.88 L198.652 1116.23 L198.652 1112.77 L205.366 1111.42 L209.166 1111.42 L209.166 1136.3 L215.372 1136.3 L215.372 1139.5 L199.197 1139.5 L199.197 1136.3 Z" fill="#000000" fill-rule="nonzero" fill-opacity="1" /><path clip-path="url(#clip180)" d="M231.171 1113.92 Q228.237 1113.92 226.751 1116.82 Q225.284 1119.69 225.284 1125.49 Q225.284 1131.26 226.751 1134.16 Q228.237 1137.04 231.171 1137.04 Q234.124 1137.04 235.591 1134.16 Q237.076 1131.26 237.076 1125.49 Q237.076 1119.69 235.591 1116.82 Q234.124 1113.92 231.171 1113.92 M231.171 1110.91 Q235.891 1110.91 238.374 1114.65 Q240.876 1118.38 240.876 1125.49 Q240.876 1132.58 238.374 1136.32 Q235.891 1140.04 231.171 1140.04 Q226.45 1140.04 223.949 1136.32 Q221.466 1132.58 221.466 1125.49 Q221.466 1118.38 223.949 1114.65 Q226.45 1110.91 231.171 1110.91 Z" fill="#000000" fill-rule="nonzero" fill-opacity="1" /><path clip-path="url(#clip180)" d="M140.247 694.242 L147.886 694.242 L147.886 667.876 L139.575 669.543 L139.575 665.283 L147.839 663.617 L152.515 663.617 L152.515 694.242 L160.154 694.242 L160.154 698.177 L140.247 698.177 L140.247 694.242 Z" fill="#000000" fill-rule="nonzero" fill-opacity="1" /><path clip-path="url(#clip180)" d="M179.598 666.695 Q175.987 666.695 174.159 670.26 Q172.353 673.802 172.353 680.932 Q172.353 688.038 174.159 691.603 Q175.987 695.144 179.598 695.144 Q183.233 695.144 185.038 691.603 Q186.867 688.038 186.867 680.932 Q186.867 673.802 185.038 670.26 Q183.233 666.695 179.598 666.695 M179.598 662.992 Q185.409 662.992 188.464 667.598 Q191.543 672.182 191.543 680.932 Q191.543 689.658 188.464 694.265 Q185.409 698.848 179.598 698.848 Q173.788 698.848 170.71 694.265 Q167.654 689.658 167.654 680.932 Q167.654 672.182 170.71 667.598 Q173.788 662.992 179.598 662.992 Z" fill="#000000" fill-rule="nonzero" fill-opacity="1" /><path clip-path="url(#clip180)" d="M191.543 657.093 L215.654 657.093 L215.654 660.29 L191.543 660.29 L191.543 657.093 Z" fill="#000000" fill-rule="nonzero" fill-opacity="1" /><path clip-path="url(#clip180)" d="M223.892 642.686 L238.807 642.686 L238.807 645.884 L227.372 645.884 L227.372 652.767 Q228.199 652.485 229.027 652.354 Q229.854 652.203 230.682 652.203 Q235.384 652.203 238.13 654.78 Q240.876 657.356 240.876 661.757 Q240.876 666.29 238.054 668.81 Q235.233 671.312 230.099 671.312 Q228.331 671.312 226.488 671.011 Q224.663 670.71 222.707 670.108 L222.707 666.29 Q224.4 667.212 226.205 667.663 Q228.011 668.115 230.023 668.115 Q233.277 668.115 235.177 666.403 Q237.076 664.691 237.076 661.757 Q237.076 658.823 235.177 657.112 Q233.277 655.4 230.023 655.4 Q228.5 655.4 226.977 655.739 Q225.472 656.078 223.892 656.792 L223.892 642.686 Z" fill="#000000" fill-rule="nonzero" fill-opacity="1" /><path clip-path="url(#clip180)" d="M170.17 225.509 L177.809 225.509 L177.809 199.143 L169.499 200.81 L169.499 196.551 L177.762 194.884 L182.438 194.884 L182.438 225.509 L190.077 225.509 L190.077 229.444 L170.17 229.444 L170.17 225.509 Z" fill="#000000" fill-rule="nonzero" fill-opacity="1" /><path clip-path="url(#clip180)" d="M209.522 197.963 Q205.91 197.963 204.082 201.528 Q202.276 205.069 202.276 212.199 Q202.276 219.305 204.082 222.87 Q205.91 226.412 209.522 226.412 Q213.156 226.412 214.961 222.87 Q216.79 219.305 216.79 212.199 Q216.79 205.069 214.961 201.528 Q213.156 197.963 209.522 197.963 M209.522 194.259 Q215.332 194.259 218.387 198.866 Q221.466 203.449 221.466 212.199 Q221.466 220.926 218.387 225.532 Q215.332 230.115 209.522 230.115 Q203.711 230.115 200.633 225.532 Q197.577 220.926 197.577 212.199 Q197.577 203.449 200.633 198.866 Q203.711 194.259 209.522 194.259 Z" fill="#000000" fill-rule="nonzero" fill-opacity="1" /><path clip-path="url(#clip180)" d="M231.171 176.455 Q228.237 176.455 226.751 179.351 Q225.284 182.229 225.284 188.022 Q225.284 193.796 226.751 196.692 Q228.237 199.57 231.171 199.57 Q234.124 199.57 235.591 196.692 Q237.076 193.796 237.076 188.022 Q237.076 182.229 235.591 179.351 Q234.124 176.455 231.171 176.455 M231.171 173.446 Q235.891 173.446 238.374 177.189 Q240.876 180.913 240.876 188.022 Q240.876 195.112 238.374 198.855 Q235.891 202.579 231.171 202.579 Q226.45 202.579 223.949 198.855 Q221.466 195.112 221.466 188.022 Q221.466 180.913 223.949 177.189 Q226.45 173.446 231.171 173.446 Z" fill="#000000" fill-rule="nonzero" fill-opacity="1" /><path clip-path="url(#clip180)" d="M16.4842 996.557 L16.4842 966.511 L21.895 966.511 L21.895 990.128 L35.9632 990.128 L35.9632 967.498 L41.3741 967.498 L41.3741 990.128 L58.5933 990.128 L58.5933 965.938 L64.0042 965.938 L64.0042 996.557 L16.4842 996.557 Z" fill="#000000" fill-rule="nonzero" fill-opacity="1" /><path clip-path="url(#clip180)" d="M33.8307 934.969 Q33.2578 935.956 33.0032 937.133 Q32.7167 938.279 32.7167 939.68 Q32.7167 944.645 35.9632 947.319 Q39.1779 949.96 45.2253 949.96 L64.0042 949.96 L64.0042 955.849 L28.3562 955.849 L28.3562 949.96 L33.8944 949.96 Q30.6479 948.114 29.0883 945.154 Q27.4968 942.194 27.4968 937.961 Q27.4968 937.356 27.5923 936.624 Q27.656 935.892 27.8151 935.001 L33.8307 934.969 Z" fill="#000000" fill-rule="nonzero" fill-opacity="1" /><path clip-path="url(#clip180)" d="M33.8307 909.315 Q33.2578 910.302 33.0032 911.48 Q32.7167 912.626 32.7167 914.026 Q32.7167 918.991 35.9632 921.665 Q39.1779 924.307 45.2253 924.307 L64.0042 924.307 L64.0042 930.195 L28.3562 930.195 L28.3562 924.307 L33.8944 924.307 Q30.6479 922.461 29.0883 919.5 Q27.4968 916.54 27.4968 912.307 Q27.4968 911.702 27.5923 910.97 Q27.656 910.238 27.8151 909.347 L33.8307 909.315 Z" fill="#000000" fill-rule="nonzero" fill-opacity="1" /><path clip-path="url(#clip180)" d="M32.4621 890.791 Q32.4621 895.502 36.1542 898.239 Q39.8145 900.976 46.212 900.976 Q52.6095 900.976 56.3017 898.271 Q59.9619 895.534 59.9619 890.791 Q59.9619 886.112 56.2698 883.375 Q52.5777 880.638 46.212 880.638 Q39.8781 880.638 36.186 883.375 Q32.4621 886.112 32.4621 890.791 M27.4968 890.791 Q27.4968 883.152 32.4621 878.792 Q37.4273 874.431 46.212 874.431 Q54.9649 874.431 59.9619 878.792 Q64.9272 883.152 64.9272 890.791 Q64.9272 898.462 59.9619 902.822 Q54.9649 907.151 46.212 907.151 Q37.4273 907.151 32.4621 902.822 Q27.4968 898.462 27.4968 890.791 Z" fill="#000000" fill-rule="nonzero" fill-opacity="1" /><path clip-path="url(#clip180)" d="M33.8307 844.067 Q33.2578 845.054 33.0032 846.231 Q32.7167 847.377 32.7167 848.777 Q32.7167 853.743 35.9632 856.416 Q39.1779 859.058 45.2253 859.058 L64.0042 859.058 L64.0042 864.946 L28.3562 864.946 L28.3562 859.058 L33.8944 859.058 Q30.6479 857.212 29.0883 854.252 Q27.4968 851.292 27.4968 847.059 Q27.4968 846.454 27.5923 845.722 Q27.656 844.99 27.8151 844.099 L33.8307 844.067 Z" fill="#000000" fill-rule="nonzero" fill-opacity="1" /><path clip-path="url(#clip180)" d="M44.7161 808.865 L47.5806 808.865 L47.5806 835.791 Q53.6281 835.409 56.8109 832.163 Q59.9619 828.885 59.9619 823.06 Q59.9619 819.686 59.1344 816.535 Q58.3069 813.352 56.6518 810.233 L62.1899 810.233 Q63.5267 813.384 64.227 816.694 Q64.9272 820.004 64.9272 823.41 Q64.9272 831.94 59.9619 836.937 Q54.9967 841.903 46.5303 841.903 Q37.7774 841.903 32.6531 837.192 Q27.4968 832.449 27.4968 824.429 Q27.4968 817.235 32.1438 813.066 Q36.7589 808.865 44.7161 808.865 M42.9973 814.721 Q38.1912 814.785 35.3266 817.426 Q32.4621 820.036 32.4621 824.365 Q32.4621 829.267 35.2312 832.227 Q38.0002 835.155 43.0292 835.6 L42.9973 814.721 Z" fill="#000000" fill-rule="nonzero" fill-opacity="1" /><path clip-path="url(#clip180)" d="M46.0847 762.331 Q46.0847 769.429 47.7079 772.166 Q49.3312 774.903 53.2461 774.903 Q56.3653 774.903 58.2114 772.866 Q60.0256 770.798 60.0256 767.265 Q60.0256 762.395 56.5881 759.467 Q53.1188 756.507 47.3897 756.507 L46.0847 756.507 L46.0847 762.331 M43.6657 750.65 L64.0042 750.65 L64.0042 756.507 L58.5933 756.507 Q61.8398 758.512 63.3994 761.504 Q64.9272 764.496 64.9272 768.824 Q64.9272 774.299 61.8716 777.545 Q58.7843 780.76 53.6281 780.76 Q47.6125 780.76 44.5569 776.75 Q41.5014 772.707 41.5014 764.718 L41.5014 756.507 L40.9285 756.507 Q36.8862 756.507 34.6901 759.18 Q32.4621 761.822 32.4621 766.628 Q32.4621 769.684 33.1941 772.58 Q33.9262 775.476 35.3903 778.15 L29.9795 778.15 Q28.7381 774.935 28.1334 771.912 Q27.4968 768.888 27.4968 766.023 Q27.4968 758.289 31.5072 754.47 Q35.5176 750.65 43.6657 750.65 Z" fill="#000000" fill-rule="nonzero" fill-opacity="1" /><path clip-path="url(#clip180)" d="M18.2347 712.074 L28.3562 712.074 L28.3562 700.011 L32.9077 700.011 L32.9077 712.074 L52.2594 712.074 Q56.6199 712.074 57.8613 710.896 Q59.1026 709.687 59.1026 706.027 L59.1026 700.011 L64.0042 700.011 L64.0042 706.027 Q64.0042 712.806 61.4897 715.384 Q58.9434 717.962 52.2594 717.962 L32.9077 717.962 L32.9077 722.259 L28.3562 722.259 L28.3562 717.962 L18.2347 717.962 L18.2347 712.074 Z" fill="#000000" fill-rule="nonzero" fill-opacity="1" /><path clip-path="url(#clip180)" d="M34.4036 670.824 L34.4036 630.02 L39.7508 630.02 L39.7508 670.824 L34.4036 670.824 M47.3897 670.824 L47.3897 630.02 L52.8005 630.02 L52.8005 670.824 L47.3897 670.824 Z" fill="#000000" fill-rule="nonzero" fill-opacity="1" /><path clip-path="url(#clip180)" d="M16.4842 597.046 L16.4842 566.49 L19.2214 566.49 L64.0042 583.741 L64.0042 590.457 L21.895 574.225 L21.895 597.046 L16.4842 597.046 Z" fill="#000000" fill-rule="nonzero" fill-opacity="1" /><path clip-path="url(#clip180)" d="M20.7174 540.2 Q20.7174 545.165 25.6189 547.68 Q30.4887 550.162 40.2919 550.162 Q50.0633 550.162 54.9649 547.68 Q59.8346 545.165 59.8346 540.2 Q59.8346 535.203 54.9649 532.72 Q50.0633 530.206 40.2919 530.206 Q30.4887 530.206 25.6189 532.72 Q20.7174 535.203 20.7174 540.2 M15.6248 540.2 Q15.6248 532.211 21.9587 528.01 Q28.2607 523.776 40.2919 523.776 Q52.2913 523.776 58.6251 528.01 Q64.9272 532.211 64.9272 540.2 Q64.9272 548.189 58.6251 552.422 Q52.2913 556.623 40.2919 556.623 Q28.2607 556.623 21.9587 552.422 Q15.6248 548.189 15.6248 540.2 Z" fill="#000000" fill-rule="nonzero" fill-opacity="1" /><path clip-path="url(#clip180)" d="M55.9197 512.477 L55.9197 505.761 L64.0042 505.761 L64.0042 512.477 L55.9197 512.477 Z" fill="#000000" fill-rule="nonzero" fill-opacity="1" /><path clip-path="url(#clip180)" d="M20.7174 478.007 Q20.7174 482.972 25.6189 485.487 Q30.4887 487.969 40.2919 487.969 Q50.0633 487.969 54.9649 485.487 Q59.8346 482.972 59.8346 478.007 Q59.8346 473.01 54.9649 470.527 Q50.0633 468.013 40.2919 468.013 Q30.4887 468.013 25.6189 470.527 Q20.7174 473.01 20.7174 478.007 M15.6248 478.007 Q15.6248 470.018 21.9587 465.817 Q28.2607 461.583 40.2919 461.583 Q52.2913 461.583 58.6251 465.817 Q64.9272 470.018 64.9272 478.007 Q64.9272 485.996 58.6251 490.229 Q52.2913 494.43 40.2919 494.43 Q28.2607 494.43 21.9587 490.229 Q15.6248 485.996 15.6248 478.007 Z" fill="#000000" fill-rule="nonzero" fill-opacity="1" /><polyline clip-path="url(#clip182)" style="stroke:#009af9; stroke-linecap:round; stroke-linejoin:round; stroke-width:4; stroke-opacity:1; fill:none" points="2294,85.838 2099.48,134.731 1902.65,172.755 1706.61,203.054 1510.62,228.805 1314.82,251.829 1118.95,273.226 923.121,293.621 727.31,313.397 531.436,332.796 335.627,351.949 "/>
<circle clip-path="url(#clip182)" cx="2294" cy="85.838" r="14.4" fill="#e26f46" fill-rule="evenodd" fill-opacity="1" stroke="#000000" stroke-opacity="1" stroke-width="3.2"/>
<circle clip-path="url(#clip182)" cx="2099.48" cy="134.731" r="14.4" fill="#e26f46" fill-rule="evenodd" fill-opacity="1" stroke="#000000" stroke-opacity="1" stroke-width="3.2"/>
<circle clip-path="url(#clip182)" cx="1902.65" cy="172.755" r="14.4" fill="#e26f46" fill-rule="evenodd" fill-opacity="1" stroke="#000000" stroke-opacity="1" stroke-width="3.2"/>
<circle clip-path="url(#clip182)" cx="1706.61" cy="203.054" r="14.4" fill="#e26f46" fill-rule="evenodd" fill-opacity="1" stroke="#000000" stroke-opacity="1" stroke-width="3.2"/>
<circle clip-path="url(#clip182)" cx="1510.62" cy="228.805" r="14.4" fill="#e26f46" fill-rule="evenodd" fill-opacity="1" stroke="#000000" stroke-opacity="1" stroke-width="3.2"/>
<circle clip-path="url(#clip182)" cx="1314.82" cy="251.829" r="14.4" fill="#e26f46" fill-rule="evenodd" fill-opacity="1" stroke="#000000" stroke-opacity="1" stroke-width="3.2"/>
<circle clip-path="url(#clip182)" cx="1118.95" cy="273.226" r="14.4" fill="#e26f46" fill-rule="evenodd" fill-opacity="1" stroke="#000000" stroke-opacity="1" stroke-width="3.2"/>
<circle clip-path="url(#clip182)" cx="923.121" cy="293.621" r="14.4" fill="#e26f46" fill-rule="evenodd" fill-opacity="1" stroke="#000000" stroke-opacity="1" stroke-width="3.2"/>
<circle clip-path="url(#clip182)" cx="727.31" cy="313.397" r="14.4" fill="#e26f46" fill-rule="evenodd" fill-opacity="1" stroke="#000000" stroke-opacity="1" stroke-width="3.2"/>
<circle clip-path="url(#clip182)" cx="531.436" cy="332.796" r="14.4" fill="#e26f46" fill-rule="evenodd" fill-opacity="1" stroke="#000000" stroke-opacity="1" stroke-width="3.2"/>
<circle clip-path="url(#clip182)" cx="335.627" cy="351.949" r="14.4" fill="#e26f46" fill-rule="evenodd" fill-opacity="1" stroke="#000000" stroke-opacity="1" stroke-width="3.2"/>
<polyline clip-path="url(#clip182)" style="stroke:#3da44d; stroke-linecap:round; stroke-linejoin:round; stroke-width:4; stroke-opacity:1; fill:none" points="2294,617.432 2099.48,693.251 1902.65,769.52 1706.61,845.173 1510.62,920.596 1314.82,995.819 1118.95,1070.98 923.121,1146.07 727.31,1221.12 531.436,1296.17 335.627,1372.3 "/>
<circle clip-path="url(#clip182)" cx="2294" cy="617.432" r="14.4" fill="#c271d2" fill-rule="evenodd" fill-opacity="1" stroke="#000000" stroke-opacity="1" stroke-width="3.2"/>
<circle clip-path="url(#clip182)" cx="2099.48" cy="693.251" r="14.4" fill="#c271d2" fill-rule="evenodd" fill-opacity="1" stroke="#000000" stroke-opacity="1" stroke-width="3.2"/>
<circle clip-path="url(#clip182)" cx="1902.65" cy="769.52" r="14.4" fill="#c271d2" fill-rule="evenodd" fill-opacity="1" stroke="#000000" stroke-opacity="1" stroke-width="3.2"/>
<circle clip-path="url(#clip182)" cx="1706.61" cy="845.173" r="14.4" fill="#c271d2" fill-rule="evenodd" fill-opacity="1" stroke="#000000" stroke-opacity="1" stroke-width="3.2"/>
<circle clip-path="url(#clip182)" cx="1510.62" cy="920.596" r="14.4" fill="#c271d2" fill-rule="evenodd" fill-opacity="1" stroke="#000000" stroke-opacity="1" stroke-width="3.2"/>
<circle clip-path="url(#clip182)" cx="1314.82" cy="995.819" r="14.4" fill="#c271d2" fill-rule="evenodd" fill-opacity="1" stroke="#000000" stroke-opacity="1" stroke-width="3.2"/>
<circle clip-path="url(#clip182)" cx="1118.95" cy="1070.98" r="14.4" fill="#c271d2" fill-rule="evenodd" fill-opacity="1" stroke="#000000" stroke-opacity="1" stroke-width="3.2"/>
<circle clip-path="url(#clip182)" cx="923.121" cy="1146.07" r="14.4" fill="#c271d2" fill-rule="evenodd" fill-opacity="1" stroke="#000000" stroke-opacity="1" stroke-width="3.2"/>
<circle clip-path="url(#clip182)" cx="727.31" cy="1221.12" r="14.4" fill="#c271d2" fill-rule="evenodd" fill-opacity="1" stroke="#000000" stroke-opacity="1" stroke-width="3.2"/>
<circle clip-path="url(#clip182)" cx="531.436" cy="1296.17" r="14.4" fill="#c271d2" fill-rule="evenodd" fill-opacity="1" stroke="#000000" stroke-opacity="1" stroke-width="3.2"/>
<circle clip-path="url(#clip182)" cx="335.627" cy="1372.3" r="14.4" fill="#c271d2" fill-rule="evenodd" fill-opacity="1" stroke="#000000" stroke-opacity="1" stroke-width="3.2"/>
<path clip-path="url(#clip180)" d="M1792.66 248.219 L2283.56 248.219 L2283.56 92.6992 L1792.66 92.6992  Z" fill="#ffffff" fill-rule="evenodd" fill-opacity="1"/>
<polyline clip-path="url(#clip180)" style="stroke:#000000; stroke-linecap:round; stroke-linejoin:round; stroke-width:4; stroke-opacity:1; fill:none" points="1792.66,248.219 2283.56,248.219 2283.56,92.6992 1792.66,92.6992 1792.66,248.219 "/>
<circle clip-path="url(#clip180)" cx="1884.92" cy="144.539" r="20.48" fill="#e26f46" fill-rule="evenodd" fill-opacity="1" stroke="#000000" stroke-opacity="1" stroke-width="4.55111"/>
<path clip-path="url(#clip180)" d="M1977.19 127.259 L1999.04 127.259 L1999.04 131.194 L1981.86 131.194 L1981.86 141.426 L1998.32 141.426 L1998.32 145.361 L1981.86 145.361 L1981.86 157.884 L1999.45 157.884 L1999.45 161.819 L1977.19 161.819 L1977.19 127.259 Z" fill="#000000" fill-rule="nonzero" fill-opacity="1" /><path clip-path="url(#clip180)" d="M2006.51 151.588 L2006.51 135.893 L2010.77 135.893 L2010.77 151.426 Q2010.77 155.106 2012.21 156.958 Q2013.64 158.787 2016.51 158.787 Q2019.96 158.787 2021.95 156.588 Q2023.97 154.389 2023.97 150.592 L2023.97 135.893 L2028.23 135.893 L2028.23 161.819 L2023.97 161.819 L2023.97 157.838 Q2022.42 160.199 2020.36 161.356 Q2018.32 162.49 2015.61 162.49 Q2011.14 162.49 2008.83 159.713 Q2006.51 156.935 2006.51 151.588 M2017.23 135.268 L2017.23 135.268 Z" fill="#000000" fill-rule="nonzero" fill-opacity="1" /><path clip-path="url(#clip180)" d="M2037 125.801 L2041.26 125.801 L2041.26 161.819 L2037 161.819 L2037 125.801 Z" fill="#000000" fill-rule="nonzero" fill-opacity="1" /><path clip-path="url(#clip180)" d="M2072.35 147.791 L2072.35 149.875 L2052.76 149.875 Q2053.04 154.273 2055.4 156.588 Q2057.79 158.879 2062.02 158.879 Q2064.48 158.879 2066.77 158.278 Q2069.08 157.676 2071.35 156.472 L2071.35 160.5 Q2069.06 161.472 2066.65 161.981 Q2064.25 162.49 2061.77 162.49 Q2055.57 162.49 2051.93 158.879 Q2048.32 155.268 2048.32 149.111 Q2048.32 142.745 2051.75 139.018 Q2055.19 135.268 2061.03 135.268 Q2066.26 135.268 2069.29 138.648 Q2072.35 142.004 2072.35 147.791 M2068.09 146.541 Q2068.04 143.046 2066.12 140.963 Q2064.22 138.879 2061.07 138.879 Q2057.51 138.879 2055.36 140.893 Q2053.23 142.907 2052.9 146.565 L2068.09 146.541 Z" fill="#000000" fill-rule="nonzero" fill-opacity="1" /><path clip-path="url(#clip180)" d="M2094.36 139.875 Q2093.64 139.458 2092.79 139.273 Q2091.95 139.065 2090.94 139.065 Q2087.32 139.065 2085.38 141.426 Q2083.46 143.764 2083.46 148.162 L2083.46 161.819 L2079.18 161.819 L2079.18 135.893 L2083.46 135.893 L2083.46 139.921 Q2084.8 137.56 2086.95 136.426 Q2089.11 135.268 2092.19 135.268 Q2092.63 135.268 2093.16 135.338 Q2093.69 135.384 2094.34 135.5 L2094.36 139.875 Z" fill="#000000" fill-rule="nonzero" fill-opacity="1" /><path clip-path="url(#clip180)" d="M2107.83 138.879 Q2104.41 138.879 2102.42 141.565 Q2100.43 144.227 2100.43 148.879 Q2100.43 153.532 2102.39 156.217 Q2104.38 158.879 2107.83 158.879 Q2111.24 158.879 2113.23 156.194 Q2115.22 153.509 2115.22 148.879 Q2115.22 144.273 2113.23 141.588 Q2111.24 138.879 2107.83 138.879 M2107.83 135.268 Q2113.39 135.268 2116.56 138.879 Q2119.73 142.491 2119.73 148.879 Q2119.73 155.245 2116.56 158.879 Q2113.39 162.49 2107.83 162.49 Q2102.25 162.49 2099.08 158.879 Q2095.94 155.245 2095.94 148.879 Q2095.94 142.491 2099.08 138.879 Q2102.25 135.268 2107.83 135.268 Z" fill="#000000" fill-rule="nonzero" fill-opacity="1" /><circle clip-path="url(#clip180)" cx="1884.92" cy="196.379" r="20.48" fill="#c271d2" fill-rule="evenodd" fill-opacity="1" stroke="#000000" stroke-opacity="1" stroke-width="4.55111"/>
<path clip-path="url(#clip180)" d="M1993.57 197.456 Q1995.08 197.965 1996.49 199.631 Q1997.93 201.298 1999.36 204.215 L2004.11 213.659 L1999.08 213.659 L1994.66 204.793 Q1992.95 201.321 1991.33 200.187 Q1989.73 199.053 1986.95 199.053 L1981.86 199.053 L1981.86 213.659 L1977.19 213.659 L1977.19 179.099 L1987.74 179.099 Q1993.67 179.099 1996.58 181.576 Q1999.5 184.053 1999.5 189.053 Q1999.5 192.317 1997.97 194.469 Q1996.47 196.622 1993.57 197.456 M1981.86 182.942 L1981.86 195.21 L1987.74 195.21 Q1991.12 195.21 1992.83 193.659 Q1994.57 192.085 1994.57 189.053 Q1994.57 186.02 1992.83 184.493 Q1991.12 182.942 1987.74 182.942 L1981.86 182.942 Z" fill="#000000" fill-rule="nonzero" fill-opacity="1" /><path clip-path="url(#clip180)" d="M2007.37 203.428 L2007.37 187.733 L2011.63 187.733 L2011.63 203.266 Q2011.63 206.946 2013.07 208.798 Q2014.5 210.627 2017.37 210.627 Q2020.82 210.627 2022.81 208.428 Q2024.82 206.229 2024.82 202.432 L2024.82 187.733 L2029.08 187.733 L2029.08 213.659 L2024.82 213.659 L2024.82 209.678 Q2023.27 212.039 2021.21 213.196 Q2019.18 214.33 2016.47 214.33 Q2012 214.33 2009.69 211.553 Q2007.37 208.775 2007.37 203.428 M2018.09 187.108 L2018.09 187.108 Z" fill="#000000" fill-rule="nonzero" fill-opacity="1" /><path clip-path="url(#clip180)" d="M2059.41 198.011 L2059.41 213.659 L2055.15 213.659 L2055.15 198.15 Q2055.15 194.469 2053.71 192.641 Q2052.28 190.812 2049.41 190.812 Q2045.96 190.812 2043.97 193.011 Q2041.98 195.21 2041.98 199.006 L2041.98 213.659 L2037.69 213.659 L2037.69 187.733 L2041.98 187.733 L2041.98 191.761 Q2043.5 189.423 2045.57 188.266 Q2047.65 187.108 2050.36 187.108 Q2054.82 187.108 2057.12 189.886 Q2059.41 192.641 2059.41 198.011 Z" fill="#000000" fill-rule="nonzero" fill-opacity="1" /><path clip-path="url(#clip180)" d="M2084.96 200.395 Q2084.96 195.766 2083.04 193.219 Q2081.14 190.673 2077.69 190.673 Q2074.27 190.673 2072.35 193.219 Q2070.45 195.766 2070.45 200.395 Q2070.45 205.002 2072.35 207.548 Q2074.27 210.094 2077.69 210.094 Q2081.14 210.094 2083.04 207.548 Q2084.96 205.002 2084.96 200.395 M2089.22 210.442 Q2089.22 217.062 2086.28 220.28 Q2083.34 223.52 2077.28 223.52 Q2075.03 223.52 2073.04 223.173 Q2071.05 222.849 2069.18 222.155 L2069.18 218.011 Q2071.05 219.03 2072.88 219.516 Q2074.71 220.002 2076.61 220.002 Q2080.8 220.002 2082.88 217.803 Q2084.96 215.627 2084.96 211.205 L2084.96 209.099 Q2083.64 211.391 2081.58 212.525 Q2079.52 213.659 2076.65 213.659 Q2071.88 213.659 2068.97 210.025 Q2066.05 206.391 2066.05 200.395 Q2066.05 194.377 2068.97 190.743 Q2071.88 187.108 2076.65 187.108 Q2079.52 187.108 2081.58 188.243 Q2083.64 189.377 2084.96 191.669 L2084.96 187.733 L2089.22 187.733 L2089.22 210.442 Z" fill="#000000" fill-rule="nonzero" fill-opacity="1" /><path clip-path="url(#clip180)" d="M2120.17 199.631 L2120.17 201.715 L2100.59 201.715 Q2100.87 206.113 2103.23 208.428 Q2105.61 210.719 2109.85 210.719 Q2112.3 210.719 2114.59 210.118 Q2116.91 209.516 2119.18 208.312 L2119.18 212.34 Q2116.88 213.312 2114.48 213.821 Q2112.07 214.33 2109.59 214.33 Q2103.39 214.33 2099.75 210.719 Q2096.14 207.108 2096.14 200.951 Q2096.14 194.585 2099.57 190.858 Q2103.02 187.108 2108.85 187.108 Q2114.08 187.108 2117.12 190.488 Q2120.17 193.844 2120.17 199.631 M2115.91 198.381 Q2115.87 194.886 2113.94 192.803 Q2112.05 190.719 2108.9 190.719 Q2105.33 190.719 2103.18 192.733 Q2101.05 194.747 2100.73 198.405 L2115.91 198.381 Z" fill="#000000" fill-rule="nonzero" fill-opacity="1" /><path clip-path="url(#clip180)" d="M2125.01 198.775 L2137.49 198.775 L2137.49 202.571 L2125.01 202.571 L2125.01 198.775 Z" fill="#000000" fill-rule="nonzero" fill-opacity="1" /><path clip-path="url(#clip180)" d="M2144.45 179.099 L2149.13 179.099 L2149.13 193.706 L2164.64 179.099 L2170.66 179.099 L2153.5 195.21 L2171.88 213.659 L2165.73 213.659 L2149.13 197.016 L2149.13 213.659 L2144.45 213.659 L2144.45 179.099 Z" fill="#000000" fill-rule="nonzero" fill-opacity="1" /><path clip-path="url(#clip180)" d="M2172.56 203.428 L2172.56 187.733 L2176.81 187.733 L2176.81 203.266 Q2176.81 206.946 2178.25 208.798 Q2179.68 210.627 2182.56 210.627 Q2186 210.627 2187.99 208.428 Q2190.01 206.229 2190.01 202.432 L2190.01 187.733 L2194.27 187.733 L2194.27 213.659 L2190.01 213.659 L2190.01 209.678 Q2188.46 212.039 2186.4 213.196 Q2184.36 214.33 2181.65 214.33 Q2177.18 214.33 2174.87 211.553 Q2172.56 208.775 2172.56 203.428 M2183.27 187.108 L2183.27 187.108 Z" fill="#000000" fill-rule="nonzero" fill-opacity="1" /><path clip-path="url(#clip180)" d="M2207.25 180.372 L2207.25 187.733 L2216.03 187.733 L2216.03 191.044 L2207.25 191.044 L2207.25 205.118 Q2207.25 208.289 2208.11 209.192 Q2208.99 210.094 2211.65 210.094 L2216.03 210.094 L2216.03 213.659 L2211.65 213.659 Q2206.72 213.659 2204.85 211.83 Q2202.97 209.979 2202.97 205.118 L2202.97 191.044 L2199.85 191.044 L2199.85 187.733 L2202.97 187.733 L2202.97 180.372 L2207.25 180.372 Z" fill="#000000" fill-rule="nonzero" fill-opacity="1" /><path clip-path="url(#clip180)" d="M2225.84 180.372 L2225.84 187.733 L2234.62 187.733 L2234.62 191.044 L2225.84 191.044 L2225.84 205.118 Q2225.84 208.289 2226.7 209.192 Q2227.58 210.094 2230.24 210.094 L2234.62 210.094 L2234.62 213.659 L2230.24 213.659 Q2225.31 213.659 2223.43 211.83 Q2221.56 209.979 2221.56 205.118 L2221.56 191.044 L2218.43 191.044 L2218.43 187.733 L2221.56 187.733 L2221.56 180.372 L2225.84 180.372 Z" fill="#000000" fill-rule="nonzero" fill-opacity="1" /><path clip-path="url(#clip180)" d="M2252 200.627 Q2246.84 200.627 2244.85 201.807 Q2242.86 202.988 2242.86 205.835 Q2242.86 208.104 2244.34 209.446 Q2245.84 210.766 2248.41 210.766 Q2251.95 210.766 2254.08 208.266 Q2256.24 205.743 2256.24 201.576 L2256.24 200.627 L2252 200.627 M2260.49 198.868 L2260.49 213.659 L2256.24 213.659 L2256.24 209.724 Q2254.78 212.085 2252.6 213.219 Q2250.43 214.33 2247.28 214.33 Q2243.3 214.33 2240.93 212.108 Q2238.6 209.863 2238.6 206.113 Q2238.6 201.738 2241.51 199.516 Q2244.45 197.294 2250.26 197.294 L2256.24 197.294 L2256.24 196.877 Q2256.24 193.937 2254.29 192.34 Q2252.37 190.719 2248.87 190.719 Q2246.65 190.719 2244.55 191.252 Q2242.44 191.784 2240.49 192.849 L2240.49 188.914 Q2242.83 188.011 2245.03 187.571 Q2247.23 187.108 2249.31 187.108 Q2254.94 187.108 2257.72 190.025 Q2260.49 192.942 2260.49 198.868 Z" fill="#000000" fill-rule="nonzero" fill-opacity="1" /></svg>
