<?xml version="1.0" encoding="utf-8"?>
<svg xmlns="http://www.w3.org/2000/svg" xmlns:xlink="http://www.w3.org/1999/xlink" width="600" height="400" viewBox="0 0 2400 1600">
<defs>
  <clipPath id="clip180">
    <rect x="0" y="0" width="2400" height="1600"/>
  </clipPath>
</defs>
<path clip-path="url(#clip180)" d="M0 1600 L2400 1600 L2400 0 L0 0  Z" fill="#ffffff" fill-rule="evenodd" fill-opacity="1"/>
<defs>
  <clipPath id="clip181">
    <rect x="480" y="0" width="1681" height="1600"/>
  </clipPath>
</defs>
<path clip-path="url(#clip180)" d="M251.372 1410.9 L2352.76 1410.9 L2352.76 47.2441 L251.372 47.2441  Z" fill="#ffffff" fill-rule="evenodd" fill-opacity="1"/>
<defs>
  <clipPath id="clip182">
    <rect x="251" y="47" width="2102" height="1365"/>
  </clipPath>
</defs>
<polyline clip-path="url(#clip182)" style="stroke:#000000; stroke-linecap:round; stroke-linejoin:round; stroke-width:2; stroke-opacity:0.1; fill:none" points="310.845,1410.9 310.845,47.2441 "/>
<polyline clip-path="url(#clip182)" style="stroke:#000000; stroke-linecap:round; stroke-linejoin:round; stroke-width:2; stroke-opacity:0.1; fill:none" points="1302.06,1410.9 1302.06,47.2441 "/>
<polyline clip-path="url(#clip182)" style="stroke:#000000; stroke-linecap:round; stroke-linejoin:round; stroke-width:2; stroke-opacity:0.1; fill:none" points="2293.28,1410.9 2293.28,47.2441 "/>
<polyline clip-path="url(#clip180)" style="stroke:#000000; stroke-linecap:round; stroke-linejoin:round; stroke-width:4; stroke-opacity:1; fill:none" points="251.372,1410.9 2352.76,1410.9 "/>
<polyline clip-path="url(#clip180)" style="stroke:#000000; stroke-linecap:round; stroke-linejoin:round; stroke-width:4; stroke-opacity:1; fill:none" points="310.845,1410.9 310.845,1392 "/>
<polyline clip-path="url(#clip180)" style="stroke:#000000; stroke-linecap:round; stroke-linejoin:round; stroke-width:4; stroke-opacity:1; fill:none" points="1302.06,1410.9 1302.06,1392 "/>
<polyline clip-path="url(#clip180)" style="stroke:#000000; stroke-linecap:round; stroke-linejoin:round; stroke-width:4; stroke-opacity:1; fill:none" points="2293.28,1410.9 2293.28,1392 "/>
<path clip-path="url(#clip180)" d="M260.725 1485.02 L268.364 1485.02 L268.364 1458.66 L260.054 1460.32 L260.054 1456.06 L268.318 1454.4 L272.994 1454.4 L272.994 1485.02 L280.633 1485.02 L280.633 1488.96 L260.725 1488.96 L260.725 1485.02 Z" fill="#000000" fill-rule="nonzero" fill-opacity="1" /><path clip-path="url(#clip180)" d="M300.077 1457.48 Q296.466 1457.48 294.637 1461.04 Q292.832 1464.58 292.832 1471.71 Q292.832 1478.82 294.637 1482.38 Q296.466 1485.92 300.077 1485.92 Q303.711 1485.92 305.517 1482.38 Q307.346 1478.82 307.346 1471.71 Q307.346 1464.58 305.517 1461.04 Q303.711 1457.48 300.077 1457.48 M300.077 1453.77 Q305.887 1453.77 308.943 1458.38 Q312.022 1462.96 312.022 1471.71 Q312.022 1480.44 308.943 1485.04 Q305.887 1489.63 300.077 1489.63 Q294.267 1489.63 291.188 1485.04 Q288.133 1480.44 288.133 1471.71 Q288.133 1462.96 291.188 1458.38 Q294.267 1453.77 300.077 1453.77 Z" fill="#000000" fill-rule="nonzero" fill-opacity="1" /><path clip-path="url(#clip180)" d="M312.022 1447.87 L336.133 1447.87 L336.133 1451.07 L312.022 1451.07 L312.022 1447.87 Z" fill="#000000" fill-rule="nonzero" fill-opacity="1" /><path clip-path="url(#clip180)" d="M355.844 1446.41 Q358.571 1446.99 360.094 1448.83 Q361.636 1450.68 361.636 1453.38 Q361.636 1457.54 358.778 1459.82 Q355.919 1462.09 350.653 1462.09 Q348.885 1462.09 347.004 1461.73 Q345.142 1461.4 343.148 1460.7 L343.148 1457.03 Q344.728 1457.95 346.609 1458.42 Q348.49 1458.89 350.54 1458.89 Q354.113 1458.89 355.975 1457.48 Q357.856 1456.07 357.856 1453.38 Q357.856 1450.9 356.107 1449.51 Q354.377 1448.1 351.273 1448.1 L348.001 1448.1 L348.001 1444.98 L351.424 1444.98 Q354.226 1444.98 355.712 1443.87 Q357.198 1442.74 357.198 1440.63 Q357.198 1438.47 355.656 1437.32 Q354.132 1436.16 351.273 1436.16 Q349.712 1436.16 347.926 1436.49 Q346.139 1436.83 343.995 1437.55 L343.995 1434.16 Q346.158 1433.56 348.038 1433.26 Q349.938 1432.96 351.612 1432.96 Q355.938 1432.96 358.458 1434.93 Q360.978 1436.89 360.978 1440.24 Q360.978 1442.57 359.643 1444.19 Q358.307 1445.79 355.844 1446.41 Z" fill="#000000" fill-rule="nonzero" fill-opacity="1" /><path clip-path="url(#clip180)" d="M1252.33 1485.02 L1259.97 1485.02 L1259.97 1458.66 L1251.66 1460.32 L1251.66 1456.06 L1259.92 1454.4 L1264.6 1454.4 L1264.6 1485.02 L1272.24 1485.02 L1272.24 1488.96 L1252.33 1488.96 L1252.33 1485.02 Z" fill="#000000" fill-rule="nonzero" fill-opacity="1" /><path clip-path="url(#clip180)" d="M1291.68 1457.48 Q1288.07 1457.48 1286.24 1461.04 Q1284.44 1464.58 1284.44 1471.71 Q1284.44 1478.82 1286.24 1482.38 Q1288.07 1485.92 1291.68 1485.92 Q1295.32 1485.92 1297.12 1482.38 Q1298.95 1478.82 1298.95 1471.71 Q1298.95 1464.58 1297.12 1461.04 Q1295.32 1457.48 1291.68 1457.48 M1291.68 1453.77 Q1297.49 1453.77 1300.55 1458.38 Q1303.63 1462.96 1303.63 1471.71 Q1303.63 1480.44 1300.55 1485.04 Q1297.49 1489.63 1291.68 1489.63 Q1285.87 1489.63 1282.79 1485.04 Q1279.74 1480.44 1279.74 1471.71 Q1279.74 1462.96 1282.79 1458.38 Q1285.87 1453.77 1291.68 1453.77 Z" fill="#000000" fill-rule="nonzero" fill-opacity="1" /><path clip-path="url(#clip180)" d="M1303.63 1447.87 L1327.74 1447.87 L1327.74 1451.07 L1303.63 1451.07 L1303.63 1447.87 Z" fill="#000000" fill-rule="nonzero" fill-opacity="1" /><path clip-path="url(#clip180)" d="M1339.21 1458.35 L1352.47 1458.35 L1352.47 1461.55 L1334.64 1461.55 L1334.64 1458.35 Q1336.8 1456.11 1340.53 1452.35 Q1344.27 1448.57 1345.23 1447.48 Q1347.05 1445.43 1347.77 1444.02 Q1348.5 1442.59 1348.5 1441.22 Q1348.5 1438.98 1346.92 1437.57 Q1345.36 1436.16 1342.84 1436.16 Q1341.05 1436.16 1339.06 1436.78 Q1337.08 1437.4 1334.83 1438.66 L1334.83 1434.82 Q1337.12 1433.9 1339.12 1433.43 Q1341.11 1432.96 1342.76 1432.96 Q1347.13 1432.96 1349.72 1435.14 Q1352.32 1437.32 1352.32 1440.97 Q1352.32 1442.7 1351.66 1444.26 Q1351.02 1445.8 1349.31 1447.91 Q1348.84 1448.46 1346.32 1451.07 Q1343.8 1453.67 1339.21 1458.35 Z" fill="#000000" fill-rule="nonzero" fill-opacity="1" /><path clip-path="url(#clip180)" d="M2243.4 1485.02 L2251.04 1485.02 L2251.04 1458.66 L2242.73 1460.32 L2242.73 1456.06 L2250.99 1454.4 L2255.67 1454.4 L2255.67 1485.02 L2263.31 1485.02 L2263.31 1488.96 L2243.4 1488.96 L2243.4 1485.02 Z" fill="#000000" fill-rule="nonzero" fill-opacity="1" /><path clip-path="url(#clip180)" d="M2282.75 1457.48 Q2279.14 1457.48 2277.31 1461.04 Q2275.5 1464.58 2275.5 1471.71 Q2275.5 1478.82 2277.31 1482.38 Q2279.14 1485.92 2282.75 1485.92 Q2286.38 1485.92 2288.19 1482.38 Q2290.02 1478.82 2290.02 1471.71 Q2290.02 1464.58 2288.19 1461.04 Q2286.38 1457.48 2282.75 1457.48 M2282.75 1453.77 Q2288.56 1453.77 2291.62 1458.38 Q2294.69 1462.96 2294.69 1471.71 Q2294.69 1480.44 2291.62 1485.04 Q2288.56 1489.63 2282.75 1489.63 Q2276.94 1489.63 2273.86 1485.04 Q2270.81 1480.44 2270.81 1471.71 Q2270.81 1462.96 2273.86 1458.38 Q2276.94 1453.77 2282.75 1453.77 Z" fill="#000000" fill-rule="nonzero" fill-opacity="1" /><path clip-path="url(#clip180)" d="M2294.69 1447.87 L2318.81 1447.87 L2318.81 1451.07 L2294.69 1451.07 L2294.69 1447.87 Z" fill="#000000" fill-rule="nonzero" fill-opacity="1" /><path clip-path="url(#clip180)" d="M2327.66 1458.35 L2333.87 1458.35 L2333.87 1436.93 L2327.12 1438.28 L2327.12 1434.82 L2333.83 1433.47 L2337.63 1433.47 L2337.63 1458.35 L2343.84 1458.35 L2343.84 1461.55 L2327.66 1461.55 L2327.66 1458.35 Z" fill="#000000" fill-rule="nonzero" fill-opacity="1" /><path clip-path="url(#clip180)" d="M977.938 1531.95 L977.938 1549.8 L986.023 1549.8 Q990.51 1549.8 992.961 1547.48 Q995.412 1545.16 995.412 1540.86 Q995.412 1536.6 992.961 1534.27 Q990.51 1531.95 986.023 1531.95 L977.938 1531.95 M971.509 1526.67 L986.023 1526.67 Q994.012 1526.67 998.086 1530.29 Q1002.19 1533.89 1002.19 1540.86 Q1002.19 1547.9 998.086 1551.49 Q994.012 1555.09 986.023 1555.09 L977.938 1555.09 L977.938 1574.19 L971.509 1574.19 L971.509 1526.67 Z" fill="#000000" fill-rule="nonzero" fill-opacity="1" /><path clip-path="url(#clip180)" d="M1023.83 1556.27 Q1016.74 1556.27 1014 1557.89 Q1011.26 1559.51 1011.26 1563.43 Q1011.26 1566.55 1013.3 1568.39 Q1015.37 1570.21 1018.9 1570.21 Q1023.77 1570.21 1026.7 1566.77 Q1029.66 1563.3 1029.66 1557.57 L1029.66 1556.27 L1023.83 1556.27 M1035.52 1553.85 L1035.52 1574.19 L1029.66 1574.19 L1029.66 1568.77 Q1027.65 1572.02 1024.66 1573.58 Q1021.67 1575.11 1017.34 1575.11 Q1011.87 1575.11 1008.62 1572.05 Q1005.41 1568.97 1005.41 1563.81 Q1005.41 1557.79 1009.42 1554.74 Q1013.46 1551.68 1021.45 1551.68 L1029.66 1551.68 L1029.66 1551.11 Q1029.66 1547.07 1026.99 1544.87 Q1024.34 1542.64 1019.54 1542.64 Q1016.48 1542.64 1013.59 1543.38 Q1010.69 1544.11 1008.02 1545.57 L1008.02 1540.16 Q1011.23 1538.92 1014.25 1538.31 Q1017.28 1537.68 1020.14 1537.68 Q1027.88 1537.68 1031.7 1541.69 Q1035.52 1545.7 1035.52 1553.85 Z" fill="#000000" fill-rule="nonzero" fill-opacity="1" /><path clip-path="url(#clip180)" d="M1070.3 1539.59 L1070.3 1545.13 Q1067.82 1543.85 1065.15 1543.22 Q1062.47 1542.58 1059.61 1542.58 Q1055.25 1542.58 1053.05 1543.92 Q1050.89 1545.25 1050.89 1547.93 Q1050.89 1549.96 1052.45 1551.14 Q1054.01 1552.29 1058.72 1553.34 L1060.72 1553.78 Q1066.96 1555.12 1069.57 1557.57 Q1072.21 1559.99 1072.21 1564.35 Q1072.21 1569.32 1068.27 1572.21 Q1064.35 1575.11 1057.48 1575.11 Q1054.61 1575.11 1051.49 1574.54 Q1048.41 1573.99 1044.97 1572.88 L1044.97 1566.83 Q1048.22 1568.52 1051.37 1569.38 Q1054.52 1570.21 1057.6 1570.21 Q1061.74 1570.21 1063.97 1568.81 Q1066.2 1567.37 1066.2 1564.8 Q1066.2 1562.41 1064.58 1561.14 Q1062.98 1559.86 1057.54 1558.68 L1055.5 1558.21 Q1050.06 1557.06 1047.64 1554.71 Q1045.22 1552.32 1045.22 1548.18 Q1045.22 1543.15 1048.79 1540.42 Q1052.35 1537.68 1058.91 1537.68 Q1062.16 1537.68 1065.02 1538.16 Q1067.89 1538.63 1070.3 1539.59 Z" fill="#000000" fill-rule="nonzero" fill-opacity="1" /><path clip-path="url(#clip180)" d="M1104.27 1539.59 L1104.27 1545.13 Q1101.78 1543.85 1099.11 1543.22 Q1096.44 1542.58 1093.57 1542.58 Q1089.21 1542.58 1087.01 1543.92 Q1084.85 1545.25 1084.85 1547.93 Q1084.85 1549.96 1086.41 1551.14 Q1087.97 1552.29 1092.68 1553.34 L1094.69 1553.78 Q1100.92 1555.12 1103.53 1557.57 Q1106.18 1559.99 1106.18 1564.35 Q1106.18 1569.32 1102.23 1572.21 Q1098.31 1575.11 1091.44 1575.11 Q1088.57 1575.11 1085.45 1574.54 Q1082.37 1573.99 1078.93 1572.88 L1078.93 1566.83 Q1082.18 1568.52 1085.33 1569.38 Q1088.48 1570.21 1091.57 1570.21 Q1095.7 1570.21 1097.93 1568.81 Q1100.16 1567.37 1100.16 1564.8 Q1100.16 1562.41 1098.54 1561.14 Q1096.95 1559.86 1091.5 1558.68 L1089.47 1558.21 Q1084.02 1557.06 1081.6 1554.71 Q1079.18 1552.32 1079.18 1548.18 Q1079.18 1543.15 1082.75 1540.42 Q1086.31 1537.68 1092.87 1537.68 Q1096.12 1537.68 1098.98 1538.16 Q1101.85 1538.63 1104.27 1539.59 Z" fill="#000000" fill-rule="nonzero" fill-opacity="1" /><path clip-path="url(#clip180)" d="M1129.31 1542.64 Q1124.6 1542.64 1121.87 1546.34 Q1119.13 1550 1119.13 1556.39 Q1119.13 1562.79 1121.83 1566.48 Q1124.57 1570.14 1129.31 1570.14 Q1133.99 1570.14 1136.73 1566.45 Q1139.47 1562.76 1139.47 1556.39 Q1139.47 1550.06 1136.73 1546.37 Q1133.99 1542.64 1129.31 1542.64 M1129.31 1537.68 Q1136.95 1537.68 1141.31 1542.64 Q1145.67 1547.61 1145.67 1556.39 Q1145.67 1565.15 1141.31 1570.14 Q1136.95 1575.11 1129.31 1575.11 Q1121.64 1575.11 1117.28 1570.14 Q1112.95 1565.15 1112.95 1556.39 Q1112.95 1547.61 1117.28 1542.64 Q1121.64 1537.68 1129.31 1537.68 Z" fill="#000000" fill-rule="nonzero" fill-opacity="1" /><path clip-path="url(#clip180)" d="M1199.56 1543.95 L1199.56 1524.66 L1205.42 1524.66 L1205.42 1574.19 L1199.56 1574.19 L1199.56 1568.84 Q1197.71 1572.02 1194.88 1573.58 Q1192.08 1575.11 1188.13 1575.11 Q1181.67 1575.11 1177.6 1569.95 Q1173.56 1564.8 1173.56 1556.39 Q1173.56 1547.99 1177.6 1542.83 Q1181.67 1537.68 1188.13 1537.68 Q1192.08 1537.68 1194.88 1539.24 Q1197.71 1540.77 1199.56 1543.95 M1179.6 1556.39 Q1179.6 1562.85 1182.25 1566.55 Q1184.92 1570.21 1189.57 1570.21 Q1194.21 1570.21 1196.89 1566.55 Q1199.56 1562.85 1199.56 1556.39 Q1199.56 1549.93 1196.89 1546.27 Q1194.21 1542.58 1189.57 1542.58 Q1184.92 1542.58 1182.25 1546.27 Q1179.6 1549.93 1179.6 1556.39 Z" fill="#000000" fill-rule="nonzero" fill-opacity="1" /><path clip-path="url(#clip180)" d="M1223.02 1526.67 L1223.02 1544.33 L1217.61 1544.33 L1217.61 1526.67 L1223.02 1526.67 Z" fill="#000000" fill-rule="nonzero" fill-opacity="1" /><path clip-path="url(#clip180)" d="M1235.4 1538.54 L1241.26 1538.54 L1241.26 1574.19 L1235.4 1574.19 L1235.4 1538.54 M1235.4 1524.66 L1241.26 1524.66 L1241.26 1532.08 L1235.4 1532.08 L1235.4 1524.66 Z" fill="#000000" fill-rule="nonzero" fill-opacity="1" /><path clip-path="url(#clip180)" d="M1283.14 1552.67 L1283.14 1574.19 L1277.29 1574.19 L1277.29 1552.86 Q1277.29 1547.8 1275.31 1545.29 Q1273.34 1542.77 1269.39 1542.77 Q1264.65 1542.77 1261.91 1545.79 Q1259.18 1548.82 1259.18 1554.04 L1259.18 1574.19 L1253.29 1574.19 L1253.29 1538.54 L1259.18 1538.54 L1259.18 1544.08 Q1261.28 1540.86 1264.11 1539.27 Q1266.97 1537.68 1270.7 1537.68 Q1276.84 1537.68 1279.99 1541.5 Q1283.14 1545.29 1283.14 1552.67 Z" fill="#000000" fill-rule="nonzero" fill-opacity="1" /><path clip-path="url(#clip180)" d="M1300.62 1528.42 L1300.62 1538.54 L1312.68 1538.54 L1312.68 1543.09 L1300.62 1543.09 L1300.62 1562.44 Q1300.62 1566.8 1301.79 1568.04 Q1303 1569.28 1306.66 1569.28 L1312.68 1569.28 L1312.68 1574.19 L1306.66 1574.19 Q1299.88 1574.19 1297.31 1571.67 Q1294.73 1569.12 1294.73 1562.44 L1294.73 1543.09 L1290.43 1543.09 L1290.43 1538.54 L1294.73 1538.54 L1294.73 1528.42 L1300.62 1528.42 Z" fill="#000000" fill-rule="nonzero" fill-opacity="1" /><path clip-path="url(#clip180)" d="M1350.87 1554.9 L1350.87 1557.76 L1323.95 1557.76 Q1324.33 1563.81 1327.57 1566.99 Q1330.85 1570.14 1336.68 1570.14 Q1340.05 1570.14 1343.2 1569.32 Q1346.39 1568.49 1349.5 1566.83 L1349.5 1572.37 Q1346.35 1573.71 1343.04 1574.41 Q1339.73 1575.11 1336.33 1575.11 Q1327.8 1575.11 1322.8 1570.14 Q1317.84 1565.18 1317.84 1556.71 Q1317.84 1547.96 1322.55 1542.83 Q1327.29 1537.68 1335.31 1537.68 Q1342.5 1537.68 1346.67 1542.33 Q1350.87 1546.94 1350.87 1554.9 M1345.02 1553.18 Q1344.95 1548.37 1342.31 1545.51 Q1339.7 1542.64 1335.37 1542.64 Q1330.47 1542.64 1327.51 1545.41 Q1324.58 1548.18 1324.14 1553.21 L1345.02 1553.18 Z" fill="#000000" fill-rule="nonzero" fill-opacity="1" /><path clip-path="url(#clip180)" d="M1383.94 1555.95 Q1383.94 1549.58 1381.3 1546.08 Q1378.69 1542.58 1373.95 1542.58 Q1369.24 1542.58 1366.6 1546.08 Q1363.99 1549.58 1363.99 1555.95 Q1363.99 1562.28 1366.6 1565.78 Q1369.24 1569.28 1373.95 1569.28 Q1378.69 1569.28 1381.3 1565.78 Q1383.94 1562.28 1383.94 1555.95 M1389.8 1569.76 Q1389.8 1578.86 1385.76 1583.29 Q1381.71 1587.74 1373.38 1587.74 Q1370.29 1587.74 1367.55 1587.27 Q1364.81 1586.82 1362.24 1585.87 L1362.24 1580.17 Q1364.81 1581.57 1367.33 1582.24 Q1369.84 1582.91 1372.45 1582.91 Q1378.21 1582.91 1381.08 1579.88 Q1383.94 1576.89 1383.94 1570.81 L1383.94 1567.92 Q1382.13 1571.07 1379.3 1572.63 Q1376.46 1574.19 1372.52 1574.19 Q1365.96 1574.19 1361.95 1569.19 Q1357.94 1564.19 1357.94 1555.95 Q1357.94 1547.67 1361.95 1542.68 Q1365.96 1537.68 1372.52 1537.68 Q1376.46 1537.68 1379.3 1539.24 Q1382.13 1540.8 1383.94 1543.95 L1383.94 1538.54 L1389.8 1538.54 L1389.8 1569.76 Z" fill="#000000" fill-rule="nonzero" fill-opacity="1" /><path clip-path="url(#clip180)" d="M1422.52 1544.01 Q1421.53 1543.44 1420.35 1543.18 Q1419.21 1542.9 1417.81 1542.9 Q1412.84 1542.9 1410.17 1546.14 Q1407.53 1549.36 1407.53 1555.41 L1407.53 1574.19 L1401.64 1574.19 L1401.64 1538.54 L1407.53 1538.54 L1407.53 1544.08 Q1409.37 1540.83 1412.33 1539.27 Q1415.29 1537.68 1419.53 1537.68 Q1420.13 1537.68 1420.86 1537.77 Q1421.6 1537.84 1422.49 1538 L1422.52 1544.01 Z" fill="#000000" fill-rule="nonzero" fill-opacity="1" /><path clip-path="url(#clip180)" d="M1444.86 1556.27 Q1437.76 1556.27 1435.03 1557.89 Q1432.29 1559.51 1432.29 1563.43 Q1432.29 1566.55 1434.33 1568.39 Q1436.4 1570.21 1439.93 1570.21 Q1444.8 1570.21 1447.73 1566.77 Q1450.69 1563.3 1450.69 1557.57 L1450.69 1556.27 L1444.86 1556.27 M1456.54 1553.85 L1456.54 1574.19 L1450.69 1574.19 L1450.69 1568.77 Q1448.68 1572.02 1445.69 1573.58 Q1442.7 1575.11 1438.37 1575.11 Q1432.9 1575.11 1429.65 1572.05 Q1426.43 1568.97 1426.43 1563.81 Q1426.43 1557.79 1430.44 1554.74 Q1434.49 1551.68 1442.48 1551.68 L1450.69 1551.68 L1450.69 1551.11 Q1450.69 1547.07 1448.01 1544.87 Q1445.37 1542.64 1440.57 1542.64 Q1437.51 1542.64 1434.61 1543.38 Q1431.72 1544.11 1429.04 1545.57 L1429.04 1540.16 Q1432.26 1538.92 1435.28 1538.31 Q1438.31 1537.68 1441.17 1537.68 Q1448.9 1537.68 1452.72 1541.69 Q1456.54 1545.7 1456.54 1553.85 Z" fill="#000000" fill-rule="nonzero" fill-opacity="1" /><path clip-path="url(#clip180)" d="M1466.06 1538.54 L1493.88 1538.54 L1493.88 1543.88 L1471.85 1569.51 L1493.88 1569.51 L1493.88 1574.19 L1465.26 1574.19 L1465.26 1568.84 L1487.29 1543.22 L1466.06 1543.22 L1466.06 1538.54 Z" fill="#000000" fill-rule="nonzero" fill-opacity="1" /><path clip-path="url(#clip180)" d="M1502.82 1538.54 L1508.68 1538.54 L1508.68 1574.19 L1502.82 1574.19 L1502.82 1538.54 M1502.82 1524.66 L1508.68 1524.66 L1508.68 1532.08 L1502.82 1532.08 L1502.82 1524.66 Z" fill="#000000" fill-rule="nonzero" fill-opacity="1" /><path clip-path="url(#clip180)" d="M1534.75 1542.64 Q1530.04 1542.64 1527.3 1546.34 Q1524.56 1550 1524.56 1556.39 Q1524.56 1562.79 1527.27 1566.48 Q1530 1570.14 1534.75 1570.14 Q1539.43 1570.14 1542.16 1566.45 Q1544.9 1562.76 1544.9 1556.39 Q1544.9 1550.06 1542.16 1546.37 Q1539.43 1542.64 1534.75 1542.64 M1534.75 1537.68 Q1542.39 1537.68 1546.75 1542.64 Q1551.11 1547.61 1551.11 1556.39 Q1551.11 1565.15 1546.75 1570.14 Q1542.39 1575.11 1534.75 1575.11 Q1527.08 1575.11 1522.72 1570.14 Q1518.39 1565.15 1518.39 1556.39 Q1518.39 1547.61 1522.72 1542.64 Q1527.08 1537.68 1534.75 1537.68 Z" fill="#000000" fill-rule="nonzero" fill-opacity="1" /><path clip-path="url(#clip180)" d="M1590.45 1552.67 L1590.45 1574.19 L1584.59 1574.19 L1584.59 1552.86 Q1584.59 1547.8 1582.62 1545.29 Q1580.64 1542.77 1576.7 1542.77 Q1571.95 1542.77 1569.22 1545.79 Q1566.48 1548.82 1566.48 1554.04 L1566.48 1574.19 L1560.59 1574.19 L1560.59 1538.54 L1566.48 1538.54 L1566.48 1544.08 Q1568.58 1540.86 1571.41 1539.27 Q1574.28 1537.68 1578 1537.68 Q1584.14 1537.68 1587.3 1541.5 Q1590.45 1545.29 1590.45 1552.67 Z" fill="#000000" fill-rule="nonzero" fill-opacity="1" /><path clip-path="url(#clip180)" d="M1632.62 1554.9 L1632.62 1557.76 L1605.69 1557.76 Q1606.07 1563.81 1609.32 1566.99 Q1612.6 1570.14 1618.42 1570.14 Q1621.8 1570.14 1624.95 1569.32 Q1628.13 1568.49 1631.25 1566.83 L1631.25 1572.37 Q1628.1 1573.71 1624.79 1574.41 Q1621.48 1575.11 1618.07 1575.11 Q1609.54 1575.11 1604.55 1570.14 Q1599.58 1565.18 1599.58 1556.71 Q1599.58 1547.96 1604.29 1542.83 Q1609.03 1537.68 1617.06 1537.68 Q1624.25 1537.68 1628.42 1542.33 Q1632.62 1546.94 1632.62 1554.9 M1626.76 1553.18 Q1626.7 1548.37 1624.06 1545.51 Q1621.45 1542.64 1617.12 1542.64 Q1612.22 1542.64 1609.26 1545.41 Q1606.33 1548.18 1605.88 1553.21 L1626.76 1553.18 Z" fill="#000000" fill-rule="nonzero" fill-opacity="1" /><polyline clip-path="url(#clip182)" style="stroke:#000000; stroke-linecap:round; stroke-linejoin:round; stroke-width:2; stroke-opacity:0.1; fill:none" points="251.372,1118.57 2352.76,1118.57 "/>
<polyline clip-path="url(#clip182)" style="stroke:#000000; stroke-linecap:round; stroke-linejoin:round; stroke-width:2; stroke-opacity:0.1; fill:none" points="251.372,665.368 2352.76,665.368 "/>
<polyline clip-path="url(#clip182)" style="stroke:#000000; stroke-linecap:round; stroke-linejoin:round; stroke-width:2; stroke-opacity:0.1; fill:none" points="251.372,212.168 2352.76,212.168 "/>
<polyline clip-path="url(#clip180)" style="stroke:#000000; stroke-linecap:round; stroke-linejoin:round; stroke-width:4; stroke-opacity:1; fill:none" points="251.372,1410.9 251.372,47.2441 "/>
<polyline clip-path="url(#clip180)" style="stroke:#000000; stroke-linecap:round; stroke-linejoin:round; stroke-width:4; stroke-opacity:1; fill:none" points="251.372,1118.57 270.27,1118.57 "/>
<polyline clip-path="url(#clip180)" style="stroke:#000000; stroke-linecap:round; stroke-linejoin:round; stroke-width:4; stroke-opacity:1; fill:none" points="251.372,665.368 270.27,665.368 "/>
<polyline clip-path="url(#clip180)" style="stroke:#000000; stroke-linecap:round; stroke-linejoin:round; stroke-width:4; stroke-opacity:1; fill:none" points="251.372,212.168 270.27,212.168 "/>
<path clip-path="url(#clip180)" d="M114.931 1138.36 L122.57 1138.36 L122.57 1112 L114.26 1113.66 L114.26 1109.4 L122.524 1107.74 L127.2 1107.74 L127.2 1138.36 L134.839 1138.36 L134.839 1142.3 L114.931 1142.3 L114.931 1138.36 Z" fill="#000000" fill-rule="nonzero" fill-opacity="1" /><path clip-path="url(#clip180)" d="M154.283 1110.82 Q150.672 1110.82 148.843 1114.38 Q147.038 1117.92 147.038 1125.05 Q147.038 1132.16 148.843 1135.72 Q150.672 1139.26 154.283 1139.26 Q157.917 1139.26 159.723 1135.72 Q161.552 1132.16 161.552 1125.05 Q161.552 1117.92 159.723 1114.38 Q157.917 1110.82 154.283 1110.82 M154.283 1107.11 Q160.093 1107.11 163.149 1111.72 Q166.227 1116.3 166.227 1125.05 Q166.227 1133.78 163.149 1138.38 Q160.093 1142.97 154.283 1142.97 Q148.473 1142.97 145.394 1138.38 Q142.339 1133.78 142.339 1125.05 Q142.339 1116.3 145.394 1111.72 Q148.473 1107.11 154.283 1107.11 Z" fill="#000000" fill-rule="nonzero" fill-opacity="1" /><path clip-path="url(#clip180)" d="M166.227 1101.21 L190.339 1101.21 L190.339 1104.41 L166.227 1104.41 L166.227 1101.21 Z" fill="#000000" fill-rule="nonzero" fill-opacity="1" /><path clip-path="url(#clip180)" d="M199.197 1111.69 L205.404 1111.69 L205.404 1090.27 L198.652 1091.62 L198.652 1088.16 L205.366 1086.81 L209.166 1086.81 L209.166 1111.69 L215.372 1111.69 L215.372 1114.89 L199.197 1114.89 L199.197 1111.69 Z" fill="#000000" fill-rule="nonzero" fill-opacity="1" /><path clip-path="url(#clip180)" d="M144.667 685.161 L152.305 685.161 L152.305 658.795 L143.995 660.462 L143.995 656.203 L152.259 654.536 L156.935 654.536 L156.935 685.161 L164.574 685.161 L164.574 689.096 L144.667 689.096 L144.667 685.161 Z" fill="#000000" fill-rule="nonzero" fill-opacity="1" /><path clip-path="url(#clip180)" d="M184.018 657.615 Q180.407 657.615 178.578 661.179 Q176.773 664.721 176.773 671.851 Q176.773 678.957 178.578 682.522 Q180.407 686.063 184.018 686.063 Q187.652 686.063 189.458 682.522 Q191.287 678.957 191.287 671.851 Q191.287 664.721 189.458 661.179 Q187.652 657.615 184.018 657.615 M184.018 653.911 Q189.828 653.911 192.884 658.517 Q195.963 663.101 195.963 671.851 Q195.963 680.577 192.884 685.184 Q189.828 689.767 184.018 689.767 Q178.208 689.767 175.129 685.184 Q172.074 680.577 172.074 671.851 Q172.074 663.101 175.129 658.517 Q178.208 653.911 184.018 653.911 Z" fill="#000000" fill-rule="nonzero" fill-opacity="1" /><path clip-path="url(#clip180)" d="M205.667 636.107 Q202.733 636.107 201.248 639.003 Q199.781 641.881 199.781 647.674 Q199.781 653.448 201.248 656.344 Q202.733 659.222 205.667 659.222 Q208.62 659.222 210.087 656.344 Q211.573 653.448 211.573 647.674 Q211.573 641.881 210.087 639.003 Q208.62 636.107 205.667 636.107 M205.667 633.098 Q210.388 633.098 212.871 636.84 Q215.372 640.564 215.372 647.674 Q215.372 654.764 212.871 658.507 Q210.388 662.231 205.667 662.231 Q200.947 662.231 198.445 658.507 Q195.963 654.764 195.963 647.674 Q195.963 640.564 198.445 636.84 Q200.947 633.098 205.667 633.098 Z" fill="#000000" fill-rule="nonzero" fill-opacity="1" /><path clip-path="url(#clip180)" d="M147.356 231.96 L154.995 231.96 L154.995 205.595 L146.685 207.261 L146.685 203.002 L154.949 201.335 L159.624 201.335 L159.624 231.96 L167.263 231.96 L167.263 235.895 L147.356 235.895 L147.356 231.96 Z" fill="#000000" fill-rule="nonzero" fill-opacity="1" /><path clip-path="url(#clip180)" d="M186.708 204.414 Q183.097 204.414 181.268 207.979 Q179.462 211.521 179.462 218.65 Q179.462 225.757 181.268 229.321 Q183.097 232.863 186.708 232.863 Q190.342 232.863 192.147 229.321 Q193.976 225.757 193.976 218.65 Q193.976 211.521 192.147 207.979 Q190.342 204.414 186.708 204.414 M186.708 200.71 Q192.518 200.71 195.573 205.317 Q198.652 209.9 198.652 218.65 Q198.652 227.377 195.573 231.983 Q192.518 236.567 186.708 236.567 Q180.898 236.567 177.819 231.983 Q174.763 227.377 174.763 218.65 Q174.763 209.9 177.819 205.317 Q180.898 200.71 186.708 200.71 Z" fill="#000000" fill-rule="nonzero" fill-opacity="1" /><path clip-path="url(#clip180)" d="M199.197 205.288 L205.404 205.288 L205.404 183.866 L198.652 185.22 L198.652 181.759 L205.366 180.405 L209.166 180.405 L209.166 205.288 L215.372 205.288 L215.372 208.485 L199.197 208.485 L199.197 205.288 Z" fill="#000000" fill-rule="nonzero" fill-opacity="1" /><path clip-path="url(#clip180)" d="M16.4842 996.557 L16.4842 966.511 L21.895 966.511 L21.895 990.128 L35.9632 990.128 L35.9632 967.498 L41.3741 967.498 L41.3741 990.128 L58.5933 990.128 L58.5933 965.938 L64.0042 965.938 L64.0042 996.557 L16.4842 996.557 Z" fill="#000000" fill-rule="nonzero" fill-opacity="1" /><path clip-path="url(#clip180)" d="M33.8307 934.969 Q33.2578 935.956 33.0032 937.133 Q32.7167 938.279 32.7167 939.68 Q32.7167 944.645 35.9632 947.319 Q39.1779 949.96 45.2253 949.96 L64.0042 949.96 L64.0042 955.849 L28.3562 955.849 L28.3562 949.96 L33.8944 949.96 Q30.6479 948.114 29.0883 945.154 Q27.4968 942.194 27.4968 937.961 Q27.4968 937.356 27.5923 936.624 Q27.656 935.892 27.8151 935.001 L33.8307 934.969 Z" fill="#000000" fill-rule="nonzero" fill-opacity="1" /><path clip-path="url(#clip180)" d="M33.8307 909.315 Q33.2578 910.302 33.0032 911.48 Q32.7167 912.626 32.7167 914.026 Q32.7167 918.991 35.9632 921.665 Q39.1779 924.307 45.2253 924.307 L64.0042 924.307 L64.0042 930.195 L28.3562 930.195 L28.3562 924.307 L33.8944 924.307 Q30.6479 922.461 29.0883 919.5 Q27.4968 916.54 27.4968 912.307 Q27.4968 911.702 27.5923 910.97 Q27.656 910.238 27.8151 909.347 L33.8307 909.315 Z" fill="#000000" fill-rule="nonzero" fill-opacity="1" /><path clip-path="url(#clip180)" d="M32.4621 890.791 Q32.4621 895.502 36.1542 898.239 Q39.8145 900.976 46.212 900.976 Q52.6095 900.976 56.3017 898.271 Q59.9619 895.534 59.9619 890.791 Q59.9619 886.112 56.2698 883.375 Q52.5777 880.638 46.212 880.638 Q39.8781 880.638 36.186 883.375 Q32.4621 886.112 32.4621 890.791 M27.4968 890.791 Q27.4968 883.152 32.4621 878.792 Q37.4273 874.431 46.212 874.431 Q54.9649 874.431 59.9619 878.792 Q64.9272 883.152 64.9272 890.791 Q64.9272 898.462 59.9619 902.822 Q54.9649 907.151 46.212 907.151 Q37.4273 907.151 32.4621 902.822 Q27.4968 898.462 27.4968 890.791 Z" fill="#000000" fill-rule="nonzero" fill-opacity="1" /><path clip-path="url(#clip180)" d="M33.8307 844.067 Q33.2578 845.054 33.0032 846.231 Q32.7167 847.377 32.7167 848.777 Q32.7167 853.743 35.9632 856.416 Q39.1779 859.058 45.2253 859.058 L64.0042 859.058 L64.0042 864.946 L28.3562 864.946 L28.3562 859.058 L33.8944 859.058 Q30.6479 857.212 29.0883 854.252 Q27.4968 851.292 27.4968 847.059 Q27.4968 846.454 27.5923 845.722 Q27.656 844.99 27.8151 844.099 L33.8307 844.067 Z" fill="#000000" fill-rule="nonzero" fill-opacity="1" /><path clip-path="url(#clip180)" d="M44.7161 808.865 L47.5806 808.865 L47.5806 835.791 Q53.6281 835.409 56.8109 832.163 Q59.9619 828.885 59.9619 823.06 Q59.9619 819.686 59.1344 816.535 Q58.3069 813.352 56.6518 810.233 L62.1899 810.233 Q63.5267 813.384 64.227 816.694 Q64.9272 820.004 64.9272 823.41 Q64.9272 831.94 59.9619 836.937 Q54.9967 841.903 46.5303 841.903 Q37.7774 841.903 32.6531 837.192 Q27.4968 832.449 27.4968 824.429 Q27.4968 817.235 32.1438 813.066 Q36.7589 808.865 44.7161 808.865 M42.9973 814.721 Q38.1912 814.785 35.3266 817.426 Q32.4621 820.036 32.4621 824.365 Q32.4621 829.267 35.2312 832.227 Q38.0002 835.155 43.0292 835.6 L42.9973 814.721 Z" fill="#000000" fill-rule="nonzero" fill-opacity="1" /><path clip-path="url(#clip180)" d="M46.0847 762.331 Q46.0847 769.429 47.7079 772.166 Q49.3312 774.903 53.2461 774.903 Q56.3653 774.903 58.2114 772.866 Q60.0256 770.798 60.0256 767.265 Q60.0256 762.395 56.5881 759.467 Q53.1188 756.507 47.3897 756.507 L46.0847 756.507 L46.0847 762.331 M43.6657 750.65 L64.0042 750.65 L64.0042 756.507 L58.5933 756.507 Q61.8398 758.512 63.3994 761.504 Q64.9272 764.496 64.9272 768.824 Q64.9272 774.299 61.8716 777.545 Q58.7843 780.76 53.6281 780.76 Q47.6125 780.76 44.5569 776.75 Q41.5014 772.707 41.5014 764.718 L41.5014 756.507 L40.9285 756.507 Q36.8862 756.507 34.6901 759.18 Q32.4621 761.822 32.4621 766.628 Q32.4621 769.684 33.1941 772.58 Q33.9262 775.476 35.3903 778.15 L29.9795 778.15 Q28.7381 774.935 28.1334 771.912 Q27.4968 768.888 27.4968 766.023 Q27.4968 758.289 31.5072 754.47 Q35.5176 750.65 43.6657 750.65 Z" fill="#000000" fill-rule="nonzero" fill-opacity="1" /><path clip-path="url(#clip180)" d="M18.2347 712.074 L28.3562 712.074 L28.3562 700.011 L32.9077 700.011 L32.9077 712.074 L52.2594 712.074 Q56.6199 712.074 57.8613 710.896 Q59.1026 709.687 59.1026 706.027 L59.1026 700.011 L64.0042 700.011 L64.0042 706.027 Q64.0042 712.806 61.4897 715.384 Q58.9434 717.962 52.2594 717.962 L32.9077 717.962 L32.9077 722.259 L28.3562 722.259 L28.3562 717.962 L18.2347 717.962 L18.2347 712.074 Z" fill="#000000" fill-rule="nonzero" fill-opacity="1" /><path clip-path="url(#clip180)" d="M34.4036 670.824 L34.4036 630.02 L39.7508 630.02 L39.7508 670.824 L34.4036 670.824 M47.3897 670.824 L47.3897 630.02 L52.8005 630.02 L52.8005 670.824 L47.3897 670.824 Z" fill="#000000" fill-rule="nonzero" fill-opacity="1" /><path clip-path="url(#clip180)" d="M16.4842 597.046 L16.4842 566.49 L19.2214 566.49 L64.0042 583.741 L64.0042 590.457 L21.895 574.225 L21.895 597.046 L16.4842 597.046 Z" fill="#000000" fill-rule="nonzero" fill-opacity="1" /><path clip-path="url(#clip180)" d="M20.7174 540.2 Q20.7174 545.165 25.6189 547.68 Q30.4887 550.162 40.2919 550.162 Q50.0633 550.162 54.9649 547.68 Q59.8346 545.165 59.8346 540.2 Q59.8346 535.203 54.9649 532.72 Q50.0633 530.206 40.2919 530.206 Q30.4887 530.206 25.6189 532.72 Q20.7174 535.203 20.7174 540.2 M15.6248 540.2 Q15.6248 532.211 21.9587 528.01 Q28.2607 523.776 40.2919 523.776 Q52.2913 523.776 58.6251 528.01 Q64.9272 532.211 64.9272 540.2 Q64.9272 548.189 58.6251 552.422 Q52.2913 556.623 40.2919 556.623 Q28.2607 556.623 21.9587 552.422 Q15.6248 548.189 15.6248 540.2 Z" fill="#000000" fill-rule="nonzero" fill-opacity="1" /><path clip-path="url(#clip180)" d="M55.9197 512.477 L55.9197 505.761 L64.0042 505.761 L64.0042 512.477 L55.9197 512.477 Z" fill="#000000" fill-rule="nonzero" fill-opacity="1" /><path clip-path="url(#clip180)" d="M20.7174 478.007 Q20.7174 482.972 25.6189 485.487 Q30.4887 487.969 40.2919 487.969 Q50.0633 487.969 54.9649 485.487 Q59.8346 482.972 59.8346 478.007 Q59.8346 473.01 54.9649 470.527 Q50.0633 468.013 40.2919 468.013 Q30.4887 468.013 25.6189 470.527 Q20.7174 473.01 20.7174 478.007 M15.6248 478.007 Q15.6248 470.018 21.9587 465.817 Q28.2607 461.583 40.2919 461.583 Q52.2913 461.583 58.6251 465.817 Q64.9272 470.018 64.9272 478.007 Q64.9272 485.996 58.6251 490.229 Q52.2913 494.43 40.2919 494.43 Q28.2607 494.43 21.9587 490.229 Q15.6248 485.996 15.6248 478.007 Z" fill="#000000" fill-rule="nonzero" fill-opacity="1" /><polyline clip-path="url(#clip182)" style="stroke:#009af9; stroke-linecap:round; stroke-linejoin:round; stroke-width:4; stroke-opacity:1; fill:none" points="2293.28,85.838 2096.37,322.203 1897.12,506.023 1698.67,652.498 1500.28,776.987 1302.06,888.29 1103.79,991.731 905.557,1090.33 707.341,1185.93 509.06,1279.71 310.845,1372.3 "/>
<circle clip-path="url(#clip182)" cx="2293.28" cy="85.838" r="14.4" fill="#e26f46" fill-rule="evenodd" fill-opacity="1" stroke="#000000" stroke-opacity="1" stroke-width="3.2"/>
<circle clip-path="url(#clip182)" cx="2096.37" cy="322.203" r="14.4" fill="#e26f46" fill-rule="evenodd" fill-opacity="1" stroke="#000000" stroke-opacity="1" stroke-width="3.2"/>
<circle clip-path="url(#clip182)" cx="1897.12" cy="506.023" r="14.4" fill="#e26f46" fill-rule="evenodd" fill-opacity="1" stroke="#000000" stroke-opacity="1" stroke-width="3.2"/>
<circle clip-path="url(#clip182)" cx="1698.67" cy="652.498" r="14.4" fill="#e26f46" fill-rule="evenodd" fill-opacity="1" stroke="#000000" stroke-opacity="1" stroke-width="3.2"/>
<circle clip-path="url(#clip182)" cx="1500.28" cy="776.987" r="14.4" fill="#e26f46" fill-rule="evenodd" fill-opacity="1" stroke="#000000" stroke-opacity="1" stroke-width="3.2"/>
<circle clip-path="url(#clip182)" cx="1302.06" cy="888.29" r="14.4" fill="#e26f46" fill-rule="evenodd" fill-opacity="1" stroke="#000000" stroke-opacity="1" stroke-width="3.2"/>
<circle clip-path="url(#clip182)" cx="1103.79" cy="991.731" r="14.4" fill="#e26f46" fill-rule="evenodd" fill-opacity="1" stroke="#000000" stroke-opacity="1" stroke-width="3.2"/>
<circle clip-path="url(#clip182)" cx="905.557" cy="1090.33" r="14.4" fill="#e26f46" fill-rule="evenodd" fill-opacity="1" stroke="#000000" stroke-opacity="1" stroke-width="3.2"/>
<circle clip-path="url(#clip182)" cx="707.341" cy="1185.93" r="14.4" fill="#e26f46" fill-rule="evenodd" fill-opacity="1" stroke="#000000" stroke-opacity="1" stroke-width="3.2"/>
<circle clip-path="url(#clip182)" cx="509.06" cy="1279.71" r="14.4" fill="#e26f46" fill-rule="evenodd" fill-opacity="1" stroke="#000000" stroke-opacity="1" stroke-width="3.2"/>
<circle clip-path="url(#clip182)" cx="310.845" cy="1372.3" r="14.4" fill="#e26f46" fill-rule="evenodd" fill-opacity="1" stroke="#000000" stroke-opacity="1" stroke-width="3.2"/>
</svg>
