<?xml version="1.0" encoding="utf-8"?>
<svg xmlns="http://www.w3.org/2000/svg" xmlns:xlink="http://www.w3.org/1999/xlink" width="600" height="400" viewBox="0 0 2400 1600">
<defs>
  <clipPath id="clip190">
    <rect x="0" y="0" width="2400" height="1600"/>
  </clipPath>
</defs>
<path clip-path="url(#clip190)" d="M0 1600 L2400 1600 L2400 0 L0 0  Z" fill="#ffffff" fill-rule="evenodd" fill-opacity="1"/>
<defs>
  <clipPath id="clip191">
    <rect x="480" y="0" width="1681" height="1600"/>
  </clipPath>
</defs>
<path clip-path="url(#clip190)" d="M219.866 1423.18 L2352.76 1423.18 L2352.76 47.2441 L219.866 47.2441  Z" fill="#ffffff" fill-rule="evenodd" fill-opacity="1"/>
<defs>
  <clipPath id="clip192">
    <rect x="219" y="47" width="2134" height="1377"/>
  </clipPath>
</defs>
<polyline clip-path="url(#clip192)" style="stroke:#000000; stroke-linecap:round; stroke-linejoin:round; stroke-width:2; stroke-opacity:0.1; fill:none" points="270.17,1423.18 270.17,47.2441 "/>
<polyline clip-path="url(#clip192)" style="stroke:#000000; stroke-linecap:round; stroke-linejoin:round; stroke-width:2; stroke-opacity:0.1; fill:none" points="773.21,1423.18 773.21,47.2441 "/>
<polyline clip-path="url(#clip192)" style="stroke:#000000; stroke-linecap:round; stroke-linejoin:round; stroke-width:2; stroke-opacity:0.1; fill:none" points="1276.25,1423.18 1276.25,47.2441 "/>
<polyline clip-path="url(#clip192)" style="stroke:#000000; stroke-linecap:round; stroke-linejoin:round; stroke-width:2; stroke-opacity:0.1; fill:none" points="1779.29,1423.18 1779.29,47.2441 "/>
<polyline clip-path="url(#clip192)" style="stroke:#000000; stroke-linecap:round; stroke-linejoin:round; stroke-width:2; stroke-opacity:0.1; fill:none" points="2282.33,1423.18 2282.33,47.2441 "/>
<polyline clip-path="url(#clip192)" style="stroke:#000000; stroke-linecap:round; stroke-linejoin:round; stroke-width:2; stroke-opacity:0.1; fill:none" points="219.866,1257.74 2352.76,1257.74 "/>
<polyline clip-path="url(#clip192)" style="stroke:#000000; stroke-linecap:round; stroke-linejoin:round; stroke-width:2; stroke-opacity:0.1; fill:none" points="219.866,1033.51 2352.76,1033.51 "/>
<polyline clip-path="url(#clip192)" style="stroke:#000000; stroke-linecap:round; stroke-linejoin:round; stroke-width:2; stroke-opacity:0.1; fill:none" points="219.866,809.287 2352.76,809.287 "/>
<polyline clip-path="url(#clip192)" style="stroke:#000000; stroke-linecap:round; stroke-linejoin:round; stroke-width:2; stroke-opacity:0.1; fill:none" points="219.866,585.06 2352.76,585.06 "/>
<polyline clip-path="url(#clip192)" style="stroke:#000000; stroke-linecap:round; stroke-linejoin:round; stroke-width:2; stroke-opacity:0.1; fill:none" points="219.866,360.834 2352.76,360.834 "/>
<polyline clip-path="url(#clip192)" style="stroke:#000000; stroke-linecap:round; stroke-linejoin:round; stroke-width:2; stroke-opacity:0.1; fill:none" points="219.866,136.607 2352.76,136.607 "/>
<polyline clip-path="url(#clip190)" style="stroke:#000000; stroke-linecap:round; stroke-linejoin:round; stroke-width:4; stroke-opacity:1; fill:none" points="219.866,1423.18 2352.76,1423.18 "/>
<polyline clip-path="url(#clip190)" style="stroke:#000000; stroke-linecap:round; stroke-linejoin:round; stroke-width:4; stroke-opacity:1; fill:none" points="270.17,1423.18 270.17,1404.28 "/>
<polyline clip-path="url(#clip190)" style="stroke:#000000; stroke-linecap:round; stroke-linejoin:round; stroke-width:4; stroke-opacity:1; fill:none" points="773.21,1423.18 773.21,1404.28 "/>
<polyline clip-path="url(#clip190)" style="stroke:#000000; stroke-linecap:round; stroke-linejoin:round; stroke-width:4; stroke-opacity:1; fill:none" points="1276.25,1423.18 1276.25,1404.28 "/>
<polyline clip-path="url(#clip190)" style="stroke:#000000; stroke-linecap:round; stroke-linejoin:round; stroke-width:4; stroke-opacity:1; fill:none" points="1779.29,1423.18 1779.29,1404.28 "/>
<polyline clip-path="url(#clip190)" style="stroke:#000000; stroke-linecap:round; stroke-linejoin:round; stroke-width:4; stroke-opacity:1; fill:none" points="2282.33,1423.18 2282.33,1404.28 "/>
<path clip-path="url(#clip190)" d="M237.763 1484.86 L237.763 1480.6 Q239.522 1481.44 241.328 1481.88 Q243.133 1482.32 244.869 1482.32 Q249.499 1482.32 251.93 1479.21 Q254.383 1476.09 254.731 1469.75 Q253.388 1471.74 251.328 1472.8 Q249.268 1473.87 246.768 1473.87 Q241.582 1473.87 238.55 1470.74 Q235.541 1467.59 235.541 1462.15 Q235.541 1456.83 238.689 1453.61 Q241.837 1450.39 247.069 1450.39 Q253.064 1450.39 256.212 1455 Q259.383 1459.58 259.383 1468.33 Q259.383 1476.51 255.494 1481.39 Q251.629 1486.25 245.078 1486.25 Q243.319 1486.25 241.513 1485.9 Q239.707 1485.56 237.763 1484.86 M247.069 1470.21 Q250.217 1470.21 252.045 1468.06 Q253.897 1465.9 253.897 1462.15 Q253.897 1458.43 252.045 1456.27 Q250.217 1454.1 247.069 1454.1 Q243.92 1454.1 242.069 1456.27 Q240.24 1458.43 240.24 1462.15 Q240.24 1465.9 242.069 1468.06 Q243.92 1470.21 247.069 1470.21 Z" fill="#000000" fill-rule="nonzero" fill-opacity="1" /><path clip-path="url(#clip190)" d="M267.786 1479.7 L272.67 1479.7 L272.67 1485.58 L267.786 1485.58 L267.786 1479.7 Z" fill="#000000" fill-rule="nonzero" fill-opacity="1" /><path clip-path="url(#clip190)" d="M292.855 1454.1 Q289.244 1454.1 287.416 1457.66 Q285.61 1461.2 285.61 1468.33 Q285.61 1475.44 287.416 1479.01 Q289.244 1482.55 292.855 1482.55 Q296.49 1482.55 298.295 1479.01 Q300.124 1475.44 300.124 1468.33 Q300.124 1461.2 298.295 1457.66 Q296.49 1454.1 292.855 1454.1 M292.855 1450.39 Q298.665 1450.39 301.721 1455 Q304.8 1459.58 304.8 1468.33 Q304.8 1477.06 301.721 1481.67 Q298.665 1486.25 292.855 1486.25 Q287.045 1486.25 283.966 1481.67 Q280.911 1477.06 280.911 1468.33 Q280.911 1459.58 283.966 1455 Q287.045 1450.39 292.855 1450.39 Z" fill="#000000" fill-rule="nonzero" fill-opacity="1" /><path clip-path="url(#clip190)" d="M741.301 1484.86 L741.301 1480.6 Q743.06 1481.44 744.866 1481.88 Q746.671 1482.32 748.407 1482.32 Q753.037 1482.32 755.467 1479.21 Q757.921 1476.09 758.268 1469.75 Q756.926 1471.74 754.865 1472.8 Q752.805 1473.87 750.305 1473.87 Q745.12 1473.87 742.088 1470.74 Q739.079 1467.59 739.079 1462.15 Q739.079 1456.83 742.227 1453.61 Q745.375 1450.39 750.606 1450.39 Q756.602 1450.39 759.75 1455 Q762.921 1459.58 762.921 1468.33 Q762.921 1476.51 759.032 1481.39 Q755.166 1486.25 748.616 1486.25 Q746.856 1486.25 745.051 1485.9 Q743.245 1485.56 741.301 1484.86 M750.606 1470.21 Q753.754 1470.21 755.583 1468.06 Q757.435 1465.9 757.435 1462.15 Q757.435 1458.43 755.583 1456.27 Q753.754 1454.1 750.606 1454.1 Q747.458 1454.1 745.606 1456.27 Q743.778 1458.43 743.778 1462.15 Q743.778 1465.9 745.606 1468.06 Q747.458 1470.21 750.606 1470.21 Z" fill="#000000" fill-rule="nonzero" fill-opacity="1" /><path clip-path="url(#clip190)" d="M771.324 1479.7 L776.208 1479.7 L776.208 1485.58 L771.324 1485.58 L771.324 1479.7 Z" fill="#000000" fill-rule="nonzero" fill-opacity="1" /><path clip-path="url(#clip190)" d="M786.439 1451.02 L804.796 1451.02 L804.796 1454.96 L790.722 1454.96 L790.722 1463.43 Q791.74 1463.08 792.759 1462.92 Q793.777 1462.73 794.796 1462.73 Q800.583 1462.73 803.962 1465.9 Q807.342 1469.08 807.342 1474.49 Q807.342 1480.07 803.87 1483.17 Q800.398 1486.25 794.078 1486.25 Q791.902 1486.25 789.634 1485.88 Q787.388 1485.51 784.981 1484.77 L784.981 1480.07 Q787.064 1481.2 789.287 1481.76 Q791.509 1482.32 793.986 1482.32 Q797.99 1482.32 800.328 1480.21 Q802.666 1478.1 802.666 1474.49 Q802.666 1470.88 800.328 1468.77 Q797.99 1466.67 793.986 1466.67 Q792.111 1466.67 790.236 1467.08 Q788.384 1467.5 786.439 1468.38 L786.439 1451.02 Z" fill="#000000" fill-rule="nonzero" fill-opacity="1" /><path clip-path="url(#clip190)" d="M1228.32 1481.64 L1235.96 1481.64 L1235.96 1455.28 L1227.65 1456.95 L1227.65 1452.69 L1235.91 1451.02 L1240.59 1451.02 L1240.59 1481.64 L1248.23 1481.64 L1248.23 1485.58 L1228.32 1485.58 L1228.32 1481.64 Z" fill="#000000" fill-rule="nonzero" fill-opacity="1" /><path clip-path="url(#clip190)" d="M1267.67 1454.1 Q1264.06 1454.1 1262.23 1457.66 Q1260.43 1461.2 1260.43 1468.33 Q1260.43 1475.44 1262.23 1479.01 Q1264.06 1482.55 1267.67 1482.55 Q1271.31 1482.55 1273.11 1479.01 Q1274.94 1475.44 1274.94 1468.33 Q1274.94 1461.2 1273.11 1457.66 Q1271.31 1454.1 1267.67 1454.1 M1267.67 1450.39 Q1273.48 1450.39 1276.54 1455 Q1279.62 1459.58 1279.62 1468.33 Q1279.62 1477.06 1276.54 1481.67 Q1273.48 1486.25 1267.67 1486.25 Q1261.86 1486.25 1258.79 1481.67 Q1255.73 1477.06 1255.73 1468.33 Q1255.73 1459.58 1258.79 1455 Q1261.86 1450.39 1267.67 1450.39 Z" fill="#000000" fill-rule="nonzero" fill-opacity="1" /><path clip-path="url(#clip190)" d="M1287.84 1479.7 L1292.72 1479.7 L1292.72 1485.58 L1287.84 1485.58 L1287.84 1479.7 Z" fill="#000000" fill-rule="nonzero" fill-opacity="1" /><path clip-path="url(#clip190)" d="M1312.91 1454.1 Q1309.29 1454.1 1307.47 1457.66 Q1305.66 1461.2 1305.66 1468.33 Q1305.66 1475.44 1307.47 1479.01 Q1309.29 1482.55 1312.91 1482.55 Q1316.54 1482.55 1318.34 1479.01 Q1320.17 1475.44 1320.17 1468.33 Q1320.17 1461.2 1318.34 1457.66 Q1316.54 1454.1 1312.91 1454.1 M1312.91 1450.39 Q1318.72 1450.39 1321.77 1455 Q1324.85 1459.58 1324.85 1468.33 Q1324.85 1477.06 1321.77 1481.67 Q1318.72 1486.25 1312.91 1486.25 Q1307.1 1486.25 1304.02 1481.67 Q1300.96 1477.06 1300.96 1468.33 Q1300.96 1459.58 1304.02 1455 Q1307.1 1450.39 1312.91 1450.39 Z" fill="#000000" fill-rule="nonzero" fill-opacity="1" /><path clip-path="url(#clip190)" d="M1731.86 1481.64 L1739.5 1481.64 L1739.5 1455.28 L1731.19 1456.95 L1731.19 1452.69 L1739.45 1451.02 L1744.13 1451.02 L1744.13 1481.64 L1751.77 1481.64 L1751.77 1485.58 L1731.86 1485.58 L1731.86 1481.64 Z" fill="#000000" fill-rule="nonzero" fill-opacity="1" /><path clip-path="url(#clip190)" d="M1771.21 1454.1 Q1767.6 1454.1 1765.77 1457.66 Q1763.97 1461.2 1763.97 1468.33 Q1763.97 1475.44 1765.77 1479.01 Q1767.6 1482.55 1771.21 1482.55 Q1774.85 1482.55 1776.65 1479.01 Q1778.48 1475.44 1778.48 1468.33 Q1778.48 1461.2 1776.65 1457.66 Q1774.85 1454.1 1771.21 1454.1 M1771.21 1450.39 Q1777.02 1450.39 1780.08 1455 Q1783.16 1459.58 1783.16 1468.33 Q1783.16 1477.06 1780.08 1481.67 Q1777.02 1486.25 1771.21 1486.25 Q1765.4 1486.25 1762.32 1481.67 Q1759.27 1477.06 1759.27 1468.33 Q1759.27 1459.58 1762.32 1455 Q1765.4 1450.39 1771.21 1450.39 Z" fill="#000000" fill-rule="nonzero" fill-opacity="1" /><path clip-path="url(#clip190)" d="M1791.37 1479.7 L1796.26 1479.7 L1796.26 1485.58 L1791.37 1485.58 L1791.37 1479.7 Z" fill="#000000" fill-rule="nonzero" fill-opacity="1" /><path clip-path="url(#clip190)" d="M1806.49 1451.02 L1824.85 1451.02 L1824.85 1454.96 L1810.77 1454.96 L1810.77 1463.43 Q1811.79 1463.08 1812.81 1462.92 Q1813.83 1462.73 1814.85 1462.73 Q1820.63 1462.73 1824.01 1465.9 Q1827.39 1469.08 1827.39 1474.49 Q1827.39 1480.07 1823.92 1483.17 Q1820.45 1486.25 1814.13 1486.25 Q1811.95 1486.25 1809.68 1485.88 Q1807.44 1485.51 1805.03 1484.77 L1805.03 1480.07 Q1807.11 1481.2 1809.34 1481.76 Q1811.56 1482.32 1814.04 1482.32 Q1818.04 1482.32 1820.38 1480.21 Q1822.72 1478.1 1822.72 1474.49 Q1822.72 1470.88 1820.38 1468.77 Q1818.04 1466.67 1814.04 1466.67 Q1812.16 1466.67 1810.29 1467.08 Q1808.43 1467.5 1806.49 1468.38 L1806.49 1451.02 Z" fill="#000000" fill-rule="nonzero" fill-opacity="1" /><path clip-path="url(#clip190)" d="M2234.4 1481.64 L2242.04 1481.64 L2242.04 1455.28 L2233.73 1456.95 L2233.73 1452.69 L2241.99 1451.02 L2246.67 1451.02 L2246.67 1481.64 L2254.31 1481.64 L2254.31 1485.58 L2234.4 1485.58 L2234.4 1481.64 Z" fill="#000000" fill-rule="nonzero" fill-opacity="1" /><path clip-path="url(#clip190)" d="M2264.56 1481.64 L2272.2 1481.64 L2272.2 1455.28 L2263.89 1456.95 L2263.89 1452.69 L2272.16 1451.02 L2276.83 1451.02 L2276.83 1481.64 L2284.47 1481.64 L2284.47 1485.58 L2264.56 1485.58 L2264.56 1481.64 Z" fill="#000000" fill-rule="nonzero" fill-opacity="1" /><path clip-path="url(#clip190)" d="M2293.92 1479.7 L2298.8 1479.7 L2298.8 1485.58 L2293.92 1485.58 L2293.92 1479.7 Z" fill="#000000" fill-rule="nonzero" fill-opacity="1" /><path clip-path="url(#clip190)" d="M2318.99 1454.1 Q2315.37 1454.1 2313.55 1457.66 Q2311.74 1461.2 2311.74 1468.33 Q2311.74 1475.44 2313.55 1479.01 Q2315.37 1482.55 2318.99 1482.55 Q2322.62 1482.55 2324.42 1479.01 Q2326.25 1475.44 2326.25 1468.33 Q2326.25 1461.2 2324.42 1457.66 Q2322.62 1454.1 2318.99 1454.1 M2318.99 1450.39 Q2324.8 1450.39 2327.85 1455 Q2330.93 1459.58 2330.93 1468.33 Q2330.93 1477.06 2327.85 1481.67 Q2324.8 1486.25 2318.99 1486.25 Q2313.18 1486.25 2310.1 1481.67 Q2307.04 1477.06 2307.04 1468.33 Q2307.04 1459.58 2310.1 1455 Q2313.18 1450.39 2318.99 1450.39 Z" fill="#000000" fill-rule="nonzero" fill-opacity="1" /><path clip-path="url(#clip190)" d="M1006.25 1520.52 L1033.56 1520.52 L1033.56 1525.93 L1012.68 1525.93 L1012.68 1539.94 L1031.52 1539.94 L1031.52 1545.35 L1012.68 1545.35 L1012.68 1568.04 L1006.25 1568.04 L1006.25 1520.52 Z" fill="#000000" fill-rule="nonzero" fill-opacity="1" /><path clip-path="url(#clip190)" d="M1059.41 1537.87 Q1058.42 1537.3 1057.24 1537.04 Q1056.1 1536.76 1054.69 1536.76 Q1049.73 1536.76 1047.06 1540 Q1044.41 1543.22 1044.41 1549.27 L1044.41 1568.04 L1038.53 1568.04 L1038.53 1532.4 L1044.41 1532.4 L1044.41 1537.93 Q1046.26 1534.69 1049.22 1533.13 Q1052.18 1531.54 1056.41 1531.54 Q1057.02 1531.54 1057.75 1531.63 Q1058.48 1531.7 1059.37 1531.85 L1059.41 1537.87 Z" fill="#000000" fill-rule="nonzero" fill-opacity="1" /><path clip-path="url(#clip190)" d="M1094.61 1548.76 L1094.61 1551.62 L1067.68 1551.62 Q1068.06 1557.67 1071.31 1560.85 Q1074.59 1564 1080.41 1564 Q1083.79 1564 1086.94 1563.17 Q1090.12 1562.35 1093.24 1560.69 L1093.24 1566.23 Q1090.09 1567.57 1086.78 1568.27 Q1083.47 1568.97 1080.06 1568.97 Q1071.53 1568.97 1066.54 1564 Q1061.57 1559.04 1061.57 1550.57 Q1061.57 1541.82 1066.28 1536.69 Q1071.02 1531.54 1079.04 1531.54 Q1086.24 1531.54 1090.41 1536.18 Q1094.61 1540.8 1094.61 1548.76 M1088.75 1547.04 Q1088.69 1542.23 1086.05 1539.37 Q1083.44 1536.5 1079.11 1536.5 Q1074.21 1536.5 1071.25 1539.27 Q1068.32 1542.04 1067.87 1547.07 L1088.75 1547.04 Z" fill="#000000" fill-rule="nonzero" fill-opacity="1" /><path clip-path="url(#clip190)" d="M1107.72 1550.25 Q1107.72 1556.71 1110.36 1560.4 Q1113.04 1564.07 1117.68 1564.07 Q1122.33 1564.07 1125 1560.4 Q1127.68 1556.71 1127.68 1550.25 Q1127.68 1543.79 1125 1540.13 Q1122.33 1536.44 1117.68 1536.44 Q1113.04 1536.44 1110.36 1540.13 Q1107.72 1543.79 1107.72 1550.25 M1127.68 1562.7 Q1125.83 1565.88 1123 1567.44 Q1120.2 1568.97 1116.25 1568.97 Q1109.79 1568.97 1105.72 1563.81 Q1101.67 1558.65 1101.67 1550.25 Q1101.67 1541.85 1105.72 1536.69 Q1109.79 1531.54 1116.25 1531.54 Q1120.2 1531.54 1123 1533.1 Q1125.83 1534.62 1127.68 1537.81 L1127.68 1532.4 L1133.53 1532.4 L1133.53 1581.6 L1127.68 1581.6 L1127.68 1562.7 Z" fill="#000000" fill-rule="nonzero" fill-opacity="1" /><path clip-path="url(#clip190)" d="M1144.99 1553.98 L1144.99 1532.4 L1150.85 1532.4 L1150.85 1553.75 Q1150.85 1558.81 1152.82 1561.36 Q1154.8 1563.87 1158.74 1563.87 Q1163.48 1563.87 1166.22 1560.85 Q1168.99 1557.83 1168.99 1552.61 L1168.99 1532.4 L1174.85 1532.4 L1174.85 1568.04 L1168.99 1568.04 L1168.99 1562.57 Q1166.86 1565.82 1164.03 1567.41 Q1161.22 1568.97 1157.5 1568.97 Q1151.36 1568.97 1148.18 1565.15 Q1144.99 1561.33 1144.99 1553.98 M1159.73 1531.54 L1159.73 1531.54 Z" fill="#000000" fill-rule="nonzero" fill-opacity="1" /><path clip-path="url(#clip190)" d="M1217.4 1548.76 L1217.4 1551.62 L1190.48 1551.62 Q1190.86 1557.67 1194.1 1560.85 Q1197.38 1564 1203.21 1564 Q1206.58 1564 1209.73 1563.17 Q1212.91 1562.35 1216.03 1560.69 L1216.03 1566.23 Q1212.88 1567.57 1209.57 1568.27 Q1206.26 1568.97 1202.86 1568.97 Q1194.33 1568.97 1189.33 1564 Q1184.36 1559.04 1184.36 1550.57 Q1184.36 1541.82 1189.07 1536.69 Q1193.82 1531.54 1201.84 1531.54 Q1209.03 1531.54 1213.2 1536.18 Q1217.4 1540.8 1217.4 1548.76 M1211.55 1547.04 Q1211.48 1542.23 1208.84 1539.37 Q1206.23 1536.5 1201.9 1536.5 Q1197 1536.5 1194.04 1539.27 Q1191.11 1542.04 1190.67 1547.07 L1211.55 1547.04 Z" fill="#000000" fill-rule="nonzero" fill-opacity="1" /><path clip-path="url(#clip190)" d="M1256.65 1546.53 L1256.65 1568.04 L1250.79 1568.04 L1250.79 1546.72 Q1250.79 1541.66 1248.82 1539.14 Q1246.84 1536.63 1242.9 1536.63 Q1238.15 1536.63 1235.42 1539.65 Q1232.68 1542.68 1232.68 1547.9 L1232.68 1568.04 L1226.79 1568.04 L1226.79 1532.4 L1232.68 1532.4 L1232.68 1537.93 Q1234.78 1534.72 1237.61 1533.13 Q1240.48 1531.54 1244.2 1531.54 Q1250.34 1531.54 1253.5 1535.36 Q1256.65 1539.14 1256.65 1546.53 Z" fill="#000000" fill-rule="nonzero" fill-opacity="1" /><path clip-path="url(#clip190)" d="M1265.78 1532.4 L1293.6 1532.4 L1293.6 1537.74 L1271.57 1563.37 L1293.6 1563.37 L1293.6 1568.04 L1264.99 1568.04 L1264.99 1562.7 L1287.01 1537.07 L1265.78 1537.07 L1265.78 1532.4 Z" fill="#000000" fill-rule="nonzero" fill-opacity="1" /><path clip-path="url(#clip190)" d="M1318.74 1550.12 Q1311.65 1550.12 1308.91 1551.75 Q1306.17 1553.37 1306.17 1557.29 Q1306.17 1560.4 1308.21 1562.25 Q1310.28 1564.07 1313.81 1564.07 Q1318.68 1564.07 1321.61 1560.63 Q1324.57 1557.16 1324.57 1551.43 L1324.57 1550.12 L1318.74 1550.12 M1330.43 1547.71 L1330.43 1568.04 L1324.57 1568.04 L1324.57 1562.63 Q1322.56 1565.88 1319.57 1567.44 Q1316.58 1568.97 1312.25 1568.97 Q1306.78 1568.97 1303.53 1565.91 Q1300.32 1562.82 1300.32 1557.67 Q1300.32 1551.65 1304.33 1548.6 Q1308.37 1545.54 1316.36 1545.54 L1324.57 1545.54 L1324.57 1544.97 Q1324.57 1540.93 1321.9 1538.73 Q1319.25 1536.5 1314.45 1536.5 Q1311.39 1536.5 1308.5 1537.23 Q1305.6 1537.97 1302.93 1539.43 L1302.93 1534.02 Q1306.14 1532.78 1309.16 1532.17 Q1312.19 1531.54 1315.05 1531.54 Q1322.79 1531.54 1326.61 1535.55 Q1330.43 1539.56 1330.43 1547.71 Z" fill="#000000" fill-rule="nonzero" fill-opacity="1" /><path clip-path="url(#clip190)" d="M1362.67 1518.52 L1376.16 1518.52 L1376.16 1523.07 L1368.52 1523.07 L1368.52 1572.09 L1376.16 1572.09 L1376.16 1576.64 L1362.67 1576.64 L1362.67 1518.52 Z" fill="#000000" fill-rule="nonzero" fill-opacity="1" /><path clip-path="url(#clip190)" d="M1409.3 1537.87 Q1408.31 1537.3 1407.13 1537.04 Q1405.99 1536.76 1404.59 1536.76 Q1399.62 1536.76 1396.95 1540 Q1394.31 1543.22 1394.31 1549.27 L1394.31 1568.04 L1388.42 1568.04 L1388.42 1532.4 L1394.31 1532.4 L1394.31 1537.93 Q1396.15 1534.69 1399.11 1533.13 Q1402.07 1531.54 1406.3 1531.54 Q1406.91 1531.54 1407.64 1531.63 Q1408.37 1531.7 1409.26 1531.85 L1409.3 1537.87 Z" fill="#000000" fill-rule="nonzero" fill-opacity="1" /><path clip-path="url(#clip190)" d="M1431.64 1550.12 Q1424.54 1550.12 1421.81 1551.75 Q1419.07 1553.37 1419.07 1557.29 Q1419.07 1560.4 1421.1 1562.25 Q1423.17 1564.07 1426.71 1564.07 Q1431.58 1564.07 1434.5 1560.63 Q1437.46 1557.16 1437.46 1551.43 L1437.46 1550.12 L1431.64 1550.12 M1443.32 1547.71 L1443.32 1568.04 L1437.46 1568.04 L1437.46 1562.63 Q1435.46 1565.88 1432.47 1567.44 Q1429.48 1568.97 1425.15 1568.97 Q1419.67 1568.97 1416.43 1565.91 Q1413.21 1562.82 1413.21 1557.67 Q1413.21 1551.65 1417.22 1548.6 Q1421.26 1545.54 1429.25 1545.54 L1437.46 1545.54 L1437.46 1544.97 Q1437.46 1540.93 1434.79 1538.73 Q1432.15 1536.5 1427.34 1536.5 Q1424.29 1536.5 1421.39 1537.23 Q1418.49 1537.97 1415.82 1539.43 L1415.82 1534.02 Q1419.04 1532.78 1422.06 1532.17 Q1425.08 1531.54 1427.95 1531.54 Q1435.68 1531.54 1439.5 1535.55 Q1443.32 1539.56 1443.32 1547.71 Z" fill="#000000" fill-rule="nonzero" fill-opacity="1" /><path clip-path="url(#clip190)" d="M1478.84 1537.81 L1478.84 1518.52 L1484.7 1518.52 L1484.7 1568.04 L1478.84 1568.04 L1478.84 1562.7 Q1477 1565.88 1474.16 1567.44 Q1471.36 1568.97 1467.42 1568.97 Q1460.95 1568.97 1456.88 1563.81 Q1452.84 1558.65 1452.84 1550.25 Q1452.84 1541.85 1456.88 1536.69 Q1460.95 1531.54 1467.42 1531.54 Q1471.36 1531.54 1474.16 1533.1 Q1477 1534.62 1478.84 1537.81 M1458.89 1550.25 Q1458.89 1556.71 1461.53 1560.4 Q1464.2 1564.07 1468.85 1564.07 Q1473.49 1564.07 1476.17 1560.4 Q1478.84 1556.71 1478.84 1550.25 Q1478.84 1543.79 1476.17 1540.13 Q1473.49 1536.44 1468.85 1536.44 Q1464.2 1536.44 1461.53 1540.13 Q1458.89 1543.79 1458.89 1550.25 Z" fill="#000000" fill-rule="nonzero" fill-opacity="1" /><path clip-path="url(#clip190)" d="M1507.17 1520.52 L1512.58 1520.52 L1496.03 1574.09 L1490.62 1574.09 L1507.17 1520.52 Z" fill="#000000" fill-rule="nonzero" fill-opacity="1" /><path clip-path="url(#clip190)" d="M1541.45 1533.45 L1541.45 1538.98 Q1538.97 1537.71 1536.29 1537.07 Q1533.62 1536.44 1530.75 1536.44 Q1526.39 1536.44 1524.2 1537.77 Q1522.03 1539.11 1522.03 1541.79 Q1522.03 1543.82 1523.59 1545 Q1525.15 1546.15 1529.86 1547.2 L1531.87 1547.64 Q1538.11 1548.98 1540.72 1551.43 Q1543.36 1553.85 1543.36 1558.21 Q1543.36 1563.17 1539.41 1566.07 Q1535.5 1568.97 1528.62 1568.97 Q1525.76 1568.97 1522.64 1568.39 Q1519.55 1567.85 1516.11 1566.74 L1516.11 1560.69 Q1519.36 1562.38 1522.51 1563.24 Q1525.66 1564.07 1528.75 1564.07 Q1532.89 1564.07 1535.11 1562.66 Q1537.34 1561.23 1537.34 1558.65 Q1537.34 1556.27 1535.72 1554.99 Q1534.13 1553.72 1528.69 1552.54 L1526.65 1552.07 Q1521.21 1550.92 1518.79 1548.56 Q1516.37 1546.18 1516.37 1542.04 Q1516.37 1537.01 1519.93 1534.27 Q1523.5 1531.54 1530.05 1531.54 Q1533.3 1531.54 1536.17 1532.01 Q1539.03 1532.49 1541.45 1533.45 Z" fill="#000000" fill-rule="nonzero" fill-opacity="1" /><path clip-path="url(#clip190)" d="M1566.37 1518.52 L1566.37 1576.64 L1552.88 1576.64 L1552.88 1572.09 L1560.48 1572.09 L1560.48 1523.07 L1552.88 1523.07 L1552.88 1518.52 L1566.37 1518.52 Z" fill="#000000" fill-rule="nonzero" fill-opacity="1" /><polyline clip-path="url(#clip190)" style="stroke:#000000; stroke-linecap:round; stroke-linejoin:round; stroke-width:4; stroke-opacity:1; fill:none" points="219.866,1423.18 219.866,47.2441 "/>
<polyline clip-path="url(#clip190)" style="stroke:#000000; stroke-linecap:round; stroke-linejoin:round; stroke-width:4; stroke-opacity:1; fill:none" points="219.866,1257.74 238.764,1257.74 "/>
<polyline clip-path="url(#clip190)" style="stroke:#000000; stroke-linecap:round; stroke-linejoin:round; stroke-width:4; stroke-opacity:1; fill:none" points="219.866,1033.51 238.764,1033.51 "/>
<polyline clip-path="url(#clip190)" style="stroke:#000000; stroke-linecap:round; stroke-linejoin:round; stroke-width:4; stroke-opacity:1; fill:none" points="219.866,809.287 238.764,809.287 "/>
<polyline clip-path="url(#clip190)" style="stroke:#000000; stroke-linecap:round; stroke-linejoin:round; stroke-width:4; stroke-opacity:1; fill:none" points="219.866,585.06 238.764,585.06 "/>
<polyline clip-path="url(#clip190)" style="stroke:#000000; stroke-linecap:round; stroke-linejoin:round; stroke-width:4; stroke-opacity:1; fill:none" points="219.866,360.834 238.764,360.834 "/>
<polyline clip-path="url(#clip190)" style="stroke:#000000; stroke-linecap:round; stroke-linejoin:round; stroke-width:4; stroke-opacity:1; fill:none" points="219.866,136.607 238.764,136.607 "/>
<path clip-path="url(#clip190)" d="M127.917 1243.54 Q124.306 1243.54 122.478 1247.1 Q120.672 1250.64 120.672 1257.77 Q120.672 1264.88 122.478 1268.45 Q124.306 1271.99 127.917 1271.99 Q131.552 1271.99 133.357 1268.45 Q135.186 1264.88 135.186 1257.77 Q135.186 1250.64 133.357 1247.1 Q131.552 1243.54 127.917 1243.54 M127.917 1239.83 Q133.728 1239.83 136.783 1244.44 Q139.862 1249.02 139.862 1257.77 Q139.862 1266.5 136.783 1271.11 Q133.728 1275.69 127.917 1275.69 Q122.107 1275.69 119.029 1271.11 Q115.973 1266.5 115.973 1257.77 Q115.973 1249.02 119.029 1244.44 Q122.107 1239.83 127.917 1239.83 Z" fill="#000000" fill-rule="nonzero" fill-opacity="1" /><path clip-path="url(#clip190)" d="M148.079 1269.14 L152.964 1269.14 L152.964 1275.02 L148.079 1275.02 L148.079 1269.14 Z" fill="#000000" fill-rule="nonzero" fill-opacity="1" /><path clip-path="url(#clip190)" d="M163.959 1271.08 L171.598 1271.08 L171.598 1244.72 L163.288 1246.39 L163.288 1242.13 L171.552 1240.46 L176.227 1240.46 L176.227 1271.08 L183.866 1271.08 L183.866 1275.02 L163.959 1275.02 L163.959 1271.08 Z" fill="#000000" fill-rule="nonzero" fill-opacity="1" /><path clip-path="url(#clip190)" d="M128.288 1019.31 Q124.677 1019.31 122.848 1022.88 Q121.043 1026.42 121.043 1033.55 Q121.043 1040.65 122.848 1044.22 Q124.677 1047.76 128.288 1047.76 Q131.922 1047.76 133.728 1044.22 Q135.556 1040.65 135.556 1033.55 Q135.556 1026.42 133.728 1022.88 Q131.922 1019.31 128.288 1019.31 M128.288 1015.61 Q134.098 1015.61 137.154 1020.21 Q140.232 1024.8 140.232 1033.55 Q140.232 1042.27 137.154 1046.88 Q134.098 1051.46 128.288 1051.46 Q122.478 1051.46 119.399 1046.88 Q116.343 1042.27 116.343 1033.55 Q116.343 1024.8 119.399 1020.21 Q122.478 1015.61 128.288 1015.61 Z" fill="#000000" fill-rule="nonzero" fill-opacity="1" /><path clip-path="url(#clip190)" d="M148.45 1044.91 L153.334 1044.91 L153.334 1050.79 L148.45 1050.79 L148.45 1044.91 Z" fill="#000000" fill-rule="nonzero" fill-opacity="1" /><path clip-path="url(#clip190)" d="M167.547 1046.86 L183.866 1046.86 L183.866 1050.79 L161.922 1050.79 L161.922 1046.86 Q164.584 1044.1 169.167 1039.47 Q173.774 1034.82 174.954 1033.48 Q177.2 1030.96 178.079 1029.22 Q178.982 1027.46 178.982 1025.77 Q178.982 1023.02 177.038 1021.28 Q175.116 1019.54 172.014 1019.54 Q169.815 1019.54 167.362 1020.31 Q164.931 1021.07 162.153 1022.62 L162.153 1017.9 Q164.977 1016.77 167.431 1016.19 Q169.885 1015.61 171.922 1015.61 Q177.292 1015.61 180.487 1018.29 Q183.681 1020.98 183.681 1025.47 Q183.681 1027.6 182.871 1029.52 Q182.084 1031.42 179.977 1034.01 Q179.399 1034.68 176.297 1037.9 Q173.195 1041.09 167.547 1046.86 Z" fill="#000000" fill-rule="nonzero" fill-opacity="1" /><path clip-path="url(#clip190)" d="M127.339 795.085 Q123.728 795.085 121.899 798.65 Q120.093 802.192 120.093 809.321 Q120.093 816.428 121.899 819.993 Q123.728 823.534 127.339 823.534 Q130.973 823.534 132.779 819.993 Q134.607 816.428 134.607 809.321 Q134.607 802.192 132.779 798.65 Q130.973 795.085 127.339 795.085 M127.339 791.382 Q133.149 791.382 136.204 795.988 Q139.283 800.571 139.283 809.321 Q139.283 818.048 136.204 822.655 Q133.149 827.238 127.339 827.238 Q121.529 827.238 118.45 822.655 Q115.394 818.048 115.394 809.321 Q115.394 800.571 118.45 795.988 Q121.529 791.382 127.339 791.382 Z" fill="#000000" fill-rule="nonzero" fill-opacity="1" /><path clip-path="url(#clip190)" d="M147.501 820.687 L152.385 820.687 L152.385 826.567 L147.501 826.567 L147.501 820.687 Z" fill="#000000" fill-rule="nonzero" fill-opacity="1" /><path clip-path="url(#clip190)" d="M176.737 807.932 Q180.093 808.65 181.968 810.919 Q183.866 813.187 183.866 816.52 Q183.866 821.636 180.348 824.437 Q176.829 827.238 170.348 827.238 Q168.172 827.238 165.857 826.798 Q163.565 826.381 161.112 825.525 L161.112 821.011 Q163.056 822.145 165.371 822.724 Q167.686 823.303 170.209 823.303 Q174.607 823.303 176.899 821.567 Q179.214 819.831 179.214 816.52 Q179.214 813.465 177.061 811.752 Q174.931 810.016 171.112 810.016 L167.084 810.016 L167.084 806.173 L171.297 806.173 Q174.746 806.173 176.575 804.807 Q178.403 803.419 178.403 800.826 Q178.403 798.164 176.505 796.752 Q174.63 795.317 171.112 795.317 Q169.19 795.317 166.991 795.733 Q164.792 796.15 162.153 797.03 L162.153 792.863 Q164.815 792.122 167.13 791.752 Q169.468 791.382 171.528 791.382 Q176.852 791.382 179.954 793.812 Q183.056 796.22 183.056 800.34 Q183.056 803.21 181.413 805.201 Q179.769 807.169 176.737 807.932 Z" fill="#000000" fill-rule="nonzero" fill-opacity="1" /><path clip-path="url(#clip190)" d="M126.205 570.859 Q122.593 570.859 120.765 574.424 Q118.959 577.965 118.959 585.095 Q118.959 592.201 120.765 595.766 Q122.593 599.308 126.205 599.308 Q129.839 599.308 131.644 595.766 Q133.473 592.201 133.473 585.095 Q133.473 577.965 131.644 574.424 Q129.839 570.859 126.205 570.859 M126.205 567.155 Q132.015 567.155 135.07 571.762 Q138.149 576.345 138.149 585.095 Q138.149 593.822 135.07 598.428 Q132.015 603.011 126.205 603.011 Q120.394 603.011 117.316 598.428 Q114.26 593.822 114.26 585.095 Q114.26 576.345 117.316 571.762 Q120.394 567.155 126.205 567.155 Z" fill="#000000" fill-rule="nonzero" fill-opacity="1" /><path clip-path="url(#clip190)" d="M146.366 596.461 L151.251 596.461 L151.251 602.34 L146.366 602.34 L146.366 596.461 Z" fill="#000000" fill-rule="nonzero" fill-opacity="1" /><path clip-path="url(#clip190)" d="M174.283 571.854 L162.477 590.303 L174.283 590.303 L174.283 571.854 M173.056 567.78 L178.936 567.78 L178.936 590.303 L183.866 590.303 L183.866 594.192 L178.936 594.192 L178.936 602.34 L174.283 602.34 L174.283 594.192 L158.681 594.192 L158.681 589.678 L173.056 567.78 Z" fill="#000000" fill-rule="nonzero" fill-opacity="1" /><path clip-path="url(#clip190)" d="M127.686 346.632 Q124.075 346.632 122.246 350.197 Q120.441 353.739 120.441 360.868 Q120.441 367.975 122.246 371.54 Q124.075 375.081 127.686 375.081 Q131.32 375.081 133.126 371.54 Q134.954 367.975 134.954 360.868 Q134.954 353.739 133.126 350.197 Q131.32 346.632 127.686 346.632 M127.686 342.929 Q133.496 342.929 136.552 347.535 Q139.63 352.118 139.63 360.868 Q139.63 369.595 136.552 374.202 Q133.496 378.785 127.686 378.785 Q121.876 378.785 118.797 374.202 Q115.742 369.595 115.742 360.868 Q115.742 352.118 118.797 347.535 Q121.876 342.929 127.686 342.929 Z" fill="#000000" fill-rule="nonzero" fill-opacity="1" /><path clip-path="url(#clip190)" d="M147.848 372.234 L152.732 372.234 L152.732 378.114 L147.848 378.114 L147.848 372.234 Z" fill="#000000" fill-rule="nonzero" fill-opacity="1" /><path clip-path="url(#clip190)" d="M162.964 343.554 L181.32 343.554 L181.32 347.489 L167.246 347.489 L167.246 355.961 Q168.264 355.614 169.283 355.452 Q170.302 355.267 171.32 355.267 Q177.107 355.267 180.487 358.438 Q183.866 361.609 183.866 367.026 Q183.866 372.604 180.394 375.706 Q176.922 378.785 170.602 378.785 Q168.427 378.785 166.158 378.415 Q163.913 378.044 161.505 377.303 L161.505 372.604 Q163.589 373.739 165.811 374.294 Q168.033 374.85 170.51 374.85 Q174.514 374.85 176.852 372.743 Q179.19 370.637 179.19 367.026 Q179.19 363.415 176.852 361.308 Q174.514 359.202 170.51 359.202 Q168.635 359.202 166.76 359.618 Q164.908 360.035 162.964 360.915 L162.964 343.554 Z" fill="#000000" fill-rule="nonzero" fill-opacity="1" /><path clip-path="url(#clip190)" d="M126.529 122.406 Q122.918 122.406 121.089 125.971 Q119.283 129.512 119.283 136.642 Q119.283 143.748 121.089 147.313 Q122.918 150.855 126.529 150.855 Q130.163 150.855 131.968 147.313 Q133.797 143.748 133.797 136.642 Q133.797 129.512 131.968 125.971 Q130.163 122.406 126.529 122.406 M126.529 118.702 Q132.339 118.702 135.394 123.309 Q138.473 127.892 138.473 136.642 Q138.473 145.369 135.394 149.975 Q132.339 154.558 126.529 154.558 Q120.718 154.558 117.64 149.975 Q114.584 145.369 114.584 136.642 Q114.584 127.892 117.64 123.309 Q120.718 118.702 126.529 118.702 Z" fill="#000000" fill-rule="nonzero" fill-opacity="1" /><path clip-path="url(#clip190)" d="M146.691 148.008 L151.575 148.008 L151.575 153.887 L146.691 153.887 L146.691 148.008 Z" fill="#000000" fill-rule="nonzero" fill-opacity="1" /><path clip-path="url(#clip190)" d="M172.339 134.744 Q169.19 134.744 167.339 136.896 Q165.51 139.049 165.51 142.799 Q165.51 146.526 167.339 148.702 Q169.19 150.855 172.339 150.855 Q175.487 150.855 177.315 148.702 Q179.167 146.526 179.167 142.799 Q179.167 139.049 177.315 136.896 Q175.487 134.744 172.339 134.744 M181.621 120.091 L181.621 124.35 Q179.862 123.517 178.056 123.077 Q176.274 122.637 174.514 122.637 Q169.885 122.637 167.431 125.762 Q165.001 128.887 164.653 135.207 Q166.019 133.193 168.079 132.128 Q170.139 131.04 172.616 131.04 Q177.825 131.04 180.834 134.211 Q183.866 137.359 183.866 142.799 Q183.866 148.123 180.718 151.341 Q177.57 154.558 172.339 154.558 Q166.343 154.558 163.172 149.975 Q160.001 145.369 160.001 136.642 Q160.001 128.447 163.89 123.586 Q167.778 118.702 174.329 118.702 Q176.089 118.702 177.871 119.049 Q179.676 119.397 181.621 120.091 Z" fill="#000000" fill-rule="nonzero" fill-opacity="1" /><path clip-path="url(#clip190)" d="M22.818 868.255 L46.4666 876.976 L46.4666 859.502 L22.818 868.255 M16.4842 871.884 L16.4842 864.595 L64.0042 846.485 L64.0042 853.169 L51.8138 857.497 L51.8138 878.918 L64.0042 883.246 L64.0042 890.026 L16.4842 871.884 Z" fill="#000000" fill-rule="nonzero" fill-opacity="1" /><path clip-path="url(#clip190)" d="M35.1993 812.046 Q31.2526 809.85 29.3747 806.794 Q27.4968 803.739 27.4968 799.601 Q27.4968 794.031 31.4117 791.007 Q35.2948 787.984 42.4881 787.984 L64.0042 787.984 L64.0042 793.872 L42.679 793.872 Q37.5546 793.872 35.072 795.686 Q32.5894 797.5 32.5894 801.224 Q32.5894 805.776 35.6131 808.418 Q38.6368 811.059 43.8567 811.059 L64.0042 811.059 L64.0042 816.948 L42.679 816.948 Q37.5228 816.948 35.072 818.762 Q32.5894 820.576 32.5894 824.364 Q32.5894 828.852 35.6449 831.493 Q38.6686 834.135 43.8567 834.135 L64.0042 834.135 L64.0042 840.023 L28.3562 840.023 L28.3562 834.135 L33.8944 834.135 Q30.616 832.13 29.0564 829.329 Q27.4968 826.528 27.4968 822.677 Q27.4968 818.794 29.4702 816.088 Q31.4436 813.351 35.1993 812.046 Z" fill="#000000" fill-rule="nonzero" fill-opacity="1" /><path clip-path="url(#clip190)" d="M58.657 770.637 L77.5631 770.637 L77.5631 776.525 L28.3562 776.525 L28.3562 770.637 L33.7671 770.637 Q30.5842 768.791 29.0564 765.99 Q27.4968 763.157 27.4968 759.243 Q27.4968 752.749 32.6531 748.707 Q37.8093 744.633 46.212 744.633 Q54.6147 744.633 59.771 748.707 Q64.9272 752.749 64.9272 759.243 Q64.9272 763.157 63.3994 765.99 Q61.8398 768.791 58.657 770.637 M46.212 750.712 Q39.7508 750.712 36.0905 753.386 Q32.3984 756.028 32.3984 760.675 Q32.3984 765.322 36.0905 767.995 Q39.7508 770.637 46.212 770.637 Q52.6732 770.637 56.3653 767.995 Q60.0256 765.322 60.0256 760.675 Q60.0256 756.028 56.3653 753.386 Q52.6732 750.712 46.212 750.712 Z" fill="#000000" fill-rule="nonzero" fill-opacity="1" /><path clip-path="url(#clip190)" d="M28.3562 734.926 L28.3562 729.069 L64.0042 729.069 L64.0042 734.926 L28.3562 734.926 M14.479 734.926 L14.479 729.069 L21.895 729.069 L21.895 734.926 L14.479 734.926 Z" fill="#000000" fill-rule="nonzero" fill-opacity="1" /><path clip-path="url(#clip190)" d="M44.7161 686.323 L47.5806 686.323 L47.5806 713.25 Q53.6281 712.868 56.8109 709.622 Q59.9619 706.343 59.9619 700.519 Q59.9619 697.145 59.1344 693.994 Q58.3069 690.811 56.6518 687.692 L62.1899 687.692 Q63.5267 690.843 64.227 694.153 Q64.9272 697.463 64.9272 700.869 Q64.9272 709.399 59.9619 714.396 Q54.9967 719.361 46.5303 719.361 Q37.7774 719.361 32.6531 714.651 Q27.4968 709.908 27.4968 701.887 Q27.4968 694.694 32.1438 690.525 Q36.7589 686.323 44.7161 686.323 M42.9973 692.18 Q38.1912 692.243 35.3266 694.885 Q32.4621 697.495 32.4621 701.824 Q32.4621 706.725 35.2312 709.685 Q38.0002 712.614 43.0292 713.059 L42.9973 692.18 Z" fill="#000000" fill-rule="nonzero" fill-opacity="1" /><path clip-path="url(#clip190)" d="M28.3562 679.257 L28.3562 651.439 L33.7034 651.439 L59.3254 673.465 L59.3254 651.439 L64.0042 651.439 L64.0042 680.053 L58.657 680.053 L33.035 658.028 L33.035 679.257 L28.3562 679.257 Z" fill="#000000" fill-rule="nonzero" fill-opacity="1" /><path clip-path="url(#clip190)" d="M28.3562 645.042 L28.3562 617.224 L33.7034 617.224 L59.3254 639.249 L59.3254 617.224 L64.0042 617.224 L64.0042 645.837 L58.657 645.837 L33.035 623.812 L33.035 645.042 L28.3562 645.042 Z" fill="#000000" fill-rule="nonzero" fill-opacity="1" /><path clip-path="url(#clip190)" d="M46.0847 592.079 Q46.0847 599.177 47.7079 601.914 Q49.3312 604.651 53.2461 604.651 Q56.3653 604.651 58.2114 602.614 Q60.0256 600.545 60.0256 597.012 Q60.0256 592.143 56.5881 589.214 Q53.1188 586.254 47.3897 586.254 L46.0847 586.254 L46.0847 592.079 M43.6657 580.398 L64.0042 580.398 L64.0042 586.254 L58.5933 586.254 Q61.8398 588.26 63.3994 591.252 Q64.9272 594.243 64.9272 598.572 Q64.9272 604.047 61.8716 607.293 Q58.7843 610.508 53.6281 610.508 Q47.6125 610.508 44.5569 606.497 Q41.5014 602.455 41.5014 594.466 L41.5014 586.254 L40.9285 586.254 Q36.8862 586.254 34.6901 588.928 Q32.4621 591.57 32.4621 596.376 Q32.4621 599.431 33.1941 602.328 Q33.9262 605.224 35.3903 607.898 L29.9795 607.898 Q28.7381 604.683 28.1334 601.659 Q27.4968 598.636 27.4968 595.771 Q27.4968 588.037 31.5072 584.217 Q35.5176 580.398 43.6657 580.398 Z" fill="#000000" fill-rule="nonzero" fill-opacity="1" /><polyline clip-path="url(#clip192)" style="stroke:#009af9; stroke-linecap:round; stroke-linejoin:round; stroke-width:4; stroke-opacity:1; fill:none" points="280.231,1357.94 330.535,1350.94 380.839,1344.22 431.143,1335.26 481.447,1326.95 531.751,1315.05 582.055,1302.8 632.359,1287.63 682.663,1271.25 732.967,1249.69 783.271,1225.65 833.575,1192.85 883.879,1154.19 934.183,1098.53 984.487,1026.52 1034.79,918.936 1085.1,759.09 1135.4,507.606 1185.7,172.183 1236.01,86.1857 1286.31,401.973 1336.62,701.174 1386.92,882.703 1437.22,1006.5 1487.53,1086.99 1537.83,1147.5 1588.14,1190.72 1638.44,1225.92 1688.74,1252.34 1739.05,1275.26 1789.35,1295.41 1839.66,1309.06 1889.96,1323.67 1940.26,1333.6 1990.57,1344.56 2040.87,1352.21 2091.18,1360.68 2141.48,1366.86 2191.78,1373.85 2242.09,1378.6 2292.39,1384.24 "/>
<circle clip-path="url(#clip192)" cx="280.231" cy="1357.94" r="14.4" fill="#e26f46" fill-rule="evenodd" fill-opacity="1" stroke="#000000" stroke-opacity="1" stroke-width="3.2"/>
<circle clip-path="url(#clip192)" cx="330.535" cy="1350.94" r="14.4" fill="#e26f46" fill-rule="evenodd" fill-opacity="1" stroke="#000000" stroke-opacity="1" stroke-width="3.2"/>
<circle clip-path="url(#clip192)" cx="380.839" cy="1344.22" r="14.4" fill="#e26f46" fill-rule="evenodd" fill-opacity="1" stroke="#000000" stroke-opacity="1" stroke-width="3.2"/>
<circle clip-path="url(#clip192)" cx="431.143" cy="1335.26" r="14.4" fill="#e26f46" fill-rule="evenodd" fill-opacity="1" stroke="#000000" stroke-opacity="1" stroke-width="3.2"/>
<circle clip-path="url(#clip192)" cx="481.447" cy="1326.95" r="14.4" fill="#e26f46" fill-rule="evenodd" fill-opacity="1" stroke="#000000" stroke-opacity="1" stroke-width="3.2"/>
<circle clip-path="url(#clip192)" cx="531.751" cy="1315.05" r="14.4" fill="#e26f46" fill-rule="evenodd" fill-opacity="1" stroke="#000000" stroke-opacity="1" stroke-width="3.2"/>
<circle clip-path="url(#clip192)" cx="582.055" cy="1302.8" r="14.4" fill="#e26f46" fill-rule="evenodd" fill-opacity="1" stroke="#000000" stroke-opacity="1" stroke-width="3.2"/>
<circle clip-path="url(#clip192)" cx="632.359" cy="1287.63" r="14.4" fill="#e26f46" fill-rule="evenodd" fill-opacity="1" stroke="#000000" stroke-opacity="1" stroke-width="3.2"/>
<circle clip-path="url(#clip192)" cx="682.663" cy="1271.25" r="14.4" fill="#e26f46" fill-rule="evenodd" fill-opacity="1" stroke="#000000" stroke-opacity="1" stroke-width="3.2"/>
<circle clip-path="url(#clip192)" cx="732.967" cy="1249.69" r="14.4" fill="#e26f46" fill-rule="evenodd" fill-opacity="1" stroke="#000000" stroke-opacity="1" stroke-width="3.2"/>
<circle clip-path="url(#clip192)" cx="783.271" cy="1225.65" r="14.4" fill="#e26f46" fill-rule="evenodd" fill-opacity="1" stroke="#000000" stroke-opacity="1" stroke-width="3.2"/>
<circle clip-path="url(#clip192)" cx="833.575" cy="1192.85" r="14.4" fill="#e26f46" fill-rule="evenodd" fill-opacity="1" stroke="#000000" stroke-opacity="1" stroke-width="3.2"/>
<circle clip-path="url(#clip192)" cx="883.879" cy="1154.19" r="14.4" fill="#e26f46" fill-rule="evenodd" fill-opacity="1" stroke="#000000" stroke-opacity="1" stroke-width="3.2"/>
<circle clip-path="url(#clip192)" cx="934.183" cy="1098.53" r="14.4" fill="#e26f46" fill-rule="evenodd" fill-opacity="1" stroke="#000000" stroke-opacity="1" stroke-width="3.2"/>
<circle clip-path="url(#clip192)" cx="984.487" cy="1026.52" r="14.4" fill="#e26f46" fill-rule="evenodd" fill-opacity="1" stroke="#000000" stroke-opacity="1" stroke-width="3.2"/>
<circle clip-path="url(#clip192)" cx="1034.79" cy="918.936" r="14.4" fill="#e26f46" fill-rule="evenodd" fill-opacity="1" stroke="#000000" stroke-opacity="1" stroke-width="3.2"/>
<circle clip-path="url(#clip192)" cx="1085.1" cy="759.09" r="14.4" fill="#e26f46" fill-rule="evenodd" fill-opacity="1" stroke="#000000" stroke-opacity="1" stroke-width="3.2"/>
<circle clip-path="url(#clip192)" cx="1135.4" cy="507.606" r="14.4" fill="#e26f46" fill-rule="evenodd" fill-opacity="1" stroke="#000000" stroke-opacity="1" stroke-width="3.2"/>
<circle clip-path="url(#clip192)" cx="1185.7" cy="172.183" r="14.4" fill="#e26f46" fill-rule="evenodd" fill-opacity="1" stroke="#000000" stroke-opacity="1" stroke-width="3.2"/>
<circle clip-path="url(#clip192)" cx="1236.01" cy="86.1857" r="14.4" fill="#e26f46" fill-rule="evenodd" fill-opacity="1" stroke="#000000" stroke-opacity="1" stroke-width="3.2"/>
<circle clip-path="url(#clip192)" cx="1286.31" cy="401.973" r="14.4" fill="#e26f46" fill-rule="evenodd" fill-opacity="1" stroke="#000000" stroke-opacity="1" stroke-width="3.2"/>
<circle clip-path="url(#clip192)" cx="1336.62" cy="701.174" r="14.4" fill="#e26f46" fill-rule="evenodd" fill-opacity="1" stroke="#000000" stroke-opacity="1" stroke-width="3.2"/>
<circle clip-path="url(#clip192)" cx="1386.92" cy="882.703" r="14.4" fill="#e26f46" fill-rule="evenodd" fill-opacity="1" stroke="#000000" stroke-opacity="1" stroke-width="3.2"/>
<circle clip-path="url(#clip192)" cx="1437.22" cy="1006.5" r="14.4" fill="#e26f46" fill-rule="evenodd" fill-opacity="1" stroke="#000000" stroke-opacity="1" stroke-width="3.2"/>
<circle clip-path="url(#clip192)" cx="1487.53" cy="1086.99" r="14.4" fill="#e26f46" fill-rule="evenodd" fill-opacity="1" stroke="#000000" stroke-opacity="1" stroke-width="3.2"/>
<circle clip-path="url(#clip192)" cx="1537.83" cy="1147.5" r="14.4" fill="#e26f46" fill-rule="evenodd" fill-opacity="1" stroke="#000000" stroke-opacity="1" stroke-width="3.2"/>
<circle clip-path="url(#clip192)" cx="1588.14" cy="1190.72" r="14.4" fill="#e26f46" fill-rule="evenodd" fill-opacity="1" stroke="#000000" stroke-opacity="1" stroke-width="3.2"/>
<circle clip-path="url(#clip192)" cx="1638.44" cy="1225.92" r="14.4" fill="#e26f46" fill-rule="evenodd" fill-opacity="1" stroke="#000000" stroke-opacity="1" stroke-width="3.2"/>
<circle clip-path="url(#clip192)" cx="1688.74" cy="1252.34" r="14.4" fill="#e26f46" fill-rule="evenodd" fill-opacity="1" stroke="#000000" stroke-opacity="1" stroke-width="3.2"/>
<circle clip-path="url(#clip192)" cx="1739.05" cy="1275.26" r="14.4" fill="#e26f46" fill-rule="evenodd" fill-opacity="1" stroke="#000000" stroke-opacity="1" stroke-width="3.2"/>
<circle clip-path="url(#clip192)" cx="1789.35" cy="1295.41" r="14.4" fill="#e26f46" fill-rule="evenodd" fill-opacity="1" stroke="#000000" stroke-opacity="1" stroke-width="3.2"/>
<circle clip-path="url(#clip192)" cx="1839.66" cy="1309.06" r="14.4" fill="#e26f46" fill-rule="evenodd" fill-opacity="1" stroke="#000000" stroke-opacity="1" stroke-width="3.2"/>
<circle clip-path="url(#clip192)" cx="1889.96" cy="1323.67" r="14.4" fill="#e26f46" fill-rule="evenodd" fill-opacity="1" stroke="#000000" stroke-opacity="1" stroke-width="3.2"/>
<circle clip-path="url(#clip192)" cx="1940.26" cy="1333.6" r="14.4" fill="#e26f46" fill-rule="evenodd" fill-opacity="1" stroke="#000000" stroke-opacity="1" stroke-width="3.2"/>
<circle clip-path="url(#clip192)" cx="1990.57" cy="1344.56" r="14.4" fill="#e26f46" fill-rule="evenodd" fill-opacity="1" stroke="#000000" stroke-opacity="1" stroke-width="3.2"/>
<circle clip-path="url(#clip192)" cx="2040.87" cy="1352.21" r="14.4" fill="#e26f46" fill-rule="evenodd" fill-opacity="1" stroke="#000000" stroke-opacity="1" stroke-width="3.2"/>
<circle clip-path="url(#clip192)" cx="2091.18" cy="1360.68" r="14.4" fill="#e26f46" fill-rule="evenodd" fill-opacity="1" stroke="#000000" stroke-opacity="1" stroke-width="3.2"/>
<circle clip-path="url(#clip192)" cx="2141.48" cy="1366.86" r="14.4" fill="#e26f46" fill-rule="evenodd" fill-opacity="1" stroke="#000000" stroke-opacity="1" stroke-width="3.2"/>
<circle clip-path="url(#clip192)" cx="2191.78" cy="1373.85" r="14.4" fill="#e26f46" fill-rule="evenodd" fill-opacity="1" stroke="#000000" stroke-opacity="1" stroke-width="3.2"/>
<circle clip-path="url(#clip192)" cx="2242.09" cy="1378.6" r="14.4" fill="#e26f46" fill-rule="evenodd" fill-opacity="1" stroke="#000000" stroke-opacity="1" stroke-width="3.2"/>
<circle clip-path="url(#clip192)" cx="2292.39" cy="1384.24" r="14.4" fill="#e26f46" fill-rule="evenodd" fill-opacity="1" stroke="#000000" stroke-opacity="1" stroke-width="3.2"/>
</svg>
