<?xml version="1.0" encoding="utf-8"?>
<svg xmlns="http://www.w3.org/2000/svg" xmlns:xlink="http://www.w3.org/1999/xlink" width="600" height="400" viewBox="0 0 2400 1600">
<defs>
  <clipPath id="clip670">
    <rect x="0" y="0" width="2400" height="1600"/>
  </clipPath>
</defs>
<path clip-path="url(#clip670)" d="
M0 1600 L2400 1600 L2400 0 L0 0  Z
  " fill="#ffffff" fill-rule="evenodd" fill-opacity="1"/>
<defs>
  <clipPath id="clip671">
    <rect x="480" y="0" width="1681" height="1600"/>
  </clipPath>
</defs>
<path clip-path="url(#clip670)" d="
M219.38 1423.18 L2352.76 1423.18 L2352.76 47.2441 L219.38 47.2441  Z
  " fill="#ffffff" fill-rule="evenodd" fill-opacity="1"/>
<defs>
  <clipPath id="clip672">
    <rect x="219" y="47" width="2134" height="1377"/>
  </clipPath>
</defs>
<polyline clip-path="url(#clip672)" style="stroke:#000000; stroke-linecap:butt; stroke-linejoin:round; stroke-width:2; stroke-opacity:0.1; fill:none" points="
  269.696,1423.18 269.696,47.2441 
  "/>
<polyline clip-path="url(#clip672)" style="stroke:#000000; stroke-linecap:butt; stroke-linejoin:round; stroke-width:2; stroke-opacity:0.1; fill:none" points="
  772.85,1423.18 772.85,47.2441 
  "/>
<polyline clip-path="url(#clip672)" style="stroke:#000000; stroke-linecap:butt; stroke-linejoin:round; stroke-width:2; stroke-opacity:0.1; fill:none" points="
  1276,1423.18 1276,47.2441 
  "/>
<polyline clip-path="url(#clip672)" style="stroke:#000000; stroke-linecap:butt; stroke-linejoin:round; stroke-width:2; stroke-opacity:0.1; fill:none" points="
  1779.16,1423.18 1779.16,47.2441 
  "/>
<polyline clip-path="url(#clip672)" style="stroke:#000000; stroke-linecap:butt; stroke-linejoin:round; stroke-width:2; stroke-opacity:0.1; fill:none" points="
  2282.31,1423.18 2282.31,47.2441 
  "/>
<polyline clip-path="url(#clip670)" style="stroke:#000000; stroke-linecap:butt; stroke-linejoin:round; stroke-width:4; stroke-opacity:1; fill:none" points="
  219.38,1423.18 2352.76,1423.18 
  "/>
<polyline clip-path="url(#clip670)" style="stroke:#000000; stroke-linecap:butt; stroke-linejoin:round; stroke-width:4; stroke-opacity:1; fill:none" points="
  269.696,1423.18 269.696,1404.28 
  "/>
<polyline clip-path="url(#clip670)" style="stroke:#000000; stroke-linecap:butt; stroke-linejoin:round; stroke-width:4; stroke-opacity:1; fill:none" points="
  772.85,1423.18 772.85,1404.28 
  "/>
<polyline clip-path="url(#clip670)" style="stroke:#000000; stroke-linecap:butt; stroke-linejoin:round; stroke-width:4; stroke-opacity:1; fill:none" points="
  1276,1423.18 1276,1404.28 
  "/>
<polyline clip-path="url(#clip670)" style="stroke:#000000; stroke-linecap:butt; stroke-linejoin:round; stroke-width:4; stroke-opacity:1; fill:none" points="
  1779.16,1423.18 1779.16,1404.28 
  "/>
<polyline clip-path="url(#clip670)" style="stroke:#000000; stroke-linecap:butt; stroke-linejoin:round; stroke-width:4; stroke-opacity:1; fill:none" points="
  2282.31,1423.18 2282.31,1404.28 
  "/>
<path clip-path="url(#clip670)" d="M237.288 1484.86 L237.288 1480.6 Q239.048 1481.44 240.853 1481.88 Q242.659 1482.32 244.395 1482.32 Q249.024 1482.32 251.455 1479.21 Q253.909 1476.09 254.256 1469.75 Q252.913 1471.74 250.853 1472.8 Q248.793 1473.87 246.293 1473.87 Q241.108 1473.87 238.075 1470.74 Q235.066 1467.59 235.066 1462.15 Q235.066 1456.83 238.214 1453.61 Q241.362 1450.39 246.594 1450.39 Q252.589 1450.39 255.737 1455 Q258.909 1459.58 258.909 1468.33 Q258.909 1476.51 255.02 1481.39 Q251.154 1486.25 244.603 1486.25 Q242.844 1486.25 241.038 1485.9 Q239.233 1485.56 237.288 1484.86 M246.594 1470.21 Q249.742 1470.21 251.571 1468.06 Q253.423 1465.9 253.423 1462.15 Q253.423 1458.43 251.571 1456.27 Q249.742 1454.1 246.594 1454.1 Q243.446 1454.1 241.594 1456.27 Q239.765 1458.43 239.765 1462.15 Q239.765 1465.9 241.594 1468.06 Q243.446 1470.21 246.594 1470.21 Z" fill="#000000" fill-rule="evenodd" fill-opacity="1" /><path clip-path="url(#clip670)" d="M267.311 1479.7 L272.196 1479.7 L272.196 1485.58 L267.311 1485.58 L267.311 1479.7 Z" fill="#000000" fill-rule="evenodd" fill-opacity="1" /><path clip-path="url(#clip670)" d="M292.381 1454.1 Q288.77 1454.1 286.941 1457.66 Q285.135 1461.2 285.135 1468.33 Q285.135 1475.44 286.941 1479.01 Q288.77 1482.55 292.381 1482.55 Q296.015 1482.55 297.82 1479.01 Q299.649 1475.44 299.649 1468.33 Q299.649 1461.2 297.82 1457.66 Q296.015 1454.1 292.381 1454.1 M292.381 1450.39 Q298.191 1450.39 301.246 1455 Q304.325 1459.58 304.325 1468.33 Q304.325 1477.06 301.246 1481.67 Q298.191 1486.25 292.381 1486.25 Q286.571 1486.25 283.492 1481.67 Q280.436 1477.06 280.436 1468.33 Q280.436 1459.58 283.492 1455 Q286.571 1450.39 292.381 1450.39 Z" fill="#000000" fill-rule="evenodd" fill-opacity="1" /><path clip-path="url(#clip670)" d="M740.941 1484.86 L740.941 1480.6 Q742.7 1481.44 744.506 1481.88 Q746.311 1482.32 748.047 1482.32 Q752.677 1482.32 755.107 1479.21 Q757.561 1476.09 757.908 1469.75 Q756.566 1471.74 754.505 1472.8 Q752.445 1473.87 749.945 1473.87 Q744.76 1473.87 741.728 1470.74 Q738.719 1467.59 738.719 1462.15 Q738.719 1456.83 741.867 1453.61 Q745.015 1450.39 750.246 1450.39 Q756.242 1450.39 759.39 1455 Q762.561 1459.58 762.561 1468.33 Q762.561 1476.51 758.672 1481.39 Q754.806 1486.25 748.256 1486.25 Q746.496 1486.25 744.691 1485.9 Q742.885 1485.56 740.941 1484.86 M750.246 1470.21 Q753.394 1470.21 755.223 1468.06 Q757.075 1465.9 757.075 1462.15 Q757.075 1458.43 755.223 1456.27 Q753.394 1454.1 750.246 1454.1 Q747.098 1454.1 745.246 1456.27 Q743.418 1458.43 743.418 1462.15 Q743.418 1465.9 745.246 1468.06 Q747.098 1470.21 750.246 1470.21 Z" fill="#000000" fill-rule="evenodd" fill-opacity="1" /><path clip-path="url(#clip670)" d="M770.964 1479.7 L775.848 1479.7 L775.848 1485.58 L770.964 1485.58 L770.964 1479.7 Z" fill="#000000" fill-rule="evenodd" fill-opacity="1" /><path clip-path="url(#clip670)" d="M786.079 1451.02 L804.436 1451.02 L804.436 1454.96 L790.362 1454.96 L790.362 1463.43 Q791.38 1463.08 792.399 1462.92 Q793.417 1462.73 794.436 1462.73 Q800.223 1462.73 803.602 1465.9 Q806.982 1469.08 806.982 1474.49 Q806.982 1480.07 803.51 1483.17 Q800.038 1486.25 793.718 1486.25 Q791.542 1486.25 789.274 1485.88 Q787.028 1485.51 784.621 1484.77 L784.621 1480.07 Q786.704 1481.2 788.927 1481.76 Q791.149 1482.32 793.626 1482.32 Q797.63 1482.32 799.968 1480.21 Q802.306 1478.1 802.306 1474.49 Q802.306 1470.88 799.968 1468.77 Q797.63 1466.67 793.626 1466.67 Q791.751 1466.67 789.876 1467.08 Q788.024 1467.5 786.079 1468.38 L786.079 1451.02 Z" fill="#000000" fill-rule="evenodd" fill-opacity="1" /><path clip-path="url(#clip670)" d="M1228.08 1481.64 L1235.72 1481.64 L1235.72 1455.28 L1227.41 1456.95 L1227.41 1452.69 L1235.67 1451.02 L1240.35 1451.02 L1240.35 1481.64 L1247.98 1481.64 L1247.98 1485.58 L1228.08 1485.58 L1228.08 1481.64 Z" fill="#000000" fill-rule="evenodd" fill-opacity="1" /><path clip-path="url(#clip670)" d="M1267.43 1454.1 Q1263.82 1454.1 1261.99 1457.66 Q1260.18 1461.2 1260.18 1468.33 Q1260.18 1475.44 1261.99 1479.01 Q1263.82 1482.55 1267.43 1482.55 Q1271.06 1482.55 1272.87 1479.01 Q1274.7 1475.44 1274.7 1468.33 Q1274.7 1461.2 1272.87 1457.66 Q1271.06 1454.1 1267.43 1454.1 M1267.43 1450.39 Q1273.24 1450.39 1276.29 1455 Q1279.37 1459.58 1279.37 1468.33 Q1279.37 1477.06 1276.29 1481.67 Q1273.24 1486.25 1267.43 1486.25 Q1261.62 1486.25 1258.54 1481.67 Q1255.48 1477.06 1255.48 1468.33 Q1255.48 1459.58 1258.54 1455 Q1261.62 1450.39 1267.43 1450.39 Z" fill="#000000" fill-rule="evenodd" fill-opacity="1" /><path clip-path="url(#clip670)" d="M1287.59 1479.7 L1292.47 1479.7 L1292.47 1485.58 L1287.59 1485.58 L1287.59 1479.7 Z" fill="#000000" fill-rule="evenodd" fill-opacity="1" /><path clip-path="url(#clip670)" d="M1312.66 1454.1 Q1309.05 1454.1 1307.22 1457.66 Q1305.41 1461.2 1305.41 1468.33 Q1305.41 1475.44 1307.22 1479.01 Q1309.05 1482.55 1312.66 1482.55 Q1316.29 1482.55 1318.1 1479.01 Q1319.93 1475.44 1319.93 1468.33 Q1319.93 1461.2 1318.1 1457.66 Q1316.29 1454.1 1312.66 1454.1 M1312.66 1450.39 Q1318.47 1450.39 1321.53 1455 Q1324.6 1459.58 1324.6 1468.33 Q1324.6 1477.06 1321.53 1481.67 Q1318.47 1486.25 1312.66 1486.25 Q1306.85 1486.25 1303.77 1481.67 Q1300.72 1477.06 1300.72 1468.33 Q1300.72 1459.58 1303.77 1455 Q1306.85 1450.39 1312.66 1450.39 Z" fill="#000000" fill-rule="evenodd" fill-opacity="1" /><path clip-path="url(#clip670)" d="M1731.73 1481.64 L1739.37 1481.64 L1739.37 1455.28 L1731.06 1456.95 L1731.06 1452.69 L1739.32 1451.02 L1744 1451.02 L1744 1481.64 L1751.64 1481.64 L1751.64 1485.58 L1731.73 1485.58 L1731.73 1481.64 Z" fill="#000000" fill-rule="evenodd" fill-opacity="1" /><path clip-path="url(#clip670)" d="M1771.08 1454.1 Q1767.47 1454.1 1765.64 1457.66 Q1763.84 1461.2 1763.84 1468.33 Q1763.84 1475.44 1765.64 1479.01 Q1767.47 1482.55 1771.08 1482.55 Q1774.72 1482.55 1776.52 1479.01 Q1778.35 1475.44 1778.35 1468.33 Q1778.35 1461.2 1776.52 1457.66 Q1774.72 1454.1 1771.08 1454.1 M1771.08 1450.39 Q1776.89 1450.39 1779.95 1455 Q1783.03 1459.58 1783.03 1468.33 Q1783.03 1477.06 1779.95 1481.67 Q1776.89 1486.25 1771.08 1486.25 Q1765.27 1486.25 1762.19 1481.67 Q1759.14 1477.06 1759.14 1468.33 Q1759.14 1459.58 1762.19 1455 Q1765.27 1450.39 1771.08 1450.39 Z" fill="#000000" fill-rule="evenodd" fill-opacity="1" /><path clip-path="url(#clip670)" d="M1791.24 1479.7 L1796.13 1479.7 L1796.13 1485.58 L1791.24 1485.58 L1791.24 1479.7 Z" fill="#000000" fill-rule="evenodd" fill-opacity="1" /><path clip-path="url(#clip670)" d="M1806.36 1451.02 L1824.71 1451.02 L1824.71 1454.96 L1810.64 1454.96 L1810.64 1463.43 Q1811.66 1463.08 1812.68 1462.92 Q1813.7 1462.73 1814.71 1462.73 Q1820.5 1462.73 1823.88 1465.9 Q1827.26 1469.08 1827.26 1474.49 Q1827.26 1480.07 1823.79 1483.17 Q1820.32 1486.25 1814 1486.25 Q1811.82 1486.25 1809.55 1485.88 Q1807.31 1485.51 1804.9 1484.77 L1804.9 1480.07 Q1806.98 1481.2 1809.21 1481.76 Q1811.43 1482.32 1813.9 1482.32 Q1817.91 1482.32 1820.25 1480.21 Q1822.59 1478.1 1822.59 1474.49 Q1822.59 1470.88 1820.25 1468.77 Q1817.91 1466.67 1813.9 1466.67 Q1812.03 1466.67 1810.15 1467.08 Q1808.3 1467.5 1806.36 1468.38 L1806.36 1451.02 Z" fill="#000000" fill-rule="evenodd" fill-opacity="1" /><path clip-path="url(#clip670)" d="M2234.39 1481.64 L2242.03 1481.64 L2242.03 1455.28 L2233.71 1456.95 L2233.71 1452.69 L2241.98 1451.02 L2246.65 1451.02 L2246.65 1481.64 L2254.29 1481.64 L2254.29 1485.58 L2234.39 1485.58 L2234.39 1481.64 Z" fill="#000000" fill-rule="evenodd" fill-opacity="1" /><path clip-path="url(#clip670)" d="M2264.55 1481.64 L2272.19 1481.64 L2272.19 1455.28 L2263.88 1456.95 L2263.88 1452.69 L2272.14 1451.02 L2276.82 1451.02 L2276.82 1481.64 L2284.46 1481.64 L2284.46 1485.58 L2264.55 1485.58 L2264.55 1481.64 Z" fill="#000000" fill-rule="evenodd" fill-opacity="1" /><path clip-path="url(#clip670)" d="M2293.9 1479.7 L2298.78 1479.7 L2298.78 1485.58 L2293.9 1485.58 L2293.9 1479.7 Z" fill="#000000" fill-rule="evenodd" fill-opacity="1" /><path clip-path="url(#clip670)" d="M2318.97 1454.1 Q2315.36 1454.1 2313.53 1457.66 Q2311.72 1461.2 2311.72 1468.33 Q2311.72 1475.44 2313.53 1479.01 Q2315.36 1482.55 2318.97 1482.55 Q2322.6 1482.55 2324.41 1479.01 Q2326.24 1475.44 2326.24 1468.33 Q2326.24 1461.2 2324.41 1457.66 Q2322.6 1454.1 2318.97 1454.1 M2318.97 1450.39 Q2324.78 1450.39 2327.83 1455 Q2330.91 1459.58 2330.91 1468.33 Q2330.91 1477.06 2327.83 1481.67 Q2324.78 1486.25 2318.97 1486.25 Q2313.16 1486.25 2310.08 1481.67 Q2307.02 1477.06 2307.02 1468.33 Q2307.02 1459.58 2310.08 1455 Q2313.16 1450.39 2318.97 1450.39 Z" fill="#000000" fill-rule="evenodd" fill-opacity="1" /><path clip-path="url(#clip670)" d="M1006.01 1520.52 L1033.32 1520.52 L1033.32 1525.93 L1012.44 1525.93 L1012.44 1539.94 L1031.28 1539.94 L1031.28 1545.35 L1012.44 1545.35 L1012.44 1568.04 L1006.01 1568.04 L1006.01 1520.52 Z" fill="#000000" fill-rule="evenodd" fill-opacity="1" /><path clip-path="url(#clip670)" d="M1059.16 1537.87 Q1058.18 1537.3 1057 1537.04 Q1055.85 1536.76 1054.45 1536.76 Q1049.49 1536.76 1046.81 1540 Q1044.17 1543.22 1044.17 1549.27 L1044.17 1568.04 L1038.28 1568.04 L1038.28 1532.4 L1044.17 1532.4 L1044.17 1537.93 Q1046.02 1534.69 1048.98 1533.13 Q1051.94 1531.54 1056.17 1531.54 Q1056.78 1531.54 1057.51 1531.63 Q1058.24 1531.7 1059.13 1531.85 L1059.16 1537.87 Z" fill="#000000" fill-rule="evenodd" fill-opacity="1" /><path clip-path="url(#clip670)" d="M1094.36 1548.76 L1094.36 1551.62 L1067.44 1551.62 Q1067.82 1557.67 1071.07 1560.85 Q1074.34 1564 1080.17 1564 Q1083.54 1564 1086.69 1563.17 Q1089.88 1562.35 1093 1560.69 L1093 1566.23 Q1089.85 1567.57 1086.53 1568.27 Q1083.22 1568.97 1079.82 1568.97 Q1071.29 1568.97 1066.29 1564 Q1061.33 1559.04 1061.33 1550.57 Q1061.33 1541.82 1066.04 1536.69 Q1070.78 1531.54 1078.8 1531.54 Q1085.99 1531.54 1090.16 1536.18 Q1094.36 1540.8 1094.36 1548.76 M1088.51 1547.04 Q1088.44 1542.23 1085.8 1539.37 Q1083.19 1536.5 1078.86 1536.5 Q1073.96 1536.5 1071 1539.27 Q1068.07 1542.04 1067.63 1547.07 L1088.51 1547.04 Z" fill="#000000" fill-rule="evenodd" fill-opacity="1" /><path clip-path="url(#clip670)" d="M1107.48 1550.25 Q1107.48 1556.71 1110.12 1560.4 Q1112.79 1564.07 1117.44 1564.07 Q1122.09 1564.07 1124.76 1560.4 Q1127.43 1556.71 1127.43 1550.25 Q1127.43 1543.79 1124.76 1540.13 Q1122.09 1536.44 1117.44 1536.44 Q1112.79 1536.44 1110.12 1540.13 Q1107.48 1543.79 1107.48 1550.25 M1127.43 1562.7 Q1125.59 1565.88 1122.76 1567.44 Q1119.95 1568.97 1116.01 1568.97 Q1109.55 1568.97 1105.47 1563.81 Q1101.43 1558.65 1101.43 1550.25 Q1101.43 1541.85 1105.47 1536.69 Q1109.55 1531.54 1116.01 1531.54 Q1119.95 1531.54 1122.76 1533.1 Q1125.59 1534.62 1127.43 1537.81 L1127.43 1532.4 L1133.29 1532.4 L1133.29 1581.6 L1127.43 1581.6 L1127.43 1562.7 Z" fill="#000000" fill-rule="evenodd" fill-opacity="1" /><path clip-path="url(#clip670)" d="M1144.75 1553.98 L1144.75 1532.4 L1150.61 1532.4 L1150.61 1553.75 Q1150.61 1558.81 1152.58 1561.36 Q1154.55 1563.87 1158.5 1563.87 Q1163.24 1563.87 1165.98 1560.85 Q1168.75 1557.83 1168.75 1552.61 L1168.75 1532.4 L1174.6 1532.4 L1174.6 1568.04 L1168.75 1568.04 L1168.75 1562.57 Q1166.62 1565.82 1163.78 1567.41 Q1160.98 1568.97 1157.26 1568.97 Q1151.12 1568.97 1147.93 1565.15 Q1144.75 1561.33 1144.75 1553.98 M1159.49 1531.54 L1159.49 1531.54 Z" fill="#000000" fill-rule="evenodd" fill-opacity="1" /><path clip-path="url(#clip670)" d="M1217.16 1548.76 L1217.16 1551.62 L1190.23 1551.62 Q1190.61 1557.67 1193.86 1560.85 Q1197.14 1564 1202.96 1564 Q1206.34 1564 1209.49 1563.17 Q1212.67 1562.35 1215.79 1560.69 L1215.79 1566.23 Q1212.64 1567.57 1209.33 1568.27 Q1206.02 1568.97 1202.61 1568.97 Q1194.08 1568.97 1189.09 1564 Q1184.12 1559.04 1184.12 1550.57 Q1184.12 1541.82 1188.83 1536.69 Q1193.57 1531.54 1201.6 1531.54 Q1208.79 1531.54 1212.96 1536.18 Q1217.16 1540.8 1217.16 1548.76 M1211.3 1547.04 Q1211.24 1542.23 1208.6 1539.37 Q1205.99 1536.5 1201.66 1536.5 Q1196.76 1536.5 1193.8 1539.27 Q1190.87 1542.04 1190.42 1547.07 L1211.3 1547.04 Z" fill="#000000" fill-rule="evenodd" fill-opacity="1" /><path clip-path="url(#clip670)" d="M1256.4 1546.53 L1256.4 1568.04 L1250.55 1568.04 L1250.55 1546.72 Q1250.55 1541.66 1248.57 1539.14 Q1246.6 1536.63 1242.65 1536.63 Q1237.91 1536.63 1235.17 1539.65 Q1232.44 1542.68 1232.44 1547.9 L1232.44 1568.04 L1226.55 1568.04 L1226.55 1532.4 L1232.44 1532.4 L1232.44 1537.93 Q1234.54 1534.72 1237.37 1533.13 Q1240.23 1531.54 1243.96 1531.54 Q1250.1 1531.54 1253.25 1535.36 Q1256.4 1539.14 1256.4 1546.53 Z" fill="#000000" fill-rule="evenodd" fill-opacity="1" /><path clip-path="url(#clip670)" d="M1265.54 1532.4 L1293.36 1532.4 L1293.36 1537.74 L1271.33 1563.37 L1293.36 1563.37 L1293.36 1568.04 L1264.74 1568.04 L1264.74 1562.7 L1286.77 1537.07 L1265.54 1537.07 L1265.54 1532.4 Z" fill="#000000" fill-rule="evenodd" fill-opacity="1" /><path clip-path="url(#clip670)" d="M1318.5 1550.12 Q1311.4 1550.12 1308.67 1551.75 Q1305.93 1553.37 1305.93 1557.29 Q1305.93 1560.4 1307.97 1562.25 Q1310.03 1564.07 1313.57 1564.07 Q1318.44 1564.07 1321.37 1560.63 Q1324.33 1557.16 1324.33 1551.43 L1324.33 1550.12 L1318.5 1550.12 M1330.18 1547.71 L1330.18 1568.04 L1324.33 1568.04 L1324.33 1562.63 Q1322.32 1565.88 1319.33 1567.44 Q1316.34 1568.97 1312.01 1568.97 Q1306.53 1568.97 1303.29 1565.91 Q1300.07 1562.82 1300.07 1557.67 Q1300.07 1551.65 1304.08 1548.6 Q1308.13 1545.54 1316.11 1545.54 L1324.33 1545.54 L1324.33 1544.97 Q1324.33 1540.93 1321.65 1538.73 Q1319.01 1536.5 1314.2 1536.5 Q1311.15 1536.5 1308.25 1537.23 Q1305.36 1537.97 1302.68 1539.43 L1302.68 1534.02 Q1305.9 1532.78 1308.92 1532.17 Q1311.94 1531.54 1314.81 1531.54 Q1322.54 1531.54 1326.36 1535.55 Q1330.18 1539.56 1330.18 1547.71 Z" fill="#000000" fill-rule="evenodd" fill-opacity="1" /><path clip-path="url(#clip670)" d="M1362.42 1518.52 L1375.92 1518.52 L1375.92 1523.07 L1368.28 1523.07 L1368.28 1572.09 L1375.92 1572.09 L1375.92 1576.64 L1362.42 1576.64 L1362.42 1518.52 Z" fill="#000000" fill-rule="evenodd" fill-opacity="1" /><path clip-path="url(#clip670)" d="M1409.05 1537.87 Q1408.07 1537.3 1406.89 1537.04 Q1405.74 1536.76 1404.34 1536.76 Q1399.38 1536.76 1396.7 1540 Q1394.06 1543.22 1394.06 1549.27 L1394.06 1568.04 L1388.17 1568.04 L1388.17 1532.4 L1394.06 1532.4 L1394.06 1537.93 Q1395.91 1534.69 1398.87 1533.13 Q1401.83 1531.54 1406.06 1531.54 Q1406.67 1531.54 1407.4 1531.63 Q1408.13 1531.7 1409.02 1531.85 L1409.05 1537.87 Z" fill="#000000" fill-rule="evenodd" fill-opacity="1" /><path clip-path="url(#clip670)" d="M1431.4 1550.12 Q1424.3 1550.12 1421.56 1551.75 Q1418.82 1553.37 1418.82 1557.29 Q1418.82 1560.4 1420.86 1562.25 Q1422.93 1564.07 1426.46 1564.07 Q1431.33 1564.07 1434.26 1560.63 Q1437.22 1557.16 1437.22 1551.43 L1437.22 1550.12 L1431.4 1550.12 M1443.08 1547.71 L1443.08 1568.04 L1437.22 1568.04 L1437.22 1562.63 Q1435.22 1565.88 1432.22 1567.44 Q1429.23 1568.97 1424.9 1568.97 Q1419.43 1568.97 1416.18 1565.91 Q1412.97 1562.82 1412.97 1557.67 Q1412.97 1551.65 1416.98 1548.6 Q1421.02 1545.54 1429.01 1545.54 L1437.22 1545.54 L1437.22 1544.97 Q1437.22 1540.93 1434.55 1538.73 Q1431.91 1536.5 1427.1 1536.5 Q1424.04 1536.5 1421.15 1537.23 Q1418.25 1537.97 1415.58 1539.43 L1415.58 1534.02 Q1418.79 1532.78 1421.82 1532.17 Q1424.84 1531.54 1427.71 1531.54 Q1435.44 1531.54 1439.26 1535.55 Q1443.08 1539.56 1443.08 1547.71 Z" fill="#000000" fill-rule="evenodd" fill-opacity="1" /><path clip-path="url(#clip670)" d="M1478.6 1537.81 L1478.6 1518.52 L1484.46 1518.52 L1484.46 1568.04 L1478.6 1568.04 L1478.6 1562.7 Q1476.75 1565.88 1473.92 1567.44 Q1471.12 1568.97 1467.17 1568.97 Q1460.71 1568.97 1456.64 1563.81 Q1452.59 1558.65 1452.59 1550.25 Q1452.59 1541.85 1456.64 1536.69 Q1460.71 1531.54 1467.17 1531.54 Q1471.12 1531.54 1473.92 1533.1 Q1476.75 1534.62 1478.6 1537.81 M1458.64 1550.25 Q1458.64 1556.71 1461.28 1560.4 Q1463.96 1564.07 1468.6 1564.07 Q1473.25 1564.07 1475.93 1560.4 Q1478.6 1556.71 1478.6 1550.25 Q1478.6 1543.79 1475.93 1540.13 Q1473.25 1536.44 1468.6 1536.44 Q1463.96 1536.44 1461.28 1540.13 Q1458.64 1543.79 1458.64 1550.25 Z" fill="#000000" fill-rule="evenodd" fill-opacity="1" /><path clip-path="url(#clip670)" d="M1506.93 1520.52 L1512.34 1520.52 L1495.79 1574.09 L1490.38 1574.09 L1506.93 1520.52 Z" fill="#000000" fill-rule="evenodd" fill-opacity="1" /><path clip-path="url(#clip670)" d="M1541.21 1533.45 L1541.21 1538.98 Q1538.72 1537.71 1536.05 1537.07 Q1533.38 1536.44 1530.51 1536.44 Q1526.15 1536.44 1523.95 1537.77 Q1521.79 1539.11 1521.79 1541.79 Q1521.79 1543.82 1523.35 1545 Q1524.91 1546.15 1529.62 1547.2 L1531.63 1547.64 Q1537.86 1548.98 1540.47 1551.43 Q1543.12 1553.85 1543.12 1558.21 Q1543.12 1563.17 1539.17 1566.07 Q1535.25 1568.97 1528.38 1568.97 Q1525.51 1568.97 1522.39 1568.39 Q1519.31 1567.85 1515.87 1566.74 L1515.87 1560.69 Q1519.12 1562.38 1522.27 1563.24 Q1525.42 1564.07 1528.51 1564.07 Q1532.64 1564.07 1534.87 1562.66 Q1537.1 1561.23 1537.1 1558.65 Q1537.1 1556.27 1535.48 1554.99 Q1533.88 1553.72 1528.44 1552.54 L1526.41 1552.07 Q1520.96 1550.92 1518.54 1548.56 Q1516.12 1546.18 1516.12 1542.04 Q1516.12 1537.01 1519.69 1534.27 Q1523.25 1531.54 1529.81 1531.54 Q1533.06 1531.54 1535.92 1532.01 Q1538.79 1532.49 1541.21 1533.45 Z" fill="#000000" fill-rule="evenodd" fill-opacity="1" /><path clip-path="url(#clip670)" d="M1566.13 1518.52 L1566.13 1576.64 L1552.63 1576.64 L1552.63 1572.09 L1560.24 1572.09 L1560.24 1523.07 L1552.63 1523.07 L1552.63 1518.52 L1566.13 1518.52 Z" fill="#000000" fill-rule="evenodd" fill-opacity="1" /><polyline clip-path="url(#clip672)" style="stroke:#000000; stroke-linecap:butt; stroke-linejoin:round; stroke-width:2; stroke-opacity:0.1; fill:none" points="
  219.38,1408.3 2352.76,1408.3 
  "/>
<polyline clip-path="url(#clip672)" style="stroke:#000000; stroke-linecap:butt; stroke-linejoin:round; stroke-width:2; stroke-opacity:0.1; fill:none" points="
  219.38,1152.75 2352.76,1152.75 
  "/>
<polyline clip-path="url(#clip672)" style="stroke:#000000; stroke-linecap:butt; stroke-linejoin:round; stroke-width:2; stroke-opacity:0.1; fill:none" points="
  219.38,897.191 2352.76,897.191 
  "/>
<polyline clip-path="url(#clip672)" style="stroke:#000000; stroke-linecap:butt; stroke-linejoin:round; stroke-width:2; stroke-opacity:0.1; fill:none" points="
  219.38,641.637 2352.76,641.637 
  "/>
<polyline clip-path="url(#clip672)" style="stroke:#000000; stroke-linecap:butt; stroke-linejoin:round; stroke-width:2; stroke-opacity:0.1; fill:none" points="
  219.38,386.083 2352.76,386.083 
  "/>
<polyline clip-path="url(#clip672)" style="stroke:#000000; stroke-linecap:butt; stroke-linejoin:round; stroke-width:2; stroke-opacity:0.1; fill:none" points="
  219.38,130.529 2352.76,130.529 
  "/>
<polyline clip-path="url(#clip670)" style="stroke:#000000; stroke-linecap:butt; stroke-linejoin:round; stroke-width:4; stroke-opacity:1; fill:none" points="
  219.38,1423.18 219.38,47.2441 
  "/>
<polyline clip-path="url(#clip670)" style="stroke:#000000; stroke-linecap:butt; stroke-linejoin:round; stroke-width:4; stroke-opacity:1; fill:none" points="
  219.38,1408.3 238.278,1408.3 
  "/>
<polyline clip-path="url(#clip670)" style="stroke:#000000; stroke-linecap:butt; stroke-linejoin:round; stroke-width:4; stroke-opacity:1; fill:none" points="
  219.38,1152.75 238.278,1152.75 
  "/>
<polyline clip-path="url(#clip670)" style="stroke:#000000; stroke-linecap:butt; stroke-linejoin:round; stroke-width:4; stroke-opacity:1; fill:none" points="
  219.38,897.191 238.278,897.191 
  "/>
<polyline clip-path="url(#clip670)" style="stroke:#000000; stroke-linecap:butt; stroke-linejoin:round; stroke-width:4; stroke-opacity:1; fill:none" points="
  219.38,641.637 238.278,641.637 
  "/>
<polyline clip-path="url(#clip670)" style="stroke:#000000; stroke-linecap:butt; stroke-linejoin:round; stroke-width:4; stroke-opacity:1; fill:none" points="
  219.38,386.083 238.278,386.083 
  "/>
<polyline clip-path="url(#clip670)" style="stroke:#000000; stroke-linecap:butt; stroke-linejoin:round; stroke-width:4; stroke-opacity:1; fill:none" points="
  219.38,130.529 238.278,130.529 
  "/>
<path clip-path="url(#clip670)" d="M126.205 1394.1 Q122.593 1394.1 120.765 1397.66 Q118.959 1401.2 118.959 1408.33 Q118.959 1415.44 120.765 1419.01 Q122.593 1422.55 126.205 1422.55 Q129.839 1422.55 131.644 1419.01 Q133.473 1415.44 133.473 1408.33 Q133.473 1401.2 131.644 1397.66 Q129.839 1394.1 126.205 1394.1 M126.205 1390.39 Q132.015 1390.39 135.07 1395 Q138.149 1399.58 138.149 1408.33 Q138.149 1417.06 135.07 1421.67 Q132.015 1426.25 126.205 1426.25 Q120.394 1426.25 117.316 1421.67 Q114.26 1417.06 114.26 1408.33 Q114.26 1399.58 117.316 1395 Q120.394 1390.39 126.205 1390.39 Z" fill="#000000" fill-rule="evenodd" fill-opacity="1" /><path clip-path="url(#clip670)" d="M146.366 1419.7 L151.251 1419.7 L151.251 1425.58 L146.366 1425.58 L146.366 1419.7 Z" fill="#000000" fill-rule="evenodd" fill-opacity="1" /><path clip-path="url(#clip670)" d="M171.436 1394.1 Q167.825 1394.1 165.996 1397.66 Q164.19 1401.2 164.19 1408.33 Q164.19 1415.44 165.996 1419.01 Q167.825 1422.55 171.436 1422.55 Q175.07 1422.55 176.876 1419.01 Q178.704 1415.44 178.704 1408.33 Q178.704 1401.2 176.876 1397.66 Q175.07 1394.1 171.436 1394.1 M171.436 1390.39 Q177.246 1390.39 180.301 1395 Q183.38 1399.58 183.38 1408.33 Q183.38 1417.06 180.301 1421.67 Q177.246 1426.25 171.436 1426.25 Q165.626 1426.25 162.547 1421.67 Q159.491 1417.06 159.491 1408.33 Q159.491 1399.58 162.547 1395 Q165.626 1390.39 171.436 1390.39 Z" fill="#000000" fill-rule="evenodd" fill-opacity="1" /><path clip-path="url(#clip670)" d="M127.2 1138.54 Q123.589 1138.54 121.76 1142.11 Q119.955 1145.65 119.955 1152.78 Q119.955 1159.89 121.76 1163.45 Q123.589 1166.99 127.2 1166.99 Q130.834 1166.99 132.64 1163.45 Q134.468 1159.89 134.468 1152.78 Q134.468 1145.65 132.64 1142.11 Q130.834 1138.54 127.2 1138.54 M127.2 1134.84 Q133.01 1134.84 136.066 1139.45 Q139.144 1144.03 139.144 1152.78 Q139.144 1161.51 136.066 1166.11 Q133.01 1170.7 127.2 1170.7 Q121.39 1170.7 118.311 1166.11 Q115.256 1161.51 115.256 1152.78 Q115.256 1144.03 118.311 1139.45 Q121.39 1134.84 127.2 1134.84 Z" fill="#000000" fill-rule="evenodd" fill-opacity="1" /><path clip-path="url(#clip670)" d="M147.362 1164.15 L152.246 1164.15 L152.246 1170.03 L147.362 1170.03 L147.362 1164.15 Z" fill="#000000" fill-rule="evenodd" fill-opacity="1" /><path clip-path="url(#clip670)" d="M162.477 1135.47 L180.834 1135.47 L180.834 1139.4 L166.76 1139.4 L166.76 1147.87 Q167.778 1147.53 168.797 1147.36 Q169.815 1147.18 170.834 1147.18 Q176.621 1147.18 180.001 1150.35 Q183.38 1153.52 183.38 1158.94 Q183.38 1164.52 179.908 1167.62 Q176.436 1170.7 170.116 1170.7 Q167.94 1170.7 165.672 1170.33 Q163.427 1169.96 161.019 1169.22 L161.019 1164.52 Q163.102 1165.65 165.325 1166.21 Q167.547 1166.76 170.024 1166.76 Q174.028 1166.76 176.366 1164.65 Q178.704 1162.55 178.704 1158.94 Q178.704 1155.33 176.366 1153.22 Q174.028 1151.11 170.024 1151.11 Q168.149 1151.11 166.274 1151.53 Q164.422 1151.95 162.477 1152.83 L162.477 1135.47 Z" fill="#000000" fill-rule="evenodd" fill-opacity="1" /><path clip-path="url(#clip670)" d="M117.015 910.536 L124.654 910.536 L124.654 884.17 L116.343 885.837 L116.343 881.578 L124.607 879.911 L129.283 879.911 L129.283 910.536 L136.922 910.536 L136.922 914.471 L117.015 914.471 L117.015 910.536 Z" fill="#000000" fill-rule="evenodd" fill-opacity="1" /><path clip-path="url(#clip670)" d="M146.366 908.591 L151.251 908.591 L151.251 914.471 L146.366 914.471 L146.366 908.591 Z" fill="#000000" fill-rule="evenodd" fill-opacity="1" /><path clip-path="url(#clip670)" d="M171.436 882.99 Q167.825 882.99 165.996 886.555 Q164.19 890.096 164.19 897.226 Q164.19 904.332 165.996 907.897 Q167.825 911.439 171.436 911.439 Q175.07 911.439 176.876 907.897 Q178.704 904.332 178.704 897.226 Q178.704 890.096 176.876 886.555 Q175.07 882.99 171.436 882.99 M171.436 879.286 Q177.246 879.286 180.301 883.893 Q183.38 888.476 183.38 897.226 Q183.38 905.953 180.301 910.559 Q177.246 915.142 171.436 915.142 Q165.626 915.142 162.547 910.559 Q159.491 905.953 159.491 897.226 Q159.491 888.476 162.547 883.893 Q165.626 879.286 171.436 879.286 Z" fill="#000000" fill-rule="evenodd" fill-opacity="1" /><path clip-path="url(#clip670)" d="M118.01 654.982 L125.649 654.982 L125.649 628.616 L117.339 630.283 L117.339 626.024 L125.603 624.357 L130.279 624.357 L130.279 654.982 L137.917 654.982 L137.917 658.917 L118.01 658.917 L118.01 654.982 Z" fill="#000000" fill-rule="evenodd" fill-opacity="1" /><path clip-path="url(#clip670)" d="M147.362 653.037 L152.246 653.037 L152.246 658.917 L147.362 658.917 L147.362 653.037 Z" fill="#000000" fill-rule="evenodd" fill-opacity="1" /><path clip-path="url(#clip670)" d="M162.477 624.357 L180.834 624.357 L180.834 628.292 L166.76 628.292 L166.76 636.764 Q167.778 636.417 168.797 636.255 Q169.815 636.07 170.834 636.07 Q176.621 636.07 180.001 639.241 Q183.38 642.412 183.38 647.829 Q183.38 653.408 179.908 656.51 Q176.436 659.588 170.116 659.588 Q167.94 659.588 165.672 659.218 Q163.427 658.848 161.019 658.107 L161.019 653.408 Q163.102 654.542 165.325 655.098 Q167.547 655.653 170.024 655.653 Q174.028 655.653 176.366 653.547 Q178.704 651.44 178.704 647.829 Q178.704 644.218 176.366 642.112 Q174.028 640.005 170.024 640.005 Q168.149 640.005 166.274 640.422 Q164.422 640.838 162.477 641.718 L162.477 624.357 Z" fill="#000000" fill-rule="evenodd" fill-opacity="1" /><path clip-path="url(#clip670)" d="M120.232 399.428 L136.552 399.428 L136.552 403.363 L114.607 403.363 L114.607 399.428 Q117.269 396.673 121.853 392.043 Q126.459 387.391 127.64 386.048 Q129.885 383.525 130.765 381.789 Q131.667 380.03 131.667 378.34 Q131.667 375.585 129.723 373.849 Q127.802 372.113 124.7 372.113 Q122.501 372.113 120.047 372.877 Q117.617 373.641 114.839 375.192 L114.839 370.47 Q117.663 369.335 120.117 368.757 Q122.57 368.178 124.607 368.178 Q129.978 368.178 133.172 370.863 Q136.367 373.548 136.367 378.039 Q136.367 380.169 135.556 382.09 Q134.769 383.988 132.663 386.581 Q132.084 387.252 128.982 390.469 Q125.88 393.664 120.232 399.428 Z" fill="#000000" fill-rule="evenodd" fill-opacity="1" /><path clip-path="url(#clip670)" d="M146.366 397.483 L151.251 397.483 L151.251 403.363 L146.366 403.363 L146.366 397.483 Z" fill="#000000" fill-rule="evenodd" fill-opacity="1" /><path clip-path="url(#clip670)" d="M171.436 371.882 Q167.825 371.882 165.996 375.446 Q164.19 378.988 164.19 386.118 Q164.19 393.224 165.996 396.789 Q167.825 400.33 171.436 400.33 Q175.07 400.33 176.876 396.789 Q178.704 393.224 178.704 386.118 Q178.704 378.988 176.876 375.446 Q175.07 371.882 171.436 371.882 M171.436 368.178 Q177.246 368.178 180.301 372.784 Q183.38 377.368 183.38 386.118 Q183.38 394.844 180.301 399.451 Q177.246 404.034 171.436 404.034 Q165.626 404.034 162.547 399.451 Q159.491 394.844 159.491 386.118 Q159.491 377.368 162.547 372.784 Q165.626 368.178 171.436 368.178 Z" fill="#000000" fill-rule="evenodd" fill-opacity="1" /><path clip-path="url(#clip670)" d="M121.228 143.874 L137.547 143.874 L137.547 147.809 L115.603 147.809 L115.603 143.874 Q118.265 141.119 122.848 136.489 Q127.455 131.837 128.635 130.494 Q130.88 127.971 131.76 126.235 Q132.663 124.476 132.663 122.786 Q132.663 120.031 130.718 118.295 Q128.797 116.559 125.695 116.559 Q123.496 116.559 121.043 117.323 Q118.612 118.087 115.834 119.638 L115.834 114.915 Q118.658 113.781 121.112 113.202 Q123.566 112.624 125.603 112.624 Q130.973 112.624 134.167 115.309 Q137.362 117.994 137.362 122.485 Q137.362 124.614 136.552 126.536 Q135.765 128.434 133.658 131.026 Q133.08 131.698 129.978 134.915 Q126.876 138.11 121.228 143.874 Z" fill="#000000" fill-rule="evenodd" fill-opacity="1" /><path clip-path="url(#clip670)" d="M147.362 141.929 L152.246 141.929 L152.246 147.809 L147.362 147.809 L147.362 141.929 Z" fill="#000000" fill-rule="evenodd" fill-opacity="1" /><path clip-path="url(#clip670)" d="M162.477 113.249 L180.834 113.249 L180.834 117.184 L166.76 117.184 L166.76 125.656 Q167.778 125.309 168.797 125.147 Q169.815 124.962 170.834 124.962 Q176.621 124.962 180.001 128.133 Q183.38 131.304 183.38 136.721 Q183.38 142.3 179.908 145.401 Q176.436 148.48 170.116 148.48 Q167.94 148.48 165.672 148.11 Q163.427 147.739 161.019 146.999 L161.019 142.3 Q163.102 143.434 165.325 143.989 Q167.547 144.545 170.024 144.545 Q174.028 144.545 176.366 142.438 Q178.704 140.332 178.704 136.721 Q178.704 133.11 176.366 131.003 Q174.028 128.897 170.024 128.897 Q168.149 128.897 166.274 129.313 Q164.422 129.73 162.477 130.61 L162.477 113.249 Z" fill="#000000" fill-rule="evenodd" fill-opacity="1" /><path clip-path="url(#clip670)" d="M22.818 868.255 L46.4666 876.976 L46.4666 859.502 L22.818 868.255 M16.4842 871.884 L16.4842 864.595 L64.0042 846.485 L64.0042 853.169 L51.8138 857.497 L51.8138 878.918 L64.0042 883.246 L64.0042 890.026 L16.4842 871.884 Z" fill="#000000" fill-rule="evenodd" fill-opacity="1" /><path clip-path="url(#clip670)" d="M35.1993 812.046 Q31.2526 809.85 29.3747 806.794 Q27.4968 803.739 27.4968 799.601 Q27.4968 794.031 31.4117 791.007 Q35.2948 787.984 42.4881 787.984 L64.0042 787.984 L64.0042 793.872 L42.679 793.872 Q37.5546 793.872 35.072 795.686 Q32.5894 797.5 32.5894 801.224 Q32.5894 805.776 35.6131 808.418 Q38.6368 811.059 43.8567 811.059 L64.0042 811.059 L64.0042 816.948 L42.679 816.948 Q37.5228 816.948 35.072 818.762 Q32.5894 820.576 32.5894 824.364 Q32.5894 828.852 35.6449 831.493 Q38.6686 834.135 43.8567 834.135 L64.0042 834.135 L64.0042 840.023 L28.3562 840.023 L28.3562 834.135 L33.8944 834.135 Q30.616 832.13 29.0564 829.329 Q27.4968 826.528 27.4968 822.677 Q27.4968 818.794 29.4702 816.088 Q31.4436 813.351 35.1993 812.046 Z" fill="#000000" fill-rule="evenodd" fill-opacity="1" /><path clip-path="url(#clip670)" d="M58.657 770.637 L77.5631 770.637 L77.5631 776.525 L28.3562 776.525 L28.3562 770.637 L33.7671 770.637 Q30.5842 768.791 29.0564 765.99 Q27.4968 763.157 27.4968 759.243 Q27.4968 752.749 32.6531 748.707 Q37.8093 744.633 46.212 744.633 Q54.6147 744.633 59.771 748.707 Q64.9272 752.749 64.9272 759.243 Q64.9272 763.157 63.3994 765.99 Q61.8398 768.791 58.657 770.637 M46.212 750.712 Q39.7508 750.712 36.0905 753.386 Q32.3984 756.028 32.3984 760.675 Q32.3984 765.322 36.0905 767.995 Q39.7508 770.637 46.212 770.637 Q52.6732 770.637 56.3653 767.995 Q60.0256 765.322 60.0256 760.675 Q60.0256 756.028 56.3653 753.386 Q52.6732 750.712 46.212 750.712 Z" fill="#000000" fill-rule="evenodd" fill-opacity="1" /><path clip-path="url(#clip670)" d="M28.3562 734.926 L28.3562 729.069 L64.0042 729.069 L64.0042 734.926 L28.3562 734.926 M14.479 734.926 L14.479 729.069 L21.895 729.069 L21.895 734.926 L14.479 734.926 Z" fill="#000000" fill-rule="evenodd" fill-opacity="1" /><path clip-path="url(#clip670)" d="M44.7161 686.323 L47.5806 686.323 L47.5806 713.25 Q53.6281 712.868 56.8109 709.622 Q59.9619 706.343 59.9619 700.519 Q59.9619 697.145 59.1344 693.994 Q58.3069 690.811 56.6518 687.692 L62.1899 687.692 Q63.5267 690.843 64.227 694.153 Q64.9272 697.463 64.9272 700.869 Q64.9272 709.399 59.9619 714.396 Q54.9967 719.361 46.5303 719.361 Q37.7774 719.361 32.6531 714.651 Q27.4968 709.908 27.4968 701.887 Q27.4968 694.694 32.1438 690.525 Q36.7589 686.323 44.7161 686.323 M42.9973 692.18 Q38.1912 692.243 35.3266 694.885 Q32.4621 697.495 32.4621 701.824 Q32.4621 706.725 35.2312 709.685 Q38.0002 712.614 43.0292 713.059 L42.9973 692.18 Z" fill="#000000" fill-rule="evenodd" fill-opacity="1" /><path clip-path="url(#clip670)" d="M28.3562 679.257 L28.3562 651.439 L33.7034 651.439 L59.3254 673.465 L59.3254 651.439 L64.0042 651.439 L64.0042 680.053 L58.657 680.053 L33.035 658.028 L33.035 679.257 L28.3562 679.257 Z" fill="#000000" fill-rule="evenodd" fill-opacity="1" /><path clip-path="url(#clip670)" d="M28.3562 645.042 L28.3562 617.224 L33.7034 617.224 L59.3254 639.249 L59.3254 617.224 L64.0042 617.224 L64.0042 645.837 L58.657 645.837 L33.035 623.812 L33.035 645.042 L28.3562 645.042 Z" fill="#000000" fill-rule="evenodd" fill-opacity="1" /><path clip-path="url(#clip670)" d="M46.0847 592.079 Q46.0847 599.177 47.7079 601.914 Q49.3312 604.651 53.2461 604.651 Q56.3653 604.651 58.2114 602.614 Q60.0256 600.545 60.0256 597.012 Q60.0256 592.143 56.5881 589.214 Q53.1188 586.254 47.3897 586.254 L46.0847 586.254 L46.0847 592.079 M43.6657 580.398 L64.0042 580.398 L64.0042 586.254 L58.5933 586.254 Q61.8398 588.26 63.3994 591.252 Q64.9272 594.243 64.9272 598.572 Q64.9272 604.047 61.8716 607.293 Q58.7843 610.508 53.6281 610.508 Q47.6125 610.508 44.5569 606.497 Q41.5014 602.455 41.5014 594.466 L41.5014 586.254 L40.9285 586.254 Q36.8862 586.254 34.6901 588.928 Q32.4621 591.57 32.4621 596.376 Q32.4621 599.431 33.1941 602.328 Q33.9262 605.224 35.3903 607.898 L29.9795 607.898 Q28.7381 604.683 28.1334 601.659 Q27.4968 598.636 27.4968 595.771 Q27.4968 588.037 31.5072 584.217 Q35.5176 580.398 43.6657 580.398 Z" fill="#000000" fill-rule="evenodd" fill-opacity="1" /><polyline clip-path="url(#clip672)" style="stroke:#009af9; stroke-linecap:butt; stroke-linejoin:round; stroke-width:4; stroke-opacity:1; fill:none" points="
  279.759,1381.12 380.39,1378.07 481.021,1374.64 581.652,1370.18 682.282,1363.77 782.913,1354.58 883.544,1341.24 984.175,1319.36 1084.81,1273.8 1185.44,1127.22 
  1286.07,86.1857 1386.7,1179.81 1487.33,1289.07 1587.96,1327.47 1688.59,1346.91 1789.22,1359.22 1889.85,1367.85 1990.48,1373.77 2091.12,1377.9 2191.75,1381.25 
  2292.38,1384.24 
  "/>
<circle clip-path="url(#clip672)" cx="279.759" cy="1381.12" r="14" fill="#e26f46" fill-rule="evenodd" fill-opacity="1" stroke="#000000" stroke-opacity="1" stroke-width="3.2"/>
<circle clip-path="url(#clip672)" cx="380.39" cy="1378.07" r="14" fill="#e26f46" fill-rule="evenodd" fill-opacity="1" stroke="#000000" stroke-opacity="1" stroke-width="3.2"/>
<circle clip-path="url(#clip672)" cx="481.021" cy="1374.64" r="14" fill="#e26f46" fill-rule="evenodd" fill-opacity="1" stroke="#000000" stroke-opacity="1" stroke-width="3.2"/>
<circle clip-path="url(#clip672)" cx="581.652" cy="1370.18" r="14" fill="#e26f46" fill-rule="evenodd" fill-opacity="1" stroke="#000000" stroke-opacity="1" stroke-width="3.2"/>
<circle clip-path="url(#clip672)" cx="682.282" cy="1363.77" r="14" fill="#e26f46" fill-rule="evenodd" fill-opacity="1" stroke="#000000" stroke-opacity="1" stroke-width="3.2"/>
<circle clip-path="url(#clip672)" cx="782.913" cy="1354.58" r="14" fill="#e26f46" fill-rule="evenodd" fill-opacity="1" stroke="#000000" stroke-opacity="1" stroke-width="3.2"/>
<circle clip-path="url(#clip672)" cx="883.544" cy="1341.24" r="14" fill="#e26f46" fill-rule="evenodd" fill-opacity="1" stroke="#000000" stroke-opacity="1" stroke-width="3.2"/>
<circle clip-path="url(#clip672)" cx="984.175" cy="1319.36" r="14" fill="#e26f46" fill-rule="evenodd" fill-opacity="1" stroke="#000000" stroke-opacity="1" stroke-width="3.2"/>
<circle clip-path="url(#clip672)" cx="1084.81" cy="1273.8" r="14" fill="#e26f46" fill-rule="evenodd" fill-opacity="1" stroke="#000000" stroke-opacity="1" stroke-width="3.2"/>
<circle clip-path="url(#clip672)" cx="1185.44" cy="1127.22" r="14" fill="#e26f46" fill-rule="evenodd" fill-opacity="1" stroke="#000000" stroke-opacity="1" stroke-width="3.2"/>
<circle clip-path="url(#clip672)" cx="1286.07" cy="86.1857" r="14" fill="#e26f46" fill-rule="evenodd" fill-opacity="1" stroke="#000000" stroke-opacity="1" stroke-width="3.2"/>
<circle clip-path="url(#clip672)" cx="1386.7" cy="1179.81" r="14" fill="#e26f46" fill-rule="evenodd" fill-opacity="1" stroke="#000000" stroke-opacity="1" stroke-width="3.2"/>
<circle clip-path="url(#clip672)" cx="1487.33" cy="1289.07" r="14" fill="#e26f46" fill-rule="evenodd" fill-opacity="1" stroke="#000000" stroke-opacity="1" stroke-width="3.2"/>
<circle clip-path="url(#clip672)" cx="1587.96" cy="1327.47" r="14" fill="#e26f46" fill-rule="evenodd" fill-opacity="1" stroke="#000000" stroke-opacity="1" stroke-width="3.2"/>
<circle clip-path="url(#clip672)" cx="1688.59" cy="1346.91" r="14" fill="#e26f46" fill-rule="evenodd" fill-opacity="1" stroke="#000000" stroke-opacity="1" stroke-width="3.2"/>
<circle clip-path="url(#clip672)" cx="1789.22" cy="1359.22" r="14" fill="#e26f46" fill-rule="evenodd" fill-opacity="1" stroke="#000000" stroke-opacity="1" stroke-width="3.2"/>
<circle clip-path="url(#clip672)" cx="1889.85" cy="1367.85" r="14" fill="#e26f46" fill-rule="evenodd" fill-opacity="1" stroke="#000000" stroke-opacity="1" stroke-width="3.2"/>
<circle clip-path="url(#clip672)" cx="1990.48" cy="1373.77" r="14" fill="#e26f46" fill-rule="evenodd" fill-opacity="1" stroke="#000000" stroke-opacity="1" stroke-width="3.2"/>
<circle clip-path="url(#clip672)" cx="2091.12" cy="1377.9" r="14" fill="#e26f46" fill-rule="evenodd" fill-opacity="1" stroke="#000000" stroke-opacity="1" stroke-width="3.2"/>
<circle clip-path="url(#clip672)" cx="2191.75" cy="1381.25" r="14" fill="#e26f46" fill-rule="evenodd" fill-opacity="1" stroke="#000000" stroke-opacity="1" stroke-width="3.2"/>
<circle clip-path="url(#clip672)" cx="2292.38" cy="1384.24" r="14" fill="#e26f46" fill-rule="evenodd" fill-opacity="1" stroke="#000000" stroke-opacity="1" stroke-width="3.2"/>
</svg>
