<?xml version="1.0" encoding="utf-8"?>
<svg xmlns="http://www.w3.org/2000/svg" xmlns:xlink="http://www.w3.org/1999/xlink" width="600" height="400" viewBox="0 0 2400 1600">
<defs>
  <clipPath id="clip720">
    <rect x="0" y="0" width="2400" height="1600"/>
  </clipPath>
</defs>
<path clip-path="url(#clip720)" d="
M0 1600 L2400 1600 L2400 0 L0 0  Z
  " fill="#ffffff" fill-rule="evenodd" fill-opacity="1"/>
<defs>
  <clipPath id="clip721">
    <rect x="480" y="0" width="1681" height="1600"/>
  </clipPath>
</defs>
<path clip-path="url(#clip720)" d="
M211.325 1423.18 L2352.76 1423.18 L2352.76 47.2441 L211.325 47.2441  Z
  " fill="#ffffff" fill-rule="evenodd" fill-opacity="1"/>
<defs>
  <clipPath id="clip722">
    <rect x="211" y="47" width="2142" height="1377"/>
  </clipPath>
</defs>
<polyline clip-path="url(#clip722)" style="stroke:#000000; stroke-linecap:round; stroke-linejoin:round; stroke-width:2; stroke-opacity:0.1; fill:none" points="
  271.931,1423.18 271.931,47.2441 
  "/>
<polyline clip-path="url(#clip722)" style="stroke:#000000; stroke-linecap:round; stroke-linejoin:round; stroke-width:2; stroke-opacity:0.1; fill:none" points="
  945.337,1423.18 945.337,47.2441 
  "/>
<polyline clip-path="url(#clip722)" style="stroke:#000000; stroke-linecap:round; stroke-linejoin:round; stroke-width:2; stroke-opacity:0.1; fill:none" points="
  1618.74,1423.18 1618.74,47.2441 
  "/>
<polyline clip-path="url(#clip722)" style="stroke:#000000; stroke-linecap:round; stroke-linejoin:round; stroke-width:2; stroke-opacity:0.1; fill:none" points="
  2292.15,1423.18 2292.15,47.2441 
  "/>
<polyline clip-path="url(#clip720)" style="stroke:#000000; stroke-linecap:round; stroke-linejoin:round; stroke-width:4; stroke-opacity:1; fill:none" points="
  211.325,1423.18 2352.76,1423.18 
  "/>
<polyline clip-path="url(#clip720)" style="stroke:#000000; stroke-linecap:round; stroke-linejoin:round; stroke-width:4; stroke-opacity:1; fill:none" points="
  271.931,1423.18 271.931,1404.28 
  "/>
<polyline clip-path="url(#clip720)" style="stroke:#000000; stroke-linecap:round; stroke-linejoin:round; stroke-width:4; stroke-opacity:1; fill:none" points="
  945.337,1423.18 945.337,1404.28 
  "/>
<polyline clip-path="url(#clip720)" style="stroke:#000000; stroke-linecap:round; stroke-linejoin:round; stroke-width:4; stroke-opacity:1; fill:none" points="
  1618.74,1423.18 1618.74,1404.28 
  "/>
<polyline clip-path="url(#clip720)" style="stroke:#000000; stroke-linecap:round; stroke-linejoin:round; stroke-width:4; stroke-opacity:1; fill:none" points="
  2292.15,1423.18 2292.15,1404.28 
  "/>
<path clip-path="url(#clip720)" d="M271.931 1454.1 Q268.32 1454.1 266.491 1457.66 Q264.686 1461.2 264.686 1468.33 Q264.686 1475.44 266.491 1479.01 Q268.32 1482.55 271.931 1482.55 Q275.565 1482.55 277.371 1479.01 Q279.2 1475.44 279.2 1468.33 Q279.2 1461.2 277.371 1457.66 Q275.565 1454.1 271.931 1454.1 M271.931 1450.39 Q277.741 1450.39 280.797 1455 Q283.876 1459.58 283.876 1468.33 Q283.876 1477.06 280.797 1481.67 Q277.741 1486.25 271.931 1486.25 Q266.121 1486.25 263.042 1481.67 Q259.987 1477.06 259.987 1468.33 Q259.987 1459.58 263.042 1455 Q266.121 1450.39 271.931 1450.39 Z" fill="#000000" fill-rule="evenodd" fill-opacity="1" /><path clip-path="url(#clip720)" d="M935.719 1481.64 L943.358 1481.64 L943.358 1455.28 L935.048 1456.95 L935.048 1452.69 L943.312 1451.02 L947.988 1451.02 L947.988 1481.64 L955.627 1481.64 L955.627 1485.58 L935.719 1485.58 L935.719 1481.64 Z" fill="#000000" fill-rule="evenodd" fill-opacity="1" /><path clip-path="url(#clip720)" d="M1613.4 1481.64 L1629.72 1481.64 L1629.72 1485.58 L1607.77 1485.58 L1607.77 1481.64 Q1610.43 1478.89 1615.02 1474.26 Q1619.62 1469.61 1620.8 1468.27 Q1623.05 1465.74 1623.93 1464.01 Q1624.83 1462.25 1624.83 1460.56 Q1624.83 1457.8 1622.89 1456.07 Q1620.97 1454.33 1617.86 1454.33 Q1615.66 1454.33 1613.21 1455.09 Q1610.78 1455.86 1608 1457.41 L1608 1452.69 Q1610.83 1451.55 1613.28 1450.97 Q1615.73 1450.39 1617.77 1450.39 Q1623.14 1450.39 1626.34 1453.08 Q1629.53 1455.77 1629.53 1460.26 Q1629.53 1462.39 1628.72 1464.31 Q1627.93 1466.2 1625.83 1468.8 Q1625.25 1469.47 1622.15 1472.69 Q1619.04 1475.88 1613.4 1481.64 Z" fill="#000000" fill-rule="evenodd" fill-opacity="1" /><path clip-path="url(#clip720)" d="M2296.4 1466.95 Q2299.75 1467.66 2301.63 1469.93 Q2303.53 1472.2 2303.53 1475.53 Q2303.53 1480.65 2300.01 1483.45 Q2296.49 1486.25 2290.01 1486.25 Q2287.83 1486.25 2285.52 1485.81 Q2283.23 1485.39 2280.77 1484.54 L2280.77 1480.02 Q2282.72 1481.16 2285.03 1481.74 Q2287.35 1482.32 2289.87 1482.32 Q2294.27 1482.32 2296.56 1480.58 Q2298.87 1478.84 2298.87 1475.53 Q2298.87 1472.48 2296.72 1470.77 Q2294.59 1469.03 2290.77 1469.03 L2286.74 1469.03 L2286.74 1465.19 L2290.96 1465.19 Q2294.41 1465.19 2296.23 1463.82 Q2298.06 1462.43 2298.06 1459.84 Q2298.06 1457.18 2296.17 1455.77 Q2294.29 1454.33 2290.77 1454.33 Q2288.85 1454.33 2286.65 1454.75 Q2284.45 1455.16 2281.81 1456.04 L2281.81 1451.88 Q2284.48 1451.14 2286.79 1450.77 Q2289.13 1450.39 2291.19 1450.39 Q2296.51 1450.39 2299.61 1452.83 Q2302.72 1455.23 2302.72 1459.35 Q2302.72 1462.22 2301.07 1464.21 Q2299.43 1466.18 2296.4 1466.95 Z" fill="#000000" fill-rule="evenodd" fill-opacity="1" /><path clip-path="url(#clip720)" d="M1125.17 1520.52 L1165.37 1520.52 L1165.37 1525.93 L1148.5 1525.93 L1148.5 1568.04 L1142.04 1568.04 L1142.04 1525.93 L1125.17 1525.93 L1125.17 1520.52 Z" fill="#000000" fill-rule="evenodd" fill-opacity="1" /><path clip-path="url(#clip720)" d="M1190.74 1548.76 L1190.74 1551.62 L1163.81 1551.62 Q1164.2 1557.67 1167.44 1560.85 Q1170.72 1564 1176.54 1564 Q1179.92 1564 1183.07 1563.17 Q1186.25 1562.35 1189.37 1560.69 L1189.37 1566.23 Q1186.22 1567.57 1182.91 1568.27 Q1179.6 1568.97 1176.19 1568.97 Q1167.66 1568.97 1162.67 1564 Q1157.7 1559.04 1157.7 1550.57 Q1157.7 1541.82 1162.41 1536.69 Q1167.16 1531.54 1175.18 1531.54 Q1182.37 1531.54 1186.54 1536.18 Q1190.74 1540.8 1190.74 1548.76 M1184.88 1547.04 Q1184.82 1542.23 1182.18 1539.37 Q1179.57 1536.5 1175.24 1536.5 Q1170.34 1536.5 1167.38 1539.27 Q1164.45 1542.04 1164 1547.07 L1184.88 1547.04 Z" fill="#000000" fill-rule="evenodd" fill-opacity="1" /><path clip-path="url(#clip720)" d="M1228.11 1539.24 Q1230.3 1535.29 1233.36 1533.41 Q1236.41 1531.54 1240.55 1531.54 Q1246.12 1531.54 1249.15 1535.45 Q1252.17 1539.33 1252.17 1546.53 L1252.17 1568.04 L1246.28 1568.04 L1246.28 1546.72 Q1246.28 1541.59 1244.47 1539.11 Q1242.65 1536.63 1238.93 1536.63 Q1234.38 1536.63 1231.74 1539.65 Q1229.09 1542.68 1229.09 1547.9 L1229.09 1568.04 L1223.21 1568.04 L1223.21 1546.72 Q1223.21 1541.56 1221.39 1539.11 Q1219.58 1536.63 1215.79 1536.63 Q1211.3 1536.63 1208.66 1539.68 Q1206.02 1542.71 1206.02 1547.9 L1206.02 1568.04 L1200.13 1568.04 L1200.13 1532.4 L1206.02 1532.4 L1206.02 1537.93 Q1208.02 1534.66 1210.82 1533.1 Q1213.62 1531.54 1217.48 1531.54 Q1221.36 1531.54 1224.06 1533.51 Q1226.8 1535.48 1228.11 1539.24 Z" fill="#000000" fill-rule="evenodd" fill-opacity="1" /><path clip-path="url(#clip720)" d="M1269.52 1562.7 L1269.52 1581.6 L1263.63 1581.6 L1263.63 1532.4 L1269.52 1532.4 L1269.52 1537.81 Q1271.36 1534.62 1274.16 1533.1 Q1277 1531.54 1280.91 1531.54 Q1287.4 1531.54 1291.45 1536.69 Q1295.52 1541.85 1295.52 1550.25 Q1295.52 1558.65 1291.45 1563.81 Q1287.4 1568.97 1280.91 1568.97 Q1277 1568.97 1274.16 1567.44 Q1271.36 1565.88 1269.52 1562.7 M1289.44 1550.25 Q1289.44 1543.79 1286.77 1540.13 Q1284.13 1536.44 1279.48 1536.44 Q1274.83 1536.44 1272.16 1540.13 Q1269.52 1543.79 1269.52 1550.25 Q1269.52 1556.71 1272.16 1560.4 Q1274.83 1564.07 1279.48 1564.07 Q1284.13 1564.07 1286.77 1560.4 Q1289.44 1556.71 1289.44 1550.25 Z" fill="#000000" fill-rule="evenodd" fill-opacity="1" /><path clip-path="url(#clip720)" d="M1319.04 1536.5 Q1314.33 1536.5 1311.59 1540.19 Q1308.86 1543.85 1308.86 1550.25 Q1308.86 1556.65 1311.56 1560.34 Q1314.3 1564 1319.04 1564 Q1323.72 1564 1326.46 1560.31 Q1329.19 1556.62 1329.19 1550.25 Q1329.19 1543.92 1326.46 1540.23 Q1323.72 1536.5 1319.04 1536.5 M1319.04 1531.54 Q1326.68 1531.54 1331.04 1536.5 Q1335.4 1541.47 1335.4 1550.25 Q1335.4 1559 1331.04 1564 Q1326.68 1568.97 1319.04 1568.97 Q1311.37 1568.97 1307.01 1564 Q1302.68 1559 1302.68 1550.25 Q1302.68 1541.47 1307.01 1536.5 Q1311.37 1531.54 1319.04 1531.54 Z" fill="#000000" fill-rule="evenodd" fill-opacity="1" /><path clip-path="url(#clip720)" d="M1365.29 1518.52 L1378.78 1518.52 L1378.78 1523.07 L1371.14 1523.07 L1371.14 1572.09 L1378.78 1572.09 L1378.78 1576.64 L1365.29 1576.64 L1365.29 1518.52 Z" fill="#000000" fill-rule="evenodd" fill-opacity="1" /><path clip-path="url(#clip720)" d="M1413.99 1533.45 L1413.99 1538.98 Q1411.5 1537.71 1408.83 1537.07 Q1406.16 1536.44 1403.29 1536.44 Q1398.93 1536.44 1396.73 1537.77 Q1394.57 1539.11 1394.57 1541.79 Q1394.57 1543.82 1396.13 1545 Q1397.69 1546.15 1402.4 1547.2 L1404.41 1547.64 Q1410.64 1548.98 1413.25 1551.43 Q1415.9 1553.85 1415.9 1558.21 Q1415.9 1563.17 1411.95 1566.07 Q1408.03 1568.97 1401.16 1568.97 Q1398.29 1568.97 1395.17 1568.39 Q1392.09 1567.85 1388.65 1566.74 L1388.65 1560.69 Q1391.9 1562.38 1395.05 1563.24 Q1398.2 1564.07 1401.29 1564.07 Q1405.42 1564.07 1407.65 1562.66 Q1409.88 1561.23 1409.88 1558.65 Q1409.88 1556.27 1408.26 1554.99 Q1406.66 1553.72 1401.22 1552.54 L1399.19 1552.07 Q1393.74 1550.92 1391.32 1548.56 Q1388.9 1546.18 1388.9 1542.04 Q1388.9 1537.01 1392.47 1534.27 Q1396.03 1531.54 1402.59 1531.54 Q1405.84 1531.54 1408.7 1532.01 Q1411.57 1532.49 1413.99 1533.45 Z" fill="#000000" fill-rule="evenodd" fill-opacity="1" /><path clip-path="url(#clip720)" d="M1438.91 1518.52 L1438.91 1576.64 L1425.41 1576.64 L1425.41 1572.09 L1433.02 1572.09 L1433.02 1523.07 L1425.41 1523.07 L1425.41 1518.52 L1438.91 1518.52 Z" fill="#000000" fill-rule="evenodd" fill-opacity="1" /><polyline clip-path="url(#clip722)" style="stroke:#000000; stroke-linecap:round; stroke-linejoin:round; stroke-width:2; stroke-opacity:0.1; fill:none" points="
  211.325,1356.87 2352.76,1356.87 
  "/>
<polyline clip-path="url(#clip722)" style="stroke:#000000; stroke-linecap:round; stroke-linejoin:round; stroke-width:2; stroke-opacity:0.1; fill:none" points="
  211.325,1149.64 2352.76,1149.64 
  "/>
<polyline clip-path="url(#clip722)" style="stroke:#000000; stroke-linecap:round; stroke-linejoin:round; stroke-width:2; stroke-opacity:0.1; fill:none" points="
  211.325,942.409 2352.76,942.409 
  "/>
<polyline clip-path="url(#clip722)" style="stroke:#000000; stroke-linecap:round; stroke-linejoin:round; stroke-width:2; stroke-opacity:0.1; fill:none" points="
  211.325,735.179 2352.76,735.179 
  "/>
<polyline clip-path="url(#clip722)" style="stroke:#000000; stroke-linecap:round; stroke-linejoin:round; stroke-width:2; stroke-opacity:0.1; fill:none" points="
  211.325,527.95 2352.76,527.95 
  "/>
<polyline clip-path="url(#clip722)" style="stroke:#000000; stroke-linecap:round; stroke-linejoin:round; stroke-width:2; stroke-opacity:0.1; fill:none" points="
  211.325,320.72 2352.76,320.72 
  "/>
<polyline clip-path="url(#clip722)" style="stroke:#000000; stroke-linecap:round; stroke-linejoin:round; stroke-width:2; stroke-opacity:0.1; fill:none" points="
  211.325,113.49 2352.76,113.49 
  "/>
<polyline clip-path="url(#clip720)" style="stroke:#000000; stroke-linecap:round; stroke-linejoin:round; stroke-width:4; stroke-opacity:1; fill:none" points="
  211.325,1423.18 211.325,47.2441 
  "/>
<polyline clip-path="url(#clip720)" style="stroke:#000000; stroke-linecap:round; stroke-linejoin:round; stroke-width:4; stroke-opacity:1; fill:none" points="
  211.325,1356.87 230.222,1356.87 
  "/>
<polyline clip-path="url(#clip720)" style="stroke:#000000; stroke-linecap:round; stroke-linejoin:round; stroke-width:4; stroke-opacity:1; fill:none" points="
  211.325,1149.64 230.222,1149.64 
  "/>
<polyline clip-path="url(#clip720)" style="stroke:#000000; stroke-linecap:round; stroke-linejoin:round; stroke-width:4; stroke-opacity:1; fill:none" points="
  211.325,942.409 230.222,942.409 
  "/>
<polyline clip-path="url(#clip720)" style="stroke:#000000; stroke-linecap:round; stroke-linejoin:round; stroke-width:4; stroke-opacity:1; fill:none" points="
  211.325,735.179 230.222,735.179 
  "/>
<polyline clip-path="url(#clip720)" style="stroke:#000000; stroke-linecap:round; stroke-linejoin:round; stroke-width:4; stroke-opacity:1; fill:none" points="
  211.325,527.95 230.222,527.95 
  "/>
<polyline clip-path="url(#clip720)" style="stroke:#000000; stroke-linecap:round; stroke-linejoin:round; stroke-width:4; stroke-opacity:1; fill:none" points="
  211.325,320.72 230.222,320.72 
  "/>
<polyline clip-path="url(#clip720)" style="stroke:#000000; stroke-linecap:round; stroke-linejoin:round; stroke-width:4; stroke-opacity:1; fill:none" points="
  211.325,113.49 230.222,113.49 
  "/>
<path clip-path="url(#clip720)" d="M114.26 1357.32 L143.936 1357.32 L143.936 1361.26 L114.26 1361.26 L114.26 1357.32 Z" fill="#000000" fill-rule="evenodd" fill-opacity="1" /><path clip-path="url(#clip720)" d="M168.195 1355.51 Q171.552 1356.23 173.427 1358.5 Q175.325 1360.77 175.325 1364.1 Q175.325 1369.22 171.806 1372.02 Q168.288 1374.82 161.806 1374.82 Q159.63 1374.82 157.315 1374.38 Q155.024 1373.96 152.57 1373.11 L152.57 1368.59 Q154.515 1369.73 156.829 1370.31 Q159.144 1370.88 161.667 1370.88 Q166.065 1370.88 168.357 1369.15 Q170.672 1367.41 170.672 1364.1 Q170.672 1361.05 168.519 1359.33 Q166.39 1357.6 162.57 1357.6 L158.542 1357.6 L158.542 1353.76 L162.755 1353.76 Q166.204 1353.76 168.033 1352.39 Q169.862 1351 169.862 1348.41 Q169.862 1345.75 167.964 1344.33 Q166.089 1342.9 162.57 1342.9 Q160.649 1342.9 158.45 1343.32 Q156.251 1343.73 153.612 1344.61 L153.612 1340.45 Q156.274 1339.7 158.589 1339.33 Q160.927 1338.96 162.987 1338.96 Q168.311 1338.96 171.413 1341.39 Q174.514 1343.8 174.514 1347.92 Q174.514 1350.79 172.871 1352.78 Q171.227 1354.75 168.195 1355.51 Z" fill="#000000" fill-rule="evenodd" fill-opacity="1" /><path clip-path="url(#clip720)" d="M115.209 1150.09 L144.885 1150.09 L144.885 1154.03 L115.209 1154.03 L115.209 1150.09 Z" fill="#000000" fill-rule="evenodd" fill-opacity="1" /><path clip-path="url(#clip720)" d="M159.005 1162.98 L175.325 1162.98 L175.325 1166.92 L153.38 1166.92 L153.38 1162.98 Q156.042 1160.23 160.626 1155.6 Q165.232 1150.95 166.413 1149.6 Q168.658 1147.08 169.538 1145.34 Q170.44 1143.59 170.44 1141.9 Q170.44 1139.14 168.496 1137.41 Q166.575 1135.67 163.473 1135.67 Q161.274 1135.67 158.82 1136.43 Q156.39 1137.2 153.612 1138.75 L153.612 1134.03 Q156.436 1132.89 158.89 1132.31 Q161.343 1131.73 163.38 1131.73 Q168.751 1131.73 171.945 1134.42 Q175.139 1137.1 175.139 1141.59 Q175.139 1143.72 174.329 1145.65 Q173.542 1147.54 171.436 1150.14 Q170.857 1150.81 167.755 1154.03 Q164.653 1157.22 159.005 1162.98 Z" fill="#000000" fill-rule="evenodd" fill-opacity="1" /><path clip-path="url(#clip720)" d="M114.839 942.861 L144.515 942.861 L144.515 946.796 L114.839 946.796 L114.839 942.861 Z" fill="#000000" fill-rule="evenodd" fill-opacity="1" /><path clip-path="url(#clip720)" d="M155.417 955.754 L163.056 955.754 L163.056 929.388 L154.746 931.055 L154.746 926.796 L163.01 925.129 L167.686 925.129 L167.686 955.754 L175.325 955.754 L175.325 959.689 L155.417 959.689 L155.417 955.754 Z" fill="#000000" fill-rule="evenodd" fill-opacity="1" /><path clip-path="url(#clip720)" d="M163.38 720.978 Q159.769 720.978 157.94 724.543 Q156.135 728.084 156.135 735.214 Q156.135 742.321 157.94 745.885 Q159.769 749.427 163.38 749.427 Q167.015 749.427 168.82 745.885 Q170.649 742.321 170.649 735.214 Q170.649 728.084 168.82 724.543 Q167.015 720.978 163.38 720.978 M163.38 717.274 Q169.19 717.274 172.246 721.881 Q175.325 726.464 175.325 735.214 Q175.325 743.941 172.246 748.547 Q169.19 753.131 163.38 753.131 Q157.57 753.131 154.491 748.547 Q151.436 743.941 151.436 735.214 Q151.436 726.464 154.491 721.881 Q157.57 717.274 163.38 717.274 Z" fill="#000000" fill-rule="evenodd" fill-opacity="1" /><path clip-path="url(#clip720)" d="M155.417 541.294 L163.056 541.294 L163.056 514.929 L154.746 516.595 L154.746 512.336 L163.01 510.67 L167.686 510.67 L167.686 541.294 L175.325 541.294 L175.325 545.23 L155.417 545.23 L155.417 541.294 Z" fill="#000000" fill-rule="evenodd" fill-opacity="1" /><path clip-path="url(#clip720)" d="M159.005 334.065 L175.325 334.065 L175.325 338 L153.38 338 L153.38 334.065 Q156.042 331.31 160.626 326.68 Q165.232 322.028 166.413 320.685 Q168.658 318.162 169.538 316.426 Q170.44 314.667 170.44 312.977 Q170.44 310.222 168.496 308.486 Q166.575 306.75 163.473 306.75 Q161.274 306.75 158.82 307.514 Q156.39 308.278 153.612 309.829 L153.612 305.106 Q156.436 303.972 158.89 303.394 Q161.343 302.815 163.38 302.815 Q168.751 302.815 171.945 305.5 Q175.139 308.185 175.139 312.676 Q175.139 314.805 174.329 316.727 Q173.542 318.625 171.436 321.217 Q170.857 321.889 167.755 325.106 Q164.653 328.301 159.005 334.065 Z" fill="#000000" fill-rule="evenodd" fill-opacity="1" /><path clip-path="url(#clip720)" d="M168.195 112.136 Q171.552 112.853 173.427 115.122 Q175.325 117.39 175.325 120.724 Q175.325 125.84 171.806 128.64 Q168.288 131.441 161.806 131.441 Q159.63 131.441 157.315 131.002 Q155.024 130.585 152.57 129.728 L152.57 125.215 Q154.515 126.349 156.829 126.927 Q159.144 127.506 161.667 127.506 Q166.065 127.506 168.357 125.77 Q170.672 124.034 170.672 120.724 Q170.672 117.668 168.519 115.955 Q166.39 114.219 162.57 114.219 L158.542 114.219 L158.542 110.377 L162.755 110.377 Q166.204 110.377 168.033 109.011 Q169.862 107.622 169.862 105.029 Q169.862 102.367 167.964 100.955 Q166.089 99.5202 162.57 99.5202 Q160.649 99.5202 158.45 99.9369 Q156.251 100.354 153.612 101.233 L153.612 97.0665 Q156.274 96.3258 158.589 95.9554 Q160.927 95.585 162.987 95.585 Q168.311 95.585 171.413 98.0156 Q174.514 100.423 174.514 104.543 Q174.514 107.414 172.871 109.404 Q171.227 111.372 168.195 112.136 Z" fill="#000000" fill-rule="evenodd" fill-opacity="1" /><path clip-path="url(#clip720)" d="M64.0042 1113.75 L16.4842 1131.89 L16.4842 1125.18 L56.4926 1110.12 L16.4842 1095.03 L16.4842 1088.35 L64.0042 1106.46 L64.0042 1113.75 Z" fill="#000000" fill-rule="evenodd" fill-opacity="1" /><path clip-path="url(#clip720)" d="M44.7161 1056.23 L47.5806 1056.23 L47.5806 1083.16 Q53.6281 1082.78 56.8109 1079.53 Q59.9619 1076.25 59.9619 1070.43 Q59.9619 1067.06 59.1344 1063.91 Q58.3069 1060.72 56.6518 1057.6 L62.1899 1057.6 Q63.5267 1060.75 64.227 1064.06 Q64.9272 1067.37 64.9272 1070.78 Q64.9272 1079.31 59.9619 1084.31 Q54.9967 1089.27 46.5303 1089.27 Q37.7774 1089.27 32.6531 1084.56 Q27.4968 1079.82 27.4968 1071.8 Q27.4968 1064.61 32.1438 1060.44 Q36.7589 1056.23 44.7161 1056.23 M42.9973 1062.09 Q38.1912 1062.15 35.3266 1064.8 Q32.4621 1067.41 32.4621 1071.74 Q32.4621 1076.64 35.2312 1079.6 Q38.0002 1082.52 43.0292 1082.97 L42.9973 1062.09 Z" fill="#000000" fill-rule="evenodd" fill-opacity="1" /><path clip-path="url(#clip720)" d="M14.479 1046.62 L14.479 1040.77 L64.0042 1040.77 L64.0042 1046.62 L14.479 1046.62 Z" fill="#000000" fill-rule="evenodd" fill-opacity="1" /><path clip-path="url(#clip720)" d="M32.4621 1014.7 Q32.4621 1019.41 36.1542 1022.15 Q39.8145 1024.88 46.212 1024.88 Q52.6095 1024.88 56.3017 1022.18 Q59.9619 1019.44 59.9619 1014.7 Q59.9619 1010.02 56.2698 1007.28 Q52.5777 1004.55 46.212 1004.55 Q39.8781 1004.55 36.186 1007.28 Q32.4621 1010.02 32.4621 1014.7 M27.4968 1014.7 Q27.4968 1007.06 32.4621 1002.7 Q37.4273 998.338 46.212 998.338 Q54.9649 998.338 59.9619 1002.7 Q64.9272 1007.06 64.9272 1014.7 Q64.9272 1022.37 59.9619 1026.73 Q54.9649 1031.06 46.212 1031.06 Q37.4273 1031.06 32.4621 1026.73 Q27.4968 1022.37 27.4968 1014.7 Z" fill="#000000" fill-rule="evenodd" fill-opacity="1" /><path clip-path="url(#clip720)" d="M29.7248 962.977 L35.1993 962.977 Q33.8307 965.46 33.1623 967.974 Q32.4621 970.457 32.4621 973.003 Q32.4621 978.7 36.0905 981.851 Q39.6872 985.002 46.212 985.002 Q52.7369 985.002 56.3653 981.851 Q59.9619 978.7 59.9619 973.003 Q59.9619 970.457 59.2935 967.974 Q58.5933 965.46 57.2247 962.977 L62.6355 962.977 Q63.7814 965.428 64.3543 968.07 Q64.9272 970.679 64.9272 973.64 Q64.9272 981.692 59.8664 986.435 Q54.8057 991.177 46.212 991.177 Q37.491 991.177 32.4939 986.403 Q27.4968 981.597 27.4968 973.258 Q27.4968 970.552 28.0697 967.974 Q28.6108 965.396 29.7248 962.977 Z" fill="#000000" fill-rule="evenodd" fill-opacity="1" /><path clip-path="url(#clip720)" d="M28.3562 952.792 L28.3562 946.935 L64.0042 946.935 L64.0042 952.792 L28.3562 952.792 M14.479 952.792 L14.479 946.935 L21.895 946.935 L21.895 952.792 L14.479 952.792 Z" fill="#000000" fill-rule="evenodd" fill-opacity="1" /><path clip-path="url(#clip720)" d="M18.2347 928.889 L28.3562 928.889 L28.3562 916.826 L32.9077 916.826 L32.9077 928.889 L52.2594 928.889 Q56.6199 928.889 57.8613 927.711 Q59.1026 926.501 59.1026 922.841 L59.1026 916.826 L64.0042 916.826 L64.0042 922.841 Q64.0042 929.621 61.4897 932.199 Q58.9434 934.777 52.2594 934.777 L32.9077 934.777 L32.9077 939.074 L28.3562 939.074 L28.3562 934.777 L18.2347 934.777 L18.2347 928.889 Z" fill="#000000" fill-rule="evenodd" fill-opacity="1" /><path clip-path="url(#clip720)" d="M46.0847 892.922 Q46.0847 900.02 47.7079 902.757 Q49.3312 905.495 53.2461 905.495 Q56.3653 905.495 58.2114 903.458 Q60.0256 901.389 60.0256 897.856 Q60.0256 892.986 56.5881 890.058 Q53.1188 887.098 47.3897 887.098 L46.0847 887.098 L46.0847 892.922 M43.6657 881.241 L64.0042 881.241 L64.0042 887.098 L58.5933 887.098 Q61.8398 889.103 63.3994 892.095 Q64.9272 895.087 64.9272 899.415 Q64.9272 904.89 61.8716 908.136 Q58.7843 911.351 53.6281 911.351 Q47.6125 911.351 44.5569 907.341 Q41.5014 903.298 41.5014 895.309 L41.5014 887.098 L40.9285 887.098 Q36.8862 887.098 34.6901 889.771 Q32.4621 892.413 32.4621 897.219 Q32.4621 900.275 33.1941 903.171 Q33.9262 906.068 35.3903 908.741 L29.9795 908.741 Q28.7381 905.526 28.1334 902.503 Q27.4968 899.479 27.4968 896.614 Q27.4968 888.88 31.5072 885.061 Q35.5176 881.241 43.6657 881.241 M11.869 900.975 L23.7729 891.999 L23.7729 896.869 L11.869 907.245 L11.869 900.975 Z" fill="#000000" fill-rule="evenodd" fill-opacity="1" /><path clip-path="url(#clip720)" d="M46.0847 832.257 Q46.0847 839.355 47.7079 842.092 Q49.3312 844.829 53.2461 844.829 Q56.3653 844.829 58.2114 842.792 Q60.0256 840.724 60.0256 837.191 Q60.0256 832.321 56.5881 829.393 Q53.1188 826.433 47.3897 826.433 L46.0847 826.433 L46.0847 832.257 M43.6657 820.576 L64.0042 820.576 L64.0042 826.433 L58.5933 826.433 Q61.8398 828.438 63.3994 831.43 Q64.9272 834.422 64.9272 838.75 Q64.9272 844.225 61.8716 847.471 Q58.7843 850.686 53.6281 850.686 Q47.6125 850.686 44.5569 846.675 Q41.5014 842.633 41.5014 834.644 L41.5014 826.433 L40.9285 826.433 Q36.8862 826.433 34.6901 829.106 Q32.4621 831.748 32.4621 836.554 Q32.4621 839.61 33.1941 842.506 Q33.9262 845.402 35.3903 848.076 L29.9795 848.076 Q28.7381 844.861 28.1334 841.838 Q27.4968 838.814 27.4968 835.949 Q27.4968 828.215 31.5072 824.396 Q35.5176 820.576 43.6657 820.576 Z" fill="#000000" fill-rule="evenodd" fill-opacity="1" /><path clip-path="url(#clip720)" d="M42.4881 778.881 L64.0042 778.881 L64.0042 784.737 L42.679 784.737 Q37.6183 784.737 35.1038 786.711 Q32.5894 788.684 32.5894 792.631 Q32.5894 797.373 35.6131 800.11 Q38.6368 802.848 43.8567 802.848 L64.0042 802.848 L64.0042 808.736 L28.3562 808.736 L28.3562 802.848 L33.8944 802.848 Q30.6797 800.747 29.0883 797.914 Q27.4968 795.05 27.4968 791.326 Q27.4968 785.183 31.3163 782.032 Q35.1038 778.881 42.4881 778.881 Z" fill="#000000" fill-rule="evenodd" fill-opacity="1" /><path clip-path="url(#clip720)" d="M45.7664 743.742 Q39.4007 743.742 35.8996 746.384 Q32.3984 748.994 32.3984 753.736 Q32.3984 758.447 35.8996 761.089 Q39.4007 763.699 45.7664 763.699 Q52.1003 763.699 55.6014 761.089 Q59.1026 758.447 59.1026 753.736 Q59.1026 748.994 55.6014 746.384 Q52.1003 743.742 45.7664 743.742 M59.58 737.886 Q68.683 737.886 73.1071 741.928 Q77.5631 745.97 77.5631 754.309 Q77.5631 757.396 77.0857 760.134 Q76.6401 762.871 75.6852 765.449 L69.9879 765.449 Q71.3884 762.871 72.0568 760.357 Q72.7252 757.842 72.7252 755.232 Q72.7252 749.471 69.7015 746.607 Q66.7096 743.742 60.6303 743.742 L57.7339 743.742 Q60.885 745.556 62.4446 748.389 Q64.0042 751.222 64.0042 755.168 Q64.0042 761.725 59.0071 765.736 Q54.01 769.746 45.7664 769.746 Q37.491 769.746 32.4939 765.736 Q27.4968 761.725 27.4968 755.168 Q27.4968 751.222 29.0564 748.389 Q30.616 745.556 33.7671 743.742 L28.3562 743.742 L28.3562 737.886 L59.58 737.886 Z" fill="#000000" fill-rule="evenodd" fill-opacity="1" /><path clip-path="url(#clip720)" d="M32.4621 712.009 Q32.4621 716.72 36.1542 719.457 Q39.8145 722.194 46.212 722.194 Q52.6095 722.194 56.3017 719.489 Q59.9619 716.751 59.9619 712.009 Q59.9619 707.33 56.2698 704.593 Q52.5777 701.856 46.212 701.856 Q39.8781 701.856 36.186 704.593 Q32.4621 707.33 32.4621 712.009 M27.4968 712.009 Q27.4968 704.37 32.4621 700.01 Q37.4273 695.649 46.212 695.649 Q54.9649 695.649 59.9619 700.01 Q64.9272 704.37 64.9272 712.009 Q64.9272 719.68 59.9619 724.04 Q54.9649 728.369 46.212 728.369 Q37.4273 728.369 32.4621 724.04 Q27.4968 719.68 27.4968 712.009 Z" fill="#000000" fill-rule="evenodd" fill-opacity="1" /><path clip-path="url(#clip720)" d="M14.479 685.941 L14.479 680.085 L64.0042 680.085 L64.0042 685.941 L14.479 685.941 Z" fill="#000000" fill-rule="evenodd" fill-opacity="1" /><path clip-path="url(#clip720)" d="M46.0847 651.63 Q46.0847 658.728 47.7079 661.465 Q49.3312 664.203 53.2461 664.203 Q56.3653 664.203 58.2114 662.165 Q60.0256 660.097 60.0256 656.564 Q60.0256 651.694 56.5881 648.766 Q53.1188 645.806 47.3897 645.806 L46.0847 645.806 L46.0847 651.63 M43.6657 639.949 L64.0042 639.949 L64.0042 645.806 L58.5933 645.806 Q61.8398 647.811 63.3994 650.803 Q64.9272 653.795 64.9272 658.123 Q64.9272 663.598 61.8716 666.844 Q58.7843 670.059 53.6281 670.059 Q47.6125 670.059 44.5569 666.049 Q41.5014 662.006 41.5014 654.017 L41.5014 645.806 L40.9285 645.806 Q36.8862 645.806 34.6901 648.479 Q32.4621 651.121 32.4621 655.927 Q32.4621 658.983 33.1941 661.879 Q33.9262 664.775 35.3903 667.449 L29.9795 667.449 Q28.7381 664.234 28.1334 661.211 Q27.4968 658.187 27.4968 655.322 Q27.4968 647.588 31.5072 643.769 Q35.5176 639.949 43.6657 639.949 Z" fill="#000000" fill-rule="evenodd" fill-opacity="1" /><path clip-path="url(#clip720)" d="M33.8307 607.229 Q33.2578 608.216 33.0032 609.394 Q32.7167 610.54 32.7167 611.94 Q32.7167 616.905 35.9632 619.579 Q39.1779 622.221 45.2253 622.221 L64.0042 622.221 L64.0042 628.109 L28.3562 628.109 L28.3562 622.221 L33.8944 622.221 Q30.6479 620.375 29.0883 617.415 Q27.4968 614.455 27.4968 610.221 Q27.4968 609.617 27.5923 608.885 Q27.656 608.152 27.8151 607.261 L33.8307 607.229 Z" fill="#000000" fill-rule="evenodd" fill-opacity="1" /><path clip-path="url(#clip720)" d="M44.7161 572.027 L47.5806 572.027 L47.5806 598.954 Q53.6281 598.572 56.8109 595.326 Q59.9619 592.047 59.9619 586.223 Q59.9619 582.849 59.1344 579.698 Q58.3069 576.515 56.6518 573.396 L62.1899 573.396 Q63.5267 576.547 64.227 579.857 Q64.9272 583.167 64.9272 586.573 Q64.9272 595.103 59.9619 600.1 Q54.9967 605.065 46.5303 605.065 Q37.7774 605.065 32.6531 600.354 Q27.4968 595.612 27.4968 587.591 Q27.4968 580.398 32.1438 576.228 Q36.7589 572.027 44.7161 572.027 M42.9973 577.884 Q38.1912 577.947 35.3266 580.589 Q32.4621 583.199 32.4621 587.528 Q32.4621 592.429 35.2312 595.389 Q38.0002 598.317 43.0292 598.763 L42.9973 577.884 Z" fill="#000000" fill-rule="evenodd" fill-opacity="1" /><path clip-path="url(#clip720)" d="M14.479 542.236 L14.479 528.74 L19.0304 528.74 L19.0304 536.379 L68.0464 536.379 L68.0464 528.74 L72.5979 528.74 L72.5979 542.236 L14.479 542.236 Z" fill="#000000" fill-rule="evenodd" fill-opacity="1" /><path clip-path="url(#clip720)" d="M33.8307 495.607 Q33.2578 496.593 33.0032 497.771 Q32.7167 498.917 32.7167 500.317 Q32.7167 505.283 35.9632 507.956 Q39.1779 510.598 45.2253 510.598 L64.0042 510.598 L64.0042 516.486 L28.3562 516.486 L28.3562 510.598 L33.8944 510.598 Q30.6479 508.752 29.0883 505.792 Q27.4968 502.832 27.4968 498.599 Q27.4968 497.994 27.5923 497.262 Q27.656 496.53 27.8151 495.639 L33.8307 495.607 Z" fill="#000000" fill-rule="evenodd" fill-opacity="1" /><path clip-path="url(#clip720)" d="M46.0847 473.263 Q46.0847 480.361 47.7079 483.098 Q49.3312 485.835 53.2461 485.835 Q56.3653 485.835 58.2114 483.798 Q60.0256 481.73 60.0256 478.197 Q60.0256 473.327 56.5881 470.399 Q53.1188 467.439 47.3897 467.439 L46.0847 467.439 L46.0847 473.263 M43.6657 461.582 L64.0042 461.582 L64.0042 467.439 L58.5933 467.439 Q61.8398 469.444 63.3994 472.436 Q64.9272 475.427 64.9272 479.756 Q64.9272 485.231 61.8716 488.477 Q58.7843 491.692 53.6281 491.692 Q47.6125 491.692 44.5569 487.681 Q41.5014 483.639 41.5014 475.65 L41.5014 467.439 L40.9285 467.439 Q36.8862 467.439 34.6901 470.112 Q32.4621 472.754 32.4621 477.56 Q32.4621 480.616 33.1941 483.512 Q33.9262 486.408 35.3903 489.082 L29.9795 489.082 Q28.7381 485.867 28.1334 482.844 Q27.4968 479.82 27.4968 476.955 Q27.4968 469.221 31.5072 465.401 Q35.5176 461.582 43.6657 461.582 Z" fill="#000000" fill-rule="evenodd" fill-opacity="1" /><path clip-path="url(#clip720)" d="M33.7671 426.061 L14.479 426.061 L14.479 420.205 L64.0042 420.205 L64.0042 426.061 L58.657 426.061 Q61.8398 427.907 63.3994 430.74 Q64.9272 433.541 64.9272 437.488 Q64.9272 443.949 59.771 448.023 Q54.6147 452.065 46.212 452.065 Q37.8093 452.065 32.6531 448.023 Q27.4968 443.949 27.4968 437.488 Q27.4968 433.541 29.0564 430.74 Q30.5842 427.907 33.7671 426.061 M46.212 446.018 Q52.6732 446.018 56.3653 443.376 Q60.0256 440.703 60.0256 436.056 Q60.0256 431.409 56.3653 428.735 Q52.6732 426.061 46.212 426.061 Q39.7508 426.061 36.0905 428.735 Q32.3984 431.409 32.3984 436.056 Q32.3984 440.703 36.0905 443.376 Q39.7508 446.018 46.212 446.018 Z" fill="#000000" fill-rule="evenodd" fill-opacity="1" /><path clip-path="url(#clip720)" d="M16.4842 397.734 L16.4842 392.323 L70.0516 408.874 L70.0516 414.285 L16.4842 397.734 Z" fill="#000000" fill-rule="evenodd" fill-opacity="1" /><path clip-path="url(#clip720)" d="M29.4065 363.455 L34.9447 363.455 Q33.6716 365.937 33.035 368.611 Q32.3984 371.285 32.3984 374.149 Q32.3984 378.51 33.7352 380.706 Q35.072 382.87 37.7456 382.87 Q39.7826 382.87 40.9603 381.311 Q42.1061 379.751 43.1565 375.04 L43.6021 373.035 Q44.9389 366.797 47.3897 364.187 Q49.8086 361.545 54.1691 361.545 Q59.1344 361.545 62.0308 365.492 Q64.9272 369.407 64.9272 376.282 Q64.9272 379.146 64.3543 382.265 Q63.8132 385.353 62.6992 388.79 L56.6518 388.79 Q58.3387 385.544 59.198 382.393 Q60.0256 379.242 60.0256 376.154 Q60.0256 372.017 58.6251 369.789 Q57.1929 367.561 54.6147 367.561 Q52.2276 367.561 50.9545 369.184 Q49.6813 370.775 48.5037 376.218 L48.0262 378.255 Q46.8804 383.698 44.5251 386.117 Q42.138 388.536 38.0002 388.536 Q32.9713 388.536 30.2341 384.971 Q27.4968 381.406 27.4968 374.849 Q27.4968 371.603 27.9743 368.738 Q28.4517 365.874 29.4065 363.455 Z" fill="#000000" fill-rule="evenodd" fill-opacity="1" /><path clip-path="url(#clip720)" d="M14.479 338.533 L72.5979 338.533 L72.5979 352.028 L68.0464 352.028 L68.0464 344.421 L19.0304 344.421 L19.0304 352.028 L14.479 352.028 L14.479 338.533 Z" fill="#000000" fill-rule="evenodd" fill-opacity="1" /><polyline clip-path="url(#clip722)" style="stroke:#009af9; stroke-linecap:round; stroke-linejoin:round; stroke-width:4; stroke-opacity:1; fill:none" points="
  271.931,735.179 278.665,752.784 285.399,770.379 292.133,787.957 298.867,805.51 305.601,823.027 312.336,840.5 319.07,857.92 325.804,875.278 332.538,892.564 
  339.272,909.769 346.006,926.881 352.74,943.891 359.474,960.788 366.208,977.561 372.942,994.199 379.676,1010.69 386.41,1027.02 393.144,1043.18 399.878,1059.15 
  406.612,1074.93 413.346,1090.49 420.081,1105.83 426.815,1120.92 433.549,1135.76 440.283,1150.33 447.017,1164.61 453.751,1178.59 460.485,1192.24 467.219,1205.57 
  473.953,1218.54 480.687,1231.14 487.421,1243.36 494.155,1255.18 500.889,1266.57 507.623,1277.53 514.357,1288.04 521.091,1298.08 527.825,1307.64 534.56,1316.7 
  541.294,1325.25 548.028,1333.26 554.762,1340.74 561.496,1347.65 568.23,1354 574.964,1359.78 581.698,1364.96 588.432,1369.54 595.166,1373.51 601.9,1376.87 
  608.634,1379.6 615.368,1381.71 622.102,1383.19 628.836,1384.03 635.57,1384.23 642.305,1383.8 649.039,1382.73 655.773,1381.03 662.507,1378.7 669.241,1375.74 
  675.975,1372.17 682.709,1367.97 689.443,1363.18 696.177,1357.79 702.911,1351.81 709.645,1345.25 716.379,1338.14 723.113,1330.47 729.847,1322.26 736.581,1313.53 
  743.315,1304.29 750.049,1294.56 756.784,1284.35 763.518,1273.68 770.252,1262.56 776.986,1251.01 783.72,1239.05 790.454,1226.7 797.188,1213.96 803.922,1200.86 
  810.656,1187.42 817.39,1173.64 824.124,1159.55 830.858,1145.17 837.592,1130.5 844.326,1115.57 851.06,1100.39 857.794,1084.97 864.529,1069.33 871.263,1053.48 
  877.997,1037.44 884.731,1021.22 891.465,1004.83 898.199,988.288 904.933,971.601 911.667,954.782 918.401,937.843 925.135,920.796 931.869,903.649 938.603,886.415 
  945.337,869.102 952.071,851.721 958.805,834.281 965.539,816.791 972.273,799.26 979.008,781.697 985.742,764.112 992.476,746.512 999.21,728.907 1005.94,711.305 
  1012.68,693.715 1019.41,676.145 1026.15,658.604 1032.88,641.101 1039.61,623.646 1046.35,606.247 1053.08,588.913 1059.82,571.655 1066.55,554.482 1073.28,537.405 
  1080.02,520.434 1086.75,503.58 1093.49,486.854 1100.22,470.267 1106.95,453.832 1113.69,437.562 1120.42,421.467 1127.16,405.563 1133.89,389.862 1140.63,374.379 
  1147.36,359.127 1154.09,344.121 1160.83,329.377 1167.56,314.91 1174.3,300.736 1181.03,286.87 1187.76,273.328 1194.5,260.129 1201.23,247.286 1207.97,234.819 
  1214.7,222.743 1221.43,211.075 1228.17,199.831 1234.9,189.029 1241.64,178.684 1248.37,168.813 1255.1,159.431 1261.84,150.553 1268.57,142.195 1275.31,134.371 
  1282.04,127.094 1288.77,120.377 1295.51,114.231 1302.24,108.669 1308.98,103.701 1315.71,99.3354 1322.44,95.581 1329.18,92.4448 1335.91,89.9329 1342.65,88.0501 
  1349.38,86.8003 1356.11,86.1857 1362.85,86.2076 1369.58,86.8659 1376.32,88.1594 1383.05,90.0856 1389.79,92.6406 1396.52,95.8195 1403.25,99.6163 1409.99,104.024 
  1416.72,109.033 1423.46,114.636 1430.19,120.821 1436.92,127.577 1443.66,134.892 1450.39,142.754 1457.13,151.148 1463.86,160.06 1470.59,169.476 1477.33,179.381 
  1484.06,189.757 1490.8,200.591 1497.53,211.864 1504.26,223.561 1511,235.664 1517.73,248.158 1524.47,261.025 1531.2,274.249 1537.93,287.813 1544.67,301.701 
  1551.4,315.896 1558.14,330.383 1564.87,345.145 1571.6,360.168 1578.34,375.437 1585.07,390.936 1591.81,406.651 1598.54,422.569 1605.28,438.675 1612.01,454.958 
  1618.74,471.404 1625.48,488 1632.21,504.735 1638.95,521.598 1645.68,538.577 1652.41,555.661 1659.15,572.84 1665.88,590.103 1672.62,607.442 1679.35,624.845 
  1686.08,642.304 1692.82,659.81 1699.55,677.353 1706.29,694.924 1713.02,712.516 1719.75,730.118 1726.49,747.723 1733.22,765.322 1739.96,782.906 1746.69,800.467 
  1753.42,817.995 1760.16,835.482 1766.89,852.919 1773.63,870.295 1780.36,887.603 1787.09,904.832 1793.83,921.972 1800.56,939.012 1807.3,955.943 1814.03,972.753 
  1820.77,989.431 1827.5,1005.96 1834.23,1022.34 1840.97,1038.55 1847.7,1054.58 1854.44,1070.41 1861.17,1086.04 1867.9,1101.44 1874.64,1116.61 1881.37,1131.52 
  1888.11,1146.17 1894.84,1160.53 1901.57,1174.6 1908.31,1188.35 1915.04,1201.77 1921.78,1214.85 1928.51,1227.56 1935.24,1239.89 1941.98,1251.82 1948.71,1263.34 
  1955.45,1274.43 1962.18,1285.07 1968.91,1295.25 1975.65,1304.95 1982.38,1314.15 1989.12,1322.84 1995.85,1331.01 2002.58,1338.64 2009.32,1345.72 2016.05,1352.24 
  2022.79,1358.18 2029.52,1363.53 2036.26,1368.28 2042.99,1372.43 2049.72,1375.97 2056.46,1378.88 2063.19,1381.17 2069.93,1382.83 2076.66,1383.85 2083.39,1384.24 
  2090.13,1383.99 2096.86,1383.1 2103.6,1381.59 2110.33,1379.43 2117.06,1376.66 2123.8,1373.26 2130.53,1369.24 2137.27,1364.62 2144,1359.4 2150.73,1353.59 
  2157.47,1347.2 2164.2,1340.24 2170.94,1332.73 2177.67,1324.67 2184.4,1316.09 2191.14,1307 2197.87,1297.41 2204.61,1287.33 2211.34,1276.79 2218.07,1265.8 
  2224.81,1254.38 2231.54,1242.53 2238.28,1230.29 2245.01,1217.66 2251.74,1204.66 2258.48,1191.32 2265.21,1177.63 2271.95,1163.63 2278.68,1149.33 2285.42,1134.75 
  2292.15,1119.89 
  "/>
</svg>
