<?xml version="1.0" encoding="utf-8"?>
<svg xmlns="http://www.w3.org/2000/svg" xmlns:xlink="http://www.w3.org/1999/xlink" width="600" height="400" viewBox="0 0 2400 1600">
<defs>
  <clipPath id="clip210">
    <rect x="0" y="0" width="2400" height="1600"/>
  </clipPath>
</defs>
<path clip-path="url(#clip210)" d="M0 1600 L2400 1600 L2400 0 L0 0  Z" fill="#ffffff" fill-rule="evenodd" fill-opacity="1"/>
<defs>
  <clipPath id="clip211">
    <rect x="480" y="0" width="1681" height="1600"/>
  </clipPath>
</defs>
<path clip-path="url(#clip210)" d="M257.204 1423.18 L2352.76 1423.18 L2352.76 47.2441 L257.204 47.2441  Z" fill="#ffffff" fill-rule="evenodd" fill-opacity="1"/>
<defs>
  <clipPath id="clip212">
    <rect x="257" y="47" width="2097" height="1377"/>
  </clipPath>
</defs>
<polyline clip-path="url(#clip212)" style="stroke:#000000; stroke-linecap:round; stroke-linejoin:round; stroke-width:2; stroke-opacity:0.1; fill:none" points="316.512,1423.18 316.512,47.2441 "/>
<polyline clip-path="url(#clip212)" style="stroke:#000000; stroke-linecap:round; stroke-linejoin:round; stroke-width:2; stroke-opacity:0.1; fill:none" points="975.491,1423.18 975.491,47.2441 "/>
<polyline clip-path="url(#clip212)" style="stroke:#000000; stroke-linecap:round; stroke-linejoin:round; stroke-width:2; stroke-opacity:0.1; fill:none" points="1634.47,1423.18 1634.47,47.2441 "/>
<polyline clip-path="url(#clip212)" style="stroke:#000000; stroke-linecap:round; stroke-linejoin:round; stroke-width:2; stroke-opacity:0.1; fill:none" points="2293.45,1423.18 2293.45,47.2441 "/>
<polyline clip-path="url(#clip212)" style="stroke:#000000; stroke-linecap:round; stroke-linejoin:round; stroke-width:2; stroke-opacity:0.1; fill:none" points="257.204,1355.02 2352.76,1355.02 "/>
<polyline clip-path="url(#clip212)" style="stroke:#000000; stroke-linecap:round; stroke-linejoin:round; stroke-width:2; stroke-opacity:0.1; fill:none" points="257.204,1045.12 2352.76,1045.12 "/>
<polyline clip-path="url(#clip212)" style="stroke:#000000; stroke-linecap:round; stroke-linejoin:round; stroke-width:2; stroke-opacity:0.1; fill:none" points="257.204,735.229 2352.76,735.229 "/>
<polyline clip-path="url(#clip212)" style="stroke:#000000; stroke-linecap:round; stroke-linejoin:round; stroke-width:2; stroke-opacity:0.1; fill:none" points="257.204,425.333 2352.76,425.333 "/>
<polyline clip-path="url(#clip212)" style="stroke:#000000; stroke-linecap:round; stroke-linejoin:round; stroke-width:2; stroke-opacity:0.1; fill:none" points="257.204,115.438 2352.76,115.438 "/>
<polyline clip-path="url(#clip210)" style="stroke:#000000; stroke-linecap:round; stroke-linejoin:round; stroke-width:4; stroke-opacity:1; fill:none" points="257.204,1423.18 2352.76,1423.18 "/>
<polyline clip-path="url(#clip210)" style="stroke:#000000; stroke-linecap:round; stroke-linejoin:round; stroke-width:4; stroke-opacity:1; fill:none" points="316.512,1423.18 316.512,1404.28 "/>
<polyline clip-path="url(#clip210)" style="stroke:#000000; stroke-linecap:round; stroke-linejoin:round; stroke-width:4; stroke-opacity:1; fill:none" points="975.491,1423.18 975.491,1404.28 "/>
<polyline clip-path="url(#clip210)" style="stroke:#000000; stroke-linecap:round; stroke-linejoin:round; stroke-width:4; stroke-opacity:1; fill:none" points="1634.47,1423.18 1634.47,1404.28 "/>
<polyline clip-path="url(#clip210)" style="stroke:#000000; stroke-linecap:round; stroke-linejoin:round; stroke-width:4; stroke-opacity:1; fill:none" points="2293.45,1423.18 2293.45,1404.28 "/>
<path clip-path="url(#clip210)" d="M316.512 1454.1 Q312.901 1454.1 311.072 1457.66 Q309.267 1461.2 309.267 1468.33 Q309.267 1475.44 311.072 1479.01 Q312.901 1482.55 316.512 1482.55 Q320.146 1482.55 321.952 1479.01 Q323.781 1475.44 323.781 1468.33 Q323.781 1461.2 321.952 1457.66 Q320.146 1454.1 316.512 1454.1 M316.512 1450.39 Q322.322 1450.39 325.378 1455 Q328.456 1459.58 328.456 1468.33 Q328.456 1477.06 325.378 1481.67 Q322.322 1486.25 316.512 1486.25 Q310.702 1486.25 307.623 1481.67 Q304.568 1477.06 304.568 1468.33 Q304.568 1459.58 307.623 1455 Q310.702 1450.39 316.512 1450.39 Z" fill="#000000" fill-rule="nonzero" fill-opacity="1" /><path clip-path="url(#clip210)" d="M965.873 1481.64 L973.512 1481.64 L973.512 1455.28 L965.201 1456.95 L965.201 1452.69 L973.465 1451.02 L978.141 1451.02 L978.141 1481.64 L985.78 1481.64 L985.78 1485.58 L965.873 1485.58 L965.873 1481.64 Z" fill="#000000" fill-rule="nonzero" fill-opacity="1" /><path clip-path="url(#clip210)" d="M1629.12 1481.64 L1645.44 1481.64 L1645.44 1485.58 L1623.5 1485.58 L1623.5 1481.64 Q1626.16 1478.89 1630.74 1474.26 Q1635.35 1469.61 1636.53 1468.27 Q1638.77 1465.74 1639.65 1464.01 Q1640.56 1462.25 1640.56 1460.56 Q1640.56 1457.8 1638.61 1456.07 Q1636.69 1454.33 1633.59 1454.33 Q1631.39 1454.33 1628.94 1455.09 Q1626.51 1455.86 1623.73 1457.41 L1623.73 1452.69 Q1626.55 1451.55 1629.01 1450.97 Q1631.46 1450.39 1633.5 1450.39 Q1638.87 1450.39 1642.06 1453.08 Q1645.26 1455.77 1645.26 1460.26 Q1645.26 1462.39 1644.45 1464.31 Q1643.66 1466.2 1641.55 1468.8 Q1640.97 1469.47 1637.87 1472.69 Q1634.77 1475.88 1629.12 1481.64 Z" fill="#000000" fill-rule="nonzero" fill-opacity="1" /><path clip-path="url(#clip210)" d="M2297.7 1466.95 Q2301.05 1467.66 2302.93 1469.93 Q2304.83 1472.2 2304.83 1475.53 Q2304.83 1480.65 2301.31 1483.45 Q2297.79 1486.25 2291.31 1486.25 Q2289.13 1486.25 2286.82 1485.81 Q2284.52 1485.39 2282.07 1484.54 L2282.07 1480.02 Q2284.02 1481.16 2286.33 1481.74 Q2288.64 1482.32 2291.17 1482.32 Q2295.57 1482.32 2297.86 1480.58 Q2300.17 1478.84 2300.17 1475.53 Q2300.17 1472.48 2298.02 1470.77 Q2295.89 1469.03 2292.07 1469.03 L2288.04 1469.03 L2288.04 1465.19 L2292.26 1465.19 Q2295.7 1465.19 2297.53 1463.82 Q2299.36 1462.43 2299.36 1459.84 Q2299.36 1457.18 2297.46 1455.77 Q2295.59 1454.33 2292.07 1454.33 Q2290.15 1454.33 2287.95 1454.75 Q2285.75 1455.16 2283.11 1456.04 L2283.11 1451.88 Q2285.77 1451.14 2288.09 1450.77 Q2290.43 1450.39 2292.49 1450.39 Q2297.81 1450.39 2300.91 1452.83 Q2304.01 1455.23 2304.01 1459.35 Q2304.01 1462.22 2302.37 1464.21 Q2300.73 1466.18 2297.7 1466.95 Z" fill="#000000" fill-rule="nonzero" fill-opacity="1" /><path clip-path="url(#clip210)" d="M1148.11 1520.52 L1188.31 1520.52 L1188.31 1525.93 L1171.44 1525.93 L1171.44 1568.04 L1164.98 1568.04 L1164.98 1525.93 L1148.11 1525.93 L1148.11 1520.52 Z" fill="#000000" fill-rule="nonzero" fill-opacity="1" /><path clip-path="url(#clip210)" d="M1213.68 1548.76 L1213.68 1551.62 L1186.75 1551.62 Q1187.13 1557.67 1190.38 1560.85 Q1193.66 1564 1199.48 1564 Q1202.86 1564 1206.01 1563.17 Q1209.19 1562.35 1212.31 1560.69 L1212.31 1566.23 Q1209.16 1567.57 1205.85 1568.27 Q1202.54 1568.97 1199.13 1568.97 Q1190.6 1568.97 1185.61 1564 Q1180.64 1559.04 1180.64 1550.57 Q1180.64 1541.82 1185.35 1536.69 Q1190.09 1531.54 1198.12 1531.54 Q1205.31 1531.54 1209.48 1536.18 Q1213.68 1540.8 1213.68 1548.76 M1207.82 1547.04 Q1207.76 1542.23 1205.12 1539.37 Q1202.51 1536.5 1198.18 1536.5 Q1193.28 1536.5 1190.32 1539.27 Q1187.39 1542.04 1186.94 1547.07 L1207.82 1547.04 Z" fill="#000000" fill-rule="nonzero" fill-opacity="1" /><path clip-path="url(#clip210)" d="M1251.05 1539.24 Q1253.24 1535.29 1256.3 1533.41 Q1259.35 1531.54 1263.49 1531.54 Q1269.06 1531.54 1272.09 1535.45 Q1275.11 1539.33 1275.11 1546.53 L1275.11 1568.04 L1269.22 1568.04 L1269.22 1546.72 Q1269.22 1541.59 1267.41 1539.11 Q1265.59 1536.63 1261.87 1536.63 Q1257.32 1536.63 1254.67 1539.65 Q1252.03 1542.68 1252.03 1547.9 L1252.03 1568.04 L1246.14 1568.04 L1246.14 1546.72 Q1246.14 1541.56 1244.33 1539.11 Q1242.52 1536.63 1238.73 1536.63 Q1234.24 1536.63 1231.6 1539.68 Q1228.96 1542.71 1228.96 1547.9 L1228.96 1568.04 L1223.07 1568.04 L1223.07 1532.4 L1228.96 1532.4 L1228.96 1537.93 Q1230.96 1534.66 1233.76 1533.1 Q1236.56 1531.54 1240.42 1531.54 Q1244.3 1531.54 1247 1533.51 Q1249.74 1535.48 1251.05 1539.24 Z" fill="#000000" fill-rule="nonzero" fill-opacity="1" /><path clip-path="url(#clip210)" d="M1292.46 1562.7 L1292.46 1581.6 L1286.57 1581.6 L1286.57 1532.4 L1292.46 1532.4 L1292.46 1537.81 Q1294.3 1534.62 1297.1 1533.1 Q1299.94 1531.54 1303.85 1531.54 Q1310.34 1531.54 1314.39 1536.69 Q1318.46 1541.85 1318.46 1550.25 Q1318.46 1558.65 1314.39 1563.81 Q1310.34 1568.97 1303.85 1568.97 Q1299.94 1568.97 1297.1 1567.44 Q1294.3 1565.88 1292.46 1562.7 M1312.38 1550.25 Q1312.38 1543.79 1309.71 1540.13 Q1307.06 1536.44 1302.42 1536.44 Q1297.77 1536.44 1295.1 1540.13 Q1292.46 1543.79 1292.46 1550.25 Q1292.46 1556.71 1295.1 1560.4 Q1297.77 1564.07 1302.42 1564.07 Q1307.06 1564.07 1309.71 1560.4 Q1312.38 1556.71 1312.38 1550.25 Z" fill="#000000" fill-rule="nonzero" fill-opacity="1" /><path clip-path="url(#clip210)" d="M1341.98 1536.5 Q1337.27 1536.5 1334.53 1540.19 Q1331.8 1543.85 1331.8 1550.25 Q1331.8 1556.65 1334.5 1560.34 Q1337.24 1564 1341.98 1564 Q1346.66 1564 1349.4 1560.31 Q1352.13 1556.62 1352.13 1550.25 Q1352.13 1543.92 1349.4 1540.23 Q1346.66 1536.5 1341.98 1536.5 M1341.98 1531.54 Q1349.62 1531.54 1353.98 1536.5 Q1358.34 1541.47 1358.34 1550.25 Q1358.34 1559 1353.98 1564 Q1349.62 1568.97 1341.98 1568.97 Q1334.31 1568.97 1329.95 1564 Q1325.62 1559 1325.62 1550.25 Q1325.62 1541.47 1329.95 1536.5 Q1334.31 1531.54 1341.98 1531.54 Z" fill="#000000" fill-rule="nonzero" fill-opacity="1" /><path clip-path="url(#clip210)" d="M1388.23 1518.52 L1401.72 1518.52 L1401.72 1523.07 L1394.08 1523.07 L1394.08 1572.09 L1401.72 1572.09 L1401.72 1576.64 L1388.23 1576.64 L1388.23 1518.52 Z" fill="#000000" fill-rule="nonzero" fill-opacity="1" /><path clip-path="url(#clip210)" d="M1436.93 1533.45 L1436.93 1538.98 Q1434.44 1537.71 1431.77 1537.07 Q1429.1 1536.44 1426.23 1536.44 Q1421.87 1536.44 1419.67 1537.77 Q1417.51 1539.11 1417.51 1541.79 Q1417.51 1543.82 1419.07 1545 Q1420.63 1546.15 1425.34 1547.2 L1427.34 1547.64 Q1433.58 1548.98 1436.19 1551.43 Q1438.83 1553.85 1438.83 1558.21 Q1438.83 1563.17 1434.89 1566.07 Q1430.97 1568.97 1424.1 1568.97 Q1421.23 1568.97 1418.11 1568.39 Q1415.03 1567.85 1411.59 1566.74 L1411.59 1560.69 Q1414.84 1562.38 1417.99 1563.24 Q1421.14 1564.07 1424.23 1564.07 Q1428.36 1564.07 1430.59 1562.66 Q1432.82 1561.23 1432.82 1558.65 Q1432.82 1556.27 1431.2 1554.99 Q1429.6 1553.72 1424.16 1552.54 L1422.12 1552.07 Q1416.68 1550.92 1414.26 1548.56 Q1411.84 1546.18 1411.84 1542.04 Q1411.84 1537.01 1415.41 1534.27 Q1418.97 1531.54 1425.53 1531.54 Q1428.78 1531.54 1431.64 1532.01 Q1434.51 1532.49 1436.93 1533.45 Z" fill="#000000" fill-rule="nonzero" fill-opacity="1" /><path clip-path="url(#clip210)" d="M1461.85 1518.52 L1461.85 1576.64 L1448.35 1576.64 L1448.35 1572.09 L1455.96 1572.09 L1455.96 1523.07 L1448.35 1523.07 L1448.35 1518.52 L1461.85 1518.52 Z" fill="#000000" fill-rule="nonzero" fill-opacity="1" /><polyline clip-path="url(#clip210)" style="stroke:#000000; stroke-linecap:round; stroke-linejoin:round; stroke-width:4; stroke-opacity:1; fill:none" points="257.204,1423.18 257.204,47.2441 "/>
<polyline clip-path="url(#clip210)" style="stroke:#000000; stroke-linecap:round; stroke-linejoin:round; stroke-width:4; stroke-opacity:1; fill:none" points="257.204,1355.02 276.102,1355.02 "/>
<polyline clip-path="url(#clip210)" style="stroke:#000000; stroke-linecap:round; stroke-linejoin:round; stroke-width:4; stroke-opacity:1; fill:none" points="257.204,1045.12 276.102,1045.12 "/>
<polyline clip-path="url(#clip210)" style="stroke:#000000; stroke-linecap:round; stroke-linejoin:round; stroke-width:4; stroke-opacity:1; fill:none" points="257.204,735.229 276.102,735.229 "/>
<polyline clip-path="url(#clip210)" style="stroke:#000000; stroke-linecap:round; stroke-linejoin:round; stroke-width:4; stroke-opacity:1; fill:none" points="257.204,425.333 276.102,425.333 "/>
<polyline clip-path="url(#clip210)" style="stroke:#000000; stroke-linecap:round; stroke-linejoin:round; stroke-width:4; stroke-opacity:1; fill:none" points="257.204,115.438 276.102,115.438 "/>
<path clip-path="url(#clip210)" d="M114.26 1355.47 L143.936 1355.47 L143.936 1359.41 L114.26 1359.41 L114.26 1355.47 Z" fill="#000000" fill-rule="nonzero" fill-opacity="1" /><path clip-path="url(#clip210)" d="M154.839 1368.36 L162.477 1368.36 L162.477 1342 L154.167 1343.66 L154.167 1339.41 L162.431 1337.74 L167.107 1337.74 L167.107 1368.36 L174.746 1368.36 L174.746 1372.3 L154.839 1372.3 L154.839 1368.36 Z" fill="#000000" fill-rule="nonzero" fill-opacity="1" /><path clip-path="url(#clip210)" d="M184.19 1366.42 L189.075 1366.42 L189.075 1372.3 L184.19 1372.3 L184.19 1366.42 Z" fill="#000000" fill-rule="nonzero" fill-opacity="1" /><path clip-path="url(#clip210)" d="M209.26 1340.82 Q205.649 1340.82 203.82 1344.38 Q202.014 1347.92 202.014 1355.05 Q202.014 1362.16 203.82 1365.73 Q205.649 1369.27 209.26 1369.27 Q212.894 1369.27 214.699 1365.73 Q216.528 1362.16 216.528 1355.05 Q216.528 1347.92 214.699 1344.38 Q212.894 1340.82 209.26 1340.82 M209.26 1337.11 Q215.07 1337.11 218.125 1341.72 Q221.204 1346.3 221.204 1355.05 Q221.204 1363.78 218.125 1368.39 Q215.07 1372.97 209.26 1372.97 Q203.449 1372.97 200.371 1368.39 Q197.315 1363.78 197.315 1355.05 Q197.315 1346.3 200.371 1341.72 Q203.449 1337.11 209.26 1337.11 Z" fill="#000000" fill-rule="nonzero" fill-opacity="1" /><path clip-path="url(#clip210)" d="M115.256 1045.58 L144.931 1045.58 L144.931 1049.51 L115.256 1049.51 L115.256 1045.58 Z" fill="#000000" fill-rule="nonzero" fill-opacity="1" /><path clip-path="url(#clip210)" d="M165.024 1030.92 Q161.413 1030.92 159.584 1034.49 Q157.778 1038.03 157.778 1045.16 Q157.778 1052.27 159.584 1055.83 Q161.413 1059.37 165.024 1059.37 Q168.658 1059.37 170.464 1055.83 Q172.292 1052.27 172.292 1045.16 Q172.292 1038.03 170.464 1034.49 Q168.658 1030.92 165.024 1030.92 M165.024 1027.22 Q170.834 1027.22 173.889 1031.83 Q176.968 1036.41 176.968 1045.16 Q176.968 1053.89 173.889 1058.49 Q170.834 1063.08 165.024 1063.08 Q159.214 1063.08 156.135 1058.49 Q153.079 1053.89 153.079 1045.16 Q153.079 1036.41 156.135 1031.83 Q159.214 1027.22 165.024 1027.22 Z" fill="#000000" fill-rule="nonzero" fill-opacity="1" /><path clip-path="url(#clip210)" d="M185.186 1056.52 L190.07 1056.52 L190.07 1062.4 L185.186 1062.4 L185.186 1056.52 Z" fill="#000000" fill-rule="nonzero" fill-opacity="1" /><path clip-path="url(#clip210)" d="M200.301 1027.84 L218.658 1027.84 L218.658 1031.78 L204.584 1031.78 L204.584 1040.25 Q205.602 1039.9 206.621 1039.74 Q207.639 1039.56 208.658 1039.56 Q214.445 1039.56 217.824 1042.73 Q221.204 1045.9 221.204 1051.32 Q221.204 1056.89 217.732 1060 Q214.26 1063.08 207.94 1063.08 Q205.764 1063.08 203.496 1062.7 Q201.25 1062.33 198.843 1061.59 L198.843 1056.89 Q200.926 1058.03 203.149 1058.58 Q205.371 1059.14 207.848 1059.14 Q211.852 1059.14 214.19 1057.03 Q216.528 1054.93 216.528 1051.32 Q216.528 1047.7 214.19 1045.6 Q211.852 1043.49 207.848 1043.49 Q205.973 1043.49 204.098 1043.91 Q202.246 1044.33 200.301 1045.2 L200.301 1027.84 Z" fill="#000000" fill-rule="nonzero" fill-opacity="1" /><path clip-path="url(#clip210)" d="M164.028 721.027 Q160.417 721.027 158.589 724.592 Q156.783 728.134 156.783 735.263 Q156.783 742.37 158.589 745.935 Q160.417 749.476 164.028 749.476 Q167.663 749.476 169.468 745.935 Q171.297 742.37 171.297 735.263 Q171.297 728.134 169.468 724.592 Q167.663 721.027 164.028 721.027 M164.028 717.324 Q169.839 717.324 172.894 721.93 Q175.973 726.513 175.973 735.263 Q175.973 743.99 172.894 748.597 Q169.839 753.18 164.028 753.18 Q158.218 753.18 155.14 748.597 Q152.084 743.99 152.084 735.263 Q152.084 726.513 155.14 721.93 Q158.218 717.324 164.028 717.324 Z" fill="#000000" fill-rule="nonzero" fill-opacity="1" /><path clip-path="url(#clip210)" d="M184.19 746.629 L189.075 746.629 L189.075 752.509 L184.19 752.509 L184.19 746.629 Z" fill="#000000" fill-rule="nonzero" fill-opacity="1" /><path clip-path="url(#clip210)" d="M209.26 721.027 Q205.649 721.027 203.82 724.592 Q202.014 728.134 202.014 735.263 Q202.014 742.37 203.82 745.935 Q205.649 749.476 209.26 749.476 Q212.894 749.476 214.699 745.935 Q216.528 742.37 216.528 735.263 Q216.528 728.134 214.699 724.592 Q212.894 721.027 209.26 721.027 M209.26 717.324 Q215.07 717.324 218.125 721.93 Q221.204 726.513 221.204 735.263 Q221.204 743.99 218.125 748.597 Q215.07 753.18 209.26 753.18 Q203.449 753.18 200.371 748.597 Q197.315 743.99 197.315 735.263 Q197.315 726.513 200.371 721.93 Q203.449 717.324 209.26 717.324 Z" fill="#000000" fill-rule="nonzero" fill-opacity="1" /><path clip-path="url(#clip210)" d="M165.024 411.132 Q161.413 411.132 159.584 414.697 Q157.778 418.239 157.778 425.368 Q157.778 432.475 159.584 436.039 Q161.413 439.581 165.024 439.581 Q168.658 439.581 170.464 436.039 Q172.292 432.475 172.292 425.368 Q172.292 418.239 170.464 414.697 Q168.658 411.132 165.024 411.132 M165.024 407.428 Q170.834 407.428 173.889 412.035 Q176.968 416.618 176.968 425.368 Q176.968 434.095 173.889 438.701 Q170.834 443.285 165.024 443.285 Q159.214 443.285 156.135 438.701 Q153.079 434.095 153.079 425.368 Q153.079 416.618 156.135 412.035 Q159.214 407.428 165.024 407.428 Z" fill="#000000" fill-rule="nonzero" fill-opacity="1" /><path clip-path="url(#clip210)" d="M185.186 436.734 L190.07 436.734 L190.07 442.613 L185.186 442.613 L185.186 436.734 Z" fill="#000000" fill-rule="nonzero" fill-opacity="1" /><path clip-path="url(#clip210)" d="M200.301 408.053 L218.658 408.053 L218.658 411.989 L204.584 411.989 L204.584 420.461 Q205.602 420.114 206.621 419.952 Q207.639 419.766 208.658 419.766 Q214.445 419.766 217.824 422.938 Q221.204 426.109 221.204 431.526 Q221.204 437.104 217.732 440.206 Q214.26 443.285 207.94 443.285 Q205.764 443.285 203.496 442.914 Q201.25 442.544 198.843 441.803 L198.843 437.104 Q200.926 438.238 203.149 438.794 Q205.371 439.35 207.848 439.35 Q211.852 439.35 214.19 437.243 Q216.528 435.137 216.528 431.526 Q216.528 427.914 214.19 425.808 Q211.852 423.702 207.848 423.702 Q205.973 423.702 204.098 424.118 Q202.246 424.535 200.301 425.414 L200.301 408.053 Z" fill="#000000" fill-rule="nonzero" fill-opacity="1" /><path clip-path="url(#clip210)" d="M154.839 128.783 L162.477 128.783 L162.477 102.417 L154.167 104.084 L154.167 99.8249 L162.431 98.1583 L167.107 98.1583 L167.107 128.783 L174.746 128.783 L174.746 132.718 L154.839 132.718 L154.839 128.783 Z" fill="#000000" fill-rule="nonzero" fill-opacity="1" /><path clip-path="url(#clip210)" d="M184.19 126.839 L189.075 126.839 L189.075 132.718 L184.19 132.718 L184.19 126.839 Z" fill="#000000" fill-rule="nonzero" fill-opacity="1" /><path clip-path="url(#clip210)" d="M209.26 101.237 Q205.649 101.237 203.82 104.802 Q202.014 108.343 202.014 115.473 Q202.014 122.579 203.82 126.144 Q205.649 129.686 209.26 129.686 Q212.894 129.686 214.699 126.144 Q216.528 122.579 216.528 115.473 Q216.528 108.343 214.699 104.802 Q212.894 101.237 209.26 101.237 M209.26 97.5333 Q215.07 97.5333 218.125 102.14 Q221.204 106.723 221.204 115.473 Q221.204 124.2 218.125 128.806 Q215.07 133.39 209.26 133.39 Q203.449 133.39 200.371 128.806 Q197.315 124.2 197.315 115.473 Q197.315 106.723 200.371 102.14 Q203.449 97.5333 209.26 97.5333 Z" fill="#000000" fill-rule="nonzero" fill-opacity="1" /><path clip-path="url(#clip210)" d="M64.0042 1113.75 L16.4842 1131.89 L16.4842 1125.18 L56.4926 1110.12 L16.4842 1095.03 L16.4842 1088.35 L64.0042 1106.46 L64.0042 1113.75 Z" fill="#000000" fill-rule="nonzero" fill-opacity="1" /><path clip-path="url(#clip210)" d="M44.7161 1056.23 L47.5806 1056.23 L47.5806 1083.16 Q53.6281 1082.78 56.8109 1079.53 Q59.9619 1076.25 59.9619 1070.43 Q59.9619 1067.06 59.1344 1063.91 Q58.3069 1060.72 56.6518 1057.6 L62.1899 1057.6 Q63.5267 1060.75 64.227 1064.06 Q64.9272 1067.37 64.9272 1070.78 Q64.9272 1079.31 59.9619 1084.31 Q54.9967 1089.27 46.5303 1089.27 Q37.7774 1089.27 32.6531 1084.56 Q27.4968 1079.82 27.4968 1071.8 Q27.4968 1064.61 32.1438 1060.44 Q36.7589 1056.23 44.7161 1056.23 M42.9973 1062.09 Q38.1912 1062.15 35.3266 1064.8 Q32.4621 1067.41 32.4621 1071.74 Q32.4621 1076.64 35.2312 1079.6 Q38.0002 1082.52 43.0292 1082.97 L42.9973 1062.09 Z" fill="#000000" fill-rule="nonzero" fill-opacity="1" /><path clip-path="url(#clip210)" d="M14.479 1046.62 L14.479 1040.77 L64.0042 1040.77 L64.0042 1046.62 L14.479 1046.62 Z" fill="#000000" fill-rule="nonzero" fill-opacity="1" /><path clip-path="url(#clip210)" d="M32.4621 1014.7 Q32.4621 1019.41 36.1542 1022.15 Q39.8145 1024.88 46.212 1024.88 Q52.6095 1024.88 56.3017 1022.18 Q59.9619 1019.44 59.9619 1014.7 Q59.9619 1010.02 56.2698 1007.28 Q52.5777 1004.55 46.212 1004.55 Q39.8781 1004.55 36.186 1007.28 Q32.4621 1010.02 32.4621 1014.7 M27.4968 1014.7 Q27.4968 1007.06 32.4621 1002.7 Q37.4273 998.338 46.212 998.338 Q54.9649 998.338 59.9619 1002.7 Q64.9272 1007.06 64.9272 1014.7 Q64.9272 1022.37 59.9619 1026.73 Q54.9649 1031.06 46.212 1031.06 Q37.4273 1031.06 32.4621 1026.73 Q27.4968 1022.37 27.4968 1014.7 Z" fill="#000000" fill-rule="nonzero" fill-opacity="1" /><path clip-path="url(#clip210)" d="M29.7248 962.977 L35.1993 962.977 Q33.8307 965.46 33.1623 967.974 Q32.4621 970.457 32.4621 973.003 Q32.4621 978.7 36.0905 981.851 Q39.6872 985.002 46.212 985.002 Q52.7369 985.002 56.3653 981.851 Q59.9619 978.7 59.9619 973.003 Q59.9619 970.457 59.2935 967.974 Q58.5933 965.46 57.2247 962.977 L62.6355 962.977 Q63.7814 965.428 64.3543 968.07 Q64.9272 970.679 64.9272 973.64 Q64.9272 981.692 59.8664 986.435 Q54.8057 991.177 46.212 991.177 Q37.491 991.177 32.4939 986.403 Q27.4968 981.597 27.4968 973.258 Q27.4968 970.552 28.0697 967.974 Q28.6108 965.396 29.7248 962.977 Z" fill="#000000" fill-rule="nonzero" fill-opacity="1" /><path clip-path="url(#clip210)" d="M28.3562 952.792 L28.3562 946.935 L64.0042 946.935 L64.0042 952.792 L28.3562 952.792 M14.479 952.792 L14.479 946.935 L21.895 946.935 L21.895 952.792 L14.479 952.792 Z" fill="#000000" fill-rule="nonzero" fill-opacity="1" /><path clip-path="url(#clip210)" d="M18.2347 928.889 L28.3562 928.889 L28.3562 916.826 L32.9077 916.826 L32.9077 928.889 L52.2594 928.889 Q56.6199 928.889 57.8613 927.711 Q59.1026 926.501 59.1026 922.841 L59.1026 916.826 L64.0042 916.826 L64.0042 922.841 Q64.0042 929.621 61.4897 932.199 Q58.9434 934.777 52.2594 934.777 L32.9077 934.777 L32.9077 939.074 L28.3562 939.074 L28.3562 934.777 L18.2347 934.777 L18.2347 928.889 Z" fill="#000000" fill-rule="nonzero" fill-opacity="1" /><path clip-path="url(#clip210)" d="M46.0847 892.922 Q46.0847 900.02 47.7079 902.757 Q49.3312 905.495 53.2461 905.495 Q56.3653 905.495 58.2114 903.458 Q60.0256 901.389 60.0256 897.856 Q60.0256 892.986 56.5881 890.058 Q53.1188 887.098 47.3897 887.098 L46.0847 887.098 L46.0847 892.922 M43.6657 881.241 L64.0042 881.241 L64.0042 887.098 L58.5933 887.098 Q61.8398 889.103 63.3994 892.095 Q64.9272 895.087 64.9272 899.415 Q64.9272 904.89 61.8716 908.136 Q58.7843 911.351 53.6281 911.351 Q47.6125 911.351 44.5569 907.341 Q41.5014 903.298 41.5014 895.309 L41.5014 887.098 L40.9285 887.098 Q36.8862 887.098 34.6901 889.771 Q32.4621 892.413 32.4621 897.219 Q32.4621 900.275 33.1941 903.171 Q33.9262 906.068 35.3903 908.741 L29.9795 908.741 Q28.7381 905.526 28.1334 902.503 Q27.4968 899.479 27.4968 896.614 Q27.4968 888.88 31.5072 885.061 Q35.5176 881.241 43.6657 881.241 M11.869 900.975 L23.7729 891.999 L23.7729 896.869 L11.869 907.245 L11.869 900.975 Z" fill="#000000" fill-rule="nonzero" fill-opacity="1" /><path clip-path="url(#clip210)" d="M46.0847 832.257 Q46.0847 839.355 47.7079 842.092 Q49.3312 844.829 53.2461 844.829 Q56.3653 844.829 58.2114 842.792 Q60.0256 840.724 60.0256 837.191 Q60.0256 832.321 56.5881 829.393 Q53.1188 826.433 47.3897 826.433 L46.0847 826.433 L46.0847 832.257 M43.6657 820.576 L64.0042 820.576 L64.0042 826.433 L58.5933 826.433 Q61.8398 828.438 63.3994 831.43 Q64.9272 834.422 64.9272 838.75 Q64.9272 844.225 61.8716 847.471 Q58.7843 850.686 53.6281 850.686 Q47.6125 850.686 44.5569 846.675 Q41.5014 842.633 41.5014 834.644 L41.5014 826.433 L40.9285 826.433 Q36.8862 826.433 34.6901 829.106 Q32.4621 831.748 32.4621 836.554 Q32.4621 839.61 33.1941 842.506 Q33.9262 845.402 35.3903 848.076 L29.9795 848.076 Q28.7381 844.861 28.1334 841.838 Q27.4968 838.814 27.4968 835.949 Q27.4968 828.215 31.5072 824.396 Q35.5176 820.576 43.6657 820.576 Z" fill="#000000" fill-rule="nonzero" fill-opacity="1" /><path clip-path="url(#clip210)" d="M42.4881 778.881 L64.0042 778.881 L64.0042 784.737 L42.679 784.737 Q37.6183 784.737 35.1038 786.711 Q32.5894 788.684 32.5894 792.631 Q32.5894 797.373 35.6131 800.11 Q38.6368 802.848 43.8567 802.848 L64.0042 802.848 L64.0042 808.736 L28.3562 808.736 L28.3562 802.848 L33.8944 802.848 Q30.6797 800.747 29.0883 797.914 Q27.4968 795.05 27.4968 791.326 Q27.4968 785.183 31.3163 782.032 Q35.1038 778.881 42.4881 778.881 Z" fill="#000000" fill-rule="nonzero" fill-opacity="1" /><path clip-path="url(#clip210)" d="M45.7664 743.742 Q39.4007 743.742 35.8996 746.384 Q32.3984 748.994 32.3984 753.736 Q32.3984 758.447 35.8996 761.089 Q39.4007 763.699 45.7664 763.699 Q52.1003 763.699 55.6014 761.089 Q59.1026 758.447 59.1026 753.736 Q59.1026 748.994 55.6014 746.384 Q52.1003 743.742 45.7664 743.742 M59.58 737.886 Q68.683 737.886 73.1071 741.928 Q77.5631 745.97 77.5631 754.309 Q77.5631 757.396 77.0857 760.134 Q76.6401 762.871 75.6852 765.449 L69.9879 765.449 Q71.3884 762.871 72.0568 760.357 Q72.7252 757.842 72.7252 755.232 Q72.7252 749.471 69.7015 746.607 Q66.7096 743.742 60.6303 743.742 L57.7339 743.742 Q60.885 745.556 62.4446 748.389 Q64.0042 751.222 64.0042 755.168 Q64.0042 761.725 59.0071 765.736 Q54.01 769.746 45.7664 769.746 Q37.491 769.746 32.4939 765.736 Q27.4968 761.725 27.4968 755.168 Q27.4968 751.222 29.0564 748.389 Q30.616 745.556 33.7671 743.742 L28.3562 743.742 L28.3562 737.886 L59.58 737.886 Z" fill="#000000" fill-rule="nonzero" fill-opacity="1" /><path clip-path="url(#clip210)" d="M32.4621 712.009 Q32.4621 716.72 36.1542 719.457 Q39.8145 722.194 46.212 722.194 Q52.6095 722.194 56.3017 719.489 Q59.9619 716.751 59.9619 712.009 Q59.9619 707.33 56.2698 704.593 Q52.5777 701.856 46.212 701.856 Q39.8781 701.856 36.186 704.593 Q32.4621 707.33 32.4621 712.009 M27.4968 712.009 Q27.4968 704.37 32.4621 700.01 Q37.4273 695.649 46.212 695.649 Q54.9649 695.649 59.9619 700.01 Q64.9272 704.37 64.9272 712.009 Q64.9272 719.68 59.9619 724.04 Q54.9649 728.369 46.212 728.369 Q37.4273 728.369 32.4621 724.04 Q27.4968 719.68 27.4968 712.009 Z" fill="#000000" fill-rule="nonzero" fill-opacity="1" /><path clip-path="url(#clip210)" d="M14.479 685.941 L14.479 680.085 L64.0042 680.085 L64.0042 685.941 L14.479 685.941 Z" fill="#000000" fill-rule="nonzero" fill-opacity="1" /><path clip-path="url(#clip210)" d="M46.0847 651.63 Q46.0847 658.728 47.7079 661.465 Q49.3312 664.203 53.2461 664.203 Q56.3653 664.203 58.2114 662.165 Q60.0256 660.097 60.0256 656.564 Q60.0256 651.694 56.5881 648.766 Q53.1188 645.806 47.3897 645.806 L46.0847 645.806 L46.0847 651.63 M43.6657 639.949 L64.0042 639.949 L64.0042 645.806 L58.5933 645.806 Q61.8398 647.811 63.3994 650.803 Q64.9272 653.795 64.9272 658.123 Q64.9272 663.598 61.8716 666.844 Q58.7843 670.059 53.6281 670.059 Q47.6125 670.059 44.5569 666.049 Q41.5014 662.006 41.5014 654.017 L41.5014 645.806 L40.9285 645.806 Q36.8862 645.806 34.6901 648.479 Q32.4621 651.121 32.4621 655.927 Q32.4621 658.983 33.1941 661.879 Q33.9262 664.775 35.3903 667.449 L29.9795 667.449 Q28.7381 664.234 28.1334 661.211 Q27.4968 658.187 27.4968 655.322 Q27.4968 647.588 31.5072 643.769 Q35.5176 639.949 43.6657 639.949 Z" fill="#000000" fill-rule="nonzero" fill-opacity="1" /><path clip-path="url(#clip210)" d="M33.8307 607.229 Q33.2578 608.216 33.0032 609.394 Q32.7167 610.54 32.7167 611.94 Q32.7167 616.905 35.9632 619.579 Q39.1779 622.221 45.2253 622.221 L64.0042 622.221 L64.0042 628.109 L28.3562 628.109 L28.3562 622.221 L33.8944 622.221 Q30.6479 620.375 29.0883 617.415 Q27.4968 614.455 27.4968 610.221 Q27.4968 609.617 27.5923 608.885 Q27.656 608.152 27.8151 607.261 L33.8307 607.229 Z" fill="#000000" fill-rule="nonzero" fill-opacity="1" /><path clip-path="url(#clip210)" d="M44.7161 572.027 L47.5806 572.027 L47.5806 598.954 Q53.6281 598.572 56.8109 595.326 Q59.9619 592.047 59.9619 586.223 Q59.9619 582.849 59.1344 579.698 Q58.3069 576.515 56.6518 573.396 L62.1899 573.396 Q63.5267 576.547 64.227 579.857 Q64.9272 583.167 64.9272 586.573 Q64.9272 595.103 59.9619 600.1 Q54.9967 605.065 46.5303 605.065 Q37.7774 605.065 32.6531 600.354 Q27.4968 595.612 27.4968 587.591 Q27.4968 580.398 32.1438 576.228 Q36.7589 572.027 44.7161 572.027 M42.9973 577.884 Q38.1912 577.947 35.3266 580.589 Q32.4621 583.199 32.4621 587.528 Q32.4621 592.429 35.2312 595.389 Q38.0002 598.317 43.0292 598.763 L42.9973 577.884 Z" fill="#000000" fill-rule="nonzero" fill-opacity="1" /><path clip-path="url(#clip210)" d="M14.479 542.236 L14.479 528.74 L19.0304 528.74 L19.0304 536.379 L68.0464 536.379 L68.0464 528.74 L72.5979 528.74 L72.5979 542.236 L14.479 542.236 Z" fill="#000000" fill-rule="nonzero" fill-opacity="1" /><path clip-path="url(#clip210)" d="M33.8307 495.607 Q33.2578 496.593 33.0032 497.771 Q32.7167 498.917 32.7167 500.317 Q32.7167 505.283 35.9632 507.956 Q39.1779 510.598 45.2253 510.598 L64.0042 510.598 L64.0042 516.486 L28.3562 516.486 L28.3562 510.598 L33.8944 510.598 Q30.6479 508.752 29.0883 505.792 Q27.4968 502.832 27.4968 498.599 Q27.4968 497.994 27.5923 497.262 Q27.656 496.53 27.8151 495.639 L33.8307 495.607 Z" fill="#000000" fill-rule="nonzero" fill-opacity="1" /><path clip-path="url(#clip210)" d="M46.0847 473.263 Q46.0847 480.361 47.7079 483.098 Q49.3312 485.835 53.2461 485.835 Q56.3653 485.835 58.2114 483.798 Q60.0256 481.73 60.0256 478.197 Q60.0256 473.327 56.5881 470.399 Q53.1188 467.439 47.3897 467.439 L46.0847 467.439 L46.0847 473.263 M43.6657 461.582 L64.0042 461.582 L64.0042 467.439 L58.5933 467.439 Q61.8398 469.444 63.3994 472.436 Q64.9272 475.427 64.9272 479.756 Q64.9272 485.231 61.8716 488.477 Q58.7843 491.692 53.6281 491.692 Q47.6125 491.692 44.5569 487.681 Q41.5014 483.639 41.5014 475.65 L41.5014 467.439 L40.9285 467.439 Q36.8862 467.439 34.6901 470.112 Q32.4621 472.754 32.4621 477.56 Q32.4621 480.616 33.1941 483.512 Q33.9262 486.408 35.3903 489.082 L29.9795 489.082 Q28.7381 485.867 28.1334 482.844 Q27.4968 479.82 27.4968 476.955 Q27.4968 469.221 31.5072 465.401 Q35.5176 461.582 43.6657 461.582 Z" fill="#000000" fill-rule="nonzero" fill-opacity="1" /><path clip-path="url(#clip210)" d="M33.7671 426.061 L14.479 426.061 L14.479 420.205 L64.0042 420.205 L64.0042 426.061 L58.657 426.061 Q61.8398 427.907 63.3994 430.74 Q64.9272 433.541 64.9272 437.488 Q64.9272 443.949 59.771 448.023 Q54.6147 452.065 46.212 452.065 Q37.8093 452.065 32.6531 448.023 Q27.4968 443.949 27.4968 437.488 Q27.4968 433.541 29.0564 430.74 Q30.5842 427.907 33.7671 426.061 M46.212 446.018 Q52.6732 446.018 56.3653 443.376 Q60.0256 440.703 60.0256 436.056 Q60.0256 431.409 56.3653 428.735 Q52.6732 426.061 46.212 426.061 Q39.7508 426.061 36.0905 428.735 Q32.3984 431.409 32.3984 436.056 Q32.3984 440.703 36.0905 443.376 Q39.7508 446.018 46.212 446.018 Z" fill="#000000" fill-rule="nonzero" fill-opacity="1" /><path clip-path="url(#clip210)" d="M16.4842 397.734 L16.4842 392.323 L70.0516 408.874 L70.0516 414.285 L16.4842 397.734 Z" fill="#000000" fill-rule="nonzero" fill-opacity="1" /><path clip-path="url(#clip210)" d="M29.4065 363.455 L34.9447 363.455 Q33.6716 365.937 33.035 368.611 Q32.3984 371.285 32.3984 374.149 Q32.3984 378.51 33.7352 380.706 Q35.072 382.87 37.7456 382.87 Q39.7826 382.87 40.9603 381.311 Q42.1061 379.751 43.1565 375.04 L43.6021 373.035 Q44.9389 366.797 47.3897 364.187 Q49.8086 361.545 54.1691 361.545 Q59.1344 361.545 62.0308 365.492 Q64.9272 369.407 64.9272 376.282 Q64.9272 379.146 64.3543 382.265 Q63.8132 385.353 62.6992 388.79 L56.6518 388.79 Q58.3387 385.544 59.198 382.393 Q60.0256 379.242 60.0256 376.154 Q60.0256 372.017 58.6251 369.789 Q57.1929 367.561 54.6147 367.561 Q52.2276 367.561 50.9545 369.184 Q49.6813 370.775 48.5037 376.218 L48.0262 378.255 Q46.8804 383.698 44.5251 386.117 Q42.138 388.536 38.0002 388.536 Q32.9713 388.536 30.2341 384.971 Q27.4968 381.406 27.4968 374.849 Q27.4968 371.603 27.9743 368.738 Q28.4517 365.874 29.4065 363.455 Z" fill="#000000" fill-rule="nonzero" fill-opacity="1" /><path clip-path="url(#clip210)" d="M14.479 338.533 L72.5979 338.533 L72.5979 352.028 L68.0464 352.028 L68.0464 344.421 L19.0304 344.421 L19.0304 352.028 L14.479 352.028 L14.479 338.533 Z" fill="#000000" fill-rule="nonzero" fill-opacity="1" /><polyline clip-path="url(#clip212)" style="stroke:#009af9; stroke-linecap:round; stroke-linejoin:round; stroke-width:4; stroke-opacity:1; fill:none" points="316.512,86.1857 323.102,86.4489 329.692,87.2386 336.281,88.5543 342.871,90.3954 349.461,92.7609 356.051,95.6497 362.641,99.0603 369.23,102.991 375.82,107.44 382.41,112.404 389,117.882 395.59,123.87 402.179,130.366 408.769,137.364 415.359,144.863 421.949,152.857 428.538,161.341 435.128,170.312 441.718,179.763 448.308,189.689 454.898,200.083 461.487,210.94 468.077,222.252 474.667,234.011 481.257,246.211 487.847,258.841 494.436,271.895 501.026,285.361 507.616,299.231 514.206,313.495 520.795,328.141 527.385,343.158 533.975,358.534 540.565,374.258 547.155,390.316 553.744,406.695 560.334,423.382 566.924,440.362 573.514,457.62 580.104,475.141 586.693,492.91 593.283,510.911 599.873,529.127 606.463,547.542 613.052,566.138 619.642,584.897 626.232,603.803 632.822,622.836 639.412,641.98 646.001,661.214 652.591,680.521 659.181,699.881 665.771,719.276 672.361,738.687 678.95,758.094 685.54,777.479 692.13,796.822 698.72,816.105 705.309,835.309 711.899,854.415 718.489,873.405 725.079,892.261 731.669,910.964 738.258,929.498 744.848,947.843 751.438,965.985 758.028,983.905 764.618,1001.59 771.207,1019.02 777.797,1036.18 784.387,1053.05 790.977,1069.63 797.566,1085.9 804.156,1101.84 810.746,1117.44 817.336,1132.69 823.926,1147.58 830.515,1162.09 837.105,1176.21 843.695,1189.94 850.285,1203.26 856.875,1216.16 863.464,1228.64 870.054,1240.69 876.644,1252.29 883.234,1263.44 889.823,1274.13 896.413,1284.36 903.003,1294.12 909.593,1303.4 916.183,1312.19 922.772,1320.51 929.362,1328.32 935.952,1335.64 942.542,1342.46 949.132,1348.78 955.721,1354.59 962.311,1359.88 968.901,1364.66 975.491,1368.93 982.08,1372.67 988.67,1375.9 995.26,1378.6 1001.85,1380.78 1008.44,1382.43 1015.03,1383.56 1021.62,1384.16 1028.21,1384.24 1034.8,1383.79 1041.39,1382.81 1047.98,1381.31 1054.57,1379.28 1061.16,1376.73 1067.75,1373.65 1074.34,1370.06 1080.93,1365.94 1087.52,1361.31 1094.11,1356.16 1100.7,1350.5 1107.29,1344.33 1113.88,1337.66 1120.47,1330.48 1127.06,1322.8 1133.65,1314.63 1140.24,1305.98 1146.83,1296.83 1153.41,1287.21 1160,1277.12 1166.59,1266.56 1173.18,1255.54 1179.77,1244.07 1186.36,1232.15 1192.95,1219.8 1199.54,1207.01 1206.13,1193.81 1212.72,1180.2 1219.31,1166.19 1225.9,1151.79 1232.49,1137.01 1239.08,1121.86 1245.67,1106.36 1252.26,1090.52 1258.85,1074.34 1265.44,1057.85 1272.03,1041.06 1278.62,1023.98 1285.21,1006.62 1291.8,989.013 1298.39,971.16 1304.98,953.08 1311.57,934.791 1318.16,916.31 1324.75,897.654 1331.34,878.84 1337.93,859.887 1344.52,840.812 1351.11,821.635 1357.7,802.372 1364.29,783.044 1370.88,763.67 1377.47,744.267 1384.06,724.855 1390.65,705.454 1397.24,686.082 1403.83,666.757 1410.42,647.5 1417.01,628.329 1423.6,609.262 1430.19,590.318 1436.78,571.514 1443.37,552.87 1449.96,534.401 1456.55,516.127 1463.13,498.062 1469.72,480.225 1476.31,462.63 1482.9,445.295 1489.49,428.234 1496.08,411.461 1502.67,394.992 1509.26,378.841 1515.85,363.019 1522.44,347.542 1529.03,332.42 1535.62,317.666 1542.21,303.292 1548.8,289.308 1555.39,275.724 1561.98,262.551 1568.57,249.798 1575.16,237.474 1581.75,225.587 1588.34,214.146 1594.93,203.157 1601.52,192.629 1608.11,182.568 1614.7,172.98 1621.29,163.87 1627.88,155.246 1634.47,147.11 1641.06,139.469 1647.65,132.326 1654.24,125.686 1660.83,119.552 1667.42,113.927 1674.01,108.814 1680.6,104.217 1687.19,100.137 1693.78,96.5767 1700.37,93.5378 1706.96,91.0217 1713.55,89.0298 1720.14,87.563 1726.73,86.622 1733.32,86.2074 1739.91,86.3193 1746.5,86.9577 1753.09,88.1222 1759.68,89.8124 1766.26,92.0272 1772.85,94.7657 1779.44,98.0265 1786.03,101.808 1792.62,106.108 1799.21,110.925 1805.8,116.255 1812.39,122.097 1818.98,128.447 1825.57,135.301 1832.16,142.656 1838.75,150.508 1845.34,158.852 1851.93,167.684 1858.52,176.997 1865.11,186.787 1871.7,197.048 1878.29,207.772 1884.88,218.954 1891.47,230.585 1898.06,242.659 1904.65,255.167 1911.24,268.099 1917.83,281.448 1924.42,295.203 1931.01,309.355 1937.6,323.892 1944.19,338.804 1950.78,354.078 1957.37,369.703 1963.96,385.667 1970.55,401.955 1977.14,418.554 1983.73,435.451 1990.32,452.631 1996.91,470.078 2003.5,487.778 2010.09,505.714 2016.68,523.87 2023.27,542.229 2029.86,560.774 2036.45,579.489 2043.04,598.354 2049.63,617.353 2056.22,636.466 2062.81,655.676 2069.4,674.964 2075.98,694.311 2082.57,713.698 2089.16,733.106 2095.75,752.516 2102.34,771.91 2108.93,791.267 2115.52,810.569 2122.11,829.798 2128.7,848.934 2135.29,867.959 2141.88,886.856 2148.47,905.604 2155.06,924.188 2161.65,942.59 2168.24,960.792 2174.83,978.777 2181.42,996.53 2188.01,1014.03 2194.6,1031.27 2201.19,1048.23 2207.78,1064.9 2214.37,1081.26 2220.96,1097.29 2227.55,1112.99 2234.14,1128.34 2240.73,1143.34 2247.32,1157.96 2253.91,1172.19 2260.5,1186.04 2267.09,1199.47 2273.68,1212.5 2280.27,1225.1 2286.86,1237.27 2293.45,1249 "/>
</svg>
