<?xml version="1.0" encoding="utf-8"?>
<svg xmlns="http://www.w3.org/2000/svg" xmlns:xlink="http://www.w3.org/1999/xlink" width="600" height="400" viewBox="0 0 2400 1600">
<defs>
  <clipPath id="clip320">
    <rect x="0" y="0" width="2400" height="1600"/>
  </clipPath>
</defs>
<path clip-path="url(#clip320)" d="M0 1600 L2400 1600 L2400 0 L0 0  Z" fill="#ffffff" fill-rule="evenodd" fill-opacity="1"/>
<defs>
  <clipPath id="clip321">
    <rect x="480" y="0" width="1681" height="1600"/>
  </clipPath>
</defs>
<path clip-path="url(#clip320)" d="M175.445 1423.18 L2352.76 1423.18 L2352.76 47.2441 L175.445 47.2441  Z" fill="#ffffff" fill-rule="evenodd" fill-opacity="1"/>
<defs>
  <clipPath id="clip322">
    <rect x="175" y="47" width="2178" height="1377"/>
  </clipPath>
</defs>
<polyline clip-path="url(#clip322)" style="stroke:#000000; stroke-linecap:round; stroke-linejoin:round; stroke-width:2; stroke-opacity:0.1; fill:none" points="520.387,1423.18 520.387,47.2441 "/>
<polyline clip-path="url(#clip322)" style="stroke:#000000; stroke-linecap:round; stroke-linejoin:round; stroke-width:2; stroke-opacity:0.1; fill:none" points="874.536,1423.18 874.536,47.2441 "/>
<polyline clip-path="url(#clip322)" style="stroke:#000000; stroke-linecap:round; stroke-linejoin:round; stroke-width:2; stroke-opacity:0.1; fill:none" points="1228.69,1423.18 1228.69,47.2441 "/>
<polyline clip-path="url(#clip322)" style="stroke:#000000; stroke-linecap:round; stroke-linejoin:round; stroke-width:2; stroke-opacity:0.1; fill:none" points="1582.84,1423.18 1582.84,47.2441 "/>
<polyline clip-path="url(#clip322)" style="stroke:#000000; stroke-linecap:round; stroke-linejoin:round; stroke-width:2; stroke-opacity:0.1; fill:none" points="1936.98,1423.18 1936.98,47.2441 "/>
<polyline clip-path="url(#clip322)" style="stroke:#000000; stroke-linecap:round; stroke-linejoin:round; stroke-width:2; stroke-opacity:0.1; fill:none" points="2291.13,1423.18 2291.13,47.2441 "/>
<polyline clip-path="url(#clip322)" style="stroke:#000000; stroke-linecap:round; stroke-linejoin:round; stroke-width:2; stroke-opacity:0.1; fill:none" points="175.445,1387.25 2352.76,1387.25 "/>
<polyline clip-path="url(#clip322)" style="stroke:#000000; stroke-linecap:round; stroke-linejoin:round; stroke-width:2; stroke-opacity:0.1; fill:none" points="175.445,975.272 2352.76,975.272 "/>
<polyline clip-path="url(#clip322)" style="stroke:#000000; stroke-linecap:round; stroke-linejoin:round; stroke-width:2; stroke-opacity:0.1; fill:none" points="175.445,563.289 2352.76,563.289 "/>
<polyline clip-path="url(#clip322)" style="stroke:#000000; stroke-linecap:round; stroke-linejoin:round; stroke-width:2; stroke-opacity:0.1; fill:none" points="175.445,151.307 2352.76,151.307 "/>
<polyline clip-path="url(#clip320)" style="stroke:#000000; stroke-linecap:round; stroke-linejoin:round; stroke-width:4; stroke-opacity:1; fill:none" points="175.445,1423.18 2352.76,1423.18 "/>
<polyline clip-path="url(#clip320)" style="stroke:#000000; stroke-linecap:round; stroke-linejoin:round; stroke-width:4; stroke-opacity:1; fill:none" points="520.387,1423.18 520.387,1404.28 "/>
<polyline clip-path="url(#clip320)" style="stroke:#000000; stroke-linecap:round; stroke-linejoin:round; stroke-width:4; stroke-opacity:1; fill:none" points="874.536,1423.18 874.536,1404.28 "/>
<polyline clip-path="url(#clip320)" style="stroke:#000000; stroke-linecap:round; stroke-linejoin:round; stroke-width:4; stroke-opacity:1; fill:none" points="1228.69,1423.18 1228.69,1404.28 "/>
<polyline clip-path="url(#clip320)" style="stroke:#000000; stroke-linecap:round; stroke-linejoin:round; stroke-width:4; stroke-opacity:1; fill:none" points="1582.84,1423.18 1582.84,1404.28 "/>
<polyline clip-path="url(#clip320)" style="stroke:#000000; stroke-linecap:round; stroke-linejoin:round; stroke-width:4; stroke-opacity:1; fill:none" points="1936.98,1423.18 1936.98,1404.28 "/>
<polyline clip-path="url(#clip320)" style="stroke:#000000; stroke-linecap:round; stroke-linejoin:round; stroke-width:4; stroke-opacity:1; fill:none" points="2291.13,1423.18 2291.13,1404.28 "/>
<path clip-path="url(#clip320)" d="M498.269 1454.1 Q494.658 1454.1 492.829 1457.66 Q491.023 1461.2 491.023 1468.33 Q491.023 1475.44 492.829 1479.01 Q494.658 1482.55 498.269 1482.55 Q501.903 1482.55 503.709 1479.01 Q505.537 1475.44 505.537 1468.33 Q505.537 1461.2 503.709 1457.66 Q501.903 1454.1 498.269 1454.1 M498.269 1450.39 Q504.079 1450.39 507.135 1455 Q510.213 1459.58 510.213 1468.33 Q510.213 1477.06 507.135 1481.67 Q504.079 1486.25 498.269 1486.25 Q492.459 1486.25 489.38 1481.67 Q486.324 1477.06 486.324 1468.33 Q486.324 1459.58 489.38 1455 Q492.459 1450.39 498.269 1450.39 Z" fill="#000000" fill-rule="nonzero" fill-opacity="1" /><path clip-path="url(#clip320)" d="M518.431 1479.7 L523.315 1479.7 L523.315 1485.58 L518.431 1485.58 L518.431 1479.7 Z" fill="#000000" fill-rule="nonzero" fill-opacity="1" /><path clip-path="url(#clip320)" d="M533.546 1451.02 L551.903 1451.02 L551.903 1454.96 L537.829 1454.96 L537.829 1463.43 Q538.847 1463.08 539.866 1462.92 Q540.884 1462.73 541.903 1462.73 Q547.69 1462.73 551.069 1465.9 Q554.449 1469.08 554.449 1474.49 Q554.449 1480.07 550.977 1483.17 Q547.505 1486.25 541.185 1486.25 Q539.009 1486.25 536.741 1485.88 Q534.495 1485.51 532.088 1484.77 L532.088 1480.07 Q534.171 1481.2 536.394 1481.76 Q538.616 1482.32 541.093 1482.32 Q545.097 1482.32 547.435 1480.21 Q549.773 1478.1 549.773 1474.49 Q549.773 1470.88 547.435 1468.77 Q545.097 1466.67 541.093 1466.67 Q539.218 1466.67 537.343 1467.08 Q535.491 1467.5 533.546 1468.38 L533.546 1451.02 Z" fill="#000000" fill-rule="nonzero" fill-opacity="1" /><path clip-path="url(#clip320)" d="M841.689 1481.64 L849.328 1481.64 L849.328 1455.28 L841.018 1456.95 L841.018 1452.69 L849.282 1451.02 L853.958 1451.02 L853.958 1481.64 L861.596 1481.64 L861.596 1485.58 L841.689 1485.58 L841.689 1481.64 Z" fill="#000000" fill-rule="nonzero" fill-opacity="1" /><path clip-path="url(#clip320)" d="M871.041 1479.7 L875.925 1479.7 L875.925 1485.58 L871.041 1485.58 L871.041 1479.7 Z" fill="#000000" fill-rule="nonzero" fill-opacity="1" /><path clip-path="url(#clip320)" d="M896.11 1454.1 Q892.499 1454.1 890.67 1457.66 Q888.865 1461.2 888.865 1468.33 Q888.865 1475.44 890.67 1479.01 Q892.499 1482.55 896.11 1482.55 Q899.744 1482.55 901.55 1479.01 Q903.379 1475.44 903.379 1468.33 Q903.379 1461.2 901.55 1457.66 Q899.744 1454.1 896.11 1454.1 M896.11 1450.39 Q901.92 1450.39 904.976 1455 Q908.055 1459.58 908.055 1468.33 Q908.055 1477.06 904.976 1481.67 Q901.92 1486.25 896.11 1486.25 Q890.3 1486.25 887.221 1481.67 Q884.166 1477.06 884.166 1468.33 Q884.166 1459.58 887.221 1455 Q890.3 1450.39 896.11 1450.39 Z" fill="#000000" fill-rule="nonzero" fill-opacity="1" /><path clip-path="url(#clip320)" d="M1196.34 1481.64 L1203.98 1481.64 L1203.98 1455.28 L1195.66 1456.95 L1195.66 1452.69 L1203.93 1451.02 L1208.6 1451.02 L1208.6 1481.64 L1216.24 1481.64 L1216.24 1485.58 L1196.34 1485.58 L1196.34 1481.64 Z" fill="#000000" fill-rule="nonzero" fill-opacity="1" /><path clip-path="url(#clip320)" d="M1225.69 1479.7 L1230.57 1479.7 L1230.57 1485.58 L1225.69 1485.58 L1225.69 1479.7 Z" fill="#000000" fill-rule="nonzero" fill-opacity="1" /><path clip-path="url(#clip320)" d="M1240.8 1451.02 L1259.16 1451.02 L1259.16 1454.96 L1245.09 1454.96 L1245.09 1463.43 Q1246.1 1463.08 1247.12 1462.92 Q1248.14 1462.73 1249.16 1462.73 Q1254.95 1462.73 1258.33 1465.9 Q1261.71 1469.08 1261.71 1474.49 Q1261.71 1480.07 1258.23 1483.17 Q1254.76 1486.25 1248.44 1486.25 Q1246.27 1486.25 1244 1485.88 Q1241.75 1485.51 1239.35 1484.77 L1239.35 1480.07 Q1241.43 1481.2 1243.65 1481.76 Q1245.87 1482.32 1248.35 1482.32 Q1252.35 1482.32 1254.69 1480.21 Q1257.03 1478.1 1257.03 1474.49 Q1257.03 1470.88 1254.69 1468.77 Q1252.35 1466.67 1248.35 1466.67 Q1246.47 1466.67 1244.6 1467.08 Q1242.75 1467.5 1240.8 1468.38 L1240.8 1451.02 Z" fill="#000000" fill-rule="nonzero" fill-opacity="1" /><path clip-path="url(#clip320)" d="M1554.07 1481.64 L1570.39 1481.64 L1570.39 1485.58 L1548.45 1485.58 L1548.45 1481.64 Q1551.11 1478.89 1555.69 1474.26 Q1560.3 1469.61 1561.48 1468.27 Q1563.73 1465.74 1564.61 1464.01 Q1565.51 1462.25 1565.51 1460.56 Q1565.51 1457.8 1563.56 1456.07 Q1561.64 1454.33 1558.54 1454.33 Q1556.34 1454.33 1553.89 1455.09 Q1551.46 1455.86 1548.68 1457.41 L1548.68 1452.69 Q1551.5 1451.55 1553.96 1450.97 Q1556.41 1450.39 1558.45 1450.39 Q1563.82 1450.39 1567.01 1453.08 Q1570.21 1455.77 1570.21 1460.26 Q1570.21 1462.39 1569.4 1464.31 Q1568.61 1466.2 1566.5 1468.8 Q1565.93 1469.47 1562.82 1472.69 Q1559.72 1475.88 1554.07 1481.64 Z" fill="#000000" fill-rule="nonzero" fill-opacity="1" /><path clip-path="url(#clip320)" d="M1580.21 1479.7 L1585.09 1479.7 L1585.09 1485.58 L1580.21 1485.58 L1580.21 1479.7 Z" fill="#000000" fill-rule="nonzero" fill-opacity="1" /><path clip-path="url(#clip320)" d="M1605.28 1454.1 Q1601.67 1454.1 1599.84 1457.66 Q1598.03 1461.2 1598.03 1468.33 Q1598.03 1475.44 1599.84 1479.01 Q1601.67 1482.55 1605.28 1482.55 Q1608.91 1482.55 1610.72 1479.01 Q1612.55 1475.44 1612.55 1468.33 Q1612.55 1461.2 1610.72 1457.66 Q1608.91 1454.1 1605.28 1454.1 M1605.28 1450.39 Q1611.09 1450.39 1614.14 1455 Q1617.22 1459.58 1617.22 1468.33 Q1617.22 1477.06 1614.14 1481.67 Q1611.09 1486.25 1605.28 1486.25 Q1599.47 1486.25 1596.39 1481.67 Q1593.33 1477.06 1593.33 1468.33 Q1593.33 1459.58 1596.39 1455 Q1599.47 1450.39 1605.28 1450.39 Z" fill="#000000" fill-rule="nonzero" fill-opacity="1" /><path clip-path="url(#clip320)" d="M1908.72 1481.64 L1925.04 1481.64 L1925.04 1485.58 L1903.1 1485.58 L1903.1 1481.64 Q1905.76 1478.89 1910.34 1474.26 Q1914.95 1469.61 1916.13 1468.27 Q1918.37 1465.74 1919.25 1464.01 Q1920.16 1462.25 1920.16 1460.56 Q1920.16 1457.8 1918.21 1456.07 Q1916.29 1454.33 1913.19 1454.33 Q1910.99 1454.33 1908.54 1455.09 Q1906.11 1455.86 1903.33 1457.41 L1903.33 1452.69 Q1906.15 1451.55 1908.6 1450.97 Q1911.06 1450.39 1913.1 1450.39 Q1918.47 1450.39 1921.66 1453.08 Q1924.85 1455.77 1924.85 1460.26 Q1924.85 1462.39 1924.04 1464.31 Q1923.26 1466.2 1921.15 1468.8 Q1920.57 1469.47 1917.47 1472.69 Q1914.37 1475.88 1908.72 1481.64 Z" fill="#000000" fill-rule="nonzero" fill-opacity="1" /><path clip-path="url(#clip320)" d="M1934.85 1479.7 L1939.74 1479.7 L1939.74 1485.58 L1934.85 1485.58 L1934.85 1479.7 Z" fill="#000000" fill-rule="nonzero" fill-opacity="1" /><path clip-path="url(#clip320)" d="M1949.97 1451.02 L1968.33 1451.02 L1968.33 1454.96 L1954.25 1454.96 L1954.25 1463.43 Q1955.27 1463.08 1956.29 1462.92 Q1957.31 1462.73 1958.33 1462.73 Q1964.11 1462.73 1967.49 1465.9 Q1970.87 1469.08 1970.87 1474.49 Q1970.87 1480.07 1967.4 1483.17 Q1963.93 1486.25 1957.61 1486.25 Q1955.43 1486.25 1953.16 1485.88 Q1950.92 1485.51 1948.51 1484.77 L1948.51 1480.07 Q1950.6 1481.2 1952.82 1481.76 Q1955.04 1482.32 1957.52 1482.32 Q1961.52 1482.32 1963.86 1480.21 Q1966.2 1478.1 1966.2 1474.49 Q1966.2 1470.88 1963.86 1468.77 Q1961.52 1466.67 1957.52 1466.67 Q1955.64 1466.67 1953.77 1467.08 Q1951.91 1467.5 1949.97 1468.38 L1949.97 1451.02 Z" fill="#000000" fill-rule="nonzero" fill-opacity="1" /><path clip-path="url(#clip320)" d="M2272.44 1466.95 Q2275.8 1467.66 2277.67 1469.93 Q2279.57 1472.2 2279.57 1475.53 Q2279.57 1480.65 2276.05 1483.45 Q2272.53 1486.25 2266.05 1486.25 Q2263.88 1486.25 2261.56 1485.81 Q2259.27 1485.39 2256.82 1484.54 L2256.82 1480.02 Q2258.76 1481.16 2261.08 1481.74 Q2263.39 1482.32 2265.91 1482.32 Q2270.31 1482.32 2272.6 1480.58 Q2274.92 1478.84 2274.92 1475.53 Q2274.92 1472.48 2272.77 1470.77 Q2270.64 1469.03 2266.82 1469.03 L2262.79 1469.03 L2262.79 1465.19 L2267 1465.19 Q2270.45 1465.19 2272.28 1463.82 Q2274.11 1462.43 2274.11 1459.84 Q2274.11 1457.18 2272.21 1455.77 Q2270.34 1454.33 2266.82 1454.33 Q2264.9 1454.33 2262.7 1454.75 Q2260.5 1455.16 2257.86 1456.04 L2257.86 1451.88 Q2260.52 1451.14 2262.84 1450.77 Q2265.17 1450.39 2267.23 1450.39 Q2272.56 1450.39 2275.66 1452.83 Q2278.76 1455.23 2278.76 1459.35 Q2278.76 1462.22 2277.12 1464.21 Q2275.47 1466.18 2272.44 1466.95 Z" fill="#000000" fill-rule="nonzero" fill-opacity="1" /><path clip-path="url(#clip320)" d="M2288.44 1479.7 L2293.32 1479.7 L2293.32 1485.58 L2288.44 1485.58 L2288.44 1479.7 Z" fill="#000000" fill-rule="nonzero" fill-opacity="1" /><path clip-path="url(#clip320)" d="M2313.51 1454.1 Q2309.9 1454.1 2308.07 1457.66 Q2306.26 1461.2 2306.26 1468.33 Q2306.26 1475.44 2308.07 1479.01 Q2309.9 1482.55 2313.51 1482.55 Q2317.14 1482.55 2318.95 1479.01 Q2320.77 1475.44 2320.77 1468.33 Q2320.77 1461.2 2318.95 1457.66 Q2317.14 1454.1 2313.51 1454.1 M2313.51 1450.39 Q2319.32 1450.39 2322.37 1455 Q2325.45 1459.58 2325.45 1468.33 Q2325.45 1477.06 2322.37 1481.67 Q2319.32 1486.25 2313.51 1486.25 Q2307.7 1486.25 2304.62 1481.67 Q2301.56 1477.06 2301.56 1468.33 Q2301.56 1459.58 2304.62 1455 Q2307.7 1450.39 2313.51 1450.39 Z" fill="#000000" fill-rule="nonzero" fill-opacity="1" /><path clip-path="url(#clip320)" d="M1086.5 1526.86 L1077.78 1550.51 L1095.25 1550.51 L1086.5 1526.86 M1082.87 1520.52 L1090.16 1520.52 L1108.27 1568.04 L1101.58 1568.04 L1097.26 1555.85 L1075.83 1555.85 L1071.51 1568.04 L1064.73 1568.04 L1082.87 1520.52 Z" fill="#000000" fill-rule="nonzero" fill-opacity="1" /><path clip-path="url(#clip320)" d="M1144.58 1546.53 L1144.58 1568.04 L1138.73 1568.04 L1138.73 1546.72 Q1138.73 1541.66 1136.75 1539.14 Q1134.78 1536.63 1130.83 1536.63 Q1126.09 1536.63 1123.35 1539.65 Q1120.62 1542.68 1120.62 1547.9 L1120.62 1568.04 L1114.73 1568.04 L1114.73 1532.4 L1120.62 1532.4 L1120.62 1537.93 Q1122.72 1534.72 1125.55 1533.13 Q1128.42 1531.54 1132.14 1531.54 Q1138.28 1531.54 1141.43 1535.36 Q1144.58 1539.14 1144.58 1546.53 Z" fill="#000000" fill-rule="nonzero" fill-opacity="1" /><path clip-path="url(#clip320)" d="M1179.72 1549.81 Q1179.72 1543.44 1177.08 1539.94 Q1174.47 1536.44 1169.73 1536.44 Q1165.02 1536.44 1162.38 1539.94 Q1159.77 1543.44 1159.77 1549.81 Q1159.77 1556.14 1162.38 1559.64 Q1165.02 1563.14 1169.73 1563.14 Q1174.47 1563.14 1177.08 1559.64 Q1179.72 1556.14 1179.72 1549.81 M1185.58 1563.62 Q1185.58 1572.72 1181.54 1577.15 Q1177.5 1581.6 1169.16 1581.6 Q1166.07 1581.6 1163.33 1581.13 Q1160.59 1580.68 1158.02 1579.72 L1158.02 1574.03 Q1160.59 1575.43 1163.11 1576.1 Q1165.62 1576.76 1168.23 1576.76 Q1173.99 1576.76 1176.86 1573.74 Q1179.72 1570.75 1179.72 1564.67 L1179.72 1561.77 Q1177.91 1564.92 1175.08 1566.48 Q1172.24 1568.04 1168.3 1568.04 Q1161.74 1568.04 1157.73 1563.05 Q1153.72 1558.05 1153.72 1549.81 Q1153.72 1541.53 1157.73 1536.53 Q1161.74 1531.54 1168.3 1531.54 Q1172.24 1531.54 1175.08 1533.1 Q1177.91 1534.66 1179.72 1537.81 L1179.72 1532.4 L1185.58 1532.4 L1185.58 1563.62 Z" fill="#000000" fill-rule="nonzero" fill-opacity="1" /><path clip-path="url(#clip320)" d="M1211.46 1536.5 Q1206.75 1536.5 1204.01 1540.19 Q1201.27 1543.85 1201.27 1550.25 Q1201.27 1556.65 1203.98 1560.34 Q1206.71 1564 1211.46 1564 Q1216.13 1564 1218.87 1560.31 Q1221.61 1556.62 1221.61 1550.25 Q1221.61 1543.92 1218.87 1540.23 Q1216.13 1536.5 1211.46 1536.5 M1211.46 1531.54 Q1219.1 1531.54 1223.46 1536.5 Q1227.82 1541.47 1227.82 1550.25 Q1227.82 1559 1223.46 1564 Q1219.1 1568.97 1211.46 1568.97 Q1203.79 1568.97 1199.42 1564 Q1195.1 1559 1195.1 1550.25 Q1195.1 1541.47 1199.42 1536.5 Q1203.79 1531.54 1211.46 1531.54 Z" fill="#000000" fill-rule="nonzero" fill-opacity="1" /><path clip-path="url(#clip320)" d="M1237.52 1518.52 L1243.38 1518.52 L1243.38 1568.04 L1237.52 1568.04 L1237.52 1518.52 Z" fill="#000000" fill-rule="nonzero" fill-opacity="1" /><path clip-path="url(#clip320)" d="M1269.45 1536.5 Q1264.74 1536.5 1262 1540.19 Q1259.26 1543.85 1259.26 1550.25 Q1259.26 1556.65 1261.97 1560.34 Q1264.71 1564 1269.45 1564 Q1274.13 1564 1276.86 1560.31 Q1279.6 1556.62 1279.6 1550.25 Q1279.6 1543.92 1276.86 1540.23 Q1274.13 1536.5 1269.45 1536.5 M1269.45 1531.54 Q1277.09 1531.54 1281.45 1536.5 Q1285.81 1541.47 1285.81 1550.25 Q1285.81 1559 1281.45 1564 Q1277.09 1568.97 1269.45 1568.97 Q1261.78 1568.97 1257.42 1564 Q1253.09 1559 1253.09 1550.25 Q1253.09 1541.47 1257.42 1536.5 Q1261.78 1531.54 1269.45 1531.54 Z" fill="#000000" fill-rule="nonzero" fill-opacity="1" /><path clip-path="url(#clip320)" d="M1315.69 1518.52 L1329.19 1518.52 L1329.19 1523.07 L1321.55 1523.07 L1321.55 1572.09 L1329.19 1572.09 L1329.19 1576.64 L1315.69 1576.64 L1315.69 1518.52 Z" fill="#000000" fill-rule="nonzero" fill-opacity="1" /><path clip-path="url(#clip320)" d="M1362.32 1537.87 Q1361.34 1537.3 1360.16 1537.04 Q1359.01 1536.76 1357.61 1536.76 Q1352.65 1536.76 1349.97 1540 Q1347.33 1543.22 1347.33 1549.27 L1347.33 1568.04 L1341.44 1568.04 L1341.44 1532.4 L1347.33 1532.4 L1347.33 1537.93 Q1349.18 1534.69 1352.14 1533.13 Q1355.1 1531.54 1359.33 1531.54 Q1359.94 1531.54 1360.67 1531.63 Q1361.4 1531.7 1362.29 1531.85 L1362.32 1537.87 Z" fill="#000000" fill-rule="nonzero" fill-opacity="1" /><path clip-path="url(#clip320)" d="M1384.67 1550.12 Q1377.57 1550.12 1374.83 1551.75 Q1372.09 1553.37 1372.09 1557.29 Q1372.09 1560.4 1374.13 1562.25 Q1376.2 1564.07 1379.73 1564.07 Q1384.6 1564.07 1387.53 1560.63 Q1390.49 1557.16 1390.49 1551.43 L1390.49 1550.12 L1384.67 1550.12 M1396.35 1547.71 L1396.35 1568.04 L1390.49 1568.04 L1390.49 1562.63 Q1388.49 1565.88 1385.49 1567.44 Q1382.5 1568.97 1378.17 1568.97 Q1372.7 1568.97 1369.45 1565.91 Q1366.24 1562.82 1366.24 1557.67 Q1366.24 1551.65 1370.25 1548.6 Q1374.29 1545.54 1382.28 1545.54 L1390.49 1545.54 L1390.49 1544.97 Q1390.49 1540.93 1387.82 1538.73 Q1385.18 1536.5 1380.37 1536.5 Q1377.31 1536.5 1374.42 1537.23 Q1371.52 1537.97 1368.85 1539.43 L1368.85 1534.02 Q1372.06 1532.78 1375.09 1532.17 Q1378.11 1531.54 1380.97 1531.54 Q1388.71 1531.54 1392.53 1535.55 Q1396.35 1539.56 1396.35 1547.71 Z" fill="#000000" fill-rule="nonzero" fill-opacity="1" /><path clip-path="url(#clip320)" d="M1431.87 1537.81 L1431.87 1518.52 L1437.73 1518.52 L1437.73 1568.04 L1431.87 1568.04 L1431.87 1562.7 Q1430.02 1565.88 1427.19 1567.44 Q1424.39 1568.97 1420.44 1568.97 Q1413.98 1568.97 1409.91 1563.81 Q1405.86 1558.65 1405.86 1550.25 Q1405.86 1541.85 1409.91 1536.69 Q1413.98 1531.54 1420.44 1531.54 Q1424.39 1531.54 1427.19 1533.1 Q1430.02 1534.62 1431.87 1537.81 M1411.91 1550.25 Q1411.91 1556.71 1414.55 1560.4 Q1417.23 1564.07 1421.87 1564.07 Q1426.52 1564.07 1429.2 1560.4 Q1431.87 1556.71 1431.87 1550.25 Q1431.87 1543.79 1429.2 1540.13 Q1426.52 1536.44 1421.87 1536.44 Q1417.23 1536.44 1414.55 1540.13 Q1411.91 1543.79 1411.91 1550.25 Z" fill="#000000" fill-rule="nonzero" fill-opacity="1" /><path clip-path="url(#clip320)" d="M1463.47 1518.52 L1463.47 1576.64 L1449.98 1576.64 L1449.98 1572.09 L1457.59 1572.09 L1457.59 1523.07 L1449.98 1523.07 L1449.98 1518.52 L1463.47 1518.52 Z" fill="#000000" fill-rule="nonzero" fill-opacity="1" /><polyline clip-path="url(#clip320)" style="stroke:#000000; stroke-linecap:round; stroke-linejoin:round; stroke-width:4; stroke-opacity:1; fill:none" points="175.445,1423.18 175.445,47.2441 "/>
<polyline clip-path="url(#clip320)" style="stroke:#000000; stroke-linecap:round; stroke-linejoin:round; stroke-width:4; stroke-opacity:1; fill:none" points="175.445,1387.25 194.343,1387.25 "/>
<polyline clip-path="url(#clip320)" style="stroke:#000000; stroke-linecap:round; stroke-linejoin:round; stroke-width:4; stroke-opacity:1; fill:none" points="175.445,975.272 194.343,975.272 "/>
<polyline clip-path="url(#clip320)" style="stroke:#000000; stroke-linecap:round; stroke-linejoin:round; stroke-width:4; stroke-opacity:1; fill:none" points="175.445,563.289 194.343,563.289 "/>
<polyline clip-path="url(#clip320)" style="stroke:#000000; stroke-linecap:round; stroke-linejoin:round; stroke-width:4; stroke-opacity:1; fill:none" points="175.445,151.307 194.343,151.307 "/>
<path clip-path="url(#clip320)" d="M123.126 1400.6 L139.445 1400.6 L139.445 1404.53 L117.501 1404.53 L117.501 1400.6 Q120.163 1397.84 124.746 1393.22 Q129.353 1388.56 130.533 1387.22 Q132.779 1384.7 133.658 1382.96 Q134.561 1381.2 134.561 1379.51 Q134.561 1376.76 132.617 1375.02 Q130.695 1373.28 127.593 1373.28 Q125.394 1373.28 122.941 1374.05 Q120.51 1374.81 117.732 1376.36 L117.732 1371.64 Q120.556 1370.51 123.01 1369.93 Q125.464 1369.35 127.501 1369.35 Q132.871 1369.35 136.066 1372.03 Q139.26 1374.72 139.26 1379.21 Q139.26 1381.34 138.45 1383.26 Q137.663 1385.16 135.556 1387.75 Q134.978 1388.42 131.876 1391.64 Q128.774 1394.84 123.126 1400.6 Z" fill="#000000" fill-rule="nonzero" fill-opacity="1" /><path clip-path="url(#clip320)" d="M132.316 973.918 Q135.672 974.635 137.547 976.904 Q139.445 979.172 139.445 982.506 Q139.445 987.621 135.927 990.422 Q132.408 993.223 125.927 993.223 Q123.751 993.223 121.436 992.783 Q119.144 992.367 116.691 991.51 L116.691 986.996 Q118.635 988.131 120.95 988.709 Q123.265 989.288 125.788 989.288 Q130.186 989.288 132.478 987.552 Q134.792 985.816 134.792 982.506 Q134.792 979.45 132.64 977.737 Q130.51 976.001 126.691 976.001 L122.663 976.001 L122.663 972.158 L126.876 972.158 Q130.325 972.158 132.154 970.793 Q133.982 969.404 133.982 966.811 Q133.982 964.149 132.084 962.737 Q130.209 961.302 126.691 961.302 Q124.769 961.302 122.57 961.719 Q120.371 962.135 117.732 963.015 L117.732 958.848 Q120.394 958.108 122.709 957.737 Q125.047 957.367 127.107 957.367 Q132.431 957.367 135.533 959.797 Q138.635 962.205 138.635 966.325 Q138.635 969.196 136.992 971.186 Q135.348 973.154 132.316 973.918 Z" fill="#000000" fill-rule="nonzero" fill-opacity="1" /><path clip-path="url(#clip320)" d="M129.862 550.083 L118.056 568.532 L129.862 568.532 L129.862 550.083 M128.635 546.009 L134.515 546.009 L134.515 568.532 L139.445 568.532 L139.445 572.421 L134.515 572.421 L134.515 580.569 L129.862 580.569 L129.862 572.421 L114.26 572.421 L114.26 567.907 L128.635 546.009 Z" fill="#000000" fill-rule="nonzero" fill-opacity="1" /><path clip-path="url(#clip320)" d="M118.543 134.027 L136.899 134.027 L136.899 137.962 L122.825 137.962 L122.825 146.434 Q123.843 146.087 124.862 145.925 Q125.88 145.739 126.899 145.739 Q132.686 145.739 136.066 148.911 Q139.445 152.082 139.445 157.499 Q139.445 163.077 135.973 166.179 Q132.501 169.258 126.181 169.258 Q124.005 169.258 121.737 168.887 Q119.492 168.517 117.084 167.776 L117.084 163.077 Q119.168 164.212 121.39 164.767 Q123.612 165.323 126.089 165.323 Q130.093 165.323 132.431 163.216 Q134.769 161.11 134.769 157.499 Q134.769 153.888 132.431 151.781 Q130.093 149.675 126.089 149.675 Q124.214 149.675 122.339 150.091 Q120.487 150.508 118.543 151.388 L118.543 134.027 Z" fill="#000000" fill-rule="nonzero" fill-opacity="1" /><path clip-path="url(#clip320)" d="M21.7677 897.124 L39.6235 897.124 L39.6235 889.039 Q39.6235 884.551 37.3 882.101 Q34.9765 879.65 30.6797 879.65 Q26.4147 879.65 24.0912 882.101 Q21.7677 884.551 21.7677 889.039 L21.7677 897.124 M16.4842 903.553 L16.4842 889.039 Q16.4842 881.05 20.1126 876.976 Q23.7092 872.87 30.6797 872.87 Q37.7138 872.87 41.3104 876.976 Q44.907 881.05 44.907 889.039 L44.907 897.124 L64.0042 897.124 L64.0042 903.553 L16.4842 903.553 Z" fill="#000000" fill-rule="nonzero" fill-opacity="1" /><path clip-path="url(#clip320)" d="M44.7161 836.331 L47.5806 836.331 L47.5806 863.258 Q53.6281 862.876 56.8109 859.63 Q59.9619 856.351 59.9619 850.527 Q59.9619 847.153 59.1344 844.002 Q58.3069 840.819 56.6518 837.7 L62.1899 837.7 Q63.5267 840.851 64.227 844.161 Q64.9272 847.471 64.9272 850.877 Q64.9272 859.407 59.9619 864.404 Q54.9967 869.369 46.5303 869.369 Q37.7774 869.369 32.6531 864.659 Q27.4968 859.916 27.4968 851.895 Q27.4968 844.702 32.1438 840.533 Q36.7589 836.331 44.7161 836.331 M42.9973 842.188 Q38.1912 842.251 35.3266 844.893 Q32.4621 847.503 32.4621 851.832 Q32.4621 856.733 35.2312 859.693 Q38.0002 862.622 43.0292 863.067 L42.9973 842.188 Z" fill="#000000" fill-rule="nonzero" fill-opacity="1" /><path clip-path="url(#clip320)" d="M33.8307 806.062 Q33.2578 807.049 33.0032 808.227 Q32.7167 809.372 32.7167 810.773 Q32.7167 815.738 35.9632 818.412 Q39.1779 821.054 45.2253 821.054 L64.0042 821.054 L64.0042 826.942 L28.3562 826.942 L28.3562 821.054 L33.8944 821.054 Q30.6479 819.207 29.0883 816.247 Q27.4968 813.287 27.4968 809.054 Q27.4968 808.449 27.5923 807.717 Q27.656 806.985 27.8151 806.094 L33.8307 806.062 Z" fill="#000000" fill-rule="nonzero" fill-opacity="1" /><path clip-path="url(#clip320)" d="M28.3562 799.919 L28.3562 794.063 L64.0042 794.063 L64.0042 799.919 L28.3562 799.919 M14.479 799.919 L14.479 794.063 L21.895 794.063 L21.895 799.919 L14.479 799.919 Z" fill="#000000" fill-rule="nonzero" fill-opacity="1" /><path clip-path="url(#clip320)" d="M32.4621 767.995 Q32.4621 772.706 36.1542 775.443 Q39.8145 778.18 46.212 778.18 Q52.6095 778.18 56.3017 775.475 Q59.9619 772.738 59.9619 767.995 Q59.9619 763.317 56.2698 760.579 Q52.5777 757.842 46.212 757.842 Q39.8781 757.842 36.186 760.579 Q32.4621 763.317 32.4621 767.995 M27.4968 767.995 Q27.4968 760.357 32.4621 755.996 Q37.4273 751.635 46.212 751.635 Q54.9649 751.635 59.9619 755.996 Q64.9272 760.357 64.9272 767.995 Q64.9272 775.666 59.9619 780.027 Q54.9649 784.355 46.212 784.355 Q37.4273 784.355 32.4621 780.027 Q27.4968 775.666 27.4968 767.995 Z" fill="#000000" fill-rule="nonzero" fill-opacity="1" /><path clip-path="url(#clip320)" d="M33.7671 718.47 L14.479 718.47 L14.479 712.614 L64.0042 712.614 L64.0042 718.47 L58.657 718.47 Q61.8398 720.316 63.3994 723.149 Q64.9272 725.95 64.9272 729.897 Q64.9272 736.358 59.771 740.432 Q54.6147 744.474 46.212 744.474 Q37.8093 744.474 32.6531 740.432 Q27.4968 736.358 27.4968 729.897 Q27.4968 725.95 29.0564 723.149 Q30.5842 720.316 33.7671 718.47 M46.212 738.427 Q52.6732 738.427 56.3653 735.785 Q60.0256 733.111 60.0256 728.464 Q60.0256 723.817 56.3653 721.144 Q52.6732 718.47 46.212 718.47 Q39.7508 718.47 36.0905 721.144 Q32.3984 723.817 32.3984 728.464 Q32.3984 733.111 36.0905 735.785 Q39.7508 738.427 46.212 738.427 Z" fill="#000000" fill-rule="nonzero" fill-opacity="1" /><path clip-path="url(#clip320)" d="M32.4621 686.737 Q32.4621 691.448 36.1542 694.185 Q39.8145 696.922 46.212 696.922 Q52.6095 696.922 56.3017 694.217 Q59.9619 691.48 59.9619 686.737 Q59.9619 682.058 56.2698 679.321 Q52.5777 676.584 46.212 676.584 Q39.8781 676.584 36.186 679.321 Q32.4621 682.058 32.4621 686.737 M27.4968 686.737 Q27.4968 679.098 32.4621 674.738 Q37.4273 670.377 46.212 670.377 Q54.9649 670.377 59.9619 674.738 Q64.9272 679.098 64.9272 686.737 Q64.9272 694.408 59.9619 698.768 Q54.9649 703.097 46.212 703.097 Q37.4273 703.097 32.4621 698.768 Q27.4968 694.408 27.4968 686.737 Z" fill="#000000" fill-rule="nonzero" fill-opacity="1" /><path clip-path="url(#clip320)" d="M14.479 640.49 L14.479 626.995 L19.0304 626.995 L19.0304 634.634 L68.0464 634.634 L68.0464 626.995 L72.5979 626.995 L72.5979 640.49 L14.479 640.49 Z" fill="#000000" fill-rule="nonzero" fill-opacity="1" /><path clip-path="url(#clip320)" d="M29.4065 591.793 L34.9447 591.793 Q33.6716 594.275 33.035 596.949 Q32.3984 599.622 32.3984 602.487 Q32.3984 606.847 33.7352 609.044 Q35.072 611.208 37.7456 611.208 Q39.7826 611.208 40.9603 609.648 Q42.1061 608.089 43.1565 603.378 L43.6021 601.373 Q44.9389 595.135 47.3897 592.525 Q49.8086 589.883 54.1691 589.883 Q59.1344 589.883 62.0308 593.83 Q64.9272 597.745 64.9272 604.619 Q64.9272 607.484 64.3543 610.603 Q63.8132 613.691 62.6992 617.128 L56.6518 617.128 Q58.3387 613.882 59.198 610.731 Q60.0256 607.58 60.0256 604.492 Q60.0256 600.354 58.6251 598.126 Q57.1929 595.898 54.6147 595.898 Q52.2276 595.898 50.9545 597.522 Q49.6813 599.113 48.5037 604.556 L48.0262 606.593 Q46.8804 612.036 44.5251 614.455 Q42.138 616.873 38.0002 616.873 Q32.9713 616.873 30.2341 613.309 Q27.4968 609.744 27.4968 603.187 Q27.4968 599.941 27.9743 597.076 Q28.4517 594.212 29.4065 591.793 Z" fill="#000000" fill-rule="nonzero" fill-opacity="1" /><path clip-path="url(#clip320)" d="M14.479 566.871 L72.5979 566.871 L72.5979 580.366 L68.0464 580.366 L68.0464 572.759 L19.0304 572.759 L19.0304 580.366 L14.479 580.366 L14.479 566.871 Z" fill="#000000" fill-rule="nonzero" fill-opacity="1" /><polyline clip-path="url(#clip322)" style="stroke:#009af9; stroke-linecap:round; stroke-linejoin:round; stroke-width:4; stroke-opacity:1; fill:none" points="237.067,1384.24 307.897,1382.68 378.727,1380.08 449.557,1376.41 520.387,1371.65 591.217,1365.77 662.047,1358.71 732.876,1350.43 803.706,1340.86 874.536,1329.93 945.366,1317.54 1016.2,1303.59 1087.03,1287.94 1157.86,1270.43 1228.69,1250.89 1299.52,1229.1 1370.35,1204.77 1441.18,1177.59 1512.01,1147.14 1582.84,1112.93 1653.66,1074.29 1724.49,1030.38 1795.32,980.065 1866.15,921.799 1936.98,853.353 2007.81,771.376 2078.64,670.476 2149.47,541.097 2220.3,363.65 2291.13,86.1857 "/>
<circle clip-path="url(#clip322)" cx="237.067" cy="1384.24" r="14.4" fill="#e26f46" fill-rule="evenodd" fill-opacity="1" stroke="#000000" stroke-opacity="1" stroke-width="3.2"/>
<circle clip-path="url(#clip322)" cx="307.897" cy="1382.68" r="14.4" fill="#e26f46" fill-rule="evenodd" fill-opacity="1" stroke="#000000" stroke-opacity="1" stroke-width="3.2"/>
<circle clip-path="url(#clip322)" cx="378.727" cy="1380.08" r="14.4" fill="#e26f46" fill-rule="evenodd" fill-opacity="1" stroke="#000000" stroke-opacity="1" stroke-width="3.2"/>
<circle clip-path="url(#clip322)" cx="449.557" cy="1376.41" r="14.4" fill="#e26f46" fill-rule="evenodd" fill-opacity="1" stroke="#000000" stroke-opacity="1" stroke-width="3.2"/>
<circle clip-path="url(#clip322)" cx="520.387" cy="1371.65" r="14.4" fill="#e26f46" fill-rule="evenodd" fill-opacity="1" stroke="#000000" stroke-opacity="1" stroke-width="3.2"/>
<circle clip-path="url(#clip322)" cx="591.217" cy="1365.77" r="14.4" fill="#e26f46" fill-rule="evenodd" fill-opacity="1" stroke="#000000" stroke-opacity="1" stroke-width="3.2"/>
<circle clip-path="url(#clip322)" cx="662.047" cy="1358.71" r="14.4" fill="#e26f46" fill-rule="evenodd" fill-opacity="1" stroke="#000000" stroke-opacity="1" stroke-width="3.2"/>
<circle clip-path="url(#clip322)" cx="732.876" cy="1350.43" r="14.4" fill="#e26f46" fill-rule="evenodd" fill-opacity="1" stroke="#000000" stroke-opacity="1" stroke-width="3.2"/>
<circle clip-path="url(#clip322)" cx="803.706" cy="1340.86" r="14.4" fill="#e26f46" fill-rule="evenodd" fill-opacity="1" stroke="#000000" stroke-opacity="1" stroke-width="3.2"/>
<circle clip-path="url(#clip322)" cx="874.536" cy="1329.93" r="14.4" fill="#e26f46" fill-rule="evenodd" fill-opacity="1" stroke="#000000" stroke-opacity="1" stroke-width="3.2"/>
<circle clip-path="url(#clip322)" cx="945.366" cy="1317.54" r="14.4" fill="#e26f46" fill-rule="evenodd" fill-opacity="1" stroke="#000000" stroke-opacity="1" stroke-width="3.2"/>
<circle clip-path="url(#clip322)" cx="1016.2" cy="1303.59" r="14.4" fill="#e26f46" fill-rule="evenodd" fill-opacity="1" stroke="#000000" stroke-opacity="1" stroke-width="3.2"/>
<circle clip-path="url(#clip322)" cx="1087.03" cy="1287.94" r="14.4" fill="#e26f46" fill-rule="evenodd" fill-opacity="1" stroke="#000000" stroke-opacity="1" stroke-width="3.2"/>
<circle clip-path="url(#clip322)" cx="1157.86" cy="1270.43" r="14.4" fill="#e26f46" fill-rule="evenodd" fill-opacity="1" stroke="#000000" stroke-opacity="1" stroke-width="3.2"/>
<circle clip-path="url(#clip322)" cx="1228.69" cy="1250.89" r="14.4" fill="#e26f46" fill-rule="evenodd" fill-opacity="1" stroke="#000000" stroke-opacity="1" stroke-width="3.2"/>
<circle clip-path="url(#clip322)" cx="1299.52" cy="1229.1" r="14.4" fill="#e26f46" fill-rule="evenodd" fill-opacity="1" stroke="#000000" stroke-opacity="1" stroke-width="3.2"/>
<circle clip-path="url(#clip322)" cx="1370.35" cy="1204.77" r="14.4" fill="#e26f46" fill-rule="evenodd" fill-opacity="1" stroke="#000000" stroke-opacity="1" stroke-width="3.2"/>
<circle clip-path="url(#clip322)" cx="1441.18" cy="1177.59" r="14.4" fill="#e26f46" fill-rule="evenodd" fill-opacity="1" stroke="#000000" stroke-opacity="1" stroke-width="3.2"/>
<circle clip-path="url(#clip322)" cx="1512.01" cy="1147.14" r="14.4" fill="#e26f46" fill-rule="evenodd" fill-opacity="1" stroke="#000000" stroke-opacity="1" stroke-width="3.2"/>
<circle clip-path="url(#clip322)" cx="1582.84" cy="1112.93" r="14.4" fill="#e26f46" fill-rule="evenodd" fill-opacity="1" stroke="#000000" stroke-opacity="1" stroke-width="3.2"/>
<circle clip-path="url(#clip322)" cx="1653.66" cy="1074.29" r="14.4" fill="#e26f46" fill-rule="evenodd" fill-opacity="1" stroke="#000000" stroke-opacity="1" stroke-width="3.2"/>
<circle clip-path="url(#clip322)" cx="1724.49" cy="1030.38" r="14.4" fill="#e26f46" fill-rule="evenodd" fill-opacity="1" stroke="#000000" stroke-opacity="1" stroke-width="3.2"/>
<circle clip-path="url(#clip322)" cx="1795.32" cy="980.065" r="14.4" fill="#e26f46" fill-rule="evenodd" fill-opacity="1" stroke="#000000" stroke-opacity="1" stroke-width="3.2"/>
<circle clip-path="url(#clip322)" cx="1866.15" cy="921.799" r="14.4" fill="#e26f46" fill-rule="evenodd" fill-opacity="1" stroke="#000000" stroke-opacity="1" stroke-width="3.2"/>
<circle clip-path="url(#clip322)" cx="1936.98" cy="853.353" r="14.4" fill="#e26f46" fill-rule="evenodd" fill-opacity="1" stroke="#000000" stroke-opacity="1" stroke-width="3.2"/>
<circle clip-path="url(#clip322)" cx="2007.81" cy="771.376" r="14.4" fill="#e26f46" fill-rule="evenodd" fill-opacity="1" stroke="#000000" stroke-opacity="1" stroke-width="3.2"/>
<circle clip-path="url(#clip322)" cx="2078.64" cy="670.476" r="14.4" fill="#e26f46" fill-rule="evenodd" fill-opacity="1" stroke="#000000" stroke-opacity="1" stroke-width="3.2"/>
<circle clip-path="url(#clip322)" cx="2149.47" cy="541.097" r="14.4" fill="#e26f46" fill-rule="evenodd" fill-opacity="1" stroke="#000000" stroke-opacity="1" stroke-width="3.2"/>
<circle clip-path="url(#clip322)" cx="2220.3" cy="363.65" r="14.4" fill="#e26f46" fill-rule="evenodd" fill-opacity="1" stroke="#000000" stroke-opacity="1" stroke-width="3.2"/>
<circle clip-path="url(#clip322)" cx="2291.13" cy="86.1857" r="14.4" fill="#e26f46" fill-rule="evenodd" fill-opacity="1" stroke="#000000" stroke-opacity="1" stroke-width="3.2"/>
</svg>
