<?xml version="1.0" encoding="utf-8"?>
<svg xmlns="http://www.w3.org/2000/svg" xmlns:xlink="http://www.w3.org/1999/xlink" width="600" height="400" viewBox="0 0 2400 1600">
<defs>
  <clipPath id="clip950">
    <rect x="0" y="0" width="2400" height="1600"/>
  </clipPath>
</defs>
<path clip-path="url(#clip950)" d="
M0 1600 L2400 1600 L2400 0 L0 0  Z
  " fill="#ffffff" fill-rule="evenodd" fill-opacity="1"/>
<defs>
  <clipPath id="clip951">
    <rect x="480" y="0" width="1681" height="1600"/>
  </clipPath>
</defs>
<path clip-path="url(#clip950)" d="
M276.876 1410.9 L2352.76 1410.9 L2352.76 47.2441 L276.876 47.2441  Z
  " fill="#ffffff" fill-rule="evenodd" fill-opacity="1"/>
<defs>
  <clipPath id="clip952">
    <rect x="276" y="47" width="2077" height="1365"/>
  </clipPath>
</defs>
<polyline clip-path="url(#clip952)" style="stroke:#000000; stroke-linecap:butt; stroke-linejoin:round; stroke-width:2; stroke-opacity:0.1; fill:none" points="
  335.627,1410.9 335.627,47.2441 
  "/>
<polyline clip-path="url(#clip952)" style="stroke:#000000; stroke-linecap:butt; stroke-linejoin:round; stroke-width:2; stroke-opacity:0.1; fill:none" points="
  1314.82,1410.9 1314.82,47.2441 
  "/>
<polyline clip-path="url(#clip952)" style="stroke:#000000; stroke-linecap:butt; stroke-linejoin:round; stroke-width:2; stroke-opacity:0.1; fill:none" points="
  2294,1410.9 2294,47.2441 
  "/>
<polyline clip-path="url(#clip950)" style="stroke:#000000; stroke-linecap:butt; stroke-linejoin:round; stroke-width:4; stroke-opacity:1; fill:none" points="
  276.876,1410.9 2352.76,1410.9 
  "/>
<polyline clip-path="url(#clip950)" style="stroke:#000000; stroke-linecap:butt; stroke-linejoin:round; stroke-width:4; stroke-opacity:1; fill:none" points="
  335.627,1410.9 335.627,1392 
  "/>
<polyline clip-path="url(#clip950)" style="stroke:#000000; stroke-linecap:butt; stroke-linejoin:round; stroke-width:4; stroke-opacity:1; fill:none" points="
  1314.82,1410.9 1314.82,1392 
  "/>
<polyline clip-path="url(#clip950)" style="stroke:#000000; stroke-linecap:butt; stroke-linejoin:round; stroke-width:4; stroke-opacity:1; fill:none" points="
  2294,1410.9 2294,1392 
  "/>
<path clip-path="url(#clip950)" d="M301.954 1485.02 L309.593 1485.02 L309.593 1458.66 L301.283 1460.32 L301.283 1456.06 L309.547 1454.4 L314.223 1454.4 L314.223 1485.02 L321.862 1485.02 L321.862 1488.96 L301.954 1488.96 L301.954 1485.02 Z" fill="#000000" fill-rule="evenodd" fill-opacity="1" /><path clip-path="url(#clip950)" d="M341.306 1457.48 Q337.695 1457.48 335.866 1461.04 Q334.061 1464.58 334.061 1471.71 Q334.061 1478.82 335.866 1482.38 Q337.695 1485.92 341.306 1485.92 Q344.94 1485.92 346.746 1482.38 Q348.575 1478.82 348.575 1471.71 Q348.575 1464.58 346.746 1461.04 Q344.94 1457.48 341.306 1457.48 M341.306 1453.77 Q347.116 1453.77 350.172 1458.38 Q353.25 1462.96 353.25 1471.71 Q353.25 1480.44 350.172 1485.04 Q347.116 1489.63 341.306 1489.63 Q335.496 1489.63 332.417 1485.04 Q329.362 1480.44 329.362 1471.71 Q329.362 1462.96 332.417 1458.38 Q335.496 1453.77 341.306 1453.77 Z" fill="#000000" fill-rule="evenodd" fill-opacity="1" /><path clip-path="url(#clip950)" d="M353.796 1458.35 L360.002 1458.35 L360.002 1436.93 L353.25 1438.28 L353.25 1434.82 L359.965 1433.47 L363.764 1433.47 L363.764 1458.35 L369.971 1458.35 L369.971 1461.55 L353.796 1461.55 L353.796 1458.35 Z" fill="#000000" fill-rule="evenodd" fill-opacity="1" /><path clip-path="url(#clip950)" d="M1280.59 1485.02 L1288.23 1485.02 L1288.23 1458.66 L1279.92 1460.32 L1279.92 1456.06 L1288.18 1454.4 L1292.86 1454.4 L1292.86 1485.02 L1300.5 1485.02 L1300.5 1488.96 L1280.59 1488.96 L1280.59 1485.02 Z" fill="#000000" fill-rule="evenodd" fill-opacity="1" /><path clip-path="url(#clip950)" d="M1319.94 1457.48 Q1316.33 1457.48 1314.5 1461.04 Q1312.69 1464.58 1312.69 1471.71 Q1312.69 1478.82 1314.5 1482.38 Q1316.33 1485.92 1319.94 1485.92 Q1323.57 1485.92 1325.38 1482.38 Q1327.21 1478.82 1327.21 1471.71 Q1327.21 1464.58 1325.38 1461.04 Q1323.57 1457.48 1319.94 1457.48 M1319.94 1453.77 Q1325.75 1453.77 1328.81 1458.38 Q1331.88 1462.96 1331.88 1471.71 Q1331.88 1480.44 1328.81 1485.04 Q1325.75 1489.63 1319.94 1489.63 Q1314.13 1489.63 1311.05 1485.04 Q1308 1480.44 1308 1471.71 Q1308 1462.96 1311.05 1458.38 Q1314.13 1453.77 1319.94 1453.77 Z" fill="#000000" fill-rule="evenodd" fill-opacity="1" /><path clip-path="url(#clip950)" d="M1336.45 1458.35 L1349.71 1458.35 L1349.71 1461.55 L1331.88 1461.55 L1331.88 1458.35 Q1334.05 1456.11 1337.77 1452.35 Q1341.51 1448.57 1342.47 1447.48 Q1344.3 1445.43 1345.01 1444.02 Q1345.75 1442.59 1345.75 1441.22 Q1345.75 1438.98 1344.17 1437.57 Q1342.6 1436.16 1340.08 1436.16 Q1338.3 1436.16 1336.3 1436.78 Q1334.33 1437.4 1332.07 1438.66 L1332.07 1434.82 Q1334.37 1433.9 1336.36 1433.43 Q1338.35 1432.96 1340.01 1432.96 Q1344.37 1432.96 1346.97 1435.14 Q1349.56 1437.32 1349.56 1440.97 Q1349.56 1442.7 1348.91 1444.26 Q1348.27 1445.8 1346.55 1447.91 Q1346.08 1448.46 1343.56 1451.07 Q1341.04 1453.67 1336.45 1458.35 Z" fill="#000000" fill-rule="evenodd" fill-opacity="1" /><path clip-path="url(#clip950)" d="M2259.45 1485.02 L2267.09 1485.02 L2267.09 1458.66 L2258.78 1460.32 L2258.78 1456.06 L2267.04 1454.4 L2271.72 1454.4 L2271.72 1485.02 L2279.36 1485.02 L2279.36 1488.96 L2259.45 1488.96 L2259.45 1485.02 Z" fill="#000000" fill-rule="evenodd" fill-opacity="1" /><path clip-path="url(#clip950)" d="M2298.8 1457.48 Q2295.19 1457.48 2293.36 1461.04 Q2291.55 1464.58 2291.55 1471.71 Q2291.55 1478.82 2293.36 1482.38 Q2295.19 1485.92 2298.8 1485.92 Q2302.43 1485.92 2304.24 1482.38 Q2306.07 1478.82 2306.07 1471.71 Q2306.07 1464.58 2304.24 1461.04 Q2302.43 1457.48 2298.8 1457.48 M2298.8 1453.77 Q2304.61 1453.77 2307.67 1458.38 Q2310.74 1462.96 2310.74 1471.71 Q2310.74 1480.44 2307.67 1485.04 Q2304.61 1489.63 2298.8 1489.63 Q2292.99 1489.63 2289.91 1485.04 Q2286.86 1480.44 2286.86 1471.71 Q2286.86 1462.96 2289.91 1458.38 Q2292.99 1453.77 2298.8 1453.77 Z" fill="#000000" fill-rule="evenodd" fill-opacity="1" /><path clip-path="url(#clip950)" d="M2323.44 1446.41 Q2326.17 1446.99 2327.69 1448.83 Q2329.23 1450.68 2329.23 1453.38 Q2329.23 1457.54 2326.37 1459.82 Q2323.51 1462.09 2318.25 1462.09 Q2316.48 1462.09 2314.6 1461.73 Q2312.74 1461.4 2310.74 1460.7 L2310.74 1457.03 Q2312.32 1457.95 2314.2 1458.42 Q2316.09 1458.89 2318.14 1458.89 Q2321.71 1458.89 2323.57 1457.48 Q2325.45 1456.07 2325.45 1453.38 Q2325.45 1450.9 2323.7 1449.51 Q2321.97 1448.1 2318.87 1448.1 L2315.6 1448.1 L2315.6 1444.98 L2319.02 1444.98 Q2321.82 1444.98 2323.31 1443.87 Q2324.79 1442.74 2324.79 1440.63 Q2324.79 1438.47 2323.25 1437.32 Q2321.73 1436.16 2318.87 1436.16 Q2317.31 1436.16 2315.52 1436.49 Q2313.73 1436.83 2311.59 1437.55 L2311.59 1434.16 Q2313.75 1433.56 2315.63 1433.26 Q2317.53 1432.96 2319.21 1432.96 Q2323.53 1432.96 2326.05 1434.93 Q2328.57 1436.89 2328.57 1440.24 Q2328.57 1442.57 2327.24 1444.19 Q2325.9 1445.79 2323.44 1446.41 Z" fill="#000000" fill-rule="evenodd" fill-opacity="1" /><path clip-path="url(#clip950)" d="M1057.47 1526.67 L1066.12 1526.67 L1087.19 1566.42 L1087.19 1526.67 L1093.43 1526.67 L1093.43 1574.19 L1084.77 1574.19 L1063.7 1534.43 L1063.7 1574.19 L1057.47 1574.19 L1057.47 1526.67 Z" fill="#000000" fill-rule="evenodd" fill-opacity="1" /><path clip-path="url(#clip950)" d="M1105.37 1560.12 L1105.37 1538.54 L1111.22 1538.54 L1111.22 1559.89 Q1111.22 1564.96 1113.2 1567.5 Q1115.17 1570.02 1119.12 1570.02 Q1123.86 1570.02 1126.6 1566.99 Q1129.37 1563.97 1129.37 1558.75 L1129.37 1538.54 L1135.22 1538.54 L1135.22 1574.19 L1129.37 1574.19 L1129.37 1568.71 Q1127.23 1571.96 1124.4 1573.55 Q1121.6 1575.11 1117.88 1575.11 Q1111.73 1575.11 1108.55 1571.29 Q1105.37 1567.47 1105.37 1560.12 M1120.1 1537.68 L1120.1 1537.68 Z" fill="#000000" fill-rule="evenodd" fill-opacity="1" /><path clip-path="url(#clip950)" d="M1175.04 1545.38 Q1177.24 1541.43 1180.29 1539.56 Q1183.35 1537.68 1187.49 1537.68 Q1193.06 1537.68 1196.08 1541.59 Q1199.1 1545.48 1199.1 1552.67 L1199.1 1574.19 L1193.21 1574.19 L1193.21 1552.86 Q1193.21 1547.74 1191.4 1545.25 Q1189.59 1542.77 1185.86 1542.77 Q1181.31 1542.77 1178.67 1545.79 Q1176.03 1548.82 1176.03 1554.04 L1176.03 1574.19 L1170.14 1574.19 L1170.14 1552.86 Q1170.14 1547.7 1168.32 1545.25 Q1166.51 1542.77 1162.72 1542.77 Q1158.24 1542.77 1155.59 1545.83 Q1152.95 1548.85 1152.95 1554.04 L1152.95 1574.19 L1147.06 1574.19 L1147.06 1538.54 L1152.95 1538.54 L1152.95 1544.08 Q1154.96 1540.8 1157.76 1539.24 Q1160.56 1537.68 1164.41 1537.68 Q1168.29 1537.68 1171 1539.65 Q1173.74 1541.62 1175.04 1545.38 Z" fill="#000000" fill-rule="evenodd" fill-opacity="1" /><path clip-path="url(#clip950)" d="M1241.28 1554.9 L1241.28 1557.76 L1214.35 1557.76 Q1214.73 1563.81 1217.98 1566.99 Q1221.26 1570.14 1227.08 1570.14 Q1230.45 1570.14 1233.61 1569.32 Q1236.79 1568.49 1239.91 1566.83 L1239.91 1572.37 Q1236.76 1573.71 1233.45 1574.41 Q1230.14 1575.11 1226.73 1575.11 Q1218.2 1575.11 1213.2 1570.14 Q1208.24 1565.18 1208.24 1556.71 Q1208.24 1547.96 1212.95 1542.83 Q1217.69 1537.68 1225.71 1537.68 Q1232.9 1537.68 1237.07 1542.33 Q1241.28 1546.94 1241.28 1554.9 M1235.42 1553.18 Q1235.36 1548.37 1232.71 1545.51 Q1230.1 1542.64 1225.78 1542.64 Q1220.87 1542.64 1217.91 1545.41 Q1214.99 1548.18 1214.54 1553.21 L1235.42 1553.18 Z" fill="#000000" fill-rule="evenodd" fill-opacity="1" /><path clip-path="url(#clip950)" d="M1271.54 1544.01 Q1270.56 1543.44 1269.38 1543.18 Q1268.23 1542.9 1266.83 1542.9 Q1261.87 1542.9 1259.2 1546.14 Q1256.55 1549.36 1256.55 1555.41 L1256.55 1574.19 L1250.67 1574.19 L1250.67 1538.54 L1256.55 1538.54 L1256.55 1544.08 Q1258.4 1540.83 1261.36 1539.27 Q1264.32 1537.68 1268.55 1537.68 Q1269.16 1537.68 1269.89 1537.77 Q1270.62 1537.84 1271.51 1538 L1271.54 1544.01 Z" fill="#000000" fill-rule="evenodd" fill-opacity="1" /><path clip-path="url(#clip950)" d="M1290.07 1542.64 Q1285.36 1542.64 1282.62 1546.34 Q1279.88 1550 1279.88 1556.39 Q1279.88 1562.79 1282.59 1566.48 Q1285.33 1570.14 1290.07 1570.14 Q1294.75 1570.14 1297.49 1566.45 Q1300.22 1562.76 1300.22 1556.39 Q1300.22 1550.06 1297.49 1546.37 Q1294.75 1542.64 1290.07 1542.64 M1290.07 1537.68 Q1297.71 1537.68 1302.07 1542.64 Q1306.43 1547.61 1306.43 1556.39 Q1306.43 1565.15 1302.07 1570.14 Q1297.71 1575.11 1290.07 1575.11 Q1282.4 1575.11 1278.04 1570.14 Q1273.71 1565.15 1273.71 1556.39 Q1273.71 1547.61 1278.04 1542.64 Q1282.4 1537.68 1290.07 1537.68 Z" fill="#000000" fill-rule="evenodd" fill-opacity="1" /><path clip-path="url(#clip950)" d="M1360.31 1543.95 L1360.31 1524.66 L1366.17 1524.66 L1366.17 1574.19 L1360.31 1574.19 L1360.31 1568.84 Q1358.47 1572.02 1355.64 1573.58 Q1352.83 1575.11 1348.89 1575.11 Q1342.43 1575.11 1338.35 1569.95 Q1334.31 1564.8 1334.31 1556.39 Q1334.31 1547.99 1338.35 1542.83 Q1342.43 1537.68 1348.89 1537.68 Q1352.83 1537.68 1355.64 1539.24 Q1358.47 1540.77 1360.31 1543.95 M1340.36 1556.39 Q1340.36 1562.85 1343 1566.55 Q1345.67 1570.21 1350.32 1570.21 Q1354.97 1570.21 1357.64 1566.55 Q1360.31 1562.85 1360.31 1556.39 Q1360.31 1549.93 1357.64 1546.27 Q1354.97 1542.58 1350.32 1542.58 Q1345.67 1542.58 1343 1546.27 Q1340.36 1549.93 1340.36 1556.39 Z" fill="#000000" fill-rule="evenodd" fill-opacity="1" /><path clip-path="url(#clip950)" d="M1378.23 1538.54 L1384.09 1538.54 L1384.09 1574.19 L1378.23 1574.19 L1378.23 1538.54 M1378.23 1524.66 L1384.09 1524.66 L1384.09 1532.08 L1378.23 1532.08 L1378.23 1524.66 Z" fill="#000000" fill-rule="evenodd" fill-opacity="1" /><path clip-path="url(#clip950)" d="M1422.73 1568.84 L1422.73 1587.74 L1416.84 1587.74 L1416.84 1538.54 L1422.73 1538.54 L1422.73 1543.95 Q1424.58 1540.77 1427.38 1539.24 Q1430.21 1537.68 1434.12 1537.68 Q1440.62 1537.68 1444.66 1542.83 Q1448.73 1547.99 1448.73 1556.39 Q1448.73 1564.8 1444.66 1569.95 Q1440.62 1575.11 1434.12 1575.11 Q1430.21 1575.11 1427.38 1573.58 Q1424.58 1572.02 1422.73 1568.84 M1442.66 1556.39 Q1442.66 1549.93 1439.98 1546.27 Q1437.34 1542.58 1432.69 1542.58 Q1428.05 1542.58 1425.37 1546.27 Q1422.73 1549.93 1422.73 1556.39 Q1422.73 1562.85 1425.37 1566.55 Q1428.05 1570.21 1432.69 1570.21 Q1437.34 1570.21 1439.98 1566.55 Q1442.66 1562.85 1442.66 1556.39 Z" fill="#000000" fill-rule="evenodd" fill-opacity="1" /><path clip-path="url(#clip950)" d="M1474.64 1556.27 Q1467.54 1556.27 1464.81 1557.89 Q1462.07 1559.51 1462.07 1563.43 Q1462.07 1566.55 1464.11 1568.39 Q1466.18 1570.21 1469.71 1570.21 Q1474.58 1570.21 1477.51 1566.77 Q1480.47 1563.3 1480.47 1557.57 L1480.47 1556.27 L1474.64 1556.27 M1486.32 1553.85 L1486.32 1574.19 L1480.47 1574.19 L1480.47 1568.77 Q1478.46 1572.02 1475.47 1573.58 Q1472.48 1575.11 1468.15 1575.11 Q1462.68 1575.11 1459.43 1572.05 Q1456.21 1568.97 1456.21 1563.81 Q1456.21 1557.79 1460.22 1554.74 Q1464.27 1551.68 1472.26 1551.68 L1480.47 1551.68 L1480.47 1551.11 Q1480.47 1547.07 1477.79 1544.87 Q1475.15 1542.64 1470.35 1542.64 Q1467.29 1542.64 1464.39 1543.38 Q1461.5 1544.11 1458.82 1545.57 L1458.82 1540.16 Q1462.04 1538.92 1465.06 1538.31 Q1468.09 1537.68 1470.95 1537.68 Q1478.68 1537.68 1482.5 1541.69 Q1486.32 1545.7 1486.32 1553.85 Z" fill="#000000" fill-rule="evenodd" fill-opacity="1" /><path clip-path="url(#clip950)" d="M1521.11 1539.59 L1521.11 1545.13 Q1518.63 1543.85 1515.96 1543.22 Q1513.28 1542.58 1510.42 1542.58 Q1506.06 1542.58 1503.86 1543.92 Q1501.7 1545.25 1501.7 1547.93 Q1501.7 1549.96 1503.26 1551.14 Q1504.82 1552.29 1509.53 1553.34 L1511.53 1553.78 Q1517.77 1555.12 1520.38 1557.57 Q1523.02 1559.99 1523.02 1564.35 Q1523.02 1569.32 1519.08 1572.21 Q1515.16 1575.11 1508.29 1575.11 Q1505.42 1575.11 1502.3 1574.54 Q1499.21 1573.99 1495.78 1572.88 L1495.78 1566.83 Q1499.02 1568.52 1502.17 1569.38 Q1505.33 1570.21 1508.41 1570.21 Q1512.55 1570.21 1514.78 1568.81 Q1517.01 1567.37 1517.01 1564.8 Q1517.01 1562.41 1515.38 1561.14 Q1513.79 1559.86 1508.35 1558.68 L1506.31 1558.21 Q1500.87 1557.06 1498.45 1554.71 Q1496.03 1552.32 1496.03 1548.18 Q1496.03 1543.15 1499.6 1540.42 Q1503.16 1537.68 1509.72 1537.68 Q1512.96 1537.68 1515.83 1538.16 Q1518.69 1538.63 1521.11 1539.59 Z" fill="#000000" fill-rule="evenodd" fill-opacity="1" /><path clip-path="url(#clip950)" d="M1555.07 1539.59 L1555.07 1545.13 Q1552.59 1543.85 1549.92 1543.22 Q1547.24 1542.58 1544.38 1542.58 Q1540.02 1542.58 1537.82 1543.92 Q1535.66 1545.25 1535.66 1547.93 Q1535.66 1549.96 1537.22 1551.14 Q1538.78 1552.29 1543.49 1553.34 L1545.49 1553.78 Q1551.73 1555.12 1554.34 1557.57 Q1556.98 1559.99 1556.98 1564.35 Q1556.98 1569.32 1553.04 1572.21 Q1549.12 1575.11 1542.25 1575.11 Q1539.38 1575.11 1536.26 1574.54 Q1533.18 1573.99 1529.74 1572.88 L1529.74 1566.83 Q1532.98 1568.52 1536.14 1569.38 Q1539.29 1570.21 1542.37 1570.21 Q1546.51 1570.21 1548.74 1568.81 Q1550.97 1567.37 1550.97 1564.8 Q1550.97 1562.41 1549.34 1561.14 Q1547.75 1559.86 1542.31 1558.68 L1540.27 1558.21 Q1534.83 1557.06 1532.41 1554.71 Q1529.99 1552.32 1529.99 1548.18 Q1529.99 1543.15 1533.56 1540.42 Q1537.12 1537.68 1543.68 1537.68 Q1546.93 1537.68 1549.79 1538.16 Q1552.65 1538.63 1555.07 1539.59 Z" fill="#000000" fill-rule="evenodd" fill-opacity="1" /><path clip-path="url(#clip950)" d="M1566.31 1538.54 L1572.17 1538.54 L1572.17 1574.19 L1566.31 1574.19 L1566.31 1538.54 M1566.31 1524.66 L1572.17 1524.66 L1572.17 1532.08 L1566.31 1532.08 L1566.31 1524.66 Z" fill="#000000" fill-rule="evenodd" fill-opacity="1" /><polyline clip-path="url(#clip952)" style="stroke:#000000; stroke-linecap:butt; stroke-linejoin:round; stroke-width:2; stroke-opacity:0.1; fill:none" points="
  276.876,1124 2352.76,1124 
  "/>
<polyline clip-path="url(#clip952)" style="stroke:#000000; stroke-linecap:butt; stroke-linejoin:round; stroke-width:2; stroke-opacity:0.1; fill:none" points="
  276.876,492.272 2352.76,492.272 
  "/>
<polyline clip-path="url(#clip950)" style="stroke:#000000; stroke-linecap:butt; stroke-linejoin:round; stroke-width:4; stroke-opacity:1; fill:none" points="
  276.876,1410.9 276.876,47.2441 
  "/>
<polyline clip-path="url(#clip950)" style="stroke:#000000; stroke-linecap:butt; stroke-linejoin:round; stroke-width:4; stroke-opacity:1; fill:none" points="
  276.876,1124 295.773,1124 
  "/>
<polyline clip-path="url(#clip950)" style="stroke:#000000; stroke-linecap:butt; stroke-linejoin:round; stroke-width:4; stroke-opacity:1; fill:none" points="
  276.876,492.272 295.773,492.272 
  "/>
<path clip-path="url(#clip950)" d="M114.931 1143.79 L122.57 1143.79 L122.57 1117.42 L114.26 1119.09 L114.26 1114.83 L122.524 1113.16 L127.2 1113.16 L127.2 1143.79 L134.839 1143.79 L134.839 1147.72 L114.931 1147.72 L114.931 1143.79 Z" fill="#000000" fill-rule="evenodd" fill-opacity="1" /><path clip-path="url(#clip950)" d="M154.283 1116.24 Q150.672 1116.24 148.843 1119.81 Q147.038 1123.35 147.038 1130.48 Q147.038 1137.58 148.843 1141.15 Q150.672 1144.69 154.283 1144.69 Q157.917 1144.69 159.723 1141.15 Q161.552 1137.58 161.552 1130.48 Q161.552 1123.35 159.723 1119.81 Q157.917 1116.24 154.283 1116.24 M154.283 1112.54 Q160.093 1112.54 163.149 1117.14 Q166.227 1121.73 166.227 1130.48 Q166.227 1139.2 163.149 1143.81 Q160.093 1148.39 154.283 1148.39 Q148.473 1148.39 145.394 1143.81 Q142.339 1139.2 142.339 1130.48 Q142.339 1121.73 145.394 1117.14 Q148.473 1112.54 154.283 1112.54 Z" fill="#000000" fill-rule="evenodd" fill-opacity="1" /><path clip-path="url(#clip950)" d="M166.227 1106.64 L190.339 1106.64 L190.339 1109.84 L166.227 1109.84 L166.227 1106.64 Z" fill="#000000" fill-rule="evenodd" fill-opacity="1" /><path clip-path="url(#clip950)" d="M199.197 1117.12 L205.404 1117.12 L205.404 1095.69 L198.652 1097.05 L198.652 1093.59 L205.366 1092.23 L209.166 1092.23 L209.166 1117.12 L215.372 1117.12 L215.372 1120.31 L199.197 1120.31 L199.197 1117.12 Z" fill="#000000" fill-rule="evenodd" fill-opacity="1" /><path clip-path="url(#clip950)" d="M231.171 1094.73 Q228.237 1094.73 226.751 1097.63 Q225.284 1100.51 225.284 1106.3 Q225.284 1112.07 226.751 1114.97 Q228.237 1117.85 231.171 1117.85 Q234.124 1117.85 235.591 1114.97 Q237.076 1112.07 237.076 1106.3 Q237.076 1100.51 235.591 1097.63 Q234.124 1094.73 231.171 1094.73 M231.171 1091.72 Q235.891 1091.72 238.374 1095.47 Q240.876 1099.19 240.876 1106.3 Q240.876 1113.39 238.374 1117.13 Q235.891 1120.86 231.171 1120.86 Q226.45 1120.86 223.949 1117.13 Q221.466 1113.39 221.466 1106.3 Q221.466 1099.19 223.949 1095.47 Q226.45 1091.72 231.171 1091.72 Z" fill="#000000" fill-rule="evenodd" fill-opacity="1" /><path clip-path="url(#clip950)" d="M140.247 512.064 L147.886 512.064 L147.886 485.699 L139.575 487.365 L139.575 483.106 L147.839 481.439 L152.515 481.439 L152.515 512.064 L160.154 512.064 L160.154 515.999 L140.247 515.999 L140.247 512.064 Z" fill="#000000" fill-rule="evenodd" fill-opacity="1" /><path clip-path="url(#clip950)" d="M179.598 484.518 Q175.987 484.518 174.159 488.083 Q172.353 491.624 172.353 498.754 Q172.353 505.86 174.159 509.425 Q175.987 512.967 179.598 512.967 Q183.233 512.967 185.038 509.425 Q186.867 505.86 186.867 498.754 Q186.867 491.624 185.038 488.083 Q183.233 484.518 179.598 484.518 M179.598 480.814 Q185.409 480.814 188.464 485.421 Q191.543 490.004 191.543 498.754 Q191.543 507.481 188.464 512.087 Q185.409 516.671 179.598 516.671 Q173.788 516.671 170.71 512.087 Q167.654 507.481 167.654 498.754 Q167.654 490.004 170.71 485.421 Q173.788 480.814 179.598 480.814 Z" fill="#000000" fill-rule="evenodd" fill-opacity="1" /><path clip-path="url(#clip950)" d="M191.543 474.916 L215.654 474.916 L215.654 478.113 L191.543 478.113 L191.543 474.916 Z" fill="#000000" fill-rule="evenodd" fill-opacity="1" /><path clip-path="url(#clip950)" d="M223.892 460.509 L238.807 460.509 L238.807 463.706 L227.372 463.706 L227.372 470.59 Q228.199 470.308 229.027 470.176 Q229.854 470.026 230.682 470.026 Q235.384 470.026 238.13 472.602 Q240.876 475.179 240.876 479.58 Q240.876 484.113 238.054 486.633 Q235.233 489.134 230.099 489.134 Q228.331 489.134 226.488 488.833 Q224.663 488.533 222.707 487.931 L222.707 484.113 Q224.4 485.034 226.205 485.486 Q228.011 485.937 230.023 485.937 Q233.277 485.937 235.177 484.226 Q237.076 482.514 237.076 479.58 Q237.076 476.646 235.177 474.934 Q233.277 473.223 230.023 473.223 Q228.5 473.223 226.977 473.562 Q225.472 473.9 223.892 474.615 L223.892 460.509 Z" fill="#000000" fill-rule="evenodd" fill-opacity="1" /><path clip-path="url(#clip950)" d="M16.4842 822.917 L16.4842 792.871 L21.895 792.871 L21.895 816.487 L35.9632 816.487 L35.9632 793.857 L41.3741 793.857 L41.3741 816.487 L58.5933 816.487 L58.5933 792.298 L64.0042 792.298 L64.0042 822.917 L16.4842 822.917 Z" fill="#000000" fill-rule="evenodd" fill-opacity="1" /><path clip-path="url(#clip950)" d="M33.8307 761.329 Q33.2578 762.315 33.0032 763.493 Q32.7167 764.639 32.7167 766.039 Q32.7167 771.004 35.9632 773.678 Q39.1779 776.32 45.2253 776.32 L64.0042 776.32 L64.0042 782.208 L28.3562 782.208 L28.3562 776.32 L33.8944 776.32 Q30.6479 774.474 29.0883 771.514 Q27.4968 768.554 27.4968 764.32 Q27.4968 763.716 27.5923 762.984 Q27.656 762.252 27.8151 761.36 L33.8307 761.329 Z" fill="#000000" fill-rule="evenodd" fill-opacity="1" /><path clip-path="url(#clip950)" d="M33.8307 735.675 Q33.2578 736.661 33.0032 737.839 Q32.7167 738.985 32.7167 740.385 Q32.7167 745.351 35.9632 748.024 Q39.1779 750.666 45.2253 750.666 L64.0042 750.666 L64.0042 756.554 L28.3562 756.554 L28.3562 750.666 L33.8944 750.666 Q30.6479 748.82 29.0883 745.86 Q27.4968 742.9 27.4968 738.667 Q27.4968 738.062 27.5923 737.33 Q27.656 736.598 27.8151 735.707 L33.8307 735.675 Z" fill="#000000" fill-rule="evenodd" fill-opacity="1" /><path clip-path="url(#clip950)" d="M32.4621 717.151 Q32.4621 721.861 36.1542 724.598 Q39.8145 727.336 46.212 727.336 Q52.6095 727.336 56.3017 724.63 Q59.9619 721.893 59.9619 717.151 Q59.9619 712.472 56.2698 709.735 Q52.5777 706.997 46.212 706.997 Q39.8781 706.997 36.186 709.735 Q32.4621 712.472 32.4621 717.151 M27.4968 717.151 Q27.4968 709.512 32.4621 705.151 Q37.4273 700.791 46.212 700.791 Q54.9649 700.791 59.9619 705.151 Q64.9272 709.512 64.9272 717.151 Q64.9272 724.821 59.9619 729.182 Q54.9649 733.51 46.212 733.51 Q37.4273 733.51 32.4621 729.182 Q27.4968 724.821 27.4968 717.151 Z" fill="#000000" fill-rule="evenodd" fill-opacity="1" /><path clip-path="url(#clip950)" d="M33.8307 670.426 Q33.2578 671.413 33.0032 672.591 Q32.7167 673.736 32.7167 675.137 Q32.7167 680.102 35.9632 682.776 Q39.1779 685.418 45.2253 685.418 L64.0042 685.418 L64.0042 691.306 L28.3562 691.306 L28.3562 685.418 L33.8944 685.418 Q30.6479 683.571 29.0883 680.611 Q27.4968 677.651 27.4968 673.418 Q27.4968 672.813 27.5923 672.081 Q27.656 671.349 27.8151 670.458 L33.8307 670.426 Z" fill="#000000" fill-rule="evenodd" fill-opacity="1" /><path clip-path="url(#clip950)" d="M44.7161 635.224 L47.5806 635.224 L47.5806 662.151 Q53.6281 661.769 56.8109 658.522 Q59.9619 655.244 59.9619 649.419 Q59.9619 646.046 59.1344 642.895 Q58.3069 639.712 56.6518 636.593 L62.1899 636.593 Q63.5267 639.744 64.227 643.054 Q64.9272 646.364 64.9272 649.77 Q64.9272 658.3 59.9619 663.297 Q54.9967 668.262 46.5303 668.262 Q37.7774 668.262 32.6531 663.551 Q27.4968 658.809 27.4968 650.788 Q27.4968 643.595 32.1438 639.425 Q36.7589 635.224 44.7161 635.224 M42.9973 641.08 Q38.1912 641.144 35.3266 643.786 Q32.4621 646.396 32.4621 650.724 Q32.4621 655.626 35.2312 658.586 Q38.0002 661.514 43.0292 661.96 L42.9973 641.08 Z" fill="#000000" fill-rule="evenodd" fill-opacity="1" /><polyline clip-path="url(#clip952)" style="stroke:#009af9; stroke-linecap:butt; stroke-linejoin:round; stroke-width:4; stroke-opacity:1; fill:none" points="
  335.627,123.804 1020.05,300.578 1314.82,376.65 1999.24,553.274 2294,629.341 
  "/>
<polyline clip-path="url(#clip952)" style="stroke:#e26f46; stroke-linecap:butt; stroke-linejoin:round; stroke-width:4; stroke-opacity:1; fill:none" points="
  335.627,85.838 1020.05,262.547 1314.82,338.617 1999.24,515.24 2294,591.307 
  "/>
<polyline clip-path="url(#clip952)" style="stroke:#3da44d; stroke-linecap:butt; stroke-linejoin:round; stroke-width:4; stroke-opacity:1; fill:none" points="
  335.627,360.939 1020.05,714.805 1314.82,866.959 1999.24,1220.21 2294,1372.3 
  "/>
<path clip-path="url(#clip950)" d="
M1817.1 300.059 L2283.56 300.059 L2283.56 92.6992 L1817.1 92.6992  Z
  " fill="#ffffff" fill-rule="evenodd" fill-opacity="1"/>
<polyline clip-path="url(#clip950)" style="stroke:#000000; stroke-linecap:butt; stroke-linejoin:round; stroke-width:4; stroke-opacity:1; fill:none" points="
  1817.1,300.059 2283.56,300.059 2283.56,92.6992 1817.1,92.6992 1817.1,300.059 
  "/>
<polyline clip-path="url(#clip950)" style="stroke:#009af9; stroke-linecap:butt; stroke-linejoin:round; stroke-width:4; stroke-opacity:1; fill:none" points="
  1840.16,144.539 1978.55,144.539 
  "/>
<path clip-path="url(#clip950)" d="M2001.62 127.259 L2008.59 127.259 L2017.41 150.778 L2026.27 127.259 L2033.24 127.259 L2033.24 161.819 L2028.68 161.819 L2028.68 131.472 L2019.77 155.176 L2015.07 155.176 L2006.16 131.472 L2006.16 161.819 L2001.62 161.819 L2001.62 127.259 Z" fill="#000000" fill-rule="evenodd" fill-opacity="1" /><path clip-path="url(#clip950)" d="M2042.34 135.893 L2046.6 135.893 L2046.6 161.819 L2042.34 161.819 L2042.34 135.893 M2042.34 125.801 L2046.6 125.801 L2046.6 131.194 L2042.34 131.194 L2042.34 125.801 Z" fill="#000000" fill-rule="evenodd" fill-opacity="1" /><path clip-path="url(#clip950)" d="M2072.57 139.829 L2072.57 125.801 L2076.83 125.801 L2076.83 161.819 L2072.57 161.819 L2072.57 157.93 Q2071.23 160.245 2069.17 161.379 Q2067.13 162.49 2064.26 162.49 Q2059.56 162.49 2056.6 158.74 Q2053.66 154.991 2053.66 148.879 Q2053.66 142.768 2056.6 139.018 Q2059.56 135.268 2064.26 135.268 Q2067.13 135.268 2069.17 136.403 Q2071.23 137.514 2072.57 139.829 M2058.06 148.879 Q2058.06 153.578 2059.98 156.264 Q2061.92 158.926 2065.3 158.926 Q2068.68 158.926 2070.62 156.264 Q2072.57 153.578 2072.57 148.879 Q2072.57 144.18 2070.62 141.518 Q2068.68 138.833 2065.3 138.833 Q2061.92 138.833 2059.98 141.518 Q2058.06 144.18 2058.06 148.879 Z" fill="#000000" fill-rule="evenodd" fill-opacity="1" /><path clip-path="url(#clip950)" d="M2083.45 146.935 L2095.93 146.935 L2095.93 150.731 L2083.45 150.731 L2083.45 146.935 Z" fill="#000000" fill-rule="evenodd" fill-opacity="1" /><path clip-path="url(#clip950)" d="M2106.83 157.93 L2106.83 171.68 L2102.55 171.68 L2102.55 135.893 L2106.83 135.893 L2106.83 139.829 Q2108.17 137.514 2110.21 136.403 Q2112.27 135.268 2115.12 135.268 Q2119.84 135.268 2122.78 139.018 Q2125.74 142.768 2125.74 148.879 Q2125.74 154.991 2122.78 158.74 Q2119.84 162.49 2115.12 162.49 Q2112.27 162.49 2110.21 161.379 Q2108.17 160.245 2106.83 157.93 M2121.32 148.879 Q2121.32 144.18 2119.37 141.518 Q2117.45 138.833 2114.07 138.833 Q2110.69 138.833 2108.75 141.518 Q2106.83 144.18 2106.83 148.879 Q2106.83 153.578 2108.75 156.264 Q2110.69 158.926 2114.07 158.926 Q2117.45 158.926 2119.37 156.264 Q2121.32 153.578 2121.32 148.879 Z" fill="#000000" fill-rule="evenodd" fill-opacity="1" /><path clip-path="url(#clip950)" d="M2142.85 138.879 Q2139.42 138.879 2137.43 141.565 Q2135.44 144.227 2135.44 148.879 Q2135.44 153.532 2137.41 156.217 Q2139.4 158.879 2142.85 158.879 Q2146.25 158.879 2148.24 156.194 Q2150.23 153.509 2150.23 148.879 Q2150.23 144.273 2148.24 141.588 Q2146.25 138.879 2142.85 138.879 M2142.85 135.268 Q2148.4 135.268 2151.57 138.879 Q2154.74 142.491 2154.74 148.879 Q2154.74 155.245 2151.57 158.879 Q2148.4 162.49 2142.85 162.49 Q2137.27 162.49 2134.1 158.879 Q2130.95 155.245 2130.95 148.879 Q2130.95 142.491 2134.1 138.879 Q2137.27 135.268 2142.85 135.268 Z" fill="#000000" fill-rule="evenodd" fill-opacity="1" /><path clip-path="url(#clip950)" d="M2161.8 135.893 L2166.06 135.893 L2166.06 161.819 L2161.8 161.819 L2161.8 135.893 M2161.8 125.801 L2166.06 125.801 L2166.06 131.194 L2161.8 131.194 L2161.8 125.801 Z" fill="#000000" fill-rule="evenodd" fill-opacity="1" /><path clip-path="url(#clip950)" d="M2196.53 146.171 L2196.53 161.819 L2192.27 161.819 L2192.27 146.31 Q2192.27 142.629 2190.83 140.801 Q2189.4 138.972 2186.53 138.972 Q2183.08 138.972 2181.09 141.171 Q2179.1 143.37 2179.1 147.166 L2179.1 161.819 L2174.81 161.819 L2174.81 135.893 L2179.1 135.893 L2179.1 139.921 Q2180.62 137.583 2182.68 136.426 Q2184.77 135.268 2187.48 135.268 Q2191.94 135.268 2194.24 138.046 Q2196.53 140.801 2196.53 146.171 Z" fill="#000000" fill-rule="evenodd" fill-opacity="1" /><path clip-path="url(#clip950)" d="M2209.23 128.532 L2209.23 135.893 L2218.01 135.893 L2218.01 139.204 L2209.23 139.204 L2209.23 153.278 Q2209.23 156.449 2210.09 157.352 Q2210.97 158.254 2213.63 158.254 L2218.01 158.254 L2218.01 161.819 L2213.63 161.819 Q2208.7 161.819 2206.83 159.99 Q2204.95 158.139 2204.95 153.278 L2204.95 139.204 L2201.83 139.204 L2201.83 135.893 L2204.95 135.893 L2204.95 128.532 L2209.23 128.532 Z" fill="#000000" fill-rule="evenodd" fill-opacity="1" /><polyline clip-path="url(#clip950)" style="stroke:#e26f46; stroke-linecap:butt; stroke-linejoin:round; stroke-width:4; stroke-opacity:1; fill:none" points="
  1840.16,196.379 1978.55,196.379 
  "/>
<path clip-path="url(#clip950)" d="M2001.62 179.099 L2030.86 179.099 L2030.86 183.034 L2018.59 183.034 L2018.59 213.659 L2013.89 213.659 L2013.89 183.034 L2001.62 183.034 L2001.62 179.099 Z" fill="#000000" fill-rule="evenodd" fill-opacity="1" /><path clip-path="url(#clip950)" d="M2043.24 191.715 Q2042.52 191.298 2041.67 191.113 Q2040.83 190.905 2039.81 190.905 Q2036.2 190.905 2034.26 193.266 Q2032.34 195.604 2032.34 200.002 L2032.34 213.659 L2028.06 213.659 L2028.06 187.733 L2032.34 187.733 L2032.34 191.761 Q2033.68 189.4 2035.83 188.266 Q2037.99 187.108 2041.06 187.108 Q2041.5 187.108 2042.04 187.178 Q2042.57 187.224 2043.22 187.34 L2043.24 191.715 Z" fill="#000000" fill-rule="evenodd" fill-opacity="1" /><path clip-path="url(#clip950)" d="M2059.49 200.627 Q2054.33 200.627 2052.34 201.807 Q2050.35 202.988 2050.35 205.835 Q2050.35 208.104 2051.83 209.446 Q2053.33 210.766 2055.9 210.766 Q2059.44 210.766 2061.57 208.266 Q2063.73 205.743 2063.73 201.576 L2063.73 200.627 L2059.49 200.627 M2067.99 198.868 L2067.99 213.659 L2063.73 213.659 L2063.73 209.724 Q2062.27 212.085 2060.09 213.219 Q2057.92 214.33 2054.77 214.33 Q2050.79 214.33 2048.43 212.108 Q2046.09 209.863 2046.09 206.113 Q2046.09 201.738 2049 199.516 Q2051.94 197.294 2057.75 197.294 L2063.73 197.294 L2063.73 196.877 Q2063.73 193.937 2061.78 192.34 Q2059.86 190.719 2056.37 190.719 Q2054.14 190.719 2052.04 191.252 Q2049.93 191.784 2047.99 192.849 L2047.99 188.914 Q2050.32 188.011 2052.52 187.571 Q2054.72 187.108 2056.81 187.108 Q2062.43 187.108 2065.21 190.025 Q2067.99 192.942 2067.99 198.868 Z" fill="#000000" fill-rule="evenodd" fill-opacity="1" /><path clip-path="url(#clip950)" d="M2080.88 209.77 L2080.88 223.52 L2076.6 223.52 L2076.6 187.733 L2080.88 187.733 L2080.88 191.669 Q2082.22 189.354 2084.26 188.243 Q2086.32 187.108 2089.17 187.108 Q2093.89 187.108 2096.83 190.858 Q2099.79 194.608 2099.79 200.719 Q2099.79 206.831 2096.83 210.58 Q2093.89 214.33 2089.17 214.33 Q2086.32 214.33 2084.26 213.219 Q2082.22 212.085 2080.88 209.77 M2095.37 200.719 Q2095.37 196.02 2093.43 193.358 Q2091.5 190.673 2088.12 190.673 Q2084.74 190.673 2082.8 193.358 Q2080.88 196.02 2080.88 200.719 Q2080.88 205.418 2082.8 208.104 Q2084.74 210.766 2088.12 210.766 Q2091.5 210.766 2093.43 208.104 Q2095.37 205.418 2095.37 200.719 Z" fill="#000000" fill-rule="evenodd" fill-opacity="1" /><path clip-path="url(#clip950)" d="M2129.03 199.631 L2129.03 201.715 L2109.44 201.715 Q2109.72 206.113 2112.08 208.428 Q2114.47 210.719 2118.7 210.719 Q2121.16 210.719 2123.45 210.118 Q2125.76 209.516 2128.03 208.312 L2128.03 212.34 Q2125.74 213.312 2123.33 213.821 Q2120.93 214.33 2118.45 214.33 Q2112.24 214.33 2108.61 210.719 Q2105 207.108 2105 200.951 Q2105 194.585 2108.43 190.858 Q2111.87 187.108 2117.71 187.108 Q2122.94 187.108 2125.97 190.488 Q2129.03 193.844 2129.03 199.631 M2124.77 198.381 Q2124.72 194.886 2122.8 192.803 Q2120.9 190.719 2117.75 190.719 Q2114.19 190.719 2112.04 192.733 Q2109.91 194.747 2109.58 198.405 L2124.77 198.381 Z" fill="#000000" fill-rule="evenodd" fill-opacity="1" /><path clip-path="url(#clip950)" d="M2134.17 187.733 L2154.4 187.733 L2154.4 191.622 L2138.38 210.256 L2154.4 210.256 L2154.4 213.659 L2133.59 213.659 L2133.59 209.77 L2149.61 191.136 L2134.17 191.136 L2134.17 187.733 Z" fill="#000000" fill-rule="evenodd" fill-opacity="1" /><path clip-path="url(#clip950)" d="M2170.95 190.719 Q2167.52 190.719 2165.53 193.405 Q2163.54 196.067 2163.54 200.719 Q2163.54 205.372 2165.51 208.057 Q2167.5 210.719 2170.95 210.719 Q2174.35 210.719 2176.34 208.034 Q2178.33 205.349 2178.33 200.719 Q2178.33 196.113 2176.34 193.428 Q2174.35 190.719 2170.95 190.719 M2170.95 187.108 Q2176.5 187.108 2179.67 190.719 Q2182.85 194.331 2182.85 200.719 Q2182.85 207.085 2179.67 210.719 Q2176.5 214.33 2170.95 214.33 Q2165.37 214.33 2162.2 210.719 Q2159.05 207.085 2159.05 200.719 Q2159.05 194.331 2162.2 190.719 Q2165.37 187.108 2170.95 187.108 Z" fill="#000000" fill-rule="evenodd" fill-opacity="1" /><path clip-path="url(#clip950)" d="M2189.91 187.733 L2194.17 187.733 L2194.17 213.659 L2189.91 213.659 L2189.91 187.733 M2189.91 177.641 L2194.17 177.641 L2194.17 183.034 L2189.91 183.034 L2189.91 177.641 Z" fill="#000000" fill-rule="evenodd" fill-opacity="1" /><path clip-path="url(#clip950)" d="M2220.14 191.669 L2220.14 177.641 L2224.4 177.641 L2224.4 213.659 L2220.14 213.659 L2220.14 209.77 Q2218.8 212.085 2216.73 213.219 Q2214.7 214.33 2211.83 214.33 Q2207.13 214.33 2204.17 210.58 Q2201.23 206.831 2201.23 200.719 Q2201.23 194.608 2204.17 190.858 Q2207.13 187.108 2211.83 187.108 Q2214.7 187.108 2216.73 188.243 Q2218.8 189.354 2220.14 191.669 M2205.62 200.719 Q2205.62 205.418 2207.55 208.104 Q2209.49 210.766 2212.87 210.766 Q2216.25 210.766 2218.19 208.104 Q2220.14 205.418 2220.14 200.719 Q2220.14 196.02 2218.19 193.358 Q2216.25 190.673 2212.87 190.673 Q2209.49 190.673 2207.55 193.358 Q2205.62 196.02 2205.62 200.719 Z" fill="#000000" fill-rule="evenodd" fill-opacity="1" /><path clip-path="url(#clip950)" d="M2233.17 187.733 L2237.43 187.733 L2237.43 213.659 L2233.17 213.659 L2233.17 187.733 M2233.17 177.641 L2237.43 177.641 L2237.43 183.034 L2233.17 183.034 L2233.17 177.641 Z" fill="#000000" fill-rule="evenodd" fill-opacity="1" /><polyline clip-path="url(#clip950)" style="stroke:#3da44d; stroke-linecap:butt; stroke-linejoin:round; stroke-width:4; stroke-opacity:1; fill:none" points="
  1840.16,248.219 1978.55,248.219 
  "/>
<path clip-path="url(#clip950)" d="M2023.87 232.073 L2023.87 236.634 Q2021.2 235.36 2018.84 234.735 Q2016.48 234.11 2014.28 234.11 Q2010.46 234.11 2008.38 235.592 Q2006.32 237.073 2006.32 239.805 Q2006.32 242.097 2007.69 243.277 Q2009.07 244.434 2012.92 245.152 L2015.74 245.731 Q2020.97 246.726 2023.45 249.249 Q2025.95 251.749 2025.95 255.962 Q2025.95 260.985 2022.57 263.578 Q2019.21 266.17 2012.71 266.17 Q2010.25 266.17 2007.48 265.615 Q2004.72 265.059 2001.76 263.971 L2001.76 259.157 Q2004.61 260.754 2007.34 261.564 Q2010.07 262.374 2012.71 262.374 Q2016.71 262.374 2018.89 260.8 Q2021.06 259.226 2021.06 256.309 Q2021.06 253.763 2019.49 252.328 Q2017.94 250.893 2014.37 250.175 L2011.53 249.62 Q2006.3 248.578 2003.96 246.356 Q2001.62 244.134 2001.62 240.175 Q2001.62 235.592 2004.84 232.953 Q2008.08 230.314 2013.75 230.314 Q2016.18 230.314 2018.7 230.754 Q2021.23 231.194 2023.87 232.073 Z" fill="#000000" fill-rule="evenodd" fill-opacity="1" /><path clip-path="url(#clip950)" d="M2033.06 239.573 L2037.31 239.573 L2037.31 265.499 L2033.06 265.499 L2033.06 239.573 M2033.06 229.481 L2037.31 229.481 L2037.31 234.874 L2033.06 234.874 L2033.06 229.481 Z" fill="#000000" fill-rule="evenodd" fill-opacity="1" /><path clip-path="url(#clip950)" d="M2066.41 244.55 Q2068.01 241.68 2070.23 240.314 Q2072.45 238.948 2075.46 238.948 Q2079.51 238.948 2081.71 241.796 Q2083.91 244.62 2083.91 249.851 L2083.91 265.499 L2079.63 265.499 L2079.63 249.99 Q2079.63 246.263 2078.31 244.458 Q2076.99 242.652 2074.28 242.652 Q2070.97 242.652 2069.05 244.851 Q2067.13 247.05 2067.13 250.846 L2067.13 265.499 L2062.85 265.499 L2062.85 249.99 Q2062.85 246.24 2061.53 244.458 Q2060.21 242.652 2057.45 242.652 Q2054.19 242.652 2052.27 244.874 Q2050.35 247.073 2050.35 250.846 L2050.35 265.499 L2046.06 265.499 L2046.06 239.573 L2050.35 239.573 L2050.35 243.601 Q2051.81 241.217 2053.84 240.083 Q2055.88 238.948 2058.68 238.948 Q2061.5 238.948 2063.47 240.384 Q2065.46 241.819 2066.41 244.55 Z" fill="#000000" fill-rule="evenodd" fill-opacity="1" /><path clip-path="url(#clip950)" d="M2096.53 261.61 L2096.53 275.36 L2092.24 275.36 L2092.24 239.573 L2096.53 239.573 L2096.53 243.509 Q2097.87 241.194 2099.91 240.083 Q2101.97 238.948 2104.81 238.948 Q2109.54 238.948 2112.48 242.698 Q2115.44 246.448 2115.44 252.559 Q2115.44 258.671 2112.48 262.42 Q2109.54 266.17 2104.81 266.17 Q2101.97 266.17 2099.91 265.059 Q2097.87 263.925 2096.53 261.61 M2111.02 252.559 Q2111.02 247.86 2109.07 245.198 Q2107.15 242.513 2103.77 242.513 Q2100.39 242.513 2098.45 245.198 Q2096.53 247.86 2096.53 252.559 Q2096.53 257.258 2098.45 259.944 Q2100.39 262.606 2103.77 262.606 Q2107.15 262.606 2109.07 259.944 Q2111.02 257.258 2111.02 252.559 Z" fill="#000000" fill-rule="evenodd" fill-opacity="1" /><path clip-path="url(#clip950)" d="M2139.03 240.337 L2139.03 244.365 Q2137.22 243.439 2135.28 242.976 Q2133.33 242.513 2131.25 242.513 Q2128.08 242.513 2126.48 243.485 Q2124.91 244.458 2124.91 246.402 Q2124.91 247.884 2126.04 248.74 Q2127.18 249.573 2130.6 250.337 L2132.06 250.661 Q2136.6 251.634 2138.49 253.416 Q2140.42 255.175 2140.42 258.346 Q2140.42 261.958 2137.55 264.064 Q2134.7 266.17 2129.7 266.17 Q2127.61 266.17 2125.35 265.754 Q2123.1 265.36 2120.6 264.55 L2120.6 260.152 Q2122.96 261.379 2125.25 262.004 Q2127.55 262.606 2129.79 262.606 Q2132.8 262.606 2134.42 261.587 Q2136.04 260.546 2136.04 258.671 Q2136.04 256.934 2134.86 256.008 Q2133.7 255.083 2129.74 254.226 L2128.26 253.879 Q2124.3 253.046 2122.55 251.333 Q2120.79 249.596 2120.79 246.587 Q2120.79 242.93 2123.38 240.939 Q2125.97 238.948 2130.74 238.948 Q2133.1 238.948 2135.18 239.296 Q2137.27 239.643 2139.03 240.337 Z" fill="#000000" fill-rule="evenodd" fill-opacity="1" /><path clip-path="url(#clip950)" d="M2157.24 242.559 Q2153.82 242.559 2151.83 245.245 Q2149.84 247.907 2149.84 252.559 Q2149.84 257.212 2151.8 259.897 Q2153.8 262.559 2157.24 262.559 Q2160.65 262.559 2162.64 259.874 Q2164.63 257.189 2164.63 252.559 Q2164.63 247.953 2162.64 245.268 Q2160.65 242.559 2157.24 242.559 M2157.24 238.948 Q2162.8 238.948 2165.97 242.559 Q2169.14 246.171 2169.14 252.559 Q2169.14 258.925 2165.97 262.559 Q2162.8 266.17 2157.24 266.17 Q2151.67 266.17 2148.49 262.559 Q2145.35 258.925 2145.35 252.559 Q2145.35 246.171 2148.49 242.559 Q2151.67 238.948 2157.24 238.948 Z" fill="#000000" fill-rule="evenodd" fill-opacity="1" /><path clip-path="url(#clip950)" d="M2197.75 249.851 L2197.75 265.499 L2193.49 265.499 L2193.49 249.99 Q2193.49 246.309 2192.06 244.481 Q2190.62 242.652 2187.75 242.652 Q2184.3 242.652 2182.31 244.851 Q2180.32 247.05 2180.32 250.846 L2180.32 265.499 L2176.04 265.499 L2176.04 239.573 L2180.32 239.573 L2180.32 243.601 Q2181.85 241.263 2183.91 240.106 Q2185.99 238.948 2188.7 238.948 Q2193.17 238.948 2195.46 241.726 Q2197.75 244.481 2197.75 249.851 Z" fill="#000000" fill-rule="evenodd" fill-opacity="1" /></svg>
