<?xml version="1.0" encoding="utf-8"?>
<svg xmlns="http://www.w3.org/2000/svg" xmlns:xlink="http://www.w3.org/1999/xlink" width="600" height="400" viewBox="0 0 2400 1600">
<defs>
  <clipPath id="clip700">
    <rect x="0" y="0" width="2400" height="1600"/>
  </clipPath>
</defs>
<path clip-path="url(#clip700)" d="M0 1600 L2400 1600 L2400 0 L0 0  Z" fill="#ffffff" fill-rule="evenodd" fill-opacity="1"/>
<defs>
  <clipPath id="clip701">
    <rect x="480" y="0" width="1681" height="1600"/>
  </clipPath>
</defs>
<path clip-path="url(#clip700)" d="M219.866 1423.18 L2352.76 1423.18 L2352.76 47.2441 L219.866 47.2441  Z" fill="#ffffff" fill-rule="evenodd" fill-opacity="1"/>
<defs>
  <clipPath id="clip702">
    <rect x="219" y="47" width="2134" height="1377"/>
  </clipPath>
</defs>
<polyline clip-path="url(#clip702)" style="stroke:#000000; stroke-linecap:round; stroke-linejoin:round; stroke-width:2; stroke-opacity:0.1; fill:none" points="239.167,1423.18 239.167,47.2441 "/>
<polyline clip-path="url(#clip702)" style="stroke:#000000; stroke-linecap:round; stroke-linejoin:round; stroke-width:2; stroke-opacity:0.1; fill:none" points="649.811,1423.18 649.811,47.2441 "/>
<polyline clip-path="url(#clip702)" style="stroke:#000000; stroke-linecap:round; stroke-linejoin:round; stroke-width:2; stroke-opacity:0.1; fill:none" points="1060.46,1423.18 1060.46,47.2441 "/>
<polyline clip-path="url(#clip702)" style="stroke:#000000; stroke-linecap:round; stroke-linejoin:round; stroke-width:2; stroke-opacity:0.1; fill:none" points="1471.1,1423.18 1471.1,47.2441 "/>
<polyline clip-path="url(#clip702)" style="stroke:#000000; stroke-linecap:round; stroke-linejoin:round; stroke-width:2; stroke-opacity:0.1; fill:none" points="1881.75,1423.18 1881.75,47.2441 "/>
<polyline clip-path="url(#clip702)" style="stroke:#000000; stroke-linecap:round; stroke-linejoin:round; stroke-width:2; stroke-opacity:0.1; fill:none" points="2292.39,1423.18 2292.39,47.2441 "/>
<polyline clip-path="url(#clip702)" style="stroke:#000000; stroke-linecap:round; stroke-linejoin:round; stroke-width:2; stroke-opacity:0.1; fill:none" points="219.866,1214.5 2352.76,1214.5 "/>
<polyline clip-path="url(#clip702)" style="stroke:#000000; stroke-linecap:round; stroke-linejoin:round; stroke-width:2; stroke-opacity:0.1; fill:none" points="219.866,932.424 2352.76,932.424 "/>
<polyline clip-path="url(#clip702)" style="stroke:#000000; stroke-linecap:round; stroke-linejoin:round; stroke-width:2; stroke-opacity:0.1; fill:none" points="219.866,650.344 2352.76,650.344 "/>
<polyline clip-path="url(#clip702)" style="stroke:#000000; stroke-linecap:round; stroke-linejoin:round; stroke-width:2; stroke-opacity:0.1; fill:none" points="219.866,368.264 2352.76,368.264 "/>
<polyline clip-path="url(#clip702)" style="stroke:#000000; stroke-linecap:round; stroke-linejoin:round; stroke-width:2; stroke-opacity:0.1; fill:none" points="219.866,86.1843 2352.76,86.1843 "/>
<polyline clip-path="url(#clip700)" style="stroke:#000000; stroke-linecap:round; stroke-linejoin:round; stroke-width:4; stroke-opacity:1; fill:none" points="219.866,1423.18 2352.76,1423.18 "/>
<polyline clip-path="url(#clip700)" style="stroke:#000000; stroke-linecap:round; stroke-linejoin:round; stroke-width:4; stroke-opacity:1; fill:none" points="239.167,1423.18 239.167,1404.28 "/>
<polyline clip-path="url(#clip700)" style="stroke:#000000; stroke-linecap:round; stroke-linejoin:round; stroke-width:4; stroke-opacity:1; fill:none" points="649.811,1423.18 649.811,1404.28 "/>
<polyline clip-path="url(#clip700)" style="stroke:#000000; stroke-linecap:round; stroke-linejoin:round; stroke-width:4; stroke-opacity:1; fill:none" points="1060.46,1423.18 1060.46,1404.28 "/>
<polyline clip-path="url(#clip700)" style="stroke:#000000; stroke-linecap:round; stroke-linejoin:round; stroke-width:4; stroke-opacity:1; fill:none" points="1471.1,1423.18 1471.1,1404.28 "/>
<polyline clip-path="url(#clip700)" style="stroke:#000000; stroke-linecap:round; stroke-linejoin:round; stroke-width:4; stroke-opacity:1; fill:none" points="1881.75,1423.18 1881.75,1404.28 "/>
<polyline clip-path="url(#clip700)" style="stroke:#000000; stroke-linecap:round; stroke-linejoin:round; stroke-width:4; stroke-opacity:1; fill:none" points="2292.39,1423.18 2292.39,1404.28 "/>
<path clip-path="url(#clip700)" d="M239.167 1454.1 Q235.555 1454.1 233.727 1457.66 Q231.921 1461.2 231.921 1468.33 Q231.921 1475.44 233.727 1479.01 Q235.555 1482.55 239.167 1482.55 Q242.801 1482.55 244.606 1479.01 Q246.435 1475.44 246.435 1468.33 Q246.435 1461.2 244.606 1457.66 Q242.801 1454.1 239.167 1454.1 M239.167 1450.39 Q244.977 1450.39 248.032 1455 Q251.111 1459.58 251.111 1468.33 Q251.111 1477.06 248.032 1481.67 Q244.977 1486.25 239.167 1486.25 Q233.356 1486.25 230.278 1481.67 Q227.222 1477.06 227.222 1468.33 Q227.222 1459.58 230.278 1455 Q233.356 1450.39 239.167 1450.39 Z" fill="#000000" fill-rule="nonzero" fill-opacity="1" /><path clip-path="url(#clip700)" d="M640.193 1481.64 L647.832 1481.64 L647.832 1455.28 L639.522 1456.95 L639.522 1452.69 L647.786 1451.02 L652.462 1451.02 L652.462 1481.64 L660.101 1481.64 L660.101 1485.58 L640.193 1485.58 L640.193 1481.64 Z" fill="#000000" fill-rule="nonzero" fill-opacity="1" /><path clip-path="url(#clip700)" d="M1055.11 1481.64 L1071.43 1481.64 L1071.43 1485.58 L1049.48 1485.58 L1049.48 1481.64 Q1052.15 1478.89 1056.73 1474.26 Q1061.34 1469.61 1062.52 1468.27 Q1064.76 1465.74 1065.64 1464.01 Q1066.54 1462.25 1066.54 1460.56 Q1066.54 1457.8 1064.6 1456.07 Q1062.68 1454.33 1059.58 1454.33 Q1057.38 1454.33 1054.92 1455.09 Q1052.49 1455.86 1049.72 1457.41 L1049.72 1452.69 Q1052.54 1451.55 1054.99 1450.97 Q1057.45 1450.39 1059.48 1450.39 Q1064.85 1450.39 1068.05 1453.08 Q1071.24 1455.77 1071.24 1460.26 Q1071.24 1462.39 1070.43 1464.31 Q1069.65 1466.2 1067.54 1468.8 Q1066.96 1469.47 1063.86 1472.69 Q1060.76 1475.88 1055.11 1481.64 Z" fill="#000000" fill-rule="nonzero" fill-opacity="1" /><path clip-path="url(#clip700)" d="M1475.35 1466.95 Q1478.71 1467.66 1480.58 1469.93 Q1482.48 1472.2 1482.48 1475.53 Q1482.48 1480.65 1478.96 1483.45 Q1475.44 1486.25 1468.96 1486.25 Q1466.78 1486.25 1464.47 1485.81 Q1462.18 1485.39 1459.72 1484.54 L1459.72 1480.02 Q1461.67 1481.16 1463.98 1481.74 Q1466.3 1482.32 1468.82 1482.32 Q1473.22 1482.32 1475.51 1480.58 Q1477.83 1478.84 1477.83 1475.53 Q1477.83 1472.48 1475.67 1470.77 Q1473.54 1469.03 1469.72 1469.03 L1465.7 1469.03 L1465.7 1465.19 L1469.91 1465.19 Q1473.36 1465.19 1475.19 1463.82 Q1477.02 1462.43 1477.02 1459.84 Q1477.02 1457.18 1475.12 1455.77 Q1473.24 1454.33 1469.72 1454.33 Q1467.8 1454.33 1465.6 1454.75 Q1463.4 1455.16 1460.77 1456.04 L1460.77 1451.88 Q1463.43 1451.14 1465.74 1450.77 Q1468.08 1450.39 1470.14 1450.39 Q1475.46 1450.39 1478.57 1452.83 Q1481.67 1455.23 1481.67 1459.35 Q1481.67 1462.22 1480.02 1464.21 Q1478.38 1466.18 1475.35 1466.95 Z" fill="#000000" fill-rule="nonzero" fill-opacity="1" /><path clip-path="url(#clip700)" d="M1884.76 1455.09 L1872.95 1473.54 L1884.76 1473.54 L1884.76 1455.09 M1883.53 1451.02 L1889.41 1451.02 L1889.41 1473.54 L1894.34 1473.54 L1894.34 1477.43 L1889.41 1477.43 L1889.41 1485.58 L1884.76 1485.58 L1884.76 1477.43 L1869.15 1477.43 L1869.15 1472.92 L1883.53 1451.02 Z" fill="#000000" fill-rule="nonzero" fill-opacity="1" /><path clip-path="url(#clip700)" d="M2282.67 1451.02 L2301.03 1451.02 L2301.03 1454.96 L2286.95 1454.96 L2286.95 1463.43 Q2287.97 1463.08 2288.99 1462.92 Q2290.01 1462.73 2291.03 1462.73 Q2296.81 1462.73 2300.19 1465.9 Q2303.57 1469.08 2303.57 1474.49 Q2303.57 1480.07 2300.1 1483.17 Q2296.63 1486.25 2290.31 1486.25 Q2288.13 1486.25 2285.86 1485.88 Q2283.62 1485.51 2281.21 1484.77 L2281.21 1480.07 Q2283.29 1481.2 2285.52 1481.76 Q2287.74 1482.32 2290.22 1482.32 Q2294.22 1482.32 2296.56 1480.21 Q2298.9 1478.1 2298.9 1474.49 Q2298.9 1470.88 2296.56 1468.77 Q2294.22 1466.67 2290.22 1466.67 Q2288.34 1466.67 2286.47 1467.08 Q2284.61 1467.5 2282.67 1468.38 L2282.67 1451.02 Z" fill="#000000" fill-rule="nonzero" fill-opacity="1" /><path clip-path="url(#clip700)" d="M1089.88 1520.52 L1098.54 1520.52 L1119.61 1560.28 L1119.61 1520.52 L1125.85 1520.52 L1125.85 1568.04 L1117.19 1568.04 L1096.12 1528.29 L1096.12 1568.04 L1089.88 1568.04 L1089.88 1520.52 Z" fill="#000000" fill-rule="nonzero" fill-opacity="1" /><path clip-path="url(#clip700)" d="M1137.78 1553.98 L1137.78 1532.4 L1143.64 1532.4 L1143.64 1553.75 Q1143.64 1558.81 1145.61 1561.36 Q1147.59 1563.87 1151.53 1563.87 Q1156.28 1563.87 1159.01 1560.85 Q1161.78 1557.83 1161.78 1552.61 L1161.78 1532.4 L1167.64 1532.4 L1167.64 1568.04 L1161.78 1568.04 L1161.78 1562.57 Q1159.65 1565.82 1156.82 1567.41 Q1154.02 1568.97 1150.29 1568.97 Q1144.15 1568.97 1140.97 1565.15 Q1137.78 1561.33 1137.78 1553.98 M1152.52 1531.54 L1152.52 1531.54 Z" fill="#000000" fill-rule="nonzero" fill-opacity="1" /><path clip-path="url(#clip700)" d="M1207.46 1539.24 Q1209.65 1535.29 1212.71 1533.41 Q1215.76 1531.54 1219.9 1531.54 Q1225.47 1531.54 1228.49 1535.45 Q1231.52 1539.33 1231.52 1546.53 L1231.52 1568.04 L1225.63 1568.04 L1225.63 1546.72 Q1225.63 1541.59 1223.82 1539.11 Q1222 1536.63 1218.28 1536.63 Q1213.73 1536.63 1211.08 1539.65 Q1208.44 1542.68 1208.44 1547.9 L1208.44 1568.04 L1202.55 1568.04 L1202.55 1546.72 Q1202.55 1541.56 1200.74 1539.11 Q1198.93 1536.63 1195.14 1536.63 Q1190.65 1536.63 1188.01 1539.68 Q1185.37 1542.71 1185.37 1547.9 L1185.37 1568.04 L1179.48 1568.04 L1179.48 1532.4 L1185.37 1532.4 L1185.37 1537.93 Q1187.37 1534.66 1190.17 1533.1 Q1192.97 1531.54 1196.83 1531.54 Q1200.71 1531.54 1203.41 1533.51 Q1206.15 1535.48 1207.46 1539.24 Z" fill="#000000" fill-rule="nonzero" fill-opacity="1" /><path clip-path="url(#clip700)" d="M1273.69 1548.76 L1273.69 1551.62 L1246.76 1551.62 Q1247.15 1557.67 1250.39 1560.85 Q1253.67 1564 1259.5 1564 Q1262.87 1564 1266.02 1563.17 Q1269.2 1562.35 1272.32 1560.69 L1272.32 1566.23 Q1269.17 1567.57 1265.86 1568.27 Q1262.55 1568.97 1259.15 1568.97 Q1250.62 1568.97 1245.62 1564 Q1240.65 1559.04 1240.65 1550.57 Q1240.65 1541.82 1245.36 1536.69 Q1250.11 1531.54 1258.13 1531.54 Q1265.32 1531.54 1269.49 1536.18 Q1273.69 1540.8 1273.69 1548.76 M1267.83 1547.04 Q1267.77 1542.23 1265.13 1539.37 Q1262.52 1536.5 1258.19 1536.5 Q1253.29 1536.5 1250.33 1539.27 Q1247.4 1542.04 1246.96 1547.07 L1267.83 1547.04 Z" fill="#000000" fill-rule="nonzero" fill-opacity="1" /><path clip-path="url(#clip700)" d="M1303.96 1537.87 Q1302.97 1537.3 1301.8 1537.04 Q1300.65 1536.76 1299.25 1536.76 Q1294.28 1536.76 1291.61 1540 Q1288.97 1543.22 1288.97 1549.27 L1288.97 1568.04 L1283.08 1568.04 L1283.08 1532.4 L1288.97 1532.4 L1288.97 1537.93 Q1290.81 1534.69 1293.77 1533.13 Q1296.73 1531.54 1300.97 1531.54 Q1301.57 1531.54 1302.3 1531.63 Q1303.04 1531.7 1303.93 1531.85 L1303.96 1537.87 Z" fill="#000000" fill-rule="nonzero" fill-opacity="1" /><path clip-path="url(#clip700)" d="M1322.48 1536.5 Q1317.77 1536.5 1315.04 1540.19 Q1312.3 1543.85 1312.3 1550.25 Q1312.3 1556.65 1315 1560.34 Q1317.74 1564 1322.48 1564 Q1327.16 1564 1329.9 1560.31 Q1332.64 1556.62 1332.64 1550.25 Q1332.64 1543.92 1329.9 1540.23 Q1327.16 1536.5 1322.48 1536.5 M1322.48 1531.54 Q1330.12 1531.54 1334.48 1536.5 Q1338.84 1541.47 1338.84 1550.25 Q1338.84 1559 1334.48 1564 Q1330.12 1568.97 1322.48 1568.97 Q1314.81 1568.97 1310.45 1564 Q1306.12 1559 1306.12 1550.25 Q1306.12 1541.47 1310.45 1536.5 Q1314.81 1531.54 1322.48 1531.54 Z" fill="#000000" fill-rule="nonzero" fill-opacity="1" /><path clip-path="url(#clip700)" d="M1392.73 1537.81 L1392.73 1518.52 L1398.59 1518.52 L1398.59 1568.04 L1392.73 1568.04 L1392.73 1562.7 Q1390.88 1565.88 1388.05 1567.44 Q1385.25 1568.97 1381.3 1568.97 Q1374.84 1568.97 1370.77 1563.81 Q1366.73 1558.65 1366.73 1550.25 Q1366.73 1541.85 1370.77 1536.69 Q1374.84 1531.54 1381.3 1531.54 Q1385.25 1531.54 1388.05 1533.1 Q1390.88 1534.62 1392.73 1537.81 M1372.77 1550.25 Q1372.77 1556.71 1375.42 1560.4 Q1378.09 1564.07 1382.74 1564.07 Q1387.38 1564.07 1390.06 1560.4 Q1392.73 1556.71 1392.73 1550.25 Q1392.73 1543.79 1390.06 1540.13 Q1387.38 1536.44 1382.74 1536.44 Q1378.09 1536.44 1375.42 1540.13 Q1372.77 1543.79 1372.77 1550.25 Z" fill="#000000" fill-rule="nonzero" fill-opacity="1" /><path clip-path="url(#clip700)" d="M1410.65 1532.4 L1416.51 1532.4 L1416.51 1568.04 L1410.65 1568.04 L1410.65 1532.4 M1410.65 1518.52 L1416.51 1518.52 L1416.51 1525.93 L1410.65 1525.93 L1410.65 1518.52 Z" fill="#000000" fill-rule="nonzero" fill-opacity="1" /><path clip-path="url(#clip700)" d="M1463.29 1537.04 Q1458.46 1537.04 1455.85 1540.54 Q1453.11 1544.2 1453.11 1550.25 Q1453.11 1556.65 1455.81 1560.34 Q1458.55 1564 1463.29 1564 Q1467.97 1564 1470.71 1560.31 Q1473.45 1556.62 1473.45 1550.25 Q1473.45 1544.43 1470.71 1540.54 Q1468.2 1537.04 1463.29 1537.04 M1463.29 1532.4 L1482.74 1532.4 L1482.74 1538.25 L1476.18 1538.25 Q1479.65 1543.22 1479.65 1550.25 Q1479.65 1559 1475.29 1563.97 Q1470.93 1568.97 1463.29 1568.97 Q1455.62 1568.97 1451.29 1563.97 Q1446.93 1559 1446.93 1550.25 Q1446.93 1541.44 1451.29 1536.5 Q1454.89 1532.4 1463.29 1532.4 Z" fill="#000000" fill-rule="nonzero" fill-opacity="1" /><polyline clip-path="url(#clip700)" style="stroke:#000000; stroke-linecap:round; stroke-linejoin:round; stroke-width:4; stroke-opacity:1; fill:none" points="219.866,1423.18 219.866,47.2441 "/>
<polyline clip-path="url(#clip700)" style="stroke:#000000; stroke-linecap:round; stroke-linejoin:round; stroke-width:4; stroke-opacity:1; fill:none" points="219.866,1214.5 238.764,1214.5 "/>
<polyline clip-path="url(#clip700)" style="stroke:#000000; stroke-linecap:round; stroke-linejoin:round; stroke-width:4; stroke-opacity:1; fill:none" points="219.866,932.424 238.764,932.424 "/>
<polyline clip-path="url(#clip700)" style="stroke:#000000; stroke-linecap:round; stroke-linejoin:round; stroke-width:4; stroke-opacity:1; fill:none" points="219.866,650.344 238.764,650.344 "/>
<polyline clip-path="url(#clip700)" style="stroke:#000000; stroke-linecap:round; stroke-linejoin:round; stroke-width:4; stroke-opacity:1; fill:none" points="219.866,368.264 238.764,368.264 "/>
<polyline clip-path="url(#clip700)" style="stroke:#000000; stroke-linecap:round; stroke-linejoin:round; stroke-width:4; stroke-opacity:1; fill:none" points="219.866,86.1843 238.764,86.1843 "/>
<path clip-path="url(#clip700)" d="M128.288 1200.3 Q124.677 1200.3 122.848 1203.87 Q121.043 1207.41 121.043 1214.54 Q121.043 1221.64 122.848 1225.21 Q124.677 1228.75 128.288 1228.75 Q131.922 1228.75 133.728 1225.21 Q135.556 1221.64 135.556 1214.54 Q135.556 1207.41 133.728 1203.87 Q131.922 1200.3 128.288 1200.3 M128.288 1196.6 Q134.098 1196.6 137.154 1201.2 Q140.232 1205.79 140.232 1214.54 Q140.232 1223.26 137.154 1227.87 Q134.098 1232.45 128.288 1232.45 Q122.478 1232.45 119.399 1227.87 Q116.343 1223.26 116.343 1214.54 Q116.343 1205.79 119.399 1201.2 Q122.478 1196.6 128.288 1196.6 Z" fill="#000000" fill-rule="nonzero" fill-opacity="1" /><path clip-path="url(#clip700)" d="M148.45 1225.9 L153.334 1225.9 L153.334 1231.78 L148.45 1231.78 L148.45 1225.9 Z" fill="#000000" fill-rule="nonzero" fill-opacity="1" /><path clip-path="url(#clip700)" d="M167.547 1227.85 L183.866 1227.85 L183.866 1231.78 L161.922 1231.78 L161.922 1227.85 Q164.584 1225.09 169.167 1220.46 Q173.774 1215.81 174.954 1214.47 Q177.2 1211.95 178.079 1210.21 Q178.982 1208.45 178.982 1206.76 Q178.982 1204.01 177.038 1202.27 Q175.116 1200.53 172.014 1200.53 Q169.815 1200.53 167.362 1201.3 Q164.931 1202.06 162.153 1203.61 L162.153 1198.89 Q164.977 1197.76 167.431 1197.18 Q169.885 1196.6 171.922 1196.6 Q177.292 1196.6 180.487 1199.28 Q183.681 1201.97 183.681 1206.46 Q183.681 1208.59 182.871 1210.51 Q182.084 1212.41 179.977 1215 Q179.399 1215.67 176.297 1218.89 Q173.195 1222.08 167.547 1227.85 Z" fill="#000000" fill-rule="nonzero" fill-opacity="1" /><path clip-path="url(#clip700)" d="M126.205 918.222 Q122.593 918.222 120.765 921.787 Q118.959 925.329 118.959 932.458 Q118.959 939.565 120.765 943.13 Q122.593 946.671 126.205 946.671 Q129.839 946.671 131.644 943.13 Q133.473 939.565 133.473 932.458 Q133.473 925.329 131.644 921.787 Q129.839 918.222 126.205 918.222 M126.205 914.519 Q132.015 914.519 135.07 919.125 Q138.149 923.708 138.149 932.458 Q138.149 941.185 135.07 945.792 Q132.015 950.375 126.205 950.375 Q120.394 950.375 117.316 945.792 Q114.26 941.185 114.26 932.458 Q114.26 923.708 117.316 919.125 Q120.394 914.519 126.205 914.519 Z" fill="#000000" fill-rule="nonzero" fill-opacity="1" /><path clip-path="url(#clip700)" d="M146.366 943.824 L151.251 943.824 L151.251 949.704 L146.366 949.704 L146.366 943.824 Z" fill="#000000" fill-rule="nonzero" fill-opacity="1" /><path clip-path="url(#clip700)" d="M174.283 919.218 L162.477 937.667 L174.283 937.667 L174.283 919.218 M173.056 915.144 L178.936 915.144 L178.936 937.667 L183.866 937.667 L183.866 941.555 L178.936 941.555 L178.936 949.704 L174.283 949.704 L174.283 941.555 L158.681 941.555 L158.681 937.042 L173.056 915.144 Z" fill="#000000" fill-rule="nonzero" fill-opacity="1" /><path clip-path="url(#clip700)" d="M126.529 636.142 Q122.918 636.142 121.089 639.707 Q119.283 643.249 119.283 650.379 Q119.283 657.485 121.089 661.05 Q122.918 664.591 126.529 664.591 Q130.163 664.591 131.968 661.05 Q133.797 657.485 133.797 650.379 Q133.797 643.249 131.968 639.707 Q130.163 636.142 126.529 636.142 M126.529 632.439 Q132.339 632.439 135.394 637.045 Q138.473 641.629 138.473 650.379 Q138.473 659.105 135.394 663.712 Q132.339 668.295 126.529 668.295 Q120.718 668.295 117.64 663.712 Q114.584 659.105 114.584 650.379 Q114.584 641.629 117.64 637.045 Q120.718 632.439 126.529 632.439 Z" fill="#000000" fill-rule="nonzero" fill-opacity="1" /><path clip-path="url(#clip700)" d="M146.691 661.744 L151.575 661.744 L151.575 667.624 L146.691 667.624 L146.691 661.744 Z" fill="#000000" fill-rule="nonzero" fill-opacity="1" /><path clip-path="url(#clip700)" d="M172.339 648.48 Q169.19 648.48 167.339 650.633 Q165.51 652.786 165.51 656.536 Q165.51 660.263 167.339 662.439 Q169.19 664.591 172.339 664.591 Q175.487 664.591 177.315 662.439 Q179.167 660.263 179.167 656.536 Q179.167 652.786 177.315 650.633 Q175.487 648.48 172.339 648.48 M181.621 633.828 L181.621 638.087 Q179.862 637.254 178.056 636.814 Q176.274 636.374 174.514 636.374 Q169.885 636.374 167.431 639.499 Q165.001 642.624 164.653 648.943 Q166.019 646.929 168.079 645.865 Q170.139 644.777 172.616 644.777 Q177.825 644.777 180.834 647.948 Q183.866 651.096 183.866 656.536 Q183.866 661.86 180.718 665.078 Q177.57 668.295 172.339 668.295 Q166.343 668.295 163.172 663.712 Q160.001 659.105 160.001 650.379 Q160.001 642.184 163.89 637.323 Q167.778 632.439 174.329 632.439 Q176.089 632.439 177.871 632.786 Q179.676 633.133 181.621 633.828 Z" fill="#000000" fill-rule="nonzero" fill-opacity="1" /><path clip-path="url(#clip700)" d="M126.783 354.063 Q123.172 354.063 121.343 357.628 Q119.538 361.169 119.538 368.299 Q119.538 375.405 121.343 378.97 Q123.172 382.512 126.783 382.512 Q130.417 382.512 132.223 378.97 Q134.052 375.405 134.052 368.299 Q134.052 361.169 132.223 357.628 Q130.417 354.063 126.783 354.063 M126.783 350.359 Q132.593 350.359 135.649 354.965 Q138.728 359.549 138.728 368.299 Q138.728 377.026 135.649 381.632 Q132.593 386.215 126.783 386.215 Q120.973 386.215 117.894 381.632 Q114.839 377.026 114.839 368.299 Q114.839 359.549 117.894 354.965 Q120.973 350.359 126.783 350.359 Z" fill="#000000" fill-rule="nonzero" fill-opacity="1" /><path clip-path="url(#clip700)" d="M146.945 379.664 L151.829 379.664 L151.829 385.544 L146.945 385.544 L146.945 379.664 Z" fill="#000000" fill-rule="nonzero" fill-opacity="1" /><path clip-path="url(#clip700)" d="M172.014 369.132 Q168.681 369.132 166.76 370.914 Q164.862 372.697 164.862 375.822 Q164.862 378.947 166.76 380.729 Q168.681 382.512 172.014 382.512 Q175.348 382.512 177.269 380.729 Q179.19 378.924 179.19 375.822 Q179.19 372.697 177.269 370.914 Q175.371 369.132 172.014 369.132 M167.339 367.141 Q164.329 366.401 162.64 364.34 Q160.973 362.28 160.973 359.317 Q160.973 355.174 163.913 352.766 Q166.876 350.359 172.014 350.359 Q177.176 350.359 180.116 352.766 Q183.056 355.174 183.056 359.317 Q183.056 362.28 181.366 364.34 Q179.7 366.401 176.714 367.141 Q180.093 367.928 181.968 370.22 Q183.866 372.512 183.866 375.822 Q183.866 380.845 180.788 383.53 Q177.732 386.215 172.014 386.215 Q166.297 386.215 163.218 383.53 Q160.163 380.845 160.163 375.822 Q160.163 372.512 162.061 370.22 Q163.959 367.928 167.339 367.141 M165.626 359.757 Q165.626 362.442 167.292 363.947 Q168.982 365.452 172.014 365.452 Q175.024 365.452 176.714 363.947 Q178.426 362.442 178.426 359.757 Q178.426 357.072 176.714 355.567 Q175.024 354.063 172.014 354.063 Q168.982 354.063 167.292 355.567 Q165.626 357.072 165.626 359.757 Z" fill="#000000" fill-rule="nonzero" fill-opacity="1" /><path clip-path="url(#clip700)" d="M117.501 99.5291 L125.14 99.5291 L125.14 73.1635 L116.83 74.8302 L116.83 70.5709 L125.093 68.9043 L129.769 68.9043 L129.769 99.5291 L137.408 99.5291 L137.408 103.464 L117.501 103.464 L117.501 99.5291 Z" fill="#000000" fill-rule="nonzero" fill-opacity="1" /><path clip-path="url(#clip700)" d="M146.853 97.5847 L151.737 97.5847 L151.737 103.464 L146.853 103.464 L146.853 97.5847 Z" fill="#000000" fill-rule="nonzero" fill-opacity="1" /><path clip-path="url(#clip700)" d="M171.922 71.983 Q168.311 71.983 166.482 75.5477 Q164.677 79.0894 164.677 86.219 Q164.677 93.3254 166.482 96.8902 Q168.311 100.432 171.922 100.432 Q175.556 100.432 177.362 96.8902 Q179.19 93.3254 179.19 86.219 Q179.19 79.0894 177.362 75.5477 Q175.556 71.983 171.922 71.983 M171.922 68.2793 Q177.732 68.2793 180.788 72.8857 Q183.866 77.469 183.866 86.219 Q183.866 94.9458 180.788 99.5522 Q177.732 104.136 171.922 104.136 Q166.112 104.136 163.033 99.5522 Q159.978 94.9458 159.978 86.219 Q159.978 77.469 163.033 72.8857 Q166.112 68.2793 171.922 68.2793 Z" fill="#000000" fill-rule="nonzero" fill-opacity="1" /><path clip-path="url(#clip700)" d="M21.7677 895.596 L39.6235 895.596 L39.6235 887.511 Q39.6235 883.024 37.3 880.573 Q34.9765 878.122 30.6797 878.122 Q26.4147 878.122 24.0912 880.573 Q21.7677 883.024 21.7677 887.511 L21.7677 895.596 M16.4842 902.025 L16.4842 887.511 Q16.4842 879.523 20.1126 875.448 Q23.7092 871.343 30.6797 871.343 Q37.7138 871.343 41.3104 875.448 Q44.907 879.523 44.907 887.511 L44.907 895.596 L64.0042 895.596 L64.0042 902.025 L16.4842 902.025 Z" fill="#000000" fill-rule="nonzero" fill-opacity="1" /><path clip-path="url(#clip700)" d="M33.8307 843.461 Q33.2578 844.447 33.0032 845.625 Q32.7167 846.771 32.7167 848.171 Q32.7167 853.137 35.9632 855.81 Q39.1779 858.452 45.2253 858.452 L64.0042 858.452 L64.0042 864.34 L28.3562 864.34 L28.3562 858.452 L33.8944 858.452 Q30.6479 856.606 29.0883 853.646 Q27.4968 850.686 27.4968 846.453 Q27.4968 845.848 27.5923 845.116 Q27.656 844.384 27.8151 843.493 L33.8307 843.461 Z" fill="#000000" fill-rule="nonzero" fill-opacity="1" /><path clip-path="url(#clip700)" d="M32.4621 824.937 Q32.4621 829.647 36.1542 832.384 Q39.8145 835.122 46.212 835.122 Q52.6095 835.122 56.3017 832.416 Q59.9619 829.679 59.9619 824.937 Q59.9619 820.258 56.2698 817.521 Q52.5777 814.783 46.212 814.783 Q39.8781 814.783 36.186 817.521 Q32.4621 820.258 32.4621 824.937 M27.4968 824.937 Q27.4968 817.298 32.4621 812.937 Q37.4273 808.577 46.212 808.577 Q54.9649 808.577 59.9619 812.937 Q64.9272 817.298 64.9272 824.937 Q64.9272 832.607 59.9619 836.968 Q54.9649 841.296 46.212 841.296 Q37.4273 841.296 32.4621 836.968 Q27.4968 832.607 27.4968 824.937 Z" fill="#000000" fill-rule="nonzero" fill-opacity="1" /><path clip-path="url(#clip700)" d="M46.212 773.279 Q39.7508 773.279 36.0905 775.952 Q32.3984 778.594 32.3984 783.241 Q32.3984 787.888 36.0905 790.562 Q39.7508 793.204 46.212 793.204 Q52.6732 793.204 56.3653 790.562 Q60.0256 787.888 60.0256 783.241 Q60.0256 778.594 56.3653 775.952 Q52.6732 773.279 46.212 773.279 M33.7671 793.204 Q30.5842 791.358 29.0564 788.557 Q27.4968 785.724 27.4968 781.809 Q27.4968 775.316 32.6531 771.274 Q37.8093 767.2 46.212 767.2 Q54.6147 767.2 59.771 771.274 Q64.9272 775.316 64.9272 781.809 Q64.9272 785.724 63.3994 788.557 Q61.8398 791.358 58.657 793.204 L64.0042 793.204 L64.0042 799.092 L14.479 799.092 L14.479 793.204 L33.7671 793.204 Z" fill="#000000" fill-rule="nonzero" fill-opacity="1" /><path clip-path="url(#clip700)" d="M46.0847 741.291 Q46.0847 748.389 47.7079 751.126 Q49.3312 753.863 53.2461 753.863 Q56.3653 753.863 58.2114 751.826 Q60.0256 749.758 60.0256 746.225 Q60.0256 741.355 56.5881 738.427 Q53.1188 735.467 47.3897 735.467 L46.0847 735.467 L46.0847 741.291 M43.6657 729.61 L64.0042 729.61 L64.0042 735.467 L58.5933 735.467 Q61.8398 737.472 63.3994 740.464 Q64.9272 743.456 64.9272 747.784 Q64.9272 753.259 61.8716 756.505 Q58.7843 759.72 53.6281 759.72 Q47.6125 759.72 44.5569 755.71 Q41.5014 751.667 41.5014 743.678 L41.5014 735.467 L40.9285 735.467 Q36.8862 735.467 34.6901 738.14 Q32.4621 740.782 32.4621 745.588 Q32.4621 748.644 33.1941 751.54 Q33.9262 754.436 35.3903 757.11 L29.9795 757.11 Q28.7381 753.895 28.1334 750.872 Q27.4968 747.848 27.4968 744.983 Q27.4968 737.249 31.5072 733.43 Q35.5176 729.61 43.6657 729.61 Z" fill="#000000" fill-rule="nonzero" fill-opacity="1" /><path clip-path="url(#clip700)" d="M46.212 691.957 Q39.7508 691.957 36.0905 694.631 Q32.3984 697.272 32.3984 701.919 Q32.3984 706.566 36.0905 709.24 Q39.7508 711.882 46.212 711.882 Q52.6732 711.882 56.3653 709.24 Q60.0256 706.566 60.0256 701.919 Q60.0256 697.272 56.3653 694.631 Q52.6732 691.957 46.212 691.957 M33.7671 711.882 Q30.5842 710.036 29.0564 707.235 Q27.4968 704.402 27.4968 700.487 Q27.4968 693.994 32.6531 689.952 Q37.8093 685.878 46.212 685.878 Q54.6147 685.878 59.771 689.952 Q64.9272 693.994 64.9272 700.487 Q64.9272 704.402 63.3994 707.235 Q61.8398 710.036 58.657 711.882 L64.0042 711.882 L64.0042 717.77 L14.479 717.77 L14.479 711.882 L33.7671 711.882 Z" fill="#000000" fill-rule="nonzero" fill-opacity="1" /><path clip-path="url(#clip700)" d="M28.3562 676.17 L28.3562 670.314 L64.0042 670.314 L64.0042 676.17 L28.3562 676.17 M14.479 676.17 L14.479 670.314 L21.895 670.314 L21.895 676.17 L14.479 676.17 Z" fill="#000000" fill-rule="nonzero" fill-opacity="1" /><path clip-path="url(#clip700)" d="M14.479 658.06 L14.479 652.203 L64.0042 652.203 L64.0042 658.06 L14.479 658.06 Z" fill="#000000" fill-rule="nonzero" fill-opacity="1" /><path clip-path="url(#clip700)" d="M28.3562 639.949 L28.3562 634.093 L64.0042 634.093 L64.0042 639.949 L28.3562 639.949 M14.479 639.949 L14.479 634.093 L21.895 634.093 L21.895 639.949 L14.479 639.949 Z" fill="#000000" fill-rule="nonzero" fill-opacity="1" /><path clip-path="url(#clip700)" d="M18.2347 616.046 L28.3562 616.046 L28.3562 603.983 L32.9077 603.983 L32.9077 616.046 L52.2594 616.046 Q56.6199 616.046 57.8613 614.868 Q59.1026 613.659 59.1026 609.999 L59.1026 603.983 L64.0042 603.983 L64.0042 609.999 Q64.0042 616.778 61.4897 619.356 Q58.9434 621.934 52.2594 621.934 L32.9077 621.934 L32.9077 626.231 L28.3562 626.231 L28.3562 621.934 L18.2347 621.934 L18.2347 616.046 Z" fill="#000000" fill-rule="nonzero" fill-opacity="1" /><path clip-path="url(#clip700)" d="M46.0847 580.08 Q46.0847 587.177 47.7079 589.915 Q49.3312 592.652 53.2461 592.652 Q56.3653 592.652 58.2114 590.615 Q60.0256 588.546 60.0256 585.013 Q60.0256 580.143 56.5881 577.215 Q53.1188 574.255 47.3897 574.255 L46.0847 574.255 L46.0847 580.08 M43.6657 568.399 L64.0042 568.399 L64.0042 574.255 L58.5933 574.255 Q61.8398 576.26 63.3994 579.252 Q64.9272 582.244 64.9272 586.573 Q64.9272 592.047 61.8716 595.294 Q58.7843 598.508 53.6281 598.508 Q47.6125 598.508 44.5569 594.498 Q41.5014 590.456 41.5014 582.467 L41.5014 574.255 L40.9285 574.255 Q36.8862 574.255 34.6901 576.929 Q32.4621 579.57 32.4621 584.377 Q32.4621 587.432 33.1941 590.328 Q33.9262 593.225 35.3903 595.898 L29.9795 595.898 Q28.7381 592.684 28.1334 589.66 Q27.4968 586.636 27.4968 583.772 Q27.4968 576.037 31.5072 572.218 Q35.5176 568.399 43.6657 568.399 M11.869 588.132 L23.7729 579.157 L23.7729 584.026 L11.869 594.403 L11.869 588.132 Z" fill="#000000" fill-rule="nonzero" fill-opacity="1" /><polyline clip-path="url(#clip702)" style="stroke:#009af9; stroke-linecap:round; stroke-linejoin:round; stroke-width:4; stroke-opacity:1; fill:none" points="280.231,1384.24 321.296,1273.01 362.36,1163.98 403.425,1058.17 444.489,956.509 485.554,859.798 526.618,768.716 567.683,683.788 608.747,605.383 649.811,533.722 690.876,468.872 731.94,410.774 773.005,359.24 814.069,313.984 855.134,274.635 896.198,240.764 937.263,211.896 978.327,187.538 1019.39,167.189 1060.46,150.359 1101.52,136.578 1142.59,125.404 1183.65,116.436 1224.71,109.309 1265.78,103.701 1306.84,99.336 1347.91,95.9668 1388.97,93.3943 1430.04,91.4494 1471.1,89.9938 1512.17,88.9151 1553.23,88.1237 1594.29,87.5488 1635.36,87.1375 1676.42,86.8426 1717.49,86.6347 1758.55,86.4896 1799.62,86.3893 1840.68,86.3226 1881.75,86.2756 1922.81,86.2439 1963.88,86.2229 2004.94,86.2111 2046,86.2014 2087.07,86.1988 2128.13,86.1935 2169.2,86.1901 2210.26,86.1879 2251.33,86.1866 2292.39,86.1857 "/>
</svg>
