<?xml version="1.0" encoding="utf-8"?>
<svg xmlns="http://www.w3.org/2000/svg" xmlns:xlink="http://www.w3.org/1999/xlink" width="600" height="400" viewBox="0 0 2400 1600">
<defs>
  <clipPath id="clip030">
    <rect x="0" y="0" width="2400" height="1600"/>
  </clipPath>
</defs>
<path clip-path="url(#clip030)" d="M0 1600 L2400 1600 L2400 0 L0 0  Z" fill="#ffffff" fill-rule="evenodd" fill-opacity="1"/>
<defs>
  <clipPath id="clip031">
    <rect x="480" y="0" width="1681" height="1600"/>
  </clipPath>
</defs>
<path clip-path="url(#clip030)" d="M280.19 1423.18 L2352.76 1423.18 L2352.76 47.2441 L280.19 47.2441  Z" fill="#ffffff" fill-rule="evenodd" fill-opacity="1"/>
<defs>
  <clipPath id="clip032">
    <rect x="280" y="47" width="2074" height="1377"/>
  </clipPath>
</defs>
<polyline clip-path="url(#clip032)" style="stroke:#000000; stroke-linecap:round; stroke-linejoin:round; stroke-width:2; stroke-opacity:0.1; fill:none" points="319.098,1423.18 319.098,47.2441 "/>
<polyline clip-path="url(#clip032)" style="stroke:#000000; stroke-linecap:round; stroke-linejoin:round; stroke-width:2; stroke-opacity:0.1; fill:none" points="812.848,1423.18 812.848,47.2441 "/>
<polyline clip-path="url(#clip032)" style="stroke:#000000; stroke-linecap:round; stroke-linejoin:round; stroke-width:2; stroke-opacity:0.1; fill:none" points="1306.6,1423.18 1306.6,47.2441 "/>
<polyline clip-path="url(#clip032)" style="stroke:#000000; stroke-linecap:round; stroke-linejoin:round; stroke-width:2; stroke-opacity:0.1; fill:none" points="1800.35,1423.18 1800.35,47.2441 "/>
<polyline clip-path="url(#clip032)" style="stroke:#000000; stroke-linecap:round; stroke-linejoin:round; stroke-width:2; stroke-opacity:0.1; fill:none" points="2294.1,1423.18 2294.1,47.2441 "/>
<polyline clip-path="url(#clip032)" style="stroke:#000000; stroke-linecap:round; stroke-linejoin:round; stroke-width:2; stroke-opacity:0.1; fill:none" points="280.19,1384.37 2352.76,1384.37 "/>
<polyline clip-path="url(#clip032)" style="stroke:#000000; stroke-linecap:round; stroke-linejoin:round; stroke-width:2; stroke-opacity:0.1; fill:none" points="280.19,1183.98 2352.76,1183.98 "/>
<polyline clip-path="url(#clip032)" style="stroke:#000000; stroke-linecap:round; stroke-linejoin:round; stroke-width:2; stroke-opacity:0.1; fill:none" points="280.19,983.588 2352.76,983.588 "/>
<polyline clip-path="url(#clip032)" style="stroke:#000000; stroke-linecap:round; stroke-linejoin:round; stroke-width:2; stroke-opacity:0.1; fill:none" points="280.19,783.198 2352.76,783.198 "/>
<polyline clip-path="url(#clip032)" style="stroke:#000000; stroke-linecap:round; stroke-linejoin:round; stroke-width:2; stroke-opacity:0.1; fill:none" points="280.19,582.809 2352.76,582.809 "/>
<polyline clip-path="url(#clip032)" style="stroke:#000000; stroke-linecap:round; stroke-linejoin:round; stroke-width:2; stroke-opacity:0.1; fill:none" points="280.19,382.419 2352.76,382.419 "/>
<polyline clip-path="url(#clip032)" style="stroke:#000000; stroke-linecap:round; stroke-linejoin:round; stroke-width:2; stroke-opacity:0.1; fill:none" points="280.19,182.029 2352.76,182.029 "/>
<polyline clip-path="url(#clip030)" style="stroke:#000000; stroke-linecap:round; stroke-linejoin:round; stroke-width:4; stroke-opacity:1; fill:none" points="280.19,1423.18 2352.76,1423.18 "/>
<polyline clip-path="url(#clip030)" style="stroke:#000000; stroke-linecap:round; stroke-linejoin:round; stroke-width:4; stroke-opacity:1; fill:none" points="319.098,1423.18 319.098,1404.28 "/>
<polyline clip-path="url(#clip030)" style="stroke:#000000; stroke-linecap:round; stroke-linejoin:round; stroke-width:4; stroke-opacity:1; fill:none" points="812.848,1423.18 812.848,1404.28 "/>
<polyline clip-path="url(#clip030)" style="stroke:#000000; stroke-linecap:round; stroke-linejoin:round; stroke-width:4; stroke-opacity:1; fill:none" points="1306.6,1423.18 1306.6,1404.28 "/>
<polyline clip-path="url(#clip030)" style="stroke:#000000; stroke-linecap:round; stroke-linejoin:round; stroke-width:4; stroke-opacity:1; fill:none" points="1800.35,1423.18 1800.35,1404.28 "/>
<polyline clip-path="url(#clip030)" style="stroke:#000000; stroke-linecap:round; stroke-linejoin:round; stroke-width:4; stroke-opacity:1; fill:none" points="2294.1,1423.18 2294.1,1404.28 "/>
<path clip-path="url(#clip030)" d="M319.098 1454.1 Q315.486 1454.1 313.658 1457.66 Q311.852 1461.2 311.852 1468.33 Q311.852 1475.44 313.658 1479.01 Q315.486 1482.55 319.098 1482.55 Q322.732 1482.55 324.537 1479.01 Q326.366 1475.44 326.366 1468.33 Q326.366 1461.2 324.537 1457.66 Q322.732 1454.1 319.098 1454.1 M319.098 1450.39 Q324.908 1450.39 327.963 1455 Q331.042 1459.58 331.042 1468.33 Q331.042 1477.06 327.963 1481.67 Q324.908 1486.25 319.098 1486.25 Q313.287 1486.25 310.209 1481.67 Q307.153 1477.06 307.153 1468.33 Q307.153 1459.58 310.209 1455 Q313.287 1450.39 319.098 1450.39 Z" fill="#000000" fill-rule="nonzero" fill-opacity="1" /><path clip-path="url(#clip030)" d="M776.54 1481.64 L792.859 1481.64 L792.859 1485.58 L770.915 1485.58 L770.915 1481.64 Q773.577 1478.89 778.16 1474.26 Q782.767 1469.61 783.947 1468.27 Q786.193 1465.74 787.072 1464.01 Q787.975 1462.25 787.975 1460.56 Q787.975 1457.8 786.031 1456.07 Q784.109 1454.33 781.008 1454.33 Q778.809 1454.33 776.355 1455.09 Q773.924 1455.86 771.147 1457.41 L771.147 1452.69 Q773.971 1451.55 776.424 1450.97 Q778.878 1450.39 780.915 1450.39 Q786.285 1450.39 789.48 1453.08 Q792.674 1455.77 792.674 1460.26 Q792.674 1462.39 791.864 1464.31 Q791.077 1466.2 788.971 1468.8 Q788.392 1469.47 785.29 1472.69 Q782.188 1475.88 776.54 1481.64 Z" fill="#000000" fill-rule="nonzero" fill-opacity="1" /><path clip-path="url(#clip030)" d="M802.72 1451.02 L821.077 1451.02 L821.077 1454.96 L807.003 1454.96 L807.003 1463.43 Q808.021 1463.08 809.04 1462.92 Q810.058 1462.73 811.077 1462.73 Q816.864 1462.73 820.244 1465.9 Q823.623 1469.08 823.623 1474.49 Q823.623 1480.07 820.151 1483.17 Q816.679 1486.25 810.359 1486.25 Q808.183 1486.25 805.915 1485.88 Q803.67 1485.51 801.262 1484.77 L801.262 1480.07 Q803.345 1481.2 805.568 1481.76 Q807.79 1482.32 810.267 1482.32 Q814.271 1482.32 816.609 1480.21 Q818.947 1478.1 818.947 1474.49 Q818.947 1470.88 816.609 1468.77 Q814.271 1466.67 810.267 1466.67 Q808.392 1466.67 806.517 1467.08 Q804.665 1467.5 802.72 1468.38 L802.72 1451.02 Z" fill="#000000" fill-rule="nonzero" fill-opacity="1" /><path clip-path="url(#clip030)" d="M842.836 1454.1 Q839.225 1454.1 837.396 1457.66 Q835.591 1461.2 835.591 1468.33 Q835.591 1475.44 837.396 1479.01 Q839.225 1482.55 842.836 1482.55 Q846.47 1482.55 848.276 1479.01 Q850.104 1475.44 850.104 1468.33 Q850.104 1461.2 848.276 1457.66 Q846.47 1454.1 842.836 1454.1 M842.836 1450.39 Q848.646 1450.39 851.702 1455 Q854.78 1459.58 854.78 1468.33 Q854.78 1477.06 851.702 1481.67 Q848.646 1486.25 842.836 1486.25 Q837.026 1486.25 833.947 1481.67 Q830.892 1477.06 830.892 1468.33 Q830.892 1459.58 833.947 1455 Q837.026 1450.39 842.836 1450.39 Z" fill="#000000" fill-rule="nonzero" fill-opacity="1" /><path clip-path="url(#clip030)" d="M1266.22 1451.02 L1284.57 1451.02 L1284.57 1454.96 L1270.5 1454.96 L1270.5 1463.43 Q1271.52 1463.08 1272.54 1462.92 Q1273.55 1462.73 1274.57 1462.73 Q1280.36 1462.73 1283.74 1465.9 Q1287.12 1469.08 1287.12 1474.49 Q1287.12 1480.07 1283.65 1483.17 Q1280.17 1486.25 1273.86 1486.25 Q1271.68 1486.25 1269.41 1485.88 Q1267.17 1485.51 1264.76 1484.77 L1264.76 1480.07 Q1266.84 1481.2 1269.06 1481.76 Q1271.29 1482.32 1273.76 1482.32 Q1277.77 1482.32 1280.11 1480.21 Q1282.44 1478.1 1282.44 1474.49 Q1282.44 1470.88 1280.11 1468.77 Q1277.77 1466.67 1273.76 1466.67 Q1271.89 1466.67 1270.01 1467.08 Q1268.16 1467.5 1266.22 1468.38 L1266.22 1451.02 Z" fill="#000000" fill-rule="nonzero" fill-opacity="1" /><path clip-path="url(#clip030)" d="M1306.33 1454.1 Q1302.72 1454.1 1300.89 1457.66 Q1299.09 1461.2 1299.09 1468.33 Q1299.09 1475.44 1300.89 1479.01 Q1302.72 1482.55 1306.33 1482.55 Q1309.97 1482.55 1311.77 1479.01 Q1313.6 1475.44 1313.6 1468.33 Q1313.6 1461.2 1311.77 1457.66 Q1309.97 1454.1 1306.33 1454.1 M1306.33 1450.39 Q1312.14 1450.39 1315.2 1455 Q1318.28 1459.58 1318.28 1468.33 Q1318.28 1477.06 1315.2 1481.67 Q1312.14 1486.25 1306.33 1486.25 Q1300.52 1486.25 1297.44 1481.67 Q1294.39 1477.06 1294.39 1468.33 Q1294.39 1459.58 1297.44 1455 Q1300.52 1450.39 1306.33 1450.39 Z" fill="#000000" fill-rule="nonzero" fill-opacity="1" /><path clip-path="url(#clip030)" d="M1336.49 1454.1 Q1332.88 1454.1 1331.05 1457.66 Q1329.25 1461.2 1329.25 1468.33 Q1329.25 1475.44 1331.05 1479.01 Q1332.88 1482.55 1336.49 1482.55 Q1340.13 1482.55 1341.93 1479.01 Q1343.76 1475.44 1343.76 1468.33 Q1343.76 1461.2 1341.93 1457.66 Q1340.13 1454.1 1336.49 1454.1 M1336.49 1450.39 Q1342.3 1450.39 1345.36 1455 Q1348.44 1459.58 1348.44 1468.33 Q1348.44 1477.06 1345.36 1481.67 Q1342.3 1486.25 1336.49 1486.25 Q1330.68 1486.25 1327.6 1481.67 Q1324.55 1477.06 1324.55 1468.33 Q1324.55 1459.58 1327.6 1455 Q1330.68 1450.39 1336.49 1450.39 Z" fill="#000000" fill-rule="nonzero" fill-opacity="1" /><path clip-path="url(#clip030)" d="M1758.62 1451.02 L1780.85 1451.02 L1780.85 1453.01 L1768.3 1485.58 L1763.42 1485.58 L1775.22 1454.96 L1758.62 1454.96 L1758.62 1451.02 Z" fill="#000000" fill-rule="nonzero" fill-opacity="1" /><path clip-path="url(#clip030)" d="M1790.01 1451.02 L1808.37 1451.02 L1808.37 1454.96 L1794.29 1454.96 L1794.29 1463.43 Q1795.31 1463.08 1796.33 1462.92 Q1797.35 1462.73 1798.37 1462.73 Q1804.16 1462.73 1807.54 1465.9 Q1810.92 1469.08 1810.92 1474.49 Q1810.92 1480.07 1807.44 1483.17 Q1803.97 1486.25 1797.65 1486.25 Q1795.48 1486.25 1793.21 1485.88 Q1790.96 1485.51 1788.55 1484.77 L1788.55 1480.07 Q1790.64 1481.2 1792.86 1481.76 Q1795.08 1482.32 1797.56 1482.32 Q1801.56 1482.32 1803.9 1480.21 Q1806.24 1478.1 1806.24 1474.49 Q1806.24 1470.88 1803.9 1468.77 Q1801.56 1466.67 1797.56 1466.67 Q1795.68 1466.67 1793.81 1467.08 Q1791.96 1467.5 1790.01 1468.38 L1790.01 1451.02 Z" fill="#000000" fill-rule="nonzero" fill-opacity="1" /><path clip-path="url(#clip030)" d="M1830.13 1454.1 Q1826.52 1454.1 1824.69 1457.66 Q1822.88 1461.2 1822.88 1468.33 Q1822.88 1475.44 1824.69 1479.01 Q1826.52 1482.55 1830.13 1482.55 Q1833.76 1482.55 1835.57 1479.01 Q1837.4 1475.44 1837.4 1468.33 Q1837.4 1461.2 1835.57 1457.66 Q1833.76 1454.1 1830.13 1454.1 M1830.13 1450.39 Q1835.94 1450.39 1838.99 1455 Q1842.07 1459.58 1842.07 1468.33 Q1842.07 1477.06 1838.99 1481.67 Q1835.94 1486.25 1830.13 1486.25 Q1824.32 1486.25 1821.24 1481.67 Q1818.18 1477.06 1818.18 1468.33 Q1818.18 1459.58 1821.24 1455 Q1824.32 1450.39 1830.13 1450.39 Z" fill="#000000" fill-rule="nonzero" fill-opacity="1" /><path clip-path="url(#clip030)" d="M2238.62 1481.64 L2246.26 1481.64 L2246.26 1455.28 L2237.95 1456.95 L2237.95 1452.69 L2246.22 1451.02 L2250.89 1451.02 L2250.89 1481.64 L2258.53 1481.64 L2258.53 1485.58 L2238.62 1485.58 L2238.62 1481.64 Z" fill="#000000" fill-rule="nonzero" fill-opacity="1" /><path clip-path="url(#clip030)" d="M2277.98 1454.1 Q2274.36 1454.1 2272.54 1457.66 Q2270.73 1461.2 2270.73 1468.33 Q2270.73 1475.44 2272.54 1479.01 Q2274.36 1482.55 2277.98 1482.55 Q2281.61 1482.55 2283.42 1479.01 Q2285.24 1475.44 2285.24 1468.33 Q2285.24 1461.2 2283.42 1457.66 Q2281.61 1454.1 2277.98 1454.1 M2277.98 1450.39 Q2283.79 1450.39 2286.84 1455 Q2289.92 1459.58 2289.92 1468.33 Q2289.92 1477.06 2286.84 1481.67 Q2283.79 1486.25 2277.98 1486.25 Q2272.17 1486.25 2269.09 1481.67 Q2266.03 1477.06 2266.03 1468.33 Q2266.03 1459.58 2269.09 1455 Q2272.17 1450.39 2277.98 1450.39 Z" fill="#000000" fill-rule="nonzero" fill-opacity="1" /><path clip-path="url(#clip030)" d="M2308.14 1454.1 Q2304.53 1454.1 2302.7 1457.66 Q2300.89 1461.2 2300.89 1468.33 Q2300.89 1475.44 2302.7 1479.01 Q2304.53 1482.55 2308.14 1482.55 Q2311.77 1482.55 2313.58 1479.01 Q2315.41 1475.44 2315.41 1468.33 Q2315.41 1461.2 2313.58 1457.66 Q2311.77 1454.1 2308.14 1454.1 M2308.14 1450.39 Q2313.95 1450.39 2317 1455 Q2320.08 1459.58 2320.08 1468.33 Q2320.08 1477.06 2317 1481.67 Q2313.95 1486.25 2308.14 1486.25 Q2302.33 1486.25 2299.25 1481.67 Q2296.19 1477.06 2296.19 1468.33 Q2296.19 1459.58 2299.25 1455 Q2302.33 1450.39 2308.14 1450.39 Z" fill="#000000" fill-rule="nonzero" fill-opacity="1" /><path clip-path="url(#clip030)" d="M2338.3 1454.1 Q2334.69 1454.1 2332.86 1457.66 Q2331.05 1461.2 2331.05 1468.33 Q2331.05 1475.44 2332.86 1479.01 Q2334.69 1482.55 2338.3 1482.55 Q2341.93 1482.55 2343.74 1479.01 Q2345.57 1475.44 2345.57 1468.33 Q2345.57 1461.2 2343.74 1457.66 Q2341.93 1454.1 2338.3 1454.1 M2338.3 1450.39 Q2344.11 1450.39 2347.17 1455 Q2350.24 1459.58 2350.24 1468.33 Q2350.24 1477.06 2347.17 1481.67 Q2344.11 1486.25 2338.3 1486.25 Q2332.49 1486.25 2329.41 1481.67 Q2326.36 1477.06 2326.36 1468.33 Q2326.36 1459.58 2329.41 1455 Q2332.49 1450.39 2338.3 1450.39 Z" fill="#000000" fill-rule="nonzero" fill-opacity="1" /><path clip-path="url(#clip030)" d="M1059.12 1520.52 L1067.78 1520.52 L1088.85 1560.28 L1088.85 1520.52 L1095.09 1520.52 L1095.09 1568.04 L1086.43 1568.04 L1065.36 1528.29 L1065.36 1568.04 L1059.12 1568.04 L1059.12 1520.52 Z" fill="#000000" fill-rule="nonzero" fill-opacity="1" /><path clip-path="url(#clip030)" d="M1107.03 1553.98 L1107.03 1532.4 L1112.88 1532.4 L1112.88 1553.75 Q1112.88 1558.81 1114.86 1561.36 Q1116.83 1563.87 1120.78 1563.87 Q1125.52 1563.87 1128.25 1560.85 Q1131.02 1557.83 1131.02 1552.61 L1131.02 1532.4 L1136.88 1532.4 L1136.88 1568.04 L1131.02 1568.04 L1131.02 1562.57 Q1128.89 1565.82 1126.06 1567.41 Q1123.26 1568.97 1119.53 1568.97 Q1113.39 1568.97 1110.21 1565.15 Q1107.03 1561.33 1107.03 1553.98 M1121.76 1531.54 L1121.76 1531.54 Z" fill="#000000" fill-rule="nonzero" fill-opacity="1" /><path clip-path="url(#clip030)" d="M1176.7 1539.24 Q1178.89 1535.29 1181.95 1533.41 Q1185.01 1531.54 1189.14 1531.54 Q1194.71 1531.54 1197.74 1535.45 Q1200.76 1539.33 1200.76 1546.53 L1200.76 1568.04 L1194.87 1568.04 L1194.87 1546.72 Q1194.87 1541.59 1193.06 1539.11 Q1191.24 1536.63 1187.52 1536.63 Q1182.97 1536.63 1180.33 1539.65 Q1177.68 1542.68 1177.68 1547.9 L1177.68 1568.04 L1171.8 1568.04 L1171.8 1546.72 Q1171.8 1541.56 1169.98 1539.11 Q1168.17 1536.63 1164.38 1536.63 Q1159.89 1536.63 1157.25 1539.68 Q1154.61 1542.71 1154.61 1547.9 L1154.61 1568.04 L1148.72 1568.04 L1148.72 1532.4 L1154.61 1532.4 L1154.61 1537.93 Q1156.61 1534.66 1159.42 1533.1 Q1162.22 1531.54 1166.07 1531.54 Q1169.95 1531.54 1172.66 1533.51 Q1175.39 1535.48 1176.7 1539.24 Z" fill="#000000" fill-rule="nonzero" fill-opacity="1" /><path clip-path="url(#clip030)" d="M1242.93 1548.76 L1242.93 1551.62 L1216.01 1551.62 Q1216.39 1557.67 1219.63 1560.85 Q1222.91 1564 1228.74 1564 Q1232.11 1564 1235.26 1563.17 Q1238.45 1562.35 1241.56 1560.69 L1241.56 1566.23 Q1238.41 1567.57 1235.1 1568.27 Q1231.79 1568.97 1228.39 1568.97 Q1219.86 1568.97 1214.86 1564 Q1209.9 1559.04 1209.9 1550.57 Q1209.9 1541.82 1214.61 1536.69 Q1219.35 1531.54 1227.37 1531.54 Q1234.56 1531.54 1238.73 1536.18 Q1242.93 1540.8 1242.93 1548.76 M1237.08 1547.04 Q1237.01 1542.23 1234.37 1539.37 Q1231.76 1536.5 1227.43 1536.5 Q1222.53 1536.5 1219.57 1539.27 Q1216.64 1542.04 1216.2 1547.07 L1237.08 1547.04 Z" fill="#000000" fill-rule="nonzero" fill-opacity="1" /><path clip-path="url(#clip030)" d="M1273.2 1537.87 Q1272.22 1537.3 1271.04 1537.04 Q1269.89 1536.76 1268.49 1536.76 Q1263.53 1536.76 1260.85 1540 Q1258.21 1543.22 1258.21 1549.27 L1258.21 1568.04 L1252.32 1568.04 L1252.32 1532.4 L1258.21 1532.4 L1258.21 1537.93 Q1260.06 1534.69 1263.02 1533.13 Q1265.98 1531.54 1270.21 1531.54 Q1270.81 1531.54 1271.55 1531.63 Q1272.28 1531.7 1273.17 1531.85 L1273.2 1537.87 Z" fill="#000000" fill-rule="nonzero" fill-opacity="1" /><path clip-path="url(#clip030)" d="M1291.73 1536.5 Q1287.02 1536.5 1284.28 1540.19 Q1281.54 1543.85 1281.54 1550.25 Q1281.54 1556.65 1284.25 1560.34 Q1286.98 1564 1291.73 1564 Q1296.41 1564 1299.14 1560.31 Q1301.88 1556.62 1301.88 1550.25 Q1301.88 1543.92 1299.14 1540.23 Q1296.41 1536.5 1291.73 1536.5 M1291.73 1531.54 Q1299.37 1531.54 1303.73 1536.5 Q1308.09 1541.47 1308.09 1550.25 Q1308.09 1559 1303.73 1564 Q1299.37 1568.97 1291.73 1568.97 Q1284.06 1568.97 1279.7 1564 Q1275.37 1559 1275.37 1550.25 Q1275.37 1541.47 1279.7 1536.5 Q1284.06 1531.54 1291.73 1531.54 Z" fill="#000000" fill-rule="nonzero" fill-opacity="1" /><path clip-path="url(#clip030)" d="M1361.97 1537.81 L1361.97 1518.52 L1367.83 1518.52 L1367.83 1568.04 L1361.97 1568.04 L1361.97 1562.7 Q1360.13 1565.88 1357.29 1567.44 Q1354.49 1568.97 1350.55 1568.97 Q1344.08 1568.97 1340.01 1563.81 Q1335.97 1558.65 1335.97 1550.25 Q1335.97 1541.85 1340.01 1536.69 Q1344.08 1531.54 1350.55 1531.54 Q1354.49 1531.54 1357.29 1533.1 Q1360.13 1534.62 1361.97 1537.81 M1342.02 1550.25 Q1342.02 1556.71 1344.66 1560.4 Q1347.33 1564.07 1351.98 1564.07 Q1356.62 1564.07 1359.3 1560.4 Q1361.97 1556.71 1361.97 1550.25 Q1361.97 1543.79 1359.3 1540.13 Q1356.62 1536.44 1351.98 1536.44 Q1347.33 1536.44 1344.66 1540.13 Q1342.02 1543.79 1342.02 1550.25 Z" fill="#000000" fill-rule="nonzero" fill-opacity="1" /><path clip-path="url(#clip030)" d="M1379.89 1532.4 L1385.75 1532.4 L1385.75 1568.04 L1379.89 1568.04 L1379.89 1532.4 M1379.89 1518.52 L1385.75 1518.52 L1385.75 1525.93 L1379.89 1525.93 L1379.89 1518.52 Z" fill="#000000" fill-rule="nonzero" fill-opacity="1" /><path clip-path="url(#clip030)" d="M1424.39 1562.7 L1424.39 1581.6 L1418.5 1581.6 L1418.5 1532.4 L1424.39 1532.4 L1424.39 1537.81 Q1426.23 1534.62 1429.03 1533.1 Q1431.87 1531.54 1435.78 1531.54 Q1442.28 1531.54 1446.32 1536.69 Q1450.39 1541.85 1450.39 1550.25 Q1450.39 1558.65 1446.32 1563.81 Q1442.28 1568.97 1435.78 1568.97 Q1431.87 1568.97 1429.03 1567.44 Q1426.23 1565.88 1424.39 1562.7 M1444.31 1550.25 Q1444.31 1543.79 1441.64 1540.13 Q1439 1536.44 1434.35 1536.44 Q1429.7 1536.44 1427.03 1540.13 Q1424.39 1543.79 1424.39 1550.25 Q1424.39 1556.71 1427.03 1560.4 Q1429.7 1564.07 1434.35 1564.07 Q1439 1564.07 1441.64 1560.4 Q1444.31 1556.71 1444.31 1550.25 Z" fill="#000000" fill-rule="nonzero" fill-opacity="1" /><path clip-path="url(#clip030)" d="M1476.3 1550.12 Q1469.2 1550.12 1466.46 1551.75 Q1463.73 1553.37 1463.73 1557.29 Q1463.73 1560.4 1465.76 1562.25 Q1467.83 1564.07 1471.37 1564.07 Q1476.24 1564.07 1479.16 1560.63 Q1482.12 1557.16 1482.12 1551.43 L1482.12 1550.12 L1476.3 1550.12 M1487.98 1547.71 L1487.98 1568.04 L1482.12 1568.04 L1482.12 1562.63 Q1480.12 1565.88 1477.13 1567.44 Q1474.14 1568.97 1469.81 1568.97 Q1464.33 1568.97 1461.09 1565.91 Q1457.87 1562.82 1457.87 1557.67 Q1457.87 1551.65 1461.88 1548.6 Q1465.92 1545.54 1473.91 1545.54 L1482.12 1545.54 L1482.12 1544.97 Q1482.12 1540.93 1479.45 1538.73 Q1476.81 1536.5 1472 1536.5 Q1468.95 1536.5 1466.05 1537.23 Q1463.15 1537.97 1460.48 1539.43 L1460.48 1534.02 Q1463.7 1532.78 1466.72 1532.17 Q1469.74 1531.54 1472.61 1531.54 Q1480.34 1531.54 1484.16 1535.55 Q1487.98 1539.56 1487.98 1547.71 Z" fill="#000000" fill-rule="nonzero" fill-opacity="1" /><path clip-path="url(#clip030)" d="M1522.77 1533.45 L1522.77 1538.98 Q1520.29 1537.71 1517.61 1537.07 Q1514.94 1536.44 1512.08 1536.44 Q1507.71 1536.44 1505.52 1537.77 Q1503.35 1539.11 1503.35 1541.79 Q1503.35 1543.82 1504.91 1545 Q1506.47 1546.15 1511.18 1547.2 L1513.19 1547.64 Q1519.43 1548.98 1522.04 1551.43 Q1524.68 1553.85 1524.68 1558.21 Q1524.68 1563.17 1520.73 1566.07 Q1516.82 1568.97 1509.94 1568.97 Q1507.08 1568.97 1503.96 1568.39 Q1500.87 1567.85 1497.43 1566.74 L1497.43 1560.69 Q1500.68 1562.38 1503.83 1563.24 Q1506.98 1564.07 1510.07 1564.07 Q1514.21 1564.07 1516.44 1562.66 Q1518.66 1561.23 1518.66 1558.65 Q1518.66 1556.27 1517.04 1554.99 Q1515.45 1553.72 1510.01 1552.54 L1507.97 1552.07 Q1502.53 1550.92 1500.11 1548.56 Q1497.69 1546.18 1497.69 1542.04 Q1497.69 1537.01 1501.25 1534.27 Q1504.82 1531.54 1511.37 1531.54 Q1514.62 1531.54 1517.49 1532.01 Q1520.35 1532.49 1522.77 1533.45 Z" fill="#000000" fill-rule="nonzero" fill-opacity="1" /><path clip-path="url(#clip030)" d="M1556.73 1533.45 L1556.73 1538.98 Q1554.25 1537.71 1551.57 1537.07 Q1548.9 1536.44 1546.04 1536.44 Q1541.68 1536.44 1539.48 1537.77 Q1537.32 1539.11 1537.32 1541.79 Q1537.32 1543.82 1538.87 1545 Q1540.43 1546.15 1545.15 1547.2 L1547.15 1547.64 Q1553.39 1548.98 1556 1551.43 Q1558.64 1553.85 1558.64 1558.21 Q1558.64 1563.17 1554.69 1566.07 Q1550.78 1568.97 1543.9 1568.97 Q1541.04 1568.97 1537.92 1568.39 Q1534.83 1567.85 1531.4 1566.74 L1531.4 1560.69 Q1534.64 1562.38 1537.79 1563.24 Q1540.94 1564.07 1544.03 1564.07 Q1548.17 1564.07 1550.4 1562.66 Q1552.62 1561.23 1552.62 1558.65 Q1552.62 1556.27 1551 1554.99 Q1549.41 1553.72 1543.97 1552.54 L1541.93 1552.07 Q1536.49 1550.92 1534.07 1548.56 Q1531.65 1546.18 1531.65 1542.04 Q1531.65 1537.01 1535.21 1534.27 Q1538.78 1531.54 1545.34 1531.54 Q1548.58 1531.54 1551.45 1532.01 Q1554.31 1532.49 1556.73 1533.45 Z" fill="#000000" fill-rule="nonzero" fill-opacity="1" /><path clip-path="url(#clip030)" d="M1567.97 1532.4 L1573.82 1532.4 L1573.82 1568.04 L1567.97 1568.04 L1567.97 1532.4 M1567.97 1518.52 L1573.82 1518.52 L1573.82 1525.93 L1567.97 1525.93 L1567.97 1518.52 Z" fill="#000000" fill-rule="nonzero" fill-opacity="1" /><polyline clip-path="url(#clip030)" style="stroke:#000000; stroke-linecap:round; stroke-linejoin:round; stroke-width:4; stroke-opacity:1; fill:none" points="280.19,1423.18 280.19,47.2441 "/>
<polyline clip-path="url(#clip030)" style="stroke:#000000; stroke-linecap:round; stroke-linejoin:round; stroke-width:4; stroke-opacity:1; fill:none" points="280.19,1384.37 299.088,1384.37 "/>
<polyline clip-path="url(#clip030)" style="stroke:#000000; stroke-linecap:round; stroke-linejoin:round; stroke-width:4; stroke-opacity:1; fill:none" points="280.19,1183.98 299.088,1183.98 "/>
<polyline clip-path="url(#clip030)" style="stroke:#000000; stroke-linecap:round; stroke-linejoin:round; stroke-width:4; stroke-opacity:1; fill:none" points="280.19,983.588 299.088,983.588 "/>
<polyline clip-path="url(#clip030)" style="stroke:#000000; stroke-linecap:round; stroke-linejoin:round; stroke-width:4; stroke-opacity:1; fill:none" points="280.19,783.198 299.088,783.198 "/>
<polyline clip-path="url(#clip030)" style="stroke:#000000; stroke-linecap:round; stroke-linejoin:round; stroke-width:4; stroke-opacity:1; fill:none" points="280.19,582.809 299.088,582.809 "/>
<polyline clip-path="url(#clip030)" style="stroke:#000000; stroke-linecap:round; stroke-linejoin:round; stroke-width:4; stroke-opacity:1; fill:none" points="280.19,382.419 299.088,382.419 "/>
<polyline clip-path="url(#clip030)" style="stroke:#000000; stroke-linecap:round; stroke-linejoin:round; stroke-width:4; stroke-opacity:1; fill:none" points="280.19,182.029 299.088,182.029 "/>
<path clip-path="url(#clip030)" d="M126.691 1370.17 Q123.08 1370.17 121.251 1373.73 Q119.445 1377.27 119.445 1384.4 Q119.445 1391.51 121.251 1395.07 Q123.08 1398.62 126.691 1398.62 Q130.325 1398.62 132.13 1395.07 Q133.959 1391.51 133.959 1384.4 Q133.959 1377.27 132.13 1373.73 Q130.325 1370.17 126.691 1370.17 M126.691 1366.46 Q132.501 1366.46 135.556 1371.07 Q138.635 1375.65 138.635 1384.4 Q138.635 1393.13 135.556 1397.74 Q132.501 1402.32 126.691 1402.32 Q120.88 1402.32 117.802 1397.74 Q114.746 1393.13 114.746 1384.4 Q114.746 1375.65 117.802 1371.07 Q120.88 1366.46 126.691 1366.46 Z" fill="#000000" fill-rule="nonzero" fill-opacity="1" /><path clip-path="url(#clip030)" d="M146.853 1395.77 L151.737 1395.77 L151.737 1401.65 L146.853 1401.65 L146.853 1395.77 Z" fill="#000000" fill-rule="nonzero" fill-opacity="1" /><path clip-path="url(#clip030)" d="M171.922 1370.17 Q168.311 1370.17 166.482 1373.73 Q164.677 1377.27 164.677 1384.4 Q164.677 1391.51 166.482 1395.07 Q168.311 1398.62 171.922 1398.62 Q175.556 1398.62 177.362 1395.07 Q179.19 1391.51 179.19 1384.4 Q179.19 1377.27 177.362 1373.73 Q175.556 1370.17 171.922 1370.17 M171.922 1366.46 Q177.732 1366.46 180.788 1371.07 Q183.866 1375.65 183.866 1384.4 Q183.866 1393.13 180.788 1397.74 Q177.732 1402.32 171.922 1402.32 Q166.112 1402.32 163.033 1397.74 Q159.978 1393.13 159.978 1384.4 Q159.978 1375.65 163.033 1371.07 Q166.112 1366.46 171.922 1366.46 Z" fill="#000000" fill-rule="nonzero" fill-opacity="1" /><path clip-path="url(#clip030)" d="M202.084 1370.17 Q198.473 1370.17 196.644 1373.73 Q194.838 1377.27 194.838 1384.4 Q194.838 1391.51 196.644 1395.07 Q198.473 1398.62 202.084 1398.62 Q205.718 1398.62 207.524 1395.07 Q209.352 1391.51 209.352 1384.4 Q209.352 1377.27 207.524 1373.73 Q205.718 1370.17 202.084 1370.17 M202.084 1366.46 Q207.894 1366.46 210.949 1371.07 Q214.028 1375.65 214.028 1384.4 Q214.028 1393.13 210.949 1397.74 Q207.894 1402.32 202.084 1402.32 Q196.274 1402.32 193.195 1397.74 Q190.139 1393.13 190.139 1384.4 Q190.139 1375.65 193.195 1371.07 Q196.274 1366.46 202.084 1366.46 Z" fill="#000000" fill-rule="nonzero" fill-opacity="1" /><path clip-path="url(#clip030)" d="M232.246 1370.17 Q228.635 1370.17 226.806 1373.73 Q225 1377.27 225 1384.4 Q225 1391.51 226.806 1395.07 Q228.635 1398.62 232.246 1398.62 Q235.88 1398.62 237.685 1395.07 Q239.514 1391.51 239.514 1384.4 Q239.514 1377.27 237.685 1373.73 Q235.88 1370.17 232.246 1370.17 M232.246 1366.46 Q238.056 1366.46 241.111 1371.07 Q244.19 1375.65 244.19 1384.4 Q244.19 1393.13 241.111 1397.74 Q238.056 1402.32 232.246 1402.32 Q226.435 1402.32 223.357 1397.74 Q220.301 1393.13 220.301 1384.4 Q220.301 1375.65 223.357 1371.07 Q226.435 1366.46 232.246 1366.46 Z" fill="#000000" fill-rule="nonzero" fill-opacity="1" /><path clip-path="url(#clip030)" d="M128.288 1169.78 Q124.677 1169.78 122.848 1173.34 Q121.043 1176.88 121.043 1184.01 Q121.043 1191.12 122.848 1194.68 Q124.677 1198.23 128.288 1198.23 Q131.922 1198.23 133.728 1194.68 Q135.556 1191.12 135.556 1184.01 Q135.556 1176.88 133.728 1173.34 Q131.922 1169.78 128.288 1169.78 M128.288 1166.07 Q134.098 1166.07 137.154 1170.68 Q140.232 1175.26 140.232 1184.01 Q140.232 1192.74 137.154 1197.35 Q134.098 1201.93 128.288 1201.93 Q122.478 1201.93 119.399 1197.35 Q116.343 1192.74 116.343 1184.01 Q116.343 1175.26 119.399 1170.68 Q122.478 1166.07 128.288 1166.07 Z" fill="#000000" fill-rule="nonzero" fill-opacity="1" /><path clip-path="url(#clip030)" d="M148.45 1195.38 L153.334 1195.38 L153.334 1201.26 L148.45 1201.26 L148.45 1195.38 Z" fill="#000000" fill-rule="nonzero" fill-opacity="1" /><path clip-path="url(#clip030)" d="M173.519 1169.78 Q169.908 1169.78 168.079 1173.34 Q166.274 1176.88 166.274 1184.01 Q166.274 1191.12 168.079 1194.68 Q169.908 1198.23 173.519 1198.23 Q177.153 1198.23 178.959 1194.68 Q180.788 1191.12 180.788 1184.01 Q180.788 1176.88 178.959 1173.34 Q177.153 1169.78 173.519 1169.78 M173.519 1166.07 Q179.329 1166.07 182.385 1170.68 Q185.463 1175.26 185.463 1184.01 Q185.463 1192.74 182.385 1197.35 Q179.329 1201.93 173.519 1201.93 Q167.709 1201.93 164.63 1197.35 Q161.575 1192.74 161.575 1184.01 Q161.575 1175.26 164.63 1170.68 Q167.709 1166.07 173.519 1166.07 Z" fill="#000000" fill-rule="nonzero" fill-opacity="1" /><path clip-path="url(#clip030)" d="M203.681 1169.78 Q200.07 1169.78 198.241 1173.34 Q196.436 1176.88 196.436 1184.01 Q196.436 1191.12 198.241 1194.68 Q200.07 1198.23 203.681 1198.23 Q207.315 1198.23 209.121 1194.68 Q210.949 1191.12 210.949 1184.01 Q210.949 1176.88 209.121 1173.34 Q207.315 1169.78 203.681 1169.78 M203.681 1166.07 Q209.491 1166.07 212.547 1170.68 Q215.625 1175.26 215.625 1184.01 Q215.625 1192.74 212.547 1197.35 Q209.491 1201.93 203.681 1201.93 Q197.871 1201.93 194.792 1197.35 Q191.737 1192.74 191.737 1184.01 Q191.737 1175.26 194.792 1170.68 Q197.871 1166.07 203.681 1166.07 Z" fill="#000000" fill-rule="nonzero" fill-opacity="1" /><path clip-path="url(#clip030)" d="M227.871 1197.32 L244.19 1197.32 L244.19 1201.26 L222.246 1201.26 L222.246 1197.32 Q224.908 1194.57 229.491 1189.94 Q234.097 1185.29 235.278 1183.94 Q237.523 1181.42 238.403 1179.68 Q239.306 1177.92 239.306 1176.23 Q239.306 1173.48 237.361 1171.74 Q235.44 1170.01 232.338 1170.01 Q230.139 1170.01 227.685 1170.77 Q225.255 1171.54 222.477 1173.09 L222.477 1168.36 Q225.301 1167.23 227.755 1166.65 Q230.209 1166.07 232.246 1166.07 Q237.616 1166.07 240.81 1168.76 Q244.005 1171.44 244.005 1175.93 Q244.005 1178.06 243.195 1179.98 Q242.408 1181.88 240.301 1184.48 Q239.722 1185.15 236.621 1188.36 Q233.519 1191.56 227.871 1197.32 Z" fill="#000000" fill-rule="nonzero" fill-opacity="1" /><path clip-path="url(#clip030)" d="M126.205 969.387 Q122.593 969.387 120.765 972.952 Q118.959 976.493 118.959 983.623 Q118.959 990.729 120.765 994.294 Q122.593 997.836 126.205 997.836 Q129.839 997.836 131.644 994.294 Q133.473 990.729 133.473 983.623 Q133.473 976.493 131.644 972.952 Q129.839 969.387 126.205 969.387 M126.205 965.683 Q132.015 965.683 135.07 970.29 Q138.149 974.873 138.149 983.623 Q138.149 992.35 135.07 996.956 Q132.015 1001.54 126.205 1001.54 Q120.394 1001.54 117.316 996.956 Q114.26 992.35 114.26 983.623 Q114.26 974.873 117.316 970.29 Q120.394 965.683 126.205 965.683 Z" fill="#000000" fill-rule="nonzero" fill-opacity="1" /><path clip-path="url(#clip030)" d="M146.366 994.989 L151.251 994.989 L151.251 1000.87 L146.366 1000.87 L146.366 994.989 Z" fill="#000000" fill-rule="nonzero" fill-opacity="1" /><path clip-path="url(#clip030)" d="M171.436 969.387 Q167.825 969.387 165.996 972.952 Q164.19 976.493 164.19 983.623 Q164.19 990.729 165.996 994.294 Q167.825 997.836 171.436 997.836 Q175.07 997.836 176.876 994.294 Q178.704 990.729 178.704 983.623 Q178.704 976.493 176.876 972.952 Q175.07 969.387 171.436 969.387 M171.436 965.683 Q177.246 965.683 180.301 970.29 Q183.38 974.873 183.38 983.623 Q183.38 992.35 180.301 996.956 Q177.246 1001.54 171.436 1001.54 Q165.626 1001.54 162.547 996.956 Q159.491 992.35 159.491 983.623 Q159.491 974.873 162.547 970.29 Q165.626 965.683 171.436 965.683 Z" fill="#000000" fill-rule="nonzero" fill-opacity="1" /><path clip-path="url(#clip030)" d="M201.598 969.387 Q197.987 969.387 196.158 972.952 Q194.352 976.493 194.352 983.623 Q194.352 990.729 196.158 994.294 Q197.987 997.836 201.598 997.836 Q205.232 997.836 207.037 994.294 Q208.866 990.729 208.866 983.623 Q208.866 976.493 207.037 972.952 Q205.232 969.387 201.598 969.387 M201.598 965.683 Q207.408 965.683 210.463 970.29 Q213.542 974.873 213.542 983.623 Q213.542 992.35 210.463 996.956 Q207.408 1001.54 201.598 1001.54 Q195.787 1001.54 192.709 996.956 Q189.653 992.35 189.653 983.623 Q189.653 974.873 192.709 970.29 Q195.787 965.683 201.598 965.683 Z" fill="#000000" fill-rule="nonzero" fill-opacity="1" /><path clip-path="url(#clip030)" d="M234.607 970.382 L222.801 988.831 L234.607 988.831 L234.607 970.382 M233.38 966.308 L239.259 966.308 L239.259 988.831 L244.19 988.831 L244.19 992.72 L239.259 992.72 L239.259 1000.87 L234.607 1000.87 L234.607 992.72 L219.005 992.72 L219.005 988.206 L233.38 966.308 Z" fill="#000000" fill-rule="nonzero" fill-opacity="1" /><path clip-path="url(#clip030)" d="M126.529 768.997 Q122.918 768.997 121.089 772.562 Q119.283 776.103 119.283 783.233 Q119.283 790.34 121.089 793.904 Q122.918 797.446 126.529 797.446 Q130.163 797.446 131.968 793.904 Q133.797 790.34 133.797 783.233 Q133.797 776.103 131.968 772.562 Q130.163 768.997 126.529 768.997 M126.529 765.293 Q132.339 765.293 135.394 769.9 Q138.473 774.483 138.473 783.233 Q138.473 791.96 135.394 796.566 Q132.339 801.15 126.529 801.15 Q120.718 801.15 117.64 796.566 Q114.584 791.96 114.584 783.233 Q114.584 774.483 117.64 769.9 Q120.718 765.293 126.529 765.293 Z" fill="#000000" fill-rule="nonzero" fill-opacity="1" /><path clip-path="url(#clip030)" d="M146.691 794.599 L151.575 794.599 L151.575 800.478 L146.691 800.478 L146.691 794.599 Z" fill="#000000" fill-rule="nonzero" fill-opacity="1" /><path clip-path="url(#clip030)" d="M171.76 768.997 Q168.149 768.997 166.32 772.562 Q164.515 776.103 164.515 783.233 Q164.515 790.34 166.32 793.904 Q168.149 797.446 171.76 797.446 Q175.394 797.446 177.2 793.904 Q179.028 790.34 179.028 783.233 Q179.028 776.103 177.2 772.562 Q175.394 768.997 171.76 768.997 M171.76 765.293 Q177.57 765.293 180.626 769.9 Q183.704 774.483 183.704 783.233 Q183.704 791.96 180.626 796.566 Q177.57 801.15 171.76 801.15 Q165.95 801.15 162.871 796.566 Q159.815 791.96 159.815 783.233 Q159.815 774.483 162.871 769.9 Q165.95 765.293 171.76 765.293 Z" fill="#000000" fill-rule="nonzero" fill-opacity="1" /><path clip-path="url(#clip030)" d="M201.922 768.997 Q198.311 768.997 196.482 772.562 Q194.676 776.103 194.676 783.233 Q194.676 790.34 196.482 793.904 Q198.311 797.446 201.922 797.446 Q205.556 797.446 207.362 793.904 Q209.19 790.34 209.19 783.233 Q209.19 776.103 207.362 772.562 Q205.556 768.997 201.922 768.997 M201.922 765.293 Q207.732 765.293 210.787 769.9 Q213.866 774.483 213.866 783.233 Q213.866 791.96 210.787 796.566 Q207.732 801.15 201.922 801.15 Q196.112 801.15 193.033 796.566 Q189.977 791.96 189.977 783.233 Q189.977 774.483 193.033 769.9 Q196.112 765.293 201.922 765.293 Z" fill="#000000" fill-rule="nonzero" fill-opacity="1" /><path clip-path="url(#clip030)" d="M232.662 781.335 Q229.514 781.335 227.662 783.488 Q225.834 785.64 225.834 789.39 Q225.834 793.117 227.662 795.293 Q229.514 797.446 232.662 797.446 Q235.81 797.446 237.639 795.293 Q239.491 793.117 239.491 789.39 Q239.491 785.64 237.639 783.488 Q235.81 781.335 232.662 781.335 M241.945 766.682 L241.945 770.941 Q240.185 770.108 238.38 769.668 Q236.597 769.229 234.838 769.229 Q230.209 769.229 227.755 772.353 Q225.324 775.478 224.977 781.798 Q226.343 779.784 228.403 778.719 Q230.463 777.631 232.94 777.631 Q238.148 777.631 241.158 780.803 Q244.19 783.951 244.19 789.39 Q244.19 794.714 241.042 797.932 Q237.894 801.15 232.662 801.15 Q226.667 801.15 223.496 796.566 Q220.324 791.96 220.324 783.233 Q220.324 775.039 224.213 770.178 Q228.102 765.293 234.653 765.293 Q236.412 765.293 238.195 765.641 Q240 765.988 241.945 766.682 Z" fill="#000000" fill-rule="nonzero" fill-opacity="1" /><path clip-path="url(#clip030)" d="M126.783 568.607 Q123.172 568.607 121.343 572.172 Q119.538 575.714 119.538 582.843 Q119.538 589.95 121.343 593.515 Q123.172 597.056 126.783 597.056 Q130.417 597.056 132.223 593.515 Q134.052 589.95 134.052 582.843 Q134.052 575.714 132.223 572.172 Q130.417 568.607 126.783 568.607 M126.783 564.904 Q132.593 564.904 135.649 569.51 Q138.728 574.093 138.728 582.843 Q138.728 591.57 135.649 596.177 Q132.593 600.76 126.783 600.76 Q120.973 600.76 117.894 596.177 Q114.839 591.57 114.839 582.843 Q114.839 574.093 117.894 569.51 Q120.973 564.904 126.783 564.904 Z" fill="#000000" fill-rule="nonzero" fill-opacity="1" /><path clip-path="url(#clip030)" d="M146.945 594.209 L151.829 594.209 L151.829 600.089 L146.945 600.089 L146.945 594.209 Z" fill="#000000" fill-rule="nonzero" fill-opacity="1" /><path clip-path="url(#clip030)" d="M172.014 568.607 Q168.403 568.607 166.575 572.172 Q164.769 575.714 164.769 582.843 Q164.769 589.95 166.575 593.515 Q168.403 597.056 172.014 597.056 Q175.649 597.056 177.454 593.515 Q179.283 589.95 179.283 582.843 Q179.283 575.714 177.454 572.172 Q175.649 568.607 172.014 568.607 M172.014 564.904 Q177.825 564.904 180.88 569.51 Q183.959 574.093 183.959 582.843 Q183.959 591.57 180.88 596.177 Q177.825 600.76 172.014 600.76 Q166.204 600.76 163.126 596.177 Q160.07 591.57 160.07 582.843 Q160.07 574.093 163.126 569.51 Q166.204 564.904 172.014 564.904 Z" fill="#000000" fill-rule="nonzero" fill-opacity="1" /><path clip-path="url(#clip030)" d="M202.176 568.607 Q198.565 568.607 196.737 572.172 Q194.931 575.714 194.931 582.843 Q194.931 589.95 196.737 593.515 Q198.565 597.056 202.176 597.056 Q205.811 597.056 207.616 593.515 Q209.445 589.95 209.445 582.843 Q209.445 575.714 207.616 572.172 Q205.811 568.607 202.176 568.607 M202.176 564.904 Q207.987 564.904 211.042 569.51 Q214.121 574.093 214.121 582.843 Q214.121 591.57 211.042 596.177 Q207.987 600.76 202.176 600.76 Q196.366 600.76 193.288 596.177 Q190.232 591.57 190.232 582.843 Q190.232 574.093 193.288 569.51 Q196.366 564.904 202.176 564.904 Z" fill="#000000" fill-rule="nonzero" fill-opacity="1" /><path clip-path="url(#clip030)" d="M232.338 583.677 Q229.005 583.677 227.084 585.459 Q225.185 587.241 225.185 590.366 Q225.185 593.491 227.084 595.274 Q229.005 597.056 232.338 597.056 Q235.672 597.056 237.593 595.274 Q239.514 593.468 239.514 590.366 Q239.514 587.241 237.593 585.459 Q235.695 583.677 232.338 583.677 M227.662 581.686 Q224.653 580.945 222.963 578.885 Q221.297 576.825 221.297 573.862 Q221.297 569.718 224.236 567.311 Q227.199 564.904 232.338 564.904 Q237.5 564.904 240.44 567.311 Q243.38 569.718 243.38 573.862 Q243.38 576.825 241.69 578.885 Q240.023 580.945 237.037 581.686 Q240.417 582.473 242.292 584.765 Q244.19 587.056 244.19 590.366 Q244.19 595.39 241.111 598.075 Q238.056 600.76 232.338 600.76 Q226.621 600.76 223.542 598.075 Q220.486 595.39 220.486 590.366 Q220.486 587.056 222.385 584.765 Q224.283 582.473 227.662 581.686 M225.949 574.302 Q225.949 576.987 227.616 578.491 Q229.306 579.996 232.338 579.996 Q235.347 579.996 237.037 578.491 Q238.75 576.987 238.75 574.302 Q238.75 571.616 237.037 570.112 Q235.347 568.607 232.338 568.607 Q229.306 568.607 227.616 570.112 Q225.949 571.616 225.949 574.302 Z" fill="#000000" fill-rule="nonzero" fill-opacity="1" /><path clip-path="url(#clip030)" d="M126.691 368.217 Q123.08 368.217 121.251 371.782 Q119.445 375.324 119.445 382.453 Q119.445 389.56 121.251 393.125 Q123.08 396.666 126.691 396.666 Q130.325 396.666 132.13 393.125 Q133.959 389.56 133.959 382.453 Q133.959 375.324 132.13 371.782 Q130.325 368.217 126.691 368.217 M126.691 364.514 Q132.501 364.514 135.556 369.12 Q138.635 373.704 138.635 382.453 Q138.635 391.18 135.556 395.787 Q132.501 400.37 126.691 400.37 Q120.88 400.37 117.802 395.787 Q114.746 391.18 114.746 382.453 Q114.746 373.704 117.802 369.12 Q120.88 364.514 126.691 364.514 Z" fill="#000000" fill-rule="nonzero" fill-opacity="1" /><path clip-path="url(#clip030)" d="M146.853 393.819 L151.737 393.819 L151.737 399.699 L146.853 399.699 L146.853 393.819 Z" fill="#000000" fill-rule="nonzero" fill-opacity="1" /><path clip-path="url(#clip030)" d="M171.922 368.217 Q168.311 368.217 166.482 371.782 Q164.677 375.324 164.677 382.453 Q164.677 389.56 166.482 393.125 Q168.311 396.666 171.922 396.666 Q175.556 396.666 177.362 393.125 Q179.19 389.56 179.19 382.453 Q179.19 375.324 177.362 371.782 Q175.556 368.217 171.922 368.217 M171.922 364.514 Q177.732 364.514 180.788 369.12 Q183.866 373.704 183.866 382.453 Q183.866 391.18 180.788 395.787 Q177.732 400.37 171.922 400.37 Q166.112 400.37 163.033 395.787 Q159.978 391.18 159.978 382.453 Q159.978 373.704 163.033 369.12 Q166.112 364.514 171.922 364.514 Z" fill="#000000" fill-rule="nonzero" fill-opacity="1" /><path clip-path="url(#clip030)" d="M192.894 395.764 L200.533 395.764 L200.533 369.398 L192.223 371.065 L192.223 366.805 L200.487 365.139 L205.162 365.139 L205.162 395.764 L212.801 395.764 L212.801 399.699 L192.894 399.699 L192.894 395.764 Z" fill="#000000" fill-rule="nonzero" fill-opacity="1" /><path clip-path="url(#clip030)" d="M232.246 368.217 Q228.635 368.217 226.806 371.782 Q225 375.324 225 382.453 Q225 389.56 226.806 393.125 Q228.635 396.666 232.246 396.666 Q235.88 396.666 237.685 393.125 Q239.514 389.56 239.514 382.453 Q239.514 375.324 237.685 371.782 Q235.88 368.217 232.246 368.217 M232.246 364.514 Q238.056 364.514 241.111 369.12 Q244.19 373.704 244.19 382.453 Q244.19 391.18 241.111 395.787 Q238.056 400.37 232.246 400.37 Q226.435 400.37 223.357 395.787 Q220.301 391.18 220.301 382.453 Q220.301 373.704 223.357 369.12 Q226.435 364.514 232.246 364.514 Z" fill="#000000" fill-rule="nonzero" fill-opacity="1" /><path clip-path="url(#clip030)" d="M128.288 167.828 Q124.677 167.828 122.848 171.392 Q121.043 174.934 121.043 182.064 Q121.043 189.17 122.848 192.735 Q124.677 196.277 128.288 196.277 Q131.922 196.277 133.728 192.735 Q135.556 189.17 135.556 182.064 Q135.556 174.934 133.728 171.392 Q131.922 167.828 128.288 167.828 M128.288 164.124 Q134.098 164.124 137.154 168.73 Q140.232 173.314 140.232 182.064 Q140.232 190.791 137.154 195.397 Q134.098 199.98 128.288 199.98 Q122.478 199.98 119.399 195.397 Q116.343 190.791 116.343 182.064 Q116.343 173.314 119.399 168.73 Q122.478 164.124 128.288 164.124 Z" fill="#000000" fill-rule="nonzero" fill-opacity="1" /><path clip-path="url(#clip030)" d="M148.45 193.429 L153.334 193.429 L153.334 199.309 L148.45 199.309 L148.45 193.429 Z" fill="#000000" fill-rule="nonzero" fill-opacity="1" /><path clip-path="url(#clip030)" d="M173.519 167.828 Q169.908 167.828 168.079 171.392 Q166.274 174.934 166.274 182.064 Q166.274 189.17 168.079 192.735 Q169.908 196.277 173.519 196.277 Q177.153 196.277 178.959 192.735 Q180.788 189.17 180.788 182.064 Q180.788 174.934 178.959 171.392 Q177.153 167.828 173.519 167.828 M173.519 164.124 Q179.329 164.124 182.385 168.73 Q185.463 173.314 185.463 182.064 Q185.463 190.791 182.385 195.397 Q179.329 199.98 173.519 199.98 Q167.709 199.98 164.63 195.397 Q161.575 190.791 161.575 182.064 Q161.575 173.314 164.63 168.73 Q167.709 164.124 173.519 164.124 Z" fill="#000000" fill-rule="nonzero" fill-opacity="1" /><path clip-path="url(#clip030)" d="M194.491 195.374 L202.13 195.374 L202.13 169.008 L193.82 170.675 L193.82 166.416 L202.084 164.749 L206.76 164.749 L206.76 195.374 L214.399 195.374 L214.399 199.309 L194.491 199.309 L194.491 195.374 Z" fill="#000000" fill-rule="nonzero" fill-opacity="1" /><path clip-path="url(#clip030)" d="M227.871 195.374 L244.19 195.374 L244.19 199.309 L222.246 199.309 L222.246 195.374 Q224.908 192.619 229.491 187.99 Q234.097 183.337 235.278 181.994 Q237.523 179.471 238.403 177.735 Q239.306 175.976 239.306 174.286 Q239.306 171.531 237.361 169.795 Q235.44 168.059 232.338 168.059 Q230.139 168.059 227.685 168.823 Q225.255 169.587 222.477 171.138 L222.477 166.416 Q225.301 165.281 227.755 164.703 Q230.209 164.124 232.246 164.124 Q237.616 164.124 240.81 166.809 Q244.005 169.494 244.005 173.985 Q244.005 176.115 243.195 178.036 Q242.408 179.934 240.301 182.527 Q239.722 183.198 236.621 186.416 Q233.519 189.61 227.871 195.374 Z" fill="#000000" fill-rule="nonzero" fill-opacity="1" /><path clip-path="url(#clip030)" d="M16.4842 829.058 L16.4842 799.012 L21.895 799.012 L21.895 822.629 L35.9632 822.629 L35.9632 799.999 L41.3741 799.999 L41.3741 822.629 L58.5933 822.629 L58.5933 798.439 L64.0042 798.439 L64.0042 829.058 L16.4842 829.058 Z" fill="#000000" fill-rule="nonzero" fill-opacity="1" /><path clip-path="url(#clip030)" d="M33.8307 767.47 Q33.2578 768.457 33.0032 769.635 Q32.7167 770.78 32.7167 772.181 Q32.7167 777.146 35.9632 779.82 Q39.1779 782.461 45.2253 782.461 L64.0042 782.461 L64.0042 788.35 L28.3562 788.35 L28.3562 782.461 L33.8944 782.461 Q30.6479 780.615 29.0883 777.655 Q27.4968 774.695 27.4968 770.462 Q27.4968 769.857 27.5923 769.125 Q27.656 768.393 27.8151 767.502 L33.8307 767.47 Z" fill="#000000" fill-rule="nonzero" fill-opacity="1" /><path clip-path="url(#clip030)" d="M33.8307 741.816 Q33.2578 742.803 33.0032 743.981 Q32.7167 745.127 32.7167 746.527 Q32.7167 751.492 35.9632 754.166 Q39.1779 756.808 45.2253 756.808 L64.0042 756.808 L64.0042 762.696 L28.3562 762.696 L28.3562 756.808 L33.8944 756.808 Q30.6479 754.962 29.0883 752.002 Q27.4968 749.041 27.4968 744.808 Q27.4968 744.204 27.5923 743.471 Q27.656 742.739 27.8151 741.848 L33.8307 741.816 Z" fill="#000000" fill-rule="nonzero" fill-opacity="1" /><path clip-path="url(#clip030)" d="M32.4621 723.292 Q32.4621 728.003 36.1542 730.74 Q39.8145 733.477 46.212 733.477 Q52.6095 733.477 56.3017 730.772 Q59.9619 728.035 59.9619 723.292 Q59.9619 718.613 56.2698 715.876 Q52.5777 713.139 46.212 713.139 Q39.8781 713.139 36.186 715.876 Q32.4621 718.613 32.4621 723.292 M27.4968 723.292 Q27.4968 715.653 32.4621 711.293 Q37.4273 706.932 46.212 706.932 Q54.9649 706.932 59.9619 711.293 Q64.9272 715.653 64.9272 723.292 Q64.9272 730.963 59.9619 735.323 Q54.9649 739.652 46.212 739.652 Q37.4273 739.652 32.4621 735.323 Q27.4968 730.963 27.4968 723.292 Z" fill="#000000" fill-rule="nonzero" fill-opacity="1" /><path clip-path="url(#clip030)" d="M33.8307 676.568 Q33.2578 677.555 33.0032 678.732 Q32.7167 679.878 32.7167 681.279 Q32.7167 686.244 35.9632 688.917 Q39.1779 691.559 45.2253 691.559 L64.0042 691.559 L64.0042 697.447 L28.3562 697.447 L28.3562 691.559 L33.8944 691.559 Q30.6479 689.713 29.0883 686.753 Q27.4968 683.793 27.4968 679.56 Q27.4968 678.955 27.5923 678.223 Q27.656 677.491 27.8151 676.6 L33.8307 676.568 Z" fill="#000000" fill-rule="nonzero" fill-opacity="1" /><path clip-path="url(#clip030)" d="M44.7161 641.366 L47.5806 641.366 L47.5806 668.292 Q53.6281 667.911 56.8109 664.664 Q59.9619 661.386 59.9619 655.561 Q59.9619 652.187 59.1344 649.036 Q58.3069 645.853 56.6518 642.734 L62.1899 642.734 Q63.5267 645.885 64.227 649.195 Q64.9272 652.506 64.9272 655.911 Q64.9272 664.441 59.9619 669.438 Q54.9967 674.404 46.5303 674.404 Q37.7774 674.404 32.6531 669.693 Q27.4968 664.95 27.4968 656.93 Q27.4968 649.736 32.1438 645.567 Q36.7589 641.366 44.7161 641.366 M42.9973 647.222 Q38.1912 647.286 35.3266 649.927 Q32.4621 652.537 32.4621 656.866 Q32.4621 661.768 35.2312 664.728 Q38.0002 667.656 43.0292 668.102 L42.9973 647.222 Z" fill="#000000" fill-rule="nonzero" fill-opacity="1" /><polyline clip-path="url(#clip032)" style="stroke:#009af9; stroke-linecap:round; stroke-linejoin:round; stroke-width:4; stroke-opacity:1; fill:none" points="338.848,86.1857 358.598,1060.52 417.848,1332.58 516.598,1371.42 714.098,1381.13 1306.6,1383.85 2294.1,1384.24 "/>
<path clip-path="url(#clip030)" d="M2023.98 196.789 L2283.67 196.789 L2283.67 93.1086 L2023.98 93.1086  Z" fill="#ffffff" fill-rule="evenodd" fill-opacity="1"/>
<polyline clip-path="url(#clip030)" style="stroke:#000000; stroke-linecap:round; stroke-linejoin:round; stroke-width:4; stroke-opacity:1; fill:none" points="2023.98,196.789 2283.67,196.789 2283.67,93.1086 2023.98,93.1086 2023.98,196.789 "/>
<polyline clip-path="url(#clip030)" style="stroke:#009af9; stroke-linecap:round; stroke-linejoin:round; stroke-width:4; stroke-opacity:1; fill:none" points="2047.01,144.949 2185.18,144.949 "/>
<path clip-path="url(#clip030)" d="M2222.05 164.636 Q2220.25 169.266 2218.54 170.678 Q2216.82 172.09 2213.95 172.09 L2210.55 172.09 L2210.55 168.525 L2213.05 168.525 Q2214.81 168.525 2215.78 167.692 Q2216.75 166.858 2217.93 163.756 L2218.7 161.812 L2208.21 136.303 L2212.73 136.303 L2220.83 156.581 L2228.93 136.303 L2233.44 136.303 L2222.05 164.636 Z" fill="#000000" fill-rule="nonzero" fill-opacity="1" /><path clip-path="url(#clip030)" d="M2240.73 158.293 L2248.37 158.293 L2248.37 131.928 L2240.06 133.595 L2240.06 129.335 L2248.33 127.669 L2253 127.669 L2253 158.293 L2260.64 158.293 L2260.64 162.229 L2240.73 162.229 L2240.73 158.293 Z" fill="#000000" fill-rule="nonzero" fill-opacity="1" /></svg>
