<?xml version="1.0" encoding="utf-8"?>
<svg xmlns="http://www.w3.org/2000/svg" xmlns:xlink="http://www.w3.org/1999/xlink" width="600" height="400" viewBox="0 0 2400 1600">
<defs>
  <clipPath id="clip580">
    <rect x="0" y="0" width="2400" height="1600"/>
  </clipPath>
</defs>
<path clip-path="url(#clip580)" d="
M0 1600 L2400 1600 L2400 0 L0 0  Z
  " fill="#ffffff" fill-rule="evenodd" fill-opacity="1"/>
<defs>
  <clipPath id="clip581">
    <rect x="480" y="0" width="1681" height="1600"/>
  </clipPath>
</defs>
<path clip-path="url(#clip580)" d="
M252.764 1410.9 L2352.76 1410.9 L2352.76 47.2441 L252.764 47.2441  Z
  " fill="#ffffff" fill-rule="evenodd" fill-opacity="1"/>
<defs>
  <clipPath id="clip582">
    <rect x="252" y="47" width="2101" height="1365"/>
  </clipPath>
</defs>
<polyline clip-path="url(#clip582)" style="stroke:#000000; stroke-linecap:butt; stroke-linejoin:round; stroke-width:2; stroke-opacity:0.1; fill:none" points="
  312.198,1410.9 312.198,47.2441 
  "/>
<polyline clip-path="url(#clip582)" style="stroke:#000000; stroke-linecap:butt; stroke-linejoin:round; stroke-width:2; stroke-opacity:0.1; fill:none" points="
  1302.76,1410.9 1302.76,47.2441 
  "/>
<polyline clip-path="url(#clip582)" style="stroke:#000000; stroke-linecap:butt; stroke-linejoin:round; stroke-width:2; stroke-opacity:0.1; fill:none" points="
  2293.32,1410.9 2293.32,47.2441 
  "/>
<polyline clip-path="url(#clip580)" style="stroke:#000000; stroke-linecap:butt; stroke-linejoin:round; stroke-width:4; stroke-opacity:1; fill:none" points="
  252.764,1410.9 2352.76,1410.9 
  "/>
<polyline clip-path="url(#clip580)" style="stroke:#000000; stroke-linecap:butt; stroke-linejoin:round; stroke-width:4; stroke-opacity:1; fill:none" points="
  312.198,1410.9 312.198,1392 
  "/>
<polyline clip-path="url(#clip580)" style="stroke:#000000; stroke-linecap:butt; stroke-linejoin:round; stroke-width:4; stroke-opacity:1; fill:none" points="
  1302.76,1410.9 1302.76,1392 
  "/>
<polyline clip-path="url(#clip580)" style="stroke:#000000; stroke-linecap:butt; stroke-linejoin:round; stroke-width:4; stroke-opacity:1; fill:none" points="
  2293.32,1410.9 2293.32,1392 
  "/>
<path clip-path="url(#clip580)" d="M278.525 1485.02 L286.164 1485.02 L286.164 1458.66 L277.854 1460.32 L277.854 1456.06 L286.118 1454.4 L290.794 1454.4 L290.794 1485.02 L298.433 1485.02 L298.433 1488.96 L278.525 1488.96 L278.525 1485.02 Z" fill="#000000" fill-rule="evenodd" fill-opacity="1" /><path clip-path="url(#clip580)" d="M317.877 1457.48 Q314.266 1457.48 312.437 1461.04 Q310.632 1464.58 310.632 1471.71 Q310.632 1478.82 312.437 1482.38 Q314.266 1485.92 317.877 1485.92 Q321.511 1485.92 323.317 1482.38 Q325.145 1478.82 325.145 1471.71 Q325.145 1464.58 323.317 1461.04 Q321.511 1457.48 317.877 1457.48 M317.877 1453.77 Q323.687 1453.77 326.743 1458.38 Q329.821 1462.96 329.821 1471.71 Q329.821 1480.44 326.743 1485.04 Q323.687 1489.63 317.877 1489.63 Q312.067 1489.63 308.988 1485.04 Q305.933 1480.44 305.933 1471.71 Q305.933 1462.96 308.988 1458.38 Q312.067 1453.77 317.877 1453.77 Z" fill="#000000" fill-rule="evenodd" fill-opacity="1" /><path clip-path="url(#clip580)" d="M330.367 1458.35 L336.573 1458.35 L336.573 1436.93 L329.821 1438.28 L329.821 1434.82 L336.536 1433.47 L340.335 1433.47 L340.335 1458.35 L346.541 1458.35 L346.541 1461.55 L330.367 1461.55 L330.367 1458.35 Z" fill="#000000" fill-rule="evenodd" fill-opacity="1" /><path clip-path="url(#clip580)" d="M1268.53 1485.02 L1276.17 1485.02 L1276.17 1458.66 L1267.86 1460.32 L1267.86 1456.06 L1276.13 1454.4 L1280.8 1454.4 L1280.8 1485.02 L1288.44 1485.02 L1288.44 1488.96 L1268.53 1488.96 L1268.53 1485.02 Z" fill="#000000" fill-rule="evenodd" fill-opacity="1" /><path clip-path="url(#clip580)" d="M1307.88 1457.48 Q1304.27 1457.48 1302.44 1461.04 Q1300.64 1464.58 1300.64 1471.71 Q1300.64 1478.82 1302.44 1482.38 Q1304.27 1485.92 1307.88 1485.92 Q1311.52 1485.92 1313.32 1482.38 Q1315.15 1478.82 1315.15 1471.71 Q1315.15 1464.58 1313.32 1461.04 Q1311.52 1457.48 1307.88 1457.48 M1307.88 1453.77 Q1313.69 1453.77 1316.75 1458.38 Q1319.83 1462.96 1319.83 1471.71 Q1319.83 1480.44 1316.75 1485.04 Q1313.69 1489.63 1307.88 1489.63 Q1302.07 1489.63 1299 1485.04 Q1295.94 1480.44 1295.94 1471.71 Q1295.94 1462.96 1299 1458.38 Q1302.07 1453.77 1307.88 1453.77 Z" fill="#000000" fill-rule="evenodd" fill-opacity="1" /><path clip-path="url(#clip580)" d="M1324.4 1458.35 L1337.66 1458.35 L1337.66 1461.55 L1319.83 1461.55 L1319.83 1458.35 Q1321.99 1456.11 1325.72 1452.35 Q1329.46 1448.57 1330.42 1447.48 Q1332.24 1445.43 1332.96 1444.02 Q1333.69 1442.59 1333.69 1441.22 Q1333.69 1438.98 1332.11 1437.57 Q1330.55 1436.16 1328.03 1436.16 Q1326.24 1436.16 1324.25 1436.78 Q1322.27 1437.4 1320.02 1438.66 L1320.02 1434.82 Q1322.31 1433.9 1324.3 1433.43 Q1326.3 1432.96 1327.95 1432.96 Q1332.32 1432.96 1334.91 1435.14 Q1337.51 1437.32 1337.51 1440.97 Q1337.51 1442.7 1336.85 1444.26 Q1336.21 1445.8 1334.5 1447.91 Q1334.03 1448.46 1331.51 1451.07 Q1328.99 1453.67 1324.4 1458.35 Z" fill="#000000" fill-rule="evenodd" fill-opacity="1" /><path clip-path="url(#clip580)" d="M2258.77 1485.02 L2266.4 1485.02 L2266.4 1458.66 L2258.09 1460.32 L2258.09 1456.06 L2266.36 1454.4 L2271.03 1454.4 L2271.03 1485.02 L2278.67 1485.02 L2278.67 1488.96 L2258.77 1488.96 L2258.77 1485.02 Z" fill="#000000" fill-rule="evenodd" fill-opacity="1" /><path clip-path="url(#clip580)" d="M2298.12 1457.48 Q2294.51 1457.48 2292.68 1461.04 Q2290.87 1464.58 2290.87 1471.71 Q2290.87 1478.82 2292.68 1482.38 Q2294.51 1485.92 2298.12 1485.92 Q2301.75 1485.92 2303.56 1482.38 Q2305.39 1478.82 2305.39 1471.71 Q2305.39 1464.58 2303.56 1461.04 Q2301.75 1457.48 2298.12 1457.48 M2298.12 1453.77 Q2303.93 1453.77 2306.98 1458.38 Q2310.06 1462.96 2310.06 1471.71 Q2310.06 1480.44 2306.98 1485.04 Q2303.93 1489.63 2298.12 1489.63 Q2292.31 1489.63 2289.23 1485.04 Q2286.17 1480.44 2286.17 1471.71 Q2286.17 1462.96 2289.23 1458.38 Q2292.31 1453.77 2298.12 1453.77 Z" fill="#000000" fill-rule="evenodd" fill-opacity="1" /><path clip-path="url(#clip580)" d="M2322.76 1446.41 Q2325.48 1446.99 2327.01 1448.83 Q2328.55 1450.68 2328.55 1453.38 Q2328.55 1457.54 2325.69 1459.82 Q2322.83 1462.09 2317.57 1462.09 Q2315.8 1462.09 2313.92 1461.73 Q2312.06 1461.4 2310.06 1460.7 L2310.06 1457.03 Q2311.64 1457.95 2313.52 1458.42 Q2315.4 1458.89 2317.45 1458.89 Q2321.03 1458.89 2322.89 1457.48 Q2324.77 1456.07 2324.77 1453.38 Q2324.77 1450.9 2323.02 1449.51 Q2321.29 1448.1 2318.19 1448.1 L2314.91 1448.1 L2314.91 1444.98 L2318.34 1444.98 Q2321.14 1444.98 2322.63 1443.87 Q2324.11 1442.74 2324.11 1440.63 Q2324.11 1438.47 2322.57 1437.32 Q2321.05 1436.16 2318.19 1436.16 Q2316.63 1436.16 2314.84 1436.49 Q2313.05 1436.83 2310.91 1437.55 L2310.91 1434.16 Q2313.07 1433.56 2314.95 1433.26 Q2316.85 1432.96 2318.53 1432.96 Q2322.85 1432.96 2325.37 1434.93 Q2327.89 1436.89 2327.89 1440.24 Q2327.89 1442.57 2326.56 1444.19 Q2325.22 1445.79 2322.76 1446.41 Z" fill="#000000" fill-rule="evenodd" fill-opacity="1" /><path clip-path="url(#clip580)" d="M1045.41 1526.67 L1054.07 1526.67 L1075.14 1566.42 L1075.14 1526.67 L1081.38 1526.67 L1081.38 1574.19 L1072.72 1574.19 L1051.65 1534.43 L1051.65 1574.19 L1045.41 1574.19 L1045.41 1526.67 Z" fill="#000000" fill-rule="evenodd" fill-opacity="1" /><path clip-path="url(#clip580)" d="M1093.31 1560.12 L1093.31 1538.54 L1099.17 1538.54 L1099.17 1559.89 Q1099.17 1564.96 1101.14 1567.5 Q1103.12 1570.02 1107.06 1570.02 Q1111.8 1570.02 1114.54 1566.99 Q1117.31 1563.97 1117.31 1558.75 L1117.31 1538.54 L1123.17 1538.54 L1123.17 1574.19 L1117.31 1574.19 L1117.31 1568.71 Q1115.18 1571.96 1112.35 1573.55 Q1109.54 1575.11 1105.82 1575.11 Q1099.68 1575.11 1096.5 1571.29 Q1093.31 1567.47 1093.31 1560.12 M1108.05 1537.68 L1108.05 1537.68 Z" fill="#000000" fill-rule="evenodd" fill-opacity="1" /><path clip-path="url(#clip580)" d="M1162.98 1545.38 Q1165.18 1541.43 1168.24 1539.56 Q1171.29 1537.68 1175.43 1537.68 Q1181 1537.68 1184.02 1541.59 Q1187.05 1545.48 1187.05 1552.67 L1187.05 1574.19 L1181.16 1574.19 L1181.16 1552.86 Q1181.16 1547.74 1179.34 1545.25 Q1177.53 1542.77 1173.81 1542.77 Q1169.26 1542.77 1166.61 1545.79 Q1163.97 1548.82 1163.97 1554.04 L1163.97 1574.19 L1158.08 1574.19 L1158.08 1552.86 Q1158.08 1547.7 1156.27 1545.25 Q1154.45 1542.77 1150.67 1542.77 Q1146.18 1542.77 1143.54 1545.83 Q1140.9 1548.85 1140.9 1554.04 L1140.9 1574.19 L1135.01 1574.19 L1135.01 1538.54 L1140.9 1538.54 L1140.9 1544.08 Q1142.9 1540.8 1145.7 1539.24 Q1148.5 1537.68 1152.35 1537.68 Q1156.24 1537.68 1158.94 1539.65 Q1161.68 1541.62 1162.98 1545.38 Z" fill="#000000" fill-rule="evenodd" fill-opacity="1" /><path clip-path="url(#clip580)" d="M1229.22 1554.9 L1229.22 1557.76 L1202.29 1557.76 Q1202.68 1563.81 1205.92 1566.99 Q1209.2 1570.14 1215.02 1570.14 Q1218.4 1570.14 1221.55 1569.32 Q1224.73 1568.49 1227.85 1566.83 L1227.85 1572.37 Q1224.7 1573.71 1221.39 1574.41 Q1218.08 1575.11 1214.67 1575.11 Q1206.14 1575.11 1201.15 1570.14 Q1196.18 1565.18 1196.18 1556.71 Q1196.18 1547.96 1200.89 1542.83 Q1205.64 1537.68 1213.66 1537.68 Q1220.85 1537.68 1225.02 1542.33 Q1229.22 1546.94 1229.22 1554.9 M1223.36 1553.18 Q1223.3 1548.37 1220.66 1545.51 Q1218.05 1542.64 1213.72 1542.64 Q1208.82 1542.64 1205.86 1545.41 Q1202.93 1548.18 1202.48 1553.21 L1223.36 1553.18 Z" fill="#000000" fill-rule="evenodd" fill-opacity="1" /><path clip-path="url(#clip580)" d="M1259.49 1544.01 Q1258.5 1543.44 1257.32 1543.18 Q1256.18 1542.9 1254.78 1542.9 Q1249.81 1542.9 1247.14 1546.14 Q1244.5 1549.36 1244.5 1555.41 L1244.5 1574.19 L1238.61 1574.19 L1238.61 1538.54 L1244.5 1538.54 L1244.5 1544.08 Q1246.34 1540.83 1249.3 1539.27 Q1252.26 1537.68 1256.5 1537.68 Q1257.1 1537.68 1257.83 1537.77 Q1258.57 1537.84 1259.46 1538 L1259.49 1544.01 Z" fill="#000000" fill-rule="evenodd" fill-opacity="1" /><path clip-path="url(#clip580)" d="M1278.01 1542.64 Q1273.3 1542.64 1270.57 1546.34 Q1267.83 1550 1267.83 1556.39 Q1267.83 1562.79 1270.53 1566.48 Q1273.27 1570.14 1278.01 1570.14 Q1282.69 1570.14 1285.43 1566.45 Q1288.17 1562.76 1288.17 1556.39 Q1288.17 1550.06 1285.43 1546.37 Q1282.69 1542.64 1278.01 1542.64 M1278.01 1537.68 Q1285.65 1537.68 1290.01 1542.64 Q1294.37 1547.61 1294.37 1556.39 Q1294.37 1565.15 1290.01 1570.14 Q1285.65 1575.11 1278.01 1575.11 Q1270.34 1575.11 1265.98 1570.14 Q1261.65 1565.15 1261.65 1556.39 Q1261.65 1547.61 1265.98 1542.64 Q1270.34 1537.68 1278.01 1537.68 Z" fill="#000000" fill-rule="evenodd" fill-opacity="1" /><path clip-path="url(#clip580)" d="M1348.26 1543.95 L1348.26 1524.66 L1354.12 1524.66 L1354.12 1574.19 L1348.26 1574.19 L1348.26 1568.84 Q1346.41 1572.02 1343.58 1573.58 Q1340.78 1575.11 1336.83 1575.11 Q1330.37 1575.11 1326.3 1569.95 Q1322.25 1564.8 1322.25 1556.39 Q1322.25 1547.99 1326.3 1542.83 Q1330.37 1537.68 1336.83 1537.68 Q1340.78 1537.68 1343.58 1539.24 Q1346.41 1540.77 1348.26 1543.95 M1328.3 1556.39 Q1328.3 1562.85 1330.94 1566.55 Q1333.62 1570.21 1338.26 1570.21 Q1342.91 1570.21 1345.59 1566.55 Q1348.26 1562.85 1348.26 1556.39 Q1348.26 1549.93 1345.59 1546.27 Q1342.91 1542.58 1338.26 1542.58 Q1333.62 1542.58 1330.94 1546.27 Q1328.3 1549.93 1328.3 1556.39 Z" fill="#000000" fill-rule="evenodd" fill-opacity="1" /><path clip-path="url(#clip580)" d="M1366.18 1538.54 L1372.03 1538.54 L1372.03 1574.19 L1366.18 1574.19 L1366.18 1538.54 M1366.18 1524.66 L1372.03 1524.66 L1372.03 1532.08 L1366.18 1532.08 L1366.18 1524.66 Z" fill="#000000" fill-rule="evenodd" fill-opacity="1" /><path clip-path="url(#clip580)" d="M1410.67 1568.84 L1410.67 1587.74 L1404.79 1587.74 L1404.79 1538.54 L1410.67 1538.54 L1410.67 1543.95 Q1412.52 1540.77 1415.32 1539.24 Q1418.15 1537.68 1422.07 1537.68 Q1428.56 1537.68 1432.6 1542.83 Q1436.68 1547.99 1436.68 1556.39 Q1436.68 1564.8 1432.6 1569.95 Q1428.56 1575.11 1422.07 1575.11 Q1418.15 1575.11 1415.32 1573.58 Q1412.52 1572.02 1410.67 1568.84 M1430.6 1556.39 Q1430.6 1549.93 1427.93 1546.27 Q1425.28 1542.58 1420.64 1542.58 Q1415.99 1542.58 1413.32 1546.27 Q1410.67 1549.93 1410.67 1556.39 Q1410.67 1562.85 1413.32 1566.55 Q1415.99 1570.21 1420.64 1570.21 Q1425.28 1570.21 1427.93 1566.55 Q1430.6 1562.85 1430.6 1556.39 Z" fill="#000000" fill-rule="evenodd" fill-opacity="1" /><path clip-path="url(#clip580)" d="M1462.59 1556.27 Q1455.49 1556.27 1452.75 1557.89 Q1450.01 1559.51 1450.01 1563.43 Q1450.01 1566.55 1452.05 1568.39 Q1454.12 1570.21 1457.65 1570.21 Q1462.52 1570.21 1465.45 1566.77 Q1468.41 1563.3 1468.41 1557.57 L1468.41 1556.27 L1462.59 1556.27 M1474.27 1553.85 L1474.27 1574.19 L1468.41 1574.19 L1468.41 1568.77 Q1466.41 1572.02 1463.41 1573.58 Q1460.42 1575.11 1456.09 1575.11 Q1450.62 1575.11 1447.37 1572.05 Q1444.16 1568.97 1444.16 1563.81 Q1444.16 1557.79 1448.17 1554.74 Q1452.21 1551.68 1460.2 1551.68 L1468.41 1551.68 L1468.41 1551.11 Q1468.41 1547.07 1465.74 1544.87 Q1463.1 1542.64 1458.29 1542.64 Q1455.23 1542.64 1452.34 1543.38 Q1449.44 1544.11 1446.77 1545.57 L1446.77 1540.16 Q1449.98 1538.92 1453.01 1538.31 Q1456.03 1537.68 1458.89 1537.68 Q1466.63 1537.68 1470.45 1541.69 Q1474.27 1545.7 1474.27 1553.85 Z" fill="#000000" fill-rule="evenodd" fill-opacity="1" /><path clip-path="url(#clip580)" d="M1509.06 1539.59 L1509.06 1545.13 Q1506.57 1543.85 1503.9 1543.22 Q1501.23 1542.58 1498.36 1542.58 Q1494 1542.58 1491.81 1543.92 Q1489.64 1545.25 1489.64 1547.93 Q1489.64 1549.96 1491.2 1551.14 Q1492.76 1552.29 1497.47 1553.34 L1499.48 1553.78 Q1505.71 1555.12 1508.32 1557.57 Q1510.97 1559.99 1510.97 1564.35 Q1510.97 1569.32 1507.02 1572.21 Q1503.1 1575.11 1496.23 1575.11 Q1493.37 1575.11 1490.25 1574.54 Q1487.16 1573.99 1483.72 1572.88 L1483.72 1566.83 Q1486.97 1568.52 1490.12 1569.38 Q1493.27 1570.21 1496.36 1570.21 Q1500.49 1570.21 1502.72 1568.81 Q1504.95 1567.37 1504.95 1564.8 Q1504.95 1562.41 1503.33 1561.14 Q1501.74 1559.86 1496.29 1558.68 L1494.26 1558.21 Q1488.81 1557.06 1486.39 1554.71 Q1483.98 1552.32 1483.98 1548.18 Q1483.98 1543.15 1487.54 1540.42 Q1491.11 1537.68 1497.66 1537.68 Q1500.91 1537.68 1503.77 1538.16 Q1506.64 1538.63 1509.06 1539.59 Z" fill="#000000" fill-rule="evenodd" fill-opacity="1" /><path clip-path="url(#clip580)" d="M1543.02 1539.59 L1543.02 1545.13 Q1540.53 1543.85 1537.86 1543.22 Q1535.19 1542.58 1532.32 1542.58 Q1527.96 1542.58 1525.77 1543.92 Q1523.6 1545.25 1523.6 1547.93 Q1523.6 1549.96 1525.16 1551.14 Q1526.72 1552.29 1531.43 1553.34 L1533.44 1553.78 Q1539.68 1555.12 1542.29 1557.57 Q1544.93 1559.99 1544.93 1564.35 Q1544.93 1569.32 1540.98 1572.21 Q1537.07 1575.11 1530.19 1575.11 Q1527.33 1575.11 1524.21 1574.54 Q1521.12 1573.99 1517.68 1572.88 L1517.68 1566.83 Q1520.93 1568.52 1524.08 1569.38 Q1527.23 1570.21 1530.32 1570.21 Q1534.46 1570.21 1536.68 1568.81 Q1538.91 1567.37 1538.91 1564.8 Q1538.91 1562.41 1537.29 1561.14 Q1535.7 1559.86 1530.25 1558.68 L1528.22 1558.21 Q1522.77 1557.06 1520.36 1554.71 Q1517.94 1552.32 1517.94 1548.18 Q1517.94 1543.15 1521.5 1540.42 Q1525.07 1537.68 1531.62 1537.68 Q1534.87 1537.68 1537.73 1538.16 Q1540.6 1538.63 1543.02 1539.59 Z" fill="#000000" fill-rule="evenodd" fill-opacity="1" /><path clip-path="url(#clip580)" d="M1554.25 1538.54 L1560.11 1538.54 L1560.11 1574.19 L1554.25 1574.19 L1554.25 1538.54 M1554.25 1524.66 L1560.11 1524.66 L1560.11 1532.08 L1554.25 1532.08 L1554.25 1524.66 Z" fill="#000000" fill-rule="evenodd" fill-opacity="1" /><polyline clip-path="url(#clip582)" style="stroke:#000000; stroke-linecap:butt; stroke-linejoin:round; stroke-width:2; stroke-opacity:0.1; fill:none" points="
  252.764,1345.01 2352.76,1345.01 
  "/>
<polyline clip-path="url(#clip582)" style="stroke:#000000; stroke-linecap:butt; stroke-linejoin:round; stroke-width:2; stroke-opacity:0.1; fill:none" points="
  252.764,1023.5 2352.76,1023.5 
  "/>
<polyline clip-path="url(#clip582)" style="stroke:#000000; stroke-linecap:butt; stroke-linejoin:round; stroke-width:2; stroke-opacity:0.1; fill:none" points="
  252.764,701.981 2352.76,701.981 
  "/>
<polyline clip-path="url(#clip582)" style="stroke:#000000; stroke-linecap:butt; stroke-linejoin:round; stroke-width:2; stroke-opacity:0.1; fill:none" points="
  252.764,380.465 2352.76,380.465 
  "/>
<polyline clip-path="url(#clip582)" style="stroke:#000000; stroke-linecap:butt; stroke-linejoin:round; stroke-width:2; stroke-opacity:0.1; fill:none" points="
  252.764,58.9497 2352.76,58.9497 
  "/>
<polyline clip-path="url(#clip580)" style="stroke:#000000; stroke-linecap:butt; stroke-linejoin:round; stroke-width:4; stroke-opacity:1; fill:none" points="
  252.764,1410.9 252.764,47.2441 
  "/>
<polyline clip-path="url(#clip580)" style="stroke:#000000; stroke-linecap:butt; stroke-linejoin:round; stroke-width:4; stroke-opacity:1; fill:none" points="
  252.764,1345.01 271.662,1345.01 
  "/>
<polyline clip-path="url(#clip580)" style="stroke:#000000; stroke-linecap:butt; stroke-linejoin:round; stroke-width:4; stroke-opacity:1; fill:none" points="
  252.764,1023.5 271.662,1023.5 
  "/>
<polyline clip-path="url(#clip580)" style="stroke:#000000; stroke-linecap:butt; stroke-linejoin:round; stroke-width:4; stroke-opacity:1; fill:none" points="
  252.764,701.981 271.662,701.981 
  "/>
<polyline clip-path="url(#clip580)" style="stroke:#000000; stroke-linecap:butt; stroke-linejoin:round; stroke-width:4; stroke-opacity:1; fill:none" points="
  252.764,380.465 271.662,380.465 
  "/>
<polyline clip-path="url(#clip580)" style="stroke:#000000; stroke-linecap:butt; stroke-linejoin:round; stroke-width:4; stroke-opacity:1; fill:none" points="
  252.764,58.9497 271.662,58.9497 
  "/>
<path clip-path="url(#clip580)" d="M115.195 1364.8 L122.834 1364.8 L122.834 1338.44 L114.523 1340.11 L114.523 1335.85 L122.787 1334.18 L127.463 1334.18 L127.463 1364.8 L135.102 1364.8 L135.102 1368.74 L115.195 1368.74 L115.195 1364.8 Z" fill="#000000" fill-rule="evenodd" fill-opacity="1" /><path clip-path="url(#clip580)" d="M154.546 1337.26 Q150.935 1337.26 149.107 1340.82 Q147.301 1344.36 147.301 1351.49 Q147.301 1358.6 149.107 1362.17 Q150.935 1365.71 154.546 1365.71 Q158.181 1365.71 159.986 1362.17 Q161.815 1358.6 161.815 1351.49 Q161.815 1344.36 159.986 1340.82 Q158.181 1337.26 154.546 1337.26 M154.546 1333.55 Q160.357 1333.55 163.412 1338.16 Q166.491 1342.74 166.491 1351.49 Q166.491 1360.22 163.412 1364.83 Q160.357 1369.41 154.546 1369.41 Q148.736 1369.41 145.658 1364.83 Q142.602 1360.22 142.602 1351.49 Q142.602 1342.74 145.658 1338.16 Q148.736 1333.55 154.546 1333.55 Z" fill="#000000" fill-rule="evenodd" fill-opacity="1" /><path clip-path="url(#clip580)" d="M166.491 1327.66 L190.602 1327.66 L190.602 1330.85 L166.491 1330.85 L166.491 1327.66 Z" fill="#000000" fill-rule="evenodd" fill-opacity="1" /><path clip-path="url(#clip580)" d="M207.398 1325.78 Q204.84 1325.78 203.335 1327.52 Q201.849 1329.27 201.849 1332.32 Q201.849 1335.35 203.335 1337.12 Q204.84 1338.87 207.398 1338.87 Q209.956 1338.87 211.441 1337.12 Q212.946 1335.35 212.946 1332.32 Q212.946 1329.27 211.441 1327.52 Q209.956 1325.78 207.398 1325.78 M214.94 1313.87 L214.94 1317.33 Q213.51 1316.65 212.043 1316.3 Q210.595 1315.94 209.166 1315.94 Q205.404 1315.94 203.41 1318.48 Q201.436 1321.02 201.153 1326.15 Q202.263 1324.52 203.937 1323.65 Q205.611 1322.77 207.623 1322.77 Q211.855 1322.77 214.3 1325.34 Q216.764 1327.9 216.764 1332.32 Q216.764 1336.65 214.206 1339.26 Q211.648 1341.87 207.398 1341.87 Q202.526 1341.87 199.95 1338.15 Q197.373 1334.41 197.373 1327.32 Q197.373 1320.66 200.533 1316.71 Q203.693 1312.74 209.015 1312.74 Q210.445 1312.74 211.893 1313.02 Q213.36 1313.31 214.94 1313.87 Z" fill="#000000" fill-rule="evenodd" fill-opacity="1" /><path clip-path="url(#clip580)" d="M116.135 1043.29 L123.774 1043.29 L123.774 1016.92 L115.464 1018.59 L115.464 1014.33 L123.728 1012.66 L128.404 1012.66 L128.404 1043.29 L136.042 1043.29 L136.042 1047.22 L116.135 1047.22 L116.135 1043.29 Z" fill="#000000" fill-rule="evenodd" fill-opacity="1" /><path clip-path="url(#clip580)" d="M155.487 1015.74 Q151.876 1015.74 150.047 1019.31 Q148.241 1022.85 148.241 1029.98 Q148.241 1037.09 150.047 1040.65 Q151.876 1044.19 155.487 1044.19 Q159.121 1044.19 160.927 1040.65 Q162.755 1037.09 162.755 1029.98 Q162.755 1022.85 160.927 1019.31 Q159.121 1015.74 155.487 1015.74 M155.487 1012.04 Q161.297 1012.04 164.352 1016.65 Q167.431 1021.23 167.431 1029.98 Q167.431 1038.71 164.352 1043.31 Q161.297 1047.9 155.487 1047.9 Q149.677 1047.9 146.598 1043.31 Q143.542 1038.71 143.542 1029.98 Q143.542 1021.23 146.598 1016.65 Q149.677 1012.04 155.487 1012.04 Z" fill="#000000" fill-rule="evenodd" fill-opacity="1" /><path clip-path="url(#clip580)" d="M167.431 1006.14 L191.543 1006.14 L191.543 1009.34 L167.431 1009.34 L167.431 1006.14 Z" fill="#000000" fill-rule="evenodd" fill-opacity="1" /><path clip-path="url(#clip580)" d="M199.781 991.734 L214.695 991.734 L214.695 994.931 L203.26 994.931 L203.26 1001.81 Q204.088 1001.53 204.915 1001.4 Q205.743 1001.25 206.57 1001.25 Q211.272 1001.25 214.018 1003.83 Q216.764 1006.4 216.764 1010.8 Q216.764 1015.34 213.943 1017.86 Q211.122 1020.36 205.987 1020.36 Q204.219 1020.36 202.376 1020.06 Q200.552 1019.76 198.596 1019.16 L198.596 1015.34 Q200.288 1016.26 202.094 1016.71 Q203.899 1017.16 205.912 1017.16 Q209.166 1017.16 211.065 1015.45 Q212.965 1013.74 212.965 1010.8 Q212.965 1007.87 211.065 1006.16 Q209.166 1004.45 205.912 1004.45 Q204.388 1004.45 202.865 1004.79 Q201.36 1005.12 199.781 1005.84 L199.781 991.734 Z" fill="#000000" fill-rule="evenodd" fill-opacity="1" /><path clip-path="url(#clip580)" d="M114.931 721.773 L122.57 721.773 L122.57 695.408 L114.26 697.074 L114.26 692.815 L122.524 691.148 L127.2 691.148 L127.2 721.773 L134.839 721.773 L134.839 725.708 L114.931 725.708 L114.931 721.773 Z" fill="#000000" fill-rule="evenodd" fill-opacity="1" /><path clip-path="url(#clip580)" d="M154.283 694.227 Q150.672 694.227 148.843 697.792 Q147.038 701.334 147.038 708.463 Q147.038 715.57 148.843 719.134 Q150.672 722.676 154.283 722.676 Q157.917 722.676 159.723 719.134 Q161.552 715.57 161.552 708.463 Q161.552 701.334 159.723 697.792 Q157.917 694.227 154.283 694.227 M154.283 690.523 Q160.093 690.523 163.149 695.13 Q166.227 699.713 166.227 708.463 Q166.227 717.19 163.149 721.796 Q160.093 726.38 154.283 726.38 Q148.473 726.38 145.394 721.796 Q142.339 717.19 142.339 708.463 Q142.339 699.713 145.394 695.13 Q148.473 690.523 154.283 690.523 Z" fill="#000000" fill-rule="evenodd" fill-opacity="1" /><path clip-path="url(#clip580)" d="M166.227 684.625 L190.339 684.625 L190.339 687.822 L166.227 687.822 L166.227 684.625 Z" fill="#000000" fill-rule="evenodd" fill-opacity="1" /><path clip-path="url(#clip580)" d="M208.978 673.528 L199.386 688.518 L208.978 688.518 L208.978 673.528 M207.981 670.218 L212.758 670.218 L212.758 688.518 L216.764 688.518 L216.764 691.678 L212.758 691.678 L212.758 698.298 L208.978 698.298 L208.978 691.678 L196.301 691.678 L196.301 688.01 L207.981 670.218 Z" fill="#000000" fill-rule="evenodd" fill-opacity="1" /><path clip-path="url(#clip580)" d="M115.853 400.258 L123.492 400.258 L123.492 373.892 L115.182 375.559 L115.182 371.3 L123.446 369.633 L128.121 369.633 L128.121 400.258 L135.76 400.258 L135.76 404.193 L115.853 404.193 L115.853 400.258 Z" fill="#000000" fill-rule="evenodd" fill-opacity="1" /><path clip-path="url(#clip580)" d="M155.205 372.712 Q151.594 372.712 149.765 376.276 Q147.959 379.818 147.959 386.948 Q147.959 394.054 149.765 397.619 Q151.594 401.161 155.205 401.161 Q158.839 401.161 160.644 397.619 Q162.473 394.054 162.473 386.948 Q162.473 379.818 160.644 376.276 Q158.839 372.712 155.205 372.712 M155.205 369.008 Q161.015 369.008 164.07 373.614 Q167.149 378.198 167.149 386.948 Q167.149 395.674 164.07 400.281 Q161.015 404.864 155.205 404.864 Q149.395 404.864 146.316 400.281 Q143.26 395.674 143.26 386.948 Q143.26 378.198 146.316 373.614 Q149.395 369.008 155.205 369.008 Z" fill="#000000" fill-rule="evenodd" fill-opacity="1" /><path clip-path="url(#clip580)" d="M167.149 363.109 L191.261 363.109 L191.261 366.307 L167.149 366.307 L167.149 363.109 Z" fill="#000000" fill-rule="evenodd" fill-opacity="1" /><path clip-path="url(#clip580)" d="M210.971 361.642 Q213.698 362.225 215.222 364.068 Q216.764 365.912 216.764 368.62 Q216.764 372.776 213.905 375.052 Q211.046 377.328 205.78 377.328 Q204.012 377.328 202.132 376.971 Q200.27 376.632 198.276 375.936 L198.276 372.269 Q199.856 373.19 201.737 373.66 Q203.617 374.131 205.667 374.131 Q209.241 374.131 211.103 372.72 Q212.984 371.309 212.984 368.62 Q212.984 366.137 211.234 364.746 Q209.504 363.335 206.401 363.335 L203.128 363.335 L203.128 360.213 L206.551 360.213 Q209.354 360.213 210.84 359.103 Q212.325 357.975 212.325 355.868 Q212.325 353.705 210.783 352.558 Q209.26 351.392 206.401 351.392 Q204.84 351.392 203.053 351.731 Q201.266 352.069 199.122 352.784 L199.122 349.398 Q201.285 348.797 203.166 348.496 Q205.066 348.195 206.739 348.195 Q211.065 348.195 213.585 350.17 Q216.106 352.126 216.106 355.473 Q216.106 357.805 214.77 359.423 Q213.435 361.022 210.971 361.642 Z" fill="#000000" fill-rule="evenodd" fill-opacity="1" /><path clip-path="url(#clip580)" d="M116.624 78.7422 L124.263 78.7422 L124.263 52.3766 L115.953 54.0432 L115.953 49.784 L124.217 48.1173 L128.893 48.1173 L128.893 78.7422 L136.531 78.7422 L136.531 82.6773 L116.624 82.6773 L116.624 78.7422 Z" fill="#000000" fill-rule="evenodd" fill-opacity="1" /><path clip-path="url(#clip580)" d="M155.976 51.196 Q152.365 51.196 150.536 54.7608 Q148.73 58.3025 148.73 65.4321 Q148.73 72.5385 150.536 76.1033 Q152.365 79.6449 155.976 79.6449 Q159.61 79.6449 161.416 76.1033 Q163.244 72.5385 163.244 65.4321 Q163.244 58.3025 161.416 54.7608 Q159.61 51.196 155.976 51.196 M155.976 47.4923 Q161.786 47.4923 164.841 52.0988 Q167.92 56.6821 167.92 65.4321 Q167.92 74.1589 164.841 78.7653 Q161.786 83.3486 155.976 83.3486 Q150.166 83.3486 147.087 78.7653 Q144.031 74.1589 144.031 65.4321 Q144.031 56.6821 147.087 52.0988 Q150.166 47.4923 155.976 47.4923 Z" fill="#000000" fill-rule="evenodd" fill-opacity="1" /><path clip-path="url(#clip580)" d="M167.92 41.5937 L192.032 41.5937 L192.032 44.791 L167.92 44.791 L167.92 41.5937 Z" fill="#000000" fill-rule="evenodd" fill-opacity="1" /><path clip-path="url(#clip580)" d="M203.504 52.0696 L216.764 52.0696 L216.764 55.2669 L198.934 55.2669 L198.934 52.0696 Q201.097 49.8315 204.821 46.0699 Q208.564 42.2896 209.523 41.1987 Q211.347 39.1487 212.062 37.7381 Q212.796 36.3087 212.796 34.9357 Q212.796 32.6976 211.216 31.287 Q209.655 29.8764 207.134 29.8764 Q205.348 29.8764 203.354 30.4971 Q201.379 31.1178 199.122 32.3779 L199.122 28.5411 Q201.417 27.6195 203.41 27.1493 Q205.404 26.6791 207.059 26.6791 Q211.423 26.6791 214.018 28.8608 Q216.613 31.0425 216.613 34.6912 Q216.613 36.4215 215.955 37.9826 Q215.316 39.5248 213.604 41.6313 Q213.134 42.1767 210.614 44.791 Q208.094 47.3865 203.504 52.0696 Z" fill="#000000" fill-rule="evenodd" fill-opacity="1" /><path clip-path="url(#clip580)" d="M16.4842 822.917 L16.4842 792.871 L21.895 792.871 L21.895 816.487 L35.9632 816.487 L35.9632 793.857 L41.3741 793.857 L41.3741 816.487 L58.5933 816.487 L58.5933 792.298 L64.0042 792.298 L64.0042 822.917 L16.4842 822.917 Z" fill="#000000" fill-rule="evenodd" fill-opacity="1" /><path clip-path="url(#clip580)" d="M33.8307 761.329 Q33.2578 762.315 33.0032 763.493 Q32.7167 764.639 32.7167 766.039 Q32.7167 771.004 35.9632 773.678 Q39.1779 776.32 45.2253 776.32 L64.0042 776.32 L64.0042 782.208 L28.3562 782.208 L28.3562 776.32 L33.8944 776.32 Q30.6479 774.474 29.0883 771.514 Q27.4968 768.554 27.4968 764.32 Q27.4968 763.716 27.5923 762.984 Q27.656 762.252 27.8151 761.36 L33.8307 761.329 Z" fill="#000000" fill-rule="evenodd" fill-opacity="1" /><path clip-path="url(#clip580)" d="M33.8307 735.675 Q33.2578 736.661 33.0032 737.839 Q32.7167 738.985 32.7167 740.385 Q32.7167 745.351 35.9632 748.024 Q39.1779 750.666 45.2253 750.666 L64.0042 750.666 L64.0042 756.554 L28.3562 756.554 L28.3562 750.666 L33.8944 750.666 Q30.6479 748.82 29.0883 745.86 Q27.4968 742.9 27.4968 738.667 Q27.4968 738.062 27.5923 737.33 Q27.656 736.598 27.8151 735.707 L33.8307 735.675 Z" fill="#000000" fill-rule="evenodd" fill-opacity="1" /><path clip-path="url(#clip580)" d="M32.4621 717.151 Q32.4621 721.861 36.1542 724.598 Q39.8145 727.336 46.212 727.336 Q52.6095 727.336 56.3017 724.63 Q59.9619 721.893 59.9619 717.151 Q59.9619 712.472 56.2698 709.735 Q52.5777 706.997 46.212 706.997 Q39.8781 706.997 36.186 709.735 Q32.4621 712.472 32.4621 717.151 M27.4968 717.151 Q27.4968 709.512 32.4621 705.151 Q37.4273 700.791 46.212 700.791 Q54.9649 700.791 59.9619 705.151 Q64.9272 709.512 64.9272 717.151 Q64.9272 724.821 59.9619 729.182 Q54.9649 733.51 46.212 733.51 Q37.4273 733.51 32.4621 729.182 Q27.4968 724.821 27.4968 717.151 Z" fill="#000000" fill-rule="evenodd" fill-opacity="1" /><path clip-path="url(#clip580)" d="M33.8307 670.426 Q33.2578 671.413 33.0032 672.591 Q32.7167 673.736 32.7167 675.137 Q32.7167 680.102 35.9632 682.776 Q39.1779 685.418 45.2253 685.418 L64.0042 685.418 L64.0042 691.306 L28.3562 691.306 L28.3562 685.418 L33.8944 685.418 Q30.6479 683.571 29.0883 680.611 Q27.4968 677.651 27.4968 673.418 Q27.4968 672.813 27.5923 672.081 Q27.656 671.349 27.8151 670.458 L33.8307 670.426 Z" fill="#000000" fill-rule="evenodd" fill-opacity="1" /><path clip-path="url(#clip580)" d="M44.7161 635.224 L47.5806 635.224 L47.5806 662.151 Q53.6281 661.769 56.8109 658.522 Q59.9619 655.244 59.9619 649.419 Q59.9619 646.046 59.1344 642.895 Q58.3069 639.712 56.6518 636.593 L62.1899 636.593 Q63.5267 639.744 64.227 643.054 Q64.9272 646.364 64.9272 649.77 Q64.9272 658.3 59.9619 663.297 Q54.9967 668.262 46.5303 668.262 Q37.7774 668.262 32.6531 663.551 Q27.4968 658.809 27.4968 650.788 Q27.4968 643.595 32.1438 639.425 Q36.7589 635.224 44.7161 635.224 M42.9973 641.08 Q38.1912 641.144 35.3266 643.786 Q32.4621 646.396 32.4621 650.724 Q32.4621 655.626 35.2312 658.586 Q38.0002 661.514 43.0292 661.96 L42.9973 641.08 Z" fill="#000000" fill-rule="evenodd" fill-opacity="1" /><polyline clip-path="url(#clip582)" style="stroke:#009af9; stroke-linecap:butt; stroke-linejoin:round; stroke-width:4; stroke-opacity:1; fill:none" points="
  312.198,85.838 1004.57,535.684 1302.76,729.268 1995.13,1178.73 2293.32,1372.3 
  "/>
<path clip-path="url(#clip580)" d="
M1996.99 196.379 L2282.76 196.379 L2282.76 92.6992 L1996.99 92.6992  Z
  " fill="#ffffff" fill-rule="evenodd" fill-opacity="1"/>
<polyline clip-path="url(#clip580)" style="stroke:#000000; stroke-linecap:butt; stroke-linejoin:round; stroke-width:4; stroke-opacity:1; fill:none" points="
  1996.99,196.379 2282.76,196.379 2282.76,92.6992 1996.99,92.6992 1996.99,196.379 
  "/>
<polyline clip-path="url(#clip580)" style="stroke:#009af9; stroke-linecap:butt; stroke-linejoin:round; stroke-width:4; stroke-opacity:1; fill:none" points="
  2020.33,144.539 2160.33,144.539 
  "/>
<path clip-path="url(#clip580)" d="M2197.5 164.227 Q2195.7 168.856 2193.98 170.268 Q2192.27 171.68 2189.4 171.68 L2186 171.68 L2186 168.115 L2188.5 168.115 Q2190.26 168.115 2191.23 167.282 Q2192.2 166.449 2193.38 163.347 L2194.15 161.403 L2183.66 135.893 L2188.17 135.893 L2196.28 156.171 L2204.38 135.893 L2208.89 135.893 L2197.5 164.227 Z" fill="#000000" fill-rule="evenodd" fill-opacity="1" /><path clip-path="url(#clip580)" d="M2216.18 157.884 L2223.82 157.884 L2223.82 131.518 L2215.51 133.185 L2215.51 128.926 L2223.77 127.259 L2228.45 127.259 L2228.45 157.884 L2236.09 157.884 L2236.09 161.819 L2216.18 161.819 L2216.18 157.884 Z" fill="#000000" fill-rule="evenodd" fill-opacity="1" /></svg>
