<?xml version="1.0" encoding="utf-8"?>
<svg xmlns="http://www.w3.org/2000/svg" xmlns:xlink="http://www.w3.org/1999/xlink" width="600" height="400" viewBox="0 0 2400 1600">
<defs>
  <clipPath id="clip520">
    <rect x="0" y="0" width="2400" height="1600"/>
  </clipPath>
</defs>
<path clip-path="url(#clip520)" d="M0 1600 L2400 1600 L2400 0 L0 0  Z" fill="#ffffff" fill-rule="evenodd" fill-opacity="1"/>
<defs>
  <clipPath id="clip521">
    <rect x="480" y="0" width="1681" height="1600"/>
  </clipPath>
</defs>
<path clip-path="url(#clip520)" d="M340.028 1423.18 L2352.76 1423.18 L2352.76 47.2441 L340.028 47.2441  Z" fill="#ffffff" fill-rule="evenodd" fill-opacity="1"/>
<defs>
  <clipPath id="clip522">
    <rect x="340" y="47" width="2014" height="1377"/>
  </clipPath>
</defs>
<polyline clip-path="url(#clip522)" style="stroke:#000000; stroke-linecap:round; stroke-linejoin:round; stroke-width:2; stroke-opacity:0.1; fill:none" points="377.812,1423.18 377.812,47.2441 "/>
<polyline clip-path="url(#clip522)" style="stroke:#000000; stroke-linecap:round; stroke-linejoin:round; stroke-width:2; stroke-opacity:0.1; fill:none" points="857.307,1423.18 857.307,47.2441 "/>
<polyline clip-path="url(#clip522)" style="stroke:#000000; stroke-linecap:round; stroke-linejoin:round; stroke-width:2; stroke-opacity:0.1; fill:none" points="1336.8,1423.18 1336.8,47.2441 "/>
<polyline clip-path="url(#clip522)" style="stroke:#000000; stroke-linecap:round; stroke-linejoin:round; stroke-width:2; stroke-opacity:0.1; fill:none" points="1816.3,1423.18 1816.3,47.2441 "/>
<polyline clip-path="url(#clip522)" style="stroke:#000000; stroke-linecap:round; stroke-linejoin:round; stroke-width:2; stroke-opacity:0.1; fill:none" points="2295.79,1423.18 2295.79,47.2441 "/>
<polyline clip-path="url(#clip522)" style="stroke:#000000; stroke-linecap:round; stroke-linejoin:round; stroke-width:2; stroke-opacity:0.1; fill:none" points="340.028,1384.37 2352.76,1384.37 "/>
<polyline clip-path="url(#clip522)" style="stroke:#000000; stroke-linecap:round; stroke-linejoin:round; stroke-width:2; stroke-opacity:0.1; fill:none" points="340.028,1069.37 2352.76,1069.37 "/>
<polyline clip-path="url(#clip522)" style="stroke:#000000; stroke-linecap:round; stroke-linejoin:round; stroke-width:2; stroke-opacity:0.1; fill:none" points="340.028,754.369 2352.76,754.369 "/>
<polyline clip-path="url(#clip522)" style="stroke:#000000; stroke-linecap:round; stroke-linejoin:round; stroke-width:2; stroke-opacity:0.1; fill:none" points="340.028,439.37 2352.76,439.37 "/>
<polyline clip-path="url(#clip522)" style="stroke:#000000; stroke-linecap:round; stroke-linejoin:round; stroke-width:2; stroke-opacity:0.1; fill:none" points="340.028,124.371 2352.76,124.371 "/>
<polyline clip-path="url(#clip520)" style="stroke:#000000; stroke-linecap:round; stroke-linejoin:round; stroke-width:4; stroke-opacity:1; fill:none" points="340.028,1423.18 2352.76,1423.18 "/>
<polyline clip-path="url(#clip520)" style="stroke:#000000; stroke-linecap:round; stroke-linejoin:round; stroke-width:4; stroke-opacity:1; fill:none" points="377.812,1423.18 377.812,1404.28 "/>
<polyline clip-path="url(#clip520)" style="stroke:#000000; stroke-linecap:round; stroke-linejoin:round; stroke-width:4; stroke-opacity:1; fill:none" points="857.307,1423.18 857.307,1404.28 "/>
<polyline clip-path="url(#clip520)" style="stroke:#000000; stroke-linecap:round; stroke-linejoin:round; stroke-width:4; stroke-opacity:1; fill:none" points="1336.8,1423.18 1336.8,1404.28 "/>
<polyline clip-path="url(#clip520)" style="stroke:#000000; stroke-linecap:round; stroke-linejoin:round; stroke-width:4; stroke-opacity:1; fill:none" points="1816.3,1423.18 1816.3,1404.28 "/>
<polyline clip-path="url(#clip520)" style="stroke:#000000; stroke-linecap:round; stroke-linejoin:round; stroke-width:4; stroke-opacity:1; fill:none" points="2295.79,1423.18 2295.79,1404.28 "/>
<path clip-path="url(#clip520)" d="M377.812 1454.1 Q374.201 1454.1 372.372 1457.66 Q370.567 1461.2 370.567 1468.33 Q370.567 1475.44 372.372 1479.01 Q374.201 1482.55 377.812 1482.55 Q381.446 1482.55 383.252 1479.01 Q385.08 1475.44 385.08 1468.33 Q385.08 1461.2 383.252 1457.66 Q381.446 1454.1 377.812 1454.1 M377.812 1450.39 Q383.622 1450.39 386.678 1455 Q389.756 1459.58 389.756 1468.33 Q389.756 1477.06 386.678 1481.67 Q383.622 1486.25 377.812 1486.25 Q372.002 1486.25 368.923 1481.67 Q365.867 1477.06 365.867 1468.33 Q365.867 1459.58 368.923 1455 Q372.002 1450.39 377.812 1450.39 Z" fill="#000000" fill-rule="nonzero" fill-opacity="1" /><path clip-path="url(#clip520)" d="M820.999 1481.64 L837.319 1481.64 L837.319 1485.58 L815.374 1485.58 L815.374 1481.64 Q818.036 1478.89 822.62 1474.26 Q827.226 1469.61 828.407 1468.27 Q830.652 1465.74 831.532 1464.01 Q832.434 1462.25 832.434 1460.56 Q832.434 1457.8 830.49 1456.07 Q828.569 1454.33 825.467 1454.33 Q823.268 1454.33 820.814 1455.09 Q818.383 1455.86 815.606 1457.41 L815.606 1452.69 Q818.43 1451.55 820.883 1450.97 Q823.337 1450.39 825.374 1450.39 Q830.745 1450.39 833.939 1453.08 Q837.133 1455.77 837.133 1460.26 Q837.133 1462.39 836.323 1464.31 Q835.536 1466.2 833.43 1468.8 Q832.851 1469.47 829.749 1472.69 Q826.647 1475.88 820.999 1481.64 Z" fill="#000000" fill-rule="nonzero" fill-opacity="1" /><path clip-path="url(#clip520)" d="M847.18 1451.02 L865.536 1451.02 L865.536 1454.96 L851.462 1454.96 L851.462 1463.43 Q852.481 1463.08 853.499 1462.92 Q854.518 1462.73 855.536 1462.73 Q861.323 1462.73 864.703 1465.9 Q868.082 1469.08 868.082 1474.49 Q868.082 1480.07 864.61 1483.17 Q861.138 1486.25 854.818 1486.25 Q852.643 1486.25 850.374 1485.88 Q848.129 1485.51 845.721 1484.77 L845.721 1480.07 Q847.805 1481.2 850.027 1481.76 Q852.249 1482.32 854.726 1482.32 Q858.73 1482.32 861.068 1480.21 Q863.406 1478.1 863.406 1474.49 Q863.406 1470.88 861.068 1468.77 Q858.73 1466.67 854.726 1466.67 Q852.851 1466.67 850.976 1467.08 Q849.124 1467.5 847.18 1468.38 L847.18 1451.02 Z" fill="#000000" fill-rule="nonzero" fill-opacity="1" /><path clip-path="url(#clip520)" d="M887.295 1454.1 Q883.684 1454.1 881.855 1457.66 Q880.05 1461.2 880.05 1468.33 Q880.05 1475.44 881.855 1479.01 Q883.684 1482.55 887.295 1482.55 Q890.929 1482.55 892.735 1479.01 Q894.564 1475.44 894.564 1468.33 Q894.564 1461.2 892.735 1457.66 Q890.929 1454.1 887.295 1454.1 M887.295 1450.39 Q893.105 1450.39 896.161 1455 Q899.24 1459.58 899.24 1468.33 Q899.24 1477.06 896.161 1481.67 Q893.105 1486.25 887.295 1486.25 Q881.485 1486.25 878.406 1481.67 Q875.351 1477.06 875.351 1468.33 Q875.351 1459.58 878.406 1455 Q881.485 1450.39 887.295 1450.39 Z" fill="#000000" fill-rule="nonzero" fill-opacity="1" /><path clip-path="url(#clip520)" d="M1296.42 1451.02 L1314.78 1451.02 L1314.78 1454.96 L1300.7 1454.96 L1300.7 1463.43 Q1301.72 1463.08 1302.74 1462.92 Q1303.76 1462.73 1304.78 1462.73 Q1310.56 1462.73 1313.94 1465.9 Q1317.32 1469.08 1317.32 1474.49 Q1317.32 1480.07 1313.85 1483.17 Q1310.38 1486.25 1304.06 1486.25 Q1301.88 1486.25 1299.61 1485.88 Q1297.37 1485.51 1294.96 1484.77 L1294.96 1480.07 Q1297.05 1481.2 1299.27 1481.76 Q1301.49 1482.32 1303.97 1482.32 Q1307.97 1482.32 1310.31 1480.21 Q1312.65 1478.1 1312.65 1474.49 Q1312.65 1470.88 1310.31 1468.77 Q1307.97 1466.67 1303.97 1466.67 Q1302.09 1466.67 1300.22 1467.08 Q1298.36 1467.5 1296.42 1468.38 L1296.42 1451.02 Z" fill="#000000" fill-rule="nonzero" fill-opacity="1" /><path clip-path="url(#clip520)" d="M1336.54 1454.1 Q1332.92 1454.1 1331.1 1457.66 Q1329.29 1461.2 1329.29 1468.33 Q1329.29 1475.44 1331.1 1479.01 Q1332.92 1482.55 1336.54 1482.55 Q1340.17 1482.55 1341.98 1479.01 Q1343.8 1475.44 1343.8 1468.33 Q1343.8 1461.2 1341.98 1457.66 Q1340.17 1454.1 1336.54 1454.1 M1336.54 1450.39 Q1342.35 1450.39 1345.4 1455 Q1348.48 1459.58 1348.48 1468.33 Q1348.48 1477.06 1345.4 1481.67 Q1342.35 1486.25 1336.54 1486.25 Q1330.73 1486.25 1327.65 1481.67 Q1324.59 1477.06 1324.59 1468.33 Q1324.59 1459.58 1327.65 1455 Q1330.73 1450.39 1336.54 1450.39 Z" fill="#000000" fill-rule="nonzero" fill-opacity="1" /><path clip-path="url(#clip520)" d="M1366.7 1454.1 Q1363.09 1454.1 1361.26 1457.66 Q1359.45 1461.2 1359.45 1468.33 Q1359.45 1475.44 1361.26 1479.01 Q1363.09 1482.55 1366.7 1482.55 Q1370.33 1482.55 1372.14 1479.01 Q1373.97 1475.44 1373.97 1468.33 Q1373.97 1461.2 1372.14 1457.66 Q1370.33 1454.1 1366.7 1454.1 M1366.7 1450.39 Q1372.51 1450.39 1375.56 1455 Q1378.64 1459.58 1378.64 1468.33 Q1378.64 1477.06 1375.56 1481.67 Q1372.51 1486.25 1366.7 1486.25 Q1360.89 1486.25 1357.81 1481.67 Q1354.75 1477.06 1354.75 1468.33 Q1354.75 1459.58 1357.81 1455 Q1360.89 1450.39 1366.7 1450.39 Z" fill="#000000" fill-rule="nonzero" fill-opacity="1" /><path clip-path="url(#clip520)" d="M1774.57 1451.02 L1796.79 1451.02 L1796.79 1453.01 L1784.25 1485.58 L1779.36 1485.58 L1791.17 1454.96 L1774.57 1454.96 L1774.57 1451.02 Z" fill="#000000" fill-rule="nonzero" fill-opacity="1" /><path clip-path="url(#clip520)" d="M1805.96 1451.02 L1824.32 1451.02 L1824.32 1454.96 L1810.24 1454.96 L1810.24 1463.43 Q1811.26 1463.08 1812.28 1462.92 Q1813.3 1462.73 1814.32 1462.73 Q1820.1 1462.73 1823.48 1465.9 Q1826.86 1469.08 1826.86 1474.49 Q1826.86 1480.07 1823.39 1483.17 Q1819.92 1486.25 1813.6 1486.25 Q1811.42 1486.25 1809.16 1485.88 Q1806.91 1485.51 1804.5 1484.77 L1804.5 1480.07 Q1806.59 1481.2 1808.81 1481.76 Q1811.03 1482.32 1813.51 1482.32 Q1817.51 1482.32 1819.85 1480.21 Q1822.19 1478.1 1822.19 1474.49 Q1822.19 1470.88 1819.85 1468.77 Q1817.51 1466.67 1813.51 1466.67 Q1811.63 1466.67 1809.76 1467.08 Q1807.91 1467.5 1805.96 1468.38 L1805.96 1451.02 Z" fill="#000000" fill-rule="nonzero" fill-opacity="1" /><path clip-path="url(#clip520)" d="M1846.08 1454.1 Q1842.47 1454.1 1840.64 1457.66 Q1838.83 1461.2 1838.83 1468.33 Q1838.83 1475.44 1840.64 1479.01 Q1842.47 1482.55 1846.08 1482.55 Q1849.71 1482.55 1851.52 1479.01 Q1853.35 1475.44 1853.35 1468.33 Q1853.35 1461.2 1851.52 1457.66 Q1849.71 1454.1 1846.08 1454.1 M1846.08 1450.39 Q1851.89 1450.39 1854.94 1455 Q1858.02 1459.58 1858.02 1468.33 Q1858.02 1477.06 1854.94 1481.67 Q1851.89 1486.25 1846.08 1486.25 Q1840.27 1486.25 1837.19 1481.67 Q1834.13 1477.06 1834.13 1468.33 Q1834.13 1459.58 1837.19 1455 Q1840.27 1450.39 1846.08 1450.39 Z" fill="#000000" fill-rule="nonzero" fill-opacity="1" /><path clip-path="url(#clip520)" d="M2240.32 1481.64 L2247.96 1481.64 L2247.96 1455.28 L2239.65 1456.95 L2239.65 1452.69 L2247.91 1451.02 L2252.59 1451.02 L2252.59 1481.64 L2260.22 1481.64 L2260.22 1485.58 L2240.32 1485.58 L2240.32 1481.64 Z" fill="#000000" fill-rule="nonzero" fill-opacity="1" /><path clip-path="url(#clip520)" d="M2279.67 1454.1 Q2276.06 1454.1 2274.23 1457.66 Q2272.42 1461.2 2272.42 1468.33 Q2272.42 1475.44 2274.23 1479.01 Q2276.06 1482.55 2279.67 1482.55 Q2283.3 1482.55 2285.11 1479.01 Q2286.94 1475.44 2286.94 1468.33 Q2286.94 1461.2 2285.11 1457.66 Q2283.3 1454.1 2279.67 1454.1 M2279.67 1450.39 Q2285.48 1450.39 2288.53 1455 Q2291.61 1459.58 2291.61 1468.33 Q2291.61 1477.06 2288.53 1481.67 Q2285.48 1486.25 2279.67 1486.25 Q2273.86 1486.25 2270.78 1481.67 Q2267.72 1477.06 2267.72 1468.33 Q2267.72 1459.58 2270.78 1455 Q2273.86 1450.39 2279.67 1450.39 Z" fill="#000000" fill-rule="nonzero" fill-opacity="1" /><path clip-path="url(#clip520)" d="M2309.83 1454.1 Q2306.22 1454.1 2304.39 1457.66 Q2302.59 1461.2 2302.59 1468.33 Q2302.59 1475.44 2304.39 1479.01 Q2306.22 1482.55 2309.83 1482.55 Q2313.47 1482.55 2315.27 1479.01 Q2317.1 1475.44 2317.1 1468.33 Q2317.1 1461.2 2315.27 1457.66 Q2313.47 1454.1 2309.83 1454.1 M2309.83 1450.39 Q2315.64 1450.39 2318.7 1455 Q2321.78 1459.58 2321.78 1468.33 Q2321.78 1477.06 2318.7 1481.67 Q2315.64 1486.25 2309.83 1486.25 Q2304.02 1486.25 2300.94 1481.67 Q2297.89 1477.06 2297.89 1468.33 Q2297.89 1459.58 2300.94 1455 Q2304.02 1450.39 2309.83 1450.39 Z" fill="#000000" fill-rule="nonzero" fill-opacity="1" /><path clip-path="url(#clip520)" d="M2339.99 1454.1 Q2336.38 1454.1 2334.55 1457.66 Q2332.75 1461.2 2332.75 1468.33 Q2332.75 1475.44 2334.55 1479.01 Q2336.38 1482.55 2339.99 1482.55 Q2343.63 1482.55 2345.43 1479.01 Q2347.26 1475.44 2347.26 1468.33 Q2347.26 1461.2 2345.43 1457.66 Q2343.63 1454.1 2339.99 1454.1 M2339.99 1450.39 Q2345.8 1450.39 2348.86 1455 Q2351.94 1459.58 2351.94 1468.33 Q2351.94 1477.06 2348.86 1481.67 Q2345.8 1486.25 2339.99 1486.25 Q2334.18 1486.25 2331.1 1481.67 Q2328.05 1477.06 2328.05 1468.33 Q2328.05 1459.58 2331.1 1455 Q2334.18 1450.39 2339.99 1450.39 Z" fill="#000000" fill-rule="nonzero" fill-opacity="1" /><path clip-path="url(#clip520)" d="M1089.04 1520.52 L1097.7 1520.52 L1118.77 1560.28 L1118.77 1520.52 L1125.01 1520.52 L1125.01 1568.04 L1116.35 1568.04 L1095.28 1528.29 L1095.28 1568.04 L1089.04 1568.04 L1089.04 1520.52 Z" fill="#000000" fill-rule="nonzero" fill-opacity="1" /><path clip-path="url(#clip520)" d="M1136.94 1553.98 L1136.94 1532.4 L1142.8 1532.4 L1142.8 1553.75 Q1142.8 1558.81 1144.77 1561.36 Q1146.75 1563.87 1150.69 1563.87 Q1155.44 1563.87 1158.17 1560.85 Q1160.94 1557.83 1160.94 1552.61 L1160.94 1532.4 L1166.8 1532.4 L1166.8 1568.04 L1160.94 1568.04 L1160.94 1562.57 Q1158.81 1565.82 1155.98 1567.41 Q1153.18 1568.97 1149.45 1568.97 Q1143.31 1568.97 1140.13 1565.15 Q1136.94 1561.33 1136.94 1553.98 M1151.68 1531.54 L1151.68 1531.54 Z" fill="#000000" fill-rule="nonzero" fill-opacity="1" /><path clip-path="url(#clip520)" d="M1206.62 1539.24 Q1208.81 1535.29 1211.87 1533.41 Q1214.92 1531.54 1219.06 1531.54 Q1224.63 1531.54 1227.66 1535.45 Q1230.68 1539.33 1230.68 1546.53 L1230.68 1568.04 L1224.79 1568.04 L1224.79 1546.72 Q1224.79 1541.59 1222.98 1539.11 Q1221.16 1536.63 1217.44 1536.63 Q1212.89 1536.63 1210.25 1539.65 Q1207.6 1542.68 1207.6 1547.9 L1207.6 1568.04 L1201.72 1568.04 L1201.72 1546.72 Q1201.72 1541.56 1199.9 1539.11 Q1198.09 1536.63 1194.3 1536.63 Q1189.81 1536.63 1187.17 1539.68 Q1184.53 1542.71 1184.53 1547.9 L1184.53 1568.04 L1178.64 1568.04 L1178.64 1532.4 L1184.53 1532.4 L1184.53 1537.93 Q1186.53 1534.66 1189.33 1533.1 Q1192.13 1531.54 1195.99 1531.54 Q1199.87 1531.54 1202.57 1533.51 Q1205.31 1535.48 1206.62 1539.24 Z" fill="#000000" fill-rule="nonzero" fill-opacity="1" /><path clip-path="url(#clip520)" d="M1272.85 1548.76 L1272.85 1551.62 L1245.93 1551.62 Q1246.31 1557.67 1249.55 1560.85 Q1252.83 1564 1258.66 1564 Q1262.03 1564 1265.18 1563.17 Q1268.36 1562.35 1271.48 1560.69 L1271.48 1566.23 Q1268.33 1567.57 1265.02 1568.27 Q1261.71 1568.97 1258.31 1568.97 Q1249.78 1568.97 1244.78 1564 Q1239.81 1559.04 1239.81 1550.57 Q1239.81 1541.82 1244.52 1536.69 Q1249.27 1531.54 1257.29 1531.54 Q1264.48 1531.54 1268.65 1536.18 Q1272.85 1540.8 1272.85 1548.76 M1267 1547.04 Q1266.93 1542.23 1264.29 1539.37 Q1261.68 1536.5 1257.35 1536.5 Q1252.45 1536.5 1249.49 1539.27 Q1246.56 1542.04 1246.12 1547.07 L1267 1547.04 Z" fill="#000000" fill-rule="nonzero" fill-opacity="1" /><path clip-path="url(#clip520)" d="M1303.12 1537.87 Q1302.13 1537.3 1300.96 1537.04 Q1299.81 1536.76 1298.41 1536.76 Q1293.45 1536.76 1290.77 1540 Q1288.13 1543.22 1288.13 1549.27 L1288.13 1568.04 L1282.24 1568.04 L1282.24 1532.4 L1288.13 1532.4 L1288.13 1537.93 Q1289.98 1534.69 1292.94 1533.13 Q1295.9 1531.54 1300.13 1531.54 Q1300.73 1531.54 1301.47 1531.63 Q1302.2 1531.7 1303.09 1531.85 L1303.12 1537.87 Z" fill="#000000" fill-rule="nonzero" fill-opacity="1" /><path clip-path="url(#clip520)" d="M1321.65 1536.5 Q1316.93 1536.5 1314.2 1540.19 Q1311.46 1543.85 1311.46 1550.25 Q1311.46 1556.65 1314.17 1560.34 Q1316.9 1564 1321.65 1564 Q1326.32 1564 1329.06 1560.31 Q1331.8 1556.62 1331.8 1550.25 Q1331.8 1543.92 1329.06 1540.23 Q1326.32 1536.5 1321.65 1536.5 M1321.65 1531.54 Q1329.28 1531.54 1333.64 1536.5 Q1338 1541.47 1338 1550.25 Q1338 1559 1333.64 1564 Q1329.28 1568.97 1321.65 1568.97 Q1313.97 1568.97 1309.61 1564 Q1305.29 1559 1305.29 1550.25 Q1305.29 1541.47 1309.61 1536.5 Q1313.97 1531.54 1321.65 1531.54 Z" fill="#000000" fill-rule="nonzero" fill-opacity="1" /><path clip-path="url(#clip520)" d="M1391.89 1537.81 L1391.89 1518.52 L1397.75 1518.52 L1397.75 1568.04 L1391.89 1568.04 L1391.89 1562.7 Q1390.04 1565.88 1387.21 1567.44 Q1384.41 1568.97 1380.46 1568.97 Q1374 1568.97 1369.93 1563.81 Q1365.89 1558.65 1365.89 1550.25 Q1365.89 1541.85 1369.93 1536.69 Q1374 1531.54 1380.46 1531.54 Q1384.41 1531.54 1387.21 1533.1 Q1390.04 1534.62 1391.89 1537.81 M1371.93 1550.25 Q1371.93 1556.71 1374.58 1560.4 Q1377.25 1564.07 1381.9 1564.07 Q1386.54 1564.07 1389.22 1560.4 Q1391.89 1556.71 1391.89 1550.25 Q1391.89 1543.79 1389.22 1540.13 Q1386.54 1536.44 1381.9 1536.44 Q1377.25 1536.44 1374.58 1540.13 Q1371.93 1543.79 1371.93 1550.25 Z" fill="#000000" fill-rule="nonzero" fill-opacity="1" /><path clip-path="url(#clip520)" d="M1409.81 1532.4 L1415.67 1532.4 L1415.67 1568.04 L1409.81 1568.04 L1409.81 1532.4 M1409.81 1518.52 L1415.67 1518.52 L1415.67 1525.93 L1409.81 1525.93 L1409.81 1518.52 Z" fill="#000000" fill-rule="nonzero" fill-opacity="1" /><path clip-path="url(#clip520)" d="M1454.31 1562.7 L1454.31 1581.6 L1448.42 1581.6 L1448.42 1532.4 L1454.31 1532.4 L1454.31 1537.81 Q1456.15 1534.62 1458.95 1533.1 Q1461.79 1531.54 1465.7 1531.54 Q1472.19 1531.54 1476.24 1536.69 Q1480.31 1541.85 1480.31 1550.25 Q1480.31 1558.65 1476.24 1563.81 Q1472.19 1568.97 1465.7 1568.97 Q1461.79 1568.97 1458.95 1567.44 Q1456.15 1565.88 1454.31 1562.7 M1474.23 1550.25 Q1474.23 1543.79 1471.56 1540.13 Q1468.92 1536.44 1464.27 1536.44 Q1459.62 1536.44 1456.95 1540.13 Q1454.31 1543.79 1454.31 1550.25 Q1454.31 1556.71 1456.95 1560.4 Q1459.62 1564.07 1464.27 1564.07 Q1468.92 1564.07 1471.56 1560.4 Q1474.23 1556.71 1474.23 1550.25 Z" fill="#000000" fill-rule="nonzero" fill-opacity="1" /><path clip-path="url(#clip520)" d="M1506.22 1550.12 Q1499.12 1550.12 1496.38 1551.75 Q1493.65 1553.37 1493.65 1557.29 Q1493.65 1560.4 1495.68 1562.25 Q1497.75 1564.07 1501.29 1564.07 Q1506.16 1564.07 1509.08 1560.63 Q1512.04 1557.16 1512.04 1551.43 L1512.04 1550.12 L1506.22 1550.12 M1517.9 1547.71 L1517.9 1568.04 L1512.04 1568.04 L1512.04 1562.63 Q1510.04 1565.88 1507.05 1567.44 Q1504.05 1568.97 1499.73 1568.97 Q1494.25 1568.97 1491 1565.91 Q1487.79 1562.82 1487.79 1557.67 Q1487.79 1551.65 1491.8 1548.6 Q1495.84 1545.54 1503.83 1545.54 L1512.04 1545.54 L1512.04 1544.97 Q1512.04 1540.93 1509.37 1538.73 Q1506.73 1536.5 1501.92 1536.5 Q1498.87 1536.5 1495.97 1537.23 Q1493.07 1537.97 1490.4 1539.43 L1490.4 1534.02 Q1493.61 1532.78 1496.64 1532.17 Q1499.66 1531.54 1502.53 1531.54 Q1510.26 1531.54 1514.08 1535.55 Q1517.9 1539.56 1517.9 1547.71 Z" fill="#000000" fill-rule="nonzero" fill-opacity="1" /><path clip-path="url(#clip520)" d="M1552.69 1533.45 L1552.69 1538.98 Q1550.21 1537.71 1547.53 1537.07 Q1544.86 1536.44 1541.99 1536.44 Q1537.63 1536.44 1535.44 1537.77 Q1533.27 1539.11 1533.27 1541.79 Q1533.27 1543.82 1534.83 1545 Q1536.39 1546.15 1541.1 1547.2 L1543.11 1547.64 Q1549.35 1548.98 1551.96 1551.43 Q1554.6 1553.85 1554.6 1558.21 Q1554.6 1563.17 1550.65 1566.07 Q1546.74 1568.97 1539.86 1568.97 Q1537 1568.97 1533.88 1568.39 Q1530.79 1567.85 1527.35 1566.74 L1527.35 1560.69 Q1530.6 1562.38 1533.75 1563.24 Q1536.9 1564.07 1539.99 1564.07 Q1544.13 1564.07 1546.35 1562.66 Q1548.58 1561.23 1548.58 1558.65 Q1548.58 1556.27 1546.96 1554.99 Q1545.37 1553.72 1539.93 1552.54 L1537.89 1552.07 Q1532.45 1550.92 1530.03 1548.56 Q1527.61 1546.18 1527.61 1542.04 Q1527.61 1537.01 1531.17 1534.27 Q1534.74 1531.54 1541.29 1531.54 Q1544.54 1531.54 1547.4 1532.01 Q1550.27 1532.49 1552.69 1533.45 Z" fill="#000000" fill-rule="nonzero" fill-opacity="1" /><path clip-path="url(#clip520)" d="M1586.65 1533.45 L1586.65 1538.98 Q1584.17 1537.71 1581.49 1537.07 Q1578.82 1536.44 1575.96 1536.44 Q1571.59 1536.44 1569.4 1537.77 Q1567.23 1539.11 1567.23 1541.79 Q1567.23 1543.82 1568.79 1545 Q1570.35 1546.15 1575.06 1547.2 L1577.07 1547.64 Q1583.31 1548.98 1585.92 1551.43 Q1588.56 1553.85 1588.56 1558.21 Q1588.56 1563.17 1584.61 1566.07 Q1580.7 1568.97 1573.82 1568.97 Q1570.96 1568.97 1567.84 1568.39 Q1564.75 1567.85 1561.31 1566.74 L1561.31 1560.69 Q1564.56 1562.38 1567.71 1563.24 Q1570.86 1564.07 1573.95 1564.07 Q1578.09 1564.07 1580.32 1562.66 Q1582.54 1561.23 1582.54 1558.65 Q1582.54 1556.27 1580.92 1554.99 Q1579.33 1553.72 1573.89 1552.54 L1571.85 1552.07 Q1566.41 1550.92 1563.99 1548.56 Q1561.57 1546.18 1561.57 1542.04 Q1561.57 1537.01 1565.13 1534.27 Q1568.7 1531.54 1575.25 1531.54 Q1578.5 1531.54 1581.37 1532.01 Q1584.23 1532.49 1586.65 1533.45 Z" fill="#000000" fill-rule="nonzero" fill-opacity="1" /><path clip-path="url(#clip520)" d="M1597.88 1532.4 L1603.74 1532.4 L1603.74 1568.04 L1597.88 1568.04 L1597.88 1532.4 M1597.88 1518.52 L1603.74 1518.52 L1603.74 1525.93 L1597.88 1525.93 L1597.88 1518.52 Z" fill="#000000" fill-rule="nonzero" fill-opacity="1" /><polyline clip-path="url(#clip520)" style="stroke:#000000; stroke-linecap:round; stroke-linejoin:round; stroke-width:4; stroke-opacity:1; fill:none" points="340.028,1423.18 340.028,47.2441 "/>
<polyline clip-path="url(#clip520)" style="stroke:#000000; stroke-linecap:round; stroke-linejoin:round; stroke-width:4; stroke-opacity:1; fill:none" points="340.028,1384.37 358.925,1384.37 "/>
<polyline clip-path="url(#clip520)" style="stroke:#000000; stroke-linecap:round; stroke-linejoin:round; stroke-width:4; stroke-opacity:1; fill:none" points="340.028,1069.37 358.925,1069.37 "/>
<polyline clip-path="url(#clip520)" style="stroke:#000000; stroke-linecap:round; stroke-linejoin:round; stroke-width:4; stroke-opacity:1; fill:none" points="340.028,754.369 358.925,754.369 "/>
<polyline clip-path="url(#clip520)" style="stroke:#000000; stroke-linecap:round; stroke-linejoin:round; stroke-width:4; stroke-opacity:1; fill:none" points="340.028,439.37 358.925,439.37 "/>
<polyline clip-path="url(#clip520)" style="stroke:#000000; stroke-linecap:round; stroke-linejoin:round; stroke-width:4; stroke-opacity:1; fill:none" points="340.028,124.371 358.925,124.371 "/>
<path clip-path="url(#clip520)" d="M126.205 1370.17 Q122.593 1370.17 120.765 1373.73 Q118.959 1377.27 118.959 1384.4 Q118.959 1391.51 120.765 1395.07 Q122.593 1398.62 126.205 1398.62 Q129.839 1398.62 131.644 1395.07 Q133.473 1391.51 133.473 1384.4 Q133.473 1377.27 131.644 1373.73 Q129.839 1370.17 126.205 1370.17 M126.205 1366.46 Q132.015 1366.46 135.07 1371.07 Q138.149 1375.65 138.149 1384.4 Q138.149 1393.13 135.07 1397.74 Q132.015 1402.32 126.205 1402.32 Q120.394 1402.32 117.316 1397.74 Q114.26 1393.13 114.26 1384.4 Q114.26 1375.65 117.316 1371.07 Q120.394 1366.46 126.205 1366.46 Z" fill="#000000" fill-rule="nonzero" fill-opacity="1" /><path clip-path="url(#clip520)" d="M146.366 1395.77 L151.251 1395.77 L151.251 1401.65 L146.366 1401.65 L146.366 1395.77 Z" fill="#000000" fill-rule="nonzero" fill-opacity="1" /><path clip-path="url(#clip520)" d="M171.436 1370.17 Q167.825 1370.17 165.996 1373.73 Q164.19 1377.27 164.19 1384.4 Q164.19 1391.51 165.996 1395.07 Q167.825 1398.62 171.436 1398.62 Q175.07 1398.62 176.876 1395.07 Q178.704 1391.51 178.704 1384.4 Q178.704 1377.27 176.876 1373.73 Q175.07 1370.17 171.436 1370.17 M171.436 1366.46 Q177.246 1366.46 180.301 1371.07 Q183.38 1375.65 183.38 1384.4 Q183.38 1393.13 180.301 1397.74 Q177.246 1402.32 171.436 1402.32 Q165.626 1402.32 162.547 1397.74 Q159.491 1393.13 159.491 1384.4 Q159.491 1375.65 162.547 1371.07 Q165.626 1366.46 171.436 1366.46 Z" fill="#000000" fill-rule="nonzero" fill-opacity="1" /><path clip-path="url(#clip520)" d="M201.598 1370.17 Q197.987 1370.17 196.158 1373.73 Q194.352 1377.27 194.352 1384.4 Q194.352 1391.51 196.158 1395.07 Q197.987 1398.62 201.598 1398.62 Q205.232 1398.62 207.037 1395.07 Q208.866 1391.51 208.866 1384.4 Q208.866 1377.27 207.037 1373.73 Q205.232 1370.17 201.598 1370.17 M201.598 1366.46 Q207.408 1366.46 210.463 1371.07 Q213.542 1375.65 213.542 1384.4 Q213.542 1393.13 210.463 1397.74 Q207.408 1402.32 201.598 1402.32 Q195.787 1402.32 192.709 1397.74 Q189.653 1393.13 189.653 1384.4 Q189.653 1375.65 192.709 1371.07 Q195.787 1366.46 201.598 1366.46 Z" fill="#000000" fill-rule="nonzero" fill-opacity="1" /><path clip-path="url(#clip520)" d="M231.76 1370.17 Q228.148 1370.17 226.32 1373.73 Q224.514 1377.27 224.514 1384.4 Q224.514 1391.51 226.32 1395.07 Q228.148 1398.62 231.76 1398.62 Q235.394 1398.62 237.199 1395.07 Q239.028 1391.51 239.028 1384.4 Q239.028 1377.27 237.199 1373.73 Q235.394 1370.17 231.76 1370.17 M231.76 1366.46 Q237.57 1366.46 240.625 1371.07 Q243.704 1375.65 243.704 1384.4 Q243.704 1393.13 240.625 1397.74 Q237.57 1402.32 231.76 1402.32 Q225.949 1402.32 222.871 1397.74 Q219.815 1393.13 219.815 1384.4 Q219.815 1375.65 222.871 1371.07 Q225.949 1366.46 231.76 1366.46 Z" fill="#000000" fill-rule="nonzero" fill-opacity="1" /><path clip-path="url(#clip520)" d="M261.921 1370.17 Q258.31 1370.17 256.482 1373.73 Q254.676 1377.27 254.676 1384.4 Q254.676 1391.51 256.482 1395.07 Q258.31 1398.62 261.921 1398.62 Q265.556 1398.62 267.361 1395.07 Q269.19 1391.51 269.19 1384.4 Q269.19 1377.27 267.361 1373.73 Q265.556 1370.17 261.921 1370.17 M261.921 1366.46 Q267.732 1366.46 270.787 1371.07 Q273.866 1375.65 273.866 1384.4 Q273.866 1393.13 270.787 1397.74 Q267.732 1402.32 261.921 1402.32 Q256.111 1402.32 253.033 1397.74 Q249.977 1393.13 249.977 1384.4 Q249.977 1375.65 253.033 1371.07 Q256.111 1366.46 261.921 1366.46 Z" fill="#000000" fill-rule="nonzero" fill-opacity="1" /><path clip-path="url(#clip520)" d="M292.083 1370.17 Q288.472 1370.17 286.643 1373.73 Q284.838 1377.27 284.838 1384.4 Q284.838 1391.51 286.643 1395.07 Q288.472 1398.62 292.083 1398.62 Q295.718 1398.62 297.523 1395.07 Q299.352 1391.51 299.352 1384.4 Q299.352 1377.27 297.523 1373.73 Q295.718 1370.17 292.083 1370.17 M292.083 1366.46 Q297.893 1366.46 300.949 1371.07 Q304.028 1375.65 304.028 1384.4 Q304.028 1393.13 300.949 1397.74 Q297.893 1402.32 292.083 1402.32 Q286.273 1402.32 283.194 1397.74 Q280.139 1393.13 280.139 1384.4 Q280.139 1375.65 283.194 1371.07 Q286.273 1366.46 292.083 1366.46 Z" fill="#000000" fill-rule="nonzero" fill-opacity="1" /><path clip-path="url(#clip520)" d="M127.2 1055.17 Q123.589 1055.17 121.76 1058.73 Q119.955 1062.27 119.955 1069.4 Q119.955 1076.51 121.76 1080.07 Q123.589 1083.62 127.2 1083.62 Q130.834 1083.62 132.64 1080.07 Q134.468 1076.51 134.468 1069.4 Q134.468 1062.27 132.64 1058.73 Q130.834 1055.17 127.2 1055.17 M127.2 1051.46 Q133.01 1051.46 136.066 1056.07 Q139.144 1060.65 139.144 1069.4 Q139.144 1078.13 136.066 1082.74 Q133.01 1087.32 127.2 1087.32 Q121.39 1087.32 118.311 1082.74 Q115.256 1078.13 115.256 1069.4 Q115.256 1060.65 118.311 1056.07 Q121.39 1051.46 127.2 1051.46 Z" fill="#000000" fill-rule="nonzero" fill-opacity="1" /><path clip-path="url(#clip520)" d="M147.362 1080.77 L152.246 1080.77 L152.246 1086.65 L147.362 1086.65 L147.362 1080.77 Z" fill="#000000" fill-rule="nonzero" fill-opacity="1" /><path clip-path="url(#clip520)" d="M172.431 1055.17 Q168.82 1055.17 166.991 1058.73 Q165.186 1062.27 165.186 1069.4 Q165.186 1076.51 166.991 1080.07 Q168.82 1083.62 172.431 1083.62 Q176.065 1083.62 177.871 1080.07 Q179.7 1076.51 179.7 1069.4 Q179.7 1062.27 177.871 1058.73 Q176.065 1055.17 172.431 1055.17 M172.431 1051.46 Q178.241 1051.46 181.297 1056.07 Q184.376 1060.65 184.376 1069.4 Q184.376 1078.13 181.297 1082.74 Q178.241 1087.32 172.431 1087.32 Q166.621 1087.32 163.542 1082.74 Q160.487 1078.13 160.487 1069.4 Q160.487 1060.65 163.542 1056.07 Q166.621 1051.46 172.431 1051.46 Z" fill="#000000" fill-rule="nonzero" fill-opacity="1" /><path clip-path="url(#clip520)" d="M202.593 1055.17 Q198.982 1055.17 197.153 1058.73 Q195.348 1062.27 195.348 1069.4 Q195.348 1076.51 197.153 1080.07 Q198.982 1083.62 202.593 1083.62 Q206.227 1083.62 208.033 1080.07 Q209.861 1076.51 209.861 1069.4 Q209.861 1062.27 208.033 1058.73 Q206.227 1055.17 202.593 1055.17 M202.593 1051.46 Q208.403 1051.46 211.459 1056.07 Q214.537 1060.65 214.537 1069.4 Q214.537 1078.13 211.459 1082.74 Q208.403 1087.32 202.593 1087.32 Q196.783 1087.32 193.704 1082.74 Q190.649 1078.13 190.649 1069.4 Q190.649 1060.65 193.704 1056.07 Q196.783 1051.46 202.593 1051.46 Z" fill="#000000" fill-rule="nonzero" fill-opacity="1" /><path clip-path="url(#clip520)" d="M232.755 1055.17 Q229.144 1055.17 227.315 1058.73 Q225.51 1062.27 225.51 1069.4 Q225.51 1076.51 227.315 1080.07 Q229.144 1083.62 232.755 1083.62 Q236.389 1083.62 238.195 1080.07 Q240.023 1076.51 240.023 1069.4 Q240.023 1062.27 238.195 1058.73 Q236.389 1055.17 232.755 1055.17 M232.755 1051.46 Q238.565 1051.46 241.621 1056.07 Q244.699 1060.65 244.699 1069.4 Q244.699 1078.13 241.621 1082.74 Q238.565 1087.32 232.755 1087.32 Q226.945 1087.32 223.866 1082.74 Q220.811 1078.13 220.811 1069.4 Q220.811 1060.65 223.866 1056.07 Q226.945 1051.46 232.755 1051.46 Z" fill="#000000" fill-rule="nonzero" fill-opacity="1" /><path clip-path="url(#clip520)" d="M256.945 1082.71 L273.264 1082.71 L273.264 1086.65 L251.32 1086.65 L251.32 1082.71 Q253.982 1079.96 258.565 1075.33 Q263.171 1070.68 264.352 1069.33 Q266.597 1066.81 267.477 1065.07 Q268.38 1063.32 268.38 1061.63 Q268.38 1058.87 266.435 1057.13 Q264.514 1055.4 261.412 1055.4 Q259.213 1055.4 256.759 1056.16 Q254.329 1056.93 251.551 1058.48 L251.551 1053.76 Q254.375 1052.62 256.829 1052.04 Q259.283 1051.46 261.32 1051.46 Q266.69 1051.46 269.884 1054.15 Q273.079 1056.83 273.079 1061.32 Q273.079 1063.45 272.269 1065.38 Q271.482 1067.27 269.375 1069.87 Q268.796 1070.54 265.695 1073.76 Q262.593 1076.95 256.945 1082.71 Z" fill="#000000" fill-rule="nonzero" fill-opacity="1" /><path clip-path="url(#clip520)" d="M283.125 1052.09 L301.481 1052.09 L301.481 1056.02 L287.407 1056.02 L287.407 1064.5 Q288.426 1064.15 289.444 1063.99 Q290.463 1063.8 291.481 1063.8 Q297.268 1063.8 300.648 1066.97 Q304.028 1070.14 304.028 1075.56 Q304.028 1081.14 300.555 1084.24 Q297.083 1087.32 290.764 1087.32 Q288.588 1087.32 286.319 1086.95 Q284.074 1086.58 281.667 1085.84 L281.667 1081.14 Q283.75 1082.27 285.972 1082.83 Q288.194 1083.38 290.671 1083.38 Q294.676 1083.38 297.014 1081.28 Q299.352 1079.17 299.352 1075.56 Q299.352 1071.95 297.014 1069.84 Q294.676 1067.74 290.671 1067.74 Q288.796 1067.74 286.921 1068.15 Q285.069 1068.57 283.125 1069.45 L283.125 1052.09 Z" fill="#000000" fill-rule="nonzero" fill-opacity="1" /><path clip-path="url(#clip520)" d="M126.205 740.168 Q122.593 740.168 120.765 743.733 Q118.959 747.274 118.959 754.404 Q118.959 761.511 120.765 765.075 Q122.593 768.617 126.205 768.617 Q129.839 768.617 131.644 765.075 Q133.473 761.511 133.473 754.404 Q133.473 747.274 131.644 743.733 Q129.839 740.168 126.205 740.168 M126.205 736.464 Q132.015 736.464 135.07 741.071 Q138.149 745.654 138.149 754.404 Q138.149 763.131 135.07 767.737 Q132.015 772.321 126.205 772.321 Q120.394 772.321 117.316 767.737 Q114.26 763.131 114.26 754.404 Q114.26 745.654 117.316 741.071 Q120.394 736.464 126.205 736.464 Z" fill="#000000" fill-rule="nonzero" fill-opacity="1" /><path clip-path="url(#clip520)" d="M146.366 765.77 L151.251 765.77 L151.251 771.649 L146.366 771.649 L146.366 765.77 Z" fill="#000000" fill-rule="nonzero" fill-opacity="1" /><path clip-path="url(#clip520)" d="M171.436 740.168 Q167.825 740.168 165.996 743.733 Q164.19 747.274 164.19 754.404 Q164.19 761.511 165.996 765.075 Q167.825 768.617 171.436 768.617 Q175.07 768.617 176.876 765.075 Q178.704 761.511 178.704 754.404 Q178.704 747.274 176.876 743.733 Q175.07 740.168 171.436 740.168 M171.436 736.464 Q177.246 736.464 180.301 741.071 Q183.38 745.654 183.38 754.404 Q183.38 763.131 180.301 767.737 Q177.246 772.321 171.436 772.321 Q165.626 772.321 162.547 767.737 Q159.491 763.131 159.491 754.404 Q159.491 745.654 162.547 741.071 Q165.626 736.464 171.436 736.464 Z" fill="#000000" fill-rule="nonzero" fill-opacity="1" /><path clip-path="url(#clip520)" d="M201.598 740.168 Q197.987 740.168 196.158 743.733 Q194.352 747.274 194.352 754.404 Q194.352 761.511 196.158 765.075 Q197.987 768.617 201.598 768.617 Q205.232 768.617 207.037 765.075 Q208.866 761.511 208.866 754.404 Q208.866 747.274 207.037 743.733 Q205.232 740.168 201.598 740.168 M201.598 736.464 Q207.408 736.464 210.463 741.071 Q213.542 745.654 213.542 754.404 Q213.542 763.131 210.463 767.737 Q207.408 772.321 201.598 772.321 Q195.787 772.321 192.709 767.737 Q189.653 763.131 189.653 754.404 Q189.653 745.654 192.709 741.071 Q195.787 736.464 201.598 736.464 Z" fill="#000000" fill-rule="nonzero" fill-opacity="1" /><path clip-path="url(#clip520)" d="M231.76 740.168 Q228.148 740.168 226.32 743.733 Q224.514 747.274 224.514 754.404 Q224.514 761.511 226.32 765.075 Q228.148 768.617 231.76 768.617 Q235.394 768.617 237.199 765.075 Q239.028 761.511 239.028 754.404 Q239.028 747.274 237.199 743.733 Q235.394 740.168 231.76 740.168 M231.76 736.464 Q237.57 736.464 240.625 741.071 Q243.704 745.654 243.704 754.404 Q243.704 763.131 240.625 767.737 Q237.57 772.321 231.76 772.321 Q225.949 772.321 222.871 767.737 Q219.815 763.131 219.815 754.404 Q219.815 745.654 222.871 741.071 Q225.949 736.464 231.76 736.464 Z" fill="#000000" fill-rule="nonzero" fill-opacity="1" /><path clip-path="url(#clip520)" d="M251.968 737.089 L270.324 737.089 L270.324 741.025 L256.25 741.025 L256.25 749.497 Q257.269 749.149 258.287 748.987 Q259.306 748.802 260.324 748.802 Q266.111 748.802 269.491 751.974 Q272.87 755.145 272.87 760.561 Q272.87 766.14 269.398 769.242 Q265.926 772.321 259.607 772.321 Q257.431 772.321 255.162 771.95 Q252.917 771.58 250.509 770.839 L250.509 766.14 Q252.593 767.274 254.815 767.83 Q257.037 768.385 259.514 768.385 Q263.519 768.385 265.857 766.279 Q268.195 764.173 268.195 760.561 Q268.195 756.95 265.857 754.844 Q263.519 752.737 259.514 752.737 Q257.639 752.737 255.764 753.154 Q253.912 753.571 251.968 754.45 L251.968 737.089 Z" fill="#000000" fill-rule="nonzero" fill-opacity="1" /><path clip-path="url(#clip520)" d="M292.083 740.168 Q288.472 740.168 286.643 743.733 Q284.838 747.274 284.838 754.404 Q284.838 761.511 286.643 765.075 Q288.472 768.617 292.083 768.617 Q295.718 768.617 297.523 765.075 Q299.352 761.511 299.352 754.404 Q299.352 747.274 297.523 743.733 Q295.718 740.168 292.083 740.168 M292.083 736.464 Q297.893 736.464 300.949 741.071 Q304.028 745.654 304.028 754.404 Q304.028 763.131 300.949 767.737 Q297.893 772.321 292.083 772.321 Q286.273 772.321 283.194 767.737 Q280.139 763.131 280.139 754.404 Q280.139 745.654 283.194 741.071 Q286.273 736.464 292.083 736.464 Z" fill="#000000" fill-rule="nonzero" fill-opacity="1" /><path clip-path="url(#clip520)" d="M127.2 425.169 Q123.589 425.169 121.76 428.734 Q119.955 432.275 119.955 439.405 Q119.955 446.511 121.76 450.076 Q123.589 453.618 127.2 453.618 Q130.834 453.618 132.64 450.076 Q134.468 446.511 134.468 439.405 Q134.468 432.275 132.64 428.734 Q130.834 425.169 127.2 425.169 M127.2 421.465 Q133.01 421.465 136.066 426.072 Q139.144 430.655 139.144 439.405 Q139.144 448.132 136.066 452.738 Q133.01 457.321 127.2 457.321 Q121.39 457.321 118.311 452.738 Q115.256 448.132 115.256 439.405 Q115.256 430.655 118.311 426.072 Q121.39 421.465 127.2 421.465 Z" fill="#000000" fill-rule="nonzero" fill-opacity="1" /><path clip-path="url(#clip520)" d="M147.362 450.771 L152.246 450.771 L152.246 456.65 L147.362 456.65 L147.362 450.771 Z" fill="#000000" fill-rule="nonzero" fill-opacity="1" /><path clip-path="url(#clip520)" d="M172.431 425.169 Q168.82 425.169 166.991 428.734 Q165.186 432.275 165.186 439.405 Q165.186 446.511 166.991 450.076 Q168.82 453.618 172.431 453.618 Q176.065 453.618 177.871 450.076 Q179.7 446.511 179.7 439.405 Q179.7 432.275 177.871 428.734 Q176.065 425.169 172.431 425.169 M172.431 421.465 Q178.241 421.465 181.297 426.072 Q184.376 430.655 184.376 439.405 Q184.376 448.132 181.297 452.738 Q178.241 457.321 172.431 457.321 Q166.621 457.321 163.542 452.738 Q160.487 448.132 160.487 439.405 Q160.487 430.655 163.542 426.072 Q166.621 421.465 172.431 421.465 Z" fill="#000000" fill-rule="nonzero" fill-opacity="1" /><path clip-path="url(#clip520)" d="M202.593 425.169 Q198.982 425.169 197.153 428.734 Q195.348 432.275 195.348 439.405 Q195.348 446.511 197.153 450.076 Q198.982 453.618 202.593 453.618 Q206.227 453.618 208.033 450.076 Q209.861 446.511 209.861 439.405 Q209.861 432.275 208.033 428.734 Q206.227 425.169 202.593 425.169 M202.593 421.465 Q208.403 421.465 211.459 426.072 Q214.537 430.655 214.537 439.405 Q214.537 448.132 211.459 452.738 Q208.403 457.321 202.593 457.321 Q196.783 457.321 193.704 452.738 Q190.649 448.132 190.649 439.405 Q190.649 430.655 193.704 426.072 Q196.783 421.465 202.593 421.465 Z" fill="#000000" fill-rule="nonzero" fill-opacity="1" /><path clip-path="url(#clip520)" d="M232.755 425.169 Q229.144 425.169 227.315 428.734 Q225.51 432.275 225.51 439.405 Q225.51 446.511 227.315 450.076 Q229.144 453.618 232.755 453.618 Q236.389 453.618 238.195 450.076 Q240.023 446.511 240.023 439.405 Q240.023 432.275 238.195 428.734 Q236.389 425.169 232.755 425.169 M232.755 421.465 Q238.565 421.465 241.621 426.072 Q244.699 430.655 244.699 439.405 Q244.699 448.132 241.621 452.738 Q238.565 457.321 232.755 457.321 Q226.945 457.321 223.866 452.738 Q220.811 448.132 220.811 439.405 Q220.811 430.655 223.866 426.072 Q226.945 421.465 232.755 421.465 Z" fill="#000000" fill-rule="nonzero" fill-opacity="1" /><path clip-path="url(#clip520)" d="M251.736 422.09 L273.958 422.09 L273.958 424.081 L261.412 456.65 L256.528 456.65 L268.333 426.025 L251.736 426.025 L251.736 422.09 Z" fill="#000000" fill-rule="nonzero" fill-opacity="1" /><path clip-path="url(#clip520)" d="M283.125 422.09 L301.481 422.09 L301.481 426.025 L287.407 426.025 L287.407 434.497 Q288.426 434.15 289.444 433.988 Q290.463 433.803 291.481 433.803 Q297.268 433.803 300.648 436.974 Q304.028 440.146 304.028 445.562 Q304.028 451.141 300.555 454.243 Q297.083 457.321 290.764 457.321 Q288.588 457.321 286.319 456.951 Q284.074 456.581 281.667 455.84 L281.667 451.141 Q283.75 452.275 285.972 452.831 Q288.194 453.386 290.671 453.386 Q294.676 453.386 297.014 451.28 Q299.352 449.173 299.352 445.562 Q299.352 441.951 297.014 439.845 Q294.676 437.738 290.671 437.738 Q288.796 437.738 286.921 438.155 Q285.069 438.572 283.125 439.451 L283.125 422.09 Z" fill="#000000" fill-rule="nonzero" fill-opacity="1" /><path clip-path="url(#clip520)" d="M126.205 110.17 Q122.593 110.17 120.765 113.734 Q118.959 117.276 118.959 124.406 Q118.959 131.512 120.765 135.077 Q122.593 138.619 126.205 138.619 Q129.839 138.619 131.644 135.077 Q133.473 131.512 133.473 124.406 Q133.473 117.276 131.644 113.734 Q129.839 110.17 126.205 110.17 M126.205 106.466 Q132.015 106.466 135.07 111.072 Q138.149 115.656 138.149 124.406 Q138.149 133.132 135.07 137.739 Q132.015 142.322 126.205 142.322 Q120.394 142.322 117.316 137.739 Q114.26 133.132 114.26 124.406 Q114.26 115.656 117.316 111.072 Q120.394 106.466 126.205 106.466 Z" fill="#000000" fill-rule="nonzero" fill-opacity="1" /><path clip-path="url(#clip520)" d="M146.366 135.771 L151.251 135.771 L151.251 141.651 L146.366 141.651 L146.366 135.771 Z" fill="#000000" fill-rule="nonzero" fill-opacity="1" /><path clip-path="url(#clip520)" d="M171.436 110.17 Q167.825 110.17 165.996 113.734 Q164.19 117.276 164.19 124.406 Q164.19 131.512 165.996 135.077 Q167.825 138.619 171.436 138.619 Q175.07 138.619 176.876 135.077 Q178.704 131.512 178.704 124.406 Q178.704 117.276 176.876 113.734 Q175.07 110.17 171.436 110.17 M171.436 106.466 Q177.246 106.466 180.301 111.072 Q183.38 115.656 183.38 124.406 Q183.38 133.132 180.301 137.739 Q177.246 142.322 171.436 142.322 Q165.626 142.322 162.547 137.739 Q159.491 133.132 159.491 124.406 Q159.491 115.656 162.547 111.072 Q165.626 106.466 171.436 106.466 Z" fill="#000000" fill-rule="nonzero" fill-opacity="1" /><path clip-path="url(#clip520)" d="M201.598 110.17 Q197.987 110.17 196.158 113.734 Q194.352 117.276 194.352 124.406 Q194.352 131.512 196.158 135.077 Q197.987 138.619 201.598 138.619 Q205.232 138.619 207.037 135.077 Q208.866 131.512 208.866 124.406 Q208.866 117.276 207.037 113.734 Q205.232 110.17 201.598 110.17 M201.598 106.466 Q207.408 106.466 210.463 111.072 Q213.542 115.656 213.542 124.406 Q213.542 133.132 210.463 137.739 Q207.408 142.322 201.598 142.322 Q195.787 142.322 192.709 137.739 Q189.653 133.132 189.653 124.406 Q189.653 115.656 192.709 111.072 Q195.787 106.466 201.598 106.466 Z" fill="#000000" fill-rule="nonzero" fill-opacity="1" /><path clip-path="url(#clip520)" d="M222.57 137.716 L230.209 137.716 L230.209 111.35 L221.898 113.017 L221.898 108.758 L230.162 107.091 L234.838 107.091 L234.838 137.716 L242.477 137.716 L242.477 141.651 L222.57 141.651 L222.57 137.716 Z" fill="#000000" fill-rule="nonzero" fill-opacity="1" /><path clip-path="url(#clip520)" d="M261.921 110.17 Q258.31 110.17 256.482 113.734 Q254.676 117.276 254.676 124.406 Q254.676 131.512 256.482 135.077 Q258.31 138.619 261.921 138.619 Q265.556 138.619 267.361 135.077 Q269.19 131.512 269.19 124.406 Q269.19 117.276 267.361 113.734 Q265.556 110.17 261.921 110.17 M261.921 106.466 Q267.732 106.466 270.787 111.072 Q273.866 115.656 273.866 124.406 Q273.866 133.132 270.787 137.739 Q267.732 142.322 261.921 142.322 Q256.111 142.322 253.033 137.739 Q249.977 133.132 249.977 124.406 Q249.977 115.656 253.033 111.072 Q256.111 106.466 261.921 106.466 Z" fill="#000000" fill-rule="nonzero" fill-opacity="1" /><path clip-path="url(#clip520)" d="M292.083 110.17 Q288.472 110.17 286.643 113.734 Q284.838 117.276 284.838 124.406 Q284.838 131.512 286.643 135.077 Q288.472 138.619 292.083 138.619 Q295.718 138.619 297.523 135.077 Q299.352 131.512 299.352 124.406 Q299.352 117.276 297.523 113.734 Q295.718 110.17 292.083 110.17 M292.083 106.466 Q297.893 106.466 300.949 111.072 Q304.028 115.656 304.028 124.406 Q304.028 133.132 300.949 137.739 Q297.893 142.322 292.083 142.322 Q286.273 142.322 283.194 137.739 Q280.139 133.132 280.139 124.406 Q280.139 115.656 283.194 111.072 Q286.273 106.466 292.083 106.466 Z" fill="#000000" fill-rule="nonzero" fill-opacity="1" /><path clip-path="url(#clip520)" d="M16.4842 829.058 L16.4842 799.012 L21.895 799.012 L21.895 822.629 L35.9632 822.629 L35.9632 799.999 L41.3741 799.999 L41.3741 822.629 L58.5933 822.629 L58.5933 798.439 L64.0042 798.439 L64.0042 829.058 L16.4842 829.058 Z" fill="#000000" fill-rule="nonzero" fill-opacity="1" /><path clip-path="url(#clip520)" d="M33.8307 767.47 Q33.2578 768.457 33.0032 769.635 Q32.7167 770.78 32.7167 772.181 Q32.7167 777.146 35.9632 779.82 Q39.1779 782.461 45.2253 782.461 L64.0042 782.461 L64.0042 788.35 L28.3562 788.35 L28.3562 782.461 L33.8944 782.461 Q30.6479 780.615 29.0883 777.655 Q27.4968 774.695 27.4968 770.462 Q27.4968 769.857 27.5923 769.125 Q27.656 768.393 27.8151 767.502 L33.8307 767.47 Z" fill="#000000" fill-rule="nonzero" fill-opacity="1" /><path clip-path="url(#clip520)" d="M33.8307 741.816 Q33.2578 742.803 33.0032 743.981 Q32.7167 745.127 32.7167 746.527 Q32.7167 751.492 35.9632 754.166 Q39.1779 756.808 45.2253 756.808 L64.0042 756.808 L64.0042 762.696 L28.3562 762.696 L28.3562 756.808 L33.8944 756.808 Q30.6479 754.962 29.0883 752.002 Q27.4968 749.041 27.4968 744.808 Q27.4968 744.204 27.5923 743.471 Q27.656 742.739 27.8151 741.848 L33.8307 741.816 Z" fill="#000000" fill-rule="nonzero" fill-opacity="1" /><path clip-path="url(#clip520)" d="M32.4621 723.292 Q32.4621 728.003 36.1542 730.74 Q39.8145 733.477 46.212 733.477 Q52.6095 733.477 56.3017 730.772 Q59.9619 728.035 59.9619 723.292 Q59.9619 718.613 56.2698 715.876 Q52.5777 713.139 46.212 713.139 Q39.8781 713.139 36.186 715.876 Q32.4621 718.613 32.4621 723.292 M27.4968 723.292 Q27.4968 715.653 32.4621 711.293 Q37.4273 706.932 46.212 706.932 Q54.9649 706.932 59.9619 711.293 Q64.9272 715.653 64.9272 723.292 Q64.9272 730.963 59.9619 735.323 Q54.9649 739.652 46.212 739.652 Q37.4273 739.652 32.4621 735.323 Q27.4968 730.963 27.4968 723.292 Z" fill="#000000" fill-rule="nonzero" fill-opacity="1" /><path clip-path="url(#clip520)" d="M33.8307 676.568 Q33.2578 677.555 33.0032 678.732 Q32.7167 679.878 32.7167 681.279 Q32.7167 686.244 35.9632 688.917 Q39.1779 691.559 45.2253 691.559 L64.0042 691.559 L64.0042 697.447 L28.3562 697.447 L28.3562 691.559 L33.8944 691.559 Q30.6479 689.713 29.0883 686.753 Q27.4968 683.793 27.4968 679.56 Q27.4968 678.955 27.5923 678.223 Q27.656 677.491 27.8151 676.6 L33.8307 676.568 Z" fill="#000000" fill-rule="nonzero" fill-opacity="1" /><path clip-path="url(#clip520)" d="M44.7161 641.366 L47.5806 641.366 L47.5806 668.292 Q53.6281 667.911 56.8109 664.664 Q59.9619 661.386 59.9619 655.561 Q59.9619 652.187 59.1344 649.036 Q58.3069 645.853 56.6518 642.734 L62.1899 642.734 Q63.5267 645.885 64.227 649.195 Q64.9272 652.506 64.9272 655.911 Q64.9272 664.441 59.9619 669.438 Q54.9967 674.404 46.5303 674.404 Q37.7774 674.404 32.6531 669.693 Q27.4968 664.95 27.4968 656.93 Q27.4968 649.736 32.1438 645.567 Q36.7589 641.366 44.7161 641.366 M42.9973 647.222 Q38.1912 647.286 35.3266 649.927 Q32.4621 652.537 32.4621 656.866 Q32.4621 661.768 35.2312 664.728 Q38.0002 667.656 43.0292 668.102 L42.9973 647.222 Z" fill="#000000" fill-rule="nonzero" fill-opacity="1" /><polyline clip-path="url(#clip522)" style="stroke:#009af9; stroke-linecap:round; stroke-linejoin:round; stroke-width:4; stroke-opacity:1; fill:none" points="396.992,86.1857 416.171,1060.35 473.711,1332.55 569.61,1371.41 761.408,1381.13 1336.8,1383.85 2295.79,1384.24 "/>
<path clip-path="url(#clip520)" d="M2031.96 196.789 L2285.66 196.789 L2285.66 93.1086 L2031.96 93.1086  Z" fill="#ffffff" fill-rule="evenodd" fill-opacity="1"/>
<polyline clip-path="url(#clip520)" style="stroke:#000000; stroke-linecap:round; stroke-linejoin:round; stroke-width:4; stroke-opacity:1; fill:none" points="2031.96,196.789 2285.66,196.789 2285.66,93.1086 2031.96,93.1086 2031.96,196.789 "/>
<polyline clip-path="url(#clip520)" style="stroke:#009af9; stroke-linecap:round; stroke-linejoin:round; stroke-width:4; stroke-opacity:1; fill:none" points="2054.33,144.949 2188.51,144.949 "/>
<path clip-path="url(#clip520)" d="M2224.71 164.636 Q2222.91 169.266 2221.2 170.678 Q2219.48 172.09 2216.61 172.09 L2213.21 172.09 L2213.21 168.525 L2215.71 168.525 Q2217.47 168.525 2218.44 167.692 Q2219.41 166.858 2220.59 163.756 L2221.36 161.812 L2210.87 136.303 L2215.38 136.303 L2223.49 156.581 L2231.59 136.303 L2236.1 136.303 L2224.71 164.636 Z" fill="#000000" fill-rule="nonzero" fill-opacity="1" /><path clip-path="url(#clip520)" d="M2243.39 158.293 L2251.03 158.293 L2251.03 131.928 L2242.72 133.595 L2242.72 129.335 L2250.99 127.669 L2255.66 127.669 L2255.66 158.293 L2263.3 158.293 L2263.3 162.229 L2243.39 162.229 L2243.39 158.293 Z" fill="#000000" fill-rule="nonzero" fill-opacity="1" /></svg>
