<?xml version="1.0" encoding="utf-8"?>
<svg xmlns="http://www.w3.org/2000/svg" xmlns:xlink="http://www.w3.org/1999/xlink" width="600" height="400" viewBox="0 0 2400 1600">
<defs>
  <clipPath id="clip290">
    <rect x="0" y="0" width="2400" height="1600"/>
  </clipPath>
</defs>
<path clip-path="url(#clip290)" d="M0 1600 L2400 1600 L2400 0 L0 0  Z" fill="#ffffff" fill-rule="evenodd" fill-opacity="1"/>
<defs>
  <clipPath id="clip291">
    <rect x="480" y="0" width="1681" height="1600"/>
  </clipPath>
</defs>
<path clip-path="url(#clip290)" d="M280.19 1423.18 L2352.76 1423.18 L2352.76 47.2441 L280.19 47.2441  Z" fill="#ffffff" fill-rule="evenodd" fill-opacity="1"/>
<defs>
  <clipPath id="clip292">
    <rect x="280" y="47" width="2074" height="1377"/>
  </clipPath>
</defs>
<polyline clip-path="url(#clip292)" style="stroke:#000000; stroke-linecap:round; stroke-linejoin:round; stroke-width:2; stroke-opacity:0.1; fill:none" points="319.098,1423.18 319.098,47.2441 "/>
<polyline clip-path="url(#clip292)" style="stroke:#000000; stroke-linecap:round; stroke-linejoin:round; stroke-width:2; stroke-opacity:0.1; fill:none" points="812.848,1423.18 812.848,47.2441 "/>
<polyline clip-path="url(#clip292)" style="stroke:#000000; stroke-linecap:round; stroke-linejoin:round; stroke-width:2; stroke-opacity:0.1; fill:none" points="1306.6,1423.18 1306.6,47.2441 "/>
<polyline clip-path="url(#clip292)" style="stroke:#000000; stroke-linecap:round; stroke-linejoin:round; stroke-width:2; stroke-opacity:0.1; fill:none" points="1800.35,1423.18 1800.35,47.2441 "/>
<polyline clip-path="url(#clip292)" style="stroke:#000000; stroke-linecap:round; stroke-linejoin:round; stroke-width:2; stroke-opacity:0.1; fill:none" points="2294.1,1423.18 2294.1,47.2441 "/>
<polyline clip-path="url(#clip290)" style="stroke:#000000; stroke-linecap:round; stroke-linejoin:round; stroke-width:4; stroke-opacity:1; fill:none" points="280.19,1423.18 2352.76,1423.18 "/>
<polyline clip-path="url(#clip290)" style="stroke:#000000; stroke-linecap:round; stroke-linejoin:round; stroke-width:4; stroke-opacity:1; fill:none" points="319.098,1423.18 319.098,1404.28 "/>
<polyline clip-path="url(#clip290)" style="stroke:#000000; stroke-linecap:round; stroke-linejoin:round; stroke-width:4; stroke-opacity:1; fill:none" points="812.848,1423.18 812.848,1404.28 "/>
<polyline clip-path="url(#clip290)" style="stroke:#000000; stroke-linecap:round; stroke-linejoin:round; stroke-width:4; stroke-opacity:1; fill:none" points="1306.6,1423.18 1306.6,1404.28 "/>
<polyline clip-path="url(#clip290)" style="stroke:#000000; stroke-linecap:round; stroke-linejoin:round; stroke-width:4; stroke-opacity:1; fill:none" points="1800.35,1423.18 1800.35,1404.28 "/>
<polyline clip-path="url(#clip290)" style="stroke:#000000; stroke-linecap:round; stroke-linejoin:round; stroke-width:4; stroke-opacity:1; fill:none" points="2294.1,1423.18 2294.1,1404.28 "/>
<path clip-path="url(#clip290)" d="M319.098 1454.1 Q315.486 1454.1 313.658 1457.66 Q311.852 1461.2 311.852 1468.33 Q311.852 1475.44 313.658 1479.01 Q315.486 1482.55 319.098 1482.55 Q322.732 1482.55 324.537 1479.01 Q326.366 1475.44 326.366 1468.33 Q326.366 1461.2 324.537 1457.66 Q322.732 1454.1 319.098 1454.1 M319.098 1450.39 Q324.908 1450.39 327.963 1455 Q331.042 1459.58 331.042 1468.33 Q331.042 1477.06 327.963 1481.67 Q324.908 1486.25 319.098 1486.25 Q313.287 1486.25 310.209 1481.67 Q307.153 1477.06 307.153 1468.33 Q307.153 1459.58 310.209 1455 Q313.287 1450.39 319.098 1450.39 Z" fill="#000000" fill-rule="nonzero" fill-opacity="1" /><path clip-path="url(#clip290)" d="M776.54 1481.64 L792.859 1481.64 L792.859 1485.58 L770.915 1485.58 L770.915 1481.64 Q773.577 1478.89 778.16 1474.26 Q782.767 1469.61 783.947 1468.27 Q786.193 1465.74 787.072 1464.01 Q787.975 1462.25 787.975 1460.56 Q787.975 1457.8 786.031 1456.07 Q784.109 1454.33 781.008 1454.33 Q778.809 1454.33 776.355 1455.09 Q773.924 1455.86 771.147 1457.41 L771.147 1452.69 Q773.971 1451.55 776.424 1450.97 Q778.878 1450.39 780.915 1450.39 Q786.285 1450.39 789.48 1453.08 Q792.674 1455.77 792.674 1460.26 Q792.674 1462.39 791.864 1464.31 Q791.077 1466.2 788.971 1468.8 Q788.392 1469.47 785.29 1472.69 Q782.188 1475.88 776.54 1481.64 Z" fill="#000000" fill-rule="nonzero" fill-opacity="1" /><path clip-path="url(#clip290)" d="M802.72 1451.02 L821.077 1451.02 L821.077 1454.96 L807.003 1454.96 L807.003 1463.43 Q808.021 1463.08 809.04 1462.92 Q810.058 1462.73 811.077 1462.73 Q816.864 1462.73 820.244 1465.9 Q823.623 1469.08 823.623 1474.49 Q823.623 1480.07 820.151 1483.17 Q816.679 1486.25 810.359 1486.25 Q808.183 1486.25 805.915 1485.88 Q803.67 1485.51 801.262 1484.77 L801.262 1480.07 Q803.345 1481.2 805.568 1481.76 Q807.79 1482.32 810.267 1482.32 Q814.271 1482.32 816.609 1480.21 Q818.947 1478.1 818.947 1474.49 Q818.947 1470.88 816.609 1468.77 Q814.271 1466.67 810.267 1466.67 Q808.392 1466.67 806.517 1467.08 Q804.665 1467.5 802.72 1468.38 L802.72 1451.02 Z" fill="#000000" fill-rule="nonzero" fill-opacity="1" /><path clip-path="url(#clip290)" d="M842.836 1454.1 Q839.225 1454.1 837.396 1457.66 Q835.591 1461.2 835.591 1468.33 Q835.591 1475.44 837.396 1479.01 Q839.225 1482.55 842.836 1482.55 Q846.47 1482.55 848.276 1479.01 Q850.104 1475.44 850.104 1468.33 Q850.104 1461.2 848.276 1457.66 Q846.47 1454.1 842.836 1454.1 M842.836 1450.39 Q848.646 1450.39 851.702 1455 Q854.78 1459.58 854.78 1468.33 Q854.78 1477.06 851.702 1481.67 Q848.646 1486.25 842.836 1486.25 Q837.026 1486.25 833.947 1481.67 Q830.892 1477.06 830.892 1468.33 Q830.892 1459.58 833.947 1455 Q837.026 1450.39 842.836 1450.39 Z" fill="#000000" fill-rule="nonzero" fill-opacity="1" /><path clip-path="url(#clip290)" d="M1266.22 1451.02 L1284.57 1451.02 L1284.57 1454.96 L1270.5 1454.96 L1270.5 1463.43 Q1271.52 1463.08 1272.54 1462.92 Q1273.55 1462.73 1274.57 1462.73 Q1280.36 1462.73 1283.74 1465.9 Q1287.12 1469.08 1287.12 1474.49 Q1287.12 1480.07 1283.65 1483.17 Q1280.17 1486.25 1273.86 1486.25 Q1271.68 1486.25 1269.41 1485.88 Q1267.17 1485.51 1264.76 1484.77 L1264.76 1480.07 Q1266.84 1481.2 1269.06 1481.76 Q1271.29 1482.32 1273.76 1482.32 Q1277.77 1482.32 1280.11 1480.21 Q1282.44 1478.1 1282.44 1474.49 Q1282.44 1470.88 1280.11 1468.77 Q1277.77 1466.67 1273.76 1466.67 Q1271.89 1466.67 1270.01 1467.08 Q1268.16 1467.5 1266.22 1468.38 L1266.22 1451.02 Z" fill="#000000" fill-rule="nonzero" fill-opacity="1" /><path clip-path="url(#clip290)" d="M1306.33 1454.1 Q1302.72 1454.1 1300.89 1457.66 Q1299.09 1461.2 1299.09 1468.33 Q1299.09 1475.44 1300.89 1479.01 Q1302.72 1482.55 1306.33 1482.55 Q1309.97 1482.55 1311.77 1479.01 Q1313.6 1475.44 1313.6 1468.33 Q1313.6 1461.2 1311.77 1457.66 Q1309.97 1454.1 1306.33 1454.1 M1306.33 1450.39 Q1312.14 1450.39 1315.2 1455 Q1318.28 1459.58 1318.28 1468.33 Q1318.28 1477.06 1315.2 1481.67 Q1312.14 1486.25 1306.33 1486.25 Q1300.52 1486.25 1297.44 1481.67 Q1294.39 1477.06 1294.39 1468.33 Q1294.39 1459.58 1297.44 1455 Q1300.52 1450.39 1306.33 1450.39 Z" fill="#000000" fill-rule="nonzero" fill-opacity="1" /><path clip-path="url(#clip290)" d="M1336.49 1454.1 Q1332.88 1454.1 1331.05 1457.66 Q1329.25 1461.2 1329.25 1468.33 Q1329.25 1475.44 1331.05 1479.01 Q1332.88 1482.55 1336.49 1482.55 Q1340.13 1482.55 1341.93 1479.01 Q1343.76 1475.44 1343.76 1468.33 Q1343.76 1461.2 1341.93 1457.66 Q1340.13 1454.1 1336.49 1454.1 M1336.49 1450.39 Q1342.3 1450.39 1345.36 1455 Q1348.44 1459.58 1348.44 1468.33 Q1348.44 1477.06 1345.36 1481.67 Q1342.3 1486.25 1336.49 1486.25 Q1330.68 1486.25 1327.6 1481.67 Q1324.55 1477.06 1324.55 1468.33 Q1324.55 1459.58 1327.6 1455 Q1330.68 1450.39 1336.49 1450.39 Z" fill="#000000" fill-rule="nonzero" fill-opacity="1" /><path clip-path="url(#clip290)" d="M1758.62 1451.02 L1780.85 1451.02 L1780.85 1453.01 L1768.3 1485.58 L1763.42 1485.58 L1775.22 1454.96 L1758.62 1454.96 L1758.62 1451.02 Z" fill="#000000" fill-rule="nonzero" fill-opacity="1" /><path clip-path="url(#clip290)" d="M1790.01 1451.02 L1808.37 1451.02 L1808.37 1454.96 L1794.29 1454.96 L1794.29 1463.43 Q1795.31 1463.08 1796.33 1462.92 Q1797.35 1462.73 1798.37 1462.73 Q1804.16 1462.73 1807.54 1465.9 Q1810.92 1469.08 1810.92 1474.49 Q1810.92 1480.07 1807.44 1483.17 Q1803.97 1486.25 1797.65 1486.25 Q1795.48 1486.25 1793.21 1485.88 Q1790.96 1485.51 1788.55 1484.77 L1788.55 1480.07 Q1790.64 1481.2 1792.86 1481.76 Q1795.08 1482.32 1797.56 1482.32 Q1801.56 1482.32 1803.9 1480.21 Q1806.24 1478.1 1806.24 1474.49 Q1806.24 1470.88 1803.9 1468.77 Q1801.56 1466.67 1797.56 1466.67 Q1795.68 1466.67 1793.81 1467.08 Q1791.96 1467.5 1790.01 1468.38 L1790.01 1451.02 Z" fill="#000000" fill-rule="nonzero" fill-opacity="1" /><path clip-path="url(#clip290)" d="M1830.13 1454.1 Q1826.52 1454.1 1824.69 1457.66 Q1822.88 1461.2 1822.88 1468.33 Q1822.88 1475.44 1824.69 1479.01 Q1826.52 1482.55 1830.13 1482.55 Q1833.76 1482.55 1835.57 1479.01 Q1837.4 1475.44 1837.4 1468.33 Q1837.4 1461.2 1835.57 1457.66 Q1833.76 1454.1 1830.13 1454.1 M1830.13 1450.39 Q1835.94 1450.39 1838.99 1455 Q1842.07 1459.58 1842.07 1468.33 Q1842.07 1477.06 1838.99 1481.67 Q1835.94 1486.25 1830.13 1486.25 Q1824.32 1486.25 1821.24 1481.67 Q1818.18 1477.06 1818.18 1468.33 Q1818.18 1459.58 1821.24 1455 Q1824.32 1450.39 1830.13 1450.39 Z" fill="#000000" fill-rule="nonzero" fill-opacity="1" /><path clip-path="url(#clip290)" d="M2238.62 1481.64 L2246.26 1481.64 L2246.26 1455.28 L2237.95 1456.95 L2237.95 1452.69 L2246.22 1451.02 L2250.89 1451.02 L2250.89 1481.64 L2258.53 1481.64 L2258.53 1485.58 L2238.62 1485.58 L2238.62 1481.64 Z" fill="#000000" fill-rule="nonzero" fill-opacity="1" /><path clip-path="url(#clip290)" d="M2277.98 1454.1 Q2274.36 1454.1 2272.54 1457.66 Q2270.73 1461.2 2270.73 1468.33 Q2270.73 1475.44 2272.54 1479.01 Q2274.36 1482.55 2277.98 1482.55 Q2281.61 1482.55 2283.42 1479.01 Q2285.24 1475.44 2285.24 1468.33 Q2285.24 1461.2 2283.42 1457.66 Q2281.61 1454.1 2277.98 1454.1 M2277.98 1450.39 Q2283.79 1450.39 2286.84 1455 Q2289.92 1459.58 2289.92 1468.33 Q2289.92 1477.06 2286.84 1481.67 Q2283.79 1486.25 2277.98 1486.25 Q2272.17 1486.25 2269.09 1481.67 Q2266.03 1477.06 2266.03 1468.33 Q2266.03 1459.58 2269.09 1455 Q2272.17 1450.39 2277.98 1450.39 Z" fill="#000000" fill-rule="nonzero" fill-opacity="1" /><path clip-path="url(#clip290)" d="M2308.14 1454.1 Q2304.53 1454.1 2302.7 1457.66 Q2300.89 1461.2 2300.89 1468.33 Q2300.89 1475.44 2302.7 1479.01 Q2304.53 1482.55 2308.14 1482.55 Q2311.77 1482.55 2313.58 1479.01 Q2315.41 1475.44 2315.41 1468.33 Q2315.41 1461.2 2313.58 1457.66 Q2311.77 1454.1 2308.14 1454.1 M2308.14 1450.39 Q2313.95 1450.39 2317 1455 Q2320.08 1459.58 2320.08 1468.33 Q2320.08 1477.06 2317 1481.67 Q2313.95 1486.25 2308.14 1486.25 Q2302.33 1486.25 2299.25 1481.67 Q2296.19 1477.06 2296.19 1468.33 Q2296.19 1459.58 2299.25 1455 Q2302.33 1450.39 2308.14 1450.39 Z" fill="#000000" fill-rule="nonzero" fill-opacity="1" /><path clip-path="url(#clip290)" d="M2338.3 1454.1 Q2334.69 1454.1 2332.86 1457.66 Q2331.05 1461.2 2331.05 1468.33 Q2331.05 1475.44 2332.86 1479.01 Q2334.69 1482.55 2338.3 1482.55 Q2341.93 1482.55 2343.74 1479.01 Q2345.57 1475.44 2345.57 1468.33 Q2345.57 1461.2 2343.74 1457.66 Q2341.93 1454.1 2338.3 1454.1 M2338.3 1450.39 Q2344.11 1450.39 2347.17 1455 Q2350.24 1459.58 2350.24 1468.33 Q2350.24 1477.06 2347.17 1481.67 Q2344.11 1486.25 2338.3 1486.25 Q2332.49 1486.25 2329.41 1481.67 Q2326.36 1477.06 2326.36 1468.33 Q2326.36 1459.58 2329.41 1455 Q2332.49 1450.39 2338.3 1450.39 Z" fill="#000000" fill-rule="nonzero" fill-opacity="1" /><path clip-path="url(#clip290)" d="M1059.12 1520.52 L1067.78 1520.52 L1088.85 1560.28 L1088.85 1520.52 L1095.09 1520.52 L1095.09 1568.04 L1086.43 1568.04 L1065.36 1528.29 L1065.36 1568.04 L1059.12 1568.04 L1059.12 1520.52 Z" fill="#000000" fill-rule="nonzero" fill-opacity="1" /><path clip-path="url(#clip290)" d="M1107.03 1553.98 L1107.03 1532.4 L1112.88 1532.4 L1112.88 1553.75 Q1112.88 1558.81 1114.86 1561.36 Q1116.83 1563.87 1120.78 1563.87 Q1125.52 1563.87 1128.25 1560.85 Q1131.02 1557.83 1131.02 1552.61 L1131.02 1532.4 L1136.88 1532.4 L1136.88 1568.04 L1131.02 1568.04 L1131.02 1562.57 Q1128.89 1565.82 1126.06 1567.41 Q1123.26 1568.97 1119.53 1568.97 Q1113.39 1568.97 1110.21 1565.15 Q1107.03 1561.33 1107.03 1553.98 M1121.76 1531.54 L1121.76 1531.54 Z" fill="#000000" fill-rule="nonzero" fill-opacity="1" /><path clip-path="url(#clip290)" d="M1176.7 1539.24 Q1178.89 1535.29 1181.95 1533.41 Q1185.01 1531.54 1189.14 1531.54 Q1194.71 1531.54 1197.74 1535.45 Q1200.76 1539.33 1200.76 1546.53 L1200.76 1568.04 L1194.87 1568.04 L1194.87 1546.72 Q1194.87 1541.59 1193.06 1539.11 Q1191.24 1536.63 1187.52 1536.63 Q1182.97 1536.63 1180.33 1539.65 Q1177.68 1542.68 1177.68 1547.9 L1177.68 1568.04 L1171.8 1568.04 L1171.8 1546.72 Q1171.8 1541.56 1169.98 1539.11 Q1168.17 1536.63 1164.38 1536.63 Q1159.89 1536.63 1157.25 1539.68 Q1154.61 1542.71 1154.61 1547.9 L1154.61 1568.04 L1148.72 1568.04 L1148.72 1532.4 L1154.61 1532.4 L1154.61 1537.93 Q1156.61 1534.66 1159.42 1533.1 Q1162.22 1531.54 1166.07 1531.54 Q1169.95 1531.54 1172.66 1533.51 Q1175.39 1535.48 1176.7 1539.24 Z" fill="#000000" fill-rule="nonzero" fill-opacity="1" /><path clip-path="url(#clip290)" d="M1242.93 1548.76 L1242.93 1551.62 L1216.01 1551.62 Q1216.39 1557.67 1219.63 1560.85 Q1222.91 1564 1228.74 1564 Q1232.11 1564 1235.26 1563.17 Q1238.45 1562.35 1241.56 1560.69 L1241.56 1566.23 Q1238.41 1567.57 1235.1 1568.27 Q1231.79 1568.97 1228.39 1568.97 Q1219.86 1568.97 1214.86 1564 Q1209.9 1559.04 1209.9 1550.57 Q1209.9 1541.82 1214.61 1536.69 Q1219.35 1531.54 1227.37 1531.54 Q1234.56 1531.54 1238.73 1536.18 Q1242.93 1540.8 1242.93 1548.76 M1237.08 1547.04 Q1237.01 1542.23 1234.37 1539.37 Q1231.76 1536.5 1227.43 1536.5 Q1222.53 1536.5 1219.57 1539.27 Q1216.64 1542.04 1216.2 1547.07 L1237.08 1547.04 Z" fill="#000000" fill-rule="nonzero" fill-opacity="1" /><path clip-path="url(#clip290)" d="M1273.2 1537.87 Q1272.22 1537.3 1271.04 1537.04 Q1269.89 1536.76 1268.49 1536.76 Q1263.53 1536.76 1260.85 1540 Q1258.21 1543.22 1258.21 1549.27 L1258.21 1568.04 L1252.32 1568.04 L1252.32 1532.4 L1258.21 1532.4 L1258.21 1537.93 Q1260.06 1534.69 1263.02 1533.13 Q1265.98 1531.54 1270.21 1531.54 Q1270.81 1531.54 1271.55 1531.63 Q1272.28 1531.7 1273.17 1531.85 L1273.2 1537.87 Z" fill="#000000" fill-rule="nonzero" fill-opacity="1" /><path clip-path="url(#clip290)" d="M1291.73 1536.5 Q1287.02 1536.5 1284.28 1540.19 Q1281.54 1543.85 1281.54 1550.25 Q1281.54 1556.65 1284.25 1560.34 Q1286.98 1564 1291.73 1564 Q1296.41 1564 1299.14 1560.31 Q1301.88 1556.62 1301.88 1550.25 Q1301.88 1543.92 1299.14 1540.23 Q1296.41 1536.5 1291.73 1536.5 M1291.73 1531.54 Q1299.37 1531.54 1303.73 1536.5 Q1308.09 1541.47 1308.09 1550.25 Q1308.09 1559 1303.73 1564 Q1299.37 1568.97 1291.73 1568.97 Q1284.06 1568.97 1279.7 1564 Q1275.37 1559 1275.37 1550.25 Q1275.37 1541.47 1279.7 1536.5 Q1284.06 1531.54 1291.73 1531.54 Z" fill="#000000" fill-rule="nonzero" fill-opacity="1" /><path clip-path="url(#clip290)" d="M1361.97 1537.81 L1361.97 1518.52 L1367.83 1518.52 L1367.83 1568.04 L1361.97 1568.04 L1361.97 1562.7 Q1360.13 1565.88 1357.29 1567.44 Q1354.49 1568.97 1350.55 1568.97 Q1344.08 1568.97 1340.01 1563.81 Q1335.97 1558.65 1335.97 1550.25 Q1335.97 1541.85 1340.01 1536.69 Q1344.08 1531.54 1350.55 1531.54 Q1354.49 1531.54 1357.29 1533.1 Q1360.13 1534.62 1361.97 1537.81 M1342.02 1550.25 Q1342.02 1556.71 1344.66 1560.4 Q1347.33 1564.07 1351.98 1564.07 Q1356.62 1564.07 1359.3 1560.4 Q1361.97 1556.71 1361.97 1550.25 Q1361.97 1543.79 1359.3 1540.13 Q1356.62 1536.44 1351.98 1536.44 Q1347.33 1536.44 1344.66 1540.13 Q1342.02 1543.79 1342.02 1550.25 Z" fill="#000000" fill-rule="nonzero" fill-opacity="1" /><path clip-path="url(#clip290)" d="M1379.89 1532.4 L1385.75 1532.4 L1385.75 1568.04 L1379.89 1568.04 L1379.89 1532.4 M1379.89 1518.52 L1385.75 1518.52 L1385.75 1525.93 L1379.89 1525.93 L1379.89 1518.52 Z" fill="#000000" fill-rule="nonzero" fill-opacity="1" /><path clip-path="url(#clip290)" d="M1424.39 1562.7 L1424.39 1581.6 L1418.5 1581.6 L1418.5 1532.4 L1424.39 1532.4 L1424.39 1537.81 Q1426.23 1534.62 1429.03 1533.1 Q1431.87 1531.54 1435.78 1531.54 Q1442.28 1531.54 1446.32 1536.69 Q1450.39 1541.85 1450.39 1550.25 Q1450.39 1558.65 1446.32 1563.81 Q1442.28 1568.97 1435.78 1568.97 Q1431.87 1568.97 1429.03 1567.44 Q1426.23 1565.88 1424.39 1562.7 M1444.31 1550.25 Q1444.31 1543.79 1441.64 1540.13 Q1439 1536.44 1434.35 1536.44 Q1429.7 1536.44 1427.03 1540.13 Q1424.39 1543.79 1424.39 1550.25 Q1424.39 1556.71 1427.03 1560.4 Q1429.7 1564.07 1434.35 1564.07 Q1439 1564.07 1441.64 1560.4 Q1444.31 1556.71 1444.31 1550.25 Z" fill="#000000" fill-rule="nonzero" fill-opacity="1" /><path clip-path="url(#clip290)" d="M1476.3 1550.12 Q1469.2 1550.12 1466.46 1551.75 Q1463.73 1553.37 1463.73 1557.29 Q1463.73 1560.4 1465.76 1562.25 Q1467.83 1564.07 1471.37 1564.07 Q1476.24 1564.07 1479.16 1560.63 Q1482.12 1557.16 1482.12 1551.43 L1482.12 1550.12 L1476.3 1550.12 M1487.98 1547.71 L1487.98 1568.04 L1482.12 1568.04 L1482.12 1562.63 Q1480.12 1565.88 1477.13 1567.44 Q1474.14 1568.97 1469.81 1568.97 Q1464.33 1568.97 1461.09 1565.91 Q1457.87 1562.82 1457.87 1557.67 Q1457.87 1551.65 1461.88 1548.6 Q1465.92 1545.54 1473.91 1545.54 L1482.12 1545.54 L1482.12 1544.97 Q1482.12 1540.93 1479.45 1538.73 Q1476.81 1536.5 1472 1536.5 Q1468.95 1536.5 1466.05 1537.23 Q1463.15 1537.97 1460.48 1539.43 L1460.48 1534.02 Q1463.7 1532.78 1466.72 1532.17 Q1469.74 1531.54 1472.61 1531.54 Q1480.34 1531.54 1484.16 1535.55 Q1487.98 1539.56 1487.98 1547.71 Z" fill="#000000" fill-rule="nonzero" fill-opacity="1" /><path clip-path="url(#clip290)" d="M1522.77 1533.45 L1522.77 1538.98 Q1520.29 1537.71 1517.61 1537.07 Q1514.94 1536.44 1512.08 1536.44 Q1507.71 1536.44 1505.52 1537.77 Q1503.35 1539.11 1503.35 1541.79 Q1503.35 1543.82 1504.91 1545 Q1506.47 1546.15 1511.18 1547.2 L1513.19 1547.64 Q1519.43 1548.98 1522.04 1551.43 Q1524.68 1553.85 1524.68 1558.21 Q1524.68 1563.17 1520.73 1566.07 Q1516.82 1568.97 1509.94 1568.97 Q1507.08 1568.97 1503.96 1568.39 Q1500.87 1567.85 1497.43 1566.74 L1497.43 1560.69 Q1500.68 1562.38 1503.83 1563.24 Q1506.98 1564.07 1510.07 1564.07 Q1514.21 1564.07 1516.44 1562.66 Q1518.66 1561.23 1518.66 1558.65 Q1518.66 1556.27 1517.04 1554.99 Q1515.45 1553.72 1510.01 1552.54 L1507.97 1552.07 Q1502.53 1550.92 1500.11 1548.56 Q1497.69 1546.18 1497.69 1542.04 Q1497.69 1537.01 1501.25 1534.27 Q1504.82 1531.54 1511.37 1531.54 Q1514.62 1531.54 1517.49 1532.01 Q1520.35 1532.49 1522.77 1533.45 Z" fill="#000000" fill-rule="nonzero" fill-opacity="1" /><path clip-path="url(#clip290)" d="M1556.73 1533.45 L1556.73 1538.98 Q1554.25 1537.71 1551.57 1537.07 Q1548.9 1536.44 1546.04 1536.44 Q1541.68 1536.44 1539.48 1537.77 Q1537.32 1539.11 1537.32 1541.79 Q1537.32 1543.82 1538.87 1545 Q1540.43 1546.15 1545.15 1547.2 L1547.15 1547.64 Q1553.39 1548.98 1556 1551.43 Q1558.64 1553.85 1558.64 1558.21 Q1558.64 1563.17 1554.69 1566.07 Q1550.78 1568.97 1543.9 1568.97 Q1541.04 1568.97 1537.92 1568.39 Q1534.83 1567.85 1531.4 1566.74 L1531.4 1560.69 Q1534.64 1562.38 1537.79 1563.24 Q1540.94 1564.07 1544.03 1564.07 Q1548.17 1564.07 1550.4 1562.66 Q1552.62 1561.23 1552.62 1558.65 Q1552.62 1556.27 1551 1554.99 Q1549.41 1553.72 1543.97 1552.54 L1541.93 1552.07 Q1536.49 1550.92 1534.07 1548.56 Q1531.65 1546.18 1531.65 1542.04 Q1531.65 1537.01 1535.21 1534.27 Q1538.78 1531.54 1545.34 1531.54 Q1548.58 1531.54 1551.45 1532.01 Q1554.31 1532.49 1556.73 1533.45 Z" fill="#000000" fill-rule="nonzero" fill-opacity="1" /><path clip-path="url(#clip290)" d="M1567.97 1532.4 L1573.82 1532.4 L1573.82 1568.04 L1567.97 1568.04 L1567.97 1532.4 M1567.97 1518.52 L1573.82 1518.52 L1573.82 1525.93 L1567.97 1525.93 L1567.97 1518.52 Z" fill="#000000" fill-rule="nonzero" fill-opacity="1" /><polyline clip-path="url(#clip292)" style="stroke:#000000; stroke-linecap:round; stroke-linejoin:round; stroke-width:2; stroke-opacity:0.1; fill:none" points="280.19,1384.37 2352.76,1384.37 "/>
<polyline clip-path="url(#clip292)" style="stroke:#000000; stroke-linecap:round; stroke-linejoin:round; stroke-width:2; stroke-opacity:0.1; fill:none" points="280.19,1069.6 2352.76,1069.6 "/>
<polyline clip-path="url(#clip292)" style="stroke:#000000; stroke-linecap:round; stroke-linejoin:round; stroke-width:2; stroke-opacity:0.1; fill:none" points="280.19,754.825 2352.76,754.825 "/>
<polyline clip-path="url(#clip292)" style="stroke:#000000; stroke-linecap:round; stroke-linejoin:round; stroke-width:2; stroke-opacity:0.1; fill:none" points="280.19,440.053 2352.76,440.053 "/>
<polyline clip-path="url(#clip292)" style="stroke:#000000; stroke-linecap:round; stroke-linejoin:round; stroke-width:2; stroke-opacity:0.1; fill:none" points="280.19,125.282 2352.76,125.282 "/>
<polyline clip-path="url(#clip290)" style="stroke:#000000; stroke-linecap:round; stroke-linejoin:round; stroke-width:4; stroke-opacity:1; fill:none" points="280.19,1423.18 280.19,47.2441 "/>
<polyline clip-path="url(#clip290)" style="stroke:#000000; stroke-linecap:round; stroke-linejoin:round; stroke-width:4; stroke-opacity:1; fill:none" points="280.19,1384.37 299.088,1384.37 "/>
<polyline clip-path="url(#clip290)" style="stroke:#000000; stroke-linecap:round; stroke-linejoin:round; stroke-width:4; stroke-opacity:1; fill:none" points="280.19,1069.6 299.088,1069.6 "/>
<polyline clip-path="url(#clip290)" style="stroke:#000000; stroke-linecap:round; stroke-linejoin:round; stroke-width:4; stroke-opacity:1; fill:none" points="280.19,754.825 299.088,754.825 "/>
<polyline clip-path="url(#clip290)" style="stroke:#000000; stroke-linecap:round; stroke-linejoin:round; stroke-width:4; stroke-opacity:1; fill:none" points="280.19,440.053 299.088,440.053 "/>
<polyline clip-path="url(#clip290)" style="stroke:#000000; stroke-linecap:round; stroke-linejoin:round; stroke-width:4; stroke-opacity:1; fill:none" points="280.19,125.282 299.088,125.282 "/>
<path clip-path="url(#clip290)" d="M126.691 1370.17 Q123.08 1370.17 121.251 1373.73 Q119.445 1377.27 119.445 1384.4 Q119.445 1391.51 121.251 1395.07 Q123.08 1398.62 126.691 1398.62 Q130.325 1398.62 132.13 1395.07 Q133.959 1391.51 133.959 1384.4 Q133.959 1377.27 132.13 1373.73 Q130.325 1370.17 126.691 1370.17 M126.691 1366.46 Q132.501 1366.46 135.556 1371.07 Q138.635 1375.65 138.635 1384.4 Q138.635 1393.13 135.556 1397.74 Q132.501 1402.32 126.691 1402.32 Q120.88 1402.32 117.802 1397.74 Q114.746 1393.13 114.746 1384.4 Q114.746 1375.65 117.802 1371.07 Q120.88 1366.46 126.691 1366.46 Z" fill="#000000" fill-rule="nonzero" fill-opacity="1" /><path clip-path="url(#clip290)" d="M146.853 1395.77 L151.737 1395.77 L151.737 1401.65 L146.853 1401.65 L146.853 1395.77 Z" fill="#000000" fill-rule="nonzero" fill-opacity="1" /><path clip-path="url(#clip290)" d="M171.922 1370.17 Q168.311 1370.17 166.482 1373.73 Q164.677 1377.27 164.677 1384.4 Q164.677 1391.51 166.482 1395.07 Q168.311 1398.62 171.922 1398.62 Q175.556 1398.62 177.362 1395.07 Q179.19 1391.51 179.19 1384.4 Q179.19 1377.27 177.362 1373.73 Q175.556 1370.17 171.922 1370.17 M171.922 1366.46 Q177.732 1366.46 180.788 1371.07 Q183.866 1375.65 183.866 1384.4 Q183.866 1393.13 180.788 1397.74 Q177.732 1402.32 171.922 1402.32 Q166.112 1402.32 163.033 1397.74 Q159.978 1393.13 159.978 1384.4 Q159.978 1375.65 163.033 1371.07 Q166.112 1366.46 171.922 1366.46 Z" fill="#000000" fill-rule="nonzero" fill-opacity="1" /><path clip-path="url(#clip290)" d="M202.084 1370.17 Q198.473 1370.17 196.644 1373.73 Q194.838 1377.27 194.838 1384.4 Q194.838 1391.51 196.644 1395.07 Q198.473 1398.62 202.084 1398.62 Q205.718 1398.62 207.524 1395.07 Q209.352 1391.51 209.352 1384.4 Q209.352 1377.27 207.524 1373.73 Q205.718 1370.17 202.084 1370.17 M202.084 1366.46 Q207.894 1366.46 210.949 1371.07 Q214.028 1375.65 214.028 1384.4 Q214.028 1393.13 210.949 1397.74 Q207.894 1402.32 202.084 1402.32 Q196.274 1402.32 193.195 1397.74 Q190.139 1393.13 190.139 1384.4 Q190.139 1375.65 193.195 1371.07 Q196.274 1366.46 202.084 1366.46 Z" fill="#000000" fill-rule="nonzero" fill-opacity="1" /><path clip-path="url(#clip290)" d="M232.246 1370.17 Q228.635 1370.17 226.806 1373.73 Q225 1377.27 225 1384.4 Q225 1391.51 226.806 1395.07 Q228.635 1398.62 232.246 1398.62 Q235.88 1398.62 237.685 1395.07 Q239.514 1391.51 239.514 1384.4 Q239.514 1377.27 237.685 1373.73 Q235.88 1370.17 232.246 1370.17 M232.246 1366.46 Q238.056 1366.46 241.111 1371.07 Q244.19 1375.65 244.19 1384.4 Q244.19 1393.13 241.111 1397.74 Q238.056 1402.32 232.246 1402.32 Q226.435 1402.32 223.357 1397.74 Q220.301 1393.13 220.301 1384.4 Q220.301 1375.65 223.357 1371.07 Q226.435 1366.46 232.246 1366.46 Z" fill="#000000" fill-rule="nonzero" fill-opacity="1" /><path clip-path="url(#clip290)" d="M128.288 1055.39 Q124.677 1055.39 122.848 1058.96 Q121.043 1062.5 121.043 1069.63 Q121.043 1076.74 122.848 1080.3 Q124.677 1083.84 128.288 1083.84 Q131.922 1083.84 133.728 1080.3 Q135.556 1076.74 135.556 1069.63 Q135.556 1062.5 133.728 1058.96 Q131.922 1055.39 128.288 1055.39 M128.288 1051.69 Q134.098 1051.69 137.154 1056.3 Q140.232 1060.88 140.232 1069.63 Q140.232 1078.36 137.154 1082.96 Q134.098 1087.55 128.288 1087.55 Q122.478 1087.55 119.399 1082.96 Q116.343 1078.36 116.343 1069.63 Q116.343 1060.88 119.399 1056.3 Q122.478 1051.69 128.288 1051.69 Z" fill="#000000" fill-rule="nonzero" fill-opacity="1" /><path clip-path="url(#clip290)" d="M148.45 1081 L153.334 1081 L153.334 1086.88 L148.45 1086.88 L148.45 1081 Z" fill="#000000" fill-rule="nonzero" fill-opacity="1" /><path clip-path="url(#clip290)" d="M173.519 1055.39 Q169.908 1055.39 168.079 1058.96 Q166.274 1062.5 166.274 1069.63 Q166.274 1076.74 168.079 1080.3 Q169.908 1083.84 173.519 1083.84 Q177.153 1083.84 178.959 1080.3 Q180.788 1076.74 180.788 1069.63 Q180.788 1062.5 178.959 1058.96 Q177.153 1055.39 173.519 1055.39 M173.519 1051.69 Q179.329 1051.69 182.385 1056.3 Q185.463 1060.88 185.463 1069.63 Q185.463 1078.36 182.385 1082.96 Q179.329 1087.55 173.519 1087.55 Q167.709 1087.55 164.63 1082.96 Q161.575 1078.36 161.575 1069.63 Q161.575 1060.88 164.63 1056.3 Q167.709 1051.69 173.519 1051.69 Z" fill="#000000" fill-rule="nonzero" fill-opacity="1" /><path clip-path="url(#clip290)" d="M203.681 1055.39 Q200.07 1055.39 198.241 1058.96 Q196.436 1062.5 196.436 1069.63 Q196.436 1076.74 198.241 1080.3 Q200.07 1083.84 203.681 1083.84 Q207.315 1083.84 209.121 1080.3 Q210.949 1076.74 210.949 1069.63 Q210.949 1062.5 209.121 1058.96 Q207.315 1055.39 203.681 1055.39 M203.681 1051.69 Q209.491 1051.69 212.547 1056.3 Q215.625 1060.88 215.625 1069.63 Q215.625 1078.36 212.547 1082.96 Q209.491 1087.55 203.681 1087.55 Q197.871 1087.55 194.792 1082.96 Q191.737 1078.36 191.737 1069.63 Q191.737 1060.88 194.792 1056.3 Q197.871 1051.69 203.681 1051.69 Z" fill="#000000" fill-rule="nonzero" fill-opacity="1" /><path clip-path="url(#clip290)" d="M227.871 1082.94 L244.19 1082.94 L244.19 1086.88 L222.246 1086.88 L222.246 1082.94 Q224.908 1080.19 229.491 1075.56 Q234.097 1070.9 235.278 1069.56 Q237.523 1067.04 238.403 1065.3 Q239.306 1063.54 239.306 1061.85 Q239.306 1059.1 237.361 1057.36 Q235.44 1055.63 232.338 1055.63 Q230.139 1055.63 227.685 1056.39 Q225.255 1057.15 222.477 1058.71 L222.477 1053.98 Q225.301 1052.85 227.755 1052.27 Q230.209 1051.69 232.246 1051.69 Q237.616 1051.69 240.81 1054.38 Q244.005 1057.06 244.005 1061.55 Q244.005 1063.68 243.195 1065.6 Q242.408 1067.5 240.301 1070.09 Q239.722 1070.77 236.621 1073.98 Q233.519 1077.18 227.871 1082.94 Z" fill="#000000" fill-rule="nonzero" fill-opacity="1" /><path clip-path="url(#clip290)" d="M126.205 740.623 Q122.593 740.623 120.765 744.188 Q118.959 747.73 118.959 754.859 Q118.959 761.966 120.765 765.531 Q122.593 769.072 126.205 769.072 Q129.839 769.072 131.644 765.531 Q133.473 761.966 133.473 754.859 Q133.473 747.73 131.644 744.188 Q129.839 740.623 126.205 740.623 M126.205 736.92 Q132.015 736.92 135.07 741.526 Q138.149 746.109 138.149 754.859 Q138.149 763.586 135.07 768.193 Q132.015 772.776 126.205 772.776 Q120.394 772.776 117.316 768.193 Q114.26 763.586 114.26 754.859 Q114.26 746.109 117.316 741.526 Q120.394 736.92 126.205 736.92 Z" fill="#000000" fill-rule="nonzero" fill-opacity="1" /><path clip-path="url(#clip290)" d="M146.366 766.225 L151.251 766.225 L151.251 772.105 L146.366 772.105 L146.366 766.225 Z" fill="#000000" fill-rule="nonzero" fill-opacity="1" /><path clip-path="url(#clip290)" d="M171.436 740.623 Q167.825 740.623 165.996 744.188 Q164.19 747.73 164.19 754.859 Q164.19 761.966 165.996 765.531 Q167.825 769.072 171.436 769.072 Q175.07 769.072 176.876 765.531 Q178.704 761.966 178.704 754.859 Q178.704 747.73 176.876 744.188 Q175.07 740.623 171.436 740.623 M171.436 736.92 Q177.246 736.92 180.301 741.526 Q183.38 746.109 183.38 754.859 Q183.38 763.586 180.301 768.193 Q177.246 772.776 171.436 772.776 Q165.626 772.776 162.547 768.193 Q159.491 763.586 159.491 754.859 Q159.491 746.109 162.547 741.526 Q165.626 736.92 171.436 736.92 Z" fill="#000000" fill-rule="nonzero" fill-opacity="1" /><path clip-path="url(#clip290)" d="M201.598 740.623 Q197.987 740.623 196.158 744.188 Q194.352 747.73 194.352 754.859 Q194.352 761.966 196.158 765.531 Q197.987 769.072 201.598 769.072 Q205.232 769.072 207.037 765.531 Q208.866 761.966 208.866 754.859 Q208.866 747.73 207.037 744.188 Q205.232 740.623 201.598 740.623 M201.598 736.92 Q207.408 736.92 210.463 741.526 Q213.542 746.109 213.542 754.859 Q213.542 763.586 210.463 768.193 Q207.408 772.776 201.598 772.776 Q195.787 772.776 192.709 768.193 Q189.653 763.586 189.653 754.859 Q189.653 746.109 192.709 741.526 Q195.787 736.92 201.598 736.92 Z" fill="#000000" fill-rule="nonzero" fill-opacity="1" /><path clip-path="url(#clip290)" d="M234.607 741.619 L222.801 760.068 L234.607 760.068 L234.607 741.619 M233.38 737.545 L239.259 737.545 L239.259 760.068 L244.19 760.068 L244.19 763.957 L239.259 763.957 L239.259 772.105 L234.607 772.105 L234.607 763.957 L219.005 763.957 L219.005 759.443 L233.38 737.545 Z" fill="#000000" fill-rule="nonzero" fill-opacity="1" /><path clip-path="url(#clip290)" d="M126.529 425.852 Q122.918 425.852 121.089 429.417 Q119.283 432.958 119.283 440.088 Q119.283 447.194 121.089 450.759 Q122.918 454.301 126.529 454.301 Q130.163 454.301 131.968 450.759 Q133.797 447.194 133.797 440.088 Q133.797 432.958 131.968 429.417 Q130.163 425.852 126.529 425.852 M126.529 422.148 Q132.339 422.148 135.394 426.755 Q138.473 431.338 138.473 440.088 Q138.473 448.815 135.394 453.421 Q132.339 458.004 126.529 458.004 Q120.718 458.004 117.64 453.421 Q114.584 448.815 114.584 440.088 Q114.584 431.338 117.64 426.755 Q120.718 422.148 126.529 422.148 Z" fill="#000000" fill-rule="nonzero" fill-opacity="1" /><path clip-path="url(#clip290)" d="M146.691 451.453 L151.575 451.453 L151.575 457.333 L146.691 457.333 L146.691 451.453 Z" fill="#000000" fill-rule="nonzero" fill-opacity="1" /><path clip-path="url(#clip290)" d="M171.76 425.852 Q168.149 425.852 166.32 429.417 Q164.515 432.958 164.515 440.088 Q164.515 447.194 166.32 450.759 Q168.149 454.301 171.76 454.301 Q175.394 454.301 177.2 450.759 Q179.028 447.194 179.028 440.088 Q179.028 432.958 177.2 429.417 Q175.394 425.852 171.76 425.852 M171.76 422.148 Q177.57 422.148 180.626 426.755 Q183.704 431.338 183.704 440.088 Q183.704 448.815 180.626 453.421 Q177.57 458.004 171.76 458.004 Q165.95 458.004 162.871 453.421 Q159.815 448.815 159.815 440.088 Q159.815 431.338 162.871 426.755 Q165.95 422.148 171.76 422.148 Z" fill="#000000" fill-rule="nonzero" fill-opacity="1" /><path clip-path="url(#clip290)" d="M201.922 425.852 Q198.311 425.852 196.482 429.417 Q194.676 432.958 194.676 440.088 Q194.676 447.194 196.482 450.759 Q198.311 454.301 201.922 454.301 Q205.556 454.301 207.362 450.759 Q209.19 447.194 209.19 440.088 Q209.19 432.958 207.362 429.417 Q205.556 425.852 201.922 425.852 M201.922 422.148 Q207.732 422.148 210.787 426.755 Q213.866 431.338 213.866 440.088 Q213.866 448.815 210.787 453.421 Q207.732 458.004 201.922 458.004 Q196.112 458.004 193.033 453.421 Q189.977 448.815 189.977 440.088 Q189.977 431.338 193.033 426.755 Q196.112 422.148 201.922 422.148 Z" fill="#000000" fill-rule="nonzero" fill-opacity="1" /><path clip-path="url(#clip290)" d="M232.662 438.19 Q229.514 438.19 227.662 440.342 Q225.834 442.495 225.834 446.245 Q225.834 449.972 227.662 452.148 Q229.514 454.301 232.662 454.301 Q235.81 454.301 237.639 452.148 Q239.491 449.972 239.491 446.245 Q239.491 442.495 237.639 440.342 Q235.81 438.19 232.662 438.19 M241.945 423.537 L241.945 427.796 Q240.185 426.963 238.38 426.523 Q236.597 426.083 234.838 426.083 Q230.209 426.083 227.755 429.208 Q225.324 432.333 224.977 438.653 Q226.343 436.639 228.403 435.574 Q230.463 434.486 232.94 434.486 Q238.148 434.486 241.158 437.657 Q244.19 440.805 244.19 446.245 Q244.19 451.569 241.042 454.787 Q237.894 458.004 232.662 458.004 Q226.667 458.004 223.496 453.421 Q220.324 448.815 220.324 440.088 Q220.324 431.893 224.213 427.032 Q228.102 422.148 234.653 422.148 Q236.412 422.148 238.195 422.495 Q240 422.843 241.945 423.537 Z" fill="#000000" fill-rule="nonzero" fill-opacity="1" /><path clip-path="url(#clip290)" d="M126.783 111.08 Q123.172 111.08 121.343 114.645 Q119.538 118.187 119.538 125.316 Q119.538 132.423 121.343 135.988 Q123.172 139.529 126.783 139.529 Q130.417 139.529 132.223 135.988 Q134.052 132.423 134.052 125.316 Q134.052 118.187 132.223 114.645 Q130.417 111.08 126.783 111.08 M126.783 107.377 Q132.593 107.377 135.649 111.983 Q138.728 116.566 138.728 125.316 Q138.728 134.043 135.649 138.65 Q132.593 143.233 126.783 143.233 Q120.973 143.233 117.894 138.65 Q114.839 134.043 114.839 125.316 Q114.839 116.566 117.894 111.983 Q120.973 107.377 126.783 107.377 Z" fill="#000000" fill-rule="nonzero" fill-opacity="1" /><path clip-path="url(#clip290)" d="M146.945 136.682 L151.829 136.682 L151.829 142.562 L146.945 142.562 L146.945 136.682 Z" fill="#000000" fill-rule="nonzero" fill-opacity="1" /><path clip-path="url(#clip290)" d="M172.014 111.08 Q168.403 111.08 166.575 114.645 Q164.769 118.187 164.769 125.316 Q164.769 132.423 166.575 135.988 Q168.403 139.529 172.014 139.529 Q175.649 139.529 177.454 135.988 Q179.283 132.423 179.283 125.316 Q179.283 118.187 177.454 114.645 Q175.649 111.08 172.014 111.08 M172.014 107.377 Q177.825 107.377 180.88 111.983 Q183.959 116.566 183.959 125.316 Q183.959 134.043 180.88 138.65 Q177.825 143.233 172.014 143.233 Q166.204 143.233 163.126 138.65 Q160.07 134.043 160.07 125.316 Q160.07 116.566 163.126 111.983 Q166.204 107.377 172.014 107.377 Z" fill="#000000" fill-rule="nonzero" fill-opacity="1" /><path clip-path="url(#clip290)" d="M202.176 111.08 Q198.565 111.08 196.737 114.645 Q194.931 118.187 194.931 125.316 Q194.931 132.423 196.737 135.988 Q198.565 139.529 202.176 139.529 Q205.811 139.529 207.616 135.988 Q209.445 132.423 209.445 125.316 Q209.445 118.187 207.616 114.645 Q205.811 111.08 202.176 111.08 M202.176 107.377 Q207.987 107.377 211.042 111.983 Q214.121 116.566 214.121 125.316 Q214.121 134.043 211.042 138.65 Q207.987 143.233 202.176 143.233 Q196.366 143.233 193.288 138.65 Q190.232 134.043 190.232 125.316 Q190.232 116.566 193.288 111.983 Q196.366 107.377 202.176 107.377 Z" fill="#000000" fill-rule="nonzero" fill-opacity="1" /><path clip-path="url(#clip290)" d="M232.338 126.15 Q229.005 126.15 227.084 127.932 Q225.185 129.714 225.185 132.839 Q225.185 135.964 227.084 137.747 Q229.005 139.529 232.338 139.529 Q235.672 139.529 237.593 137.747 Q239.514 135.941 239.514 132.839 Q239.514 129.714 237.593 127.932 Q235.695 126.15 232.338 126.15 M227.662 124.159 Q224.653 123.418 222.963 121.358 Q221.297 119.298 221.297 116.335 Q221.297 112.191 224.236 109.784 Q227.199 107.377 232.338 107.377 Q237.5 107.377 240.44 109.784 Q243.38 112.191 243.38 116.335 Q243.38 119.298 241.69 121.358 Q240.023 123.418 237.037 124.159 Q240.417 124.946 242.292 127.238 Q244.19 129.529 244.19 132.839 Q244.19 137.862 241.111 140.548 Q238.056 143.233 232.338 143.233 Q226.621 143.233 223.542 140.548 Q220.486 137.862 220.486 132.839 Q220.486 129.529 222.385 127.238 Q224.283 124.946 227.662 124.159 M225.949 116.775 Q225.949 119.46 227.616 120.964 Q229.306 122.469 232.338 122.469 Q235.347 122.469 237.037 120.964 Q238.75 119.46 238.75 116.775 Q238.75 114.089 237.037 112.585 Q235.347 111.08 232.338 111.08 Q229.306 111.08 227.616 112.585 Q225.949 114.089 225.949 116.775 Z" fill="#000000" fill-rule="nonzero" fill-opacity="1" /><path clip-path="url(#clip290)" d="M16.4842 829.058 L16.4842 799.012 L21.895 799.012 L21.895 822.629 L35.9632 822.629 L35.9632 799.999 L41.3741 799.999 L41.3741 822.629 L58.5933 822.629 L58.5933 798.439 L64.0042 798.439 L64.0042 829.058 L16.4842 829.058 Z" fill="#000000" fill-rule="nonzero" fill-opacity="1" /><path clip-path="url(#clip290)" d="M33.8307 767.47 Q33.2578 768.457 33.0032 769.635 Q32.7167 770.78 32.7167 772.181 Q32.7167 777.146 35.9632 779.82 Q39.1779 782.461 45.2253 782.461 L64.0042 782.461 L64.0042 788.35 L28.3562 788.35 L28.3562 782.461 L33.8944 782.461 Q30.6479 780.615 29.0883 777.655 Q27.4968 774.695 27.4968 770.462 Q27.4968 769.857 27.5923 769.125 Q27.656 768.393 27.8151 767.502 L33.8307 767.47 Z" fill="#000000" fill-rule="nonzero" fill-opacity="1" /><path clip-path="url(#clip290)" d="M33.8307 741.816 Q33.2578 742.803 33.0032 743.981 Q32.7167 745.127 32.7167 746.527 Q32.7167 751.492 35.9632 754.166 Q39.1779 756.808 45.2253 756.808 L64.0042 756.808 L64.0042 762.696 L28.3562 762.696 L28.3562 756.808 L33.8944 756.808 Q30.6479 754.962 29.0883 752.002 Q27.4968 749.041 27.4968 744.808 Q27.4968 744.204 27.5923 743.471 Q27.656 742.739 27.8151 741.848 L33.8307 741.816 Z" fill="#000000" fill-rule="nonzero" fill-opacity="1" /><path clip-path="url(#clip290)" d="M32.4621 723.292 Q32.4621 728.003 36.1542 730.74 Q39.8145 733.477 46.212 733.477 Q52.6095 733.477 56.3017 730.772 Q59.9619 728.035 59.9619 723.292 Q59.9619 718.613 56.2698 715.876 Q52.5777 713.139 46.212 713.139 Q39.8781 713.139 36.186 715.876 Q32.4621 718.613 32.4621 723.292 M27.4968 723.292 Q27.4968 715.653 32.4621 711.293 Q37.4273 706.932 46.212 706.932 Q54.9649 706.932 59.9619 711.293 Q64.9272 715.653 64.9272 723.292 Q64.9272 730.963 59.9619 735.323 Q54.9649 739.652 46.212 739.652 Q37.4273 739.652 32.4621 735.323 Q27.4968 730.963 27.4968 723.292 Z" fill="#000000" fill-rule="nonzero" fill-opacity="1" /><path clip-path="url(#clip290)" d="M33.8307 676.568 Q33.2578 677.555 33.0032 678.732 Q32.7167 679.878 32.7167 681.279 Q32.7167 686.244 35.9632 688.917 Q39.1779 691.559 45.2253 691.559 L64.0042 691.559 L64.0042 697.447 L28.3562 697.447 L28.3562 691.559 L33.8944 691.559 Q30.6479 689.713 29.0883 686.753 Q27.4968 683.793 27.4968 679.56 Q27.4968 678.955 27.5923 678.223 Q27.656 677.491 27.8151 676.6 L33.8307 676.568 Z" fill="#000000" fill-rule="nonzero" fill-opacity="1" /><path clip-path="url(#clip290)" d="M44.7161 641.366 L47.5806 641.366 L47.5806 668.292 Q53.6281 667.911 56.8109 664.664 Q59.9619 661.386 59.9619 655.561 Q59.9619 652.187 59.1344 649.036 Q58.3069 645.853 56.6518 642.734 L62.1899 642.734 Q63.5267 645.885 64.227 649.195 Q64.9272 652.506 64.9272 655.911 Q64.9272 664.441 59.9619 669.438 Q54.9967 674.404 46.5303 674.404 Q37.7774 674.404 32.6531 669.693 Q27.4968 664.95 27.4968 656.93 Q27.4968 649.736 32.1438 645.567 Q36.7589 641.366 44.7161 641.366 M42.9973 647.222 Q38.1912 647.286 35.3266 649.927 Q32.4621 652.537 32.4621 656.866 Q32.4621 661.768 35.2312 664.728 Q38.0002 667.656 43.0292 668.102 L42.9973 647.222 Z" fill="#000000" fill-rule="nonzero" fill-opacity="1" /><polyline clip-path="url(#clip292)" style="stroke:#009af9; stroke-linecap:round; stroke-linejoin:round; stroke-width:4; stroke-opacity:1; fill:none" points="338.848,86.1857 417.848,1332.58 516.598,1371.42 1306.6,1383.85 2294.1,1384.24 "/>
<path clip-path="url(#clip290)" d="M2023.98 196.789 L2283.67 196.789 L2283.67 93.1086 L2023.98 93.1086  Z" fill="#ffffff" fill-rule="evenodd" fill-opacity="1"/>
<polyline clip-path="url(#clip290)" style="stroke:#000000; stroke-linecap:round; stroke-linejoin:round; stroke-width:4; stroke-opacity:1; fill:none" points="2023.98,196.789 2283.67,196.789 2283.67,93.1086 2023.98,93.1086 2023.98,196.789 "/>
<polyline clip-path="url(#clip290)" style="stroke:#009af9; stroke-linecap:round; stroke-linejoin:round; stroke-width:4; stroke-opacity:1; fill:none" points="2047.01,144.949 2185.18,144.949 "/>
<path clip-path="url(#clip290)" d="M2222.05 164.636 Q2220.25 169.266 2218.54 170.678 Q2216.82 172.09 2213.95 172.09 L2210.55 172.09 L2210.55 168.525 L2213.05 168.525 Q2214.81 168.525 2215.78 167.692 Q2216.75 166.858 2217.93 163.756 L2218.7 161.812 L2208.21 136.303 L2212.73 136.303 L2220.83 156.581 L2228.93 136.303 L2233.44 136.303 L2222.05 164.636 Z" fill="#000000" fill-rule="nonzero" fill-opacity="1" /><path clip-path="url(#clip290)" d="M2240.73 158.293 L2248.37 158.293 L2248.37 131.928 L2240.06 133.595 L2240.06 129.335 L2248.33 127.669 L2253 127.669 L2253 158.293 L2260.64 158.293 L2260.64 162.229 L2240.73 162.229 L2240.73 158.293 Z" fill="#000000" fill-rule="nonzero" fill-opacity="1" /></svg>
