<?xml version="1.0" encoding="utf-8"?>
<svg xmlns="http://www.w3.org/2000/svg" xmlns:xlink="http://www.w3.org/1999/xlink" width="600" height="400" viewBox="0 0 2400 1600">
<defs>
  <clipPath id="clip090">
    <rect x="0" y="0" width="2400" height="1600"/>
  </clipPath>
</defs>
<path clip-path="url(#clip090)" d="M0 1600 L2400 1600 L2400 0 L0 0  Z" fill="#ffffff" fill-rule="evenodd" fill-opacity="1"/>
<defs>
  <clipPath id="clip091">
    <rect x="480" y="0" width="1681" height="1600"/>
  </clipPath>
</defs>
<path clip-path="url(#clip090)" d="M276.876 1410.9 L2352.76 1410.9 L2352.76 47.2441 L276.876 47.2441  Z" fill="#ffffff" fill-rule="evenodd" fill-opacity="1"/>
<defs>
  <clipPath id="clip092">
    <rect x="276" y="47" width="2077" height="1365"/>
  </clipPath>
</defs>
<polyline clip-path="url(#clip092)" style="stroke:#000000; stroke-linecap:round; stroke-linejoin:round; stroke-width:2; stroke-opacity:0.1; fill:none" points="335.627,1410.9 335.627,47.2441 "/>
<polyline clip-path="url(#clip092)" style="stroke:#000000; stroke-linecap:round; stroke-linejoin:round; stroke-width:2; stroke-opacity:0.1; fill:none" points="1314.82,1410.9 1314.82,47.2441 "/>
<polyline clip-path="url(#clip092)" style="stroke:#000000; stroke-linecap:round; stroke-linejoin:round; stroke-width:2; stroke-opacity:0.1; fill:none" points="2294,1410.9 2294,47.2441 "/>
<polyline clip-path="url(#clip092)" style="stroke:#000000; stroke-linecap:round; stroke-linejoin:round; stroke-width:2; stroke-opacity:0.1; fill:none" points="276.876,1087.96 2352.76,1087.96 "/>
<polyline clip-path="url(#clip092)" style="stroke:#000000; stroke-linecap:round; stroke-linejoin:round; stroke-width:2; stroke-opacity:0.1; fill:none" points="276.876,284.41 2352.76,284.41 "/>
<polyline clip-path="url(#clip090)" style="stroke:#000000; stroke-linecap:round; stroke-linejoin:round; stroke-width:4; stroke-opacity:1; fill:none" points="276.876,1410.9 2352.76,1410.9 "/>
<polyline clip-path="url(#clip090)" style="stroke:#000000; stroke-linecap:round; stroke-linejoin:round; stroke-width:4; stroke-opacity:1; fill:none" points="335.627,1410.9 335.627,1392 "/>
<polyline clip-path="url(#clip090)" style="stroke:#000000; stroke-linecap:round; stroke-linejoin:round; stroke-width:4; stroke-opacity:1; fill:none" points="1314.82,1410.9 1314.82,1392 "/>
<polyline clip-path="url(#clip090)" style="stroke:#000000; stroke-linecap:round; stroke-linejoin:round; stroke-width:4; stroke-opacity:1; fill:none" points="2294,1410.9 2294,1392 "/>
<path clip-path="url(#clip090)" d="M301.954 1485.02 L309.593 1485.02 L309.593 1458.66 L301.283 1460.32 L301.283 1456.06 L309.547 1454.4 L314.223 1454.4 L314.223 1485.02 L321.862 1485.02 L321.862 1488.96 L301.954 1488.96 L301.954 1485.02 Z" fill="#000000" fill-rule="nonzero" fill-opacity="1" /><path clip-path="url(#clip090)" d="M341.306 1457.48 Q337.695 1457.48 335.866 1461.04 Q334.061 1464.58 334.061 1471.71 Q334.061 1478.82 335.866 1482.38 Q337.695 1485.92 341.306 1485.92 Q344.94 1485.92 346.746 1482.38 Q348.575 1478.82 348.575 1471.71 Q348.575 1464.58 346.746 1461.04 Q344.94 1457.48 341.306 1457.48 M341.306 1453.77 Q347.116 1453.77 350.172 1458.38 Q353.25 1462.96 353.25 1471.71 Q353.25 1480.44 350.172 1485.04 Q347.116 1489.63 341.306 1489.63 Q335.496 1489.63 332.417 1485.04 Q329.362 1480.44 329.362 1471.71 Q329.362 1462.96 332.417 1458.38 Q335.496 1453.77 341.306 1453.77 Z" fill="#000000" fill-rule="nonzero" fill-opacity="1" /><path clip-path="url(#clip090)" d="M353.796 1458.35 L360.002 1458.35 L360.002 1436.93 L353.25 1438.28 L353.25 1434.82 L359.965 1433.47 L363.764 1433.47 L363.764 1458.35 L369.971 1458.35 L369.971 1461.55 L353.796 1461.55 L353.796 1458.35 Z" fill="#000000" fill-rule="nonzero" fill-opacity="1" /><path clip-path="url(#clip090)" d="M1280.59 1485.02 L1288.23 1485.02 L1288.23 1458.66 L1279.92 1460.32 L1279.92 1456.06 L1288.18 1454.4 L1292.86 1454.4 L1292.86 1485.02 L1300.5 1485.02 L1300.5 1488.96 L1280.59 1488.96 L1280.59 1485.02 Z" fill="#000000" fill-rule="nonzero" fill-opacity="1" /><path clip-path="url(#clip090)" d="M1319.94 1457.48 Q1316.33 1457.48 1314.5 1461.04 Q1312.69 1464.58 1312.69 1471.71 Q1312.69 1478.82 1314.5 1482.38 Q1316.33 1485.92 1319.94 1485.92 Q1323.57 1485.92 1325.38 1482.38 Q1327.21 1478.82 1327.21 1471.71 Q1327.21 1464.58 1325.38 1461.04 Q1323.57 1457.48 1319.94 1457.48 M1319.94 1453.77 Q1325.75 1453.77 1328.81 1458.38 Q1331.88 1462.96 1331.88 1471.71 Q1331.88 1480.44 1328.81 1485.04 Q1325.75 1489.63 1319.94 1489.63 Q1314.13 1489.63 1311.05 1485.04 Q1308 1480.44 1308 1471.71 Q1308 1462.96 1311.05 1458.38 Q1314.13 1453.77 1319.94 1453.77 Z" fill="#000000" fill-rule="nonzero" fill-opacity="1" /><path clip-path="url(#clip090)" d="M1336.45 1458.35 L1349.71 1458.35 L1349.71 1461.55 L1331.88 1461.55 L1331.88 1458.35 Q1334.05 1456.11 1337.77 1452.35 Q1341.51 1448.57 1342.47 1447.48 Q1344.3 1445.43 1345.01 1444.02 Q1345.75 1442.59 1345.75 1441.22 Q1345.75 1438.98 1344.17 1437.57 Q1342.6 1436.16 1340.08 1436.16 Q1338.3 1436.16 1336.3 1436.78 Q1334.33 1437.4 1332.07 1438.66 L1332.07 1434.82 Q1334.37 1433.9 1336.36 1433.43 Q1338.35 1432.96 1340.01 1432.96 Q1344.37 1432.96 1346.97 1435.14 Q1349.56 1437.32 1349.56 1440.97 Q1349.56 1442.7 1348.91 1444.26 Q1348.27 1445.8 1346.55 1447.91 Q1346.08 1448.46 1343.56 1451.07 Q1341.04 1453.67 1336.45 1458.35 Z" fill="#000000" fill-rule="nonzero" fill-opacity="1" /><path clip-path="url(#clip090)" d="M2259.45 1485.02 L2267.09 1485.02 L2267.09 1458.66 L2258.78 1460.32 L2258.78 1456.06 L2267.04 1454.4 L2271.72 1454.4 L2271.72 1485.02 L2279.36 1485.02 L2279.36 1488.96 L2259.45 1488.96 L2259.45 1485.02 Z" fill="#000000" fill-rule="nonzero" fill-opacity="1" /><path clip-path="url(#clip090)" d="M2298.8 1457.48 Q2295.19 1457.48 2293.36 1461.04 Q2291.55 1464.58 2291.55 1471.71 Q2291.55 1478.82 2293.36 1482.38 Q2295.19 1485.92 2298.8 1485.92 Q2302.43 1485.92 2304.24 1482.38 Q2306.07 1478.82 2306.07 1471.71 Q2306.07 1464.58 2304.24 1461.04 Q2302.43 1457.48 2298.8 1457.48 M2298.8 1453.77 Q2304.61 1453.77 2307.67 1458.38 Q2310.74 1462.96 2310.74 1471.71 Q2310.74 1480.44 2307.67 1485.04 Q2304.61 1489.63 2298.8 1489.63 Q2292.99 1489.63 2289.91 1485.04 Q2286.86 1480.44 2286.86 1471.71 Q2286.86 1462.96 2289.91 1458.38 Q2292.99 1453.77 2298.8 1453.77 Z" fill="#000000" fill-rule="nonzero" fill-opacity="1" /><path clip-path="url(#clip090)" d="M2323.44 1446.41 Q2326.17 1446.99 2327.69 1448.83 Q2329.23 1450.68 2329.23 1453.38 Q2329.23 1457.54 2326.37 1459.82 Q2323.51 1462.09 2318.25 1462.09 Q2316.48 1462.09 2314.6 1461.73 Q2312.74 1461.4 2310.74 1460.7 L2310.74 1457.03 Q2312.32 1457.95 2314.2 1458.42 Q2316.09 1458.89 2318.14 1458.89 Q2321.71 1458.89 2323.57 1457.48 Q2325.45 1456.07 2325.45 1453.38 Q2325.45 1450.9 2323.7 1449.51 Q2321.97 1448.1 2318.87 1448.1 L2315.6 1448.1 L2315.6 1444.98 L2319.02 1444.98 Q2321.82 1444.98 2323.31 1443.87 Q2324.79 1442.74 2324.79 1440.63 Q2324.79 1438.47 2323.25 1437.32 Q2321.73 1436.16 2318.87 1436.16 Q2317.31 1436.16 2315.52 1436.49 Q2313.73 1436.83 2311.59 1437.55 L2311.59 1434.16 Q2313.75 1433.56 2315.63 1433.26 Q2317.53 1432.96 2319.21 1432.96 Q2323.53 1432.96 2326.05 1434.93 Q2328.57 1436.89 2328.57 1440.24 Q2328.57 1442.57 2327.24 1444.19 Q2325.9 1445.79 2323.44 1446.41 Z" fill="#000000" fill-rule="nonzero" fill-opacity="1" /><path clip-path="url(#clip090)" d="M1057.47 1526.67 L1066.12 1526.67 L1087.19 1566.42 L1087.19 1526.67 L1093.43 1526.67 L1093.43 1574.19 L1084.77 1574.19 L1063.7 1534.43 L1063.7 1574.19 L1057.47 1574.19 L1057.47 1526.67 Z" fill="#000000" fill-rule="nonzero" fill-opacity="1" /><path clip-path="url(#clip090)" d="M1105.37 1560.12 L1105.37 1538.54 L1111.22 1538.54 L1111.22 1559.89 Q1111.22 1564.96 1113.2 1567.5 Q1115.17 1570.02 1119.12 1570.02 Q1123.86 1570.02 1126.6 1566.99 Q1129.37 1563.97 1129.37 1558.75 L1129.37 1538.54 L1135.22 1538.54 L1135.22 1574.19 L1129.37 1574.19 L1129.37 1568.71 Q1127.23 1571.96 1124.4 1573.55 Q1121.6 1575.11 1117.88 1575.11 Q1111.73 1575.11 1108.55 1571.29 Q1105.37 1567.47 1105.37 1560.12 M1120.1 1537.68 L1120.1 1537.68 Z" fill="#000000" fill-rule="nonzero" fill-opacity="1" /><path clip-path="url(#clip090)" d="M1175.04 1545.38 Q1177.24 1541.43 1180.29 1539.56 Q1183.35 1537.68 1187.49 1537.68 Q1193.06 1537.68 1196.08 1541.59 Q1199.1 1545.48 1199.1 1552.67 L1199.1 1574.19 L1193.21 1574.19 L1193.21 1552.86 Q1193.21 1547.74 1191.4 1545.25 Q1189.59 1542.77 1185.86 1542.77 Q1181.31 1542.77 1178.67 1545.79 Q1176.03 1548.82 1176.03 1554.04 L1176.03 1574.19 L1170.14 1574.19 L1170.14 1552.86 Q1170.14 1547.7 1168.32 1545.25 Q1166.51 1542.77 1162.72 1542.77 Q1158.24 1542.77 1155.59 1545.83 Q1152.95 1548.85 1152.95 1554.04 L1152.95 1574.19 L1147.06 1574.19 L1147.06 1538.54 L1152.95 1538.54 L1152.95 1544.08 Q1154.96 1540.8 1157.76 1539.24 Q1160.56 1537.68 1164.41 1537.68 Q1168.29 1537.68 1171 1539.65 Q1173.74 1541.62 1175.04 1545.38 Z" fill="#000000" fill-rule="nonzero" fill-opacity="1" /><path clip-path="url(#clip090)" d="M1241.28 1554.9 L1241.28 1557.76 L1214.35 1557.76 Q1214.73 1563.81 1217.98 1566.99 Q1221.26 1570.14 1227.08 1570.14 Q1230.45 1570.14 1233.61 1569.32 Q1236.79 1568.49 1239.91 1566.83 L1239.91 1572.37 Q1236.76 1573.71 1233.45 1574.41 Q1230.14 1575.11 1226.73 1575.11 Q1218.2 1575.11 1213.2 1570.14 Q1208.24 1565.18 1208.24 1556.71 Q1208.24 1547.96 1212.95 1542.83 Q1217.69 1537.68 1225.71 1537.68 Q1232.9 1537.68 1237.07 1542.33 Q1241.28 1546.94 1241.28 1554.9 M1235.42 1553.18 Q1235.36 1548.37 1232.71 1545.51 Q1230.1 1542.64 1225.78 1542.64 Q1220.87 1542.64 1217.91 1545.41 Q1214.99 1548.18 1214.54 1553.21 L1235.42 1553.18 Z" fill="#000000" fill-rule="nonzero" fill-opacity="1" /><path clip-path="url(#clip090)" d="M1271.54 1544.01 Q1270.56 1543.44 1269.38 1543.18 Q1268.23 1542.9 1266.83 1542.9 Q1261.87 1542.9 1259.2 1546.14 Q1256.55 1549.36 1256.55 1555.41 L1256.55 1574.19 L1250.67 1574.19 L1250.67 1538.54 L1256.55 1538.54 L1256.55 1544.08 Q1258.4 1540.83 1261.36 1539.27 Q1264.32 1537.68 1268.55 1537.68 Q1269.16 1537.68 1269.89 1537.77 Q1270.62 1537.84 1271.51 1538 L1271.54 1544.01 Z" fill="#000000" fill-rule="nonzero" fill-opacity="1" /><path clip-path="url(#clip090)" d="M1290.07 1542.64 Q1285.36 1542.64 1282.62 1546.34 Q1279.88 1550 1279.88 1556.39 Q1279.88 1562.79 1282.59 1566.48 Q1285.33 1570.14 1290.07 1570.14 Q1294.75 1570.14 1297.49 1566.45 Q1300.22 1562.76 1300.22 1556.39 Q1300.22 1550.06 1297.49 1546.37 Q1294.75 1542.64 1290.07 1542.64 M1290.07 1537.68 Q1297.71 1537.68 1302.07 1542.64 Q1306.43 1547.61 1306.43 1556.39 Q1306.43 1565.15 1302.07 1570.14 Q1297.71 1575.11 1290.07 1575.11 Q1282.4 1575.11 1278.04 1570.14 Q1273.71 1565.15 1273.71 1556.39 Q1273.71 1547.61 1278.04 1542.64 Q1282.4 1537.68 1290.07 1537.68 Z" fill="#000000" fill-rule="nonzero" fill-opacity="1" /><path clip-path="url(#clip090)" d="M1360.31 1543.95 L1360.31 1524.66 L1366.17 1524.66 L1366.17 1574.19 L1360.31 1574.19 L1360.31 1568.84 Q1358.47 1572.02 1355.64 1573.58 Q1352.83 1575.11 1348.89 1575.11 Q1342.43 1575.11 1338.35 1569.95 Q1334.31 1564.8 1334.31 1556.39 Q1334.31 1547.99 1338.35 1542.83 Q1342.43 1537.68 1348.89 1537.68 Q1352.83 1537.68 1355.64 1539.24 Q1358.47 1540.77 1360.31 1543.95 M1340.36 1556.39 Q1340.36 1562.85 1343 1566.55 Q1345.67 1570.21 1350.32 1570.21 Q1354.97 1570.21 1357.64 1566.55 Q1360.31 1562.85 1360.31 1556.39 Q1360.31 1549.93 1357.64 1546.27 Q1354.97 1542.58 1350.32 1542.58 Q1345.67 1542.58 1343 1546.27 Q1340.36 1549.93 1340.36 1556.39 Z" fill="#000000" fill-rule="nonzero" fill-opacity="1" /><path clip-path="url(#clip090)" d="M1378.23 1538.54 L1384.09 1538.54 L1384.09 1574.19 L1378.23 1574.19 L1378.23 1538.54 M1378.23 1524.66 L1384.09 1524.66 L1384.09 1532.08 L1378.23 1532.08 L1378.23 1524.66 Z" fill="#000000" fill-rule="nonzero" fill-opacity="1" /><path clip-path="url(#clip090)" d="M1422.73 1568.84 L1422.73 1587.74 L1416.84 1587.74 L1416.84 1538.54 L1422.73 1538.54 L1422.73 1543.95 Q1424.58 1540.77 1427.38 1539.24 Q1430.21 1537.68 1434.12 1537.68 Q1440.62 1537.68 1444.66 1542.83 Q1448.73 1547.99 1448.73 1556.39 Q1448.73 1564.8 1444.66 1569.95 Q1440.62 1575.11 1434.12 1575.11 Q1430.21 1575.11 1427.38 1573.58 Q1424.58 1572.02 1422.73 1568.84 M1442.66 1556.39 Q1442.66 1549.93 1439.98 1546.27 Q1437.34 1542.58 1432.69 1542.58 Q1428.05 1542.58 1425.37 1546.27 Q1422.73 1549.93 1422.73 1556.39 Q1422.73 1562.85 1425.37 1566.55 Q1428.05 1570.21 1432.69 1570.21 Q1437.34 1570.21 1439.98 1566.55 Q1442.66 1562.85 1442.66 1556.39 Z" fill="#000000" fill-rule="nonzero" fill-opacity="1" /><path clip-path="url(#clip090)" d="M1474.64 1556.27 Q1467.54 1556.27 1464.81 1557.89 Q1462.07 1559.51 1462.07 1563.43 Q1462.07 1566.55 1464.11 1568.39 Q1466.18 1570.21 1469.71 1570.21 Q1474.58 1570.21 1477.51 1566.77 Q1480.47 1563.3 1480.47 1557.57 L1480.47 1556.27 L1474.64 1556.27 M1486.32 1553.85 L1486.32 1574.19 L1480.47 1574.19 L1480.47 1568.77 Q1478.46 1572.02 1475.47 1573.58 Q1472.48 1575.11 1468.15 1575.11 Q1462.68 1575.11 1459.43 1572.05 Q1456.21 1568.97 1456.21 1563.81 Q1456.21 1557.79 1460.22 1554.74 Q1464.27 1551.68 1472.26 1551.68 L1480.47 1551.68 L1480.47 1551.11 Q1480.47 1547.07 1477.79 1544.87 Q1475.15 1542.64 1470.35 1542.64 Q1467.29 1542.64 1464.39 1543.38 Q1461.5 1544.11 1458.82 1545.57 L1458.82 1540.16 Q1462.04 1538.92 1465.06 1538.31 Q1468.09 1537.68 1470.95 1537.68 Q1478.68 1537.68 1482.5 1541.69 Q1486.32 1545.7 1486.32 1553.85 Z" fill="#000000" fill-rule="nonzero" fill-opacity="1" /><path clip-path="url(#clip090)" d="M1521.11 1539.59 L1521.11 1545.13 Q1518.63 1543.85 1515.96 1543.22 Q1513.28 1542.58 1510.42 1542.58 Q1506.06 1542.58 1503.86 1543.92 Q1501.7 1545.25 1501.7 1547.93 Q1501.7 1549.96 1503.26 1551.14 Q1504.82 1552.29 1509.53 1553.34 L1511.53 1553.78 Q1517.77 1555.12 1520.38 1557.57 Q1523.02 1559.99 1523.02 1564.35 Q1523.02 1569.32 1519.08 1572.21 Q1515.16 1575.11 1508.29 1575.11 Q1505.42 1575.11 1502.3 1574.54 Q1499.21 1573.99 1495.78 1572.88 L1495.78 1566.83 Q1499.02 1568.52 1502.17 1569.38 Q1505.33 1570.21 1508.41 1570.21 Q1512.55 1570.21 1514.78 1568.81 Q1517.01 1567.37 1517.01 1564.8 Q1517.01 1562.41 1515.38 1561.14 Q1513.79 1559.86 1508.35 1558.68 L1506.31 1558.21 Q1500.87 1557.06 1498.45 1554.71 Q1496.03 1552.32 1496.03 1548.18 Q1496.03 1543.15 1499.6 1540.42 Q1503.16 1537.68 1509.72 1537.68 Q1512.96 1537.68 1515.83 1538.16 Q1518.69 1538.63 1521.11 1539.59 Z" fill="#000000" fill-rule="nonzero" fill-opacity="1" /><path clip-path="url(#clip090)" d="M1555.07 1539.59 L1555.07 1545.13 Q1552.59 1543.85 1549.92 1543.22 Q1547.24 1542.58 1544.38 1542.58 Q1540.02 1542.58 1537.82 1543.92 Q1535.66 1545.25 1535.66 1547.93 Q1535.66 1549.96 1537.22 1551.14 Q1538.78 1552.29 1543.49 1553.34 L1545.49 1553.78 Q1551.73 1555.12 1554.34 1557.57 Q1556.98 1559.99 1556.98 1564.35 Q1556.98 1569.32 1553.04 1572.21 Q1549.12 1575.11 1542.25 1575.11 Q1539.38 1575.11 1536.26 1574.54 Q1533.18 1573.99 1529.74 1572.88 L1529.74 1566.83 Q1532.98 1568.52 1536.14 1569.38 Q1539.29 1570.21 1542.37 1570.21 Q1546.51 1570.21 1548.74 1568.81 Q1550.97 1567.37 1550.97 1564.8 Q1550.97 1562.41 1549.34 1561.14 Q1547.75 1559.86 1542.31 1558.68 L1540.27 1558.21 Q1534.83 1557.06 1532.41 1554.71 Q1529.99 1552.32 1529.99 1548.18 Q1529.99 1543.15 1533.56 1540.42 Q1537.12 1537.68 1543.68 1537.68 Q1546.93 1537.68 1549.79 1538.16 Q1552.65 1538.63 1555.07 1539.59 Z" fill="#000000" fill-rule="nonzero" fill-opacity="1" /><path clip-path="url(#clip090)" d="M1566.31 1538.54 L1572.17 1538.54 L1572.17 1574.19 L1566.31 1574.19 L1566.31 1538.54 M1566.31 1524.66 L1572.17 1524.66 L1572.17 1532.08 L1566.31 1532.08 L1566.31 1524.66 Z" fill="#000000" fill-rule="nonzero" fill-opacity="1" /><polyline clip-path="url(#clip090)" style="stroke:#000000; stroke-linecap:round; stroke-linejoin:round; stroke-width:4; stroke-opacity:1; fill:none" points="276.876,1410.9 276.876,47.2441 "/>
<polyline clip-path="url(#clip090)" style="stroke:#000000; stroke-linecap:round; stroke-linejoin:round; stroke-width:4; stroke-opacity:1; fill:none" points="276.876,1087.96 295.773,1087.96 "/>
<polyline clip-path="url(#clip090)" style="stroke:#000000; stroke-linecap:round; stroke-linejoin:round; stroke-width:4; stroke-opacity:1; fill:none" points="276.876,284.41 295.773,284.41 "/>
<path clip-path="url(#clip090)" d="M114.931 1107.75 L122.57 1107.75 L122.57 1081.38 L114.26 1083.05 L114.26 1078.79 L122.524 1077.12 L127.2 1077.12 L127.2 1107.75 L134.839 1107.75 L134.839 1111.68 L114.931 1111.68 L114.931 1107.75 Z" fill="#000000" fill-rule="nonzero" fill-opacity="1" /><path clip-path="url(#clip090)" d="M154.283 1080.2 Q150.672 1080.2 148.843 1083.77 Q147.038 1087.31 147.038 1094.44 Q147.038 1101.54 148.843 1105.11 Q150.672 1108.65 154.283 1108.65 Q157.917 1108.65 159.723 1105.11 Q161.552 1101.54 161.552 1094.44 Q161.552 1087.31 159.723 1083.77 Q157.917 1080.2 154.283 1080.2 M154.283 1076.5 Q160.093 1076.5 163.149 1081.1 Q166.227 1085.69 166.227 1094.44 Q166.227 1103.16 163.149 1107.77 Q160.093 1112.35 154.283 1112.35 Q148.473 1112.35 145.394 1107.77 Q142.339 1103.16 142.339 1094.44 Q142.339 1085.69 145.394 1081.1 Q148.473 1076.5 154.283 1076.5 Z" fill="#000000" fill-rule="nonzero" fill-opacity="1" /><path clip-path="url(#clip090)" d="M166.227 1070.6 L190.339 1070.6 L190.339 1073.8 L166.227 1073.8 L166.227 1070.6 Z" fill="#000000" fill-rule="nonzero" fill-opacity="1" /><path clip-path="url(#clip090)" d="M199.197 1081.08 L205.404 1081.08 L205.404 1059.65 L198.652 1061.01 L198.652 1057.55 L205.366 1056.19 L209.166 1056.19 L209.166 1081.08 L215.372 1081.08 L215.372 1084.27 L199.197 1084.27 L199.197 1081.08 Z" fill="#000000" fill-rule="nonzero" fill-opacity="1" /><path clip-path="url(#clip090)" d="M231.171 1058.69 Q228.237 1058.69 226.751 1061.59 Q225.284 1064.47 225.284 1070.26 Q225.284 1076.03 226.751 1078.93 Q228.237 1081.81 231.171 1081.81 Q234.124 1081.81 235.591 1078.93 Q237.076 1076.03 237.076 1070.26 Q237.076 1064.47 235.591 1061.59 Q234.124 1058.69 231.171 1058.69 M231.171 1055.68 Q235.891 1055.68 238.374 1059.43 Q240.876 1063.15 240.876 1070.26 Q240.876 1077.35 238.374 1081.09 Q235.891 1084.82 231.171 1084.82 Q226.45 1084.82 223.949 1081.09 Q221.466 1077.35 221.466 1070.26 Q221.466 1063.15 223.949 1059.43 Q226.45 1055.68 231.171 1055.68 Z" fill="#000000" fill-rule="nonzero" fill-opacity="1" /><path clip-path="url(#clip090)" d="M140.247 304.203 L147.886 304.203 L147.886 277.837 L139.575 279.504 L139.575 275.245 L147.839 273.578 L152.515 273.578 L152.515 304.203 L160.154 304.203 L160.154 308.138 L140.247 308.138 L140.247 304.203 Z" fill="#000000" fill-rule="nonzero" fill-opacity="1" /><path clip-path="url(#clip090)" d="M179.598 276.657 Q175.987 276.657 174.159 280.222 Q172.353 283.763 172.353 290.893 Q172.353 297.999 174.159 301.564 Q175.987 305.106 179.598 305.106 Q183.233 305.106 185.038 301.564 Q186.867 297.999 186.867 290.893 Q186.867 283.763 185.038 280.222 Q183.233 276.657 179.598 276.657 M179.598 272.953 Q185.409 272.953 188.464 277.56 Q191.543 282.143 191.543 290.893 Q191.543 299.62 188.464 304.226 Q185.409 308.809 179.598 308.809 Q173.788 308.809 170.71 304.226 Q167.654 299.62 167.654 290.893 Q167.654 282.143 170.71 277.56 Q173.788 272.953 179.598 272.953 Z" fill="#000000" fill-rule="nonzero" fill-opacity="1" /><path clip-path="url(#clip090)" d="M191.543 267.054 L215.654 267.054 L215.654 270.252 L191.543 270.252 L191.543 267.054 Z" fill="#000000" fill-rule="nonzero" fill-opacity="1" /><path clip-path="url(#clip090)" d="M223.892 252.648 L238.807 252.648 L238.807 255.845 L227.372 255.845 L227.372 262.729 Q228.199 262.447 229.027 262.315 Q229.854 262.164 230.682 262.164 Q235.384 262.164 238.13 264.741 Q240.876 267.318 240.876 271.719 Q240.876 276.251 238.054 278.772 Q235.233 281.273 230.099 281.273 Q228.331 281.273 226.488 280.972 Q224.663 280.671 222.707 280.069 L222.707 276.251 Q224.4 277.173 226.205 277.624 Q228.011 278.076 230.023 278.076 Q233.277 278.076 235.177 276.364 Q237.076 274.653 237.076 271.719 Q237.076 268.785 235.177 267.073 Q233.277 265.362 230.023 265.362 Q228.5 265.362 226.977 265.7 Q225.472 266.039 223.892 266.753 L223.892 252.648 Z" fill="#000000" fill-rule="nonzero" fill-opacity="1" /><path clip-path="url(#clip090)" d="M16.4842 822.917 L16.4842 792.871 L21.895 792.871 L21.895 816.487 L35.9632 816.487 L35.9632 793.857 L41.3741 793.857 L41.3741 816.487 L58.5933 816.487 L58.5933 792.298 L64.0042 792.298 L64.0042 822.917 L16.4842 822.917 Z" fill="#000000" fill-rule="nonzero" fill-opacity="1" /><path clip-path="url(#clip090)" d="M33.8307 761.329 Q33.2578 762.315 33.0032 763.493 Q32.7167 764.639 32.7167 766.039 Q32.7167 771.004 35.9632 773.678 Q39.1779 776.32 45.2253 776.32 L64.0042 776.32 L64.0042 782.208 L28.3562 782.208 L28.3562 776.32 L33.8944 776.32 Q30.6479 774.474 29.0883 771.514 Q27.4968 768.554 27.4968 764.32 Q27.4968 763.716 27.5923 762.984 Q27.656 762.252 27.8151 761.36 L33.8307 761.329 Z" fill="#000000" fill-rule="nonzero" fill-opacity="1" /><path clip-path="url(#clip090)" d="M33.8307 735.675 Q33.2578 736.661 33.0032 737.839 Q32.7167 738.985 32.7167 740.385 Q32.7167 745.351 35.9632 748.024 Q39.1779 750.666 45.2253 750.666 L64.0042 750.666 L64.0042 756.554 L28.3562 756.554 L28.3562 750.666 L33.8944 750.666 Q30.6479 748.82 29.0883 745.86 Q27.4968 742.9 27.4968 738.667 Q27.4968 738.062 27.5923 737.33 Q27.656 736.598 27.8151 735.707 L33.8307 735.675 Z" fill="#000000" fill-rule="nonzero" fill-opacity="1" /><path clip-path="url(#clip090)" d="M32.4621 717.151 Q32.4621 721.861 36.1542 724.598 Q39.8145 727.336 46.212 727.336 Q52.6095 727.336 56.3017 724.63 Q59.9619 721.893 59.9619 717.151 Q59.9619 712.472 56.2698 709.735 Q52.5777 706.997 46.212 706.997 Q39.8781 706.997 36.186 709.735 Q32.4621 712.472 32.4621 717.151 M27.4968 717.151 Q27.4968 709.512 32.4621 705.151 Q37.4273 700.791 46.212 700.791 Q54.9649 700.791 59.9619 705.151 Q64.9272 709.512 64.9272 717.151 Q64.9272 724.821 59.9619 729.182 Q54.9649 733.51 46.212 733.51 Q37.4273 733.51 32.4621 729.182 Q27.4968 724.821 27.4968 717.151 Z" fill="#000000" fill-rule="nonzero" fill-opacity="1" /><path clip-path="url(#clip090)" d="M33.8307 670.426 Q33.2578 671.413 33.0032 672.591 Q32.7167 673.736 32.7167 675.137 Q32.7167 680.102 35.9632 682.776 Q39.1779 685.418 45.2253 685.418 L64.0042 685.418 L64.0042 691.306 L28.3562 691.306 L28.3562 685.418 L33.8944 685.418 Q30.6479 683.571 29.0883 680.611 Q27.4968 677.651 27.4968 673.418 Q27.4968 672.813 27.5923 672.081 Q27.656 671.349 27.8151 670.458 L33.8307 670.426 Z" fill="#000000" fill-rule="nonzero" fill-opacity="1" /><path clip-path="url(#clip090)" d="M44.7161 635.224 L47.5806 635.224 L47.5806 662.151 Q53.6281 661.769 56.8109 658.522 Q59.9619 655.244 59.9619 649.419 Q59.9619 646.046 59.1344 642.895 Q58.3069 639.712 56.6518 636.593 L62.1899 636.593 Q63.5267 639.744 64.227 643.054 Q64.9272 646.364 64.9272 649.77 Q64.9272 658.3 59.9619 663.297 Q54.9967 668.262 46.5303 668.262 Q37.7774 668.262 32.6531 663.551 Q27.4968 658.809 27.4968 650.788 Q27.4968 643.595 32.1438 639.425 Q36.7589 635.224 44.7161 635.224 M42.9973 641.08 Q38.1912 641.144 35.3266 643.786 Q32.4621 646.396 32.4621 650.724 Q32.4621 655.626 35.2312 658.586 Q38.0002 661.514 43.0292 661.96 L42.9973 641.08 Z" fill="#000000" fill-rule="nonzero" fill-opacity="1" /><polyline clip-path="url(#clip092)" style="stroke:#009af9; stroke-linecap:round; stroke-linejoin:round; stroke-width:4; stroke-opacity:1; fill:none" points="335.627,85.838 630.392,279.969 1020.05,535.952 1314.82,729.489 1609.58,923.009 1999.24,1178.82 2294,1372.3 "/>
<path clip-path="url(#clip090)" d="M2023.54 196.379 L2283.56 196.379 L2283.56 92.6992 L2023.54 92.6992  Z" fill="#ffffff" fill-rule="evenodd" fill-opacity="1"/>
<polyline clip-path="url(#clip090)" style="stroke:#000000; stroke-linecap:round; stroke-linejoin:round; stroke-width:4; stroke-opacity:1; fill:none" points="2023.54,196.379 2283.56,196.379 2283.56,92.6992 2023.54,92.6992 2023.54,196.379 "/>
<polyline clip-path="url(#clip090)" style="stroke:#009af9; stroke-linecap:round; stroke-linejoin:round; stroke-width:4; stroke-opacity:1; fill:none" points="2046.61,144.539 2185,144.539 "/>
<path clip-path="url(#clip090)" d="M2221.91 164.227 Q2220.1 168.856 2218.39 170.268 Q2216.68 171.68 2213.8 171.68 L2210.4 171.68 L2210.4 168.115 L2212.9 168.115 Q2214.66 168.115 2215.63 167.282 Q2216.61 166.449 2217.79 163.347 L2218.55 161.403 L2208.06 135.893 L2212.58 135.893 L2220.68 156.171 L2228.78 135.893 L2233.3 135.893 L2221.91 164.227 Z" fill="#000000" fill-rule="nonzero" fill-opacity="1" /><path clip-path="url(#clip090)" d="M2240.59 157.884 L2248.23 157.884 L2248.23 131.518 L2239.92 133.185 L2239.92 128.926 L2248.18 127.259 L2252.86 127.259 L2252.86 157.884 L2260.49 157.884 L2260.49 161.819 L2240.59 161.819 L2240.59 157.884 Z" fill="#000000" fill-rule="nonzero" fill-opacity="1" /></svg>
