<?xml version="1.0" encoding="utf-8"?>
<svg xmlns="http://www.w3.org/2000/svg" xmlns:xlink="http://www.w3.org/1999/xlink" width="600" height="400" viewBox="0 0 2400 1600">
<defs>
  <clipPath id="clip640">
    <rect x="0" y="0" width="2400" height="1600"/>
  </clipPath>
</defs>
<path clip-path="url(#clip640)" d="M0 1600 L2400 1600 L2400 0 L0 0  Z" fill="#ffffff" fill-rule="evenodd" fill-opacity="1"/>
<defs>
  <clipPath id="clip641">
    <rect x="480" y="0" width="1681" height="1600"/>
  </clipPath>
</defs>
<path clip-path="url(#clip640)" d="M252.764 1410.9 L2352.76 1410.9 L2352.76 47.2441 L252.764 47.2441  Z" fill="#ffffff" fill-rule="evenodd" fill-opacity="1"/>
<defs>
  <clipPath id="clip642">
    <rect x="252" y="47" width="2101" height="1365"/>
  </clipPath>
</defs>
<polyline clip-path="url(#clip642)" style="stroke:#000000; stroke-linecap:round; stroke-linejoin:round; stroke-width:2; stroke-opacity:0.1; fill:none" points="807.479,1410.9 807.479,47.2441 "/>
<polyline clip-path="url(#clip642)" style="stroke:#000000; stroke-linecap:round; stroke-linejoin:round; stroke-width:2; stroke-opacity:0.1; fill:none" points="1798.04,1410.9 1798.04,47.2441 "/>
<polyline clip-path="url(#clip642)" style="stroke:#000000; stroke-linecap:round; stroke-linejoin:round; stroke-width:2; stroke-opacity:0.1; fill:none" points="252.764,923.32 2352.76,923.32 "/>
<polyline clip-path="url(#clip642)" style="stroke:#000000; stroke-linecap:round; stroke-linejoin:round; stroke-width:2; stroke-opacity:0.1; fill:none" points="252.764,364.999 2352.76,364.999 "/>
<polyline clip-path="url(#clip640)" style="stroke:#000000; stroke-linecap:round; stroke-linejoin:round; stroke-width:4; stroke-opacity:1; fill:none" points="252.764,1410.9 2352.76,1410.9 "/>
<polyline clip-path="url(#clip640)" style="stroke:#000000; stroke-linecap:round; stroke-linejoin:round; stroke-width:4; stroke-opacity:1; fill:none" points="807.479,1410.9 807.479,1392 "/>
<polyline clip-path="url(#clip640)" style="stroke:#000000; stroke-linecap:round; stroke-linejoin:round; stroke-width:4; stroke-opacity:1; fill:none" points="1798.04,1410.9 1798.04,1392 "/>
<path clip-path="url(#clip640)" d="M756.898 1485.02 L764.537 1485.02 L764.537 1458.66 L756.227 1460.32 L756.227 1456.06 L764.491 1454.4 L769.167 1454.4 L769.167 1485.02 L776.806 1485.02 L776.806 1488.96 L756.898 1488.96 L756.898 1485.02 Z" fill="#000000" fill-rule="nonzero" fill-opacity="1" /><path clip-path="url(#clip640)" d="M796.25 1457.48 Q792.639 1457.48 790.81 1461.04 Q789.005 1464.58 789.005 1471.71 Q789.005 1478.82 790.81 1482.38 Q792.639 1485.92 796.25 1485.92 Q799.884 1485.92 801.69 1482.38 Q803.518 1478.82 803.518 1471.71 Q803.518 1464.58 801.69 1461.04 Q799.884 1457.48 796.25 1457.48 M796.25 1453.77 Q802.06 1453.77 805.116 1458.38 Q808.194 1462.96 808.194 1471.71 Q808.194 1480.44 805.116 1485.04 Q802.06 1489.63 796.25 1489.63 Q790.44 1489.63 787.361 1485.04 Q784.305 1480.44 784.305 1471.71 Q784.305 1462.96 787.361 1458.38 Q790.44 1453.77 796.25 1453.77 Z" fill="#000000" fill-rule="nonzero" fill-opacity="1" /><path clip-path="url(#clip640)" d="M808.194 1447.87 L832.306 1447.87 L832.306 1451.07 L808.194 1451.07 L808.194 1447.87 Z" fill="#000000" fill-rule="nonzero" fill-opacity="1" /><path clip-path="url(#clip640)" d="M850.944 1436.78 L841.352 1451.77 L850.944 1451.77 L850.944 1436.78 M849.947 1433.47 L854.725 1433.47 L854.725 1451.77 L858.731 1451.77 L858.731 1454.93 L854.725 1454.93 L854.725 1461.55 L850.944 1461.55 L850.944 1454.93 L838.268 1454.93 L838.268 1451.26 L849.947 1433.47 Z" fill="#000000" fill-rule="nonzero" fill-opacity="1" /><path clip-path="url(#clip640)" d="M1748.31 1485.02 L1755.95 1485.02 L1755.95 1458.66 L1747.64 1460.32 L1747.64 1456.06 L1755.9 1454.4 L1760.58 1454.4 L1760.58 1485.02 L1768.21 1485.02 L1768.21 1488.96 L1748.31 1488.96 L1748.31 1485.02 Z" fill="#000000" fill-rule="nonzero" fill-opacity="1" /><path clip-path="url(#clip640)" d="M1787.66 1457.48 Q1784.05 1457.48 1782.22 1461.04 Q1780.41 1464.58 1780.41 1471.71 Q1780.41 1478.82 1782.22 1482.38 Q1784.05 1485.92 1787.66 1485.92 Q1791.29 1485.92 1793.1 1482.38 Q1794.93 1478.82 1794.93 1471.71 Q1794.93 1464.58 1793.1 1461.04 Q1791.29 1457.48 1787.66 1457.48 M1787.66 1453.77 Q1793.47 1453.77 1796.52 1458.38 Q1799.6 1462.96 1799.6 1471.71 Q1799.6 1480.44 1796.52 1485.04 Q1793.47 1489.63 1787.66 1489.63 Q1781.85 1489.63 1778.77 1485.04 Q1775.71 1480.44 1775.71 1471.71 Q1775.71 1462.96 1778.77 1458.38 Q1781.85 1453.77 1787.66 1453.77 Z" fill="#000000" fill-rule="nonzero" fill-opacity="1" /><path clip-path="url(#clip640)" d="M1799.6 1447.87 L1823.71 1447.87 L1823.71 1451.07 L1799.6 1451.07 L1799.6 1447.87 Z" fill="#000000" fill-rule="nonzero" fill-opacity="1" /><path clip-path="url(#clip640)" d="M1835.19 1458.35 L1848.45 1458.35 L1848.45 1461.55 L1830.62 1461.55 L1830.62 1458.35 Q1832.78 1456.11 1836.5 1452.35 Q1840.25 1448.57 1841.21 1447.48 Q1843.03 1445.43 1843.74 1444.02 Q1844.48 1442.59 1844.48 1441.22 Q1844.48 1438.98 1842.9 1437.57 Q1841.34 1436.16 1838.82 1436.16 Q1837.03 1436.16 1835.04 1436.78 Q1833.06 1437.4 1830.8 1438.66 L1830.8 1434.82 Q1833.1 1433.9 1835.09 1433.43 Q1837.09 1432.96 1838.74 1432.96 Q1843.11 1432.96 1845.7 1435.14 Q1848.3 1437.32 1848.3 1440.97 Q1848.3 1442.7 1847.64 1444.26 Q1847 1445.8 1845.29 1447.91 Q1844.82 1448.46 1842.3 1451.07 Q1839.78 1453.67 1835.19 1458.35 Z" fill="#000000" fill-rule="nonzero" fill-opacity="1" /><path clip-path="url(#clip640)" d="M975.594 1531.95 L975.594 1549.8 L983.679 1549.8 Q988.167 1549.8 990.618 1547.48 Q993.068 1545.16 993.068 1540.86 Q993.068 1536.6 990.618 1534.27 Q988.167 1531.95 983.679 1531.95 L975.594 1531.95 M969.165 1526.67 L983.679 1526.67 Q991.668 1526.67 995.742 1530.29 Q999.848 1533.89 999.848 1540.86 Q999.848 1547.9 995.742 1551.49 Q991.668 1555.09 983.679 1555.09 L975.594 1555.09 L975.594 1574.19 L969.165 1574.19 L969.165 1526.67 Z" fill="#000000" fill-rule="nonzero" fill-opacity="1" /><path clip-path="url(#clip640)" d="M1027.73 1544.01 Q1026.74 1543.44 1025.57 1543.18 Q1024.42 1542.9 1023.02 1542.9 Q1018.05 1542.9 1015.38 1546.14 Q1012.74 1549.36 1012.74 1555.41 L1012.74 1574.19 L1006.85 1574.19 L1006.85 1538.54 L1012.74 1538.54 L1012.74 1544.08 Q1014.58 1540.83 1017.54 1539.27 Q1020.5 1537.68 1024.74 1537.68 Q1025.34 1537.68 1026.07 1537.77 Q1026.81 1537.84 1027.7 1538 L1027.73 1544.01 Z" fill="#000000" fill-rule="nonzero" fill-opacity="1" /><path clip-path="url(#clip640)" d="M1062.93 1554.9 L1062.93 1557.76 L1036 1557.76 Q1036.39 1563.81 1039.63 1566.99 Q1042.91 1570.14 1048.74 1570.14 Q1052.11 1570.14 1055.26 1569.32 Q1058.44 1568.49 1061.56 1566.83 L1061.56 1572.37 Q1058.41 1573.71 1055.1 1574.41 Q1051.79 1575.11 1048.39 1575.11 Q1039.86 1575.11 1034.86 1570.14 Q1029.89 1565.18 1029.89 1556.71 Q1029.89 1547.96 1034.6 1542.83 Q1039.35 1537.68 1047.37 1537.68 Q1054.56 1537.68 1058.73 1542.33 Q1062.93 1546.94 1062.93 1554.9 M1057.08 1553.18 Q1057.01 1548.37 1054.37 1545.51 Q1051.76 1542.64 1047.43 1542.64 Q1042.53 1542.64 1039.57 1545.41 Q1036.64 1548.18 1036.2 1553.21 L1057.08 1553.18 Z" fill="#000000" fill-rule="nonzero" fill-opacity="1" /><path clip-path="url(#clip640)" d="M1098.2 1539.91 L1098.2 1545.38 Q1095.72 1544.01 1093.2 1543.34 Q1090.72 1542.64 1088.17 1542.64 Q1082.47 1542.64 1079.32 1546.27 Q1076.17 1549.87 1076.17 1556.39 Q1076.17 1562.92 1079.32 1566.55 Q1082.47 1570.14 1088.17 1570.14 Q1090.72 1570.14 1093.2 1569.47 Q1095.72 1568.77 1098.2 1567.41 L1098.2 1572.82 Q1095.75 1573.96 1093.11 1574.54 Q1090.5 1575.11 1087.54 1575.11 Q1079.48 1575.11 1074.74 1570.05 Q1070 1564.99 1070 1556.39 Q1070 1547.67 1074.77 1542.68 Q1079.58 1537.68 1087.92 1537.68 Q1090.62 1537.68 1093.2 1538.25 Q1095.78 1538.79 1098.2 1539.91 Z" fill="#000000" fill-rule="nonzero" fill-opacity="1" /><path clip-path="url(#clip640)" d="M1108.38 1538.54 L1114.24 1538.54 L1114.24 1574.19 L1108.38 1574.19 L1108.38 1538.54 M1108.38 1524.66 L1114.24 1524.66 L1114.24 1532.08 L1108.38 1532.08 L1108.38 1524.66 Z" fill="#000000" fill-rule="nonzero" fill-opacity="1" /><path clip-path="url(#clip640)" d="M1149.22 1539.59 L1149.22 1545.13 Q1146.74 1543.85 1144.06 1543.22 Q1141.39 1542.58 1138.52 1542.58 Q1134.16 1542.58 1131.97 1543.92 Q1129.8 1545.25 1129.8 1547.93 Q1129.8 1549.96 1131.36 1551.14 Q1132.92 1552.29 1137.63 1553.34 L1139.64 1553.78 Q1145.88 1555.12 1148.49 1557.57 Q1151.13 1559.99 1151.13 1564.35 Q1151.13 1569.32 1147.18 1572.21 Q1143.27 1575.11 1136.39 1575.11 Q1133.53 1575.11 1130.41 1574.54 Q1127.32 1573.99 1123.88 1572.88 L1123.88 1566.83 Q1127.13 1568.52 1130.28 1569.38 Q1133.43 1570.21 1136.52 1570.21 Q1140.66 1570.21 1142.89 1568.81 Q1145.11 1567.37 1145.11 1564.8 Q1145.11 1562.41 1143.49 1561.14 Q1141.9 1559.86 1136.46 1558.68 L1134.42 1558.21 Q1128.98 1557.06 1126.56 1554.71 Q1124.14 1552.32 1124.14 1548.18 Q1124.14 1543.15 1127.7 1540.42 Q1131.27 1537.68 1137.82 1537.68 Q1141.07 1537.68 1143.94 1538.16 Q1146.8 1538.63 1149.22 1539.59 Z" fill="#000000" fill-rule="nonzero" fill-opacity="1" /><path clip-path="url(#clip640)" d="M1160.45 1538.54 L1166.31 1538.54 L1166.31 1574.19 L1160.45 1574.19 L1160.45 1538.54 M1160.45 1524.66 L1166.31 1524.66 L1166.31 1532.08 L1160.45 1532.08 L1160.45 1524.66 Z" fill="#000000" fill-rule="nonzero" fill-opacity="1" /><path clip-path="url(#clip640)" d="M1192.38 1542.64 Q1187.67 1542.64 1184.93 1546.34 Q1182.19 1550 1182.19 1556.39 Q1182.19 1562.79 1184.9 1566.48 Q1187.64 1570.14 1192.38 1570.14 Q1197.06 1570.14 1199.79 1566.45 Q1202.53 1562.76 1202.53 1556.39 Q1202.53 1550.06 1199.79 1546.37 Q1197.06 1542.64 1192.38 1542.64 M1192.38 1537.68 Q1200.02 1537.68 1204.38 1542.64 Q1208.74 1547.61 1208.74 1556.39 Q1208.74 1565.15 1204.38 1570.14 Q1200.02 1575.11 1192.38 1575.11 Q1184.71 1575.11 1180.35 1570.14 Q1176.02 1565.15 1176.02 1556.39 Q1176.02 1547.61 1180.35 1542.64 Q1184.71 1537.68 1192.38 1537.68 Z" fill="#000000" fill-rule="nonzero" fill-opacity="1" /><path clip-path="url(#clip640)" d="M1248.08 1552.67 L1248.08 1574.19 L1242.22 1574.19 L1242.22 1552.86 Q1242.22 1547.8 1240.25 1545.29 Q1238.28 1542.77 1234.33 1542.77 Q1229.59 1542.77 1226.85 1545.79 Q1224.11 1548.82 1224.11 1554.04 L1224.11 1574.19 L1218.22 1574.19 L1218.22 1538.54 L1224.11 1538.54 L1224.11 1544.08 Q1226.21 1540.86 1229.05 1539.27 Q1231.91 1537.68 1235.63 1537.68 Q1241.78 1537.68 1244.93 1541.5 Q1248.08 1545.29 1248.08 1552.67 Z" fill="#000000" fill-rule="nonzero" fill-opacity="1" /><path clip-path="url(#clip640)" d="M1290.25 1554.9 L1290.25 1557.76 L1263.32 1557.76 Q1263.71 1563.81 1266.95 1566.99 Q1270.23 1570.14 1276.06 1570.14 Q1279.43 1570.14 1282.58 1569.32 Q1285.76 1568.49 1288.88 1566.83 L1288.88 1572.37 Q1285.73 1573.71 1282.42 1574.41 Q1279.11 1575.11 1275.71 1575.11 Q1267.18 1575.11 1262.18 1570.14 Q1257.21 1565.18 1257.21 1556.71 Q1257.21 1547.96 1261.92 1542.83 Q1266.67 1537.68 1274.69 1537.68 Q1281.88 1537.68 1286.05 1542.33 Q1290.25 1546.94 1290.25 1554.9 M1284.39 1553.18 Q1284.33 1548.37 1281.69 1545.51 Q1279.08 1542.64 1274.75 1542.64 Q1269.85 1542.64 1266.89 1545.41 Q1263.96 1548.18 1263.52 1553.21 L1284.39 1553.18 Z" fill="#000000" fill-rule="nonzero" fill-opacity="1" /><path clip-path="url(#clip640)" d="M1320.58 1538.54 L1326.44 1538.54 L1326.44 1574.19 L1320.58 1574.19 L1320.58 1538.54 M1320.58 1524.66 L1326.44 1524.66 L1326.44 1532.08 L1320.58 1532.08 L1320.58 1524.66 Z" fill="#000000" fill-rule="nonzero" fill-opacity="1" /><path clip-path="url(#clip640)" d="M1366.45 1545.38 Q1368.64 1541.43 1371.7 1539.56 Q1374.76 1537.68 1378.89 1537.68 Q1384.46 1537.68 1387.49 1541.59 Q1390.51 1545.48 1390.51 1552.67 L1390.51 1574.19 L1384.62 1574.19 L1384.62 1552.86 Q1384.62 1547.74 1382.81 1545.25 Q1380.99 1542.77 1377.27 1542.77 Q1372.72 1542.77 1370.08 1545.79 Q1367.44 1548.82 1367.44 1554.04 L1367.44 1574.19 L1361.55 1574.19 L1361.55 1552.86 Q1361.55 1547.7 1359.73 1545.25 Q1357.92 1542.77 1354.13 1542.77 Q1349.64 1542.77 1347 1545.83 Q1344.36 1548.85 1344.36 1554.04 L1344.36 1574.19 L1338.47 1574.19 L1338.47 1538.54 L1344.36 1538.54 L1344.36 1544.08 Q1346.37 1540.8 1349.17 1539.24 Q1351.97 1537.68 1355.82 1537.68 Q1359.7 1537.68 1362.41 1539.65 Q1365.14 1541.62 1366.45 1545.38 Z" fill="#000000" fill-rule="nonzero" fill-opacity="1" /><path clip-path="url(#clip640)" d="M1407.86 1568.84 L1407.86 1587.74 L1401.97 1587.74 L1401.97 1538.54 L1407.86 1538.54 L1407.86 1543.95 Q1409.7 1540.77 1412.5 1539.24 Q1415.34 1537.68 1419.25 1537.68 Q1425.75 1537.68 1429.79 1542.83 Q1433.86 1547.99 1433.86 1556.39 Q1433.86 1564.8 1429.79 1569.95 Q1425.75 1575.11 1419.25 1575.11 Q1415.34 1575.11 1412.5 1573.58 Q1409.7 1572.02 1407.86 1568.84 M1427.78 1556.39 Q1427.78 1549.93 1425.11 1546.27 Q1422.47 1542.58 1417.82 1542.58 Q1413.17 1542.58 1410.5 1546.27 Q1407.86 1549.93 1407.86 1556.39 Q1407.86 1562.85 1410.5 1566.55 Q1413.17 1570.21 1417.82 1570.21 Q1422.47 1570.21 1425.11 1566.55 Q1427.78 1562.85 1427.78 1556.39 Z" fill="#000000" fill-rule="nonzero" fill-opacity="1" /><path clip-path="url(#clip640)" d="M1457.38 1542.64 Q1452.67 1542.64 1449.94 1546.34 Q1447.2 1550 1447.2 1556.39 Q1447.2 1562.79 1449.9 1566.48 Q1452.64 1570.14 1457.38 1570.14 Q1462.06 1570.14 1464.8 1566.45 Q1467.54 1562.76 1467.54 1556.39 Q1467.54 1550.06 1464.8 1546.37 Q1462.06 1542.64 1457.38 1542.64 M1457.38 1537.68 Q1465.02 1537.68 1469.38 1542.64 Q1473.74 1547.61 1473.74 1556.39 Q1473.74 1565.15 1469.38 1570.14 Q1465.02 1575.11 1457.38 1575.11 Q1449.71 1575.11 1445.35 1570.14 Q1441.02 1565.15 1441.02 1556.39 Q1441.02 1547.61 1445.35 1542.64 Q1449.71 1537.68 1457.38 1537.68 Z" fill="#000000" fill-rule="nonzero" fill-opacity="1" /><path clip-path="url(#clip640)" d="M1506.18 1539.59 L1506.18 1545.13 Q1503.69 1543.85 1501.02 1543.22 Q1498.35 1542.58 1495.48 1542.58 Q1491.12 1542.58 1488.93 1543.92 Q1486.76 1545.25 1486.76 1547.93 Q1486.76 1549.96 1488.32 1551.14 Q1489.88 1552.29 1494.59 1553.34 L1496.6 1553.78 Q1502.83 1555.12 1505.44 1557.57 Q1508.09 1559.99 1508.09 1564.35 Q1508.09 1569.32 1504.14 1572.21 Q1500.22 1575.11 1493.35 1575.11 Q1490.48 1575.11 1487.37 1574.54 Q1484.28 1573.99 1480.84 1572.88 L1480.84 1566.83 Q1484.09 1568.52 1487.24 1569.38 Q1490.39 1570.21 1493.48 1570.21 Q1497.61 1570.21 1499.84 1568.81 Q1502.07 1567.37 1502.07 1564.8 Q1502.07 1562.41 1500.45 1561.14 Q1498.86 1559.86 1493.41 1558.68 L1491.38 1558.21 Q1485.93 1557.06 1483.51 1554.71 Q1481.1 1552.32 1481.1 1548.18 Q1481.1 1543.15 1484.66 1540.42 Q1488.22 1537.68 1494.78 1537.68 Q1498.03 1537.68 1500.89 1538.16 Q1503.76 1538.63 1506.18 1539.59 Z" fill="#000000" fill-rule="nonzero" fill-opacity="1" /><path clip-path="url(#clip640)" d="M1523.2 1528.42 L1523.2 1538.54 L1535.27 1538.54 L1535.27 1543.09 L1523.2 1543.09 L1523.2 1562.44 Q1523.2 1566.8 1524.38 1568.04 Q1525.59 1569.28 1529.25 1569.28 L1535.27 1569.28 L1535.27 1574.19 L1529.25 1574.19 Q1522.47 1574.19 1519.89 1571.67 Q1517.32 1569.12 1517.32 1562.44 L1517.32 1543.09 L1513.02 1543.09 L1513.02 1538.54 L1517.32 1538.54 L1517.32 1528.42 L1523.2 1528.42 Z" fill="#000000" fill-rule="nonzero" fill-opacity="1" /><path clip-path="url(#clip640)" d="M1559.17 1556.27 Q1552.07 1556.27 1549.34 1557.89 Q1546.6 1559.51 1546.6 1563.43 Q1546.6 1566.55 1548.64 1568.39 Q1550.7 1570.21 1554.24 1570.21 Q1559.11 1570.21 1562.04 1566.77 Q1565 1563.3 1565 1557.57 L1565 1556.27 L1559.17 1556.27 M1570.85 1553.85 L1570.85 1574.19 L1565 1574.19 L1565 1568.77 Q1562.99 1572.02 1560 1573.58 Q1557.01 1575.11 1552.68 1575.11 Q1547.2 1575.11 1543.96 1572.05 Q1540.74 1568.97 1540.74 1563.81 Q1540.74 1557.79 1544.75 1554.74 Q1548.79 1551.68 1556.78 1551.68 L1565 1551.68 L1565 1551.11 Q1565 1547.07 1562.32 1544.87 Q1559.68 1542.64 1554.87 1542.64 Q1551.82 1542.64 1548.92 1543.38 Q1546.03 1544.11 1543.35 1545.57 L1543.35 1540.16 Q1546.57 1538.92 1549.59 1538.31 Q1552.61 1537.68 1555.48 1537.68 Q1563.21 1537.68 1567.03 1541.69 Q1570.85 1545.7 1570.85 1553.85 Z" fill="#000000" fill-rule="nonzero" fill-opacity="1" /><path clip-path="url(#clip640)" d="M1588.71 1528.42 L1588.71 1538.54 L1600.77 1538.54 L1600.77 1543.09 L1588.71 1543.09 L1588.71 1562.44 Q1588.71 1566.8 1589.89 1568.04 Q1591.09 1569.28 1594.75 1569.28 L1600.77 1569.28 L1600.77 1574.19 L1594.75 1574.19 Q1587.98 1574.19 1585.4 1571.67 Q1582.82 1569.12 1582.82 1562.44 L1582.82 1543.09 L1578.52 1543.09 L1578.52 1538.54 L1582.82 1538.54 L1582.82 1528.42 L1588.71 1528.42 Z" fill="#000000" fill-rule="nonzero" fill-opacity="1" /><path clip-path="url(#clip640)" d="M1624.67 1556.27 Q1617.58 1556.27 1614.84 1557.89 Q1612.1 1559.51 1612.1 1563.43 Q1612.1 1566.55 1614.14 1568.39 Q1616.21 1570.21 1619.74 1570.21 Q1624.61 1570.21 1627.54 1566.77 Q1630.5 1563.3 1630.5 1557.57 L1630.5 1556.27 L1624.67 1556.27 M1636.35 1553.85 L1636.35 1574.19 L1630.5 1574.19 L1630.5 1568.77 Q1628.49 1572.02 1625.5 1573.58 Q1622.51 1575.11 1618.18 1575.11 Q1612.71 1575.11 1609.46 1572.05 Q1606.24 1568.97 1606.24 1563.81 Q1606.24 1557.79 1610.26 1554.74 Q1614.3 1551.68 1622.29 1551.68 L1630.5 1551.68 L1630.5 1551.11 Q1630.5 1547.07 1627.82 1544.87 Q1625.18 1542.64 1620.38 1542.64 Q1617.32 1542.64 1614.42 1543.38 Q1611.53 1544.11 1608.85 1545.57 L1608.85 1540.16 Q1612.07 1538.92 1615.09 1538.31 Q1618.12 1537.68 1620.98 1537.68 Q1628.72 1537.68 1632.54 1541.69 Q1636.35 1545.7 1636.35 1553.85 Z" fill="#000000" fill-rule="nonzero" fill-opacity="1" /><polyline clip-path="url(#clip640)" style="stroke:#000000; stroke-linecap:round; stroke-linejoin:round; stroke-width:4; stroke-opacity:1; fill:none" points="252.764,1410.9 252.764,47.2441 "/>
<polyline clip-path="url(#clip640)" style="stroke:#000000; stroke-linecap:round; stroke-linejoin:round; stroke-width:4; stroke-opacity:1; fill:none" points="252.764,923.32 271.662,923.32 "/>
<polyline clip-path="url(#clip640)" style="stroke:#000000; stroke-linecap:round; stroke-linejoin:round; stroke-width:4; stroke-opacity:1; fill:none" points="252.764,364.999 271.662,364.999 "/>
<path clip-path="url(#clip640)" d="M114.931 943.112 L122.57 943.112 L122.57 916.747 L114.26 918.413 L114.26 914.154 L122.524 912.487 L127.2 912.487 L127.2 943.112 L134.839 943.112 L134.839 947.047 L114.931 947.047 L114.931 943.112 Z" fill="#000000" fill-rule="nonzero" fill-opacity="1" /><path clip-path="url(#clip640)" d="M154.283 915.566 Q150.672 915.566 148.843 919.131 Q147.038 922.673 147.038 929.802 Q147.038 936.909 148.843 940.473 Q150.672 944.015 154.283 944.015 Q157.917 944.015 159.723 940.473 Q161.552 936.909 161.552 929.802 Q161.552 922.673 159.723 919.131 Q157.917 915.566 154.283 915.566 M154.283 911.862 Q160.093 911.862 163.149 916.469 Q166.227 921.052 166.227 929.802 Q166.227 938.529 163.149 943.135 Q160.093 947.719 154.283 947.719 Q148.473 947.719 145.394 943.135 Q142.339 938.529 142.339 929.802 Q142.339 921.052 145.394 916.469 Q148.473 911.862 154.283 911.862 Z" fill="#000000" fill-rule="nonzero" fill-opacity="1" /><path clip-path="url(#clip640)" d="M166.227 905.964 L190.339 905.964 L190.339 909.161 L166.227 909.161 L166.227 905.964 Z" fill="#000000" fill-rule="nonzero" fill-opacity="1" /><path clip-path="url(#clip640)" d="M208.978 894.867 L199.386 909.857 L208.978 909.857 L208.978 894.867 M207.981 891.557 L212.758 891.557 L212.758 909.857 L216.764 909.857 L216.764 913.017 L212.758 913.017 L212.758 919.637 L208.978 919.637 L208.978 913.017 L196.301 913.017 L196.301 909.349 L207.981 891.557 Z" fill="#000000" fill-rule="nonzero" fill-opacity="1" /><path clip-path="url(#clip640)" d="M116.624 384.791 L124.263 384.791 L124.263 358.425 L115.953 360.092 L115.953 355.833 L124.217 354.166 L128.893 354.166 L128.893 384.791 L136.531 384.791 L136.531 388.726 L116.624 388.726 L116.624 384.791 Z" fill="#000000" fill-rule="nonzero" fill-opacity="1" /><path clip-path="url(#clip640)" d="M155.976 357.245 Q152.365 357.245 150.536 360.81 Q148.73 364.351 148.73 371.481 Q148.73 378.587 150.536 382.152 Q152.365 385.694 155.976 385.694 Q159.61 385.694 161.416 382.152 Q163.244 378.587 163.244 371.481 Q163.244 364.351 161.416 360.81 Q159.61 357.245 155.976 357.245 M155.976 353.541 Q161.786 353.541 164.841 358.148 Q167.92 362.731 167.92 371.481 Q167.92 380.208 164.841 384.814 Q161.786 389.398 155.976 389.398 Q150.166 389.398 147.087 384.814 Q144.031 380.208 144.031 371.481 Q144.031 362.731 147.087 358.148 Q150.166 353.541 155.976 353.541 Z" fill="#000000" fill-rule="nonzero" fill-opacity="1" /><path clip-path="url(#clip640)" d="M167.92 347.643 L192.032 347.643 L192.032 350.84 L167.92 350.84 L167.92 347.643 Z" fill="#000000" fill-rule="nonzero" fill-opacity="1" /><path clip-path="url(#clip640)" d="M203.504 358.119 L216.764 358.119 L216.764 361.316 L198.934 361.316 L198.934 358.119 Q201.097 355.88 204.821 352.119 Q208.564 348.338 209.523 347.248 Q211.347 345.198 212.062 343.787 Q212.796 342.358 212.796 340.985 Q212.796 338.747 211.216 337.336 Q209.655 335.925 207.134 335.925 Q205.348 335.925 203.354 336.546 Q201.379 337.167 199.122 338.427 L199.122 334.59 Q201.417 333.668 203.41 333.198 Q205.404 332.728 207.059 332.728 Q211.423 332.728 214.018 334.91 Q216.613 337.091 216.613 340.74 Q216.613 342.47 215.955 344.032 Q215.316 345.574 213.604 347.68 Q213.134 348.226 210.614 350.84 Q208.094 353.435 203.504 358.119 Z" fill="#000000" fill-rule="nonzero" fill-opacity="1" /><path clip-path="url(#clip640)" d="M21.7677 1031.93 L39.6235 1031.93 L39.6235 1023.85 Q39.6235 1019.36 37.3 1016.91 Q34.9765 1014.46 30.6797 1014.46 Q26.4147 1014.46 24.0912 1016.91 Q21.7677 1019.36 21.7677 1023.85 L21.7677 1031.93 M16.4842 1038.36 L16.4842 1023.85 Q16.4842 1015.86 20.1126 1011.79 Q23.7092 1007.68 30.6797 1007.68 Q37.7138 1007.68 41.3104 1011.79 Q44.907 1015.86 44.907 1023.85 L44.907 1031.93 L64.0042 1031.93 L64.0042 1038.36 L16.4842 1038.36 Z" fill="#000000" fill-rule="nonzero" fill-opacity="1" /><path clip-path="url(#clip640)" d="M33.8307 979.8 Q33.2578 980.786 33.0032 981.964 Q32.7167 983.11 32.7167 984.51 Q32.7167 989.476 35.9632 992.149 Q39.1779 994.791 45.2253 994.791 L64.0042 994.791 L64.0042 1000.68 L28.3562 1000.68 L28.3562 994.791 L33.8944 994.791 Q30.6479 992.945 29.0883 989.985 Q27.4968 987.025 27.4968 982.792 Q27.4968 982.187 27.5923 981.455 Q27.656 980.723 27.8151 979.831 L33.8307 979.8 Z" fill="#000000" fill-rule="nonzero" fill-opacity="1" /><path clip-path="url(#clip640)" d="M44.7161 944.597 L47.5806 944.597 L47.5806 971.524 Q53.6281 971.142 56.8109 967.896 Q59.9619 964.617 59.9619 958.793 Q59.9619 955.419 59.1344 952.268 Q58.3069 949.085 56.6518 945.966 L62.1899 945.966 Q63.5267 949.117 64.227 952.427 Q64.9272 955.737 64.9272 959.143 Q64.9272 967.673 59.9619 972.67 Q54.9967 977.635 46.5303 977.635 Q37.7774 977.635 32.6531 972.925 Q27.4968 968.182 27.4968 960.161 Q27.4968 952.968 32.1438 948.799 Q36.7589 944.597 44.7161 944.597 M42.9973 950.454 Q38.1912 950.517 35.3266 953.159 Q32.4621 955.769 32.4621 960.098 Q32.4621 964.999 35.2312 967.959 Q38.0002 970.888 43.0292 971.333 L42.9973 950.454 Z" fill="#000000" fill-rule="nonzero" fill-opacity="1" /><path clip-path="url(#clip640)" d="M29.7248 909.331 L35.1993 909.331 Q33.8307 911.814 33.1623 914.328 Q32.4621 916.811 32.4621 919.357 Q32.4621 925.055 36.0905 928.206 Q39.6872 931.357 46.212 931.357 Q52.7369 931.357 56.3653 928.206 Q59.9619 925.055 59.9619 919.357 Q59.9619 916.811 59.2935 914.328 Q58.5933 911.814 57.2247 909.331 L62.6355 909.331 Q63.7814 911.782 64.3543 914.424 Q64.9272 917.034 64.9272 919.994 Q64.9272 928.046 59.8664 932.789 Q54.8057 937.531 46.212 937.531 Q37.491 937.531 32.4939 932.757 Q27.4968 927.951 27.4968 919.612 Q27.4968 916.906 28.0697 914.328 Q28.6108 911.75 29.7248 909.331 Z" fill="#000000" fill-rule="nonzero" fill-opacity="1" /><path clip-path="url(#clip640)" d="M28.3562 899.146 L28.3562 893.29 L64.0042 893.29 L64.0042 899.146 L28.3562 899.146 M14.479 899.146 L14.479 893.29 L21.895 893.29 L21.895 899.146 L14.479 899.146 Z" fill="#000000" fill-rule="nonzero" fill-opacity="1" /><path clip-path="url(#clip640)" d="M29.4065 858.31 L34.9447 858.31 Q33.6716 860.793 33.035 863.466 Q32.3984 866.14 32.3984 869.005 Q32.3984 873.365 33.7352 875.561 Q35.072 877.726 37.7456 877.726 Q39.7826 877.726 40.9603 876.166 Q42.1061 874.606 43.1565 869.896 L43.6021 867.891 Q44.9389 861.652 47.3897 859.042 Q49.8086 856.4 54.1691 856.4 Q59.1344 856.4 62.0308 860.347 Q64.9272 864.262 64.9272 871.137 Q64.9272 874.002 64.3543 877.121 Q63.8132 880.208 62.6992 883.646 L56.6518 883.646 Q58.3387 880.399 59.198 877.248 Q60.0256 874.097 60.0256 871.01 Q60.0256 866.872 58.6251 864.644 Q57.1929 862.416 54.6147 862.416 Q52.2276 862.416 50.9545 864.039 Q49.6813 865.631 48.5037 871.073 L48.0262 873.11 Q46.8804 878.553 44.5251 880.972 Q42.138 883.391 38.0002 883.391 Q32.9713 883.391 30.2341 879.826 Q27.4968 876.261 27.4968 869.705 Q27.4968 866.458 27.9743 863.594 Q28.4517 860.729 29.4065 858.31 Z" fill="#000000" fill-rule="nonzero" fill-opacity="1" /><path clip-path="url(#clip640)" d="M28.3562 847.075 L28.3562 841.218 L64.0042 841.218 L64.0042 847.075 L28.3562 847.075 M14.479 847.075 L14.479 841.218 L21.895 841.218 L21.895 847.075 L14.479 847.075 Z" fill="#000000" fill-rule="nonzero" fill-opacity="1" /><path clip-path="url(#clip640)" d="M32.4621 815.151 Q32.4621 819.861 36.1542 822.599 Q39.8145 825.336 46.212 825.336 Q52.6095 825.336 56.3017 822.63 Q59.9619 819.893 59.9619 815.151 Q59.9619 810.472 56.2698 807.735 Q52.5777 804.997 46.212 804.997 Q39.8781 804.997 36.186 807.735 Q32.4621 810.472 32.4621 815.151 M27.4968 815.151 Q27.4968 807.512 32.4621 803.151 Q37.4273 798.791 46.212 798.791 Q54.9649 798.791 59.9619 803.151 Q64.9272 807.512 64.9272 815.151 Q64.9272 822.821 59.9619 827.182 Q54.9649 831.511 46.212 831.511 Q37.4273 831.511 32.4621 827.182 Q27.4968 822.821 27.4968 815.151 Z" fill="#000000" fill-rule="nonzero" fill-opacity="1" /><path clip-path="url(#clip640)" d="M42.4881 759.451 L64.0042 759.451 L64.0042 765.307 L42.679 765.307 Q37.6183 765.307 35.1038 767.281 Q32.5894 769.254 32.5894 773.201 Q32.5894 777.943 35.6131 780.68 Q38.6368 783.418 43.8567 783.418 L64.0042 783.418 L64.0042 789.306 L28.3562 789.306 L28.3562 783.418 L33.8944 783.418 Q30.6797 781.317 29.0883 778.484 Q27.4968 775.62 27.4968 771.896 Q27.4968 765.753 31.3163 762.602 Q35.1038 759.451 42.4881 759.451 Z" fill="#000000" fill-rule="nonzero" fill-opacity="1" /><path clip-path="url(#clip640)" d="M44.7161 717.278 L47.5806 717.278 L47.5806 744.205 Q53.6281 743.823 56.8109 740.576 Q59.9619 737.298 59.9619 731.473 Q59.9619 728.1 59.1344 724.949 Q58.3069 721.766 56.6518 718.647 L62.1899 718.647 Q63.5267 721.798 64.227 725.108 Q64.9272 728.418 64.9272 731.824 Q64.9272 740.354 59.9619 745.351 Q54.9967 750.316 46.5303 750.316 Q37.7774 750.316 32.6531 745.605 Q27.4968 740.863 27.4968 732.842 Q27.4968 725.649 32.1438 721.479 Q36.7589 717.278 44.7161 717.278 M42.9973 723.134 Q38.1912 723.198 35.3266 725.84 Q32.4621 728.45 32.4621 732.778 Q32.4621 737.68 35.2312 740.64 Q38.0002 743.568 43.0292 744.014 L42.9973 723.134 Z" fill="#000000" fill-rule="nonzero" fill-opacity="1" /><path clip-path="url(#clip640)" d="M32.4621 673.132 Q32.4621 677.842 36.1542 680.58 Q39.8145 683.317 46.212 683.317 Q52.6095 683.317 56.3017 680.611 Q59.9619 677.874 59.9619 673.132 Q59.9619 668.453 56.2698 665.716 Q52.5777 662.978 46.212 662.978 Q39.8781 662.978 36.186 665.716 Q32.4621 668.453 32.4621 673.132 M27.4968 673.132 Q27.4968 665.493 32.4621 661.132 Q37.4273 656.772 46.212 656.772 Q54.9649 656.772 59.9619 661.132 Q64.9272 665.493 64.9272 673.132 Q64.9272 680.802 59.9619 685.163 Q54.9649 689.492 46.212 689.492 Q37.4273 689.492 32.4621 685.163 Q27.4968 680.802 27.4968 673.132 Z" fill="#000000" fill-rule="nonzero" fill-opacity="1" /><path clip-path="url(#clip640)" d="M18.2347 641.271 L28.3562 641.271 L28.3562 629.208 L32.9077 629.208 L32.9077 641.271 L52.2594 641.271 Q56.6199 641.271 57.8613 640.094 Q59.1026 638.884 59.1026 635.224 L59.1026 629.208 L64.0042 629.208 L64.0042 635.224 Q64.0042 642.003 61.4897 644.582 Q58.9434 647.16 52.2594 647.16 L32.9077 647.16 L32.9077 651.456 L28.3562 651.456 L28.3562 647.16 L18.2347 647.16 L18.2347 641.271 Z" fill="#000000" fill-rule="nonzero" fill-opacity="1" /><path clip-path="url(#clip640)" d="M18.2347 615.713 L28.3562 615.713 L28.3562 603.65 L32.9077 603.65 L32.9077 615.713 L52.2594 615.713 Q56.6199 615.713 57.8613 614.535 Q59.1026 613.326 59.1026 609.666 L59.1026 603.65 L64.0042 603.65 L64.0042 609.666 Q64.0042 616.445 61.4897 619.023 Q58.9434 621.601 52.2594 621.601 L32.9077 621.601 L32.9077 625.898 L28.3562 625.898 L28.3562 621.601 L18.2347 621.601 L18.2347 615.713 Z" fill="#000000" fill-rule="nonzero" fill-opacity="1" /><path clip-path="url(#clip640)" d="M44.7161 565.456 L47.5806 565.456 L47.5806 592.383 Q53.6281 592.001 56.8109 588.754 Q59.9619 585.476 59.9619 579.651 Q59.9619 576.277 59.1344 573.126 Q58.3069 569.944 56.6518 566.824 L62.1899 566.824 Q63.5267 569.975 64.227 573.286 Q64.9272 576.596 64.9272 580.001 Q64.9272 588.531 59.9619 593.529 Q54.9967 598.494 46.5303 598.494 Q37.7774 598.494 32.6531 593.783 Q27.4968 589.041 27.4968 581.02 Q27.4968 573.827 32.1438 569.657 Q36.7589 565.456 44.7161 565.456 M42.9973 571.312 Q38.1912 571.376 35.3266 574.018 Q32.4621 576.628 32.4621 580.956 Q32.4621 585.858 35.2312 588.818 Q38.0002 591.746 43.0292 592.192 L42.9973 571.312 Z" fill="#000000" fill-rule="nonzero" fill-opacity="1" /><path clip-path="url(#clip640)" d="M42.4881 526.211 L64.0042 526.211 L64.0042 532.068 L42.679 532.068 Q37.6183 532.068 35.1038 534.041 Q32.5894 536.014 32.5894 539.961 Q32.5894 544.704 35.6131 547.441 Q38.6368 550.178 43.8567 550.178 L64.0042 550.178 L64.0042 556.066 L28.3562 556.066 L28.3562 550.178 L33.8944 550.178 Q30.6797 548.077 29.0883 545.245 Q27.4968 542.38 27.4968 538.656 Q27.4968 532.513 31.3163 529.362 Q35.1038 526.211 42.4881 526.211 Z" fill="#000000" fill-rule="nonzero" fill-opacity="1" /><path clip-path="url(#clip640)" d="M49.9359 515.135 L28.3562 515.135 L28.3562 509.278 L49.7131 509.278 Q54.7739 509.278 57.3202 507.305 Q59.8346 505.332 59.8346 501.385 Q59.8346 496.643 56.8109 493.905 Q53.7872 491.136 48.5673 491.136 L28.3562 491.136 L28.3562 485.28 L64.0042 485.28 L64.0042 491.136 L58.5296 491.136 Q61.7762 493.269 63.3676 496.101 Q64.9272 498.902 64.9272 502.626 Q64.9272 508.769 61.1078 511.952 Q57.2883 515.135 49.9359 515.135 M27.4968 500.398 L27.4968 500.398 Z" fill="#000000" fill-rule="nonzero" fill-opacity="1" /><path clip-path="url(#clip640)" d="M18.2347 467.424 L28.3562 467.424 L28.3562 455.361 L32.9077 455.361 L32.9077 467.424 L52.2594 467.424 Q56.6199 467.424 57.8613 466.246 Q59.1026 465.037 59.1026 461.376 L59.1026 455.361 L64.0042 455.361 L64.0042 461.376 Q64.0042 468.156 61.4897 470.734 Q58.9434 473.312 52.2594 473.312 L32.9077 473.312 L32.9077 477.609 L28.3562 477.609 L28.3562 473.312 L18.2347 473.312 L18.2347 467.424 Z" fill="#000000" fill-rule="nonzero" fill-opacity="1" /><path clip-path="url(#clip640)" d="M46.0847 431.458 Q46.0847 438.555 47.7079 441.293 Q49.3312 444.03 53.2461 444.03 Q56.3653 444.03 58.2114 441.993 Q60.0256 439.924 60.0256 436.391 Q60.0256 431.521 56.5881 428.593 Q53.1188 425.633 47.3897 425.633 L46.0847 425.633 L46.0847 431.458 M43.6657 419.777 L64.0042 419.777 L64.0042 425.633 L58.5933 425.633 Q61.8398 427.638 63.3994 430.63 Q64.9272 433.622 64.9272 437.951 Q64.9272 443.425 61.8716 446.672 Q58.7843 449.886 53.6281 449.886 Q47.6125 449.886 44.5569 445.876 Q41.5014 441.834 41.5014 433.845 L41.5014 425.633 L40.9285 425.633 Q36.8862 425.633 34.6901 428.307 Q32.4621 430.948 32.4621 435.755 Q32.4621 438.81 33.1941 441.706 Q33.9262 444.603 35.3903 447.276 L29.9795 447.276 Q28.7381 444.062 28.1334 441.038 Q27.4968 438.014 27.4968 435.15 Q27.4968 427.415 31.5072 423.596 Q35.5176 419.777 43.6657 419.777 Z" fill="#000000" fill-rule="nonzero" fill-opacity="1" /><polyline clip-path="url(#clip642)" style="stroke:#009af9; stroke-linecap:round; stroke-linejoin:round; stroke-width:4; stroke-opacity:1; fill:none" points="2293.32,363.796 1798.04,700.012 1302.76,868.087 807.479,1204.23 312.198,1372.3 "/>
<polyline clip-path="url(#clip642)" style="stroke:#e26f46; stroke-linecap:round; stroke-linejoin:round; stroke-width:4; stroke-opacity:1; fill:none" points="2293.32,85.838 1798.04,364.999 1302.76,644.159 807.479,923.32 312.198,1202.48 "/>
<path clip-path="url(#clip640)" d="M1558.22 248.219 L2282.76 248.219 L2282.76 92.6992 L1558.22 92.6992  Z" fill="#ffffff" fill-rule="evenodd" fill-opacity="1"/>
<polyline clip-path="url(#clip640)" style="stroke:#000000; stroke-linecap:round; stroke-linejoin:round; stroke-width:4; stroke-opacity:1; fill:none" points="1558.22,248.219 2282.76,248.219 2282.76,92.6992 1558.22,92.6992 1558.22,248.219 "/>
<polyline clip-path="url(#clip640)" style="stroke:#009af9; stroke-linecap:round; stroke-linejoin:round; stroke-width:4; stroke-opacity:1; fill:none" points="1581.56,144.539 1721.56,144.539 "/>
<path clip-path="url(#clip640)" d="M1744.89 127.259 L1751.86 127.259 L1760.68 150.778 L1769.54 127.259 L1776.51 127.259 L1776.51 161.819 L1771.95 161.819 L1771.95 131.472 L1763.04 155.176 L1758.34 155.176 L1749.43 131.472 L1749.43 161.819 L1744.89 161.819 L1744.89 127.259 Z" fill="#000000" fill-rule="nonzero" fill-opacity="1" /><path clip-path="url(#clip640)" d="M1785.61 135.893 L1789.87 135.893 L1789.87 161.819 L1785.61 161.819 L1785.61 135.893 M1785.61 125.801 L1789.87 125.801 L1789.87 131.194 L1785.61 131.194 L1785.61 125.801 Z" fill="#000000" fill-rule="nonzero" fill-opacity="1" /><path clip-path="url(#clip640)" d="M1815.3 136.657 L1815.3 140.685 Q1813.5 139.759 1811.55 139.296 Q1809.61 138.833 1807.53 138.833 Q1804.36 138.833 1802.76 139.805 Q1801.18 140.778 1801.18 142.722 Q1801.18 144.204 1802.32 145.06 Q1803.45 145.893 1806.88 146.657 L1808.34 146.981 Q1812.87 147.954 1814.77 149.736 Q1816.69 151.495 1816.69 154.666 Q1816.69 158.278 1813.82 160.384 Q1810.98 162.49 1805.98 162.49 Q1803.89 162.49 1801.62 162.074 Q1799.38 161.68 1796.88 160.87 L1796.88 156.472 Q1799.24 157.699 1801.53 158.324 Q1803.82 158.926 1806.07 158.926 Q1809.08 158.926 1810.7 157.907 Q1812.32 156.866 1812.32 154.991 Q1812.32 153.254 1811.14 152.328 Q1809.98 151.403 1806.02 150.546 L1804.54 150.199 Q1800.58 149.366 1798.82 147.653 Q1797.06 145.916 1797.06 142.907 Q1797.06 139.25 1799.66 137.259 Q1802.25 135.268 1807.02 135.268 Q1809.38 135.268 1811.46 135.616 Q1813.55 135.963 1815.3 136.657 Z" fill="#000000" fill-rule="nonzero" fill-opacity="1" /><path clip-path="url(#clip640)" d="M1823.04 151.588 L1823.04 135.893 L1827.3 135.893 L1827.3 151.426 Q1827.3 155.106 1828.73 156.958 Q1830.17 158.787 1833.04 158.787 Q1836.49 158.787 1838.48 156.588 Q1840.49 154.389 1840.49 150.592 L1840.49 135.893 L1844.75 135.893 L1844.75 161.819 L1840.49 161.819 L1840.49 157.838 Q1838.94 160.199 1836.88 161.356 Q1834.84 162.49 1832.13 162.49 Q1827.67 162.49 1825.35 159.713 Q1823.04 156.935 1823.04 151.588 M1833.75 135.268 L1833.75 135.268 Z" fill="#000000" fill-rule="nonzero" fill-opacity="1" /><path clip-path="url(#clip640)" d="M1868.55 139.875 Q1867.83 139.458 1866.97 139.273 Q1866.14 139.065 1865.12 139.065 Q1861.51 139.065 1859.56 141.426 Q1857.64 143.764 1857.64 148.162 L1857.64 161.819 L1853.36 161.819 L1853.36 135.893 L1857.64 135.893 L1857.64 139.921 Q1858.99 137.56 1861.14 136.426 Q1863.29 135.268 1866.37 135.268 Q1866.81 135.268 1867.34 135.338 Q1867.87 135.384 1868.52 135.5 L1868.55 139.875 Z" fill="#000000" fill-rule="nonzero" fill-opacity="1" /><path clip-path="url(#clip640)" d="M1884.8 148.787 Q1879.63 148.787 1877.64 149.967 Q1875.65 151.148 1875.65 153.995 Q1875.65 156.264 1877.13 157.606 Q1878.64 158.926 1881.21 158.926 Q1884.75 158.926 1886.88 156.426 Q1889.03 153.903 1889.03 149.736 L1889.03 148.787 L1884.8 148.787 M1893.29 147.028 L1893.29 161.819 L1889.03 161.819 L1889.03 157.884 Q1887.57 160.245 1885.4 161.379 Q1883.22 162.49 1880.07 162.49 Q1876.09 162.49 1873.73 160.268 Q1871.39 158.023 1871.39 154.273 Q1871.39 149.898 1874.31 147.676 Q1877.25 145.454 1883.06 145.454 L1889.03 145.454 L1889.03 145.037 Q1889.03 142.097 1887.09 140.5 Q1885.17 138.879 1881.67 138.879 Q1879.45 138.879 1877.34 139.412 Q1875.24 139.944 1873.29 141.009 L1873.29 137.074 Q1875.63 136.171 1877.83 135.731 Q1880.03 135.268 1882.11 135.268 Q1887.74 135.268 1890.51 138.185 Q1893.29 141.102 1893.29 147.028 Z" fill="#000000" fill-rule="nonzero" fill-opacity="1" /><path clip-path="url(#clip640)" d="M1906.28 128.532 L1906.28 135.893 L1915.05 135.893 L1915.05 139.204 L1906.28 139.204 L1906.28 153.278 Q1906.28 156.449 1907.13 157.352 Q1908.01 158.254 1910.67 158.254 L1915.05 158.254 L1915.05 161.819 L1910.67 161.819 Q1905.74 161.819 1903.87 159.99 Q1901.99 158.139 1901.99 153.278 L1901.99 139.204 L1898.87 139.204 L1898.87 135.893 L1901.99 135.893 L1901.99 128.532 L1906.28 128.532 Z" fill="#000000" fill-rule="nonzero" fill-opacity="1" /><path clip-path="url(#clip640)" d="M1930.7 138.879 Q1927.27 138.879 1925.28 141.565 Q1923.29 144.227 1923.29 148.879 Q1923.29 153.532 1925.26 156.217 Q1927.25 158.879 1930.7 158.879 Q1934.1 158.879 1936.09 156.194 Q1938.08 153.509 1938.08 148.879 Q1938.08 144.273 1936.09 141.588 Q1934.1 138.879 1930.7 138.879 M1930.7 135.268 Q1936.25 135.268 1939.42 138.879 Q1942.6 142.491 1942.6 148.879 Q1942.6 155.245 1939.42 158.879 Q1936.25 162.49 1930.7 162.49 Q1925.12 162.49 1921.95 158.879 Q1918.8 155.245 1918.8 148.879 Q1918.8 142.491 1921.95 138.879 Q1925.12 135.268 1930.7 135.268 Z" fill="#000000" fill-rule="nonzero" fill-opacity="1" /><polyline clip-path="url(#clip640)" style="stroke:#e26f46; stroke-linecap:round; stroke-linejoin:round; stroke-width:4; stroke-opacity:1; fill:none" points="1581.56,196.379 1721.56,196.379 "/>
<path clip-path="url(#clip640)" d="M1772.76 181.761 L1772.76 186.692 Q1770.4 184.493 1767.71 183.405 Q1765.05 182.317 1762.04 182.317 Q1756.12 182.317 1752.97 185.951 Q1749.82 189.562 1749.82 196.414 Q1749.82 203.243 1752.97 206.877 Q1756.12 210.488 1762.04 210.488 Q1765.05 210.488 1767.71 209.4 Q1770.4 208.312 1772.76 206.113 L1772.76 210.997 Q1770.31 212.664 1767.55 213.497 Q1764.82 214.33 1761.76 214.33 Q1753.92 214.33 1749.4 209.539 Q1744.89 204.724 1744.89 196.414 Q1744.89 188.081 1749.4 183.289 Q1753.92 178.474 1761.76 178.474 Q1764.87 178.474 1767.6 179.308 Q1770.35 180.118 1772.76 181.761 Z" fill="#000000" fill-rule="nonzero" fill-opacity="1" /><path clip-path="url(#clip640)" d="M1791.58 200.627 Q1786.42 200.627 1784.43 201.807 Q1782.43 202.988 1782.43 205.835 Q1782.43 208.104 1783.92 209.446 Q1785.42 210.766 1787.99 210.766 Q1791.53 210.766 1793.66 208.266 Q1795.81 205.743 1795.81 201.576 L1795.81 200.627 L1791.58 200.627 M1800.07 198.868 L1800.07 213.659 L1795.81 213.659 L1795.81 209.724 Q1794.36 212.085 1792.18 213.219 Q1790 214.33 1786.86 214.33 Q1782.87 214.33 1780.51 212.108 Q1778.18 209.863 1778.18 206.113 Q1778.18 201.738 1781.09 199.516 Q1784.03 197.294 1789.84 197.294 L1795.81 197.294 L1795.81 196.877 Q1795.81 193.937 1793.87 192.34 Q1791.95 190.719 1788.45 190.719 Q1786.23 190.719 1784.12 191.252 Q1782.02 191.784 1780.07 192.849 L1780.07 188.914 Q1782.41 188.011 1784.61 187.571 Q1786.81 187.108 1788.89 187.108 Q1794.52 187.108 1797.3 190.025 Q1800.07 192.942 1800.07 198.868 Z" fill="#000000" fill-rule="nonzero" fill-opacity="1" /><path clip-path="url(#clip640)" d="M1825.37 188.497 L1825.37 192.525 Q1823.57 191.599 1821.62 191.136 Q1819.68 190.673 1817.6 190.673 Q1814.43 190.673 1812.83 191.645 Q1811.25 192.618 1811.25 194.562 Q1811.25 196.044 1812.39 196.9 Q1813.52 197.733 1816.95 198.497 L1818.41 198.821 Q1822.94 199.794 1824.84 201.576 Q1826.76 203.335 1826.76 206.506 Q1826.76 210.118 1823.89 212.224 Q1821.05 214.33 1816.05 214.33 Q1813.96 214.33 1811.69 213.914 Q1809.45 213.52 1806.95 212.71 L1806.95 208.312 Q1809.31 209.539 1811.6 210.164 Q1813.89 210.766 1816.14 210.766 Q1819.15 210.766 1820.77 209.747 Q1822.39 208.706 1822.39 206.831 Q1822.39 205.094 1821.21 204.168 Q1820.05 203.243 1816.09 202.386 L1814.61 202.039 Q1810.65 201.206 1808.89 199.493 Q1807.13 197.756 1807.13 194.747 Q1807.13 191.09 1809.73 189.099 Q1812.32 187.108 1817.09 187.108 Q1819.45 187.108 1821.53 187.456 Q1823.62 187.803 1825.37 188.497 Z" fill="#000000" fill-rule="nonzero" fill-opacity="1" /><path clip-path="url(#clip640)" d="M1843.59 190.719 Q1840.17 190.719 1838.18 193.405 Q1836.18 196.067 1836.18 200.719 Q1836.18 205.372 1838.15 208.057 Q1840.14 210.719 1843.59 210.719 Q1846.99 210.719 1848.99 208.034 Q1850.98 205.349 1850.98 200.719 Q1850.98 196.113 1848.99 193.428 Q1846.99 190.719 1843.59 190.719 M1843.59 187.108 Q1849.15 187.108 1852.32 190.719 Q1855.49 194.331 1855.49 200.719 Q1855.49 207.085 1852.32 210.719 Q1849.15 214.33 1843.59 214.33 Q1838.01 214.33 1834.84 210.719 Q1831.69 207.085 1831.69 200.719 Q1831.69 194.331 1834.84 190.719 Q1838.01 187.108 1843.59 187.108 Z" fill="#000000" fill-rule="nonzero" fill-opacity="1" /><path clip-path="url(#clip640)" d="M1881.83 180.372 L1881.83 187.733 L1890.61 187.733 L1890.61 191.044 L1881.83 191.044 L1881.83 205.118 Q1881.83 208.289 1882.69 209.192 Q1883.57 210.094 1886.23 210.094 L1890.61 210.094 L1890.61 213.659 L1886.23 213.659 Q1881.3 213.659 1879.42 211.83 Q1877.55 209.979 1877.55 205.118 L1877.55 191.044 L1874.42 191.044 L1874.42 187.733 L1877.55 187.733 L1877.55 180.372 L1881.83 180.372 Z" fill="#000000" fill-rule="nonzero" fill-opacity="1" /><path clip-path="url(#clip640)" d="M1918.38 199.631 L1918.38 201.715 L1898.8 201.715 Q1899.08 206.113 1901.44 208.428 Q1903.82 210.719 1908.06 210.719 Q1910.51 210.719 1912.8 210.118 Q1915.12 209.516 1917.39 208.312 L1917.39 212.34 Q1915.1 213.312 1912.69 213.821 Q1910.28 214.33 1907.8 214.33 Q1901.6 214.33 1897.97 210.719 Q1894.36 207.108 1894.36 200.951 Q1894.36 194.585 1897.78 190.858 Q1901.23 187.108 1907.06 187.108 Q1912.3 187.108 1915.33 190.488 Q1918.38 193.844 1918.38 199.631 M1914.12 198.381 Q1914.08 194.886 1912.16 192.803 Q1910.26 190.719 1907.11 190.719 Q1903.55 190.719 1901.39 192.733 Q1899.26 194.747 1898.94 198.405 L1914.12 198.381 Z" fill="#000000" fill-rule="nonzero" fill-opacity="1" /><path clip-path="url(#clip640)" d="M1935.42 190.719 Q1931.99 190.719 1930 193.405 Q1928.01 196.067 1928.01 200.719 Q1928.01 205.372 1929.98 208.057 Q1931.97 210.719 1935.42 210.719 Q1938.82 210.719 1940.81 208.034 Q1942.8 205.349 1942.8 200.719 Q1942.8 196.113 1940.81 193.428 Q1938.82 190.719 1935.42 190.719 M1935.42 187.108 Q1940.98 187.108 1944.15 190.719 Q1947.32 194.331 1947.32 200.719 Q1947.32 207.085 1944.15 210.719 Q1940.98 214.33 1935.42 214.33 Q1929.84 214.33 1926.67 210.719 Q1923.52 207.085 1923.52 200.719 Q1923.52 194.331 1926.67 190.719 Q1929.84 187.108 1935.42 187.108 Z" fill="#000000" fill-rule="nonzero" fill-opacity="1" /><path clip-path="url(#clip640)" d="M1969.4 191.715 Q1968.68 191.298 1967.83 191.113 Q1966.99 190.905 1965.98 190.905 Q1962.36 190.905 1960.42 193.266 Q1958.5 195.604 1958.5 200.002 L1958.5 213.659 L1954.22 213.659 L1954.22 187.733 L1958.5 187.733 L1958.5 191.761 Q1959.84 189.4 1961.99 188.266 Q1964.15 187.108 1967.23 187.108 Q1967.67 187.108 1968.2 187.178 Q1968.73 187.224 1969.38 187.34 L1969.4 191.715 Z" fill="#000000" fill-rule="nonzero" fill-opacity="1" /><path clip-path="url(#clip640)" d="M1973.87 187.733 L1978.13 187.733 L1978.13 213.659 L1973.87 213.659 L1973.87 187.733 M1973.87 177.641 L1978.13 177.641 L1978.13 183.034 L1973.87 183.034 L1973.87 177.641 Z" fill="#000000" fill-rule="nonzero" fill-opacity="1" /><path clip-path="url(#clip640)" d="M2005.7 188.729 L2005.7 192.71 Q2003.89 191.715 2002.06 191.229 Q2000.26 190.719 1998.41 190.719 Q1994.26 190.719 1991.97 193.358 Q1989.68 195.974 1989.68 200.719 Q1989.68 205.465 1991.97 208.104 Q1994.26 210.719 1998.41 210.719 Q2000.26 210.719 2002.06 210.233 Q2003.89 209.724 2005.7 208.729 L2005.7 212.664 Q2003.92 213.497 2001.99 213.914 Q2000.1 214.33 1997.94 214.33 Q1992.09 214.33 1988.64 210.65 Q1985.19 206.969 1985.19 200.719 Q1985.19 194.377 1988.66 190.743 Q1992.16 187.108 1998.22 187.108 Q2000.19 187.108 2002.06 187.525 Q2003.94 187.919 2005.7 188.729 Z" fill="#000000" fill-rule="nonzero" fill-opacity="1" /><path clip-path="url(#clip640)" d="M2023.15 190.719 Q2019.73 190.719 2017.73 193.405 Q2015.74 196.067 2015.74 200.719 Q2015.74 205.372 2017.71 208.057 Q2019.7 210.719 2023.15 210.719 Q2026.55 210.719 2028.54 208.034 Q2030.54 205.349 2030.54 200.719 Q2030.54 196.113 2028.54 193.428 Q2026.55 190.719 2023.15 190.719 M2023.15 187.108 Q2028.71 187.108 2031.88 190.719 Q2035.05 194.331 2035.05 200.719 Q2035.05 207.085 2031.88 210.719 Q2028.71 214.33 2023.15 214.33 Q2017.57 214.33 2014.4 210.719 Q2011.25 207.085 2011.25 200.719 Q2011.25 194.331 2014.4 190.719 Q2017.57 187.108 2023.15 187.108 Z" fill="#000000" fill-rule="nonzero" fill-opacity="1" /><path clip-path="url(#clip640)" d="M2061.3 209.77 L2061.3 223.52 L2057.02 223.52 L2057.02 187.733 L2061.3 187.733 L2061.3 191.669 Q2062.64 189.354 2064.68 188.243 Q2066.74 187.108 2069.59 187.108 Q2074.31 187.108 2077.25 190.858 Q2080.21 194.608 2080.21 200.719 Q2080.21 206.831 2077.25 210.58 Q2074.31 214.33 2069.59 214.33 Q2066.74 214.33 2064.68 213.219 Q2062.64 212.085 2061.3 209.77 M2075.79 200.719 Q2075.79 196.02 2073.85 193.358 Q2071.92 190.673 2068.54 190.673 Q2065.16 190.673 2063.22 193.358 Q2061.3 196.02 2061.3 200.719 Q2061.3 205.418 2063.22 208.104 Q2065.16 210.766 2068.54 210.766 Q2071.92 210.766 2073.85 208.104 Q2075.79 205.418 2075.79 200.719 Z" fill="#000000" fill-rule="nonzero" fill-opacity="1" /><path clip-path="url(#clip640)" d="M2109.45 199.631 L2109.45 201.715 L2089.86 201.715 Q2090.14 206.113 2092.5 208.428 Q2094.89 210.719 2099.12 210.719 Q2101.58 210.719 2103.87 210.118 Q2106.18 209.516 2108.45 208.312 L2108.45 212.34 Q2106.16 213.312 2103.75 213.821 Q2101.35 214.33 2098.87 214.33 Q2092.66 214.33 2089.03 210.719 Q2085.42 207.108 2085.42 200.951 Q2085.42 194.585 2088.85 190.858 Q2092.29 187.108 2098.13 187.108 Q2103.36 187.108 2106.39 190.488 Q2109.45 193.844 2109.45 199.631 M2105.19 198.381 Q2105.14 194.886 2103.22 192.803 Q2101.32 190.719 2098.17 190.719 Q2094.61 190.719 2092.46 192.733 Q2090.33 194.747 2090 198.405 L2105.19 198.381 Z" fill="#000000" fill-rule="nonzero" fill-opacity="1" /><path clip-path="url(#clip640)" d="M2133.5 200.395 Q2133.5 195.766 2131.58 193.219 Q2129.68 190.673 2126.23 190.673 Q2122.8 190.673 2120.88 193.219 Q2118.98 195.766 2118.98 200.395 Q2118.98 205.002 2120.88 207.548 Q2122.8 210.094 2126.23 210.094 Q2129.68 210.094 2131.58 207.548 Q2133.5 205.002 2133.5 200.395 M2137.76 210.442 Q2137.76 217.062 2134.82 220.28 Q2131.88 223.52 2125.81 223.52 Q2123.57 223.52 2121.58 223.173 Q2119.59 222.849 2117.71 222.155 L2117.71 218.011 Q2119.59 219.03 2121.41 219.516 Q2123.24 220.002 2125.14 220.002 Q2129.33 220.002 2131.41 217.803 Q2133.5 215.627 2133.5 211.205 L2133.5 209.099 Q2132.18 211.391 2130.12 212.525 Q2128.06 213.659 2125.19 213.659 Q2120.42 213.659 2117.5 210.025 Q2114.59 206.391 2114.59 200.395 Q2114.59 194.377 2117.5 190.743 Q2120.42 187.108 2125.19 187.108 Q2128.06 187.108 2130.12 188.243 Q2132.18 189.377 2133.5 191.669 L2133.5 187.733 L2137.76 187.733 L2137.76 210.442 Z" fill="#000000" fill-rule="nonzero" fill-opacity="1" /><path clip-path="url(#clip640)" d="M2163.59 200.395 Q2163.59 195.766 2161.67 193.219 Q2159.77 190.673 2156.32 190.673 Q2152.9 190.673 2150.97 193.219 Q2149.08 195.766 2149.08 200.395 Q2149.08 205.002 2150.97 207.548 Q2152.9 210.094 2156.32 210.094 Q2159.77 210.094 2161.67 207.548 Q2163.59 205.002 2163.59 200.395 M2167.85 210.442 Q2167.85 217.062 2164.91 220.28 Q2161.97 223.52 2155.9 223.52 Q2153.66 223.52 2151.67 223.173 Q2149.68 222.849 2147.8 222.155 L2147.8 218.011 Q2149.68 219.03 2151.51 219.516 Q2153.34 220.002 2155.23 220.002 Q2159.42 220.002 2161.51 217.803 Q2163.59 215.627 2163.59 211.205 L2163.59 209.099 Q2162.27 211.391 2160.21 212.525 Q2158.15 213.659 2155.28 213.659 Q2150.51 213.659 2147.59 210.025 Q2144.68 206.391 2144.68 200.395 Q2144.68 194.377 2147.59 190.743 Q2150.51 187.108 2155.28 187.108 Q2158.15 187.108 2160.21 188.243 Q2162.27 189.377 2163.59 191.669 L2163.59 187.733 L2167.85 187.733 L2167.85 210.442 Z" fill="#000000" fill-rule="nonzero" fill-opacity="1" /><path clip-path="url(#clip640)" d="M2176.62 187.733 L2180.88 187.733 L2180.88 213.659 L2176.62 213.659 L2176.62 187.733 M2176.62 177.641 L2180.88 177.641 L2180.88 183.034 L2176.62 183.034 L2176.62 177.641 Z" fill="#000000" fill-rule="nonzero" fill-opacity="1" /><path clip-path="url(#clip640)" d="M2199.84 190.719 Q2196.41 190.719 2194.42 193.405 Q2192.43 196.067 2192.43 200.719 Q2192.43 205.372 2194.4 208.057 Q2196.39 210.719 2199.84 210.719 Q2203.24 210.719 2205.23 208.034 Q2207.22 205.349 2207.22 200.719 Q2207.22 196.113 2205.23 193.428 Q2203.24 190.719 2199.84 190.719 M2199.84 187.108 Q2205.4 187.108 2208.57 190.719 Q2211.74 194.331 2211.74 200.719 Q2211.74 207.085 2208.57 210.719 Q2205.4 214.33 2199.84 214.33 Q2194.26 214.33 2191.09 210.719 Q2187.94 207.085 2187.94 200.719 Q2187.94 194.331 2191.09 190.719 Q2194.26 187.108 2199.84 187.108 Z" fill="#000000" fill-rule="nonzero" fill-opacity="1" /><path clip-path="url(#clip640)" d="M2233.82 191.715 Q2233.1 191.298 2232.25 191.113 Q2231.41 190.905 2230.4 190.905 Q2226.78 190.905 2224.84 193.266 Q2222.92 195.604 2222.92 200.002 L2222.92 213.659 L2218.64 213.659 L2218.64 187.733 L2222.92 187.733 L2222.92 191.761 Q2224.26 189.4 2226.41 188.266 Q2228.57 187.108 2231.65 187.108 Q2232.09 187.108 2232.62 187.178 Q2233.15 187.224 2233.8 187.34 L2233.82 191.715 Z" fill="#000000" fill-rule="nonzero" fill-opacity="1" /><path clip-path="url(#clip640)" d="M2259.42 199.631 L2259.42 201.715 L2239.84 201.715 Q2240.12 206.113 2242.48 208.428 Q2244.86 210.719 2249.1 210.719 Q2251.55 210.719 2253.84 210.118 Q2256.16 209.516 2258.43 208.312 L2258.43 212.34 Q2256.14 213.312 2253.73 213.821 Q2251.32 214.33 2248.84 214.33 Q2242.64 214.33 2239.01 210.719 Q2235.4 207.108 2235.4 200.951 Q2235.4 194.585 2238.82 190.858 Q2242.27 187.108 2248.1 187.108 Q2253.33 187.108 2256.37 190.488 Q2259.42 193.844 2259.42 199.631 M2255.16 198.381 Q2255.12 194.886 2253.2 192.803 Q2251.3 190.719 2248.15 190.719 Q2244.59 190.719 2242.43 192.733 Q2240.3 194.747 2239.98 198.405 L2255.16 198.381 Z" fill="#000000" fill-rule="nonzero" fill-opacity="1" /></svg>
