<?xml version="1.0" encoding="utf-8"?>
<svg xmlns="http://www.w3.org/2000/svg" xmlns:xlink="http://www.w3.org/1999/xlink" width="600" height="400" viewBox="0 0 2400 1600">
<defs>
  <clipPath id="clip980">
    <rect x="0" y="0" width="2400" height="1600"/>
  </clipPath>
</defs>
<path clip-path="url(#clip980)" d="
M0 1600 L2400 1600 L2400 0 L0 0  Z
  " fill="#ffffff" fill-rule="evenodd" fill-opacity="1"/>
<defs>
  <clipPath id="clip981">
    <rect x="480" y="0" width="1681" height="1600"/>
  </clipPath>
</defs>
<path clip-path="url(#clip980)" d="
M252.764 1410.9 L2352.76 1410.9 L2352.76 47.2441 L252.764 47.2441  Z
  " fill="#ffffff" fill-rule="evenodd" fill-opacity="1"/>
<defs>
  <clipPath id="clip982">
    <rect x="252" y="47" width="2101" height="1365"/>
  </clipPath>
</defs>
<polyline clip-path="url(#clip982)" style="stroke:#000000; stroke-linecap:butt; stroke-linejoin:round; stroke-width:2; stroke-opacity:0.1; fill:none" points="
  807.479,1410.9 807.479,47.2441 
  "/>
<polyline clip-path="url(#clip982)" style="stroke:#000000; stroke-linecap:butt; stroke-linejoin:round; stroke-width:2; stroke-opacity:0.1; fill:none" points="
  1798.04,1410.9 1798.04,47.2441 
  "/>
<polyline clip-path="url(#clip980)" style="stroke:#000000; stroke-linecap:butt; stroke-linejoin:round; stroke-width:4; stroke-opacity:1; fill:none" points="
  252.764,1410.9 2352.76,1410.9 
  "/>
<polyline clip-path="url(#clip980)" style="stroke:#000000; stroke-linecap:butt; stroke-linejoin:round; stroke-width:4; stroke-opacity:1; fill:none" points="
  807.479,1410.9 807.479,1392 
  "/>
<polyline clip-path="url(#clip980)" style="stroke:#000000; stroke-linecap:butt; stroke-linejoin:round; stroke-width:4; stroke-opacity:1; fill:none" points="
  1798.04,1410.9 1798.04,1392 
  "/>
<path clip-path="url(#clip980)" d="M756.898 1485.02 L764.537 1485.02 L764.537 1458.66 L756.227 1460.32 L756.227 1456.06 L764.491 1454.4 L769.167 1454.4 L769.167 1485.02 L776.806 1485.02 L776.806 1488.96 L756.898 1488.96 L756.898 1485.02 Z" fill="#000000" fill-rule="evenodd" fill-opacity="1" /><path clip-path="url(#clip980)" d="M796.25 1457.48 Q792.639 1457.48 790.81 1461.04 Q789.005 1464.58 789.005 1471.71 Q789.005 1478.82 790.81 1482.38 Q792.639 1485.92 796.25 1485.92 Q799.884 1485.92 801.69 1482.38 Q803.518 1478.82 803.518 1471.71 Q803.518 1464.58 801.69 1461.04 Q799.884 1457.48 796.25 1457.48 M796.25 1453.77 Q802.06 1453.77 805.116 1458.38 Q808.194 1462.96 808.194 1471.71 Q808.194 1480.44 805.116 1485.04 Q802.06 1489.63 796.25 1489.63 Q790.44 1489.63 787.361 1485.04 Q784.305 1480.44 784.305 1471.71 Q784.305 1462.96 787.361 1458.38 Q790.44 1453.77 796.25 1453.77 Z" fill="#000000" fill-rule="evenodd" fill-opacity="1" /><path clip-path="url(#clip980)" d="M808.194 1447.87 L832.306 1447.87 L832.306 1451.07 L808.194 1451.07 L808.194 1447.87 Z" fill="#000000" fill-rule="evenodd" fill-opacity="1" /><path clip-path="url(#clip980)" d="M850.944 1436.78 L841.352 1451.77 L850.944 1451.77 L850.944 1436.78 M849.947 1433.47 L854.725 1433.47 L854.725 1451.77 L858.731 1451.77 L858.731 1454.93 L854.725 1454.93 L854.725 1461.55 L850.944 1461.55 L850.944 1454.93 L838.268 1454.93 L838.268 1451.26 L849.947 1433.47 Z" fill="#000000" fill-rule="evenodd" fill-opacity="1" /><path clip-path="url(#clip980)" d="M1748.31 1485.02 L1755.95 1485.02 L1755.95 1458.66 L1747.64 1460.32 L1747.64 1456.06 L1755.9 1454.4 L1760.58 1454.4 L1760.58 1485.02 L1768.21 1485.02 L1768.21 1488.96 L1748.31 1488.96 L1748.31 1485.02 Z" fill="#000000" fill-rule="evenodd" fill-opacity="1" /><path clip-path="url(#clip980)" d="M1787.66 1457.48 Q1784.05 1457.48 1782.22 1461.04 Q1780.41 1464.58 1780.41 1471.71 Q1780.41 1478.82 1782.22 1482.38 Q1784.05 1485.92 1787.66 1485.92 Q1791.29 1485.92 1793.1 1482.38 Q1794.93 1478.82 1794.93 1471.71 Q1794.93 1464.58 1793.1 1461.04 Q1791.29 1457.48 1787.66 1457.48 M1787.66 1453.77 Q1793.47 1453.77 1796.52 1458.38 Q1799.6 1462.96 1799.6 1471.71 Q1799.6 1480.44 1796.52 1485.04 Q1793.47 1489.63 1787.66 1489.63 Q1781.85 1489.63 1778.77 1485.04 Q1775.71 1480.44 1775.71 1471.71 Q1775.71 1462.96 1778.77 1458.38 Q1781.85 1453.77 1787.66 1453.77 Z" fill="#000000" fill-rule="evenodd" fill-opacity="1" /><path clip-path="url(#clip980)" d="M1799.6 1447.87 L1823.71 1447.87 L1823.71 1451.07 L1799.6 1451.07 L1799.6 1447.87 Z" fill="#000000" fill-rule="evenodd" fill-opacity="1" /><path clip-path="url(#clip980)" d="M1835.19 1458.35 L1848.45 1458.35 L1848.45 1461.55 L1830.62 1461.55 L1830.62 1458.35 Q1832.78 1456.11 1836.5 1452.35 Q1840.25 1448.57 1841.21 1447.48 Q1843.03 1445.43 1843.74 1444.02 Q1844.48 1442.59 1844.48 1441.22 Q1844.48 1438.98 1842.9 1437.57 Q1841.34 1436.16 1838.82 1436.16 Q1837.03 1436.16 1835.04 1436.78 Q1833.06 1437.4 1830.8 1438.66 L1830.8 1434.82 Q1833.1 1433.9 1835.09 1433.43 Q1837.09 1432.96 1838.74 1432.96 Q1843.11 1432.96 1845.7 1435.14 Q1848.3 1437.32 1848.3 1440.97 Q1848.3 1442.7 1847.64 1444.26 Q1847 1445.8 1845.29 1447.91 Q1844.82 1448.46 1842.3 1451.07 Q1839.78 1453.67 1835.19 1458.35 Z" fill="#000000" fill-rule="evenodd" fill-opacity="1" /><path clip-path="url(#clip980)" d="M975.594 1531.95 L975.594 1549.8 L983.679 1549.8 Q988.167 1549.8 990.618 1547.48 Q993.068 1545.16 993.068 1540.86 Q993.068 1536.6 990.618 1534.27 Q988.167 1531.95 983.679 1531.95 L975.594 1531.95 M969.165 1526.67 L983.679 1526.67 Q991.668 1526.67 995.742 1530.29 Q999.848 1533.89 999.848 1540.86 Q999.848 1547.9 995.742 1551.49 Q991.668 1555.09 983.679 1555.09 L975.594 1555.09 L975.594 1574.19 L969.165 1574.19 L969.165 1526.67 Z" fill="#000000" fill-rule="evenodd" fill-opacity="1" /><path clip-path="url(#clip980)" d="M1027.73 1544.01 Q1026.74 1543.44 1025.57 1543.18 Q1024.42 1542.9 1023.02 1542.9 Q1018.05 1542.9 1015.38 1546.14 Q1012.74 1549.36 1012.74 1555.41 L1012.74 1574.19 L1006.85 1574.19 L1006.85 1538.54 L1012.74 1538.54 L1012.74 1544.08 Q1014.58 1540.83 1017.54 1539.27 Q1020.5 1537.68 1024.74 1537.68 Q1025.34 1537.68 1026.07 1537.77 Q1026.81 1537.84 1027.7 1538 L1027.73 1544.01 Z" fill="#000000" fill-rule="evenodd" fill-opacity="1" /><path clip-path="url(#clip980)" d="M1062.93 1554.9 L1062.93 1557.76 L1036 1557.76 Q1036.39 1563.81 1039.63 1566.99 Q1042.91 1570.14 1048.74 1570.14 Q1052.11 1570.14 1055.26 1569.32 Q1058.44 1568.49 1061.56 1566.83 L1061.56 1572.37 Q1058.41 1573.71 1055.1 1574.41 Q1051.79 1575.11 1048.39 1575.11 Q1039.86 1575.11 1034.86 1570.14 Q1029.89 1565.18 1029.89 1556.71 Q1029.89 1547.96 1034.6 1542.83 Q1039.35 1537.68 1047.37 1537.68 Q1054.56 1537.68 1058.73 1542.33 Q1062.93 1546.94 1062.93 1554.9 M1057.08 1553.18 Q1057.01 1548.37 1054.37 1545.51 Q1051.76 1542.64 1047.43 1542.64 Q1042.53 1542.64 1039.57 1545.41 Q1036.64 1548.18 1036.2 1553.21 L1057.08 1553.18 Z" fill="#000000" fill-rule="evenodd" fill-opacity="1" /><path clip-path="url(#clip980)" d="M1098.2 1539.91 L1098.2 1545.38 Q1095.72 1544.01 1093.2 1543.34 Q1090.72 1542.64 1088.17 1542.64 Q1082.47 1542.64 1079.32 1546.27 Q1076.17 1549.87 1076.17 1556.39 Q1076.17 1562.92 1079.32 1566.55 Q1082.47 1570.14 1088.17 1570.14 Q1090.72 1570.14 1093.2 1569.47 Q1095.72 1568.77 1098.2 1567.41 L1098.2 1572.82 Q1095.75 1573.96 1093.11 1574.54 Q1090.5 1575.11 1087.54 1575.11 Q1079.48 1575.11 1074.74 1570.05 Q1070 1564.99 1070 1556.39 Q1070 1547.67 1074.77 1542.68 Q1079.58 1537.68 1087.92 1537.68 Q1090.62 1537.68 1093.2 1538.25 Q1095.78 1538.79 1098.2 1539.91 Z" fill="#000000" fill-rule="evenodd" fill-opacity="1" /><path clip-path="url(#clip980)" d="M1108.38 1538.54 L1114.24 1538.54 L1114.24 1574.19 L1108.38 1574.19 L1108.38 1538.54 M1108.38 1524.66 L1114.24 1524.66 L1114.24 1532.08 L1108.38 1532.08 L1108.38 1524.66 Z" fill="#000000" fill-rule="evenodd" fill-opacity="1" /><path clip-path="url(#clip980)" d="M1149.22 1539.59 L1149.22 1545.13 Q1146.74 1543.85 1144.06 1543.22 Q1141.39 1542.58 1138.52 1542.58 Q1134.16 1542.58 1131.97 1543.92 Q1129.8 1545.25 1129.8 1547.93 Q1129.8 1549.96 1131.36 1551.14 Q1132.92 1552.29 1137.63 1553.34 L1139.64 1553.78 Q1145.88 1555.12 1148.49 1557.57 Q1151.13 1559.99 1151.13 1564.35 Q1151.13 1569.32 1147.18 1572.21 Q1143.27 1575.11 1136.39 1575.11 Q1133.53 1575.11 1130.41 1574.54 Q1127.32 1573.99 1123.88 1572.88 L1123.88 1566.83 Q1127.13 1568.52 1130.28 1569.38 Q1133.43 1570.21 1136.52 1570.21 Q1140.66 1570.21 1142.89 1568.81 Q1145.11 1567.37 1145.11 1564.8 Q1145.11 1562.41 1143.49 1561.14 Q1141.9 1559.86 1136.46 1558.68 L1134.42 1558.21 Q1128.98 1557.06 1126.56 1554.71 Q1124.14 1552.32 1124.14 1548.18 Q1124.14 1543.15 1127.7 1540.42 Q1131.27 1537.68 1137.82 1537.68 Q1141.07 1537.68 1143.94 1538.16 Q1146.8 1538.63 1149.22 1539.59 Z" fill="#000000" fill-rule="evenodd" fill-opacity="1" /><path clip-path="url(#clip980)" d="M1160.45 1538.54 L1166.31 1538.54 L1166.31 1574.19 L1160.45 1574.19 L1160.45 1538.54 M1160.45 1524.66 L1166.31 1524.66 L1166.31 1532.08 L1160.45 1532.08 L1160.45 1524.66 Z" fill="#000000" fill-rule="evenodd" fill-opacity="1" /><path clip-path="url(#clip980)" d="M1192.38 1542.64 Q1187.67 1542.64 1184.93 1546.34 Q1182.19 1550 1182.19 1556.39 Q1182.19 1562.79 1184.9 1566.48 Q1187.64 1570.14 1192.38 1570.14 Q1197.06 1570.14 1199.79 1566.45 Q1202.53 1562.76 1202.53 1556.39 Q1202.53 1550.06 1199.79 1546.37 Q1197.06 1542.64 1192.38 1542.64 M1192.38 1537.68 Q1200.02 1537.68 1204.38 1542.64 Q1208.74 1547.61 1208.74 1556.39 Q1208.74 1565.15 1204.38 1570.14 Q1200.02 1575.11 1192.38 1575.11 Q1184.71 1575.11 1180.35 1570.14 Q1176.02 1565.15 1176.02 1556.39 Q1176.02 1547.61 1180.35 1542.64 Q1184.71 1537.68 1192.38 1537.68 Z" fill="#000000" fill-rule="evenodd" fill-opacity="1" /><path clip-path="url(#clip980)" d="M1248.08 1552.67 L1248.08 1574.19 L1242.22 1574.19 L1242.22 1552.86 Q1242.22 1547.8 1240.25 1545.29 Q1238.28 1542.77 1234.33 1542.77 Q1229.59 1542.77 1226.85 1545.79 Q1224.11 1548.82 1224.11 1554.04 L1224.11 1574.19 L1218.22 1574.19 L1218.22 1538.54 L1224.11 1538.54 L1224.11 1544.08 Q1226.21 1540.86 1229.05 1539.27 Q1231.91 1537.68 1235.63 1537.68 Q1241.78 1537.68 1244.93 1541.5 Q1248.08 1545.29 1248.08 1552.67 Z" fill="#000000" fill-rule="evenodd" fill-opacity="1" /><path clip-path="url(#clip980)" d="M1290.25 1554.9 L1290.25 1557.76 L1263.32 1557.76 Q1263.71 1563.81 1266.95 1566.99 Q1270.23 1570.14 1276.06 1570.14 Q1279.43 1570.14 1282.58 1569.32 Q1285.76 1568.49 1288.88 1566.83 L1288.88 1572.37 Q1285.73 1573.71 1282.42 1574.41 Q1279.11 1575.11 1275.71 1575.11 Q1267.18 1575.11 1262.18 1570.14 Q1257.21 1565.18 1257.21 1556.71 Q1257.21 1547.96 1261.92 1542.83 Q1266.67 1537.68 1274.69 1537.68 Q1281.88 1537.68 1286.05 1542.33 Q1290.25 1546.94 1290.25 1554.9 M1284.39 1553.18 Q1284.33 1548.37 1281.69 1545.51 Q1279.08 1542.64 1274.75 1542.64 Q1269.85 1542.64 1266.89 1545.41 Q1263.96 1548.18 1263.52 1553.21 L1284.39 1553.18 Z" fill="#000000" fill-rule="evenodd" fill-opacity="1" /><path clip-path="url(#clip980)" d="M1320.58 1538.54 L1326.44 1538.54 L1326.44 1574.19 L1320.58 1574.19 L1320.58 1538.54 M1320.58 1524.66 L1326.44 1524.66 L1326.44 1532.08 L1320.58 1532.08 L1320.58 1524.66 Z" fill="#000000" fill-rule="evenodd" fill-opacity="1" /><path clip-path="url(#clip980)" d="M1366.45 1545.38 Q1368.64 1541.43 1371.7 1539.56 Q1374.76 1537.68 1378.89 1537.68 Q1384.46 1537.68 1387.49 1541.59 Q1390.51 1545.48 1390.51 1552.67 L1390.51 1574.19 L1384.62 1574.19 L1384.62 1552.86 Q1384.62 1547.74 1382.81 1545.25 Q1380.99 1542.77 1377.27 1542.77 Q1372.72 1542.77 1370.08 1545.79 Q1367.44 1548.82 1367.44 1554.04 L1367.44 1574.19 L1361.55 1574.19 L1361.55 1552.86 Q1361.55 1547.7 1359.73 1545.25 Q1357.92 1542.77 1354.13 1542.77 Q1349.64 1542.77 1347 1545.83 Q1344.36 1548.85 1344.36 1554.04 L1344.36 1574.19 L1338.47 1574.19 L1338.47 1538.54 L1344.36 1538.54 L1344.36 1544.08 Q1346.37 1540.8 1349.17 1539.24 Q1351.97 1537.68 1355.82 1537.68 Q1359.7 1537.68 1362.41 1539.65 Q1365.14 1541.62 1366.45 1545.38 Z" fill="#000000" fill-rule="evenodd" fill-opacity="1" /><path clip-path="url(#clip980)" d="M1407.86 1568.84 L1407.86 1587.74 L1401.97 1587.74 L1401.97 1538.54 L1407.86 1538.54 L1407.86 1543.95 Q1409.7 1540.77 1412.5 1539.24 Q1415.34 1537.68 1419.25 1537.68 Q1425.75 1537.68 1429.79 1542.83 Q1433.86 1547.99 1433.86 1556.39 Q1433.86 1564.8 1429.79 1569.95 Q1425.75 1575.11 1419.25 1575.11 Q1415.34 1575.11 1412.5 1573.58 Q1409.7 1572.02 1407.86 1568.84 M1427.78 1556.39 Q1427.78 1549.93 1425.11 1546.27 Q1422.47 1542.58 1417.82 1542.58 Q1413.17 1542.58 1410.5 1546.27 Q1407.86 1549.93 1407.86 1556.39 Q1407.86 1562.85 1410.5 1566.55 Q1413.17 1570.21 1417.82 1570.21 Q1422.47 1570.21 1425.11 1566.55 Q1427.78 1562.85 1427.78 1556.39 Z" fill="#000000" fill-rule="evenodd" fill-opacity="1" /><path clip-path="url(#clip980)" d="M1457.38 1542.64 Q1452.67 1542.64 1449.94 1546.34 Q1447.2 1550 1447.2 1556.39 Q1447.2 1562.79 1449.9 1566.48 Q1452.64 1570.14 1457.38 1570.14 Q1462.06 1570.14 1464.8 1566.45 Q1467.54 1562.76 1467.54 1556.39 Q1467.54 1550.06 1464.8 1546.37 Q1462.06 1542.64 1457.38 1542.64 M1457.38 1537.68 Q1465.02 1537.68 1469.38 1542.64 Q1473.74 1547.61 1473.74 1556.39 Q1473.74 1565.15 1469.38 1570.14 Q1465.02 1575.11 1457.38 1575.11 Q1449.71 1575.11 1445.35 1570.14 Q1441.02 1565.15 1441.02 1556.39 Q1441.02 1547.61 1445.35 1542.64 Q1449.71 1537.68 1457.38 1537.68 Z" fill="#000000" fill-rule="evenodd" fill-opacity="1" /><path clip-path="url(#clip980)" d="M1506.18 1539.59 L1506.18 1545.13 Q1503.69 1543.85 1501.02 1543.22 Q1498.35 1542.58 1495.48 1542.58 Q1491.12 1542.58 1488.93 1543.92 Q1486.76 1545.25 1486.76 1547.93 Q1486.76 1549.96 1488.32 1551.14 Q1489.88 1552.29 1494.59 1553.34 L1496.6 1553.78 Q1502.83 1555.12 1505.44 1557.57 Q1508.09 1559.99 1508.09 1564.35 Q1508.09 1569.32 1504.14 1572.21 Q1500.22 1575.11 1493.35 1575.11 Q1490.48 1575.11 1487.37 1574.54 Q1484.28 1573.99 1480.84 1572.88 L1480.84 1566.83 Q1484.09 1568.52 1487.24 1569.38 Q1490.39 1570.21 1493.48 1570.21 Q1497.61 1570.21 1499.84 1568.81 Q1502.07 1567.37 1502.07 1564.8 Q1502.07 1562.41 1500.45 1561.14 Q1498.86 1559.86 1493.41 1558.68 L1491.38 1558.21 Q1485.93 1557.06 1483.51 1554.71 Q1481.1 1552.32 1481.1 1548.18 Q1481.1 1543.15 1484.66 1540.42 Q1488.22 1537.68 1494.78 1537.68 Q1498.03 1537.68 1500.89 1538.16 Q1503.76 1538.63 1506.18 1539.59 Z" fill="#000000" fill-rule="evenodd" fill-opacity="1" /><path clip-path="url(#clip980)" d="M1523.2 1528.42 L1523.2 1538.54 L1535.27 1538.54 L1535.27 1543.09 L1523.2 1543.09 L1523.2 1562.44 Q1523.2 1566.8 1524.38 1568.04 Q1525.59 1569.28 1529.25 1569.28 L1535.27 1569.28 L1535.27 1574.19 L1529.25 1574.19 Q1522.47 1574.19 1519.89 1571.67 Q1517.32 1569.12 1517.32 1562.44 L1517.32 1543.09 L1513.02 1543.09 L1513.02 1538.54 L1517.32 1538.54 L1517.32 1528.42 L1523.2 1528.42 Z" fill="#000000" fill-rule="evenodd" fill-opacity="1" /><path clip-path="url(#clip980)" d="M1559.17 1556.27 Q1552.07 1556.27 1549.34 1557.89 Q1546.6 1559.51 1546.6 1563.43 Q1546.6 1566.55 1548.64 1568.39 Q1550.7 1570.21 1554.24 1570.21 Q1559.11 1570.21 1562.04 1566.77 Q1565 1563.3 1565 1557.57 L1565 1556.27 L1559.17 1556.27 M1570.85 1553.85 L1570.85 1574.19 L1565 1574.19 L1565 1568.77 Q1562.99 1572.02 1560 1573.58 Q1557.01 1575.11 1552.68 1575.11 Q1547.2 1575.11 1543.96 1572.05 Q1540.74 1568.97 1540.74 1563.81 Q1540.74 1557.79 1544.75 1554.74 Q1548.79 1551.68 1556.78 1551.68 L1565 1551.68 L1565 1551.11 Q1565 1547.07 1562.32 1544.87 Q1559.68 1542.64 1554.87 1542.64 Q1551.82 1542.64 1548.92 1543.38 Q1546.03 1544.11 1543.35 1545.57 L1543.35 1540.16 Q1546.57 1538.92 1549.59 1538.31 Q1552.61 1537.68 1555.48 1537.68 Q1563.21 1537.68 1567.03 1541.69 Q1570.85 1545.7 1570.85 1553.85 Z" fill="#000000" fill-rule="evenodd" fill-opacity="1" /><path clip-path="url(#clip980)" d="M1588.71 1528.42 L1588.71 1538.54 L1600.77 1538.54 L1600.77 1543.09 L1588.71 1543.09 L1588.71 1562.44 Q1588.71 1566.8 1589.89 1568.04 Q1591.09 1569.28 1594.75 1569.28 L1600.77 1569.28 L1600.77 1574.19 L1594.75 1574.19 Q1587.98 1574.19 1585.4 1571.67 Q1582.82 1569.12 1582.82 1562.44 L1582.82 1543.09 L1578.52 1543.09 L1578.52 1538.54 L1582.82 1538.54 L1582.82 1528.42 L1588.71 1528.42 Z" fill="#000000" fill-rule="evenodd" fill-opacity="1" /><path clip-path="url(#clip980)" d="M1624.67 1556.27 Q1617.58 1556.27 1614.84 1557.89 Q1612.1 1559.51 1612.1 1563.43 Q1612.1 1566.55 1614.14 1568.39 Q1616.21 1570.21 1619.74 1570.21 Q1624.61 1570.21 1627.54 1566.77 Q1630.5 1563.3 1630.5 1557.57 L1630.5 1556.27 L1624.67 1556.27 M1636.35 1553.85 L1636.35 1574.19 L1630.5 1574.19 L1630.5 1568.77 Q1628.49 1572.02 1625.5 1573.58 Q1622.51 1575.11 1618.18 1575.11 Q1612.71 1575.11 1609.46 1572.05 Q1606.24 1568.97 1606.24 1563.81 Q1606.24 1557.79 1610.26 1554.74 Q1614.3 1551.68 1622.29 1551.68 L1630.5 1551.68 L1630.5 1551.11 Q1630.5 1547.07 1627.82 1544.87 Q1625.18 1542.64 1620.38 1542.64 Q1617.32 1542.64 1614.42 1543.38 Q1611.53 1544.11 1608.85 1545.57 L1608.85 1540.16 Q1612.07 1538.92 1615.09 1538.31 Q1618.12 1537.68 1620.98 1537.68 Q1628.72 1537.68 1632.54 1541.69 Q1636.35 1545.7 1636.35 1553.85 Z" fill="#000000" fill-rule="evenodd" fill-opacity="1" /><polyline clip-path="url(#clip982)" style="stroke:#000000; stroke-linecap:butt; stroke-linejoin:round; stroke-width:2; stroke-opacity:0.1; fill:none" points="
  252.764,889.134 2352.76,889.134 
  "/>
<polyline clip-path="url(#clip982)" style="stroke:#000000; stroke-linecap:butt; stroke-linejoin:round; stroke-width:2; stroke-opacity:0.1; fill:none" points="
  252.764,353.603 2352.76,353.603 
  "/>
<polyline clip-path="url(#clip980)" style="stroke:#000000; stroke-linecap:butt; stroke-linejoin:round; stroke-width:4; stroke-opacity:1; fill:none" points="
  252.764,1410.9 252.764,47.2441 
  "/>
<polyline clip-path="url(#clip980)" style="stroke:#000000; stroke-linecap:butt; stroke-linejoin:round; stroke-width:4; stroke-opacity:1; fill:none" points="
  252.764,889.134 271.662,889.134 
  "/>
<polyline clip-path="url(#clip980)" style="stroke:#000000; stroke-linecap:butt; stroke-linejoin:round; stroke-width:4; stroke-opacity:1; fill:none" points="
  252.764,353.603 271.662,353.603 
  "/>
<path clip-path="url(#clip980)" d="M114.931 908.926 L122.57 908.926 L122.57 882.56 L114.26 884.227 L114.26 879.968 L122.524 878.301 L127.2 878.301 L127.2 908.926 L134.839 908.926 L134.839 912.861 L114.931 912.861 L114.931 908.926 Z" fill="#000000" fill-rule="evenodd" fill-opacity="1" /><path clip-path="url(#clip980)" d="M154.283 881.38 Q150.672 881.38 148.843 884.945 Q147.038 888.486 147.038 895.616 Q147.038 902.722 148.843 906.287 Q150.672 909.829 154.283 909.829 Q157.917 909.829 159.723 906.287 Q161.552 902.722 161.552 895.616 Q161.552 888.486 159.723 884.945 Q157.917 881.38 154.283 881.38 M154.283 877.676 Q160.093 877.676 163.149 882.283 Q166.227 886.866 166.227 895.616 Q166.227 904.343 163.149 908.949 Q160.093 913.532 154.283 913.532 Q148.473 913.532 145.394 908.949 Q142.339 904.343 142.339 895.616 Q142.339 886.866 145.394 882.283 Q148.473 877.676 154.283 877.676 Z" fill="#000000" fill-rule="evenodd" fill-opacity="1" /><path clip-path="url(#clip980)" d="M166.227 871.777 L190.339 871.777 L190.339 874.975 L166.227 874.975 L166.227 871.777 Z" fill="#000000" fill-rule="evenodd" fill-opacity="1" /><path clip-path="url(#clip980)" d="M208.978 860.681 L199.386 875.671 L208.978 875.671 L208.978 860.681 M207.981 857.371 L212.758 857.371 L212.758 875.671 L216.764 875.671 L216.764 878.83 L212.758 878.83 L212.758 885.451 L208.978 885.451 L208.978 878.83 L196.301 878.83 L196.301 875.163 L207.981 857.371 Z" fill="#000000" fill-rule="evenodd" fill-opacity="1" /><path clip-path="url(#clip980)" d="M116.624 373.396 L124.263 373.396 L124.263 347.03 L115.953 348.697 L115.953 344.437 L124.217 342.771 L128.893 342.771 L128.893 373.396 L136.531 373.396 L136.531 377.331 L116.624 377.331 L116.624 373.396 Z" fill="#000000" fill-rule="evenodd" fill-opacity="1" /><path clip-path="url(#clip980)" d="M155.976 345.849 Q152.365 345.849 150.536 349.414 Q148.73 352.956 148.73 360.086 Q148.73 367.192 150.536 370.757 Q152.365 374.298 155.976 374.298 Q159.61 374.298 161.416 370.757 Q163.244 367.192 163.244 360.086 Q163.244 352.956 161.416 349.414 Q159.61 345.849 155.976 345.849 M155.976 342.146 Q161.786 342.146 164.841 346.752 Q167.92 351.336 167.92 360.086 Q167.92 368.812 164.841 373.419 Q161.786 378.002 155.976 378.002 Q150.166 378.002 147.087 373.419 Q144.031 368.812 144.031 360.086 Q144.031 351.336 147.087 346.752 Q150.166 342.146 155.976 342.146 Z" fill="#000000" fill-rule="evenodd" fill-opacity="1" /><path clip-path="url(#clip980)" d="M167.92 336.247 L192.032 336.247 L192.032 339.444 L167.92 339.444 L167.92 336.247 Z" fill="#000000" fill-rule="evenodd" fill-opacity="1" /><path clip-path="url(#clip980)" d="M203.504 346.723 L216.764 346.723 L216.764 349.92 L198.934 349.92 L198.934 346.723 Q201.097 344.485 204.821 340.723 Q208.564 336.943 209.523 335.852 Q211.347 333.802 212.062 332.392 Q212.796 330.962 212.796 329.589 Q212.796 327.351 211.216 325.94 Q209.655 324.53 207.134 324.53 Q205.348 324.53 203.354 325.151 Q201.379 325.771 199.122 327.031 L199.122 323.195 Q201.417 322.273 203.41 321.803 Q205.404 321.333 207.059 321.333 Q211.423 321.333 214.018 323.514 Q216.613 325.696 216.613 329.345 Q216.613 331.075 215.955 332.636 Q215.316 334.178 213.604 336.285 Q213.134 336.83 210.614 339.444 Q208.094 342.04 203.504 346.723 Z" fill="#000000" fill-rule="evenodd" fill-opacity="1" /><path clip-path="url(#clip980)" d="M21.7677 1031.93 L39.6235 1031.93 L39.6235 1023.85 Q39.6235 1019.36 37.3 1016.91 Q34.9765 1014.46 30.6797 1014.46 Q26.4147 1014.46 24.0912 1016.91 Q21.7677 1019.36 21.7677 1023.85 L21.7677 1031.93 M16.4842 1038.36 L16.4842 1023.85 Q16.4842 1015.86 20.1126 1011.79 Q23.7092 1007.68 30.6797 1007.68 Q37.7138 1007.68 41.3104 1011.79 Q44.907 1015.86 44.907 1023.85 L44.907 1031.93 L64.0042 1031.93 L64.0042 1038.36 L16.4842 1038.36 Z" fill="#000000" fill-rule="evenodd" fill-opacity="1" /><path clip-path="url(#clip980)" d="M33.8307 979.8 Q33.2578 980.786 33.0032 981.964 Q32.7167 983.11 32.7167 984.51 Q32.7167 989.476 35.9632 992.149 Q39.1779 994.791 45.2253 994.791 L64.0042 994.791 L64.0042 1000.68 L28.3562 1000.68 L28.3562 994.791 L33.8944 994.791 Q30.6479 992.945 29.0883 989.985 Q27.4968 987.025 27.4968 982.792 Q27.4968 982.187 27.5923 981.455 Q27.656 980.723 27.8151 979.831 L33.8307 979.8 Z" fill="#000000" fill-rule="evenodd" fill-opacity="1" /><path clip-path="url(#clip980)" d="M44.7161 944.597 L47.5806 944.597 L47.5806 971.524 Q53.6281 971.142 56.8109 967.896 Q59.9619 964.617 59.9619 958.793 Q59.9619 955.419 59.1344 952.268 Q58.3069 949.085 56.6518 945.966 L62.1899 945.966 Q63.5267 949.117 64.227 952.427 Q64.9272 955.737 64.9272 959.143 Q64.9272 967.673 59.9619 972.67 Q54.9967 977.635 46.5303 977.635 Q37.7774 977.635 32.6531 972.925 Q27.4968 968.182 27.4968 960.161 Q27.4968 952.968 32.1438 948.799 Q36.7589 944.597 44.7161 944.597 M42.9973 950.454 Q38.1912 950.517 35.3266 953.159 Q32.4621 955.769 32.4621 960.098 Q32.4621 964.999 35.2312 967.959 Q38.0002 970.888 43.0292 971.333 L42.9973 950.454 Z" fill="#000000" fill-rule="evenodd" fill-opacity="1" /><path clip-path="url(#clip980)" d="M29.7248 909.331 L35.1993 909.331 Q33.8307 911.814 33.1623 914.328 Q32.4621 916.811 32.4621 919.357 Q32.4621 925.055 36.0905 928.206 Q39.6872 931.357 46.212 931.357 Q52.7369 931.357 56.3653 928.206 Q59.9619 925.055 59.9619 919.357 Q59.9619 916.811 59.2935 914.328 Q58.5933 911.814 57.2247 909.331 L62.6355 909.331 Q63.7814 911.782 64.3543 914.424 Q64.9272 917.034 64.9272 919.994 Q64.9272 928.046 59.8664 932.789 Q54.8057 937.531 46.212 937.531 Q37.491 937.531 32.4939 932.757 Q27.4968 927.951 27.4968 919.612 Q27.4968 916.906 28.0697 914.328 Q28.6108 911.75 29.7248 909.331 Z" fill="#000000" fill-rule="evenodd" fill-opacity="1" /><path clip-path="url(#clip980)" d="M28.3562 899.146 L28.3562 893.29 L64.0042 893.29 L64.0042 899.146 L28.3562 899.146 M14.479 899.146 L14.479 893.29 L21.895 893.29 L21.895 899.146 L14.479 899.146 Z" fill="#000000" fill-rule="evenodd" fill-opacity="1" /><path clip-path="url(#clip980)" d="M29.4065 858.31 L34.9447 858.31 Q33.6716 860.793 33.035 863.466 Q32.3984 866.14 32.3984 869.005 Q32.3984 873.365 33.7352 875.561 Q35.072 877.726 37.7456 877.726 Q39.7826 877.726 40.9603 876.166 Q42.1061 874.606 43.1565 869.896 L43.6021 867.891 Q44.9389 861.652 47.3897 859.042 Q49.8086 856.4 54.1691 856.4 Q59.1344 856.4 62.0308 860.347 Q64.9272 864.262 64.9272 871.137 Q64.9272 874.002 64.3543 877.121 Q63.8132 880.208 62.6992 883.646 L56.6518 883.646 Q58.3387 880.399 59.198 877.248 Q60.0256 874.097 60.0256 871.01 Q60.0256 866.872 58.6251 864.644 Q57.1929 862.416 54.6147 862.416 Q52.2276 862.416 50.9545 864.039 Q49.6813 865.631 48.5037 871.073 L48.0262 873.11 Q46.8804 878.553 44.5251 880.972 Q42.138 883.391 38.0002 883.391 Q32.9713 883.391 30.2341 879.826 Q27.4968 876.261 27.4968 869.705 Q27.4968 866.458 27.9743 863.594 Q28.4517 860.729 29.4065 858.31 Z" fill="#000000" fill-rule="evenodd" fill-opacity="1" /><path clip-path="url(#clip980)" d="M28.3562 847.075 L28.3562 841.218 L64.0042 841.218 L64.0042 847.075 L28.3562 847.075 M14.479 847.075 L14.479 841.218 L21.895 841.218 L21.895 847.075 L14.479 847.075 Z" fill="#000000" fill-rule="evenodd" fill-opacity="1" /><path clip-path="url(#clip980)" d="M32.4621 815.151 Q32.4621 819.861 36.1542 822.599 Q39.8145 825.336 46.212 825.336 Q52.6095 825.336 56.3017 822.63 Q59.9619 819.893 59.9619 815.151 Q59.9619 810.472 56.2698 807.735 Q52.5777 804.997 46.212 804.997 Q39.8781 804.997 36.186 807.735 Q32.4621 810.472 32.4621 815.151 M27.4968 815.151 Q27.4968 807.512 32.4621 803.151 Q37.4273 798.791 46.212 798.791 Q54.9649 798.791 59.9619 803.151 Q64.9272 807.512 64.9272 815.151 Q64.9272 822.821 59.9619 827.182 Q54.9649 831.511 46.212 831.511 Q37.4273 831.511 32.4621 827.182 Q27.4968 822.821 27.4968 815.151 Z" fill="#000000" fill-rule="evenodd" fill-opacity="1" /><path clip-path="url(#clip980)" d="M42.4881 759.451 L64.0042 759.451 L64.0042 765.307 L42.679 765.307 Q37.6183 765.307 35.1038 767.281 Q32.5894 769.254 32.5894 773.201 Q32.5894 777.943 35.6131 780.68 Q38.6368 783.418 43.8567 783.418 L64.0042 783.418 L64.0042 789.306 L28.3562 789.306 L28.3562 783.418 L33.8944 783.418 Q30.6797 781.317 29.0883 778.484 Q27.4968 775.62 27.4968 771.896 Q27.4968 765.753 31.3163 762.602 Q35.1038 759.451 42.4881 759.451 Z" fill="#000000" fill-rule="evenodd" fill-opacity="1" /><path clip-path="url(#clip980)" d="M44.7161 717.278 L47.5806 717.278 L47.5806 744.205 Q53.6281 743.823 56.8109 740.576 Q59.9619 737.298 59.9619 731.473 Q59.9619 728.1 59.1344 724.949 Q58.3069 721.766 56.6518 718.647 L62.1899 718.647 Q63.5267 721.798 64.227 725.108 Q64.9272 728.418 64.9272 731.824 Q64.9272 740.354 59.9619 745.351 Q54.9967 750.316 46.5303 750.316 Q37.7774 750.316 32.6531 745.605 Q27.4968 740.863 27.4968 732.842 Q27.4968 725.649 32.1438 721.479 Q36.7589 717.278 44.7161 717.278 M42.9973 723.134 Q38.1912 723.198 35.3266 725.84 Q32.4621 728.45 32.4621 732.778 Q32.4621 737.68 35.2312 740.64 Q38.0002 743.568 43.0292 744.014 L42.9973 723.134 Z" fill="#000000" fill-rule="evenodd" fill-opacity="1" /><path clip-path="url(#clip980)" d="M32.4621 673.132 Q32.4621 677.842 36.1542 680.58 Q39.8145 683.317 46.212 683.317 Q52.6095 683.317 56.3017 680.611 Q59.9619 677.874 59.9619 673.132 Q59.9619 668.453 56.2698 665.716 Q52.5777 662.978 46.212 662.978 Q39.8781 662.978 36.186 665.716 Q32.4621 668.453 32.4621 673.132 M27.4968 673.132 Q27.4968 665.493 32.4621 661.132 Q37.4273 656.772 46.212 656.772 Q54.9649 656.772 59.9619 661.132 Q64.9272 665.493 64.9272 673.132 Q64.9272 680.802 59.9619 685.163 Q54.9649 689.492 46.212 689.492 Q37.4273 689.492 32.4621 685.163 Q27.4968 680.802 27.4968 673.132 Z" fill="#000000" fill-rule="evenodd" fill-opacity="1" /><path clip-path="url(#clip980)" d="M18.2347 641.271 L28.3562 641.271 L28.3562 629.208 L32.9077 629.208 L32.9077 641.271 L52.2594 641.271 Q56.6199 641.271 57.8613 640.094 Q59.1026 638.884 59.1026 635.224 L59.1026 629.208 L64.0042 629.208 L64.0042 635.224 Q64.0042 642.003 61.4897 644.582 Q58.9434 647.16 52.2594 647.16 L32.9077 647.16 L32.9077 651.456 L28.3562 651.456 L28.3562 647.16 L18.2347 647.16 L18.2347 641.271 Z" fill="#000000" fill-rule="evenodd" fill-opacity="1" /><path clip-path="url(#clip980)" d="M18.2347 615.713 L28.3562 615.713 L28.3562 603.65 L32.9077 603.65 L32.9077 615.713 L52.2594 615.713 Q56.6199 615.713 57.8613 614.535 Q59.1026 613.326 59.1026 609.666 L59.1026 603.65 L64.0042 603.65 L64.0042 609.666 Q64.0042 616.445 61.4897 619.023 Q58.9434 621.601 52.2594 621.601 L32.9077 621.601 L32.9077 625.898 L28.3562 625.898 L28.3562 621.601 L18.2347 621.601 L18.2347 615.713 Z" fill="#000000" fill-rule="evenodd" fill-opacity="1" /><path clip-path="url(#clip980)" d="M44.7161 565.456 L47.5806 565.456 L47.5806 592.383 Q53.6281 592.001 56.8109 588.754 Q59.9619 585.476 59.9619 579.651 Q59.9619 576.277 59.1344 573.126 Q58.3069 569.944 56.6518 566.824 L62.1899 566.824 Q63.5267 569.975 64.227 573.286 Q64.9272 576.596 64.9272 580.001 Q64.9272 588.531 59.9619 593.529 Q54.9967 598.494 46.5303 598.494 Q37.7774 598.494 32.6531 593.783 Q27.4968 589.041 27.4968 581.02 Q27.4968 573.827 32.1438 569.657 Q36.7589 565.456 44.7161 565.456 M42.9973 571.312 Q38.1912 571.376 35.3266 574.018 Q32.4621 576.628 32.4621 580.956 Q32.4621 585.858 35.2312 588.818 Q38.0002 591.746 43.0292 592.192 L42.9973 571.312 Z" fill="#000000" fill-rule="evenodd" fill-opacity="1" /><path clip-path="url(#clip980)" d="M42.4881 526.211 L64.0042 526.211 L64.0042 532.068 L42.679 532.068 Q37.6183 532.068 35.1038 534.041 Q32.5894 536.014 32.5894 539.961 Q32.5894 544.704 35.6131 547.441 Q38.6368 550.178 43.8567 550.178 L64.0042 550.178 L64.0042 556.066 L28.3562 556.066 L28.3562 550.178 L33.8944 550.178 Q30.6797 548.077 29.0883 545.245 Q27.4968 542.38 27.4968 538.656 Q27.4968 532.513 31.3163 529.362 Q35.1038 526.211 42.4881 526.211 Z" fill="#000000" fill-rule="evenodd" fill-opacity="1" /><path clip-path="url(#clip980)" d="M49.9359 515.135 L28.3562 515.135 L28.3562 509.278 L49.7131 509.278 Q54.7739 509.278 57.3202 507.305 Q59.8346 505.332 59.8346 501.385 Q59.8346 496.643 56.8109 493.905 Q53.7872 491.136 48.5673 491.136 L28.3562 491.136 L28.3562 485.28 L64.0042 485.28 L64.0042 491.136 L58.5296 491.136 Q61.7762 493.269 63.3676 496.101 Q64.9272 498.902 64.9272 502.626 Q64.9272 508.769 61.1078 511.952 Q57.2883 515.135 49.9359 515.135 M27.4968 500.398 L27.4968 500.398 Z" fill="#000000" fill-rule="evenodd" fill-opacity="1" /><path clip-path="url(#clip980)" d="M18.2347 467.424 L28.3562 467.424 L28.3562 455.361 L32.9077 455.361 L32.9077 467.424 L52.2594 467.424 Q56.6199 467.424 57.8613 466.246 Q59.1026 465.037 59.1026 461.376 L59.1026 455.361 L64.0042 455.361 L64.0042 461.376 Q64.0042 468.156 61.4897 470.734 Q58.9434 473.312 52.2594 473.312 L32.9077 473.312 L32.9077 477.609 L28.3562 477.609 L28.3562 473.312 L18.2347 473.312 L18.2347 467.424 Z" fill="#000000" fill-rule="evenodd" fill-opacity="1" /><path clip-path="url(#clip980)" d="M46.0847 431.458 Q46.0847 438.555 47.7079 441.293 Q49.3312 444.03 53.2461 444.03 Q56.3653 444.03 58.2114 441.993 Q60.0256 439.924 60.0256 436.391 Q60.0256 431.521 56.5881 428.593 Q53.1188 425.633 47.3897 425.633 L46.0847 425.633 L46.0847 431.458 M43.6657 419.777 L64.0042 419.777 L64.0042 425.633 L58.5933 425.633 Q61.8398 427.638 63.3994 430.63 Q64.9272 433.622 64.9272 437.951 Q64.9272 443.425 61.8716 446.672 Q58.7843 449.886 53.6281 449.886 Q47.6125 449.886 44.5569 445.876 Q41.5014 441.834 41.5014 433.845 L41.5014 425.633 L40.9285 425.633 Q36.8862 425.633 34.6901 428.307 Q32.4621 430.948 32.4621 435.755 Q32.4621 438.81 33.1941 441.706 Q33.9262 444.603 35.3903 447.276 L29.9795 447.276 Q28.7381 444.062 28.1334 441.038 Q27.4968 438.014 27.4968 435.15 Q27.4968 427.415 31.5072 423.596 Q35.5176 419.777 43.6657 419.777 Z" fill="#000000" fill-rule="evenodd" fill-opacity="1" /><polyline clip-path="url(#clip982)" style="stroke:#009af9; stroke-linecap:butt; stroke-linejoin:round; stroke-width:4; stroke-opacity:1; fill:none" points="
  2293.32,404.964 1798.04,566.231 1302.76,888.669 807.479,1211.09 312.198,1372.3 
  "/>
<polyline clip-path="url(#clip982)" style="stroke:#e26f46; stroke-linecap:butt; stroke-linejoin:round; stroke-width:4; stroke-opacity:1; fill:none" points="
  2293.32,85.838 1798.04,353.603 1302.76,621.368 807.479,889.134 312.198,1156.9 
  "/>
<path clip-path="url(#clip980)" d="
M1534.89 248.219 L2282.76 248.219 L2282.76 92.6992 L1534.89 92.6992  Z
  " fill="#ffffff" fill-rule="evenodd" fill-opacity="1"/>
<polyline clip-path="url(#clip980)" style="stroke:#000000; stroke-linecap:butt; stroke-linejoin:round; stroke-width:4; stroke-opacity:1; fill:none" points="
  1534.89,248.219 2282.76,248.219 2282.76,92.6992 1534.89,92.6992 1534.89,248.219 
  "/>
<polyline clip-path="url(#clip980)" style="stroke:#009af9; stroke-linecap:butt; stroke-linejoin:round; stroke-width:4; stroke-opacity:1; fill:none" points="
  1558.22,144.539 1698.22,144.539 
  "/>
<path clip-path="url(#clip980)" d="M1721.56 127.259 L1728.52 127.259 L1737.34 150.778 L1746.21 127.259 L1753.18 127.259 L1753.18 161.819 L1748.62 161.819 L1748.62 131.472 L1739.7 155.176 L1735 155.176 L1726.09 131.472 L1726.09 161.819 L1721.56 161.819 L1721.56 127.259 Z" fill="#000000" fill-rule="evenodd" fill-opacity="1" /><path clip-path="url(#clip980)" d="M1762.27 135.893 L1766.53 135.893 L1766.53 161.819 L1762.27 161.819 L1762.27 135.893 M1762.27 125.801 L1766.53 125.801 L1766.53 131.194 L1762.27 131.194 L1762.27 125.801 Z" fill="#000000" fill-rule="evenodd" fill-opacity="1" /><path clip-path="url(#clip980)" d="M1791.97 136.657 L1791.97 140.685 Q1790.17 139.759 1788.22 139.296 Q1786.28 138.833 1784.19 138.833 Q1781.02 138.833 1779.43 139.805 Q1777.85 140.778 1777.85 142.722 Q1777.85 144.204 1778.99 145.06 Q1780.12 145.893 1783.55 146.657 L1785 146.981 Q1789.54 147.954 1791.44 149.736 Q1793.36 151.495 1793.36 154.666 Q1793.36 158.278 1790.49 160.384 Q1787.64 162.49 1782.64 162.49 Q1780.56 162.49 1778.29 162.074 Q1776.05 161.68 1773.55 160.87 L1773.55 156.472 Q1775.91 157.699 1778.2 158.324 Q1780.49 158.926 1782.74 158.926 Q1785.74 158.926 1787.37 157.907 Q1788.99 156.866 1788.99 154.991 Q1788.99 153.254 1787.81 152.328 Q1786.65 151.403 1782.69 150.546 L1781.21 150.199 Q1777.25 149.366 1775.49 147.653 Q1773.73 145.916 1773.73 142.907 Q1773.73 139.25 1776.32 137.259 Q1778.92 135.268 1783.68 135.268 Q1786.05 135.268 1788.13 135.616 Q1790.21 135.963 1791.97 136.657 Z" fill="#000000" fill-rule="evenodd" fill-opacity="1" /><path clip-path="url(#clip980)" d="M1799.7 151.588 L1799.7 135.893 L1803.96 135.893 L1803.96 151.426 Q1803.96 155.106 1805.4 156.958 Q1806.83 158.787 1809.7 158.787 Q1813.15 158.787 1815.14 156.588 Q1817.16 154.389 1817.16 150.592 L1817.16 135.893 L1821.42 135.893 L1821.42 161.819 L1817.16 161.819 L1817.16 157.838 Q1815.61 160.199 1813.55 161.356 Q1811.51 162.49 1808.8 162.49 Q1804.33 162.49 1802.02 159.713 Q1799.7 156.935 1799.7 151.588 M1810.42 135.268 L1810.42 135.268 Z" fill="#000000" fill-rule="evenodd" fill-opacity="1" /><path clip-path="url(#clip980)" d="M1845.21 139.875 Q1844.49 139.458 1843.64 139.273 Q1842.8 139.065 1841.79 139.065 Q1838.18 139.065 1836.23 141.426 Q1834.31 143.764 1834.31 148.162 L1834.31 161.819 L1830.03 161.819 L1830.03 135.893 L1834.31 135.893 L1834.31 139.921 Q1835.65 137.56 1837.8 136.426 Q1839.96 135.268 1843.04 135.268 Q1843.48 135.268 1844.01 135.338 Q1844.54 135.384 1845.19 135.5 L1845.21 139.875 Z" fill="#000000" fill-rule="evenodd" fill-opacity="1" /><path clip-path="url(#clip980)" d="M1861.46 148.787 Q1856.3 148.787 1854.31 149.967 Q1852.32 151.148 1852.32 153.995 Q1852.32 156.264 1853.8 157.606 Q1855.3 158.926 1857.87 158.926 Q1861.42 158.926 1863.55 156.426 Q1865.7 153.903 1865.7 149.736 L1865.7 148.787 L1861.46 148.787 M1869.96 147.028 L1869.96 161.819 L1865.7 161.819 L1865.7 157.884 Q1864.24 160.245 1862.06 161.379 Q1859.89 162.49 1856.74 162.49 Q1852.76 162.49 1850.4 160.268 Q1848.06 158.023 1848.06 154.273 Q1848.06 149.898 1850.98 147.676 Q1853.92 145.454 1859.73 145.454 L1865.7 145.454 L1865.7 145.037 Q1865.7 142.097 1863.75 140.5 Q1861.83 138.879 1858.34 138.879 Q1856.11 138.879 1854.01 139.412 Q1851.9 139.944 1849.96 141.009 L1849.96 137.074 Q1852.3 136.171 1854.49 135.731 Q1856.69 135.268 1858.78 135.268 Q1864.4 135.268 1867.18 138.185 Q1869.96 141.102 1869.96 147.028 Z" fill="#000000" fill-rule="evenodd" fill-opacity="1" /><path clip-path="url(#clip980)" d="M1882.94 128.532 L1882.94 135.893 L1891.72 135.893 L1891.72 139.204 L1882.94 139.204 L1882.94 153.278 Q1882.94 156.449 1883.8 157.352 Q1884.68 158.254 1887.34 158.254 L1891.72 158.254 L1891.72 161.819 L1887.34 161.819 Q1882.41 161.819 1880.54 159.99 Q1878.66 158.139 1878.66 153.278 L1878.66 139.204 L1875.54 139.204 L1875.54 135.893 L1878.66 135.893 L1878.66 128.532 L1882.94 128.532 Z" fill="#000000" fill-rule="evenodd" fill-opacity="1" /><path clip-path="url(#clip980)" d="M1907.36 138.879 Q1903.94 138.879 1901.95 141.565 Q1899.96 144.227 1899.96 148.879 Q1899.96 153.532 1901.92 156.217 Q1903.92 158.879 1907.36 158.879 Q1910.77 158.879 1912.76 156.194 Q1914.75 153.509 1914.75 148.879 Q1914.75 144.273 1912.76 141.588 Q1910.77 138.879 1907.36 138.879 M1907.36 135.268 Q1912.92 135.268 1916.09 138.879 Q1919.26 142.491 1919.26 148.879 Q1919.26 155.245 1916.09 158.879 Q1912.92 162.49 1907.36 162.49 Q1901.79 162.49 1898.61 158.879 Q1895.47 155.245 1895.47 148.879 Q1895.47 142.491 1898.61 138.879 Q1901.79 135.268 1907.36 135.268 Z" fill="#000000" fill-rule="evenodd" fill-opacity="1" /><polyline clip-path="url(#clip980)" style="stroke:#e26f46; stroke-linecap:butt; stroke-linejoin:round; stroke-width:4; stroke-opacity:1; fill:none" points="
  1558.22,196.379 1698.22,196.379 
  "/>
<path clip-path="url(#clip980)" d="M1749.43 181.761 L1749.43 186.692 Q1747.06 184.493 1744.38 183.405 Q1741.72 182.317 1738.71 182.317 Q1732.78 182.317 1729.63 185.951 Q1726.49 189.562 1726.49 196.414 Q1726.49 203.243 1729.63 206.877 Q1732.78 210.488 1738.71 210.488 Q1741.72 210.488 1744.38 209.4 Q1747.06 208.312 1749.43 206.113 L1749.43 210.997 Q1746.97 212.664 1744.22 213.497 Q1741.49 214.33 1738.43 214.33 Q1730.58 214.33 1726.07 209.539 Q1721.56 204.724 1721.56 196.414 Q1721.56 188.081 1726.07 183.289 Q1730.58 178.474 1738.43 178.474 Q1741.53 178.474 1744.26 179.308 Q1747.02 180.118 1749.43 181.761 Z" fill="#000000" fill-rule="evenodd" fill-opacity="1" /><path clip-path="url(#clip980)" d="M1768.24 200.627 Q1763.08 200.627 1761.09 201.807 Q1759.1 202.988 1759.1 205.835 Q1759.1 208.104 1760.58 209.446 Q1762.09 210.766 1764.66 210.766 Q1768.2 210.766 1770.33 208.266 Q1772.48 205.743 1772.48 201.576 L1772.48 200.627 L1768.24 200.627 M1776.74 198.868 L1776.74 213.659 L1772.48 213.659 L1772.48 209.724 Q1771.02 212.085 1768.85 213.219 Q1766.67 214.33 1763.52 214.33 Q1759.54 214.33 1757.18 212.108 Q1754.84 209.863 1754.84 206.113 Q1754.84 201.738 1757.76 199.516 Q1760.7 197.294 1766.51 197.294 L1772.48 197.294 L1772.48 196.877 Q1772.48 193.937 1770.54 192.34 Q1768.62 190.719 1765.12 190.719 Q1762.9 190.719 1760.79 191.252 Q1758.68 191.784 1756.74 192.849 L1756.74 188.914 Q1759.08 188.011 1761.28 187.571 Q1763.48 187.108 1765.56 187.108 Q1771.18 187.108 1773.96 190.025 Q1776.74 192.942 1776.74 198.868 Z" fill="#000000" fill-rule="evenodd" fill-opacity="1" /><path clip-path="url(#clip980)" d="M1802.04 188.497 L1802.04 192.525 Q1800.24 191.599 1798.29 191.136 Q1796.35 190.673 1794.26 190.673 Q1791.09 190.673 1789.49 191.645 Q1787.92 192.618 1787.92 194.562 Q1787.92 196.044 1789.06 196.9 Q1790.19 197.733 1793.62 198.497 L1795.07 198.821 Q1799.61 199.794 1801.51 201.576 Q1803.43 203.335 1803.43 206.506 Q1803.43 210.118 1800.56 212.224 Q1797.71 214.33 1792.71 214.33 Q1790.63 214.33 1788.36 213.914 Q1786.12 213.52 1783.62 212.71 L1783.62 208.312 Q1785.98 209.539 1788.27 210.164 Q1790.56 210.766 1792.81 210.766 Q1795.81 210.766 1797.43 209.747 Q1799.05 208.706 1799.05 206.831 Q1799.05 205.094 1797.87 204.168 Q1796.72 203.243 1792.76 202.386 L1791.28 202.039 Q1787.32 201.206 1785.56 199.493 Q1783.8 197.756 1783.8 194.747 Q1783.8 191.09 1786.39 189.099 Q1788.99 187.108 1793.75 187.108 Q1796.12 187.108 1798.2 187.456 Q1800.28 187.803 1802.04 188.497 Z" fill="#000000" fill-rule="evenodd" fill-opacity="1" /><path clip-path="url(#clip980)" d="M1820.26 190.719 Q1816.83 190.719 1814.84 193.405 Q1812.85 196.067 1812.85 200.719 Q1812.85 205.372 1814.82 208.057 Q1816.81 210.719 1820.26 210.719 Q1823.66 210.719 1825.65 208.034 Q1827.64 205.349 1827.64 200.719 Q1827.64 196.113 1825.65 193.428 Q1823.66 190.719 1820.26 190.719 M1820.26 187.108 Q1825.81 187.108 1828.99 190.719 Q1832.16 194.331 1832.16 200.719 Q1832.16 207.085 1828.99 210.719 Q1825.81 214.33 1820.26 214.33 Q1814.68 214.33 1811.51 210.719 Q1808.36 207.085 1808.36 200.719 Q1808.36 194.331 1811.51 190.719 Q1814.68 187.108 1820.26 187.108 Z" fill="#000000" fill-rule="evenodd" fill-opacity="1" /><path clip-path="url(#clip980)" d="M1858.5 180.372 L1858.5 187.733 L1867.27 187.733 L1867.27 191.044 L1858.5 191.044 L1858.5 205.118 Q1858.5 208.289 1859.36 209.192 Q1860.24 210.094 1862.9 210.094 L1867.27 210.094 L1867.27 213.659 L1862.9 213.659 Q1857.97 213.659 1856.09 211.83 Q1854.22 209.979 1854.22 205.118 L1854.22 191.044 L1851.09 191.044 L1851.09 187.733 L1854.22 187.733 L1854.22 180.372 L1858.5 180.372 Z" fill="#000000" fill-rule="evenodd" fill-opacity="1" /><path clip-path="url(#clip980)" d="M1895.05 199.631 L1895.05 201.715 L1875.47 201.715 Q1875.74 206.113 1878.11 208.428 Q1880.49 210.719 1884.73 210.719 Q1887.18 210.719 1889.47 210.118 Q1891.79 209.516 1894.05 208.312 L1894.05 212.34 Q1891.76 213.312 1889.36 213.821 Q1886.95 214.33 1884.47 214.33 Q1878.27 214.33 1874.63 210.719 Q1871.02 207.108 1871.02 200.951 Q1871.02 194.585 1874.45 190.858 Q1877.9 187.108 1883.73 187.108 Q1888.96 187.108 1891.99 190.488 Q1895.05 193.844 1895.05 199.631 M1890.79 198.381 Q1890.74 194.886 1888.82 192.803 Q1886.92 190.719 1883.78 190.719 Q1880.21 190.719 1878.06 192.733 Q1875.93 194.747 1875.61 198.405 L1890.79 198.381 Z" fill="#000000" fill-rule="evenodd" fill-opacity="1" /><path clip-path="url(#clip980)" d="M1912.09 190.719 Q1908.66 190.719 1906.67 193.405 Q1904.68 196.067 1904.68 200.719 Q1904.68 205.372 1906.65 208.057 Q1908.64 210.719 1912.09 210.719 Q1915.49 210.719 1917.48 208.034 Q1919.47 205.349 1919.47 200.719 Q1919.47 196.113 1917.48 193.428 Q1915.49 190.719 1912.09 190.719 M1912.09 187.108 Q1917.64 187.108 1920.81 190.719 Q1923.98 194.331 1923.98 200.719 Q1923.98 207.085 1920.81 210.719 Q1917.64 214.33 1912.09 214.33 Q1906.51 214.33 1903.34 210.719 Q1900.19 207.085 1900.19 200.719 Q1900.19 194.331 1903.34 190.719 Q1906.51 187.108 1912.09 187.108 Z" fill="#000000" fill-rule="evenodd" fill-opacity="1" /><path clip-path="url(#clip980)" d="M1946.07 191.715 Q1945.35 191.298 1944.49 191.113 Q1943.66 190.905 1942.64 190.905 Q1939.03 190.905 1937.09 193.266 Q1935.17 195.604 1935.17 200.002 L1935.17 213.659 L1930.88 213.659 L1930.88 187.733 L1935.17 187.733 L1935.17 191.761 Q1936.51 189.4 1938.66 188.266 Q1940.81 187.108 1943.89 187.108 Q1944.33 187.108 1944.86 187.178 Q1945.4 187.224 1946.04 187.34 L1946.07 191.715 Z" fill="#000000" fill-rule="evenodd" fill-opacity="1" /><path clip-path="url(#clip980)" d="M1950.54 187.733 L1954.79 187.733 L1954.79 213.659 L1950.54 213.659 L1950.54 187.733 M1950.54 177.641 L1954.79 177.641 L1954.79 183.034 L1950.54 183.034 L1950.54 177.641 Z" fill="#000000" fill-rule="evenodd" fill-opacity="1" /><path clip-path="url(#clip980)" d="M1982.36 188.729 L1982.36 192.71 Q1980.56 191.715 1978.73 191.229 Q1976.92 190.719 1975.07 190.719 Q1970.93 190.719 1968.64 193.358 Q1966.35 195.974 1966.35 200.719 Q1966.35 205.465 1968.64 208.104 Q1970.93 210.719 1975.07 210.719 Q1976.92 210.719 1978.73 210.233 Q1980.56 209.724 1982.36 208.729 L1982.36 212.664 Q1980.58 213.497 1978.66 213.914 Q1976.76 214.33 1974.61 214.33 Q1968.75 214.33 1965.3 210.65 Q1961.86 206.969 1961.86 200.719 Q1961.86 194.377 1965.33 190.743 Q1968.82 187.108 1974.89 187.108 Q1976.85 187.108 1978.73 187.525 Q1980.6 187.919 1982.36 188.729 Z" fill="#000000" fill-rule="evenodd" fill-opacity="1" /><path clip-path="url(#clip980)" d="M1999.82 190.719 Q1996.39 190.719 1994.4 193.405 Q1992.41 196.067 1992.41 200.719 Q1992.41 205.372 1994.38 208.057 Q1996.37 210.719 1999.82 210.719 Q2003.22 210.719 2005.21 208.034 Q2007.2 205.349 2007.2 200.719 Q2007.2 196.113 2005.21 193.428 Q2003.22 190.719 1999.82 190.719 M1999.82 187.108 Q2005.37 187.108 2008.54 190.719 Q2011.72 194.331 2011.72 200.719 Q2011.72 207.085 2008.54 210.719 Q2005.37 214.33 1999.82 214.33 Q1994.24 214.33 1991.07 210.719 Q1987.92 207.085 1987.92 200.719 Q1987.92 194.331 1991.07 190.719 Q1994.24 187.108 1999.82 187.108 Z" fill="#000000" fill-rule="evenodd" fill-opacity="1" /><path clip-path="url(#clip980)" d="M2037.97 209.77 L2037.97 223.52 L2033.68 223.52 L2033.68 187.733 L2037.97 187.733 L2037.97 191.669 Q2039.31 189.354 2041.35 188.243 Q2043.41 187.108 2046.25 187.108 Q2050.97 187.108 2053.91 190.858 Q2056.88 194.608 2056.88 200.719 Q2056.88 206.831 2053.91 210.58 Q2050.97 214.33 2046.25 214.33 Q2043.41 214.33 2041.35 213.219 Q2039.31 212.085 2037.97 209.77 M2052.46 200.719 Q2052.46 196.02 2050.51 193.358 Q2048.59 190.673 2045.21 190.673 Q2041.83 190.673 2039.89 193.358 Q2037.97 196.02 2037.97 200.719 Q2037.97 205.418 2039.89 208.104 Q2041.83 210.766 2045.21 210.766 Q2048.59 210.766 2050.51 208.104 Q2052.46 205.418 2052.46 200.719 Z" fill="#000000" fill-rule="evenodd" fill-opacity="1" /><path clip-path="url(#clip980)" d="M2086.11 199.631 L2086.11 201.715 L2066.53 201.715 Q2066.81 206.113 2069.17 208.428 Q2071.55 210.719 2075.79 210.719 Q2078.24 210.719 2080.53 210.118 Q2082.85 209.516 2085.12 208.312 L2085.12 212.34 Q2082.83 213.312 2080.42 213.821 Q2078.01 214.33 2075.53 214.33 Q2069.33 214.33 2065.7 210.719 Q2062.09 207.108 2062.09 200.951 Q2062.09 194.585 2065.51 190.858 Q2068.96 187.108 2074.79 187.108 Q2080.03 187.108 2083.06 190.488 Q2086.11 193.844 2086.11 199.631 M2081.85 198.381 Q2081.81 194.886 2079.89 192.803 Q2077.99 190.719 2074.84 190.719 Q2071.28 190.719 2069.12 192.733 Q2066.99 194.747 2066.67 198.405 L2081.85 198.381 Z" fill="#000000" fill-rule="evenodd" fill-opacity="1" /><path clip-path="url(#clip980)" d="M2110.16 200.395 Q2110.16 195.766 2108.24 193.219 Q2106.35 190.673 2102.9 190.673 Q2099.47 190.673 2097.55 193.219 Q2095.65 195.766 2095.65 200.395 Q2095.65 205.002 2097.55 207.548 Q2099.47 210.094 2102.9 210.094 Q2106.35 210.094 2108.24 207.548 Q2110.16 205.002 2110.16 200.395 M2114.42 210.442 Q2114.42 217.062 2111.48 220.28 Q2108.54 223.52 2102.48 223.52 Q2100.23 223.52 2098.24 223.173 Q2096.25 222.849 2094.38 222.155 L2094.38 218.011 Q2096.25 219.03 2098.08 219.516 Q2099.91 220.002 2101.81 220.002 Q2106 220.002 2108.08 217.803 Q2110.16 215.627 2110.16 211.205 L2110.16 209.099 Q2108.84 211.391 2106.78 212.525 Q2104.72 213.659 2101.85 213.659 Q2097.09 213.659 2094.17 210.025 Q2091.25 206.391 2091.25 200.395 Q2091.25 194.377 2094.17 190.743 Q2097.09 187.108 2101.85 187.108 Q2104.72 187.108 2106.78 188.243 Q2108.84 189.377 2110.16 191.669 L2110.16 187.733 L2114.42 187.733 L2114.42 210.442 Z" fill="#000000" fill-rule="evenodd" fill-opacity="1" /><path clip-path="url(#clip980)" d="M2140.26 200.395 Q2140.26 195.766 2138.34 193.219 Q2136.44 190.673 2132.99 190.673 Q2129.56 190.673 2127.64 193.219 Q2125.74 195.766 2125.74 200.395 Q2125.74 205.002 2127.64 207.548 Q2129.56 210.094 2132.99 210.094 Q2136.44 210.094 2138.34 207.548 Q2140.26 205.002 2140.26 200.395 M2144.52 210.442 Q2144.52 217.062 2141.58 220.28 Q2138.64 223.52 2132.57 223.52 Q2130.33 223.52 2128.34 223.173 Q2126.34 222.849 2124.47 222.155 L2124.47 218.011 Q2126.34 219.03 2128.17 219.516 Q2130 220.002 2131.9 220.002 Q2136.09 220.002 2138.17 217.803 Q2140.26 215.627 2140.26 211.205 L2140.26 209.099 Q2138.94 211.391 2136.88 212.525 Q2134.82 213.659 2131.95 213.659 Q2127.18 213.659 2124.26 210.025 Q2121.34 206.391 2121.34 200.395 Q2121.34 194.377 2124.26 190.743 Q2127.18 187.108 2131.95 187.108 Q2134.82 187.108 2136.88 188.243 Q2138.94 189.377 2140.26 191.669 L2140.26 187.733 L2144.52 187.733 L2144.52 210.442 Z" fill="#000000" fill-rule="evenodd" fill-opacity="1" /><path clip-path="url(#clip980)" d="M2153.29 187.733 L2157.55 187.733 L2157.55 213.659 L2153.29 213.659 L2153.29 187.733 M2153.29 177.641 L2157.55 177.641 L2157.55 183.034 L2153.29 183.034 L2153.29 177.641 Z" fill="#000000" fill-rule="evenodd" fill-opacity="1" /><path clip-path="url(#clip980)" d="M2176.51 190.719 Q2173.08 190.719 2171.09 193.405 Q2169.1 196.067 2169.1 200.719 Q2169.1 205.372 2171.07 208.057 Q2173.06 210.719 2176.51 210.719 Q2179.91 210.719 2181.9 208.034 Q2183.89 205.349 2183.89 200.719 Q2183.89 196.113 2181.9 193.428 Q2179.91 190.719 2176.51 190.719 M2176.51 187.108 Q2182.06 187.108 2185.23 190.719 Q2188.4 194.331 2188.4 200.719 Q2188.4 207.085 2185.23 210.719 Q2182.06 214.33 2176.51 214.33 Q2170.93 214.33 2167.76 210.719 Q2164.61 207.085 2164.61 200.719 Q2164.61 194.331 2167.76 190.719 Q2170.93 187.108 2176.51 187.108 Z" fill="#000000" fill-rule="evenodd" fill-opacity="1" /><path clip-path="url(#clip980)" d="M2210.49 191.715 Q2209.77 191.298 2208.91 191.113 Q2208.08 190.905 2207.06 190.905 Q2203.45 190.905 2201.51 193.266 Q2199.59 195.604 2199.59 200.002 L2199.59 213.659 L2195.3 213.659 L2195.3 187.733 L2199.59 187.733 L2199.59 191.761 Q2200.93 189.4 2203.08 188.266 Q2205.23 187.108 2208.31 187.108 Q2208.75 187.108 2209.28 187.178 Q2209.82 187.224 2210.46 187.34 L2210.49 191.715 Z" fill="#000000" fill-rule="evenodd" fill-opacity="1" /><path clip-path="url(#clip980)" d="M2236.09 199.631 L2236.09 201.715 L2216.51 201.715 Q2216.78 206.113 2219.15 208.428 Q2221.53 210.719 2225.77 210.719 Q2228.22 210.719 2230.51 210.118 Q2232.83 209.516 2235.09 208.312 L2235.09 212.34 Q2232.8 213.312 2230.4 213.821 Q2227.99 214.33 2225.51 214.33 Q2219.31 214.33 2215.67 210.719 Q2212.06 207.108 2212.06 200.951 Q2212.06 194.585 2215.49 190.858 Q2218.94 187.108 2224.77 187.108 Q2230 187.108 2233.03 190.488 Q2236.09 193.844 2236.09 199.631 M2231.83 198.381 Q2231.78 194.886 2229.86 192.803 Q2227.96 190.719 2224.82 190.719 Q2221.25 190.719 2219.1 192.733 Q2216.97 194.747 2216.65 198.405 L2231.83 198.381 Z" fill="#000000" fill-rule="evenodd" fill-opacity="1" /></svg>
